<?xml version="1.0" encoding="UTF-8" standalone="no"?>
<svg xmlns:ffdec="https://www.free-decompiler.com/flash" xmlns:xlink="http://www.w3.org/1999/xlink" ffdec:objectType="frame" height="14.9px" width="20.3px" xmlns="http://www.w3.org/2000/svg">
  <g transform="matrix(1.0, 0.0, 0.0, 1.0, 9.95, 8.05)">
    <use ffdec:characterId="505" height="14.9" transform="matrix(1.0, 0.0, 0.0, 1.0, -9.95, -8.05)" width="20.3" xlink:href="#sprite0"/>
  </g>
  <defs>
    <g id="sprite0" transform="matrix(1.0, 0.0, 0.0, 1.0, 9.95, 8.0)">
      <use ffdec:characterId="504" height="14.9" transform="matrix(1.0, 0.0, 0.0, 1.0, -9.95, -8.0)" width="20.3" xlink:href="#shape0"/>
    </g>
    <g id="shape0" transform="matrix(1.0, 0.0, 0.0, 1.0, 9.95, 8.0)">
      <path d="M6.7 -5.95 L5.8 -6.45 5.8 -7.8 6.6 -8.0 9.25 -6.7 Q9.95 -5.5 10.25 -4.1 10.55 -2.55 9.7 -1.4 9.35 2.7 5.85 4.9 3.4 6.4 0.5 6.7 -4.15 7.4 -8.5 5.7 L-8.85 5.15 -9.95 4.35 -9.95 4.3 -9.95 2.6 Q-5.95 2.3 -2.05 1.1 3.25 -0.55 5.8 -5.45 L6.6 -5.8 6.95 -5.15 Q4.85 -1.55 1.3 0.65 -3.2 3.35 -8.45 3.8 L-8.6 3.8 Q-4.25 6.45 0.85 5.8 6.5 4.95 8.1 -0.35 L8.45 -1.95 8.8 -2.5 9.05 -3.1 9.15 -3.7 9.15 -4.4 8.85 -4.7 8.45 -5.45 6.7 -5.95" fill="#000000" fill-rule="evenodd" stroke="none"/>
      <path d="M6.7 -5.95 L8.45 -5.45 8.85 -4.7 8.8 -4.7 8.75 -4.65 8.55 -4.4 8.5 -4.25 8.35 -3.75 8.1 -3.6 7.35 -2.4 7.2 -2.25 7.1 -2.2 6.85 -1.55 6.7 -1.5 6.7 -1.4 6.7 -1.35 5.7 -0.2 5.45 -0.15 5.4 0.0 5.35 0.15 5.15 0.3 5.1 0.4 4.8 0.65 Q3.8 1.8 2.2 2.3 L2.15 2.35 2.1 2.4 Q1.25 3.0 0.2 3.25 L0.15 3.3 0.1 3.35 -2.75 4.05 -3.65 4.2 -6.9 4.2 -6.95 4.2 -7.0 4.1 -7.6 4.05 -7.7 3.9 -8.1 3.9 -8.15 3.9 -8.2 3.8 -8.45 3.8 Q-3.2 3.35 1.3 0.65 4.85 -1.55 6.95 -5.15 L6.6 -5.8 6.7 -5.95" fill="#ffff00" fill-rule="evenodd" stroke="none"/>
      <path d="M8.85 -4.7 L9.15 -4.4 9.15 -3.7 9.05 -3.1 8.8 -2.5 8.45 -1.95 8.1 -0.35 Q6.5 4.95 0.85 5.8 -4.25 6.45 -8.6 3.8 L-8.45 3.8 -8.2 3.8 -8.15 3.9 -8.1 3.9 -7.7 3.9 -7.6 4.05 -7.0 4.1 -6.95 4.2 -6.9 4.2 -3.65 4.2 -2.75 4.05 0.1 3.35 0.15 3.3 0.2 3.25 Q1.25 3.0 2.1 2.4 L2.15 2.35 2.2 2.3 Q3.8 1.8 4.8 0.65 L5.1 0.4 5.15 0.3 5.35 0.15 5.4 0.0 5.45 -0.15 5.7 -0.2 6.7 -1.35 6.7 -1.4 6.7 -1.5 6.85 -1.55 7.1 -2.2 7.2 -2.25 7.35 -2.4 8.1 -3.6 8.35 -3.75 8.5 -4.25 8.55 -4.4 8.75 -4.65 8.8 -4.7 8.85 -4.7" fill="#e9e301" fill-rule="evenodd" stroke="none"/>
    </g>
  </defs>
</svg>
