<?xml version="1.0" encoding="UTF-8" standalone="no"?>
<svg xmlns:ffdec="https://www.free-decompiler.com/flash" xmlns:xlink="http://www.w3.org/1999/xlink" ffdec:objectType="frame" height="9.05px" width="34.15px" xmlns="http://www.w3.org/2000/svg">
  <g transform="matrix(1.0, 0.0, 0.0, 1.0, 16.2, 5.05)">
    <use ffdec:characterId="6" height="7.3" transform="matrix(1.0, 0.0, 0.0, 1.0, -16.2, -5.05)" width="23.85" xlink:href="#morphshape0"/>
  </g>
  <defs>
    <g id="morphshape0" transform="matrix(1.0, 0.0, 0.0, 1.0, 16.2, 5.05)">
      <path d="M-7.65 1.25 L-7.65 1.15 -7.5 0.6 -6.9 -0.25 -6.15 -1.0 Q-2.65 -0.65 -0.35 -1.7 L0.6 -2.25 1.5 -2.05 3.85 -1.55 Q5.5 -1.25 7.1 -1.0 L7.6 -0.15 7.6 0.5 7.5 0.55 Q6.85 0.8 6.2 1.05 3.0 2.15 -0.3 2.25 L-0.7 2.25 -1.7 2.25 Q-4.65 2.15 -7.65 1.25" fill="#000000" fill-rule="evenodd" stroke="none"/>
      <path d="M-7.65 1.25 Q-4.65 2.15 -1.7 2.25 L-0.7 2.25 -0.3 2.25 Q3.0 2.15 6.2 1.05 6.85 0.8 7.5 0.55 L7.6 0.5 7.6 -0.15 7.1 -1.0 Q5.5 -1.25 3.85 -1.55 L1.5 -2.05 0.6 -2.25 -0.35 -1.7 Q-2.65 -0.65 -6.15 -1.0 L-6.9 -0.25 -7.5 0.6 -7.65 1.15 -7.65 1.25 Z" ffdec:has-small-stroke="true" ffdec:original-stroke-width="0.0" fill="none" stroke="#000000" stroke-linecap="round" stroke-linejoin="round" stroke-opacity="0.0" stroke-width="1.0"/>
    </g>
  </defs>
</svg>
