<?xml version="1.0" encoding="UTF-8" standalone="no"?>
<svg xmlns:ffdec="https://www.free-decompiler.com/flash" xmlns:xlink="http://www.w3.org/1999/xlink" ffdec:objectType="frame" height="9.05px" width="34.15px" xmlns="http://www.w3.org/2000/svg">
  <g transform="matrix(1.0, 0.0, 0.0, 1.0, 16.2, 5.05)">
    <use ffdec:characterId="6" height="7.3" transform="matrix(1.0, 0.0, 0.0, 1.0, -16.2, -5.05)" width="23.85" xlink:href="#morphshape0"/>
  </g>
  <defs>
    <g id="morphshape0" transform="matrix(1.0, 0.0, 0.0, 1.0, 16.2, 5.05)">
      <path d="M-9.4 0.65 L-9.4 0.55 -9.25 0.2 -8.75 -0.4 -8.1 -0.9 Q-5.15 -0.35 -2.9 -1.15 L-2.0 -1.6 -1.15 -1.45 1.0 -1.2 Q2.5 -1.1 3.8 -1.15 L4.2 -0.6 4.2 -0.2 4.1 -0.2 Q3.55 -0.1 2.95 0.05 0.1 0.7 -2.95 0.8 L-3.3 0.8 -4.2 0.8 Q-6.95 0.85 -9.35 0.55" fill="#000000" fill-rule="evenodd" stroke="none"/>
      <path d="M-9.35 0.55 Q-6.95 0.85 -4.2 0.8 L-3.3 0.8 -2.95 0.8 Q0.1 0.7 2.95 0.05 3.55 -0.1 4.1 -0.2 L4.2 -0.2 4.2 -0.6 3.8 -1.15 Q2.5 -1.1 1.0 -1.2 L-1.15 -1.45 -2.0 -1.6 -2.9 -1.15 Q-5.15 -0.35 -8.1 -0.9 L-8.75 -0.4 -9.25 0.2 -9.4 0.55 -9.4 0.65" ffdec:has-small-stroke="true" ffdec:original-stroke-width="0.0" fill="none" stroke="#000000" stroke-linecap="round" stroke-linejoin="round" stroke-opacity="0.0" stroke-width="1.0"/>
    </g>
  </defs>
</svg>
