<?xml version="1.0" encoding="UTF-8" standalone="no"?>
<svg xmlns:ffdec="https://www.free-decompiler.com/flash" xmlns:xlink="http://www.w3.org/1999/xlink" ffdec:objectType="frame" height="9.05px" width="34.15px" xmlns="http://www.w3.org/2000/svg">
  <g transform="matrix(1.0, 0.0, 0.0, 1.0, 16.2, 5.05)">
    <use ffdec:characterId="6" height="7.3" transform="matrix(1.0, 0.0, 0.0, 1.0, -16.2, -5.05)" width="23.85" xlink:href="#morphshape0"/>
  </g>
  <defs>
    <g id="morphshape0" transform="matrix(1.0, 0.0, 0.0, 1.0, 16.2, 5.05)">
      <path d="M-11.1 -0.15 L-11.1 -0.2 -11.0 -0.35 -10.6 -0.65 -10.1 -0.9 Q-7.7 -0.15 -5.5 -0.7 L-4.65 -1.05 -3.9 -0.95 -1.95 -0.95 Q-0.6 -1.05 0.4 -1.35 L0.7 -1.05 0.7 -0.85 0.65 -0.85 Q0.2 -0.9 -0.35 -0.9 -2.85 -0.75 -5.65 -0.65 L-5.95 -0.65 -6.75 -0.6 Q-9.3 -0.4 -11.05 -0.15" fill="#000000" fill-rule="evenodd" stroke="none"/>
      <path d="M-11.05 -0.15 Q-9.3 -0.4 -6.75 -0.6 L-5.95 -0.65 -5.65 -0.65 Q-2.85 -0.75 -0.35 -0.9 0.2 -0.9 0.65 -0.85 L0.7 -0.85 0.7 -1.05 0.4 -1.35 Q-0.6 -1.05 -1.95 -0.95 L-3.9 -0.95 -4.65 -1.05 -5.5 -0.7 Q-7.7 -0.15 -10.1 -0.9 L-10.6 -0.65 -11.0 -0.35 -11.1 -0.2 -11.1 -0.15" ffdec:has-small-stroke="true" ffdec:original-stroke-width="0.0" fill="none" stroke="#000000" stroke-linecap="round" stroke-linejoin="round" stroke-opacity="0.0" stroke-width="1.0"/>
    </g>
  </defs>
</svg>
