<?xml version="1.0" encoding="UTF-8" standalone="no"?>
<svg xmlns:ffdec="https://www.free-decompiler.com/flash" xmlns:xlink="http://www.w3.org/1999/xlink" ffdec:objectType="frame" height="9.05px" width="34.15px" xmlns="http://www.w3.org/2000/svg">
  <g transform="matrix(1.0, 0.0, 0.0, 1.0, 16.2, 5.05)">
    <use ffdec:characterId="6" height="7.3" transform="matrix(1.0, 0.0, 0.0, 1.0, -16.2, -5.05)" width="23.85" xlink:href="#morphshape0"/>
  </g>
  <defs>
    <g id="morphshape0" transform="matrix(1.0, 0.0, 0.0, 1.0, 16.2, 5.05)">
      <path d="M-12.75 -0.9 L-12.75 -0.95 -12.65 -0.85 -12.3 -0.9 -11.9 -0.95 Q-10.1 0.05 -7.95 -0.25 L-7.15 -0.45 -6.45 -0.45 -4.65 -0.7 Q-3.5 -1.0 -2.85 -1.6 L-2.7 -1.6 -2.75 -1.65 -2.8 -1.7 Q-3.1 -1.9 -3.6 -2.0 -5.75 -2.3 -8.3 -2.15 L-8.55 -2.15 -9.3 -2.1 Q-11.65 -1.75 -12.8 -0.9" fill="#000000" fill-rule="evenodd" stroke="none"/>
      <path d="M-12.8 -0.9 Q-11.65 -1.75 -9.3 -2.1 L-8.55 -2.15 -8.3 -2.15 Q-5.75 -2.3 -3.6 -2.0 -3.1 -1.9 -2.8 -1.7 L-2.75 -1.65 -2.7 -1.6 -2.85 -1.6 Q-3.5 -1.0 -4.65 -0.7 L-6.45 -0.45 -7.15 -0.45 -7.95 -0.25 Q-10.1 0.05 -11.9 -0.95 L-12.3 -0.9 -12.65 -0.85 -12.75 -0.95 -12.75 -0.9" ffdec:has-small-stroke="true" ffdec:original-stroke-width="0.0" fill="none" stroke="#000000" stroke-linecap="round" stroke-linejoin="round" stroke-opacity="0.0" stroke-width="1.0"/>
    </g>
  </defs>
</svg>
