<?xml version="1.0" encoding="UTF-8" standalone="no"?>
<svg xmlns:ffdec="https://www.free-decompiler.com/flash" xmlns:xlink="http://www.w3.org/1999/xlink" ffdec:objectType="frame" height="9.05px" width="34.15px" xmlns="http://www.w3.org/2000/svg">
  <g transform="matrix(1.0, 0.0, 0.0, 1.0, 16.2, 5.05)">
    <use ffdec:characterId="6" height="7.3" transform="matrix(1.0, 0.0, 0.0, 1.0, -16.2, -5.05)" width="23.85" xlink:href="#morphshape0"/>
  </g>
  <defs>
    <g id="morphshape0" transform="matrix(1.0, 0.0, 0.0, 1.0, 16.2, 5.05)">
      <path d="M-14.45 -1.7 L-14.45 -1.7 -14.4 -1.4 -14.15 -1.15 -13.9 -0.95 Q-12.65 0.25 -10.55 0.2 L-9.8 0.1 -9.2 0.05 -7.6 -0.45 Q-6.6 -0.95 -6.25 -1.8 L-6.2 -2.05 -6.25 -2.3 -6.25 -2.35 Q-6.45 -2.7 -6.9 -2.95 -8.7 -3.75 -11.0 -3.6 L-11.2 -3.6 -11.85 -3.5 Q-14.0 -3.0 -14.5 -1.6" fill="#000000" fill-rule="evenodd" stroke="none"/>
      <path d="M-14.5 -1.6 Q-14.0 -3.0 -11.85 -3.5 L-11.2 -3.6 -11.0 -3.6 Q-8.7 -3.75 -6.9 -2.95 -6.45 -2.7 -6.25 -2.35 L-6.25 -2.3 -6.2 -2.05 -6.25 -1.8 Q-6.6 -0.95 -7.6 -0.45 L-9.2 0.05 -9.8 0.1 -10.55 0.2 Q-12.65 0.25 -13.9 -0.95 L-14.15 -1.15 -14.4 -1.4 -14.45 -1.7 -14.45 -1.7" ffdec:has-small-stroke="true" ffdec:original-stroke-width="0.0" fill="none" stroke="#000000" stroke-linecap="round" stroke-linejoin="round" stroke-opacity="0.0" stroke-width="1.0"/>
    </g>
  </defs>
</svg>
