<?xml version="1.0" encoding="UTF-8" standalone="no"?>
<svg xmlns:ffdec="https://www.free-decompiler.com/flash" xmlns:xlink="http://www.w3.org/1999/xlink" ffdec:objectType="frame" height="9.05px" width="34.15px" xmlns="http://www.w3.org/2000/svg">
  <g transform="matrix(1.0, 0.0, 0.0, 1.0, 16.2, 5.05)">
    <use ffdec:characterId="8" height="9.0" transform="matrix(1.0, 0.0, 0.0, 1.0, -16.2, -5.05)" width="34.15" xlink:href="#morphshape0"/>
  </g>
  <defs>
    <g id="morphshape0" transform="matrix(1.0, 0.0, 0.0, 1.0, 16.2, 5.05)">
      <path d="M-16.2 -2.3 L-16.15 -1.85 -16.1 -1.55 Q-15.6 0.5 -13.1 0.75 L-12.45 0.8 -11.85 0.65 Q-9.5 -0.15 -9.55 -2.3 L-9.6 -2.85 -9.65 -3.1 -10.05 -3.85 -10.15 -3.95 Q-10.75 -4.45 -11.45 -4.75 L-12.25 -4.95 Q-12.95 -5.0 -13.65 -5.05 L-13.8 -5.05 -14.35 -4.95 Q-16.3 -4.3 -16.2 -2.3" fill="#000000" fill-rule="evenodd" stroke="none"/>
      <path d="M-16.2 -2.3 Q-16.3 -4.3 -14.35 -4.95 L-13.8 -5.05 -13.65 -5.05 Q-12.95 -5.0 -12.25 -4.95 L-11.45 -4.75 Q-10.75 -4.45 -10.15 -3.95 L-10.05 -3.85 -9.65 -3.1 -9.6 -2.85 -9.55 -2.3 Q-9.5 -0.15 -11.85 0.65 L-12.45 0.8 -13.1 0.75 Q-15.6 0.5 -16.1 -1.55 L-16.15 -1.85 -16.2 -2.3 Z" ffdec:has-small-stroke="true" ffdec:original-stroke-width="0.0" fill="none" stroke="#000000" stroke-linecap="round" stroke-linejoin="round" stroke-opacity="0.0" stroke-width="1.0"/>
    </g>
  </defs>
</svg>
