<?xml version="1.0" encoding="UTF-8" standalone="no"?>
<svg xmlns:ffdec="https://www.free-decompiler.com/flash" xmlns:xlink="http://www.w3.org/1999/xlink" ffdec:objectType="frame" height="9.05px" width="34.15px" xmlns="http://www.w3.org/2000/svg">
  <g transform="matrix(1.0, 0.0, 0.0, 1.0, 16.2, 5.05)">
    <use ffdec:characterId="8" height="9.0" transform="matrix(1.0, 0.0, 0.0, 1.0, -16.2, -5.05)" width="34.15" xlink:href="#morphshape0"/>
  </g>
  <defs>
    <g id="morphshape0" transform="matrix(1.0, 0.0, 0.0, 1.0, 16.2, 5.05)">
      <path d="M-13.9 -1.5 L-13.85 -0.95 -13.7 -0.65 Q-12.2 0.65 -9.2 1.25 L-8.4 1.4 -7.6 1.3 Q-4.6 0.75 -4.1 -1.95 L-4.15 -2.7 -4.3 -2.9 -4.95 -3.5 -5.05 -3.5 Q-5.75 -3.5 -6.8 -3.65 L-7.85 -3.85 Q-8.75 -4.1 -9.65 -4.25 L-9.9 -4.3 -10.65 -4.3 Q-13.15 -3.9 -13.85 -1.55" fill="#000000" fill-rule="evenodd" stroke="none"/>
      <path d="M-13.85 -1.55 Q-13.15 -3.9 -10.65 -4.3 L-9.9 -4.3 -9.65 -4.25 Q-8.75 -4.1 -7.85 -3.85 L-6.8 -3.65 Q-5.75 -3.5 -5.05 -3.5 L-4.95 -3.5 -4.3 -2.9 -4.15 -2.7 -4.1 -1.95 Q-4.6 0.75 -7.6 1.3 L-8.4 1.4 -9.2 1.25 Q-12.2 0.65 -13.7 -0.65 L-13.85 -0.95 -13.9 -1.5" ffdec:has-small-stroke="true" ffdec:original-stroke-width="0.0" fill="none" stroke="#000000" stroke-linecap="round" stroke-linejoin="round" stroke-opacity="0.0" stroke-width="1.0"/>
    </g>
  </defs>
</svg>
