<?xml version="1.0" encoding="UTF-8" standalone="no"?>
<svg xmlns:ffdec="https://www.free-decompiler.com/flash" xmlns:xlink="http://www.w3.org/1999/xlink" ffdec:objectType="frame" height="9.05px" width="34.15px" xmlns="http://www.w3.org/2000/svg">
  <g transform="matrix(1.0, 0.0, 0.0, 1.0, 16.2, 5.05)">
    <use ffdec:characterId="8" height="9.0" transform="matrix(1.0, 0.0, 0.0, 1.0, -16.2, -5.05)" width="34.15" xlink:href="#morphshape0"/>
  </g>
  <defs>
    <g id="morphshape0" transform="matrix(1.0, 0.0, 0.0, 1.0, 16.2, 5.05)">
      <path d="M-9.15 -0.15 L-9.15 0.65 -8.75 1.0 Q-5.25 0.8 -1.25 2.05 L-0.15 2.45 1.05 2.5 Q5.35 2.5 7.0 -1.35 L7.0 -2.45 6.6 -2.55 5.4 -2.8 5.25 -2.65 Q4.3 -1.6 2.5 -1.4 L1.0 -1.6 Q-0.35 -2.25 -1.6 -2.6 L-2.0 -2.7 -3.2 -2.85 Q-6.85 -3.0 -9.2 0.0" fill="#000000" fill-rule="evenodd" stroke="none"/>
      <path d="M-9.2 0.0 Q-6.85 -3.0 -3.2 -2.85 L-2.0 -2.7 -1.6 -2.6 Q-0.35 -2.25 1.0 -1.6 L2.5 -1.4 Q4.3 -1.6 5.25 -2.65 L5.4 -2.8 6.6 -2.55 7.0 -2.45 7.0 -1.35 Q5.35 2.5 1.05 2.5 L-0.15 2.45 -1.25 2.05 Q-5.25 0.8 -8.75 1.0 L-9.15 0.65 -9.15 -0.15" ffdec:has-small-stroke="true" ffdec:original-stroke-width="0.0" fill="none" stroke="#000000" stroke-linecap="round" stroke-linejoin="round" stroke-opacity="0.0" stroke-width="1.0"/>
    </g>
  </defs>
</svg>
