<?xml version="1.0" encoding="UTF-8" standalone="no"?>
<svg xmlns:ffdec="https://www.free-decompiler.com/flash" xmlns:xlink="http://www.w3.org/1999/xlink" ffdec:objectType="frame" height="9.05px" width="34.15px" xmlns="http://www.w3.org/2000/svg">
  <g transform="matrix(1.0, 0.0, 0.0, 1.0, 16.2, 5.05)">
    <use ffdec:characterId="8" height="9.0" transform="matrix(1.0, 0.0, 0.0, 1.0, -16.2, -5.05)" width="34.15" xlink:href="#morphshape0"/>
  </g>
  <defs>
    <g id="morphshape0" transform="matrix(1.0, 0.0, 0.0, 1.0, 16.2, 5.05)">
      <path d="M-6.85 0.75 L-6.85 1.65 -6.3 2.0 Q-1.8 1.05 2.7 2.6 L3.95 3.1 5.35 3.25 Q10.3 3.5 12.5 -0.9 L12.5 -2.2 11.95 -2.25 10.5 -2.3 10.35 -2.1 Q9.3 -0.55 7.1 -0.15 L5.4 -0.35 Q3.85 -1.2 2.4 -1.65 L1.9 -1.8 0.5 -2.05 Q-3.7 -2.5 -6.9 0.8" fill="#000000" fill-rule="evenodd" stroke="none"/>
      <path d="M-6.9 0.8 Q-3.7 -2.5 0.5 -2.05 L1.9 -1.8 2.4 -1.65 Q3.85 -1.2 5.4 -0.35 L7.1 -0.15 Q9.3 -0.55 10.35 -2.1 L10.5 -2.3 11.95 -2.25 12.5 -2.2 12.5 -0.9 Q10.3 3.5 5.35 3.25 L3.95 3.1 2.7 2.6 Q-1.8 1.05 -6.3 2.0 L-6.85 1.65 -6.85 0.75" ffdec:has-small-stroke="true" ffdec:original-stroke-width="0.0" fill="none" stroke="#000000" stroke-linecap="round" stroke-linejoin="round" stroke-opacity="0.0" stroke-width="1.0"/>
    </g>
  </defs>
</svg>
