<?xml version="1.0" encoding="UTF-8" standalone="no"?>
<svg xmlns:ffdec="https://www.free-decompiler.com/flash" xmlns:xlink="http://www.w3.org/1999/xlink" ffdec:objectType="frame" height="9.05px" width="34.15px" xmlns="http://www.w3.org/2000/svg">
  <g transform="matrix(1.0, 0.0, 0.0, 1.0, 16.2, 5.05)">
    <use ffdec:characterId="10" height="6.25" transform="matrix(1.0, 0.0, 0.0, 1.0, -7.65, -2.25)" width="25.6" xlink:href="#morphshape0"/>
  </g>
  <defs>
    <g id="morphshape0" transform="matrix(1.0, 0.0, 0.0, 1.0, 7.65, 2.25)">
      <path d="M-4.55 1.55 L-4.55 2.55 -3.9 2.9 Q2.4 0.95 8.0 3.7 14.8 5.1 17.95 -0.55 L17.95 -2.05 15.6 -1.95 Q14.45 0.35 11.75 0.95 L9.8 0.75 Q1.75 -4.15 -4.55 1.55" fill="#000000" fill-rule="evenodd" stroke="none"/>
      <path d="M-4.55 1.55 Q1.75 -4.15 9.8 0.75 L11.75 0.95 Q14.45 0.35 15.6 -1.95 L17.95 -2.05 17.95 -0.55 Q14.8 5.1 8.0 3.7 2.4 0.95 -3.9 2.9 L-4.55 2.55 -4.55 1.55 Z" ffdec:has-small-stroke="true" ffdec:original-stroke-width="0.0" fill="none" stroke="#000000" stroke-linecap="round" stroke-linejoin="round" stroke-opacity="0.0" stroke-width="1.0"/>
    </g>
  </defs>
</svg>
