<?xml version="1.0" encoding="UTF-8" standalone="no"?>
<svg xmlns:ffdec="https://www.free-decompiler.com/flash" xmlns:xlink="http://www.w3.org/1999/xlink" ffdec:objectType="frame" height="9.05px" width="34.15px" xmlns="http://www.w3.org/2000/svg">
  <g transform="matrix(1.0, 0.0, 0.0, 1.0, 16.2, 5.05)">
    <use ffdec:characterId="10" height="6.25" transform="matrix(1.0, 0.0, 0.0, 1.0, -7.65, -2.25)" width="25.6" xlink:href="#morphshape0"/>
  </g>
  <defs>
    <g id="morphshape0" transform="matrix(1.0, 0.0, 0.0, 1.0, 7.65, 2.25)">
      <path d="M-5.15 1.5 L-5.1 2.15 -4.45 2.25 Q0.65 0.6 5.2 2.75 11.5 3.95 14.5 -0.9 L15.15 -1.95 13.9 -1.75 Q13.05 0.2 10.95 0.75 L9.4 0.7 Q1.45 -2.6 -5.15 1.5" fill="#000000" fill-rule="evenodd" stroke="none"/>
      <path d="M-5.15 1.5 Q1.45 -2.6 9.4 0.7 L10.95 0.75 Q13.05 0.2 13.9 -1.75 L15.15 -1.95 14.5 -0.9 Q11.5 3.95 5.2 2.75 0.65 0.6 -4.45 2.25 L-5.1 2.15 -5.15 1.5 Z" ffdec:has-small-stroke="true" ffdec:original-stroke-width="0.0" fill="none" stroke="#000000" stroke-linecap="round" stroke-linejoin="round" stroke-opacity="0.0" stroke-width="1.0"/>
    </g>
  </defs>
</svg>
