<?xml version="1.0" encoding="UTF-8" standalone="no"?>
<svg xmlns:ffdec="https://www.free-decompiler.com/flash" xmlns:xlink="http://www.w3.org/1999/xlink" ffdec:objectType="frame" height="9.05px" width="34.15px" xmlns="http://www.w3.org/2000/svg">
  <g transform="matrix(1.0, 0.0, 0.0, 1.0, 16.2, 5.05)">
    <use ffdec:characterId="10" height="6.25" transform="matrix(1.0, 0.0, 0.0, 1.0, -7.65, -2.25)" width="25.6" xlink:href="#morphshape0"/>
  </g>
  <defs>
    <g id="morphshape0" transform="matrix(1.0, 0.0, 0.0, 1.0, 7.65, 2.25)">
      <path d="M-5.85 1.45 L-5.8 1.8 -5.15 1.65 Q-1.2 0.3 2.3 1.8 8.1 2.8 11.0 -1.25 L12.3 -1.85 12.2 -1.55 Q11.6 0.0 10.1 0.5 L8.95 0.65 Q1.1 -1.05 -5.8 1.45" fill="#000000" fill-rule="evenodd" stroke="none"/>
      <path d="M-5.8 1.45 Q1.1 -1.05 8.95 0.65 L10.1 0.5 Q11.6 0.0 12.2 -1.55 L12.3 -1.85 11.0 -1.25 Q8.1 2.8 2.3 1.8 -1.2 0.3 -5.15 1.65 L-5.8 1.8 -5.85 1.45" ffdec:has-small-stroke="true" ffdec:original-stroke-width="0.0" fill="none" stroke="#000000" stroke-linecap="round" stroke-linejoin="round" stroke-opacity="0.0" stroke-width="1.0"/>
    </g>
  </defs>
</svg>
