<?xml version="1.0" encoding="UTF-8" standalone="no"?>
<svg xmlns:ffdec="https://www.free-decompiler.com/flash" xmlns:xlink="http://www.w3.org/1999/xlink" ffdec:objectType="frame" height="9.05px" width="34.15px" xmlns="http://www.w3.org/2000/svg">
  <g transform="matrix(1.0, 0.0, 0.0, 1.0, 16.2, 5.05)">
    <use ffdec:characterId="10" height="6.25" transform="matrix(1.0, 0.0, 0.0, 1.0, -7.65, -2.25)" width="25.6" xlink:href="#morphshape0"/>
  </g>
  <defs>
    <g id="morphshape0" transform="matrix(1.0, 0.0, 0.0, 1.0, 7.65, 2.25)">
      <path d="M-6.35 1.35 L-6.25 1.35 -5.65 1.0 Q-2.9 0.0 -0.45 0.9 4.8 1.75 7.55 -1.55 L9.5 -1.75 10.5 -1.4 Q10.2 -0.2 9.25 0.3 L8.45 0.6 Q0.75 0.45 -6.4 1.35" fill="#000000" fill-rule="evenodd" stroke="none"/>
      <path d="M-6.4 1.35 Q0.75 0.45 8.45 0.6 L9.25 0.3 Q10.2 -0.2 10.5 -1.4 L9.5 -1.75 7.55 -1.55 Q4.8 1.75 -0.45 0.9 -2.9 0.0 -5.65 1.0 L-6.25 1.35 -6.35 1.35" ffdec:has-small-stroke="true" ffdec:original-stroke-width="0.0" fill="none" stroke="#000000" stroke-linecap="round" stroke-linejoin="round" stroke-opacity="0.0" stroke-width="1.0"/>
    </g>
  </defs>
</svg>
