<?xml version="1.0" encoding="UTF-8" standalone="no"?>
<svg xmlns:ffdec="https://www.free-decompiler.com/flash" xmlns:xlink="http://www.w3.org/1999/xlink" ffdec:objectType="frame" height="9.05px" width="34.15px" xmlns="http://www.w3.org/2000/svg">
  <g transform="matrix(1.0, 0.0, 0.0, 1.0, 16.2, 5.05)">
    <use ffdec:characterId="10" height="6.25" transform="matrix(1.0, 0.0, 0.0, 1.0, -7.65, -2.25)" width="25.6" xlink:href="#morphshape0"/>
  </g>
  <defs>
    <g id="morphshape0" transform="matrix(1.0, 0.0, 0.0, 1.0, 7.65, 2.25)">
      <path d="M-7.05 1.3 L-6.95 1.0 -6.35 0.4 Q-4.75 -0.3 -3.35 -0.05 1.4 0.6 4.05 -1.9 L6.65 -1.65 8.8 -1.2 Q8.75 -0.4 8.4 0.05 L8.0 0.55 Q0.4 2.0 -7.05 1.3" fill="#000000" fill-rule="evenodd" stroke="none"/>
      <path d="M-7.05 1.3 Q0.4 2.0 8.0 0.55 L8.4 0.05 Q8.75 -0.4 8.8 -1.2 L6.65 -1.65 4.05 -1.9 Q1.4 0.6 -3.35 -0.05 -4.75 -0.3 -6.35 0.4 L-6.95 1.0 -7.05 1.3 Z" ffdec:has-small-stroke="true" ffdec:original-stroke-width="0.0" fill="none" stroke="#000000" stroke-linecap="round" stroke-linejoin="round" stroke-opacity="0.0" stroke-width="1.0"/>
    </g>
  </defs>
</svg>
