<?xml version="1.0" encoding="UTF-8" standalone="no"?>
<svg xmlns:ffdec="https://www.free-decompiler.com/flash" xmlns:xlink="http://www.w3.org/1999/xlink" ffdec:objectType="frame" height="100.9px" width="111.95px" xmlns="http://www.w3.org/2000/svg">
  <g transform="matrix(1.0, 0.0, 0.0, 1.0, 36.5, 41.8)">
    <use ffdec:characterId="503" height="28.25" transform="matrix(1.0, 0.0, 0.0, 1.0, -0.15, -0.3)" width="37.0" xlink:href="#shape0"/>
    <use ffdec:characterId="505" height="14.9" transform="matrix(1.6277, 0.0, 0.0, 1.6277, 1.6039, 1.778)" width="20.3" xlink:href="#sprite0"/>
    <use ffdec:characterId="501" height="43.1" transform="matrix(1.0, 0.0, 0.0, 1.0, -4.0, -9.1)" width="43.15" xlink:href="#shape2"/>
  </g>
  <defs>
    <g id="shape0" transform="matrix(1.0, 0.0, 0.0, 1.0, 0.15, 0.3)">
      <path d="M28.75 1.7 L27.5 2.0 27.5 4.2 28.95 5.05 28.75 5.25 27.5 5.8 Q23.35 13.8 14.75 16.5 8.4 18.45 1.85 18.95 L1.85 21.7 1.85 21.75 Q2.6 22.5 3.65 23.05 L4.2 23.95 Q11.3 26.75 18.9 25.6 23.6 25.1 27.6 22.65 33.25 19.1 33.8 12.45 35.25 10.5 34.7 8.0 34.25 5.8 33.1 3.8 L28.75 1.7 Z" fill="none" stroke="#ffffff" stroke-linecap="round" stroke-linejoin="round" stroke-width="4.0"/>
    </g>
    <g id="sprite0" transform="matrix(1.0, 0.0, 0.0, 1.0, 9.95, 8.0)">
      <use ffdec:characterId="504" height="14.9" transform="matrix(1.0, 0.0, 0.0, 1.0, -9.95, -8.0)" width="20.3" xlink:href="#shape1"/>
    </g>
    <g id="shape1" transform="matrix(1.0, 0.0, 0.0, 1.0, 9.95, 8.0)">
      <path d="M6.7 -5.95 L5.8 -6.45 5.8 -7.8 6.6 -8.0 9.25 -6.7 Q9.95 -5.5 10.25 -4.1 10.55 -2.55 9.7 -1.4 9.35 2.7 5.85 4.9 3.4 6.4 0.5 6.7 -4.15 7.4 -8.5 5.7 L-8.85 5.15 -9.95 4.35 -9.95 4.3 -9.95 2.6 Q-5.95 2.3 -2.05 1.1 3.25 -0.55 5.8 -5.45 L6.6 -5.8 6.95 -5.15 Q4.85 -1.55 1.3 0.65 -3.2 3.35 -8.45 3.8 L-8.6 3.8 Q-4.25 6.45 0.85 5.8 6.5 4.95 8.1 -0.35 L8.45 -1.95 8.8 -2.5 9.05 -3.1 9.15 -3.7 9.15 -4.4 8.85 -4.7 8.45 -5.45 6.7 -5.95" fill="#000000" fill-rule="evenodd" stroke="none"/>
      <path d="M6.7 -5.95 L8.45 -5.45 8.85 -4.7 8.8 -4.7 8.75 -4.65 8.55 -4.4 8.5 -4.25 8.35 -3.75 8.1 -3.6 7.35 -2.4 7.2 -2.25 7.1 -2.2 6.85 -1.55 6.7 -1.5 6.7 -1.4 6.7 -1.35 5.7 -0.2 5.45 -0.15 5.4 0.0 5.35 0.15 5.15 0.3 5.1 0.4 4.8 0.65 Q3.8 1.8 2.2 2.3 L2.15 2.35 2.1 2.4 Q1.25 3.0 0.2 3.25 L0.15 3.3 0.1 3.35 -2.75 4.05 -3.65 4.2 -6.9 4.2 -6.95 4.2 -7.0 4.1 -7.6 4.05 -7.7 3.9 -8.1 3.9 -8.15 3.9 -8.2 3.8 -8.45 3.8 Q-3.2 3.35 1.3 0.65 4.85 -1.55 6.95 -5.15 L6.6 -5.8 6.7 -5.95" fill="#ffff00" fill-rule="evenodd" stroke="none"/>
      <path d="M8.85 -4.7 L9.15 -4.4 9.15 -3.7 9.05 -3.1 8.8 -2.5 8.45 -1.95 8.1 -0.35 Q6.5 4.95 0.85 5.8 -4.25 6.45 -8.6 3.8 L-8.45 3.8 -8.2 3.8 -8.15 3.9 -8.1 3.9 -7.7 3.9 -7.6 4.05 -7.0 4.1 -6.95 4.2 -6.9 4.2 -3.65 4.2 -2.75 4.05 0.1 3.35 0.15 3.3 0.2 3.25 Q1.25 3.0 2.1 2.4 L2.15 2.35 2.2 2.3 Q3.8 1.8 4.8 0.65 L5.1 0.4 5.15 0.3 5.35 0.15 5.4 0.0 5.45 -0.15 5.7 -0.2 6.7 -1.35 6.7 -1.4 6.7 -1.5 6.85 -1.55 7.1 -2.2 7.2 -2.25 7.35 -2.4 8.1 -3.6 8.35 -3.75 8.5 -4.25 8.55 -4.4 8.75 -4.65 8.8 -4.7 8.85 -4.7" fill="#e9e301" fill-rule="evenodd" stroke="none"/>
    </g>
    <g id="shape2" transform="matrix(1.0, 0.0, 0.0, 1.0, 4.0, 9.1)">
      <path d="M32.75 -2.8 Q39.1 3.5 39.15 12.45 39.1 21.4 32.75 27.7 26.45 34.0 17.55 34.0 8.6 34.0 2.3 27.7 -0.7 24.7 -2.25 21.15 -4.0 17.15 -4.0 12.45 -4.0 7.75 -2.25 3.75 -0.7 0.15 2.3 -2.8 8.6 -9.1 17.55 -9.1 26.45 -9.1 32.75 -2.8" fill="#ffffff" fill-opacity="0.0" fill-rule="evenodd" stroke="none"/>
    </g>
  </defs>
</svg>
