<?xml version="1.0" encoding="UTF-8" standalone="no"?>
<svg xmlns:ffdec="https://www.free-decompiler.com/flash" xmlns:xlink="http://www.w3.org/1999/xlink" ffdec:objectType="frame" height="26.9px" width="42.2px" xmlns="http://www.w3.org/2000/svg">
  <g transform="matrix(1.0, 0.0, 0.0, 1.0, 21.15, 13.35)">
    <use ffdec:characterId="448" height="26.9" transform="matrix(1.0, 0.0, 0.0, 1.0, -21.15, -13.35)" width="41.9" xlink:href="#shape0"/>
  </g>
  <defs>
    <g id="shape0" transform="matrix(1.0, 0.0, 0.0, 1.0, 21.15, 13.35)">
      <path d="M5.25 -11.35 L5.3 -11.55 5.4 -11.65 5.55 -11.75 5.85 -11.85 Q8.55 -10.35 10.65 -7.8 L14.5 -3.45 20.55 3.25 20.55 3.35 20.45 3.55 20.3 3.75 Q19.45 3.75 18.7 3.25 L17.1 1.1 Q12.25 -5.25 5.9 -10.3 L5.85 -10.35 5.85 -10.4 5.25 -11.35 M-7.8 -1.05 L-7.8 -1.15 -7.55 -1.25 -7.35 -1.35 Q-5.9 0.45 -5.5 3.0 L-5.15 4.45 -5.1 4.55 -4.65 3.2 -4.35 3.0 -4.2 2.95 -3.85 3.15 -3.8 3.2 Q-3.95 5.55 -5.65 7.4 L-6.2 8.5 Q-6.3 9.25 -6.8 9.7 L-6.85 9.75 -6.95 9.75 -7.35 9.4 -7.2 8.6 -6.15 7.45 -6.05 7.2 Q-5.75 6.7 -5.9 6.25 L-6.05 5.8 -5.9 5.7 -6.8 2.85 -7.3 -0.8 -7.4 -0.9 -7.75 -1.05 -7.8 -1.05" fill="#ffffff" fill-rule="evenodd" stroke="none"/>
      <path d="M-11.5 12.05 L-11.55 12.0 -11.55 11.8 -6.85 6.25 Q-8.0 3.0 -8.25 -0.5 L-8.2 -0.8 -7.8 -1.05 -7.75 -1.05 -7.4 -0.9 -7.3 -0.8 -6.8 2.85 -6.05 5.8 -5.9 6.25 Q-5.75 6.7 -6.05 7.2 L-6.15 7.45 -7.2 8.6 -7.7 9.1 -7.8 9.05 Q-8.5 9.5 -9.3 10.65 L-10.1 11.4 -10.7 12.0 -11.05 12.25 -11.3 12.3 -11.5 12.05" fill="#a5e9e9" fill-rule="evenodd" stroke="none"/>
      <path d="M-6.85 9.75 Q-6.7 9.85 -6.65 10.1 L-6.95 9.75 -6.85 9.75 M-10.1 11.4 L-9.8 11.4 -10.25 11.95 -10.7 12.0 -10.1 11.4 M-11.4 13.05 L-11.55 13.15 Q-11.95 13.05 -11.8 12.6 L-11.4 13.05 M-5.65 12.1 L-5.7 11.95 Q-5.1 12.1 -4.9 12.65 L-5.5 12.4 -5.65 12.1" fill="#2ebebd" fill-rule="evenodd" stroke="none"/>
      <path d="M-10.25 11.95 L-11.4 13.05 -11.8 12.6 -11.9 12.35 -11.75 12.1 -11.5 12.05 -11.3 12.3 -11.05 12.25 -10.7 12.0 -10.25 11.95" fill="#1e8080" fill-rule="evenodd" stroke="none"/>
      <path d="M18.7 3.25 L19.4 4.3 19.4 4.5 19.25 4.8 Q17.65 5.05 16.5 3.25 13.6 -1.25 9.75 -4.9 6.5 -7.4 3.95 -10.6 L3.85 -10.75 3.65 -11.0 3.4 -11.2 3.35 -11.4 3.35 -11.7 3.45 -11.9 3.65 -12.1 3.85 -12.15 4.05 -12.2 Q4.75 -11.9 5.25 -11.35 L5.85 -10.4 5.85 -10.35 5.9 -10.3 Q12.25 -5.25 17.1 1.1 L18.7 3.25" fill="#7fe1e1" fill-rule="evenodd" stroke="none"/>
      <path d="M20.0 12.5 L-5.75 12.5 Q-6.1 10.1 -7.8 8.7 L-9.15 10.25 -10.9 12.5 -20.0 12.5 -20.0 -12.5 20.0 -12.5 20.0 12.5" fill="url(#gradient0)" fill-rule="evenodd" stroke="none"/>
      <path d="M-8.25 9.65 L-8.0 9.65 -10.2 11.85 -11.3 12.9 -20.1 11.8 -20.25 9.7 -19.9 9.25 -19.9 7.95 -17.5 8.4 -8.25 9.65 M14.6 -12.15 Q20.1 -13.7 19.75 -9.45 L19.95 11.0 19.5 11.8 -4.35 13.0 -4.6 13.0 -5.45 13.05 -5.65 12.45 Q-6.35 10.75 -7.25 9.7 L-6.9 9.7 -2.0 9.8 7.8 9.65 Q13.45 9.5 15.45 4.55 18.3 -2.5 14.6 -12.15" fill="#27bebd" fill-opacity="0.2" fill-rule="evenodd" stroke="none"/>
      <path d="M4.85 -6.2 L-9.2 -5.95 Q-11.35 -5.95 -11.5 -7.8 -11.65 -9.2 -10.2 -9.35 L-9.1 -9.35 5.05 -8.9 Q6.45 -8.85 6.3 -7.5 6.2 -6.2 4.85 -6.2 M-15.95 -6.35 Q-18.0 -7.65 -16.0 -9.0 L-15.45 -9.2 Q-12.8 -8.2 -14.85 -6.4 L-15.95 -6.35" fill="#ffffff" fill-rule="evenodd" stroke="none"/>
      <path d="M13.25 11.45 L18.85 5.85 M1.75 11.45 L18.7 -5.5 M-6.1 8.75 L14.0 -11.35" fill="none" stroke="#ffffff" stroke-linecap="round" stroke-linejoin="round" stroke-opacity="0.6" stroke-width="2.0"/>
      <path d="M-18.3 0.25 L-7.7 -10.35" fill="none" stroke="#ffffff" stroke-linecap="round" stroke-linejoin="round" stroke-opacity="0.6" stroke-width="3.0"/>
      <path d="M-19.7 -3.35 L-11.3 -11.75 M-1.6 11.45 L18.65 -8.8 M-19.1 8.4 L1.1 -11.75" fill="none" stroke="#ffffff" stroke-linecap="round" stroke-linejoin="round" stroke-opacity="0.6" stroke-width="1.0"/>
      <path d="M14.95 -11.65 L14.95 -10.5 Q15.35 -9.6 15.9 -8.85 L14.85 -9.05 13.25 -9.2 -5.7 -10.0 -7.5 -10.1 Q-7.85 -9.8 -8.45 -9.75 -14.4 -9.6 -16.35 -4.35 L-16.35 -2.95 -16.35 -0.2 -16.25 4.95 -16.3 8.45 -16.75 8.7 -19.2 8.7 -19.45 8.85 Q-19.1 2.0 -20.35 -4.55 L-20.2 -9.6 Q-20.1 -12.2 -17.5 -13.0 L-16.85 -13.2 Q-12.6 -12.15 -7.4 -12.6 L4.45 -12.45 14.95 -12.1 15.15 -12.05 15.0 -11.8 14.95 -11.65" fill="#ffffff" fill-opacity="0.2" fill-rule="evenodd" stroke="none"/>
      <path d="M19.75 -12.95 L20.35 -12.85 20.55 -12.75 Q19.95 -4.9 20.4 3.15 L20.45 3.85 20.5 4.55 20.5 5.85 20.5 6.0 20.55 6.1 20.65 7.55 20.75 12.35 20.2 12.75 19.85 12.9 Q7.45 13.3 -5.2 13.3 -5.4 12.85 -6.05 12.95 L-6.4 11.65 -7.45 9.45 -8.8 11.1 -11.0 13.25 -10.9 13.05 -11.15 13.25 -14.9 13.2 -15.45 13.25 Q-17.9 13.85 -20.25 13.15 L-20.45 13.0 -20.7 12.8 -20.6 11.85 -20.6 11.7 Q-20.15 9.95 -20.05 8.15 L-20.05 7.75 -20.05 7.65 -21.15 -10.75 Q-21.25 -12.45 -20.25 -13.3 L-18.05 -13.3 Q-6.25 -12.8 5.6 -12.75 L5.85 -12.75 Q11.15 -13.2 16.15 -12.6 L16.2 -12.6 19.75 -12.95 M4.75 -11.45 Q-7.5 -11.45 -19.65 -11.9 L-19.65 -10.9 -19.65 -10.75 -19.5 -7.2 -19.5 -6.8 -19.5 -6.7 -18.95 7.15 Q-18.85 9.7 -19.45 12.05 L-10.35 11.6 Q-7.9 9.1 -6.1 6.15 L-6.25 6.1 Q-7.85 2.3 -7.9 -1.6 L-7.85 -1.6 Q-6.65 1.85 -5.8 5.65 L-4.4 2.95 -4.3 2.9 Q-3.85 3.95 -4.7 5.4 L-7.25 9.2 Q-6.05 10.2 -5.7 11.65 6.85 11.4 19.4 11.55 L19.4 4.4 9.8 -6.0 4.75 -11.45 M14.2 -11.5 L5.5 -11.45 16.1 -0.45 Q17.9 1.35 19.35 3.35 L19.0 -7.1 Q18.95 -8.45 19.15 -9.85 L19.45 -11.45 16.55 -11.6 14.25 -11.5 14.2 -11.5" fill="#000000" fill-rule="evenodd" stroke="none"/>
    </g>
    <linearGradient gradientTransform="matrix(0.0258, 0.0136, -0.0071, 0.0135, 0.0, 0.0)" gradientUnits="userSpaceOnUse" id="gradient0" spreadMethod="pad" x1="-819.2" x2="819.2">
      <stop offset="0.0" stop-color="#f3fefe"/>
      <stop offset="1.0" stop-color="#7fe6e6" stop-opacity="0.5019608"/>
    </linearGradient>
  </defs>
</svg>
