<?xml version="1.0" encoding="UTF-8" standalone="no"?>
<svg xmlns:ffdec="https://www.free-decompiler.com/flash" xmlns:xlink="http://www.w3.org/1999/xlink" ffdec:objectType="frame" height="26.9px" width="42.2px" xmlns="http://www.w3.org/2000/svg">
  <g transform="matrix(1.0, 0.0, 0.0, 1.0, 21.15, 13.35)">
    <use ffdec:characterId="449" height="26.9" transform="matrix(1.0, 0.0, 0.0, 1.0, -21.15, -13.35)" width="42.2" xlink:href="#shape0"/>
  </g>
  <defs>
    <g id="shape0" transform="matrix(1.0, 0.0, 0.0, 1.0, 21.15, 13.35)">
      <path d="M5.25 -11.35 L5.85 -10.4 5.85 -10.35 5.9 -10.3 Q12.25 -5.25 17.1 1.1 L17.95 2.25 14.6 -0.7 14.75 -1.25 14.7 -1.35 14.3 -1.6 14.1 -1.4 13.9 -2.4 13.8 -2.25 13.25 -1.15 9.75 -4.9 Q6.5 -7.4 3.95 -10.6 L3.85 -10.75 3.65 -11.0 3.4 -11.2 3.35 -11.4 3.35 -11.7 3.45 -11.9 3.65 -12.1 3.85 -12.15 4.05 -12.2 Q4.75 -11.9 5.25 -11.35 M19.3 4.75 L19.25 4.8 Q17.65 5.05 16.5 3.25 L15.05 1.1 Q17.15 3.0 19.3 4.75" fill="#7fe1e1" fill-rule="evenodd" stroke="none"/>
      <path d="M17.95 2.25 L17.1 1.1 Q12.25 -5.25 5.9 -10.3 L5.85 -10.35 5.85 -10.4 5.25 -11.35 5.3 -11.55 5.4 -11.65 5.55 -11.75 5.85 -11.85 Q8.55 -10.35 10.65 -7.8 L14.5 -3.45 20.55 3.25 20.55 3.35 20.45 3.55 20.3 3.75 19.35 3.6 17.95 2.25 M14.1 -1.4 L14.3 -1.6 14.7 -1.35 14.75 -1.25 14.6 -0.7 14.4 -0.85 14.1 -0.7 Q13.75 -0.35 13.95 0.1 L14.25 0.4 Q12.55 6.05 11.2 11.85 L11.05 12.15 10.4 12.1 Q10.7 6.75 12.8 1.7 L13.15 0.35 Q13.3 -0.8 14.1 -1.4 M-8.55 -6.6 L-8.65 -12.05 -8.55 -12.15 -8.2 -11.95 -8.15 -11.85 -6.55 -0.2 Q-5.8 1.2 -5.5 3.0 L-5.15 4.45 -5.1 4.55 -4.65 3.2 -4.35 3.0 -4.25 3.0 -4.55 3.9 -4.2 4.2 -3.95 3.05 Q-1.75 0.0 -1.05 -3.65 L-1.0 -3.8 -0.7 -4.1 -0.55 -4.1 -0.2 -3.95 -0.1 -3.85 Q0.0 -1.45 -1.2 0.7 L-0.45 0.55 Q4.2 0.2 6.15 -3.45 L6.5 -3.25 6.55 -3.15 Q6.7 -1.75 5.7 -0.7 L5.6 -0.5 3.9 0.45 7.2 2.85 7.25 2.95 7.25 3.25 7.05 3.5 Q5.6 3.6 4.55 2.5 L4.45 2.3 4.35 2.1 3.5 1.6 3.2 1.1 3.05 0.9 3.05 0.85 Q0.55 1.85 -2.1 2.2 L-4.4 6.7 Q-5.1 8.15 -6.15 9.35 L-6.7 9.65 -6.8 9.7 -6.85 9.75 -6.9 9.75 -7.35 9.35 -7.25 8.85 -6.9 8.3 -6.15 7.45 -6.05 7.2 Q-5.75 6.7 -5.9 6.25 L-6.05 5.8 -5.9 5.7 -6.0 5.45 -6.0 5.3 -6.05 5.25 -6.4 4.2 -6.5 4.2 -6.65 4.2 -6.7 3.95 -8.55 -6.6 M-8.4 -0.35 Q-12.9 1.05 -17.2 2.85 -18.55 3.4 -19.3 2.55 L-19.2 2.15 -19.05 2.0 Q-15.5 1.3 -12.05 -0.15 L-8.55 -1.35 -8.5 -1.35 -8.5 -1.3 -8.4 -0.35" fill="#ffffff" fill-rule="evenodd" stroke="none"/>
      <path d="M14.6 -0.7 L17.95 2.25 19.35 3.6 21.05 5.35 21.05 5.45 20.8 5.7 20.6 5.8 19.3 4.75 Q17.15 3.0 15.05 1.1 L14.25 0.4 13.95 0.1 Q13.75 -0.35 14.1 -0.7 L14.4 -0.85 14.6 -0.7 M-7.25 8.85 L-7.5 9.2 -7.65 9.1 Q-8.65 9.9 -9.65 11.05 L-10.4 11.95 -10.55 11.95 -10.7 11.95 -11.15 11.5 -8.45 8.25 -7.0 5.9 Q-8.05 2.9 -8.4 -0.35 L-8.5 -1.3 -8.5 -1.35 Q-8.6 -2.6 -9.2 -3.75 L-10.5 -11.45 -10.45 -11.75 -10.0 -12.0 -9.65 -11.8 -9.55 -11.75 -8.55 -6.6 -6.7 3.95 -6.65 4.2 -6.3 4.95 -6.05 5.25 -6.0 5.3 -6.0 5.45 -6.05 5.8 Q-6.3 7.15 -6.9 8.3 L-7.25 8.85" fill="#73dede" fill-rule="evenodd" stroke="none"/>
      <path d="M-11.5 12.05 L-11.55 12.0 -11.55 11.8 -8.45 8.25 -11.15 11.5 -10.7 11.95 -10.7 12.0 -11.05 12.25 -11.3 12.3 -11.5 12.05 M-6.65 4.2 L-6.5 4.2 -6.3 4.95 -6.65 4.2 M-6.05 5.8 L-5.9 6.25 Q-5.75 6.7 -6.05 7.2 L-6.15 7.45 -6.9 8.3 Q-6.3 7.15 -6.05 5.8" fill="#a5e9e9" fill-rule="evenodd" stroke="none"/>
      <path d="M-10.45 11.95 L-11.35 13.05 -11.8 12.6 -11.9 12.35 -11.75 12.1 -11.5 12.05 -11.3 12.3 -11.05 12.25 -10.7 12.0 -10.45 11.95" fill="#1e8080" fill-rule="evenodd" stroke="none"/>
      <path d="M-10.4 11.95 L-10.45 11.95 -10.7 12.0 -10.7 11.95 -10.55 11.95 -10.4 11.95 M-11.35 13.05 L-11.4 13.15 Q-12.0 13.1 -11.8 12.6 L-11.35 13.05 M-5.55 12.05 L-5.55 12.0 Q-4.95 12.2 -4.85 12.9 -4.8 13.15 -5.05 13.2 L-5.55 12.05" fill="#2ebebd" fill-rule="evenodd" stroke="none"/>
      <path d="M20.0 -12.5 L20.0 12.5 -5.65 12.5 Q-6.2 10.55 -7.6 8.9 L-8.95 10.2 -9.0 10.3 -10.65 12.5 -20.0 12.5 -20.0 -12.5 20.0 -12.5" fill="url(#gradient0)" fill-rule="evenodd" stroke="none"/>
      <path d="M14.6 -12.15 Q20.1 -13.7 19.75 -9.45 L19.95 11.0 19.5 11.8 -4.35 13.0 -4.55 13.0 -5.4 13.05 Q-5.7 11.8 -6.25 10.7 L-6.85 9.7 -6.8 9.7 -2.0 9.8 7.8 9.65 Q13.45 9.5 15.45 4.55 18.3 -2.5 14.6 -12.15 M-10.0 11.85 L-10.95 12.9 -11.3 12.9 -11.35 12.9 -20.1 11.8 -20.25 9.7 -19.9 9.25 -19.9 7.95 -17.5 8.4 -8.0 9.65 -9.1 11.05 -10.0 11.85" fill="#27bebd" fill-opacity="0.2" fill-rule="evenodd" stroke="none"/>
      <path d="M4.85 -6.2 L-9.2 -5.95 Q-11.35 -5.95 -11.5 -7.8 -11.65 -9.2 -10.2 -9.35 L-9.1 -9.35 5.05 -8.9 Q6.45 -8.85 6.3 -7.5 6.2 -6.2 4.85 -6.2 M-15.95 -6.35 Q-18.0 -7.65 -16.0 -9.0 L-15.45 -9.2 Q-12.8 -8.2 -14.85 -6.4 L-15.95 -6.35" fill="#ffffff" fill-rule="evenodd" stroke="none"/>
      <path d="M13.25 11.45 L18.85 5.85 M1.75 11.45 L18.7 -5.5 M-5.7 8.35 L14.0 -11.35" fill="none" stroke="#ffffff" stroke-linecap="round" stroke-linejoin="round" stroke-opacity="0.6" stroke-width="2.0"/>
      <path d="M-18.3 0.25 L-7.7 -10.35" fill="none" stroke="#ffffff" stroke-linecap="round" stroke-linejoin="round" stroke-opacity="0.6" stroke-width="3.0"/>
      <path d="M-19.7 -3.35 L-11.3 -11.75 M-19.1 8.4 L1.1 -11.75 M-1.6 11.45 L18.65 -8.8" fill="none" stroke="#ffffff" stroke-linecap="round" stroke-linejoin="round" stroke-opacity="0.6" stroke-width="1.0"/>
      <path d="M13.25 -9.2 L-5.7 -10.0 -7.5 -10.1 Q-7.85 -9.8 -8.45 -9.75 -14.4 -9.6 -16.35 -4.35 L-16.35 -2.95 -16.35 -0.2 -16.25 4.95 -16.3 8.45 -16.75 8.7 -19.2 8.7 -19.45 8.85 Q-19.1 2.0 -20.35 -4.55 L-20.2 -9.6 Q-20.1 -12.2 -17.5 -13.0 L-16.85 -13.2 Q-12.6 -12.15 -7.4 -12.6 L4.45 -12.45 14.95 -12.1 15.15 -12.05 15.0 -11.8 14.95 -11.65 14.95 -10.5 Q15.35 -9.6 15.9 -8.85 L14.85 -9.05 13.25 -9.2" fill="#ffffff" fill-opacity="0.2" fill-rule="evenodd" stroke="none"/>
      <path d="M19.75 -12.95 L20.35 -12.85 20.55 -12.75 Q19.95 -4.9 20.4 3.15 L20.45 3.85 20.5 4.55 20.5 5.85 20.5 6.0 20.55 6.1 20.65 7.55 20.75 12.35 20.2 12.75 19.85 12.9 Q7.45 13.3 -5.2 13.3 -5.4 12.85 -6.05 12.95 L-6.4 11.65 -7.45 9.45 -8.8 11.1 -11.0 13.25 -10.9 13.05 -11.15 13.25 -14.9 13.2 -15.45 13.25 Q-17.9 13.85 -20.25 13.15 L-20.45 13.0 -20.7 12.8 -20.6 11.85 -20.6 11.7 Q-20.15 9.95 -20.05 8.15 L-20.05 7.75 -20.05 7.65 -20.35 2.4 -20.55 2.4 -20.55 1.85 -20.4 1.85 -21.15 -10.75 Q-21.25 -12.45 -20.25 -13.3 L-18.05 -13.3 -10.0 -13.0 -10.05 -13.2 -10.0 -13.25 -9.85 -13.0 5.6 -12.75 5.85 -12.75 Q11.15 -13.2 16.15 -12.6 L16.2 -12.6 19.75 -12.95 M4.75 -11.45 L-9.3 -11.6 -8.85 -9.7 -7.45 -1.3 -7.4 -0.9 -7.15 0.3 -7.1 0.65 -5.8 5.65 -4.4 2.95 -4.3 2.9 -4.25 3.0 Q-3.05 -0.65 -1.15 -4.0 L-1.05 -4.05 Q-0.7 -3.2 -1.35 -1.95 L-2.8 1.1 2.85 -0.3 6.15 -3.8 Q6.55 -3.0 5.55 -1.85 4.6 -0.85 3.5 -0.1 L7.1 2.95 7.15 3.05 Q6.95 3.4 6.6 3.25 L3.15 0.4 2.2 0.75 -2.9 1.35 -3.8 3.45 -4.1 4.15 -4.2 4.2 -4.7 5.4 -7.25 9.2 Q-6.05 10.2 -5.7 11.65 2.15 11.5 10.05 11.5 L10.0 11.45 Q10.4 4.85 13.25 -1.15 L13.65 -1.95 9.8 -6.0 4.75 -11.45 M13.9 -0.35 L13.6 0.35 Q11.0 5.8 10.5 11.5 L19.4 11.55 19.4 4.4 14.1 -1.5 13.9 -0.35 M14.2 -11.5 L5.5 -11.45 16.1 -0.45 Q17.9 1.35 19.35 3.35 L19.0 -7.1 Q18.95 -8.45 19.15 -9.85 L19.45 -11.45 16.55 -11.6 14.25 -11.5 14.2 -11.5 M-19.65 -10.75 L-19.5 -7.2 -19.5 -6.8 -19.5 -6.7 -19.2 1.55 Q-13.6 0.25 -8.35 -2.0 -9.35 -6.85 -9.85 -11.6 L-19.65 -11.9 -19.65 -10.9 -19.65 -10.75 M-8.2 -1.35 Q-13.55 0.95 -19.2 2.15 L-18.95 7.15 Q-18.85 9.7 -19.45 12.05 L-10.35 11.6 Q-7.9 9.1 -6.1 6.15 L-6.25 6.1 Q-7.35 3.55 -7.7 0.95 L-8.1 -0.9 -8.2 -1.35" fill="#000000" fill-rule="evenodd" stroke="none"/>
    </g>
    <linearGradient gradientTransform="matrix(0.0258, 0.0136, -0.0071, 0.0135, 0.0, 0.0)" gradientUnits="userSpaceOnUse" id="gradient0" spreadMethod="pad" x1="-819.2" x2="819.2">
      <stop offset="0.0" stop-color="#f3fefe"/>
      <stop offset="1.0" stop-color="#7fe6e6" stop-opacity="0.5019608"/>
    </linearGradient>
  </defs>
</svg>
