<?xml version="1.0" encoding="UTF-8" standalone="no"?>
<svg xmlns:ffdec="https://www.free-decompiler.com/flash" xmlns:xlink="http://www.w3.org/1999/xlink" ffdec:objectType="frame" height="98.75px" width="93.95px" xmlns="http://www.w3.org/2000/svg">
  <g transform="matrix(1.0, 0.0, 0.0, 1.0, 15.05, 13.65)">
    <use ffdec:characterId="389" height="62.1" transform="matrix(1.0, 0.0, 0.0, 1.0, -0.4, -1.0)" width="62.55" xlink:href="#shape0"/>
    <clipPath id="clipPath0">
      <path d="M 35.6 1 L 34.72 1.01 L 33.85 1.04 L 32.99 1.09 L 32.14 1.16 L 31.3 1.24 L 30.46 1.35 L 29.63 1.48 L 28.81 1.62 L 28 1.79 L 27.19 1.97 L 26.4 2.18 L 25.61 2.4 L 24.83 2.64 L 24.06 2.9 L 23.29 3.19 L 22.54 3.49 L 21.79 3.81 L 21.05 4.15 L 20.32 4.51 L 19.6 4.89 L 18.88 5.29 L 18.17 5.7 L 17.48 6.14 L 16.78 6.6 L 16.1 7.07 L 15.43 7.57 L 14.76 8.08 L 14.1 8.62 L 13.45 9.17 L 12.81 9.75 L 12.18 10.34 L 11.55 10.95 L 10.94 11.58 L 10.35 12.21 L 9.77 12.85 L 9.22 13.5 L 8.68 14.16 L 8.17 14.83 L 7.67 15.5 L 7.2 16.18 L 6.74 16.88 L 6.3 17.57 L 5.89 18.28 L 5.49 19 L 5.11 19.72 L 4.75 20.45 L 4.41 21.19 L 4.09 21.94 L 3.79 22.69 L 3.5 23.46 L 3.24 24.23 L 3 25.01 L 2.78 25.8 L 2.57 26.59 L 2.39 27.4 L 2.22 28.21 L 2.08 29.03 L 1.95 29.86 L 1.84 30.7 L 1.76 31.54 L 1.69 32.39 L 1.64 33.25 L 1.61 34.12 L 1.6 35 L 1.61 35.85 L 1.64 36.7 L 1.68 37.53 L 1.74 38.36 L 1.82 39.18 L 1.92 39.99 L 2.04 40.79 L 2.17 41.59 L 2.32 42.37 L 2.49 43.15 L 2.68 43.92 L 2.88 44.68 L 3.1 45.44 L 3.34 46.18 L 3.6 46.92 L 3.88 47.65 L 4.17 48.37 L 4.48 49.08 L 4.81 49.79 L 5.15 50.48 L 5.52 51.17 L 5.9 51.85 L 6.3 52.52 L 6.72 53.19 L 7.15 53.84 L 7.61 54.49 L 8.08 55.13 L 8.57 55.76 L 9.07 56.38 L 9.6 57 L 10.14 57.6 L 10.7 58.2 L 19.4 49.65 L 19.05 49.26 L 18.72 48.87 L 18.39 48.48 L 18.08 48.08 L 17.77 47.67 L 17.48 47.26 L 17.2 46.85 L 16.93 46.43 L 16.67 46 L 16.42 45.58 L 16.18 45.14 L 15.96 44.71 L 15.74 44.27 L 15.54 43.82 L 15.34 43.37 L 15.16 42.91 L 14.99 42.45 L 14.83 41.99 L 14.68 41.52 L 14.54 41.04 L 14.42 40.57 L 14.3 40.08 L 14.2 39.6 L 14.1 39.1 L 14.02 38.61 L 13.95 38.1 L 13.89 37.6 L 13.84 37.09 L 13.8 36.57 L 13.77 36.05 L 13.76 35.53 L 13.75 35 L 13.76 34.44 L 13.77 33.88 L 13.81 33.33 L 13.85 32.78 L 13.91 32.24 L 13.98 31.7 L 14.06 31.17 L 14.15 30.64 L 14.26 30.12 L 14.38 29.6 L 14.51 29.09 L 14.65 28.59 L 14.81 28.08 L 14.98 27.59 L 15.16 27.1 L 15.35 26.61 L 15.56 26.13 L 15.77 25.66 L 16.01 25.19 L 16.25 24.72 L 16.51 24.26 L 16.77 23.81 L 17.06 23.36 L 17.35 22.92 L 17.66 22.48 L 17.98 22.04 L 18.31 21.61 L 18.65 21.19 L 19.01 20.77 L 19.38 20.36 L 19.76 19.95 L 20.15 19.55 L 20.55 19.16 L 20.96 18.77 L 21.37 18.41 L 21.79 18.05 L 22.21 17.71 L 22.64 17.38 L 23.08 17.06 L 23.52 16.75 L 23.96 16.46 L 24.41 16.17 L 24.86 15.91 L 25.32 15.65 L 25.79 15.41 L 26.26 15.18 L 26.73 14.96 L 27.21 14.75 L 27.7 14.56 L 28.19 14.38 L 28.68 14.21 L 29.19 14.05 L 29.69 13.91 L 30.2 13.77 L 30.72 13.66 L 31.24 13.55 L 31.77 13.46 L 32.3 13.38 L 32.84 13.31 L 33.38 13.25 L 33.93 13.21 L 34.48 13.18 L 35.04 13.16 L 35.6 13.15 L 36.14 13.16 L 36.68 13.17 L 37.21 13.2 L 37.73 13.24 L 38.25 13.29 L 38.77 13.35 L 39.27 13.42 L 39.78 13.51 L 40.28 13.6 L 40.77 13.71 L 41.26 13.82 L 41.74 13.95 L 42.21 14.09 L 42.69 14.24 L 43.15 14.4 L 43.61 14.57 L 44.07 14.76 L 44.52 14.95 L 44.96 15.16 L 45.4 15.38 L 45.83 15.6 L 46.26 15.84 L 46.69 16.09 L 47.1 16.36 L 47.52 16.63 L 47.92 16.91 L 48.32 17.21 L 48.72 17.51 L 49.11 17.83 L 49.5 18.16 L 49.88 18.5 L 50.25 18.85 L 58.8 10.15 L 58.2 9.59 L 57.6 9.04 L 56.98 8.51 L 56.36 8.01 L 55.73 7.51 L 55.09 7.04 L 54.44 6.58 L 53.79 6.15 L 53.12 5.73 L 52.45 5.32 L 51.77 4.94 L 51.08 4.57 L 50.39 4.23 L 49.68 3.9 L 48.97 3.58 L 48.25 3.29 L 47.52 3.01 L 46.78 2.75 L 46.04 2.51 L 45.28 2.29 L 44.52 2.08 L 43.75 1.89 L 42.97 1.72 L 42.19 1.57 L 41.39 1.44 L 40.59 1.32 L 39.78 1.22 L 38.96 1.14 L 38.13 1.08 L 37.3 1.04 L 36.45 1.01 L 35.6 1 Z"/>
    </clipPath>
    <g clip-path="url(#clipPath0)">
      <use ffdec:characterId="391" height="50.6" transform="matrix(1.0, 0.0, 0.0, 1.0, 1.2, 0.3)" width="56.65" xlink:href="#shape1"/>
    </g>
    <clipPath id="clipPath1">
      <path d="M 35.87 -0.42 L 35.12 -0.41 L 34.37 -0.39 L 33.61 -0.35 L 32.84 -0.3 L 31.92 -0.22 L 31.01 -0.12 L 30.11 -0 L 29.22 0.14 L 28.34 0.3 L 27.47 0.47 L 26.61 0.67 L 25.76 0.89 L 24.92 1.13 L 24.09 1.39 L 23.28 1.66 L 22.47 1.96 L 21.67 2.28 L 20.88 2.62 L 20.1 2.97 L 19.33 3.35 L 18.57 3.74 L 17.82 4.16 L 17.09 4.6 L 16.36 5.05 L 15.64 5.53 L 14.93 6.02 L 14.23 6.54 L 13.55 7.07 L 12.87 7.63 L 12.2 8.2 L 11.54 8.8 L 10.9 9.41 L 10.26 10.04 L 9.63 10.7 L 9.01 11.37 L 8.41 12.07 L 7.81 12.77 L 7.24 13.48 L 6.69 14.2 L 6.16 14.92 L 5.64 15.66 L 5.16 16.39 L 4.69 17.14 L 4.24 17.89 L 3.81 18.65 L 3.41 19.42 L 3.03 20.19 L 2.66 20.98 L 2.32 21.76 L 2 22.56 L 1.7 23.36 L 1.42 24.17 L 1.17 24.99 L 0.93 25.81 L 0.71 26.64 L 0.52 27.48 L 0.35 28.32 L 0.2 29.17 L 0.07 30.03 L -0.04 30.9 L -0.13 31.77 L -0.2 32.65 L -0.25 33.54 L -0.27 34.43 L -0.28 35.33 L -0.26 36.24 L -0.22 37.15 L -0.16 38.08 L -0.08 39 L 0.02 39.91 L 0.14 40.81 L 0.27 41.7 L 0.43 42.58 L 0.61 43.45 L 0.81 44.31 L 1.02 45.15 L 1.26 45.99 L 1.52 46.82 L 1.8 47.64 L 2.09 48.45 L 2.41 49.25 L 2.74 50.04 L 3.1 50.82 L 3.47 51.59 L 3.87 52.35 L 4.28 53.09 L 4.72 53.83 L 5.17 54.56 L 5.64 55.28 L 6.14 55.99 L 6.65 56.69 L 7.18 57.37 L 7.74 58.05 L 8.31 58.72 L 8.9 59.38 L 9.51 60.02 L 10.14 60.66 L 10.79 61.29 L 11.46 61.91 L 12.15 62.51 L 12.3 62.4 L 11.71 50.57 L 22.67 50.34 L 47.83 21.03 L 53.03 24.2 L 67.72 15.52 L 57.49 6.87 L 57.35 6.98 L 56.75 6.52 L 56.15 6.08 L 55.55 5.66 L 54.93 5.25 L 54.32 4.85 L 53.7 4.47 L 53.07 4.1 L 52.44 3.74 L 51.81 3.4 L 51.17 3.08 L 50.52 2.77 L 49.87 2.47 L 49.22 2.19 L 48.56 1.92 L 47.89 1.67 L 47.22 1.43 L 46.55 1.21 L 45.87 1 L 45.19 0.8 L 44.5 0.62 L 43.81 0.46 L 43.11 0.31 L 42.41 0.17 L 41.7 0.05 L 40.99 -0.06 L 40.27 -0.16 L 39.55 -0.23 L 38.82 -0.3 L 38.09 -0.35 L 37.36 -0.39 L 36.62 -0.41 L 35.87 -0.42 Z"/>
    </clipPath>
    <g clip-path="url(#clipPath1)">
      <use ffdec:characterId="393" height="57.2" transform="matrix(1.0, 0.0, 0.0, 1.0, 1.6, 1.0)" width="58.45" xlink:href="#shape2"/>
      <use ffdec:characterId="396" height="56.7" transform="matrix(1.0, 0.0, 0.0, 1.0, 3.25, 1.65)" width="56.55" xlink:href="#shape3"/>
    </g>
  </g>
  <defs>
    <g id="shape0" transform="matrix(1.0, 0.0, 0.0, 1.0, 0.4, 1.0)">
      <path d="M50.85 19.15 L60.05 18.45 59.6 10.65 Q49.3 1.0 35.6 1.0 21.5 1.0 11.55 10.95 1.6 20.9 1.6 35.0 1.6 42.35 4.25 48.5 L4.25 48.55 Q6.45 53.7 10.5 58.0 L10.7 58.2 10.75 58.15 11.7 50.25 19.3 49.6 19.4 49.65 19.35 49.6 Q16.65 46.65 15.25 43.15 13.75 39.4 13.75 35.0 13.75 25.95 20.15 19.55 26.55 13.15 35.6 13.15 44.25 13.15 50.2 18.8 L50.25 18.85 50.85 19.15 M61.1 9.6 L61.55 10.1 61.7 10.45 62.15 20.55 51.55 21.25 47.3 18.4 Q43.0 15.15 35.6 15.15 27.35 15.15 21.55 20.95 15.75 26.75 15.75 35.0 15.75 42.65 20.65 48.25 L21.85 49.7 22.15 49.9 22.15 51.1 13.2 52.1 11.85 61.1 10.75 60.75 9.75 60.0 Q-0.4 49.6 -0.4 35.0 -0.4 20.1 10.15 9.55 20.7 -1.0 35.6 -1.0 48.95 -1.0 58.85 7.5 L61.05 9.55 61.1 9.6" fill="#003366" fill-opacity="0.2" fill-rule="evenodd" stroke="none"/>
      <path d="M50.2 18.8 Q44.25 13.15 35.6 13.15 26.55 13.15 20.15 19.55 13.75 25.95 13.75 35.0 13.75 39.4 15.25 43.15 16.65 46.65 19.35 49.6 L19.3 49.6 11.7 50.25 10.75 58.15 10.7 58.2 10.5 58.0 Q6.45 53.7 4.25 48.55 L4.25 48.5 Q1.6 42.35 1.6 35.0 1.6 20.9 11.55 10.95 21.5 1.0 35.6 1.0 49.3 1.0 59.6 10.65 L60.05 18.45 50.85 19.15 50.25 18.85 50.2 18.8" fill="#ffffff" fill-rule="evenodd" stroke="none"/>
    </g>
    <g id="shape1" transform="matrix(1.0, 0.0, 0.0, 1.0, -1.2, -0.3)">
      <path d="M46.8 2.8 L42.6 14.1 M57.1 8.3 L49.35 17.5 M6.45 17.5 L16.65 24.0 M2.25 27.95 L14.05 30.85 M1.95 39.2 L14.0 37.75 M13.85 8.7 L21.2 18.35 M23.8 3.0 L27.5 14.5 M34.95 1.05 L35.05 13.15 M5.35 50.15 L16.15 44.65" fill="none" stroke="#3399ff" stroke-linecap="round" stroke-linejoin="round" stroke-opacity="0.2" stroke-width="1.5"/>
    </g>
    <g id="shape2" transform="matrix(1.0, 0.0, 0.0, 1.0, -1.6, -1.0)">
      <path d="M37.2 1.05 Q42.95 1.25 47.9 3.15 54.5 6.0 56.95 8.25 L59.6 10.5 60.05 18.45 52.25 19.15 50.25 18.85 Q47.1 15.85 43.25 14.45 40.4 13.4 37.2 13.2 L37.2 1.05" fill="#6699ff" fill-rule="evenodd" stroke="none"/>
      <path d="M37.2 1.05 L37.2 13.2 35.6 13.15 34.9 13.15 Q30.6 13.3 26.95 14.85 23.4 16.4 20.45 19.25 L11.85 10.65 Q16.6 6.0 22.3 3.6 28.1 1.1 34.9 1.0 L35.6 1.0 37.2 1.05" fill="url(#gradient0)" fill-rule="evenodd" stroke="none"/>
      <path d="M20.45 19.25 L20.3 19.45 20.15 19.55 Q17.15 22.55 15.55 26.2 13.95 29.8 13.8 34.05 L13.75 35.0 13.8 36.0 1.6 36.0 1.6 35.0 1.6 34.05 Q1.75 27.3 4.25 21.55 6.75 15.75 11.55 10.95 L11.7 10.85 11.85 10.65 20.45 19.25" fill="url(#gradient1)" fill-rule="evenodd" stroke="none"/>
      <path d="M13.8 36.0 Q13.9 38.9 14.7 41.55 L14.7 41.5 Q16.65 46.65 19.35 49.6 L11.7 50.25 10.75 58.15 10.7 58.2 Q6.2 53.5 3.95 47.8 L3.35 46.35 3.4 46.35 Q1.75 41.5 1.6 36.0 L13.8 36.0" fill="url(#gradient2)" fill-rule="evenodd" stroke="none"/>
    </g>
    <linearGradient gradientTransform="matrix(0.0142, -0.0056, 0.0041, 0.0103, 24.4, 10.15)" gradientUnits="userSpaceOnUse" id="gradient0" spreadMethod="pad" x1="-819.2" x2="819.2">
      <stop offset="0.0" stop-color="#98ccfe"/>
      <stop offset="1.0" stop-color="#6699ff"/>
    </linearGradient>
    <linearGradient gradientTransform="matrix(0.0062, -0.0091, 0.0128, 0.0087, 9.85, 24.3)" gradientUnits="userSpaceOnUse" id="gradient1" spreadMethod="pad" x1="-819.2" x2="819.2">
      <stop offset="0.0" stop-color="#9fcefd"/>
      <stop offset="1.0" stop-color="#8ec2fe"/>
    </linearGradient>
    <linearGradient gradientTransform="matrix(5.0E-4, -0.0094, 0.0135, 7.0E-4, 10.35, 48.2)" gradientUnits="userSpaceOnUse" id="gradient2" spreadMethod="pad" x1="-819.2" x2="819.2">
      <stop offset="0.0" stop-color="#dfecff"/>
      <stop offset="1.0" stop-color="#9fcefd"/>
    </linearGradient>
    <g id="shape3" transform="matrix(1.0, 0.0, 0.0, 1.0, -3.25, -1.65)">
      <path d="M14.25 45.8 L13.45 50.15 11.65 50.35 10.65 58.35 9.55 57.15 9.55 57.1 9.0 55.75 8.85 55.6 8.45 55.65 Q7.0 54.4 6.5 53.0 L7.3 52.25 5.0 47.15 9.95 49.7 12.65 47.2 14.25 45.8" fill="url(#gradient3)" fill-rule="evenodd" stroke="none"/>
      <path d="M59.6 10.5 L59.8 13.35 59.7 13.35 53.3 13.4 51.3 19.1 50.4 18.9 48.4 17.25 47.05 13.4 40.8 13.4 37.2 13.35 44.95 7.55 42.95 1.65 Q49.1 2.75 55.25 7.05 L55.2 7.15 55.3 7.5 59.6 10.5" fill="url(#gradient4)" fill-rule="evenodd" stroke="none"/>
      <path d="M36.95 3.95 L31.6 10.35 31.5 10.75 32.95 13.25 28.6 14.25 Q28.45 14.8 28.15 14.65 L27.85 14.7 26.4 15.05 22.4 17.55 22.85 12.45 15.35 8.95 23.4 6.95 23.8 2.9 26.55 2.05 28.7 5.7 33.85 4.45 36.95 3.95" fill="url(#gradient5)" fill-rule="evenodd" stroke="none"/>
      <path d="M14.65 9.3 L12.9 15.6 12.95 15.9 18.3 19.75 15.15 19.85 11.85 19.8 11.6 19.9 9.7 26.4 8.75 24.05 7.35 19.9 5.2 19.85 Q6.7 16.35 9.8 12.9 L12.6 10.7 14.65 9.3" fill="url(#gradient6)" fill-rule="evenodd" stroke="none"/>
      <path d="M14.25 30.95 Q13.6 35.25 14.3 39.8 L11.65 44.9 11.1 41.55 Q10.7 39.4 10.65 38.0 L10.5 37.8 3.25 36.75 Q4.4 36.0 5.6 35.4 7.75 34.25 9.8 33.2 L8.9 26.3 13.95 31.1 14.25 30.95" fill="url(#gradient7)" fill-rule="evenodd" stroke="none"/>
    </g>
    <radialGradient cx="0" cy="0" gradientTransform="matrix(-0.0078, 0.0074, -0.0074, -0.0078, 9.9, 52.45)" gradientUnits="userSpaceOnUse" id="gradient3" r="819.2" spreadMethod="pad">
      <stop offset="0.0" stop-color="#ffffff"/>
      <stop offset="1.0" stop-color="#ffffff" stop-opacity="0.0"/>
    </radialGradient>
    <radialGradient cx="0" cy="0" gradientTransform="matrix(0.0182, 0.0, 0.0, 0.0182, 50.25, 10.25)" gradientUnits="userSpaceOnUse" id="gradient4" r="819.2" spreadMethod="pad">
      <stop offset="0.0" stop-color="#ffffff"/>
      <stop offset="1.0" stop-color="#ffffff" stop-opacity="0.0"/>
    </radialGradient>
    <radialGradient cx="0" cy="0" gradientTransform="matrix(-0.0016, 0.0159, -0.0159, -0.0016, 25.85, 10.05)" gradientUnits="userSpaceOnUse" id="gradient5" r="819.2" spreadMethod="pad">
      <stop offset="0.0" stop-color="#ffffff"/>
      <stop offset="1.0" stop-color="#ffffff" stop-opacity="0.0"/>
    </radialGradient>
    <radialGradient cx="0" cy="0" gradientTransform="matrix(0.004, 0.0118, -0.0118, 0.004, 8.75, 17.2)" gradientUnits="userSpaceOnUse" id="gradient6" r="819.2" spreadMethod="pad">
      <stop offset="0.0" stop-color="#ffffff"/>
      <stop offset="1.0" stop-color="#ffffff" stop-opacity="0.0"/>
    </radialGradient>
    <radialGradient cx="0" cy="0" gradientTransform="matrix(-0.012, 0.0061, -0.0061, -0.012, 12.9, 34.35)" gradientUnits="userSpaceOnUse" id="gradient7" r="819.2" spreadMethod="pad">
      <stop offset="0.0" stop-color="#ffffff"/>
      <stop offset="1.0" stop-color="#ffffff" stop-opacity="0.0"/>
    </radialGradient>
  </defs>
</svg>
