<?xml version="1.0" encoding="UTF-8" standalone="no"?>
<svg xmlns:ffdec="https://www.free-decompiler.com/flash" xmlns:xlink="http://www.w3.org/1999/xlink" ffdec:objectType="frame" height="98.75px" width="93.95px" xmlns="http://www.w3.org/2000/svg">
  <g transform="matrix(1.0, 0.0, 0.0, 1.0, 15.05, 13.65)">
    <use ffdec:characterId="389" height="62.1" transform="matrix(1.0, 0.0, 0.0, 1.0, -0.4, -1.0)" width="62.55" xlink:href="#shape0"/>
    <clipPath id="clipPath0">
      <path d="M 35.6 1 L 34.72 1.01 L 33.85 1.04 L 32.99 1.09 L 32.14 1.16 L 31.3 1.24 L 30.46 1.35 L 29.63 1.48 L 28.81 1.62 L 28 1.79 L 27.19 1.97 L 26.4 2.18 L 25.61 2.4 L 24.83 2.64 L 24.06 2.9 L 23.29 3.19 L 22.54 3.49 L 21.79 3.81 L 21.05 4.15 L 20.32 4.51 L 19.6 4.89 L 18.88 5.29 L 18.17 5.7 L 17.48 6.14 L 16.78 6.6 L 16.1 7.07 L 15.43 7.57 L 14.76 8.08 L 14.1 8.62 L 13.45 9.17 L 12.81 9.75 L 12.18 10.34 L 11.55 10.95 L 10.94 11.58 L 10.35 12.21 L 9.77 12.85 L 9.22 13.5 L 8.68 14.16 L 8.17 14.83 L 7.67 15.5 L 7.2 16.18 L 6.74 16.88 L 6.3 17.57 L 5.89 18.28 L 5.49 19 L 5.11 19.72 L 4.75 20.45 L 4.41 21.19 L 4.09 21.94 L 3.79 22.69 L 3.5 23.46 L 3.24 24.23 L 3 25.01 L 2.78 25.8 L 2.57 26.59 L 2.39 27.4 L 2.22 28.21 L 2.08 29.03 L 1.95 29.86 L 1.84 30.7 L 1.76 31.54 L 1.69 32.39 L 1.64 33.25 L 1.61 34.12 L 1.6 35 L 1.61 35.85 L 1.64 36.7 L 1.68 37.53 L 1.74 38.36 L 1.82 39.18 L 1.92 39.99 L 2.04 40.79 L 2.17 41.59 L 2.32 42.37 L 2.49 43.15 L 2.68 43.92 L 2.88 44.68 L 3.1 45.44 L 3.34 46.18 L 3.6 46.92 L 3.88 47.65 L 4.17 48.37 L 4.48 49.08 L 4.81 49.79 L 5.15 50.48 L 5.52 51.17 L 5.9 51.85 L 6.3 52.52 L 6.72 53.19 L 7.15 53.84 L 7.61 54.49 L 8.08 55.13 L 8.57 55.76 L 9.07 56.38 L 9.6 57 L 10.14 57.6 L 10.7 58.2 L 19.4 49.65 L 19.05 49.26 L 18.72 48.87 L 18.39 48.48 L 18.08 48.08 L 17.77 47.67 L 17.48 47.26 L 17.2 46.85 L 16.93 46.43 L 16.67 46 L 16.42 45.58 L 16.18 45.14 L 15.96 44.71 L 15.74 44.27 L 15.54 43.82 L 15.34 43.37 L 15.16 42.91 L 14.99 42.45 L 14.83 41.99 L 14.68 41.52 L 14.54 41.04 L 14.42 40.57 L 14.3 40.08 L 14.2 39.6 L 14.1 39.1 L 14.02 38.61 L 13.95 38.1 L 13.89 37.6 L 13.84 37.09 L 13.8 36.57 L 13.77 36.05 L 13.76 35.53 L 13.75 35 L 13.76 34.44 L 13.77 33.88 L 13.81 33.33 L 13.85 32.78 L 13.91 32.24 L 13.98 31.7 L 14.06 31.17 L 14.15 30.64 L 14.26 30.12 L 14.38 29.6 L 14.51 29.09 L 14.65 28.59 L 14.81 28.08 L 14.98 27.59 L 15.16 27.1 L 15.35 26.61 L 15.56 26.13 L 15.77 25.66 L 16.01 25.19 L 16.25 24.72 L 16.51 24.26 L 16.77 23.81 L 17.06 23.36 L 17.35 22.92 L 17.66 22.48 L 17.98 22.04 L 18.31 21.61 L 18.65 21.19 L 19.01 20.77 L 19.38 20.36 L 19.76 19.95 L 20.15 19.55 L 20.55 19.16 L 20.96 18.77 L 21.37 18.41 L 21.79 18.05 L 22.21 17.71 L 22.64 17.38 L 23.08 17.06 L 23.52 16.75 L 23.96 16.46 L 24.41 16.17 L 24.86 15.91 L 25.32 15.65 L 25.79 15.41 L 26.26 15.18 L 26.73 14.96 L 27.21 14.75 L 27.7 14.56 L 28.19 14.38 L 28.68 14.21 L 29.19 14.05 L 29.69 13.91 L 30.2 13.77 L 30.72 13.66 L 31.24 13.55 L 31.77 13.46 L 32.3 13.38 L 32.84 13.31 L 33.38 13.25 L 33.93 13.21 L 34.48 13.18 L 35.04 13.16 L 35.6 13.15 L 36.14 13.16 L 36.68 13.17 L 37.21 13.2 L 37.73 13.24 L 38.25 13.29 L 38.77 13.35 L 39.27 13.42 L 39.78 13.51 L 40.28 13.6 L 40.77 13.71 L 41.26 13.82 L 41.74 13.95 L 42.21 14.09 L 42.69 14.24 L 43.15 14.4 L 43.61 14.57 L 44.07 14.76 L 44.52 14.95 L 44.96 15.16 L 45.4 15.38 L 45.83 15.6 L 46.26 15.84 L 46.69 16.09 L 47.1 16.36 L 47.52 16.63 L 47.92 16.91 L 48.32 17.21 L 48.72 17.51 L 49.11 17.83 L 49.5 18.16 L 49.88 18.5 L 50.25 18.85 L 58.8 10.15 L 58.2 9.59 L 57.6 9.04 L 56.98 8.51 L 56.36 8.01 L 55.73 7.51 L 55.09 7.04 L 54.44 6.58 L 53.79 6.15 L 53.12 5.73 L 52.45 5.32 L 51.77 4.94 L 51.08 4.57 L 50.39 4.23 L 49.68 3.9 L 48.97 3.58 L 48.25 3.29 L 47.52 3.01 L 46.78 2.75 L 46.04 2.51 L 45.28 2.29 L 44.52 2.08 L 43.75 1.89 L 42.97 1.72 L 42.19 1.57 L 41.39 1.44 L 40.59 1.32 L 39.78 1.22 L 38.96 1.14 L 38.13 1.08 L 37.3 1.04 L 36.45 1.01 L 35.6 1 Z"/>
    </clipPath>
    <g clip-path="url(#clipPath0)">
      <use ffdec:characterId="391" height="50.6" transform="matrix(1.0, 0.0, 0.0, 1.0, 1.2, 0.3)" width="56.65" xlink:href="#shape1"/>
    </g>
    <clipPath id="clipPath1">
      <path d="M -1.75 27.16 L -0.27 40.46 L -0.09 40.47 L 0.05 41.31 L 0.2 42.13 L 0.37 42.94 L 0.56 43.75 L 0.77 44.54 L 0.99 45.33 L 1.23 46.1 L 1.48 46.87 L 1.75 47.63 L 2.04 48.38 L 2.35 49.12 L 2.67 49.85 L 3.02 50.57 L 3.37 51.29 L 3.75 51.99 L 4.14 52.69 L 4.55 53.37 L 4.97 54.05 L 5.41 54.72 L 5.87 55.38 L 6.35 56.03 L 6.84 56.67 L 7.35 57.3 L 7.88 57.92 L 8.42 58.53 L 8.98 59.14 L 9.56 59.73 L 10.16 60.32 L 10.77 60.89 L 11.4 61.46 L 12.04 62.02 L 12.7 62.57 L 13.32 63.06 L 13.94 63.54 L 14.57 64 L 15.21 64.45 L 15.84 64.88 L 16.48 65.29 L 17.13 65.69 L 17.78 66.07 L 18.44 66.44 L 19.1 66.79 L 19.76 67.13 L 20.43 67.45 L 21.1 67.76 L 21.78 68.05 L 22.47 68.32 L 23.15 68.58 L 23.84 68.82 L 24.54 69.05 L 25.24 69.26 L 25.95 69.45 L 26.66 69.63 L 27.37 69.8 L 28.09 69.95 L 28.82 70.08 L 29.55 70.2 L 30.28 70.3 L 31.02 70.38 L 31.76 70.45 L 32.51 70.51 L 33.26 70.55 L 34.02 70.57 L 34.78 70.58 L 35.8 70.57 L 36.83 70.52 L 37.87 70.45 L 38.92 70.36 L 39.83 70.25 L 40.74 70.13 L 41.63 69.99 L 42.51 69.83 L 43.38 69.65 L 44.25 69.45 L 45.1 69.23 L 45.94 68.99 L 46.77 68.73 L 47.59 68.45 L 48.4 68.15 L 49.2 67.83 L 49.99 67.49 L 50.76 67.14 L 51.53 66.76 L 52.29 66.36 L 53.04 65.95 L 53.77 65.51 L 54.5 65.06 L 55.21 64.58 L 55.92 64.09 L 56.61 63.57 L 57.3 63.04 L 57.97 62.49 L 58.63 61.92 L 59.28 61.32 L 59.93 60.71 L 60.56 60.08 L 61.18 59.43 L 61.79 58.76 L 62.39 58.07 L 62.98 57.36 L 63.55 56.64 L 64.1 55.91 L 64.64 55.18 L 65.15 54.43 L 65.63 53.69 L 66.1 52.93 L 66.55 52.17 L 66.97 51.41 L 67.38 50.64 L 67.76 49.86 L 68.12 49.07 L 68.46 48.28 L 68.78 47.49 L 69.08 46.69 L 69.35 45.88 L 69.61 45.06 L 69.84 44.24 L 70.06 43.41 L 70.25 42.58 L 70.42 41.74 L 70.57 40.89 L 70.69 40.04 L 70.8 39.18 L 70.89 38.32 L 70.95 37.45 L 70.99 36.57 L 71.01 35.69 L 71.02 34.8 L 70.99 33.9 L 70.95 33 L 70.89 32.09 L 70.8 31.18 L 70.63 31.16 L 62.93 40.15 L 54.83 32.8 L 16.46 36.81 L 14.86 30.94 L -1.75 27.16 Z"/>
    </clipPath>
    <g clip-path="url(#clipPath1)">
      <use ffdec:characterId="393" height="57.2" transform="matrix(1.0, 0.0, 0.0, 1.0, 1.6, 1.0)" width="58.45" xlink:href="#shape2"/>
      <use ffdec:characterId="394" height="51.85" transform="matrix(1.0, 0.0, 0.0, 1.0, 3.15, 1.95)" width="56.75" xlink:href="#shape3"/>
    </g>
  </g>
  <defs>
    <g id="shape0" transform="matrix(1.0, 0.0, 0.0, 1.0, 0.4, 1.0)">
      <path d="M50.85 19.15 L60.05 18.45 59.6 10.65 Q49.3 1.0 35.6 1.0 21.5 1.0 11.55 10.95 1.6 20.9 1.6 35.0 1.6 42.35 4.25 48.5 L4.25 48.55 Q6.45 53.7 10.5 58.0 L10.7 58.2 10.75 58.15 11.7 50.25 19.3 49.6 19.4 49.65 19.35 49.6 Q16.65 46.65 15.25 43.15 13.75 39.4 13.75 35.0 13.75 25.95 20.15 19.55 26.55 13.15 35.6 13.15 44.25 13.15 50.2 18.8 L50.25 18.85 50.85 19.15 M61.1 9.6 L61.55 10.1 61.7 10.45 62.15 20.55 51.55 21.25 47.3 18.4 Q43.0 15.15 35.6 15.15 27.35 15.15 21.55 20.95 15.75 26.75 15.75 35.0 15.75 42.65 20.65 48.25 L21.85 49.7 22.15 49.9 22.15 51.1 13.2 52.1 11.85 61.1 10.75 60.75 9.75 60.0 Q-0.4 49.6 -0.4 35.0 -0.4 20.1 10.15 9.55 20.7 -1.0 35.6 -1.0 48.95 -1.0 58.85 7.5 L61.05 9.55 61.1 9.6" fill="#003366" fill-opacity="0.2" fill-rule="evenodd" stroke="none"/>
      <path d="M50.2 18.8 Q44.25 13.15 35.6 13.15 26.55 13.15 20.15 19.55 13.75 25.95 13.75 35.0 13.75 39.4 15.25 43.15 16.65 46.65 19.35 49.6 L19.3 49.6 11.7 50.25 10.75 58.15 10.7 58.2 10.5 58.0 Q6.45 53.7 4.25 48.55 L4.25 48.5 Q1.6 42.35 1.6 35.0 1.6 20.9 11.55 10.95 21.5 1.0 35.6 1.0 49.3 1.0 59.6 10.65 L60.05 18.45 50.85 19.15 50.25 18.85 50.2 18.8" fill="#ffffff" fill-rule="evenodd" stroke="none"/>
    </g>
    <g id="shape1" transform="matrix(1.0, 0.0, 0.0, 1.0, -1.2, -0.3)">
      <path d="M46.8 2.8 L42.6 14.1 M57.1 8.3 L49.35 17.5 M6.45 17.5 L16.65 24.0 M2.25 27.95 L14.05 30.85 M1.95 39.2 L14.0 37.75 M13.85 8.7 L21.2 18.35 M23.8 3.0 L27.5 14.5 M34.95 1.05 L35.05 13.15 M5.35 50.15 L16.15 44.65" fill="none" stroke="#3399ff" stroke-linecap="round" stroke-linejoin="round" stroke-opacity="0.2" stroke-width="1.5"/>
    </g>
    <g id="shape2" transform="matrix(1.0, 0.0, 0.0, 1.0, -1.6, -1.0)">
      <path d="M37.2 1.05 Q42.95 1.25 47.9 3.15 54.5 6.0 56.95 8.25 L59.6 10.5 60.05 18.45 52.25 19.15 50.25 18.85 Q47.1 15.85 43.25 14.45 40.4 13.4 37.2 13.2 L37.2 1.05" fill="#6699ff" fill-rule="evenodd" stroke="none"/>
      <path d="M37.2 1.05 L37.2 13.2 35.6 13.15 34.9 13.15 Q30.6 13.3 26.95 14.85 23.4 16.4 20.45 19.25 L11.85 10.65 Q16.6 6.0 22.3 3.6 28.1 1.1 34.9 1.0 L35.6 1.0 37.2 1.05" fill="url(#gradient0)" fill-rule="evenodd" stroke="none"/>
      <path d="M20.45 19.25 L20.3 19.45 20.15 19.55 Q17.15 22.55 15.55 26.2 13.95 29.8 13.8 34.05 L13.75 35.0 13.8 36.0 1.6 36.0 1.6 35.0 1.6 34.05 Q1.75 27.3 4.25 21.55 6.75 15.75 11.55 10.95 L11.7 10.85 11.85 10.65 20.45 19.25" fill="url(#gradient1)" fill-rule="evenodd" stroke="none"/>
      <path d="M13.8 36.0 Q13.9 38.9 14.7 41.55 L14.7 41.5 Q16.65 46.65 19.35 49.6 L11.7 50.25 10.75 58.15 10.7 58.2 Q6.2 53.5 3.95 47.8 L3.35 46.35 3.4 46.35 Q1.75 41.5 1.6 36.0 L13.8 36.0" fill="url(#gradient2)" fill-rule="evenodd" stroke="none"/>
    </g>
    <linearGradient gradientTransform="matrix(0.0142, -0.0056, 0.0041, 0.0103, 24.4, 10.15)" gradientUnits="userSpaceOnUse" id="gradient0" spreadMethod="pad" x1="-819.2" x2="819.2">
      <stop offset="0.0" stop-color="#98ccfe"/>
      <stop offset="1.0" stop-color="#6699ff"/>
    </linearGradient>
    <linearGradient gradientTransform="matrix(0.0062, -0.0091, 0.0128, 0.0087, 9.85, 24.3)" gradientUnits="userSpaceOnUse" id="gradient1" spreadMethod="pad" x1="-819.2" x2="819.2">
      <stop offset="0.0" stop-color="#9fcefd"/>
      <stop offset="1.0" stop-color="#8ec2fe"/>
    </linearGradient>
    <linearGradient gradientTransform="matrix(5.0E-4, -0.0094, 0.0135, 7.0E-4, 10.35, 48.2)" gradientUnits="userSpaceOnUse" id="gradient2" spreadMethod="pad" x1="-819.2" x2="819.2">
      <stop offset="0.0" stop-color="#dfecff"/>
      <stop offset="1.0" stop-color="#9fcefd"/>
    </linearGradient>
    <g id="shape3" transform="matrix(1.0, 0.0, 0.0, 1.0, -3.15, -1.95)">
      <path d="M51.05 4.45 L51.15 4.45 51.45 4.6 51.85 4.8 52.0 6.55 53.35 5.6 54.95 6.6 55.15 6.75 53.05 8.15 56.65 9.95 58.3 9.35 58.8 9.8 59.55 10.85 58.95 11.05 59.8 11.5 59.7 11.8 59.7 13.15 59.9 13.5 59.85 13.7 58.05 12.8 58.75 14.75 57.0 15.3 55.8 11.65 52.2 9.9 52.45 13.9 55.35 16.4 54.15 17.8 52.65 16.45 52.8 18.85 50.85 18.95 50.7 16.6 49.35 18.1 48.0 16.9 50.5 14.0 50.25 10.05 46.95 12.25 46.25 15.8 45.75 15.45 45.65 15.5 44.55 14.8 44.8 13.65 43.65 14.4 42.85 14.2 42.6 14.0 42.25 14.0 42.1 13.95 41.75 13.4 43.7 12.05 41.75 11.65 42.1 9.9 45.85 10.65 49.15 8.4 45.6 6.65 41.95 7.9 41.35 6.15 43.3 5.5 41.15 4.45 42.0 2.75 44.15 3.75 43.55 1.95 44.8 2.3 45.65 2.6 46.45 4.9 50.05 6.65 49.85 3.95 51.0 4.4 51.05 4.45 M35.1 8.5 L35.9 9.9 34.15 10.95 35.8 11.4 35.4 12.9 32.25 12.05 29.25 13.75 29.55 13.9 29.15 14.05 Q27.8 14.35 26.0 15.3 24.3 16.1 22.5 17.35 L21.4 18.3 20.1 19.05 19.25 17.6 21.0 16.6 19.35 16.15 19.75 14.65 22.95 15.5 25.9 13.75 22.95 12.05 19.75 12.9 19.35 11.4 21.0 10.95 19.25 9.9 20.1 8.5 21.85 9.5 21.4 7.8 22.9 7.4 23.8 10.6 26.75 12.3 26.75 8.9 24.4 6.55 25.5 5.45 26.75 6.65 26.75 4.6 28.45 4.6 28.45 6.65 29.65 5.45 30.75 6.55 28.45 8.9 28.45 12.3 31.4 10.6 32.25 7.4 33.75 7.8 33.3 9.5 35.1 8.5 M7.95 14.95 L8.55 14.15 8.55 14.2 8.6 14.05 9.55 12.9 10.35 13.25 9.7 14.65 10.95 14.2 11.4 15.3 9.05 16.25 8.05 18.6 10.65 18.3 12.15 16.3 13.1 17.05 12.3 18.1 13.85 17.9 14.0 19.15 12.45 19.35 13.5 20.15 12.8 21.1 10.8 19.55 8.2 19.9 9.8 21.95 12.25 22.3 12.1 23.45 10.8 23.3 11.75 24.5 10.75 25.3 9.8 24.05 9.6 25.35 8.45 25.2 8.8 22.7 7.2 20.65 6.2 23.05 7.15 25.35 6.05 25.8 5.55 24.6 4.95 26.05 3.75 25.55 4.4 24.1 3.15 24.6 3.15 24.5 3.6 23.15 5.05 22.55 6.05 20.15 4.9 20.3 5.7 18.9 5.9 18.9 5.8 18.75 6.05 18.35 6.5 17.65 6.9 18.15 7.9 15.75 7.7 15.3 7.75 15.15 7.95 14.95 M12.8 30.25 L12.95 31.6 13.65 30.75 13.9 30.95 13.9 31.6 13.7 32.0 13.75 32.2 13.05 33.05 13.3 35.25 13.8 34.9 13.8 36.9 13.8 37.2 13.85 37.3 13.5 37.15 13.8 39.4 14.45 39.9 14.45 40.25 14.45 40.4 14.6 40.6 14.65 40.95 14.8 41.5 13.9 40.8 14.05 42.15 13.0 42.3 12.85 40.95 12.15 41.85 11.35 41.2 12.7 39.5 12.45 37.25 10.65 38.6 10.3 40.75 9.3 40.6 9.45 39.45 8.4 40.25 7.75 39.4 8.8 38.6 7.7 38.4 7.85 37.4 10.0 37.7 11.8 36.4 9.75 35.5 7.75 36.25 7.35 35.3 8.4 34.9 7.2 34.35 7.6 33.4 8.85 33.9 8.45 32.85 9.4 32.45 10.2 34.5 12.25 35.4 12.0 33.15 10.3 31.8 10.95 31.0 11.85 31.75 11.65 30.4 12.8 30.25 M4.45 45.1 L5.25 45.55 4.95 44.45 5.85 44.25 6.1 45.3 6.55 44.5 7.3 44.9 6.4 46.45 6.85 48.15 8.15 46.9 8.1 45.15 8.95 45.15 8.95 46.05 9.75 45.3 10.35 45.9 9.6 46.7 10.5 46.7 10.5 47.5 8.75 47.5 7.5 48.8 9.25 49.25 10.75 48.4 11.15 49.1 10.35 49.55 11.4 49.85 11.15 50.7 10.1 50.4 10.6 51.2 9.85 51.6 9.0 50.1 7.25 49.65 7.75 51.4 9.25 52.25 8.85 52.95 8.05 52.5 8.3 53.55 7.5 53.8 7.2 52.75 6.75 53.55 6.35 52.85 6.25 52.65 6.85 51.6 6.4 49.85 5.4 50.85 4.85 50.15 5.8 49.25 4.45 48.9 4.45 48.75 4.1 48.3 4.05 48.2 4.05 48.1 4.0 47.6 3.8 47.3 3.7 46.9 4.3 47.9 6.0 48.4 5.55 46.65 4.05 45.8 4.45 45.1" fill="#ffffff" fill-opacity="0.5019608" fill-rule="evenodd" stroke="none"/>
    </g>
  </defs>
</svg>
