<?xml version="1.0" encoding="UTF-8" standalone="no"?>
<svg xmlns:ffdec="https://www.free-decompiler.com/flash" xmlns:xlink="http://www.w3.org/1999/xlink" ffdec:objectType="frame" height="39.4px" width="27.05px" xmlns="http://www.w3.org/2000/svg">
  <g transform="matrix(1.0, 0.0, 0.0, 1.0, 13.55, 19.7)">
    <use ffdec:characterId="499" height="39.4" transform="matrix(1.0, 0.0, 0.0, 1.0, -13.55, -19.7)" width="27.05" xlink:href="#shape0"/>
  </g>
  <defs>
    <g id="shape0" transform="matrix(1.0, 0.0, 0.0, 1.0, 13.55, 19.7)">
      <path d="M3.35 -1.2 L3.15 -1.1 3.0 -1.0 3.0 -0.9 3.0 -0.8 3.05 -0.7 3.15 -0.6 Q3.55 -0.35 3.95 -0.45 L4.05 -0.8 4.0 -1.05 3.9 -1.1 3.35 -1.2 M1.9 -2.35 L1.95 -2.25 2.85 -2.15 2.95 -2.3 3.15 -2.75 3.1 -2.85 2.65 -3.0 1.9 -2.55 1.9 -2.45 1.9 -2.35 M0.2 -0.5 L0.05 -0.55 -0.1 -0.65 -0.25 -0.6 -0.4 -0.5 -0.4 -0.4 Q-0.55 0.15 -0.15 0.5 L0.05 0.55 0.25 0.5 0.35 0.35 0.4 0.15 0.35 0.05 0.2 -0.5 M1.8 -4.9 L1.55 -5.1 0.95 -4.75 0.9 -4.65 0.8 -4.45 0.8 -4.25 0.85 -4.15 Q1.0 -3.9 1.3 -4.0 L1.4 -4.1 1.65 -4.4 1.8 -4.5 1.85 -4.65 1.9 -4.85 1.8 -4.9 M-8.7 -14.95 L-8.25 -14.4 -8.3 -14.3 Q-8.35 -13.15 -7.55 -12.4 -3.9 -9.25 0.6 -6.85 3.8 -5.15 5.75 -2.05 L6.6 -0.55 4.85 -0.9 4.7 -0.75 4.5 -0.5 4.5 -0.2 4.5 -0.05 4.65 0.15 Q5.8 1.05 7.25 0.95 9.5 7.1 5.75 13.25 L5.35 13.4 Q0.1 17.05 -5.85 15.5 -11.25 10.3 -12.6 2.6 -12.95 0.6 -12.7 -1.6 L-12.5 -1.6 Q-12.2 -1.75 -12.7 -1.7 -11.35 -8.25 -8.75 -14.4 -8.65 -14.65 -8.7 -14.95 M2.6 13.55 L2.55 13.35 2.4 12.95 2.35 12.85 Q2.05 12.45 1.55 12.35 L1.45 12.4 1.2 12.55 1.2 12.65 1.2 12.75 1.25 12.85 1.35 12.95 1.65 13.15 1.75 13.35 2.05 13.75 2.25 13.85 2.4 13.75 2.6 13.55 M5.55 8.6 L5.5 8.7 5.5 8.9 Q5.9 9.45 6.5 9.15 L6.55 9.05 6.6 8.85 6.55 8.75 Q6.25 8.45 5.85 8.45 L5.7 8.5 Q5.65 8.5 5.55 8.6 M7.6 7.0 L7.6 6.9 7.55 6.8 6.4 6.65 6.15 6.75 6.05 6.85 6.05 6.95 6.05 7.05 6.1 7.15 7.5 7.25 7.6 7.0 M2.45 10.65 L2.4 10.9 2.4 11.1 2.55 11.35 2.7 11.55 3.1 11.7 4.85 12.5 5.5 11.85 5.35 11.55 Q4.4 10.25 2.8 10.3 L2.65 10.45 2.45 10.65 M1.5 6.75 L1.45 6.55 Q0.85 4.95 -0.7 5.05 L-0.85 5.15 -1.05 5.4 -1.05 5.7 -1.05 5.85 -1.0 6.0 -0.95 6.15 -0.6 6.4 0.9 7.4 Q1.45 7.3 1.5 6.75 M0.35 8.85 L0.25 8.95 0.25 9.05 0.25 9.15 0.3 9.25 0.4 9.35 1.5 9.6 1.55 9.55 1.6 9.45 1.65 9.35 1.6 9.25 Q1.25 8.65 0.6 8.75 L0.35 8.85 M4.5 7.55 L4.55 7.45 4.45 7.4 Q3.9 6.9 3.2 6.95 L2.95 7.1 2.85 7.15 2.85 7.35 2.85 7.45 Q3.6 8.0 4.45 7.8 L4.5 7.55 M2.25 4.0 Q2.05 3.55 1.55 3.65 L1.35 3.75 1.2 3.85 1.2 3.95 1.2 4.05 1.25 4.15 1.35 4.25 2.1 4.4 2.15 4.3 2.25 4.2 2.3 4.1 2.25 4.0 M1.85 1.45 L1.7 1.4 1.55 1.45 Q1.5 1.45 1.4 1.55 1.2 2.3 1.95 2.65 L2.15 2.55 2.2 2.5 2.25 2.3 1.95 1.55 1.85 1.45 M5.1 5.05 L5.3 5.1 5.85 5.3 6.0 5.2 6.2 5.0 6.15 4.95 Q5.65 4.15 4.6 4.05 L4.5 4.1 4.25 4.25 4.25 4.35 4.25 4.45 4.3 4.55 4.4 4.65 4.9 4.85 5.0 4.95 5.1 5.05 M6.0 3.05 L6.05 2.95 6.2 2.75 6.2 2.65 6.1 2.55 Q5.65 2.15 5.0 2.25 L4.75 2.4 4.65 2.45 4.65 2.55 4.65 2.65 4.65 2.75 Q5.3 3.15 6.0 3.05 M-6.3 -16.5 Q-5.75 -16.75 -6.15 -16.15 L-6.3 -16.5 M-11.45 -4.95 L-11.6 -4.9 -11.8 -4.75 -11.8 -4.65 -11.8 -4.55 -11.8 -4.45 Q-11.2 -3.9 -10.45 -3.9 L-10.35 -4.1 -10.25 -4.3 -10.35 -4.35 Q-10.85 -4.8 -11.45 -4.95 M-4.9 12.85 Q-4.85 12.65 -4.95 12.5 L-5.05 12.45 -5.2 12.35 Q-5.6 12.4 -5.85 12.7 L-5.85 12.9 -5.8 13.1 -5.5 13.3 -4.95 13.05 -4.9 12.85 M-3.25 13.65 L-3.3 13.45 -3.4 13.35 -3.55 13.3 -3.7 13.3 -3.85 13.4 -3.9 13.5 -4.2 14.05 -4.2 14.25 -4.2 14.35 -3.5 14.45 -3.45 14.4 -3.2 13.85 -3.25 13.65 M-1.35 13.85 L-1.45 13.9 -1.7 14.05 -1.7 14.15 -1.7 14.25 -1.65 14.35 -1.55 14.45 -1.3 14.6 -1.3 14.7 -1.3 14.8 -1.25 14.9 -1.15 15.0 -0.65 15.05 -0.6 15.0 -0.5 14.95 -0.5 14.85 Q-0.4 14.7 -0.55 14.55 L-0.65 14.2 -0.75 14.1 Q-1.0 13.85 -1.35 13.85 M-11.65 2.15 L-11.65 2.25 -11.6 2.45 -11.15 2.65 -10.7 2.4 -10.6 2.3 -10.55 2.1 -10.65 2.0 Q-10.75 1.85 -11.0 1.85 L-11.65 2.15 M-0.95 10.35 L-1.1 10.4 -1.25 10.5 -1.25 10.7 -1.15 11.55 -1.05 11.65 -0.85 11.95 -0.65 12.0 -0.45 11.95 -0.4 11.8 Q-0.35 11.15 -0.7 10.55 L-0.8 10.45 -0.95 10.35 M-3.1 10.2 L-3.3 10.3 -3.45 10.55 -3.95 11.6 -4.0 11.8 -4.0 12.1 -4.0 12.25 -3.9 12.4 -3.45 12.75 -3.35 12.75 -3.25 12.75 Q-2.1 12.05 -2.15 10.6 L-2.2 10.45 -2.35 10.25 -2.45 10.2 -2.55 10.15 -3.0 10.15 -3.1 10.2 M-3.5 9.8 L-3.6 9.45 -3.7 9.4 -3.85 9.3 -4.0 9.35 -4.2 9.5 -4.3 9.7 Q-4.7 10.1 -4.55 10.65 L-4.0 10.7 -3.9 10.5 -3.85 10.3 -3.75 10.2 -3.55 10.0 -3.5 9.8 M-3.0 7.15 L-3.15 7.1 -3.45 7.25 -3.5 7.45 -3.45 8.3 -3.15 8.45 -3.0 8.4 -2.8 8.2 -2.8 8.0 Q-2.75 7.6 -2.85 7.25 L-3.0 7.15 M-6.85 10.95 L-7.0 10.85 -7.15 10.8 -7.3 10.85 -7.5 11.0 -7.5 11.2 -7.6 12.55 -7.05 12.6 -6.95 12.4 -6.95 12.1 -6.85 12.0 -6.8 11.9 -6.8 11.7 Q-6.75 11.3 -6.85 10.95 M-9.1 7.5 L-9.25 7.55 -9.45 7.7 -9.45 7.9 -9.45 8.95 -8.9 9.05 -8.8 8.8 Q-8.7 8.2 -8.85 7.7 L-8.95 7.6 -9.1 7.5 M-7.3 7.35 L-7.5 7.45 -7.6 7.7 -7.95 8.45 -8.05 9.2 -7.85 9.55 -7.75 9.65 -7.1 9.75 -6.85 9.7 Q-5.8 8.45 -6.7 7.3 L-7.05 7.25 -7.3 7.35 M-8.15 5.9 L-8.4 5.7 -9.0 6.2 -8.95 6.4 -8.95 6.5 -8.65 6.65 -8.05 6.0 -8.15 5.9 M-10.0 4.9 L-10.1 4.8 -10.45 4.6 Q-10.7 4.6 -10.8 4.8 L-10.8 4.9 -10.8 5.1 -10.25 5.25 -10.15 5.2 -10.0 4.9 M-7.75 0.5 L-7.65 0.2 -7.75 0.1 -8.0 -0.1 -8.9 0.25 -8.9 0.45 -8.9 0.55 -7.9 0.65 -7.75 0.5 M-6.7 3.0 L-6.7 2.8 -6.9 2.5 -8.3 2.2 -8.35 2.15 -8.65 1.95 -8.95 2.1 -9.1 2.3 -9.7 2.55 -9.85 2.8 -9.95 3.1 -10.0 3.3 -10.0 3.4 -10.0 3.55 -9.95 3.7 -9.85 3.8 -9.8 3.9 -9.6 4.0 -9.4 4.1 -9.3 4.1 -9.05 4.0 -8.55 3.7 -8.1 3.7 -7.1 3.5 -7.1 4.15 -6.75 4.3 -6.6 4.25 -6.4 4.05 -6.4 3.85 -6.5 3.1 -6.6 3.05 -6.7 3.0 M-5.0 6.0 L-5.05 6.1 -5.15 6.2 -5.15 6.4 -5.1 6.5 -4.65 6.65 -4.55 6.55 -4.35 6.35 -4.3 6.1 -4.4 5.7 -4.5 5.6 -4.65 5.55 -4.8 5.6 -4.95 5.65 -5.0 5.9 -5.0 6.0 M-4.65 2.4 L-4.95 2.9 -5.15 4.1 -5.05 5.1 -4.7 5.35 -4.45 5.35 Q-2.65 3.9 -3.9 2.25 L-4.25 2.2 -4.5 2.25 -4.65 2.4 M-3.6 0.2 L-3.7 0.1 Q-3.85 -0.15 -4.1 -0.1 L-5.0 0.5 -5.0 0.6 -5.0 0.7 -4.95 0.8 -4.5 0.95 -3.75 0.5 -3.65 0.4 -3.6 0.2 M-1.6 2.0 L-1.75 1.95 -1.9 2.0 -2.05 2.1 -2.05 2.3 -2.15 2.8 -2.3 2.9 -2.4 3.0 -2.4 3.2 -2.4 3.3 -1.95 3.45 -1.4 3.05 -1.4 2.85 -1.5 2.1 -1.6 2.0 M-4.95 -4.4 L-5.0 -4.3 -5.0 -4.2 -5.0 -4.1 -3.95 -3.45 -3.9 -3.5 -3.85 -3.55 -3.8 -3.65 -3.8 -3.75 Q-4.0 -4.35 -4.65 -4.55 L-4.8 -4.5 -4.85 -4.5 -4.95 -4.4 M-1.35 -3.25 L-1.5 -3.15 -2.3 -1.6 -2.35 -1.0 -2.2 -0.6 -2.15 -0.55 -1.95 -0.45 -1.75 -0.4 -1.6 -0.35 Q-0.4 -1.25 -0.35 -2.9 L-0.5 -3.1 -0.7 -3.25 -0.8 -3.3 -1.0 -3.35 -1.25 -3.3 -1.35 -3.25 M-1.95 -5.4 L-2.1 -5.3 Q-1.85 -4.2 -0.8 -4.0 L-0.7 -4.1 -0.6 -4.3 -0.65 -4.4 -1.75 -5.55 -1.95 -5.4 M-6.85 -1.75 L-6.95 -1.55 -7.1 -0.85 -6.55 -0.7 -6.45 -0.9 Q-6.2 -1.3 -6.3 -1.7 L-6.45 -1.8 -6.6 -1.9 -6.75 -1.85 -6.85 -1.75 M-7.15 -3.85 L-7.2 -3.95 -7.4 -4.15 -7.55 -4.25 -7.65 -4.3 -7.9 -4.25 -8.15 -4.2 -8.3 -4.1 -9.65 -2.75 -9.6 -2.75 Q-9.8 -2.45 -9.65 -2.15 L-9.35 -1.75 -8.9 -1.65 Q-7.45 -2.35 -7.15 -3.85 M-6.55 -3.65 L-6.45 -3.75 -6.25 -4.4 -6.35 -4.45 -6.6 -4.65 -7.1 -4.35 -7.1 -4.15 -7.1 -3.75 -6.55 -3.65 M-6.1 -7.4 L-6.1 -7.2 Q-5.85 -6.95 -5.55 -7.05 L-5.45 -7.1 -5.3 -7.45 -5.4 -7.55 -5.75 -7.7 Q-6.0 -7.7 -6.1 -7.5 L-6.1 -7.4 M-8.2 -6.7 L-8.2 -6.6 Q-8.2 -6.0 -8.6 -5.55 L-8.6 -5.35 -8.55 -5.15 Q-8.4 -4.9 -8.1 -5.0 L-8.05 -5.1 Q-7.35 -5.85 -7.55 -6.75 L-7.7 -6.8 -7.85 -6.9 -7.95 -6.85 -8.2 -6.7 M-8.55 -8.95 L-8.65 -9.05 -8.8 -9.1 -8.95 -9.05 -9.15 -8.9 -9.15 -8.7 -9.2 -8.6 -9.3 -8.5 -9.45 -7.9 Q-9.25 -7.65 -9.0 -7.75 L-8.9 -7.8 -8.5 -8.35 -8.45 -8.55 -8.55 -8.95 M-7.15 -10.9 L-7.3 -10.9 -7.4 -10.75 -7.8 -10.4 -7.75 -10.35 -7.85 -10.05 -7.7 -9.55 Q-7.3 -8.1 -6.0 -8.25 -5.6 -8.45 -5.65 -8.9 L-5.75 -9.2 -6.8 -10.9 -6.9 -10.9 -7.15 -10.9 M-3.2 -7.95 L-3.25 -7.75 -3.3 -6.4 -3.0 -6.2 -2.85 -6.3 -2.65 -6.5 -2.65 -6.7 Q-2.55 -7.35 -2.6 -7.95 L-2.7 -8.05 -2.85 -8.1 -3.2 -7.95 M-10.3 -1.05 L-10.55 -1.05 -10.8 -1.0 -10.95 -0.85 -11.15 -0.6 -11.15 -0.3 -11.15 -0.15 -11.0 0.1 Q-10.55 0.65 -9.9 0.4 -9.45 0.2 -9.5 -0.3 L-9.65 -0.65 Q-9.95 -0.95 -10.3 -1.05" fill="#e19548" fill-rule="evenodd" stroke="none"/>
      <path d="M1.8 -4.9 L1.9 -4.85 1.85 -4.65 1.8 -4.5 1.65 -4.4 1.4 -4.1 1.3 -4.0 Q1.0 -3.9 0.85 -4.15 L0.8 -4.25 0.8 -4.45 0.9 -4.65 0.95 -4.75 1.55 -5.1 1.8 -4.9 M0.2 -0.5 L0.35 0.05 0.4 0.15 0.35 0.35 0.25 0.5 0.05 0.55 -0.15 0.5 Q-0.55 0.15 -0.4 -0.4 L-0.4 -0.5 -0.25 -0.6 -0.1 -0.65 0.05 -0.55 0.2 -0.5 M1.9 -2.35 L1.9 -2.45 1.9 -2.55 2.65 -3.0 3.1 -2.85 3.15 -2.75 2.95 -2.3 2.85 -2.15 1.95 -2.25 1.9 -2.35 M3.35 -1.2 L3.9 -1.1 4.0 -1.05 4.05 -0.8 3.95 -0.45 Q3.55 -0.35 3.15 -0.6 L3.05 -0.7 3.0 -0.8 3.0 -0.9 3.0 -1.0 3.15 -1.1 3.35 -1.2 M-5.85 15.5 Q0.1 17.05 5.35 13.4 L5.75 13.25 Q9.5 7.1 7.25 0.95 5.8 1.05 4.65 0.15 L4.5 -0.05 4.5 -0.2 4.5 -0.5 4.7 -0.75 4.85 -0.9 6.6 -0.55 5.75 -2.05 Q3.8 -5.15 0.6 -6.85 -3.9 -9.25 -7.55 -12.4 -8.35 -13.15 -8.3 -14.3 L-8.25 -14.4 -8.7 -14.95 -9.5 -17.05 -9.25 -18.0 Q-9.05 -18.0 -8.95 -18.1 -8.65 -18.4 -8.45 -18.8 L-7.45 -18.1 -7.05 -18.65 -7.5 -19.65 -6.25 -19.7 -5.8 -18.85 -5.0 -18.9 -4.75 -18.2 -4.65 -18.3 -3.85 -17.7 -3.85 -17.85 -3.65 -17.95 -3.55 -17.95 -3.15 -17.95 -1.95 -17.0 -2.1 -16.15 -0.8 -13.55 Q2.0 -12.05 4.65 -10.05 10.25 -5.8 12.4 0.8 14.9 8.65 10.25 14.6 8.75 16.5 6.6 17.55 -0.25 20.65 -5.85 15.5 M-12.7 -1.7 Q-12.2 -1.75 -12.5 -1.6 L-12.7 -1.6 -12.75 -1.65 -12.7 -1.7 M6.0 3.05 Q5.3 3.15 4.65 2.75 L4.65 2.65 4.65 2.55 4.65 2.45 4.75 2.4 5.0 2.25 Q5.65 2.15 6.1 2.55 L6.2 2.65 6.2 2.75 6.05 2.95 6.0 3.05 M5.1 5.05 L5.0 4.95 4.9 4.85 4.4 4.65 4.3 4.55 4.25 4.45 4.25 4.35 4.25 4.25 4.5 4.1 4.6 4.05 Q5.65 4.15 6.15 4.95 L6.2 5.0 6.0 5.2 5.85 5.3 5.3 5.1 5.1 5.05 M1.85 1.45 L1.95 1.55 2.25 2.3 2.2 2.5 2.15 2.55 1.95 2.65 Q1.2 2.3 1.4 1.55 1.5 1.45 1.55 1.45 L1.7 1.4 1.85 1.45 M2.25 4.0 L2.3 4.1 2.25 4.2 2.15 4.3 2.1 4.4 1.35 4.25 1.25 4.15 1.2 4.05 1.2 3.95 1.2 3.85 1.35 3.75 1.55 3.65 Q2.05 3.55 2.25 4.0 M4.5 7.55 L4.45 7.8 Q3.6 8.0 2.85 7.45 L2.85 7.35 2.85 7.15 2.95 7.1 3.2 6.95 Q3.9 6.9 4.45 7.4 L4.55 7.45 4.5 7.55 M0.35 8.85 L0.6 8.75 Q1.25 8.65 1.6 9.25 L1.65 9.35 1.6 9.45 1.55 9.55 1.5 9.6 0.4 9.35 0.3 9.25 0.25 9.15 0.25 9.05 0.25 8.95 0.35 8.85 M1.5 6.75 Q1.45 7.3 0.9 7.4 L-0.6 6.4 -0.95 6.15 -1.0 6.0 -1.05 5.85 -1.05 5.7 -1.05 5.4 -0.85 5.15 -0.7 5.05 Q0.85 4.95 1.45 6.55 L1.5 6.75 M2.45 10.65 L2.65 10.45 2.8 10.3 Q4.4 10.25 5.35 11.55 L5.5 11.85 4.85 12.5 3.1 11.7 2.7 11.55 2.55 11.35 2.4 11.1 2.4 10.9 2.45 10.65 M7.6 7.0 L7.5 7.25 6.1 7.15 6.05 7.05 6.05 6.95 6.05 6.85 6.15 6.75 6.4 6.65 7.55 6.8 7.6 6.9 7.6 7.0 M5.55 8.6 Q5.65 8.5 5.7 8.5 L5.85 8.45 Q6.25 8.45 6.55 8.75 L6.6 8.85 6.55 9.05 6.5 9.15 Q5.9 9.45 5.5 8.9 L5.5 8.7 5.55 8.6 M2.6 13.55 L2.4 13.75 2.25 13.85 2.05 13.75 1.75 13.35 1.65 13.15 1.35 12.95 1.25 12.85 1.2 12.75 1.2 12.65 1.2 12.55 1.45 12.4 1.55 12.35 Q2.05 12.45 2.35 12.85 L2.4 12.95 2.55 13.35 2.6 13.55 M-6.3 -16.5 L-6.15 -16.15 Q-5.75 -16.75 -6.3 -16.5 M-1.7 -16.65 L-1.7 -16.7 -1.35 -16.45 -1.1 -16.25 -1.2 -16.2 -1.65 -16.45 -1.65 -16.55 -1.7 -16.65 M-11.45 -4.95 Q-10.85 -4.8 -10.35 -4.35 L-10.25 -4.3 -10.35 -4.1 -10.45 -3.9 Q-11.2 -3.9 -11.8 -4.45 L-11.8 -4.55 -11.8 -4.65 -11.8 -4.75 -11.6 -4.9 -11.45 -4.95 M-10.3 -1.05 Q-9.95 -0.95 -9.65 -0.65 L-9.5 -0.3 Q-9.45 0.2 -9.9 0.4 -10.55 0.65 -11.0 0.1 L-11.15 -0.15 -11.15 -0.3 -11.15 -0.6 -10.95 -0.85 -10.8 -1.0 -10.55 -1.05 -10.3 -1.05 M-3.2 -7.95 L-2.85 -8.1 -2.7 -8.05 -2.6 -7.95 Q-2.55 -7.35 -2.65 -6.7 L-2.65 -6.5 -2.85 -6.3 -3.0 -6.2 -3.3 -6.4 -3.25 -7.75 -3.2 -7.95 M-7.15 -10.9 L-6.9 -10.9 -6.8 -10.9 -5.75 -9.2 -5.65 -8.9 Q-5.6 -8.45 -6.0 -8.25 -7.3 -8.1 -7.7 -9.55 L-7.85 -10.05 -7.75 -10.35 -7.8 -10.4 -7.4 -10.75 -7.3 -10.9 -7.15 -10.9 M-8.55 -8.95 L-8.45 -8.55 -8.5 -8.35 -8.9 -7.8 -9.0 -7.75 Q-9.25 -7.65 -9.45 -7.9 L-9.3 -8.5 -9.2 -8.6 -9.15 -8.7 -9.15 -8.9 -8.95 -9.05 -8.8 -9.1 -8.65 -9.05 -8.55 -8.95 M-8.2 -6.7 L-7.95 -6.85 -7.85 -6.9 -7.7 -6.8 -7.55 -6.75 Q-7.35 -5.85 -8.05 -5.1 L-8.1 -5.0 Q-8.4 -4.9 -8.55 -5.15 L-8.6 -5.35 -8.6 -5.55 Q-8.2 -6.0 -8.2 -6.6 L-8.2 -6.7 M-6.1 -7.4 L-6.1 -7.5 Q-6.0 -7.7 -5.75 -7.7 L-5.4 -7.55 -5.3 -7.45 -5.45 -7.1 -5.55 -7.05 Q-5.85 -6.95 -6.1 -7.2 L-6.1 -7.4 M-6.55 -3.65 L-7.1 -3.75 -7.1 -4.15 -7.1 -4.35 -6.6 -4.65 -6.35 -4.45 -6.25 -4.4 -6.45 -3.75 -6.55 -3.65 M-7.15 -3.85 Q-7.45 -2.35 -8.9 -1.65 L-9.35 -1.75 -9.65 -2.15 Q-9.8 -2.45 -9.6 -2.75 L-9.65 -2.75 -8.3 -4.1 -8.15 -4.2 -7.9 -4.25 -7.65 -4.3 -7.55 -4.25 -7.4 -4.15 -7.2 -3.95 -7.15 -3.85 M-6.85 -1.75 L-6.75 -1.85 -6.6 -1.9 -6.45 -1.8 -6.3 -1.7 Q-6.2 -1.3 -6.45 -0.9 L-6.55 -0.7 -7.1 -0.85 -6.95 -1.55 -6.85 -1.75 M-1.95 -5.4 L-1.75 -5.55 -0.65 -4.4 -0.6 -4.3 -0.7 -4.1 -0.8 -4.0 Q-1.85 -4.2 -2.1 -5.3 L-1.95 -5.4 M-1.35 -3.25 L-1.25 -3.3 -1.0 -3.35 -0.8 -3.3 -0.7 -3.25 -0.5 -3.1 -0.35 -2.9 Q-0.4 -1.25 -1.6 -0.35 L-1.75 -0.4 -1.95 -0.45 -2.15 -0.55 -2.2 -0.6 -2.35 -1.0 -2.3 -1.6 -1.5 -3.15 -1.35 -3.25 M-4.95 -4.4 L-4.85 -4.5 -4.8 -4.5 -4.65 -4.55 Q-4.0 -4.35 -3.8 -3.75 L-3.8 -3.65 -3.85 -3.55 -3.9 -3.5 -3.95 -3.45 -5.0 -4.1 -5.0 -4.2 -5.0 -4.3 -4.95 -4.4 M-1.6 2.0 L-1.5 2.1 -1.4 2.85 -1.4 3.05 -1.95 3.45 -2.4 3.3 -2.4 3.2 -2.4 3.0 -2.3 2.9 -2.15 2.8 -2.05 2.3 -2.05 2.1 -1.9 2.0 -1.75 1.95 -1.6 2.0 M-3.6 0.2 L-3.65 0.4 -3.75 0.5 -4.5 0.95 -4.95 0.8 -5.0 0.7 -5.0 0.6 -5.0 0.5 -4.1 -0.1 Q-3.85 -0.15 -3.7 0.1 L-3.6 0.2 M-4.65 2.4 L-4.5 2.25 -4.25 2.2 -3.9 2.25 Q-2.65 3.9 -4.45 5.35 L-4.7 5.35 -5.05 5.1 -5.15 4.1 -4.95 2.9 -4.65 2.4 M-5.0 6.0 L-5.0 5.9 -4.95 5.65 -4.8 5.6 -4.65 5.55 -4.5 5.6 -4.4 5.7 -4.3 6.1 -4.35 6.35 -4.55 6.55 -4.65 6.65 -5.1 6.5 -5.15 6.4 -5.15 6.2 -5.05 6.1 -5.0 6.0 M-6.7 3.0 L-6.6 3.05 -6.5 3.1 -6.4 3.85 -6.4 4.05 -6.6 4.25 -6.75 4.3 -7.1 4.15 -7.1 3.5 -8.1 3.7 -8.55 3.7 -9.05 4.0 -9.3 4.1 -9.4 4.1 -9.6 4.0 -9.8 3.9 -9.85 3.8 -9.95 3.7 -10.0 3.55 -10.0 3.4 -10.0 3.3 -9.95 3.1 -9.85 2.8 -9.7 2.55 -9.1 2.3 -8.95 2.1 -8.65 1.95 -8.35 2.15 -8.3 2.2 -6.9 2.5 -6.7 2.8 -6.7 3.0 M-7.75 0.5 L-7.9 0.65 -8.9 0.55 -8.9 0.45 -8.9 0.25 -8.0 -0.1 -7.75 0.1 -7.65 0.2 -7.75 0.5 M-10.0 4.9 L-10.15 5.2 -10.25 5.25 -10.8 5.1 -10.8 4.9 -10.8 4.8 Q-10.7 4.6 -10.45 4.6 L-10.1 4.8 -10.0 4.9 M-8.15 5.9 L-8.05 6.0 -8.65 6.65 -8.95 6.5 -8.95 6.4 -9.0 6.2 -8.4 5.7 -8.15 5.9 M-7.3 7.35 L-7.05 7.25 -6.7 7.3 Q-5.8 8.45 -6.85 9.7 L-7.1 9.75 -7.75 9.65 -7.85 9.55 -8.05 9.2 -7.95 8.45 -7.6 7.7 -7.5 7.45 -7.3 7.35 M-9.1 7.5 L-8.95 7.6 -8.85 7.7 Q-8.7 8.2 -8.8 8.8 L-8.9 9.05 -9.45 8.95 -9.45 7.9 -9.45 7.7 -9.25 7.55 -9.1 7.5 M-6.85 10.95 Q-6.75 11.3 -6.8 11.7 L-6.8 11.9 -6.85 12.0 -6.95 12.1 -6.95 12.4 -7.05 12.6 -7.6 12.55 -7.5 11.2 -7.5 11.0 -7.3 10.85 -7.15 10.8 -7.0 10.85 -6.85 10.95 M-3.0 7.15 L-2.85 7.25 Q-2.75 7.6 -2.8 8.0 L-2.8 8.2 -3.0 8.4 -3.15 8.45 -3.45 8.3 -3.5 7.45 -3.45 7.25 -3.15 7.1 -3.0 7.15 M-3.5 9.8 L-3.55 10.0 -3.75 10.2 -3.85 10.3 -3.9 10.5 -4.0 10.7 -4.55 10.65 Q-4.7 10.1 -4.3 9.7 L-4.2 9.5 -4.0 9.35 -3.85 9.3 -3.7 9.4 -3.6 9.45 -3.5 9.8 M-3.1 10.2 L-3.0 10.15 -2.55 10.15 -2.45 10.2 -2.35 10.25 -2.2 10.45 -2.15 10.6 Q-2.1 12.05 -3.25 12.75 L-3.35 12.75 -3.45 12.75 -3.9 12.4 -4.0 12.25 -4.0 12.1 -4.0 11.8 -3.95 11.6 -3.45 10.55 -3.3 10.3 -3.1 10.2 M-0.95 10.35 L-0.8 10.45 -0.7 10.55 Q-0.35 11.15 -0.4 11.8 L-0.45 11.95 -0.65 12.0 -0.85 11.95 -1.05 11.65 -1.15 11.55 -1.25 10.7 -1.25 10.5 -1.1 10.4 -0.95 10.35 M-11.65 2.15 L-11.0 1.85 Q-10.75 1.85 -10.65 2.0 L-10.55 2.1 -10.6 2.3 -10.7 2.4 -11.15 2.65 -11.6 2.45 -11.65 2.25 -11.65 2.15 M-1.35 13.85 Q-1.0 13.85 -0.75 14.1 L-0.65 14.2 -0.55 14.55 Q-0.4 14.7 -0.5 14.85 L-0.5 14.95 -0.6 15.0 -0.65 15.05 -1.15 15.0 -1.25 14.9 -1.3 14.8 -1.3 14.7 -1.3 14.6 -1.55 14.45 -1.65 14.35 -1.7 14.25 -1.7 14.15 -1.7 14.05 -1.45 13.9 -1.35 13.85 M-3.25 13.65 L-3.2 13.85 -3.45 14.4 -3.5 14.45 -4.2 14.35 -4.2 14.25 -4.2 14.05 -3.9 13.5 -3.85 13.4 -3.7 13.3 -3.55 13.3 -3.4 13.35 -3.3 13.45 -3.25 13.65 M-4.9 12.85 L-4.95 13.05 -5.5 13.3 -5.8 13.1 -5.85 12.9 -5.85 12.7 Q-5.6 12.4 -5.2 12.35 L-5.05 12.45 -4.95 12.5 Q-4.85 12.65 -4.9 12.85" fill="#c57321" fill-rule="evenodd" stroke="none"/>
      <path d="M-6.05 -19.05 L-6.05 -18.75 -6.05 -18.45 -5.0 -15.75 -4.85 -15.15 -4.85 -14.85 -5.1 -14.55 -5.65 -14.55 Q-6.8 -16.95 -7.05 -19.25 L-6.9 -19.45 -6.3 -19.35 -6.05 -19.05 M-8.9 -16.45 L-8.85 -16.5 -8.5 -16.55 -8.3 -16.55 -6.65 -14.15 -6.45 -13.85 -6.9 -13.35 -8.6 -14.7 -8.4 -14.4 -8.1 -14.05 -8.0 -12.85 -8.05 -12.55 -8.45 -11.95 -8.65 -11.75 -9.0 -11.6 -8.85 -11.45 Q-11.1 -6.6 -12.15 -1.5 -12.45 -0.2 -12.35 1.15 -11.95 6.95 -8.85 11.8 L-7.6 13.25 Q-3.15 17.4 2.5 18.65 L2.7 19.25 Q-2.7 19.3 -7.05 15.1 L-10.25 11.95 Q-11.05 11.15 -11.45 10.15 -15.8 0.4 -11.05 -8.9 L-9.85 -11.55 -9.45 -11.7 Q-9.7 -11.8 -9.85 -12.05 L-9.75 -12.3 -9.5 -12.65 -9.45 -14.45 -9.45 -14.75 -8.9 -14.9 -8.7 -14.95 -8.65 -14.8 -8.85 -15.35 -9.05 -15.65 -9.0 -16.25 -8.9 -16.45 M-3.7 -16.95 L-3.5 -16.95 -3.2 -16.65 -2.9 -16.35 -2.8 -15.45 -2.8 -15.15 -2.55 -14.8 -2.4 -14.55 -2.6 -14.0 -2.9 -13.75 -3.45 -13.95 -3.65 -14.55 -3.85 -14.85 -3.85 -15.15 -3.85 -15.45 -4.05 -15.75 -4.25 -16.05 -4.2 -16.35 -4.1 -16.85 -4.05 -16.9 -3.7 -16.95 M-2.5 -17.05 L-1.9 -16.95 -0.8 -15.45 -0.5 -15.15 -0.4 -14.55 -0.4 -13.95 -0.15 -13.6 0.0 -13.35 -0.05 -13.2 0.3 -13.35 0.5 -13.35 Q6.9 -10.5 10.45 -4.35 15.15 3.8 12.55 12.65 11.75 15.35 9.45 17.2 7.95 18.4 6.4 19.0 L6.4 19.25 6.4 19.35 6.25 19.3 Q6.0 19.3 5.75 19.45 L5.4 19.7 5.4 19.35 5.3 19.45 5.05 19.45 2.2 19.55 2.95 19.2 2.75 18.65 2.6 18.35 2.6 17.75 2.7 17.55 2.8 17.5 3.1 17.45 3.3 17.45 3.8 18.25 3.85 18.25 3.9 18.15 4.55 18.25 4.5 17.65 4.7 17.35 5.7 17.45 5.9 17.75 6.1 17.6 Q5.75 17.25 6.05 16.85 L6.3 16.55 7.3 16.65 7.4 16.8 Q14.3 12.35 12.45 4.05 9.95 -7.5 -0.15 -12.9 L-0.2 -12.8 -0.5 -12.55 -1.0 -12.75 -1.05 -13.0 -1.4 -13.65 -1.4 -13.95 -1.4 -14.25 -1.85 -14.8 -2.2 -15.15 -2.75 -16.7 -2.5 -17.05" fill="#000000" fill-rule="evenodd" stroke="none"/>
    </g>
  </defs>
</svg>
