<?xml version="1.0" encoding="UTF-8" standalone="no"?>
<svg xmlns:ffdec="https://www.free-decompiler.com/flash" xmlns:xlink="http://www.w3.org/1999/xlink" ffdec:objectType="frame" height="67.0px" width="95.15px" xmlns="http://www.w3.org/2000/svg">
  <g transform="matrix(1.0, 0.0, 0.0, 1.0, 5.65, 0.0)">
    <use ffdec:characterId="41" height="67.0" transform="matrix(1.0, 0.0, 0.0, 1.0, 0.0, 0.0)" width="85.0" xlink:href="#shape0"/>
    <use ffdec:characterId="27" height="19.65" id="mcRating" transform="matrix(0.5, 0.0, 0.0, 0.5, 33.55, 27.175)" width="88.25" xlink:href="#sprite0"/>
    <use ffdec:characterId="43" height="40.0" id="mcAvatars" transform="matrix(0.55, 0.0, 0.0, 0.55, 5.15, 20.65)" width="50.0" xlink:href="#sprite2"/>
    <use ffdec:characterId="49" height="17.4" id="mcPlay" transform="matrix(1.0, 0.0, 0.0, 1.0, 5.0, 44.0)" width="73.9" xlink:href="#sprite6"/>
    <use ffdec:characterId="50" height="18.4" transform="matrix(1.0, 0.0, 0.0, 1.0, -5.65, 4.0)" width="95.15" xlink:href="#text1"/>
  </g>
  <defs>
    <g id="shape0" transform="matrix(1.0, 0.0, 0.0, 1.0, 0.0, 0.0)">
      <path d="M83.0 56.0 Q83.0 59.7 80.35 62.35 77.7 65.0 74.0 65.0 L11.0 65.0 Q7.25 65.0 4.6 62.35 2.0 59.75 2.0 56.0 L2.0 11.0 Q2.0 7.3 4.6 4.65 L4.65 4.6 Q7.3 2.0 11.0 2.0 L74.0 2.0 Q77.75 2.0 80.35 4.6 83.0 7.25 83.0 11.0 L83.0 56.0 M64.5 2.5 L64.5 64.5 64.5 2.5" fill="#ffffff" fill-rule="evenodd" stroke="none"/>
      <path d="M83.0 56.0 L83.0 11.0 Q83.0 7.25 80.35 4.6 77.75 2.0 74.0 2.0 L11.0 2.0 Q7.3 2.0 4.65 4.6 L4.6 4.65 Q2.0 7.3 2.0 11.0 L2.0 56.0 Q2.0 59.75 4.6 62.35 7.25 65.0 11.0 65.0 L74.0 65.0 Q77.7 65.0 80.35 62.35 83.0 59.7 83.0 56.0 M81.75 3.2 Q85.0 6.45 85.0 11.0 L85.0 56.0 Q85.0 60.55 81.8 63.75 L81.75 63.8 Q78.55 67.0 74.0 67.0 L11.0 67.0 Q6.45 67.0 3.2 63.75 0.0 60.55 0.0 56.0 L0.0 11.0 Q0.0 6.45 3.2 3.2 6.45 0.0 11.0 0.0 L74.0 0.0 Q78.55 0.0 81.75 3.2" fill="#c1d1e0" fill-rule="evenodd" stroke="none"/>
    </g>
    <g id="sprite0" transform="matrix(1.0, 0.0, 0.0, 1.0, 0.9, 1.55)">
      <use ffdec:characterId="23" height="15.8" transform="matrix(1.0, 0.0, 0.0, 1.0, -0.15, 0.0)" width="86.65" xlink:href="#shape1"/>
      <clipPath id="clipPath0">
        <path d="M -0.83 -1.55 L -0.83 18.1 L 17.07 18.1 L 17.07 -1.55 Z"/>
      </clipPath>
      <g clip-path="url(#clipPath0)">
        <use ffdec:characterId="26" height="15.8" transform="matrix(1.0, 0.0, 0.0, 1.0, 0.0, 0.0)" width="86.65" xlink:href="#sprite1"/>
      </g>
    </g>
    <g id="shape1" transform="matrix(1.0, 0.0, 0.0, 1.0, 0.15, 0.0)">
      <path d="M83.3 15.8 L78.15 13.1 73.05 15.8 74.0 10.1 69.85 6.0 75.6 5.2 78.15 0.0 80.75 5.2 86.5 6.0 82.35 10.1 83.3 15.8 M78.15 3.1 L76.5 6.4 72.85 6.95 75.5 9.55 74.85 13.2 78.15 11.45 81.45 13.2 80.8 9.55 83.45 6.95 79.8 6.4 78.15 3.1 M69.0 6.0 L64.85 10.1 65.85 15.8 60.7 13.1 55.55 15.8 56.55 10.1 52.4 6.0 58.15 5.2 60.7 0.0 63.3 5.2 69.0 6.0 M63.45 9.55 L66.1 6.95 62.45 6.4 60.8 3.1 59.15 6.4 55.5 6.95 58.15 9.55 57.5 13.2 60.8 11.45 64.1 13.2 63.45 9.55 M43.2 0.0 L45.8 5.2 51.55 6.0 47.4 10.1 48.35 15.8 43.2 13.1 38.1 15.8 39.05 10.1 34.95 6.0 40.65 5.2 43.2 0.0 M43.25 3.1 L41.6 6.4 37.95 6.95 40.6 9.55 39.95 13.2 43.25 11.45 46.55 13.2 45.9 9.55 48.55 6.95 44.9 6.4 43.25 3.1 M28.35 5.2 L34.05 6.0 29.9 10.1 30.9 15.8 25.75 13.1 20.6 15.8 21.6 10.1 17.45 6.0 23.2 5.2 25.75 0.0 28.35 5.2 M10.8 9.55 L13.45 6.95 9.8 6.4 8.15 3.1 6.5 6.4 2.85 6.95 5.5 9.55 4.85 13.2 8.15 11.45 11.45 13.2 10.8 9.55 M25.75 3.1 L24.1 6.4 20.45 6.95 23.1 9.55 22.45 13.2 25.75 11.45 29.05 13.2 28.4 9.55 31.05 6.95 27.4 6.4 25.75 3.1 M12.3 10.1 L13.3 15.8 8.15 13.1 3.0 15.8 4.0 10.1 -0.15 6.0 5.6 5.2 8.15 0.0 10.75 5.2 16.45 6.0 12.3 10.1" fill="#c1d1e0" fill-rule="evenodd" stroke="none"/>
    </g>
    <g id="sprite1" transform="matrix(1.0, 0.0, 0.0, 1.0, 0.0, 0.0)">
      <use ffdec:characterId="25" height="15.8" transform="matrix(1.0, 0.0, 0.0, 1.0, 0.0, 0.0)" width="86.65" xlink:href="#shape2"/>
    </g>
    <g id="shape2" transform="matrix(1.0, 0.0, 0.0, 1.0, 0.0, 0.0)">
      <path d="M8.3 0.0 L10.9 5.15 16.65 6.0 12.45 10.05 13.45 15.8 8.3 13.05 3.15 15.8 4.15 10.05 0.0 6.0 5.7 5.15 8.3 0.0" fill="#ff9900" fill-rule="evenodd" stroke="none"/>
      <path d="M25.8 0.0 L28.4 5.15 34.15 6.0 29.95 10.05 30.95 15.8 25.8 13.05 Q23.2 14.4 20.65 15.8 L21.65 10.05 17.5 6.0 23.2 5.15 25.8 0.0" fill="#ff9900" fill-rule="evenodd" stroke="none"/>
      <path d="M43.05 0.0 L45.65 5.15 51.4 6.0 47.2 10.05 48.2 15.8 43.05 13.05 37.9 15.8 38.9 10.05 34.75 6.0 40.45 5.15 43.05 0.0" fill="#ff9900" fill-rule="evenodd" stroke="none"/>
      <path d="M60.8 0.0 L63.4 5.15 69.15 6.0 64.95 10.05 65.95 15.8 60.8 13.05 55.65 15.8 56.65 10.05 52.5 6.0 58.2 5.15 60.8 0.0" fill="#ff9900" fill-rule="evenodd" stroke="none"/>
      <path d="M78.3 0.0 L80.9 5.15 86.65 6.0 82.45 10.05 83.45 15.8 78.3 13.05 73.15 15.8 74.15 10.05 70.0 6.0 75.7 5.15 78.3 0.0" fill="#ff9900" fill-rule="evenodd" stroke="none"/>
    </g>
    <g id="sprite2" transform="matrix(1.0, 0.0, 0.0, 1.0, 0.0, 0.0)">
      <use ffdec:characterId="42" height="40.0" transform="matrix(1.0, 0.0, 0.0, 1.0, 0.0, 0.0)" width="50.0" xlink:href="#shape3"/>
      <use ffdec:characterId="4" height="54.5" transform="matrix(0.4986, 0.0, 0.0, 0.4986, 2.0, 7.0)" width="92.3" xlink:href="#shape4"/>
      <use ffdec:characterId="11" height="9.05" transform="matrix(0.3851, -0.0284, 0.0284, 0.3851, 16.2185, 27.6662)" width="34.15" xlink:href="#sprite3"/>
      <use ffdec:characterId="17" height="21.6" transform="matrix(0.4477, -0.0331, 0.0331, 0.4477, 12.9725, 12.0213)" width="39.4" xlink:href="#sprite4"/>
    </g>
    <g id="shape3" transform="matrix(1.0, 0.0, 0.0, 1.0, 0.0, 0.0)">
      <path d="M50.0 0.0 L50.0 40.0 0.0 40.0 0.0 0.0 50.0 0.0" fill="#ffffff" fill-opacity="0.0" fill-rule="evenodd" stroke="none"/>
    </g>
    <g id="shape4" transform="matrix(1.0, 0.0, 0.0, 1.0, 0.0, 0.0)">
      <path d="M73.2 23.15 L73.7 23.85 74.1 24.4 76.3 25.1 76.4 25.15 79.25 26.4 80.95 26.85 85.05 26.55 Q86.5 25.95 88.05 25.5 L88.5 25.3 Q88.85 24.6 89.45 24.15 L89.8 23.85 90.05 23.45 90.45 21.95 90.4 21.65 89.8 14.7 89.75 14.4 89.4 13.8 89.25 13.15 89.15 13.0 88.55 12.45 88.1 11.9 88.05 11.45 86.6 9.15 86.1 8.55 86.0 8.4 85.7 8.25 85.55 8.1 85.55 8.05 85.15 7.9 83.85 7.65 Q80.5 7.4 77.1 7.65 76.2 8.9 74.9 9.8 72.0 11.8 70.7 15.1 L70.55 15.25 70.5 15.25 70.4 15.3 70.4 15.4 70.45 16.2 70.9 17.25 71.9 20.65 72.95 22.8 73.2 23.15 M89.75 8.3 L89.8 8.35 90.15 9.1 90.15 9.2 90.4 9.5 90.5 9.6 90.6 9.95 90.65 10.2 90.8 10.3 91.0 10.45 91.05 10.6 Q91.05 11.5 91.35 12.4 L91.55 13.15 91.75 13.75 91.9 14.35 91.8 14.4 91.9 15.7 92.3 21.5 92.1 23.2 91.95 23.5 91.0 25.95 90.5 26.3 90.4 26.8 90.1 26.95 89.2 27.6 88.75 28.0 Q82.1 30.15 75.3 27.6 L73.3 26.75 72.7 26.25 72.4 25.95 72.35 27.6 Q71.9 37.1 65.1 44.45 L64.6 45.45 Q59.8 51.15 52.45 53.5 L51.45 54.0 37.7 54.5 35.0 54.45 Q24.8 50.6 17.6 42.75 14.25 39.15 13.55 34.7 L12.3 34.75 12.15 33.85 13.4 33.3 Q13.2 30.8 13.8 28.05 L13.85 27.6 13.9 27.4 12.6 27.6 7.75 27.8 7.35 27.6 5.1 26.75 Q3.25 25.7 1.9 24.1 L1.85 23.9 1.3 23.35 1.25 23.1 Q0.65 22.25 0.45 21.2 L0.2 20.0 0.15 18.8 0.0 17.05 0.45 16.4 0.7 15.85 0.8 15.4 2.05 13.7 3.95 12.35 4.3 11.8 5.05 11.5 7.3 10.9 7.4 10.85 7.85 10.8 Q14.35 11.5 19.3 16.55 24.5 8.05 32.75 3.0 L28.85 2.65 28.4 2.35 28.45 1.8 28.8 1.4 29.25 1.2 29.3 1.1 Q43.95 -2.2 56.6 4.2 62.6 7.3 67.15 12.3 L68.15 12.8 69.0 13.3 69.1 13.5 Q69.8 12.45 70.65 11.45 73.05 8.35 76.2 5.8 L76.4 5.65 76.95 5.45 76.95 5.35 Q84.1 3.5 89.15 7.8 L89.75 8.3 M67.9 37.0 L68.2 36.3 70.5 25.15 70.5 24.9 70.55 24.7 70.5 24.3 70.45 23.1 Q70.2 20.35 68.95 17.95 L68.9 17.95 68.75 17.15 68.15 16.15 Q67.0 14.1 65.05 12.85 L64.85 12.45 Q60.85 8.95 56.35 5.95 L56.0 5.55 53.8 4.9 Q45.85 0.9 36.8 2.9 29.5 6.55 24.5 12.75 21.95 15.85 20.0 19.55 L19.05 21.25 18.8 21.7 15.8 26.15 15.75 27.6 15.65 32.0 15.6 32.45 Q17.9 31.7 20.65 31.3 L32.1 29.25 33.65 28.75 42.55 28.15 43.0 28.05 45.25 28.0 45.4 28.0 45.5 28.05 48.15 28.35 48.6 28.45 49.0 28.4 50.3 28.4 50.4 28.5 50.45 28.5 Q52.2 28.4 53.75 29.05 L54.05 29.2 58.0 29.65 Q65.0 30.25 68.3 35.3 L68.1 35.5 67.35 35.7 66.2 35.85 Q65.0 34.65 63.55 33.95 57.05 30.7 49.55 30.85 L49.4 30.7 45.4 30.15 44.3 30.25 42.4 30.35 38.15 30.75 34.2 31.15 31.7 31.55 Q23.65 32.65 15.7 34.35 L15.8 36.65 Q17.25 40.65 20.55 43.2 21.85 44.85 23.7 46.15 L24.1 46.45 24.1 46.5 24.3 46.6 26.95 48.35 27.05 48.4 27.2 48.6 27.6 49.15 Q31.65 50.45 35.35 52.3 L35.6 52.45 Q43.25 53.8 51.1 51.9 L60.25 47.55 Q62.55 46.35 63.15 44.1 L63.65 43.05 63.7 42.95 Q66.25 40.15 67.9 37.0 M41.35 34.4 Q40.55 34.65 40.2 34.05 L40.1 33.75 40.05 33.7 39.7 33.4 Q39.5 32.7 39.95 32.15 40.1 31.9 40.45 31.8 L40.85 31.7 41.5 31.6 Q41.8 31.6 42.05 31.85 42.4 32.15 42.4 32.65 42.5 33.9 41.35 34.4 M16.95 20.65 L17.8 19.2 18.05 18.75 17.85 18.05 17.4 17.6 16.9 17.15 Q14.6 15.05 11.6 14.05 L11.35 13.75 11.3 13.7 9.75 13.45 6.35 13.75 6.2 13.8 Q4.0 14.7 3.1 16.75 L2.95 17.1 2.3 18.15 2.05 18.45 2.1 19.05 2.2 20.2 2.25 21.35 2.55 21.85 5.5 24.7 5.65 25.0 8.0 25.25 8.4 25.25 14.35 24.9 15.6 22.95 16.95 20.65 M4.55 13.1 L4.65 13.0 4.55 13.0 4.55 13.1 M34.85 33.4 Q34.9 32.7 35.55 32.3 L35.65 32.3 35.8 32.25 Q36.9 32.0 37.05 33.05 37.15 33.6 36.75 34.0 35.85 34.9 35.0 33.85 L34.85 33.4" fill="#000000" fill-rule="evenodd" stroke="none"/>
      <path d="M70.7 15.1 Q72.0 11.8 74.9 9.8 76.2 8.9 77.1 7.65 80.5 7.4 83.85 7.65 L85.15 7.9 85.55 8.05 85.55 8.1 85.7 8.25 86.0 8.4 86.1 8.55 86.6 9.15 88.05 11.45 88.1 11.9 88.55 12.45 89.15 13.0 89.25 13.15 89.4 13.8 89.75 14.4 89.8 14.7 90.4 21.65 90.45 21.95 90.05 23.45 89.8 23.85 89.45 24.15 Q88.85 24.6 88.5 25.3 L88.05 25.5 Q86.5 25.95 85.05 26.55 L80.95 26.85 79.25 26.4 76.4 25.15 76.3 25.1 74.1 24.4 73.7 23.85 73.2 23.15 Q76.75 23.95 80.15 21.8 L80.8 21.5 Q81.0 20.8 81.75 20.45 L82.4 19.6 Q82.55 19.1 83.0 18.9 L83.25 18.65 83.3 18.1 Q83.55 17.05 82.95 16.3 L82.6 15.7 82.4 15.5 81.5 14.75 81.2 14.4 80.85 14.3 Q79.95 13.9 79.25 13.3 75.9 12.7 73.25 14.95 L73.1 15.05 73.05 15.2 73.0 15.4 72.85 15.45 Q72.15 15.8 71.65 16.35 L71.4 16.55 71.35 16.7 71.25 17.0 71.1 17.1 70.9 17.25 70.45 16.2 70.4 15.4 70.4 15.3 70.5 15.25 70.55 15.25 Q70.6 15.15 70.7 15.15 L70.7 15.1 M85.05 15.85 L85.3 16.3 84.85 15.25 84.95 15.55 85.05 15.85 M19.05 21.25 L20.0 19.55 Q21.95 15.85 24.5 12.75 29.5 6.55 36.8 2.9 45.85 0.9 53.8 4.9 L56.0 5.55 56.35 5.95 Q60.85 8.95 64.85 12.45 L65.05 12.85 Q67.0 14.1 68.15 16.15 L68.75 17.15 68.9 17.95 68.95 17.95 Q70.2 20.35 70.45 23.1 L70.5 24.3 70.55 24.7 70.5 24.9 70.5 25.15 68.2 36.3 67.9 37.0 67.8 36.7 67.35 35.7 68.1 35.5 68.3 35.3 Q65.0 30.25 58.0 29.65 L54.05 29.2 53.75 29.05 Q52.2 28.4 50.45 28.5 L50.4 28.5 50.3 28.4 49.0 28.4 48.6 28.45 48.15 28.35 45.5 28.05 45.4 28.0 45.25 28.0 43.0 28.05 42.55 28.15 33.65 28.75 32.1 29.25 20.65 31.3 Q17.9 31.7 15.6 32.45 L15.65 32.0 15.75 27.6 15.8 26.15 18.8 21.7 19.05 21.35 19.05 21.25 M15.6 22.95 L14.35 24.9 8.4 25.25 8.0 25.25 5.65 25.0 5.5 24.7 2.55 21.85 2.25 21.35 2.2 20.2 2.1 19.05 2.05 18.45 2.3 18.15 2.95 17.1 3.1 16.75 Q4.0 14.7 6.2 13.8 L6.35 13.75 9.75 13.45 11.3 13.7 11.35 13.75 11.6 14.05 Q14.6 15.05 16.9 17.15 L17.4 17.6 17.85 18.05 18.05 18.75 17.8 19.2 16.95 20.65 15.7 19.05 Q14.3 17.4 12.3 16.55 9.05 16.1 7.05 18.3 L7.0 18.65 Q6.75 18.95 6.65 19.45 L6.5 19.65 6.4 19.8 6.4 20.4 6.4 20.5 7.05 22.25 Q7.95 22.6 8.55 23.35 10.55 24.65 12.95 23.8 L15.05 23.1 15.6 22.95" fill="#95632d" fill-rule="evenodd" stroke="none"/>
      <path d="M70.9 17.25 L71.1 17.1 71.25 17.0 71.35 16.7 71.4 16.55 71.65 16.35 Q72.15 15.8 72.85 15.45 L73.0 15.4 73.05 15.2 73.1 15.05 73.25 14.95 Q75.9 12.7 79.25 13.3 79.95 13.9 80.85 14.3 L81.2 14.4 81.5 14.75 82.4 15.5 82.6 15.7 82.95 16.3 Q83.55 17.05 83.3 18.1 L83.25 18.65 83.0 18.9 Q82.55 19.1 82.4 19.6 L81.75 20.45 Q81.0 20.8 80.8 21.5 L80.15 21.8 Q76.75 23.95 73.2 23.15 L72.95 22.8 71.9 20.65 70.9 17.25 M85.05 15.85 L84.95 15.55 84.85 15.25 85.3 16.3 85.05 15.85 M19.05 21.25 L19.05 21.35 18.8 21.7 19.05 21.25 M67.35 35.7 L67.8 36.7 67.9 37.0 Q66.25 40.15 63.7 42.95 L63.65 43.05 63.15 44.1 Q62.55 46.35 60.25 47.55 L51.1 51.9 Q43.25 53.8 35.6 52.45 L35.35 52.3 Q31.65 50.45 27.6 49.15 L27.2 48.6 27.05 48.4 26.95 48.35 24.3 46.6 24.1 46.5 24.1 46.45 23.7 46.15 Q21.85 44.85 20.55 43.2 17.25 40.65 15.8 36.65 L15.7 34.35 Q23.65 32.65 31.7 31.55 L34.2 31.15 38.15 30.75 42.4 30.35 44.3 30.25 45.4 30.15 49.4 30.7 49.55 30.85 Q57.05 30.7 63.55 33.95 65.0 34.65 66.2 35.85 L67.35 35.7 M41.35 34.4 Q42.5 33.9 42.4 32.65 42.4 32.15 42.05 31.85 41.8 31.6 41.5 31.6 L40.85 31.7 40.45 31.8 Q40.1 31.9 39.95 32.15 39.5 32.7 39.7 33.4 L40.05 33.7 40.1 33.75 40.2 34.05 Q40.55 34.65 41.35 34.4 M15.6 22.95 L15.05 23.1 12.95 23.8 Q10.55 24.65 8.55 23.35 7.95 22.6 7.05 22.25 L6.4 20.5 6.4 20.4 6.4 19.8 6.5 19.65 6.65 19.45 Q6.75 18.95 7.0 18.65 L7.05 18.3 Q9.05 16.1 12.3 16.55 14.3 17.4 15.7 19.05 L16.95 20.65 15.6 22.95 M34.85 33.4 L35.0 33.85 Q35.85 34.9 36.75 34.0 37.15 33.6 37.05 33.05 36.9 32.0 35.8 32.25 L35.65 32.3 35.55 32.3 Q34.9 32.7 34.85 33.4" fill="#d79e4a" fill-rule="evenodd" stroke="none"/>
    </g>
    <g id="sprite3" transform="matrix(1.0, 0.0, 0.0, 1.0, 16.2, 5.05)">
      <use ffdec:characterId="5" height="4.5" transform="matrix(1.0, 0.0, 0.0, 1.0, -7.65, -2.25)" width="15.3" xlink:href="#shape5"/>
    </g>
    <g id="shape5" transform="matrix(1.0, 0.0, 0.0, 1.0, 7.65, 2.25)">
      <path d="M7.6 -0.15 L7.6 0.5 Q0.1 3.55 -7.65 1.25 L-7.5 0.6 -6.9 -0.25 -6.15 -1.0 Q-1.9 -0.55 0.6 -2.25 L3.85 -1.55 7.1 -1.0 7.6 -0.15" fill="#000000" fill-rule="evenodd" stroke="none"/>
    </g>
    <g id="sprite4" transform="matrix(1.0, 0.0, 0.0, 1.0, 23.5, 12.3)">
      <use ffdec:characterId="12" height="17.25" transform="matrix(1.0, 0.0, 0.0, 1.0, -21.25, -10.1)" width="34.95" xlink:href="#shape6"/>
      <use ffdec:characterId="14" height="7.8" transform="matrix(1.0, 0.0, 0.0, 1.0, -16.85, -2.6)" width="25.55" xlink:href="#sprite5"/>
      <use ffdec:characterId="15" height="21.6" transform="matrix(1.0, 0.0, 0.0, 1.0, -23.5, -12.3)" width="39.4" xlink:href="#shape8"/>
    </g>
    <g id="shape6" transform="matrix(1.0, 0.0, 0.0, 1.0, 21.25, 10.1)">
      <path d="M5.7 -3.5 L6.05 -3.65 Q8.4 -4.15 10.45 -3.25 14.2 -1.65 13.65 2.6 13.55 3.45 13.05 4.05 L13.0 4.05 Q12.15 5.5 9.65 5.75 4.25 6.25 1.75 1.95 L1.6 1.85 1.5 1.45 1.45 1.4 1.4 0.8 1.4 -0.35 Q1.6 -1.85 3.15 -2.45 L5.7 -3.5" fill="#ffffff" fill-rule="evenodd" stroke="none"/>
      <path d="M-20.35 -6.45 L-19.75 -7.25 Q-16.65 -9.65 -12.7 -9.9 -7.05 -10.85 -3.5 -6.9 -0.55 -3.6 -1.1 0.95 -1.35 3.2 -3.25 4.65 -5.15 6.2 -7.5 6.7 L-12.95 7.15 -14.6 6.7 Q-15.35 6.3 -16.15 6.0 -17.95 5.4 -18.85 3.85 -20.95 2.45 -21.2 -0.1 -21.5 -3.5 -20.35 -6.45" fill="#ffffff" fill-rule="evenodd" stroke="none"/>
    </g>
    <g id="sprite5" transform="matrix(1.0, 0.0, 0.0, 1.0, 2.75, 0.0)">
      <use ffdec:characterId="13" height="5.35" transform="matrix(1.0, 0.0, 0.0, 1.0, 0.0, 0.0)" width="22.8" xlink:href="#shape7"/>
    </g>
    <g id="shape7" transform="matrix(1.0, 0.0, 0.0, 1.0, 2.75, -2.45)">
      <path d="M20.05 6.1 Q20.1 6.9 19.55 7.35 L18.6 7.8 18.5 7.8 17.9 7.65 17.35 7.5 16.75 6.95 Q16.25 6.45 16.35 5.8 L16.4 5.75 16.5 5.45 17.2 4.75 17.55 4.7 Q18.9 4.3 19.7 5.2 20.05 5.55 20.05 6.1" fill="#000000" fill-rule="evenodd" stroke="none"/>
      <path d="M1.1 3.95 Q1.3 5.05 0.7 5.9 0.5 6.25 0.0 6.3 -2.4 6.65 -2.7 4.4 -2.9 3.0 -1.65 2.55 -0.55 2.3 0.25 2.8 0.9 3.25 1.1 3.95" fill="#000000" fill-rule="evenodd" stroke="none"/>
    </g>
    <g id="shape8" transform="matrix(1.0, 0.0, 0.0, 1.0, 23.5, 12.3)">
      <path d="M1.4 -3.5 L1.95 -3.95 Q3.6 -5.2 5.4 -5.65 L5.45 -5.75 10.95 -5.5 11.45 -4.7 11.5 -4.6 11.9 -4.5 11.95 -4.5 12.1 -4.4 12.9 -3.85 Q15.7 -1.75 15.9 1.25 L15.65 2.75 15.55 3.1 12.35 6.85 Q11.8 6.95 11.35 7.3 L8.15 7.3 3.75 6.35 2.35 5.85 2.05 5.65 -0.15 2.7 -0.2 2.05 -0.25 0.25 -0.1 -1.4 -0.05 -1.75 1.1 -3.5 1.4 -3.5 M3.15 -2.45 Q1.6 -1.85 1.4 -0.35 L1.4 0.8 1.45 1.4 1.5 1.45 1.6 1.85 1.75 1.95 Q4.25 6.25 9.65 5.75 12.15 5.5 13.0 4.05 L13.05 4.05 Q13.55 3.45 13.65 2.6 14.2 -1.65 10.45 -3.25 8.4 -4.15 6.05 -3.65 L5.7 -3.5 3.15 -2.45" fill="#000000" fill-rule="evenodd" stroke="none"/>
      <path d="M0.85 -1.4 L0.85 1.3 0.9 1.5 Q0.15 3.1 -0.35 4.8 L-1.85 6.1 -2.9 7.0 Q-5.4 8.6 -8.3 9.25 L-8.35 9.3 -17.8 8.0 -18.55 7.25 -21.55 4.25 -22.3 3.5 -22.3 2.95 Q-23.65 1.2 -23.5 -1.2 L-23.15 -4.4 -22.75 -6.1 -22.3 -6.6 -22.3 -7.0 -21.2 -8.55 -19.65 -9.75 Q-16.8 -11.35 -14.05 -12.25 -4.75 -13.0 -0.3 -5.45 -0.2 -4.75 0.35 -4.0 L0.85 -1.4 M-20.35 -6.45 Q-21.5 -3.5 -21.2 -0.1 -20.95 2.45 -18.85 3.85 -17.95 5.4 -16.15 6.0 -15.35 6.3 -14.6 6.7 L-12.95 7.15 -7.5 6.7 Q-5.15 6.2 -3.25 4.65 -1.35 3.2 -1.1 0.95 -0.55 -3.6 -3.5 -6.9 -7.05 -10.85 -12.7 -9.9 -16.65 -9.65 -19.75 -7.25 L-20.35 -6.45" fill="#000000" fill-rule="evenodd" stroke="none"/>
    </g>
    <g id="sprite6" transform="matrix(1.0, 0.0, 0.0, 1.0, 0.0, 0.0)">
      <use ffdec:characterId="47" height="17.4" transform="matrix(1.0, 0.0, 0.0, 1.0, 0.0, 0.0)" width="73.9" xlink:href="#button0"/>
    </g>
    <g id="button0" transform="matrix(1.0, 0.0, 0.0, 1.0, 0.0, 0.0)">
      <use ffdec:characterId="44" height="17.4" transform="matrix(1.0, 0.0, 0.0, 1.0, 0.0, 0.0)" width="73.9" xlink:href="#shape9"/>
      <use ffdec:characterId="45" height="7.95" transform="matrix(0.9999, 0.0, 0.0, 1.0, 23.5516, 4.85)" width="30.25" xlink:href="#text0"/>
      <use ffdec:characterId="46" height="13.5" transform="matrix(1.0, 0.0, 0.0, 1.0, 1.6, 2.0)" width="70.6" xlink:href="#shape10"/>
    </g>
    <g id="shape9" transform="matrix(1.0, 0.0, 0.0, 1.0, 0.0, 0.0)">
      <path d="M73.9 6.0 L73.9 11.4 Q73.85 13.9 72.15 15.65 70.35 17.4 67.9 17.4 L5.95 17.4 Q3.45 17.4 1.7 15.65 0.3 14.25 0.0 12.4 L0.0 5.0 Q0.3 3.15 1.7 1.75 3.45 0.0 5.95 0.0 L67.9 0.0 Q70.35 0.0 72.15 1.75 73.85 3.5 73.9 6.0" fill="url(#gradient0)" fill-rule="evenodd" stroke="none"/>
    </g>
    <linearGradient gradientTransform="matrix(0.0, -0.0108, 0.0106, 0.0, 36.95, 8.7)" gradientUnits="userSpaceOnUse" id="gradient0" spreadMethod="pad" x1="-819.2" x2="819.2">
      <stop offset="0.0" stop-color="#ff9900"/>
      <stop offset="1.0" stop-color="#feb356"/>
    </linearGradient>
    <g id="text0" transform="matrix(1.0, 0.0, 0.0, 1.0, 11.5, -2.75)">
      <g transform="matrix(1.0, 0.0, 0.0, 1.0, -12.3, 0.0)">
        <use fill="#ffffff" height="7.95" transform="matrix(0.2148, 0.0, 0.0, 0.2148, 0.0, 11.0)" width="30.25" xlink:href="#font_TradeGothic_Bold_P0"/>
        <use fill="#ffffff" height="7.95" transform="matrix(0.2148, 0.0, 0.0, 0.2148, 6.1, 11.0)" width="30.25" xlink:href="#font_TradeGothic_Bold_L0"/>
        <use fill="#ffffff" height="7.95" transform="matrix(0.2148, 0.0, 0.0, 0.2148, 11.0, 11.0)" width="30.25" xlink:href="#font_TradeGothic_Bold_A0"/>
        <use fill="#ffffff" height="7.95" transform="matrix(0.2148, 0.0, 0.0, 0.2148, 17.1, 11.0)" width="30.25" xlink:href="#font_TradeGothic_Bold_Y0"/>
        <use fill="#ffffff" height="7.95" transform="matrix(0.2148, 0.0, 0.0, 0.2148, 23.2, 11.0)" width="30.25" xlink:href="#font_TradeGothic_Bold__0"/>
      </g>
    </g>
    <g id="font_TradeGothic_Bold_P0">
      <path d="M10.65 -31.15 L10.65 -20.65 14.45 -20.65 Q19.65 -20.65 19.65 -25.9 19.65 -31.15 14.45 -31.15 L10.65 -31.15 M10.65 0.0 L3.6 0.0 3.6 -36.95 13.8 -36.95 Q20.3 -36.9 23.5 -34.05 26.75 -31.15 26.75 -25.9 26.75 -20.65 23.5 -17.75 20.3 -14.9 13.8 -14.85 L10.65 -14.85 10.65 0.0" fill-rule="evenodd" stroke="none"/>
    </g>
    <g id="font_TradeGothic_Bold_L0">
      <path d="M21.65 0.0 L3.2 0.0 3.2 -36.95 10.25 -36.95 10.25 -6.25 21.65 -6.25 21.65 0.0" fill-rule="evenodd" stroke="none"/>
    </g>
    <g id="font_TradeGothic_Bold_A0">
      <path d="M7.5 0.0 L0.7 0.0 9.85 -36.95 18.9 -36.95 27.8 0.0 21.05 0.0 19.25 -7.75 9.5 -7.75 7.5 0.0 M14.25 -29.0 L10.75 -14.0 17.8 -14.0 14.35 -29.0 14.25 -29.0" fill-rule="evenodd" stroke="none"/>
    </g>
    <g id="font_TradeGothic_Bold_Y0">
      <path d="M8.15 -36.95 L14.35 -22.05 20.35 -36.95 27.85 -36.95 17.8 -14.95 17.8 0.0 10.7 0.0 10.7 -14.95 0.65 -36.95 8.15 -36.95" fill-rule="evenodd" stroke="none"/>
    </g>
    <g id="font_TradeGothic_Bold__0">
      <path d="M10.75 0.0 L3.5 0.0 3.5 -7.25 10.75 -7.25 10.75 0.0 M10.85 -36.95 L9.45 -12.5 4.8 -12.5 3.4 -36.95 10.85 -36.95" fill-rule="evenodd" stroke="none"/>
    </g>
    <g id="shape10" transform="matrix(1.0, 0.0, 0.0, 1.0, -1.6, -2.0)">
      <path d="M68.7 3.0 L5.15 3.0 Q4.3 3.0 3.65 3.5 L3.4 3.7 3.35 3.75 Q2.65 4.45 2.65 5.5 L2.65 9.95 2.6 9.95 2.6 12.0 Q2.6 13.05 3.35 13.8 4.05 14.5 5.1 14.5 L68.65 14.5 70.15 14.05 70.45 13.8 Q71.15 13.05 71.15 12.0 L71.15 6.35 71.2 6.35 71.2 5.5 Q71.2 4.45 70.45 3.7 69.75 3.0 68.7 3.0 M71.15 3.0 Q72.2 4.05 72.2 5.5 L72.2 9.95 72.15 9.95 72.15 12.0 Q72.15 13.45 71.2 14.5 L71.15 14.55 70.15 15.2 68.65 15.5 5.1 15.5 Q3.65 15.5 2.65 14.5 1.6 13.45 1.6 12.0 L1.6 6.35 1.65 6.35 1.65 5.5 Q1.65 4.05 2.65 3.0 L3.65 2.3 Q4.35 2.0 5.15 2.0 L68.7 2.0 Q70.15 2.0 71.15 3.0" fill="url(#gradient1)" fill-rule="evenodd" stroke="none"/>
    </g>
    <linearGradient gradientTransform="matrix(-0.0016, -0.013, 0.0082, -0.001, 36.9, 8.75)" gradientUnits="userSpaceOnUse" id="gradient1" spreadMethod="pad" x1="-819.2" x2="819.2">
      <stop offset="0.0" stop-color="#000000" stop-opacity="0.2509804"/>
      <stop offset="0.596078431372549" stop-color="#ffffff" stop-opacity="0.5019608"/>
    </linearGradient>
    <g id="text1" transform="matrix(1.0, 0.0, 0.0, 1.0, -22.35, 2.0)">
      <g transform="matrix(1.0, 0.0, 0.0, 1.0, 22.35, -2.0)">
        <use fill="#003366" height="18.4" transform="matrix(0.2148, 0.0, 0.0, 0.2148, 40.55, 12.7)" width="95.15" xlink:href="#font_TradeGothic_Bold_n0"/>
        <use fill="#003366" height="18.4" transform="matrix(0.2148, 0.0, 0.0, 0.2148, 46.05, 12.7)" width="95.15" xlink:href="#font_TradeGothic_Bold__1"/>
        <use fill="#003366" height="18.4" transform="matrix(0.2148, 0.0, 0.0, 0.2148, 49.1, 12.7)" width="95.15" xlink:href="#font_TradeGothic_Bold_a0"/>
      </g>
    </g>
    <g id="font_TradeGothic_Bold_n0">
      <path d="M9.55 0.0 L3.1 0.0 3.1 -27.85 9.35 -27.85 9.35 -24.65 Q11.1 -26.25 12.85 -27.25 14.55 -28.3 16.55 -28.35 19.5 -28.35 21.0 -26.7 22.55 -25.0 22.55 -21.15 L22.55 0.0 16.1 0.0 16.1 -20.45 Q16.1 -21.85 15.55 -22.65 15.0 -23.5 13.75 -23.5 12.75 -23.45 11.65 -22.7 L9.55 -21.0 9.55 0.0" fill-rule="evenodd" stroke="none"/>
    </g>
    <g id="font_TradeGothic_Bold__1">
      <path d="M17.2 -37.45 L3.3 0.5 -2.95 0.5 10.95 -37.45 17.2 -37.45" fill-rule="evenodd" stroke="none"/>
    </g>
    <g id="font_TradeGothic_Bold_a0">
      <path d="M15.85 -6.85 L15.85 -13.65 12.15 -12.0 Q10.4 -11.1 9.25 -9.9 8.15 -8.7 8.1 -7.25 8.15 -5.85 8.9 -5.1 9.65 -4.3 11.0 -4.3 12.4 -4.3 13.55 -5.0 14.7 -5.7 15.85 -6.85 M8.9 -19.7 L2.45 -19.7 Q2.75 -22.75 4.2 -24.7 5.65 -26.6 7.95 -27.45 10.2 -28.35 12.8 -28.35 17.9 -28.25 20.1 -26.0 22.35 -23.7 22.3 -19.9 L22.3 -2.25 22.4 -1.1 22.65 0.0 16.2 0.0 16.0 -1.2 15.75 -2.7 Q14.3 -1.25 12.4 -0.4 10.5 0.5 8.05 0.5 5.1 0.5 3.4 -1.15 1.7 -2.8 1.65 -6.15 1.7 -9.35 3.55 -11.5 5.4 -13.65 8.6 -15.1 11.8 -16.6 15.85 -17.75 L15.85 -19.8 Q15.8 -21.55 14.85 -22.35 13.9 -23.15 12.5 -23.1 11.0 -23.1 10.0 -22.15 8.95 -21.2 8.9 -19.7" fill-rule="evenodd" stroke="none"/>
    </g>
  </defs>
</svg>
