<?xml version="1.0" encoding="UTF-8" standalone="no"?>
<svg xmlns:ffdec="https://www.free-decompiler.com/flash" xmlns:xlink="http://www.w3.org/1999/xlink" ffdec:objectType="frame" height="55.0px" width="182.4px" xmlns="http://www.w3.org/2000/svg">
  <g transform="matrix(1.0, 0.0, 0.0, 1.0, 91.2, 38.5)">
    <use ffdec:characterId="531" height="55.0" transform="matrix(1.0, 0.0, 0.0, 1.0, -91.2, -38.5)" width="182.4" xlink:href="#shape0"/>
    <use ffdec:characterId="532" height="18.7" id="txtSpeak" transform="matrix(1.0, 0.0, 0.0, 1.0, -82.45, -9.5)" width="166.45" xlink:href="#text0"/>
    <use ffdec:characterId="533" height="10.9" transform="matrix(1.0, 0.0, 0.0, 1.0, -76.6, -31.4)" width="157.4" xlink:href="#text1"/>
    <use ffdec:characterId="534" height="2.0" transform="matrix(1.0, 0.0, 0.0, 1.0, -78.6, -18.9)" width="157.0" xlink:href="#shape1"/>
  </g>
  <defs>
    <g id="shape0" transform="matrix(1.0, 0.0, 0.0, 1.0, 91.2, 29.5)">
      <path d="M83.7 -28.0 Q86.2 -28.0 87.95 -26.25 89.7 -24.5 89.7 -22.0 L89.7 18.0 Q89.7 20.5 87.95 22.25 86.2 24.0 83.7 24.0 L-83.7 24.0 Q-86.2 24.0 -87.95 22.25 -89.7 20.5 -89.7 18.0 L-89.7 -22.0 Q-89.7 -24.5 -87.95 -26.25 -86.2 -28.0 -83.7 -28.0 L83.7 -28.0" fill="#ffffff" fill-rule="evenodd" stroke="none"/>
      <path d="M83.7 -28.0 L-83.7 -28.0 Q-86.2 -28.0 -87.95 -26.25 -89.7 -24.5 -89.7 -22.0 L-89.7 18.0 Q-89.7 20.5 -87.95 22.25 -86.2 24.0 -83.7 24.0 L83.7 24.0 Q86.2 24.0 87.95 22.25 89.7 20.5 89.7 18.0 L89.7 -22.0 Q89.7 -24.5 87.95 -26.25 86.2 -28.0 83.7 -28.0 M89.0 -27.3 Q91.2 -25.1 91.2 -22.0 L91.2 18.0 Q91.2 21.1 89.0 23.3 86.8 25.5 83.7 25.5 L-83.7 25.5 Q-86.8 25.5 -89.0 23.3 -91.2 21.1 -91.2 18.0 L-91.2 -22.0 Q-91.2 -25.1 -89.0 -27.3 -86.8 -29.5 -83.7 -29.5 L83.7 -29.5 Q86.8 -29.5 89.0 -27.3" fill="#003366" fill-opacity="0.2" fill-rule="evenodd" stroke="none"/>
    </g>
    <g id="text1" transform="matrix(1.0, 0.0, 0.0, 1.0, -7.35, -2.5)">
      <g transform="matrix(1.0, 0.0, 0.0, 1.0, 0.0, 0.0)">
        <use fill="#66cc00" height="10.9" transform="matrix(0.2148, 0.0, 0.0, 0.2148, 7.0, 11.0)" width="157.4" xlink:href="#font_VAGRounded_BT_M0"/>
        <use fill="#66cc00" height="10.9" transform="matrix(0.2148, 0.0, 0.0, 0.2148, 16.5, 11.0)" width="157.4" xlink:href="#font_VAGRounded_BT_e0"/>
        <use fill="#66cc00" height="10.9" transform="matrix(0.2148, 0.0, 0.0, 0.2148, 22.65, 11.0)" width="157.4" xlink:href="#font_VAGRounded_BT_s0"/>
        <use fill="#66cc00" height="10.9" transform="matrix(0.2148, 0.0, 0.0, 0.2148, 27.45, 11.0)" width="157.4" xlink:href="#font_VAGRounded_BT_s0"/>
        <use fill="#66cc00" height="10.9" transform="matrix(0.2148, 0.0, 0.0, 0.2148, 32.25, 11.0)" width="157.4" xlink:href="#font_VAGRounded_BT_a0"/>
        <use fill="#66cc00" height="10.9" transform="matrix(0.2148, 0.0, 0.0, 0.2148, 38.85, 11.0)" width="157.4" xlink:href="#font_VAGRounded_BT_g0"/>
        <use fill="#66cc00" height="10.9" transform="matrix(0.2148, 0.0, 0.0, 0.2148, 45.4, 11.0)" width="157.4" xlink:href="#font_VAGRounded_BT_e0"/>
        <use fill="#66cc00" height="10.9" transform="matrix(0.2148, 0.0, 0.0, 0.2148, 55.1, 11.0)" width="157.4" xlink:href="#font_VAGRounded_BT_t0"/>
        <use fill="#66cc00" height="10.9" transform="matrix(0.2148, 0.0, 0.0, 0.2148, 58.75, 11.0)" width="157.4" xlink:href="#font_VAGRounded_BT_o0"/>
        <use fill="#66cc00" height="10.9" transform="matrix(0.2148, 0.0, 0.0, 0.2148, 68.7, 11.0)" width="157.4" xlink:href="#font_VAGRounded_BT_t0"/>
        <use fill="#66cc00" height="10.9" transform="matrix(0.2148, 0.0, 0.0, 0.2148, 72.35, 11.0)" width="157.4" xlink:href="#font_VAGRounded_BT_h0"/>
        <use fill="#66cc00" height="10.9" transform="matrix(0.2148, 0.0, 0.0, 0.2148, 78.85, 11.0)" width="157.4" xlink:href="#font_VAGRounded_BT_e0"/>
        <use fill="#66cc00" height="10.9" transform="matrix(0.2148, 0.0, 0.0, 0.2148, 88.55, 11.0)" width="157.4" xlink:href="#font_VAGRounded_BT_o0"/>
        <use fill="#66cc00" height="10.9" transform="matrix(0.2148, 0.0, 0.0, 0.2148, 94.95, 11.0)" width="157.4" xlink:href="#font_VAGRounded_BT_t0"/>
        <use fill="#66cc00" height="10.9" transform="matrix(0.2148, 0.0, 0.0, 0.2148, 98.6, 11.0)" width="157.4" xlink:href="#font_VAGRounded_BT_h0"/>
        <use fill="#66cc00" height="10.9" transform="matrix(0.2148, 0.0, 0.0, 0.2148, 105.1, 11.0)" width="157.4" xlink:href="#font_VAGRounded_BT_e0"/>
        <use fill="#66cc00" height="10.9" transform="matrix(0.2148, 0.0, 0.0, 0.2148, 111.25, 11.0)" width="157.4" xlink:href="#font_VAGRounded_BT_r0"/>
        <use fill="#66cc00" height="10.9" transform="matrix(0.2148, 0.0, 0.0, 0.2148, 119.0, 11.0)" width="157.4" xlink:href="#font_VAGRounded_BT_M0"/>
        <use fill="#66cc00" height="10.9" transform="matrix(0.2148, 0.0, 0.0, 0.2148, 128.5, 11.0)" width="157.4" xlink:href="#font_VAGRounded_BT_o0"/>
        <use fill="#66cc00" height="10.9" transform="matrix(0.2148, 0.0, 0.0, 0.2148, 134.9, 11.0)" width="157.4" xlink:href="#font_VAGRounded_BT_n0"/>
        <use fill="#66cc00" height="10.9" transform="matrix(0.2148, 0.0, 0.0, 0.2148, 141.4, 11.0)" width="157.4" xlink:href="#font_VAGRounded_BT_k0"/>
        <use fill="#66cc00" height="10.9" transform="matrix(0.2148, 0.0, 0.0, 0.2148, 147.05, 11.0)" width="157.4" xlink:href="#font_VAGRounded_BT_e0"/>
        <use fill="#66cc00" height="10.9" transform="matrix(0.2148, 0.0, 0.0, 0.2148, 153.2, 11.0)" width="157.4" xlink:href="#font_VAGRounded_BT_y0"/>
      </g>
    </g>
    <g id="font_VAGRounded_BT_M0">
      <path d="M1.1 -6.35 L1.1 -6.35 0.85 -4.95 0.8 -3.85 Q0.8 -1.85 1.9 -0.65 3.0 0.5 4.85 0.5 6.7 0.5 7.75 -0.75 8.8 -2.05 9.2 -4.85 L12.05 -26.1 17.4 -3.65 Q18.0 -1.4 19.1 -0.45 20.2 0.5 22.3 0.5 L24.45 0.2 Q25.25 -0.15 25.75 -0.95 26.55 -2.25 28.05 -7.65 L32.5 -26.1 35.15 -4.35 Q35.45 -1.9 36.45 -0.7 37.5 0.5 39.25 0.5 41.15 0.5 42.3 -0.65 43.45 -1.85 43.45 -3.85 L43.4 -4.75 43.25 -5.8 39.2 -30.85 Q38.65 -34.1 37.3 -35.45 35.9 -36.85 33.35 -36.85 31.1 -36.85 29.65 -35.65 28.25 -34.4 27.65 -32.0 L22.5 -10.2 16.95 -31.95 Q16.35 -34.4 14.9 -35.65 13.5 -36.85 11.15 -36.85 8.7 -36.85 7.4 -35.55 6.1 -34.25 5.55 -31.15 L1.1 -6.35" fill-rule="evenodd" stroke="none"/>
    </g>
    <g id="font_VAGRounded_BT_e0">
      <path d="M9.5 -11.35 L23.9 -11.35 Q26.25 -11.35 27.1 -12.1 27.9 -12.8 27.9 -14.65 27.9 -20.25 24.15 -24.1 20.35 -28.0 14.75 -28.0 8.95 -28.0 5.1 -23.85 1.2 -19.75 1.2 -13.55 1.2 -7.4 5.2 -3.35 9.2 0.75 15.15 0.75 20.05 0.75 23.7 -1.35 27.3 -3.45 27.3 -6.05 27.3 -7.4 26.4 -8.3 25.5 -9.15 24.1 -9.15 23.45 -9.15 20.65 -7.85 17.85 -6.55 15.6 -6.55 12.95 -6.55 11.35 -7.8 9.75 -9.1 9.5 -11.35 M9.4 -16.65 L9.4 -16.65 Q9.8 -18.85 11.3 -20.15 12.75 -21.45 14.8 -21.45 16.9 -21.45 18.4 -20.05 19.9 -18.7 20.05 -16.65 L9.4 -16.65" fill-rule="evenodd" stroke="none"/>
    </g>
    <g id="font_VAGRounded_BT_s0">
      <path d="M10.5 0.8 L10.5 0.8 Q15.25 0.8 18.35 -1.85 21.4 -4.5 21.4 -8.45 21.4 -11.0 19.9 -12.8 18.35 -14.65 14.7 -16.25 L12.35 -17.25 Q9.15 -18.45 9.15 -19.6 9.15 -20.2 9.65 -20.6 10.15 -21.0 10.95 -21.0 12.1 -21.0 14.35 -20.0 16.55 -19.05 17.45 -19.05 18.85 -19.05 19.85 -20.0 20.8 -21.0 20.8 -22.4 20.8 -24.7 18.05 -26.35 15.3 -28.05 11.35 -28.05 6.95 -28.05 4.1 -25.55 1.25 -23.05 1.25 -19.35 1.25 -16.55 2.85 -14.75 4.5 -12.95 8.95 -11.1 L9.45 -10.9 Q13.3 -9.35 13.3 -8.15 13.3 -7.45 12.7 -6.95 12.05 -6.5 11.05 -6.5 9.8 -6.5 7.35 -7.65 4.85 -8.85 3.6 -8.85 2.3 -8.85 1.4 -7.8 0.5 -6.75 0.5 -5.2 0.5 -2.65 3.35 -0.95 6.2 0.8 10.5 0.8" fill-rule="evenodd" stroke="none"/>
    </g>
    <g id="font_VAGRounded_BT_a0">
      <path d="M9.55 -13.7 L9.55 -13.7 Q9.55 -16.6 11.0 -18.35 12.45 -20.15 14.75 -20.15 17.0 -20.15 18.5 -18.35 19.95 -16.55 19.95 -13.7 19.95 -10.8 18.5 -8.95 17.05 -7.1 14.75 -7.1 12.45 -7.1 11.0 -8.9 9.55 -10.75 9.55 -13.7 M20.2 -2.45 L20.2 -2.45 Q20.85 -1.0 21.75 -0.3 22.7 0.35 24.05 0.35 26.05 0.35 27.05 -1.1 28.0 -2.55 28.0 -5.5 L28.0 -21.75 Q28.0 -24.75 27.05 -26.15 26.05 -27.6 24.05 -27.6 22.85 -27.6 21.85 -26.95 20.9 -26.3 20.2 -25.0 18.95 -26.5 17.4 -27.2 15.8 -27.9 13.75 -27.9 8.5 -27.9 4.85 -23.75 1.2 -19.65 1.2 -13.6 1.2 -7.5 4.75 -3.45 8.25 0.65 13.45 0.65 15.5 0.65 17.25 -0.15 18.95 -0.95 20.2 -2.45" fill-rule="evenodd" stroke="none"/>
    </g>
    <g id="font_VAGRounded_BT_g0">
      <path d="M9.55 -13.6 L9.55 -13.6 Q9.55 -16.55 11.0 -18.35 12.5 -20.2 14.8 -20.2 17.15 -20.2 18.65 -18.35 20.15 -16.55 20.15 -13.6 20.15 -10.6 18.65 -8.7 17.15 -6.85 14.8 -6.85 12.5 -6.85 11.0 -8.7 9.55 -10.6 9.55 -13.6 M20.2 -3.35 L20.2 -3.35 20.2 -2.85 20.25 -2.4 Q20.25 0.85 18.6 2.65 16.95 4.4 13.95 4.4 11.55 4.4 8.8 3.35 6.0 2.25 5.3 2.25 3.8 2.25 2.8 3.25 1.8 4.25 1.8 5.8 1.8 8.35 5.1 10.0 8.4 11.7 13.65 11.7 17.9 11.7 21.05 10.15 24.15 8.6 25.9 5.65 26.95 4.0 27.4 1.5 27.8 -1.05 27.8 -5.5 L27.8 -21.75 Q27.8 -24.7 26.85 -26.15 25.85 -27.6 23.75 -27.6 22.75 -27.6 21.8 -26.9 20.85 -26.2 20.2 -25.0 18.95 -26.5 17.4 -27.2 15.8 -27.9 13.75 -27.9 8.5 -27.9 4.85 -23.75 1.2 -19.65 1.2 -13.6 1.2 -7.65 4.6 -3.6 7.95 0.4 12.85 0.4 15.2 0.4 17.05 -0.5 18.85 -1.45 20.2 -3.35" fill-rule="evenodd" stroke="none"/>
    </g>
    <g id="font_VAGRounded_BT_t0">
      <path d="M4.4 -19.8 L4.4 -5.5 Q4.4 -2.55 5.4 -1.1 6.4 0.35 8.45 0.35 10.5 0.35 11.5 -1.05 12.45 -2.5 12.45 -5.5 L12.45 -19.8 13.1 -19.8 Q15.65 -19.8 16.95 -20.7 18.25 -21.55 18.25 -23.3 18.25 -24.95 16.9 -25.9 15.55 -26.85 13.15 -26.85 L12.45 -26.85 12.45 -30.4 Q12.45 -33.4 11.5 -34.85 10.5 -36.3 8.45 -36.3 6.4 -36.3 5.4 -34.85 4.4 -33.4 4.4 -30.4 L4.4 -26.85 Q2.0 -26.75 0.8 -25.85 -0.45 -24.95 -0.45 -23.3 -0.45 -21.7 0.8 -20.75 2.0 -19.8 4.1 -19.8 L4.4 -19.8" fill-rule="evenodd" stroke="none"/>
    </g>
    <g id="font_VAGRounded_BT_o0">
      <path d="M1.2 -13.6 L1.2 -13.6 Q1.2 -7.3 5.05 -3.25 8.9 0.85 14.85 0.85 20.85 0.85 24.65 -3.2 28.5 -7.3 28.5 -13.6 28.5 -19.95 24.65 -24.0 20.85 -28.05 14.85 -28.05 8.9 -28.05 5.05 -23.95 1.2 -19.9 1.2 -13.6 M9.55 -13.7 L9.55 -13.7 Q9.55 -16.7 11.05 -18.6 12.5 -20.45 14.85 -20.45 17.15 -20.45 18.7 -18.55 20.2 -16.7 20.2 -13.7 20.2 -10.65 18.7 -8.75 17.25 -6.85 14.85 -6.85 12.5 -6.85 11.0 -8.7 9.55 -10.6 9.55 -13.7" fill-rule="evenodd" stroke="none"/>
    </g>
    <g id="font_VAGRounded_BT_h0">
      <path d="M10.85 -25.2 L10.85 -33.15 Q10.85 -36.1 9.85 -37.6 8.85 -39.05 6.8 -39.05 4.75 -39.05 3.8 -37.6 2.8 -36.15 2.8 -33.15 L2.8 -5.5 Q2.8 -2.55 3.8 -1.1 4.75 0.35 6.8 0.35 8.85 0.35 9.85 -1.1 10.85 -2.55 10.85 -5.5 L10.85 -14.75 Q10.85 -17.9 11.9 -19.4 12.95 -20.9 15.15 -20.9 17.5 -20.9 18.5 -19.45 19.5 -18.0 19.5 -14.65 L19.5 -5.5 Q19.5 -2.55 20.5 -1.1 21.5 0.35 23.55 0.35 25.6 0.35 26.6 -1.1 27.6 -2.55 27.6 -5.5 L27.6 -17.1 Q27.6 -22.3 25.1 -25.0 22.55 -27.75 17.8 -27.75 15.35 -27.75 13.75 -27.15 12.15 -26.55 10.85 -25.2" fill-rule="evenodd" stroke="none"/>
    </g>
    <g id="font_VAGRounded_BT_r0">
      <path d="M2.8 -5.5 L2.8 -5.5 Q2.8 -2.55 3.8 -1.1 4.75 0.35 6.8 0.35 8.85 0.35 9.85 -1.1 10.85 -2.55 10.85 -5.5 L10.85 -13.9 Q10.85 -16.25 11.35 -17.1 11.85 -18.0 13.4 -18.75 L15.8 -19.7 Q20.25 -21.3 20.25 -23.75 20.25 -25.35 19.05 -26.55 17.8 -27.75 16.15 -27.75 14.7 -27.75 13.3 -27.05 11.9 -26.35 10.65 -25.0 L9.0 -26.95 Q8.05 -27.6 6.8 -27.6 4.75 -27.6 3.8 -26.15 2.8 -24.7 2.8 -21.75 L2.8 -5.5" fill-rule="evenodd" stroke="none"/>
    </g>
    <g id="font_VAGRounded_BT_n0">
      <path d="M2.8 -5.5 L2.8 -5.5 Q2.8 -2.55 3.8 -1.1 4.75 0.35 6.8 0.35 8.85 0.35 9.85 -1.1 10.85 -2.55 10.85 -5.5 L10.85 -14.75 Q10.85 -17.9 11.9 -19.4 12.95 -20.9 15.15 -20.9 17.5 -20.9 18.5 -19.45 19.5 -18.0 19.5 -14.65 L19.5 -5.5 Q19.5 -2.55 20.5 -1.1 21.5 0.35 23.55 0.35 25.6 0.35 26.6 -1.1 27.6 -2.55 27.6 -5.5 L27.6 -17.1 Q27.6 -22.3 25.1 -25.0 22.55 -27.75 17.8 -27.75 L13.65 -27.1 Q11.95 -26.45 10.65 -25.0 L9.0 -26.95 Q8.05 -27.6 6.8 -27.6 4.75 -27.6 3.8 -26.15 2.8 -24.7 2.8 -21.75 L2.8 -5.5" fill-rule="evenodd" stroke="none"/>
    </g>
    <g id="font_VAGRounded_BT_k0">
      <path d="M10.85 -18.3 L10.85 -33.15 Q10.85 -36.1 9.85 -37.6 8.85 -39.05 6.8 -39.05 4.75 -39.05 3.8 -37.6 2.8 -36.15 2.8 -33.15 L2.8 -5.5 Q2.8 -2.5 3.8 -1.0 4.8 0.45 6.8 0.45 8.85 0.45 9.85 -1.0 10.85 -2.5 10.85 -5.5 L10.85 -12.8 18.9 -2.05 Q19.85 -0.75 20.9 -0.15 21.95 0.45 23.1 0.45 24.7 0.45 25.8 -0.5 26.9 -1.45 26.9 -2.85 26.9 -3.9 26.5 -4.8 L25.3 -6.75 17.8 -15.6 23.2 -20.6 Q24.15 -21.5 24.7 -22.55 25.25 -23.55 25.25 -24.5 25.25 -25.8 24.3 -26.7 23.3 -27.65 21.85 -27.65 20.85 -27.65 19.85 -27.1 L17.75 -25.45 10.85 -18.3" fill-rule="evenodd" stroke="none"/>
    </g>
    <g id="font_VAGRounded_BT_y0">
      <path d="M17.55 -24.35 L12.6 -11.5 8.05 -23.7 Q7.25 -25.95 6.35 -26.75 5.4 -27.6 3.95 -27.6 2.3 -27.6 1.2 -26.45 0.05 -25.3 0.05 -23.6 L0.15 -22.3 0.45 -21.35 8.6 -2.35 5.3 4.85 4.8 6.25 4.6 7.65 Q4.6 9.45 5.7 10.5 6.75 11.55 8.6 11.55 9.75 11.55 10.55 10.85 11.35 10.1 12.15 8.25 L24.45 -20.95 24.95 -22.45 25.1 -23.75 Q25.1 -25.5 24.05 -26.55 22.95 -27.6 21.15 -27.6 19.9 -27.6 19.05 -26.8 18.2 -26.05 17.55 -24.35" fill-rule="evenodd" stroke="none"/>
    </g>
    <g id="shape1" transform="matrix(1.0, 0.0, 0.0, 1.0, 78.5, 1.0)">
      <path d="M18.2 -0.7 L18.5 0.0 18.2 0.7 17.5 1.0 Q17.1 1.0 16.8 0.7 16.5 0.4 16.5 0.0 16.5 -0.4 16.8 -0.7 17.1 -1.0 17.5 -1.0 L18.2 -0.7 M12.5 -1.0 L13.2 -0.7 13.5 0.0 13.2 0.7 12.5 1.0 Q12.1 1.0 11.8 0.7 11.5 0.4 11.5 0.0 11.5 -0.4 11.8 -0.7 12.1 -1.0 12.5 -1.0 M7.5 -1.0 Q7.9 -1.0 8.2 -0.7 L8.5 0.0 8.2 0.7 Q7.9 1.0 7.5 1.0 L6.8 0.7 Q6.5 0.4 6.5 0.0 6.5 -0.4 6.8 -0.7 L7.5 -1.0 M2.5 -1.0 Q2.9 -1.0 3.2 -0.7 L3.5 0.0 3.2 0.7 Q2.9 1.0 2.5 1.0 L1.8 0.7 Q1.5 0.4 1.5 0.0 1.5 -0.4 1.8 -0.7 L2.5 -1.0 M37.5 -1.0 Q37.9 -1.0 38.2 -0.7 L38.5 0.0 38.2 0.7 Q37.9 1.0 37.5 1.0 L36.8 0.7 36.5 0.0 36.8 -0.7 37.5 -1.0 M33.2 -0.7 L33.5 0.0 33.2 0.7 32.5 1.0 Q32.1 1.0 31.8 0.7 31.5 0.4 31.5 0.0 31.5 -0.4 31.8 -0.7 32.1 -1.0 32.5 -1.0 L33.2 -0.7 M27.5 -1.0 L28.2 -0.7 28.5 0.0 28.2 0.7 27.5 1.0 Q27.1 1.0 26.8 0.7 26.5 0.4 26.5 0.0 26.5 -0.4 26.8 -0.7 27.1 -1.0 27.5 -1.0 M22.5 -1.0 L23.2 -0.7 23.5 0.0 23.2 0.7 22.5 1.0 21.8 0.7 Q21.5 0.4 21.5 0.0 21.5 -0.4 21.8 -0.7 L22.5 -1.0 M58.2 -0.7 L58.5 0.0 58.2 0.7 57.5 1.0 Q57.1 1.0 56.8 0.7 56.5 0.4 56.5 0.0 56.5 -0.4 56.8 -0.7 57.1 -1.0 57.5 -1.0 L58.2 -0.7 M52.5 -1.0 L53.2 -0.7 53.5 0.0 53.2 0.7 52.5 1.0 51.8 0.7 Q51.5 0.4 51.5 0.0 51.5 -0.4 51.8 -0.7 L52.5 -1.0 M47.5 -1.0 L48.2 -0.7 48.5 0.0 48.2 0.7 47.5 1.0 46.8 0.7 Q46.5 0.4 46.5 0.0 46.5 -0.4 46.8 -0.7 L47.5 -1.0 M42.5 -1.0 L43.2 -0.7 43.5 0.0 43.2 0.7 42.5 1.0 Q42.1 1.0 41.8 0.7 41.5 0.4 41.5 0.0 41.5 -0.4 41.8 -0.7 42.1 -1.0 42.5 -1.0 M77.5 -1.0 L78.2 -0.7 78.5 0.0 78.2 0.7 77.5 1.0 76.8 0.7 Q76.5 0.4 76.5 0.0 76.5 -0.4 76.8 -0.7 L77.5 -1.0 M73.2 -0.7 L73.5 0.0 73.2 0.7 72.5 1.0 71.8 0.7 Q71.5 0.4 71.5 0.0 71.5 -0.4 71.8 -0.7 L72.5 -1.0 73.2 -0.7 M67.5 -1.0 L68.2 -0.7 68.5 0.0 68.2 0.7 67.5 1.0 Q67.1 1.0 66.8 0.7 L66.5 0.0 66.8 -0.7 Q67.1 -1.0 67.5 -1.0 M62.5 -1.0 L63.2 -0.7 63.5 0.0 63.2 0.7 62.5 1.0 Q62.1 1.0 61.8 0.7 61.5 0.4 61.5 0.0 61.5 -0.4 61.8 -0.7 62.1 -1.0 62.5 -1.0 M-61.8 -0.7 Q-61.5 -0.4 -61.5 0.0 -61.5 0.4 -61.8 0.7 -62.1 1.0 -62.5 1.0 L-63.2 0.7 -63.5 0.0 -63.2 -0.7 -62.5 -1.0 Q-62.1 -1.0 -61.8 -0.7 M-67.5 -1.0 Q-67.1 -1.0 -66.8 -0.7 L-66.5 0.0 -66.8 0.7 Q-67.1 1.0 -67.5 1.0 L-68.2 0.7 -68.5 0.0 -68.2 -0.7 -67.5 -1.0 M-72.5 -1.0 L-71.8 -0.7 Q-71.5 -0.4 -71.5 0.0 -71.5 0.4 -71.8 0.7 L-72.5 1.0 -73.2 0.7 -73.5 0.0 -73.2 -0.7 -72.5 -1.0 M-77.5 -1.0 L-76.8 -0.7 Q-76.5 -0.4 -76.5 0.0 -76.5 0.4 -76.8 0.7 L-77.5 1.0 -78.2 0.7 -78.5 0.0 -78.2 -0.7 -77.5 -1.0 M-42.5 -1.0 Q-42.1 -1.0 -41.8 -0.7 -41.5 -0.4 -41.5 0.0 -41.5 0.4 -41.8 0.7 -42.1 1.0 -42.5 1.0 L-43.2 0.7 -43.5 0.0 -43.2 -0.7 -42.5 -1.0 M-46.8 -0.7 Q-46.5 -0.4 -46.5 0.0 -46.5 0.4 -46.8 0.7 L-47.5 1.0 -48.2 0.7 -48.5 0.0 -48.2 -0.7 -47.5 -1.0 -46.8 -0.7 M-52.5 -1.0 L-51.8 -0.7 Q-51.5 -0.4 -51.5 0.0 -51.5 0.4 -51.8 0.7 L-52.5 1.0 -53.2 0.7 -53.5 0.0 -53.2 -0.7 -52.5 -1.0 M-57.5 -1.0 Q-57.1 -1.0 -56.8 -0.7 -56.5 -0.4 -56.5 0.0 -56.5 0.4 -56.8 0.7 -57.1 1.0 -57.5 1.0 L-58.2 0.7 -58.5 0.0 -58.2 -0.7 -57.5 -1.0 M-21.8 -0.7 Q-21.5 -0.4 -21.5 0.0 -21.5 0.4 -21.8 0.7 L-22.5 1.0 -23.2 0.7 -23.5 0.0 -23.2 -0.7 -22.5 -1.0 -21.8 -0.7 M-27.5 -1.0 Q-27.1 -1.0 -26.8 -0.7 -26.5 -0.4 -26.5 0.0 -26.5 0.4 -26.8 0.7 -27.1 1.0 -27.5 1.0 L-28.2 0.7 -28.5 0.0 -28.2 -0.7 -27.5 -1.0 M-32.5 -1.0 Q-32.1 -1.0 -31.8 -0.7 -31.5 -0.4 -31.5 0.0 -31.5 0.4 -31.8 0.7 -32.1 1.0 -32.5 1.0 L-33.2 0.7 -33.5 0.0 -33.2 -0.7 -32.5 -1.0 M-37.5 -1.0 L-36.8 -0.7 -36.5 0.0 -36.8 0.7 -37.5 1.0 Q-37.9 1.0 -38.2 0.7 L-38.5 0.0 -38.2 -0.7 Q-37.9 -1.0 -37.5 -1.0 M-2.5 -1.0 L-1.8 -0.7 Q-1.5 -0.4 -1.5 0.0 -1.5 0.4 -1.8 0.7 L-2.5 1.0 Q-2.9 1.0 -3.2 0.7 L-3.5 0.0 -3.2 -0.7 Q-2.9 -1.0 -2.5 -1.0 M-6.8 -0.7 Q-6.5 -0.4 -6.5 0.0 -6.5 0.4 -6.8 0.7 L-7.5 1.0 Q-7.9 1.0 -8.2 0.7 L-8.5 0.0 -8.2 -0.7 Q-7.9 -1.0 -7.5 -1.0 L-6.8 -0.7 M-12.5 -1.0 Q-12.1 -1.0 -11.8 -0.7 -11.5 -0.4 -11.5 0.0 -11.5 0.4 -11.8 0.7 -12.1 1.0 -12.5 1.0 L-13.2 0.7 -13.5 0.0 -13.2 -0.7 -12.5 -1.0 M-17.5 -1.0 Q-17.1 -1.0 -16.8 -0.7 -16.5 -0.4 -16.5 0.0 -16.5 0.4 -16.8 0.7 -17.1 1.0 -17.5 1.0 L-18.2 0.7 -18.5 0.0 -18.2 -0.7 -17.5 -1.0" fill="#003366" fill-opacity="0.2" fill-rule="evenodd" stroke="none"/>
    </g>
  </defs>
</svg>
