<?xml version="1.0" encoding="UTF-8" standalone="no"?>
<svg xmlns:ffdec="https://www.free-decompiler.com/flash" xmlns:xlink="http://www.w3.org/1999/xlink" ffdec:objectType="frame" height="25.0px" width="89.95px" xmlns="http://www.w3.org/2000/svg">
  <g transform="matrix(1.0, 0.0, 0.0, 1.0, 46.0, 9.0)">
    <use ffdec:characterId="29" height="20.0" transform="matrix(2.29, 0.0, 0.0, 0.7975, -17.25, -8.0)" width="20.0" xlink:href="#shape0"/>
    <use ffdec:characterId="69" height="19.5" transform="matrix(1.0015, 0.0, 0.0, 1.0029, -16.003, -8.9558)" width="37.6" xlink:href="#text0"/>
    <use ffdec:characterId="70" height="25.0" transform="matrix(1.0, 0.0, 0.0, 1.0, 14.0, -9.0)" width="18.0" xlink:href="#text1"/>
  </g>
  <defs>
    <g id="shape0" transform="matrix(1.0, 0.0, 0.0, 1.0, 0.0, 0.0)">
      <path d="M20.0 0.0 L20.0 20.0 0.0 20.0 0.0 0.0 20.0 0.0" fill="#ffffff" fill-rule="evenodd" stroke="none"/>
    </g>
    <g id="text1" transform="matrix(1.0, 0.0, 0.0, 1.0, 2.0, 2.0)">
      <g transform="matrix(1.0, 0.0, 0.0, 1.0, -2.0, -2.0)">
        <use fill="#333333" height="25.0" transform="matrix(0.2344, 0.0, 0.0, 0.2344, 0.0, 12.85)" width="18.0" xlink:href="#font__sans_12pt_st_00"/>
      </g>
    </g>
    <g id="font__sans_12pt_st_00">
      <path d="M21.35 0.0 L21.35 4.25 8.55 4.25 8.55 0.0 21.35 0.0 21.35 -29.85 25.6 -29.85 25.6 0.0 21.35 0.0 M8.55 -29.85 L8.55 0.0 4.25 0.0 4.25 -29.85 8.55 -29.85 8.55 -34.15 21.35 -34.15 21.35 -29.85 8.55 -29.85" fill-rule="evenodd" stroke="none"/>
    </g>
  </defs>
</svg>
