<?xml version="1.0" encoding="UTF-8" standalone="no"?>
<svg xmlns:ffdec="https://www.free-decompiler.com/flash" xmlns:xlink="http://www.w3.org/1999/xlink" ffdec:objectType="frame" height="41.65px" width="90.0px" xmlns="http://www.w3.org/2000/svg">
  <g transform="matrix(1.0, 0.0, 0.0, 1.0, 47.6, 19.3)">
    <use ffdec:characterId="429" height="41.65" transform="matrix(1.0, 0.0, 0.0, 1.0, -47.6, -19.3)" width="90.0" xlink:href="#shape0"/>
    <use ffdec:characterId="430" height="35.0" transform="matrix(1.0, 0.0, 0.0, 1.0, -41.6, -18.5)" width="78.0" xlink:href="#shape1"/>
    <use ffdec:characterId="431" height="18.2" transform="matrix(1.0, 0.0, 0.0, 1.0, -31.25, -8.55)" width="70.15" xlink:href="#text0"/>
  </g>
  <defs>
    <g id="shape0" transform="matrix(1.0, 0.0, 0.0, 1.0, 47.6, 19.3)">
      <path d="M40.4 10.15 L38.4 10.15 38.4 9.9 38.4 -7.05 38.4 -7.7 Q38.15 -11.2 35.45 -13.7 32.55 -16.45 28.4 -16.45 L-33.6 -16.45 Q-37.75 -16.45 -40.7 -13.7 -43.35 -11.2 -43.55 -7.7 L-43.6 -7.05 -43.6 -6.75 -43.6 9.9 -43.6 10.15 -45.6 10.15 -45.6 -8.9 Q-45.6 -12.85 -42.7 -15.6 -39.75 -18.35 -35.6 -18.35 L30.4 -18.35 Q34.55 -18.35 37.45 -15.6 40.4 -12.85 40.4 -8.9 L40.4 10.15 40.4 11.95 Q40.4 15.85 37.45 18.6 34.55 21.35 30.4 21.4 L-35.6 21.4 Q-39.75 21.35 -42.7 18.6 -45.6 15.85 -45.6 11.95 L-45.6 10.15 -43.6 10.15 -43.55 10.7 -43.6 10.7 -43.6 11.0 -43.55 11.0 Q-43.25 14.3 -40.7 16.7 -37.75 19.5 -33.6 19.5 L28.4 19.5 Q32.55 19.5 35.45 16.7 38.05 14.3 38.35 11.0 L38.4 11.0 38.4 10.7 38.4 10.15 40.4 10.15" fill="#01317e" fill-opacity="0.08235294" fill-rule="evenodd" stroke="none"/>
      <path d="M-45.6 10.15 L-47.6 10.15 -47.6 -9.85 Q-47.6 -13.8 -44.7 -16.55 -41.75 -19.3 -37.6 -19.3 L32.4 -19.3 Q36.55 -19.3 39.45 -16.55 42.4 -13.8 42.4 -9.85 L42.4 10.15 40.4 10.15 40.4 -8.9 Q40.4 -12.85 37.45 -15.6 34.55 -18.35 30.4 -18.35 L-35.6 -18.35 Q-39.75 -18.35 -42.7 -15.6 -45.6 -12.85 -45.6 -8.9 L-45.6 10.15 -45.6 11.95 Q-45.6 15.85 -42.7 18.6 -39.75 21.35 -35.6 21.4 L30.4 21.4 Q34.55 21.35 37.45 18.6 40.4 15.85 40.4 11.95 L40.4 10.15 42.4 10.15 42.4 12.9 Q42.4 16.8 39.45 19.55 36.55 22.3 32.4 22.35 L-37.6 22.35 Q-41.75 22.3 -44.7 19.55 -47.6 16.8 -47.6 12.9 L-47.6 10.15 -45.6 10.15" fill="#01317e" fill-opacity="0.03137255" fill-rule="evenodd" stroke="none"/>
      <path d="M38.4 10.15 L-43.6 10.15 -43.6 9.9 -43.6 -6.75 -43.6 -7.05 -43.55 -7.7 Q-43.35 -11.2 -40.7 -13.7 -37.75 -16.45 -33.6 -16.45 L28.4 -16.45 Q32.55 -16.45 35.45 -13.7 38.15 -11.2 38.4 -7.7 L38.4 -7.05 38.4 9.9 38.4 10.15 38.4 10.7 38.4 11.0 38.35 11.0 Q38.05 14.3 35.45 16.7 32.55 19.5 28.4 19.5 L-33.6 19.5 Q-37.75 19.5 -40.7 16.7 -43.25 14.3 -43.55 11.0 L-43.6 11.0 -43.6 10.7 -43.55 10.7 -43.6 10.15 38.4 10.15" fill="#01317e" fill-opacity="0.18039216" fill-rule="evenodd" stroke="none"/>
    </g>
    <g id="shape1" transform="matrix(1.0, 0.0, 0.0, 1.0, 41.6, 18.5)">
      <path d="M-31.6 16.5 Q-35.75 16.5 -38.7 13.55 -40.25 12.0 -40.95 10.15 L35.75 10.15 Q35.0 12.0 33.45 13.55 30.55 16.5 26.4 16.5 L-31.6 16.5 M26.4 -18.5 Q30.55 -18.5 33.45 -15.6 36.4 -12.65 36.4 -8.5 L36.4 2.95 Q36.4 6.8 35.75 10.15 L-40.95 10.15 Q-41.6 6.8 -41.6 2.95 L-41.6 -8.5 Q-41.6 -12.65 -38.7 -15.6 -35.75 -18.5 -31.6 -18.5 L26.4 -18.5" fill="#ffffff" fill-rule="evenodd" stroke="none"/>
    </g>
    <g id="text0" transform="matrix(1.0, 0.0, 0.0, 1.0, -1.25, -5.15)">
      <g transform="matrix(1.0, 0.0, 0.0, 1.0, 0.0, 0.0)">
        <use fill="#ff6600" height="18.2" transform="matrix(0.3906, 0.0, 0.0, 0.3906, 0.0, 20.0)" width="70.15" xlink:href="#font_VAGRounded_BT_F0"/>
        <use fill="#ff6600" height="18.2" transform="matrix(0.3906, 0.0, 0.0, 0.3906, 9.75, 20.0)" width="70.15" xlink:href="#font_VAGRounded_BT_I0"/>
        <use fill="#ff6600" height="18.2" transform="matrix(0.3906, 0.0, 0.0, 0.3906, 15.65, 20.0)" width="70.15" xlink:href="#font_VAGRounded_BT_G0"/>
        <use fill="#ff6600" height="18.2" transform="matrix(0.3906, 0.0, 0.0, 0.3906, 30.1, 20.0)" width="70.15" xlink:href="#font_VAGRounded_BT_H0"/>
        <use fill="#ff6600" height="18.2" transform="matrix(0.3906, 0.0, 0.0, 0.3906, 45.05, 20.0)" width="70.15" xlink:href="#font_VAGRounded_BT_T0"/>
        <use fill="#ff6600" height="18.2" transform="matrix(0.3906, 0.0, 0.0, 0.3906, 54.5, 20.0)" width="70.15" xlink:href="#font_VAGRounded_BT__0"/>
      </g>
    </g>
    <g id="font_VAGRounded_BT_F0">
      <path d="M18.3 -36.4 L8.95 -36.4 Q5.8 -36.4 4.5 -35.15 3.25 -33.9 3.25 -30.55 L3.25 -5.4 Q3.25 -2.45 4.25 -1.0 5.3 0.45 7.4 0.45 9.5 0.45 10.5 -1.0 11.55 -2.45 11.55 -5.4 L11.55 -14.5 17.35 -14.5 Q20.35 -14.5 21.8 -15.4 23.25 -16.35 23.25 -18.3 23.25 -20.25 21.8 -21.2 20.35 -22.15 17.35 -22.15 L11.55 -22.15 11.55 -28.65 18.3 -28.65 Q21.25 -28.65 22.75 -29.6 24.2 -30.55 24.2 -32.5 24.2 -34.45 22.7 -35.4 21.25 -36.4 18.3 -36.4" fill-rule="evenodd" stroke="none"/>
    </g>
    <g id="font_VAGRounded_BT_I0">
      <path d="M11.75 -5.4 L11.75 -30.95 Q11.75 -33.95 10.7 -35.4 9.7 -36.85 7.6 -36.85 5.5 -36.85 4.45 -35.4 3.45 -33.95 3.45 -30.95 L3.45 -5.4 Q3.45 -2.45 4.45 -1.0 5.5 0.45 7.6 0.45 9.7 0.45 10.7 -1.0 11.75 -2.45 11.75 -5.4" fill-rule="evenodd" stroke="none"/>
    </g>
    <g id="font_VAGRounded_BT_G0">
      <path d="M26.9 -14.15 L26.9 -14.15 Q26.8 -10.8 24.8 -8.8 22.8 -6.85 19.5 -6.85 15.35 -6.85 12.9 -9.95 10.4 -13.1 10.4 -18.35 10.4 -23.55 12.9 -26.55 15.35 -29.55 19.55 -29.55 22.4 -29.55 25.6 -27.75 28.8 -26.0 29.7 -26.0 31.15 -26.0 32.2 -27.15 33.25 -28.35 33.25 -29.9 33.25 -32.85 29.35 -35.15 25.4 -37.45 19.85 -37.45 11.4 -37.45 6.45 -32.25 1.45 -27.05 1.45 -18.2 1.45 -9.65 6.3 -4.3 11.2 1.1 18.85 1.1 26.5 1.1 31.2 -3.75 35.85 -8.6 35.85 -16.35 35.85 -19.3 34.5 -20.6 33.15 -21.9 30.05 -21.9 L23.95 -21.9 Q21.0 -21.9 19.55 -20.95 18.15 -20.0 18.15 -18.0 18.15 -16.05 19.55 -15.1 20.95 -14.15 23.95 -14.15 L26.9 -14.15" fill-rule="evenodd" stroke="none"/>
    </g>
    <g id="font_VAGRounded_BT_H0">
      <path d="M11.55 -14.7 L26.8 -14.7 26.8 -5.4 Q26.8 -2.45 27.8 -1.0 28.85 0.45 30.95 0.45 33.05 0.45 34.05 -1.0 35.1 -2.45 35.1 -5.4 L35.1 -30.95 Q35.1 -33.95 34.05 -35.4 33.05 -36.85 30.95 -36.85 28.85 -36.85 27.8 -35.4 26.8 -33.95 26.8 -30.95 L26.8 -22.35 11.55 -22.35 11.55 -30.95 Q11.55 -33.95 10.5 -35.4 9.5 -36.85 7.4 -36.85 5.3 -36.85 4.25 -35.4 3.25 -33.95 3.25 -30.95 L3.25 -5.4 Q3.25 -2.45 4.25 -1.0 5.3 0.45 7.4 0.45 9.5 0.45 10.5 -1.0 11.55 -2.45 11.55 -5.4 L11.55 -14.7" fill-rule="evenodd" stroke="none"/>
    </g>
    <g id="font_VAGRounded_BT_T0">
      <path d="M7.95 -28.65 L7.95 -5.4 Q7.95 -2.45 8.95 -1.0 10.0 0.45 12.1 0.45 14.2 0.45 15.2 -1.0 16.25 -2.45 16.25 -5.4 L16.25 -28.65 19.3 -28.65 Q22.3 -28.65 23.75 -29.6 25.2 -30.55 25.2 -32.5 25.2 -34.45 23.75 -35.4 22.25 -36.4 19.3 -36.4 L4.9 -36.4 Q1.9 -36.4 0.45 -35.4 -1.0 -34.45 -1.0 -32.5 -1.0 -30.55 0.45 -29.6 1.9 -28.65 4.9 -28.65 L7.95 -28.65" fill-rule="evenodd" stroke="none"/>
    </g>
    <g id="font_VAGRounded_BT__0">
      <path d="M3.15 -3.4 L3.15 -3.4 Q3.15 -1.55 4.45 -0.2 5.75 1.1 7.6 1.1 9.4 1.1 10.75 -0.25 12.05 -1.55 12.05 -3.4 12.05 -5.25 10.75 -6.55 9.45 -7.85 7.6 -7.85 5.75 -7.85 4.45 -6.55 3.15 -5.3 3.15 -3.4 M11.6 -16.55 L11.6 -31.6 Q11.6 -34.55 10.6 -35.95 9.6 -37.4 7.6 -37.4 5.6 -37.4 4.6 -35.95 3.6 -34.5 3.6 -31.6 L3.6 -16.55 Q3.6 -13.55 4.6 -12.1 5.6 -10.65 7.6 -10.65 9.6 -10.65 10.6 -12.1 11.6 -13.55 11.6 -16.55" fill-rule="evenodd" stroke="none"/>
    </g>
  </defs>
</svg>
