<?xml version="1.0" encoding="UTF-8" standalone="no"?>
<svg xmlns:ffdec="https://www.free-decompiler.com/flash" xmlns:xlink="http://www.w3.org/1999/xlink" ffdec:objectType="frame" height="790.65px" width="666.95px" xmlns="http://www.w3.org/2000/svg">
  <g transform="matrix(1.0, 0.0, 0.0, 1.0, 32.9, 52.45)">
    <use ffdec:characterId="571" height="58.5" transform="matrix(1.0, 0.0, 0.0, 1.0, -8.85, 360.45)" width="611.45" xlink:href="#shape0"/>
    <use ffdec:characterId="573" height="328.3" id="mcHugeIcicle" transform="matrix(1.0, 0.0, 0.0, 1.0, 266.25, 409.9)" width="79.0" xlink:href="#sprite0"/>
    <use ffdec:characterId="574" height="46.15" transform="matrix(1.0, 0.0, 0.0, 1.0, 239.05, 372.85)" width="116.75" xlink:href="#shape2"/>
    <use ffdec:characterId="519" height="756.85" id="mcSnowpile1" transform="matrix(-1.0, 0.0, 0.0, 1.0, 634.05, -41.3)" width="166.4" xlink:href="#sprite1"/>
    <use ffdec:characterId="519" height="756.85" id="mcSnowpile0" transform="matrix(1.0, 0.0, 0.0, 1.0, -32.9, -41.3)" width="166.4" xlink:href="#sprite4"/>
    <use ffdec:characterId="575" height="66.75" transform="matrix(1.0, 0.0, 0.0, 1.0, -8.0, -52.45)" width="618.95" xlink:href="#shape9"/>
  </g>
  <defs>
    <g id="shape0" transform="matrix(1.0, 0.0, 0.0, 1.0, 8.85, -360.45)">
      <path d="M395.5 388.9 L399.95 391.1 Q411.9 397.6 426.05 396.45 L427.7 393.8 Q428.75 385.65 426.95 378.0 441.05 381.3 454.25 383.8 472.6 391.7 493.85 393.8 L537.4 395.7 Q555.65 395.8 569.7 390.05 L571.85 390.05 Q574.4 388.2 577.15 387.25 L577.75 386.85 Q581.4 385.3 585.05 383.4 L592.9 380.5 601.85 376.3 601.85 416.0 532.85 417.2 510.2 418.1 490.25 418.55 Q489.2 416.25 487.4 414.25 488.35 415.4 488.4 418.0 L488.4 418.6 483.5 418.65 478.05 418.75 Q446.0 419.15 413.95 418.65 L410.4 418.6 265.65 415.8 265.5 415.8 259.0 415.75 251.9 415.7 236.95 415.65 235.05 415.65 227.8 415.6 223.95 415.6 223.5 415.6 212.0 415.55 200.15 415.5 138.6 415.1 Q98.35 414.85 58.15 414.0 L30.85 413.35 29.05 413.25 15.2 412.4 8.85 412.05 -8.1 411.0 -8.1 376.0 -3.0 377.15 Q5.35 380.6 14.7 382.05 L48.05 387.95 Q65.15 391.25 83.15 390.95 100.95 390.65 118.7 390.7 136.25 390.7 153.75 389.85 171.85 388.6 188.0 384.7 L206.95 380.1 Q213.45 377.1 219.85 373.45 241.45 366.85 251.2 361.2 L251.9 365.5 252.05 366.15 Q251.55 371.0 252.25 376.3 252.45 378.05 253.6 380.1 255.4 380.9 256.7 382.45 L257.25 383.3 Q265.65 387.35 276.65 387.5 289.15 387.7 301.3 385.6 L313.4 385.55 Q331.15 385.3 348.85 385.35 L380.3 386.75 395.5 388.9" fill="#ffffff" fill-rule="evenodd" stroke="none"/>
      <path d="M490.25 418.55 L488.4 418.6 488.4 418.0 Q488.35 415.4 487.4 414.25 489.2 416.25 490.25 418.55" fill="#caeafe" fill-rule="evenodd" stroke="none"/>
      <path d="M454.25 383.8 L477.25 387.6 Q544.0 397.1 585.05 383.4 581.4 385.3 577.75 386.85 L577.15 387.25 Q574.4 388.2 571.85 390.05 L569.7 390.05 Q555.65 395.8 537.4 395.7 L493.85 393.8 Q472.6 391.7 454.25 383.8" fill="#e6efff" fill-rule="evenodd" stroke="none"/>
      <path d="M395.5 388.9 L401.35 389.8 412.65 389.45 413.7 389.15 413.95 389.1 Q423.6 386.65 425.4 377.65 L426.8 378.0 426.95 378.0 Q428.75 385.65 427.7 393.8 L426.05 396.45 Q411.9 397.6 399.95 391.1 L395.5 388.9 M-3.0 377.15 Q52.8 389.65 109.4 388.65 170.95 386.85 204.65 377.8 L219.85 373.45 Q213.45 377.1 206.95 380.1 L188.0 384.7 Q171.85 388.6 153.75 389.85 136.25 390.7 118.7 390.7 100.95 390.65 83.15 390.95 65.15 391.25 48.05 387.95 L14.7 382.05 Q5.35 380.6 -3.0 377.15 M252.05 366.15 Q253.1 370.45 255.7 374.3 L256.75 375.75 259.0 378.2 Q265.45 384.3 274.85 384.7 L301.3 385.6 Q289.15 387.7 276.65 387.5 265.65 387.35 257.25 383.3 L256.7 382.45 Q255.4 380.9 253.6 380.1 252.45 378.05 252.25 376.3 251.55 371.0 252.05 366.15" fill="#d5eaff" fill-rule="evenodd" stroke="none"/>
      <path d="M-8.1 376.0 Q50.2 389.7 109.4 388.65 170.95 386.85 204.65 377.8 238.3 368.7 251.2 361.2 L251.9 365.5 Q252.9 370.15 255.7 374.3 L256.75 375.75 259.0 378.2 Q265.45 384.3 274.85 384.7 294.1 385.85 313.4 385.55 331.15 385.3 348.85 385.35 L380.3 386.75 401.35 389.8 412.65 389.45 413.7 389.15 413.95 389.1 Q423.6 386.65 425.4 377.65 L426.8 378.0 Q546.2 405.85 601.85 376.3" fill="none" stroke="#000000" stroke-linecap="round" stroke-linejoin="round" stroke-width="1.5"/>
    </g>
    <g id="sprite0" transform="matrix(1.0, 0.0, 0.0, 1.0, 4.75, 0.75)">
      <use ffdec:characterId="572" height="328.3" transform="matrix(1.0, 0.0, 0.0, 1.0, -0.75, -0.75)" width="70.0" xlink:href="#shape1"/>
    </g>
    <g id="shape1" transform="matrix(1.0, 0.0, 0.0, 1.0, 0.75, 0.75)">
      <path d="M21.0 71.25 Q21.55 45.6 23.2 15.35 L24.05 0.0 33.5 6.75 34.75 15.35 35.45 20.6 36.85 35.4 37.05 37.7 37.35 42.15 37.4 42.85 37.85 50.35 37.9 51.95 38.85 73.45 39.1 80.45 39.3 87.4 39.6 99.05 39.6 99.4 39.6 99.75 39.6 100.05 39.75 106.25 39.75 106.65 39.8 107.8 39.8 108.1 39.8 109.0 40.05 119.1 Q39.3 119.35 38.7 119.8 L36.0 121.65 35.45 121.85 Q32.3 123.0 29.3 124.3 L29.3 124.65 29.35 124.7 28.25 124.95 27.7 125.0 34.9 125.8 37.15 125.85 40.2 126.1 40.3 129.05 40.6 140.8 Q41.15 158.5 41.85 172.95 L41.5 172.75 Q39.4 174.45 36.5 175.25 L25.75 178.35 Q25.65 179.1 26.3 179.3 33.15 181.65 40.5 179.6 L40.8 179.3 42.05 177.45 Q42.8 192.8 43.8 204.1 L48.0 253.3 48.55 259.15 49.6 271.3 50.5 278.8 Q50.1 278.25 49.0 278.25 45.4 279.85 41.3 280.9 29.95 283.85 19.25 285.85 19.2 287.1 20.5 287.1 L26.5 287.6 30.65 288.1 Q41.65 292.0 51.3 283.95 55.7 308.9 68.5 326.8 L0.0 326.8 3.8 308.25 Q8.2 286.0 10.85 269.05 L11.95 268.85 11.95 268.9 12.65 268.9 13.3 268.6 15.65 267.95 Q18.05 267.45 20.1 266.2 L21.95 265.2 21.45 265.2 20.7 265.15 20.65 265.1 19.3 264.8 17.1 264.8 Q15.45 264.65 13.95 264.1 12.8 263.7 11.75 263.1 L13.4 250.25 16.4 221.35 16.9 221.3 24.7 219.55 Q32.8 217.75 40.0 213.6 L40.3 213.3 40.7 212.6 40.75 212.25 Q40.45 211.85 40.1 211.85 L25.7 210.45 Q22.0 210.05 19.1 208.0 L18.5 207.8 17.7 207.75 19.0 193.1 19.15 190.8 Q20.15 177.7 20.6 159.1 L20.75 108.75 20.75 108.35 20.75 107.6 Q20.6 94.1 20.85 78.9 L20.85 78.6 21.1 78.8 21.55 79.05 24.4 77.05 24.45 77.0 Q26.25 75.75 32.0 74.0 L29.75 73.75 Q25.2 73.15 21.0 71.25 M36.85 35.4 Q36.35 31.75 36.15 27.8 L35.9 27.8 Q35.7 27.85 34.6 29.45 33.45 31.0 25.25 34.35 25.15 35.1 25.75 35.15 L36.5 35.45 36.85 35.4" fill="url(#gradient0)" fill-rule="evenodd" stroke="none"/>
      <path d="M13.95 264.1 Q15.45 264.65 17.1 264.8 L20.7 265.15 20.75 265.55 20.65 265.8 20.1 266.2 Q18.05 267.45 15.65 267.95 L15.0 268.05 Q14.1 268.2 13.3 268.6 L11.95 268.85 Q11.8 267.85 12.0 266.7 L11.9 265.4 11.55 264.5 10.9 263.45 11.1 263.15 11.7 263.4 13.95 264.1 M40.05 119.1 L40.2 119.05 Q41.0 120.55 39.75 122.35 38.8 123.8 38.7 125.55 35.65 125.85 32.55 125.55 L30.25 125.25 30.2 125.2 30.2 125.15 33.1 123.45 40.05 119.65 40.05 119.1 M32.25 124.7 L32.4 124.75 32.4 124.6 32.25 124.7 M12.9 267.55 L12.85 267.65 12.95 267.65 12.9 267.55" fill="#007e91" fill-rule="evenodd" stroke="none"/>
      <path d="M21.0 71.25 Q25.2 73.15 29.75 73.75 L32.0 74.0 Q26.25 75.75 24.45 77.0 L24.4 77.05 21.55 79.05 21.1 78.8 20.85 78.6 21.0 71.25" fill="url(#gradient1)" fill-rule="evenodd" stroke="none"/>
      <path d="M17.7 207.75 L18.5 207.8 19.1 208.0 Q22.0 210.05 25.7 210.45 L40.1 211.85 Q40.45 211.85 40.75 212.25 L40.7 212.6 40.3 213.3 40.0 213.6 Q32.8 217.75 24.7 219.55 L16.9 221.3 16.4 221.35 17.7 207.75 M19.25 217.35 L19.25 217.75 19.4 217.7 19.25 217.35" fill="url(#gradient2)" fill-rule="evenodd" stroke="none"/>
      <path d="M36.85 35.4 L36.5 35.45 25.75 35.15 Q25.15 35.1 25.25 34.35 33.45 31.0 34.6 29.45 35.7 27.85 35.9 27.8 L36.15 27.8 Q36.35 31.75 36.85 35.4" fill="url(#gradient3)" fill-rule="evenodd" stroke="none"/>
      <path d="M42.05 177.45 L40.8 179.3 40.5 179.6 Q33.15 181.65 26.3 179.3 25.65 179.1 25.75 178.35 L36.5 175.25 Q39.4 174.45 41.5 172.75 L41.85 172.95 42.05 177.45" fill="url(#gradient4)" fill-rule="evenodd" stroke="none"/>
      <path d="M51.3 283.95 Q41.65 292.0 30.65 288.1 L26.5 287.6 20.5 287.1 Q19.2 287.1 19.25 285.85 29.95 283.85 41.3 280.9 45.4 279.85 49.0 278.25 50.1 278.25 50.5 278.8 L50.6 279.75 50.55 279.95 50.35 280.35 50.65 281.5 50.75 281.85 50.95 281.9 51.3 283.95" fill="url(#gradient5)" fill-rule="evenodd" stroke="none"/>
      <path d="M36.05 6.9 L36.1 7.1 36.25 7.4 36.3 7.55 Q34.95 9.55 31.85 8.35 26.75 6.5 24.05 1.85 23.9 1.4 24.05 0.9 L24.35 0.45 25.0 0.25 25.0 0.2 25.4 0.35 25.7 0.45 Q29.0 6.2 35.8 6.85 L36.05 6.9 M28.5 16.35 L28.55 23.35 28.55 30.25 28.55 31.5 29.25 31.55 Q32.65 29.85 35.3 27.45 35.85 27.4 36.1 27.8 L36.15 27.95 Q34.65 30.5 31.75 32.1 30.1 33.05 28.55 32.95 L28.55 33.05 26.75 32.75 Q26.75 33.95 27.45 34.65 L27.5 34.8 28.55 35.45 28.55 37.25 28.55 44.15 28.6 51.15 28.6 58.05 28.6 65.05 28.6 71.95 28.6 72.6 31.5 73.45 31.5 73.85 31.35 74.1 Q28.75 74.5 26.65 73.55 23.35 73.35 20.55 71.05 L20.45 70.75 20.45 70.45 20.45 70.3 20.6 70.0 20.9 69.7 21.15 69.6 21.45 69.55 21.45 69.5 23.95 70.7 24.15 70.5 24.0 62.1 23.9 49.65 23.95 42.35 24.05 35.75 Q24.1 31.6 24.5 27.4 L24.95 22.8 Q25.15 20.9 25.5 19.0 L26.05 16.0 28.5 16.35 M23.95 220.1 L25.25 219.35 25.25 219.2 26.75 218.0 26.35 224.45 25.95 231.85 25.4 239.25 24.9 246.6 24.55 251.4 24.2 256.1 23.9 260.8 23.5 265.5 23.15 270.25 22.8 274.95 22.5 279.65 22.2 283.15 23.95 282.95 25.3 282.85 Q36.9 280.65 47.95 276.65 L48.4 276.5 49.2 276.65 49.5 276.75 49.7 277.05 49.85 277.55 49.75 277.85 49.5 278.3 Q38.65 282.65 27.05 284.85 L23.4 285.75 21.95 285.9 21.5 289.3 19.9 298.85 18.9 303.45 Q17.8 308.0 15.95 312.2 L14.0 316.35 12.0 320.45 10.85 315.7 Q10.4 313.2 10.4 310.65 10.4 307.9 10.85 305.2 11.35 302.25 12.15 299.35 L13.6 293.95 15.0 288.45 16.1 282.9 17.1 277.3 18.15 269.95 18.9 264.75 Q15.2 264.6 12.3 262.45 L12.35 262.15 12.45 261.85 12.7 261.55 12.9 261.4 13.35 261.3 19.15 262.6 20.0 255.3 20.85 247.9 21.6 240.55 22.3 233.15 22.9 225.75 23.3 220.2 23.95 220.1 M24.25 77.9 Q26.3 76.25 28.65 75.4 L28.7 78.95 28.7 85.85 28.75 92.85 28.75 99.75 28.85 106.75 28.85 113.65 28.85 120.6 28.85 122.6 Q34.2 122.25 38.25 118.2 38.3 118.1 38.4 118.1 38.8 118.1 39.0 118.45 L39.05 118.6 Q36.2 122.95 30.75 124.15 L28.85 124.2 28.85 127.5 28.95 135.05 28.9 142.55 28.85 150.05 28.8 157.5 28.65 165.0 28.5 172.45 28.45 176.5 Q35.3 175.05 41.45 171.45 L41.95 171.7 42.05 171.8 42.1 172.4 42.0 172.8 Q37.35 175.45 32.3 177.45 L26.75 177.8 26.65 177.65 25.65 178.1 Q26.7 179.35 28.3 180.05 L28.1 187.35 27.8 194.85 27.5 202.25 27.2 209.65 27.2 209.85 30.15 209.65 32.1 209.45 Q37.25 209.2 41.55 211.05 L41.55 211.3 41.35 211.75 24.05 210.4 Q20.5 210.1 18.3 207.2 18.1 206.65 18.5 206.25 L18.95 206.05 Q21.15 208.35 23.95 209.25 L24.3 203.35 24.6 195.85 24.85 188.35 25.05 180.85 25.15 173.35 25.2 165.85 25.15 158.25 25.1 150.85 25.05 143.55 24.95 136.5 24.9 129.6 24.85 122.95 24.8 116.45 24.7 110.15 24.6 104.05 24.6 101.1 24.6 98.15 24.6 95.3 24.55 92.45 24.5 89.7 24.4 86.95 24.35 84.25 24.3 81.55 24.25 77.9" fill="#ffffff" fill-rule="evenodd" stroke="none"/>
      <path d="M21.0 71.25 L20.85 78.6 Q20.65 77.15 20.75 75.6 L20.65 75.3 Q19.35 73.35 20.45 71.65 L21.0 71.25 M17.7 207.75 L16.4 221.35 15.85 221.1 Q16.0 218.5 16.7 215.85 L16.75 215.5 Q16.45 212.85 17.1 210.6 16.8 210.1 16.85 208.5 16.85 207.85 17.5 207.75 L17.7 207.75 M11.75 263.1 Q12.8 263.7 13.95 264.1 L11.7 263.4 11.1 263.15 11.3 263.0 11.45 262.95 11.75 263.1 11.7 263.4 11.75 263.1 M17.1 264.8 L19.3 264.8 20.65 265.1 20.7 265.15 17.1 264.8 M13.3 268.6 L12.65 268.9 11.95 268.9 11.95 268.85 13.3 268.6 M40.05 119.65 L33.1 123.45 36.0 121.65 38.7 119.8 Q39.3 119.35 40.05 119.1 L40.05 119.65 M41.85 172.95 Q43.2 173.8 42.7 175.65 L42.75 176.0 42.05 177.45 41.85 172.95 M50.95 281.9 Q51.85 282.25 51.55 283.45 L51.35 283.85 51.3 283.95 50.95 281.9" fill="#00edf9" fill-rule="evenodd" stroke="none"/>
      <path d="M20.7 265.15 L21.45 265.2 21.95 265.2 20.1 266.2 20.65 265.8 20.75 265.55 20.7 265.15 M15.65 267.95 L13.3 268.6 Q14.1 268.2 15.0 268.05 L15.65 267.95 M11.95 268.85 L10.85 269.05 11.55 264.5 11.9 265.4 12.0 266.7 Q11.8 267.85 11.95 268.85 M29.35 124.7 L30.2 125.2 30.25 125.25 32.55 125.55 34.9 125.8 27.7 125.0 28.25 124.95 29.35 124.7 M50.6 279.75 L50.95 281.9 50.75 281.85 50.65 281.5 50.35 280.35 50.55 279.95 50.6 279.75 M19.4 217.7 L19.25 217.75 19.25 217.35 19.4 217.7 M12.95 267.65 L12.85 267.65 12.9 267.55 12.95 267.65" fill="url(#gradient6)" fill-rule="evenodd" stroke="none"/>
      <path d="M40.05 119.1 L39.8 109.0 39.8 108.1 39.8 107.8 39.75 106.65 39.75 106.25 39.6 100.05 39.6 99.75 39.6 99.4 39.6 99.05 39.3 87.4 39.1 80.45 38.85 73.45 37.9 51.95 37.85 50.35 37.4 42.85 37.35 42.15 37.05 37.7 36.85 35.4 35.45 20.6 34.75 15.35 33.5 6.75 24.05 0.0 23.2 15.35 Q21.55 45.6 21.0 71.25 L20.85 78.6 20.85 78.9 Q20.6 94.1 20.75 107.6 L20.75 108.35 20.75 108.75 20.6 159.1 Q20.15 177.7 19.15 190.8 L19.0 193.1 17.7 207.75 16.4 221.35 13.4 250.25 11.75 263.1 11.7 263.4 M10.85 269.05 Q8.2 286.0 3.8 308.25 L0.0 326.8 M40.2 125.6 L40.2 126.1 40.3 129.05 40.6 140.8 Q41.15 158.5 41.85 172.95 L42.05 177.45 Q42.8 192.8 43.8 204.1 L48.0 253.3 48.55 259.15 49.6 271.3 50.5 278.8 50.6 279.75 50.95 281.9 51.3 283.95 Q55.7 308.9 68.5 326.8 M40.05 119.1 L40.05 119.65" fill="none" stroke="#000000" stroke-linecap="round" stroke-linejoin="round" stroke-width="1.5"/>
      <path d="M13.95 264.1 Q15.45 264.65 17.1 264.8 L20.7 265.15 21.45 265.2 21.95 265.2 20.1 266.2 Q18.05 267.45 15.65 267.95 L13.3 268.6 11.95 268.85 10.85 269.05 M40.05 119.65 L33.1 123.45 29.35 124.7 28.25 124.95 27.7 125.0 34.9 125.8 40.2 125.6 M11.7 263.4 L13.95 264.1 M11.7 263.4 L11.1 263.15" fill="none" stroke="#000000" stroke-linecap="round" stroke-linejoin="round" stroke-width="1.5"/>
    </g>
    <linearGradient gradientTransform="matrix(0.0374, 0.0023, -0.0123, 0.199, 37.25, 162.4)" gradientUnits="userSpaceOnUse" id="gradient0" spreadMethod="pad" x1="-819.2" x2="819.2">
      <stop offset="0.0" stop-color="#ffffff"/>
      <stop offset="0.32941176470588235" stop-color="#d4ffff" stop-opacity="0.9019608"/>
      <stop offset="1.0" stop-color="#33ffff" stop-opacity="0.5019608"/>
    </linearGradient>
    <linearGradient gradientTransform="matrix(0.0068, 0.0, 0.0, 0.0048, 26.4, 75.15)" gradientUnits="userSpaceOnUse" id="gradient1" spreadMethod="pad" x1="-819.2" x2="819.2">
      <stop offset="0.0" stop-color="#028e8d" stop-opacity="0.5019608"/>
      <stop offset="1.0" stop-color="#9feae9"/>
    </linearGradient>
    <linearGradient gradientTransform="matrix(0.0149, 0.0, 0.0, 0.0083, 28.55, 214.55)" gradientUnits="userSpaceOnUse" id="gradient2" spreadMethod="pad" x1="-819.2" x2="819.2">
      <stop offset="0.0" stop-color="#028e8d" stop-opacity="0.5019608"/>
      <stop offset="1.0" stop-color="#9feae9"/>
    </linearGradient>
    <linearGradient gradientTransform="matrix(0.0071, 0.0, 0.0, 0.0047, 31.05, 31.6)" gradientUnits="userSpaceOnUse" id="gradient3" spreadMethod="pad" x1="-819.2" x2="819.2">
      <stop offset="0.0" stop-color="#9feae9"/>
      <stop offset="1.0" stop-color="#028e8d" stop-opacity="0.5019608"/>
    </linearGradient>
    <linearGradient gradientTransform="matrix(0.0099, 0.0, 0.0, 0.0048, 33.9, 176.65)" gradientUnits="userSpaceOnUse" id="gradient4" spreadMethod="pad" x1="-819.2" x2="819.2">
      <stop offset="0.0" stop-color="#9feae9"/>
      <stop offset="1.0" stop-color="#028e8d" stop-opacity="0.5019608"/>
    </linearGradient>
    <linearGradient gradientTransform="matrix(0.0196, 0.0, 0.0, 0.0068, 35.25, 283.8)" gradientUnits="userSpaceOnUse" id="gradient5" spreadMethod="pad" x1="-819.2" x2="819.2">
      <stop offset="0.0" stop-color="#9feae9"/>
      <stop offset="1.0" stop-color="#028e8d" stop-opacity="0.5019608"/>
    </linearGradient>
    <linearGradient gradientTransform="matrix(0.0374, 0.0023, -0.0123, 0.199, 37.25, 162.4)" gradientUnits="userSpaceOnUse" id="gradient6" spreadMethod="pad" x1="-819.2" x2="819.2">
      <stop offset="0.0" stop-color="#ffffff"/>
      <stop offset="0.32941176470588235" stop-color="#d4ffff" stop-opacity="0.9019608"/>
      <stop offset="1.0" stop-color="#33ffff" stop-opacity="0.5019608"/>
    </linearGradient>
    <g id="shape2" transform="matrix(1.0, 0.0, 0.0, 1.0, -239.05, -372.85)">
      <path d="M250.9 380.1 L250.75 380.15 248.4 379.5 250.9 380.1" fill="#000000" fill-rule="evenodd" stroke="none"/>
      <path d="M315.55 381.4 Q321.95 382.3 328.1 384.5 331.85 385.8 334.8 388.45 L338.7 392.2 339.0 391.95 339.6 391.35 340.65 390.25 342.35 389.6 Q347.5 387.5 353.55 386.8 L352.8 388.75 352.55 389.5 Q350.65 394.65 347.5 398.4 L347.2 399.5 352.55 399.5 Q350.65 404.65 347.5 408.4 L347.2 409.5 352.55 409.5 Q351.55 412.2 350.2 414.5 L352.55 414.5 350.5 419.0 254.55 419.0 Q253.55 416.85 253.1 414.5 L254.8 414.5 Q253.6 412.15 253.1 409.5 L258.3 409.5 Q254.2 405.2 253.1 399.5 L258.3 399.5 Q254.2 395.2 253.1 389.5 252.45 386.0 252.9 381.9 L242.05 383.0 Q244.5 382.55 244.55 381.65 253.5 381.5 253.5 381.85 L253.65 385.0 Q253.75 383.4 254.25 381.8 L254.45 381.2 269.65 383.1 Q275.7 383.25 280.85 381.5 290.2 384.35 300.55 383.85 L305.3 383.35 311.25 382.7 Q313.5 382.35 315.55 381.4 M254.0 381.1 L244.5 381.5 244.5 381.4 244.25 380.95 Q243.25 379.75 239.05 377.95 250.7 380.35 239.1 377.15 L244.1 378.45 244.05 378.5 245.3 378.75 247.8 379.35 Q249.1 379.75 250.35 380.3 L250.65 380.45 254.0 381.1" fill="#ffffff" fill-rule="evenodd" stroke="none"/>
      <path d="M244.1 378.45 L245.3 378.75 244.05 378.5 244.1 378.45" fill="#caeafe" fill-rule="evenodd" stroke="none"/>
      <path d="M353.55 386.8 Q347.5 387.5 342.35 389.6 L340.65 390.25 339.6 391.35 339.0 391.95 338.7 392.2 334.8 388.45 Q331.85 385.8 328.1 384.5 321.95 382.3 315.55 381.4 L317.45 380.35 318.4 379.8 Q325.5 378.2 332.9 378.3 L335.1 379.2 Q344.05 383.4 353.05 385.25 L353.55 385.0 353.6 385.35 353.55 386.8 M280.85 381.5 Q275.7 383.25 269.65 383.1 L254.45 381.2 254.5 381.1 254.0 381.1 250.65 380.45 250.35 380.3 Q249.1 379.75 247.8 379.35 L248.4 379.5 250.75 380.15 250.9 380.1 252.1 380.35 251.65 380.0 251.85 380.0 258.7 379.05 261.55 378.6 269.05 377.0 Q270.9 377.45 272.45 378.2 276.55 380.2 280.85 381.5" fill="#d5eaff" fill-rule="evenodd" stroke="none"/>
      <path d="M332.9 378.3 Q325.5 378.2 318.4 379.8 L317.45 380.35 Q314.6 382.2 311.25 382.7 L305.3 383.35 300.55 383.85 Q285.45 384.55 272.45 378.2 270.9 377.45 269.05 377.0 267.25 377.9 251.65 380.0 L251.55 379.35 Q257.3 378.3 263.85 375.95 L264.8 375.6 268.25 372.95 268.3 372.85 Q269.35 373.05 269.8 373.95 L269.9 374.0 Q283.7 382.95 301.35 381.3 L310.4 380.15 Q314.3 379.55 317.9 377.75 323.75 374.8 330.2 375.1 L331.65 375.2 336.4 376.0 Q337.75 376.8 338.5 377.9 347.35 382.15 355.8 385.75 L353.6 385.35 353.55 385.0 353.05 385.25 Q344.05 383.4 335.1 379.2 L332.9 378.3" fill="#000000" fill-rule="evenodd" stroke="none"/>
    </g>
    <g id="sprite1" transform="matrix(1.0, 0.0, 0.0, 1.0, 25.9, 99.2)">
      <use ffdec:characterId="507" height="232.2" id="mcBonusPipeSilhouette" transform="matrix(1.0, 0.0, 0.0, 1.0, -21.35, -41.35)" width="161.85" xlink:href="#sprite2"/>
      <use ffdec:characterId="507" height="232.2" id="mcBonusPipe" transform="matrix(1.0, 0.0, 0.0, 1.0, -21.35, -41.35)" width="161.85" xlink:href="#sprite3"/>
      <use ffdec:characterId="508" height="13.3" transform="matrix(1.0, 0.0, 0.0, 1.0, 4.15, -89.95)" width="11.35" xlink:href="#shape7"/>
      <use ffdec:characterId="509" height="328.85" transform="matrix(1.0, 0.0, 0.0, 1.0, -0.75, -0.75)" width="5.95" xlink:href="#shape8"/>
    </g>
    <g id="sprite2" transform="matrix(1.0, 0.0, 0.0, 1.0, 46.35, 160.6)">
      <use ffdec:characterId="496" height="59.85" transform="matrix(1.0, 0.0, 0.0, 1.0, -31.8, -14.25)" width="78.75" xlink:href="#shape3"/>
      <use ffdec:characterId="497" height="5.4" transform="matrix(1.0, 0.0, 0.0, 1.0, 19.55, -9.8)" width="5.4" xlink:href="#shape4"/>
      <use ffdec:characterId="497" height="5.4" transform="matrix(1.0, 0.0, 0.0, 1.0, 26.0, -8.6)" width="5.4" xlink:href="#shape4"/>
      <use ffdec:characterId="497" height="5.4" transform="matrix(1.0, 0.0, 0.0, 1.0, 32.85, -8.4)" width="5.4" xlink:href="#shape4"/>
      <use ffdec:characterId="497" height="5.4" transform="matrix(1.0, 0.0, 0.0, 1.0, 39.65, -9.4)" width="5.4" xlink:href="#shape4"/>
    </g>
    <g id="shape3" transform="matrix(1.0, 0.0, 0.0, 1.0, 31.8, 14.25)">
      <path d="M12.85 11.4 L12.85 11.6 12.85 12.1 12.7 12.55 12.9 14.85 12.35 12.65 12.8 11.35 12.85 11.4 M14.1 23.65 L14.15 23.8 14.1 23.7 14.1 23.65 M19.4 33.45 L20.7 34.65 20.85 35.1 21.35 35.25 21.4 35.5 20.85 35.2 19.75 34.1 19.4 33.45 M21.85 35.9 L21.95 36.0 22.0 36.1 22.1 36.3 22.25 36.45 22.3 36.55 22.3 36.6 21.95 36.3 21.85 35.9" fill="#93d1fa" fill-opacity="0.8980392" fill-rule="evenodd" stroke="none"/>
      <path d="M4.45 14.35 L4.35 17.4 4.1 17.8 Q3.45 21.85 3.1 26.15 3.05 20.0 4.15 14.85 L4.45 14.35 M3.25 33.0 L3.45 35.0 3.7 35.4 4.05 38.6 3.95 38.5 3.4 35.1 3.25 33.45 3.25 33.0" fill="#94d2fb" fill-opacity="0.8980392" fill-rule="evenodd" stroke="none"/>
      <path d="M4.55 13.4 Q4.45 13.8 4.5 14.3 L4.45 14.35 4.5 13.35 4.55 13.4" fill="url(#gradient7)" fill-rule="evenodd" stroke="none"/>
      <path d="M14.15 23.8 L15.2 25.85 Q15.85 27.75 16.95 29.1 L19.4 33.45 18.9 33.0 18.75 32.4 Q18.1 31.75 18.0 31.1 L17.85 30.75 17.6 30.4 17.35 30.0 16.95 29.5 15.45 26.8 14.85 25.95 14.8 25.7 14.75 25.55 14.7 25.4 14.65 25.25 14.5 25.1 14.35 24.95 14.15 23.8" fill="url(#gradient8)" fill-rule="evenodd" stroke="none"/>
      <path d="M3.1 26.15 L3.1 26.5 3.25 33.0 2.8 31.75 3.1 26.15" fill="url(#gradient9)" fill-rule="evenodd" stroke="none"/>
      <path d="M5.65 44.5 L5.5 44.5 4.75 43.4 4.05 38.6 4.35 38.9 4.7 41.35 4.9 41.7 5.2 42.3 5.25 43.8 5.65 44.5" fill="url(#gradient10)" fill-rule="evenodd" stroke="none"/>
      <path d="M21.4 35.5 L21.75 35.65 21.85 35.9 21.8 35.85 21.7 35.85 21.65 35.7 21.4 35.5" fill="url(#gradient11)" fill-rule="evenodd" stroke="none"/>
      <path d="M24.85 38.1 L24.65 38.45 23.6 37.85 23.45 37.5 22.55 36.9 22.4 36.75 22.3 36.6 Q23.6 37.5 24.75 38.05 L24.85 38.1" fill="url(#gradient12)" fill-rule="evenodd" stroke="none"/>
      <path d="M12.65 18.45 L12.7 17.85 12.8 15.6 12.9 14.85 Q13.5 18.1 13.45 21.75 L13.75 22.75 13.6 22.4 13.55 22.15 Q13.25 21.9 13.25 21.65 L13.3 20.9 13.0 20.6 12.7 19.3 12.65 18.9 12.65 18.45" fill="url(#gradient13)" fill-rule="evenodd" stroke="none"/>
      <path d="M13.75 22.85 L13.75 22.75 14.1 23.65 14.05 23.6 13.9 23.3 13.85 23.15 13.8 23.0 13.75 22.85" fill="url(#gradient14)" fill-rule="evenodd" stroke="none"/>
      <path d="M20.85 3.75 L20.65 3.35 20.65 3.3 20.55 3.2 20.35 2.8 20.3 2.7 20.2 2.5 20.15 2.45 20.2 2.4 20.3 2.05 20.4 1.6 Q20.8 0.1 19.8 -2.9 22.05 -0.8 23.9 -0.45 L27.7 -0.05 31.6 0.0 35.55 -0.05 39.35 -0.5 43.15 -1.15 Q44.1 -1.45 44.95 -1.9 L45.05 -1.25 44.4 2.0 44.25 3.35 44.2 3.6 44.2 4.0 44.2 4.15 44.2 4.6 44.2 4.9 44.3 6.1 44.3 6.2 44.35 6.35 44.75 7.85 45.95 10.0 Q40.95 14.4 39.65 20.55 39.15 22.9 39.2 25.5 L39.3 27.15 33.45 29.05 32.7 29.35 Q29.85 30.7 27.15 34.4 L24.85 38.1 M24.65 38.45 L24.5 38.65 20.95 38.1 17.7 38.0 15.0 38.35 Q12.65 38.9 11.2 40.25 L11.1 40.3 6.5 44.6 5.65 44.5 M4.75 43.4 L3.75 42.0 2.75 40.95 Q1.85 40.3 0.95 40.35 L-2.75 40.5 -30.15 41.2 M19.6 8.4 L19.75 8.2 21.0 6.15 21.2 5.1 21.1 4.45 M12.85 11.6 Q14.65 13.0 15.7 12.85 L16.35 12.7 Q17.05 12.5 17.6 12.0 18.35 11.25 18.8 9.1 M12.85 11.4 L12.8 11.35 12.35 12.65 12.15 13.15 11.15 14.35 10.55 14.9 Q9.15 15.45 8.0 15.4 L6.3 15.0 5.75 14.65 4.55 13.4 M4.5 13.35 L4.2 12.75 3.9 12.75 3.4 13.6 Q2.45 15.15 0.85 16.4 L-2.75 16.55 -29.6 17.0" fill="none" stroke="#97d6ff" stroke-linecap="round" stroke-linejoin="round" stroke-opacity="0.8980392" stroke-width="2.0"/>
      <path d="M20.85 3.75 L20.65 3.35 20.65 3.3 20.55 3.2 20.35 2.8 20.3 2.7 20.2 2.5 20.15 2.45 20.2 2.4 20.3 2.05 20.4 1.6 Q20.8 0.1 20.35 -1.2 L23.9 -0.45 27.7 -0.05 31.6 0.0 35.55 -0.05 39.35 -0.5 43.15 -1.15 Q44.1 -1.45 44.95 -1.9 L45.05 -1.25 44.4 2.0 44.25 3.35 44.2 3.6 44.2 4.0 44.2 4.15 44.2 4.6 44.2 4.9 44.3 6.1 44.3 6.2 44.35 6.35 41.9 6.35 29.7 5.6 Q25.05 5.05 20.85 3.75" fill="url(#gradient15)" fill-rule="evenodd" stroke="none"/>
      <path d="M44.35 6.35 L44.75 7.85 45.8 9.75 44.2 9.9 Q36.5 9.95 30.1 8.1 29.7 8.0 29.55 7.75 L28.35 7.75 28.0 7.35 25.45 6.6 25.1 6.2 24.1 6.0 23.75 5.6 22.0 5.05 21.25 4.45 21.1 4.4 20.85 3.75 Q25.05 5.05 29.7 5.6 L41.9 6.35 44.35 6.35 M39.65 20.55 Q39.15 22.9 39.2 25.5 L39.25 26.0 38.8 25.95 38.6 25.9 Q36.6 25.7 34.8 24.8 L33.6 24.55 Q32.4 23.8 31.2 23.55 L30.45 23.1 29.9 23.0 29.55 22.6 28.75 22.2 28.55 21.65 Q27.8 21.2 27.4 20.5 26.6 19.0 25.6 18.15 L24.95 17.6 24.9 17.4 Q23.55 16.2 22.7 14.85 L22.35 14.15 22.25 13.9 22.2 13.7 21.8 13.35 Q21.45 12.15 20.45 11.4 L18.9 9.05 19.15 8.85 19.6 8.4 Q22.95 12.85 29.05 16.25 34.2 19.05 39.65 20.55 M27.15 34.4 L24.85 38.1 24.75 38.05 Q23.6 37.5 22.3 36.6 L22.3 36.55 22.25 36.45 22.1 36.3 22.0 36.1 21.95 36.0 21.85 35.9 21.75 35.65 21.4 35.5 21.35 35.25 20.85 35.1 20.7 34.65 19.4 33.45 16.95 29.1 Q15.85 27.75 15.2 25.85 L14.15 23.8 14.1 23.65 13.75 22.75 13.45 21.75 Q13.5 18.1 12.9 14.85 L12.7 12.55 12.85 12.1 12.85 11.4 13.1 11.6 Q13.95 16.15 16.1 20.55 18.25 25.0 21.45 28.8 24.0 31.8 27.15 34.4" fill="#94d2fb" fill-opacity="0.8980392" fill-rule="evenodd" stroke="none"/>
      <path d="M45.8 9.75 L45.95 10.0 Q40.95 14.4 39.65 20.55 34.2 19.05 29.05 16.25 22.95 12.85 19.6 8.4 L19.75 8.2 21.0 6.15 21.2 5.1 21.1 4.45 21.1 4.4 21.25 4.45 22.0 5.05 23.75 5.6 24.1 6.0 25.1 6.2 25.45 6.6 28.0 7.35 28.35 7.75 29.55 7.75 Q29.7 8.0 30.1 8.1 36.5 9.95 44.2 9.9 L45.8 9.75" fill="url(#gradient16)" fill-rule="evenodd" stroke="none"/>
      <path d="M39.25 26.0 L39.3 27.15 33.45 29.05 32.7 29.35 Q29.85 30.7 27.15 34.4 24.0 31.8 21.45 28.8 18.25 25.0 16.1 20.55 13.95 16.15 13.1 11.6 14.65 13.0 15.7 12.85 L16.35 12.7 Q17.05 12.5 17.6 12.0 18.35 11.25 18.8 9.1 L18.9 9.05 20.45 11.4 Q21.45 12.15 21.8 13.35 L22.2 13.7 22.25 13.9 22.35 14.15 22.7 14.85 Q23.55 16.2 24.9 17.4 L24.95 17.6 25.6 18.15 Q26.6 19.0 27.4 20.5 27.8 21.2 28.55 21.65 L28.75 22.2 29.55 22.6 29.9 23.0 30.45 23.1 31.2 23.55 Q32.4 23.8 33.6 24.55 L34.8 24.8 Q36.6 25.7 38.6 25.9 L38.8 25.95 39.25 26.0" fill="url(#gradient17)" fill-rule="evenodd" stroke="none"/>
      <path d="M22.3 36.6 L22.4 36.75 22.55 36.9 23.45 37.5 23.6 37.85 24.65 38.45 24.5 38.65 20.95 38.1 17.7 38.0 15.0 38.35 Q12.65 38.9 11.2 40.25 L11.1 40.3 10.55 39.35 Q6.75 32.4 5.8 24.6 5.15 19.45 5.75 14.65 L6.3 15.0 8.0 15.4 Q9.15 15.45 10.55 14.9 L11.15 14.35 12.15 13.15 12.35 12.65 12.9 14.85 12.8 15.6 12.7 17.85 12.65 18.45 12.65 18.9 12.7 19.3 13.0 20.6 13.3 20.9 13.25 21.65 Q13.25 21.9 13.55 22.15 L13.6 22.4 13.75 22.75 13.75 22.85 13.8 23.0 13.85 23.15 13.9 23.3 14.05 23.6 14.1 23.65 14.1 23.7 14.15 23.8 14.35 24.95 14.5 25.1 14.65 25.25 14.7 25.4 14.75 25.55 14.8 25.7 14.85 25.95 15.45 26.8 16.95 29.5 17.35 30.0 17.6 30.4 17.85 30.75 18.0 31.1 Q18.1 31.75 18.75 32.4 L18.9 33.0 19.4 33.45 19.75 34.1 20.85 35.2 21.4 35.5 21.65 35.7 21.7 35.85 21.8 35.85 21.85 35.9 21.95 36.3 22.3 36.6" fill="url(#gradient18)" fill-rule="evenodd" stroke="none"/>
      <path d="M4.05 38.6 L4.75 43.4 3.75 42.0 2.75 40.95 Q1.85 40.3 0.95 40.35 L-2.75 40.4 -2.75 16.6 0.85 16.4 Q2.45 15.15 3.4 13.6 L3.9 12.75 4.2 12.75 4.5 13.35 4.45 14.35 4.15 14.85 Q3.05 20.0 3.1 26.15 L2.8 31.75 3.25 33.0 3.25 33.45 3.4 35.1 3.95 38.5 4.05 38.6" fill="#93d1fa" fill-opacity="0.8980392" fill-rule="evenodd" stroke="none"/>
      <path d="M11.1 40.3 L6.5 44.6 5.65 44.5 5.25 43.8 5.2 42.3 4.9 41.7 4.7 41.35 4.35 38.9 4.05 38.6 3.7 35.4 3.45 35.0 3.25 33.0 3.1 26.5 3.1 26.15 Q3.45 21.85 4.1 17.8 L4.35 17.4 4.45 14.35 4.5 14.3 Q4.45 13.8 4.55 13.4 L5.75 14.65 Q5.15 19.45 5.8 24.6 6.75 32.4 10.55 39.35 L11.1 40.3" fill="url(#gradient19)" fill-rule="evenodd" stroke="none"/>
      <path d="M-2.75 40.4 L-29.9 40.4 Q-33.65 29.05 -29.9 17.65 L-2.75 16.6 -2.75 40.4" fill="url(#gradient20)" fill-rule="evenodd" stroke="none"/>
      <path d="M45.8 9.75 L44.2 9.9 Q36.5 9.95 30.1 8.1 29.7 8.0 29.55 7.75 L28.35 7.75 28.0 7.35 25.45 6.6 25.1 6.2 24.1 6.0 23.75 5.6 22.0 5.05 21.25 4.45 21.1 4.4 20.85 3.75 Q25.05 5.05 29.7 5.6 L41.9 6.35 44.35 6.35 44.75 7.85 45.8 9.75 M22.35 14.15 L22.25 13.9 22.2 13.7 21.8 13.35 Q21.45 12.15 20.45 11.4 L18.9 9.05 19.15 8.85 19.6 8.4 Q22.95 12.85 29.05 16.25 34.2 19.05 39.65 20.55 39.15 22.9 39.2 25.5 L39.25 26.0 38.8 25.95 38.6 25.9 Q36.6 25.7 34.8 24.8 L33.6 24.55 Q32.4 23.8 31.2 23.55 L30.45 23.1 29.9 23.0 29.55 22.6 28.75 22.2 28.55 21.65 Q27.8 21.2 27.4 20.5 26.6 19.0 25.6 18.15 L24.95 17.6 24.9 17.4 Q23.55 16.2 22.7 14.85 L22.35 14.15 M12.85 11.4 L13.1 11.6 Q13.95 16.15 16.1 20.55 18.25 25.0 21.45 28.8 24.0 31.8 27.15 34.4 25.85 36.15 24.65 38.45 L23.6 37.85 23.45 37.5 22.55 36.9 22.4 36.75 22.3 36.55 22.25 36.45 22.1 36.3 22.0 36.1 21.95 36.0 21.8 35.85 21.7 35.85 21.65 35.7 21.4 35.5 21.35 35.25 20.85 35.1 20.7 34.65 18.9 33.0 18.75 32.4 Q18.1 31.75 18.0 31.1 L17.85 30.75 17.6 30.4 17.35 30.0 16.95 29.5 15.45 26.8 14.85 25.95 14.8 25.7 14.75 25.55 14.7 25.4 14.65 25.25 14.5 25.1 14.35 24.95 14.15 23.8 14.05 23.6 13.9 23.3 13.85 23.15 13.8 23.0 13.75 22.85 13.75 22.75 13.6 22.4 13.55 22.15 Q13.25 21.9 13.25 21.65 L13.3 20.9 13.0 20.6 12.7 19.3 12.65 18.9 12.65 18.45 12.7 17.85 12.8 15.6 Q13.0 13.9 12.7 12.55 L12.85 12.1 12.85 11.4 M4.55 13.4 L5.75 14.65 Q5.15 19.45 5.8 25.3 6.45 31.1 8.6 35.3 L11.1 40.3 6.5 44.6 5.65 44.5 5.25 43.8 5.2 42.3 4.9 41.7 4.7 41.35 4.35 38.9 3.95 38.5 3.4 35.1 3.25 33.45 3.1 26.5 Q3.0 20.15 4.15 14.85 L4.5 14.3 Q4.45 13.8 4.55 13.4" fill="#94d2fb" fill-opacity="0.8980392" fill-rule="evenodd" stroke="none"/>
      <path d="M20.25 -0.95 L19.35 -3.35 Q28.55 0.4 37.7 -0.7 L45.1 -2.05 45.1 -1.35 Q42.7 -0.05 39.85 0.45 29.4 2.25 20.25 -0.95 M45.75 10.0 L39.2 9.8 34.35 9.15 29.2 7.65 23.75 5.65 21.45 5.0 20.05 2.4 24.65 4.4 Q27.75 5.75 31.05 6.8 L37.1 8.4 45.75 9.55 45.75 10.0 M3.75 12.75 L4.1 12.75 5.7 14.8 Q3.85 23.95 4.6 32.3 5.3 40.6 6.45 44.65 L5.3 44.4 Q1.5 35.55 2.5 24.85 L3.75 12.75 M12.1 14.75 Q12.25 13.15 12.45 12.9 L12.85 11.35 13.9 18.25 Q15.2 23.6 16.9 27.15 19.45 32.4 24.6 38.35 17.95 34.35 15.5 29.65 13.05 24.95 12.5 20.65 11.9 16.3 12.1 14.75 M19.75 8.15 Q25.45 18.45 32.0 22.4 L39.75 27.05 Q26.3 21.9 23.0 16.5 L18.65 9.25 19.75 8.15" fill="#90cef7" fill-opacity="0.8980392" fill-rule="evenodd" stroke="none"/>
      <path d="M18.6 -8.9 L18.7 -8.95 18.9 -9.0 19.0 -9.0 Q24.35 -7.4 30.05 -6.9 L41.8 -7.3 Q43.7 -7.6 45.45 -8.3 L45.75 -8.3 45.8 -8.3 46.1 -8.25 46.2 -8.2 Q47.2 -5.25 46.55 -2.15 L46.4 -1.95 45.85 -2.05 45.85 -2.1 Q44.65 -1.1 42.85 -0.85 33.95 0.65 25.1 -0.9 L23.75 -1.25 Q21.2 -1.95 18.85 -2.95 L18.7 -2.75 18.15 -2.8 Q17.8 -5.6 18.35 -8.45 L18.4 -8.7 18.45 -8.75 18.6 -8.9 M19.0 -3.9 Q23.9 -2.1 29.15 -1.7 L37.7 -1.35 Q41.9 -1.35 45.75 -2.8 L45.85 -2.8 45.4 -7.45 Q43.4 -6.0 40.6 -5.95 L36.45 -5.8 25.3 -6.3 Q22.05 -6.75 19.25 -7.85 L19.0 -3.9" fill="#97d6ff" fill-opacity="0.8980392" fill-rule="evenodd" stroke="none"/>
      <path d="M19.0 -3.9 L19.25 -7.85 Q22.05 -6.75 25.3 -6.3 L36.45 -5.8 40.6 -5.95 Q43.4 -6.0 45.4 -7.45 L45.85 -2.8 45.75 -2.8 Q41.9 -1.35 37.7 -1.35 L29.15 -1.7 Q23.9 -2.1 19.0 -3.9" fill="url(#gradient21)" fill-rule="evenodd" stroke="none"/>
      <path d="M0.6 14.65 L0.65 14.75 0.7 14.95 0.7 15.05 Q-0.7 20.45 -0.95 26.15 -1.25 32.05 -0.1 37.85 0.25 39.75 1.05 41.45 L1.05 41.75 1.05 41.8 1.0 42.1 0.95 42.25 Q-1.95 43.35 -5.05 42.8 L-5.25 42.65 Q-5.4 42.4 -5.2 42.1 L-5.15 42.1 Q-6.2 40.95 -6.5 39.15 -8.35 30.35 -7.15 21.45 L-6.85 20.1 -5.35 15.15 -5.55 15.0 -5.55 14.45 Q-2.75 14.0 0.1 14.4 L0.4 14.45 0.45 14.5 0.6 14.65 M-4.4 15.25 Q-6.0 20.2 -6.2 25.45 L-6.2 34.0 Q-6.05 38.2 -4.45 42.0 L-4.45 42.1 0.2 41.45 Q-1.35 39.5 -1.5 36.7 L-1.8 32.55 Q-2.25 27.0 -1.75 21.45 -1.45 18.2 -0.45 15.35 L-4.4 15.25" fill="#97d6ff" fill-opacity="0.8980392" fill-rule="evenodd" stroke="none"/>
      <path d="M-4.4 15.25 L-0.45 15.35 Q-1.45 18.2 -1.75 21.45 -2.25 27.0 -1.8 32.55 L-1.5 36.7 Q-1.35 39.5 0.2 41.45 L-4.45 42.1 -4.45 42.0 Q-6.05 38.2 -6.2 34.0 L-6.2 25.45 Q-6.0 20.2 -4.4 15.25" fill="url(#gradient22)" fill-rule="evenodd" stroke="none"/>
      <path d="M18.8 -13.9 L18.7 -13.95 25.5 -14.15 46.8 -14.2 46.75 -13.55 46.6 -13.5 46.55 -13.5 46.6 -13.5 Q46.7 -10.75 46.15 -8.0 L46.2 -8.0 46.15 -7.95 46.1 -7.7 45.9 -7.5 45.85 -7.75 Q42.35 -6.25 35.35 -5.5 28.4 -4.85 19.1 -7.8 L18.75 -8.25 18.65 -8.75 18.4 -9.35 Q17.95 -11.4 18.7 -13.8 L18.75 -13.8 18.85 -13.9 18.8 -13.9 M19.4 -8.9 L20.45 -8.15 Q33.0 -4.8 45.85 -7.85 L45.5 -13.45 36.45 -12.85 19.3 -13.35 19.15 -11.35 Q19.1 -9.15 19.4 -8.9 M46.3 -13.45 L46.35 -13.4 46.35 -13.45 46.3 -13.45" fill="#97d6ff" fill-opacity="0.8980392" fill-rule="evenodd" stroke="none"/>
      <path d="M18.75 -13.8 L18.8 -13.9 18.85 -13.9 18.75 -13.8 M46.3 -13.45 L46.35 -13.45 46.35 -13.4 46.3 -13.45" fill="url(#gradient23)" fill-rule="evenodd" stroke="none"/>
      <path d="M19.4 -8.9 Q19.1 -9.15 19.15 -11.35 L19.3 -13.35 36.45 -12.85 45.5 -13.45 45.85 -7.85 Q33.0 -4.8 20.45 -8.15 L19.4 -8.9" fill="url(#gradient24)" fill-rule="evenodd" stroke="none"/>
    </g>
    <linearGradient gradientTransform="matrix(1.0E-4, 0.0, 0.0, 6.0E-4, 4.5, 13.85)" gradientUnits="userSpaceOnUse" id="gradient7" spreadMethod="pad" x1="-819.2" x2="819.2">
      <stop offset="0.0" stop-color="#94d2fb" stop-opacity="0.8980392"/>
      <stop offset="1.0" stop-color="#93d1fa" stop-opacity="0.8980392"/>
    </linearGradient>
    <linearGradient gradientTransform="matrix(0.0032, 0.0, 0.0, 0.0059, 16.75, 28.6)" gradientUnits="userSpaceOnUse" id="gradient8" spreadMethod="pad" x1="-819.2" x2="819.2">
      <stop offset="0.0" stop-color="#94d2fb" stop-opacity="0.8980392"/>
      <stop offset="1.0" stop-color="#93d1fa" stop-opacity="0.8980392"/>
    </linearGradient>
    <linearGradient gradientTransform="matrix(3.0E-4, 0.0, 0.0, 0.0042, 3.0, 29.55)" gradientUnits="userSpaceOnUse" id="gradient9" spreadMethod="pad" x1="-819.2" x2="819.2">
      <stop offset="0.0" stop-color="#94d2fb" stop-opacity="0.8980392"/>
      <stop offset="1.0" stop-color="#93d1fa" stop-opacity="0.8980392"/>
    </linearGradient>
    <linearGradient gradientTransform="matrix(0.001, 0.0, 0.0, 0.0036, 4.85, 41.55)" gradientUnits="userSpaceOnUse" id="gradient10" spreadMethod="pad" x1="-819.2" x2="819.2">
      <stop offset="0.0" stop-color="#94d2fb" stop-opacity="0.8980392"/>
      <stop offset="1.0" stop-color="#93d1fa" stop-opacity="0.8980392"/>
    </linearGradient>
    <linearGradient gradientTransform="matrix(3.0E-4, 0.0, 0.0, 2.0E-4, 21.6, 35.7)" gradientUnits="userSpaceOnUse" id="gradient11" spreadMethod="pad" x1="-819.2" x2="819.2">
      <stop offset="0.0" stop-color="#94d2fb" stop-opacity="0.8980392"/>
      <stop offset="1.0" stop-color="#93d1fa" stop-opacity="0.8980392"/>
    </linearGradient>
    <linearGradient gradientTransform="matrix(0.0016, 0.0, 0.0, 0.0011, 23.55, 37.5)" gradientUnits="userSpaceOnUse" id="gradient12" spreadMethod="pad" x1="-819.2" x2="819.2">
      <stop offset="0.0" stop-color="#94d2fb" stop-opacity="0.8980392"/>
      <stop offset="1.0" stop-color="#93d1fa" stop-opacity="0.8980392"/>
    </linearGradient>
    <linearGradient gradientTransform="matrix(7.0E-4, 0.0, 0.0, 0.0048, 13.2, 18.8)" gradientUnits="userSpaceOnUse" id="gradient13" spreadMethod="pad" x1="-819.2" x2="819.2">
      <stop offset="0.0" stop-color="#94d2fb" stop-opacity="0.8980392"/>
      <stop offset="1.0" stop-color="#93d1fa" stop-opacity="0.8980392"/>
    </linearGradient>
    <linearGradient gradientTransform="matrix(2.0E-4, 0.0, 0.0, 5.0E-4, 13.9, 23.2)" gradientUnits="userSpaceOnUse" id="gradient14" spreadMethod="pad" x1="-819.2" x2="819.2">
      <stop offset="0.0" stop-color="#94d2fb" stop-opacity="0.8980392"/>
      <stop offset="1.0" stop-color="#93d1fa" stop-opacity="0.8980392"/>
    </linearGradient>
    <radialGradient cx="0" cy="0" gradientTransform="matrix(0.0148, 0.0, 0.0, 0.008, 32.9, 0.2)" gradientUnits="userSpaceOnUse" id="gradient15" r="819.2" spreadMethod="pad">
      <stop offset="0.0" stop-color="#92cff8" stop-opacity="0.8980392"/>
      <stop offset="1.0" stop-color="#94d2fb" stop-opacity="0.8980392"/>
    </radialGradient>
    <radialGradient cx="0" cy="0" gradientTransform="matrix(0.0032, -0.0081, 0.0164, 0.0064, 33.25, 10.25)" gradientUnits="userSpaceOnUse" id="gradient16" r="819.2" spreadMethod="pad">
      <stop offset="0.0" stop-color="#92cff8" stop-opacity="0.8980392"/>
      <stop offset="1.0" stop-color="#94d2fb" stop-opacity="0.8980392"/>
    </radialGradient>
    <radialGradient cx="0" cy="0" gradientTransform="matrix(0.0076, -0.0065, 0.0124, 0.0144, 26.75, 21.1)" gradientUnits="userSpaceOnUse" id="gradient17" r="819.2" spreadMethod="pad">
      <stop offset="0.0" stop-color="#92cff8" stop-opacity="0.8980392"/>
      <stop offset="1.0" stop-color="#94d2fb" stop-opacity="0.8980392"/>
    </radialGradient>
    <radialGradient cx="0" cy="0" gradientTransform="matrix(0.0099, -0.0027, 0.0049, 0.0184, 15.05, 26.45)" gradientUnits="userSpaceOnUse" id="gradient18" r="819.2" spreadMethod="pad">
      <stop offset="0.0" stop-color="#92cff8" stop-opacity="0.8980392"/>
      <stop offset="1.0" stop-color="#94d2fb" stop-opacity="0.8980392"/>
    </radialGradient>
    <linearGradient gradientTransform="matrix(0.0049, 0.0, 0.0, 0.019, 7.1, 29.0)" gradientUnits="userSpaceOnUse" id="gradient19" spreadMethod="pad" x1="-819.2" x2="819.2">
      <stop offset="0.0" stop-color="#94d2fb" stop-opacity="0.8980392"/>
      <stop offset="1.0" stop-color="#93d1fa" stop-opacity="0.8980392"/>
    </linearGradient>
    <linearGradient gradientTransform="matrix(6.0E-4, 0.0145, -0.0145, 6.0E-4, -22.0, 28.5)" gradientUnits="userSpaceOnUse" id="gradient20" spreadMethod="pad" x1="-819.2" x2="819.2">
      <stop offset="0.0" stop-color="#8fcdf6" stop-opacity="0.8980392"/>
      <stop offset="0.3333333333333333" stop-color="#8dcbf4" stop-opacity="0.8980392"/>
      <stop offset="0.611764705882353" stop-color="#90cef6" stop-opacity="0.8980392"/>
      <stop offset="1.0" stop-color="#94d1fa" stop-opacity="0.8980392"/>
    </linearGradient>
    <linearGradient gradientTransform="matrix(0.0163, 1.0E-4, 0.0, 0.004, 32.4, -4.6)" gradientUnits="userSpaceOnUse" id="gradient21" spreadMethod="pad" x1="-819.2" x2="819.2">
      <stop offset="0.0" stop-color="#8ccbf4" stop-opacity="0.8980392"/>
      <stop offset="1.0" stop-color="#90cef7" stop-opacity="0.8980392"/>
    </linearGradient>
    <linearGradient gradientTransform="matrix(5.0E-4, 0.0163, -0.004, 1.0E-4, -3.15, 28.55)" gradientUnits="userSpaceOnUse" id="gradient22" spreadMethod="pad" x1="-819.2" x2="819.2">
      <stop offset="0.0" stop-color="#8ccbf4" stop-opacity="0.8980392"/>
      <stop offset="1.0" stop-color="#90cef7" stop-opacity="0.8980392"/>
    </linearGradient>
    <linearGradient gradientTransform="matrix(-0.0175, 4.0E-4, -1.0E-4, -0.0045, 32.55, -10.2)" gradientUnits="userSpaceOnUse" id="gradient23" spreadMethod="pad" x1="-819.2" x2="819.2">
      <stop offset="0.0" stop-color="#8bd3ff" stop-opacity="0.8980392"/>
      <stop offset="1.0" stop-color="#8bcefc" stop-opacity="0.8980392"/>
    </linearGradient>
    <linearGradient gradientTransform="matrix(-0.0175, 4.0E-4, -1.0E-4, -0.0045, 32.55, -10.2)" gradientUnits="userSpaceOnUse" id="gradient24" spreadMethod="pad" x1="-819.2" x2="819.2">
      <stop offset="0.0" stop-color="#8bd1ff" stop-opacity="0.8980392"/>
      <stop offset="1.0" stop-color="#8bcefc" stop-opacity="0.8980392"/>
    </linearGradient>
    <g id="shape4" transform="matrix(1.0, 0.0, 0.0, 1.0, 0.5, 0.5)">
      <path d="M0.0 2.2 Q0.0 1.3 0.6 0.6 1.3 0.0 2.2 0.0 3.1 0.0 3.7 0.6 4.4 1.3 4.4 2.2 4.4 3.1 3.7 3.7 3.1 4.4 2.2 4.4 1.3 4.4 0.6 3.7 0.0 3.1 0.0 2.2 Z" fill="none" stroke="#97d6ff" stroke-linecap="round" stroke-linejoin="round" stroke-opacity="0.8980392" stroke-width="1.0"/>
      <path d="M0.0 2.2 Q0.0 1.3 0.6 0.6 1.3 0.0 2.2 0.0 3.1 0.0 3.7 0.6 4.4 1.3 4.4 2.2 4.4 3.1 3.7 3.7 3.1 4.4 2.2 4.4 1.3 4.4 0.6 3.7 0.0 3.1 0.0 2.2" fill="url(#gradient25)" fill-rule="evenodd" stroke="none"/>
      <path d="M1.8 1.0 L2.3 1.2 2.5 1.7 2.3 2.2 Q2.1 2.4 1.8 2.4 L1.3 2.2 1.1 1.7 1.3 1.2 1.8 1.0" fill="#8bcaf3" fill-opacity="0.8980392" fill-rule="evenodd" stroke="none"/>
    </g>
    <radialGradient cx="0" cy="0" gradientTransform="matrix(0.0045, 0.0, 0.0, 0.0045, 1.7, 1.8)" gradientUnits="userSpaceOnUse" id="gradient25" r="819.2" spreadMethod="pad">
      <stop offset="0.0" stop-color="#8eccf5" stop-opacity="0.8980392"/>
      <stop offset="1.0" stop-color="#96d4fd" stop-opacity="0.8980392"/>
    </radialGradient>
    <g id="sprite3" transform="matrix(1.0, 0.0, 0.0, 1.0, 46.35, 160.6)">
      <use ffdec:characterId="496" height="59.85" transform="matrix(1.0, 0.0, 0.0, 1.0, -31.8, -14.25)" width="78.75" xlink:href="#shape5"/>
      <use ffdec:characterId="497" height="5.4" transform="matrix(1.0, 0.0, 0.0, 1.0, 19.55, -9.8)" width="5.4" xlink:href="#shape6"/>
      <use ffdec:characterId="497" height="5.4" transform="matrix(1.0, 0.0, 0.0, 1.0, 26.0, -8.6)" width="5.4" xlink:href="#shape6"/>
      <use ffdec:characterId="497" height="5.4" transform="matrix(1.0, 0.0, 0.0, 1.0, 32.85, -8.4)" width="5.4" xlink:href="#shape6"/>
      <use ffdec:characterId="497" height="5.4" transform="matrix(1.0, 0.0, 0.0, 1.0, 39.65, -9.4)" width="5.4" xlink:href="#shape6"/>
    </g>
    <g id="shape5" transform="matrix(1.0, 0.0, 0.0, 1.0, 31.8, 14.25)">
      <path d="M12.85 11.4 L12.85 11.6 12.85 12.1 12.7 12.55 12.9 14.85 12.35 12.65 12.8 11.35 12.85 11.4 M14.1 23.65 L14.15 23.8 14.1 23.7 14.1 23.65 M19.4 33.45 L20.7 34.65 20.85 35.1 21.35 35.25 21.4 35.5 20.85 35.2 19.75 34.1 19.4 33.45 M21.85 35.9 L21.95 36.0 22.0 36.1 22.1 36.3 22.25 36.45 22.3 36.55 22.3 36.6 21.95 36.3 21.85 35.9" fill="#516875" fill-rule="evenodd" stroke="none"/>
      <path d="M4.45 14.35 L4.35 17.4 4.1 17.8 Q3.45 21.85 3.1 26.15 3.05 20.0 4.15 14.85 L4.45 14.35 M3.25 33.0 L3.45 35.0 3.7 35.4 4.05 38.6 3.95 38.5 3.4 35.1 3.25 33.45 3.25 33.0" fill="#445a60" fill-rule="evenodd" stroke="none"/>
      <path d="M4.55 13.4 Q4.45 13.8 4.5 14.3 L4.45 14.35 4.5 13.35 4.55 13.4" fill="url(#gradient26)" fill-rule="evenodd" stroke="none"/>
      <path d="M14.15 23.8 L15.2 25.85 Q15.85 27.75 16.95 29.1 L19.4 33.45 18.9 33.0 18.75 32.4 Q18.1 31.75 18.0 31.1 L17.85 30.75 17.6 30.4 17.35 30.0 16.95 29.5 15.45 26.8 14.85 25.95 14.8 25.7 14.75 25.55 14.7 25.4 14.65 25.25 14.5 25.1 14.35 24.95 14.15 23.8" fill="url(#gradient27)" fill-rule="evenodd" stroke="none"/>
      <path d="M3.1 26.15 L3.1 26.5 3.25 33.0 2.8 31.75 3.1 26.15" fill="url(#gradient28)" fill-rule="evenodd" stroke="none"/>
      <path d="M5.65 44.5 L5.5 44.5 4.75 43.4 4.05 38.6 4.35 38.9 4.7 41.35 4.9 41.7 5.2 42.3 5.25 43.8 5.65 44.5" fill="url(#gradient29)" fill-rule="evenodd" stroke="none"/>
      <path d="M21.4 35.5 L21.75 35.65 21.85 35.9 21.8 35.85 21.7 35.85 21.65 35.7 21.4 35.5" fill="url(#gradient30)" fill-rule="evenodd" stroke="none"/>
      <path d="M24.85 38.1 L24.65 38.45 23.6 37.85 23.45 37.5 22.55 36.9 22.4 36.75 22.3 36.6 Q23.6 37.5 24.75 38.05 L24.85 38.1" fill="url(#gradient31)" fill-rule="evenodd" stroke="none"/>
      <path d="M12.65 18.45 L12.7 17.85 12.8 15.6 12.9 14.85 Q13.5 18.1 13.45 21.75 L13.75 22.75 13.6 22.4 13.55 22.15 Q13.25 21.9 13.25 21.65 L13.3 20.9 13.0 20.6 12.7 19.3 12.65 18.9 12.65 18.45" fill="url(#gradient32)" fill-rule="evenodd" stroke="none"/>
      <path d="M13.75 22.85 L13.75 22.75 14.1 23.65 14.05 23.6 13.9 23.3 13.85 23.15 13.8 23.0 13.75 22.85" fill="url(#gradient33)" fill-rule="evenodd" stroke="none"/>
      <path d="M20.85 3.75 L20.65 3.35 20.65 3.3 20.55 3.2 20.35 2.8 20.3 2.7 20.2 2.5 20.15 2.45 20.2 2.4 20.3 2.05 20.4 1.6 Q20.8 0.1 19.8 -2.9 22.05 -0.8 23.9 -0.45 L27.7 -0.05 31.6 0.0 35.55 -0.05 39.35 -0.5 43.15 -1.15 Q44.1 -1.45 44.95 -1.9 L45.05 -1.25 44.4 2.0 44.25 3.35 44.2 3.6 44.2 4.0 44.2 4.15 44.2 4.6 44.2 4.9 44.3 6.1 44.3 6.2 44.35 6.35 44.75 7.85 45.95 10.0 Q40.95 14.4 39.65 20.55 39.15 22.9 39.2 25.5 L39.3 27.15 33.45 29.05 32.7 29.35 Q29.85 30.7 27.15 34.4 L24.85 38.1 M24.65 38.45 L24.5 38.65 20.95 38.1 17.7 38.0 15.0 38.35 Q12.65 38.9 11.2 40.25 L11.1 40.3 6.5 44.6 5.65 44.5 M4.75 43.4 L3.75 42.0 2.75 40.95 Q1.85 40.3 0.95 40.35 L-2.75 40.5 -30.15 41.2 M19.6 8.4 L19.75 8.2 21.0 6.15 21.2 5.1 21.1 4.45 M12.85 11.6 Q14.65 13.0 15.7 12.85 L16.35 12.7 Q17.05 12.5 17.6 12.0 18.35 11.25 18.8 9.1 M12.85 11.4 L12.8 11.35 12.35 12.65 12.15 13.15 11.15 14.35 10.55 14.9 Q9.15 15.45 8.0 15.4 L6.3 15.0 5.75 14.65 4.55 13.4 M4.5 13.35 L4.2 12.75 3.9 12.75 3.4 13.6 Q2.45 15.15 0.85 16.4 L-2.75 16.55 -29.6 17.0" fill="none" stroke="#000000" stroke-linecap="round" stroke-linejoin="round" stroke-width="2.0"/>
      <path d="M20.85 3.75 L20.65 3.35 20.65 3.3 20.55 3.2 20.35 2.8 20.3 2.7 20.2 2.5 20.15 2.45 20.2 2.4 20.3 2.05 20.4 1.6 Q20.8 0.1 20.35 -1.2 L23.9 -0.45 27.7 -0.05 31.6 0.0 35.55 -0.05 39.35 -0.5 43.15 -1.15 Q44.1 -1.45 44.95 -1.9 L45.05 -1.25 44.4 2.0 44.25 3.35 44.2 3.6 44.2 4.0 44.2 4.15 44.2 4.6 44.2 4.9 44.3 6.1 44.3 6.2 44.35 6.35 41.9 6.35 29.7 5.6 Q25.05 5.05 20.85 3.75" fill="url(#gradient34)" fill-rule="evenodd" stroke="none"/>
      <path d="M44.35 6.35 L44.75 7.85 45.8 9.75 44.2 9.9 Q36.5 9.95 30.1 8.1 29.7 8.0 29.55 7.75 L28.35 7.75 28.0 7.35 25.45 6.6 25.1 6.2 24.1 6.0 23.75 5.6 22.0 5.05 21.25 4.45 21.1 4.4 20.85 3.75 Q25.05 5.05 29.7 5.6 L41.9 6.35 44.35 6.35 M39.65 20.55 Q39.15 22.9 39.2 25.5 L39.25 26.0 38.8 25.95 38.6 25.9 Q36.6 25.7 34.8 24.8 L33.6 24.55 Q32.4 23.8 31.2 23.55 L30.45 23.1 29.9 23.0 29.55 22.6 28.75 22.2 28.55 21.65 Q27.8 21.2 27.4 20.5 26.6 19.0 25.6 18.15 L24.95 17.6 24.9 17.4 Q23.55 16.2 22.7 14.85 L22.35 14.15 22.25 13.9 22.2 13.7 21.8 13.35 Q21.45 12.15 20.45 11.4 L18.9 9.05 19.15 8.85 19.6 8.4 Q22.95 12.85 29.05 16.25 34.2 19.05 39.65 20.55 M27.15 34.4 L24.85 38.1 24.75 38.05 Q23.6 37.5 22.3 36.6 L22.3 36.55 22.25 36.45 22.1 36.3 22.0 36.1 21.95 36.0 21.85 35.9 21.75 35.65 21.4 35.5 21.35 35.25 20.85 35.1 20.7 34.65 19.4 33.45 16.95 29.1 Q15.85 27.75 15.2 25.85 L14.15 23.8 14.1 23.65 13.75 22.75 13.45 21.75 Q13.5 18.1 12.9 14.85 L12.7 12.55 12.85 12.1 12.85 11.4 13.1 11.6 Q13.95 16.15 16.1 20.55 18.25 25.0 21.45 28.8 24.0 31.8 27.15 34.4" fill="#445a60" fill-rule="evenodd" stroke="none"/>
      <path d="M45.8 9.75 L45.95 10.0 Q40.95 14.4 39.65 20.55 34.2 19.05 29.05 16.25 22.95 12.85 19.6 8.4 L19.75 8.2 21.0 6.15 21.2 5.1 21.1 4.45 21.1 4.4 21.25 4.45 22.0 5.05 23.75 5.6 24.1 6.0 25.1 6.2 25.45 6.6 28.0 7.35 28.35 7.75 29.55 7.75 Q29.7 8.0 30.1 8.1 36.5 9.95 44.2 9.9 L45.8 9.75" fill="url(#gradient35)" fill-rule="evenodd" stroke="none"/>
      <path d="M39.25 26.0 L39.3 27.15 33.45 29.05 32.7 29.35 Q29.85 30.7 27.15 34.4 24.0 31.8 21.45 28.8 18.25 25.0 16.1 20.55 13.95 16.15 13.1 11.6 14.65 13.0 15.7 12.85 L16.35 12.7 Q17.05 12.5 17.6 12.0 18.35 11.25 18.8 9.1 L18.9 9.05 20.45 11.4 Q21.45 12.15 21.8 13.35 L22.2 13.7 22.25 13.9 22.35 14.15 22.7 14.85 Q23.55 16.2 24.9 17.4 L24.95 17.6 25.6 18.15 Q26.6 19.0 27.4 20.5 27.8 21.2 28.55 21.65 L28.75 22.2 29.55 22.6 29.9 23.0 30.45 23.1 31.2 23.55 Q32.4 23.8 33.6 24.55 L34.8 24.8 Q36.6 25.7 38.6 25.9 L38.8 25.95 39.25 26.0" fill="url(#gradient36)" fill-rule="evenodd" stroke="none"/>
      <path d="M22.3 36.6 L22.4 36.75 22.55 36.9 23.45 37.5 23.6 37.85 24.65 38.45 24.5 38.65 20.95 38.1 17.7 38.0 15.0 38.35 Q12.65 38.9 11.2 40.25 L11.1 40.3 10.55 39.35 Q6.75 32.4 5.8 24.6 5.15 19.45 5.75 14.65 L6.3 15.0 8.0 15.4 Q9.15 15.45 10.55 14.9 L11.15 14.35 12.15 13.15 12.35 12.65 12.9 14.85 12.8 15.6 12.7 17.85 12.65 18.45 12.65 18.9 12.7 19.3 13.0 20.6 13.3 20.9 13.25 21.65 Q13.25 21.9 13.55 22.15 L13.6 22.4 13.75 22.75 13.75 22.85 13.8 23.0 13.85 23.15 13.9 23.3 14.05 23.6 14.1 23.65 14.1 23.7 14.15 23.8 14.35 24.95 14.5 25.1 14.65 25.25 14.7 25.4 14.75 25.55 14.8 25.7 14.85 25.95 15.45 26.8 16.95 29.5 17.35 30.0 17.6 30.4 17.85 30.75 18.0 31.1 Q18.1 31.75 18.75 32.4 L18.9 33.0 19.4 33.45 19.75 34.1 20.85 35.2 21.4 35.5 21.65 35.7 21.7 35.85 21.8 35.85 21.85 35.9 21.95 36.3 22.3 36.6" fill="url(#gradient37)" fill-rule="evenodd" stroke="none"/>
      <path d="M4.05 38.6 L4.75 43.4 3.75 42.0 2.75 40.95 Q1.85 40.3 0.95 40.35 L-2.75 40.4 -2.75 16.6 0.85 16.4 Q2.45 15.15 3.4 13.6 L3.9 12.75 4.2 12.75 4.5 13.35 4.45 14.35 4.15 14.85 Q3.05 20.0 3.1 26.15 L2.8 31.75 3.25 33.0 3.25 33.45 3.4 35.1 3.95 38.5 4.05 38.6" fill="#516875" fill-rule="evenodd" stroke="none"/>
      <path d="M11.1 40.3 L6.5 44.6 5.65 44.5 5.25 43.8 5.2 42.3 4.9 41.7 4.7 41.35 4.35 38.9 4.05 38.6 3.7 35.4 3.45 35.0 3.25 33.0 3.1 26.5 3.1 26.15 Q3.45 21.85 4.1 17.8 L4.35 17.4 4.45 14.35 4.5 14.3 Q4.45 13.8 4.55 13.4 L5.75 14.65 Q5.15 19.45 5.8 24.6 6.75 32.4 10.55 39.35 L11.1 40.3" fill="url(#gradient38)" fill-rule="evenodd" stroke="none"/>
      <path d="M-2.75 40.4 L-29.9 40.4 Q-33.65 29.05 -29.9 17.65 L-2.75 16.6 -2.75 40.4" fill="url(#gradient39)" fill-rule="evenodd" stroke="none"/>
      <path d="M45.8 9.75 L44.2 9.9 Q36.5 9.95 30.1 8.1 29.7 8.0 29.55 7.75 L28.35 7.75 28.0 7.35 25.45 6.6 25.1 6.2 24.1 6.0 23.75 5.6 22.0 5.05 21.25 4.45 21.1 4.4 20.85 3.75 Q25.05 5.05 29.7 5.6 L41.9 6.35 44.35 6.35 44.75 7.85 45.8 9.75 M22.35 14.15 L22.25 13.9 22.2 13.7 21.8 13.35 Q21.45 12.15 20.45 11.4 L18.9 9.05 19.15 8.85 19.6 8.4 Q22.95 12.85 29.05 16.25 34.2 19.05 39.65 20.55 39.15 22.9 39.2 25.5 L39.25 26.0 38.8 25.95 38.6 25.9 Q36.6 25.7 34.8 24.8 L33.6 24.55 Q32.4 23.8 31.2 23.55 L30.45 23.1 29.9 23.0 29.55 22.6 28.75 22.2 28.55 21.65 Q27.8 21.2 27.4 20.5 26.6 19.0 25.6 18.15 L24.95 17.6 24.9 17.4 Q23.55 16.2 22.7 14.85 L22.35 14.15 M12.85 11.4 L13.1 11.6 Q13.95 16.15 16.1 20.55 18.25 25.0 21.45 28.8 24.0 31.8 27.15 34.4 25.85 36.15 24.65 38.45 L23.6 37.85 23.45 37.5 22.55 36.9 22.4 36.75 22.3 36.55 22.25 36.45 22.1 36.3 22.0 36.1 21.95 36.0 21.8 35.85 21.7 35.85 21.65 35.7 21.4 35.5 21.35 35.25 20.85 35.1 20.7 34.65 18.9 33.0 18.75 32.4 Q18.1 31.75 18.0 31.1 L17.85 30.75 17.6 30.4 17.35 30.0 16.95 29.5 15.45 26.8 14.85 25.95 14.8 25.7 14.75 25.55 14.7 25.4 14.65 25.25 14.5 25.1 14.35 24.95 14.15 23.8 14.05 23.6 13.9 23.3 13.85 23.15 13.8 23.0 13.75 22.85 13.75 22.75 13.6 22.4 13.55 22.15 Q13.25 21.9 13.25 21.65 L13.3 20.9 13.0 20.6 12.7 19.3 12.65 18.9 12.65 18.45 12.7 17.85 12.8 15.6 Q13.0 13.9 12.7 12.55 L12.85 12.1 12.85 11.4 M4.55 13.4 L5.75 14.65 Q5.15 19.45 5.8 25.3 6.45 31.1 8.6 35.3 L11.1 40.3 6.5 44.6 5.65 44.5 5.25 43.8 5.2 42.3 4.9 41.7 4.7 41.35 4.35 38.9 3.95 38.5 3.4 35.1 3.25 33.45 3.1 26.5 Q3.0 20.15 4.15 14.85 L4.5 14.3 Q4.45 13.8 4.55 13.4" fill="#445a60" fill-rule="evenodd" stroke="none"/>
      <path d="M20.25 -0.95 L19.35 -3.35 Q28.55 0.4 37.7 -0.7 L45.1 -2.05 45.1 -1.35 Q42.7 -0.05 39.85 0.45 29.4 2.25 20.25 -0.95 M45.75 10.0 L39.2 9.8 34.35 9.15 29.2 7.65 23.75 5.65 21.45 5.0 20.05 2.4 24.65 4.4 Q27.75 5.75 31.05 6.8 L37.1 8.4 45.75 9.55 45.75 10.0 M3.75 12.75 L4.1 12.75 5.7 14.8 Q3.85 23.95 4.6 32.3 5.3 40.6 6.45 44.65 L5.3 44.4 Q1.5 35.55 2.5 24.85 L3.75 12.75 M12.1 14.75 Q12.25 13.15 12.45 12.9 L12.85 11.35 13.9 18.25 Q15.2 23.6 16.9 27.15 19.45 32.4 24.6 38.35 17.95 34.35 15.5 29.65 13.05 24.95 12.5 20.65 11.9 16.3 12.1 14.75 M19.75 8.15 Q25.45 18.45 32.0 22.4 L39.75 27.05 Q26.3 21.9 23.0 16.5 L18.65 9.25 19.75 8.15" fill="#8fa9b1" fill-rule="evenodd" stroke="none"/>
      <path d="M18.6 -8.9 L18.7 -8.95 18.9 -9.0 19.0 -9.0 Q24.35 -7.4 30.05 -6.9 L41.8 -7.3 Q43.7 -7.6 45.45 -8.3 L45.75 -8.3 45.8 -8.3 46.1 -8.25 46.2 -8.2 Q47.2 -5.25 46.55 -2.15 L46.4 -1.95 45.85 -2.05 45.85 -2.1 Q44.65 -1.1 42.85 -0.85 33.95 0.65 25.1 -0.9 L23.75 -1.25 Q21.2 -1.95 18.85 -2.95 L18.7 -2.75 18.15 -2.8 Q17.8 -5.6 18.35 -8.45 L18.4 -8.7 18.45 -8.75 18.6 -8.9 M19.0 -3.9 Q23.9 -2.1 29.15 -1.7 L37.7 -1.35 Q41.9 -1.35 45.75 -2.8 L45.85 -2.8 45.4 -7.45 Q43.4 -6.0 40.6 -5.95 L36.45 -5.8 25.3 -6.3 Q22.05 -6.75 19.25 -7.85 L19.0 -3.9" fill="#000000" fill-rule="evenodd" stroke="none"/>
      <path d="M19.0 -3.9 L19.25 -7.85 Q22.05 -6.75 25.3 -6.3 L36.45 -5.8 40.6 -5.95 Q43.4 -6.0 45.4 -7.45 L45.85 -2.8 45.75 -2.8 Q41.9 -1.35 37.7 -1.35 L29.15 -1.7 Q23.9 -2.1 19.0 -3.9" fill="url(#gradient40)" fill-rule="evenodd" stroke="none"/>
      <path d="M0.6 14.65 L0.65 14.75 0.7 14.95 0.7 15.05 Q-0.7 20.45 -0.95 26.15 -1.25 32.05 -0.1 37.85 0.25 39.75 1.05 41.45 L1.05 41.75 1.05 41.8 1.0 42.1 0.95 42.25 Q-1.95 43.35 -5.05 42.8 L-5.25 42.65 Q-5.4 42.4 -5.2 42.1 L-5.15 42.1 Q-6.2 40.95 -6.5 39.15 -8.35 30.35 -7.15 21.45 L-6.85 20.1 -5.35 15.15 -5.55 15.0 -5.55 14.45 Q-2.75 14.0 0.1 14.4 L0.4 14.45 0.45 14.5 0.6 14.65 M-4.4 15.25 Q-6.0 20.2 -6.2 25.45 L-6.2 34.0 Q-6.05 38.2 -4.45 42.0 L-4.45 42.1 0.2 41.45 Q-1.35 39.5 -1.5 36.7 L-1.8 32.55 Q-2.25 27.0 -1.75 21.45 -1.45 18.2 -0.45 15.35 L-4.4 15.25" fill="#000000" fill-rule="evenodd" stroke="none"/>
      <path d="M-4.4 15.25 L-0.45 15.35 Q-1.45 18.2 -1.75 21.45 -2.25 27.0 -1.8 32.55 L-1.5 36.7 Q-1.35 39.5 0.2 41.45 L-4.45 42.1 -4.45 42.0 Q-6.05 38.2 -6.2 34.0 L-6.2 25.45 Q-6.0 20.2 -4.4 15.25" fill="url(#gradient41)" fill-rule="evenodd" stroke="none"/>
      <path d="M18.8 -13.9 L18.7 -13.95 25.5 -14.15 46.8 -14.2 46.75 -13.55 46.6 -13.5 46.55 -13.5 46.6 -13.5 Q46.7 -10.75 46.15 -8.0 L46.2 -8.0 46.15 -7.95 46.1 -7.7 45.9 -7.5 45.85 -7.75 Q42.35 -6.25 35.35 -5.5 28.4 -4.85 19.1 -7.8 L18.75 -8.25 18.65 -8.75 18.4 -9.35 Q17.95 -11.4 18.7 -13.8 L18.75 -13.8 18.85 -13.9 18.8 -13.9 M19.4 -8.9 L20.45 -8.15 Q33.0 -4.8 45.85 -7.85 L45.5 -13.45 36.45 -12.85 19.3 -13.35 19.15 -11.35 Q19.1 -9.15 19.4 -8.9 M46.3 -13.45 L46.35 -13.4 46.35 -13.45 46.3 -13.45" fill="#000000" fill-rule="evenodd" stroke="none"/>
      <path d="M18.75 -13.8 L18.8 -13.9 18.85 -13.9 18.75 -13.8 M46.3 -13.45 L46.35 -13.45 46.35 -13.4 46.3 -13.45" fill="url(#gradient42)" fill-rule="evenodd" stroke="none"/>
      <path d="M19.4 -8.9 Q19.1 -9.15 19.15 -11.35 L19.3 -13.35 36.45 -12.85 45.5 -13.45 45.85 -7.85 Q33.0 -4.8 20.45 -8.15 L19.4 -8.9" fill="url(#gradient43)" fill-rule="evenodd" stroke="none"/>
    </g>
    <linearGradient gradientTransform="matrix(1.0E-4, 0.0, 0.0, 6.0E-4, 4.5, 13.85)" gradientUnits="userSpaceOnUse" id="gradient26" spreadMethod="pad" x1="-819.2" x2="819.2">
      <stop offset="0.0" stop-color="#445a60"/>
      <stop offset="1.0" stop-color="#516875"/>
    </linearGradient>
    <linearGradient gradientTransform="matrix(0.0032, 0.0, 0.0, 0.0059, 16.75, 28.6)" gradientUnits="userSpaceOnUse" id="gradient27" spreadMethod="pad" x1="-819.2" x2="819.2">
      <stop offset="0.0" stop-color="#445a60"/>
      <stop offset="1.0" stop-color="#516875"/>
    </linearGradient>
    <linearGradient gradientTransform="matrix(3.0E-4, 0.0, 0.0, 0.0042, 3.0, 29.55)" gradientUnits="userSpaceOnUse" id="gradient28" spreadMethod="pad" x1="-819.2" x2="819.2">
      <stop offset="0.0" stop-color="#445a60"/>
      <stop offset="1.0" stop-color="#516875"/>
    </linearGradient>
    <linearGradient gradientTransform="matrix(0.001, 0.0, 0.0, 0.0036, 4.85, 41.55)" gradientUnits="userSpaceOnUse" id="gradient29" spreadMethod="pad" x1="-819.2" x2="819.2">
      <stop offset="0.0" stop-color="#445a60"/>
      <stop offset="1.0" stop-color="#516875"/>
    </linearGradient>
    <linearGradient gradientTransform="matrix(3.0E-4, 0.0, 0.0, 2.0E-4, 21.6, 35.7)" gradientUnits="userSpaceOnUse" id="gradient30" spreadMethod="pad" x1="-819.2" x2="819.2">
      <stop offset="0.0" stop-color="#445a60"/>
      <stop offset="1.0" stop-color="#516875"/>
    </linearGradient>
    <linearGradient gradientTransform="matrix(0.0016, 0.0, 0.0, 0.0011, 23.55, 37.5)" gradientUnits="userSpaceOnUse" id="gradient31" spreadMethod="pad" x1="-819.2" x2="819.2">
      <stop offset="0.0" stop-color="#445a60"/>
      <stop offset="1.0" stop-color="#516875"/>
    </linearGradient>
    <linearGradient gradientTransform="matrix(7.0E-4, 0.0, 0.0, 0.0048, 13.2, 18.8)" gradientUnits="userSpaceOnUse" id="gradient32" spreadMethod="pad" x1="-819.2" x2="819.2">
      <stop offset="0.0" stop-color="#445a60"/>
      <stop offset="1.0" stop-color="#516875"/>
    </linearGradient>
    <linearGradient gradientTransform="matrix(2.0E-4, 0.0, 0.0, 5.0E-4, 13.9, 23.2)" gradientUnits="userSpaceOnUse" id="gradient33" spreadMethod="pad" x1="-819.2" x2="819.2">
      <stop offset="0.0" stop-color="#445a60"/>
      <stop offset="1.0" stop-color="#516875"/>
    </linearGradient>
    <radialGradient cx="0" cy="0" gradientTransform="matrix(0.0148, 0.0, 0.0, 0.008, 32.9, 0.2)" gradientUnits="userSpaceOnUse" id="gradient34" r="819.2" spreadMethod="pad">
      <stop offset="0.0" stop-color="#6b8c98"/>
      <stop offset="1.0" stop-color="#445a60"/>
    </radialGradient>
    <radialGradient cx="0" cy="0" gradientTransform="matrix(0.0032, -0.0081, 0.0164, 0.0064, 33.25, 10.25)" gradientUnits="userSpaceOnUse" id="gradient35" r="819.2" spreadMethod="pad">
      <stop offset="0.0" stop-color="#6b8c98"/>
      <stop offset="1.0" stop-color="#445a60"/>
    </radialGradient>
    <radialGradient cx="0" cy="0" gradientTransform="matrix(0.0076, -0.0065, 0.0124, 0.0144, 26.75, 21.1)" gradientUnits="userSpaceOnUse" id="gradient36" r="819.2" spreadMethod="pad">
      <stop offset="0.0" stop-color="#6b8c98"/>
      <stop offset="1.0" stop-color="#445a60"/>
    </radialGradient>
    <radialGradient cx="0" cy="0" gradientTransform="matrix(0.0099, -0.0027, 0.0049, 0.0184, 15.05, 26.45)" gradientUnits="userSpaceOnUse" id="gradient37" r="819.2" spreadMethod="pad">
      <stop offset="0.0" stop-color="#6b8c98"/>
      <stop offset="1.0" stop-color="#445a60"/>
    </radialGradient>
    <linearGradient gradientTransform="matrix(0.0049, 0.0, 0.0, 0.019, 7.1, 29.0)" gradientUnits="userSpaceOnUse" id="gradient38" spreadMethod="pad" x1="-819.2" x2="819.2">
      <stop offset="0.0" stop-color="#445a60"/>
      <stop offset="1.0" stop-color="#516875"/>
    </linearGradient>
    <linearGradient gradientTransform="matrix(6.0E-4, 0.0145, -0.0145, 6.0E-4, -22.0, 28.5)" gradientUnits="userSpaceOnUse" id="gradient39" spreadMethod="pad" x1="-819.2" x2="819.2">
      <stop offset="0.0" stop-color="#aec4c4"/>
      <stop offset="0.3333333333333333" stop-color="#d0dbdd"/>
      <stop offset="0.611764705882353" stop-color="#97b0b7"/>
      <stop offset="1.0" stop-color="#486366"/>
    </linearGradient>
    <linearGradient gradientTransform="matrix(0.0163, 1.0E-4, 0.0, 0.004, 32.4, -4.6)" gradientUnits="userSpaceOnUse" id="gradient40" spreadMethod="pad" x1="-819.2" x2="819.2">
      <stop offset="0.0" stop-color="#dfe7e8"/>
      <stop offset="1.0" stop-color="#8fa9b1"/>
    </linearGradient>
    <linearGradient gradientTransform="matrix(5.0E-4, 0.0163, -0.004, 1.0E-4, -3.15, 28.55)" gradientUnits="userSpaceOnUse" id="gradient41" spreadMethod="pad" x1="-819.2" x2="819.2">
      <stop offset="0.0" stop-color="#dfe7e8"/>
      <stop offset="1.0" stop-color="#8fa9b1"/>
    </linearGradient>
    <linearGradient gradientTransform="matrix(-0.0175, 4.0E-4, -1.0E-4, -0.0045, 32.55, -10.2)" gradientUnits="userSpaceOnUse" id="gradient42" spreadMethod="pad" x1="-819.2" x2="819.2">
      <stop offset="0.0" stop-color="#fe4905"/>
      <stop offset="1.0" stop-color="#fda34a"/>
    </linearGradient>
    <linearGradient gradientTransform="matrix(-0.0175, 4.0E-4, -1.0E-4, -0.0045, 32.55, -10.2)" gradientUnits="userSpaceOnUse" id="gradient43" spreadMethod="pad" x1="-819.2" x2="819.2">
      <stop offset="0.0" stop-color="#ff6600"/>
      <stop offset="1.0" stop-color="#fda34a"/>
    </linearGradient>
    <g id="shape6" transform="matrix(1.0, 0.0, 0.0, 1.0, 0.5, 0.5)">
      <path d="M0.0 2.2 Q0.0 1.3 0.6 0.6 1.3 0.0 2.2 0.0 3.1 0.0 3.7 0.6 4.4 1.3 4.4 2.2 4.4 3.1 3.7 3.7 3.1 4.4 2.2 4.4 1.3 4.4 0.6 3.7 0.0 3.1 0.0 2.2 Z" fill="none" stroke="#000000" stroke-linecap="round" stroke-linejoin="round" stroke-width="1.0"/>
      <path d="M0.0 2.2 Q0.0 1.3 0.6 0.6 1.3 0.0 2.2 0.0 3.1 0.0 3.7 0.6 4.4 1.3 4.4 2.2 4.4 3.1 3.7 3.7 3.1 4.4 2.2 4.4 1.3 4.4 0.6 3.7 0.0 3.1 0.0 2.2" fill="url(#gradient44)" fill-rule="evenodd" stroke="none"/>
      <path d="M1.8 1.0 L2.3 1.2 2.5 1.7 2.3 2.2 Q2.1 2.4 1.8 2.4 L1.3 2.2 1.1 1.7 1.3 1.2 1.8 1.0" fill="#ffffff" fill-rule="evenodd" stroke="none"/>
    </g>
    <radialGradient cx="0" cy="0" gradientTransform="matrix(0.0045, 0.0, 0.0, 0.0045, 1.7, 1.8)" gradientUnits="userSpaceOnUse" id="gradient44" r="819.2" spreadMethod="pad">
      <stop offset="0.0" stop-color="#bacbcf"/>
      <stop offset="1.0" stop-color="#243131"/>
    </radialGradient>
    <g id="shape7" transform="matrix(1.0, 0.0, 0.0, 1.0, 5.65, 6.65)">
      <path d="M4.25 -3.85 Q5.5 -1.95 5.1 0.9 4.75 3.7 2.4 5.25 0.1 6.7 -1.65 5.8 -3.4 4.85 -4.35 2.75 -5.25 0.9 -5.15 -1.35 -5.05 -3.4 -3.35 -4.8 -1.35 -6.5 0.7 -6.05 2.55 -5.65 4.0 -4.45 L4.25 -3.85" fill="#ffffff" fill-rule="evenodd" stroke="none"/>
      <path d="M4.25 -3.85 Q5.5 -1.95 5.1 0.9 4.75 3.7 2.4 5.25 0.1 6.7 -1.65 5.8 -3.4 4.85 -4.35 2.75 -5.25 0.9 -5.15 -1.35 -5.05 -3.4 -3.35 -4.8 -1.35 -6.5 0.7 -6.05 2.55 -5.65 4.0 -4.45 L4.25 -3.85 Z" fill="none" stroke="#000000" stroke-linecap="round" stroke-linejoin="round" stroke-width="1.0"/>
    </g>
    <g id="shape8" transform="matrix(1.0, 0.0, 0.0, 1.0, 0.75, 0.75)">
      <path d="M0.0 0.0 L4.3 1.7 4.45 1.85 4.45 266.65 4.45 328.1 0.0 326.9 0.0 0.0" fill="#ffffff" fill-rule="evenodd" stroke="none"/>
      <path d="M0.0 0.0 L4.3 1.7 4.45 1.85" fill="none" stroke="#ffffff" stroke-linecap="round" stroke-linejoin="round" stroke-width="1.5"/>
    </g>
    <g id="sprite4" transform="matrix(1.0, 0.0, 0.0, 1.0, 25.9, 99.2)">
      <use ffdec:characterId="507" height="232.2" id="mcBonusPipeSilhouette" transform="matrix(1.0, 0.0, 0.0, 1.0, -21.35, -41.35)" width="161.85" xlink:href="#sprite5"/>
      <use ffdec:characterId="507" height="232.2" id="mcBonusPipe" transform="matrix(1.0, 0.0, 0.0, 1.0, -21.35, -41.35)" width="161.85" xlink:href="#sprite6"/>
      <use ffdec:characterId="508" height="13.3" transform="matrix(1.0, 0.0, 0.0, 1.0, 4.15, -89.95)" width="11.35" xlink:href="#shape7"/>
      <use ffdec:characterId="509" height="328.85" transform="matrix(1.0, 0.0, 0.0, 1.0, -0.75, -0.75)" width="5.95" xlink:href="#shape8"/>
    </g>
    <g id="sprite5" transform="matrix(1.0, 0.0, 0.0, 1.0, 46.35, 160.6)">
      <use ffdec:characterId="496" height="59.85" transform="matrix(1.0, 0.0, 0.0, 1.0, -31.8, -14.25)" width="78.75" xlink:href="#shape3"/>
      <use ffdec:characterId="497" height="5.4" transform="matrix(1.0, 0.0, 0.0, 1.0, 19.55, -9.8)" width="5.4" xlink:href="#shape4"/>
      <use ffdec:characterId="497" height="5.4" transform="matrix(1.0, 0.0, 0.0, 1.0, 26.0, -8.6)" width="5.4" xlink:href="#shape4"/>
      <use ffdec:characterId="497" height="5.4" transform="matrix(1.0, 0.0, 0.0, 1.0, 32.85, -8.4)" width="5.4" xlink:href="#shape4"/>
      <use ffdec:characterId="497" height="5.4" transform="matrix(1.0, 0.0, 0.0, 1.0, 39.65, -9.4)" width="5.4" xlink:href="#shape4"/>
    </g>
    <g id="sprite6" transform="matrix(1.0, 0.0, 0.0, 1.0, 46.35, 160.6)">
      <use ffdec:characterId="496" height="59.85" transform="matrix(1.0, 0.0, 0.0, 1.0, -31.8, -14.25)" width="78.75" xlink:href="#shape5"/>
      <use ffdec:characterId="497" height="5.4" transform="matrix(1.0, 0.0, 0.0, 1.0, 19.55, -9.8)" width="5.4" xlink:href="#shape6"/>
      <use ffdec:characterId="497" height="5.4" transform="matrix(1.0, 0.0, 0.0, 1.0, 26.0, -8.6)" width="5.4" xlink:href="#shape6"/>
      <use ffdec:characterId="497" height="5.4" transform="matrix(1.0, 0.0, 0.0, 1.0, 32.85, -8.4)" width="5.4" xlink:href="#shape6"/>
      <use ffdec:characterId="497" height="5.4" transform="matrix(1.0, 0.0, 0.0, 1.0, 39.65, -9.4)" width="5.4" xlink:href="#shape6"/>
    </g>
    <g id="shape9" transform="matrix(1.0, 0.0, 0.0, 1.0, 8.0, 52.45)">
      <path d="M537.6 10.5 Q533.5 10.35 529.05 10.45 L526.4 10.5 516.15 9.8 515.75 9.75 508.2 8.85 507.2 8.75 491.1 7.35 475.65 6.8 463.3 6.0 Q453.5 5.3 443.6 5.55 L430.1 6.4 429.15 6.4 428.95 6.55 419.55 7.7 Q400.1 10.8 380.3 9.0 L360.85 7.9 339.8 6.55 325.7 5.45 321.9 5.35 321.05 5.35 314.85 5.2 313.8 5.2 305.65 5.1 Q292.2 5.95 280.8 8.3 L255.15 9.65 248.95 9.85 230.15 10.25 223.55 10.25 208.5 9.05 Q190.45 6.9 171.15 7.75 L162.6 8.15 136.8 9.5 Q124.0 10.2 109.6 9.9 L103.25 9.7 101.75 9.65 77.4 8.4 70.55 7.95 Q53.85 6.8 39.75 7.9 25.65 8.95 10.65 12.35 L-3.45 11.95 -8.0 11.35 -8.0 -52.45 Q301.45 -52.45 610.95 -52.05 L610.95 1.0 Q603.75 1.4 596.9 2.75 568.4 8.3 537.6 10.5" fill="#ffffff" fill-rule="evenodd" stroke="none"/>
      <path d="M610.95 1.0 L610.95 4.9 604.55 5.2 Q597.9 4.3 592.15 6.3 L590.95 6.45 590.65 6.5 589.5 6.75 565.8 9.1 544.7 10.35 542.3 10.2 542.4 10.4 538.4 10.55 538.25 10.55 537.6 10.5 Q568.4 8.3 596.9 2.75 603.75 1.4 610.95 1.0" fill="#caeafe" fill-rule="evenodd" stroke="none"/>
      <path d="M610.95 4.95 L610.95 6.0 601.45 6.2 593.55 7.05 Q576.5 10.7 559.25 12.25 L548.95 11.8 541.05 11.8 522.35 11.45 496.25 9.85 458.9 7.3 Q440.8 6.75 423.0 9.1 L414.05 10.1 392.7 11.0 370.2 10.55 339.8 8.55 317.65 7.15 Q305.45 6.55 293.4 8.6 282.6 10.5 271.6 10.8 L255.65 11.35 241.45 11.65 222.6 11.4 216.05 10.8 194.3 9.6 171.6 10.85 164.15 11.15 Q151.8 11.7 139.5 11.55 L116.35 11.2 94.7 11.05 Q83.95 11.05 72.1 10.55 62.0 10.2 51.8 10.0 37.1 9.75 22.9 12.75 10.25 15.2 -2.45 13.8 L-8.0 13.15 -8.0 11.35 -3.45 11.95 10.65 12.35 Q25.65 8.95 39.75 7.9 53.85 6.8 70.55 7.95 L101.75 9.65 103.25 9.7 104.5 9.75 109.6 9.9 Q124.0 10.2 136.8 9.5 L171.15 7.75 Q190.45 6.9 208.5 9.05 L223.55 10.25 230.6 10.3 251.3 9.8 255.65 9.7 280.35 8.4 280.8 8.3 Q292.2 5.95 305.65 5.1 L313.8 5.2 314.85 5.2 321.05 5.35 321.9 5.35 325.7 5.45 339.8 6.55 360.85 7.9 380.3 9.0 Q400.1 10.8 419.55 7.7 L428.95 6.55 430.1 6.4 443.6 5.55 Q453.5 5.3 463.3 6.0 L491.1 7.35 507.2 8.75 508.2 8.85 511.15 9.25 516.15 9.8 526.4 10.5 Q532.05 10.7 537.75 10.55 L538.25 10.55 538.4 10.55 542.4 10.4 544.7 10.35 565.8 9.1 589.5 6.75 607.75 5.1 610.95 4.95" fill="#000000" fill-rule="evenodd" stroke="none"/>
    </g>
  </defs>
</svg>
