<?xml version="1.0" encoding="UTF-8" standalone="no"?>
<svg xmlns:ffdec="https://www.free-decompiler.com/flash" xmlns:xlink="http://www.w3.org/1999/xlink" ffdec:objectType="frame" height="36.65px" width="77.0px" xmlns="http://www.w3.org/2000/svg">
  <g transform="matrix(1.0, 0.0, 0.0, 1.0, 47.6, 19.3)">
    <use ffdec:characterId="467" height="36.65" transform="matrix(1.0, 0.0, 0.0, 1.0, -47.6, -19.3)" width="77.0" xlink:href="#shape0"/>
    <use ffdec:characterId="468" height="30.0" transform="matrix(1.0, 0.0, 0.0, 1.0, -41.6, -18.5)" width="65.0" xlink:href="#shape1"/>
    <use ffdec:characterId="469" height="12.55" transform="matrix(1.0, 0.0, 0.0, 1.0, -31.6, -8.95)" width="52.45" xlink:href="#text0"/>
  </g>
  <defs>
    <g id="shape0" transform="matrix(1.0, 0.0, 0.0, 1.0, 47.6, 19.3)">
      <path d="M27.4 5.15 L25.4 5.15 25.4 4.9 25.4 -8.45 25.3 -8.45 Q24.85 -11.45 22.45 -13.7 19.55 -16.45 15.4 -16.45 L-33.6 -16.45 Q-37.75 -16.45 -40.7 -13.7 -43.05 -11.45 -43.5 -8.45 L-43.6 -8.45 -43.6 4.9 -43.6 5.15 -45.6 5.15 -45.6 -8.9 Q-45.6 -12.85 -42.7 -15.6 -39.75 -18.35 -35.6 -18.35 L17.4 -18.35 Q21.55 -18.35 24.45 -15.6 27.4 -12.85 27.4 -8.9 L27.4 5.15 27.4 6.95 Q27.4 10.85 24.45 13.6 21.55 16.35 17.4 16.4 L-35.6 16.4 Q-39.75 16.35 -42.7 13.6 -45.6 10.85 -45.6 6.95 L-45.6 5.15 -43.6 5.15 -43.55 5.7 -43.6 5.7 -43.6 6.0 -43.55 6.0 Q-43.25 9.3 -40.7 11.7 -37.75 14.5 -33.6 14.5 L15.4 14.5 Q19.55 14.5 22.45 11.7 25.05 9.3 25.35 6.0 L25.4 6.0 25.4 5.7 25.4 5.15 27.4 5.15" fill="#01317e" fill-opacity="0.08235294" fill-rule="evenodd" stroke="none"/>
      <path d="M-45.6 5.15 L-47.6 5.15 -47.6 -9.85 Q-47.6 -13.8 -44.7 -16.55 -41.75 -19.3 -37.6 -19.3 L19.4 -19.3 Q23.55 -19.3 26.45 -16.55 29.4 -13.8 29.4 -9.85 L29.4 5.15 27.4 5.15 27.4 -8.9 Q27.4 -12.85 24.45 -15.6 21.55 -18.35 17.4 -18.35 L-35.6 -18.35 Q-39.75 -18.35 -42.7 -15.6 -45.6 -12.85 -45.6 -8.9 L-45.6 5.15 -45.6 6.95 Q-45.6 10.85 -42.7 13.6 -39.75 16.35 -35.6 16.4 L17.4 16.4 Q21.55 16.35 24.45 13.6 27.4 10.85 27.4 6.95 L27.4 5.15 29.4 5.15 29.4 7.9 Q29.4 11.8 26.45 14.55 23.55 17.3 19.4 17.35 L-37.6 17.35 Q-41.75 17.3 -44.7 14.55 -47.6 11.8 -47.6 7.9 L-47.6 5.15 -45.6 5.15" fill="#01317e" fill-opacity="0.03137255" fill-rule="evenodd" stroke="none"/>
      <path d="M25.4 5.15 L-43.6 5.15 -43.6 4.9 -43.6 -8.45 -43.5 -8.45 Q-43.05 -11.45 -40.7 -13.7 -37.75 -16.45 -33.6 -16.45 L15.4 -16.45 Q19.55 -16.45 22.45 -13.7 24.85 -11.45 25.3 -8.45 L25.4 -8.45 25.4 4.9 25.4 5.15 25.4 5.7 25.4 6.0 25.35 6.0 Q25.05 9.3 22.45 11.7 19.55 14.5 15.4 14.5 L-33.6 14.5 Q-37.75 14.5 -40.7 11.7 -43.25 9.3 -43.55 6.0 L-43.6 6.0 -43.6 5.7 -43.55 5.7 -43.6 5.15 25.4 5.15" fill="#01317e" fill-opacity="0.18039216" fill-rule="evenodd" stroke="none"/>
    </g>
    <g id="shape1" transform="matrix(1.0, 0.0, 0.0, 1.0, 41.6, 18.5)">
      <path d="M-31.6 11.5 Q-35.75 11.5 -38.7 8.55 -40.25 7.0 -40.95 5.15 L22.75 5.15 Q22.0 7.0 20.45 8.55 17.55 11.5 13.4 11.5 L-31.6 11.5 M13.4 -18.5 Q17.55 -18.5 20.45 -15.6 23.4 -12.65 23.4 -8.5 L23.4 -2.05 Q23.4 1.8 22.75 5.15 L-40.95 5.15 Q-41.6 1.8 -41.6 -2.05 L-41.6 -8.5 Q-41.6 -12.65 -38.7 -15.6 -35.75 -18.5 -31.6 -18.5 L13.4 -18.5" fill="#ffffff" fill-rule="evenodd" stroke="none"/>
    </g>
    <g id="text0" transform="matrix(1.0, 0.0, 0.0, 1.0, -0.9, -3.75)">
      <g transform="matrix(1.0, 0.0, 0.0, 1.0, 0.0, 0.0)">
        <use fill="#999999" height="12.55" transform="matrix(0.2734, 0.0, 0.0, 0.2734, 0.0, 14.0)" width="52.45" xlink:href="#font_VAGRounded_BT_B0"/>
        <use fill="#999999" height="12.55" transform="matrix(0.2734, 0.0, 0.0, 0.2734, 8.65, 14.0)" width="52.45" xlink:href="#font_VAGRounded_BT_L0"/>
        <use fill="#999999" height="12.55" transform="matrix(0.2734, 0.0, 0.0, 0.2734, 15.1, 14.0)" width="52.45" xlink:href="#font_VAGRounded_BT_I0"/>
        <use fill="#999999" height="12.55" transform="matrix(0.2734, 0.0, 0.0, 0.2734, 19.25, 14.0)" width="52.45" xlink:href="#font_VAGRounded_BT_M0"/>
        <use fill="#999999" height="12.55" transform="matrix(0.2734, 0.0, 0.0, 0.2734, 31.35, 14.0)" width="52.45" xlink:href="#font_VAGRounded_BT_E0"/>
        <use fill="#999999" height="12.55" transform="matrix(0.2734, 0.0, 0.0, 0.2734, 38.4, 14.0)" width="52.45" xlink:href="#font_VAGRounded_BT_Y0"/>
      </g>
    </g>
    <g id="font_VAGRounded_BT_B0">
      <path d="M8.85 0.0 L17.05 0.0 Q23.2 0.0 26.6 -2.9 30.0 -5.8 30.0 -10.95 30.0 -14.5 28.1 -16.9 26.2 -19.3 22.65 -20.15 24.95 -21.15 26.05 -22.9 27.15 -24.65 27.15 -27.35 27.15 -31.6 24.15 -34.0 21.2 -36.4 15.8 -36.4 L8.95 -36.4 Q5.8 -36.4 4.5 -35.15 3.25 -33.9 3.25 -30.55 L3.25 -5.2 Q3.25 -2.2 4.45 -1.1 5.65 0.0 8.85 0.0 M11.55 -7.1 L11.55 -15.3 15.55 -15.3 Q18.5 -15.3 19.9 -14.3 21.3 -13.3 21.3 -11.2 21.3 -9.2 19.9 -8.15 18.45 -7.1 15.7 -7.1 L11.55 -7.1 M11.55 -22.2 L11.55 -29.35 14.9 -29.35 Q16.85 -29.35 18.0 -28.35 19.1 -27.4 19.1 -25.75 19.1 -24.15 18.0 -23.2 16.85 -22.2 15.0 -22.2 L11.55 -22.2" fill-rule="evenodd" stroke="none"/>
    </g>
    <g id="font_VAGRounded_BT_L0">
      <path d="M3.25 -30.95 L3.25 -5.2 Q3.25 -2.2 4.45 -1.1 5.65 0.0 8.85 0.0 L18.55 0.0 Q21.55 0.0 23.0 -0.95 24.45 -1.9 24.45 -3.85 24.45 -5.75 23.0 -6.7 21.55 -7.65 18.55 -7.65 L11.55 -7.65 11.55 -30.95 Q11.55 -33.95 10.5 -35.4 9.5 -36.85 7.4 -36.85 5.3 -36.85 4.25 -35.4 3.25 -33.95 3.25 -30.95" fill-rule="evenodd" stroke="none"/>
    </g>
    <g id="font_VAGRounded_BT_I0">
      <path d="M11.75 -5.4 L11.75 -30.95 Q11.75 -33.95 10.7 -35.4 9.7 -36.85 7.6 -36.85 5.5 -36.85 4.45 -35.4 3.45 -33.95 3.45 -30.95 L3.45 -5.4 Q3.45 -2.45 4.45 -1.0 5.5 0.45 7.6 0.45 9.7 0.45 10.7 -1.0 11.75 -2.45 11.75 -5.4" fill-rule="evenodd" stroke="none"/>
    </g>
    <g id="font_VAGRounded_BT_M0">
      <path d="M1.1 -6.35 L1.1 -6.35 0.85 -4.95 0.8 -3.85 Q0.8 -1.85 1.9 -0.65 3.0 0.5 4.85 0.5 6.7 0.5 7.75 -0.75 8.8 -2.05 9.2 -4.85 L12.05 -26.1 17.4 -3.65 Q18.0 -1.4 19.1 -0.45 20.2 0.5 22.3 0.5 L24.45 0.2 Q25.25 -0.15 25.75 -0.95 26.55 -2.25 28.05 -7.65 L32.5 -26.1 35.15 -4.35 Q35.45 -1.9 36.45 -0.7 37.5 0.5 39.25 0.5 41.15 0.5 42.3 -0.65 43.45 -1.85 43.45 -3.85 L43.4 -4.75 43.25 -5.8 39.2 -30.85 Q38.65 -34.1 37.3 -35.45 35.9 -36.85 33.35 -36.85 31.1 -36.85 29.65 -35.65 28.25 -34.4 27.65 -32.0 L22.5 -10.2 16.95 -31.95 Q16.35 -34.4 14.9 -35.65 13.5 -36.85 11.15 -36.85 8.7 -36.85 7.4 -35.55 6.1 -34.25 5.55 -31.15 L1.1 -6.35" fill-rule="evenodd" stroke="none"/>
    </g>
    <g id="font_VAGRounded_BT_E0">
      <path d="M18.3 -36.4 L8.95 -36.4 Q5.8 -36.4 4.5 -35.15 3.25 -33.9 3.25 -30.55 L3.25 -5.2 Q3.25 -2.2 4.45 -1.1 5.65 0.0 8.85 0.0 L18.55 0.0 Q21.55 0.0 23.0 -0.95 24.45 -1.9 24.45 -3.85 24.45 -5.75 23.0 -6.7 21.55 -7.65 18.55 -7.65 L11.55 -7.65 11.55 -14.5 17.35 -14.5 Q20.35 -14.5 21.8 -15.4 23.25 -16.35 23.25 -18.3 23.25 -20.25 21.8 -21.2 20.35 -22.15 17.35 -22.15 L11.55 -22.15 11.55 -28.65 18.3 -28.65 Q21.25 -28.65 22.75 -29.6 24.2 -30.55 24.2 -32.5 24.2 -34.45 22.7 -35.4 21.25 -36.4 18.3 -36.4" fill-rule="evenodd" stroke="none"/>
    </g>
    <g id="font_VAGRounded_BT_Y0">
      <path d="M19.8 -33.8 L13.5 -24.8 7.3 -33.7 5.1 -36.1 Q4.05 -36.85 3.05 -36.85 1.35 -36.85 0.2 -35.8 -0.95 -34.7 -0.95 -33.2 -0.95 -31.6 0.85 -29.1 L0.9 -29.0 9.3 -17.15 9.3 -5.4 Q9.3 -2.45 10.3 -1.0 11.35 0.45 13.45 0.45 15.5 0.45 16.55 -1.0 17.55 -2.45 17.55 -5.4 L17.55 -17.15 25.95 -29.1 26.15 -29.35 Q27.85 -31.75 27.85 -33.3 27.85 -34.65 26.75 -35.8 25.6 -36.9 24.25 -36.9 23.15 -36.9 22.0 -36.1 20.85 -35.3 19.8 -33.8" fill-rule="evenodd" stroke="none"/>
    </g>
  </defs>
</svg>
