<?xml version="1.0" encoding="UTF-8" standalone="no"?>
<svg xmlns:ffdec="https://www.free-decompiler.com/flash" xmlns:xlink="http://www.w3.org/1999/xlink" ffdec:objectType="frame" height="51.25px" width="186.85px" xmlns="http://www.w3.org/2000/svg">
  <g transform="matrix(1.0, 0.0, 0.0, 1.0, 111.2, 15.5)">
    <use ffdec:characterId="578" height="35.0" transform="matrix(1.0, 0.0, 0.0, 1.0, -93.4, 0.75)" width="151.0" xlink:href="#shape0"/>
    <use ffdec:characterId="579" height="18.7" id="txtWins" transform="matrix(1.0, 0.0, 0.0, 1.0, -49.0, 15.15)" width="35.0" xlink:href="#text0"/>
    <use ffdec:characterId="580" height="10.85" transform="matrix(1.0, 0.0, 0.0, 1.0, -83.9, 20.25)" width="39.35" xlink:href="#text1"/>
    <use ffdec:characterId="581" height="18.7" id="txtLosses" transform="matrix(1.0, 0.0, 0.0, 1.0, 25.0, 15.15)" width="35.0" xlink:href="#text2"/>
    <use ffdec:characterId="582" height="10.85" transform="matrix(1.0, 0.0, 0.0, 1.0, -20.25, 20.25)" width="49.05" xlink:href="#text3"/>
    <use ffdec:characterId="583" height="28.95" transform="matrix(1.0, 0.0, 0.0, 1.0, -111.2, -15.5)" width="186.85" xlink:href="#shape1"/>
    <use ffdec:characterId="584" height="21.15" transform="matrix(1.0, 0.0, 0.0, 1.0, -99.85, -11.3)" width="149.85" xlink:href="#text4"/>
    <clipPath id="clipPath0">
      <path d="M -107.75 -13.5 L -107.75 11.5 L -60.75 11.5 L -60.75 -13.5 Z"/>
    </clipPath>
    <g clip-path="url(#clipPath0)">
      <use ffdec:characterId="586" height="20.9" transform="matrix(1.0, 0.0, 0.0, 1.0, -105.95, -11.4)" width="176.75" xlink:href="#morphshape0"/>
      <use ffdec:characterId="587" height="21.15" transform="matrix(1.0, 0.0, 0.0, 1.0, -99.85, -11.3)" width="149.85" xlink:href="#text5"/>
    </g>
  </g>
  <defs>
    <g id="shape0" transform="matrix(1.0, 0.0, 0.0, 1.0, 93.4, -0.75)">
      <path d="M55.85 34.0 Q54.1 35.75 51.6 35.75 L-87.4 35.75 Q-89.9 35.75 -91.65 34.0 -93.4 32.25 -93.4 29.75 L-93.4 6.75 Q-93.4 4.25 -91.65 2.5 -89.9 0.75 -87.4 0.75 L51.6 0.75 Q54.1 0.75 55.85 2.5 57.6 4.25 57.6 6.75 L57.6 29.75 Q57.6 32.25 55.85 34.0" fill="#ffffff" fill-rule="evenodd" stroke="none"/>
    </g>
    <g id="text0" transform="matrix(1.0, 0.0, 0.0, 1.0, 2.0, 2.0)">
      <g transform="matrix(1.0, 0.0, 0.0, 1.0, -2.0, -2.0)">
        <use fill="#66cc00" height="18.7" transform="matrix(0.2344, 0.0, 0.0, 0.2344, 0.0, 13.85)" width="35.0" xlink:href="#font_VAGRounded_BT_00"/>
      </g>
    </g>
    <g id="font_VAGRounded_BT_00">
      <path d="M1.45 -18.15 L1.45 -18.15 Q1.45 -9.3 5.55 -4.1 9.65 1.1 16.6 1.1 23.55 1.1 27.7 -4.1 31.8 -9.3 31.8 -18.15 31.8 -27.05 27.7 -32.2 23.55 -37.4 16.6 -37.4 9.65 -37.4 5.55 -32.2 1.45 -27.05 1.45 -18.15 M16.65 -29.8 L16.65 -29.8 Q19.7 -29.8 21.45 -26.7 23.2 -23.6 23.2 -18.2 23.2 -12.75 21.45 -9.65 19.7 -6.6 16.65 -6.6 13.6 -6.6 11.85 -9.65 10.1 -12.75 10.1 -18.2 10.1 -23.6 11.85 -26.7 13.6 -29.8 16.65 -29.8" fill-rule="evenodd" stroke="none"/>
    </g>
    <g id="text1" transform="matrix(1.0, 0.0, 0.0, 1.0, -0.1, -3.1)">
      <g transform="matrix(1.0, 0.0, 0.0, 1.0, 0.0, 0.0)">
        <use fill="#999999" height="10.85" transform="matrix(0.2344, 0.0, 0.0, 0.2344, 0.0, 12.0)" width="39.35" xlink:href="#font_VAGRounded_BT_W0"/>
        <use fill="#999999" height="10.85" transform="matrix(0.2344, 0.0, 0.0, 0.2344, 10.95, 12.0)" width="39.35" xlink:href="#font_VAGRounded_BT_I0"/>
        <use fill="#999999" height="10.85" transform="matrix(0.2344, 0.0, 0.0, 0.2344, 14.5, 12.0)" width="39.35" xlink:href="#font_VAGRounded_BT_N0"/>
        <use fill="#999999" height="10.85" transform="matrix(0.2344, 0.0, 0.0, 0.2344, 23.5, 12.0)" width="39.35" xlink:href="#font_VAGRounded_BT_S0"/>
        <use fill="#999999" height="10.85" transform="matrix(0.2344, 0.0, 0.0, 0.2344, 30.1, 12.0)" width="39.35" xlink:href="#font_VAGRounded_BT_:0"/>
      </g>
    </g>
    <g id="font_VAGRounded_BT_W0">
      <path d="M18.2 -4.65 L23.3 -24.95 28.75 -4.2 Q29.35 -1.8 30.7 -0.65 32.0 0.45 34.25 0.45 36.75 0.45 37.95 -0.6 39.2 -1.7 40.0 -5.0 L46.35 -30.55 46.6 -31.8 46.65 -33.0 Q46.65 -34.7 45.5 -35.75 44.35 -36.85 42.55 -36.85 40.75 -36.85 39.8 -35.9 38.8 -34.9 38.35 -32.7 L34.0 -10.15 28.05 -33.25 Q27.6 -35.05 26.5 -35.95 25.35 -36.85 23.55 -36.85 21.75 -36.85 20.6 -36.0 19.4 -35.1 18.95 -33.35 L12.9 -10.15 8.55 -33.25 Q8.25 -35.0 7.2 -35.95 6.15 -36.9 4.55 -36.9 2.7 -36.9 1.55 -35.9 0.35 -34.85 0.35 -33.15 L0.4 -32.0 0.45 -31.35 6.5 -5.0 Q7.2 -2.05 8.5 -0.8 9.8 0.45 12.2 0.45 14.5 0.45 16.05 -0.85 17.55 -2.15 18.2 -4.65" fill-rule="evenodd" stroke="none"/>
    </g>
    <g id="font_VAGRounded_BT_I0">
      <path d="M11.75 -5.4 L11.75 -30.95 Q11.75 -33.95 10.7 -35.4 9.7 -36.85 7.6 -36.85 5.5 -36.85 4.45 -35.4 3.45 -33.95 3.45 -30.95 L3.45 -5.4 Q3.45 -2.45 4.45 -1.0 5.5 0.45 7.6 0.45 9.7 0.45 10.7 -1.0 11.75 -2.45 11.75 -5.4" fill-rule="evenodd" stroke="none"/>
    </g>
    <g id="font_VAGRounded_BT_N0">
      <path d="M11.55 -5.4 L11.55 -22.15 26.55 -2.35 Q27.75 -0.75 28.85 -0.05 30.0 0.7 31.3 0.7 33.25 0.7 34.15 -0.55 35.1 -1.85 35.1 -4.5 L35.1 -30.95 Q35.1 -33.95 34.05 -35.4 33.05 -36.85 30.95 -36.85 28.85 -36.85 27.8 -35.4 26.8 -33.95 26.8 -30.95 L26.8 -13.9 11.5 -34.15 9.35 -36.2 Q8.35 -36.8 7.1 -36.8 5.15 -36.8 4.2 -35.45 3.25 -34.05 3.25 -31.25 L3.25 -5.4 Q3.25 -2.45 4.25 -1.0 5.3 0.45 7.4 0.45 9.5 0.45 10.5 -1.0 11.55 -2.45 11.55 -5.4" fill-rule="evenodd" stroke="none"/>
    </g>
    <g id="font_VAGRounded_BT_S0">
      <path d="M27.2 -11.25 L27.2 -11.25 Q27.2 -15.25 24.8 -17.9 22.4 -20.55 17.15 -22.3 L15.4 -22.85 Q10.55 -24.4 10.55 -26.6 10.55 -28.0 11.65 -28.85 12.75 -29.75 14.6 -29.75 L17.95 -29.1 21.1 -28.45 Q22.85 -28.45 23.85 -29.4 24.85 -30.35 24.85 -32.0 24.85 -34.3 22.05 -35.8 19.25 -37.35 14.9 -37.35 9.05 -37.35 5.4 -34.15 1.7 -30.9 1.7 -25.85 1.7 -21.9 4.0 -19.55 6.25 -17.2 12.0 -15.5 15.95 -14.3 17.15 -13.25 18.35 -12.2 18.35 -10.5 18.35 -8.9 17.15 -7.8 16.0 -6.75 14.25 -6.75 12.2 -6.75 9.25 -7.65 L5.4 -8.6 Q3.5 -8.6 2.4 -7.55 1.3 -6.55 1.3 -4.85 1.3 -2.5 4.75 -0.75 8.2 1.0 13.05 1.0 19.4 1.0 23.3 -2.4 27.2 -5.8 27.2 -11.25" fill-rule="evenodd" stroke="none"/>
    </g>
    <g id="font_VAGRounded_BT_:0">
      <path d="M1.3 -4.3 L1.3 -4.3 Q1.3 -2.35 2.65 -1.0 4.0 0.35 5.95 0.35 7.9 0.35 9.25 -1.0 10.55 -2.35 10.55 -4.3 10.55 -6.2 9.2 -7.55 7.85 -8.95 5.95 -8.95 4.05 -8.95 2.65 -7.55 1.3 -6.2 1.3 -4.3 M1.3 -19.8 L1.3 -19.8 Q1.3 -17.85 2.65 -16.5 4.0 -15.15 5.95 -15.15 7.9 -15.15 9.25 -16.5 10.55 -17.85 10.55 -19.8 10.55 -21.7 9.2 -23.05 7.85 -24.4 5.95 -24.4 4.0 -24.4 2.65 -23.05 1.3 -21.7 1.3 -19.8" fill-rule="evenodd" stroke="none"/>
    </g>
    <g id="text2" transform="matrix(1.0, 0.0, 0.0, 1.0, 2.0, 2.0)">
      <g transform="matrix(1.0, 0.0, 0.0, 1.0, -2.0, -2.0)">
        <use fill="#ff6600" height="18.7" transform="matrix(0.2344, 0.0, 0.0, 0.2344, 0.0, 13.85)" width="35.0" xlink:href="#font_VAGRounded_BT_00"/>
      </g>
    </g>
    <g id="text3" transform="matrix(1.0, 0.0, 0.0, 1.0, -0.75, -3.1)">
      <g transform="matrix(1.0, 0.0, 0.0, 1.0, 0.0, 0.0)">
        <use fill="#999999" height="10.85" transform="matrix(0.2344, 0.0, 0.0, 0.2344, 0.0, 12.0)" width="49.05" xlink:href="#font_VAGRounded_BT_L0"/>
        <use fill="#999999" height="10.85" transform="matrix(0.2344, 0.0, 0.0, 0.2344, 5.55, 12.0)" width="49.05" xlink:href="#font_VAGRounded_BT_O0"/>
        <use fill="#999999" height="10.85" transform="matrix(0.2344, 0.0, 0.0, 0.2344, 14.6, 12.0)" width="49.05" xlink:href="#font_VAGRounded_BT_S0"/>
        <use fill="#999999" height="10.85" transform="matrix(0.2344, 0.0, 0.0, 0.2344, 21.2, 12.0)" width="49.05" xlink:href="#font_VAGRounded_BT_S0"/>
        <use fill="#999999" height="10.85" transform="matrix(0.2344, 0.0, 0.0, 0.2344, 27.8, 12.0)" width="49.05" xlink:href="#font_VAGRounded_BT_E0"/>
        <use fill="#999999" height="10.85" transform="matrix(0.2344, 0.0, 0.0, 0.2344, 33.85, 12.0)" width="49.05" xlink:href="#font_VAGRounded_BT_S0"/>
        <use fill="#999999" height="10.85" transform="matrix(0.2344, 0.0, 0.0, 0.2344, 40.45, 12.0)" width="49.05" xlink:href="#font_VAGRounded_BT_:0"/>
      </g>
    </g>
    <g id="font_VAGRounded_BT_L0">
      <path d="M3.25 -30.95 L3.25 -5.2 Q3.25 -2.2 4.45 -1.1 5.65 0.0 8.85 0.0 L18.55 0.0 Q21.55 0.0 23.0 -0.95 24.45 -1.9 24.45 -3.85 24.45 -5.75 23.0 -6.7 21.55 -7.65 18.55 -7.65 L11.55 -7.65 11.55 -30.95 Q11.55 -33.95 10.5 -35.4 9.5 -36.85 7.4 -36.85 5.3 -36.85 4.25 -35.4 3.25 -33.95 3.25 -30.95" fill-rule="evenodd" stroke="none"/>
    </g>
    <g id="font_VAGRounded_BT_O0">
      <path d="M1.45 -18.15 L1.45 -18.15 Q1.45 -9.5 6.35 -4.2 11.25 1.1 19.3 1.1 27.35 1.1 32.3 -4.2 37.25 -9.5 37.25 -18.15 37.25 -26.75 32.3 -32.1 27.35 -37.4 19.3 -37.4 11.3 -37.4 6.4 -32.1 1.45 -26.8 1.45 -18.15 M10.45 -18.05 L10.45 -18.05 Q10.45 -23.35 12.85 -26.45 15.25 -29.55 19.3 -29.55 23.35 -29.55 25.75 -26.45 28.15 -23.35 28.15 -18.05 28.15 -12.95 25.75 -9.9 23.3 -6.85 19.3 -6.85 15.3 -6.85 12.9 -9.9 10.45 -12.95 10.45 -18.05" fill-rule="evenodd" stroke="none"/>
    </g>
    <g id="font_VAGRounded_BT_E0">
      <path d="M18.3 -36.4 L8.95 -36.4 Q5.8 -36.4 4.5 -35.15 3.25 -33.9 3.25 -30.55 L3.25 -5.2 Q3.25 -2.2 4.45 -1.1 5.65 0.0 8.85 0.0 L18.55 0.0 Q21.55 0.0 23.0 -0.95 24.45 -1.9 24.45 -3.85 24.45 -5.75 23.0 -6.7 21.55 -7.65 18.55 -7.65 L11.55 -7.65 11.55 -14.5 17.35 -14.5 Q20.35 -14.5 21.8 -15.4 23.25 -16.35 23.25 -18.3 23.25 -20.25 21.8 -21.2 20.35 -22.15 17.35 -22.15 L11.55 -22.15 11.55 -28.65 18.3 -28.65 Q21.25 -28.65 22.75 -29.6 24.2 -30.55 24.2 -32.5 24.2 -34.45 22.7 -35.4 21.25 -36.4 18.3 -36.4" fill-rule="evenodd" stroke="none"/>
    </g>
    <g id="shape1" transform="matrix(1.0, 0.0, 0.0, 1.0, 111.2, 15.5)">
      <path d="M62.45 -14.5 Q65.7 -14.05 68.15 -12.7 73.75 -9.6 74.65 -1.65 L74.65 1.2 74.4 1.2 Q72.65 10.75 63.75 12.45 L-99.35 12.45 Q-106.8 11.0 -109.2 4.1 L-109.95 1.2 -110.2 1.2 -110.2 -1.65 Q-109.7 -6.45 -107.45 -9.45 -105.95 -11.5 -103.7 -12.7 -101.3 -14.05 -98.05 -14.5 L62.45 -14.5" fill="#ffffff" fill-rule="evenodd" stroke="none"/>
      <path d="M62.45 -14.5 L-98.05 -14.5 Q-101.3 -14.05 -103.7 -12.7 -105.95 -11.5 -107.45 -9.45 -109.7 -6.45 -110.2 -1.65 L-110.2 1.2 -109.95 1.2 -109.2 4.1 Q-106.8 11.0 -99.35 12.45 L63.75 12.45 Q72.65 10.75 74.4 1.2 L74.65 1.2 74.65 -1.65 Q73.75 -9.6 68.15 -12.7 65.7 -14.05 62.45 -14.5 Z" fill="none" stroke="#003366" stroke-linecap="round" stroke-linejoin="round" stroke-opacity="0.2" stroke-width="2.0"/>
    </g>
    <g id="morphshape0" transform="matrix(1.0, 0.0, 0.0, 1.0, 105.95, 11.4)">
      <path d="M-105.95 -2.25 L-105.95 0.7 -105.85 0.7 Q-104.55 8.05 -97.7 9.35 L-59.9 9.35 -59.9 9.4 57.15 9.4 55.95 9.5 60.45 9.5 Q69.1 7.65 70.7 0.7 L70.8 0.7 70.8 -1.6 70.65 -2.55 Q69.3 -10.25 61.3 -11.4 L-96.7 -11.4 Q-99.2 -11.05 -101.05 -10.0 -105.1 -7.8 -105.95 -2.25" fill="#b13500" fill-rule="evenodd" stroke="none"/>
      <path d="M-105.95 -2.25 Q-105.1 -7.8 -101.05 -10.0 -99.2 -11.05 -96.7 -11.4 L61.3 -11.4 Q69.3 -10.25 70.65 -2.55 L70.8 -1.6 70.8 0.7 70.7 0.7 Q69.1 7.65 60.45 9.5 L55.95 9.5 57.15 9.4 -59.9 9.4 -59.9 9.35 -97.7 9.35 Q-104.55 8.05 -105.85 0.7 L-105.95 0.7 -105.95 -2.25 Z" ffdec:has-small-stroke="true" ffdec:original-stroke-width="0.0" fill="none" stroke="#000000" stroke-linecap="round" stroke-linejoin="round" stroke-opacity="0.0" stroke-width="1.0"/>
    </g>
  </defs>
</svg>
