<?xml version="1.0" encoding="UTF-8" standalone="no"?>
<svg xmlns:ffdec="https://www.free-decompiler.com/flash" xmlns:xlink="http://www.w3.org/1999/xlink" ffdec:objectType="frame" height="33.0px" width="33.0px" xmlns="http://www.w3.org/2000/svg">
  <g transform="matrix(1.0, 0.0, 0.0, 1.0, 15.85, 16.1)">
    <use ffdec:characterId="540" height="27.0" transform="matrix(1.0, 0.0, 0.0, 1.0, -13.0, -13.0)" width="27.0" xlink:href="#shape0"/>
    <use ffdec:characterId="543" height="25.0" transform="matrix(1.0, 0.0, 0.0, 1.0, -12.0, -12.0)" width="25.0" xlink:href="#morphshape0"/>
    <use ffdec:characterId="293" height="1.8" transform="matrix(1.9444, 0.0, 0.0, 1.9444, -4.4472, -6.2)" width="1.8" xlink:href="#shape1"/>
    <use ffdec:characterId="542" height="20.0" transform="matrix(0.1396, -0.9897, 0.9897, 0.1396, -10.5516, 8.5045)" width="19.4" xlink:href="#shape2"/>
    <use ffdec:characterId="497" height="5.4" transform="matrix(0.1396, -0.9897, 0.9897, 0.1396, 7.8853, -4.8749)" width="5.4" xlink:href="#shape3"/>
    <use ffdec:characterId="497" height="5.4" transform="matrix(0.1396, -0.9897, 0.9897, 0.1396, -12.6647, 10.1751)" width="5.4" xlink:href="#shape4"/>
    <use ffdec:characterId="497" height="5.4" transform="matrix(0.1536, -1.0887, 1.0887, 0.1536, 2.2789, 2.0176)" width="5.4" xlink:href="#shape5"/>
    <use ffdec:characterId="497" height="5.4" transform="matrix(0.1536, -1.0887, 1.0887, 0.1536, -4.7711, 7.3676)" width="5.4" xlink:href="#shape5"/>
  </g>
  <defs>
    <g id="shape0" transform="matrix(1.0, 0.0, 0.0, 1.0, 13.0, 13.0)">
      <path d="M9.35 -8.35 Q13.0 -4.7 13.0 0.5 13.0 5.7 9.35 9.35 5.7 13.0 0.5 13.0 -4.7 13.0 -8.35 9.35 -12.0 5.7 -12.0 0.5 -12.0 -4.7 -8.35 -8.35 -4.7 -12.0 0.5 -12.0 5.7 -12.0 9.35 -8.35 Z" fill="none" stroke="#000000" stroke-linecap="round" stroke-linejoin="round" stroke-width="2.0"/>
    </g>
    <g id="morphshape0" transform="matrix(1.0, 0.0, 0.0, 1.0, 12.0, 12.0)">
      <path d="M-12.0 0.5 Q-12.0 5.7 -8.35 9.35 -4.7 13.0 0.5 13.0 5.7 13.0 9.35 9.35 13.0 5.7 13.0 0.5 13.0 -4.7 9.35 -8.35 5.7 -12.0 0.5 -12.0 -4.7 -12.0 -8.35 -8.35 -12.0 -4.7 -12.0 0.5" fill="url(#gradient0)" fill-rule="evenodd" stroke="none"/>
      <path d="M-12.0 0.5 Q-12.0 -4.7 -8.35 -8.35 -4.7 -12.0 0.5 -12.0 5.7 -12.0 9.35 -8.35 13.0 -4.7 13.0 0.5 13.0 5.7 9.35 9.35 5.7 13.0 0.5 13.0 -4.7 13.0 -8.35 9.35 -12.0 5.7 -12.0 0.5 Z" ffdec:has-small-stroke="true" ffdec:original-stroke-width="0.0" fill="none" stroke="#000000" stroke-linecap="round" stroke-linejoin="round" stroke-opacity="0.0" stroke-width="1.0"/>
    </g>
    <radialGradient cx="0" cy="0" gradientTransform="matrix(0.034, 0.0, 0.0, 0.034, -3.55, -2.9)" gradientUnits="userSpaceOnUse" id="gradient0" r="819.2" spreadMethod="pad">
      <stop offset="0.0" stop-color="#ecf2f2"/>
      <stop offset="0.45098039215686275" stop-color="#b4bccb"/>
      <stop offset="0.7294117647058823" stop-color="#1d2432"/>
    </radialGradient>
    <g id="shape1" transform="matrix(1.0, 0.0, 0.0, 1.0, 0.95, 0.9)">
      <path d="M-0.05 -0.9 L0.6 -0.65 0.85 0.0 0.6 0.65 -0.05 0.9 -0.7 0.65 -0.95 0.0 -0.7 -0.65 -0.05 -0.9" fill="#ffffff" fill-rule="evenodd" stroke="none"/>
    </g>
    <g id="shape2" transform="matrix(1.0, 0.0, 0.0, 1.0, 9.7, 10.0)">
      <path d="M7.95 9.25 Q-4.95 3.75 -8.95 -8.25" fill="none" stroke="#3d4561" stroke-linecap="round" stroke-linejoin="round" stroke-width="1.5"/>
      <path d="M8.95 8.25 Q-3.95 2.75 -7.95 -9.25" fill="none" stroke="#93a3bb" stroke-linecap="round" stroke-linejoin="round" stroke-width="1.5"/>
    </g>
    <g id="shape3" transform="matrix(1.0, 0.0, 0.0, 1.0, 0.5, 0.5)">
      <path d="M0.0 2.2 Q0.0 1.3 0.6 0.6 1.3 0.0 2.2 0.0 3.1 0.0 3.7 0.6 4.4 1.3 4.4 2.2 4.4 3.1 3.7 3.7 3.1 4.4 2.2 4.4 1.3 4.4 0.6 3.7 0.0 3.1 0.0 2.2 Z" ffdec:has-small-stroke="true" ffdec:original-stroke-width="1.0" fill="none" stroke="#000000" stroke-linecap="round" stroke-linejoin="round" stroke-width="1.0004571968079832"/>
      <path d="M0.0 2.2 Q0.0 1.3 0.6 0.6 1.3 0.0 2.2 0.0 3.1 0.0 3.7 0.6 4.4 1.3 4.4 2.2 4.4 3.1 3.7 3.7 3.1 4.4 2.2 4.4 1.3 4.4 0.6 3.7 0.0 3.1 0.0 2.2" fill="url(#gradient1)" fill-rule="evenodd" stroke="none"/>
      <path d="M1.8 1.0 L2.3 1.2 2.5 1.7 2.3 2.2 Q2.1 2.4 1.8 2.4 L1.3 2.2 1.1 1.7 1.3 1.2 1.8 1.0" fill="#ffffff" fill-rule="evenodd" stroke="none"/>
    </g>
    <radialGradient cx="0" cy="0" gradientTransform="matrix(0.0045, 0.0, 0.0, 0.0045, 1.7, 1.8)" gradientUnits="userSpaceOnUse" id="gradient1" r="819.2" spreadMethod="pad">
      <stop offset="0.0" stop-color="#bacbcf"/>
      <stop offset="1.0" stop-color="#243131"/>
    </radialGradient>
    <g id="shape4" transform="matrix(1.0, 0.0, 0.0, 1.0, 0.5, 0.5)">
      <path d="M0.0 2.2 Q0.0 1.3 0.6 0.6 1.3 0.0 2.2 0.0 3.1 0.0 3.7 0.6 4.4 1.3 4.4 2.2 4.4 3.1 3.7 3.7 3.1 4.4 2.2 4.4 1.3 4.4 0.6 3.7 0.0 3.1 0.0 2.2 Z" ffdec:has-small-stroke="true" ffdec:original-stroke-width="1.0" fill="none" stroke="#000000" stroke-linecap="round" stroke-linejoin="round" stroke-width="1.0004571968079832"/>
      <path d="M0.0 2.2 Q0.0 1.3 0.6 0.6 1.3 0.0 2.2 0.0 3.1 0.0 3.7 0.6 4.4 1.3 4.4 2.2 4.4 3.1 3.7 3.7 3.1 4.4 2.2 4.4 1.3 4.4 0.6 3.7 0.0 3.1 0.0 2.2" fill="url(#gradient2)" fill-rule="evenodd" stroke="none"/>
      <path d="M1.8 1.0 L2.3 1.2 2.5 1.7 2.3 2.2 Q2.1 2.4 1.8 2.4 L1.3 2.2 1.1 1.7 1.3 1.2 1.8 1.0" fill="#ffffff" fill-rule="evenodd" stroke="none"/>
    </g>
    <radialGradient cx="0" cy="0" gradientTransform="matrix(0.0045, 0.0, 0.0, 0.0045, 1.7, 1.8)" gradientUnits="userSpaceOnUse" id="gradient2" r="819.2" spreadMethod="pad">
      <stop offset="0.0" stop-color="#bacbcf"/>
      <stop offset="1.0" stop-color="#243131"/>
    </radialGradient>
    <g id="shape5" transform="matrix(1.0, 0.0, 0.0, 1.0, 0.5, 0.5)">
      <path d="M0.0 2.2 Q0.0 1.3 0.6 0.6 1.3 0.0 2.2 0.0 3.1 0.0 3.7 0.6 4.4 1.3 4.4 2.2 4.4 3.1 3.7 3.7 3.1 4.4 2.2 4.4 1.3 4.4 0.6 3.7 0.0 3.1 0.0 2.2 Z" fill="none" stroke="#000000" stroke-linecap="round" stroke-linejoin="round" stroke-width="1.0"/>
      <path d="M0.0 2.2 Q0.0 1.3 0.6 0.6 1.3 0.0 2.2 0.0 3.1 0.0 3.7 0.6 4.4 1.3 4.4 2.2 4.4 3.1 3.7 3.7 3.1 4.4 2.2 4.4 1.3 4.4 0.6 3.7 0.0 3.1 0.0 2.2" fill="url(#gradient3)" fill-rule="evenodd" stroke="none"/>
      <path d="M1.8 1.0 L2.3 1.2 2.5 1.7 2.3 2.2 Q2.1 2.4 1.8 2.4 L1.3 2.2 1.1 1.7 1.3 1.2 1.8 1.0" fill="#ffffff" fill-rule="evenodd" stroke="none"/>
    </g>
    <radialGradient cx="0" cy="0" gradientTransform="matrix(0.0045, 0.0, 0.0, 0.0045, 1.7, 1.8)" gradientUnits="userSpaceOnUse" id="gradient3" r="819.2" spreadMethod="pad">
      <stop offset="0.0" stop-color="#bacbcf"/>
      <stop offset="1.0" stop-color="#243131"/>
    </radialGradient>
  </defs>
</svg>
