<?xml version="1.0" encoding="UTF-8" standalone="no"?>
<svg xmlns:ffdec="https://www.free-decompiler.com/flash" xmlns:xlink="http://www.w3.org/1999/xlink" ffdec:objectType="frame" height="36.65px" width="114.0px" xmlns="http://www.w3.org/2000/svg">
  <g transform="matrix(1.0, 0.0, 0.0, 1.0, 17.6, 19.3)">
    <use ffdec:characterId="559" height="36.65" transform="matrix(1.0, 0.0, 0.0, 1.0, -17.6, -19.3)" width="114.0" xlink:href="#shape0"/>
    <use ffdec:characterId="560" height="30.0" transform="matrix(1.0, 0.0, 0.0, 1.0, -11.6, -18.5)" width="102.0" xlink:href="#shape1"/>
    <use ffdec:characterId="561" height="12.7" transform="matrix(1.0, 0.0, 0.0, 1.0, 5.3, -8.1)" width="76.75" xlink:href="#text0"/>
  </g>
  <defs>
    <g id="shape0" transform="matrix(1.0, 0.0, 0.0, 1.0, 17.6, 19.3)">
      <path d="M-15.6 5.15 L-15.6 -8.9 Q-15.6 -12.85 -12.7 -15.6 -9.75 -18.35 -5.6 -18.35 L84.4 -18.35 Q88.55 -18.35 91.45 -15.6 94.4 -12.85 94.4 -8.9 L94.4 5.15 92.4 5.15 92.4 4.9 92.4 -8.45 92.3 -8.45 Q91.85 -11.45 89.45 -13.7 86.55 -16.45 82.4 -16.45 L-3.6 -16.45 Q-7.75 -16.45 -10.7 -13.7 -13.05 -11.45 -13.5 -8.45 L-13.6 -8.45 -13.6 4.9 -13.6 5.15 -13.55 5.7 -13.6 5.7 -13.6 6.0 -13.55 6.0 Q-13.25 9.3 -10.7 11.7 -7.75 14.5 -3.6 14.5 L82.4 14.5 Q86.55 14.5 89.45 11.7 92.05 9.3 92.35 6.0 L92.4 6.0 92.4 5.7 92.4 5.15 94.4 5.15 94.4 6.95 Q94.4 10.85 91.45 13.6 88.55 16.35 84.4 16.4 L-5.6 16.4 Q-9.75 16.35 -12.7 13.6 -15.6 10.85 -15.6 6.95 L-15.6 5.15 -13.6 5.15 -15.6 5.15" fill="#01317e" fill-opacity="0.08235294" fill-rule="evenodd" stroke="none"/>
      <path d="M-15.6 5.15 L-17.6 5.15 -17.6 -9.85 Q-17.6 -13.8 -14.7 -16.55 -11.75 -19.3 -7.6 -19.3 L86.4 -19.3 Q90.55 -19.3 93.45 -16.55 96.4 -13.8 96.4 -9.85 L96.4 5.15 94.4 5.15 94.4 -8.9 Q94.4 -12.85 91.45 -15.6 88.55 -18.35 84.4 -18.35 L-5.6 -18.35 Q-9.75 -18.35 -12.7 -15.6 -15.6 -12.85 -15.6 -8.9 L-15.6 5.15 -15.6 6.95 Q-15.6 10.85 -12.7 13.6 -9.75 16.35 -5.6 16.4 L84.4 16.4 Q88.55 16.35 91.45 13.6 94.4 10.85 94.4 6.95 L94.4 5.15 96.4 5.15 96.4 7.9 Q96.4 11.8 93.45 14.55 90.55 17.3 86.4 17.35 L-7.6 17.35 Q-11.75 17.3 -14.7 14.55 -17.6 11.8 -17.6 7.9 L-17.6 5.15 -15.6 5.15" fill="#01317e" fill-opacity="0.03137255" fill-rule="evenodd" stroke="none"/>
      <path d="M92.4 5.15 L-13.6 5.15 -13.6 4.9 -13.6 -8.45 -13.5 -8.45 Q-13.05 -11.45 -10.7 -13.7 -7.75 -16.45 -3.6 -16.45 L82.4 -16.45 Q86.55 -16.45 89.45 -13.7 91.85 -11.45 92.3 -8.45 L92.4 -8.45 92.4 4.9 92.4 5.15 92.4 5.7 92.4 6.0 92.35 6.0 Q92.05 9.3 89.45 11.7 86.55 14.5 82.4 14.5 L-3.6 14.5 Q-7.75 14.5 -10.7 11.7 -13.25 9.3 -13.55 6.0 L-13.6 6.0 -13.6 5.7 -13.55 5.7 -13.6 5.15 92.4 5.15" fill="#01317e" fill-opacity="0.18039216" fill-rule="evenodd" stroke="none"/>
    </g>
    <g id="shape1" transform="matrix(1.0, 0.0, 0.0, 1.0, 11.6, 18.5)">
      <path d="M89.75 5.15 Q89.0 7.0 87.45 8.55 84.55 11.5 80.4 11.5 L-1.6 11.5 Q-5.75 11.5 -8.7 8.55 -10.25 7.0 -10.95 5.15 L89.75 5.15 -10.95 5.15 Q-11.6 1.8 -11.6 -2.05 L-11.6 -8.5 Q-11.6 -12.65 -8.7 -15.6 -5.75 -18.5 -1.6 -18.5 L80.4 -18.5 Q84.55 -18.5 87.45 -15.6 90.4 -12.65 90.4 -8.5 L90.4 -2.05 Q90.4 1.8 89.75 5.15" fill="#ffffff" fill-rule="evenodd" stroke="none"/>
    </g>
    <g id="text0" transform="matrix(1.0, 0.0, 0.0, 1.0, -37.8, -3.6)">
      <g transform="matrix(1.0, 0.0, 0.0, 1.0, 36.75, 0.0)">
        <use fill="#66cc00" height="12.7" transform="matrix(0.2734, 0.0, 0.0, 0.2734, 0.0, 14.0)" width="76.75" xlink:href="#font_VAGRounded_BT_I0"/>
        <use fill="#66cc00" height="12.7" transform="matrix(0.2734, 0.0, 0.0, 0.2734, 4.15, 14.0)" width="76.75" xlink:href="#font_VAGRounded_BT_N0"/>
        <use fill="#66cc00" height="12.7" transform="matrix(0.2734, 0.0, 0.0, 0.2734, 14.6, 14.0)" width="76.75" xlink:href="#font_VAGRounded_BT_S0"/>
        <use fill="#66cc00" height="12.7" transform="matrix(0.2734, 0.0, 0.0, 0.2734, 22.3, 14.0)" width="76.75" xlink:href="#font_VAGRounded_BT_T0"/>
        <use fill="#66cc00" height="12.7" transform="matrix(0.2734, 0.0, 0.0, 0.2734, 28.9, 14.0)" width="76.75" xlink:href="#font_VAGRounded_BT_A0"/>
        <use fill="#66cc00" height="12.7" transform="matrix(0.2734, 0.0, 0.0, 0.2734, 37.65, 14.0)" width="76.75" xlink:href="#font_VAGRounded_BT_L0"/>
        <use fill="#66cc00" height="12.7" transform="matrix(0.2734, 0.0, 0.0, 0.2734, 44.1, 14.0)" width="76.75" xlink:href="#font_VAGRounded_BT_L0"/>
        <use fill="#66cc00" height="12.7" transform="matrix(0.2734, 0.0, 0.0, 0.2734, 55.1, 14.0)" width="76.75" xlink:href="#font_VAGRounded_BT_I0"/>
        <use fill="#66cc00" height="12.7" transform="matrix(0.2734, 0.0, 0.0, 0.2734, 59.25, 14.0)" width="76.75" xlink:href="#font_VAGRounded_BT_T0"/>
        <use fill="#66cc00" height="12.7" transform="matrix(0.2734, 0.0, 0.0, 0.2734, 65.85, 14.0)" width="76.75" xlink:href="#font_VAGRounded_BT__1"/>
      </g>
    </g>
    <g id="font_VAGRounded_BT_I0">
      <path d="M11.75 -5.4 L11.75 -30.95 Q11.75 -33.95 10.7 -35.4 9.7 -36.85 7.6 -36.85 5.5 -36.85 4.45 -35.4 3.45 -33.95 3.45 -30.95 L3.45 -5.4 Q3.45 -2.45 4.45 -1.0 5.5 0.45 7.6 0.45 9.7 0.45 10.7 -1.0 11.75 -2.45 11.75 -5.4" fill-rule="evenodd" stroke="none"/>
    </g>
    <g id="font_VAGRounded_BT_N0">
      <path d="M11.55 -5.4 L11.55 -22.15 26.55 -2.35 Q27.75 -0.75 28.85 -0.05 30.0 0.7 31.3 0.7 33.25 0.7 34.15 -0.55 35.1 -1.85 35.1 -4.5 L35.1 -30.95 Q35.1 -33.95 34.05 -35.4 33.05 -36.85 30.95 -36.85 28.85 -36.85 27.8 -35.4 26.8 -33.95 26.8 -30.95 L26.8 -13.9 11.5 -34.15 9.35 -36.2 Q8.35 -36.8 7.1 -36.8 5.15 -36.8 4.2 -35.45 3.25 -34.05 3.25 -31.25 L3.25 -5.4 Q3.25 -2.45 4.25 -1.0 5.3 0.45 7.4 0.45 9.5 0.45 10.5 -1.0 11.55 -2.45 11.55 -5.4" fill-rule="evenodd" stroke="none"/>
    </g>
    <g id="font_VAGRounded_BT_S0">
      <path d="M27.2 -11.25 L27.2 -11.25 Q27.2 -15.25 24.8 -17.9 22.4 -20.55 17.15 -22.3 L15.4 -22.85 Q10.55 -24.4 10.55 -26.6 10.55 -28.0 11.65 -28.85 12.75 -29.75 14.6 -29.75 L17.95 -29.1 21.1 -28.45 Q22.85 -28.45 23.85 -29.4 24.85 -30.35 24.85 -32.0 24.85 -34.3 22.05 -35.8 19.25 -37.35 14.9 -37.35 9.05 -37.35 5.4 -34.15 1.7 -30.9 1.7 -25.85 1.7 -21.9 4.0 -19.55 6.25 -17.2 12.0 -15.5 15.95 -14.3 17.15 -13.25 18.35 -12.2 18.35 -10.5 18.35 -8.9 17.15 -7.8 16.0 -6.75 14.25 -6.75 12.2 -6.75 9.25 -7.65 L5.4 -8.6 Q3.5 -8.6 2.4 -7.55 1.3 -6.55 1.3 -4.85 1.3 -2.5 4.75 -0.75 8.2 1.0 13.05 1.0 19.4 1.0 23.3 -2.4 27.2 -5.8 27.2 -11.25" fill-rule="evenodd" stroke="none"/>
    </g>
    <g id="font_VAGRounded_BT_T0">
      <path d="M7.95 -28.65 L7.95 -5.4 Q7.95 -2.45 8.95 -1.0 10.0 0.45 12.1 0.45 14.2 0.45 15.2 -1.0 16.25 -2.45 16.25 -5.4 L16.25 -28.65 19.3 -28.65 Q22.3 -28.65 23.75 -29.6 25.2 -30.55 25.2 -32.5 25.2 -34.45 23.75 -35.4 22.25 -36.4 19.3 -36.4 L4.9 -36.4 Q1.9 -36.4 0.45 -35.4 -1.0 -34.45 -1.0 -32.5 -1.0 -30.55 0.45 -29.6 1.9 -28.65 4.9 -28.65 L7.95 -28.65" fill-rule="evenodd" stroke="none"/>
    </g>
    <g id="font_VAGRounded_BT_A0">
      <path d="M11.55 -14.5 L16.05 -28.0 20.25 -14.5 11.55 -14.5 M9.2 -6.85 L22.65 -6.85 23.65 -3.45 Q24.3 -1.4 25.35 -0.4 26.4 0.6 28.0 0.6 29.8 0.6 30.95 -0.5 32.1 -1.6 32.1 -3.3 L32.0 -4.45 31.55 -5.95 22.35 -32.1 Q21.5 -34.45 19.95 -35.65 18.35 -36.9 16.25 -36.9 14.0 -36.9 12.45 -35.6 10.9 -34.3 9.9 -31.55 L0.4 -5.8 0.1 -4.7 0.0 -3.4 Q0.0 -1.7 1.15 -0.55 2.25 0.6 3.95 0.6 5.3 0.6 6.35 -0.35 7.35 -1.35 7.95 -3.15 L9.2 -6.85" fill-rule="evenodd" stroke="none"/>
    </g>
    <g id="font_VAGRounded_BT_L0">
      <path d="M3.25 -30.95 L3.25 -5.2 Q3.25 -2.2 4.45 -1.1 5.65 0.0 8.85 0.0 L18.55 0.0 Q21.55 0.0 23.0 -0.95 24.45 -1.9 24.45 -3.85 24.45 -5.75 23.0 -6.7 21.55 -7.65 18.55 -7.65 L11.55 -7.65 11.55 -30.95 Q11.55 -33.95 10.5 -35.4 9.5 -36.85 7.4 -36.85 5.3 -36.85 4.25 -35.4 3.25 -33.95 3.25 -30.95" fill-rule="evenodd" stroke="none"/>
    </g>
    <g id="font_VAGRounded_BT__1">
      <path d="M3.15 -3.4 L3.15 -3.4 Q3.15 -1.55 4.45 -0.2 5.75 1.1 7.6 1.1 9.4 1.1 10.75 -0.25 12.05 -1.55 12.05 -3.4 12.05 -5.25 10.75 -6.55 9.45 -7.85 7.6 -7.85 5.75 -7.85 4.45 -6.55 3.15 -5.3 3.15 -3.4 M11.6 -16.55 L11.6 -31.6 Q11.6 -34.55 10.6 -35.95 9.6 -37.4 7.6 -37.4 5.6 -37.4 4.6 -35.95 3.6 -34.5 3.6 -31.6 L3.6 -16.55 Q3.6 -13.55 4.6 -12.1 5.6 -10.65 7.6 -10.65 9.6 -10.65 10.6 -12.1 11.6 -13.55 11.6 -16.55" fill-rule="evenodd" stroke="none"/>
    </g>
  </defs>
</svg>
