<?xml version="1.0" encoding="UTF-8" standalone="no"?>
<svg xmlns:ffdec="https://www.free-decompiler.com/flash" xmlns:xlink="http://www.w3.org/1999/xlink" ffdec:objectType="frame" height="17.4px" width="73.9px" xmlns="http://www.w3.org/2000/svg">
  <g transform="matrix(1.0, 0.0, 0.0, 1.0, 0.0, 0.0)">
    <use ffdec:characterId="48" height="17.4" transform="matrix(1.0, 0.0, 0.0, 1.0, 0.0, 0.0)" width="73.9" xlink:href="#shape0"/>
    <use ffdec:characterId="45" height="7.95" transform="matrix(0.9999, 0.0, 0.0, 1.0, 23.5516, 4.85)" width="30.25" xlink:href="#text0"/>
  </g>
  <defs>
    <g id="shape0" transform="matrix(1.0, 0.0, 0.0, 1.0, 0.0, 0.0)">
      <path d="M72.15 15.65 Q70.35 17.4 67.9 17.4 L5.95 17.4 Q3.45 17.4 1.7 15.65 0.3 14.25 0.0 12.4 L0.0 5.0 Q0.3 3.15 1.7 1.75 3.45 0.0 5.95 0.0 L67.9 0.0 Q70.35 0.0 72.15 1.75 73.85 3.5 73.9 6.0 L73.9 11.4 Q73.85 13.9 72.15 15.65" fill="#ffe0b2" fill-rule="evenodd" stroke="none"/>
    </g>
    <g id="text0" transform="matrix(1.0, 0.0, 0.0, 1.0, 11.5, -2.75)">
      <g transform="matrix(1.0, 0.0, 0.0, 1.0, -12.3, 0.0)">
        <use fill="#ffffff" height="7.95" transform="matrix(0.2148, 0.0, 0.0, 0.2148, 0.0, 11.0)" width="30.25" xlink:href="#font_TradeGothic_Bold_P0"/>
        <use fill="#ffffff" height="7.95" transform="matrix(0.2148, 0.0, 0.0, 0.2148, 6.1, 11.0)" width="30.25" xlink:href="#font_TradeGothic_Bold_L0"/>
        <use fill="#ffffff" height="7.95" transform="matrix(0.2148, 0.0, 0.0, 0.2148, 11.0, 11.0)" width="30.25" xlink:href="#font_TradeGothic_Bold_A0"/>
        <use fill="#ffffff" height="7.95" transform="matrix(0.2148, 0.0, 0.0, 0.2148, 17.1, 11.0)" width="30.25" xlink:href="#font_TradeGothic_Bold_Y0"/>
        <use fill="#ffffff" height="7.95" transform="matrix(0.2148, 0.0, 0.0, 0.2148, 23.2, 11.0)" width="30.25" xlink:href="#font_TradeGothic_Bold__0"/>
      </g>
    </g>
    <g id="font_TradeGothic_Bold_P0">
      <path d="M10.65 -31.15 L10.65 -20.65 14.45 -20.65 Q19.65 -20.65 19.65 -25.9 19.65 -31.15 14.45 -31.15 L10.65 -31.15 M10.65 0.0 L3.6 0.0 3.6 -36.95 13.8 -36.95 Q20.3 -36.9 23.5 -34.05 26.75 -31.15 26.75 -25.9 26.75 -20.65 23.5 -17.75 20.3 -14.9 13.8 -14.85 L10.65 -14.85 10.65 0.0" fill-rule="evenodd" stroke="none"/>
    </g>
    <g id="font_TradeGothic_Bold_L0">
      <path d="M21.65 0.0 L3.2 0.0 3.2 -36.95 10.25 -36.95 10.25 -6.25 21.65 -6.25 21.65 0.0" fill-rule="evenodd" stroke="none"/>
    </g>
    <g id="font_TradeGothic_Bold_A0">
      <path d="M7.5 0.0 L0.7 0.0 9.85 -36.95 18.9 -36.95 27.8 0.0 21.05 0.0 19.25 -7.75 9.5 -7.75 7.5 0.0 M14.25 -29.0 L10.75 -14.0 17.8 -14.0 14.35 -29.0 14.25 -29.0" fill-rule="evenodd" stroke="none"/>
    </g>
    <g id="font_TradeGothic_Bold_Y0">
      <path d="M8.15 -36.95 L14.35 -22.05 20.35 -36.95 27.85 -36.95 17.8 -14.95 17.8 0.0 10.7 0.0 10.7 -14.95 0.65 -36.95 8.15 -36.95" fill-rule="evenodd" stroke="none"/>
    </g>
    <g id="font_TradeGothic_Bold__0">
      <path d="M10.75 0.0 L3.5 0.0 3.5 -7.25 10.75 -7.25 10.75 0.0 M10.85 -36.95 L9.45 -12.5 4.8 -12.5 3.4 -36.95 10.85 -36.95" fill-rule="evenodd" stroke="none"/>
    </g>
  </defs>
</svg>
