<?xml version="1.0" encoding="UTF-8" standalone="no"?>
<svg xmlns:ffdec="https://www.free-decompiler.com/flash" xmlns:xlink="http://www.w3.org/1999/xlink" ffdec:objectType="frame" height="15.8px" width="86.65px" xmlns="http://www.w3.org/2000/svg">
  <g transform="matrix(1.0, 0.0, 0.0, 1.0, 0.0, 0.0)">
    <use ffdec:characterId="25" height="15.8" transform="matrix(1.0, 0.0, 0.0, 1.0, 0.0, 0.0)" width="86.65" xlink:href="#shape0"/>
  </g>
  <defs>
    <g id="shape0" transform="matrix(1.0, 0.0, 0.0, 1.0, 0.0, 0.0)">
      <path d="M8.3 0.0 L10.9 5.15 16.65 6.0 12.45 10.05 13.45 15.8 8.3 13.05 3.15 15.8 4.15 10.05 0.0 6.0 5.7 5.15 8.3 0.0" fill="#ff9900" fill-rule="evenodd" stroke="none"/>
      <path d="M25.8 0.0 L28.4 5.15 34.15 6.0 29.95 10.05 30.95 15.8 25.8 13.05 Q23.2 14.4 20.65 15.8 L21.65 10.05 17.5 6.0 23.2 5.15 25.8 0.0" fill="#ff9900" fill-rule="evenodd" stroke="none"/>
      <path d="M43.05 0.0 L45.65 5.15 51.4 6.0 47.2 10.05 48.2 15.8 43.05 13.05 37.9 15.8 38.9 10.05 34.75 6.0 40.45 5.15 43.05 0.0" fill="#ff9900" fill-rule="evenodd" stroke="none"/>
      <path d="M60.8 0.0 L63.4 5.15 69.15 6.0 64.95 10.05 65.95 15.8 60.8 13.05 55.65 15.8 56.65 10.05 52.5 6.0 58.2 5.15 60.8 0.0" fill="#ff9900" fill-rule="evenodd" stroke="none"/>
      <path d="M78.3 0.0 L80.9 5.15 86.65 6.0 82.45 10.05 83.45 15.8 78.3 13.05 73.15 15.8 74.15 10.05 70.0 6.0 75.7 5.15 78.3 0.0" fill="#ff9900" fill-rule="evenodd" stroke="none"/>
    </g>
  </defs>
</svg>
