<?xml version="1.0" encoding="UTF-8" standalone="no"?>
<svg xmlns:ffdec="https://www.free-decompiler.com/flash" xmlns:xlink="http://www.w3.org/1999/xlink" ffdec:objectType="frame" height="266.05px" width="799.7px" xmlns="http://www.w3.org/2000/svg">
  <g transform="matrix(1.0, 0.0, 0.0, 1.0, 47.75, 38.8)">
    <use ffdec:characterId="228" height="142.85" transform="matrix(1.0, 0.0, 0.0, 1.0, 0.0, -11.15)" width="751.95" xlink:href="#sprite0"/>
    <use ffdec:characterId="221" height="266.05" transform="matrix(1.0, 0.0, 0.0, 1.0, -47.75, -38.8)" width="337.85" xlink:href="#sprite2"/>
    <use ffdec:characterId="239" height="22.0" transform="matrix(1.0, 0.0, 0.0, 1.0, 1.9, -5.5)" width="111.0" xlink:href="#sprite4"/>
  </g>
  <defs>
    <g id="sprite0" transform="matrix(1.0, 0.0, 0.0, 1.0, 0.0, 36.5)">
      <use ffdec:characterId="92" height="100.0" id="boundingBox_mc" transform="matrix(1.0, 0.0, 0.0, 0.22, 0.0, 0.0)" width="100.0" xlink:href="#sprite1"/>
    </g>
    <g id="sprite1" transform="matrix(1.0, 0.0, 0.0, 1.0, 0.0, 0.0)">
      <use ffdec:characterId="91" height="100.0" transform="matrix(1.0, 0.0, 0.0, 1.0, 0.0, 0.0)" width="100.0" xlink:href="#shape0"/>
    </g>
    <g id="shape0" transform="matrix(1.0, 0.0, 0.0, 1.0, 0.0, 0.0)">
      <path d="M100.0 100.0 L0.0 100.0 0.0 0.0 100.0 0.0 100.0 100.0" fill="#ffffff" fill-rule="evenodd" stroke="none"/>
      <path d="M100.0 100.0 L0.0 100.0 0.0 0.0 100.0 0.0 100.0 100.0 Z" ffdec:has-small-stroke="true" ffdec:original-stroke-width="0.05" fill="none" stroke="#666666" stroke-linecap="round" stroke-linejoin="round" stroke-width="1.38114329331467"/>
    </g>
    <g id="sprite2" transform="matrix(1.0, 0.0, 0.0, 1.0, 49.6, 91.65)">
      <use ffdec:characterId="92" height="100.0" id="boundingBox_mc" transform="matrix(1.0, 0.0, 0.0, 1.0, 0.0, 0.0)" width="100.0" xlink:href="#sprite3"/>
    </g>
    <g id="sprite3" transform="matrix(1.0, 0.0, 0.0, 1.0, 0.0, 0.0)">
      <use ffdec:characterId="91" height="100.0" transform="matrix(1.0, 0.0, 0.0, 1.0, 0.0, 0.0)" width="100.0" xlink:href="#shape1"/>
    </g>
    <g id="shape1" transform="matrix(1.0, 0.0, 0.0, 1.0, 0.0, 0.0)">
      <path d="M100.0 100.0 L0.0 100.0 0.0 0.0 100.0 0.0 100.0 100.0" fill="#ffffff" fill-rule="evenodd" stroke="none"/>
      <path d="M100.0 100.0 L0.0 100.0 0.0 0.0 100.0 0.0 100.0 100.0 Z" ffdec:has-small-stroke="true" ffdec:original-stroke-width="0.05" fill="none" stroke="#666666" stroke-linecap="round" stroke-linejoin="round" stroke-width="1.0"/>
    </g>
    <g id="sprite4" transform="matrix(1.0, 0.0, 0.0, 1.0, -106.0, -26.95)">
      <use ffdec:characterId="234" height="22.0" transform="matrix(1.0, 0.0, 0.0, 1.0, 106.0, 26.95)" width="18.0" xlink:href="#sprite5"/>
      <use ffdec:characterId="237" height="22.0" transform="matrix(1.0, 0.0, 0.0, 1.0, 199.0, 26.95)" width="18.0" xlink:href="#sprite8"/>
      <use ffdec:characterId="238" height="22.0" transform="matrix(1.0, 0.0, 0.0, 1.0, 168.0, 26.95)" width="18.0" xlink:href="#sprite11"/>
      <use ffdec:characterId="233" height="22.0" transform="matrix(1.0, 0.0, 0.0, 1.0, 138.0, 26.95)" width="18.0" xlink:href="#sprite6"/>
    </g>
    <g id="sprite5" transform="matrix(1.0, 0.0, 0.0, 1.0, 0.0, 0.0)">
      <use ffdec:characterId="233" height="22.0" id="dfs" transform="matrix(1.0, 0.0, 0.0, 1.0, 0.0, 0.0)" width="18.0" xlink:href="#sprite6"/>
    </g>
    <g id="sprite6" transform="matrix(1.0, 0.0, 0.0, 1.0, 0.0, 0.0)">
      <use ffdec:characterId="229" height="22.0" transform="matrix(1.0, 0.0, 0.0, 1.0, 0.0, 0.0)" width="18.0" xlink:href="#shape2"/>
      <use ffdec:characterId="231" height="22.0" transform="matrix(1.0, 0.0, 0.0, 1.0, 0.0, 0.0)" width="18.0" xlink:href="#sprite7"/>
      <use ffdec:characterId="232" height="20.0" transform="matrix(1.0, 0.0, 0.0, 1.0, 1.0, 1.0)" width="16.0" xlink:href="#shape4"/>
      <use ffdec:characterId="232" height="20.0" transform="matrix(0.9375, 0.0, 0.0, 0.95, 1.85, 2.0)" width="16.0" xlink:href="#shape5"/>
      <use ffdec:characterId="128" height="4.0" transform="matrix(1.0, 0.0, 0.0, -1.0, 6.0, 14.0)" width="6.0" xlink:href="#shape6"/>
    </g>
    <g id="shape2" transform="matrix(1.0, 0.0, 0.0, 1.0, 0.0, 0.0)">
      <path d="M13.0 22.0 L0.0 22.0 0.0 0.0 13.0 0.0 Q15.1 0.05 16.55 1.45 17.95 2.9 18.0 5.0 L18.0 17.0 Q17.95 19.1 16.55 20.55 15.1 21.95 13.0 22.0" fill="#cccccc" fill-rule="evenodd" stroke="none"/>
    </g>
    <g id="sprite7" transform="matrix(1.0, 0.0, 0.0, 1.0, 0.0, 0.0)">
      <use ffdec:characterId="230" height="22.0" transform="matrix(1.0, 0.0, 0.0, 1.0, 0.0, 0.0)" width="18.0" xlink:href="#shape3"/>
    </g>
    <g id="shape3" transform="matrix(1.0, 0.0, 0.0, 1.0, 0.0, 0.0)">
      <path d="M13.0 0.0 Q15.1 0.05 16.55 1.45 17.95 2.9 18.0 5.0 L18.0 17.0 Q17.95 19.1 16.55 20.55 15.1 21.95 13.0 22.0 L0.0 22.0 0.0 0.0 13.0 0.0" fill="url(#gradient0)" fill-rule="evenodd" stroke="none"/>
    </g>
    <linearGradient gradientTransform="matrix(0.0, 0.011, -0.0134, 0.0, 9.0, 11.0)" gradientUnits="userSpaceOnUse" id="gradient0" spreadMethod="pad" x1="-819.2" x2="819.2">
      <stop offset="0.0" stop-color="#ffffff" stop-opacity="0.2509804"/>
      <stop offset="1.0" stop-color="#2d2d2d" stop-opacity="0.3137255"/>
    </linearGradient>
    <g id="shape4" transform="matrix(1.0, 0.0, 0.0, 1.0, 0.0, 0.0)">
      <path d="M12.0 0.0 Q13.7 0.05 14.85 1.15 15.95 2.3 16.0 4.0 L16.0 16.0 Q15.95 17.7 14.85 18.85 13.7 19.95 12.0 20.0 L0.0 20.0 0.0 0.0 12.0 0.0" fill="#ffffff" fill-rule="evenodd" stroke="none"/>
    </g>
    <g id="shape5" transform="matrix(1.0, 0.0, 0.0, 1.0, 0.0, 0.0)">
      <path d="M12.0 0.0 Q13.7 0.05 14.85 1.15 15.95 2.3 16.0 4.0 L16.0 16.0 Q15.95 17.7 14.85 18.85 13.7 19.95 12.0 20.0 L0.0 20.0 0.0 0.0 12.0 0.0" fill="#f7f7f7" fill-rule="evenodd" stroke="none"/>
    </g>
    <g id="shape6" transform="matrix(1.0, 0.0, 0.0, 1.0, 0.0, 0.0)">
      <path d="M6.0 4.0 L0.0 4.0 3.0 0.0 6.0 4.0" fill="#2b333c" fill-rule="evenodd" stroke="none"/>
    </g>
    <g id="sprite8" transform="matrix(1.0, 0.0, 0.0, 1.0, 0.0, 0.0)">
      <use ffdec:characterId="229" height="22.0" transform="matrix(1.0, 0.0, 0.0, 1.0, 0.0, 0.0)" width="18.0" xlink:href="#shape2"/>
      <use ffdec:characterId="236" height="22.0" transform="matrix(1.0, 0.0, 0.0, 1.0, 0.0, 0.0)" width="18.0" xlink:href="#sprite9"/>
      <use ffdec:characterId="231" height="22.0" transform="matrix(1.0, 0.0, 0.0, 1.0, 0.0, 0.0)" width="18.0" xlink:href="#sprite7"/>
      <use ffdec:characterId="232" height="20.0" transform="matrix(1.0, 0.0, 0.0, 1.0, 1.0, 1.0)" width="16.0" xlink:href="#shape8"/>
      <use ffdec:characterId="232" height="20.0" transform="matrix(0.9375, 0.0, 0.0, 0.95, 1.85, 2.0)" width="16.0" xlink:href="#shape5"/>
      <use ffdec:characterId="128" height="4.0" transform="matrix(1.0, 0.0, 0.0, -1.0, 6.0, 14.0)" width="6.0" xlink:href="#shape6"/>
      <use ffdec:characterId="236" height="22.0" transform="matrix(0.8889, 0.0, 0.0, 0.9091, 1.0, 1.0)" width="18.0" xlink:href="#sprite10"/>
    </g>
    <g id="sprite9" transform="matrix(1.0, 0.0, 0.0, 1.0, 0.0, 0.0)">
      <use ffdec:characterId="235" height="22.0" transform="matrix(1.0, 0.0, 0.0, 1.0, 0.0, 0.0)" width="18.0" xlink:href="#shape7"/>
    </g>
    <g id="shape7" transform="matrix(1.0, 0.0, 0.0, 1.0, 0.0, 0.0)">
      <path d="M13.0 22.0 L0.0 22.0 0.0 0.0 13.0 0.0 Q15.1 0.05 16.55 1.45 17.95 2.9 18.0 5.0 L18.0 17.0 Q17.95 19.1 16.55 20.55 15.1 21.95 13.0 22.0" fill="#00ff00" fill-opacity="0.49803922" fill-rule="evenodd" stroke="none"/>
    </g>
    <g id="shape8" transform="matrix(1.0, 0.0, 0.0, 1.0, 0.0, 0.0)">
      <path d="M12.0 0.0 Q13.7 0.05 14.85 1.15 15.95 2.3 16.0 4.0 L16.0 16.0 Q15.95 17.7 14.85 18.85 13.7 19.95 12.0 20.0 L0.0 20.0 0.0 0.0 12.0 0.0" fill="#ffffff" fill-opacity="0.7490196" fill-rule="evenodd" stroke="none"/>
    </g>
    <g id="sprite10" transform="matrix(1.0, 0.0, 0.0, 1.0, 0.0, 0.0)">
      <use ffdec:characterId="235" height="22.0" transform="matrix(1.0, 0.0, 0.0, 1.0, 0.0, 0.0)" width="18.0" xlink:href="#shape9"/>
    </g>
    <g id="shape9" transform="matrix(1.0, 0.0, 0.0, 1.0, 0.0, 0.0)">
      <path d="M13.0 22.0 L0.0 22.0 0.0 0.0 13.0 0.0 Q15.1 0.05 16.55 1.45 17.95 2.9 18.0 5.0 L18.0 17.0 Q17.95 19.1 16.55 20.55 15.1 21.95 13.0 22.0" fill="#00ff00" fill-opacity="0.09803922" fill-rule="evenodd" stroke="none"/>
    </g>
    <g id="sprite11" transform="matrix(1.0, 0.0, 0.0, 1.0, 0.0, 0.0)">
      <use ffdec:characterId="229" height="22.0" transform="matrix(1.0, 0.0, 0.0, 1.0, 0.0, 0.0)" width="18.0" xlink:href="#shape2"/>
      <use ffdec:characterId="236" height="22.0" transform="matrix(1.0, 0.0, 0.0, 1.0, 0.0, 0.0)" width="18.0" xlink:href="#sprite9"/>
      <use ffdec:characterId="231" height="22.0" transform="matrix(1.0, 0.0, 0.0, 1.0, 0.0, 0.0)" width="18.0" xlink:href="#sprite7"/>
      <use ffdec:characterId="232" height="20.0" transform="matrix(1.0, 0.0, 0.0, 1.0, 1.0, 1.0)" width="16.0" xlink:href="#shape8"/>
      <use ffdec:characterId="232" height="20.0" transform="matrix(0.9375, 0.0, 0.0, 0.95, 1.85, 2.0)" width="16.0" xlink:href="#shape5"/>
      <use ffdec:characterId="128" height="4.0" transform="matrix(1.0, 0.0, 0.0, -1.0, 6.0, 14.0)" width="6.0" xlink:href="#shape6"/>
    </g>
  </defs>
</svg>
