<?xml version="1.0" encoding="UTF-8" standalone="no"?>
<svg xmlns:ffdec="https://www.free-decompiler.com/flash" xmlns:xlink="http://www.w3.org/1999/xlink" ffdec:objectType="frame" height="110.8px" width="126.55px" xmlns="http://www.w3.org/2000/svg">
  <g transform="matrix(1.0, 0.0, 0.0, 1.0, 125.65, 69.65)">
    <use ffdec:characterId="377" height="66.2" transform="matrix(1.0, 0.0, 0.0, 1.0, -91.3, -25.05)" width="33.4" xlink:href="#shape0"/>
    <use ffdec:characterId="298" height="107.25" transform="matrix(-0.2004, 0.0754, 0.0754, 0.2004, -91.7603, -13.0754)" width="48.75" xlink:href="#shape1"/>
    <use ffdec:characterId="378" height="65.5" transform="matrix(1.0, 0.0, 0.0, 1.0, -123.7, -27.95)" width="84.1" xlink:href="#shape2"/>
    <use ffdec:characterId="11" height="9.05" transform="matrix(-0.1805, -0.0805, -0.0805, 0.1805, -91.8696, -14.3578)" width="34.15" xlink:href="#sprite0"/>
    <use ffdec:characterId="17" height="21.6" transform="matrix(-0.2099, -0.0936, -0.0936, 0.2099, -87.4676, -21.3324)" width="39.4" xlink:href="#sprite1"/>
    <use ffdec:characterId="372" height="14.0" transform="matrix(1.0, 0.0, 0.0, 1.0, -38.0, 4.15)" width="11.1" xlink:href="#shape7"/>
    <use ffdec:characterId="312" height="6.5" transform="matrix(0.75, 0.0, 0.0, 1.0, -30.9875, 20.85)" width="13.65" xlink:href="#shape8"/>
    <use ffdec:characterId="349" height="27.7" transform="matrix(1.0, 0.0, 0.0, 1.0, -49.2, 3.2)" width="44.15" xlink:href="#shape9"/>
    <use ffdec:characterId="374" height="12.0" transform="matrix(1.0, 0.0, 0.0, 1.0, -36.45, 5.65)" width="9.2" xlink:href="#shape10"/>
    <use ffdec:characterId="305" height="20.0" id="mcHitTestCannon" transform="matrix(1.75, 0.0, 0.0, 1.75, -38.5125, 0.25)" width="20.0" xlink:href="#sprite3"/>
  </g>
  <defs>
    <g id="shape0" transform="matrix(1.0, 0.0, 0.0, 1.0, 91.3, 25.05)">
      <path d="M-63.65 41.0 L-63.6 40.95 -63.65 41.15 -63.8 41.15 -63.65 41.0" fill="#ff9900" fill-rule="evenodd" stroke="none"/>
      <path d="M-60.55 -21.6 L-60.9 -21.75 -61.3 -21.95 -61.3 -22.35 Q-66.4 -22.75 -71.25 -20.75 -76.7 -18.45 -81.75 -15.3 -87.45 -11.8 -90.5 -6.9 -90.85 -6.8 -91.15 -7.05 L-91.3 -7.2 Q-88.3 -13.15 -81.4 -17.0 -76.6 -19.7 -71.4 -21.75 -66.7 -23.65 -61.7 -23.6 L-61.1 -23.45 Q-60.55 -24.8 -58.4 -25.05 L-58.2 -25.0 Q-57.7 -24.7 -58.1 -24.3 L-58.2 -24.2 -58.55 -24.1 -59.1 -23.95 -59.7 -23.4 -60.05 -23.0 Q-60.0 -22.35 -60.3 -21.8 L-60.55 -21.6" fill="#000000" fill-rule="evenodd" stroke="none"/>
    </g>
    <g id="shape1" transform="matrix(1.0, 0.0, 0.0, 1.0, 24.35, 53.6)">
      <path d="M9.5 -7.25 Q8.8 -9.65 7.5 -11.8 L5.6 -14.5 5.5 -14.65 Q0.6 -20.5 -9.25 -25.0 -12.85 -26.65 -16.7 -27.7 L-17.45 -27.75 Q-20.25 -26.25 -20.95 -23.8 -21.3 -22.75 -21.95 -21.8 -21.0 -35.4 -14.1 -47.9 L-12.6 -48.5 -12.45 -48.5 -11.6 -48.7 -11.55 -48.9 -8.55 -49.65 -8.25 -49.9 -8.05 -50.15 -6.6 -50.55 Q-5.05 -51.1 -3.5 -50.55 L-2.9 -50.15 Q-1.45 -49.4 0.1 -48.8 3.0 -47.8 5.45 -46.05 L5.95 -45.15 7.95 -44.05 Q8.85 -42.6 10.25 -41.55 L11.45 -40.45 11.5 -40.1 11.55 -39.85 11.65 -39.5 Q13.3 -38.55 14.1 -36.7 14.45 -35.85 15.1 -35.15 L15.15 -34.85 15.2 -34.55 15.3 -34.25 15.55 -33.9 16.2 -32.9 16.85 -30.8 17.2 -29.45 17.2 -29.05 17.2 -28.75 17.4 -28.45 17.5 -28.3 17.6 -27.85 17.6 -27.25 17.6 -26.65 17.6 -26.35 17.8 -26.05 18.0 -25.7 18.1 -25.15 18.4 -23.3 18.45 -23.0 18.75 -22.7 18.8 -22.65 Q21.45 -9.9 21.95 2.75 22.55 16.3 22.0 29.75 21.6 40.8 18.15 51.5 L18.2 51.65 17.4 51.85 Q14.4 52.25 11.0 51.9 L10.1 52.05 7.15 51.5 Q7.8 50.95 7.8 50.05 L7.95 49.85 8.95 50.2 Q15.5 35.65 13.25 19.85 L12.7 19.4 12.65 18.6 12.65 18.1 13.0 14.0 12.3 13.4 Q12.65 10.6 12.45 7.85 L12.6 7.85 12.7 8.0 12.5 7.25 12.45 7.05 Q11.6 3.8 11.4 0.55 L11.2 -0.45 11.1 -1.2 11.05 -1.45 10.95 -1.75 10.85 -2.45 10.7 -3.6 10.55 -4.2 10.55 -4.25 10.15 -6.0 9.65 -6.9 9.55 -7.25 9.55 -7.15 9.5 -7.25 M-17.95 -24.45 L-18.8 -23.95 -19.25 -23.55 -18.75 -24.05 -18.4 -24.3 -17.95 -24.45" fill="#95632d" fill-rule="evenodd" stroke="none"/>
      <path d="M18.15 51.5 Q21.6 40.8 22.0 29.75 22.55 16.3 21.95 2.75 21.45 -9.9 18.8 -22.65 L18.75 -22.7 18.45 -23.0 18.4 -23.3 18.1 -25.15 18.0 -25.7 17.8 -26.05 17.6 -26.35 17.6 -26.65 17.6 -27.25 17.6 -27.85 17.5 -28.3 17.4 -28.45 17.2 -28.75 17.2 -29.05 17.2 -29.45 16.85 -30.8 16.2 -32.9 15.55 -33.9 15.3 -34.25 15.2 -34.55 15.15 -34.85 15.1 -35.15 Q14.45 -35.85 14.1 -36.7 13.3 -38.55 11.65 -39.5 L11.55 -39.85 11.5 -40.1 11.45 -40.45 10.25 -41.55 Q8.85 -42.6 7.95 -44.05 L5.95 -45.15 5.45 -46.05 Q3.0 -47.8 0.1 -48.8 -1.45 -49.4 -2.9 -50.15 L-3.5 -50.55 Q-5.05 -51.1 -6.6 -50.55 L-8.05 -50.15 -8.25 -49.9 -8.55 -49.65 -11.55 -48.9 -11.6 -48.7 -12.45 -48.5 -12.6 -48.5 -14.1 -47.9 Q-21.0 -35.4 -21.95 -21.8 -21.3 -22.75 -20.95 -23.8 -20.25 -26.25 -17.45 -27.75 L-16.7 -27.7 Q-12.85 -26.65 -9.25 -25.0 0.6 -20.5 5.5 -14.65 L5.6 -14.5 7.5 -11.8 Q8.8 -9.65 9.5 -7.25 L9.55 -7.1 9.55 -7.15 9.55 -7.25 9.65 -6.9 10.4 -4.7 10.55 -4.25 10.55 -4.2 10.7 -3.6 10.85 -2.45 10.95 -1.75 11.15 -0.85 11.2 -0.45 11.4 0.55 Q11.6 3.8 12.45 7.05 L12.35 6.95 12.4 7.65 12.45 7.85 Q12.65 10.6 12.3 13.4 L13.0 14.0 12.65 18.1 12.55 19.25 12.7 19.4 13.25 19.85 Q15.5 35.65 8.95 50.2 L7.95 49.85 5.15 49.0 7.25 48.0 7.35 47.05 8.15 46.7 8.65 44.3 Q12.25 26.0 9.6 7.3 L9.7 5.3 Q9.55 2.95 9.0 0.65 L8.55 -0.85 8.45 -1.25 8.3 -1.65 Q8.1 -2.15 8.2 -2.6 8.45 -4.4 7.4 -5.75 L7.2 -6.5 6.0 -9.95 5.95 -10.1 Q1.2 -20.0 -15.3 -24.35 L-15.95 -24.6 -16.45 -24.65 -16.7 -24.7 -17.0 -24.65 -17.95 -24.45 -18.4 -24.3 -18.75 -24.05 -19.25 -23.55 -19.35 -23.4 -19.85 -22.35 Q-22.0 -21.2 -21.55 -19.1 L-22.1 -18.75 -22.1 -18.1 Q-22.3 -2.15 -18.25 14.35 -16.6 21.3 -12.8 28.3 -11.1 31.6 -9.95 35.0 -8.85 38.3 -6.95 41.5 L-7.0 41.6 -6.85 42.1 -6.6 42.85 Q-4.3 46.5 1.0 49.2 3.9 50.65 7.15 51.5 L10.1 52.05 11.0 51.9 Q14.4 52.25 17.4 51.85 L18.2 51.65 18.35 51.6 18.15 51.5 M12.5 7.25 L12.7 8.0 12.6 7.85 12.4 7.65 12.45 7.3 12.5 7.25 M15.7 -38.2 L16.0 -37.85 17.05 -36.1 17.2 -35.75 17.2 -35.45 17.2 -35.15 Q19.35 -33.2 19.55 -30.3 L19.65 -29.1 Q20.85 -25.95 21.55 -22.65 L21.95 -21.7 22.1 -20.7 22.1 -20.55 22.15 -20.5 23.4 -10.7 24.0 -4.55 23.9 -4.5 Q24.5 2.95 24.4 10.35 24.15 26.25 22.15 42.0 L21.5 48.0 20.75 51.25 Q21.4 51.9 20.25 52.55 18.5 53.45 15.95 53.45 L15.2 53.65 Q9.25 53.85 3.55 51.75 -2.35 49.6 -6.05 46.2 -8.35 44.05 -9.15 41.75 -13.5 32.95 -17.2 23.9 -24.25 6.95 -24.35 -9.95 L-24.2 -17.05 -24.3 -17.05 -24.1 -19.2 -24.1 -19.7 -24.0 -19.75 -24.0 -20.35 -23.95 -20.5 -23.95 -20.65 -23.95 -20.75 Q-23.1 -30.25 -20.6 -39.55 -19.15 -44.95 -15.55 -49.6 L-15.25 -49.6 -15.2 -49.6 -13.45 -50.8 -12.3 -51.3 -11.55 -52.0 -10.1 -53.0 -8.55 -53.05 -8.3 -53.4 -7.9 -53.5 -7.2 -53.55 -7.1 -53.6 -2.55 -52.3 Q0.25 -51.7 3.0 -50.35 5.45 -49.15 7.45 -47.4 L7.7 -47.25 10.15 -44.6 13.4 -41.5 Q14.8 -40.05 15.7 -38.2" fill="#000000" fill-rule="evenodd" stroke="none"/>
      <path d="M9.5 -7.25 L9.55 -7.15 9.55 -7.1 9.5 -7.25 M9.65 -6.9 L10.15 -6.0 10.55 -4.25 10.4 -4.7 9.65 -6.9 M10.95 -1.75 L11.05 -1.45 11.1 -1.2 11.15 -0.85 10.95 -1.75 M12.65 18.1 L12.65 18.6 12.7 19.4 12.55 19.25 12.65 18.1 M7.95 49.85 L7.8 50.05 Q7.8 50.95 7.15 51.5 3.9 50.65 1.0 49.2 -4.3 46.5 -6.6 42.85 L-6.85 42.1 -7.0 41.6 -6.95 41.5 Q-8.85 38.3 -9.95 35.0 -11.1 31.6 -12.8 28.3 -16.6 21.3 -18.25 14.35 -22.3 -2.15 -22.1 -18.1 L-22.1 -18.75 -21.55 -19.1 Q-22.0 -21.2 -19.85 -22.35 L-19.35 -23.4 -19.25 -23.55 -18.8 -23.95 -17.95 -24.45 -17.0 -24.65 -16.7 -24.7 -16.45 -24.65 -15.95 -24.6 -15.3 -24.35 Q1.2 -20.0 5.95 -10.1 L6.0 -9.95 7.2 -6.5 7.4 -5.75 Q8.45 -4.4 8.2 -2.6 8.1 -2.15 8.3 -1.65 L8.45 -1.25 8.55 -0.85 9.0 0.65 Q9.55 2.95 9.7 5.3 L9.6 7.3 Q12.25 26.0 8.65 44.3 L8.15 46.7 7.35 47.05 7.25 48.0 5.15 49.0 7.95 49.85" fill="#d79e4a" fill-rule="evenodd" stroke="none"/>
    </g>
    <g id="shape2" transform="matrix(1.0, 0.0, 0.0, 1.0, 123.7, 27.95)">
      <path d="M-59.9 17.15 Q-61.75 16.9 -63.3 16.05 -68.6 13.4 -69.1 7.5 -69.7 1.8 -65.35 -2.25 -62.6 -4.75 -58.6 -5.1 -55.75 -4.45 -53.5 -2.75 -52.4 -1.9 -51.75 -0.65 -48.9 6.0 -55.75 7.4 -60.15 8.3 -59.25 4.3 L-59.6 3.95 -60.2 4.1 Q-61.05 7.85 -57.65 8.55 -55.4 9.05 -53.4 7.7 -48.5 4.4 -50.7 -1.0 -52.75 -5.85 -59.1 -5.8 -63.1 -5.75 -65.65 -3.2 -67.65 -1.75 -68.9 0.45 -71.8 5.5 -69.75 10.95 -67.7 16.4 -61.9 17.75 L-55.35 18.3 Q-41.15 14.9 -39.65 1.2 -39.4 -1.35 -40.4 -3.75 -44.05 -11.95 -53.3 -12.4 L-62.15 -11.9 Q-73.25 -10.15 -81.6 -3.65 L-85.75 0.45 -88.35 2.5 Q-89.25 4.2 -87.35 3.8 L-81.25 -2.5 Q-78.1 -4.9 -73.2 -7.3 -68.25 -9.65 -63.15 -10.55 L-54.65 -11.55 Q-46.15 -11.6 -42.3 -4.35 -38.2 3.5 -44.2 10.75 -49.0 16.6 -57.0 17.15 L-59.9 17.15" fill="#000000" fill-rule="evenodd" stroke="none"/>
      <path d="M-100.1 25.6 Q-104.65 30.8 -107.5 31.85 L-110.95 33.1 -110.15 34.55 Q-109.35 36.0 -110.85 37.55 -113.45 37.7 -115.35 36.05 L-115.35 35.95 -115.3 35.65 -115.2 35.55 -115.05 35.55 Q-113.45 36.55 -111.4 36.35 L-111.2 35.25 Q-110.95 34.45 -112.9 32.4 L-111.45 32.15 Q-109.0 31.35 -104.75 28.3 -100.3 25.05 -97.7 19.7 -95.2 14.3 -94.9 12.35 -94.6 10.45 -93.65 9.9 -93.05 10.65 -94.35 15.5 -95.65 20.4 -100.1 25.6" fill="#000000" fill-rule="evenodd" stroke="none"/>
      <path d="M-64.45 29.05 L-64.0 29.0 Q-61.75 28.85 -60.6 30.6 -61.15 34.05 -65.1 35.35 L-65.35 35.1 -65.4 34.85 Q-63.35 33.45 -61.7 31.45 L-61.75 31.3 -61.75 31.0 -61.7 30.85 -61.95 30.6 Q-63.4 29.75 -64.95 30.35 L-65.05 30.3 Q-65.3 30.3 -65.35 30.15 L-65.45 30.05 -65.4 30.05 -65.65 30.2 Q-65.0 21.7 -72.15 16.9 -77.4 13.3 -83.6 11.65 -85.75 11.25 -87.1 10.25 L-87.6 9.5 -87.5 9.35 -87.4 9.15 Q-77.9 10.9 -72.9 14.5 -67.55 18.35 -65.55 22.55 -63.95 25.8 -64.45 29.05" fill="#000000" fill-rule="evenodd" stroke="none"/>
      <path d="M-98.05 -5.5 L-98.2 -5.35 Q-110.5 0.95 -118.15 14.65 -120.3 18.45 -120.6 22.0 -120.2 22.65 -121.25 23.2 L-121.4 23.3 -122.25 24.6 -122.6 25.15 -122.65 26.15 -122.75 26.3 Q-123.2 27.05 -123.7 26.55 L-123.7 25.75 -123.7 25.5 Q-122.9 23.4 -121.3 22.05 -121.0 16.1 -116.9 10.25 -108.9 -1.35 -97.95 -6.6 -97.5 -6.15 -98.05 -5.5" fill="#000000" fill-rule="evenodd" stroke="none"/>
      <path d="M-87.85 -18.45 L-87.95 -19.0 -88.45 -21.0 Q-89.15 -22.95 -90.55 -24.4 -92.55 -25.65 -94.8 -25.4 L-95.35 -25.45 -95.5 -25.35 -98.1 -24.5 -98.2 -24.5 -99.25 -23.95 -99.45 -23.75 -99.6 -23.55 -100.3 -22.5 -100.45 -22.2 -100.5 -22.1 -100.55 -22.05 -100.55 -21.95 -100.95 -19.1 -100.9 -18.9 -100.45 -17.1 -100.45 -16.75 Q-100.5 -16.2 -100.05 -15.7 L-98.2 -13.95 Q-96.55 -12.75 -94.5 -12.4 L-94.45 -12.45 -92.3 -12.55 -92.15 -12.65 -92.1 -12.65 -91.35 -12.85 -91.3 -12.85 -91.25 -12.85 -91.1 -12.9 Q-90.55 -13.05 -90.1 -13.3 -89.15 -13.65 -88.4 -14.5 L-88.15 -15.0 -91.75 -17.1 -92.35 -17.4 -93.25 -17.85 -94.25 -18.3 -94.7 -18.5 -94.95 -18.6 -96.0 -18.8 -96.05 -18.8 Q-97.85 -19.5 -99.65 -19.25 L-100.45 -19.1 -100.7 -19.25 -100.85 -19.3 -100.85 -19.35 Q-99.7 -20.35 -97.95 -19.8 L-96.95 -19.65 -96.9 -19.65 -96.05 -19.4 -96.0 -19.45 -95.7 -19.35 -95.6 -19.3 -95.45 -19.25 -94.8 -19.15 -94.75 -19.1 -94.2 -18.9 -94.1 -18.85 -92.0 -17.9 -91.65 -17.7 -89.15 -16.2 -88.0 -15.5 -87.95 -15.55 -87.6 -16.65 -87.5 -17.0 -87.8 -18.3 -87.85 -18.45 M-88.45 -23.95 L-88.5 -23.8 -88.6 -23.75 -89.6 -24.1 Q-88.0 -22.1 -87.5 -19.6 -85.95 -20.4 -84.3 -20.05 L-84.15 -20.0 -84.15 -19.95 -83.7 -19.6 -83.5 -19.45 -83.45 -19.3 -83.1 -18.85 -82.95 -18.25 -83.0 -18.15 -83.0 -18.05 -82.9 -17.85 -83.1 -17.4 -83.2 -17.15 -83.4 -16.9 -83.75 -16.5 -83.8 -16.45 -83.95 -16.35 -83.95 -16.3 Q-84.45 -16.05 -85.0 -15.95 L-85.6 -15.95 -85.75 -15.9 -86.85 -16.4 -87.15 -16.55 -87.15 -16.5 -87.2 -16.35 Q-87.3 -15.7 -87.55 -15.1 L-87.25 -14.85 -87.4 -14.6 -87.7 -14.8 Q-88.3 -13.8 -89.4 -13.15 -91.75 -11.9 -94.55 -11.85 L-95.2 -12.05 -98.45 -13.4 -98.65 -13.6 Q-100.25 -14.8 -100.85 -16.65 L-100.9 -16.9 Q-101.9 -19.25 -101.2 -21.55 L-101.1 -21.95 -101.2 -21.95 -101.4 -21.85 -101.9 -21.8 Q-103.8 -21.8 -105.2 -22.85 L-105.25 -23.0 -105.4 -23.25 -105.45 -23.3 -105.45 -23.5 -105.55 -23.55 -105.55 -24.25 -105.6 -24.3 -105.5 -24.75 -104.9 -26.1 -104.8 -26.4 -104.75 -26.45 -104.65 -26.6 -104.55 -26.7 -104.45 -26.8 -104.25 -27.3 -104.15 -27.3 -104.1 -27.3 -104.1 -27.35 -104.05 -27.4 -104.0 -27.5 -103.95 -27.45 -103.85 -27.5 -103.7 -27.65 -103.7 -27.7 -103.55 -27.75 Q-101.95 -28.35 -100.4 -27.3 L-100.4 -27.25 -100.3 -27.15 -100.3 -27.1 -99.4 -25.25 -99.2 -24.65 -99.2 -24.7 -98.95 -24.8 -98.65 -24.75 Q-97.15 -25.6 -95.45 -25.8 -91.85 -26.25 -88.6 -24.2 L-88.45 -24.1 -88.45 -23.95 M-87.15 -17.8 L-87.1 -17.2 -85.6 -16.55 -85.55 -16.55 -84.95 -16.4 -84.85 -16.45 -83.9 -16.85 -83.8 -17.0 -83.7 -17.3 -83.55 -17.55 -83.5 -17.7 -83.55 -17.75 -83.6 -18.05 -83.65 -18.15 Q-83.7 -18.75 -84.15 -19.15 L-84.15 -19.2 -84.95 -19.55 -85.35 -19.6 -85.45 -19.55 -87.0 -19.25 -87.15 -19.2 -87.35 -19.15 -87.4 -18.95 -87.4 -18.9 -87.3 -18.4 -87.15 -17.8 M-99.95 -23.95 L-99.75 -24.15 -99.65 -24.3 -99.65 -24.35 -99.7 -24.35 -99.75 -24.4 Q-99.8 -25.35 -100.25 -26.05 L-100.6 -26.75 -102.25 -27.35 -102.6 -27.35 -102.7 -27.4 -102.75 -27.35 -102.85 -27.35 -102.85 -27.3 -103.0 -27.2 -103.6 -26.75 -103.65 -26.65 -103.8 -26.55 -104.0 -26.5 -104.15 -26.3 -104.25 -26.2 -104.25 -26.15 -105.0 -24.5 -105.0 -24.45 -105.05 -24.1 -105.05 -23.95 -105.05 -23.9 -104.9 -23.5 -104.8 -23.4 -104.2 -22.9 -103.2 -22.5 -102.75 -22.45 -102.0 -22.45 -101.95 -22.5 -101.35 -22.45 -101.2 -22.55 -101.0 -22.7 -100.95 -22.75 -100.5 -23.15 -99.95 -23.95 M-92.7 -16.9 L-92.75 -16.8 -93.2 -16.9 -93.25 -17.2 -92.8 -17.3 -92.75 -17.25 -92.7 -16.9 M-93.85 -17.35 L-94.0 -17.3 -94.05 -17.25 Q-94.2 -17.1 -94.35 -17.25 -94.6 -17.5 -94.45 -17.75 L-94.3 -17.9 -94.1 -17.95 -94.0 -17.85 -93.95 -17.75 -93.8 -17.65 Q-93.75 -17.5 -93.85 -17.35" fill="#000000" fill-rule="evenodd" stroke="none"/>
      <path d="M-100.9 -18.9 L-100.95 -19.1 -100.55 -21.95 -100.55 -22.05 -100.5 -22.1 -100.45 -22.2 -100.3 -22.5 -99.6 -23.55 -99.45 -23.75 -99.25 -23.95 -98.2 -24.5 -98.1 -24.5 -95.5 -25.35 -95.35 -25.45 -94.8 -25.4 Q-92.55 -25.65 -90.55 -24.4 -89.15 -22.95 -88.45 -21.0 L-87.95 -19.0 -87.85 -18.45 -87.8 -18.3 -87.5 -17.0 -87.6 -16.65 -87.95 -15.55 -88.0 -15.5 -89.15 -16.2 -91.65 -17.7 -92.0 -17.9 -94.1 -18.85 -94.2 -18.9 -94.75 -19.1 -94.8 -19.15 -95.45 -19.25 -95.6 -19.3 -95.7 -19.35 -96.0 -19.45 -96.05 -19.4 -96.9 -19.65 -96.95 -19.65 -97.95 -19.8 Q-99.7 -20.35 -100.85 -19.35 L-100.85 -19.3 -100.7 -19.25 -100.9 -18.95 -100.9 -18.9 M-87.3 -18.4 L-87.4 -18.9 -87.4 -18.95 -87.35 -19.15 -87.15 -19.2 -87.0 -19.25 -85.45 -19.55 -85.35 -19.6 -84.95 -19.55 -84.15 -19.2 -84.15 -19.15 Q-83.7 -18.75 -83.65 -18.15 L-83.6 -18.05 -83.55 -17.75 -83.5 -17.7 -83.55 -17.55 -83.7 -17.3 -83.8 -17.0 -83.9 -16.85 -84.85 -16.45 -84.95 -16.4 -85.55 -16.55 -85.6 -16.55 -87.1 -17.2 -87.15 -17.8 -87.0 -17.7 -86.65 -17.35 Q-86.15 -16.9 -85.5 -17.05 L-85.05 -17.15 -84.75 -17.55 -84.75 -17.6 -84.7 -17.75 -84.7 -17.85 -84.75 -18.0 -84.7 -18.1 Q-85.0 -18.9 -85.8 -19.0 L-86.8 -18.7 -87.3 -18.4 M-101.0 -22.7 L-101.2 -22.55 -101.35 -22.45 -101.95 -22.5 -102.0 -22.45 -102.75 -22.45 -103.2 -22.5 -104.2 -22.9 -104.8 -23.4 -104.9 -23.5 -105.05 -23.9 -105.05 -23.95 -105.05 -24.1 -105.0 -24.45 -105.0 -24.5 -104.25 -26.15 -104.25 -26.2 -104.15 -26.3 -104.0 -26.5 -103.8 -26.55 -103.65 -26.65 -103.6 -26.75 -103.0 -27.2 -102.85 -27.3 -102.85 -27.35 -102.75 -27.35 -102.7 -27.4 -102.6 -27.35 -102.25 -27.35 -100.6 -26.75 -100.25 -26.05 Q-99.8 -25.35 -99.75 -24.4 L-99.7 -24.35 -99.65 -24.35 -99.65 -24.3 -99.75 -24.15 -99.95 -23.95 -100.0 -23.95 -100.0 -24.0 -100.0 -24.1 -100.1 -24.2 -100.3 -24.5 -100.35 -24.55 -100.35 -24.6 -100.35 -24.7 Q-100.8 -25.45 -101.65 -25.6 L-102.1 -25.5 -102.2 -25.45 -102.3 -25.4 -102.55 -25.3 -102.65 -25.3 -102.8 -25.2 -103.0 -24.75 -103.05 -24.6 -103.0 -24.5 -102.95 -24.4 -102.85 -24.05 -102.7 -23.75 -102.55 -23.6 Q-101.95 -22.85 -101.0 -22.7 M-103.15 -25.6 L-103.35 -25.4 -103.25 -25.45 -103.2 -25.5 -103.15 -25.6" fill="#95632d" fill-rule="evenodd" stroke="none"/>
      <path d="M-87.85 -18.45 L-87.8 -18.3 -87.85 -18.45 M-100.7 -19.25 L-100.45 -19.1 -99.65 -19.25 Q-97.85 -19.5 -96.05 -18.8 L-96.0 -18.8 -94.95 -18.6 -94.7 -18.5 -94.25 -18.3 -93.25 -17.85 -92.35 -17.4 -91.75 -17.1 -88.15 -15.0 -88.4 -14.5 Q-89.15 -13.65 -90.1 -13.3 -90.55 -13.05 -91.1 -12.9 L-91.25 -12.85 -91.3 -12.85 -91.35 -12.85 -92.1 -12.65 -92.15 -12.65 -92.3 -12.55 -94.45 -12.45 -94.5 -12.4 Q-96.55 -12.75 -98.2 -13.95 L-100.05 -15.7 Q-100.5 -16.2 -100.45 -16.75 L-100.45 -17.1 -100.9 -18.9 -100.9 -18.95 -100.7 -19.25 M-87.15 -17.8 L-87.3 -18.4 -86.8 -18.7 -85.8 -19.0 Q-85.0 -18.9 -84.7 -18.1 L-84.75 -18.0 -84.7 -17.85 -84.7 -17.75 -84.75 -17.6 -84.75 -17.55 -85.05 -17.15 -85.5 -17.05 Q-86.15 -16.9 -86.65 -17.35 L-87.0 -17.7 -87.15 -17.8 M-99.95 -23.95 L-100.5 -23.15 -100.95 -22.75 -101.0 -22.7 Q-101.95 -22.85 -102.55 -23.6 L-102.7 -23.75 -102.85 -24.05 -102.95 -24.4 -103.0 -24.5 -103.05 -24.6 -103.0 -24.75 -102.8 -25.2 -102.65 -25.3 -102.55 -25.3 -102.3 -25.4 -102.2 -25.45 -102.1 -25.5 -101.65 -25.6 Q-100.8 -25.45 -100.35 -24.7 L-100.35 -24.6 -100.35 -24.55 -100.3 -24.5 -100.1 -24.2 -100.0 -24.1 -100.0 -24.0 -100.0 -23.95 -99.95 -23.95 M-103.15 -25.6 L-103.2 -25.5 -103.25 -25.45 -103.35 -25.4 -103.15 -25.6 M-93.85 -17.35 Q-93.75 -17.5 -93.8 -17.65 L-93.95 -17.75 -94.0 -17.85 -94.1 -17.95 -94.3 -17.9 -94.45 -17.75 Q-94.6 -17.5 -94.35 -17.25 -94.2 -17.1 -94.05 -17.25 L-94.0 -17.3 -93.85 -17.35 M-92.7 -16.9 L-92.75 -17.25 -92.8 -17.3 -93.25 -17.2 -93.2 -16.9 -92.75 -16.8 -92.7 -16.9" fill="#d79e4a" fill-rule="evenodd" stroke="none"/>
    </g>
    <g id="sprite0" transform="matrix(1.0, 0.0, 0.0, 1.0, 16.2, 5.05)">
      <use ffdec:characterId="5" height="4.5" transform="matrix(1.0, 0.0, 0.0, 1.0, -7.65, -2.25)" width="15.3" xlink:href="#shape3"/>
    </g>
    <g id="shape3" transform="matrix(1.0, 0.0, 0.0, 1.0, 7.65, 2.25)">
      <path d="M7.6 -0.15 L7.6 0.5 Q0.1 3.55 -7.65 1.25 L-7.5 0.6 -6.9 -0.25 -6.15 -1.0 Q-1.9 -0.55 0.6 -2.25 L3.85 -1.55 7.1 -1.0 7.6 -0.15" fill="#000000" fill-rule="evenodd" stroke="none"/>
    </g>
    <g id="sprite1" transform="matrix(1.0, 0.0, 0.0, 1.0, 23.5, 12.3)">
      <use ffdec:characterId="12" height="17.25" transform="matrix(1.0, 0.0, 0.0, 1.0, -21.25, -10.1)" width="34.95" xlink:href="#shape4"/>
      <use ffdec:characterId="14" height="7.8" transform="matrix(1.0, 0.0, 0.0, 1.0, -16.85, -2.6)" width="25.55" xlink:href="#sprite2"/>
      <use ffdec:characterId="15" height="21.6" transform="matrix(1.0, 0.0, 0.0, 1.0, -23.5, -12.3)" width="39.4" xlink:href="#shape6"/>
    </g>
    <g id="shape4" transform="matrix(1.0, 0.0, 0.0, 1.0, 21.25, 10.1)">
      <path d="M5.7 -3.5 L6.05 -3.65 Q8.4 -4.15 10.45 -3.25 14.2 -1.65 13.65 2.6 13.55 3.45 13.05 4.05 L13.0 4.05 Q12.15 5.5 9.65 5.75 4.25 6.25 1.75 1.95 L1.6 1.85 1.5 1.45 1.45 1.4 1.4 0.8 1.4 -0.35 Q1.6 -1.85 3.15 -2.45 L5.7 -3.5" fill="#ffffff" fill-rule="evenodd" stroke="none"/>
      <path d="M-20.35 -6.45 L-19.75 -7.25 Q-16.65 -9.65 -12.7 -9.9 -7.05 -10.85 -3.5 -6.9 -0.55 -3.6 -1.1 0.95 -1.35 3.2 -3.25 4.65 -5.15 6.2 -7.5 6.7 L-12.95 7.15 -14.6 6.7 Q-15.35 6.3 -16.15 6.0 -17.95 5.4 -18.85 3.85 -20.95 2.45 -21.2 -0.1 -21.5 -3.5 -20.35 -6.45" fill="#ffffff" fill-rule="evenodd" stroke="none"/>
    </g>
    <g id="sprite2" transform="matrix(1.0, 0.0, 0.0, 1.0, 2.75, 0.0)">
      <use ffdec:characterId="13" height="5.35" transform="matrix(1.0, 0.0, 0.0, 1.0, 0.0, 0.0)" width="22.8" xlink:href="#shape5"/>
    </g>
    <g id="shape5" transform="matrix(1.0, 0.0, 0.0, 1.0, 2.75, -2.45)">
      <path d="M20.05 6.1 Q20.1 6.9 19.55 7.35 L18.6 7.8 18.5 7.8 17.9 7.65 17.35 7.5 16.75 6.95 Q16.25 6.45 16.35 5.8 L16.4 5.75 16.5 5.45 17.2 4.75 17.55 4.7 Q18.9 4.3 19.7 5.2 20.05 5.55 20.05 6.1" fill="#000000" fill-rule="evenodd" stroke="none"/>
      <path d="M1.1 3.95 Q1.3 5.05 0.7 5.9 0.5 6.25 0.0 6.3 -2.4 6.65 -2.7 4.4 -2.9 3.0 -1.65 2.55 -0.55 2.3 0.25 2.8 0.9 3.25 1.1 3.95" fill="#000000" fill-rule="evenodd" stroke="none"/>
    </g>
    <g id="shape6" transform="matrix(1.0, 0.0, 0.0, 1.0, 23.5, 12.3)">
      <path d="M1.4 -3.5 L1.95 -3.95 Q3.6 -5.2 5.4 -5.65 L5.45 -5.75 10.95 -5.5 11.45 -4.7 11.5 -4.6 11.9 -4.5 11.95 -4.5 12.1 -4.4 12.9 -3.85 Q15.7 -1.75 15.9 1.25 L15.65 2.75 15.55 3.1 12.35 6.85 Q11.8 6.95 11.35 7.3 L8.15 7.3 3.75 6.35 2.35 5.85 2.05 5.65 -0.15 2.7 -0.2 2.05 -0.25 0.25 -0.1 -1.4 -0.05 -1.75 1.1 -3.5 1.4 -3.5 M3.15 -2.45 Q1.6 -1.85 1.4 -0.35 L1.4 0.8 1.45 1.4 1.5 1.45 1.6 1.85 1.75 1.95 Q4.25 6.25 9.65 5.75 12.15 5.5 13.0 4.05 L13.05 4.05 Q13.55 3.45 13.65 2.6 14.2 -1.65 10.45 -3.25 8.4 -4.15 6.05 -3.65 L5.7 -3.5 3.15 -2.45" fill="#000000" fill-rule="evenodd" stroke="none"/>
      <path d="M0.85 -1.4 L0.85 1.3 0.9 1.5 Q0.15 3.1 -0.35 4.8 L-1.85 6.1 -2.9 7.0 Q-5.4 8.6 -8.3 9.25 L-8.35 9.3 -17.8 8.0 -18.55 7.25 -21.55 4.25 -22.3 3.5 -22.3 2.95 Q-23.65 1.2 -23.5 -1.2 L-23.15 -4.4 -22.75 -6.1 -22.3 -6.6 -22.3 -7.0 -21.2 -8.55 -19.65 -9.75 Q-16.8 -11.35 -14.05 -12.25 -4.75 -13.0 -0.3 -5.45 -0.2 -4.75 0.35 -4.0 L0.85 -1.4 M-20.35 -6.45 Q-21.5 -3.5 -21.2 -0.1 -20.95 2.45 -18.85 3.85 -17.95 5.4 -16.15 6.0 -15.35 6.3 -14.6 6.7 L-12.95 7.15 -7.5 6.7 Q-5.15 6.2 -3.25 4.65 -1.35 3.2 -1.1 0.95 -0.55 -3.6 -3.5 -6.9 -7.05 -10.85 -12.7 -9.9 -16.65 -9.65 -19.75 -7.25 L-20.35 -6.45" fill="#000000" fill-rule="evenodd" stroke="none"/>
    </g>
    <g id="shape7" transform="matrix(1.0, 0.0, 0.0, 1.0, 38.0, -4.15)">
      <path d="M-27.45 5.5 L-27.65 5.6 -27.85 5.7 Q-31.2 7.4 -33.2 9.7 L-33.35 9.75 -33.95 10.35 -34.0 10.7 Q-35.55 12.75 -36.1 15.3 L-36.45 17.85 -33.45 16.95 -31.05 15.45 -29.95 14.3 Q-29.4 13.8 -29.3 13.15 L-29.2 13.35 -29.1 13.2 -28.1 11.35 Q-27.6 10.1 -27.4 8.8 L-27.25 6.55 -27.35 5.6 -27.45 5.5 M-27.45 4.25 L-27.2 4.15 Q-26.85 5.45 -26.9 6.9 L-27.2 9.2 Q-27.6 11.0 -28.55 12.55 -29.5 14.15 -30.9 15.5 -32.15 16.7 -33.85 17.5 -35.65 18.3 -37.65 18.1 L-38.0 18.15 Q-37.9 15.2 -36.05 11.95 -33.1 6.9 -27.8 4.4 L-27.75 4.35 -27.45 4.25" fill="#000000" fill-rule="evenodd" stroke="none"/>
    </g>
    <g id="shape8" transform="matrix(1.0, 0.0, 0.0, 1.0, 6.85, 3.25)">
      <path d="M-4.7 -2.6 L-4.4 -2.65 -3.3 -2.5 -2.55 -1.95 -1.95 -1.25 Q-1.0 0.1 -1.6 1.45 -3.35 2.85 -4.6 1.75 -6.5 -0.65 -4.7 -2.6" fill="#ff0000" fill-rule="evenodd" stroke="none"/>
      <path d="M-4.4 -2.65 Q-4.3 -3.15 -2.9 -3.25 0.25 -1.85 -0.45 2.05 L-1.0 2.6 Q-5.95 4.3 -6.5 1.5 L-6.85 -0.35 Q-6.7 -2.85 -4.7 -2.6 -6.5 -0.65 -4.6 1.75 -3.35 2.85 -1.6 1.45 -1.0 0.1 -1.95 -1.25 L-2.55 -1.95 -3.3 -2.5 -4.4 -2.65" fill="#000000" fill-rule="evenodd" stroke="none"/>
      <path d="M-1.0 0.05 L6.2 0.1 Q6.65 0.1 6.8 -0.4 L6.75 -0.55 Q6.75 -1.05 6.2 -1.05 L6.2 -1.1 -1.05 -0.75 -1.35 -0.45 -1.3 -0.3 -1.0 0.05" fill="#000000" fill-rule="evenodd" stroke="none"/>
      <path d="M-4.45 0.55 Q-4.9 0.85 -5.25 0.4 -6.25 -0.9 -4.65 -1.35 -2.75 -0.55 -4.45 0.55" fill="#ffffff" fill-rule="evenodd" stroke="none"/>
    </g>
    <g id="shape9" transform="matrix(1.0, 0.0, 0.0, 1.0, 49.2, -3.2)">
      <path d="M-7.5 13.8 Q-9.1 10.3 -12.55 7.75 -18.85 3.25 -26.25 4.8 L-26.25 5.9 Q-26.0 9.6 -27.6 12.85 -28.4 14.35 -29.7 15.35 -32.85 17.65 -36.4 18.45 -36.4 22.5 -33.7 25.0 -30.0 28.4 -23.9 29.3 -16.6 30.45 -10.5 26.7 -9.0 25.75 -8.0 24.35 -4.8 19.6 -7.5 13.8 M-12.9 6.1 Q-5.5 10.1 -5.05 18.4 -4.65 25.55 -11.4 28.75 -18.05 31.95 -25.5 30.4 -30.65 29.4 -34.45 25.65 -37.65 22.45 -37.9 18.75 L-37.95 18.75 -37.95 17.85 -37.9 17.85 -36.6 17.7 -33.75 16.85 Q-32.0 16.15 -30.7 15.0 -29.4 13.85 -28.45 12.25 -27.5 10.7 -27.25 9.2 -27.0 7.7 -27.05 6.45 -27.1 5.1 -27.7 4.1 L-25.4 3.2 -24.95 3.2 -25.05 3.3 Q-18.6 3.0 -12.9 6.1" fill="#000000" fill-rule="evenodd" stroke="none"/>
      <path d="M-7.5 13.8 Q-4.8 19.6 -8.0 24.35 -9.0 25.75 -10.5 26.7 -16.6 30.45 -23.9 29.3 -30.0 28.4 -33.7 25.0 -36.4 22.5 -36.4 18.45 -32.85 17.65 -29.7 15.35 -28.4 14.35 -27.6 12.85 -26.0 9.6 -26.25 5.9 L-26.25 4.8 Q-18.85 3.25 -12.55 7.75 -9.1 10.3 -7.5 13.8" fill="#ff9900" fill-rule="evenodd" stroke="none"/>
      <path d="M-7.5 13.8 Q-4.8 19.6 -8.0 24.35 -9.0 25.75 -10.5 26.7 -16.6 30.45 -23.9 29.3 -30.0 28.4 -33.7 25.0 -36.4 22.5 -36.4 18.45 -32.85 17.65 -29.7 15.35 -28.4 14.35 -27.6 12.85 -26.0 9.6 -26.25 5.9 L-26.25 4.8 Q-18.85 3.25 -12.55 7.75 -9.1 10.3 -7.5 13.8" fill="url(#gradient0)" fill-rule="evenodd" stroke="none"/>
      <path d="M-47.05 21.5 L-46.75 21.45 -45.65 21.6 -44.9 22.15 -44.3 22.85 Q-43.35 24.2 -43.95 25.55 -45.7 26.95 -46.95 25.85 -48.85 23.45 -47.05 21.5" fill="#ff0000" fill-rule="evenodd" stroke="none"/>
      <path d="M-46.75 21.45 Q-46.65 20.95 -45.25 20.85 -42.1 22.25 -42.8 26.15 L-43.35 26.7 Q-48.3 28.4 -48.85 25.6 L-49.2 23.75 Q-49.05 21.25 -47.05 21.5 -48.85 23.45 -46.95 25.85 -45.7 26.95 -43.95 25.55 -43.35 24.2 -44.3 22.85 L-44.9 22.15 -45.65 21.6 -46.75 21.45" fill="#000000" fill-rule="evenodd" stroke="none"/>
      <path d="M-43.35 24.15 L-36.15 24.2 Q-35.7 24.2 -35.55 23.7 L-35.6 23.55 Q-35.6 23.05 -36.15 23.05 L-36.15 23.0 -43.4 23.35 Q-43.75 23.35 -43.7 23.65 L-43.65 23.8 -43.35 24.15" fill="#000000" fill-rule="evenodd" stroke="none"/>
      <path d="M-46.8 24.65 Q-47.25 24.95 -47.6 24.5 -48.6 23.2 -47.0 22.75 -45.1 23.55 -46.8 24.65" fill="#ffffff" fill-rule="evenodd" stroke="none"/>
    </g>
    <radialGradient cx="0" cy="0" gradientTransform="matrix(0.0385, 0.0, 0.0, 0.0276, -15.35, 8.15)" gradientUnits="userSpaceOnUse" id="gradient0" r="819.2" spreadMethod="pad">
      <stop offset="0.0" stop-color="#febf74"/>
      <stop offset="0.4980392156862745" stop-color="#ff9900"/>
      <stop offset="1.0" stop-color="#ff6600"/>
    </radialGradient>
    <g id="shape10" transform="matrix(1.0, 0.0, 0.0, 1.0, 36.45, -5.65)">
      <path d="M-33.4 9.85 L-32.65 9.1 Q-30.7 7.15 -27.85 5.7 L-27.35 5.65 -27.25 6.55 -27.4 8.8 Q-27.6 10.1 -28.1 11.35 L-29.0 13.05 -29.7 12.95 -30.85 12.15 -33.3 10.35 -33.45 10.2 Q-33.25 9.9 -33.4 9.85 M-29.85 14.2 L-30.7 15.0 Q-32.0 16.15 -33.75 16.85 L-36.45 17.65 -36.1 15.3 Q-35.6 13.0 -34.15 10.75 L-33.9 10.55 Q-32.4 12.5 -30.45 13.55 -29.3 14.0 -29.85 14.2" fill="#ffcc00" fill-rule="evenodd" stroke="none"/>
      <path d="M-29.0 13.05 Q-28.85 13.35 -29.05 13.9 -29.25 14.45 -29.85 14.2 -29.3 14.0 -30.45 13.55 -32.4 12.5 -33.9 10.55 L-33.95 10.5 -33.95 10.45 -34.15 10.75 -34.2 10.75 Q-34.65 10.4 -34.5 9.85 -34.4 9.45 -34.0 9.4 -33.45 9.45 -33.4 9.85 -33.25 9.9 -33.45 10.2 L-33.3 10.35 -30.85 12.15 -29.7 12.95 -29.0 13.05" fill="#000000" fill-rule="evenodd" stroke="none"/>
    </g>
    <g id="sprite3" transform="matrix(1.0, 0.0, 0.0, 1.0, -0.05, 0.0)">
      <use ffdec:characterId="304" height="20.0" transform="matrix(1.0, 0.0, 0.0, 1.0, 0.05, 0.0)" width="20.0" xlink:href="#shape11"/>
    </g>
    <g id="shape11" transform="matrix(1.0, 0.0, 0.0, 1.0, -0.05, 0.0)">
      <path d="M10.05 20.0 Q5.9 20.0 2.95 17.05 0.0 14.1 0.05 10.0 0.0 5.85 2.95 2.9 5.9 0.0 10.05 0.0 14.15 0.0 17.1 2.9 20.05 5.85 20.05 10.0 20.05 14.1 17.1 17.05 14.15 20.0 10.05 20.0" fill="#ffffff" fill-opacity="0.0" fill-rule="evenodd" stroke="none"/>
    </g>
  </defs>
</svg>
