<?xml version="1.0" encoding="UTF-8" standalone="no"?>
<svg xmlns:ffdec="https://www.free-decompiler.com/flash" xmlns:xlink="http://www.w3.org/1999/xlink" ffdec:objectType="frame" height="110.8px" width="126.55px" xmlns="http://www.w3.org/2000/svg">
  <g transform="matrix(1.0, 0.0, 0.0, 1.0, 125.65, 69.65)">
    <use ffdec:characterId="382" height="44.75" transform="matrix(1.0, 0.0, 0.0, 1.0, -60.15, -15.6)" width="31.05" xlink:href="#shape0"/>
    <use ffdec:characterId="298" height="107.25" transform="matrix(-0.2031, -0.0667, -0.0667, 0.2031, -55.9778, -15.4639)" width="48.75" xlink:href="#shape1"/>
    <use ffdec:characterId="383" height="72.15" transform="matrix(1.0, 0.0, 0.0, 1.0, -112.05, -31.7)" width="65.75" xlink:href="#shape2"/>
    <use ffdec:characterId="14" height="7.8" transform="matrix(-0.2059, -0.1007, -0.1007, 0.2059, -53.5836, -24.5232)" width="25.55" xlink:href="#sprite0"/>
    <use ffdec:characterId="384" height="2.7" transform="matrix(1.0, 0.0, 0.0, 1.0, -61.8, -20.4)" width="6.8" xlink:href="#shape4"/>
    <use ffdec:characterId="372" height="14.0" transform="matrix(1.0, 0.0, 0.0, 1.0, -38.0, 4.15)" width="11.1" xlink:href="#shape5"/>
    <use ffdec:characterId="312" height="6.5" transform="matrix(0.75, 0.0, 0.0, 1.0, -30.9875, 20.85)" width="13.65" xlink:href="#shape6"/>
    <use ffdec:characterId="349" height="27.7" transform="matrix(1.0, 0.0, 0.0, 1.0, -49.2, 3.2)" width="44.15" xlink:href="#shape7"/>
    <use ffdec:characterId="374" height="12.0" transform="matrix(1.0, 0.0, 0.0, 1.0, -36.45, 5.65)" width="9.2" xlink:href="#shape8"/>
    <use ffdec:characterId="305" height="20.0" id="mcHitTestCannon" transform="matrix(1.75, 0.0, 0.0, 1.75, -38.5125, 0.25)" width="20.0" xlink:href="#sprite1"/>
  </g>
  <defs>
    <g id="shape0" transform="matrix(1.0, 0.0, 0.0, 1.0, 60.15, 15.6)">
      <path d="M-29.3 13.1 L-29.1 13.2 -29.2 13.35 -29.3 13.1" fill="#ff9900" fill-rule="evenodd" stroke="none"/>
      <path d="M-53.65 28.4 Q-50.95 24.25 -49.8 17.8 -45.8 -4.9 -57.95 -14.0 L-59.65 -15.1" fill="none" stroke="#000000" stroke-linecap="round" stroke-linejoin="round" stroke-width="1.0"/>
      <path d="M-54.45 28.05 L-55.0 28.55 -55.35 28.65 Q-57.0 25.15 -54.1 23.85" fill="none" stroke="#000000" stroke-linecap="round" stroke-linejoin="round" stroke-width="1.0"/>
    </g>
    <g id="shape1" transform="matrix(1.0, 0.0, 0.0, 1.0, 24.35, 53.6)">
      <path d="M9.5 -7.25 Q8.8 -9.65 7.5 -11.8 L5.6 -14.5 5.5 -14.65 Q0.6 -20.5 -9.25 -25.0 -12.85 -26.65 -16.7 -27.7 L-17.45 -27.75 Q-20.25 -26.25 -20.95 -23.8 -21.3 -22.75 -21.95 -21.8 -21.0 -35.4 -14.1 -47.9 L-12.6 -48.5 -12.45 -48.5 -11.6 -48.7 -11.55 -48.9 -8.55 -49.65 -8.25 -49.9 -8.05 -50.15 -6.6 -50.55 Q-5.05 -51.1 -3.5 -50.55 L-2.9 -50.15 Q-1.45 -49.4 0.1 -48.8 3.0 -47.8 5.45 -46.05 L5.95 -45.15 7.95 -44.05 Q8.85 -42.6 10.25 -41.55 L11.45 -40.45 11.5 -40.1 11.55 -39.85 11.65 -39.5 Q13.3 -38.55 14.1 -36.7 14.45 -35.85 15.1 -35.15 L15.15 -34.85 15.2 -34.55 15.3 -34.25 15.55 -33.9 16.2 -32.9 16.85 -30.8 17.2 -29.45 17.2 -29.05 17.2 -28.75 17.4 -28.45 17.5 -28.3 17.6 -27.85 17.6 -27.25 17.6 -26.65 17.6 -26.35 17.8 -26.05 18.0 -25.7 18.1 -25.15 18.4 -23.3 18.45 -23.0 18.75 -22.7 18.8 -22.65 Q21.45 -9.9 21.95 2.75 22.55 16.3 22.0 29.75 21.6 40.8 18.15 51.5 L18.2 51.65 17.4 51.85 Q14.4 52.25 11.0 51.9 L10.1 52.05 7.15 51.5 Q7.8 50.95 7.8 50.05 L7.95 49.85 8.95 50.2 Q15.5 35.65 13.25 19.85 L12.7 19.4 12.65 18.6 12.65 18.1 13.0 14.0 12.3 13.4 Q12.65 10.6 12.45 7.85 L12.6 7.85 12.7 8.0 12.5 7.25 12.45 7.05 Q11.6 3.8 11.4 0.55 L11.2 -0.45 11.1 -1.2 11.05 -1.45 10.95 -1.75 10.85 -2.45 10.7 -3.6 10.55 -4.2 10.55 -4.25 10.15 -6.0 9.65 -6.9 9.55 -7.25 9.55 -7.15 9.5 -7.25 M-17.95 -24.45 L-18.8 -23.95 -19.25 -23.55 -18.75 -24.05 -18.4 -24.3 -17.95 -24.45" fill="#95632d" fill-rule="evenodd" stroke="none"/>
      <path d="M18.15 51.5 Q21.6 40.8 22.0 29.75 22.55 16.3 21.95 2.75 21.45 -9.9 18.8 -22.65 L18.75 -22.7 18.45 -23.0 18.4 -23.3 18.1 -25.15 18.0 -25.7 17.8 -26.05 17.6 -26.35 17.6 -26.65 17.6 -27.25 17.6 -27.85 17.5 -28.3 17.4 -28.45 17.2 -28.75 17.2 -29.05 17.2 -29.45 16.85 -30.8 16.2 -32.9 15.55 -33.9 15.3 -34.25 15.2 -34.55 15.15 -34.85 15.1 -35.15 Q14.45 -35.85 14.1 -36.7 13.3 -38.55 11.65 -39.5 L11.55 -39.85 11.5 -40.1 11.45 -40.45 10.25 -41.55 Q8.85 -42.6 7.95 -44.05 L5.95 -45.15 5.45 -46.05 Q3.0 -47.8 0.1 -48.8 -1.45 -49.4 -2.9 -50.15 L-3.5 -50.55 Q-5.05 -51.1 -6.6 -50.55 L-8.05 -50.15 -8.25 -49.9 -8.55 -49.65 -11.55 -48.9 -11.6 -48.7 -12.45 -48.5 -12.6 -48.5 -14.1 -47.9 Q-21.0 -35.4 -21.95 -21.8 -21.3 -22.75 -20.95 -23.8 -20.25 -26.25 -17.45 -27.75 L-16.7 -27.7 Q-12.85 -26.65 -9.25 -25.0 0.6 -20.5 5.5 -14.65 L5.6 -14.5 7.5 -11.8 Q8.8 -9.65 9.5 -7.25 L9.55 -7.1 9.55 -7.15 9.55 -7.25 9.65 -6.9 10.4 -4.7 10.55 -4.25 10.55 -4.2 10.7 -3.6 10.85 -2.45 10.95 -1.75 11.15 -0.85 11.2 -0.45 11.4 0.55 Q11.6 3.8 12.45 7.05 L12.35 6.95 12.4 7.65 12.45 7.85 Q12.65 10.6 12.3 13.4 L13.0 14.0 12.65 18.1 12.55 19.25 12.7 19.4 13.25 19.85 Q15.5 35.65 8.95 50.2 L7.95 49.85 5.15 49.0 7.25 48.0 7.35 47.05 8.15 46.7 8.65 44.3 Q12.25 26.0 9.6 7.3 L9.7 5.3 Q9.55 2.95 9.0 0.65 L8.55 -0.85 8.45 -1.25 8.3 -1.65 Q8.1 -2.15 8.2 -2.6 8.45 -4.4 7.4 -5.75 L7.2 -6.5 6.0 -9.95 5.95 -10.1 Q1.2 -20.0 -15.3 -24.35 L-15.95 -24.6 -16.45 -24.65 -16.7 -24.7 -17.0 -24.65 -17.95 -24.45 -18.4 -24.3 -18.75 -24.05 -19.25 -23.55 -19.35 -23.4 -19.85 -22.35 Q-22.0 -21.2 -21.55 -19.1 L-22.1 -18.75 -22.1 -18.1 Q-22.3 -2.15 -18.25 14.35 -16.6 21.3 -12.8 28.3 -11.1 31.6 -9.95 35.0 -8.85 38.3 -6.95 41.5 L-7.0 41.6 -6.85 42.1 -6.6 42.85 Q-4.3 46.5 1.0 49.2 3.9 50.65 7.15 51.5 L10.1 52.05 11.0 51.9 Q14.4 52.25 17.4 51.85 L18.2 51.65 18.35 51.6 18.15 51.5 M12.5 7.25 L12.7 8.0 12.6 7.85 12.4 7.65 12.45 7.3 12.5 7.25 M15.7 -38.2 L16.0 -37.85 17.05 -36.1 17.2 -35.75 17.2 -35.45 17.2 -35.15 Q19.35 -33.2 19.55 -30.3 L19.65 -29.1 Q20.85 -25.95 21.55 -22.65 L21.95 -21.7 22.1 -20.7 22.1 -20.55 22.15 -20.5 23.4 -10.7 24.0 -4.55 23.9 -4.5 Q24.5 2.95 24.4 10.35 24.15 26.25 22.15 42.0 L21.5 48.0 20.75 51.25 Q21.4 51.9 20.25 52.55 18.5 53.45 15.95 53.45 L15.2 53.65 Q9.25 53.85 3.55 51.75 -2.35 49.6 -6.05 46.2 -8.35 44.05 -9.15 41.75 -13.5 32.95 -17.2 23.9 -24.25 6.95 -24.35 -9.95 L-24.2 -17.05 -24.3 -17.05 -24.1 -19.2 -24.1 -19.7 -24.0 -19.75 -24.0 -20.35 -23.95 -20.5 -23.95 -20.65 -23.95 -20.75 Q-23.1 -30.25 -20.6 -39.55 -19.15 -44.95 -15.55 -49.6 L-15.25 -49.6 -15.2 -49.6 -13.45 -50.8 -12.3 -51.3 -11.55 -52.0 -10.1 -53.0 -8.55 -53.05 -8.3 -53.4 -7.9 -53.5 -7.2 -53.55 -7.1 -53.6 -2.55 -52.3 Q0.25 -51.7 3.0 -50.35 5.45 -49.15 7.45 -47.4 L7.7 -47.25 10.15 -44.6 13.4 -41.5 Q14.8 -40.05 15.7 -38.2" fill="#000000" fill-rule="evenodd" stroke="none"/>
      <path d="M9.5 -7.25 L9.55 -7.15 9.55 -7.1 9.5 -7.25 M9.65 -6.9 L10.15 -6.0 10.55 -4.25 10.4 -4.7 9.65 -6.9 M10.95 -1.75 L11.05 -1.45 11.1 -1.2 11.15 -0.85 10.95 -1.75 M12.65 18.1 L12.65 18.6 12.7 19.4 12.55 19.25 12.65 18.1 M7.95 49.85 L7.8 50.05 Q7.8 50.95 7.15 51.5 3.9 50.65 1.0 49.2 -4.3 46.5 -6.6 42.85 L-6.85 42.1 -7.0 41.6 -6.95 41.5 Q-8.85 38.3 -9.95 35.0 -11.1 31.6 -12.8 28.3 -16.6 21.3 -18.25 14.35 -22.3 -2.15 -22.1 -18.1 L-22.1 -18.75 -21.55 -19.1 Q-22.0 -21.2 -19.85 -22.35 L-19.35 -23.4 -19.25 -23.55 -18.8 -23.95 -17.95 -24.45 -17.0 -24.65 -16.7 -24.7 -16.45 -24.65 -15.95 -24.6 -15.3 -24.35 Q1.2 -20.0 5.95 -10.1 L6.0 -9.95 7.2 -6.5 7.4 -5.75 Q8.45 -4.4 8.2 -2.6 8.1 -2.15 8.3 -1.65 L8.45 -1.25 8.55 -0.85 9.0 0.65 Q9.55 2.95 9.7 5.3 L9.6 7.3 Q12.25 26.0 8.65 44.3 L8.15 46.7 7.35 47.05 7.25 48.0 5.15 49.0 7.95 49.85" fill="#d79e4a" fill-rule="evenodd" stroke="none"/>
    </g>
    <g id="shape2" transform="matrix(1.0, 0.0, 0.0, 1.0, 112.05, 31.7)">
      <path d="M-82.0 31.65 Q-81.0 30.15 -80.55 28.4 -79.2 22.7 -83.3 18.5 -87.3 14.45 -93.15 15.15 -96.8 15.6 -99.65 18.45 -101.05 21.05 -101.2 23.85 -101.3 25.2 -100.8 26.45 -97.6 32.85 -92.1 28.55 -88.55 25.85 -92.2 23.95 L-92.15 23.5 -91.7 23.1 Q-88.3 24.85 -90.0 27.9 -91.1 29.95 -93.4 30.55 -99.1 32.2 -101.75 27.05 -104.05 22.4 -99.9 17.6 -97.25 14.6 -93.7 14.25 -91.25 13.7 -88.85 14.15 -83.05 15.2 -80.3 20.2 -77.5 25.3 -80.25 30.55 -81.75 33.5 -84.1 35.85 -95.9 44.5 -107.25 36.85 -109.4 35.4 -110.45 33.1 -114.35 25.15 -108.6 17.8 -105.9 14.3 -102.5 11.4 -93.95 4.1 -83.65 1.9 L-77.8 1.35 -74.6 0.7 Q-72.75 1.1 -74.3 2.35 L-83.0 2.9 Q-86.85 3.75 -91.85 6.0 -96.9 8.2 -100.9 11.45 -104.9 14.75 -107.15 17.35 -112.75 23.7 -109.75 31.25 -106.45 39.45 -97.05 39.55 -89.55 39.6 -83.9 33.85 L-82.0 31.65" fill="#000000" fill-rule="evenodd" stroke="none"/>
      <path d="M-69.25 5.25 Q-68.55 6.75 -68.0 11.7 -67.4 16.7 -69.15 20.95 -70.85 25.0 -72.2 26.75 L-73.15 27.55 Q-70.8 28.1 -70.6 28.8 L-70.25 29.7 Q-71.65 30.75 -73.3 30.75 L-73.4 30.85 -73.4 30.9 -73.35 31.15 -73.25 31.25 Q-71.15 31.6 -69.35 30.25 -68.95 28.55 -70.15 27.85 L-71.4 27.15 -69.5 24.75 Q-67.95 22.7 -67.05 17.0 -66.15 11.25 -67.4 7.2 -68.7 3.15 -69.5 2.9 -69.9 3.75 -69.25 5.25 M-65.2 2.25 L-65.3 3.0 Q-64.9 4.4 -63.65 5.75 -60.3 10.05 -58.65 15.15 -56.4 22.05 -61.3 27.35 L-61.0 27.35 -61.0 27.4 -61.05 27.45 -60.95 27.7 -60.9 27.8 Q-59.5 28.25 -58.95 29.5 L-58.9 29.8 -59.0 29.9 -59.2 30.15 -59.25 30.2 -63.55 30.55 -63.65 30.75 -63.55 31.05 Q-60.25 32.2 -58.0 30.2 -57.9 28.5 -59.55 27.4 L-59.85 27.2 Q-57.8 25.3 -57.15 22.35 -56.35 18.45 -57.9 13.2 -59.4 8.2 -64.9 2.15 L-65.05 2.25 -65.2 2.25" fill="#000000" fill-rule="evenodd" stroke="none"/>
      <path d="M-61.4 27.0 Q-63.65 26.1 -65.7 24.7 -69.45 22.1 -72.45 17.9 -77.55 10.8 -74.0 0.5 -70.7 -9.05 -64.15 -13.85 L-63.65 -14.2" fill="none" stroke="#000000" stroke-linecap="round" stroke-linejoin="round" stroke-width="1.0"/>
      <path d="M-65.7 24.7 L-65.2 24.35 Q-58.85 22.65 -61.15 27.35" fill="none" stroke="#000000" stroke-linecap="round" stroke-linejoin="round" stroke-width="1.0"/>
      <path d="M-51.3 -24.0 L-51.45 -24.45 -52.15 -26.35 -52.15 -26.3 -52.1 -26.15 -52.1 -25.75 -52.25 -25.0 -52.8 -24.2 -52.85 -24.05 -53.05 -23.95 -53.9 -23.5 -54.1 -23.4 -56.25 -23.75 -56.3 -23.75 Q-56.9 -24.1 -57.3 -24.6 L-57.5 -24.9 -57.75 -25.25 -57.75 -25.65 -58.3 -25.25 -58.4 -25.2 -58.75 -25.2 -59.75 -25.3 -60.45 -25.5 -60.65 -25.65 -61.1 -26.7 -61.1 -26.8 -61.05 -27.15 Q-60.85 -27.8 -60.05 -28.05 L-59.85 -28.1 -59.8 -28.15 -59.8 -28.1 -59.7 -28.1 -59.7 -28.15 -59.5 -28.3 -58.3 -27.95 -57.65 -27.35 -57.55 -27.2 -57.5 -27.2 -57.45 -27.0 -57.3 -27.25 -57.05 -27.5 Q-55.6 -28.9 -53.6 -28.1 L-52.7 -27.35 Q-53.5 -28.6 -54.65 -29.55 -56.8 -30.55 -59.0 -30.0 L-59.55 -30.0 -59.7 -29.9 Q-61.0 -29.45 -62.2 -28.8 L-62.25 -28.7 -63.2 -28.05 -63.4 -27.85 -63.5 -27.65 -64.15 -26.45 -64.25 -26.15 -64.3 -26.05 -64.3 -26.0 -64.3 -25.95 -64.35 -23.05 -64.3 -22.85 -63.6 -21.1 -63.55 -20.8 Q-63.55 -20.2 -63.0 -19.8 L-61.0 -18.2 Q-59.15 -17.3 -57.15 -17.2 L-57.1 -17.2 -55.0 -17.55 -54.85 -17.7 -54.8 -17.7 -54.05 -18.0 -54.0 -18.0 -53.95 -18.05 -53.85 -18.1 Q-53.3 -18.3 -52.9 -18.65 -51.95 -19.1 -51.35 -20.0 L-51.2 -20.55 -55.0 -22.15 -55.6 -22.4 -56.55 -22.7 -57.6 -23.05 -58.1 -23.2 -58.35 -23.3 -59.35 -23.35 -59.4 -23.35 Q-61.3 -23.8 -63.1 -23.35 L-63.85 -23.05 -64.1 -23.15 -64.3 -23.2 -64.3 -23.3 Q-63.2 -24.4 -61.45 -24.1 L-60.45 -24.0 -60.35 -24.05 -59.5 -24.0 -59.5 -23.95 -59.45 -24.0 -59.15 -23.9 -59.05 -23.9 -58.9 -23.85 -58.25 -23.8 -58.2 -23.8 -57.65 -23.7 -57.6 -23.65 -57.5 -23.65 -57.5 -23.6 -56.2 -23.2 -56.15 -23.2 -55.35 -23.0 -55.0 -22.75 -52.25 -21.6 -51.1 -21.0 -51.05 -21.15 -50.85 -22.25 -50.75 -22.6 -51.25 -23.85 -51.3 -24.0 M-58.55 -27.55 L-59.55 -27.75 Q-60.5 -27.65 -60.65 -26.7 L-60.6 -26.3 -60.0 -25.7 Q-58.85 -25.25 -58.0 -26.05 L-57.95 -26.05 -57.9 -26.1 -57.9 -26.15 -57.85 -26.25 -57.75 -26.5 Q-57.7 -26.85 -58.0 -27.1 L-58.5 -27.5 -58.55 -27.55 M-57.1 -25.1 L-56.3 -24.35 -55.15 -23.9 -54.75 -23.9 -54.35 -23.95 Q-53.9 -23.95 -53.6 -24.25 -53.05 -24.4 -52.85 -24.95 -52.55 -25.7 -52.6 -26.4 L-52.65 -26.6 Q-53.2 -27.35 -54.05 -27.65 L-56.25 -27.6 Q-57.15 -27.1 -57.3 -26.05 -57.4 -25.55 -57.1 -25.1 M-52.55 -29.25 L-52.7 -29.2 -53.65 -29.3 Q-51.9 -27.6 -51.1 -25.2 -49.6 -26.2 -47.95 -26.0 L-47.8 -25.95 -47.8 -25.9 -47.25 -25.65 -47.1 -25.55 -47.05 -25.35 -46.65 -24.9 -46.4 -24.45 -46.4 -24.3 -46.4 -24.15 -46.3 -23.95 -46.45 -23.55 -46.55 -23.25 -46.65 -23.0 -47.0 -22.55 -47.0 -22.5 -47.15 -22.4 -47.2 -22.35 Q-47.65 -22.0 -48.15 -21.85 L-48.75 -21.75 -48.85 -21.75 -50.05 -22.05 -50.35 -22.2 -50.35 -22.15 -50.35 -22.0 -50.55 -20.7 -50.3 -20.5 -50.4 -20.25 -50.7 -20.35 Q-51.15 -19.3 -52.15 -18.55 -54.4 -17.05 -57.15 -16.65 L-57.8 -16.8 -61.2 -17.7 -61.4 -17.85 Q-63.1 -18.9 -63.95 -20.55 L-64.05 -20.85 Q-65.35 -23.05 -64.9 -25.45 L-64.8 -25.85 -64.9 -25.8 -65.1 -25.7 -65.65 -25.6 Q-67.5 -25.35 -69.0 -26.25 L-69.1 -26.4 -69.25 -26.6 -69.35 -26.65 -69.3 -26.8 -69.45 -26.9 -69.55 -27.55 -69.55 -27.65 -69.5 -28.05 -69.05 -29.5 -69.0 -29.8 -69.0 -29.85 -68.95 -30.0 -68.85 -30.1 -68.75 -30.25 -68.6 -30.7 -68.55 -30.75 -68.5 -30.75 -68.45 -30.8 -68.45 -30.85 -68.4 -30.95 -68.35 -30.95 -68.3 -31.0 -68.25 -31.05 -68.15 -31.2 -68.15 -31.25 -67.95 -31.3 -64.8 -31.25 -64.8 -31.2 -64.65 -31.1 -64.6 -31.05 -63.55 -29.35 -63.3 -28.75 -63.25 -28.8 -63.0 -28.9 -62.75 -28.95 Q-61.35 -29.95 -59.65 -30.35 -56.2 -31.25 -52.7 -29.6 L-52.7 -29.55 -52.6 -29.5 -52.55 -29.35 -52.55 -29.25 M-50.55 -23.4 L-50.35 -22.85 -48.85 -22.4 -48.8 -22.4 -48.2 -22.35 -48.1 -22.4 -47.2 -22.95 -47.1 -23.05 -47.05 -23.3 -46.95 -23.6 -46.9 -23.75 -46.95 -23.85 -47.05 -24.1 -47.1 -24.2 -47.7 -25.15 -48.55 -25.45 -48.95 -25.45 -49.05 -25.4 -50.55 -24.9 -50.7 -24.8 -50.8 -24.75 -50.9 -24.55 -50.85 -24.45 -50.75 -24.05 -50.55 -23.4 M-47.25 -25.25 L-47.25 -25.2 -47.25 -25.25 M-63.95 -27.95 L-63.75 -28.15 -63.75 -28.35 -63.7 -28.4 -63.75 -28.4 -63.8 -28.45 Q-63.95 -29.35 -64.55 -30.0 L-64.95 -30.65 -66.6 -31.05 -67.0 -31.05 -67.1 -31.05 -67.1 -31.0 -67.2 -30.95 -67.25 -30.95 -67.4 -30.85 -67.9 -30.35 -67.95 -30.25 -68.05 -30.1 -68.25 -30.0 -68.35 -29.8 -68.45 -29.7 -68.5 -29.6 -69.05 -27.95 -69.05 -27.85 -69.05 -27.45 -69.0 -27.35 -68.95 -27.25 -68.8 -26.95 -68.65 -26.85 -68.0 -26.4 -67.0 -26.1 -66.55 -26.15 -65.75 -26.25 -65.75 -26.3 -65.15 -26.35 -65.0 -26.45 -64.85 -26.6 -64.8 -26.65 -64.4 -27.15 -63.95 -27.95 M-56.4 -21.85 L-56.45 -22.1 Q-56.35 -22.35 -56.05 -22.25 L-56.05 -22.2 -55.9 -21.9 -55.95 -21.75 Q-56.25 -21.55 -56.4 -21.85 M-57.2 -22.6 L-57.1 -22.5 -57.1 -22.15 -57.2 -22.1 -57.25 -22.0 -57.6 -22.0 Q-57.85 -22.2 -57.75 -22.5 L-57.6 -22.7 -57.45 -22.7 -57.3 -22.65 -57.2 -22.6" fill="#000000" fill-rule="evenodd" stroke="none"/>
      <path d="M-64.3 -22.85 L-64.35 -23.05 -64.3 -25.95 -64.3 -26.0 -64.3 -26.05 -64.25 -26.15 -64.15 -26.45 -63.5 -27.65 -63.4 -27.85 -63.2 -28.05 -62.25 -28.7 -62.2 -28.8 Q-61.0 -29.45 -59.7 -29.9 L-59.55 -30.0 -59.0 -30.0 Q-56.8 -30.55 -54.65 -29.55 -53.5 -28.6 -52.7 -27.35 L-53.6 -28.1 Q-55.6 -28.9 -57.05 -27.5 L-57.3 -27.25 -57.45 -27.0 -57.5 -27.2 -57.55 -27.2 -57.65 -27.35 -58.3 -27.95 -59.5 -28.3 -59.7 -28.15 -59.7 -28.1 -59.8 -28.1 -59.8 -28.15 -59.85 -28.1 -60.05 -28.05 Q-60.85 -27.8 -61.05 -27.15 L-61.1 -26.8 -61.1 -26.7 -60.65 -25.65 -60.45 -25.5 -59.75 -25.3 -58.75 -25.2 -58.4 -25.2 -58.3 -25.25 -57.75 -25.65 -57.75 -25.25 -57.5 -24.9 -57.3 -24.6 Q-56.9 -24.1 -56.3 -23.75 L-56.25 -23.75 -54.1 -23.4 -53.9 -23.5 -53.05 -23.95 -52.85 -24.05 -52.8 -24.2 -52.25 -25.0 -52.1 -25.75 -52.1 -26.15 -52.15 -26.3 -52.15 -26.35 -51.45 -24.45 -51.3 -24.0 -51.25 -23.85 -50.75 -22.6 -50.85 -22.25 -51.05 -21.15 -51.1 -21.0 -52.25 -21.6 -55.0 -22.75 -55.35 -23.0 -56.15 -23.2 -56.2 -23.2 -57.5 -23.6 -57.5 -23.65 -57.6 -23.65 -57.65 -23.7 -58.2 -23.8 -58.25 -23.8 -58.9 -23.85 -59.05 -23.9 -59.15 -23.9 -59.45 -24.0 -59.5 -23.95 -59.5 -24.0 -60.35 -24.05 -60.45 -24.0 -61.45 -24.1 Q-63.2 -24.4 -64.3 -23.3 L-64.3 -23.2 -64.1 -23.15 -64.3 -22.9 -64.3 -22.85 M-50.75 -24.05 L-50.85 -24.45 -50.9 -24.55 -50.8 -24.75 -50.7 -24.8 -50.55 -24.9 -49.05 -25.4 -48.95 -25.45 -48.55 -25.45 -47.7 -25.15 -47.1 -24.2 -47.05 -24.1 -46.95 -23.85 -46.9 -23.75 -46.95 -23.6 -47.05 -23.3 -47.1 -23.05 -47.2 -22.95 -48.1 -22.4 -48.2 -22.35 -48.8 -22.4 -48.85 -22.4 -50.35 -22.85 -50.55 -23.4 -50.4 -23.3 -49.95 -23.05 -48.8 -22.9 -48.35 -23.1 -48.1 -23.5 -48.1 -23.65 -48.05 -23.7 -48.1 -23.75 -48.15 -23.95 -48.15 -24.05 Q-48.55 -24.7 -49.35 -24.8 L-50.3 -24.35 -50.75 -24.05 M-64.85 -26.6 L-65.0 -26.45 -65.15 -26.35 -65.75 -26.3 -65.75 -26.25 -66.55 -26.15 -67.0 -26.1 -68.0 -26.4 -68.65 -26.85 -68.8 -26.95 -68.95 -27.25 -69.0 -27.35 -69.05 -27.45 -69.05 -27.85 -69.05 -27.95 -68.5 -29.6 -68.45 -29.7 -68.35 -29.8 -68.25 -30.0 -68.05 -30.1 -67.95 -30.25 -67.9 -30.35 -67.4 -30.85 -67.25 -30.95 -67.2 -30.95 -67.1 -31.0 -67.1 -31.05 -67.0 -31.05 -66.6 -31.05 -64.95 -30.65 -64.55 -30.0 Q-63.95 -29.35 -63.8 -28.45 L-63.75 -28.4 -63.7 -28.4 -63.75 -28.35 -63.75 -28.15 -63.95 -27.95 -64.0 -27.95 -64.0 -28.0 -64.0 -28.1 -64.05 -28.1 -64.1 -28.2 -64.35 -28.45 -64.35 -28.5 -64.35 -28.6 -64.4 -28.65 Q-64.95 -29.35 -65.8 -29.35 L-66.25 -29.2 -66.35 -29.2 -66.45 -29.15 -66.7 -29.0 -66.75 -28.95 -66.9 -28.85 -67.1 -28.4 -67.1 -28.25 -67.05 -28.2 -66.95 -28.0 -66.85 -27.75 -66.65 -27.45 -66.5 -27.3 Q-65.8 -26.6 -64.85 -26.6 M-67.35 -29.15 L-67.45 -29.0 -67.4 -29.05 -67.35 -29.15" fill="#95632d" fill-rule="evenodd" stroke="none"/>
      <path d="M-51.3 -24.0 L-51.25 -23.85 -51.3 -24.0 M-64.1 -23.15 L-63.85 -23.05 -63.1 -23.35 Q-61.3 -23.8 -59.4 -23.35 L-59.35 -23.35 -58.35 -23.3 -58.1 -23.2 -57.6 -23.05 -56.55 -22.7 -55.6 -22.4 -55.0 -22.15 -51.2 -20.55 -51.35 -20.0 Q-51.95 -19.1 -52.9 -18.65 -53.3 -18.3 -53.85 -18.1 L-53.95 -18.05 -54.0 -18.0 -54.05 -18.0 -54.8 -17.7 -54.85 -17.7 -55.0 -17.55 -57.1 -17.2 -57.15 -17.2 Q-59.15 -17.3 -61.0 -18.2 L-63.0 -19.8 Q-63.55 -20.2 -63.55 -20.8 L-63.6 -21.1 -64.3 -22.85 -64.3 -22.9 -64.1 -23.15 M-50.55 -23.4 L-50.75 -24.05 -50.3 -24.35 -49.35 -24.8 Q-48.55 -24.7 -48.15 -24.05 L-48.15 -23.95 -48.1 -23.75 -48.05 -23.7 -48.1 -23.65 -48.1 -23.5 -48.35 -23.1 -48.8 -22.9 -49.95 -23.05 -50.4 -23.3 -50.55 -23.4 M-63.95 -27.95 L-64.4 -27.15 -64.8 -26.65 -64.85 -26.6 Q-65.8 -26.6 -66.5 -27.3 L-66.65 -27.45 -66.85 -27.75 -66.95 -28.0 -67.05 -28.2 -67.1 -28.25 -67.1 -28.4 -66.9 -28.85 -66.75 -28.95 -66.7 -29.0 -66.45 -29.15 -66.35 -29.2 -66.25 -29.2 -65.8 -29.35 Q-64.95 -29.35 -64.4 -28.65 L-64.35 -28.6 -64.35 -28.5 -64.35 -28.45 -64.1 -28.2 -64.05 -28.1 -64.0 -28.1 -64.0 -28.0 -64.0 -27.95 -63.95 -27.95 M-67.35 -29.15 L-67.4 -29.05 -67.45 -29.0 -67.35 -29.15 M-57.2 -22.6 L-57.3 -22.65 -57.45 -22.7 -57.6 -22.7 -57.75 -22.5 Q-57.85 -22.2 -57.6 -22.0 L-57.25 -22.0 -57.2 -22.1 -57.1 -22.15 -57.1 -22.5 -57.2 -22.6 M-56.4 -21.85 Q-56.25 -21.55 -55.95 -21.75 L-55.9 -21.9 -56.05 -22.2 -56.05 -22.25 Q-56.35 -22.35 -56.45 -22.1 L-56.4 -21.85" fill="#d79e4a" fill-rule="evenodd" stroke="none"/>
      <path d="M-57.1 -25.1 Q-57.4 -25.55 -57.3 -26.05 -57.15 -27.1 -56.25 -27.6 L-54.05 -27.65 Q-53.2 -27.35 -52.65 -26.6 L-52.6 -26.4 Q-52.55 -25.7 -52.85 -24.95 -53.05 -24.4 -53.6 -24.25 -53.9 -23.95 -54.35 -23.95 L-54.75 -23.9 -55.15 -23.9 -56.3 -24.35 -57.1 -25.1 M-58.55 -27.55 L-58.5 -27.5 -58.0 -27.1 Q-57.7 -26.85 -57.75 -26.5 L-57.85 -26.25 -57.9 -26.15 -57.9 -26.1 -57.95 -26.05 -58.0 -26.05 Q-58.85 -25.25 -60.0 -25.7 L-60.6 -26.3 -60.65 -26.7 Q-60.5 -27.65 -59.55 -27.75 L-58.55 -27.55" fill="#ffffff" fill-rule="evenodd" stroke="none"/>
    </g>
    <g id="sprite0" transform="matrix(1.0, 0.0, 0.0, 1.0, 2.75, 0.0)">
      <use ffdec:characterId="13" height="5.35" transform="matrix(1.0, 0.0, 0.0, 1.0, 0.0, 0.0)" width="22.8" xlink:href="#shape3"/>
    </g>
    <g id="shape3" transform="matrix(1.0, 0.0, 0.0, 1.0, 2.75, -2.45)">
      <path d="M20.05 6.1 Q20.1 6.9 19.55 7.35 L18.6 7.8 18.5 7.8 17.9 7.65 17.35 7.5 16.75 6.95 Q16.25 6.45 16.35 5.8 L16.4 5.75 16.5 5.45 17.2 4.75 17.55 4.7 Q18.9 4.3 19.7 5.2 20.05 5.55 20.05 6.1" fill="#000000" fill-rule="evenodd" stroke="none"/>
      <path d="M1.1 3.95 Q1.3 5.05 0.7 5.9 0.5 6.25 0.0 6.3 -2.4 6.65 -2.7 4.4 -2.9 3.0 -1.65 2.55 -0.55 2.3 0.25 2.8 0.9 3.25 1.1 3.95" fill="#000000" fill-rule="evenodd" stroke="none"/>
    </g>
    <g id="shape4" transform="matrix(1.0, 0.0, 0.0, 1.0, 61.8, 20.4)">
      <path d="M-61.3 -19.15 Q-57.8 -21.05 -55.5 -18.2" fill="none" stroke="#000000" stroke-linecap="round" stroke-linejoin="round" stroke-width="1.0"/>
    </g>
    <g id="shape5" transform="matrix(1.0, 0.0, 0.0, 1.0, 38.0, -4.15)">
      <path d="M-27.45 5.5 L-27.65 5.6 -27.85 5.7 Q-31.2 7.4 -33.2 9.7 L-33.35 9.75 -33.95 10.35 -34.0 10.7 Q-35.55 12.75 -36.1 15.3 L-36.45 17.85 -33.45 16.95 -31.05 15.45 -29.95 14.3 Q-29.4 13.8 -29.3 13.15 L-29.2 13.35 -29.1 13.2 -28.1 11.35 Q-27.6 10.1 -27.4 8.8 L-27.25 6.55 -27.35 5.6 -27.45 5.5 M-27.45 4.25 L-27.2 4.15 Q-26.85 5.45 -26.9 6.9 L-27.2 9.2 Q-27.6 11.0 -28.55 12.55 -29.5 14.15 -30.9 15.5 -32.15 16.7 -33.85 17.5 -35.65 18.3 -37.65 18.1 L-38.0 18.15 Q-37.9 15.2 -36.05 11.95 -33.1 6.9 -27.8 4.4 L-27.75 4.35 -27.45 4.25" fill="#000000" fill-rule="evenodd" stroke="none"/>
    </g>
    <g id="shape6" transform="matrix(1.0, 0.0, 0.0, 1.0, 6.85, 3.25)">
      <path d="M-4.7 -2.6 L-4.4 -2.65 -3.3 -2.5 -2.55 -1.95 -1.95 -1.25 Q-1.0 0.1 -1.6 1.45 -3.35 2.85 -4.6 1.75 -6.5 -0.65 -4.7 -2.6" fill="#ff0000" fill-rule="evenodd" stroke="none"/>
      <path d="M-4.4 -2.65 Q-4.3 -3.15 -2.9 -3.25 0.25 -1.85 -0.45 2.05 L-1.0 2.6 Q-5.95 4.3 -6.5 1.5 L-6.85 -0.35 Q-6.7 -2.85 -4.7 -2.6 -6.5 -0.65 -4.6 1.75 -3.35 2.85 -1.6 1.45 -1.0 0.1 -1.95 -1.25 L-2.55 -1.95 -3.3 -2.5 -4.4 -2.65" fill="#000000" fill-rule="evenodd" stroke="none"/>
      <path d="M-1.0 0.05 L6.2 0.1 Q6.65 0.1 6.8 -0.4 L6.75 -0.55 Q6.75 -1.05 6.2 -1.05 L6.2 -1.1 -1.05 -0.75 -1.35 -0.45 -1.3 -0.3 -1.0 0.05" fill="#000000" fill-rule="evenodd" stroke="none"/>
      <path d="M-4.45 0.55 Q-4.9 0.85 -5.25 0.4 -6.25 -0.9 -4.65 -1.35 -2.75 -0.55 -4.45 0.55" fill="#ffffff" fill-rule="evenodd" stroke="none"/>
    </g>
    <g id="shape7" transform="matrix(1.0, 0.0, 0.0, 1.0, 49.2, -3.2)">
      <path d="M-7.5 13.8 Q-9.1 10.3 -12.55 7.75 -18.85 3.25 -26.25 4.8 L-26.25 5.9 Q-26.0 9.6 -27.6 12.85 -28.4 14.35 -29.7 15.35 -32.85 17.65 -36.4 18.45 -36.4 22.5 -33.7 25.0 -30.0 28.4 -23.9 29.3 -16.6 30.45 -10.5 26.7 -9.0 25.75 -8.0 24.35 -4.8 19.6 -7.5 13.8 M-12.9 6.1 Q-5.5 10.1 -5.05 18.4 -4.65 25.55 -11.4 28.75 -18.05 31.95 -25.5 30.4 -30.65 29.4 -34.45 25.65 -37.65 22.45 -37.9 18.75 L-37.95 18.75 -37.95 17.85 -37.9 17.85 -36.6 17.7 -33.75 16.85 Q-32.0 16.15 -30.7 15.0 -29.4 13.85 -28.45 12.25 -27.5 10.7 -27.25 9.2 -27.0 7.7 -27.05 6.45 -27.1 5.1 -27.7 4.1 L-25.4 3.2 -24.95 3.2 -25.05 3.3 Q-18.6 3.0 -12.9 6.1" fill="#000000" fill-rule="evenodd" stroke="none"/>
      <path d="M-7.5 13.8 Q-4.8 19.6 -8.0 24.35 -9.0 25.75 -10.5 26.7 -16.6 30.45 -23.9 29.3 -30.0 28.4 -33.7 25.0 -36.4 22.5 -36.4 18.45 -32.85 17.65 -29.7 15.35 -28.4 14.35 -27.6 12.85 -26.0 9.6 -26.25 5.9 L-26.25 4.8 Q-18.85 3.25 -12.55 7.75 -9.1 10.3 -7.5 13.8" fill="#ff9900" fill-rule="evenodd" stroke="none"/>
      <path d="M-7.5 13.8 Q-4.8 19.6 -8.0 24.35 -9.0 25.75 -10.5 26.7 -16.6 30.45 -23.9 29.3 -30.0 28.4 -33.7 25.0 -36.4 22.5 -36.4 18.45 -32.85 17.65 -29.7 15.35 -28.4 14.35 -27.6 12.85 -26.0 9.6 -26.25 5.9 L-26.25 4.8 Q-18.85 3.25 -12.55 7.75 -9.1 10.3 -7.5 13.8" fill="url(#gradient0)" fill-rule="evenodd" stroke="none"/>
      <path d="M-47.05 21.5 L-46.75 21.45 -45.65 21.6 -44.9 22.15 -44.3 22.85 Q-43.35 24.2 -43.95 25.55 -45.7 26.95 -46.95 25.85 -48.85 23.45 -47.05 21.5" fill="#ff0000" fill-rule="evenodd" stroke="none"/>
      <path d="M-46.75 21.45 Q-46.65 20.95 -45.25 20.85 -42.1 22.25 -42.8 26.15 L-43.35 26.7 Q-48.3 28.4 -48.85 25.6 L-49.2 23.75 Q-49.05 21.25 -47.05 21.5 -48.85 23.45 -46.95 25.85 -45.7 26.95 -43.95 25.55 -43.35 24.2 -44.3 22.85 L-44.9 22.15 -45.65 21.6 -46.75 21.45" fill="#000000" fill-rule="evenodd" stroke="none"/>
      <path d="M-43.35 24.15 L-36.15 24.2 Q-35.7 24.2 -35.55 23.7 L-35.6 23.55 Q-35.6 23.05 -36.15 23.05 L-36.15 23.0 -43.4 23.35 Q-43.75 23.35 -43.7 23.65 L-43.65 23.8 -43.35 24.15" fill="#000000" fill-rule="evenodd" stroke="none"/>
      <path d="M-46.8 24.65 Q-47.25 24.95 -47.6 24.5 -48.6 23.2 -47.0 22.75 -45.1 23.55 -46.8 24.65" fill="#ffffff" fill-rule="evenodd" stroke="none"/>
    </g>
    <radialGradient cx="0" cy="0" gradientTransform="matrix(0.0385, 0.0, 0.0, 0.0276, -15.35, 8.15)" gradientUnits="userSpaceOnUse" id="gradient0" r="819.2" spreadMethod="pad">
      <stop offset="0.0" stop-color="#febf74"/>
      <stop offset="0.4980392156862745" stop-color="#ff9900"/>
      <stop offset="1.0" stop-color="#ff6600"/>
    </radialGradient>
    <g id="shape8" transform="matrix(1.0, 0.0, 0.0, 1.0, 36.45, -5.65)">
      <path d="M-33.4 9.85 L-32.65 9.1 Q-30.7 7.15 -27.85 5.7 L-27.35 5.65 -27.25 6.55 -27.4 8.8 Q-27.6 10.1 -28.1 11.35 L-29.0 13.05 -29.7 12.95 -30.85 12.15 -33.3 10.35 -33.45 10.2 Q-33.25 9.9 -33.4 9.85 M-29.85 14.2 L-30.7 15.0 Q-32.0 16.15 -33.75 16.85 L-36.45 17.65 -36.1 15.3 Q-35.6 13.0 -34.15 10.75 L-33.9 10.55 Q-32.4 12.5 -30.45 13.55 -29.3 14.0 -29.85 14.2" fill="#ffcc00" fill-rule="evenodd" stroke="none"/>
      <path d="M-29.0 13.05 Q-28.85 13.35 -29.05 13.9 -29.25 14.45 -29.85 14.2 -29.3 14.0 -30.45 13.55 -32.4 12.5 -33.9 10.55 L-33.95 10.5 -33.95 10.45 -34.15 10.75 -34.2 10.75 Q-34.65 10.4 -34.5 9.85 -34.4 9.45 -34.0 9.4 -33.45 9.45 -33.4 9.85 -33.25 9.9 -33.45 10.2 L-33.3 10.35 -30.85 12.15 -29.7 12.95 -29.0 13.05" fill="#000000" fill-rule="evenodd" stroke="none"/>
    </g>
    <g id="sprite1" transform="matrix(1.0, 0.0, 0.0, 1.0, -0.05, 0.0)">
      <use ffdec:characterId="304" height="20.0" transform="matrix(1.0, 0.0, 0.0, 1.0, 0.05, 0.0)" width="20.0" xlink:href="#shape9"/>
    </g>
    <g id="shape9" transform="matrix(1.0, 0.0, 0.0, 1.0, -0.05, 0.0)">
      <path d="M10.05 20.0 Q5.9 20.0 2.95 17.05 0.0 14.1 0.05 10.0 0.0 5.85 2.95 2.9 5.9 0.0 10.05 0.0 14.15 0.0 17.1 2.9 20.05 5.85 20.05 10.0 20.05 14.1 17.1 17.05 14.15 20.0 10.05 20.0" fill="#ffffff" fill-opacity="0.0" fill-rule="evenodd" stroke="none"/>
    </g>
  </defs>
</svg>
