<?xml version="1.0" encoding="UTF-8" standalone="no"?>
<svg xmlns:ffdec="https://www.free-decompiler.com/flash" xmlns:xlink="http://www.w3.org/1999/xlink" ffdec:objectType="frame" height="110.8px" width="126.55px" xmlns="http://www.w3.org/2000/svg">
  <g transform="matrix(1.0, 0.0, 0.0, 1.0, 125.65, 69.65)">
    <use ffdec:characterId="306" height="37.95" transform="matrix(1.0, 0.0, 0.0, 1.0, -60.1, -11.55)" width="31.0" xlink:href="#shape0"/>
    <use ffdec:characterId="298" height="107.25" transform="matrix(-0.2112, -0.0342, -0.0342, 0.2112, -56.824, -18.2843)" width="48.75" xlink:href="#shape1"/>
    <use ffdec:characterId="307" height="63.45" transform="matrix(1.0, 0.0, 0.0, 1.0, -108.75, -32.0)" width="54.1" xlink:href="#shape2"/>
    <use ffdec:characterId="309" height="13.95" id="mcMonkeyHead" transform="matrix(1.0, 0.0, 0.0, 1.0, -73.4, -31.85)" width="23.55" xlink:href="#sprite0"/>
    <use ffdec:characterId="300" height="14.0" transform="matrix(1.0, 0.0, 0.0, 1.0, -38.0, 4.15)" width="11.1" xlink:href="#shape8"/>
    <use ffdec:characterId="301" height="27.7" transform="matrix(1.0, 0.0, 0.0, 1.0, -49.2, 3.2)" width="44.15" xlink:href="#shape9"/>
    <use ffdec:characterId="302" height="12.15" transform="matrix(1.0, 0.0, 0.0, 1.0, -36.45, 5.5)" width="9.2" xlink:href="#shape10"/>
    <use ffdec:characterId="303" height="20.0" id="mcHitTestMonkey" transform="matrix(1.956, 0.0, 0.0, 3.7691, -86.15, -42.65)" width="20.0" xlink:href="#sprite4"/>
    <use ffdec:characterId="305" height="20.0" id="mcHitTestCannon" transform="matrix(1.75, 0.0, 0.0, 1.75, -38.5125, 0.25)" width="20.0" xlink:href="#sprite5"/>
  </g>
  <defs>
    <g id="shape0" transform="matrix(1.0, 0.0, 0.0, 1.0, 60.1, 11.55)">
      <path d="M-29.3 13.1 L-29.1 13.2 -29.2 13.35 -29.3 13.1" fill="#ff9900" fill-rule="evenodd" stroke="none"/>
      <path d="M-44.9 21.7 L-45.25 21.5 -45.65 21.5 -46.0 21.9 Q-50.3 19.15 -52.75 14.1 -55.5 8.45 -57.4 2.35 -59.55 -4.6 -58.7 -11.3 -58.9 -11.6 -59.3 -11.5 L-59.55 -11.45 Q-61.1 -3.85 -58.25 4.15 -56.3 9.75 -53.55 15.05 -51.1 19.75 -47.1 22.85 L-46.55 23.15 Q-46.95 24.7 -45.5 26.3 L-45.25 26.4 Q-44.7 26.35 -44.75 25.8 L-44.8 25.6 -45.0 25.3 -45.35 24.8 -45.4 23.9 -45.4 23.3 -44.8 22.0 -44.9 21.7" fill="#000000" fill-rule="evenodd" stroke="none"/>
    </g>
    <g id="shape1" transform="matrix(1.0, 0.0, 0.0, 1.0, 24.35, 53.6)">
      <path d="M9.5 -7.25 Q8.8 -9.65 7.5 -11.8 L5.6 -14.5 5.5 -14.65 Q0.6 -20.5 -9.25 -25.0 -12.85 -26.65 -16.7 -27.7 L-17.45 -27.75 Q-20.25 -26.25 -20.95 -23.8 -21.3 -22.75 -21.95 -21.8 -21.0 -35.4 -14.1 -47.9 L-12.6 -48.5 -12.45 -48.5 -11.6 -48.7 -11.55 -48.9 -8.55 -49.65 -8.25 -49.9 -8.05 -50.15 -6.6 -50.55 Q-5.05 -51.1 -3.5 -50.55 L-2.9 -50.15 Q-1.45 -49.4 0.1 -48.8 3.0 -47.8 5.45 -46.05 L5.95 -45.15 7.95 -44.05 Q8.85 -42.6 10.25 -41.55 L11.45 -40.45 11.5 -40.1 11.55 -39.85 11.65 -39.5 Q13.3 -38.55 14.1 -36.7 14.45 -35.85 15.1 -35.15 L15.15 -34.85 15.2 -34.55 15.3 -34.25 15.55 -33.9 16.2 -32.9 16.85 -30.8 17.2 -29.45 17.2 -29.05 17.2 -28.75 17.4 -28.45 17.5 -28.3 17.6 -27.85 17.6 -27.25 17.6 -26.65 17.6 -26.35 17.8 -26.05 18.0 -25.7 18.1 -25.15 18.4 -23.3 18.45 -23.0 18.75 -22.7 18.8 -22.65 Q21.45 -9.9 21.95 2.75 22.55 16.3 22.0 29.75 21.6 40.8 18.15 51.5 L18.2 51.65 17.4 51.85 Q14.4 52.25 11.0 51.9 L10.1 52.05 7.15 51.5 Q7.8 50.95 7.8 50.05 L7.95 49.85 8.95 50.2 Q15.5 35.65 13.25 19.85 L12.7 19.4 12.65 18.6 12.65 18.1 13.0 14.0 12.3 13.4 Q12.65 10.6 12.45 7.85 L12.6 7.85 12.7 8.0 12.5 7.25 12.45 7.05 Q11.6 3.8 11.4 0.55 L11.2 -0.45 11.1 -1.2 11.05 -1.45 10.95 -1.75 10.85 -2.45 10.7 -3.6 10.55 -4.2 10.55 -4.25 10.15 -6.0 9.65 -6.9 9.55 -7.25 9.55 -7.15 9.5 -7.25 M-17.95 -24.45 L-18.8 -23.95 -19.25 -23.55 -18.75 -24.05 -18.4 -24.3 -17.95 -24.45" fill="#95632d" fill-rule="evenodd" stroke="none"/>
      <path d="M18.15 51.5 Q21.6 40.8 22.0 29.75 22.55 16.3 21.95 2.75 21.45 -9.9 18.8 -22.65 L18.75 -22.7 18.45 -23.0 18.4 -23.3 18.1 -25.15 18.0 -25.7 17.8 -26.05 17.6 -26.35 17.6 -26.65 17.6 -27.25 17.6 -27.85 17.5 -28.3 17.4 -28.45 17.2 -28.75 17.2 -29.05 17.2 -29.45 16.85 -30.8 16.2 -32.9 15.55 -33.9 15.3 -34.25 15.2 -34.55 15.15 -34.85 15.1 -35.15 Q14.45 -35.85 14.1 -36.7 13.3 -38.55 11.65 -39.5 L11.55 -39.85 11.5 -40.1 11.45 -40.45 10.25 -41.55 Q8.85 -42.6 7.95 -44.05 L5.95 -45.15 5.45 -46.05 Q3.0 -47.8 0.1 -48.8 -1.45 -49.4 -2.9 -50.15 L-3.5 -50.55 Q-5.05 -51.1 -6.6 -50.55 L-8.05 -50.15 -8.25 -49.9 -8.55 -49.65 -11.55 -48.9 -11.6 -48.7 -12.45 -48.5 -12.6 -48.5 -14.1 -47.9 Q-21.0 -35.4 -21.95 -21.8 -21.3 -22.75 -20.95 -23.8 -20.25 -26.25 -17.45 -27.75 L-16.7 -27.7 Q-12.85 -26.65 -9.25 -25.0 0.6 -20.5 5.5 -14.65 L5.6 -14.5 7.5 -11.8 Q8.8 -9.65 9.5 -7.25 L9.55 -7.1 9.55 -7.15 9.55 -7.25 9.65 -6.9 10.4 -4.7 10.55 -4.25 10.55 -4.2 10.7 -3.6 10.85 -2.45 10.95 -1.75 11.15 -0.85 11.2 -0.45 11.4 0.55 Q11.6 3.8 12.45 7.05 L12.35 6.95 12.4 7.65 12.45 7.85 Q12.65 10.6 12.3 13.4 L13.0 14.0 12.65 18.1 12.55 19.25 12.7 19.4 13.25 19.85 Q15.5 35.65 8.95 50.2 L7.95 49.85 5.15 49.0 7.25 48.0 7.35 47.05 8.15 46.7 8.65 44.3 Q12.25 26.0 9.6 7.3 L9.7 5.3 Q9.55 2.95 9.0 0.65 L8.55 -0.85 8.45 -1.25 8.3 -1.65 Q8.1 -2.15 8.2 -2.6 8.45 -4.4 7.4 -5.75 L7.2 -6.5 6.0 -9.95 5.95 -10.1 Q1.2 -20.0 -15.3 -24.35 L-15.95 -24.6 -16.45 -24.65 -16.7 -24.7 -17.0 -24.65 -17.95 -24.45 -18.4 -24.3 -18.75 -24.05 -19.25 -23.55 -19.35 -23.4 -19.85 -22.35 Q-22.0 -21.2 -21.55 -19.1 L-22.1 -18.75 -22.1 -18.1 Q-22.3 -2.15 -18.25 14.35 -16.6 21.3 -12.8 28.3 -11.1 31.6 -9.95 35.0 -8.85 38.3 -6.95 41.5 L-7.0 41.6 -6.85 42.1 -6.6 42.85 Q-4.3 46.5 1.0 49.2 3.9 50.65 7.15 51.5 L10.1 52.05 11.0 51.9 Q14.4 52.25 17.4 51.85 L18.2 51.65 18.35 51.6 18.15 51.5 M12.5 7.25 L12.7 8.0 12.6 7.85 12.4 7.65 12.45 7.3 12.5 7.25 M15.7 -38.2 L16.0 -37.85 17.05 -36.1 17.2 -35.75 17.2 -35.45 17.2 -35.15 Q19.35 -33.2 19.55 -30.3 L19.65 -29.1 Q20.85 -25.95 21.55 -22.65 L21.95 -21.7 22.1 -20.7 22.1 -20.55 22.15 -20.5 23.4 -10.7 24.0 -4.55 23.9 -4.5 Q24.5 2.95 24.4 10.35 24.15 26.25 22.15 42.0 L21.5 48.0 20.75 51.25 Q21.4 51.9 20.25 52.55 18.5 53.45 15.95 53.45 L15.2 53.65 Q9.25 53.85 3.55 51.75 -2.35 49.6 -6.05 46.2 -8.35 44.05 -9.15 41.75 -13.5 32.95 -17.2 23.9 -24.25 6.95 -24.35 -9.95 L-24.2 -17.05 -24.3 -17.05 -24.1 -19.2 -24.1 -19.7 -24.0 -19.75 -24.0 -20.35 -23.95 -20.5 -23.95 -20.65 -23.95 -20.75 Q-23.1 -30.25 -20.6 -39.55 -19.15 -44.95 -15.55 -49.6 L-15.25 -49.6 -15.2 -49.6 -13.45 -50.8 -12.3 -51.3 -11.55 -52.0 -10.1 -53.0 -8.55 -53.05 -8.3 -53.4 -7.9 -53.5 -7.2 -53.55 -7.1 -53.6 -2.55 -52.3 Q0.25 -51.7 3.0 -50.35 5.45 -49.15 7.45 -47.4 L7.7 -47.25 10.15 -44.6 13.4 -41.5 Q14.8 -40.05 15.7 -38.2" fill="#000000" fill-rule="evenodd" stroke="none"/>
      <path d="M9.5 -7.25 L9.55 -7.15 9.55 -7.1 9.5 -7.25 M9.65 -6.9 L10.15 -6.0 10.55 -4.25 10.4 -4.7 9.65 -6.9 M10.95 -1.75 L11.05 -1.45 11.1 -1.2 11.15 -0.85 10.95 -1.75 M12.65 18.1 L12.65 18.6 12.7 19.4 12.55 19.25 12.65 18.1 M7.95 49.85 L7.8 50.05 Q7.8 50.95 7.15 51.5 3.9 50.65 1.0 49.2 -4.3 46.5 -6.6 42.85 L-6.85 42.1 -7.0 41.6 -6.95 41.5 Q-8.85 38.3 -9.95 35.0 -11.1 31.6 -12.8 28.3 -16.6 21.3 -18.25 14.35 -22.3 -2.15 -22.1 -18.1 L-22.1 -18.75 -21.55 -19.1 Q-22.0 -21.2 -19.85 -22.35 L-19.35 -23.4 -19.25 -23.55 -18.8 -23.95 -17.95 -24.45 -17.0 -24.65 -16.7 -24.7 -16.45 -24.65 -15.95 -24.6 -15.3 -24.35 Q1.2 -20.0 5.95 -10.1 L6.0 -9.95 7.2 -6.5 7.4 -5.75 Q8.45 -4.4 8.2 -2.6 8.1 -2.15 8.3 -1.65 L8.45 -1.25 8.55 -0.85 9.0 0.65 Q9.55 2.95 9.7 5.3 L9.6 7.3 Q12.25 26.0 8.65 44.3 L8.15 46.7 7.35 47.05 7.25 48.0 5.15 49.0 7.95 49.85" fill="#d79e4a" fill-rule="evenodd" stroke="none"/>
    </g>
    <g id="shape2" transform="matrix(1.0, 0.0, 0.0, 1.0, 108.75, 32.0)">
      <path d="M-83.2 -25.65 Q-82.0 -24.3 -81.35 -22.55 -79.1 -17.0 -81.9 -11.75 -84.65 -6.65 -89.9 -6.15 -93.15 -5.85 -96.15 -8.2 -97.9 -10.55 -98.55 -13.4 -98.85 -14.75 -98.65 -16.2 -97.0 -23.55 -91.45 -20.3 -87.85 -18.25 -90.65 -15.5 L-90.55 -15.0 -90.05 -14.7 Q-87.45 -17.25 -89.5 -20.05 -90.8 -21.9 -92.95 -22.1 -98.25 -22.55 -99.6 -16.6 -100.75 -11.35 -96.2 -7.3 -93.4 -4.7 -90.2 -5.15 -87.95 -5.1 -85.9 -6.1 -81.1 -8.45 -79.6 -14.25 -78.1 -20.1 -81.45 -24.85 -83.3 -27.65 -85.8 -29.55 -97.7 -35.95 -106.2 -25.5 -107.75 -23.6 -108.3 -21.0 -110.25 -11.9 -103.9 -5.55 -100.85 -2.5 -97.35 -0.25 -88.5 5.45 -79.15 5.5 L-73.95 4.8 Q-73.15 4.65 -71.05 4.8 -69.5 3.9 -71.05 3.05 L-78.75 4.3 Q-82.25 4.25 -87.05 3.05 -91.9 1.85 -96.0 -0.7 -100.1 -3.2 -102.5 -5.35 -108.55 -10.8 -107.35 -19.25 -106.0 -28.4 -97.8 -30.55 -91.25 -32.25 -85.25 -27.55 L-83.2 -25.65" fill="#000000" fill-rule="evenodd" stroke="none"/>
      <path d="M-68.65 4.5 Q-67.9 6.05 -67.25 11.15 -66.6 16.25 -68.6 20.65 -70.5 24.8 -72.05 26.6 L-73.1 27.45 Q-70.45 28.0 -70.2 28.7 L-69.85 29.65 Q-71.4 30.7 -73.25 30.75 L-73.4 30.8 -73.4 30.9 -73.3 31.15 -73.25 31.2 Q-70.85 31.6 -68.8 30.25 -68.35 28.45 -69.7 27.75 L-71.1 27.0 -69.0 24.55 Q-67.2 22.45 -66.2 16.55 -65.15 10.7 -66.6 6.55 -68.05 2.4 -68.95 2.1 -69.4 2.95 -68.65 4.5 M-64.1 1.45 L-64.25 2.2 Q-63.8 3.65 -62.35 5.0 -58.55 9.45 -56.65 14.7 -54.1 21.8 -59.65 27.2 L-59.35 27.2 -59.35 27.25 -59.4 27.35 -59.3 27.6 -59.2 27.65 Q-57.6 28.15 -57.05 29.45 L-57.0 29.75 -57.05 29.85 -57.3 30.1 -57.35 30.15 -62.2 30.55 -62.3 30.7 -62.25 31.0 Q-58.5 32.25 -55.95 30.15 -55.85 28.4 -57.7 27.25 -57.85 27.15 -58.05 27.1 -55.7 25.15 -55.0 22.1 -54.05 18.1 -55.85 12.7 -57.5 7.55 -63.8 1.35 L-63.95 1.4 -64.1 1.45" fill="#000000" fill-rule="evenodd" stroke="none"/>
      <path d="M-74.1 20.7 L-74.35 20.35 -74.7 20.1 -75.15 20.25 Q-77.1 15.5 -76.3 9.95 -75.35 3.7 -73.45 -2.4 -71.25 -9.35 -66.75 -14.35 -66.75 -14.75 -67.15 -14.85 L-67.35 -14.95 Q-73.0 -9.6 -75.2 -1.4 -76.75 4.4 -77.45 10.25 -78.1 15.6 -76.6 20.35 L-76.3 20.9 Q-77.55 21.95 -77.2 24.15 L-77.1 24.35 Q-76.65 24.65 -76.3 24.15 L-76.25 23.95 -76.25 23.55 -76.25 23.0 -75.8 22.2 -75.45 21.7 -74.25 20.95 -74.1 20.7" fill="#000000" fill-rule="evenodd" stroke="none"/>
    </g>
    <g id="sprite0" transform="matrix(1.0, 0.0, 0.0, 1.0, 13.05, 13.95)">
      <use ffdec:characterId="308" height="13.95" transform="matrix(1.0, 0.0, 0.0, 1.0, -13.05, -13.95)" width="23.55" xlink:href="#shape3"/>
      <use ffdec:characterId="11" height="9.05" transform="matrix(-0.1959, -0.024, -0.024, 0.1959, 2.9454, -3.2007)" width="34.15" xlink:href="#sprite1"/>
      <use ffdec:characterId="17" height="21.6" transform="matrix(-0.2278, -0.0279, -0.0279, 0.2278, 4.9965, -11.1461)" width="39.4" xlink:href="#sprite2"/>
    </g>
    <g id="shape3" transform="matrix(1.0, 0.0, 0.0, 1.0, 13.05, 13.95)">
      <path d="M3.5 -13.35 L3.4 -13.4 3.25 -13.5 Q-0.4 -14.55 -3.75 -13.05 L-6.55 -11.15 -6.8 -11.05 -7.0 -10.9 -7.0 -10.85 -7.4 -11.35 -8.75 -12.9 -8.8 -12.95 -8.9 -13.0 Q-10.75 -13.6 -12.1 -12.55 L-12.25 -12.4 -12.35 -12.2 -12.4 -12.1 -12.45 -12.0 -12.45 -11.95 -12.5 -11.9 -12.55 -11.85 -12.7 -11.4 -12.75 -11.25 -12.8 -11.1 -12.85 -10.9 -12.8 -10.9 -12.9 -10.6 -13.05 -9.1 -12.95 -8.65 -12.95 -8.6 -12.75 -7.9 -12.6 -7.85 -12.6 -7.7 -12.5 -7.65 -12.3 -7.5 -12.2 -7.4 Q-10.55 -6.75 -8.75 -7.35 L-8.25 -7.5 -8.1 -7.65 -8.0 -7.7 -8.0 -7.3 Q-8.05 -4.9 -6.4 -2.9 L-6.3 -2.65 Q-5.1 -1.15 -3.3 -0.45 L-3.05 -0.35 0.45 0.0 1.15 0.0 Q3.8 -0.85 5.75 -2.75 6.65 -3.65 6.85 -4.75 L7.2 -4.75 7.25 -4.95 6.9 -5.1 6.85 -6.5 6.9 -6.6 6.9 -6.65 7.2 -6.55 8.4 -6.45 8.55 -6.5 9.1 -6.65 9.95 -7.35 9.95 -7.4 10.15 -7.5 10.15 -7.55 10.35 -8.05 10.4 -8.35 10.5 -8.65 10.5 -9.1 10.4 -9.25 10.35 -9.4 10.35 -9.5 10.05 -10.0 9.55 -10.35 9.5 -10.5 9.3 -10.55 8.75 -10.75 8.6 -10.8 Q6.9 -10.7 5.6 -9.45 4.4 -11.7 2.4 -13.05 L3.35 -13.1 3.5 -13.2 3.5 -13.35 M6.15 -8.35 L6.0 -8.8 5.95 -8.9 6.0 -9.1 6.1 -9.15 6.2 -9.25 Q6.85 -9.8 7.6 -10.0 L7.7 -10.1 8.1 -10.15 8.95 -10.05 9.0 -10.0 9.75 -9.2 9.75 -9.1 9.95 -8.85 10.0 -8.8 10.0 -8.65 9.9 -8.35 9.9 -8.05 9.8 -7.9 9.0 -7.25 9.0 -7.15 8.4 -7.1 8.3 -7.1 6.75 -7.3 6.5 -7.8 6.15 -8.35 M5.7 -8.15 L6.4 -6.95 6.4 -6.6 6.35 -5.5 6.35 -5.35 5.1 -5.7 2.2 -6.4 1.8 -6.5 -0.45 -6.8 -0.55 -6.85 -0.6 -6.85 -1.15 -6.85 -1.2 -6.85 -1.9 -6.8 -2.0 -6.8 -2.1 -6.8 -2.45 -6.8 -2.45 -6.75 -2.45 -6.8 -3.3 -6.7 -3.4 -6.65 -4.4 -6.6 Q-6.15 -6.55 -7.05 -5.3 L-7.0 -5.25 -6.85 -5.2 -6.55 -5.1 -5.85 -5.6 -2.25 -6.15 -2.2 -6.2 -1.2 -6.3 -0.9 -6.3 -0.45 -6.25 0.65 -6.1 1.65 -5.95 2.3 -5.8 6.35 -4.9 6.25 -4.3 Q5.85 -3.3 5.0 -2.7 L4.15 -2.0 4.05 -1.9 4.0 -1.85 3.25 -1.45 3.2 -1.4 3.1 -1.25 1.05 -0.55 1.0 -0.5 -2.9 -0.85 -5.15 -2.1 Q-5.75 -2.4 -5.9 -3.0 L-6.0 -3.25 -6.0 -3.3 -7.0 -4.85 -7.1 -5.05 -7.55 -7.9 -7.55 -7.95 -7.55 -8.0 -7.55 -8.1 -7.45 -8.4 -7.05 -9.7 -7.0 -9.7 -7.0 -9.9 -6.85 -10.15 -6.0 -10.95 -5.95 -11.05 -3.65 -12.6 -3.6 -12.7 -3.05 -12.85 1.35 -13.15 Q3.15 -12.1 4.35 -10.5 L5.4 -8.7 5.65 -8.25 5.7 -8.15 M-8.15 -8.45 L-8.35 -8.25 -8.45 -8.1 -9.0 -8.0 -9.05 -8.0 -9.75 -7.7 -10.2 -7.6 -11.25 -7.7 -12.0 -8.05 -12.1 -8.1 -12.35 -8.4 -12.45 -8.45 -12.45 -8.55 -12.55 -8.95 -12.55 -9.0 -12.3 -10.8 -12.3 -10.85 -12.2 -11.0 -12.15 -11.2 -12.0 -11.35 -11.85 -11.5 -11.85 -11.6 -11.45 -12.15 -11.3 -12.3 -11.25 -12.35 -11.2 -12.4 -11.15 -12.4 -11.15 -12.45 -11.05 -12.45 -10.75 -12.55 -9.0 -12.45 -8.45 -11.85 Q-7.75 -11.35 -7.45 -10.45 L-7.35 -10.4 -7.35 -10.35 -7.4 -10.15 -7.55 -9.95 -7.85 -9.05 -8.1 -8.5 -8.15 -8.45 M1.45 -5.4 L1.25 -5.65 1.2 -5.65 Q0.95 -5.75 0.9 -5.45 L0.95 -5.2 1.4 -5.25 1.45 -5.4 M-0.4 -5.8 L-0.5 -5.65 -0.2 -5.15 0.1 -5.25 0.1 -5.35 0.2 -5.4 0.15 -5.75 0.0 -5.85 -0.2 -5.9 -0.4 -5.8" fill="#000000" fill-rule="evenodd" stroke="none"/>
      <path d="M6.5 -7.8 L6.75 -7.3 8.3 -7.1 8.4 -7.1 9.0 -7.15 9.0 -7.25 9.8 -7.9 9.9 -8.05 9.9 -8.35 10.0 -8.65 10.0 -8.8 9.95 -8.85 9.75 -9.1 9.75 -9.2 9.0 -10.0 8.95 -10.05 8.1 -10.15 7.7 -10.1 7.6 -10.0 Q6.85 -9.8 6.2 -9.25 L6.1 -9.15 6.0 -9.1 5.95 -8.9 6.0 -8.8 6.15 -8.35 6.55 -8.8 Q6.9 -9.2 7.4 -9.35 8.2 -9.45 8.75 -8.85 L8.75 -8.8 8.85 -8.6 8.8 -8.5 8.85 -8.5 8.85 -8.35 8.85 -8.3 8.7 -7.85 8.3 -7.6 7.1 -7.5 6.65 -7.75 6.5 -7.8 M5.7 -8.15 L5.6 -8.25 5.65 -8.25 5.4 -8.7 4.35 -10.5 Q3.15 -12.1 1.35 -13.15 L-3.05 -12.85 -3.6 -12.7 -3.65 -12.6 -5.95 -11.05 -6.0 -10.95 -6.85 -10.15 -7.0 -9.9 -7.0 -9.7 -7.05 -9.7 -7.45 -8.4 -7.55 -8.1 -7.55 -8.0 -7.55 -7.95 -7.55 -7.9 -7.1 -5.05 -7.0 -4.85 -7.0 -4.95 -6.85 -5.2 -7.0 -5.25 -7.05 -5.3 Q-6.15 -6.55 -4.4 -6.6 L-3.4 -6.65 -3.3 -6.7 -2.45 -6.8 -2.45 -6.75 -2.45 -6.8 -2.1 -6.8 -2.0 -6.8 -1.9 -6.8 -1.2 -6.85 -1.15 -6.85 -0.6 -6.85 -0.55 -6.85 -0.45 -6.8 1.8 -6.5 2.2 -6.4 5.1 -5.7 6.35 -5.35 6.35 -5.5 6.4 -6.6 6.4 -6.95 5.7 -8.15 M-7.45 -10.45 Q-7.75 -11.35 -8.45 -11.85 L-9.0 -12.45 -10.75 -12.55 -11.05 -12.45 -11.15 -12.45 -11.15 -12.4 -11.2 -12.4 -11.25 -12.35 -11.3 -12.3 -11.45 -12.15 -11.85 -11.6 -11.85 -11.5 -12.0 -11.35 -12.15 -11.2 -12.2 -11.0 -12.3 -10.85 -12.3 -10.8 -12.55 -9.0 -12.55 -8.95 -12.45 -8.55 -12.45 -8.45 -12.35 -8.4 -12.1 -8.1 -12.0 -8.05 -11.25 -7.7 -10.2 -7.6 -9.75 -7.7 -9.05 -8.0 -9.0 -8.0 -8.45 -8.1 -8.35 -8.25 -8.15 -8.45 Q-9.1 -8.3 -9.95 -8.9 L-10.1 -8.95 -10.35 -9.25 -10.5 -9.45 -10.6 -9.6 -10.65 -9.75 -10.7 -9.85 -10.6 -10.3 -10.5 -10.45 -10.45 -10.5 -10.2 -10.65 -10.1 -10.75 -10.0 -10.8 -9.6 -11.05 Q-8.75 -11.15 -8.1 -10.55 L-8.05 -10.5 -8.0 -10.45 -8.0 -10.4 -7.7 -10.15 -7.65 -10.1 -7.6 -10.0 -7.6 -9.95 -7.55 -9.95 -7.4 -10.15 -7.35 -10.35 -7.35 -10.4 -7.45 -10.45 M-11.05 -10.6 L-11.1 -10.5 -11.15 -10.45 -11.2 -10.35 -11.05 -10.6" fill="#95632d" fill-rule="evenodd" stroke="none"/>
      <path d="M6.5 -7.8 L6.65 -7.75 7.1 -7.5 8.3 -7.6 8.7 -7.85 8.85 -8.3 8.85 -8.35 8.85 -8.5 8.8 -8.5 8.85 -8.6 8.75 -8.8 8.75 -8.85 Q8.2 -9.45 7.4 -9.35 6.9 -9.2 6.55 -8.8 L6.15 -8.35 6.5 -7.8 M5.65 -8.25 L5.6 -8.25 5.7 -8.15 5.65 -8.25 M-6.85 -5.2 L-7.0 -4.95 -7.0 -4.85 -6.0 -3.3 -6.0 -3.25 -5.9 -3.0 Q-5.75 -2.4 -5.15 -2.1 L-2.9 -0.85 1.0 -0.5 1.05 -0.55 3.1 -1.25 3.2 -1.4 3.25 -1.45 4.0 -1.85 4.05 -1.9 4.15 -2.0 5.0 -2.7 Q5.85 -3.3 6.25 -4.3 L6.35 -4.9 2.3 -5.8 1.65 -5.95 0.65 -6.1 -0.45 -6.25 -0.9 -6.3 -1.2 -6.3 -2.2 -6.2 -2.25 -6.15 -5.85 -5.6 -6.55 -5.1 -6.85 -5.2 M-7.55 -9.95 L-7.6 -9.95 -7.6 -10.0 -7.65 -10.1 -7.7 -10.15 -8.0 -10.4 -8.0 -10.45 -8.05 -10.5 -8.1 -10.55 Q-8.75 -11.15 -9.6 -11.05 L-10.0 -10.8 -10.1 -10.75 -10.2 -10.65 -10.45 -10.5 -10.5 -10.45 -10.6 -10.3 -10.7 -9.85 -10.65 -9.75 -10.6 -9.6 -10.5 -9.45 -10.35 -9.25 -10.1 -8.95 -9.95 -8.9 Q-9.1 -8.3 -8.15 -8.45 L-8.1 -8.5 -7.85 -9.05 -7.55 -9.95 M-11.05 -10.6 L-11.2 -10.35 -11.15 -10.45 -11.1 -10.5 -11.05 -10.6 M-0.4 -5.8 L-0.2 -5.9 0.0 -5.85 0.15 -5.75 0.2 -5.4 0.1 -5.35 0.1 -5.25 -0.2 -5.15 -0.5 -5.65 -0.4 -5.8 M1.45 -5.4 L1.4 -5.25 0.95 -5.2 0.9 -5.45 Q0.95 -5.75 1.2 -5.65 L1.25 -5.65 1.45 -5.4" fill="#d79e4a" fill-rule="evenodd" stroke="none"/>
    </g>
    <g id="sprite1" transform="matrix(1.0, 0.0, 0.0, 1.0, 16.2, 5.05)">
      <use ffdec:characterId="5" height="4.5" transform="matrix(1.0, 0.0, 0.0, 1.0, -7.65, -2.25)" width="15.3" xlink:href="#shape4"/>
    </g>
    <g id="shape4" transform="matrix(1.0, 0.0, 0.0, 1.0, 7.65, 2.25)">
      <path d="M7.6 -0.15 L7.6 0.5 Q0.1 3.55 -7.65 1.25 L-7.5 0.6 -6.9 -0.25 -6.15 -1.0 Q-1.9 -0.55 0.6 -2.25 L3.85 -1.55 7.1 -1.0 7.6 -0.15" fill="#000000" fill-rule="evenodd" stroke="none"/>
    </g>
    <g id="sprite2" transform="matrix(1.0, 0.0, 0.0, 1.0, 23.5, 12.3)">
      <use ffdec:characterId="12" height="17.25" transform="matrix(1.0, 0.0, 0.0, 1.0, -21.25, -10.1)" width="34.95" xlink:href="#shape5"/>
      <use ffdec:characterId="14" height="7.8" transform="matrix(1.0, 0.0, 0.0, 1.0, -16.85, -2.6)" width="25.55" xlink:href="#sprite3"/>
      <use ffdec:characterId="15" height="21.6" transform="matrix(1.0, 0.0, 0.0, 1.0, -23.5, -12.3)" width="39.4" xlink:href="#shape7"/>
    </g>
    <g id="shape5" transform="matrix(1.0, 0.0, 0.0, 1.0, 21.25, 10.1)">
      <path d="M5.7 -3.5 L6.05 -3.65 Q8.4 -4.15 10.45 -3.25 14.2 -1.65 13.65 2.6 13.55 3.45 13.05 4.05 L13.0 4.05 Q12.15 5.5 9.65 5.75 4.25 6.25 1.75 1.95 L1.6 1.85 1.5 1.45 1.45 1.4 1.4 0.8 1.4 -0.35 Q1.6 -1.85 3.15 -2.45 L5.7 -3.5" fill="#ffffff" fill-rule="evenodd" stroke="none"/>
      <path d="M-20.35 -6.45 L-19.75 -7.25 Q-16.65 -9.65 -12.7 -9.9 -7.05 -10.85 -3.5 -6.9 -0.55 -3.6 -1.1 0.95 -1.35 3.2 -3.25 4.65 -5.15 6.2 -7.5 6.7 L-12.95 7.15 -14.6 6.7 Q-15.35 6.3 -16.15 6.0 -17.95 5.4 -18.85 3.85 -20.95 2.45 -21.2 -0.1 -21.5 -3.5 -20.35 -6.45" fill="#ffffff" fill-rule="evenodd" stroke="none"/>
    </g>
    <g id="sprite3" transform="matrix(1.0, 0.0, 0.0, 1.0, 2.75, 0.0)">
      <use ffdec:characterId="13" height="5.35" transform="matrix(1.0, 0.0, 0.0, 1.0, 0.0, 0.0)" width="22.8" xlink:href="#shape6"/>
    </g>
    <g id="shape6" transform="matrix(1.0, 0.0, 0.0, 1.0, 2.75, -2.45)">
      <path d="M20.05 6.1 Q20.1 6.9 19.55 7.35 L18.6 7.8 18.5 7.8 17.9 7.65 17.35 7.5 16.75 6.95 Q16.25 6.45 16.35 5.8 L16.4 5.75 16.5 5.45 17.2 4.75 17.55 4.7 Q18.9 4.3 19.7 5.2 20.05 5.55 20.05 6.1" fill="#000000" fill-rule="evenodd" stroke="none"/>
      <path d="M1.1 3.95 Q1.3 5.05 0.7 5.9 0.5 6.25 0.0 6.3 -2.4 6.65 -2.7 4.4 -2.9 3.0 -1.65 2.55 -0.55 2.3 0.25 2.8 0.9 3.25 1.1 3.95" fill="#000000" fill-rule="evenodd" stroke="none"/>
    </g>
    <g id="shape7" transform="matrix(1.0, 0.0, 0.0, 1.0, 23.5, 12.3)">
      <path d="M1.4 -3.5 L1.95 -3.95 Q3.6 -5.2 5.4 -5.65 L5.45 -5.75 10.95 -5.5 11.45 -4.7 11.5 -4.6 11.9 -4.5 11.95 -4.5 12.1 -4.4 12.9 -3.85 Q15.7 -1.75 15.9 1.25 L15.65 2.75 15.55 3.1 12.35 6.85 Q11.8 6.95 11.35 7.3 L8.15 7.3 3.75 6.35 2.35 5.85 2.05 5.65 -0.15 2.7 -0.2 2.05 -0.25 0.25 -0.1 -1.4 -0.05 -1.75 1.1 -3.5 1.4 -3.5 M3.15 -2.45 Q1.6 -1.85 1.4 -0.35 L1.4 0.8 1.45 1.4 1.5 1.45 1.6 1.85 1.75 1.95 Q4.25 6.25 9.65 5.75 12.15 5.5 13.0 4.05 L13.05 4.05 Q13.55 3.45 13.65 2.6 14.2 -1.65 10.45 -3.25 8.4 -4.15 6.05 -3.65 L5.7 -3.5 3.15 -2.45" fill="#000000" fill-rule="evenodd" stroke="none"/>
      <path d="M0.85 -1.4 L0.85 1.3 0.9 1.5 Q0.15 3.1 -0.35 4.8 L-1.85 6.1 -2.9 7.0 Q-5.4 8.6 -8.3 9.25 L-8.35 9.3 -17.8 8.0 -18.55 7.25 -21.55 4.25 -22.3 3.5 -22.3 2.95 Q-23.65 1.2 -23.5 -1.2 L-23.15 -4.4 -22.75 -6.1 -22.3 -6.6 -22.3 -7.0 -21.2 -8.55 -19.65 -9.75 Q-16.8 -11.35 -14.05 -12.25 -4.75 -13.0 -0.3 -5.45 -0.2 -4.75 0.35 -4.0 L0.85 -1.4 M-20.35 -6.45 Q-21.5 -3.5 -21.2 -0.1 -20.95 2.45 -18.85 3.85 -17.95 5.4 -16.15 6.0 -15.35 6.3 -14.6 6.7 L-12.95 7.15 -7.5 6.7 Q-5.15 6.2 -3.25 4.65 -1.35 3.2 -1.1 0.95 -0.55 -3.6 -3.5 -6.9 -7.05 -10.85 -12.7 -9.9 -16.65 -9.65 -19.75 -7.25 L-20.35 -6.45" fill="#000000" fill-rule="evenodd" stroke="none"/>
    </g>
    <g id="shape8" transform="matrix(1.0, 0.0, 0.0, 1.0, 38.0, -4.15)">
      <path d="M-27.45 5.5 L-27.65 5.6 -27.85 5.7 Q-31.2 7.4 -33.2 9.7 L-33.35 9.75 -33.95 10.35 -34.0 10.7 Q-35.55 12.75 -36.1 15.3 L-36.45 17.85 -33.45 16.95 -31.05 15.45 -29.95 14.3 Q-29.4 13.8 -29.3 13.15 L-29.2 13.35 -29.1 13.2 -28.1 11.35 Q-27.6 10.1 -27.4 8.8 L-27.25 6.55 -27.35 5.6 -27.45 5.5 M-27.8 4.4 L-27.75 4.35 -27.45 4.25 -27.2 4.15 Q-26.85 5.45 -26.9 6.9 L-27.2 9.2 Q-27.6 11.0 -28.55 12.55 -29.5 14.15 -30.9 15.5 -32.15 16.7 -33.85 17.5 -35.65 18.3 -37.65 18.1 L-38.0 18.15 Q-37.9 15.2 -36.05 11.95 -33.1 6.9 -27.8 4.4" fill="#000000" fill-rule="evenodd" stroke="none"/>
    </g>
    <g id="shape9" transform="matrix(1.0, 0.0, 0.0, 1.0, 49.2, -3.2)">
      <path d="M-47.05 21.5 L-46.75 21.45 -45.65 21.6 -44.9 22.15 -44.3 22.85 Q-43.35 24.2 -43.95 25.55 -45.7 26.95 -46.95 25.85 -48.85 23.45 -47.05 21.5" fill="#ff0000" fill-rule="evenodd" stroke="none"/>
      <path d="M-46.75 21.45 Q-46.65 20.95 -45.25 20.85 -42.1 22.25 -42.8 26.15 L-43.35 26.7 Q-48.3 28.4 -48.85 25.6 L-49.2 23.75 Q-49.05 21.25 -47.05 21.5 -48.85 23.45 -46.95 25.85 -45.7 26.95 -43.95 25.55 -43.35 24.2 -44.3 22.85 L-44.9 22.15 -45.65 21.6 -46.75 21.45" fill="#000000" fill-rule="evenodd" stroke="none"/>
      <path d="M-43.35 24.15 L-36.15 24.2 Q-35.7 24.2 -35.55 23.7 L-35.6 23.55 Q-35.6 23.05 -36.15 23.05 L-36.15 23.0 -43.4 23.35 Q-43.75 23.35 -43.7 23.65 L-43.65 23.8 -43.35 24.15" fill="#000000" fill-rule="evenodd" stroke="none"/>
      <path d="M-46.8 24.65 Q-47.25 24.95 -47.6 24.5 -48.6 23.2 -47.0 22.75 -45.1 23.55 -46.8 24.65" fill="#ffffff" fill-rule="evenodd" stroke="none"/>
      <path d="M-7.5 13.8 Q-9.1 10.3 -12.55 7.75 -18.85 3.25 -26.25 4.8 L-26.25 5.9 Q-26.0 9.6 -27.6 12.85 -28.4 14.35 -29.7 15.35 -32.85 17.65 -36.4 18.45 -36.4 22.5 -33.7 25.0 -30.0 28.4 -23.9 29.3 -16.6 30.45 -10.5 26.7 -9.0 25.75 -8.0 24.35 -4.8 19.6 -7.5 13.8 M-12.9 6.1 Q-5.5 10.1 -5.05 18.4 -4.65 25.55 -11.4 28.75 -18.05 31.95 -25.5 30.4 -30.65 29.4 -34.45 25.65 -37.65 22.45 -37.9 18.75 L-37.95 18.75 -37.95 17.85 -37.9 17.85 -36.6 17.7 -33.75 16.85 Q-32.0 16.15 -30.7 15.0 -29.4 13.85 -28.45 12.25 -27.5 10.7 -27.25 9.2 -27.0 7.7 -27.05 6.45 -27.1 5.1 -27.7 4.1 L-25.4 3.2 -24.95 3.2 -25.05 3.3 Q-18.6 3.0 -12.9 6.1" fill="#000000" fill-rule="evenodd" stroke="none"/>
      <path d="M-7.5 13.8 Q-4.8 19.6 -8.0 24.35 -9.0 25.75 -10.5 26.7 -16.6 30.45 -23.9 29.3 -30.0 28.4 -33.7 25.0 -36.4 22.5 -36.4 18.45 -32.85 17.65 -29.7 15.35 -28.4 14.35 -27.6 12.85 -26.0 9.6 -26.25 5.9 L-26.25 4.8 Q-18.85 3.25 -12.55 7.75 -9.1 10.3 -7.5 13.8" fill="url(#gradient0)" fill-rule="evenodd" stroke="none"/>
    </g>
    <radialGradient cx="0" cy="0" gradientTransform="matrix(0.0385, 0.0, 0.0, 0.0276, -15.35, 8.15)" gradientUnits="userSpaceOnUse" id="gradient0" r="819.2" spreadMethod="pad">
      <stop offset="0.0" stop-color="#febf74"/>
      <stop offset="0.4980392156862745" stop-color="#ff9900"/>
      <stop offset="1.0" stop-color="#ff6600"/>
    </radialGradient>
    <g id="shape10" transform="matrix(1.0, 0.0, 0.0, 1.0, 36.45, -5.5)">
      <path d="M-27.85 5.7 L-27.65 5.6 -27.45 5.5 -27.35 5.6 -27.35 5.65 -27.85 5.7 M-33.9 10.55 L-34.15 10.75 -33.95 10.45 -33.95 10.5 -33.9 10.55" fill="#e5e5e5" fill-rule="evenodd" stroke="none"/>
      <path d="M-27.85 5.7 L-27.35 5.65 -27.25 6.55 -27.4 8.8 Q-27.6 10.1 -28.1 11.35 L-29.0 13.05 -29.7 12.95 -30.85 12.15 -33.3 10.35 -33.45 10.2 Q-33.25 9.9 -33.4 9.85 L-32.65 9.1 Q-30.7 7.15 -27.85 5.7 M-29.85 14.2 L-30.7 15.0 Q-32.0 16.15 -33.75 16.85 L-36.45 17.65 -36.1 15.3 Q-35.6 13.0 -34.15 10.75 L-33.9 10.55 Q-32.4 12.5 -30.45 13.55 -29.3 14.0 -29.85 14.2" fill="#ffcc00" fill-rule="evenodd" stroke="none"/>
      <path d="M-29.0 13.05 Q-28.85 13.35 -29.05 13.9 -29.25 14.45 -29.85 14.2 -29.3 14.0 -30.45 13.55 -32.4 12.5 -33.9 10.55 L-33.95 10.5 -33.95 10.45 -34.15 10.75 -34.2 10.75 Q-34.65 10.4 -34.5 9.85 -34.4 9.45 -34.0 9.4 -33.45 9.45 -33.4 9.85 -33.25 9.9 -33.45 10.2 L-33.3 10.35 -30.85 12.15 -29.7 12.95 -29.0 13.05" fill="#000000" fill-rule="evenodd" stroke="none"/>
    </g>
    <g id="sprite4" transform="matrix(1.0, 0.0, 0.0, 1.0, 0.0, 0.0)">
      <use ffdec:characterId="42" height="40.0" transform="matrix(0.4, 0.0, 0.0, 0.5, 0.0, 0.0)" width="50.0" xlink:href="#shape11"/>
    </g>
    <g id="shape11" transform="matrix(1.0, 0.0, 0.0, 1.0, 0.0, 0.0)">
      <path d="M50.0 0.0 L50.0 40.0 0.0 40.0 0.0 0.0 50.0 0.0" fill="#ffffff" fill-opacity="0.0" fill-rule="evenodd" stroke="none"/>
    </g>
    <g id="sprite5" transform="matrix(1.0, 0.0, 0.0, 1.0, -0.05, 0.0)">
      <use ffdec:characterId="304" height="20.0" transform="matrix(1.0, 0.0, 0.0, 1.0, 0.05, 0.0)" width="20.0" xlink:href="#shape12"/>
    </g>
    <g id="shape12" transform="matrix(1.0, 0.0, 0.0, 1.0, -0.05, 0.0)">
      <path d="M10.05 20.0 Q5.9 20.0 2.95 17.05 0.0 14.1 0.05 10.0 0.0 5.85 2.95 2.9 5.9 0.0 10.05 0.0 14.15 0.0 17.1 2.9 20.05 5.85 20.05 10.0 20.05 14.1 17.1 17.05 14.15 20.0 10.05 20.0" fill="#ffffff" fill-opacity="0.0" fill-rule="evenodd" stroke="none"/>
    </g>
  </defs>
</svg>
