<?xml version="1.0" encoding="UTF-8" standalone="no"?>
<svg xmlns:ffdec="https://www.free-decompiler.com/flash" xmlns:xlink="http://www.w3.org/1999/xlink" ffdec:objectType="frame" height="110.8px" width="126.55px" xmlns="http://www.w3.org/2000/svg">
  <g transform="matrix(1.0, 0.0, 0.0, 1.0, 125.65, 69.65)">
    <use ffdec:characterId="310" height="0.25" transform="matrix(1.0, 0.0, 0.0, 1.0, -29.3, 13.1)" width="0.2" xlink:href="#shape0"/>
    <use ffdec:characterId="298" height="107.25" transform="matrix(-0.2131, 0.0209, 0.0209, 0.2131, -63.6833, -27.2793)" width="48.75" xlink:href="#shape1"/>
    <use ffdec:characterId="311" height="73.4" transform="matrix(1.0, 0.0, 0.0, 1.0, -121.25, -41.95)" width="72.55" xlink:href="#shape2"/>
    <use ffdec:characterId="11" height="9.05" transform="matrix(-0.1973, -0.0146, -0.0146, 0.1973, -63.3802, -31.3603)" width="34.15" xlink:href="#sprite0"/>
    <use ffdec:characterId="17" height="21.6" transform="matrix(-0.2294, -0.017, -0.017, 0.2294, -61.7009, -39.3731)" width="39.4" xlink:href="#sprite1"/>
    <use ffdec:characterId="300" height="14.0" transform="matrix(1.0, 0.0, 0.0, 1.0, -38.0, 4.15)" width="11.1" xlink:href="#shape7"/>
    <use ffdec:characterId="312" height="6.5" transform="matrix(0.75, 0.0, 0.0, 1.0, -30.9875, 20.85)" width="13.65" xlink:href="#shape8"/>
    <use ffdec:characterId="313" height="27.7" transform="matrix(1.0, 0.0, 0.0, 1.0, -38.0, 3.2)" width="32.95" xlink:href="#shape9"/>
    <use ffdec:characterId="320" height="12.1" transform="matrix(1.0, 0.0, 0.0, 1.0, -36.4, 5.45)" width="9.1" xlink:href="#shape10"/>
    <use ffdec:characterId="321" height="10.25" transform="matrix(1.1798, 0.0, 0.0, 1.1798, -43.9571, 1.6249)" width="9.8" xlink:href="#shape11"/>
    <clipPath id="clipPath0">
      <path d="M -30.2 1.85 L -31.05 2.9 L -23.6 8.8 L -22.95 8 L -30.2 1.85 Z"/>
    </clipPath>
    <g clip-path="url(#clipPath0)">
      <use ffdec:characterId="315" height="12.45" transform="matrix(1.0, 0.0, 0.0, 1.0, -36.45, 5.2)" width="9.25" xlink:href="#shape12"/>
    </g>
    <clipPath id="clipPath1">
      <path d="M -30.2 0.85 L -31.05 1.9 L -23.6 7.8 L -22.95 7 L -30.2 0.85 Z"/>
    </clipPath>
    <g clip-path="url(#clipPath1)">
      <use ffdec:characterId="317" height="12.45" transform="matrix(1.0, 0.0, 0.0, 1.0, -36.45, 5.2)" width="9.25" xlink:href="#shape13"/>
    </g>
    <use ffdec:characterId="303" height="20.0" id="mcHitTestMonkey" transform="matrix(1.956, 0.0, 0.0, 3.7691, -86.15, -42.65)" width="20.0" xlink:href="#sprite3"/>
    <use ffdec:characterId="305" height="20.0" id="mcHitTestCannon" transform="matrix(1.75, 0.0, 0.0, 1.75, -38.5125, 0.25)" width="20.0" xlink:href="#sprite4"/>
  </g>
  <defs>
    <g id="shape0" transform="matrix(1.0, 0.0, 0.0, 1.0, 29.3, -13.1)">
      <path d="M-29.3 13.1 L-29.1 13.2 -29.2 13.35 -29.3 13.1" fill="#ff9900" fill-rule="evenodd" stroke="none"/>
    </g>
    <g id="shape1" transform="matrix(1.0, 0.0, 0.0, 1.0, 24.35, 53.6)">
      <path d="M9.5 -7.25 Q8.8 -9.65 7.5 -11.8 L5.6 -14.5 5.5 -14.65 Q0.6 -20.5 -9.25 -25.0 -12.85 -26.65 -16.7 -27.7 L-17.45 -27.75 Q-20.25 -26.25 -20.95 -23.8 -21.3 -22.75 -21.95 -21.8 -21.0 -35.4 -14.1 -47.9 L-12.6 -48.5 -12.45 -48.5 -11.6 -48.7 -11.55 -48.9 -8.55 -49.65 -8.25 -49.9 -8.05 -50.15 -6.6 -50.55 Q-5.05 -51.1 -3.5 -50.55 L-2.9 -50.15 Q-1.45 -49.4 0.1 -48.8 3.0 -47.8 5.45 -46.05 L5.95 -45.15 7.95 -44.05 Q8.85 -42.6 10.25 -41.55 L11.45 -40.45 11.5 -40.1 11.55 -39.85 11.65 -39.5 Q13.3 -38.55 14.1 -36.7 14.45 -35.85 15.1 -35.15 L15.15 -34.85 15.2 -34.55 15.3 -34.25 15.55 -33.9 16.2 -32.9 16.85 -30.8 17.2 -29.45 17.2 -29.05 17.2 -28.75 17.4 -28.45 17.5 -28.3 17.6 -27.85 17.6 -27.25 17.6 -26.65 17.6 -26.35 17.8 -26.05 18.0 -25.7 18.1 -25.15 18.4 -23.3 18.45 -23.0 18.75 -22.7 18.8 -22.65 Q21.45 -9.9 21.95 2.75 22.55 16.3 22.0 29.75 21.6 40.8 18.15 51.5 L18.2 51.65 17.4 51.85 Q14.4 52.25 11.0 51.9 L10.1 52.05 7.15 51.5 Q7.8 50.95 7.8 50.05 L7.95 49.85 8.95 50.2 Q15.5 35.65 13.25 19.85 L12.7 19.4 12.65 18.6 12.65 18.1 13.0 14.0 12.3 13.4 Q12.65 10.6 12.45 7.85 L12.6 7.85 12.7 8.0 12.5 7.25 12.45 7.05 Q11.6 3.8 11.4 0.55 L11.2 -0.45 11.1 -1.2 11.05 -1.45 10.95 -1.75 10.85 -2.45 10.7 -3.6 10.55 -4.2 10.55 -4.25 10.15 -6.0 9.65 -6.9 9.55 -7.25 9.55 -7.15 9.5 -7.25 M-17.95 -24.45 L-18.8 -23.95 -19.25 -23.55 -18.75 -24.05 -18.4 -24.3 -17.95 -24.45" fill="#95632d" fill-rule="evenodd" stroke="none"/>
      <path d="M18.15 51.5 Q21.6 40.8 22.0 29.75 22.55 16.3 21.95 2.75 21.45 -9.9 18.8 -22.65 L18.75 -22.7 18.45 -23.0 18.4 -23.3 18.1 -25.15 18.0 -25.7 17.8 -26.05 17.6 -26.35 17.6 -26.65 17.6 -27.25 17.6 -27.85 17.5 -28.3 17.4 -28.45 17.2 -28.75 17.2 -29.05 17.2 -29.45 16.85 -30.8 16.2 -32.9 15.55 -33.9 15.3 -34.25 15.2 -34.55 15.15 -34.85 15.1 -35.15 Q14.45 -35.85 14.1 -36.7 13.3 -38.55 11.65 -39.5 L11.55 -39.85 11.5 -40.1 11.45 -40.45 10.25 -41.55 Q8.85 -42.6 7.95 -44.05 L5.95 -45.15 5.45 -46.05 Q3.0 -47.8 0.1 -48.8 -1.45 -49.4 -2.9 -50.15 L-3.5 -50.55 Q-5.05 -51.1 -6.6 -50.55 L-8.05 -50.15 -8.25 -49.9 -8.55 -49.65 -11.55 -48.9 -11.6 -48.7 -12.45 -48.5 -12.6 -48.5 -14.1 -47.9 Q-21.0 -35.4 -21.95 -21.8 -21.3 -22.75 -20.95 -23.8 -20.25 -26.25 -17.45 -27.75 L-16.7 -27.7 Q-12.85 -26.65 -9.25 -25.0 0.6 -20.5 5.5 -14.65 L5.6 -14.5 7.5 -11.8 Q8.8 -9.65 9.5 -7.25 L9.55 -7.1 9.55 -7.15 9.55 -7.25 9.65 -6.9 10.4 -4.7 10.55 -4.25 10.55 -4.2 10.7 -3.6 10.85 -2.45 10.95 -1.75 11.15 -0.85 11.2 -0.45 11.4 0.55 Q11.6 3.8 12.45 7.05 L12.35 6.95 12.4 7.65 12.45 7.85 Q12.65 10.6 12.3 13.4 L13.0 14.0 12.65 18.1 12.55 19.25 12.7 19.4 13.25 19.85 Q15.5 35.65 8.95 50.2 L7.95 49.85 5.15 49.0 7.25 48.0 7.35 47.05 8.15 46.7 8.65 44.3 Q12.25 26.0 9.6 7.3 L9.7 5.3 Q9.55 2.95 9.0 0.65 L8.55 -0.85 8.45 -1.25 8.3 -1.65 Q8.1 -2.15 8.2 -2.6 8.45 -4.4 7.4 -5.75 L7.2 -6.5 6.0 -9.95 5.95 -10.1 Q1.2 -20.0 -15.3 -24.35 L-15.95 -24.6 -16.45 -24.65 -16.7 -24.7 -17.0 -24.65 -17.95 -24.45 -18.4 -24.3 -18.75 -24.05 -19.25 -23.55 -19.35 -23.4 -19.85 -22.35 Q-22.0 -21.2 -21.55 -19.1 L-22.1 -18.75 -22.1 -18.1 Q-22.3 -2.15 -18.25 14.35 -16.6 21.3 -12.8 28.3 -11.1 31.6 -9.95 35.0 -8.85 38.3 -6.95 41.5 L-7.0 41.6 -6.85 42.1 -6.6 42.85 Q-4.3 46.5 1.0 49.2 3.9 50.65 7.15 51.5 L10.1 52.05 11.0 51.9 Q14.4 52.25 17.4 51.85 L18.2 51.65 18.35 51.6 18.15 51.5 M12.5 7.25 L12.7 8.0 12.6 7.85 12.4 7.65 12.45 7.3 12.5 7.25 M15.7 -38.2 L16.0 -37.85 17.05 -36.1 17.2 -35.75 17.2 -35.45 17.2 -35.15 Q19.35 -33.2 19.55 -30.3 L19.65 -29.1 Q20.85 -25.95 21.55 -22.65 L21.95 -21.7 22.1 -20.7 22.1 -20.55 22.15 -20.5 23.4 -10.7 24.0 -4.55 23.9 -4.5 Q24.5 2.95 24.4 10.35 24.15 26.25 22.15 42.0 L21.5 48.0 20.75 51.25 Q21.4 51.9 20.25 52.55 18.5 53.45 15.95 53.45 L15.2 53.65 Q9.25 53.85 3.55 51.75 -2.35 49.6 -6.05 46.2 -8.35 44.05 -9.15 41.75 -13.5 32.95 -17.2 23.9 -24.25 6.95 -24.35 -9.95 L-24.2 -17.05 -24.3 -17.05 -24.1 -19.2 -24.1 -19.7 -24.0 -19.75 -24.0 -20.35 -23.95 -20.5 -23.95 -20.65 -23.95 -20.75 Q-23.1 -30.25 -20.6 -39.55 -19.15 -44.95 -15.55 -49.6 L-15.25 -49.6 -15.2 -49.6 -13.45 -50.8 -12.3 -51.3 -11.55 -52.0 -10.1 -53.0 -8.55 -53.05 -8.3 -53.4 -7.9 -53.5 -7.2 -53.55 -7.1 -53.6 -2.55 -52.3 Q0.25 -51.7 3.0 -50.35 5.45 -49.15 7.45 -47.4 L7.7 -47.25 10.15 -44.6 13.4 -41.5 Q14.8 -40.05 15.7 -38.2" fill="#000000" fill-rule="evenodd" stroke="none"/>
      <path d="M9.5 -7.25 L9.55 -7.15 9.55 -7.1 9.5 -7.25 M9.65 -6.9 L10.15 -6.0 10.55 -4.25 10.4 -4.7 9.65 -6.9 M10.95 -1.75 L11.05 -1.45 11.1 -1.2 11.15 -0.85 10.95 -1.75 M12.65 18.1 L12.65 18.6 12.7 19.4 12.55 19.25 12.65 18.1 M7.95 49.85 L7.8 50.05 Q7.8 50.95 7.15 51.5 3.9 50.65 1.0 49.2 -4.3 46.5 -6.6 42.85 L-6.85 42.1 -7.0 41.6 -6.95 41.5 Q-8.85 38.3 -9.95 35.0 -11.1 31.6 -12.8 28.3 -16.6 21.3 -18.25 14.35 -22.3 -2.15 -22.1 -18.1 L-22.1 -18.75 -21.55 -19.1 Q-22.0 -21.2 -19.85 -22.35 L-19.35 -23.4 -19.25 -23.55 -18.8 -23.95 -17.95 -24.45 -17.0 -24.65 -16.7 -24.7 -16.45 -24.65 -15.95 -24.6 -15.3 -24.35 Q1.2 -20.0 5.95 -10.1 L6.0 -9.95 7.2 -6.5 7.4 -5.75 Q8.45 -4.4 8.2 -2.6 8.1 -2.15 8.3 -1.65 L8.45 -1.25 8.55 -0.85 9.0 0.65 Q9.55 2.95 9.7 5.3 L9.6 7.3 Q12.25 26.0 8.65 44.3 L8.15 46.7 7.35 47.05 7.25 48.0 5.15 49.0 7.95 49.85" fill="#d79e4a" fill-rule="evenodd" stroke="none"/>
    </g>
    <g id="shape2" transform="matrix(1.0, 0.0, 0.0, 1.0, 121.25, 41.95)">
      <path d="M-96.2 -24.15 Q-94.55 -23.35 -93.25 -22.1 -89.1 -17.8 -90.35 -11.85 -91.6 -6.05 -96.95 -3.5 L-97.0 -3.5 Q-100.3 -1.9 -104.25 -2.85 -106.8 -4.35 -108.4 -6.7 -109.2 -7.9 -109.45 -9.3 -110.1 -16.7 -103.15 -15.95 -98.7 -15.5 -100.8 -11.8 L-100.5 -11.4 -99.9 -11.3 Q-98.0 -14.7 -101.0 -16.5 -103.0 -17.65 -105.35 -17.0 -111.05 -15.3 -110.55 -9.3 -110.1 -3.95 -104.0 -2.0 -100.2 -0.75 -96.95 -2.4 -94.6 -3.25 -92.75 -5.0 -88.45 -9.05 -88.75 -15.0 -89.05 -21.05 -94.1 -24.15 -96.95 -25.95 -100.2 -26.75 -114.8 -27.9 -120.4 -14.9 -121.45 -12.5 -121.2 -9.85 -120.3 -0.7 -111.55 2.65 -107.35 4.25 -102.95 4.95 -91.8 6.7 -81.85 3.0 -78.75 1.55 -76.65 0.3 L-73.6 -0.85 Q-72.2 -2.3 -74.15 -2.5 L-81.85 1.75 Q-85.6 3.1 -91.05 3.9 -96.45 4.7 -101.6 4.0 -106.75 3.3 -110.05 2.25 -118.15 -0.3 -119.6 -8.65 -121.15 -17.65 -113.2 -22.9 -106.8 -27.1 -99.0 -25.1 L-96.2 -24.15" fill="#000000" fill-rule="evenodd" stroke="none"/>
      <path d="M-69.25 0.15 Q-68.55 1.95 -68.0 7.9 -67.4 13.8 -69.15 18.9 -70.85 23.75 -72.2 25.8 L-73.15 26.8 Q-70.8 27.5 -70.6 28.25 L-70.25 29.35 Q-71.65 30.6 -73.3 30.65 L-73.4 30.7 -73.4 30.8 -73.35 31.1 -73.25 31.2 Q-71.15 31.6 -69.35 30.05 -68.95 27.95 -70.15 27.15 L-71.4 26.3 -69.5 23.45 Q-67.95 21.0 -67.05 14.15 -66.15 7.35 -67.4 2.5 -68.7 -2.3 -69.5 -2.65 -69.9 -1.65 -69.25 0.15 M-65.2 -3.4 L-65.3 -2.5 Q-64.9 -0.85 -63.65 0.75 -60.3 5.9 -58.65 11.95 -56.4 20.25 -61.3 26.55 L-61.0 26.55 -61.0 26.6 -61.05 26.7 -60.95 27.0 -60.9 27.05 Q-59.5 27.65 -58.95 29.15 L-58.9 29.5 -59.0 29.6 -59.2 29.9 -59.25 29.95 -63.55 30.4 -63.65 30.6 -63.55 30.95 Q-60.25 32.35 -58.0 29.95 -57.9 27.9 -59.55 26.6 L-59.85 26.4 Q-57.8 24.15 -57.15 20.55 -56.35 15.95 -57.9 9.65 -59.4 3.7 -64.9 -3.55 L-65.05 -3.45 -65.2 -3.4" fill="#000000" fill-rule="evenodd" stroke="none"/>
      <path d="M-80.35 11.85 L-80.6 11.5 -80.95 11.25 -81.4 11.4 Q-83.35 6.65 -82.55 1.1 -81.6 -5.15 -79.7 -11.25 -77.5 -18.2 -73.0 -23.2 -73.0 -23.6 -73.4 -23.7 L-73.6 -23.8 Q-79.25 -18.45 -81.45 -10.25 -83.0 -4.45 -83.7 1.4 -84.35 6.75 -82.85 11.5 L-82.55 12.05 Q-83.8 13.1 -83.45 15.3 L-83.35 15.5 Q-82.9 15.8 -82.55 15.3 L-82.5 15.1 -82.5 14.7 -82.5 14.15 -82.05 13.35 -81.7 12.85 -80.5 12.1 -80.35 11.85" fill="#000000" fill-rule="evenodd" stroke="none"/>
      <path d="M-62.3 -22.8 L-62.2 -22.65 Q-51.4 -13.45 -50.2 0.5 -49.85 4.35 -51.5 7.45 -52.35 7.8 -51.4 8.65 L-51.3 8.8 -51.05 10.15 Q-50.95 10.4 -51.0 10.7 L-51.45 11.55 -51.45 11.7 Q-51.3 12.5 -50.5 12.2 L-50.05 11.55 -49.85 11.35 Q-49.6 9.35 -50.7 7.7 -47.75 2.6 -49.15 -3.55 -51.9 -15.85 -61.75 -23.8 -62.55 -23.55 -62.3 -22.8" fill="#000000" fill-rule="evenodd" stroke="none"/>
      <path d="M-63.35 -41.5 L-63.45 -41.6 -63.55 -41.65 Q-67.3 -42.5 -70.55 -40.9 -72.1 -40.1 -73.25 -38.8 L-73.5 -38.7 -73.7 -38.55 -73.75 -38.5 -74.15 -39.05 -75.55 -40.5 -75.6 -40.5 -75.75 -40.55 -75.75 -40.6 Q-77.55 -41.05 -78.85 -39.95 L-79.0 -39.85 -79.1 -39.65 -79.1 -39.6 -79.2 -39.55 -79.2 -39.5 -79.25 -39.4 -79.25 -39.35 -79.3 -39.3 -79.35 -39.3 -79.35 -39.25 -79.4 -38.8 -79.5 -38.6 -79.5 -38.45 -79.55 -38.3 -79.55 -38.25 -79.55 -37.95 -79.65 -36.45 -79.6 -36.0 -79.55 -35.95 -79.35 -35.3 -79.2 -35.25 -79.2 -35.1 -79.1 -35.05 -78.9 -34.9 -78.75 -34.8 -75.3 -34.9 -74.8 -35.1 -74.65 -35.25 -74.6 -35.3 -74.55 -34.9 Q-74.45 -32.5 -72.7 -30.6 L-72.6 -30.35 Q-71.35 -28.9 -69.5 -28.3 L-69.25 -28.15 -65.7 -28.05 -65.0 -28.05 Q-62.4 -29.0 -60.6 -31.05 -59.75 -31.95 -59.55 -33.1 L-59.2 -33.05 -59.2 -33.3 -59.5 -33.45 -59.6 -34.8 -59.6 -34.9 -59.65 -34.95 -59.3 -34.9 -58.05 -34.85 -57.95 -34.9 -57.4 -35.1 -56.55 -35.8 -56.55 -35.85 -56.4 -36.0 -56.4 -36.05 -56.2 -36.55 -56.15 -36.85 -56.1 -37.15 -56.1 -37.6 -56.2 -37.75 -56.25 -37.9 -56.3 -38.0 -56.6 -38.45 -57.1 -38.8 -57.2 -38.95 -57.4 -39.0 -57.95 -39.15 -57.95 -39.2 -58.1 -39.2 Q-59.75 -39.0 -61.0 -37.75 -62.35 -39.9 -64.45 -41.2 L-63.45 -41.3 -63.35 -41.35 -63.35 -41.5 M-60.4 -36.7 L-60.65 -37.05 -60.7 -37.15 -60.65 -37.35 -60.5 -37.45 -60.4 -37.55 -59.05 -38.35 -59.0 -38.45 -58.95 -38.45 -58.6 -38.5 -57.7 -38.45 -57.65 -38.45 -56.85 -37.7 -56.85 -37.6 -56.65 -37.3 -56.6 -37.25 -56.6 -37.1 -56.65 -36.8 -56.65 -36.5 -56.75 -36.35 -57.5 -35.65 -57.5 -35.55 -58.15 -35.5 -58.25 -35.5 -59.75 -35.6 -60.05 -36.1 -60.4 -36.7 M-57.25 -38.65 L-57.25 -38.6 -57.25 -38.65 M-60.95 -36.5 L-60.9 -36.4 -60.1 -35.25 -60.1 -34.9 -60.1 -33.8 -60.05 -33.65 -61.35 -33.95 -64.3 -34.5 -64.7 -34.6 -66.95 -34.75 -67.05 -34.8 -67.65 -34.8 -67.7 -34.8 -68.4 -34.7 -68.5 -34.7 -68.6 -34.7 -68.95 -34.7 -68.95 -34.65 -69.8 -34.55 -69.9 -34.5 -70.9 -34.4 Q-72.7 -34.2 -73.55 -32.95 L-73.5 -32.9 -73.3 -32.85 -73.0 -32.8 -72.3 -33.3 Q-70.65 -34.1 -68.75 -34.05 L-68.7 -34.1 -67.7 -34.25 -67.4 -34.25 -66.9 -34.2 -65.85 -34.1 -64.8 -34.0 -64.2 -33.9 -60.1 -33.2 -60.1 -32.6 Q-60.5 -31.55 -61.35 -30.9 L-62.15 -30.15 -62.25 -30.1 -62.25 -30.05 -62.3 -30.05 -62.95 -29.6 -63.0 -29.6 -63.05 -29.55 -63.15 -29.4 -65.1 -28.6 -65.2 -28.55 -69.15 -28.7 -71.5 -29.8 Q-72.05 -30.1 -72.2 -30.7 L-72.35 -30.95 -72.35 -31.0 -73.45 -32.5 -73.5 -32.7 -74.1 -35.55 -74.1 -35.6 -74.1 -35.65 -74.1 -35.75 -74.1 -36.05 -73.7 -37.35 -73.65 -37.55 -73.5 -37.85 -72.7 -38.7 -72.65 -38.75 -70.5 -40.45 -70.4 -40.55 -69.85 -40.7 Q-67.8 -41.7 -65.5 -41.2 -63.6 -40.3 -62.35 -38.7 L-61.2 -36.95 -60.95 -36.5 M-74.8 -36.05 L-74.9 -35.85 -75.0 -35.7 -75.6 -35.55 -76.35 -35.2 -76.75 -35.1 -77.8 -35.2 -78.6 -35.45 -78.7 -35.5 -78.95 -35.8 -79.0 -35.85 -79.1 -35.95 -79.2 -36.35 -79.2 -36.45 -79.0 -38.2 -79.0 -38.25 -79.0 -38.3 -78.95 -38.45 -78.9 -38.6 -78.85 -38.65 -78.7 -38.8 -78.6 -38.9 -78.6 -39.05 -78.2 -39.6 -78.1 -39.75 -78.05 -39.8 -77.95 -39.85 -77.95 -39.9 -77.85 -39.95 -77.5 -40.0 -75.8 -40.0 -75.2 -39.45 Q-74.45 -38.95 -74.15 -38.1 L-74.1 -38.05 -74.05 -38.05 -74.05 -38.0 -74.1 -37.8 -74.2 -37.55 -74.45 -36.7 -74.7 -36.15 -74.8 -36.05 M-65.0 -33.45 L-65.15 -33.7 -65.2 -33.7 -65.25 -33.7 Q-65.5 -33.8 -65.55 -33.5 L-65.45 -33.25 -65.0 -33.3 -65.0 -33.45 M-66.85 -33.8 L-66.9 -33.6 Q-66.95 -33.3 -66.65 -33.15 L-66.35 -33.25 -66.3 -33.35 -66.25 -33.4 -66.3 -33.75 -66.4 -33.85 -66.5 -33.85 -66.7 -33.9 -66.85 -33.8" fill="#000000" fill-rule="evenodd" stroke="none"/>
      <path d="M-60.4 -36.7 L-60.1 -37.1 -59.25 -37.75 Q-58.4 -37.85 -57.9 -37.3 L-57.85 -37.2 -57.8 -37.0 -57.75 -36.95 -57.7 -36.9 -57.7 -36.75 -57.7 -36.7 -57.9 -36.25 -58.25 -36.0 -59.4 -35.85 -59.9 -36.05 -60.05 -36.1 -59.75 -35.6 -58.25 -35.5 -58.15 -35.5 -57.5 -35.55 -57.5 -35.65 -56.75 -36.35 -56.65 -36.5 -56.65 -36.8 -56.6 -37.1 -56.6 -37.25 -56.65 -37.3 -56.85 -37.6 -56.85 -37.7 -57.65 -38.45 -57.7 -38.45 -58.6 -38.5 -58.95 -38.45 -59.0 -38.45 -59.05 -38.35 -60.4 -37.55 -60.5 -37.45 -60.65 -37.35 -60.7 -37.15 -60.65 -37.05 -60.4 -36.7 M-60.9 -36.4 L-60.95 -36.5 -61.2 -36.95 -62.35 -38.7 Q-63.6 -40.3 -65.5 -41.2 -67.8 -41.7 -69.85 -40.7 L-70.4 -40.55 -70.5 -40.45 -72.65 -38.75 -72.7 -38.7 -73.5 -37.85 -73.65 -37.55 -73.7 -37.35 -74.1 -36.05 -74.1 -35.75 -74.1 -35.65 -74.1 -35.6 -74.1 -35.55 -73.5 -32.7 -73.45 -32.5 -73.4 -32.6 -73.3 -32.85 -73.5 -32.9 -73.55 -32.95 Q-72.7 -34.2 -70.9 -34.4 L-69.9 -34.5 -69.8 -34.55 -68.95 -34.65 -68.95 -34.7 -68.6 -34.7 -68.5 -34.7 -68.4 -34.7 -67.7 -34.8 -67.65 -34.8 -67.05 -34.8 -66.95 -34.75 -64.7 -34.6 -64.3 -34.5 -61.35 -33.95 -60.05 -33.65 -60.1 -33.8 -60.1 -34.9 -60.1 -35.25 -60.9 -36.4 M-74.15 -38.1 Q-74.45 -38.95 -75.2 -39.45 L-75.8 -40.0 -77.5 -40.0 -77.85 -39.95 -77.95 -39.9 -77.95 -39.85 -78.05 -39.8 -78.1 -39.75 -78.2 -39.6 -78.6 -39.05 -78.6 -38.9 -78.7 -38.8 -78.85 -38.65 -78.9 -38.6 -78.95 -38.45 -79.0 -38.3 -79.0 -38.25 -79.0 -38.2 -79.2 -36.45 -79.2 -36.35 -79.1 -35.95 -79.0 -35.85 -78.95 -35.8 -78.7 -35.5 -78.6 -35.45 -77.8 -35.2 -76.75 -35.1 -76.35 -35.2 -75.6 -35.55 -75.0 -35.7 -74.9 -35.85 -74.8 -36.05 Q-75.7 -35.85 -76.55 -36.4 L-76.75 -36.45 -76.95 -36.75 -77.15 -36.95 -77.3 -37.1 -77.35 -37.2 -77.35 -37.35 -77.3 -37.8 -77.2 -37.95 -77.15 -38.0 -76.9 -38.2 -76.8 -38.3 -76.75 -38.3 -76.35 -38.55 Q-75.45 -38.7 -74.8 -38.15 L-74.75 -38.1 -74.75 -38.05 -74.75 -38.0 -74.7 -38.0 -74.4 -37.8 -74.3 -37.75 -74.3 -37.7 -74.3 -37.6 -74.25 -37.6 -74.2 -37.55 -74.1 -37.8 -74.05 -38.0 -74.05 -38.05 -74.1 -38.05 -74.15 -38.1 M-77.75 -38.05 L-77.8 -38.0 -77.8 -37.9 -77.85 -37.8 -77.75 -38.05" fill="#95632d" fill-rule="evenodd" stroke="none"/>
      <path d="M-60.05 -36.1 L-59.9 -36.05 -59.4 -35.85 -58.25 -36.0 -57.9 -36.25 -57.7 -36.7 -57.7 -36.75 -57.7 -36.9 -57.75 -36.95 -57.8 -37.0 -57.85 -37.2 -57.9 -37.3 Q-58.4 -37.85 -59.25 -37.75 L-60.1 -37.1 -60.4 -36.7 -60.05 -36.1 M-60.9 -36.4 L-60.95 -36.5 -60.9 -36.4 M-73.45 -32.5 L-72.35 -31.0 -72.35 -30.95 -72.2 -30.7 Q-72.05 -30.1 -71.5 -29.8 L-69.15 -28.7 -65.2 -28.55 -65.1 -28.6 -63.15 -29.4 -63.05 -29.55 -63.0 -29.6 -62.95 -29.6 -62.3 -30.05 -62.25 -30.05 -62.25 -30.1 -62.15 -30.15 -61.35 -30.9 Q-60.5 -31.55 -60.1 -32.6 L-60.1 -33.2 -64.2 -33.9 -64.8 -34.0 -65.85 -34.1 -66.9 -34.2 -67.4 -34.25 -67.7 -34.25 -68.7 -34.1 -68.75 -34.05 Q-70.65 -34.1 -72.3 -33.3 L-73.0 -32.8 -73.3 -32.85 -73.4 -32.6 -73.45 -32.5 M-74.2 -37.55 L-74.25 -37.6 -74.3 -37.6 -74.3 -37.7 -74.3 -37.75 -74.4 -37.8 -74.7 -38.0 -74.75 -38.0 -74.75 -38.05 -74.75 -38.1 -74.8 -38.15 Q-75.45 -38.7 -76.35 -38.55 L-76.75 -38.3 -76.8 -38.3 -76.9 -38.2 -77.15 -38.0 -77.2 -37.95 -77.3 -37.8 -77.35 -37.35 -77.35 -37.2 -77.3 -37.1 -77.15 -36.95 -76.95 -36.75 -76.75 -36.45 -76.55 -36.4 Q-75.7 -35.85 -74.8 -36.05 L-74.7 -36.15 -74.45 -36.7 -74.2 -37.55 M-77.75 -38.05 L-77.85 -37.8 -77.8 -37.9 -77.8 -38.0 -77.75 -38.05 M-66.85 -33.8 L-66.7 -33.9 -66.5 -33.85 -66.4 -33.85 -66.3 -33.75 -66.25 -33.4 -66.3 -33.35 -66.35 -33.25 -66.65 -33.15 Q-66.95 -33.3 -66.9 -33.6 L-66.85 -33.8 M-65.0 -33.45 L-65.0 -33.3 -65.45 -33.25 -65.55 -33.5 Q-65.5 -33.8 -65.25 -33.7 L-65.2 -33.7 -65.15 -33.7 -65.0 -33.45" fill="#d79e4a" fill-rule="evenodd" stroke="none"/>
    </g>
    <g id="sprite0" transform="matrix(1.0, 0.0, 0.0, 1.0, 16.2, 5.05)">
      <use ffdec:characterId="5" height="4.5" transform="matrix(1.0, 0.0, 0.0, 1.0, -7.65, -2.25)" width="15.3" xlink:href="#shape3"/>
    </g>
    <g id="shape3" transform="matrix(1.0, 0.0, 0.0, 1.0, 7.65, 2.25)">
      <path d="M7.6 -0.15 L7.6 0.5 Q0.1 3.55 -7.65 1.25 L-7.5 0.6 -6.9 -0.25 -6.15 -1.0 Q-1.9 -0.55 0.6 -2.25 L3.85 -1.55 7.1 -1.0 7.6 -0.15" fill="#000000" fill-rule="evenodd" stroke="none"/>
    </g>
    <g id="sprite1" transform="matrix(1.0, 0.0, 0.0, 1.0, 23.5, 12.3)">
      <use ffdec:characterId="12" height="17.25" transform="matrix(1.0, 0.0, 0.0, 1.0, -21.25, -10.1)" width="34.95" xlink:href="#shape4"/>
      <use ffdec:characterId="14" height="7.8" transform="matrix(1.0, 0.0, 0.0, 1.0, -16.85, -2.6)" width="25.55" xlink:href="#sprite2"/>
      <use ffdec:characterId="15" height="21.6" transform="matrix(1.0, 0.0, 0.0, 1.0, -23.5, -12.3)" width="39.4" xlink:href="#shape6"/>
    </g>
    <g id="shape4" transform="matrix(1.0, 0.0, 0.0, 1.0, 21.25, 10.1)">
      <path d="M5.7 -3.5 L6.05 -3.65 Q8.4 -4.15 10.45 -3.25 14.2 -1.65 13.65 2.6 13.55 3.45 13.05 4.05 L13.0 4.05 Q12.15 5.5 9.65 5.75 4.25 6.25 1.75 1.95 L1.6 1.85 1.5 1.45 1.45 1.4 1.4 0.8 1.4 -0.35 Q1.6 -1.85 3.15 -2.45 L5.7 -3.5" fill="#ffffff" fill-rule="evenodd" stroke="none"/>
      <path d="M-20.35 -6.45 L-19.75 -7.25 Q-16.65 -9.65 -12.7 -9.9 -7.05 -10.85 -3.5 -6.9 -0.55 -3.6 -1.1 0.95 -1.35 3.2 -3.25 4.65 -5.15 6.2 -7.5 6.7 L-12.95 7.15 -14.6 6.7 Q-15.35 6.3 -16.15 6.0 -17.95 5.4 -18.85 3.85 -20.95 2.45 -21.2 -0.1 -21.5 -3.5 -20.35 -6.45" fill="#ffffff" fill-rule="evenodd" stroke="none"/>
    </g>
    <g id="sprite2" transform="matrix(1.0, 0.0, 0.0, 1.0, 2.75, 0.0)">
      <use ffdec:characterId="13" height="5.35" transform="matrix(1.0, 0.0, 0.0, 1.0, 0.0, 0.0)" width="22.8" xlink:href="#shape5"/>
    </g>
    <g id="shape5" transform="matrix(1.0, 0.0, 0.0, 1.0, 2.75, -2.45)">
      <path d="M20.05 6.1 Q20.1 6.9 19.55 7.35 L18.6 7.8 18.5 7.8 17.9 7.65 17.35 7.5 16.75 6.95 Q16.25 6.45 16.35 5.8 L16.4 5.75 16.5 5.45 17.2 4.75 17.55 4.7 Q18.9 4.3 19.7 5.2 20.05 5.55 20.05 6.1" fill="#000000" fill-rule="evenodd" stroke="none"/>
      <path d="M1.1 3.95 Q1.3 5.05 0.7 5.9 0.5 6.25 0.0 6.3 -2.4 6.65 -2.7 4.4 -2.9 3.0 -1.65 2.55 -0.55 2.3 0.25 2.8 0.9 3.25 1.1 3.95" fill="#000000" fill-rule="evenodd" stroke="none"/>
    </g>
    <g id="shape6" transform="matrix(1.0, 0.0, 0.0, 1.0, 23.5, 12.3)">
      <path d="M1.4 -3.5 L1.95 -3.95 Q3.6 -5.2 5.4 -5.65 L5.45 -5.75 10.95 -5.5 11.45 -4.7 11.5 -4.6 11.9 -4.5 11.95 -4.5 12.1 -4.4 12.9 -3.85 Q15.7 -1.75 15.9 1.25 L15.65 2.75 15.55 3.1 12.35 6.85 Q11.8 6.95 11.35 7.3 L8.15 7.3 3.75 6.35 2.35 5.85 2.05 5.65 -0.15 2.7 -0.2 2.05 -0.25 0.25 -0.1 -1.4 -0.05 -1.75 1.1 -3.5 1.4 -3.5 M3.15 -2.45 Q1.6 -1.85 1.4 -0.35 L1.4 0.8 1.45 1.4 1.5 1.45 1.6 1.85 1.75 1.95 Q4.25 6.25 9.65 5.75 12.15 5.5 13.0 4.05 L13.05 4.05 Q13.55 3.45 13.65 2.6 14.2 -1.65 10.45 -3.25 8.4 -4.15 6.05 -3.65 L5.7 -3.5 3.15 -2.45" fill="#000000" fill-rule="evenodd" stroke="none"/>
      <path d="M0.85 -1.4 L0.85 1.3 0.9 1.5 Q0.15 3.1 -0.35 4.8 L-1.85 6.1 -2.9 7.0 Q-5.4 8.6 -8.3 9.25 L-8.35 9.3 -17.8 8.0 -18.55 7.25 -21.55 4.25 -22.3 3.5 -22.3 2.95 Q-23.65 1.2 -23.5 -1.2 L-23.15 -4.4 -22.75 -6.1 -22.3 -6.6 -22.3 -7.0 -21.2 -8.55 -19.65 -9.75 Q-16.8 -11.35 -14.05 -12.25 -4.75 -13.0 -0.3 -5.45 -0.2 -4.75 0.35 -4.0 L0.85 -1.4 M-20.35 -6.45 Q-21.5 -3.5 -21.2 -0.1 -20.95 2.45 -18.85 3.85 -17.95 5.4 -16.15 6.0 -15.35 6.3 -14.6 6.7 L-12.95 7.15 -7.5 6.7 Q-5.15 6.2 -3.25 4.65 -1.35 3.2 -1.1 0.95 -0.55 -3.6 -3.5 -6.9 -7.05 -10.85 -12.7 -9.9 -16.65 -9.65 -19.75 -7.25 L-20.35 -6.45" fill="#000000" fill-rule="evenodd" stroke="none"/>
    </g>
    <g id="shape7" transform="matrix(1.0, 0.0, 0.0, 1.0, 38.0, -4.15)">
      <path d="M-27.45 5.5 L-27.65 5.6 -27.85 5.7 Q-31.2 7.4 -33.2 9.7 L-33.35 9.75 -33.95 10.35 -34.0 10.7 Q-35.55 12.75 -36.1 15.3 L-36.45 17.85 -33.45 16.95 -31.05 15.45 -29.95 14.3 Q-29.4 13.8 -29.3 13.15 L-29.2 13.35 -29.1 13.2 -28.1 11.35 Q-27.6 10.1 -27.4 8.8 L-27.25 6.55 -27.35 5.6 -27.45 5.5 M-27.8 4.4 L-27.75 4.35 -27.45 4.25 -27.2 4.15 Q-26.85 5.45 -26.9 6.9 L-27.2 9.2 Q-27.6 11.0 -28.55 12.55 -29.5 14.15 -30.9 15.5 -32.15 16.7 -33.85 17.5 -35.65 18.3 -37.65 18.1 L-38.0 18.15 Q-37.9 15.2 -36.05 11.95 -33.1 6.9 -27.8 4.4" fill="#000000" fill-rule="evenodd" stroke="none"/>
    </g>
    <g id="shape8" transform="matrix(1.0, 0.0, 0.0, 1.0, 6.85, 3.25)">
      <path d="M-4.7 -2.6 L-4.4 -2.65 -3.3 -2.5 -2.55 -1.95 -1.95 -1.25 Q-1.0 0.1 -1.6 1.45 -3.35 2.85 -4.6 1.75 -6.5 -0.65 -4.7 -2.6" fill="#ff0000" fill-rule="evenodd" stroke="none"/>
      <path d="M-4.4 -2.65 Q-4.3 -3.15 -2.9 -3.25 0.25 -1.85 -0.45 2.05 L-1.0 2.6 Q-5.95 4.3 -6.5 1.5 L-6.85 -0.35 Q-6.7 -2.85 -4.7 -2.6 -6.5 -0.65 -4.6 1.75 -3.35 2.85 -1.6 1.45 -1.0 0.1 -1.95 -1.25 L-2.55 -1.95 -3.3 -2.5 -4.4 -2.65" fill="#000000" fill-rule="evenodd" stroke="none"/>
      <path d="M-1.0 0.05 L6.2 0.1 Q6.65 0.1 6.8 -0.4 L6.75 -0.55 Q6.75 -1.05 6.2 -1.05 L6.2 -1.1 -1.05 -0.75 -1.35 -0.45 -1.3 -0.3 -1.0 0.05" fill="#000000" fill-rule="evenodd" stroke="none"/>
      <path d="M-4.45 0.55 Q-4.9 0.85 -5.25 0.4 -6.25 -0.9 -4.65 -1.35 -2.75 -0.55 -4.45 0.55" fill="#ffffff" fill-rule="evenodd" stroke="none"/>
    </g>
    <g id="shape9" transform="matrix(1.0, 0.0, 0.0, 1.0, 38.0, -3.2)">
      <path d="M-12.9 6.1 Q-5.5 10.1 -5.05 18.4 -4.65 25.55 -11.4 28.75 -18.05 31.95 -25.5 30.4 -30.65 29.4 -34.45 25.65 -37.65 22.45 -37.9 18.75 L-37.95 18.75 -37.95 18.15 -38.0 18.15 Q-37.9 15.2 -36.05 11.95 -33.1 6.9 -27.8 4.4 L-27.75 4.35 -27.6 4.3 -27.7 4.1 -25.4 3.2 -24.95 3.2 -25.05 3.3 Q-18.6 3.0 -12.9 6.1 M-8.0 24.35 Q-4.8 19.6 -7.5 13.8 -9.1 10.3 -12.55 7.75 -18.85 3.25 -26.25 4.8 L-26.25 5.9 Q-26.0 9.6 -27.6 12.85 -28.4 14.35 -29.7 15.35 -32.85 17.65 -36.4 18.45 -36.4 22.5 -33.7 25.0 -30.0 28.4 -23.9 29.3 -16.6 30.45 -10.5 26.7 -9.0 25.75 -8.0 24.35 M-27.35 5.6 L-27.45 5.5 -27.65 5.6 -27.85 5.7 Q-31.45 7.55 -33.55 10.05 L-33.5 10.1 -33.8 10.5 -33.85 10.45 Q-35.5 12.6 -36.1 15.3 L-36.45 17.65 -33.75 16.85 Q-32.0 16.15 -30.7 15.0 L-29.85 14.15 -29.95 14.1 -29.35 13.05 -29.3 13.1 -29.2 13.35 -29.1 13.2 -28.1 11.35 Q-27.6 10.1 -27.4 8.8 L-27.25 6.55 -27.35 5.6" fill="#000000" fill-rule="evenodd" stroke="none"/>
      <path d="M-8.0 24.35 Q-9.0 25.75 -10.5 26.7 -16.6 30.45 -23.9 29.3 -30.0 28.4 -33.7 25.0 -36.4 22.5 -36.4 18.45 -32.85 17.65 -29.7 15.35 -28.4 14.35 -27.6 12.85 -26.0 9.6 -26.25 5.9 L-26.25 4.8 Q-18.85 3.25 -12.55 7.75 -9.1 10.3 -7.5 13.8 -4.8 19.6 -8.0 24.35" fill="#ff9900" fill-rule="evenodd" stroke="none"/>
      <path d="M-7.5 13.8 Q-4.8 19.6 -8.0 24.35 -9.0 25.75 -10.5 26.7 -16.6 30.45 -23.9 29.3 -30.0 28.4 -33.7 25.0 -36.4 22.5 -36.4 18.45 -32.85 17.65 -29.7 15.35 -28.4 14.35 -27.6 12.85 -26.0 9.6 -26.25 5.9 L-26.25 4.8 Q-18.85 3.25 -12.55 7.75 -9.1 10.3 -7.5 13.8" fill="url(#gradient0)" fill-rule="evenodd" stroke="none"/>
    </g>
    <radialGradient cx="0" cy="0" gradientTransform="matrix(0.0385, 0.0, 0.0, 0.0276, -15.35, 8.15)" gradientUnits="userSpaceOnUse" id="gradient0" r="819.2" spreadMethod="pad">
      <stop offset="0.0" stop-color="#febf74"/>
      <stop offset="0.4980392156862745" stop-color="#ff9900"/>
      <stop offset="1.0" stop-color="#ff6600"/>
    </radialGradient>
    <g id="shape10" transform="matrix(1.0, 0.0, 0.0, 1.0, 36.4, -5.45)">
      <path d="M-36.05 15.3 L-36.2 14.9 Q-34.85 10.85 -31.4 7.85 -30.65 9.15 -30.6 10.2 -30.55 11.2 -31.4 12.75 -32.3 14.3 -36.05 15.3" fill="#999999" fill-rule="evenodd" stroke="none"/>
      <path d="M-31.4 7.85 L-31.2 7.85 -30.8 7.55 -30.3 7.2 -27.5 5.45 Q-27.0 7.95 -27.85 10.65 -28.75 13.3 -30.45 14.9 -32.2 16.5 -34.65 17.25 L-36.4 17.55 -36.25 16.25 -36.1 15.5 -36.05 15.3 Q-32.3 14.3 -31.4 12.75 -30.55 11.2 -30.6 10.2 -30.65 9.15 -31.4 7.85" fill="#cccccc" fill-rule="evenodd" stroke="none"/>
      <path d="M-30.5 10.9 Q-31.05 11.2 -31.45 10.7 -32.75 9.1 -30.75 8.55 -28.4 9.55 -30.5 10.9" fill="#ffffff" fill-rule="evenodd" stroke="none"/>
    </g>
    <g id="shape11" transform="matrix(1.0, 0.0, 0.0, 1.0, 5.6, 5.7)">
      <path d="M0.35 -5.0 L3.7 -0.2 3.75 0.8 1.9 4.0 0.6 4.05 -5.1 2.1 0.05 -5.2 0.35 -5.0" fill="#ff0000" fill-rule="evenodd" stroke="none"/>
      <path d="M0.35 -5.0 L3.7 -0.2 M0.6 4.05 L-5.1 2.1 0.05 -5.2" fill="none" stroke="#000000" stroke-linecap="round" stroke-linejoin="round" stroke-width="1.0"/>
      <path d="M-1.3 2.0 Q-1.75 2.25 -2.05 1.8 -3.0 0.6 -1.5 0.2 0.3 0.95 -1.3 2.0" fill="#ffffff" fill-rule="evenodd" stroke="none"/>
    </g>
    <g id="shape12" transform="matrix(1.0, 0.0, 0.0, 1.0, 36.45, -5.2)">
      <path d="M-27.3 5.2 L-27.2 6.5 Q-27.15 9.05 -28.0 11.15 -29.05 13.75 -31.15 15.5 -33.45 17.45 -36.45 17.65 -36.3 15.25 -35.4 13.1 -34.5 10.95 -33.0 9.35 -31.45 7.7 -29.8 6.6 L-29.7 6.5 Q-28.15 5.45 -27.3 5.2" fill="#000000" fill-rule="evenodd" stroke="none"/>
    </g>
    <g id="shape13" transform="matrix(1.0, 0.0, 0.0, 1.0, 36.45, -5.2)">
      <path d="M-28.0 11.15 Q-29.05 13.75 -31.15 15.5 -33.45 17.45 -36.45 17.65 -36.3 15.25 -35.4 13.1 -34.5 10.95 -33.0 9.35 -31.45 7.7 -29.8 6.6 L-29.7 6.5 Q-28.15 5.45 -27.3 5.2 L-27.2 6.5 Q-27.15 9.05 -28.0 11.15" fill="#ff9900" fill-rule="evenodd" stroke="none"/>
    </g>
    <g id="sprite3" transform="matrix(1.0, 0.0, 0.0, 1.0, 0.0, 0.0)">
      <use ffdec:characterId="42" height="40.0" transform="matrix(0.4, 0.0, 0.0, 0.5, 0.0, 0.0)" width="50.0" xlink:href="#shape14"/>
    </g>
    <g id="shape14" transform="matrix(1.0, 0.0, 0.0, 1.0, 0.0, 0.0)">
      <path d="M50.0 0.0 L50.0 40.0 0.0 40.0 0.0 0.0 50.0 0.0" fill="#ffffff" fill-opacity="0.0" fill-rule="evenodd" stroke="none"/>
    </g>
    <g id="sprite4" transform="matrix(1.0, 0.0, 0.0, 1.0, -0.05, 0.0)">
      <use ffdec:characterId="304" height="20.0" transform="matrix(1.0, 0.0, 0.0, 1.0, 0.05, 0.0)" width="20.0" xlink:href="#shape15"/>
    </g>
    <g id="shape15" transform="matrix(1.0, 0.0, 0.0, 1.0, -0.05, 0.0)">
      <path d="M10.05 20.0 Q5.9 20.0 2.95 17.05 0.0 14.1 0.05 10.0 0.0 5.85 2.95 2.9 5.9 0.0 10.05 0.0 14.15 0.0 17.1 2.9 20.05 5.85 20.05 10.0 20.05 14.1 17.1 17.05 14.15 20.0 10.05 20.0" fill="#ffffff" fill-opacity="0.0" fill-rule="evenodd" stroke="none"/>
    </g>
  </defs>
</svg>
