<?xml version="1.0" encoding="UTF-8" standalone="no"?>
<svg xmlns:ffdec="https://www.free-decompiler.com/flash" xmlns:xlink="http://www.w3.org/1999/xlink" ffdec:objectType="frame" height="110.8px" width="126.55px" xmlns="http://www.w3.org/2000/svg">
  <g transform="matrix(1.0, 0.0, 0.0, 1.0, 125.65, 69.65)">
    <use ffdec:characterId="323" height="0.25" transform="matrix(1.0, 0.0, 0.0, 1.0, -29.3, 13.1)" width="0.2" xlink:href="#shape0"/>
    <use ffdec:characterId="298" height="107.25" transform="matrix(-0.2046, 0.0619, 0.0619, 0.2046, -71.2331, -27.5739)" width="48.75" xlink:href="#shape1"/>
    <use ffdec:characterId="324" height="32.35" transform="matrix(1.0123, 0.1384, 0.0, 1.0, -123.4957, -32.535)" width="48.25" xlink:href="#shape2"/>
    <use ffdec:characterId="325" height="35.0" transform="matrix(1.0, 0.0, 0.0884, 1.0049, -76.1464, -3.6354)" width="16.5" xlink:href="#shape3"/>
    <use ffdec:characterId="326" height="39.4" transform="matrix(1.0, 0.0, 0.0, 1.0, -90.2, -22.2)" width="10.9" xlink:href="#shape4"/>
    <use ffdec:characterId="327" height="13.9" transform="matrix(0.9977, 0.0619, -0.0619, 0.9977, -87.3926, -42.6606)" width="23.55" xlink:href="#shape5"/>
    <use ffdec:characterId="11" height="9.05" transform="matrix(-0.1959, -0.0267, -0.0267, 0.1959, -71.7907, -31.0562)" width="34.15" xlink:href="#sprite0"/>
    <use ffdec:characterId="17" height="21.6" transform="matrix(-0.2278, -0.0311, -0.0311, 0.2278, -69.6642, -38.9711)" width="39.4" xlink:href="#sprite1"/>
    <use ffdec:characterId="332" height="21.45" transform="matrix(1.0, 0.0, 0.0, 1.0, -68.8, -43.8)" width="30.3" xlink:href="#shape10"/>
    <use ffdec:characterId="300" height="14.0" transform="matrix(1.0, 0.0, 0.0, 1.0, -38.0, 4.15)" width="11.1" xlink:href="#shape11"/>
    <use ffdec:characterId="312" height="6.5" transform="matrix(0.75, 0.0, 0.0, 1.0, -30.9875, 20.85)" width="13.65" xlink:href="#shape12"/>
    <use ffdec:characterId="313" height="27.7" transform="matrix(1.0, 0.0, 0.0, 1.0, -38.0, 3.2)" width="32.95" xlink:href="#shape13"/>
    <use ffdec:characterId="320" height="12.1" transform="matrix(1.0, 0.0, 0.0, 1.0, -36.4, 5.45)" width="9.1" xlink:href="#shape14"/>
    <use ffdec:characterId="321" height="10.25" transform="matrix(1.0, 0.0, 0.0, 1.0, -42.8, 2.85)" width="9.8" xlink:href="#shape15"/>
    <clipPath id="clipPath0">
      <path d="M -30.2 1.85 L -31.05 2.9 L -23.6 8.8 L -22.95 8 L -30.2 1.85 Z"/>
    </clipPath>
    <g clip-path="url(#clipPath0)">
      <use ffdec:characterId="315" height="12.45" transform="matrix(1.0, 0.0, 0.0, 1.0, -36.45, 5.2)" width="9.25" xlink:href="#shape16"/>
    </g>
    <clipPath id="clipPath1">
      <path d="M -30.2 0.85 L -31.05 1.9 L -23.6 7.8 L -22.95 7 L -30.2 0.85 Z"/>
    </clipPath>
    <g clip-path="url(#clipPath1)">
      <use ffdec:characterId="317" height="12.45" transform="matrix(1.0, 0.0, 0.0, 1.0, -36.45, 5.2)" width="9.25" xlink:href="#shape17"/>
    </g>
    <use ffdec:characterId="303" height="20.0" id="mcHitTestMonkey" transform="matrix(1.956, 0.0, 0.0, 3.7691, -86.15, -42.65)" width="20.0" xlink:href="#sprite3"/>
    <use ffdec:characterId="305" height="20.0" id="mcHitTestCannon" transform="matrix(1.75, 0.0, 0.0, 1.75, -38.5125, 0.25)" width="20.0" xlink:href="#sprite4"/>
  </g>
  <defs>
    <g id="shape0" transform="matrix(1.0, 0.0, 0.0, 1.0, 0.1, 0.1)">
      <path d="M-0.1 -0.1 L0.1 0.0 0.0 0.15 -0.1 -0.1" fill="#ff9900" fill-rule="evenodd" stroke="none"/>
    </g>
    <g id="shape1" transform="matrix(1.0, 0.0, 0.0, 1.0, 24.35, 53.6)">
      <path d="M9.5 -7.25 Q8.8 -9.65 7.5 -11.8 L5.6 -14.5 5.5 -14.65 Q0.6 -20.5 -9.25 -25.0 -12.85 -26.65 -16.7 -27.7 L-17.45 -27.75 Q-20.25 -26.25 -20.95 -23.8 -21.3 -22.75 -21.95 -21.8 -21.0 -35.4 -14.1 -47.9 L-12.6 -48.5 -12.45 -48.5 -11.6 -48.7 -11.55 -48.9 -8.55 -49.65 -8.25 -49.9 -8.05 -50.15 -6.6 -50.55 Q-5.05 -51.1 -3.5 -50.55 L-2.9 -50.15 Q-1.45 -49.4 0.1 -48.8 3.0 -47.8 5.45 -46.05 L5.95 -45.15 7.95 -44.05 Q8.85 -42.6 10.25 -41.55 L11.45 -40.45 11.5 -40.1 11.55 -39.85 11.65 -39.5 Q13.3 -38.55 14.1 -36.7 14.45 -35.85 15.1 -35.15 L15.15 -34.85 15.2 -34.55 15.3 -34.25 15.55 -33.9 16.2 -32.9 16.85 -30.8 17.2 -29.45 17.2 -29.05 17.2 -28.75 17.4 -28.45 17.5 -28.3 17.6 -27.85 17.6 -27.25 17.6 -26.65 17.6 -26.35 17.8 -26.05 18.0 -25.7 18.1 -25.15 18.4 -23.3 18.45 -23.0 18.75 -22.7 18.8 -22.65 Q21.45 -9.9 21.95 2.75 22.55 16.3 22.0 29.75 21.6 40.8 18.15 51.5 L18.2 51.65 17.4 51.85 Q14.4 52.25 11.0 51.9 L10.1 52.05 7.15 51.5 Q7.8 50.95 7.8 50.05 L7.95 49.85 8.95 50.2 Q15.5 35.65 13.25 19.85 L12.7 19.4 12.65 18.6 12.65 18.1 13.0 14.0 12.3 13.4 Q12.65 10.6 12.45 7.85 L12.6 7.85 12.7 8.0 12.5 7.25 12.45 7.05 Q11.6 3.8 11.4 0.55 L11.2 -0.45 11.1 -1.2 11.05 -1.45 10.95 -1.75 10.85 -2.45 10.7 -3.6 10.55 -4.2 10.55 -4.25 10.15 -6.0 9.65 -6.9 9.55 -7.25 9.55 -7.15 9.5 -7.25 M-17.95 -24.45 L-18.8 -23.95 -19.25 -23.55 -18.75 -24.05 -18.4 -24.3 -17.95 -24.45" fill="#95632d" fill-rule="evenodd" stroke="none"/>
      <path d="M18.15 51.5 Q21.6 40.8 22.0 29.75 22.55 16.3 21.95 2.75 21.45 -9.9 18.8 -22.65 L18.75 -22.7 18.45 -23.0 18.4 -23.3 18.1 -25.15 18.0 -25.7 17.8 -26.05 17.6 -26.35 17.6 -26.65 17.6 -27.25 17.6 -27.85 17.5 -28.3 17.4 -28.45 17.2 -28.75 17.2 -29.05 17.2 -29.45 16.85 -30.8 16.2 -32.9 15.55 -33.9 15.3 -34.25 15.2 -34.55 15.15 -34.85 15.1 -35.15 Q14.45 -35.85 14.1 -36.7 13.3 -38.55 11.65 -39.5 L11.55 -39.85 11.5 -40.1 11.45 -40.45 10.25 -41.55 Q8.85 -42.6 7.95 -44.05 L5.95 -45.15 5.45 -46.05 Q3.0 -47.8 0.1 -48.8 -1.45 -49.4 -2.9 -50.15 L-3.5 -50.55 Q-5.05 -51.1 -6.6 -50.55 L-8.05 -50.15 -8.25 -49.9 -8.55 -49.65 -11.55 -48.9 -11.6 -48.7 -12.45 -48.5 -12.6 -48.5 -14.1 -47.9 Q-21.0 -35.4 -21.95 -21.8 -21.3 -22.75 -20.95 -23.8 -20.25 -26.25 -17.45 -27.75 L-16.7 -27.7 Q-12.85 -26.65 -9.25 -25.0 0.6 -20.5 5.5 -14.65 L5.6 -14.5 7.5 -11.8 Q8.8 -9.65 9.5 -7.25 L9.55 -7.1 9.55 -7.15 9.55 -7.25 9.65 -6.9 10.4 -4.7 10.55 -4.25 10.55 -4.2 10.7 -3.6 10.85 -2.45 10.95 -1.75 11.15 -0.85 11.2 -0.45 11.4 0.55 Q11.6 3.8 12.45 7.05 L12.35 6.95 12.4 7.65 12.45 7.85 Q12.65 10.6 12.3 13.4 L13.0 14.0 12.65 18.1 12.55 19.25 12.7 19.4 13.25 19.85 Q15.5 35.65 8.95 50.2 L7.95 49.85 5.15 49.0 7.25 48.0 7.35 47.05 8.15 46.7 8.65 44.3 Q12.25 26.0 9.6 7.3 L9.7 5.3 Q9.55 2.95 9.0 0.65 L8.55 -0.85 8.45 -1.25 8.3 -1.65 Q8.1 -2.15 8.2 -2.6 8.45 -4.4 7.4 -5.75 L7.2 -6.5 6.0 -9.95 5.95 -10.1 Q1.2 -20.0 -15.3 -24.35 L-15.95 -24.6 -16.45 -24.65 -16.7 -24.7 -17.0 -24.65 -17.95 -24.45 -18.4 -24.3 -18.75 -24.05 -19.25 -23.55 -19.35 -23.4 -19.85 -22.35 Q-22.0 -21.2 -21.55 -19.1 L-22.1 -18.75 -22.1 -18.1 Q-22.3 -2.15 -18.25 14.35 -16.6 21.3 -12.8 28.3 -11.1 31.6 -9.95 35.0 -8.85 38.3 -6.95 41.5 L-7.0 41.6 -6.85 42.1 -6.6 42.85 Q-4.3 46.5 1.0 49.2 3.9 50.65 7.15 51.5 L10.1 52.05 11.0 51.9 Q14.4 52.25 17.4 51.85 L18.2 51.65 18.35 51.6 18.15 51.5 M12.5 7.25 L12.7 8.0 12.6 7.85 12.4 7.65 12.45 7.3 12.5 7.25 M15.7 -38.2 L16.0 -37.85 17.05 -36.1 17.2 -35.75 17.2 -35.45 17.2 -35.15 Q19.35 -33.2 19.55 -30.3 L19.65 -29.1 Q20.85 -25.95 21.55 -22.65 L21.95 -21.7 22.1 -20.7 22.1 -20.55 22.15 -20.5 23.4 -10.7 24.0 -4.55 23.9 -4.5 Q24.5 2.95 24.4 10.35 24.15 26.25 22.15 42.0 L21.5 48.0 20.75 51.25 Q21.4 51.9 20.25 52.55 18.5 53.45 15.95 53.45 L15.2 53.65 Q9.25 53.85 3.55 51.75 -2.35 49.6 -6.05 46.2 -8.35 44.05 -9.15 41.75 -13.5 32.95 -17.2 23.9 -24.25 6.95 -24.35 -9.95 L-24.2 -17.05 -24.3 -17.05 -24.1 -19.2 -24.1 -19.7 -24.0 -19.75 -24.0 -20.35 -23.95 -20.5 -23.95 -20.65 -23.95 -20.75 Q-23.1 -30.25 -20.6 -39.55 -19.15 -44.95 -15.55 -49.6 L-15.25 -49.6 -15.2 -49.6 -13.45 -50.8 -12.3 -51.3 -11.55 -52.0 -10.1 -53.0 -8.55 -53.05 -8.3 -53.4 -7.9 -53.5 -7.2 -53.55 -7.1 -53.6 -2.55 -52.3 Q0.25 -51.7 3.0 -50.35 5.45 -49.15 7.45 -47.4 L7.7 -47.25 10.15 -44.6 13.4 -41.5 Q14.8 -40.05 15.7 -38.2" fill="#000000" fill-rule="evenodd" stroke="none"/>
      <path d="M9.5 -7.25 L9.55 -7.15 9.55 -7.1 9.5 -7.25 M9.65 -6.9 L10.15 -6.0 10.55 -4.25 10.4 -4.7 9.65 -6.9 M10.95 -1.75 L11.05 -1.45 11.1 -1.2 11.15 -0.85 10.95 -1.75 M12.65 18.1 L12.65 18.6 12.7 19.4 12.55 19.25 12.65 18.1 M7.95 49.85 L7.8 50.05 Q7.8 50.95 7.15 51.5 3.9 50.65 1.0 49.2 -4.3 46.5 -6.6 42.85 L-6.85 42.1 -7.0 41.6 -6.95 41.5 Q-8.85 38.3 -9.95 35.0 -11.1 31.6 -12.8 28.3 -16.6 21.3 -18.25 14.35 -22.3 -2.15 -22.1 -18.1 L-22.1 -18.75 -21.55 -19.1 Q-22.0 -21.2 -19.85 -22.35 L-19.35 -23.4 -19.25 -23.55 -18.8 -23.95 -17.95 -24.45 -17.0 -24.65 -16.7 -24.7 -16.45 -24.65 -15.95 -24.6 -15.3 -24.35 Q1.2 -20.0 5.95 -10.1 L6.0 -9.95 7.2 -6.5 7.4 -5.75 Q8.45 -4.4 8.2 -2.6 8.1 -2.15 8.3 -1.65 L8.45 -1.25 8.55 -0.85 9.0 0.65 Q9.55 2.95 9.7 5.3 L9.6 7.3 Q12.25 26.0 8.65 44.3 L8.15 46.7 7.35 47.05 7.25 48.0 5.15 49.0 7.95 49.85" fill="#d79e4a" fill-rule="evenodd" stroke="none"/>
    </g>
    <g id="shape2" transform="matrix(1.0, 0.0, 0.0, 1.0, 24.1, 16.15)">
      <path d="M0.95 -13.45 L3.9 -11.4 Q8.05 -7.1 6.8 -1.15 5.55 4.65 0.2 7.2 L0.15 7.2 Q-3.15 8.8 -7.1 7.85 -9.65 6.35 -11.25 4.0 -12.05 2.8 -12.3 1.4 -12.95 -6.0 -6.0 -5.25 -1.55 -4.8 -3.65 -1.1 L-3.35 -0.7 -2.75 -0.6 Q-0.85 -4.0 -3.85 -5.8 -5.85 -6.95 -8.2 -6.3 -13.9 -4.6 -13.4 1.4 -12.95 6.75 -6.85 8.7 -3.05 9.95 0.2 8.3 2.55 7.45 4.4 5.7 8.7 1.65 8.4 -4.3 8.1 -10.35 3.05 -13.45 0.2 -15.25 -3.05 -16.05 -17.65 -17.2 -23.25 -4.2 -24.3 -1.8 -24.05 0.85 -23.15 10.0 -14.4 13.35 -10.2 14.95 -5.8 15.65 5.35 17.4 15.3 13.7 18.4 12.25 20.5 11.0 21.3 10.55 23.55 9.85 24.95 8.4 23.0 8.2 18.65 10.45 15.3 12.45 11.55 13.8 6.1 14.6 0.7 15.4 -4.45 14.7 -9.6 14.0 -12.9 12.95 -21.0 10.4 -22.45 2.05 -24.0 -6.95 -16.05 -12.2 -9.65 -16.4 -1.85 -14.4 -0.35 -14.0 0.95 -13.45" fill="#000000" fill-rule="evenodd" stroke="none"/>
    </g>
    <g id="shape3" transform="matrix(1.0, 0.0, 0.0, 1.0, 8.25, 17.5)">
      <path d="M-4.1 -13.8 Q-3.4 -12.0 -2.85 -6.05 -2.25 -0.15 -4.0 4.95 -5.7 9.8 -7.05 11.85 L-8.0 12.85 Q-5.65 13.55 -5.45 14.3 L-5.1 15.4 Q-6.5 16.65 -8.15 16.7 L-8.25 16.75 -8.25 16.85 -8.2 17.15 -8.1 17.25 Q-6.0 17.65 -4.2 16.1 -3.8 14.0 -5.0 13.2 L-6.25 12.35 -4.35 9.5 Q-2.8 7.05 -1.9 0.2 -1.0 -6.6 -2.25 -11.45 -3.55 -16.25 -4.35 -16.6 -4.75 -15.6 -4.1 -13.8 M-0.05 -17.35 L-0.15 -16.45 Q0.25 -14.8 1.5 -13.2 4.85 -8.05 6.5 -2.0 8.75 6.3 3.85 12.6 L4.15 12.6 4.15 12.65 4.1 12.75 4.2 13.05 4.25 13.1 Q5.65 13.7 6.2 15.2 L6.25 15.55 6.15 15.65 5.95 15.95 5.9 16.0 1.6 16.45 1.5 16.65 Q1.4 16.85 1.6 17.0 4.9 18.4 7.15 16.0 7.25 13.95 5.6 12.65 L5.3 12.45 Q7.35 10.2 8.0 6.6 8.8 2.0 7.25 -4.3 5.75 -10.25 0.25 -17.5 L0.1 -17.4 -0.05 -17.35" fill="#000000" fill-rule="evenodd" stroke="none"/>
    </g>
    <g id="shape4" transform="matrix(1.0, 0.0, 0.0, 1.0, 5.45, 19.7)">
      <path d="M-1.9 15.95 L-2.15 15.6 Q-2.35 15.4 -2.5 15.35 L-2.95 15.5 Q-4.9 10.75 -4.1 5.2 -3.15 -1.05 -1.25 -7.15 0.95 -14.1 5.45 -19.1 5.45 -19.5 5.05 -19.6 L4.85 -19.7 Q-0.8 -14.35 -3.0 -6.15 -4.55 -0.35 -5.25 5.5 -5.9 10.85 -4.4 15.6 L-4.1 16.15 Q-5.35 17.2 -5.0 19.4 L-4.9 19.6 Q-4.45 19.9 -4.1 19.4 L-4.05 19.2 -4.05 18.8 -4.05 18.25 -3.6 17.45 -3.25 16.95 Q-2.55 16.75 -2.05 16.2 L-1.9 15.95" fill="#000000" fill-rule="evenodd" stroke="none"/>
    </g>
    <g id="shape5" transform="matrix(1.0, 0.0, 0.0, 1.0, 11.75, 6.95)">
      <path d="M4.55 -6.5 L4.45 -6.6 4.35 -6.65 Q0.6 -7.5 -2.65 -5.9 -4.2 -5.1 -5.35 -3.8 L-5.6 -3.7 -5.8 -3.55 -5.85 -3.5 -6.25 -4.05 -7.65 -5.5 -7.7 -5.5 -7.85 -5.55 -7.85 -5.6 Q-9.65 -6.05 -10.95 -4.95 L-11.1 -4.85 -11.2 -4.65 -11.2 -4.6 -11.3 -4.55 -11.3 -4.5 -11.35 -4.4 -11.35 -4.35 -11.4 -4.3 -11.45 -4.3 -11.45 -4.25 -11.5 -3.8 -11.6 -3.6 -11.6 -3.45 -11.65 -3.3 -11.65 -3.25 -11.65 -2.95 -11.75 -1.45 -11.7 -1.0 -11.65 -0.95 -11.45 -0.3 -11.3 -0.25 -11.3 -0.1 -11.2 -0.05 -11.0 0.1 -10.85 0.2 -7.4 0.1 -6.9 -0.1 -6.75 -0.25 -6.7 -0.3 -6.65 0.1 Q-6.55 2.5 -4.8 4.4 L-4.7 4.65 Q-3.45 6.1 -1.6 6.7 L-1.35 6.85 2.2 6.95 2.9 6.95 Q5.5 6.0 7.3 3.95 8.15 3.05 8.35 1.9 L8.7 1.95 8.7 1.7 8.4 1.55 8.3 0.2 8.3 0.1 8.25 0.05 8.6 0.1 9.85 0.15 9.95 0.1 10.5 -0.1 11.35 -0.8 11.35 -0.85 11.5 -1.0 11.5 -1.05 11.7 -1.55 11.75 -1.85 11.8 -2.15 11.8 -2.6 11.7 -2.75 11.65 -2.9 11.6 -3.0 11.3 -3.45 10.8 -3.8 10.7 -3.95 10.5 -4.0 9.95 -4.15 9.95 -4.2 9.8 -4.2 Q8.15 -4.0 6.9 -2.75 5.55 -4.9 3.45 -6.2 L4.45 -6.3 4.55 -6.35 4.55 -6.5 M10.65 -3.65 L10.65 -3.6 10.65 -3.65 M7.5 -1.7 L7.25 -2.05 7.2 -2.15 7.25 -2.35 7.4 -2.45 7.5 -2.55 Q8.1 -3.1 8.85 -3.35 L8.9 -3.45 8.95 -3.45 9.3 -3.5 10.2 -3.45 10.25 -3.45 11.05 -2.7 11.05 -2.6 11.25 -2.3 11.3 -2.25 11.3 -2.1 11.25 -1.8 11.25 -1.5 11.15 -1.35 10.4 -0.65 10.4 -0.55 9.75 -0.5 9.65 -0.5 8.15 -0.6 7.85 -1.1 7.5 -1.7 M7.0 -1.4 L7.8 -0.25 7.8 0.1 7.8 1.2 7.85 1.35 6.55 1.05 3.6 0.5 3.2 0.4 0.95 0.25 0.85 0.2 0.25 0.2 0.2 0.2 -0.5 0.3 -0.6 0.3 -0.7 0.3 -1.05 0.3 -1.05 0.35 -1.9 0.45 -2.0 0.5 -3.0 0.6 Q-4.8 0.8 -5.65 2.05 L-5.6 2.1 -5.4 2.15 -5.1 2.2 -4.4 1.7 Q-2.75 0.9 -0.85 0.95 L-0.8 0.9 0.2 0.75 0.5 0.75 1.0 0.8 2.05 0.9 3.1 1.0 3.7 1.1 7.8 1.8 7.8 2.4 Q7.4 3.45 6.55 4.1 L5.75 4.85 5.65 4.9 5.65 4.95 5.6 4.95 4.95 5.4 4.9 5.4 4.85 5.45 4.75 5.6 2.8 6.4 2.7 6.45 -1.25 6.3 -3.6 5.2 Q-4.15 4.9 -4.3 4.3 L-4.45 4.05 -4.45 4.0 -5.55 2.5 -5.6 2.3 -6.2 -0.55 -6.2 -0.6 -6.2 -0.65 -6.2 -0.75 -6.2 -1.05 -5.8 -2.35 -5.75 -2.55 -5.6 -2.85 -4.8 -3.7 -4.75 -3.75 -2.6 -5.45 -2.5 -5.55 -1.95 -5.7 Q0.1 -6.7 2.4 -6.2 4.3 -5.3 5.55 -3.7 L6.7 -1.95 6.95 -1.5 7.0 -1.4 M-6.9 -1.05 L-7.0 -0.85 -7.1 -0.7 -7.7 -0.55 -8.45 -0.2 -8.85 -0.1 -9.9 -0.2 -10.7 -0.45 -10.8 -0.5 -11.05 -0.8 -11.1 -0.85 -11.2 -0.95 -11.3 -1.35 -11.3 -1.45 -11.1 -3.2 -11.1 -3.25 -11.1 -3.3 -11.05 -3.45 -11.0 -3.6 -10.95 -3.65 -10.8 -3.8 -10.7 -3.9 -10.7 -4.05 -10.3 -4.6 -10.2 -4.75 -10.15 -4.8 -10.05 -4.85 -10.05 -4.9 -9.95 -4.95 -9.6 -5.0 -7.9 -5.0 -7.3 -4.45 Q-6.55 -3.95 -6.25 -3.1 L-6.2 -3.05 -6.15 -3.05 -6.15 -3.0 -6.2 -2.8 -6.3 -2.55 -6.55 -1.7 -6.8 -1.15 -6.9 -1.05 M2.9 1.55 L2.75 1.3 2.7 1.3 2.65 1.3 Q2.4 1.2 2.35 1.5 L2.45 1.75 2.9 1.7 2.9 1.55 M1.05 1.2 L1.0 1.4 Q0.95 1.7 1.25 1.85 L1.55 1.75 1.6 1.65 1.65 1.6 1.6 1.25 1.5 1.15 1.4 1.15 1.2 1.1 Q1.15 1.1 1.05 1.2" fill="#000000" fill-rule="evenodd" stroke="none"/>
      <path d="M7.85 -1.1 L8.15 -0.6 9.65 -0.5 9.75 -0.5 10.4 -0.55 10.4 -0.65 11.15 -1.35 11.25 -1.5 11.25 -1.8 11.3 -2.1 11.3 -2.25 11.25 -2.3 11.05 -2.6 11.05 -2.7 10.25 -3.45 10.2 -3.45 9.3 -3.5 8.95 -3.45 8.9 -3.45 8.85 -3.35 Q8.1 -3.1 7.5 -2.55 L7.4 -2.45 7.25 -2.35 7.2 -2.15 7.25 -2.05 7.5 -1.7 7.8 -2.1 8.65 -2.75 Q9.5 -2.85 10.0 -2.3 L10.05 -2.2 10.1 -2.0 10.15 -1.95 10.2 -1.9 10.2 -1.75 10.2 -1.7 10.0 -1.25 9.65 -1.0 8.5 -0.85 8.0 -1.05 7.85 -1.1 M7.0 -1.4 L6.95 -1.5 6.7 -1.95 5.55 -3.7 Q4.3 -5.3 2.4 -6.2 0.1 -6.7 -1.95 -5.7 L-2.5 -5.55 -2.6 -5.45 -4.75 -3.75 -4.8 -3.7 -5.6 -2.85 -5.75 -2.55 -5.8 -2.35 -6.2 -1.05 -6.2 -0.75 -6.2 -0.65 -6.2 -0.6 -6.2 -0.55 -5.6 2.3 -5.55 2.5 -5.5 2.4 -5.4 2.15 -5.6 2.1 -5.65 2.05 Q-4.8 0.8 -3.0 0.6 L-2.0 0.5 -1.9 0.45 -1.05 0.35 -1.05 0.3 -0.7 0.3 -0.6 0.3 -0.5 0.3 0.2 0.2 0.25 0.2 0.85 0.2 0.95 0.25 3.2 0.4 3.6 0.5 6.55 1.05 7.85 1.35 7.8 1.2 7.8 0.1 7.8 -0.25 7.0 -1.4 M-6.25 -3.1 Q-6.55 -3.95 -7.3 -4.45 L-7.9 -5.0 -9.6 -5.0 -9.95 -4.95 -10.05 -4.9 -10.05 -4.85 -10.15 -4.8 -10.2 -4.75 -10.3 -4.6 -10.7 -4.05 -10.7 -3.9 -10.8 -3.8 -10.95 -3.65 -11.0 -3.6 -11.05 -3.45 -11.1 -3.3 -11.1 -3.25 -11.1 -3.2 -11.3 -1.45 -11.3 -1.35 -11.2 -0.95 -11.1 -0.85 -11.05 -0.8 -10.8 -0.5 -10.7 -0.45 -9.9 -0.2 -8.85 -0.1 -8.45 -0.2 -7.7 -0.55 -7.1 -0.7 -7.0 -0.85 -6.9 -1.05 Q-7.8 -0.85 -8.65 -1.4 L-8.85 -1.45 -9.05 -1.75 -9.25 -1.95 -9.4 -2.1 -9.45 -2.2 -9.45 -2.35 -9.4 -2.8 -9.3 -2.95 -9.25 -3.0 -9.0 -3.2 -8.9 -3.3 -8.85 -3.3 Q-8.6 -3.4 -8.45 -3.55 -7.55 -3.7 -6.9 -3.15 L-6.85 -3.1 -6.85 -3.05 -6.85 -3.0 -6.8 -3.0 -6.5 -2.8 -6.4 -2.75 -6.4 -2.7 -6.4 -2.6 -6.35 -2.6 -6.3 -2.55 -6.2 -2.8 -6.15 -3.0 -6.15 -3.05 -6.2 -3.05 -6.25 -3.1 M-9.85 -3.05 L-9.9 -3.0 -9.9 -2.9 -9.95 -2.8 -9.85 -3.05" fill="#95632d" fill-rule="evenodd" stroke="none"/>
      <path d="M7.85 -1.1 L8.0 -1.05 8.5 -0.85 9.65 -1.0 10.0 -1.25 10.2 -1.7 10.2 -1.75 10.2 -1.9 10.15 -1.95 10.1 -2.0 10.05 -2.2 10.0 -2.3 Q9.5 -2.85 8.65 -2.75 L7.8 -2.1 7.5 -1.7 7.85 -1.1 M6.95 -1.5 L7.0 -1.4 6.95 -1.5 M-5.4 2.15 L-5.5 2.4 -5.55 2.5 -4.45 4.0 -4.45 4.05 -4.3 4.3 Q-4.15 4.9 -3.6 5.2 L-1.25 6.3 2.7 6.45 2.8 6.4 4.75 5.6 4.85 5.45 4.9 5.4 4.95 5.4 5.6 4.95 5.65 4.95 5.65 4.9 5.75 4.85 6.55 4.1 Q7.4 3.45 7.8 2.4 L7.8 1.8 3.7 1.1 3.1 1.0 2.05 0.9 1.0 0.8 0.5 0.75 0.2 0.75 -0.8 0.9 -0.85 0.95 Q-2.75 0.9 -4.4 1.7 L-5.1 2.2 -5.4 2.15 M-6.3 -2.55 L-6.35 -2.6 -6.4 -2.6 -6.4 -2.7 -6.4 -2.75 -6.5 -2.8 -6.8 -3.0 -6.85 -3.0 -6.85 -3.05 -6.85 -3.1 -6.9 -3.15 Q-7.55 -3.7 -8.45 -3.55 -8.6 -3.4 -8.85 -3.3 L-8.9 -3.3 -9.0 -3.2 -9.25 -3.0 -9.3 -2.95 -9.4 -2.8 -9.45 -2.35 -9.45 -2.2 -9.4 -2.1 -9.25 -1.95 -9.05 -1.75 -8.85 -1.45 -8.65 -1.4 Q-7.8 -0.85 -6.9 -1.05 L-6.8 -1.15 -6.55 -1.7 -6.3 -2.55 M-9.85 -3.05 L-9.95 -2.8 -9.9 -2.9 -9.9 -3.0 -9.85 -3.05 M1.05 1.2 Q1.15 1.1 1.2 1.1 L1.4 1.15 1.5 1.15 1.6 1.25 1.65 1.6 1.6 1.65 1.55 1.75 1.25 1.85 Q0.95 1.7 1.0 1.4 L1.05 1.2 M2.9 1.55 L2.9 1.7 2.45 1.75 2.35 1.5 Q2.4 1.2 2.65 1.3 L2.7 1.3 2.75 1.3 2.9 1.55" fill="#d79e4a" fill-rule="evenodd" stroke="none"/>
    </g>
    <g id="sprite0" transform="matrix(1.0, 0.0, 0.0, 1.0, 16.2, 5.05)">
      <use ffdec:characterId="5" height="4.5" transform="matrix(1.0, 0.0, 0.0, 1.0, -7.65, -2.25)" width="15.3" xlink:href="#shape6"/>
    </g>
    <g id="shape6" transform="matrix(1.0, 0.0, 0.0, 1.0, 7.65, 2.25)">
      <path d="M7.6 -0.15 L7.6 0.5 Q0.1 3.55 -7.65 1.25 L-7.5 0.6 -6.9 -0.25 -6.15 -1.0 Q-1.9 -0.55 0.6 -2.25 L3.85 -1.55 7.1 -1.0 7.6 -0.15" fill="#000000" fill-rule="evenodd" stroke="none"/>
    </g>
    <g id="sprite1" transform="matrix(1.0, 0.0, 0.0, 1.0, 23.5, 12.3)">
      <use ffdec:characterId="12" height="17.25" transform="matrix(1.0, 0.0, 0.0, 1.0, -21.25, -10.1)" width="34.95" xlink:href="#shape7"/>
      <use ffdec:characterId="14" height="7.8" transform="matrix(1.0, 0.0, 0.0, 1.0, -16.85, -2.6)" width="25.55" xlink:href="#sprite2"/>
      <use ffdec:characterId="15" height="21.6" transform="matrix(1.0, 0.0, 0.0, 1.0, -23.5, -12.3)" width="39.4" xlink:href="#shape9"/>
    </g>
    <g id="shape7" transform="matrix(1.0, 0.0, 0.0, 1.0, 21.25, 10.1)">
      <path d="M5.7 -3.5 L6.05 -3.65 Q8.4 -4.15 10.45 -3.25 14.2 -1.65 13.65 2.6 13.55 3.45 13.05 4.05 L13.0 4.05 Q12.15 5.5 9.65 5.75 4.25 6.25 1.75 1.95 L1.6 1.85 1.5 1.45 1.45 1.4 1.4 0.8 1.4 -0.35 Q1.6 -1.85 3.15 -2.45 L5.7 -3.5" fill="#ffffff" fill-rule="evenodd" stroke="none"/>
      <path d="M-20.35 -6.45 L-19.75 -7.25 Q-16.65 -9.65 -12.7 -9.9 -7.05 -10.85 -3.5 -6.9 -0.55 -3.6 -1.1 0.95 -1.35 3.2 -3.25 4.65 -5.15 6.2 -7.5 6.7 L-12.95 7.15 -14.6 6.7 Q-15.35 6.3 -16.15 6.0 -17.95 5.4 -18.85 3.85 -20.95 2.45 -21.2 -0.1 -21.5 -3.5 -20.35 -6.45" fill="#ffffff" fill-rule="evenodd" stroke="none"/>
    </g>
    <g id="sprite2" transform="matrix(1.0, 0.0, 0.0, 1.0, 2.75, 0.0)">
      <use ffdec:characterId="13" height="5.35" transform="matrix(1.0, 0.0, 0.0, 1.0, 0.0, 0.0)" width="22.8" xlink:href="#shape8"/>
    </g>
    <g id="shape8" transform="matrix(1.0, 0.0, 0.0, 1.0, 2.75, -2.45)">
      <path d="M20.05 6.1 Q20.1 6.9 19.55 7.35 L18.6 7.8 18.5 7.8 17.9 7.65 17.35 7.5 16.75 6.95 Q16.25 6.45 16.35 5.8 L16.4 5.75 16.5 5.45 17.2 4.75 17.55 4.7 Q18.9 4.3 19.7 5.2 20.05 5.55 20.05 6.1" fill="#000000" fill-rule="evenodd" stroke="none"/>
      <path d="M1.1 3.95 Q1.3 5.05 0.7 5.9 0.5 6.25 0.0 6.3 -2.4 6.65 -2.7 4.4 -2.9 3.0 -1.65 2.55 -0.55 2.3 0.25 2.8 0.9 3.25 1.1 3.95" fill="#000000" fill-rule="evenodd" stroke="none"/>
    </g>
    <g id="shape9" transform="matrix(1.0, 0.0, 0.0, 1.0, 23.5, 12.3)">
      <path d="M1.4 -3.5 L1.95 -3.95 Q3.6 -5.2 5.4 -5.65 L5.45 -5.75 10.95 -5.5 11.45 -4.7 11.5 -4.6 11.9 -4.5 11.95 -4.5 12.1 -4.4 12.9 -3.85 Q15.7 -1.75 15.9 1.25 L15.65 2.75 15.55 3.1 12.35 6.85 Q11.8 6.95 11.35 7.3 L8.15 7.3 3.75 6.35 2.35 5.85 2.05 5.65 -0.15 2.7 -0.2 2.05 -0.25 0.25 -0.1 -1.4 -0.05 -1.75 1.1 -3.5 1.4 -3.5 M3.15 -2.45 Q1.6 -1.85 1.4 -0.35 L1.4 0.8 1.45 1.4 1.5 1.45 1.6 1.85 1.75 1.95 Q4.25 6.25 9.65 5.75 12.15 5.5 13.0 4.05 L13.05 4.05 Q13.55 3.45 13.65 2.6 14.2 -1.65 10.45 -3.25 8.4 -4.15 6.05 -3.65 L5.7 -3.5 3.15 -2.45" fill="#000000" fill-rule="evenodd" stroke="none"/>
      <path d="M0.85 -1.4 L0.85 1.3 0.9 1.5 Q0.15 3.1 -0.35 4.8 L-1.85 6.1 -2.9 7.0 Q-5.4 8.6 -8.3 9.25 L-8.35 9.3 -17.8 8.0 -18.55 7.25 -21.55 4.25 -22.3 3.5 -22.3 2.95 Q-23.65 1.2 -23.5 -1.2 L-23.15 -4.4 -22.75 -6.1 -22.3 -6.6 -22.3 -7.0 -21.2 -8.55 -19.65 -9.75 Q-16.8 -11.35 -14.05 -12.25 -4.75 -13.0 -0.3 -5.45 -0.2 -4.75 0.35 -4.0 L0.85 -1.4 M-20.35 -6.45 Q-21.5 -3.5 -21.2 -0.1 -20.95 2.45 -18.85 3.85 -17.95 5.4 -16.15 6.0 -15.35 6.3 -14.6 6.7 L-12.95 7.15 -7.5 6.7 Q-5.15 6.2 -3.25 4.65 -1.35 3.2 -1.1 0.95 -0.55 -3.6 -3.5 -6.9 -7.05 -10.85 -12.7 -9.9 -16.65 -9.65 -19.75 -7.25 L-20.35 -6.45" fill="#000000" fill-rule="evenodd" stroke="none"/>
    </g>
    <g id="shape10" transform="matrix(1.0, 0.0, 0.0, 1.0, -52.45, 1.85)">
      <path d="M52.95 16.8 Q60.45 21.45 67.25 16.6 74.15 11.75 77.7 3.9 L79.95 -1.35 M80.4 -1.35 Q84.35 1.55 79.95 3.0" fill="none" stroke="#000000" stroke-linecap="round" stroke-linejoin="round" stroke-width="1.0"/>
    </g>
    <g id="shape11" transform="matrix(1.0, 0.0, 0.0, 1.0, 38.0, -4.15)">
      <path d="M-27.45 5.5 L-27.65 5.6 -27.85 5.7 Q-31.2 7.4 -33.2 9.7 L-33.35 9.75 -33.95 10.35 -34.0 10.7 Q-35.55 12.75 -36.1 15.3 L-36.45 17.85 -33.45 16.95 -31.05 15.45 -29.95 14.3 Q-29.4 13.8 -29.3 13.15 L-29.2 13.35 -29.1 13.2 -28.1 11.35 Q-27.6 10.1 -27.4 8.8 L-27.25 6.55 -27.35 5.6 -27.45 5.5 M-27.8 4.4 L-27.75 4.35 -27.45 4.25 -27.2 4.15 Q-26.85 5.45 -26.9 6.9 L-27.2 9.2 Q-27.6 11.0 -28.55 12.55 -29.5 14.15 -30.9 15.5 -32.15 16.7 -33.85 17.5 -35.65 18.3 -37.65 18.1 L-38.0 18.15 Q-37.9 15.2 -36.05 11.95 -33.1 6.9 -27.8 4.4" fill="#000000" fill-rule="evenodd" stroke="none"/>
    </g>
    <g id="shape12" transform="matrix(1.0, 0.0, 0.0, 1.0, 6.85, 3.25)">
      <path d="M-4.7 -2.6 L-4.4 -2.65 -3.3 -2.5 -2.55 -1.95 -1.95 -1.25 Q-1.0 0.1 -1.6 1.45 -3.35 2.85 -4.6 1.75 -6.5 -0.65 -4.7 -2.6" fill="#ff0000" fill-rule="evenodd" stroke="none"/>
      <path d="M-4.4 -2.65 Q-4.3 -3.15 -2.9 -3.25 0.25 -1.85 -0.45 2.05 L-1.0 2.6 Q-5.95 4.3 -6.5 1.5 L-6.85 -0.35 Q-6.7 -2.85 -4.7 -2.6 -6.5 -0.65 -4.6 1.75 -3.35 2.85 -1.6 1.45 -1.0 0.1 -1.95 -1.25 L-2.55 -1.95 -3.3 -2.5 -4.4 -2.65" fill="#000000" fill-rule="evenodd" stroke="none"/>
      <path d="M-1.0 0.05 L6.2 0.1 Q6.65 0.1 6.8 -0.4 L6.75 -0.55 Q6.75 -1.05 6.2 -1.05 L6.2 -1.1 -1.05 -0.75 -1.35 -0.45 -1.3 -0.3 -1.0 0.05" fill="#000000" fill-rule="evenodd" stroke="none"/>
      <path d="M-4.45 0.55 Q-4.9 0.85 -5.25 0.4 -6.25 -0.9 -4.65 -1.35 -2.75 -0.55 -4.45 0.55" fill="#ffffff" fill-rule="evenodd" stroke="none"/>
    </g>
    <g id="shape13" transform="matrix(1.0, 0.0, 0.0, 1.0, 38.0, -3.2)">
      <path d="M-12.9 6.1 Q-5.5 10.1 -5.05 18.4 -4.65 25.55 -11.4 28.75 -18.05 31.95 -25.5 30.4 -30.65 29.4 -34.45 25.65 -37.65 22.45 -37.9 18.75 L-37.95 18.75 -37.95 18.15 -38.0 18.15 Q-37.9 15.2 -36.05 11.95 -33.1 6.9 -27.8 4.4 L-27.75 4.35 -27.6 4.3 -27.7 4.1 -25.4 3.2 -24.95 3.2 -25.05 3.3 Q-18.6 3.0 -12.9 6.1 M-8.0 24.35 Q-4.8 19.6 -7.5 13.8 -9.1 10.3 -12.55 7.75 -18.85 3.25 -26.25 4.8 L-26.25 5.9 Q-26.0 9.6 -27.6 12.85 -28.4 14.35 -29.7 15.35 -32.85 17.65 -36.4 18.45 -36.4 22.5 -33.7 25.0 -30.0 28.4 -23.9 29.3 -16.6 30.45 -10.5 26.7 -9.0 25.75 -8.0 24.35 M-27.35 5.6 L-27.45 5.5 -27.65 5.6 -27.85 5.7 Q-31.45 7.55 -33.55 10.05 L-33.5 10.1 -33.8 10.5 -33.85 10.45 Q-35.5 12.6 -36.1 15.3 L-36.45 17.65 -33.75 16.85 Q-32.0 16.15 -30.7 15.0 L-29.85 14.15 -29.95 14.1 -29.35 13.05 -29.3 13.1 -29.2 13.35 -29.1 13.2 -28.1 11.35 Q-27.6 10.1 -27.4 8.8 L-27.25 6.55 -27.35 5.6" fill="#000000" fill-rule="evenodd" stroke="none"/>
      <path d="M-8.0 24.35 Q-9.0 25.75 -10.5 26.7 -16.6 30.45 -23.9 29.3 -30.0 28.4 -33.7 25.0 -36.4 22.5 -36.4 18.45 -32.85 17.65 -29.7 15.35 -28.4 14.35 -27.6 12.85 -26.0 9.6 -26.25 5.9 L-26.25 4.8 Q-18.85 3.25 -12.55 7.75 -9.1 10.3 -7.5 13.8 -4.8 19.6 -8.0 24.35" fill="#ff9900" fill-rule="evenodd" stroke="none"/>
      <path d="M-7.5 13.8 Q-4.8 19.6 -8.0 24.35 -9.0 25.75 -10.5 26.7 -16.6 30.45 -23.9 29.3 -30.0 28.4 -33.7 25.0 -36.4 22.5 -36.4 18.45 -32.85 17.65 -29.7 15.35 -28.4 14.35 -27.6 12.85 -26.0 9.6 -26.25 5.9 L-26.25 4.8 Q-18.85 3.25 -12.55 7.75 -9.1 10.3 -7.5 13.8" fill="url(#gradient0)" fill-rule="evenodd" stroke="none"/>
    </g>
    <radialGradient cx="0" cy="0" gradientTransform="matrix(0.0385, 0.0, 0.0, 0.0276, -15.35, 8.15)" gradientUnits="userSpaceOnUse" id="gradient0" r="819.2" spreadMethod="pad">
      <stop offset="0.0" stop-color="#febf74"/>
      <stop offset="0.4980392156862745" stop-color="#ff9900"/>
      <stop offset="1.0" stop-color="#ff6600"/>
    </radialGradient>
    <g id="shape14" transform="matrix(1.0, 0.0, 0.0, 1.0, 36.4, -5.45)">
      <path d="M-36.05 15.3 L-36.2 14.9 Q-34.85 10.85 -31.4 7.85 -30.65 9.15 -30.6 10.2 -30.55 11.2 -31.4 12.75 -32.3 14.3 -36.05 15.3" fill="#999999" fill-rule="evenodd" stroke="none"/>
      <path d="M-31.4 7.85 L-31.2 7.85 -30.8 7.55 -30.3 7.2 -27.5 5.45 Q-27.0 7.95 -27.85 10.65 -28.75 13.3 -30.45 14.9 -32.2 16.5 -34.65 17.25 L-36.4 17.55 -36.25 16.25 -36.1 15.5 -36.05 15.3 Q-32.3 14.3 -31.4 12.75 -30.55 11.2 -30.6 10.2 -30.65 9.15 -31.4 7.85" fill="#cccccc" fill-rule="evenodd" stroke="none"/>
      <path d="M-30.5 10.9 Q-31.05 11.2 -31.45 10.7 -32.75 9.1 -30.75 8.55 -28.4 9.55 -30.5 10.9" fill="#ffffff" fill-rule="evenodd" stroke="none"/>
    </g>
    <g id="shape15" transform="matrix(1.0, 0.0, 0.0, 1.0, 5.6, 5.7)">
      <path d="M0.35 -5.0 L3.7 -0.2 3.75 0.8 1.9 4.0 0.6 4.05 -5.1 2.1 0.05 -5.2 0.35 -5.0" fill="#ff0000" fill-rule="evenodd" stroke="none"/>
      <path d="M0.35 -5.0 L3.7 -0.2 M0.6 4.05 L-5.1 2.1 0.05 -5.2" fill="none" stroke="#000000" stroke-linecap="round" stroke-linejoin="round" stroke-width="1.0"/>
      <path d="M-1.3 2.0 Q-1.75 2.25 -2.05 1.8 -3.0 0.6 -1.5 0.2 0.3 0.95 -1.3 2.0" fill="#ffffff" fill-rule="evenodd" stroke="none"/>
    </g>
    <g id="shape16" transform="matrix(1.0, 0.0, 0.0, 1.0, 36.45, -5.2)">
      <path d="M-27.3 5.2 L-27.2 6.5 Q-27.15 9.05 -28.0 11.15 -29.05 13.75 -31.15 15.5 -33.45 17.45 -36.45 17.65 -36.3 15.25 -35.4 13.1 -34.5 10.95 -33.0 9.35 -31.45 7.7 -29.8 6.6 L-29.7 6.5 Q-28.15 5.45 -27.3 5.2" fill="#000000" fill-rule="evenodd" stroke="none"/>
    </g>
    <g id="shape17" transform="matrix(1.0, 0.0, 0.0, 1.0, 36.45, -5.2)">
      <path d="M-28.0 11.15 Q-29.05 13.75 -31.15 15.5 -33.45 17.45 -36.45 17.65 -36.3 15.25 -35.4 13.1 -34.5 10.95 -33.0 9.35 -31.45 7.7 -29.8 6.6 L-29.7 6.5 Q-28.15 5.45 -27.3 5.2 L-27.2 6.5 Q-27.15 9.05 -28.0 11.15" fill="#ff9900" fill-rule="evenodd" stroke="none"/>
    </g>
    <g id="sprite3" transform="matrix(1.0, 0.0, 0.0, 1.0, 0.0, 0.0)">
      <use ffdec:characterId="42" height="40.0" transform="matrix(0.4, 0.0, 0.0, 0.5, 0.0, 0.0)" width="50.0" xlink:href="#shape18"/>
    </g>
    <g id="shape18" transform="matrix(1.0, 0.0, 0.0, 1.0, 0.0, 0.0)">
      <path d="M50.0 0.0 L50.0 40.0 0.0 40.0 0.0 0.0 50.0 0.0" fill="#ffffff" fill-opacity="0.0" fill-rule="evenodd" stroke="none"/>
    </g>
    <g id="sprite4" transform="matrix(1.0, 0.0, 0.0, 1.0, -0.05, 0.0)">
      <use ffdec:characterId="304" height="20.0" transform="matrix(1.0, 0.0, 0.0, 1.0, 0.05, 0.0)" width="20.0" xlink:href="#shape19"/>
    </g>
    <g id="shape19" transform="matrix(1.0, 0.0, 0.0, 1.0, -0.05, 0.0)">
      <path d="M10.05 20.0 Q5.9 20.0 2.95 17.05 0.0 14.1 0.05 10.0 0.0 5.85 2.95 2.9 5.9 0.0 10.05 0.0 14.15 0.0 17.1 2.9 20.05 5.85 20.05 10.0 20.05 14.1 17.1 17.05 14.15 20.0 10.05 20.0" fill="#ffffff" fill-opacity="0.0" fill-rule="evenodd" stroke="none"/>
    </g>
  </defs>
</svg>
