<?xml version="1.0" encoding="UTF-8" standalone="no"?>
<svg xmlns:ffdec="https://www.free-decompiler.com/flash" xmlns:xlink="http://www.w3.org/1999/xlink" ffdec:objectType="frame" height="110.8px" width="126.55px" xmlns="http://www.w3.org/2000/svg">
  <g transform="matrix(1.0, 0.0, 0.0, 1.0, 125.65, 69.65)">
    <use ffdec:characterId="343" height="3.6" transform="matrix(0.893, -0.4467, 0.4467, 0.893, -108.3345, 8.983)" width="1.35" xlink:href="#shape0"/>
    <use ffdec:characterId="297" height="0.25" transform="matrix(1.0, 0.0, 0.0, 1.0, -113.25, 13.1)" width="0.15" xlink:href="#shape1"/>
    <use ffdec:characterId="298" height="107.25" transform="matrix(0.2027, -0.067, 0.067, 0.2027, -86.1265, -22.6343)" width="48.75" xlink:href="#shape2"/>
    <use ffdec:characterId="344" height="36.65" transform="matrix(1.0, 0.0, 0.0, 1.0, -123.2, -23.85)" width="51.5" xlink:href="#morphshape0"/>
    <use ffdec:characterId="345" height="32.3" transform="matrix(1.0, 0.0, 0.0, 1.0, -69.4, -26.8)" width="60.9" xlink:href="#morphshape1"/>
    <use ffdec:characterId="346" height="35.0" transform="matrix(0.9988, 0.0313, 0.2667, 1.0099, -82.095, -3.2806)" width="16.5" xlink:href="#shape3"/>
    <use ffdec:characterId="347" height="46.35" transform="matrix(1.0, 0.0, 0.0, 1.0, -116.9, -23.1)" width="62.5" xlink:href="#morphshape2"/>
    <use ffdec:characterId="348" height="13.95" transform="matrix(0.9996, 0.0226, -0.0226, 0.9996, -96.1378, -35.4132)" width="23.55" xlink:href="#shape4"/>
    <use ffdec:characterId="11" height="9.05" transform="matrix(0.1957, -0.0244, 0.0244, 0.1957, -88.644, -24.4431)" width="34.15" xlink:href="#sprite0"/>
    <use ffdec:characterId="17" height="21.6" transform="matrix(0.2276, -0.0284, 0.0284, 0.2276, -90.747, -32.3312)" width="39.4" xlink:href="#sprite1"/>
    <use ffdec:characterId="312" height="6.5" transform="matrix(0.75, 0.0, 0.0, 1.0, -30.9875, 20.85)" width="13.65" xlink:href="#shape9"/>
    <use ffdec:characterId="349" height="27.7" transform="matrix(1.0, 0.0, 0.0, 1.0, -49.2, 3.2)" width="44.15" xlink:href="#shape10"/>
    <use ffdec:characterId="352" height="13.45" transform="matrix(1.0, 0.0, 0.0, 1.0, -36.95, 4.7)" width="10.25" xlink:href="#shape11"/>
    <use ffdec:characterId="303" height="20.0" id="mcHitTestMonkey" transform="matrix(1.956, 0.0, 0.0, 3.7691, -86.15, -42.65)" width="20.0" xlink:href="#sprite3"/>
    <use ffdec:characterId="305" height="20.0" id="mcHitTestCannon" transform="matrix(1.75, 0.0, 0.0, 1.75, -38.5125, 0.25)" width="20.0" xlink:href="#sprite4"/>
  </g>
  <defs>
    <g id="shape0" transform="matrix(1.0, 0.0, 0.0, 1.0, 0.65, 1.8)">
      <path d="M0.2 -1.3 L0.05 0.95 -0.15 1.3" ffdec:has-small-stroke="true" ffdec:original-stroke-width="1.0" fill="none" stroke="#000000" stroke-linecap="round" stroke-linejoin="round" stroke-width="1.0015100128161718"/>
    </g>
    <g id="shape1" transform="matrix(1.0, 0.0, 0.0, 1.0, 0.05, 0.1)">
      <path d="M0.05 0.15 L-0.05 0.0 0.1 -0.1 0.1 -0.05 0.05 0.15" fill="#ff9900" fill-rule="evenodd" stroke="none"/>
    </g>
    <g id="shape2" transform="matrix(1.0, 0.0, 0.0, 1.0, 24.35, 53.6)">
      <path d="M9.5 -7.25 Q8.8 -9.65 7.5 -11.8 L5.6 -14.5 5.5 -14.65 Q0.6 -20.5 -9.25 -25.0 -12.85 -26.65 -16.7 -27.7 L-17.45 -27.75 Q-20.25 -26.25 -20.95 -23.8 -21.3 -22.75 -21.95 -21.8 -21.0 -35.4 -14.1 -47.9 L-12.6 -48.5 -12.45 -48.5 -11.6 -48.7 -11.55 -48.9 -8.55 -49.65 -8.25 -49.9 -8.05 -50.15 -6.6 -50.55 Q-5.05 -51.1 -3.5 -50.55 L-2.9 -50.15 Q-1.45 -49.4 0.1 -48.8 3.0 -47.8 5.45 -46.05 L5.95 -45.15 7.95 -44.05 Q8.85 -42.6 10.25 -41.55 L11.45 -40.45 11.5 -40.1 11.55 -39.85 11.65 -39.5 Q13.3 -38.55 14.1 -36.7 14.45 -35.85 15.1 -35.15 L15.15 -34.85 15.2 -34.55 15.3 -34.25 15.55 -33.9 16.2 -32.9 16.85 -30.8 17.2 -29.45 17.2 -29.05 17.2 -28.75 17.4 -28.45 17.5 -28.3 17.6 -27.85 17.6 -27.25 17.6 -26.65 17.6 -26.35 17.8 -26.05 18.0 -25.7 18.1 -25.15 18.4 -23.3 18.45 -23.0 18.75 -22.7 18.8 -22.65 Q21.45 -9.9 21.95 2.75 22.55 16.3 22.0 29.75 21.6 40.8 18.15 51.5 L18.2 51.65 17.4 51.85 Q14.4 52.25 11.0 51.9 L10.1 52.05 7.15 51.5 Q7.8 50.95 7.8 50.05 L7.95 49.85 8.95 50.2 Q15.5 35.65 13.25 19.85 L12.7 19.4 12.65 18.6 12.65 18.1 13.0 14.0 12.3 13.4 Q12.65 10.6 12.45 7.85 L12.6 7.85 12.7 8.0 12.5 7.25 12.45 7.05 Q11.6 3.8 11.4 0.55 L11.2 -0.45 11.1 -1.2 11.05 -1.45 10.95 -1.75 10.85 -2.45 10.7 -3.6 10.55 -4.2 10.55 -4.25 10.15 -6.0 9.65 -6.9 9.55 -7.25 9.55 -7.15 9.5 -7.25 M-17.95 -24.45 L-18.8 -23.95 -19.25 -23.55 -18.75 -24.05 -18.4 -24.3 -17.95 -24.45" fill="#95632d" fill-rule="evenodd" stroke="none"/>
      <path d="M18.15 51.5 Q21.6 40.8 22.0 29.75 22.55 16.3 21.95 2.75 21.45 -9.9 18.8 -22.65 L18.75 -22.7 18.45 -23.0 18.4 -23.3 18.1 -25.15 18.0 -25.7 17.8 -26.05 17.6 -26.35 17.6 -26.65 17.6 -27.25 17.6 -27.85 17.5 -28.3 17.4 -28.45 17.2 -28.75 17.2 -29.05 17.2 -29.45 16.85 -30.8 16.2 -32.9 15.55 -33.9 15.3 -34.25 15.2 -34.55 15.15 -34.85 15.1 -35.15 Q14.45 -35.85 14.1 -36.7 13.3 -38.55 11.65 -39.5 L11.55 -39.85 11.5 -40.1 11.45 -40.45 10.25 -41.55 Q8.85 -42.6 7.95 -44.05 L5.95 -45.15 5.45 -46.05 Q3.0 -47.8 0.1 -48.8 -1.45 -49.4 -2.9 -50.15 L-3.5 -50.55 Q-5.05 -51.1 -6.6 -50.55 L-8.05 -50.15 -8.25 -49.9 -8.55 -49.65 -11.55 -48.9 -11.6 -48.7 -12.45 -48.5 -12.6 -48.5 -14.1 -47.9 Q-21.0 -35.4 -21.95 -21.8 -21.3 -22.75 -20.95 -23.8 -20.25 -26.25 -17.45 -27.75 L-16.7 -27.7 Q-12.85 -26.65 -9.25 -25.0 0.6 -20.5 5.5 -14.65 L5.6 -14.5 7.5 -11.8 Q8.8 -9.65 9.5 -7.25 L9.55 -7.1 9.55 -7.15 9.55 -7.25 9.65 -6.9 10.4 -4.7 10.55 -4.25 10.55 -4.2 10.7 -3.6 10.85 -2.45 10.95 -1.75 11.15 -0.85 11.2 -0.45 11.4 0.55 Q11.6 3.8 12.45 7.05 L12.35 6.95 12.4 7.65 12.45 7.85 Q12.65 10.6 12.3 13.4 L13.0 14.0 12.65 18.1 12.55 19.25 12.7 19.4 13.25 19.85 Q15.5 35.65 8.95 50.2 L7.95 49.85 5.15 49.0 7.25 48.0 7.35 47.05 8.15 46.7 8.65 44.3 Q12.25 26.0 9.6 7.3 L9.7 5.3 Q9.55 2.95 9.0 0.65 L8.55 -0.85 8.45 -1.25 8.3 -1.65 Q8.1 -2.15 8.2 -2.6 8.45 -4.4 7.4 -5.75 L7.2 -6.5 6.0 -9.95 5.95 -10.1 Q1.2 -20.0 -15.3 -24.35 L-15.95 -24.6 -16.45 -24.65 -16.7 -24.7 -17.0 -24.65 -17.95 -24.45 -18.4 -24.3 -18.75 -24.05 -19.25 -23.55 -19.35 -23.4 -19.85 -22.35 Q-22.0 -21.2 -21.55 -19.1 L-22.1 -18.75 -22.1 -18.1 Q-22.3 -2.15 -18.25 14.35 -16.6 21.3 -12.8 28.3 -11.1 31.6 -9.95 35.0 -8.85 38.3 -6.95 41.5 L-7.0 41.6 -6.85 42.1 -6.6 42.85 Q-4.3 46.5 1.0 49.2 3.9 50.65 7.15 51.5 L10.1 52.05 11.0 51.9 Q14.4 52.25 17.4 51.85 L18.2 51.65 18.35 51.6 18.15 51.5 M12.5 7.25 L12.7 8.0 12.6 7.85 12.4 7.65 12.45 7.3 12.5 7.25 M15.7 -38.2 L16.0 -37.85 17.05 -36.1 17.2 -35.75 17.2 -35.45 17.2 -35.15 Q19.35 -33.2 19.55 -30.3 L19.65 -29.1 Q20.85 -25.95 21.55 -22.65 L21.95 -21.7 22.1 -20.7 22.1 -20.55 22.15 -20.5 23.4 -10.7 24.0 -4.55 23.9 -4.5 Q24.5 2.95 24.4 10.35 24.15 26.25 22.15 42.0 L21.5 48.0 20.75 51.25 Q21.4 51.9 20.25 52.55 18.5 53.45 15.95 53.45 L15.2 53.65 Q9.25 53.85 3.55 51.75 -2.35 49.6 -6.05 46.2 -8.35 44.05 -9.15 41.75 -13.5 32.95 -17.2 23.9 -24.25 6.95 -24.35 -9.95 L-24.2 -17.05 -24.3 -17.05 -24.1 -19.2 -24.1 -19.7 -24.0 -19.75 -24.0 -20.35 -23.95 -20.5 -23.95 -20.65 -23.95 -20.75 Q-23.1 -30.25 -20.6 -39.55 -19.15 -44.95 -15.55 -49.6 L-15.25 -49.6 -15.2 -49.6 -13.45 -50.8 -12.3 -51.3 -11.55 -52.0 -10.1 -53.0 -8.55 -53.05 -8.3 -53.4 -7.9 -53.5 -7.2 -53.55 -7.1 -53.6 -2.55 -52.3 Q0.25 -51.7 3.0 -50.35 5.45 -49.15 7.45 -47.4 L7.7 -47.25 10.15 -44.6 13.4 -41.5 Q14.8 -40.05 15.7 -38.2" fill="#000000" fill-rule="evenodd" stroke="none"/>
      <path d="M9.5 -7.25 L9.55 -7.15 9.55 -7.1 9.5 -7.25 M9.65 -6.9 L10.15 -6.0 10.55 -4.25 10.4 -4.7 9.65 -6.9 M10.95 -1.75 L11.05 -1.45 11.1 -1.2 11.15 -0.85 10.95 -1.75 M12.65 18.1 L12.65 18.6 12.7 19.4 12.55 19.25 12.65 18.1 M7.95 49.85 L7.8 50.05 Q7.8 50.95 7.15 51.5 3.9 50.65 1.0 49.2 -4.3 46.5 -6.6 42.85 L-6.85 42.1 -7.0 41.6 -6.95 41.5 Q-8.85 38.3 -9.95 35.0 -11.1 31.6 -12.8 28.3 -16.6 21.3 -18.25 14.35 -22.3 -2.15 -22.1 -18.1 L-22.1 -18.75 -21.55 -19.1 Q-22.0 -21.2 -19.85 -22.35 L-19.35 -23.4 -19.25 -23.55 -18.8 -23.95 -17.95 -24.45 -17.0 -24.65 -16.7 -24.7 -16.45 -24.65 -15.95 -24.6 -15.3 -24.35 Q1.2 -20.0 5.95 -10.1 L6.0 -9.95 7.2 -6.5 7.4 -5.75 Q8.45 -4.4 8.2 -2.6 8.1 -2.15 8.3 -1.65 L8.45 -1.25 8.55 -0.85 9.0 0.65 Q9.55 2.95 9.7 5.3 L9.6 7.3 Q12.25 26.0 8.65 44.3 L8.15 46.7 7.35 47.05 7.25 48.0 5.15 49.0 7.95 49.85" fill="#d79e4a" fill-rule="evenodd" stroke="none"/>
    </g>
    <g id="morphshape0" transform="matrix(1.0, 0.0, 0.0, 1.0, 0.5, -8.2)">
      <path d="M13.7 43.85 Q16.8 34.7 23.4 27.2 28.8 20.8 31.85 17.95 33.35 16.35 35.0 14.9 L37.45 12.7" fill="none" stroke="#000000" stroke-linecap="round" stroke-linejoin="round" stroke-width="1.0"/>
    </g>
    <g id="morphshape1" transform="matrix(1.0, 0.0, 0.0, 1.0, -53.3, -5.25)">
      <path d="M54.15 30.95 L54.2 31.0 57.3 31.95 58.0 32.3 62.45 34.3 64.55 35.05 Q70.75 36.95 77.35 37.25 L83.35 37.15 Q87.4 36.75 91.4 36.1 L91.7 36.05 Q97.2 34.8 101.4 32.2 L103.8 30.45 105.45 28.75 Q107.15 26.95 107.85 24.9 108.9 21.7 108.4 18.15 108.0 15.7 106.3 13.65 102.65 9.15 97.0 7.4 L96.95 7.35 Q95.7 7.05 94.35 6.85 92.75 6.65 91.25 6.6 89.55 6.65 88.05 6.85 L88.0 6.85 Q86.3 7.25 84.85 7.85 84.15 8.15 83.5 8.5 L82.3 9.4 Q81.6 10.05 81.0 10.7 L81.0 10.75 80.5 11.35 80.0 12.0 Q78.35 14.65 78.7 18.05 78.9 19.4 79.3 20.9 L79.8 22.1 Q81.0 25.25 83.5 26.85 L84.9 27.7 Q86.05 28.05 87.0 28.3 L87.7 28.45 87.7 28.45 88.3 28.5 Q89.85 28.65 91.25 27.95 L91.85 27.6 92.95 26.7 94.0 25.5 Q94.9 24.4 95.05 23.25 L95.2 22.25 Q95.2 21.35 94.8 20.2 94.6 19.8 94.4 19.5 93.6 18.4 92.9 18.1 L92.35 18.4 92.85 19.25 93.25 19.65 93.45 19.85 Q93.25 20.0 93.45 20.85 93.5 21.55 93.55 22.3 L93.45 23.45 93.15 24.25 93.15 24.25 Q92.9 24.8 92.5 25.5 L91.4 26.3 Q90.5 26.6 89.5 27.1 L88.1 27.3 88.05 27.25 87.55 27.2 87.55 27.15 87.4 27.15 86.8 27.0 Q85.05 26.6 83.65 25.45 82.7 24.5 81.95 23.35 81.0 21.9 80.5 20.35 L80.5 20.25 Q79.65 17.4 80.5 14.65 80.7 13.7 81.1 12.9 L81.55 12.25 81.55 12.2 82.05 11.7 Q82.5 11.2 83.0 10.75 83.95 10.05 85.0 9.4 86.4 8.65 87.95 8.25 L88.0 8.25 Q89.0 8.05 90.05 7.85 91.55 7.8 93.15 7.9 L94.35 8.1 95.75 8.45 95.85 8.45 96.8 8.7 Q104.05 11.0 106.1 16.65 106.6 18.0 106.8 19.4 107.45 24.85 103.4 29.05 L102.7 29.75 Q101.35 31.1 99.55 32.15 96.0 34.4 89.9 35.5 L89.75 35.5 86.25 35.95 81.65 36.25 77.35 36.2 76.2 36.1 73.2 35.8 71.25 35.5 64.55 34.05 62.3 33.15 Q58.7 31.4 54.85 29.65 L54.3 29.6 Q52.5 29.85 54.0 31.2" fill="#000000" fill-rule="evenodd" stroke="none"/>
      <path d="M54.0 31.2 Q52.5 29.85 54.3 29.6 L54.85 29.65 Q58.7 31.4 62.3 33.15 L64.55 34.05 71.25 35.5 73.2 35.8 76.2 36.1 77.35 36.2 81.65 36.25 86.25 35.95 89.75 35.5 89.9 35.5 Q96.0 34.4 99.55 32.15 101.35 31.1 102.7 29.75 L103.4 29.05 Q107.45 24.85 106.8 19.4 106.6 18.0 106.1 16.65 104.05 11.0 96.8 8.7 L95.85 8.45 95.75 8.45 94.35 8.1 93.15 7.9 Q91.55 7.8 90.05 7.85 89.0 8.05 88.0 8.25 L87.95 8.25 Q86.4 8.65 85.0 9.4 83.95 10.05 83.0 10.75 82.5 11.2 82.05 11.7 L81.55 12.2 81.55 12.25 81.1 12.9 Q80.7 13.7 80.5 14.65 79.65 17.4 80.5 20.25 L80.5 20.35 Q81.0 21.9 81.95 23.35 82.7 24.5 83.65 25.45 85.05 26.6 86.8 27.0 L87.4 27.15 87.55 27.15 87.55 27.2 88.05 27.25 88.1 27.3 89.5 27.1 Q90.5 26.6 91.4 26.3 L92.5 25.5 Q92.9 24.8 93.15 24.25 L93.15 24.25 93.45 23.45 93.55 22.3 Q93.5 21.55 93.45 20.85 93.25 20.0 93.45 19.85 L93.25 19.65 92.85 19.25 92.35 18.4 92.9 18.1 Q93.6 18.4 94.4 19.5 94.6 19.8 94.8 20.2 95.2 21.35 95.2 22.25 L95.05 23.25 Q94.9 24.4 94.0 25.5 L92.95 26.7 91.85 27.6 91.25 27.95 Q89.85 28.65 88.3 28.5 L87.7 28.45 87.7 28.45 87.0 28.3 Q86.05 28.05 84.9 27.7 L83.5 26.85 Q81.0 25.25 79.8 22.1 L79.3 20.9 Q78.9 19.4 78.7 18.05 78.35 14.65 80.0 12.0 L80.5 11.35 81.0 10.75 81.0 10.7 Q81.6 10.05 82.3 9.4 L83.5 8.5 Q84.15 8.15 84.85 7.85 86.3 7.25 88.0 6.85 L88.05 6.85 Q89.55 6.65 91.25 6.6 92.75 6.65 94.35 6.85 95.7 7.05 96.95 7.35 L97.0 7.4 Q102.65 9.15 106.3 13.65 108.0 15.7 108.4 18.15 108.9 21.7 107.85 24.9 107.15 26.95 105.45 28.75 L103.8 30.45 101.4 32.2 Q97.2 34.8 91.7 36.05 L91.4 36.1 Q87.4 36.75 83.35 37.15 L77.35 37.25 Q70.75 36.95 64.55 35.05 L62.45 34.3 58.0 32.3 57.3 31.95 54.2 31.0 54.15 30.95" ffdec:has-small-stroke="true" ffdec:original-stroke-width="0.0" fill="none" stroke="#000000" stroke-linecap="round" stroke-linejoin="round" stroke-opacity="0.0" stroke-width="1.0"/>
    </g>
    <g id="shape3" transform="matrix(1.0, 0.0, 0.0, 1.0, 8.25, 17.45)">
      <path d="M0.2 -16.45 Q-0.25 -14.8 -1.45 -13.2 -4.85 -8.05 -6.5 -1.95 -8.75 6.3 -3.85 12.6 L-4.15 12.6 -4.15 12.65 -4.1 12.75 -4.2 13.05 -4.25 13.15 Q-5.7 13.7 -6.15 15.2 L-6.2 15.55 -6.15 15.65 -5.95 15.95 -5.9 16.05 -1.6 16.45 -1.5 16.65 Q-1.45 16.85 -1.55 17.05 -4.9 18.45 -7.15 16.0 -7.25 13.95 -5.6 12.65 L-5.3 12.45 Q-7.4 10.2 -8.0 6.65 -8.8 2.0 -7.25 -4.3 -5.75 -10.25 -0.25 -17.45 L-0.05 -17.4 0.1 -17.35 0.2 -16.45 M4.1 -13.8 Q3.4 -12.0 2.85 -6.05 2.25 -0.15 4.0 4.95 5.7 9.8 7.05 11.9 L8.0 12.85 Q5.65 13.55 5.45 14.35 L5.15 15.4 Q6.5 16.65 8.15 16.7 L8.25 16.8 8.25 16.9 8.2 17.15 8.15 17.25 Q6.0 17.7 4.2 16.1 3.8 14.0 5.0 13.2 L6.25 12.35 4.4 9.55 Q2.8 7.05 1.9 0.25 1.0 -6.6 2.25 -11.45 3.55 -16.25 4.35 -16.6 4.75 -15.6 4.1 -13.8" fill="#000000" fill-rule="evenodd" stroke="none"/>
    </g>
    <g id="morphshape2" transform="matrix(1.0, 0.0, 0.0, 1.0, -5.8, -8.95)">
      <path d="M28.3 47.45 L28.25 47.65 Q27.4 50.55 23.45 49.7 L28.4 47.15 Q31.35 46.3 33.65 44.3 35.75 42.55 37.3 40.35 38.6 38.5 39.45 36.45 L41.0 32.5 42.35 27.65 43.25 22.95 44.0 17.15 Q44.4 14.7 44.15 12.15" fill="none" stroke="#000000" stroke-linecap="round" stroke-linejoin="round" stroke-width="1.0"/>
    </g>
    <g id="shape4" transform="matrix(1.0, 0.0, 0.0, 1.0, 11.75, 6.95)">
      <path d="M-4.85 -6.3 L-4.75 -6.35 -4.65 -6.45 -4.6 -6.45 Q-0.95 -7.6 2.35 -6.15 3.95 -5.55 5.2 -4.3 L5.45 -4.25 5.7 -4.1 5.75 -4.05 6.1 -4.6 7.4 -6.15 7.45 -6.2 7.6 -6.25 7.6 -6.3 Q9.35 -6.9 10.75 -5.85 L10.9 -5.8 10.9 -5.75 11.0 -5.55 11.05 -5.45 11.1 -5.45 11.1 -5.35 11.1 -5.3 11.2 -5.25 11.25 -5.25 11.25 -5.2 11.35 -4.75 11.45 -4.55 11.5 -4.4 11.55 -4.25 11.5 -4.2 11.6 -3.9 11.8 -2.45 11.75 -2.0 11.7 -1.9 11.5 -1.3 11.4 -1.2 11.4 -1.1 11.35 -1.05 11.1 -0.8 11.0 -0.7 7.55 -0.55 7.05 -0.75 6.85 -0.85 6.8 -0.95 6.8 -0.5 Q6.85 1.9 5.25 3.9 L5.2 4.15 Q4.1 5.7 2.25 6.4 L2.0 6.6 -1.5 6.95 -2.15 7.0 Q-4.8 6.25 -6.8 4.35 -7.75 3.45 -7.95 2.4 L-8.3 2.4 -8.4 2.15 -8.05 2.0 -8.05 0.7 -8.05 0.6 -8.05 0.55 -8.35 0.6 -9.6 0.75 -9.7 0.7 -10.25 0.5 -11.15 -0.1 -11.15 -0.15 -11.35 -0.3 -11.35 -0.35 -11.55 -0.8 -11.65 -1.1 -11.7 -1.4 -11.75 -1.85 -11.65 -2.0 -11.6 -2.15 -11.6 -2.3 -11.3 -2.75 -10.85 -3.15 -10.75 -3.3 -10.6 -3.35 -10.0 -3.55 -10.0 -3.6 -9.85 -3.6 Q-8.2 -3.55 -6.85 -2.35 -5.7 -4.6 -3.7 -6.0 L-4.7 -6.05 -4.8 -6.15 -4.85 -6.3 M-7.4 -1.3 L-7.2 -1.65 -7.15 -1.75 -7.25 -1.95 -7.35 -2.05 -7.45 -2.15 -8.85 -2.85 -8.95 -2.9 -9.35 -2.95 -10.2 -2.85 -10.25 -2.85 -11.0 -2.0 -11.0 -1.9 -11.2 -1.6 -11.2 -1.55 -11.2 -1.4 -11.15 -1.1 -11.1 -0.8 -11.0 -0.7 -10.2 0.0 -10.2 0.05 -9.6 0.1 -9.5 0.1 -7.95 -0.15 -7.7 -0.65 -7.4 -1.3 M-10.65 -3.0 L-10.65 -2.95 -10.65 -3.0 M5.85 1.95 L5.9 1.75 6.3 -1.1 6.3 -1.15 6.3 -1.2 6.3 -1.3 6.25 -1.6 5.75 -2.9 5.75 -2.95 5.7 -3.1 5.55 -3.4 4.65 -4.1 4.6 -4.2 Q3.55 -5.05 2.35 -5.7 L2.25 -5.85 1.7 -5.95 -2.65 -6.15 Q-4.45 -5.05 -5.65 -3.4 L-6.65 -1.6 -6.85 -1.15 -6.9 -1.0 -7.6 0.15 -7.55 0.55 -7.5 1.65 -7.5 1.75 -6.25 1.35 -3.35 0.65 -3.0 0.45 -0.75 0.15 -0.65 0.15 -0.05 0.1 0.0 0.1 0.65 0.1 0.8 0.15 0.9 0.15 1.2 0.1 1.25 0.1 2.1 0.2 2.2 0.25 3.25 0.25 Q5.0 0.3 5.95 1.5 L5.9 1.55 5.7 1.65 5.4 1.65 4.7 1.25 Q3.0 0.6 1.1 0.7 L1.05 0.65 0.0 0.65 -0.25 0.65 -0.75 0.7 -1.8 0.95 -2.85 1.1 -3.45 1.25 -7.5 2.25 -7.4 2.85 Q-6.95 3.8 -6.05 4.4 L-5.2 5.1 -5.1 5.15 -5.1 5.2 -5.05 5.2 -4.3 5.6 -4.25 5.65 -4.15 5.75 -2.15 6.45 -2.05 6.5 1.85 6.05 4.1 4.75 Q4.7 4.45 4.8 3.8 L4.9 3.55 5.85 1.95 M6.95 -1.65 L7.1 -1.55 7.2 -1.4 7.8 -1.25 8.6 -1.0 9.0 -0.85 10.05 -1.05 10.75 -1.35 10.9 -1.4 11.1 -1.7 11.2 -1.8 11.2 -1.95 11.3 -2.3 11.3 -2.4 11.0 -4.15 11.0 -4.2 11.0 -4.25 10.9 -4.35 10.85 -4.5 10.85 -4.55 10.65 -4.65 10.5 -4.8 10.5 -4.95 10.1 -5.45 9.95 -5.6 9.95 -5.65 9.85 -5.7 9.85 -5.75 9.7 -5.75 9.4 -5.8 7.7 -5.7 7.1 -5.1 Q6.45 -4.55 6.15 -3.7 L6.1 -3.6 6.1 -3.55 6.15 -3.35 6.25 -3.15 6.55 -2.3 6.85 -1.75 6.95 -1.65 M-2.6 1.65 L-2.45 1.4 -2.4 1.4 -2.35 1.3 Q-2.1 1.25 -2.05 1.5 L-2.15 1.75 Q-2.3 2.0 -2.55 1.75 L-2.6 1.65 M-0.8 1.1 L-0.7 1.3 Q-0.65 1.65 -0.95 1.75 L-1.25 1.7 -1.3 1.65 -1.35 1.55 -1.3 1.25 -1.2 1.15 -1.15 1.1 -0.95 1.05 -0.8 1.1" fill="#000000" fill-rule="evenodd" stroke="none"/>
      <path d="M-7.4 -1.3 L-7.75 -1.65 -8.65 -2.25 Q-9.45 -2.3 -10.0 -1.7 L-9.95 -1.6 -10.0 -1.4 -10.05 -1.35 -10.1 -1.3 -10.1 -1.15 -9.85 -0.7 -9.5 -0.4 Q-8.9 -0.1 -8.3 -0.4 L-7.85 -0.6 -7.7 -0.65 -7.95 -0.15 -9.5 0.1 -9.6 0.1 -10.2 0.05 -10.2 0.0 -11.0 -0.7 -11.1 -0.8 -11.15 -1.1 -11.2 -1.4 -11.2 -1.55 -11.2 -1.6 -11.0 -1.9 -11.0 -2.0 -10.25 -2.85 -10.2 -2.85 -9.35 -2.95 -8.95 -2.9 -8.85 -2.85 -7.45 -2.15 -7.35 -2.05 -7.25 -1.95 -7.15 -1.75 -7.2 -1.65 -7.4 -1.3 M-6.85 -1.15 L-6.65 -1.6 -5.65 -3.4 Q-4.45 -5.05 -2.65 -6.15 L1.7 -5.95 2.25 -5.85 2.35 -5.7 Q3.55 -5.05 4.6 -4.2 L4.65 -4.1 5.55 -3.4 5.7 -3.1 5.75 -2.95 5.75 -2.9 6.25 -1.6 6.3 -1.3 6.3 -1.2 6.3 -1.15 6.3 -1.1 5.9 1.75 5.85 1.95 5.8 1.9 5.7 1.65 5.9 1.55 5.95 1.5 Q5.0 0.3 3.25 0.25 L2.2 0.25 2.1 0.2 1.25 0.1 1.2 0.1 0.9 0.15 0.8 0.15 0.65 0.1 0.0 0.1 -0.05 0.1 -0.65 0.15 -0.75 0.15 -3.0 0.45 -3.35 0.65 -6.25 1.35 -7.5 1.75 -7.5 1.65 -7.55 0.55 -7.6 0.15 -6.9 -1.0 -6.8 -1.1 -6.85 -1.15 M6.15 -3.7 Q6.45 -4.55 7.1 -5.1 L7.7 -5.7 9.4 -5.8 9.7 -5.75 9.85 -5.75 9.85 -5.7 9.95 -5.65 9.95 -5.6 10.1 -5.45 10.5 -4.95 10.5 -4.8 10.65 -4.65 10.85 -4.55 10.85 -4.5 10.9 -4.35 11.0 -4.25 11.0 -4.2 11.0 -4.15 11.3 -2.4 11.3 -2.3 11.2 -1.95 11.2 -1.8 11.1 -1.7 10.9 -1.4 10.75 -1.35 10.05 -1.05 9.0 -0.85 8.6 -1.0 7.8 -1.25 7.2 -1.4 7.1 -1.55 6.95 -1.65 Q7.9 -1.55 8.7 -2.15 L8.85 -2.2 9.05 -2.55 9.25 -2.75 9.35 -2.95 9.45 -3.0 9.4 -3.15 9.3 -3.6 9.2 -3.75 9.1 -3.8 8.9 -4.0 Q8.85 -3.95 8.8 -4.05 L8.75 -4.05 8.3 -4.3 Q7.4 -4.35 6.8 -3.75 L6.75 -3.7 6.75 -3.65 6.75 -3.6 6.7 -3.6 6.45 -3.4 6.35 -3.35 6.35 -3.3 6.35 -3.2 6.3 -3.2 6.25 -3.15 6.15 -3.35 6.1 -3.55 6.1 -3.6 6.15 -3.7 M9.75 -3.9 L9.75 -3.85 9.85 -3.75 9.9 -3.65 9.75 -3.9" fill="#95632d" fill-rule="evenodd" stroke="none"/>
      <path d="M-7.7 -0.65 L-7.85 -0.6 -8.3 -0.4 Q-8.9 -0.1 -9.5 -0.4 L-9.85 -0.7 -10.1 -1.15 -10.1 -1.3 -10.05 -1.35 -10.0 -1.4 -9.95 -1.6 -10.0 -1.7 Q-9.45 -2.3 -8.65 -2.25 L-7.75 -1.65 -7.4 -1.3 -7.7 -0.65 M5.85 1.95 L4.9 3.55 4.8 3.8 Q4.7 4.45 4.1 4.75 L1.85 6.05 -2.05 6.5 -2.15 6.45 -4.15 5.75 -4.25 5.65 -4.3 5.6 -5.05 5.2 -5.1 5.2 -5.1 5.15 -5.2 5.1 -6.05 4.4 Q-6.95 3.8 -7.4 2.85 L-7.5 2.25 -3.45 1.25 -2.85 1.1 -1.8 0.95 -0.75 0.7 -0.25 0.65 0.0 0.65 1.05 0.65 1.1 0.7 Q3.0 0.6 4.7 1.25 L5.4 1.65 5.7 1.65 5.8 1.9 5.85 1.95 M-6.9 -1.0 L-6.85 -1.15 -6.8 -1.1 -6.9 -1.0 M6.25 -3.15 L6.3 -3.2 6.35 -3.2 6.35 -3.3 6.35 -3.35 6.45 -3.4 6.7 -3.6 6.75 -3.6 6.75 -3.65 6.75 -3.7 6.8 -3.75 Q7.4 -4.35 8.3 -4.3 L8.75 -4.05 8.8 -4.05 Q8.85 -3.95 8.9 -4.0 L9.1 -3.8 9.2 -3.75 9.3 -3.6 9.4 -3.15 9.45 -3.0 9.35 -2.95 9.25 -2.75 9.05 -2.55 8.85 -2.2 8.7 -2.15 Q7.9 -1.55 6.95 -1.65 L6.85 -1.75 6.55 -2.3 6.25 -3.15 M9.75 -3.9 L9.9 -3.65 9.85 -3.75 9.75 -3.85 9.75 -3.9 M-0.8 1.1 L-0.95 1.05 -1.15 1.1 -1.2 1.15 -1.3 1.25 -1.35 1.55 -1.3 1.65 -1.25 1.7 -0.95 1.75 Q-0.65 1.65 -0.7 1.3 L-0.8 1.1 M-2.6 1.65 L-2.55 1.75 Q-2.3 2.0 -2.15 1.75 L-2.05 1.5 Q-2.1 1.25 -2.35 1.3 L-2.4 1.4 -2.45 1.4 -2.6 1.65" fill="#d79e4a" fill-rule="evenodd" stroke="none"/>
    </g>
    <g id="sprite0" transform="matrix(1.0, 0.0, 0.0, 1.0, 16.2, 5.05)">
      <use ffdec:characterId="5" height="4.5" transform="matrix(1.0, 0.0, 0.0, 1.0, -7.65, -2.25)" width="15.3" xlink:href="#shape5"/>
    </g>
    <g id="shape5" transform="matrix(1.0, 0.0, 0.0, 1.0, 7.65, 2.25)">
      <path d="M7.6 -0.15 L7.6 0.5 Q0.1 3.55 -7.65 1.25 L-7.5 0.6 -6.9 -0.25 -6.15 -1.0 Q-1.9 -0.55 0.6 -2.25 L3.85 -1.55 7.1 -1.0 7.6 -0.15" fill="#000000" fill-rule="evenodd" stroke="none"/>
    </g>
    <g id="sprite1" transform="matrix(1.0, 0.0, 0.0, 1.0, 23.5, 12.3)">
      <use ffdec:characterId="12" height="17.25" transform="matrix(1.0, 0.0, 0.0, 1.0, -21.25, -10.1)" width="34.95" xlink:href="#shape6"/>
      <use ffdec:characterId="14" height="7.8" transform="matrix(1.0, 0.0, 0.0, 1.0, -16.85, -2.6)" width="25.55" xlink:href="#sprite2"/>
      <use ffdec:characterId="15" height="21.6" transform="matrix(1.0, 0.0, 0.0, 1.0, -23.5, -12.3)" width="39.4" xlink:href="#shape8"/>
    </g>
    <g id="shape6" transform="matrix(1.0, 0.0, 0.0, 1.0, 21.25, 10.1)">
      <path d="M5.7 -3.5 L6.05 -3.65 Q8.4 -4.15 10.45 -3.25 14.2 -1.65 13.65 2.6 13.55 3.45 13.05 4.05 L13.0 4.05 Q12.15 5.5 9.65 5.75 4.25 6.25 1.75 1.95 L1.6 1.85 1.5 1.45 1.45 1.4 1.4 0.8 1.4 -0.35 Q1.6 -1.85 3.15 -2.45 L5.7 -3.5" fill="#ffffff" fill-rule="evenodd" stroke="none"/>
      <path d="M-20.35 -6.45 L-19.75 -7.25 Q-16.65 -9.65 -12.7 -9.9 -7.05 -10.85 -3.5 -6.9 -0.55 -3.6 -1.1 0.95 -1.35 3.2 -3.25 4.65 -5.15 6.2 -7.5 6.7 L-12.95 7.15 -14.6 6.7 Q-15.35 6.3 -16.15 6.0 -17.95 5.4 -18.85 3.85 -20.95 2.45 -21.2 -0.1 -21.5 -3.5 -20.35 -6.45" fill="#ffffff" fill-rule="evenodd" stroke="none"/>
    </g>
    <g id="sprite2" transform="matrix(1.0, 0.0, 0.0, 1.0, 2.75, 0.0)">
      <use ffdec:characterId="13" height="5.35" transform="matrix(1.0, 0.0, 0.0, 1.0, 0.0, 0.0)" width="22.8" xlink:href="#shape7"/>
    </g>
    <g id="shape7" transform="matrix(1.0, 0.0, 0.0, 1.0, 2.75, -2.45)">
      <path d="M20.05 6.1 Q20.1 6.9 19.55 7.35 L18.6 7.8 18.5 7.8 17.9 7.65 17.35 7.5 16.75 6.95 Q16.25 6.45 16.35 5.8 L16.4 5.75 16.5 5.45 17.2 4.75 17.55 4.7 Q18.9 4.3 19.7 5.2 20.05 5.55 20.05 6.1" fill="#000000" fill-rule="evenodd" stroke="none"/>
      <path d="M1.1 3.95 Q1.3 5.05 0.7 5.9 0.5 6.25 0.0 6.3 -2.4 6.65 -2.7 4.4 -2.9 3.0 -1.65 2.55 -0.55 2.3 0.25 2.8 0.9 3.25 1.1 3.95" fill="#000000" fill-rule="evenodd" stroke="none"/>
    </g>
    <g id="shape8" transform="matrix(1.0, 0.0, 0.0, 1.0, 23.5, 12.3)">
      <path d="M1.4 -3.5 L1.95 -3.95 Q3.6 -5.2 5.4 -5.65 L5.45 -5.75 10.95 -5.5 11.45 -4.7 11.5 -4.6 11.9 -4.5 11.95 -4.5 12.1 -4.4 12.9 -3.85 Q15.7 -1.75 15.9 1.25 L15.65 2.75 15.55 3.1 12.35 6.85 Q11.8 6.95 11.35 7.3 L8.15 7.3 3.75 6.35 2.35 5.85 2.05 5.65 -0.15 2.7 -0.2 2.05 -0.25 0.25 -0.1 -1.4 -0.05 -1.75 1.1 -3.5 1.4 -3.5 M3.15 -2.45 Q1.6 -1.85 1.4 -0.35 L1.4 0.8 1.45 1.4 1.5 1.45 1.6 1.85 1.75 1.95 Q4.25 6.25 9.65 5.75 12.15 5.5 13.0 4.05 L13.05 4.05 Q13.55 3.45 13.65 2.6 14.2 -1.65 10.45 -3.25 8.4 -4.15 6.05 -3.65 L5.7 -3.5 3.15 -2.45" fill="#000000" fill-rule="evenodd" stroke="none"/>
      <path d="M0.85 -1.4 L0.85 1.3 0.9 1.5 Q0.15 3.1 -0.35 4.8 L-1.85 6.1 -2.9 7.0 Q-5.4 8.6 -8.3 9.25 L-8.35 9.3 -17.8 8.0 -18.55 7.25 -21.55 4.25 -22.3 3.5 -22.3 2.95 Q-23.65 1.2 -23.5 -1.2 L-23.15 -4.4 -22.75 -6.1 -22.3 -6.6 -22.3 -7.0 -21.2 -8.55 -19.65 -9.75 Q-16.8 -11.35 -14.05 -12.25 -4.75 -13.0 -0.3 -5.45 -0.2 -4.75 0.35 -4.0 L0.85 -1.4 M-20.35 -6.45 Q-21.5 -3.5 -21.2 -0.1 -20.95 2.45 -18.85 3.85 -17.95 5.4 -16.15 6.0 -15.35 6.3 -14.6 6.7 L-12.95 7.15 -7.5 6.7 Q-5.15 6.2 -3.25 4.65 -1.35 3.2 -1.1 0.95 -0.55 -3.6 -3.5 -6.9 -7.05 -10.85 -12.7 -9.9 -16.65 -9.65 -19.75 -7.25 L-20.35 -6.45" fill="#000000" fill-rule="evenodd" stroke="none"/>
    </g>
    <g id="shape9" transform="matrix(1.0, 0.0, 0.0, 1.0, 6.85, 3.25)">
      <path d="M-4.7 -2.6 L-4.4 -2.65 -3.3 -2.5 -2.55 -1.95 -1.95 -1.25 Q-1.0 0.1 -1.6 1.45 -3.35 2.85 -4.6 1.75 -6.5 -0.65 -4.7 -2.6" fill="#ff0000" fill-rule="evenodd" stroke="none"/>
      <path d="M-4.4 -2.65 Q-4.3 -3.15 -2.9 -3.25 0.25 -1.85 -0.45 2.05 L-1.0 2.6 Q-5.95 4.3 -6.5 1.5 L-6.85 -0.35 Q-6.7 -2.85 -4.7 -2.6 -6.5 -0.65 -4.6 1.75 -3.35 2.85 -1.6 1.45 -1.0 0.1 -1.95 -1.25 L-2.55 -1.95 -3.3 -2.5 -4.4 -2.65" fill="#000000" fill-rule="evenodd" stroke="none"/>
      <path d="M-1.0 0.05 L6.2 0.1 Q6.65 0.1 6.8 -0.4 L6.75 -0.55 Q6.75 -1.05 6.2 -1.05 L6.2 -1.1 -1.05 -0.75 -1.35 -0.45 -1.3 -0.3 -1.0 0.05" fill="#000000" fill-rule="evenodd" stroke="none"/>
      <path d="M-4.45 0.55 Q-4.9 0.85 -5.25 0.4 -6.25 -0.9 -4.65 -1.35 -2.75 -0.55 -4.45 0.55" fill="#ffffff" fill-rule="evenodd" stroke="none"/>
    </g>
    <g id="shape10" transform="matrix(1.0, 0.0, 0.0, 1.0, 49.2, -3.2)">
      <path d="M-7.5 13.8 Q-9.1 10.3 -12.55 7.75 -18.85 3.25 -26.25 4.8 L-26.25 5.9 Q-26.0 9.6 -27.6 12.85 -28.4 14.35 -29.7 15.35 -32.85 17.65 -36.4 18.45 -36.4 22.5 -33.7 25.0 -30.0 28.4 -23.9 29.3 -16.6 30.45 -10.5 26.7 -9.0 25.75 -8.0 24.35 -4.8 19.6 -7.5 13.8 M-12.9 6.1 Q-5.5 10.1 -5.05 18.4 -4.65 25.55 -11.4 28.75 -18.05 31.95 -25.5 30.4 -30.65 29.4 -34.45 25.65 -37.65 22.45 -37.9 18.75 L-37.95 18.75 -37.95 17.85 -37.9 17.85 -36.6 17.7 -33.75 16.85 Q-32.0 16.15 -30.7 15.0 -29.4 13.85 -28.45 12.25 -27.5 10.7 -27.25 9.2 -27.0 7.7 -27.05 6.45 -27.1 5.1 -27.7 4.1 L-25.4 3.2 -24.95 3.2 -25.05 3.3 Q-18.6 3.0 -12.9 6.1" fill="#000000" fill-rule="evenodd" stroke="none"/>
      <path d="M-7.5 13.8 Q-4.8 19.6 -8.0 24.35 -9.0 25.75 -10.5 26.7 -16.6 30.45 -23.9 29.3 -30.0 28.4 -33.7 25.0 -36.4 22.5 -36.4 18.45 -32.85 17.65 -29.7 15.35 -28.4 14.35 -27.6 12.85 -26.0 9.6 -26.25 5.9 L-26.25 4.8 Q-18.85 3.25 -12.55 7.75 -9.1 10.3 -7.5 13.8" fill="#ff9900" fill-rule="evenodd" stroke="none"/>
      <path d="M-7.5 13.8 Q-4.8 19.6 -8.0 24.35 -9.0 25.75 -10.5 26.7 -16.6 30.45 -23.9 29.3 -30.0 28.4 -33.7 25.0 -36.4 22.5 -36.4 18.45 -32.85 17.65 -29.7 15.35 -28.4 14.35 -27.6 12.85 -26.0 9.6 -26.25 5.9 L-26.25 4.8 Q-18.85 3.25 -12.55 7.75 -9.1 10.3 -7.5 13.8" fill="url(#gradient0)" fill-rule="evenodd" stroke="none"/>
      <path d="M-47.05 21.5 L-46.75 21.45 -45.65 21.6 -44.9 22.15 -44.3 22.85 Q-43.35 24.2 -43.95 25.55 -45.7 26.95 -46.95 25.85 -48.85 23.45 -47.05 21.5" fill="#ff0000" fill-rule="evenodd" stroke="none"/>
      <path d="M-46.75 21.45 Q-46.65 20.95 -45.25 20.85 -42.1 22.25 -42.8 26.15 L-43.35 26.7 Q-48.3 28.4 -48.85 25.6 L-49.2 23.75 Q-49.05 21.25 -47.05 21.5 -48.85 23.45 -46.95 25.85 -45.7 26.95 -43.95 25.55 -43.35 24.2 -44.3 22.85 L-44.9 22.15 -45.65 21.6 -46.75 21.45" fill="#000000" fill-rule="evenodd" stroke="none"/>
      <path d="M-43.35 24.15 L-36.15 24.2 Q-35.7 24.2 -35.55 23.7 L-35.6 23.55 Q-35.6 23.05 -36.15 23.05 L-36.15 23.0 -43.4 23.35 Q-43.75 23.35 -43.7 23.65 L-43.65 23.8 -43.35 24.15" fill="#000000" fill-rule="evenodd" stroke="none"/>
      <path d="M-46.8 24.65 Q-47.25 24.95 -47.6 24.5 -48.6 23.2 -47.0 22.75 -45.1 23.55 -46.8 24.65" fill="#ffffff" fill-rule="evenodd" stroke="none"/>
    </g>
    <radialGradient cx="0" cy="0" gradientTransform="matrix(0.0385, 0.0, 0.0, 0.0276, -15.35, 8.15)" gradientUnits="userSpaceOnUse" id="gradient0" r="819.2" spreadMethod="pad">
      <stop offset="0.0" stop-color="#febf74"/>
      <stop offset="0.4980392156862745" stop-color="#ff9900"/>
      <stop offset="1.0" stop-color="#ff6600"/>
    </radialGradient>
    <g id="shape11" transform="matrix(1.0, 0.0, 0.0, 1.0, 36.95, -4.7)">
      <path d="M-29.75 6.8 Q-28.85 6.2 -27.85 5.7 L-27.35 5.65 -27.25 6.55 -27.3 8.0 -28.25 7.5 -29.75 6.8 M-36.45 17.65 L-36.15 15.55 -35.95 16.3 -35.65 15.3 -35.4 15.65 -34.05 17.0 -36.45 17.65" fill="#ffcc00" fill-rule="evenodd" stroke="none"/>
      <path d="M-27.3 8.0 L-27.4 8.8 -27.45 9.3 -28.75 8.3 -30.25 7.1 -29.75 6.8 -28.25 7.5 -27.3 8.0 M-36.15 15.55 L-36.1 15.3 Q-35.95 14.5 -36.35 14.95 L-36.7 15.5 -36.55 14.2 -36.4 13.55 -36.2 13.7 -35.4 14.4 -33.65 16.3 -33.35 16.7 -33.75 16.85 -34.05 17.0 -35.4 15.65 -35.65 15.3 -35.95 16.3 -36.15 15.55" fill="#000000" fill-rule="evenodd" stroke="none"/>
      <path d="M-27.45 9.3 L-27.25 8.0 -27.2 6.5 -27.3 5.2 Q-28.15 5.45 -29.7 6.5 L-29.8 6.6 -29.95 6.7 -30.25 7.1 M-33.35 16.7 L-34.0 17.05 Q-35.1 17.55 -36.45 17.65 L-36.15 15.55 -36.1 15.3" fill="none" stroke="#000000" stroke-linecap="round" stroke-linejoin="round" stroke-width="1.0"/>
    </g>
    <g id="sprite3" transform="matrix(1.0, 0.0, 0.0, 1.0, 0.0, 0.0)">
      <use ffdec:characterId="42" height="40.0" transform="matrix(0.4, 0.0, 0.0, 0.5, 0.0, 0.0)" width="50.0" xlink:href="#shape12"/>
    </g>
    <g id="shape12" transform="matrix(1.0, 0.0, 0.0, 1.0, 0.0, 0.0)">
      <path d="M50.0 0.0 L50.0 40.0 0.0 40.0 0.0 0.0 50.0 0.0" fill="#ffffff" fill-opacity="0.0" fill-rule="evenodd" stroke="none"/>
    </g>
    <g id="sprite4" transform="matrix(1.0, 0.0, 0.0, 1.0, -0.05, 0.0)">
      <use ffdec:characterId="304" height="20.0" transform="matrix(1.0, 0.0, 0.0, 1.0, 0.05, 0.0)" width="20.0" xlink:href="#shape13"/>
    </g>
    <g id="shape13" transform="matrix(1.0, 0.0, 0.0, 1.0, -0.05, 0.0)">
      <path d="M10.05 20.0 Q5.9 20.0 2.95 17.05 0.0 14.1 0.05 10.0 0.0 5.85 2.95 2.9 5.9 0.0 10.05 0.0 14.15 0.0 17.1 2.9 20.05 5.85 20.05 10.0 20.05 14.1 17.1 17.05 14.15 20.0 10.05 20.0" fill="#ffffff" fill-opacity="0.0" fill-rule="evenodd" stroke="none"/>
    </g>
  </defs>
</svg>
