<?xml version="1.0" encoding="UTF-8" standalone="no"?>
<svg xmlns:ffdec="https://www.free-decompiler.com/flash" xmlns:xlink="http://www.w3.org/1999/xlink" ffdec:objectType="frame" height="110.8px" width="126.55px" xmlns="http://www.w3.org/2000/svg">
  <g transform="matrix(1.0, 0.0, 0.0, 1.0, 125.65, 69.65)">
    <use ffdec:characterId="297" height="0.25" transform="matrix(1.0, 0.0, 0.0, 1.0, -113.25, 13.1)" width="0.15" xlink:href="#shape0"/>
    <use ffdec:characterId="298" height="107.25" transform="matrix(-0.2128, -0.0144, -0.0144, 0.2128, -58.3472, -25.6577)" width="48.75" xlink:href="#shape1"/>
    <use ffdec:characterId="359" height="37.55" transform="matrix(1.0, 0.0, 0.0, 1.0, -72.2, -25.7)" width="8.8" xlink:href="#shape2"/>
    <use ffdec:characterId="360" height="32.3" transform="matrix(1.0, 0.0, 0.0, 1.0, -121.5, -26.8)" width="52.1" xlink:href="#morphshape0"/>
    <use ffdec:characterId="346" height="35.0" transform="matrix(-0.9932, 0.101, -0.1317, 1.0169, -57.1571, -4.1771)" width="16.5" xlink:href="#shape3"/>
    <use ffdec:characterId="361" height="31.4" transform="matrix(1.0, 0.0, 0.0, 1.0, -59.3, -24.15)" width="23.55" xlink:href="#morphshape1"/>
    <use ffdec:characterId="348" height="13.95" transform="matrix(-0.9949, 0.0977, 0.0977, 0.9949, -49.3896, -41.3129)" width="23.55" xlink:href="#shape4"/>
    <use ffdec:characterId="11" height="9.05" transform="matrix(-0.197, -0.0096, -0.0096, 0.197, -56.0107, -29.7889)" width="34.15" xlink:href="#sprite0"/>
    <use ffdec:characterId="17" height="21.6" transform="matrix(-0.229, -0.0112, -0.0112, 0.229, -54.5303, -37.8528)" width="39.4" xlink:href="#sprite1"/>
    <use ffdec:characterId="356" height="16.5" transform="matrix(0.2, -0.9791, 0.9791, 0.2, -68.3077, 11.8564)" width="13.8" xlink:href="#shape9"/>
    <use ffdec:characterId="312" height="6.5" transform="matrix(0.75, 0.0, 0.0, 1.0, -30.9875, 20.85)" width="13.65" xlink:href="#shape10"/>
    <use ffdec:characterId="349" height="27.7" transform="matrix(1.0, 0.0, 0.0, 1.0, -49.2, 3.2)" width="44.15" xlink:href="#shape11"/>
    <use ffdec:characterId="303" height="20.0" id="mcHitTestMonkey" transform="matrix(1.956, 0.0, 0.0, 3.7691, -86.15, -42.65)" width="20.0" xlink:href="#sprite3"/>
    <use ffdec:characterId="305" height="20.0" id="mcHitTestCannon" transform="matrix(1.75, 0.0, 0.0, 1.75, -38.5125, 0.25)" width="20.0" xlink:href="#sprite4"/>
  </g>
  <defs>
    <g id="shape0" transform="matrix(1.0, 0.0, 0.0, 1.0, 0.05, 0.1)">
      <path d="M0.05 0.15 L-0.05 0.0 0.1 -0.1 0.1 -0.05 0.05 0.15" fill="#ff9900" fill-rule="evenodd" stroke="none"/>
    </g>
    <g id="shape1" transform="matrix(1.0, 0.0, 0.0, 1.0, 24.35, 53.6)">
      <path d="M9.5 -7.25 Q8.8 -9.65 7.5 -11.8 L5.6 -14.5 5.5 -14.65 Q0.6 -20.5 -9.25 -25.0 -12.85 -26.65 -16.7 -27.7 L-17.45 -27.75 Q-20.25 -26.25 -20.95 -23.8 -21.3 -22.75 -21.95 -21.8 -21.0 -35.4 -14.1 -47.9 L-12.6 -48.5 -12.45 -48.5 -11.6 -48.7 -11.55 -48.9 -8.55 -49.65 -8.25 -49.9 -8.05 -50.15 -6.6 -50.55 Q-5.05 -51.1 -3.5 -50.55 L-2.9 -50.15 Q-1.45 -49.4 0.1 -48.8 3.0 -47.8 5.45 -46.05 L5.95 -45.15 7.95 -44.05 Q8.85 -42.6 10.25 -41.55 L11.45 -40.45 11.5 -40.1 11.55 -39.85 11.65 -39.5 Q13.3 -38.55 14.1 -36.7 14.45 -35.85 15.1 -35.15 L15.15 -34.85 15.2 -34.55 15.3 -34.25 15.55 -33.9 16.2 -32.9 16.85 -30.8 17.2 -29.45 17.2 -29.05 17.2 -28.75 17.4 -28.45 17.5 -28.3 17.6 -27.85 17.6 -27.25 17.6 -26.65 17.6 -26.35 17.8 -26.05 18.0 -25.7 18.1 -25.15 18.4 -23.3 18.45 -23.0 18.75 -22.7 18.8 -22.65 Q21.45 -9.9 21.95 2.75 22.55 16.3 22.0 29.75 21.6 40.8 18.15 51.5 L18.2 51.65 17.4 51.85 Q14.4 52.25 11.0 51.9 L10.1 52.05 7.15 51.5 Q7.8 50.95 7.8 50.05 L7.95 49.85 8.95 50.2 Q15.5 35.65 13.25 19.85 L12.7 19.4 12.65 18.6 12.65 18.1 13.0 14.0 12.3 13.4 Q12.65 10.6 12.45 7.85 L12.6 7.85 12.7 8.0 12.5 7.25 12.45 7.05 Q11.6 3.8 11.4 0.55 L11.2 -0.45 11.1 -1.2 11.05 -1.45 10.95 -1.75 10.85 -2.45 10.7 -3.6 10.55 -4.2 10.55 -4.25 10.15 -6.0 9.65 -6.9 9.55 -7.25 9.55 -7.15 9.5 -7.25 M-17.95 -24.45 L-18.8 -23.95 -19.25 -23.55 -18.75 -24.05 -18.4 -24.3 -17.95 -24.45" fill="#95632d" fill-rule="evenodd" stroke="none"/>
      <path d="M18.15 51.5 Q21.6 40.8 22.0 29.75 22.55 16.3 21.95 2.75 21.45 -9.9 18.8 -22.65 L18.75 -22.7 18.45 -23.0 18.4 -23.3 18.1 -25.15 18.0 -25.7 17.8 -26.05 17.6 -26.35 17.6 -26.65 17.6 -27.25 17.6 -27.85 17.5 -28.3 17.4 -28.45 17.2 -28.75 17.2 -29.05 17.2 -29.45 16.85 -30.8 16.2 -32.9 15.55 -33.9 15.3 -34.25 15.2 -34.55 15.15 -34.85 15.1 -35.15 Q14.45 -35.85 14.1 -36.7 13.3 -38.55 11.65 -39.5 L11.55 -39.85 11.5 -40.1 11.45 -40.45 10.25 -41.55 Q8.85 -42.6 7.95 -44.05 L5.95 -45.15 5.45 -46.05 Q3.0 -47.8 0.1 -48.8 -1.45 -49.4 -2.9 -50.15 L-3.5 -50.55 Q-5.05 -51.1 -6.6 -50.55 L-8.05 -50.15 -8.25 -49.9 -8.55 -49.65 -11.55 -48.9 -11.6 -48.7 -12.45 -48.5 -12.6 -48.5 -14.1 -47.9 Q-21.0 -35.4 -21.95 -21.8 -21.3 -22.75 -20.95 -23.8 -20.25 -26.25 -17.45 -27.75 L-16.7 -27.7 Q-12.85 -26.65 -9.25 -25.0 0.6 -20.5 5.5 -14.65 L5.6 -14.5 7.5 -11.8 Q8.8 -9.65 9.5 -7.25 L9.55 -7.1 9.55 -7.15 9.55 -7.25 9.65 -6.9 10.4 -4.7 10.55 -4.25 10.55 -4.2 10.7 -3.6 10.85 -2.45 10.95 -1.75 11.15 -0.85 11.2 -0.45 11.4 0.55 Q11.6 3.8 12.45 7.05 L12.35 6.95 12.4 7.65 12.45 7.85 Q12.65 10.6 12.3 13.4 L13.0 14.0 12.65 18.1 12.55 19.25 12.7 19.4 13.25 19.85 Q15.5 35.65 8.95 50.2 L7.95 49.85 5.15 49.0 7.25 48.0 7.35 47.05 8.15 46.7 8.65 44.3 Q12.25 26.0 9.6 7.3 L9.7 5.3 Q9.55 2.95 9.0 0.65 L8.55 -0.85 8.45 -1.25 8.3 -1.65 Q8.1 -2.15 8.2 -2.6 8.45 -4.4 7.4 -5.75 L7.2 -6.5 6.0 -9.95 5.95 -10.1 Q1.2 -20.0 -15.3 -24.35 L-15.95 -24.6 -16.45 -24.65 -16.7 -24.7 -17.0 -24.65 -17.95 -24.45 -18.4 -24.3 -18.75 -24.05 -19.25 -23.55 -19.35 -23.4 -19.85 -22.35 Q-22.0 -21.2 -21.55 -19.1 L-22.1 -18.75 -22.1 -18.1 Q-22.3 -2.15 -18.25 14.35 -16.6 21.3 -12.8 28.3 -11.1 31.6 -9.95 35.0 -8.85 38.3 -6.95 41.5 L-7.0 41.6 -6.85 42.1 -6.6 42.85 Q-4.3 46.5 1.0 49.2 3.9 50.65 7.15 51.5 L10.1 52.05 11.0 51.9 Q14.4 52.25 17.4 51.85 L18.2 51.65 18.35 51.6 18.15 51.5 M12.5 7.25 L12.7 8.0 12.6 7.85 12.4 7.65 12.45 7.3 12.5 7.25 M15.7 -38.2 L16.0 -37.85 17.05 -36.1 17.2 -35.75 17.2 -35.45 17.2 -35.15 Q19.35 -33.2 19.55 -30.3 L19.65 -29.1 Q20.85 -25.95 21.55 -22.65 L21.95 -21.7 22.1 -20.7 22.1 -20.55 22.15 -20.5 23.4 -10.7 24.0 -4.55 23.9 -4.5 Q24.5 2.95 24.4 10.35 24.15 26.25 22.15 42.0 L21.5 48.0 20.75 51.25 Q21.4 51.9 20.25 52.55 18.5 53.45 15.95 53.45 L15.2 53.65 Q9.25 53.85 3.55 51.75 -2.35 49.6 -6.05 46.2 -8.35 44.05 -9.15 41.75 -13.5 32.95 -17.2 23.9 -24.25 6.95 -24.35 -9.95 L-24.2 -17.05 -24.3 -17.05 -24.1 -19.2 -24.1 -19.7 -24.0 -19.75 -24.0 -20.35 -23.95 -20.5 -23.95 -20.65 -23.95 -20.75 Q-23.1 -30.25 -20.6 -39.55 -19.15 -44.95 -15.55 -49.6 L-15.25 -49.6 -15.2 -49.6 -13.45 -50.8 -12.3 -51.3 -11.55 -52.0 -10.1 -53.0 -8.55 -53.05 -8.3 -53.4 -7.9 -53.5 -7.2 -53.55 -7.1 -53.6 -2.55 -52.3 Q0.25 -51.7 3.0 -50.35 5.45 -49.15 7.45 -47.4 L7.7 -47.25 10.15 -44.6 13.4 -41.5 Q14.8 -40.05 15.7 -38.2" fill="#000000" fill-rule="evenodd" stroke="none"/>
      <path d="M9.5 -7.25 L9.55 -7.15 9.55 -7.1 9.5 -7.25 M9.65 -6.9 L10.15 -6.0 10.55 -4.25 10.4 -4.7 9.65 -6.9 M10.95 -1.75 L11.05 -1.45 11.1 -1.2 11.15 -0.85 10.95 -1.75 M12.65 18.1 L12.65 18.6 12.7 19.4 12.55 19.25 12.65 18.1 M7.95 49.85 L7.8 50.05 Q7.8 50.95 7.15 51.5 3.9 50.65 1.0 49.2 -4.3 46.5 -6.6 42.85 L-6.85 42.1 -7.0 41.6 -6.95 41.5 Q-8.85 38.3 -9.95 35.0 -11.1 31.6 -12.8 28.3 -16.6 21.3 -18.25 14.35 -22.3 -2.15 -22.1 -18.1 L-22.1 -18.75 -21.55 -19.1 Q-22.0 -21.2 -19.85 -22.35 L-19.35 -23.4 -19.25 -23.55 -18.8 -23.95 -17.95 -24.45 -17.0 -24.65 -16.7 -24.7 -16.45 -24.65 -15.95 -24.6 -15.3 -24.35 Q1.2 -20.0 5.95 -10.1 L6.0 -9.95 7.2 -6.5 7.4 -5.75 Q8.45 -4.4 8.2 -2.6 8.1 -2.15 8.3 -1.65 L8.45 -1.25 8.55 -0.85 9.0 0.65 Q9.55 2.95 9.7 5.3 L9.6 7.3 Q12.25 26.0 8.65 44.3 L8.15 46.7 7.35 47.05 7.25 48.0 5.15 49.0 7.95 49.85" fill="#d79e4a" fill-rule="evenodd" stroke="none"/>
    </g>
    <g id="shape2" transform="matrix(1.0, 0.0, 0.0, 1.0, -50.5, -6.35)">
      <path d="M57.95 43.4 Q43.6 25.1 58.8 6.85" fill="none" stroke="#000000" stroke-linecap="round" stroke-linejoin="round" stroke-width="1.0"/>
    </g>
    <g id="morphshape0" transform="matrix(1.0, 0.0, 0.0, 1.0, -1.2, -5.25)">
      <path d="M1.25 22.2 Q2.25 31.35 11.7 34.75 16.2 36.3 20.95 37.0 33.0 38.75 43.75 35.05 L49.35 32.4 Q50.2 31.9 52.7 31.2 54.15 29.75 52.05 29.55 47.35 31.8 43.75 33.8 39.7 35.15 33.85 35.95 27.95 36.75 22.45 36.05 16.9 35.35 13.35 34.35 4.55 31.75 3.0 23.45 1.3 14.4 9.9 9.2 16.8 4.95 25.25 6.95 L28.25 7.9 Q30.05 8.7 31.4 10.0 35.9 14.25 34.55 20.25 33.2 26.0 27.45 28.55 L27.4 28.6 Q23.8 30.15 19.55 29.2 16.8 27.7 15.05 25.35 14.2 24.15 14.0 22.75 13.25 15.35 20.75 16.1 25.55 16.55 23.3 20.25 L23.6 20.7 24.25 20.75 Q26.35 17.35 23.1 15.6 20.9 14.4 18.4 15.1 12.25 16.75 12.75 22.75 13.25 28.1 19.85 30.05 23.9 31.3 27.45 29.65 30.0 28.75 31.95 27.05 36.65 23.0 36.35 17.05 36.0 11.0 30.55 7.9 27.45 6.1 23.9 5.35 8.15 4.15 2.1 17.15 0.95 19.55 1.25 22.2" fill="#000000" fill-rule="evenodd" stroke="none"/>
      <path d="M1.25 22.2 Q0.95 19.55 2.1 17.15 8.15 4.15 23.9 5.35 27.45 6.1 30.55 7.9 36.0 11.0 36.35 17.05 36.65 23.0 31.95 27.05 30.0 28.75 27.45 29.65 23.9 31.3 19.85 30.05 13.25 28.1 12.75 22.75 12.25 16.75 18.4 15.1 20.9 14.4 23.1 15.6 26.35 17.35 24.25 20.75 L23.6 20.7 23.3 20.25 Q25.55 16.55 20.75 16.1 13.25 15.35 14.0 22.75 14.2 24.15 15.05 25.35 16.8 27.7 19.55 29.2 23.8 30.15 27.4 28.6 L27.45 28.55 Q33.2 26.0 34.55 20.25 35.9 14.25 31.4 10.0 30.05 8.7 28.25 7.9 L25.25 6.95 Q16.8 4.95 9.9 9.2 1.3 14.4 3.0 23.45 4.55 31.75 13.35 34.35 16.9 35.35 22.45 36.05 27.95 36.75 33.85 35.95 39.7 35.15 43.75 33.8 47.35 31.8 52.05 29.55 54.15 29.75 52.7 31.2 50.2 31.9 49.35 32.4 L43.75 35.05 Q33.0 38.75 20.95 37.0 16.2 36.3 11.7 34.75 2.25 31.35 1.25 22.2 Z" ffdec:has-small-stroke="true" ffdec:original-stroke-width="0.0" fill="none" stroke="#000000" stroke-linecap="round" stroke-linejoin="round" stroke-opacity="0.0" stroke-width="1.0"/>
    </g>
    <g id="shape3" transform="matrix(1.0, 0.0, 0.0, 1.0, 8.25, 17.45)">
      <path d="M0.2 -16.45 Q-0.25 -14.8 -1.45 -13.2 -4.85 -8.05 -6.5 -1.95 -8.75 6.3 -3.85 12.6 L-4.15 12.6 -4.15 12.65 -4.1 12.75 -4.2 13.05 -4.25 13.15 Q-5.7 13.7 -6.15 15.2 L-6.2 15.55 -6.15 15.65 -5.95 15.95 -5.9 16.05 -1.6 16.45 -1.5 16.65 Q-1.45 16.85 -1.55 17.05 -4.9 18.45 -7.15 16.0 -7.25 13.95 -5.6 12.65 L-5.3 12.45 Q-7.4 10.2 -8.0 6.65 -8.8 2.0 -7.25 -4.3 -5.75 -10.25 -0.25 -17.45 L-0.05 -17.4 0.1 -17.35 0.2 -16.45 M4.1 -13.8 Q3.4 -12.0 2.85 -6.05 2.25 -0.15 4.0 4.95 5.7 9.8 7.05 11.9 L8.0 12.85 Q5.65 13.55 5.45 14.35 L5.15 15.4 Q6.5 16.65 8.15 16.7 L8.25 16.8 8.25 16.9 8.2 17.15 8.15 17.25 Q6.0 17.7 4.2 16.1 3.8 14.0 5.0 13.2 L6.25 12.35 4.4 9.55 Q2.8 7.05 1.9 0.25 1.0 -6.6 2.25 -11.45 3.55 -16.25 4.35 -16.6 4.75 -15.6 4.1 -13.8" fill="#000000" fill-rule="evenodd" stroke="none"/>
    </g>
    <g id="morphshape1" transform="matrix(1.0, 0.0, 0.0, 1.0, -63.4, -7.9)">
      <path d="M63.9 8.4 Q65.3 10.45 66.0 12.45 L67.8 17.15 69.0 20.95 Q69.4 22.9 69.8 24.9 L70.0 28.1 69.5 32.75" fill="none" stroke="#000000" stroke-linecap="round" stroke-linejoin="round" stroke-width="1.0"/>
    </g>
    <g id="shape4" transform="matrix(1.0, 0.0, 0.0, 1.0, 11.75, 6.95)">
      <path d="M-4.85 -6.3 L-4.75 -6.35 -4.65 -6.45 -4.6 -6.45 Q-0.95 -7.6 2.35 -6.15 3.95 -5.55 5.2 -4.3 L5.45 -4.25 5.7 -4.1 5.75 -4.05 6.1 -4.6 7.4 -6.15 7.45 -6.2 7.6 -6.25 7.6 -6.3 Q9.35 -6.9 10.75 -5.85 L10.9 -5.8 10.9 -5.75 11.0 -5.55 11.05 -5.45 11.1 -5.45 11.1 -5.35 11.1 -5.3 11.2 -5.25 11.25 -5.25 11.25 -5.2 11.35 -4.75 11.45 -4.55 11.5 -4.4 11.55 -4.25 11.5 -4.2 11.6 -3.9 11.8 -2.45 11.75 -2.0 11.7 -1.9 11.5 -1.3 11.4 -1.2 11.4 -1.1 11.35 -1.05 11.1 -0.8 11.0 -0.7 7.55 -0.55 7.05 -0.75 6.85 -0.85 6.8 -0.95 6.8 -0.5 Q6.85 1.9 5.25 3.9 L5.2 4.15 Q4.1 5.7 2.25 6.4 L2.0 6.6 -1.5 6.95 -2.15 7.0 Q-4.8 6.25 -6.8 4.35 -7.75 3.45 -7.95 2.4 L-8.3 2.4 -8.4 2.15 -8.05 2.0 -8.05 0.7 -8.05 0.6 -8.05 0.55 -8.35 0.6 -9.6 0.75 -9.7 0.7 -10.25 0.5 -11.15 -0.1 -11.15 -0.15 -11.35 -0.3 -11.35 -0.35 -11.55 -0.8 -11.65 -1.1 -11.7 -1.4 -11.75 -1.85 -11.65 -2.0 -11.6 -2.15 -11.6 -2.3 -11.3 -2.75 -10.85 -3.15 -10.75 -3.3 -10.6 -3.35 -10.0 -3.55 -10.0 -3.6 -9.85 -3.6 Q-8.2 -3.55 -6.85 -2.35 -5.7 -4.6 -3.7 -6.0 L-4.7 -6.05 -4.8 -6.15 -4.85 -6.3 M-7.4 -1.3 L-7.2 -1.65 -7.15 -1.75 -7.25 -1.95 -7.35 -2.05 -7.45 -2.15 -8.85 -2.85 -8.95 -2.9 -9.35 -2.95 -10.2 -2.85 -10.25 -2.85 -11.0 -2.0 -11.0 -1.9 -11.2 -1.6 -11.2 -1.55 -11.2 -1.4 -11.15 -1.1 -11.1 -0.8 -11.0 -0.7 -10.2 0.0 -10.2 0.05 -9.6 0.1 -9.5 0.1 -7.95 -0.15 -7.7 -0.65 -7.4 -1.3 M-10.65 -3.0 L-10.65 -2.95 -10.65 -3.0 M5.85 1.95 L5.9 1.75 6.3 -1.1 6.3 -1.15 6.3 -1.2 6.3 -1.3 6.25 -1.6 5.75 -2.9 5.75 -2.95 5.7 -3.1 5.55 -3.4 4.65 -4.1 4.6 -4.2 Q3.55 -5.05 2.35 -5.7 L2.25 -5.85 1.7 -5.95 -2.65 -6.15 Q-4.45 -5.05 -5.65 -3.4 L-6.65 -1.6 -6.85 -1.15 -6.9 -1.0 -7.6 0.15 -7.55 0.55 -7.5 1.65 -7.5 1.75 -6.25 1.35 -3.35 0.65 -3.0 0.45 -0.75 0.15 -0.65 0.15 -0.05 0.1 0.0 0.1 0.65 0.1 0.8 0.15 0.9 0.15 1.2 0.1 1.25 0.1 2.1 0.2 2.2 0.25 3.25 0.25 Q5.0 0.3 5.95 1.5 L5.9 1.55 5.7 1.65 5.4 1.65 4.7 1.25 Q3.0 0.6 1.1 0.7 L1.05 0.65 0.0 0.65 -0.25 0.65 -0.75 0.7 -1.8 0.95 -2.85 1.1 -3.45 1.25 -7.5 2.25 -7.4 2.85 Q-6.95 3.8 -6.05 4.4 L-5.2 5.1 -5.1 5.15 -5.1 5.2 -5.05 5.2 -4.3 5.6 -4.25 5.65 -4.15 5.75 -2.15 6.45 -2.05 6.5 1.85 6.05 4.1 4.75 Q4.7 4.45 4.8 3.8 L4.9 3.55 5.85 1.95 M6.95 -1.65 L7.1 -1.55 7.2 -1.4 7.8 -1.25 8.6 -1.0 9.0 -0.85 10.05 -1.05 10.75 -1.35 10.9 -1.4 11.1 -1.7 11.2 -1.8 11.2 -1.95 11.3 -2.3 11.3 -2.4 11.0 -4.15 11.0 -4.2 11.0 -4.25 10.9 -4.35 10.85 -4.5 10.85 -4.55 10.65 -4.65 10.5 -4.8 10.5 -4.95 10.1 -5.45 9.95 -5.6 9.95 -5.65 9.85 -5.7 9.85 -5.75 9.7 -5.75 9.4 -5.8 7.7 -5.7 7.1 -5.1 Q6.45 -4.55 6.15 -3.7 L6.1 -3.6 6.1 -3.55 6.15 -3.35 6.25 -3.15 6.55 -2.3 6.85 -1.75 6.95 -1.65 M-2.6 1.65 L-2.45 1.4 -2.4 1.4 -2.35 1.3 Q-2.1 1.25 -2.05 1.5 L-2.15 1.75 Q-2.3 2.0 -2.55 1.75 L-2.6 1.65 M-0.8 1.1 L-0.7 1.3 Q-0.65 1.65 -0.95 1.75 L-1.25 1.7 -1.3 1.65 -1.35 1.55 -1.3 1.25 -1.2 1.15 -1.15 1.1 -0.95 1.05 -0.8 1.1" fill="#000000" fill-rule="evenodd" stroke="none"/>
      <path d="M-7.4 -1.3 L-7.75 -1.65 -8.65 -2.25 Q-9.45 -2.3 -10.0 -1.7 L-9.95 -1.6 -10.0 -1.4 -10.05 -1.35 -10.1 -1.3 -10.1 -1.15 -9.85 -0.7 -9.5 -0.4 Q-8.9 -0.1 -8.3 -0.4 L-7.85 -0.6 -7.7 -0.65 -7.95 -0.15 -9.5 0.1 -9.6 0.1 -10.2 0.05 -10.2 0.0 -11.0 -0.7 -11.1 -0.8 -11.15 -1.1 -11.2 -1.4 -11.2 -1.55 -11.2 -1.6 -11.0 -1.9 -11.0 -2.0 -10.25 -2.85 -10.2 -2.85 -9.35 -2.95 -8.95 -2.9 -8.85 -2.85 -7.45 -2.15 -7.35 -2.05 -7.25 -1.95 -7.15 -1.75 -7.2 -1.65 -7.4 -1.3 M-6.85 -1.15 L-6.65 -1.6 -5.65 -3.4 Q-4.45 -5.05 -2.65 -6.15 L1.7 -5.95 2.25 -5.85 2.35 -5.7 Q3.55 -5.05 4.6 -4.2 L4.65 -4.1 5.55 -3.4 5.7 -3.1 5.75 -2.95 5.75 -2.9 6.25 -1.6 6.3 -1.3 6.3 -1.2 6.3 -1.15 6.3 -1.1 5.9 1.75 5.85 1.95 5.8 1.9 5.7 1.65 5.9 1.55 5.95 1.5 Q5.0 0.3 3.25 0.25 L2.2 0.25 2.1 0.2 1.25 0.1 1.2 0.1 0.9 0.15 0.8 0.15 0.65 0.1 0.0 0.1 -0.05 0.1 -0.65 0.15 -0.75 0.15 -3.0 0.45 -3.35 0.65 -6.25 1.35 -7.5 1.75 -7.5 1.65 -7.55 0.55 -7.6 0.15 -6.9 -1.0 -6.8 -1.1 -6.85 -1.15 M6.15 -3.7 Q6.45 -4.55 7.1 -5.1 L7.7 -5.7 9.4 -5.8 9.7 -5.75 9.85 -5.75 9.85 -5.7 9.95 -5.65 9.95 -5.6 10.1 -5.45 10.5 -4.95 10.5 -4.8 10.65 -4.65 10.85 -4.55 10.85 -4.5 10.9 -4.35 11.0 -4.25 11.0 -4.2 11.0 -4.15 11.3 -2.4 11.3 -2.3 11.2 -1.95 11.2 -1.8 11.1 -1.7 10.9 -1.4 10.75 -1.35 10.05 -1.05 9.0 -0.85 8.6 -1.0 7.8 -1.25 7.2 -1.4 7.1 -1.55 6.95 -1.65 Q7.9 -1.55 8.7 -2.15 L8.85 -2.2 9.05 -2.55 9.25 -2.75 9.35 -2.95 9.45 -3.0 9.4 -3.15 9.3 -3.6 9.2 -3.75 9.1 -3.8 8.9 -4.0 Q8.85 -3.95 8.8 -4.05 L8.75 -4.05 8.3 -4.3 Q7.4 -4.35 6.8 -3.75 L6.75 -3.7 6.75 -3.65 6.75 -3.6 6.7 -3.6 6.45 -3.4 6.35 -3.35 6.35 -3.3 6.35 -3.2 6.3 -3.2 6.25 -3.15 6.15 -3.35 6.1 -3.55 6.1 -3.6 6.15 -3.7 M9.75 -3.9 L9.75 -3.85 9.85 -3.75 9.9 -3.65 9.75 -3.9" fill="#95632d" fill-rule="evenodd" stroke="none"/>
      <path d="M-7.7 -0.65 L-7.85 -0.6 -8.3 -0.4 Q-8.9 -0.1 -9.5 -0.4 L-9.85 -0.7 -10.1 -1.15 -10.1 -1.3 -10.05 -1.35 -10.0 -1.4 -9.95 -1.6 -10.0 -1.7 Q-9.45 -2.3 -8.65 -2.25 L-7.75 -1.65 -7.4 -1.3 -7.7 -0.65 M5.85 1.95 L4.9 3.55 4.8 3.8 Q4.7 4.45 4.1 4.75 L1.85 6.05 -2.05 6.5 -2.15 6.45 -4.15 5.75 -4.25 5.65 -4.3 5.6 -5.05 5.2 -5.1 5.2 -5.1 5.15 -5.2 5.1 -6.05 4.4 Q-6.95 3.8 -7.4 2.85 L-7.5 2.25 -3.45 1.25 -2.85 1.1 -1.8 0.95 -0.75 0.7 -0.25 0.65 0.0 0.65 1.05 0.65 1.1 0.7 Q3.0 0.6 4.7 1.25 L5.4 1.65 5.7 1.65 5.8 1.9 5.85 1.95 M-6.9 -1.0 L-6.85 -1.15 -6.8 -1.1 -6.9 -1.0 M6.25 -3.15 L6.3 -3.2 6.35 -3.2 6.35 -3.3 6.35 -3.35 6.45 -3.4 6.7 -3.6 6.75 -3.6 6.75 -3.65 6.75 -3.7 6.8 -3.75 Q7.4 -4.35 8.3 -4.3 L8.75 -4.05 8.8 -4.05 Q8.85 -3.95 8.9 -4.0 L9.1 -3.8 9.2 -3.75 9.3 -3.6 9.4 -3.15 9.45 -3.0 9.35 -2.95 9.25 -2.75 9.05 -2.55 8.85 -2.2 8.7 -2.15 Q7.9 -1.55 6.95 -1.65 L6.85 -1.75 6.55 -2.3 6.25 -3.15 M9.75 -3.9 L9.9 -3.65 9.85 -3.75 9.75 -3.85 9.75 -3.9 M-0.8 1.1 L-0.95 1.05 -1.15 1.1 -1.2 1.15 -1.3 1.25 -1.35 1.55 -1.3 1.65 -1.25 1.7 -0.95 1.75 Q-0.65 1.65 -0.7 1.3 L-0.8 1.1 M-2.6 1.65 L-2.55 1.75 Q-2.3 2.0 -2.15 1.75 L-2.05 1.5 Q-2.1 1.25 -2.35 1.3 L-2.4 1.4 -2.45 1.4 -2.6 1.65" fill="#d79e4a" fill-rule="evenodd" stroke="none"/>
    </g>
    <g id="sprite0" transform="matrix(1.0, 0.0, 0.0, 1.0, 16.2, 5.05)">
      <use ffdec:characterId="5" height="4.5" transform="matrix(1.0, 0.0, 0.0, 1.0, -7.65, -2.25)" width="15.3" xlink:href="#shape5"/>
    </g>
    <g id="shape5" transform="matrix(1.0, 0.0, 0.0, 1.0, 7.65, 2.25)">
      <path d="M7.6 -0.15 L7.6 0.5 Q0.1 3.55 -7.65 1.25 L-7.5 0.6 -6.9 -0.25 -6.15 -1.0 Q-1.9 -0.55 0.6 -2.25 L3.85 -1.55 7.1 -1.0 7.6 -0.15" fill="#000000" fill-rule="evenodd" stroke="none"/>
    </g>
    <g id="sprite1" transform="matrix(1.0, 0.0, 0.0, 1.0, 23.5, 12.3)">
      <use ffdec:characterId="12" height="17.25" transform="matrix(1.0, 0.0, 0.0, 1.0, -21.25, -10.1)" width="34.95" xlink:href="#shape6"/>
      <use ffdec:characterId="14" height="7.8" transform="matrix(1.0, 0.0, 0.0, 1.0, -16.85, -2.6)" width="25.55" xlink:href="#sprite2"/>
      <use ffdec:characterId="15" height="21.6" transform="matrix(1.0, 0.0, 0.0, 1.0, -23.5, -12.3)" width="39.4" xlink:href="#shape8"/>
    </g>
    <g id="shape6" transform="matrix(1.0, 0.0, 0.0, 1.0, 21.25, 10.1)">
      <path d="M5.7 -3.5 L6.05 -3.65 Q8.4 -4.15 10.45 -3.25 14.2 -1.65 13.65 2.6 13.55 3.45 13.05 4.05 L13.0 4.05 Q12.15 5.5 9.65 5.75 4.25 6.25 1.75 1.95 L1.6 1.85 1.5 1.45 1.45 1.4 1.4 0.8 1.4 -0.35 Q1.6 -1.85 3.15 -2.45 L5.7 -3.5" fill="#ffffff" fill-rule="evenodd" stroke="none"/>
      <path d="M-20.35 -6.45 L-19.75 -7.25 Q-16.65 -9.65 -12.7 -9.9 -7.05 -10.85 -3.5 -6.9 -0.55 -3.6 -1.1 0.95 -1.35 3.2 -3.25 4.65 -5.15 6.2 -7.5 6.7 L-12.95 7.15 -14.6 6.7 Q-15.35 6.3 -16.15 6.0 -17.95 5.4 -18.85 3.85 -20.95 2.45 -21.2 -0.1 -21.5 -3.5 -20.35 -6.45" fill="#ffffff" fill-rule="evenodd" stroke="none"/>
    </g>
    <g id="sprite2" transform="matrix(1.0, 0.0, 0.0, 1.0, 2.75, 0.0)">
      <use ffdec:characterId="13" height="5.35" transform="matrix(1.0, 0.0, 0.0, 1.0, 0.0, 0.0)" width="22.8" xlink:href="#shape7"/>
    </g>
    <g id="shape7" transform="matrix(1.0, 0.0, 0.0, 1.0, 2.75, -2.45)">
      <path d="M20.05 6.1 Q20.1 6.9 19.55 7.35 L18.6 7.8 18.5 7.8 17.9 7.65 17.35 7.5 16.75 6.95 Q16.25 6.45 16.35 5.8 L16.4 5.75 16.5 5.45 17.2 4.75 17.55 4.7 Q18.9 4.3 19.7 5.2 20.05 5.55 20.05 6.1" fill="#000000" fill-rule="evenodd" stroke="none"/>
      <path d="M1.1 3.95 Q1.3 5.05 0.7 5.9 0.5 6.25 0.0 6.3 -2.4 6.65 -2.7 4.4 -2.9 3.0 -1.65 2.55 -0.55 2.3 0.25 2.8 0.9 3.25 1.1 3.95" fill="#000000" fill-rule="evenodd" stroke="none"/>
    </g>
    <g id="shape8" transform="matrix(1.0, 0.0, 0.0, 1.0, 23.5, 12.3)">
      <path d="M1.4 -3.5 L1.95 -3.95 Q3.6 -5.2 5.4 -5.65 L5.45 -5.75 10.95 -5.5 11.45 -4.7 11.5 -4.6 11.9 -4.5 11.95 -4.5 12.1 -4.4 12.9 -3.85 Q15.7 -1.75 15.9 1.25 L15.65 2.75 15.55 3.1 12.35 6.85 Q11.8 6.95 11.35 7.3 L8.15 7.3 3.75 6.35 2.35 5.85 2.05 5.65 -0.15 2.7 -0.2 2.05 -0.25 0.25 -0.1 -1.4 -0.05 -1.75 1.1 -3.5 1.4 -3.5 M3.15 -2.45 Q1.6 -1.85 1.4 -0.35 L1.4 0.8 1.45 1.4 1.5 1.45 1.6 1.85 1.75 1.95 Q4.25 6.25 9.65 5.75 12.15 5.5 13.0 4.05 L13.05 4.05 Q13.55 3.45 13.65 2.6 14.2 -1.65 10.45 -3.25 8.4 -4.15 6.05 -3.65 L5.7 -3.5 3.15 -2.45" fill="#000000" fill-rule="evenodd" stroke="none"/>
      <path d="M0.85 -1.4 L0.85 1.3 0.9 1.5 Q0.15 3.1 -0.35 4.8 L-1.85 6.1 -2.9 7.0 Q-5.4 8.6 -8.3 9.25 L-8.35 9.3 -17.8 8.0 -18.55 7.25 -21.55 4.25 -22.3 3.5 -22.3 2.95 Q-23.65 1.2 -23.5 -1.2 L-23.15 -4.4 -22.75 -6.1 -22.3 -6.6 -22.3 -7.0 -21.2 -8.55 -19.65 -9.75 Q-16.8 -11.35 -14.05 -12.25 -4.75 -13.0 -0.3 -5.45 -0.2 -4.75 0.35 -4.0 L0.85 -1.4 M-20.35 -6.45 Q-21.5 -3.5 -21.2 -0.1 -20.95 2.45 -18.85 3.85 -17.95 5.4 -16.15 6.0 -15.35 6.3 -14.6 6.7 L-12.95 7.15 -7.5 6.7 Q-5.15 6.2 -3.25 4.65 -1.35 3.2 -1.1 0.95 -0.55 -3.6 -3.5 -6.9 -7.05 -10.85 -12.7 -9.9 -16.65 -9.65 -19.75 -7.25 L-20.35 -6.45" fill="#000000" fill-rule="evenodd" stroke="none"/>
    </g>
    <g id="shape9" transform="matrix(1.0, 0.0, 0.0, 1.0, 6.9, 8.25)">
      <path d="M-0.5 -7.25 Q4.15 -7.95 5.2 -3.5 5.85 -0.7 5.5 2.2 5.45 2.75 5.8 3.5 7.8 7.7 3.0 7.75 0.7 7.75 -0.6 6.1 -1.4 5.05 -2.8 4.35 -5.65 2.9 -4.9 -1.45 -4.85 -1.75 -5.1 -2.15 -5.7 -3.0 -6.4 -3.3 -6.15 -5.25 -4.65 -6.6 -2.6 -8.55 -0.5 -7.25 L0.15 -6.8 -0.5 -7.25" fill="#ffffff" fill-rule="evenodd" stroke="none"/>
      <path d="M-0.5 -7.25 Q4.15 -7.95 5.2 -3.5 5.85 -0.7 5.5 2.2 5.45 2.75 5.8 3.5 7.8 7.7 3.0 7.75 0.7 7.75 -0.6 6.1 -1.4 5.05 -2.8 4.35 -5.65 2.9 -4.9 -1.45 -4.85 -1.75 -5.1 -2.15 -5.7 -3.0 -6.4 -3.3 -6.15 -5.25 -4.65 -6.6 -2.6 -8.55 -0.5 -7.25 L0.15 -6.8" ffdec:has-small-stroke="true" ffdec:original-stroke-width="1.0" fill="none" stroke="#000000" stroke-linecap="round" stroke-linejoin="round" stroke-width="1.0006485643292027"/>
    </g>
    <g id="shape10" transform="matrix(1.0, 0.0, 0.0, 1.0, 6.85, 3.25)">
      <path d="M-4.7 -2.6 L-4.4 -2.65 -3.3 -2.5 -2.55 -1.95 -1.95 -1.25 Q-1.0 0.1 -1.6 1.45 -3.35 2.85 -4.6 1.75 -6.5 -0.65 -4.7 -2.6" fill="#ff0000" fill-rule="evenodd" stroke="none"/>
      <path d="M-4.4 -2.65 Q-4.3 -3.15 -2.9 -3.25 0.25 -1.85 -0.45 2.05 L-1.0 2.6 Q-5.95 4.3 -6.5 1.5 L-6.85 -0.35 Q-6.7 -2.85 -4.7 -2.6 -6.5 -0.65 -4.6 1.75 -3.35 2.85 -1.6 1.45 -1.0 0.1 -1.95 -1.25 L-2.55 -1.95 -3.3 -2.5 -4.4 -2.65" fill="#000000" fill-rule="evenodd" stroke="none"/>
      <path d="M-1.0 0.05 L6.2 0.1 Q6.65 0.1 6.8 -0.4 L6.75 -0.55 Q6.75 -1.05 6.2 -1.05 L6.2 -1.1 -1.05 -0.75 -1.35 -0.45 -1.3 -0.3 -1.0 0.05" fill="#000000" fill-rule="evenodd" stroke="none"/>
      <path d="M-4.45 0.55 Q-4.9 0.85 -5.25 0.4 -6.25 -0.9 -4.65 -1.35 -2.75 -0.55 -4.45 0.55" fill="#ffffff" fill-rule="evenodd" stroke="none"/>
    </g>
    <g id="shape11" transform="matrix(1.0, 0.0, 0.0, 1.0, 49.2, -3.2)">
      <path d="M-7.5 13.8 Q-9.1 10.3 -12.55 7.75 -18.85 3.25 -26.25 4.8 L-26.25 5.9 Q-26.0 9.6 -27.6 12.85 -28.4 14.35 -29.7 15.35 -32.85 17.65 -36.4 18.45 -36.4 22.5 -33.7 25.0 -30.0 28.4 -23.9 29.3 -16.6 30.45 -10.5 26.7 -9.0 25.75 -8.0 24.35 -4.8 19.6 -7.5 13.8 M-12.9 6.1 Q-5.5 10.1 -5.05 18.4 -4.65 25.55 -11.4 28.75 -18.05 31.95 -25.5 30.4 -30.65 29.4 -34.45 25.65 -37.65 22.45 -37.9 18.75 L-37.95 18.75 -37.95 17.85 -37.9 17.85 -36.6 17.7 -33.75 16.85 Q-32.0 16.15 -30.7 15.0 -29.4 13.85 -28.45 12.25 -27.5 10.7 -27.25 9.2 -27.0 7.7 -27.05 6.45 -27.1 5.1 -27.7 4.1 L-25.4 3.2 -24.95 3.2 -25.05 3.3 Q-18.6 3.0 -12.9 6.1" fill="#000000" fill-rule="evenodd" stroke="none"/>
      <path d="M-7.5 13.8 Q-4.8 19.6 -8.0 24.35 -9.0 25.75 -10.5 26.7 -16.6 30.45 -23.9 29.3 -30.0 28.4 -33.7 25.0 -36.4 22.5 -36.4 18.45 -32.85 17.65 -29.7 15.35 -28.4 14.35 -27.6 12.85 -26.0 9.6 -26.25 5.9 L-26.25 4.8 Q-18.85 3.25 -12.55 7.75 -9.1 10.3 -7.5 13.8" fill="#ff9900" fill-rule="evenodd" stroke="none"/>
      <path d="M-7.5 13.8 Q-4.8 19.6 -8.0 24.35 -9.0 25.75 -10.5 26.7 -16.6 30.45 -23.9 29.3 -30.0 28.4 -33.7 25.0 -36.4 22.5 -36.4 18.45 -32.85 17.65 -29.7 15.35 -28.4 14.35 -27.6 12.85 -26.0 9.6 -26.25 5.9 L-26.25 4.8 Q-18.85 3.25 -12.55 7.75 -9.1 10.3 -7.5 13.8" fill="url(#gradient0)" fill-rule="evenodd" stroke="none"/>
      <path d="M-47.05 21.5 L-46.75 21.45 -45.65 21.6 -44.9 22.15 -44.3 22.85 Q-43.35 24.2 -43.95 25.55 -45.7 26.95 -46.95 25.85 -48.85 23.45 -47.05 21.5" fill="#ff0000" fill-rule="evenodd" stroke="none"/>
      <path d="M-46.75 21.45 Q-46.65 20.95 -45.25 20.85 -42.1 22.25 -42.8 26.15 L-43.35 26.7 Q-48.3 28.4 -48.85 25.6 L-49.2 23.75 Q-49.05 21.25 -47.05 21.5 -48.85 23.45 -46.95 25.85 -45.7 26.95 -43.95 25.55 -43.35 24.2 -44.3 22.85 L-44.9 22.15 -45.65 21.6 -46.75 21.45" fill="#000000" fill-rule="evenodd" stroke="none"/>
      <path d="M-43.35 24.15 L-36.15 24.2 Q-35.7 24.2 -35.55 23.7 L-35.6 23.55 Q-35.6 23.05 -36.15 23.05 L-36.15 23.0 -43.4 23.35 Q-43.75 23.35 -43.7 23.65 L-43.65 23.8 -43.35 24.15" fill="#000000" fill-rule="evenodd" stroke="none"/>
      <path d="M-46.8 24.65 Q-47.25 24.95 -47.6 24.5 -48.6 23.2 -47.0 22.75 -45.1 23.55 -46.8 24.65" fill="#ffffff" fill-rule="evenodd" stroke="none"/>
    </g>
    <radialGradient cx="0" cy="0" gradientTransform="matrix(0.0385, 0.0, 0.0, 0.0276, -15.35, 8.15)" gradientUnits="userSpaceOnUse" id="gradient0" r="819.2" spreadMethod="pad">
      <stop offset="0.0" stop-color="#febf74"/>
      <stop offset="0.4980392156862745" stop-color="#ff9900"/>
      <stop offset="1.0" stop-color="#ff6600"/>
    </radialGradient>
    <g id="sprite3" transform="matrix(1.0, 0.0, 0.0, 1.0, 0.0, 0.0)">
      <use ffdec:characterId="42" height="40.0" transform="matrix(0.4, 0.0, 0.0, 0.5, 0.0, 0.0)" width="50.0" xlink:href="#shape12"/>
    </g>
    <g id="shape12" transform="matrix(1.0, 0.0, 0.0, 1.0, 0.0, 0.0)">
      <path d="M50.0 0.0 L50.0 40.0 0.0 40.0 0.0 0.0 50.0 0.0" fill="#ffffff" fill-opacity="0.0" fill-rule="evenodd" stroke="none"/>
    </g>
    <g id="sprite4" transform="matrix(1.0, 0.0, 0.0, 1.0, -0.05, 0.0)">
      <use ffdec:characterId="304" height="20.0" transform="matrix(1.0, 0.0, 0.0, 1.0, 0.05, 0.0)" width="20.0" xlink:href="#shape13"/>
    </g>
    <g id="shape13" transform="matrix(1.0, 0.0, 0.0, 1.0, -0.05, 0.0)">
      <path d="M10.05 20.0 Q5.9 20.0 2.95 17.05 0.0 14.1 0.05 10.0 0.0 5.85 2.95 2.9 5.9 0.0 10.05 0.0 14.15 0.0 17.1 2.9 20.05 5.85 20.05 10.0 20.05 14.1 17.1 17.05 14.15 20.0 10.05 20.0" fill="#ffffff" fill-opacity="0.0" fill-rule="evenodd" stroke="none"/>
    </g>
  </defs>
</svg>
