<?xml version="1.0" encoding="UTF-8" standalone="no"?>
<svg xmlns:ffdec="https://www.free-decompiler.com/flash" xmlns:xlink="http://www.w3.org/1999/xlink" ffdec:objectType="frame" height="110.8px" width="126.55px" xmlns="http://www.w3.org/2000/svg">
  <g transform="matrix(1.0, 0.0, 0.0, 1.0, 125.65, 69.65)">
    <use ffdec:characterId="369" height="62.5" transform="matrix(1.0, 0.0, 0.0, 1.0, -116.7, -33.35)" width="68.15" xlink:href="#shape0"/>
    <use ffdec:characterId="298" height="107.25" transform="matrix(-0.0076, 0.2132, 0.2132, 0.0076, -91.4903, 20.0013)" width="48.75" xlink:href="#shape1"/>
    <use ffdec:characterId="370" height="14.6" transform="matrix(1.0, 0.0, 0.0, 1.0, -107.6, 8.6)" width="22.7" xlink:href="#shape2"/>
    <use ffdec:characterId="17" height="21.6" transform="matrix(-0.2216, 0.0586, 0.0586, 0.2216, -91.163, 10.3464)" width="39.4" xlink:href="#sprite0"/>
    <use ffdec:characterId="371" height="18.45" transform="matrix(1.0, 0.0, 0.0, 1.0, -106.0, 18.2)" width="70.0" xlink:href="#shape6"/>
    <use ffdec:characterId="372" height="14.0" transform="matrix(1.0, 0.0, 0.0, 1.0, -38.0, 4.15)" width="11.1" xlink:href="#shape7"/>
    <use ffdec:characterId="312" height="6.5" transform="matrix(0.75, 0.0, 0.0, 1.0, -30.9875, 20.85)" width="13.65" xlink:href="#shape8"/>
    <use ffdec:characterId="349" height="27.7" transform="matrix(1.0, 0.0, 0.0, 1.0, -49.2, 3.2)" width="44.15" xlink:href="#shape9"/>
    <use ffdec:characterId="376" height="24.65" transform="matrix(1.0, 0.0, 0.0, 1.0, -113.4, 9.2)" width="59.75" xlink:href="#shape10"/>
    <use ffdec:characterId="374" height="12.0" transform="matrix(1.0, 0.0, 0.0, 1.0, -36.45, 5.65)" width="9.2" xlink:href="#shape11"/>
    <use ffdec:characterId="305" height="20.0" id="mcHitTestCannon" transform="matrix(1.75, 0.0, 0.0, 1.75, -38.5125, 0.25)" width="20.0" xlink:href="#sprite2"/>
  </g>
  <defs>
    <g id="shape0" transform="matrix(1.0, 0.0, 0.0, 1.0, 116.7, 33.35)">
      <path d="M-103.25 28.65 Q-109.2 29.0 -112.5 21.85 -114.8 16.9 -115.2 11.4 L-115.85 11.3 -116.2 11.1 M-111.9 7.45 Q-111.9 11.6 -115.2 11.4" fill="none" stroke="#000000" stroke-linecap="round" stroke-linejoin="round" stroke-width="1.0"/>
      <path d="M-51.4 -3.6 Q-52.15 -1.7 -53.35 -0.35 -57.3 4.3 -62.15 2.45 -66.9 0.65 -68.6 -5.65 L-68.6 -5.7 Q-69.7 -9.65 -68.55 -14.15 -67.1 -17.0 -65.0 -18.7 -63.95 -19.6 -62.8 -19.75 -56.5 -20.1 -57.75 -12.15 -58.45 -7.0 -61.35 -9.6 -61.5 -9.5 -61.75 -9.35 L-61.85 -8.65 Q-59.15 -6.2 -57.45 -9.6 -56.3 -11.85 -56.65 -14.55 -57.6 -21.25 -62.7 -21.05 -67.15 -20.8 -69.3 -13.9 -70.6 -9.55 -69.5 -5.7 -68.95 -2.95 -67.7 -0.7 -64.65 4.5 -59.6 4.5 -54.55 4.5 -51.55 -1.15 -49.8 -4.35 -48.9 -8.1 -46.8 -24.9 -57.2 -32.15 -59.1 -33.5 -61.35 -33.35 -69.1 -32.8 -72.6 -22.9 -74.25 -18.15 -75.2 -13.1 -77.55 -0.3 -75.2 11.45 L-73.4 17.6 Q-73.1 18.55 -72.7 21.2 -71.6 22.9 -71.25 20.65 L-74.15 11.5 Q-75.0 7.1 -75.25 0.8 -75.45 -5.55 -74.5 -11.5 -73.55 -17.4 -72.4 -21.15 -69.6 -30.35 -62.5 -31.55 -54.85 -32.8 -51.15 -23.35 -48.1 -15.7 -50.4 -6.75 L-51.4 -3.6" fill="#000000" fill-rule="evenodd" stroke="none"/>
    </g>
    <g id="shape1" transform="matrix(1.0, 0.0, 0.0, 1.0, 24.35, 53.6)">
      <path d="M9.5 -7.25 Q8.8 -9.65 7.5 -11.8 L5.6 -14.5 5.5 -14.65 Q0.6 -20.5 -9.25 -25.0 -12.85 -26.65 -16.7 -27.7 L-17.45 -27.75 Q-20.25 -26.25 -20.95 -23.8 -21.3 -22.75 -21.95 -21.8 -21.0 -35.4 -14.1 -47.9 L-12.6 -48.5 -12.45 -48.5 -11.6 -48.7 -11.55 -48.9 -8.55 -49.65 -8.25 -49.9 -8.05 -50.15 -6.6 -50.55 Q-5.05 -51.1 -3.5 -50.55 L-2.9 -50.15 Q-1.45 -49.4 0.1 -48.8 3.0 -47.8 5.45 -46.05 L5.95 -45.15 7.95 -44.05 Q8.85 -42.6 10.25 -41.55 L11.45 -40.45 11.5 -40.1 11.55 -39.85 11.65 -39.5 Q13.3 -38.55 14.1 -36.7 14.45 -35.85 15.1 -35.15 L15.15 -34.85 15.2 -34.55 15.3 -34.25 15.55 -33.9 16.2 -32.9 16.85 -30.8 17.2 -29.45 17.2 -29.05 17.2 -28.75 17.4 -28.45 17.5 -28.3 17.6 -27.85 17.6 -27.25 17.6 -26.65 17.6 -26.35 17.8 -26.05 18.0 -25.7 18.1 -25.15 18.4 -23.3 18.45 -23.0 18.75 -22.7 18.8 -22.65 Q21.45 -9.9 21.95 2.75 22.55 16.3 22.0 29.75 21.6 40.8 18.15 51.5 L18.2 51.65 17.4 51.85 Q14.4 52.25 11.0 51.9 L10.1 52.05 7.15 51.5 Q7.8 50.95 7.8 50.05 L7.95 49.85 8.95 50.2 Q15.5 35.65 13.25 19.85 L12.7 19.4 12.65 18.6 12.65 18.1 13.0 14.0 12.3 13.4 Q12.65 10.6 12.45 7.85 L12.6 7.85 12.7 8.0 12.5 7.25 12.45 7.05 Q11.6 3.8 11.4 0.55 L11.2 -0.45 11.1 -1.2 11.05 -1.45 10.95 -1.75 10.85 -2.45 10.7 -3.6 10.55 -4.2 10.55 -4.25 10.15 -6.0 9.65 -6.9 9.55 -7.25 9.55 -7.15 9.5 -7.25 M-17.95 -24.45 L-18.8 -23.95 -19.25 -23.55 -18.75 -24.05 -18.4 -24.3 -17.95 -24.45" fill="#95632d" fill-rule="evenodd" stroke="none"/>
      <path d="M18.15 51.5 Q21.6 40.8 22.0 29.75 22.55 16.3 21.95 2.75 21.45 -9.9 18.8 -22.65 L18.75 -22.7 18.45 -23.0 18.4 -23.3 18.1 -25.15 18.0 -25.7 17.8 -26.05 17.6 -26.35 17.6 -26.65 17.6 -27.25 17.6 -27.85 17.5 -28.3 17.4 -28.45 17.2 -28.75 17.2 -29.05 17.2 -29.45 16.85 -30.8 16.2 -32.9 15.55 -33.9 15.3 -34.25 15.2 -34.55 15.15 -34.85 15.1 -35.15 Q14.45 -35.85 14.1 -36.7 13.3 -38.55 11.65 -39.5 L11.55 -39.85 11.5 -40.1 11.45 -40.45 10.25 -41.55 Q8.85 -42.6 7.95 -44.05 L5.95 -45.15 5.45 -46.05 Q3.0 -47.8 0.1 -48.8 -1.45 -49.4 -2.9 -50.15 L-3.5 -50.55 Q-5.05 -51.1 -6.6 -50.55 L-8.05 -50.15 -8.25 -49.9 -8.55 -49.65 -11.55 -48.9 -11.6 -48.7 -12.45 -48.5 -12.6 -48.5 -14.1 -47.9 Q-21.0 -35.4 -21.95 -21.8 -21.3 -22.75 -20.95 -23.8 -20.25 -26.25 -17.45 -27.75 L-16.7 -27.7 Q-12.85 -26.65 -9.25 -25.0 0.6 -20.5 5.5 -14.65 L5.6 -14.5 7.5 -11.8 Q8.8 -9.65 9.5 -7.25 L9.55 -7.1 9.55 -7.15 9.55 -7.25 9.65 -6.9 10.4 -4.7 10.55 -4.25 10.55 -4.2 10.7 -3.6 10.85 -2.45 10.95 -1.75 11.15 -0.85 11.2 -0.45 11.4 0.55 Q11.6 3.8 12.45 7.05 L12.35 6.95 12.4 7.65 12.45 7.85 Q12.65 10.6 12.3 13.4 L13.0 14.0 12.65 18.1 12.55 19.25 12.7 19.4 13.25 19.85 Q15.5 35.65 8.95 50.2 L7.95 49.85 5.15 49.0 7.25 48.0 7.35 47.05 8.15 46.7 8.65 44.3 Q12.25 26.0 9.6 7.3 L9.7 5.3 Q9.55 2.95 9.0 0.65 L8.55 -0.85 8.45 -1.25 8.3 -1.65 Q8.1 -2.15 8.2 -2.6 8.45 -4.4 7.4 -5.75 L7.2 -6.5 6.0 -9.95 5.95 -10.1 Q1.2 -20.0 -15.3 -24.35 L-15.95 -24.6 -16.45 -24.65 -16.7 -24.7 -17.0 -24.65 -17.95 -24.45 -18.4 -24.3 -18.75 -24.05 -19.25 -23.55 -19.35 -23.4 -19.85 -22.35 Q-22.0 -21.2 -21.55 -19.1 L-22.1 -18.75 -22.1 -18.1 Q-22.3 -2.15 -18.25 14.35 -16.6 21.3 -12.8 28.3 -11.1 31.6 -9.95 35.0 -8.85 38.3 -6.95 41.5 L-7.0 41.6 -6.85 42.1 -6.6 42.85 Q-4.3 46.5 1.0 49.2 3.9 50.65 7.15 51.5 L10.1 52.05 11.0 51.9 Q14.4 52.25 17.4 51.85 L18.2 51.65 18.35 51.6 18.15 51.5 M12.5 7.25 L12.7 8.0 12.6 7.85 12.4 7.65 12.45 7.3 12.5 7.25 M15.7 -38.2 L16.0 -37.85 17.05 -36.1 17.2 -35.75 17.2 -35.45 17.2 -35.15 Q19.35 -33.2 19.55 -30.3 L19.65 -29.1 Q20.85 -25.95 21.55 -22.65 L21.95 -21.7 22.1 -20.7 22.1 -20.55 22.15 -20.5 23.4 -10.7 24.0 -4.55 23.9 -4.5 Q24.5 2.95 24.4 10.35 24.15 26.25 22.15 42.0 L21.5 48.0 20.75 51.25 Q21.4 51.9 20.25 52.55 18.5 53.45 15.95 53.45 L15.2 53.65 Q9.25 53.85 3.55 51.75 -2.35 49.6 -6.05 46.2 -8.35 44.05 -9.15 41.75 -13.5 32.95 -17.2 23.9 -24.25 6.95 -24.35 -9.95 L-24.2 -17.05 -24.3 -17.05 -24.1 -19.2 -24.1 -19.7 -24.0 -19.75 -24.0 -20.35 -23.95 -20.5 -23.95 -20.65 -23.95 -20.75 Q-23.1 -30.25 -20.6 -39.55 -19.15 -44.95 -15.55 -49.6 L-15.25 -49.6 -15.2 -49.6 -13.45 -50.8 -12.3 -51.3 -11.55 -52.0 -10.1 -53.0 -8.55 -53.05 -8.3 -53.4 -7.9 -53.5 -7.2 -53.55 -7.1 -53.6 -2.55 -52.3 Q0.25 -51.7 3.0 -50.35 5.45 -49.15 7.45 -47.4 L7.7 -47.25 10.15 -44.6 13.4 -41.5 Q14.8 -40.05 15.7 -38.2" fill="#000000" fill-rule="evenodd" stroke="none"/>
      <path d="M9.5 -7.25 L9.55 -7.15 9.55 -7.1 9.5 -7.25 M9.65 -6.9 L10.15 -6.0 10.55 -4.25 10.4 -4.7 9.65 -6.9 M10.95 -1.75 L11.05 -1.45 11.1 -1.2 11.15 -0.85 10.95 -1.75 M12.65 18.1 L12.65 18.6 12.7 19.4 12.55 19.25 12.65 18.1 M7.95 49.85 L7.8 50.05 Q7.8 50.95 7.15 51.5 3.9 50.65 1.0 49.2 -4.3 46.5 -6.6 42.85 L-6.85 42.1 -7.0 41.6 -6.95 41.5 Q-8.85 38.3 -9.95 35.0 -11.1 31.6 -12.8 28.3 -16.6 21.3 -18.25 14.35 -22.3 -2.15 -22.1 -18.1 L-22.1 -18.75 -21.55 -19.1 Q-22.0 -21.2 -19.85 -22.35 L-19.35 -23.4 -19.25 -23.55 -18.8 -23.95 -17.95 -24.45 -17.0 -24.65 -16.7 -24.7 -16.45 -24.65 -15.95 -24.6 -15.3 -24.35 Q1.2 -20.0 5.95 -10.1 L6.0 -9.95 7.2 -6.5 7.4 -5.75 Q8.45 -4.4 8.2 -2.6 8.1 -2.15 8.3 -1.65 L8.45 -1.25 8.55 -0.85 9.0 0.65 Q9.55 2.95 9.7 5.3 L9.6 7.3 Q12.25 26.0 8.65 44.3 L8.15 46.7 7.35 47.05 7.25 48.0 5.15 49.0 7.95 49.85" fill="#d79e4a" fill-rule="evenodd" stroke="none"/>
    </g>
    <g id="shape2" transform="matrix(1.0, 0.0, 0.0, 1.0, 107.6, -8.6)">
      <path d="M-88.35 12.75 L-87.95 13.1 -86.45 12.7 -86.35 12.65 -85.75 12.4 -85.75 12.3 -85.25 11.4 -85.25 11.25 -85.35 11.0 -85.4 10.65 -85.45 10.5 -85.55 10.5 -85.75 10.3 -85.85 10.25 Q-86.3 9.75 -86.85 9.75 L-86.9 9.75 -87.7 10.0 -88.1 10.15 -88.15 10.25 -89.15 11.45 -89.25 11.6 -89.35 11.75 -89.35 11.95 -89.2 12.0 -88.85 12.3 -88.35 12.75 M-87.55 9.15 L-87.4 9.1 -87.4 9.15 -86.8 9.1 -86.55 9.1 -86.4 9.2 -85.85 9.4 -85.4 9.7 -85.4 9.8 -85.3 9.95 -85.1 10.05 -85.0 10.45 -84.9 10.75 -84.9 11.05 -84.95 11.6 -84.9 11.65 -84.95 11.85 -85.5 12.8 -86.0 13.15 -86.1 13.25 -87.25 13.6 -87.55 13.65 -87.55 13.7 -87.5 13.85 -87.0 15.05 -86.6 15.1 -86.55 15.3 -86.9 15.35 Q-86.75 16.55 -87.2 17.7 -88.3 20.2 -90.4 21.9 L-91.05 22.15 -94.4 23.2 -94.7 23.2 Q-96.65 23.15 -98.25 22.2 L-98.5 22.0 Q-100.75 20.8 -101.65 18.55 L-101.8 18.2 -101.85 18.3 -101.9 18.5 -102.35 18.8 Q-103.8 20.0 -105.55 20.0 L-105.7 19.95 -105.95 19.95 -106.0 19.9 -106.1 19.75 -106.25 19.75 -106.7 19.25 -106.75 19.2 -106.95 18.75 -107.35 17.35 -107.45 17.05 -107.45 17.0 -107.45 16.85 -107.45 16.7 -107.45 16.55 -107.55 16.0 -107.5 16.0 -107.5 15.95 -107.45 15.85 -107.5 15.75 -107.45 15.75 -107.45 15.65 -107.4 15.4 -107.4 15.35 -107.35 15.2 Q-106.45 13.75 -104.6 13.6 L-104.6 13.65 -104.4 13.65 -104.35 13.65 -102.55 14.55 -102.0 14.9 -102.05 14.85 -101.9 14.65 -101.65 14.5 Q-101.0 12.85 -99.8 11.65 -97.25 9.05 -93.45 8.6 L-93.35 8.6 -93.25 8.7 -93.2 8.85 -93.2 9.0 -94.15 9.35 Q-91.8 9.9 -89.75 11.55 -89.05 9.9 -87.55 9.15 M-99.8 20.1 L-99.95 20.15 -100.0 20.05 Q-99.7 18.6 -98.0 17.9 L-97.1 17.45 -97.05 17.35 Q-96.8 17.1 -96.25 17.0 L-96.25 16.9 -96.0 16.8 -95.9 16.8 -95.75 16.75 -95.15 16.4 -95.1 16.4 -94.5 16.2 -94.4 16.25 -93.05 15.85 -93.0 15.85 -92.2 15.65 -91.8 15.6 -88.9 15.15 -87.55 15.05 -87.6 14.95 -88.0 13.85 -88.1 13.55 -89.25 12.7 -89.3 12.65 -89.7 12.3 -91.4 11.05 Q-93.1 9.95 -95.1 9.7 -97.45 9.95 -99.05 11.55 L-99.55 11.9 -99.55 12.0 -101.1 14.35 -101.1 14.45 -101.6 15.5 -101.65 15.75 -101.65 15.95 -101.55 17.35 -101.5 17.6 -101.45 17.7 -101.45 17.75 -101.4 17.85 -99.9 20.35 -99.75 20.45 -98.25 21.6 -98.0 21.85 Q-97.75 22.3 -97.05 22.4 L-94.55 22.65 Q-92.45 22.5 -90.75 21.5 L-90.7 21.45 -89.05 20.0 -89.0 19.85 -89.05 19.8 -89.0 19.8 -88.5 19.15 -88.45 19.15 -88.45 19.1 -88.35 19.0 -87.85 18.05 Q-87.3 17.2 -87.25 16.05 L-87.4 15.5 -91.55 16.1 -92.15 16.25 -93.15 16.5 -94.15 16.75 -94.65 16.9 -94.95 16.95 -95.85 17.45 -95.9 17.45 Q-97.7 18.1 -98.95 19.4 L-99.45 20.05 -99.8 20.1 M-102.15 15.95 L-102.1 15.7 -102.15 15.5 -102.2 15.45 -102.25 15.45 -102.3 15.4 Q-102.9 14.75 -103.75 14.5 L-104.4 14.15 -106.05 14.7 -106.4 14.9 -106.5 14.95 -106.45 15.0 -106.55 15.1 -106.55 15.15 -106.6 15.35 -106.75 16.0 -106.75 16.1 -106.8 16.3 -106.9 16.5 -106.9 16.65 -106.9 16.85 -106.9 16.9 -106.45 18.65 -106.4 18.7 -106.2 19.05 -106.1 19.15 -105.75 19.35 -105.6 19.35 -104.8 19.4 -103.75 19.1 -103.4 18.85 -102.8 18.35 -102.75 18.25 -102.3 17.95 -102.25 17.8 -102.2 17.55 -102.15 17.5 -102.1 16.85 -102.15 15.95 M-93.45 16.95 L-93.25 17.3 -93.35 17.35 -93.35 17.5 -93.65 17.65 -94.0 17.3 -94.0 17.1 -93.9 16.95 -93.7 16.95 -93.6 16.95 -93.45 16.95 M-92.15 17.0 L-92.5 17.2 -92.7 16.95 Q-92.75 16.65 -92.4 16.65 L-92.15 16.9 -92.15 17.0" fill="#000000" fill-rule="evenodd" stroke="none"/>
      <path d="M-88.85 12.3 L-89.2 12.0 -89.35 11.95 -89.35 11.75 -89.25 11.6 -89.15 11.45 -88.15 10.25 -88.1 10.15 -87.7 10.0 -86.9 9.75 -86.85 9.75 Q-86.3 9.75 -85.85 10.25 L-85.75 10.3 -85.55 10.5 -85.45 10.5 -85.4 10.65 -85.35 11.0 -85.25 11.25 -85.25 11.4 -85.75 12.3 -85.75 12.4 -86.35 12.65 -86.45 12.7 -87.95 13.1 -88.35 12.75 -88.25 12.75 -87.65 12.75 Q-87.05 12.75 -86.65 12.3 L-86.35 11.85 -86.35 11.4 -86.35 11.35 -86.4 11.2 -86.5 11.15 -86.65 11.0 -86.65 10.9 -88.05 10.95 Q-88.55 11.3 -88.65 11.8 L-88.85 12.3 M-89.25 12.7 L-88.1 13.55 -88.0 13.85 -87.6 14.95 -87.55 15.05 -88.9 15.15 -91.8 15.6 -92.2 15.65 -93.0 15.85 -93.05 15.85 -94.4 16.25 -94.5 16.2 -95.1 16.4 -95.15 16.4 -95.75 16.75 -95.9 16.8 -96.0 16.8 -96.25 16.9 -96.25 17.0 Q-96.8 17.1 -97.05 17.35 L-97.1 17.45 -98.0 17.9 Q-99.7 18.6 -100.0 20.05 L-99.95 20.15 -99.8 20.1 -99.8 20.4 -99.75 20.45 -99.9 20.35 -101.4 17.85 -101.45 17.75 -101.45 17.7 -101.5 17.6 -101.55 17.35 -101.65 15.95 -101.65 15.75 -101.6 15.5 -101.1 14.45 -101.1 14.35 -99.55 12.0 -99.55 11.9 -99.05 11.55 Q-97.45 9.95 -95.1 9.7 -93.1 9.95 -91.4 11.05 L-89.7 12.3 -89.3 12.65 -89.25 12.7 M-102.2 17.55 L-102.25 17.8 -102.3 17.95 -102.75 18.25 -102.8 18.35 -103.4 18.85 -103.75 19.1 -104.8 19.4 -105.6 19.35 -105.75 19.35 -106.1 19.15 -106.2 19.05 -106.4 18.7 -106.45 18.65 -106.9 16.9 -106.9 16.85 -106.9 16.65 -106.9 16.5 -106.8 16.3 -106.75 16.1 -106.75 16.0 -106.6 15.35 -106.55 15.15 -106.55 15.1 -106.45 15.0 -106.5 14.95 -106.4 14.9 -106.05 14.7 -104.4 14.15 -103.75 14.5 Q-102.9 14.75 -102.3 15.4 L-102.25 15.45 -102.2 15.45 -102.15 15.5 -102.1 15.7 -102.15 15.95 -102.2 15.95 -102.25 15.95 -102.3 15.85 -102.45 15.85 -102.75 15.7 -102.85 15.65 -102.85 15.6 -102.9 15.6 -104.5 15.7 -104.8 16.05 -104.85 16.15 -104.9 16.25 -105.05 16.5 -105.1 16.55 -105.15 16.75 -105.05 17.2 -105.0 17.35 -104.9 17.4 Q-104.85 17.4 -104.75 17.5 L-104.5 17.7 -104.15 17.8 -103.95 17.85 Q-103.0 18.05 -102.2 17.55 M-105.7 16.8 L-105.65 16.75 -105.7 16.65 -105.7 16.9 -105.7 16.8" fill="#95632d" fill-rule="evenodd" stroke="none"/>
      <path d="M-88.35 12.75 L-88.85 12.3 -88.65 11.8 Q-88.55 11.3 -88.05 10.95 L-86.65 10.9 -86.65 11.0 -86.5 11.15 -86.4 11.2 -86.35 11.35 -86.35 11.4 -86.35 11.85 -86.65 12.3 Q-87.05 12.75 -87.65 12.75 L-88.25 12.75 -88.35 12.75 M-99.8 20.1 L-99.45 20.05 -98.95 19.4 Q-97.7 18.1 -95.9 17.45 L-95.85 17.45 -94.95 16.95 -94.65 16.9 -94.15 16.75 -93.15 16.5 -92.15 16.25 -91.55 16.1 -87.4 15.5 -87.25 16.05 Q-87.3 17.2 -87.85 18.05 L-88.35 19.0 -88.45 19.1 -88.45 19.15 -88.5 19.15 -89.0 19.8 -89.05 19.8 -89.0 19.85 -89.05 20.0 -90.7 21.45 -90.75 21.5 Q-92.45 22.5 -94.55 22.65 L-97.05 22.4 Q-97.75 22.3 -98.0 21.85 L-98.25 21.6 -99.75 20.45 -99.8 20.4 -99.8 20.1 M-89.3 12.65 L-89.25 12.7 -89.3 12.65 M-102.15 15.95 L-102.1 16.85 -102.15 17.5 -102.2 17.55 Q-103.0 18.05 -103.95 17.85 L-104.15 17.8 -104.5 17.7 -104.75 17.5 Q-104.85 17.4 -104.9 17.4 L-105.0 17.35 -105.05 17.2 -105.15 16.75 -105.1 16.55 -105.05 16.5 -104.9 16.25 -104.85 16.15 -104.8 16.05 -104.5 15.7 -102.9 15.6 -102.85 15.6 -102.85 15.65 -102.75 15.7 -102.45 15.85 -102.3 15.85 -102.25 15.95 -102.2 15.95 -102.15 15.95 M-105.7 16.8 L-105.7 16.9 -105.7 16.65 -105.65 16.75 -105.7 16.8 M-92.15 17.0 L-92.15 16.9 -92.4 16.65 Q-92.75 16.65 -92.7 16.95 L-92.5 17.2 -92.15 17.0 M-93.45 16.95 L-93.6 16.95 -93.7 16.95 -93.9 16.95 -94.0 17.1 -94.0 17.3 -93.65 17.65 -93.35 17.5 -93.35 17.35 -93.25 17.3 -93.45 16.95" fill="#d79e4a" fill-rule="evenodd" stroke="none"/>
    </g>
    <g id="sprite0" transform="matrix(1.0, 0.0, 0.0, 1.0, 23.5, 12.3)">
      <use ffdec:characterId="12" height="17.25" transform="matrix(1.0, 0.0, 0.0, 1.0, -21.25, -10.1)" width="34.95" xlink:href="#shape3"/>
      <use ffdec:characterId="14" height="7.8" transform="matrix(1.0, 0.0, 0.0, 1.0, -16.85, -2.6)" width="25.55" xlink:href="#sprite1"/>
      <use ffdec:characterId="15" height="21.6" transform="matrix(1.0, 0.0, 0.0, 1.0, -23.5, -12.3)" width="39.4" xlink:href="#shape5"/>
    </g>
    <g id="shape3" transform="matrix(1.0, 0.0, 0.0, 1.0, 21.25, 10.1)">
      <path d="M5.7 -3.5 L6.05 -3.65 Q8.4 -4.15 10.45 -3.25 14.2 -1.65 13.65 2.6 13.55 3.45 13.05 4.05 L13.0 4.05 Q12.15 5.5 9.65 5.75 4.25 6.25 1.75 1.95 L1.6 1.85 1.5 1.45 1.45 1.4 1.4 0.8 1.4 -0.35 Q1.6 -1.85 3.15 -2.45 L5.7 -3.5" fill="#ffffff" fill-rule="evenodd" stroke="none"/>
      <path d="M-20.35 -6.45 L-19.75 -7.25 Q-16.65 -9.65 -12.7 -9.9 -7.05 -10.85 -3.5 -6.9 -0.55 -3.6 -1.1 0.95 -1.35 3.2 -3.25 4.65 -5.15 6.2 -7.5 6.7 L-12.95 7.15 -14.6 6.7 Q-15.35 6.3 -16.15 6.0 -17.95 5.4 -18.85 3.85 -20.95 2.45 -21.2 -0.1 -21.5 -3.5 -20.35 -6.45" fill="#ffffff" fill-rule="evenodd" stroke="none"/>
    </g>
    <g id="sprite1" transform="matrix(1.0, 0.0, 0.0, 1.0, 2.75, 0.0)">
      <use ffdec:characterId="13" height="5.35" transform="matrix(1.0, 0.0, 0.0, 1.0, 0.0, 0.0)" width="22.8" xlink:href="#shape4"/>
    </g>
    <g id="shape4" transform="matrix(1.0, 0.0, 0.0, 1.0, 2.75, -2.45)">
      <path d="M20.05 6.1 Q20.1 6.9 19.55 7.35 L18.6 7.8 18.5 7.8 17.9 7.65 17.35 7.5 16.75 6.95 Q16.25 6.45 16.35 5.8 L16.4 5.75 16.5 5.45 17.2 4.75 17.55 4.7 Q18.9 4.3 19.7 5.2 20.05 5.55 20.05 6.1" fill="#000000" fill-rule="evenodd" stroke="none"/>
      <path d="M1.1 3.95 Q1.3 5.05 0.7 5.9 0.5 6.25 0.0 6.3 -2.4 6.65 -2.7 4.4 -2.9 3.0 -1.65 2.55 -0.55 2.3 0.25 2.8 0.9 3.25 1.1 3.95" fill="#000000" fill-rule="evenodd" stroke="none"/>
    </g>
    <g id="shape5" transform="matrix(1.0, 0.0, 0.0, 1.0, 23.5, 12.3)">
      <path d="M1.4 -3.5 L1.95 -3.95 Q3.6 -5.2 5.4 -5.65 L5.45 -5.75 10.95 -5.5 11.45 -4.7 11.5 -4.6 11.9 -4.5 11.95 -4.5 12.1 -4.4 12.9 -3.85 Q15.7 -1.75 15.9 1.25 L15.65 2.75 15.55 3.1 12.35 6.85 Q11.8 6.95 11.35 7.3 L8.15 7.3 3.75 6.35 2.35 5.85 2.05 5.65 -0.15 2.7 -0.2 2.05 -0.25 0.25 -0.1 -1.4 -0.05 -1.75 1.1 -3.5 1.4 -3.5 M3.15 -2.45 Q1.6 -1.85 1.4 -0.35 L1.4 0.8 1.45 1.4 1.5 1.45 1.6 1.85 1.75 1.95 Q4.25 6.25 9.65 5.75 12.15 5.5 13.0 4.05 L13.05 4.05 Q13.55 3.45 13.65 2.6 14.2 -1.65 10.45 -3.25 8.4 -4.15 6.05 -3.65 L5.7 -3.5 3.15 -2.45" fill="#000000" fill-rule="evenodd" stroke="none"/>
      <path d="M0.85 -1.4 L0.85 1.3 0.9 1.5 Q0.15 3.1 -0.35 4.8 L-1.85 6.1 -2.9 7.0 Q-5.4 8.6 -8.3 9.25 L-8.35 9.3 -17.8 8.0 -18.55 7.25 -21.55 4.25 -22.3 3.5 -22.3 2.95 Q-23.65 1.2 -23.5 -1.2 L-23.15 -4.4 -22.75 -6.1 -22.3 -6.6 -22.3 -7.0 -21.2 -8.55 -19.65 -9.75 Q-16.8 -11.35 -14.05 -12.25 -4.75 -13.0 -0.3 -5.45 -0.2 -4.75 0.35 -4.0 L0.85 -1.4 M-20.35 -6.45 Q-21.5 -3.5 -21.2 -0.1 -20.95 2.45 -18.85 3.85 -17.95 5.4 -16.15 6.0 -15.35 6.3 -14.6 6.7 L-12.95 7.15 -7.5 6.7 Q-5.15 6.2 -3.25 4.65 -1.35 3.2 -1.1 0.95 -0.55 -3.6 -3.5 -6.9 -7.05 -10.85 -12.7 -9.9 -16.65 -9.65 -19.75 -7.25 L-20.35 -6.45" fill="#000000" fill-rule="evenodd" stroke="none"/>
    </g>
    <g id="shape6" transform="matrix(1.0, 0.0, 0.0, 1.0, 106.0, -18.2)">
      <path d="M-94.5 21.45 Q-93.95 19.0 -91.0 18.75 L-90.45 18.75" fill="none" stroke="#000000" stroke-linecap="round" stroke-linejoin="round" stroke-width="1.0"/>
      <path d="M-60.25 35.25 Q-58.15 35.1 -56.4 35.85 L-55.8 36.15 M-48.7 32.25 Q-44.75 31.95 -40.95 30.85 L-40.65 30.8 M-39.75 28.7 Q-41.5 31.85 -36.8 32.8 L-36.5 32.85" fill="none" stroke="#000000" stroke-linecap="round" stroke-linejoin="round" stroke-width="1.0"/>
      <path d="M-103.35 31.95 Q-100.95 28.4 -104.5 26.5" fill="none" stroke="#caeafe" stroke-linecap="round" stroke-linejoin="round" stroke-width="3.0"/>
      <path d="M-77.2 27.5 Q-74.6 29.65 -76.7 32.15 L-77.2 32.55 M-87.9 28.7 Q-84.7 28.45 -81.95 29.55 L-81.5 29.75 -84.9 32.6 -83.05 33.1 Q-79.75 33.5 -79.4 30.45 L-78.95 28.3 Q-77.9 24.75 -75.4 27.15 -74.35 28.1 -73.85 29.65 -71.95 35.3 -65.05 34.35 M-87.5 34.6 Q-88.6 32.65 -90.25 31.05 -93.55 27.95 -89.9 26.95 -88.7 26.65 -88.45 27.7 -87.6 31.4 -84.9 32.6" fill="none" stroke="#ffffff" stroke-linecap="round" stroke-linejoin="round" stroke-width="3.0"/>
      <path d="M-85.85 27.2 Q-87.85 28.05 -88.2 30.5 L-88.2 30.8" fill="none" stroke="#000000" stroke-linecap="round" stroke-linejoin="round" stroke-width="1.0"/>
      <path d="M-67.1 30.5 Q-73.15 30.8 -74.65 25.65 -75.7 22.0 -78.3 24.9 -82.3 29.4 -87.5 25.75 L-88.15 25.55 Q-94.2 26.1 -98.7 24.15" fill="none" stroke="#000000" stroke-linecap="round" stroke-linejoin="round" stroke-width="1.0"/>
    </g>
    <g id="shape7" transform="matrix(1.0, 0.0, 0.0, 1.0, 38.0, -4.15)">
      <path d="M-27.45 5.5 L-27.65 5.6 -27.85 5.7 Q-31.2 7.4 -33.2 9.7 L-33.35 9.75 -33.95 10.35 -34.0 10.7 Q-35.55 12.75 -36.1 15.3 L-36.45 17.85 -33.45 16.95 -31.05 15.45 -29.95 14.3 Q-29.4 13.8 -29.3 13.15 L-29.2 13.35 -29.1 13.2 -28.1 11.35 Q-27.6 10.1 -27.4 8.8 L-27.25 6.55 -27.35 5.6 -27.45 5.5 M-27.45 4.25 L-27.2 4.15 Q-26.85 5.45 -26.9 6.9 L-27.2 9.2 Q-27.6 11.0 -28.55 12.55 -29.5 14.15 -30.9 15.5 -32.15 16.7 -33.85 17.5 -35.65 18.3 -37.65 18.1 L-38.0 18.15 Q-37.9 15.2 -36.05 11.95 -33.1 6.9 -27.8 4.4 L-27.75 4.35 -27.45 4.25" fill="#000000" fill-rule="evenodd" stroke="none"/>
    </g>
    <g id="shape8" transform="matrix(1.0, 0.0, 0.0, 1.0, 6.85, 3.25)">
      <path d="M-4.7 -2.6 L-4.4 -2.65 -3.3 -2.5 -2.55 -1.95 -1.95 -1.25 Q-1.0 0.1 -1.6 1.45 -3.35 2.85 -4.6 1.75 -6.5 -0.65 -4.7 -2.6" fill="#ff0000" fill-rule="evenodd" stroke="none"/>
      <path d="M-4.4 -2.65 Q-4.3 -3.15 -2.9 -3.25 0.25 -1.85 -0.45 2.05 L-1.0 2.6 Q-5.95 4.3 -6.5 1.5 L-6.85 -0.35 Q-6.7 -2.85 -4.7 -2.6 -6.5 -0.65 -4.6 1.75 -3.35 2.85 -1.6 1.45 -1.0 0.1 -1.95 -1.25 L-2.55 -1.95 -3.3 -2.5 -4.4 -2.65" fill="#000000" fill-rule="evenodd" stroke="none"/>
      <path d="M-1.0 0.05 L6.2 0.1 Q6.65 0.1 6.8 -0.4 L6.75 -0.55 Q6.75 -1.05 6.2 -1.05 L6.2 -1.1 -1.05 -0.75 -1.35 -0.45 -1.3 -0.3 -1.0 0.05" fill="#000000" fill-rule="evenodd" stroke="none"/>
      <path d="M-4.45 0.55 Q-4.9 0.85 -5.25 0.4 -6.25 -0.9 -4.65 -1.35 -2.75 -0.55 -4.45 0.55" fill="#ffffff" fill-rule="evenodd" stroke="none"/>
    </g>
    <g id="shape9" transform="matrix(1.0, 0.0, 0.0, 1.0, 49.2, -3.2)">
      <path d="M-7.5 13.8 Q-9.1 10.3 -12.55 7.75 -18.85 3.25 -26.25 4.8 L-26.25 5.9 Q-26.0 9.6 -27.6 12.85 -28.4 14.35 -29.7 15.35 -32.85 17.65 -36.4 18.45 -36.4 22.5 -33.7 25.0 -30.0 28.4 -23.9 29.3 -16.6 30.45 -10.5 26.7 -9.0 25.75 -8.0 24.35 -4.8 19.6 -7.5 13.8 M-12.9 6.1 Q-5.5 10.1 -5.05 18.4 -4.65 25.55 -11.4 28.75 -18.05 31.95 -25.5 30.4 -30.65 29.4 -34.45 25.65 -37.65 22.45 -37.9 18.75 L-37.95 18.75 -37.95 17.85 -37.9 17.85 -36.6 17.7 -33.75 16.85 Q-32.0 16.15 -30.7 15.0 -29.4 13.85 -28.45 12.25 -27.5 10.7 -27.25 9.2 -27.0 7.7 -27.05 6.45 -27.1 5.1 -27.7 4.1 L-25.4 3.2 -24.95 3.2 -25.05 3.3 Q-18.6 3.0 -12.9 6.1" fill="#000000" fill-rule="evenodd" stroke="none"/>
      <path d="M-7.5 13.8 Q-4.8 19.6 -8.0 24.35 -9.0 25.75 -10.5 26.7 -16.6 30.45 -23.9 29.3 -30.0 28.4 -33.7 25.0 -36.4 22.5 -36.4 18.45 -32.85 17.65 -29.7 15.35 -28.4 14.35 -27.6 12.85 -26.0 9.6 -26.25 5.9 L-26.25 4.8 Q-18.85 3.25 -12.55 7.75 -9.1 10.3 -7.5 13.8" fill="#ff9900" fill-rule="evenodd" stroke="none"/>
      <path d="M-7.5 13.8 Q-4.8 19.6 -8.0 24.35 -9.0 25.75 -10.5 26.7 -16.6 30.45 -23.9 29.3 -30.0 28.4 -33.7 25.0 -36.4 22.5 -36.4 18.45 -32.85 17.65 -29.7 15.35 -28.4 14.35 -27.6 12.85 -26.0 9.6 -26.25 5.9 L-26.25 4.8 Q-18.85 3.25 -12.55 7.75 -9.1 10.3 -7.5 13.8" fill="url(#gradient0)" fill-rule="evenodd" stroke="none"/>
      <path d="M-47.05 21.5 L-46.75 21.45 -45.65 21.6 -44.9 22.15 -44.3 22.85 Q-43.35 24.2 -43.95 25.55 -45.7 26.95 -46.95 25.85 -48.85 23.45 -47.05 21.5" fill="#ff0000" fill-rule="evenodd" stroke="none"/>
      <path d="M-46.75 21.45 Q-46.65 20.95 -45.25 20.85 -42.1 22.25 -42.8 26.15 L-43.35 26.7 Q-48.3 28.4 -48.85 25.6 L-49.2 23.75 Q-49.05 21.25 -47.05 21.5 -48.85 23.45 -46.95 25.85 -45.7 26.95 -43.95 25.55 -43.35 24.2 -44.3 22.85 L-44.9 22.15 -45.65 21.6 -46.75 21.45" fill="#000000" fill-rule="evenodd" stroke="none"/>
      <path d="M-43.35 24.15 L-36.15 24.2 Q-35.7 24.2 -35.55 23.7 L-35.6 23.55 Q-35.6 23.05 -36.15 23.05 L-36.15 23.0 -43.4 23.35 Q-43.75 23.35 -43.7 23.65 L-43.65 23.8 -43.35 24.15" fill="#000000" fill-rule="evenodd" stroke="none"/>
      <path d="M-46.8 24.65 Q-47.25 24.95 -47.6 24.5 -48.6 23.2 -47.0 22.75 -45.1 23.55 -46.8 24.65" fill="#ffffff" fill-rule="evenodd" stroke="none"/>
    </g>
    <radialGradient cx="0" cy="0" gradientTransform="matrix(0.0385, 0.0, 0.0, 0.0276, -15.35, 8.15)" gradientUnits="userSpaceOnUse" id="gradient0" r="819.2" spreadMethod="pad">
      <stop offset="0.0" stop-color="#febf74"/>
      <stop offset="0.4980392156862745" stop-color="#ff9900"/>
      <stop offset="1.0" stop-color="#ff6600"/>
    </radialGradient>
    <g id="shape10" transform="matrix(1.0, 0.0, 0.0, 1.0, 113.4, -9.2)">
      <path d="M-56.65 33.0 Q-58.0 33.85 -59.05 32.55 -62.15 28.55 -57.25 27.15 -51.4 29.65 -56.65 33.0 M-67.6 26.5 Q-69.0 27.4 -70.05 26.05 -73.1 22.05 -68.2 20.7 -62.4 23.2 -67.6 26.5 M-107.05 17.6 Q-109.3 20.15 -111.6 17.65 -113.2 15.9 -112.8 13.4 -112.2 10.15 -108.95 9.7 -102.3 12.15 -107.05 17.6 M-85.5 28.4 Q-86.45 29.3 -87.7 28.6 -92.9 25.75 -88.35 21.95 -87.7 21.4 -86.95 21.35 -80.65 24.1 -85.5 28.4" fill="#ffffff" fill-rule="evenodd" stroke="none"/>
      <path d="M-56.65 33.0 Q-58.0 33.85 -59.05 32.55 -62.15 28.55 -57.25 27.15 -51.4 29.65 -56.65 33.0 M-67.6 26.5 Q-69.0 27.4 -70.05 26.05 -73.1 22.05 -68.2 20.7 -62.4 23.2 -67.6 26.5 M-107.05 17.6 Q-109.3 20.15 -111.6 17.65 -113.2 15.9 -112.8 13.4 -112.2 10.15 -108.95 9.7 -102.3 12.15 -107.05 17.6 M-85.5 28.4 Q-86.45 29.3 -87.7 28.6 -92.9 25.75 -88.35 21.95 -87.7 21.4 -86.95 21.35 -80.65 24.1 -85.5 28.4 Z" fill="none" stroke="#000000" stroke-linecap="round" stroke-linejoin="round" stroke-width="1.0"/>
    </g>
    <g id="shape11" transform="matrix(1.0, 0.0, 0.0, 1.0, 36.45, -5.65)">
      <path d="M-33.4 9.85 L-32.65 9.1 Q-30.7 7.15 -27.85 5.7 L-27.35 5.65 -27.25 6.55 -27.4 8.8 Q-27.6 10.1 -28.1 11.35 L-29.0 13.05 -29.7 12.95 -30.85 12.15 -33.3 10.35 -33.45 10.2 Q-33.25 9.9 -33.4 9.85 M-29.85 14.2 L-30.7 15.0 Q-32.0 16.15 -33.75 16.85 L-36.45 17.65 -36.1 15.3 Q-35.6 13.0 -34.15 10.75 L-33.9 10.55 Q-32.4 12.5 -30.45 13.55 -29.3 14.0 -29.85 14.2" fill="#ffcc00" fill-rule="evenodd" stroke="none"/>
      <path d="M-29.0 13.05 Q-28.85 13.35 -29.05 13.9 -29.25 14.45 -29.85 14.2 -29.3 14.0 -30.45 13.55 -32.4 12.5 -33.9 10.55 L-33.95 10.5 -33.95 10.45 -34.15 10.75 -34.2 10.75 Q-34.65 10.4 -34.5 9.85 -34.4 9.45 -34.0 9.4 -33.45 9.45 -33.4 9.85 -33.25 9.9 -33.45 10.2 L-33.3 10.35 -30.85 12.15 -29.7 12.95 -29.0 13.05" fill="#000000" fill-rule="evenodd" stroke="none"/>
    </g>
    <g id="sprite2" transform="matrix(1.0, 0.0, 0.0, 1.0, -0.05, 0.0)">
      <use ffdec:characterId="304" height="20.0" transform="matrix(1.0, 0.0, 0.0, 1.0, 0.05, 0.0)" width="20.0" xlink:href="#shape12"/>
    </g>
    <g id="shape12" transform="matrix(1.0, 0.0, 0.0, 1.0, -0.05, 0.0)">
      <path d="M10.05 20.0 Q5.9 20.0 2.95 17.05 0.0 14.1 0.05 10.0 0.0 5.85 2.95 2.9 5.9 0.0 10.05 0.0 14.15 0.0 17.1 2.9 20.05 5.85 20.05 10.0 20.05 14.1 17.1 17.05 14.15 20.0 10.05 20.0" fill="#ffffff" fill-opacity="0.0" fill-rule="evenodd" stroke="none"/>
    </g>
  </defs>
</svg>
