<?xml version="1.0" encoding="UTF-8" standalone="no"?>
<svg xmlns:ffdec="https://www.free-decompiler.com/flash" xmlns:xlink="http://www.w3.org/1999/xlink" ffdec:objectType="frame" height="45.0px" width="129.6px" xmlns="http://www.w3.org/2000/svg">
  <g transform="matrix(1.0, 0.0, 0.0, 1.0, 80.3, 22.5)">
    <use ffdec:characterId="536" height="30.0" transform="matrix(0.1, 0.0, 0.0, 0.1, -19.8196, -1.4999)" width="86.4" xlink:href="#shape0"/>
    <use ffdec:characterId="537" height="18.7" transform="matrix(0.1, 0.0, 0.0, 0.1, -18.97, -0.95)" width="83.65" xlink:href="#text0"/>
  </g>
  <defs>
    <g id="shape0" transform="matrix(1.0, 0.0, 0.0, 1.0, 43.2, 15.0)">
      <path d="M39.95 -11.75 Q38.2 -13.5 35.7 -13.5 L-35.7 -13.5 Q-38.2 -13.5 -39.95 -11.75 -41.7 -10.0 -41.7 -7.5 L-41.7 7.5 Q-41.7 10.0 -39.95 11.75 -38.2 13.5 -35.7 13.5 L35.7 13.5 Q38.2 13.5 39.95 11.75 41.7 10.0 41.7 7.5 L41.7 -7.5 Q41.7 -10.0 39.95 -11.75 M41.0 -12.8 Q43.2 -10.6 43.2 -7.5 L43.2 7.5 Q43.2 10.6 41.0 12.8 38.8 15.0 35.7 15.0 L-35.7 15.0 Q-38.8 15.0 -41.0 12.8 -43.2 10.6 -43.2 7.5 L-43.2 -7.5 Q-43.2 -10.6 -41.0 -12.8 -38.8 -15.0 -35.7 -15.0 L35.7 -15.0 Q38.8 -15.0 41.0 -12.8" fill="#003366" fill-opacity="0.2" fill-rule="evenodd" stroke="none"/>
      <path d="M39.95 -11.75 Q41.7 -10.0 41.7 -7.5 L41.7 7.5 Q41.7 10.0 39.95 11.75 38.2 13.5 35.7 13.5 L-35.7 13.5 Q-38.2 13.5 -39.95 11.75 -41.7 10.0 -41.7 7.5 L-41.7 -7.5 Q-41.7 -10.0 -39.95 -11.75 -38.2 -13.5 -35.7 -13.5 L35.7 -13.5 Q38.2 -13.5 39.95 -11.75" fill="#ffffff" fill-rule="evenodd" stroke="none"/>
    </g>
  </defs>
</svg>
