<?xml version="1.0" encoding="UTF-8" standalone="no"?>
<svg xmlns:ffdec="https://www.free-decompiler.com/flash" xmlns:xlink="http://www.w3.org/1999/xlink" ffdec:objectType="frame" height="58.9px" width="79.9px" xmlns="http://www.w3.org/2000/svg">
  <g transform="matrix(1.0, 0.0, 0.0, 1.0, 42.15, 26.05)">
    <use ffdec:characterId="268" height="14.6" transform="matrix(1.0, 0.0, 0.0, 1.0, -20.75, -1.05)" width="13.05" xlink:href="#shape0"/>
    <use ffdec:characterId="269" height="10.95" transform="matrix(1.0, 0.0, 0.0, 1.0, -12.2, 2.35)" width="11.05" xlink:href="#shape1"/>
    <use ffdec:characterId="270" height="8.65" transform="matrix(1.0, 0.0, 0.0, 1.0, -8.35, -6.0)" width="9.85" xlink:href="#shape2"/>
    <use ffdec:characterId="271" height="12.9" transform="matrix(1.0, 0.0, 0.0, 1.0, -19.0, -5.9)" width="14.1" xlink:href="#shape3"/>
    <use ffdec:characterId="272" height="10.75" transform="matrix(1.0, 0.0, 0.0, 1.0, -21.25, -11.35)" width="13.0" xlink:href="#shape4"/>
    <use ffdec:characterId="273" height="14.8" transform="matrix(1.0, 0.0, 0.0, 1.0, -4.5, -1.5)" width="14.8" xlink:href="#shape5"/>
    <use ffdec:characterId="274" height="11.1" transform="matrix(1.0, 0.0, 0.0, 1.0, 5.65, 2.15)" width="15.1" xlink:href="#shape6"/>
    <use ffdec:characterId="275" height="19.75" transform="matrix(1.0, 0.0, 0.0, 1.0, 10.4, -13.0)" width="10.2" xlink:href="#shape7"/>
    <use ffdec:characterId="276" height="13.25" transform="matrix(1.0, 0.0, 0.0, 1.0, 2.3, -11.1)" width="14.15" xlink:href="#shape8"/>
    <use ffdec:characterId="277" height="11.45" transform="matrix(1.0, 0.0, 0.0, 1.0, -7.6, -12.95)" width="24.85" xlink:href="#shape9"/>
    <use ffdec:characterId="278" height="7.4" transform="matrix(1.0, 0.0, 0.0, 1.0, -21.25, -13.35)" width="21.75" xlink:href="#shape10"/>
  </g>
  <defs>
    <g id="shape0" transform="matrix(1.0, 0.0, 0.0, 1.0, 6.55, 7.3)">
      <path d="M-4.8 -7.3 Q-3.45 -6.3 -2.7 -4.7 L-2.65 -4.65 -2.5 -4.3 -2.4 -4.25 -1.7 -3.25 0.15 -1.05 0.3 -0.85 1.95 0.7 2.0 0.7 2.1 1.0 Q3.8 3.95 6.5 7.05 L-0.7 6.95 -1.25 7.0 Q-3.7 7.6 -6.05 6.9 L-6.25 6.75 -6.5 6.55 -6.4 5.6 -6.4 5.45 Q-5.95 3.7 -5.85 1.9 L-5.85 1.5 -5.85 1.4 -6.35 -6.85 -4.8 -7.3 M4.5 5.5 L4.65 5.5 4.45 5.25 Q2.05 1.8 -0.65 -1.35 L-1.3 -2.1 -2.2 -3.1 -3.5 -4.6 -5.1 -6.75 -5.05 -4.85 -4.75 0.9 -4.7 1.35 -4.7 2.0 -4.75 2.5 Q-4.85 4.2 -5.25 5.8 L4.5 5.5" fill="#000000" fill-rule="evenodd" stroke="none"/>
      <path d="M4.45 5.25 L4.65 5.5 4.5 5.5 4.45 5.25 M-4.75 2.5 L-4.7 2.0 -4.7 1.35 -1.3 -2.1 -0.65 -1.35 -4.35 2.35 -4.7 2.5 -4.75 2.5 M-5.05 -4.85 L-5.1 -6.75 -3.5 -4.6 -4.1 -4.5 Q-4.65 -4.5 -5.05 -4.85" fill="#ffffff" fill-rule="evenodd" stroke="none"/>
      <path d="M4.45 5.25 L4.5 5.5 -5.25 5.8 Q-4.85 4.2 -4.75 2.5 L-4.7 2.5 -4.35 2.35 -0.65 -1.35 Q2.05 1.8 4.45 5.25 M-4.7 1.35 L-4.75 0.9 -5.05 -4.85 Q-4.65 -4.5 -4.1 -4.5 L-3.5 -4.6 -2.2 -3.1 -1.3 -2.1 -4.7 1.35" fill="url(#gradient0)" fill-rule="evenodd" stroke="none"/>
    </g>
    <linearGradient gradientTransform="matrix(0.0258, 0.0136, -0.0071, 0.0135, 14.2, -6.25)" gradientUnits="userSpaceOnUse" id="gradient0" spreadMethod="pad" x1="-819.2" x2="819.2">
      <stop offset="0.0" stop-color="#f3fefe"/>
      <stop offset="1.0" stop-color="#7fe6e6"/>
    </linearGradient>
    <g id="shape1" transform="matrix(1.0, 0.0, 0.0, 1.0, 5.55, 5.45)">
      <path d="M2.0 -5.25 L2.2 -5.15 3.75 -0.25 Q4.8 2.65 5.5 5.5 L-1.05 5.5 Q-3.75 2.4 -5.45 -0.55 L-5.55 -0.85 -5.45 -0.8 -3.9 -1.85 -3.8 -1.95 Q-0.7 -3.4 1.65 -5.45 L1.75 -5.45 1.9 -5.3 2.0 -5.25 M2.5 -2.35 L2.3 -3.0 1.85 -4.45 -4.55 -0.4 -2.35 2.5 -1.35 3.9 -0.95 3.9 4.3 3.8 3.15 -0.2 2.5 -2.35" fill="#000000" fill-rule="evenodd" stroke="none"/>
      <path d="M-2.35 2.5 L-4.55 -0.4 1.85 -4.45 2.3 -3.0 2.5 -2.35 -2.35 2.5 M3.15 -0.2 L4.3 3.8 -0.95 3.9 3.15 -0.2" fill="url(#gradient1)" fill-rule="evenodd" stroke="none"/>
      <path d="M-2.35 2.5 L2.5 -2.35 3.15 -0.2 -0.95 3.9 -1.35 3.9 -2.35 2.5" fill="#ffffff" fill-rule="evenodd" stroke="none"/>
    </g>
    <linearGradient gradientTransform="matrix(0.0258, 0.0136, -0.0071, 0.0135, 6.65, -7.8)" gradientUnits="userSpaceOnUse" id="gradient1" spreadMethod="pad" x1="-819.2" x2="819.2">
      <stop offset="0.0" stop-color="#f3fefe"/>
      <stop offset="1.0" stop-color="#7fe6e6"/>
    </linearGradient>
    <g id="shape2" transform="matrix(1.0, 0.0, 0.0, 1.0, 4.95, 4.35)">
      <path d="M4.9 0.15 L3.75 0.75 Q0.8 2.45 -1.1 4.05 L-1.05 4.3 -1.25 4.2 -1.35 4.15 -1.5 4.0 -1.65 1.5 Q-2.7 -1.75 -4.95 -4.25 L-4.85 -4.35 -4.2 -4.3 Q-4.0 -3.4 -3.2 -2.9 0.2 -2.15 3.3 -0.65 L4.75 0.15 4.9 0.15 M-2.7 -2.2 L-3.0 -2.35 -2.8 -2.05 Q-2.0 -0.7 -1.5 0.95 L-0.85 3.15 Q1.3 1.8 3.55 0.5 L-2.7 -2.2" fill="#000000" fill-rule="evenodd" stroke="none"/>
      <path d="M-2.8 -2.05 L-3.0 -2.35 -2.7 -2.2 -2.8 -2.05" fill="#ffffff" fill-rule="evenodd" stroke="none"/>
      <path d="M-2.8 -2.05 L-2.7 -2.2 3.55 0.5 Q1.3 1.8 -0.85 3.15 L-1.5 0.95 Q-2.0 -0.7 -2.8 -2.05" fill="url(#gradient2)" fill-rule="evenodd" stroke="none"/>
    </g>
    <linearGradient gradientTransform="matrix(0.0258, 0.0136, -0.0071, 0.0135, 3.4, 1.65)" gradientUnits="userSpaceOnUse" id="gradient2" spreadMethod="pad" x1="-819.2" x2="819.2">
      <stop offset="0.0" stop-color="#f3fefe"/>
      <stop offset="1.0" stop-color="#7fe6e6"/>
    </linearGradient>
    <g id="shape3" transform="matrix(1.0, 0.0, 0.0, 1.0, 7.05, 6.45)">
      <path d="M-4.75 0.25 L-6.35 -1.5 Q-3.95 -2.0 -1.65 -2.85 L-4.75 0.25 M4.25 -4.2 L4.7 -3.25 -2.0 3.45 -2.65 2.7 4.25 -4.2" fill="#ffffff" fill-rule="evenodd" stroke="none"/>
      <path d="M-3.0 -2.95 L0.9 -4.45 3.6 -6.45 Q5.85 -3.95 6.9 -0.7 L7.05 1.8 6.95 1.8 Q4.6 3.85 1.5 5.3 L1.4 5.4 -0.15 6.45 -0.3 6.4 -1.95 4.85 -2.1 4.65 Q-3.0 3.3 -3.95 2.45 L-4.65 1.45 -4.75 1.4 -4.9 1.05 -4.95 1.0 Q-5.7 -0.6 -7.05 -1.6 L-3.0 -2.95 M-1.65 -2.85 Q-3.95 -2.0 -6.35 -1.5 L-4.75 0.25 -2.65 2.7 -2.0 3.45 0.1 6.0 Q3.35 3.7 6.7 1.55 L4.7 -3.25 4.25 -4.2 3.7 -5.3 3.45 -5.45 Q0.95 -3.9 -1.65 -2.85" fill="#000000" fill-rule="evenodd" stroke="none"/>
      <path d="M-4.75 0.25 L-1.65 -2.85 Q0.95 -3.9 3.45 -5.45 L3.7 -5.3 4.25 -4.2 -2.65 2.7 -4.75 0.25 M4.7 -3.25 L6.7 1.55 Q3.35 3.7 0.1 6.0 L-2.0 3.45 4.7 -3.25" fill="url(#gradient3)" fill-rule="evenodd" stroke="none"/>
    </g>
    <linearGradient gradientTransform="matrix(0.0258, 0.0136, -0.0071, 0.0135, 11.95, -0.55)" gradientUnits="userSpaceOnUse" id="gradient3" spreadMethod="pad" x1="-819.2" x2="819.2">
      <stop offset="0.0" stop-color="#f3fefe"/>
      <stop offset="1.0" stop-color="#7fe6e6"/>
    </linearGradient>
    <g id="shape4" transform="matrix(1.0, 0.0, 0.0, 1.0, 6.5, 5.4)">
      <path d="M-6.5 -5.4 Q-4.0 -3.85 -0.95 -2.95 2.55 -1.8 5.85 -0.2 L6.5 -0.05 3.7 2.05 -0.2 3.55 -5.8 5.35 -5.8 5.15 -5.9 5.0 -5.85 4.65 -6.35 -4.4 -6.5 -4.45 -6.5 -5.4 M1.55 -1.0 L0.7 -1.35 0.35 -1.5 -1.9 -2.45 -4.8 -3.75 -4.75 -1.25 -4.75 -0.85 -4.75 -0.75 -4.7 1.65 -4.65 2.3 -4.65 2.8 -4.6 4.2 -3.25 3.8 Q0.3 2.75 3.6 1.15 4.25 0.85 4.95 0.5 L4.5 0.3 1.55 -1.0" fill="#000000" fill-rule="evenodd" stroke="none"/>
      <path d="M0.7 -1.35 L-0.1 -0.45 -1.2 -0.4 -4.3 2.65 -4.65 2.8 -4.65 2.3 -4.7 1.65 -1.95 -1.05 Q-2.5 -1.75 -1.9 -2.45 L0.35 -1.5 0.7 -1.35 M-3.25 3.8 L1.55 -1.0 4.5 0.3 3.6 1.15 Q0.3 2.75 -3.25 3.8" fill="#ffffff" fill-rule="evenodd" stroke="none"/>
      <path d="M0.7 -1.35 L1.55 -1.0 -3.25 3.8 -4.6 4.2 -4.65 2.8 -4.3 2.65 -1.2 -0.4 -0.1 -0.45 0.7 -1.35 M4.5 0.3 L4.95 0.5 Q4.25 0.85 3.6 1.15 L4.5 0.3 M-1.9 -2.45 Q-2.5 -1.75 -1.95 -1.05 L-4.7 1.65 -4.75 -0.75 -4.75 -0.85 -4.75 -1.25 -4.8 -3.75 -1.9 -2.45" fill="url(#gradient4)" fill-rule="evenodd" stroke="none"/>
    </g>
    <linearGradient gradientTransform="matrix(0.0258, 0.0136, -0.0071, 0.0135, 14.75, 5.95)" gradientUnits="userSpaceOnUse" id="gradient4" spreadMethod="pad" x1="-819.2" x2="819.2">
      <stop offset="0.0" stop-color="#f3fefe"/>
      <stop offset="1.0" stop-color="#7fe6e6"/>
    </linearGradient>
    <g id="shape5" transform="matrix(1.0, 0.0, 0.0, 1.0, 7.4, 7.4)">
      <path d="M-6.25 -1.3 L-6.8 -3.15 -1.4 -6.5 -1.15 -6.4 -6.25 -1.3 M0.8 -5.55 L4.45 -4.0 -4.35 4.85 -5.2 2.05 -5.55 0.85 0.8 -5.55 M5.45 -3.6 L6.3 -3.25 -1.85 4.95 -2.15 5.65 -2.15 5.7 -3.8 5.7 5.45 -3.6 M4.35 1.5 L2.3 5.65 0.25 5.65 4.35 1.5" fill="url(#gradient5)" fill-rule="evenodd" stroke="none"/>
      <path d="M-0.6 -7.4 Q1.05 -5.95 3.35 -5.45 L3.45 -5.45 Q5.2 -4.35 7.4 -3.75 L2.75 6.15 2.95 7.35 -4.05 7.4 Q-4.75 4.55 -5.8 1.65 L-7.4 -3.5 Q-5.5 -5.1 -2.55 -6.8 L-1.4 -7.4 -0.6 -7.4 M-1.15 -6.4 L-1.4 -6.5 -6.8 -3.15 -6.25 -1.3 -5.55 0.85 -5.2 2.05 -4.35 4.85 -4.1 5.7 -3.8 5.7 -2.15 5.7 -1.15 5.65 0.25 5.65 2.3 5.65 4.35 1.5 6.65 -3.1 6.3 -3.25 5.45 -3.6 4.45 -4.0 0.8 -5.55 -1.15 -6.4" fill="#000000" fill-rule="evenodd" stroke="none"/>
      <path d="M-6.25 -1.3 L-1.15 -6.4 0.8 -5.55 -5.55 0.85 -6.25 -1.3 M4.45 -4.0 L5.45 -3.6 -3.8 5.7 -4.1 5.7 -4.35 4.85 4.45 -4.0 M6.3 -3.25 L6.65 -3.1 4.35 1.5 0.25 5.65 -1.15 5.65 -2.15 5.7 -2.15 5.65 -1.85 4.95 6.3 -3.25" fill="#ffffff" fill-rule="evenodd" stroke="none"/>
    </g>
    <linearGradient gradientTransform="matrix(0.0258, 0.0136, -0.0071, 0.0135, -2.9, -5.9)" gradientUnits="userSpaceOnUse" id="gradient5" spreadMethod="pad" x1="-819.2" x2="819.2">
      <stop offset="0.0" stop-color="#f3fefe"/>
      <stop offset="1.0" stop-color="#7fe6e6"/>
    </linearGradient>
    <g id="shape6" transform="matrix(1.0, 0.0, 0.0, 1.0, 7.55, 5.55)">
      <path d="M7.55 4.65 L7.0 5.05 6.65 5.2 -7.35 5.55 -7.55 4.35 -2.9 -5.55 -2.85 -5.55 -2.8 -5.55 -2.45 -5.3 -1.9 -5.15 -1.9 -5.05 -1.4 -5.0 -0.95 -4.75 Q2.3 -2.9 6.25 -1.35 L7.4 -0.95 7.55 4.65 M-2.05 -4.2 L-2.4 -4.35 -2.95 -3.3 -3.15 -2.95 -6.8 3.85 -0.95 3.8 0.05 3.8 1.45 3.8 6.2 3.85 6.2 -0.65 5.95 -0.75 4.05 -1.6 -2.05 -4.2" fill="#000000" fill-rule="evenodd" stroke="none"/>
      <path d="M-2.05 -4.2 L-2.95 -3.3 -2.4 -4.35 -2.05 -4.2 M-0.95 3.8 L-0.65 3.1 4.05 -1.6 5.95 -0.75 1.45 3.8 0.05 3.8 -0.95 3.8" fill="#ffffff" fill-rule="evenodd" stroke="none"/>
      <path d="M-2.95 -3.3 L-2.05 -4.2 4.05 -1.6 -0.65 3.1 -0.95 3.8 -6.8 3.85 -3.15 -2.95 -2.95 -3.3 M1.45 3.8 L5.95 -0.75 6.2 -0.65 6.2 3.85 1.45 3.8" fill="url(#gradient6)" fill-rule="evenodd" stroke="none"/>
    </g>
    <linearGradient gradientTransform="matrix(0.0258, 0.0136, -0.0071, 0.0135, -13.2, -7.7)" gradientUnits="userSpaceOnUse" id="gradient6" spreadMethod="pad" x1="-819.2" x2="819.2">
      <stop offset="0.0" stop-color="#f3fefe"/>
      <stop offset="1.0" stop-color="#7fe6e6"/>
    </linearGradient>
    <g id="shape7" transform="matrix(1.0, 0.0, 0.0, 1.0, 5.1, 9.9)">
      <path d="M4.25 -9.85 L4.85 -9.75 5.05 -9.65 Q4.35 -0.45 5.05 9.0 L5.1 9.85 3.95 9.45 Q0.0 7.9 -3.25 6.05 L-3.7 5.8 -4.2 5.75 -4.2 5.65 -4.75 5.5 -5.1 5.25 -2.2 -0.6 -2.1 -1.15 Q-0.75 -3.8 0.65 -7.0 L0.95 -8.0 1.35 -8.3 1.45 -8.25 Q1.8 -9.05 1.75 -9.75 L4.25 -9.85 M3.55 -5.95 L3.65 -6.75 3.95 -8.35 2.0 -8.2 1.4 -7.8 -0.5 -2.7 -1.5 -0.25 -2.5 1.95 -4.05 5.2 -3.25 5.5 2.8 8.15 3.9 8.6 3.9 8.1 3.6 -1.4 3.55 -3.35 3.5 -4.0 3.5 -5.35 3.55 -5.95" fill="#000000" fill-rule="evenodd" stroke="none"/>
      <path d="M-0.5 -2.7 L1.4 -7.8 2.0 -8.2 3.95 -8.35 3.65 -6.75 3.55 -5.95 3.5 -6.05 3.15 -6.2 2.8 -6.05 -0.5 -2.7 M3.5 -5.35 L3.5 -4.0 3.55 -3.35 3.2 -3.4 2.5 -3.1 -2.5 1.95 -1.5 -0.25 3.5 -5.35 M3.6 -1.4 L3.9 8.1 3.35 7.95 2.8 8.15 -3.25 5.5 3.6 -1.4" fill="url(#gradient7)" fill-rule="evenodd" stroke="none"/>
      <path d="M-0.5 -2.7 L2.8 -6.05 3.15 -6.2 3.5 -6.05 3.55 -5.95 3.5 -5.35 -1.5 -0.25 -0.5 -2.7 M3.55 -3.35 L3.6 -1.4 -3.25 5.5 -4.05 5.2 -2.5 1.95 2.5 -3.1 3.2 -3.4 3.55 -3.35 M3.9 8.1 L3.9 8.6 2.8 8.15 3.35 7.95 3.9 8.1" fill="#ffffff" fill-rule="evenodd" stroke="none"/>
    </g>
    <linearGradient gradientTransform="matrix(0.0258, 0.0136, -0.0071, 0.0135, -15.5, 3.1)" gradientUnits="userSpaceOnUse" id="gradient7" spreadMethod="pad" x1="-819.2" x2="819.2">
      <stop offset="0.0" stop-color="#f3fefe"/>
      <stop offset="1.0" stop-color="#7fe6e6"/>
    </linearGradient>
    <g id="shape8" transform="matrix(1.0, 0.0, 0.0, 1.0, 7.05, 6.65)">
      <path d="M0.6 -1.5 L-4.55 3.7 -6.3 2.9 -5.6 2.45 0.6 -1.5 M-0.9 5.25 L3.35 1.0 1.95 3.8 0.1 5.65 -0.9 5.25" fill="#ffffff" fill-rule="evenodd" stroke="none"/>
      <path d="M-0.75 -1.45 L5.35 -5.5 6.8 -6.6 7.1 -6.65 6.8 -5.65 4.05 0.2 3.95 0.75 1.05 6.6 1.0 6.6 Q-1.25 6.0 -3.0 4.9 L-3.1 4.9 Q-5.4 4.4 -7.05 2.95 L-6.5 2.2 -0.75 -1.45 M0.6 -1.5 L-5.6 2.45 -6.3 2.9 -4.55 3.7 -0.9 5.25 0.1 5.65 0.85 6.0 1.95 3.8 3.35 1.0 3.65 0.3 6.1 -5.35 0.6 -1.5" fill="#000000" fill-rule="evenodd" stroke="none"/>
      <path d="M-4.55 3.7 L0.6 -1.5 6.1 -5.35 3.65 0.3 3.35 1.0 -0.9 5.25 -4.55 3.7 M1.95 3.8 L0.85 6.0 0.1 5.65 1.95 3.8" fill="url(#gradient8)" fill-rule="evenodd" stroke="none"/>
    </g>
    <linearGradient gradientTransform="matrix(0.0258, 0.0136, -0.0071, 0.0135, -9.35, 4.45)" gradientUnits="userSpaceOnUse" id="gradient8" spreadMethod="pad" x1="-819.2" x2="819.2">
      <stop offset="0.0" stop-color="#f3fefe"/>
      <stop offset="1.0" stop-color="#7fe6e6"/>
    </linearGradient>
    <g id="shape9" transform="matrix(1.0, 0.0, 0.0, 1.0, 12.4, 5.75)">
      <path d="M11.4 -5.4 L12.45 -5.65 Q12.5 -4.95 12.15 -4.15 L12.05 -4.2 Q11.7 -3.85 11.35 -3.85 L9.9 -2.75 Q6.75 -0.6 3.8 1.3 L-1.95 4.95 -2.5 5.7 -3.45 5.7 -4.9 4.9 Q-8.0 3.4 -11.4 2.65 -12.2 2.15 -12.4 1.25 L-12.35 1.25 -6.85 -2.5 Q-6.2 -2.85 -5.8 -3.55 -4.75 -4.35 -4.3 -5.6 L0.8 -5.55 1.05 -5.55 Q6.35 -6.0 11.35 -5.4 L11.4 -5.4 M-9.7 2.15 L-3.0 5.1 -2.85 5.0 0.85 2.8 4.1 0.55 9.3 -2.95 11.25 -4.2 11.45 -4.35 10.2 -4.3 9.45 -4.3 9.4 -4.3 9.2 -4.3 7.8 -4.25 -3.5 -4.25 -4.0 -4.25 -4.15 -4.25 Q-6.25 -2.3 -8.75 -0.7 L-11.6 1.2 -11.7 1.25 -10.65 1.75 -9.7 2.15" fill="#000000" fill-rule="evenodd" stroke="none"/>
      <path d="M-3.5 -4.25 L-3.65 -3.9 -5.6 -1.9 0.25 -1.7 Q1.65 -1.65 1.5 -0.3 1.4 1.0 0.05 1.0 L-8.65 1.15 -9.7 2.15 -10.65 1.75 -10.1 1.2 -11.6 1.2 -8.75 -0.7 Q-6.25 -2.3 -4.15 -4.25 L-4.0 -4.25 -3.5 -4.25 M0.85 2.8 L7.8 -4.25 9.2 -4.3 9.4 -4.3 9.45 -4.3 10.2 -4.3 9.9 -3.6 9.3 -2.95 4.1 0.55 0.85 2.8" fill="#ffffff" fill-rule="evenodd" stroke="none"/>
      <path d="M-9.7 2.15 L-8.65 1.15 0.05 1.0 Q1.4 1.0 1.5 -0.3 1.65 -1.65 0.25 -1.7 L-5.6 -1.9 -3.65 -3.9 -3.5 -4.25 7.8 -4.25 0.85 2.8 -2.85 5.0 -3.0 5.1 -9.7 2.15 M-11.6 1.2 L-10.1 1.2 -10.65 1.75 -11.7 1.25 -11.6 1.2 M9.3 -2.95 L9.9 -3.6 10.2 -4.3 11.45 -4.35 11.25 -4.2 9.3 -2.95" fill="url(#gradient9)" fill-rule="evenodd" stroke="none"/>
    </g>
    <linearGradient gradientTransform="matrix(0.0258, 0.0136, -0.0071, 0.0135, -4.8, 7.2)" gradientUnits="userSpaceOnUse" id="gradient9" spreadMethod="pad" x1="-819.2" x2="819.2">
      <stop offset="0.0" stop-color="#f3fefe"/>
      <stop offset="1.0" stop-color="#7fe6e6"/>
    </linearGradient>
    <g id="shape10" transform="matrix(1.0, 0.0, 0.0, 1.0, 10.9, 3.7)">
      <path d="M-10.7 -2.35 Q-10.5 -3.15 -9.9 -3.65 L-7.7 -3.65 Q1.55 -3.25 10.85 -3.15 10.4 -1.9 9.35 -1.1 L8.3 -0.05 2.8 3.7 1.45 3.5 Q-1.85 1.9 -5.35 0.75 -8.4 -0.15 -10.9 -1.7 L-10.9 -2.35 -10.7 -2.35 M-3.05 0.75 L-1.55 1.4 -0.15 2.05 2.35 3.2 6.55 0.45 9.3 -1.8 9.35 -1.8 5.3 -1.85 3.55 -1.9 1.85 -1.95 -0.55 -2.0 -1.05 -2.0 -1.7 -2.0 -9.3 -2.25 -9.3 -1.9 -4.05 0.3 -3.05 0.75" fill="#000000" fill-rule="evenodd" stroke="none"/>
      <path d="M-1.55 1.4 L-3.05 0.75 -0.7 -1.65 Q-0.55 -1.8 -0.55 -2.0 L1.85 -1.95 1.6 -1.75 -1.55 1.4 M-4.05 0.3 L-9.3 -1.9 -9.3 -2.25 -1.7 -2.0 -4.05 0.3 M6.55 0.45 L3.7 0.35 Q4.15 -0.1 4.15 -0.7 L3.7 -1.75 3.55 -1.9 5.3 -1.85 9.35 -1.8 9.3 -1.8 6.55 0.45" fill="url(#gradient10)" fill-rule="evenodd" stroke="none"/>
      <path d="M-1.55 1.4 L1.6 -1.75 1.85 -1.95 3.55 -1.9 3.7 -1.75 4.15 -0.7 Q4.15 -0.1 3.7 0.35 L6.55 0.45 2.35 3.2 -0.15 2.05 -1.55 1.4 M-0.55 -2.0 Q-0.55 -1.8 -0.7 -1.65 L-3.05 0.75 -4.05 0.3 -1.7 -2.0 -1.05 -2.0 -0.55 -2.0" fill="#ffffff" fill-rule="evenodd" stroke="none"/>
    </g>
    <linearGradient gradientTransform="matrix(0.0258, 0.0136, -0.0071, 0.0135, 10.35, 9.65)" gradientUnits="userSpaceOnUse" id="gradient10" spreadMethod="pad" x1="-819.2" x2="819.2">
      <stop offset="0.0" stop-color="#f3fefe"/>
      <stop offset="1.0" stop-color="#7fe6e6"/>
    </linearGradient>
  </defs>
</svg>
