<?xml version="1.0" encoding="UTF-8" standalone="no"?>
<svg xmlns:ffdec="https://www.free-decompiler.com/flash" xmlns:xlink="http://www.w3.org/1999/xlink" ffdec:objectType="frame" height="166.35px" width="489.45px" xmlns="http://www.w3.org/2000/svg">
  <g transform="matrix(1.0, 0.0, 0.0, 1.0, 205.45, 58.3)">
    <clipPath id="clipPath0">
      <path d="M -33 -16.75 L -33 20.7 L 57.95 20.7 L 57.95 -16.75 Z"/>
    </clipPath>
    <g clip-path="url(#clipPath0)">
      <use ffdec:characterId="253" height="25.25" transform="matrix(1.0, 0.0, 0.0, 1.0, 8.4, -12.55)" width="248.75" xlink:href="#shape0"/>
      <use ffdec:characterId="251" height="25.25" transform="matrix(1.0, 0.0, 0.0, 1.0, -28.9, -12.55)" width="33.1" xlink:href="#shape1"/>
    </g>
  </g>
  <defs>
    <g id="shape0" transform="matrix(1.0, 0.0, 0.0, 1.0, 105.7, 12.65)">
      <path d="M10.55 -12.65 L10.55 12.6 1.95 12.6 1.95 -12.65 10.55 -12.65" fill="url(#gradient0)" fill-rule="evenodd" stroke="none"/>
      <path d="M28.9 -6.05 L28.7 -6.05 22.7 -6.05 22.7 -2.15 28.7 -2.15 Q31.3 -2.15 31.3 -4.1 31.3 -5.8 29.35 -6.0 L28.9 -6.05 M37.15 -10.15 Q39.9 -7.6 39.9 -4.1 39.9 -0.5 37.15 1.95 34.45 4.45 30.45 4.45 L22.75 4.45 22.75 12.6 14.1 12.6 14.1 -12.6 30.45 -12.65 Q34.35 -12.65 37.15 -10.15" fill="url(#gradient1)" fill-rule="evenodd" stroke="none"/>
      <path d="M78.6 -4.95 L68.9 -4.95 Q66.7 -4.95 65.1 -3.5 63.55 -2.1 63.55 0.0 63.55 2.05 65.1 3.45 66.7 4.9 68.9 4.9 L78.6 4.9 78.6 12.6 68.9 12.6 Q63.0 12.6 59.0 8.9 54.9 5.25 54.9 0.0 54.9 -5.15 59.0 -8.95 63.15 -12.65 68.9 -12.65 L78.6 -12.65 78.6 -4.95" fill="url(#gradient2)" fill-rule="evenodd" stroke="none"/>
      <path d="M99.55 -3.5 Q97.95 -4.95 95.75 -4.95 93.55 -4.95 91.95 -3.5 90.4 -2.1 90.4 0.0 90.4 2.05 91.95 3.45 93.55 4.9 95.75 4.9 98.0 4.9 99.6 3.45 101.15 2.05 101.15 0.0 101.15 -1.95 99.55 -3.5 M85.9 -8.95 Q90.05 -12.65 95.75 -12.65 101.5 -12.65 105.65 -8.95 109.75 -5.2 109.75 0.0 109.75 5.25 105.65 8.9 101.6 12.6 95.75 12.6 89.9 12.6 85.85 8.9 81.75 5.2 81.75 0.0 81.75 -5.2 85.9 -8.95" fill="url(#gradient3)" fill-rule="evenodd" stroke="none"/>
      <path d="M134.45 -12.65 L143.05 -12.65 143.05 12.6 134.45 12.6 134.45 4.05 128.0 12.6 121.6 4.05 121.6 12.6 113.0 12.6 113.0 -12.65 121.55 -12.65 128.0 -4.1 134.45 -12.65" fill="url(#gradient4)" fill-rule="evenodd" stroke="none"/>
      <path d="M46.3 4.85 Q48.15 4.85 49.35 6.0 50.65 7.15 50.65 8.75 50.65 10.3 49.35 11.45 48.15 12.6 46.3 12.6 44.5 12.6 43.3 11.45 42.0 10.3 42.0 8.75 42.0 7.15 43.3 6.0 44.5 4.85 46.3 4.85" fill="url(#gradient5)" fill-rule="evenodd" stroke="none"/>
      <path d="M-97.05 -12.65 L-97.05 12.6 -105.7 12.6 -105.7 -12.65 -97.05 -12.65" fill="url(#gradient6)" fill-rule="evenodd" stroke="none"/>
      <path d="M-93.6 -12.65 Q-87.5 -12.65 -82.55 -10.5 -78.1 -8.6 -76.6 -6.05 L-76.6 -12.65 -67.95 -12.65 -67.95 12.6 -76.6 12.6 Q-76.6 5.35 -80.1 2.0 -82.45 -0.2 -85.15 -0.2 L-85.15 12.6 -93.75 12.6 -93.75 -12.65 -93.6 -12.65" fill="url(#gradient7)" fill-rule="evenodd" stroke="none"/>
      <path d="M-55.95 -12.65 L-55.95 12.6 -64.55 12.6 -64.55 -12.65 -55.95 -12.65" fill="url(#gradient8)" fill-rule="evenodd" stroke="none"/>
      <path d="M-18.25 -12.65 L-18.25 4.9 -1.1 4.9 -1.1 12.6 -26.9 12.6 -26.9 -12.6 -18.25 -12.65" fill="url(#gradient9)" fill-rule="evenodd" stroke="none"/>
      <path d="M-39.85 -4.95 Q-42.05 -4.95 -43.65 -3.5 -45.25 -2.05 -45.25 0.0 -45.25 2.0 -43.65 3.45 -42.05 4.9 -39.85 4.9 L-30.2 4.9 -30.2 12.6 -39.85 12.6 Q-45.75 12.6 -49.75 8.9 -53.85 5.25 -53.85 0.0 -53.85 -5.2 -49.75 -8.95 -45.6 -12.65 -39.85 -12.65 L-30.2 -12.65 -30.2 -4.95 -39.85 -4.95" fill="url(#gradient10)" fill-rule="evenodd" stroke="none"/>
      <path d="M28.7 -6.05 L28.9 -6.05" ffdec:has-small-stroke="true" ffdec:original-stroke-width="0.05" fill="none" stroke="#ffffff" stroke-linecap="round" stroke-linejoin="round" stroke-width="1.0"/>
    </g>
    <linearGradient gradientTransform="matrix(0.0, 0.0154, -0.0154, 0.0, 6.25, -0.05)" gradientUnits="userSpaceOnUse" id="gradient0" spreadMethod="pad" x1="-819.2" x2="819.2">
      <stop offset="0.0" stop-color="#ff8a00"/>
      <stop offset="1.0" stop-color="#e60012"/>
    </linearGradient>
    <linearGradient gradientTransform="matrix(0.0, 0.0151, -0.0154, 0.0, 27.0, -0.05)" gradientUnits="userSpaceOnUse" id="gradient1" spreadMethod="pad" x1="-819.2" x2="819.2">
      <stop offset="0.0" stop-color="#ff8a00"/>
      <stop offset="1.0" stop-color="#e60012"/>
    </linearGradient>
    <linearGradient gradientTransform="matrix(0.0, 0.0154, -0.0154, 0.0, 66.75, -0.05)" gradientUnits="userSpaceOnUse" id="gradient2" spreadMethod="pad" x1="-819.2" x2="819.2">
      <stop offset="0.0" stop-color="#ff8a00"/>
      <stop offset="1.0" stop-color="#e60012"/>
    </linearGradient>
    <linearGradient gradientTransform="matrix(0.0, 0.0154, -0.0154, 0.0, 95.75, -0.05)" gradientUnits="userSpaceOnUse" id="gradient3" spreadMethod="pad" x1="-819.2" x2="819.2">
      <stop offset="0.0" stop-color="#ff8a00"/>
      <stop offset="1.0" stop-color="#e60012"/>
    </linearGradient>
    <linearGradient gradientTransform="matrix(0.0, 0.0154, -0.0154, 0.0, 128.0, -0.05)" gradientUnits="userSpaceOnUse" id="gradient4" spreadMethod="pad" x1="-819.2" x2="819.2">
      <stop offset="0.0" stop-color="#ff8a00"/>
      <stop offset="1.0" stop-color="#e60012"/>
    </linearGradient>
    <linearGradient gradientTransform="matrix(0.0, 0.0151, -0.0047, 0.0, 45.55, 0.7)" gradientUnits="userSpaceOnUse" id="gradient5" spreadMethod="pad" x1="-819.2" x2="819.2">
      <stop offset="0.0" stop-color="#ff8a00"/>
      <stop offset="1.0" stop-color="#e60012"/>
    </linearGradient>
    <linearGradient gradientTransform="matrix(0.0, 0.0154, -0.0154, 0.0, -101.4, -0.05)" gradientUnits="userSpaceOnUse" id="gradient6" spreadMethod="pad" x1="-819.2" x2="819.2">
      <stop offset="0.0" stop-color="#ff8a00"/>
      <stop offset="1.0" stop-color="#e60012"/>
    </linearGradient>
    <linearGradient gradientTransform="matrix(0.0, 0.0154, -0.0154, 0.0, -80.85, -0.05)" gradientUnits="userSpaceOnUse" id="gradient7" spreadMethod="pad" x1="-819.2" x2="819.2">
      <stop offset="0.0" stop-color="#ff8a00"/>
      <stop offset="1.0" stop-color="#e60012"/>
    </linearGradient>
    <linearGradient gradientTransform="matrix(0.0, 0.0154, -0.0154, 0.0, -60.25, -0.05)" gradientUnits="userSpaceOnUse" id="gradient8" spreadMethod="pad" x1="-819.2" x2="819.2">
      <stop offset="0.0" stop-color="#ff8a00"/>
      <stop offset="1.0" stop-color="#e60012"/>
    </linearGradient>
    <linearGradient gradientTransform="matrix(0.0, 0.0154, -0.0154, 0.0, -14.0, -0.05)" gradientUnits="userSpaceOnUse" id="gradient9" spreadMethod="pad" x1="-819.2" x2="819.2">
      <stop offset="0.0" stop-color="#ff8a00"/>
      <stop offset="1.0" stop-color="#e60012"/>
    </linearGradient>
    <linearGradient gradientTransform="matrix(0.0, 0.0153, -0.0154, 0.0, -42.05, -0.05)" gradientUnits="userSpaceOnUse" id="gradient10" spreadMethod="pad" x1="-819.2" x2="819.2">
      <stop offset="0.0" stop-color="#ff8a00"/>
      <stop offset="1.0" stop-color="#e60012"/>
    </linearGradient>
    <g id="shape1" transform="matrix(1.0, 0.0, 0.0, 1.0, 16.55, 12.65)">
      <path d="M16.55 -12.65 L16.55 12.6 7.95 12.6 7.95 4.05 1.5 12.6 -4.9 4.05 -4.9 12.6 -13.5 12.6 -13.5 -4.95 -16.55 -4.95 -16.55 -12.65 -4.95 -12.65 1.5 -4.1 7.95 -12.65 16.55 -12.65" fill="url(#gradient11)" fill-rule="evenodd" stroke="none"/>
    </g>
    <linearGradient gradientTransform="matrix(0.0, 0.0154, -0.0154, 0.0, 0.0, -0.05)" gradientUnits="userSpaceOnUse" id="gradient11" spreadMethod="pad" x1="-819.2" x2="819.2">
      <stop offset="0.0" stop-color="#ff8a00"/>
      <stop offset="1.0" stop-color="#e60012"/>
    </linearGradient>
  </defs>
</svg>
