<?xml version="1.0" encoding="UTF-8" standalone="no"?>
<svg xmlns:ffdec="https://www.free-decompiler.com/flash" xmlns:xlink="http://www.w3.org/1999/xlink" ffdec:objectType="frame" height="166.35px" width="489.45px" xmlns="http://www.w3.org/2000/svg">
  <g transform="matrix(1.0, 0.0, 0.0, 1.0, 205.45, 58.3)">
    <use ffdec:characterId="263" height="10.45" transform="matrix(1.0, 0.0, 0.0, 1.0, -131.15, 20.15)" width="301.05" xlink:href="#text0"/>
    <use ffdec:characterId="258" height="30.7" transform="matrix(1.0, 0.0, 0.0, 1.0, -134.5, -15.25)" width="290.95" xlink:href="#shape0"/>
    <use ffdec:characterId="253" height="25.25" transform="matrix(1.0, 0.0, 0.0, 1.0, -94.75, -12.55)" width="248.75" xlink:href="#shape1"/>
    <use ffdec:characterId="251" height="25.25" transform="matrix(1.0, 0.0, 0.0, 1.0, -132.05, -12.55)" width="33.1" xlink:href="#shape2"/>
    <clipPath id="clipPath0">
      <path d="M 39.85 -5.95 L 40.3 -5.9 L 40.54 -5.87 L 40.76 -5.83 L 40.96 -5.77 L 41.15 -5.71 L 41.33 -5.63 L 41.49 -5.54 L 41.63 -5.44 L 41.76 -5.32 L 41.88 -5.2 L 41.98 -5.06 L 42.06 -4.92 L 42.13 -4.76 L 42.18 -4.58 L 42.22 -4.4 L 42.24 -4.21 L 42.25 -4 L 42.24 -3.76 L 42.21 -3.54 L 42.16 -3.34 L 42.09 -3.15 L 42 -2.97 L 41.88 -2.81 L 41.75 -2.67 L 41.6 -2.54 L 41.43 -2.42 L 41.23 -2.32 L 41.02 -2.24 L 40.79 -2.17 L 40.53 -2.12 L 40.26 -2.08 L 39.96 -2.06 L 39.65 -2.05 L 33.65 -2.05 L 33.65 -5.95 Z M 106.7 -4.85 L 106.97 -4.84 L 107.24 -4.83 L 107.5 -4.8 L 107.76 -4.76 L 108.02 -4.71 L 108.27 -4.65 L 108.51 -4.57 L 108.75 -4.49 L 108.99 -4.39 L 109.22 -4.28 L 109.44 -4.16 L 109.66 -4.03 L 109.88 -3.89 L 110.09 -3.74 L 110.3 -3.58 L 110.5 -3.4 L 110.69 -3.2 L 110.88 -3.01 L 111.04 -2.8 L 111.2 -2.6 L 111.34 -2.39 L 111.47 -2.18 L 111.59 -1.97 L 111.7 -1.75 L 111.79 -1.53 L 111.88 -1.31 L 111.94 -1.08 L 112 -0.85 L 112.04 -0.62 L 112.07 -0.38 L 112.09 -0.14 L 112.1 0.1 L 112.09 0.35 L 112.08 0.6 L 112.05 0.85 L 112 1.08 L 111.95 1.32 L 111.88 1.55 L 111.8 1.77 L 111.71 1.99 L 111.61 2.2 L 111.49 2.41 L 111.37 2.61 L 111.23 2.81 L 111.08 3 L 110.91 3.19 L 110.74 3.37 L 110.55 3.55 L 110.35 3.73 L 110.14 3.89 L 109.93 4.04 L 109.71 4.18 L 109.49 4.31 L 109.26 4.43 L 109.03 4.54 L 108.79 4.64 L 108.54 4.72 L 108.3 4.8 L 108.04 4.86 L 107.78 4.91 L 107.52 4.95 L 107.25 4.98 L 106.98 4.99 L 106.7 5 L 106.43 4.99 L 106.16 4.98 L 105.9 4.95 L 105.64 4.91 L 105.38 4.86 L 105.13 4.8 L 104.89 4.72 L 104.65 4.64 L 104.41 4.54 L 104.18 4.43 L 103.96 4.31 L 103.74 4.18 L 103.52 4.04 L 103.31 3.89 L 103.1 3.73 L 102.9 3.55 L 102.71 3.37 L 102.54 3.19 L 102.37 3 L 102.22 2.81 L 102.08 2.61 L 101.96 2.41 L 101.84 2.2 L 101.74 1.99 L 101.65 1.77 L 101.57 1.55 L 101.5 1.32 L 101.45 1.08 L 101.4 0.85 L 101.37 0.6 L 101.36 0.35 L 101.35 0.1 L 101.36 -0.16 L 101.37 -0.41 L 101.4 -0.66 L 101.45 -0.91 L 101.5 -1.14 L 101.57 -1.38 L 101.65 -1.6 L 101.74 -1.83 L 101.84 -2.04 L 101.96 -2.25 L 102.08 -2.46 L 102.22 -2.66 L 102.37 -2.85 L 102.54 -3.04 L 102.71 -3.22 L 102.9 -3.4 L 103.1 -3.58 L 103.31 -3.74 L 103.52 -3.89 L 103.74 -4.03 L 103.96 -4.16 L 104.18 -4.28 L 104.41 -4.39 L 104.65 -4.49 L 104.89 -4.57 L 105.13 -4.65 L 105.38 -4.71 L 105.64 -4.76 L 105.9 -4.8 L 106.16 -4.83 L 106.43 -4.84 L 106.7 -4.85 Z M -132.05 -12.55 L -132.05 -4.85 L -129 -4.85 L -129 12.7 L -120.4 12.7 L -120.4 4.15 L -114 12.7 L -107.55 4.15 L -107.55 12.7 L -98.95 12.7 L -98.95 -12.55 L -107.55 -12.55 L -114 -4 L -120.45 -12.55 Z M -94.75 -12.55 L -94.75 12.7 L -86.1 12.7 L -86.1 -12.55 Z M -82.8 -12.55 L -82.8 12.7 L -74.2 12.7 L -74.2 -0.1 L -73.86 -0.09 L -73.53 -0.07 L -73.2 -0.02 L -72.87 0.04 L -72.55 0.11 L -72.22 0.21 L -71.9 0.32 L -71.59 0.45 L -71.27 0.6 L -70.96 0.76 L -70.65 0.94 L -70.35 1.14 L -70.04 1.35 L -69.74 1.58 L -69.45 1.83 L -69.15 2.1 L -68.93 2.31 L -68.73 2.53 L -68.52 2.76 L -68.33 3 L -68.14 3.24 L -67.96 3.49 L -67.62 4.02 L -67.3 4.57 L -67.02 5.16 L -66.76 5.78 L -66.53 6.43 L -66.32 7.1 L -66.14 7.81 L -65.99 8.55 L -65.87 9.32 L -65.77 10.12 L -65.7 10.95 L -65.66 11.81 L -65.65 12.7 L -57 12.7 L -57 -12.55 L -65.65 -12.55 L -65.65 -5.95 L -65.85 -6.27 L -66.07 -6.58 L -66.32 -6.88 L -66.58 -7.18 L -66.88 -7.48 L -67.19 -7.77 L -67.53 -8.06 L -67.89 -8.34 L -68.27 -8.61 L -68.68 -8.88 L -69.11 -9.15 L -69.56 -9.41 L -70.03 -9.66 L -70.53 -9.91 L -71.06 -10.16 L -71.6 -10.4 L -72.22 -10.66 L -72.86 -10.9 L -73.5 -11.13 L -74.15 -11.34 L -74.81 -11.53 L -75.47 -11.71 L -76.15 -11.87 L -76.84 -12.01 L -77.53 -12.14 L -78.24 -12.25 L -78.95 -12.34 L -79.67 -12.42 L -80.4 -12.47 L -81.14 -12.52 L -81.89 -12.54 L -82.65 -12.55 Z M -53.6 -12.55 L -53.6 12.7 L -45 12.7 L -45 -12.55 Z M -28.9 -12.55 L -29.61 -12.54 L -30.31 -12.49 L -31 -12.42 L -31.67 -12.32 L -32.34 -12.19 L -32.99 -12.03 L -33.62 -11.84 L -34.25 -11.62 L -34.86 -11.38 L -35.46 -11.1 L -36.05 -10.8 L -36.62 -10.47 L -37.19 -10.11 L -37.74 -9.72 L -38.28 -9.3 L -38.8 -8.85 L -39.3 -8.38 L -39.76 -7.89 L -40.19 -7.39 L -40.59 -6.88 L -40.96 -6.36 L -41.3 -5.83 L -41.6 -5.29 L -41.88 -4.74 L -42.12 -4.17 L -42.32 -3.6 L -42.5 -3.01 L -42.64 -2.41 L -42.76 -1.8 L -42.84 -1.18 L -42.88 -0.54 L -42.9 0.1 L -42.88 0.75 L -42.84 1.39 L -42.76 2.01 L -42.64 2.62 L -42.5 3.22 L -42.32 3.81 L -42.12 4.39 L -41.88 4.95 L -41.6 5.5 L -41.3 6.04 L -40.96 6.56 L -40.59 7.07 L -40.19 7.57 L -39.76 8.06 L -39.3 8.54 L -38.8 9 L -38.29 9.45 L -37.77 9.87 L -37.23 10.26 L -36.68 10.62 L -36.11 10.95 L -35.53 11.25 L -34.94 11.53 L -34.33 11.77 L -33.7 11.99 L -33.06 12.18 L -32.4 12.34 L -31.73 12.47 L -31.05 12.57 L -30.35 12.64 L -29.63 12.69 L -28.9 12.7 L -19.25 12.7 L -19.25 5 L -28.9 5 L -29.17 4.99 L -29.44 4.98 L -29.7 4.95 L -29.96 4.91 L -30.22 4.86 L -30.47 4.8 L -30.71 4.72 L -30.95 4.64 L -31.19 4.54 L -31.42 4.43 L -31.64 4.31 L -31.86 4.18 L -32.08 4.04 L -32.29 3.89 L -32.5 3.73 L -32.7 3.55 L -32.89 3.37 L -33.08 3.18 L -33.24 2.99 L -33.4 2.79 L -33.54 2.59 L -33.67 2.39 L -33.79 2.18 L -33.9 1.96 L -33.99 1.74 L -34.08 1.52 L -34.14 1.3 L -34.2 1.07 L -34.24 0.83 L -34.28 0.59 L -34.29 0.35 L -34.3 0.1 L -34.29 -0.15 L -34.28 -0.4 L -34.24 -0.65 L -34.2 -0.89 L -34.14 -1.12 L -34.08 -1.35 L -33.99 -1.58 L -33.9 -1.8 L -33.79 -2.02 L -33.67 -2.23 L -33.54 -2.44 L -33.4 -2.64 L -33.24 -2.84 L -33.08 -3.03 L -32.89 -3.22 L -32.7 -3.4 L -32.5 -3.58 L -32.29 -3.74 L -32.08 -3.89 L -31.86 -4.03 L -31.64 -4.16 L -31.42 -4.28 L -31.19 -4.39 L -30.95 -4.49 L -30.71 -4.57 L -30.47 -4.65 L -30.22 -4.71 L -29.96 -4.76 L -29.7 -4.8 L -29.44 -4.83 L -29.17 -4.84 L -28.9 -4.85 L -19.25 -4.85 L -19.25 -12.55 Z M -7.3 -12.55 L -15.95 -12.5 L -15.95 12.7 L 9.85 12.7 L 9.85 5 L -7.3 5 L -7.3 -12.55 Z M 12.9 -12.55 L 12.9 12.7 L 21.5 12.7 L 21.5 -12.55 Z M 41.4 -12.55 L 25.05 -12.5 L 25.05 12.7 L 33.7 12.7 L 33.7 4.55 L 41.4 4.55 L 41.89 4.54 L 42.38 4.51 L 42.85 4.46 L 43.32 4.39 L 43.77 4.31 L 44.22 4.2 L 44.65 4.07 L 45.08 3.92 L 45.49 3.76 L 45.89 3.57 L 46.29 3.37 L 46.67 3.14 L 47.04 2.9 L 47.4 2.64 L 47.76 2.35 L 48.1 2.05 L 48.43 1.74 L 48.74 1.42 L 49.03 1.09 L 49.3 0.75 L 49.55 0.41 L 49.78 0.05 L 49.98 -0.31 L 50.16 -0.69 L 50.32 -1.07 L 50.46 -1.46 L 50.58 -1.86 L 50.68 -2.27 L 50.75 -2.69 L 50.81 -3.12 L 50.84 -3.55 L 50.85 -4 L 50.84 -4.43 L 50.81 -4.86 L 50.75 -5.28 L 50.68 -5.69 L 50.58 -6.09 L 50.46 -6.49 L 50.32 -6.88 L 50.16 -7.26 L 49.98 -7.64 L 49.78 -8 L 49.55 -8.36 L 49.3 -8.72 L 49.03 -9.06 L 48.74 -9.4 L 48.43 -9.73 L 48.1 -10.05 L 47.75 -10.35 L 47.38 -10.64 L 47.01 -10.9 L 46.63 -11.14 L 46.24 -11.37 L 45.85 -11.57 L 45.44 -11.76 L 45.03 -11.93 L 44.6 -12.07 L 44.17 -12.2 L 43.73 -12.31 L 43.28 -12.39 L 42.82 -12.46 L 42.36 -12.51 L 41.88 -12.54 L 41.4 -12.55 Z M 57.25 4.95 L 56.81 4.97 L 56.39 5.02 L 55.98 5.11 L 55.6 5.24 L 55.41 5.31 L 55.23 5.4 L 55.06 5.49 L 54.89 5.6 L 54.72 5.71 L 54.56 5.83 L 54.25 6.1 L 53.95 6.39 L 53.81 6.55 L 53.68 6.7 L 53.56 6.86 L 53.46 7.03 L 53.36 7.19 L 53.28 7.36 L 53.2 7.54 L 53.13 7.71 L 53.08 7.89 L 53.03 8.08 L 53 8.27 L 52.97 8.46 L 52.96 8.65 L 52.95 8.85 L 52.96 9.04 L 52.97 9.23 L 53 9.42 L 53.03 9.6 L 53.08 9.78 L 53.13 9.96 L 53.2 10.13 L 53.28 10.3 L 53.36 10.47 L 53.46 10.63 L 53.56 10.79 L 53.68 10.95 L 53.95 11.26 L 54.25 11.55 L 54.56 11.82 L 54.72 11.94 L 54.89 12.05 L 55.06 12.16 L 55.23 12.25 L 55.41 12.34 L 55.6 12.41 L 55.98 12.54 L 56.39 12.63 L 56.81 12.68 L 57.25 12.7 L 57.7 12.68 L 58.13 12.63 L 58.55 12.54 L 58.74 12.48 L 58.94 12.41 L 59.13 12.34 L 59.31 12.25 L 59.49 12.16 L 59.66 12.05 L 59.83 11.94 L 59.99 11.82 L 60.15 11.69 L 60.3 11.55 L 60.6 11.26 L 60.87 10.95 L 60.99 10.79 L 61.09 10.63 L 61.19 10.47 L 61.28 10.3 L 61.35 10.13 L 61.42 9.96 L 61.47 9.78 L 61.52 9.6 L 61.55 9.42 L 61.58 9.23 L 61.59 9.04 L 61.6 8.85 L 61.59 8.65 L 61.58 8.46 L 61.55 8.27 L 61.52 8.08 L 61.47 7.89 L 61.42 7.71 L 61.35 7.54 L 61.28 7.36 L 61.19 7.19 L 61.09 7.03 L 60.99 6.86 L 60.87 6.7 L 60.74 6.55 L 60.6 6.39 L 60.3 6.1 L 60.15 5.96 L 59.99 5.83 L 59.83 5.71 L 59.66 5.6 L 59.49 5.49 L 59.31 5.4 L 59.13 5.31 L 58.94 5.24 L 58.74 5.17 L 58.55 5.11 L 58.13 5.02 L 57.7 4.97 L 57.25 4.95 Z M 79.85 -12.55 L 79.14 -12.54 L 78.44 -12.49 L 77.75 -12.42 L 77.07 -12.32 L 76.41 -12.19 L 75.76 -12.03 L 75.12 -11.84 L 74.5 -11.62 L 73.89 -11.38 L 73.29 -11.1 L 72.7 -10.8 L 72.12 -10.47 L 71.56 -10.11 L 71.01 -9.72 L 70.47 -9.3 L 69.95 -8.85 L 69.45 -8.37 L 68.99 -7.88 L 68.56 -7.38 L 68.16 -6.87 L 67.79 -6.34 L 67.45 -5.81 L 67.15 -5.27 L 66.88 -4.71 L 66.63 -4.15 L 66.43 -3.57 L 66.25 -2.99 L 66.11 -2.39 L 65.99 -1.78 L 65.91 -1.17 L 65.87 -0.54 L 65.85 0.1 L 65.87 0.75 L 65.91 1.39 L 65.99 2.01 L 66.11 2.62 L 66.25 3.22 L 66.43 3.81 L 66.63 4.39 L 66.88 4.95 L 67.15 5.5 L 67.45 6.04 L 67.79 6.56 L 68.16 7.07 L 68.56 7.57 L 68.99 8.06 L 69.45 8.54 L 69.95 9 L 70.46 9.45 L 70.98 9.87 L 71.52 10.26 L 72.07 10.62 L 72.64 10.95 L 73.22 11.25 L 73.81 11.53 L 74.43 11.77 L 75.05 11.99 L 75.69 12.18 L 76.35 12.34 L 77.02 12.47 L 77.7 12.57 L 78.4 12.64 L 79.12 12.69 L 79.85 12.7 L 89.55 12.7 L 89.55 5 L 79.85 5 L 79.58 4.99 L 79.31 4.98 L 79.05 4.95 L 78.79 4.91 L 78.53 4.86 L 78.28 4.8 L 78.04 4.72 L 77.8 4.64 L 77.56 4.54 L 77.33 4.43 L 77.11 4.31 L 76.89 4.18 L 76.67 4.04 L 76.46 3.89 L 76.25 3.73 L 76.05 3.55 L 75.86 3.37 L 75.69 3.19 L 75.52 3 L 75.37 2.81 L 75.23 2.61 L 75.11 2.41 L 74.99 2.2 L 74.89 1.99 L 74.8 1.77 L 74.72 1.55 L 74.65 1.32 L 74.6 1.08 L 74.55 0.85 L 74.52 0.6 L 74.51 0.35 L 74.5 0.1 L 74.51 -0.16 L 74.52 -0.41 L 74.55 -0.66 L 74.6 -0.91 L 74.65 -1.14 L 74.72 -1.38 L 74.8 -1.6 L 74.89 -1.83 L 74.99 -2.04 L 75.11 -2.25 L 75.23 -2.46 L 75.37 -2.66 L 75.52 -2.85 L 75.69 -3.04 L 75.86 -3.22 L 76.05 -3.4 L 76.25 -3.58 L 76.46 -3.74 L 76.67 -3.89 L 76.89 -4.03 L 77.11 -4.16 L 77.33 -4.28 L 77.56 -4.39 L 77.8 -4.49 L 78.04 -4.57 L 78.28 -4.65 L 78.53 -4.71 L 78.79 -4.76 L 79.05 -4.8 L 79.31 -4.83 L 79.58 -4.84 L 79.85 -4.85 L 89.55 -4.85 L 89.55 -12.55 Z M 106.7 -12.55 L 105.99 -12.54 L 105.3 -12.49 L 104.62 -12.42 L 103.95 -12.32 L 103.29 -12.19 L 102.64 -12.03 L 102.01 -11.84 L 101.39 -11.62 L 100.78 -11.38 L 100.18 -11.1 L 99.6 -10.8 L 99.02 -10.47 L 98.46 -10.11 L 97.91 -9.72 L 97.37 -9.3 L 96.85 -8.85 L 96.35 -8.38 L 95.88 -7.89 L 95.44 -7.39 L 95.03 -6.88 L 94.66 -6.36 L 94.32 -5.83 L 94.01 -5.29 L 93.74 -4.74 L 93.49 -4.17 L 93.28 -3.6 L 93.11 -3.01 L 92.96 -2.41 L 92.85 -1.8 L 92.76 -1.18 L 92.72 -0.54 L 92.7 0.1 L 92.72 0.74 L 92.76 1.38 L 92.84 2 L 92.96 2.61 L 93.1 3.2 L 93.28 3.79 L 93.48 4.36 L 93.72 4.93 L 94 5.48 L 94.3 6.01 L 94.64 6.54 L 95.01 7.06 L 95.41 7.56 L 95.84 8.05 L 96.3 8.53 L 96.8 9 L 97.31 9.45 L 97.84 9.87 L 98.38 10.26 L 98.94 10.62 L 99.51 10.95 L 100.09 11.25 L 100.69 11.53 L 101.3 11.77 L 101.93 11.99 L 102.57 12.18 L 103.22 12.34 L 103.89 12.47 L 104.57 12.57 L 105.27 12.64 L 105.98 12.69 L 106.7 12.7 L 107.42 12.69 L 108.13 12.64 L 108.83 12.57 L 109.51 12.47 L 110.18 12.34 L 110.83 12.18 L 111.47 11.99 L 112.1 11.77 L 112.71 11.53 L 113.31 11.25 L 113.89 10.95 L 114.46 10.62 L 115.02 10.26 L 115.56 9.87 L 116.09 9.45 L 116.6 9 L 117.1 8.54 L 117.56 8.06 L 117.99 7.57 L 118.39 7.07 L 118.76 6.56 L 119.1 6.04 L 119.4 5.5 L 119.68 4.95 L 119.92 4.39 L 120.12 3.81 L 120.3 3.22 L 120.44 2.62 L 120.56 2.01 L 120.64 1.39 L 120.68 0.75 L 120.7 0.1 L 120.68 -0.54 L 120.64 -1.18 L 120.56 -1.8 L 120.44 -2.41 L 120.3 -3.01 L 120.12 -3.6 L 119.92 -4.17 L 119.68 -4.74 L 119.4 -5.29 L 119.1 -5.83 L 118.76 -6.36 L 118.39 -6.88 L 117.99 -7.39 L 117.56 -7.89 L 117.1 -8.38 L 116.6 -8.85 L 116.07 -9.3 L 115.54 -9.72 L 114.99 -10.11 L 114.43 -10.47 L 113.85 -10.8 L 113.26 -11.1 L 112.66 -11.38 L 112.05 -11.62 L 111.43 -11.84 L 110.79 -12.03 L 110.14 -12.19 L 109.47 -12.32 L 108.8 -12.42 L 108.11 -12.49 L 107.41 -12.54 L 106.7 -12.55 Z M 123.95 -12.55 L 123.95 12.7 L 132.55 12.7 L 132.55 4.15 L 138.95 12.7 L 145.4 4.15 L 145.4 12.7 L 154 12.7 L 154 -12.55 L 145.4 -12.55 L 138.95 -4 L 132.5 -12.55 Z"/>
    </clipPath>
    <g clip-path="url(#clipPath0)">
      <use ffdec:characterId="260" height="79.5" transform="matrix(0.1893, 0.1893, -0.7071, 0.7071, 188.9304, -23.9322)" width="79.5" xlink:href="#shape3"/>
      <use ffdec:characterId="260" height="79.5" transform="matrix(0.2051, 0.2051, -0.7071, 0.7071, 174.7045, -25.3582)" width="79.5" xlink:href="#shape3"/>
    </g>
  </g>
  <defs>
    <g id="text0" transform="matrix(1.0, 0.0, 0.0, 1.0, 0.9, 0.7)">
      <g transform="matrix(1.0, 0.0, 0.0, 1.0, 0.0, 0.0)">
        <use fill="#11a0d7" height="10.45" transform="matrix(0.2539, 0.0, 0.0, 0.2539, 0.0, 10.0)" width="301.05" xlink:href="#font_Distant_Galaxy_F0"/>
        <use fill="#11a0d7" height="10.45" transform="matrix(0.2539, 0.0, 0.0, 0.2539, 14.8, 10.0)" width="301.05" xlink:href="#font_Distant_Galaxy_r0"/>
        <use fill="#11a0d7" height="10.45" transform="matrix(0.2539, 0.0, 0.0, 0.2539, 29.85, 10.0)" width="301.05" xlink:href="#font_Distant_Galaxy_e0"/>
        <use fill="#11a0d7" height="10.45" transform="matrix(0.2539, 0.0, 0.0, 0.2539, 44.65, 10.0)" width="301.05" xlink:href="#font_Distant_Galaxy_e0"/>
        <use fill="#11a0d7" height="10.45" transform="matrix(0.2539, 0.0, 0.0, 0.2539, 71.0, 10.0)" width="301.05" xlink:href="#font_Distant_Galaxy_G0"/>
        <use fill="#11a0d7" height="10.45" transform="matrix(0.2539, 0.0, 0.0, 0.2539, 85.8, 10.0)" width="301.05" xlink:href="#font_Distant_Galaxy_a0"/>
        <use fill="#11a0d7" height="10.45" transform="matrix(0.2539, 0.0, 0.0, 0.2539, 101.9, 10.0)" width="301.05" xlink:href="#font_Distant_Galaxy_m0"/>
        <use fill="#11a0d7" height="10.45" transform="matrix(0.2539, 0.0, 0.0, 0.2539, 118.0, 10.0)" width="301.05" xlink:href="#font_Distant_Galaxy_e0"/>
        <use fill="#11a0d7" height="10.45" transform="matrix(0.2539, 0.0, 0.0, 0.2539, 132.8, 10.0)" width="301.05" xlink:href="#font_Distant_Galaxy_s0"/>
        <use fill="#11a0d7" height="10.45" transform="matrix(0.2539, 0.0, 0.0, 0.2539, 159.15, 10.0)" width="301.05" xlink:href="#font_Distant_Galaxy_A0"/>
        <use fill="#11a0d7" height="10.45" transform="matrix(0.2539, 0.0, 0.0, 0.2539, 175.25, 10.0)" width="301.05" xlink:href="#font_Distant_Galaxy_N0"/>
        <use fill="#11a0d7" height="10.45" transform="matrix(0.2539, 0.0, 0.0, 0.2539, 190.05, 10.0)" width="301.05" xlink:href="#font_Distant_Galaxy_D0"/>
        <use fill="#11a0d7" height="10.45" transform="matrix(0.2539, 0.0, 0.0, 0.2539, 216.4, 10.0)" width="301.05" xlink:href="#font_Distant_Galaxy_S0"/>
        <use fill="#11a0d7" height="10.45" transform="matrix(0.2539, 0.0, 0.0, 0.2539, 231.2, 10.0)" width="301.05" xlink:href="#font_Distant_Galaxy_h0"/>
        <use fill="#11a0d7" height="10.45" transform="matrix(0.2539, 0.0, 0.0, 0.2539, 246.0, 10.0)" width="301.05" xlink:href="#font_Distant_Galaxy_o0"/>
        <use fill="#11a0d7" height="10.45" transform="matrix(0.2539, 0.0, 0.0, 0.2539, 260.7, 10.0)" width="301.05" xlink:href="#font_Distant_Galaxy_w0"/>
        <use fill="#11a0d7" height="10.45" transform="matrix(0.2539, 0.0, 0.0, 0.2539, 279.5, 10.0)" width="301.05" xlink:href="#font_Distant_Galaxy_S0"/>
      </g>
    </g>
    <g id="font_Distant_Galaxy_F0">
      <path d="M31.2 -22.55 L31.2 -33.6 -3.45 -33.6 -3.45 -22.55 0.05 -22.55 0.05 0.0 11.15 0.0 11.15 -12.55 26.2 -12.55 26.2 -21.05 11.15 -21.05 11.15 -22.55 31.2 -22.55" fill-rule="evenodd" stroke="none"/>
    </g>
    <g id="font_Distant_Galaxy_r0">
      <path d="M20.1 -22.1 L20.1 -22.1 Q20.1 -20.05 17.6 -20.05 L11.1 -20.05 11.1 -24.1 17.6 -24.1 Q20.1 -24.1 20.1 -22.1 M32.2 0.0 L32.2 -11.05 26.65 -11.05 Q25.15 -11.05 24.65 -11.75 27.45 -12.95 29.3 -15.8 31.2 -18.7 31.2 -22.1 31.2 -26.85 27.8 -30.2 24.4 -33.6 19.6 -33.6 L0.05 -33.6 0.05 0.0 11.1 0.0 11.1 -10.55 17.75 -3.15 Q20.9 0.0 25.15 0.0 L32.2 0.0" fill-rule="evenodd" stroke="none"/>
    </g>
    <g id="font_Distant_Galaxy_e0">
      <path d="M31.2 0.0 L31.2 -11.05 11.1 -11.05 11.1 -12.55 26.15 -12.55 26.15 -21.05 11.1 -21.05 11.1 -22.55 31.2 -22.55 31.2 -33.6 0.05 -33.6 0.05 0.0 31.2 0.0" fill-rule="evenodd" stroke="none"/>
    </g>
    <g id="font_Distant_Galaxy_G0">
      <path d="M31.2 0.0 L31.2 -18.55 20.1 -18.55 20.1 -11.05 16.85 -11.05 Q14.45 -11.05 12.8 -12.7 11.1 -14.4 11.1 -16.8 11.1 -19.2 12.8 -20.9 14.5 -22.55 16.85 -22.55 L31.2 -22.55 31.2 -33.6 16.85 -33.6 Q9.9 -33.6 5.0 -28.65 0.05 -23.75 0.05 -16.8 0.05 -9.8 4.95 -4.9 9.85 0.0 16.85 0.0 L31.2 0.0" fill-rule="evenodd" stroke="none"/>
    </g>
    <g id="font_Distant_Galaxy_a0">
      <path d="M20.95 -12.05 L15.3 -12.05 18.1 -20.8 20.95 -12.05 M36.2 0.0 L25.0 -33.6 11.2 -33.6 0.05 0.0 11.45 0.0 12.8 -4.0 23.4 -4.0 24.8 0.0 36.2 0.0" fill-rule="evenodd" stroke="none"/>
    </g>
    <g id="font_Distant_Galaxy_m0">
      <path d="M36.2 0.0 L36.2 -33.6 25.35 -33.6 18.1 -22.55 10.85 -33.6 0.05 -33.6 0.05 0.0 11.1 0.0 11.1 -11.05 18.1 0.0 25.15 -11.05 25.15 0.0 36.2 0.0" fill-rule="evenodd" stroke="none"/>
    </g>
    <g id="font_Distant_Galaxy_s0">
      <path d="M31.2 -22.55 L31.2 -33.6 14.1 -33.6 Q9.7 -33.6 6.65 -30.55 3.55 -27.45 3.55 -23.1 3.55 -16.95 9.95 -13.4 L13.75 -11.25 13.75 -11.15 13.7 -11.05 0.05 -11.05 0.05 0.0 17.1 0.0 Q21.5 0.0 24.6 -3.05 27.65 -6.15 27.65 -10.5 27.65 -16.6 21.25 -20.2 L17.5 -22.3 17.5 -22.45 17.5 -22.55 31.2 -22.55" fill-rule="evenodd" stroke="none"/>
    </g>
    <g id="font_Distant_Galaxy_A0">
      <path d="M20.95 -12.05 L15.35 -12.05 18.15 -20.7 20.95 -12.05 M36.2 0.0 L25.0 -33.6 -3.45 -33.6 -3.45 -22.55 7.7 -22.55 0.05 0.0 11.5 0.0 12.85 -4.0 23.45 -4.0 24.8 0.0 36.2 0.0" fill-rule="evenodd" stroke="none"/>
    </g>
    <g id="font_Distant_Galaxy_N0">
      <path d="M31.2 0.0 L31.2 -33.6 20.1 -33.6 20.15 -25.1 Q19.2 -28.25 13.9 -30.8 7.95 -33.6 0.75 -33.6 L-3.45 -33.6 -3.45 -22.55 0.05 -22.55 0.05 0.0 11.15 0.0 11.15 -16.55 Q13.6 -16.55 16.15 -13.85 20.1 -9.6 20.1 0.0 L31.2 0.0" fill-rule="evenodd" stroke="none"/>
    </g>
    <g id="font_Distant_Galaxy_D0">
      <path d="M20.1 -16.8 L20.1 -16.8 Q20.1 -14.4 18.45 -12.7 16.75 -11.05 14.35 -11.05 L11.15 -11.05 11.15 -22.55 14.35 -22.55 Q16.75 -22.55 18.45 -20.85 20.1 -19.2 20.1 -16.8 M31.2 -16.8 L31.2 -16.8 Q31.2 -23.7 26.25 -28.65 21.3 -33.6 14.35 -33.6 L-3.45 -33.6 -3.45 -22.55 0.05 -22.55 0.05 0.0 14.35 0.0 Q21.35 0.0 26.25 -4.9 31.2 -9.8 31.2 -16.8" fill-rule="evenodd" stroke="none"/>
    </g>
    <g id="font_Distant_Galaxy_S0">
      <path d="M31.2 -22.55 L31.2 -33.6 14.1 -33.6 Q9.75 -33.6 6.65 -30.55 3.55 -27.45 3.55 -23.1 3.55 -16.95 9.95 -13.4 L13.75 -11.25 13.75 -11.15 13.75 -11.05 -3.45 -11.05 -3.45 0.0 17.1 0.0 Q21.5 0.0 24.6 -3.05 27.7 -6.15 27.7 -10.5 27.7 -16.6 21.3 -20.2 L17.5 -22.3 17.5 -22.45 17.5 -22.55 31.2 -22.55" fill-rule="evenodd" stroke="none"/>
    </g>
    <g id="font_Distant_Galaxy_h0">
      <path d="M31.2 0.0 L31.2 -33.6 20.1 -33.6 20.1 -21.05 11.1 -21.05 11.1 -33.6 0.05 -33.6 0.05 0.0 11.1 0.0 11.1 -12.55 20.1 -12.55 20.1 0.0 31.2 0.0" fill-rule="evenodd" stroke="none"/>
    </g>
    <g id="font_Distant_Galaxy_o0">
      <path d="M22.6 -16.8 L22.6 -16.8 Q22.6 -14.4 20.95 -12.7 19.25 -11.05 16.85 -11.05 14.45 -11.05 12.8 -12.7 11.1 -14.4 11.1 -16.8 11.1 -19.2 12.8 -20.9 14.45 -22.55 16.85 -22.55 19.2 -22.55 20.9 -20.85 22.6 -19.15 22.6 -16.8 M33.7 -16.8 L33.7 -16.8 Q33.7 -23.7 28.75 -28.65 23.8 -33.6 16.85 -33.6 9.9 -33.6 5.0 -28.65 0.05 -23.75 0.05 -16.8 0.05 -9.8 4.95 -4.9 9.85 0.0 16.85 0.0 23.8 0.0 28.75 -4.95 33.7 -9.85 33.7 -16.8" fill-rule="evenodd" stroke="none"/>
    </g>
    <g id="font_Distant_Galaxy_w0">
      <path d="M51.25 -33.6 L39.85 -33.6 35.45 -20.0 31.05 -33.6 20.25 -33.6 15.85 -20.05 11.45 -33.6 0.05 -33.6 11.2 0.0 22.0 0.0 25.65 -11.55 29.3 0.0 40.05 0.0 51.25 -33.6" fill-rule="evenodd" stroke="none"/>
    </g>
    <g id="shape0" transform="matrix(1.0, 0.0, 0.0, 1.0, 145.45, 15.35)">
      <path d="M-41.95 -1.7 L-41.9 -1.7 Q-42.7 -1.0 -42.7 -0.05 -42.7 0.85 -41.9 1.55 L-41.95 1.55 Q-41.05 2.35 -39.8 2.35 L-30.15 2.35 -29.35 2.5 -29.35 -2.6 -30.15 -2.5 -39.8 -2.5 Q-41.05 -2.5 -41.95 -1.7 M38.25 4.0 L38.2 4.05 38.35 4.0 38.25 4.0 M28.75 -3.7 Q29.7 -3.7 29.85 -4.15 29.75 -4.5 29.25 -4.55 L29.1 -4.55 28.95 -4.6 24.25 -4.6 24.25 -3.7 28.75 -3.7 M-120.45 -14.2 L-120.4 -14.25 -119.55 -14.95 -118.45 -15.2 -109.85 -15.2 Q-108.85 -15.2 -108.1 -14.45 L-107.75 -14.0 -107.4 -14.45 Q-106.65 -15.2 -105.65 -15.2 L-97.0 -15.2 Q-96.05 -15.2 -95.35 -14.55 -94.65 -15.2 -93.7 -15.2 L-93.55 -15.2 Q-86.9 -15.2 -81.5 -12.8 L-79.05 -11.6 -79.05 -12.7 Q-79.05 -13.7 -78.3 -14.45 -77.55 -15.2 -76.55 -15.2 L-67.9 -15.2 Q-66.95 -15.2 -66.2 -14.5 -65.45 -15.2 -64.5 -15.2 L-55.9 -15.2 Q-54.9 -15.2 -54.15 -14.45 -53.4 -13.7 -53.4 -12.7 L-53.4 -8.6 -51.35 -10.8 -51.35 -10.85 Q-46.55 -15.2 -39.8 -15.2 L-30.15 -15.2 Q-29.2 -15.2 -28.45 -14.5 -27.75 -15.15 -26.85 -15.15 L-18.2 -15.2 Q-17.2 -15.2 -16.45 -14.45 -15.7 -13.7 -15.7 -12.7 L-15.7 2.35 -1.05 2.35 -0.5 2.4 -0.5 -12.7 Q-0.5 -13.7 0.25 -14.45 1.0 -15.2 2.0 -15.2 L10.6 -15.2 Q11.6 -15.2 12.35 -14.45 L12.4 -14.4 Q13.05 -15.15 14.15 -15.15 L30.5 -15.2 Q35.3 -15.2 38.75 -12.15 L38.95 -12.0 Q42.45 -8.7 42.45 -4.15 42.45 0.55 38.95 3.75 L38.8 3.85 Q35.45 6.9 30.5 6.9 L25.3 6.9 25.3 12.55 Q25.3 13.55 24.55 14.3 23.8 15.05 22.8 15.05 L14.15 15.05 Q13.15 15.05 12.4 14.3 L12.35 14.3 Q11.6 15.05 10.6 15.05 L2.0 15.05 Q1.15 15.05 0.5 14.5 -0.2 15.05 -1.05 15.05 L-26.85 15.05 Q-27.8 15.05 -28.5 14.4 -29.2 15.05 -30.15 15.05 L-39.8 15.05 Q-46.7 15.05 -51.35 10.75 L-51.5 10.55 -53.4 8.55 -53.4 12.55 Q-53.4 13.55 -54.15 14.3 -54.9 15.05 -55.9 15.05 L-64.5 15.05 Q-65.45 15.05 -66.2 14.35 -66.95 15.05 -67.9 15.05 L-76.55 15.05 Q-77.55 15.05 -78.3 14.3 -79.05 13.55 -79.05 12.55 -79.05 6.55 -81.7 3.8 L-81.75 3.75 -82.6 3.1 -82.6 12.55 Q-82.6 13.55 -83.35 14.3 -84.1 15.05 -85.1 15.05 L-93.7 15.05 Q-94.65 15.05 -95.35 14.4 -96.05 15.05 -97.0 15.05 L-105.65 15.05 Q-106.65 15.05 -107.4 14.3 L-107.75 13.9 -108.1 14.3 Q-108.85 15.05 -109.85 15.05 L-118.45 15.05 Q-119.45 15.05 -120.2 14.3 -120.95 13.55 -120.95 12.55 L-120.95 11.5 -122.9 14.1 -122.9 14.05 Q-123.4 14.7 -124.1 14.95 L-124.2 15.0 -125.55 15.0 -125.65 14.95 -126.9 14.05 -128.8 11.5 -128.8 12.55 Q-128.8 13.55 -129.55 14.3 -130.3 15.05 -131.3 15.05 L-139.9 15.05 Q-140.9 15.05 -141.65 14.3 -142.4 13.55 -142.4 12.55 L-142.4 -2.5 -142.95 -2.5 Q-143.95 -2.5 -144.7 -3.25 -145.45 -4.0 -145.45 -5.0 L-145.45 -12.7 Q-145.45 -13.7 -144.7 -14.45 -143.95 -15.2 -142.95 -15.2 L-131.35 -15.2 -130.25 -14.95 -130.2 -14.95 -129.3 -14.15 -129.35 -14.2 -124.9 -8.3 -120.45 -14.2" fill="#ffffff" fill-rule="evenodd" stroke="none"/>
      <path d="M95.8 -2.9 Q94.45 -2.9 93.5 -2.0 92.65 -1.25 92.65 -0.05 92.65 1.05 93.5 1.85 94.45 2.7 95.8 2.7 97.15 2.7 98.1 1.85 98.95 1.05 98.95 -0.05 98.95 -1.15 98.05 -2.05 97.05 -2.9 95.8 -2.9 M98.45 -2.5 L98.45 -2.45 98.5 -2.45 98.45 -2.5 M78.55 -2.5 L68.85 -2.5 Q67.75 -2.5 66.9 -1.85 L66.7 -1.65 Q66.0 -1.05 66.0 -0.05 66.0 0.9 66.75 1.55 L66.7 1.55 Q67.6 2.35 68.85 2.35 L78.55 2.35 79.0 2.4 Q78.8 1.25 78.85 0.0 L79.05 -2.55 78.55 -2.5 M123.55 -14.15 L123.5 -14.2 127.95 -8.3 132.4 -14.2 132.45 -14.25 133.3 -14.95 134.4 -15.2 143.0 -15.2 Q144.0 -15.2 144.75 -14.45 145.5 -13.7 145.5 -12.7 L145.5 12.55 Q145.5 13.55 144.75 14.3 144.0 15.05 143.0 15.05 L134.4 15.05 Q133.4 15.05 132.65 14.3 131.9 13.55 131.9 12.55 L131.9 11.5 129.95 14.1 129.95 14.05 Q129.45 14.7 128.75 14.95 L128.65 15.0 127.3 15.0 127.2 14.95 Q126.45 14.7 125.95 14.05 L124.05 11.5 124.05 12.55 Q124.05 13.55 123.3 14.3 122.55 15.05 121.55 15.05 L112.95 15.05 Q111.95 15.05 111.2 14.3 110.45 13.55 110.45 12.55 L110.45 7.95 107.9 10.85 Q102.95 15.3 95.85 15.35 88.7 15.3 83.8 10.85 82.15 9.35 81.05 7.65 L81.05 12.55 Q81.05 13.55 80.3 14.3 79.55 15.05 78.55 15.05 L68.85 15.05 Q61.95 15.05 57.3 10.75 L57.15 10.6 Q52.35 6.2 52.35 -0.05 52.35 -6.25 57.3 -10.8 L57.3 -10.85 Q62.1 -15.2 68.85 -15.2 L78.55 -15.2 Q79.55 -15.2 80.3 -14.45 81.05 -13.7 81.05 -12.7 L81.05 -7.6 Q82.2 -9.35 83.9 -10.85 88.9 -15.35 95.85 -15.35 102.8 -15.35 107.9 -10.85 L110.45 -7.9 110.45 -12.7 Q110.45 -13.7 111.2 -14.45 111.95 -15.2 112.95 -15.2 L121.5 -15.2 122.6 -14.95 122.65 -14.95 123.55 -14.15" fill="#ffffff" fill-rule="evenodd" stroke="none"/>
      <path d="M50.95 12.65 Q49.15 14.35 46.45 14.35 43.8 14.35 42.05 12.65 40.1 10.95 40.1 8.65 40.1 6.3 42.05 4.6 43.8 2.9 46.45 2.9 49.15 2.9 50.95 4.6 52.85 6.3 52.9 8.65 52.85 10.95 50.95 12.65" fill="#ffffff" fill-rule="evenodd" stroke="none"/>
    </g>
    <g id="shape1" transform="matrix(1.0, 0.0, 0.0, 1.0, 105.7, 12.65)">
      <path d="M10.55 -12.65 L10.55 12.6 1.95 12.6 1.95 -12.65 10.55 -12.65" fill="url(#gradient0)" fill-rule="evenodd" stroke="none"/>
      <path d="M28.9 -6.05 L28.7 -6.05 22.7 -6.05 22.7 -2.15 28.7 -2.15 Q31.3 -2.15 31.3 -4.1 31.3 -5.8 29.35 -6.0 L28.9 -6.05 M37.15 -10.15 Q39.9 -7.6 39.9 -4.1 39.9 -0.5 37.15 1.95 34.45 4.45 30.45 4.45 L22.75 4.45 22.75 12.6 14.1 12.6 14.1 -12.6 30.45 -12.65 Q34.35 -12.65 37.15 -10.15" fill="url(#gradient1)" fill-rule="evenodd" stroke="none"/>
      <path d="M78.6 -4.95 L68.9 -4.95 Q66.7 -4.95 65.1 -3.5 63.55 -2.1 63.55 0.0 63.55 2.05 65.1 3.45 66.7 4.9 68.9 4.9 L78.6 4.9 78.6 12.6 68.9 12.6 Q63.0 12.6 59.0 8.9 54.9 5.25 54.9 0.0 54.9 -5.15 59.0 -8.95 63.15 -12.65 68.9 -12.65 L78.6 -12.65 78.6 -4.95" fill="url(#gradient2)" fill-rule="evenodd" stroke="none"/>
      <path d="M99.55 -3.5 Q97.95 -4.95 95.75 -4.95 93.55 -4.95 91.95 -3.5 90.4 -2.1 90.4 0.0 90.4 2.05 91.95 3.45 93.55 4.9 95.75 4.9 98.0 4.9 99.6 3.45 101.15 2.05 101.15 0.0 101.15 -1.95 99.55 -3.5 M85.9 -8.95 Q90.05 -12.65 95.75 -12.65 101.5 -12.65 105.65 -8.95 109.75 -5.2 109.75 0.0 109.75 5.25 105.65 8.9 101.6 12.6 95.75 12.6 89.9 12.6 85.85 8.9 81.75 5.2 81.75 0.0 81.75 -5.2 85.9 -8.95" fill="url(#gradient3)" fill-rule="evenodd" stroke="none"/>
      <path d="M134.45 -12.65 L143.05 -12.65 143.05 12.6 134.45 12.6 134.45 4.05 128.0 12.6 121.6 4.05 121.6 12.6 113.0 12.6 113.0 -12.65 121.55 -12.65 128.0 -4.1 134.45 -12.65" fill="url(#gradient4)" fill-rule="evenodd" stroke="none"/>
      <path d="M46.3 4.85 Q48.15 4.85 49.35 6.0 50.65 7.15 50.65 8.75 50.65 10.3 49.35 11.45 48.15 12.6 46.3 12.6 44.5 12.6 43.3 11.45 42.0 10.3 42.0 8.75 42.0 7.15 43.3 6.0 44.5 4.85 46.3 4.85" fill="url(#gradient5)" fill-rule="evenodd" stroke="none"/>
      <path d="M-97.05 -12.65 L-97.05 12.6 -105.7 12.6 -105.7 -12.65 -97.05 -12.65" fill="url(#gradient6)" fill-rule="evenodd" stroke="none"/>
      <path d="M-93.6 -12.65 Q-87.5 -12.65 -82.55 -10.5 -78.1 -8.6 -76.6 -6.05 L-76.6 -12.65 -67.95 -12.65 -67.95 12.6 -76.6 12.6 Q-76.6 5.35 -80.1 2.0 -82.45 -0.2 -85.15 -0.2 L-85.15 12.6 -93.75 12.6 -93.75 -12.65 -93.6 -12.65" fill="url(#gradient7)" fill-rule="evenodd" stroke="none"/>
      <path d="M-55.95 -12.65 L-55.95 12.6 -64.55 12.6 -64.55 -12.65 -55.95 -12.65" fill="url(#gradient8)" fill-rule="evenodd" stroke="none"/>
      <path d="M-18.25 -12.65 L-18.25 4.9 -1.1 4.9 -1.1 12.6 -26.9 12.6 -26.9 -12.6 -18.25 -12.65" fill="url(#gradient9)" fill-rule="evenodd" stroke="none"/>
      <path d="M-39.85 -4.95 Q-42.05 -4.95 -43.65 -3.5 -45.25 -2.05 -45.25 0.0 -45.25 2.0 -43.65 3.45 -42.05 4.9 -39.85 4.9 L-30.2 4.9 -30.2 12.6 -39.85 12.6 Q-45.75 12.6 -49.75 8.9 -53.85 5.25 -53.85 0.0 -53.85 -5.2 -49.75 -8.95 -45.6 -12.65 -39.85 -12.65 L-30.2 -12.65 -30.2 -4.95 -39.85 -4.95" fill="url(#gradient10)" fill-rule="evenodd" stroke="none"/>
      <path d="M28.7 -6.05 L28.9 -6.05" ffdec:has-small-stroke="true" ffdec:original-stroke-width="0.05" fill="none" stroke="#ffffff" stroke-linecap="round" stroke-linejoin="round" stroke-width="1.0"/>
    </g>
    <linearGradient gradientTransform="matrix(0.0, 0.0154, -0.0154, 0.0, 6.25, -0.05)" gradientUnits="userSpaceOnUse" id="gradient0" spreadMethod="pad" x1="-819.2" x2="819.2">
      <stop offset="0.0" stop-color="#ff8a00"/>
      <stop offset="1.0" stop-color="#e60012"/>
    </linearGradient>
    <linearGradient gradientTransform="matrix(0.0, 0.0151, -0.0154, 0.0, 27.0, -0.05)" gradientUnits="userSpaceOnUse" id="gradient1" spreadMethod="pad" x1="-819.2" x2="819.2">
      <stop offset="0.0" stop-color="#ff8a00"/>
      <stop offset="1.0" stop-color="#e60012"/>
    </linearGradient>
    <linearGradient gradientTransform="matrix(0.0, 0.0154, -0.0154, 0.0, 66.75, -0.05)" gradientUnits="userSpaceOnUse" id="gradient2" spreadMethod="pad" x1="-819.2" x2="819.2">
      <stop offset="0.0" stop-color="#ff8a00"/>
      <stop offset="1.0" stop-color="#e60012"/>
    </linearGradient>
    <linearGradient gradientTransform="matrix(0.0, 0.0154, -0.0154, 0.0, 95.75, -0.05)" gradientUnits="userSpaceOnUse" id="gradient3" spreadMethod="pad" x1="-819.2" x2="819.2">
      <stop offset="0.0" stop-color="#ff8a00"/>
      <stop offset="1.0" stop-color="#e60012"/>
    </linearGradient>
    <linearGradient gradientTransform="matrix(0.0, 0.0154, -0.0154, 0.0, 128.0, -0.05)" gradientUnits="userSpaceOnUse" id="gradient4" spreadMethod="pad" x1="-819.2" x2="819.2">
      <stop offset="0.0" stop-color="#ff8a00"/>
      <stop offset="1.0" stop-color="#e60012"/>
    </linearGradient>
    <linearGradient gradientTransform="matrix(0.0, 0.0151, -0.0047, 0.0, 45.55, 0.7)" gradientUnits="userSpaceOnUse" id="gradient5" spreadMethod="pad" x1="-819.2" x2="819.2">
      <stop offset="0.0" stop-color="#ff8a00"/>
      <stop offset="1.0" stop-color="#e60012"/>
    </linearGradient>
    <linearGradient gradientTransform="matrix(0.0, 0.0154, -0.0154, 0.0, -101.4, -0.05)" gradientUnits="userSpaceOnUse" id="gradient6" spreadMethod="pad" x1="-819.2" x2="819.2">
      <stop offset="0.0" stop-color="#ff8a00"/>
      <stop offset="1.0" stop-color="#e60012"/>
    </linearGradient>
    <linearGradient gradientTransform="matrix(0.0, 0.0154, -0.0154, 0.0, -80.85, -0.05)" gradientUnits="userSpaceOnUse" id="gradient7" spreadMethod="pad" x1="-819.2" x2="819.2">
      <stop offset="0.0" stop-color="#ff8a00"/>
      <stop offset="1.0" stop-color="#e60012"/>
    </linearGradient>
    <linearGradient gradientTransform="matrix(0.0, 0.0154, -0.0154, 0.0, -60.25, -0.05)" gradientUnits="userSpaceOnUse" id="gradient8" spreadMethod="pad" x1="-819.2" x2="819.2">
      <stop offset="0.0" stop-color="#ff8a00"/>
      <stop offset="1.0" stop-color="#e60012"/>
    </linearGradient>
    <linearGradient gradientTransform="matrix(0.0, 0.0154, -0.0154, 0.0, -14.0, -0.05)" gradientUnits="userSpaceOnUse" id="gradient9" spreadMethod="pad" x1="-819.2" x2="819.2">
      <stop offset="0.0" stop-color="#ff8a00"/>
      <stop offset="1.0" stop-color="#e60012"/>
    </linearGradient>
    <linearGradient gradientTransform="matrix(0.0, 0.0153, -0.0154, 0.0, -42.05, -0.05)" gradientUnits="userSpaceOnUse" id="gradient10" spreadMethod="pad" x1="-819.2" x2="819.2">
      <stop offset="0.0" stop-color="#ff8a00"/>
      <stop offset="1.0" stop-color="#e60012"/>
    </linearGradient>
    <g id="shape2" transform="matrix(1.0, 0.0, 0.0, 1.0, 16.55, 12.65)">
      <path d="M16.55 -12.65 L16.55 12.6 7.95 12.6 7.95 4.05 1.5 12.6 -4.9 4.05 -4.9 12.6 -13.5 12.6 -13.5 -4.95 -16.55 -4.95 -16.55 -12.65 -4.95 -12.65 1.5 -4.1 7.95 -12.65 16.55 -12.65" fill="url(#gradient11)" fill-rule="evenodd" stroke="none"/>
    </g>
    <linearGradient gradientTransform="matrix(0.0, 0.0154, -0.0154, 0.0, 0.0, -0.05)" gradientUnits="userSpaceOnUse" id="gradient11" spreadMethod="pad" x1="-819.2" x2="819.2">
      <stop offset="0.0" stop-color="#ff8a00"/>
      <stop offset="1.0" stop-color="#e60012"/>
    </linearGradient>
    <g id="shape3" transform="matrix(1.0, 0.0, 0.0, 1.0, 39.75, 39.75)">
      <path d="M0.0 -39.75 Q16.45 -39.75 28.1 -28.1 39.75 -16.45 39.75 0.0 39.75 16.45 28.1 28.1 16.45 39.75 0.0 39.75 -16.45 39.75 -28.1 28.1 -39.75 16.45 -39.75 0.0 -39.75 -16.45 -28.1 -28.1 -16.45 -39.75 0.0 -39.75" fill="url(#gradient12)" fill-rule="evenodd" stroke="none"/>
    </g>
    <radialGradient cx="0" cy="0" gradientTransform="matrix(0.0495, 0.0, 0.0, 0.0495, 0.0, 0.0)" gradientUnits="userSpaceOnUse" id="gradient12" r="819.2" spreadMethod="pad">
      <stop offset="0.0" stop-color="#ffffff" stop-opacity="0.7529412"/>
      <stop offset="0.6431372549019608" stop-color="#ffffff" stop-opacity="0.4"/>
      <stop offset="0.9725490196078431" stop-color="#ffffff" stop-opacity="0.0"/>
    </radialGradient>
  </defs>
</svg>
