<?xml version="1.0" encoding="UTF-8" standalone="no"?>
<svg xmlns:ffdec="https://www.free-decompiler.com/flash" xmlns:xlink="http://www.w3.org/1999/xlink" ffdec:objectType="frame" height="166.35px" width="489.45px" xmlns="http://www.w3.org/2000/svg">
  <g transform="matrix(1.0, 0.0, 0.0, 1.0, 205.45, 58.3)">
    <use ffdec:characterId="263" height="10.45" transform="matrix(1.0, 0.0, 0.0, 1.0, -131.15, 20.15)" width="301.05" xlink:href="#text0"/>
    <use ffdec:characterId="258" height="30.7" transform="matrix(1.0, 0.0, 0.0, 1.0, -134.5, -15.25)" width="290.95" xlink:href="#shape0"/>
    <use ffdec:characterId="253" height="25.25" transform="matrix(1.0, 0.0, 0.0, 1.0, -94.75, -12.55)" width="248.75" xlink:href="#shape1"/>
    <use ffdec:characterId="251" height="25.25" transform="matrix(1.0, 0.0, 0.0, 1.0, -132.05, -12.55)" width="33.1" xlink:href="#shape2"/>
  </g>
  <defs>
    <g id="text0" transform="matrix(1.0, 0.0, 0.0, 1.0, 0.9, 0.7)">
      <g transform="matrix(1.0, 0.0, 0.0, 1.0, 0.0, 0.0)">
        <use fill="#11a0d7" fill-opacity="0.64705884" height="10.45" transform="matrix(0.2539, 0.0, 0.0, 0.2539, 0.0, 10.0)" width="301.05" xlink:href="#font_Distant_Galaxy_F0"/>
        <use fill="#11a0d7" fill-opacity="0.64705884" height="10.45" transform="matrix(0.2539, 0.0, 0.0, 0.2539, 14.8, 10.0)" width="301.05" xlink:href="#font_Distant_Galaxy_r0"/>
        <use fill="#11a0d7" fill-opacity="0.64705884" height="10.45" transform="matrix(0.2539, 0.0, 0.0, 0.2539, 29.85, 10.0)" width="301.05" xlink:href="#font_Distant_Galaxy_e0"/>
        <use fill="#11a0d7" fill-opacity="0.64705884" height="10.45" transform="matrix(0.2539, 0.0, 0.0, 0.2539, 44.65, 10.0)" width="301.05" xlink:href="#font_Distant_Galaxy_e0"/>
        <use fill="#11a0d7" fill-opacity="0.64705884" height="10.45" transform="matrix(0.2539, 0.0, 0.0, 0.2539, 71.0, 10.0)" width="301.05" xlink:href="#font_Distant_Galaxy_G0"/>
        <use fill="#11a0d7" fill-opacity="0.64705884" height="10.45" transform="matrix(0.2539, 0.0, 0.0, 0.2539, 85.8, 10.0)" width="301.05" xlink:href="#font_Distant_Galaxy_a0"/>
        <use fill="#11a0d7" fill-opacity="0.64705884" height="10.45" transform="matrix(0.2539, 0.0, 0.0, 0.2539, 101.9, 10.0)" width="301.05" xlink:href="#font_Distant_Galaxy_m0"/>
        <use fill="#11a0d7" fill-opacity="0.64705884" height="10.45" transform="matrix(0.2539, 0.0, 0.0, 0.2539, 118.0, 10.0)" width="301.05" xlink:href="#font_Distant_Galaxy_e0"/>
        <use fill="#11a0d7" fill-opacity="0.64705884" height="10.45" transform="matrix(0.2539, 0.0, 0.0, 0.2539, 132.8, 10.0)" width="301.05" xlink:href="#font_Distant_Galaxy_s0"/>
        <use fill="#11a0d7" fill-opacity="0.64705884" height="10.45" transform="matrix(0.2539, 0.0, 0.0, 0.2539, 159.15, 10.0)" width="301.05" xlink:href="#font_Distant_Galaxy_A0"/>
        <use fill="#11a0d7" fill-opacity="0.64705884" height="10.45" transform="matrix(0.2539, 0.0, 0.0, 0.2539, 175.25, 10.0)" width="301.05" xlink:href="#font_Distant_Galaxy_N0"/>
        <use fill="#11a0d7" fill-opacity="0.64705884" height="10.45" transform="matrix(0.2539, 0.0, 0.0, 0.2539, 190.05, 10.0)" width="301.05" xlink:href="#font_Distant_Galaxy_D0"/>
        <use fill="#11a0d7" fill-opacity="0.64705884" height="10.45" transform="matrix(0.2539, 0.0, 0.0, 0.2539, 216.4, 10.0)" width="301.05" xlink:href="#font_Distant_Galaxy_S0"/>
        <use fill="#11a0d7" fill-opacity="0.64705884" height="10.45" transform="matrix(0.2539, 0.0, 0.0, 0.2539, 231.2, 10.0)" width="301.05" xlink:href="#font_Distant_Galaxy_h0"/>
        <use fill="#11a0d7" fill-opacity="0.64705884" height="10.45" transform="matrix(0.2539, 0.0, 0.0, 0.2539, 246.0, 10.0)" width="301.05" xlink:href="#font_Distant_Galaxy_o0"/>
        <use fill="#11a0d7" fill-opacity="0.64705884" height="10.45" transform="matrix(0.2539, 0.0, 0.0, 0.2539, 260.7, 10.0)" width="301.05" xlink:href="#font_Distant_Galaxy_w0"/>
        <use fill="#11a0d7" fill-opacity="0.64705884" height="10.45" transform="matrix(0.2539, 0.0, 0.0, 0.2539, 279.5, 10.0)" width="301.05" xlink:href="#font_Distant_Galaxy_S0"/>
      </g>
    </g>
    <g id="font_Distant_Galaxy_F0">
      <path d="M31.2 -22.55 L31.2 -33.6 -3.45 -33.6 -3.45 -22.55 0.05 -22.55 0.05 0.0 11.15 0.0 11.15 -12.55 26.2 -12.55 26.2 -21.05 11.15 -21.05 11.15 -22.55 31.2 -22.55" fill-rule="evenodd" stroke="none"/>
    </g>
    <g id="font_Distant_Galaxy_r0">
      <path d="M20.1 -22.1 L20.1 -22.1 Q20.1 -20.05 17.6 -20.05 L11.1 -20.05 11.1 -24.1 17.6 -24.1 Q20.1 -24.1 20.1 -22.1 M32.2 0.0 L32.2 -11.05 26.65 -11.05 Q25.15 -11.05 24.65 -11.75 27.45 -12.95 29.3 -15.8 31.2 -18.7 31.2 -22.1 31.2 -26.85 27.8 -30.2 24.4 -33.6 19.6 -33.6 L0.05 -33.6 0.05 0.0 11.1 0.0 11.1 -10.55 17.75 -3.15 Q20.9 0.0 25.15 0.0 L32.2 0.0" fill-rule="evenodd" stroke="none"/>
    </g>
    <g id="font_Distant_Galaxy_e0">
      <path d="M31.2 0.0 L31.2 -11.05 11.1 -11.05 11.1 -12.55 26.15 -12.55 26.15 -21.05 11.1 -21.05 11.1 -22.55 31.2 -22.55 31.2 -33.6 0.05 -33.6 0.05 0.0 31.2 0.0" fill-rule="evenodd" stroke="none"/>
    </g>
    <g id="font_Distant_Galaxy_G0">
      <path d="M31.2 0.0 L31.2 -18.55 20.1 -18.55 20.1 -11.05 16.85 -11.05 Q14.45 -11.05 12.8 -12.7 11.1 -14.4 11.1 -16.8 11.1 -19.2 12.8 -20.9 14.5 -22.55 16.85 -22.55 L31.2 -22.55 31.2 -33.6 16.85 -33.6 Q9.9 -33.6 5.0 -28.65 0.05 -23.75 0.05 -16.8 0.05 -9.8 4.95 -4.9 9.85 0.0 16.85 0.0 L31.2 0.0" fill-rule="evenodd" stroke="none"/>
    </g>
    <g id="font_Distant_Galaxy_a0">
      <path d="M20.95 -12.05 L15.3 -12.05 18.1 -20.8 20.95 -12.05 M36.2 0.0 L25.0 -33.6 11.2 -33.6 0.05 0.0 11.45 0.0 12.8 -4.0 23.4 -4.0 24.8 0.0 36.2 0.0" fill-rule="evenodd" stroke="none"/>
    </g>
    <g id="font_Distant_Galaxy_m0">
      <path d="M36.2 0.0 L36.2 -33.6 25.35 -33.6 18.1 -22.55 10.85 -33.6 0.05 -33.6 0.05 0.0 11.1 0.0 11.1 -11.05 18.1 0.0 25.15 -11.05 25.15 0.0 36.2 0.0" fill-rule="evenodd" stroke="none"/>
    </g>
    <g id="font_Distant_Galaxy_s0">
      <path d="M31.2 -22.55 L31.2 -33.6 14.1 -33.6 Q9.7 -33.6 6.65 -30.55 3.55 -27.45 3.55 -23.1 3.55 -16.95 9.95 -13.4 L13.75 -11.25 13.75 -11.15 13.7 -11.05 0.05 -11.05 0.05 0.0 17.1 0.0 Q21.5 0.0 24.6 -3.05 27.65 -6.15 27.65 -10.5 27.65 -16.6 21.25 -20.2 L17.5 -22.3 17.5 -22.45 17.5 -22.55 31.2 -22.55" fill-rule="evenodd" stroke="none"/>
    </g>
    <g id="font_Distant_Galaxy_A0">
      <path d="M20.95 -12.05 L15.35 -12.05 18.15 -20.7 20.95 -12.05 M36.2 0.0 L25.0 -33.6 -3.45 -33.6 -3.45 -22.55 7.7 -22.55 0.05 0.0 11.5 0.0 12.85 -4.0 23.45 -4.0 24.8 0.0 36.2 0.0" fill-rule="evenodd" stroke="none"/>
    </g>
    <g id="font_Distant_Galaxy_N0">
      <path d="M31.2 0.0 L31.2 -33.6 20.1 -33.6 20.15 -25.1 Q19.2 -28.25 13.9 -30.8 7.95 -33.6 0.75 -33.6 L-3.45 -33.6 -3.45 -22.55 0.05 -22.55 0.05 0.0 11.15 0.0 11.15 -16.55 Q13.6 -16.55 16.15 -13.85 20.1 -9.6 20.1 0.0 L31.2 0.0" fill-rule="evenodd" stroke="none"/>
    </g>
    <g id="font_Distant_Galaxy_D0">
      <path d="M20.1 -16.8 L20.1 -16.8 Q20.1 -14.4 18.45 -12.7 16.75 -11.05 14.35 -11.05 L11.15 -11.05 11.15 -22.55 14.35 -22.55 Q16.75 -22.55 18.45 -20.85 20.1 -19.2 20.1 -16.8 M31.2 -16.8 L31.2 -16.8 Q31.2 -23.7 26.25 -28.65 21.3 -33.6 14.35 -33.6 L-3.45 -33.6 -3.45 -22.55 0.05 -22.55 0.05 0.0 14.35 0.0 Q21.35 0.0 26.25 -4.9 31.2 -9.8 31.2 -16.8" fill-rule="evenodd" stroke="none"/>
    </g>
    <g id="font_Distant_Galaxy_S0">
      <path d="M31.2 -22.55 L31.2 -33.6 14.1 -33.6 Q9.75 -33.6 6.65 -30.55 3.55 -27.45 3.55 -23.1 3.55 -16.95 9.95 -13.4 L13.75 -11.25 13.75 -11.15 13.75 -11.05 -3.45 -11.05 -3.45 0.0 17.1 0.0 Q21.5 0.0 24.6 -3.05 27.7 -6.15 27.7 -10.5 27.7 -16.6 21.3 -20.2 L17.5 -22.3 17.5 -22.45 17.5 -22.55 31.2 -22.55" fill-rule="evenodd" stroke="none"/>
    </g>
    <g id="font_Distant_Galaxy_h0">
      <path d="M31.2 0.0 L31.2 -33.6 20.1 -33.6 20.1 -21.05 11.1 -21.05 11.1 -33.6 0.05 -33.6 0.05 0.0 11.1 0.0 11.1 -12.55 20.1 -12.55 20.1 0.0 31.2 0.0" fill-rule="evenodd" stroke="none"/>
    </g>
    <g id="font_Distant_Galaxy_o0">
      <path d="M22.6 -16.8 L22.6 -16.8 Q22.6 -14.4 20.95 -12.7 19.25 -11.05 16.85 -11.05 14.45 -11.05 12.8 -12.7 11.1 -14.4 11.1 -16.8 11.1 -19.2 12.8 -20.9 14.45 -22.55 16.85 -22.55 19.2 -22.55 20.9 -20.85 22.6 -19.15 22.6 -16.8 M33.7 -16.8 L33.7 -16.8 Q33.7 -23.7 28.75 -28.65 23.8 -33.6 16.85 -33.6 9.9 -33.6 5.0 -28.65 0.05 -23.75 0.05 -16.8 0.05 -9.8 4.95 -4.9 9.85 0.0 16.85 0.0 23.8 0.0 28.75 -4.95 33.7 -9.85 33.7 -16.8" fill-rule="evenodd" stroke="none"/>
    </g>
    <g id="font_Distant_Galaxy_w0">
      <path d="M51.25 -33.6 L39.85 -33.6 35.45 -20.0 31.05 -33.6 20.25 -33.6 15.85 -20.05 11.45 -33.6 0.05 -33.6 11.2 0.0 22.0 0.0 25.65 -11.55 29.3 0.0 40.05 0.0 51.25 -33.6" fill-rule="evenodd" stroke="none"/>
    </g>
    <g id="shape0" transform="matrix(1.0, 0.0, 0.0, 1.0, 145.45, 15.35)">
      <path d="M-41.95 -1.7 L-41.9 -1.7 Q-42.7 -1.0 -42.7 -0.05 -42.7 0.85 -41.9 1.55 L-41.95 1.55 Q-41.05 2.35 -39.8 2.35 L-30.15 2.35 -29.35 2.5 -29.35 -2.6 -30.15 -2.5 -39.8 -2.5 Q-41.05 -2.5 -41.95 -1.7 M38.25 4.0 L38.2 4.05 38.35 4.0 38.25 4.0 M28.75 -3.7 Q29.7 -3.7 29.85 -4.15 29.75 -4.5 29.25 -4.55 L29.1 -4.55 28.95 -4.6 24.25 -4.6 24.25 -3.7 28.75 -3.7 M-120.45 -14.2 L-120.4 -14.25 -119.55 -14.95 -118.45 -15.2 -109.85 -15.2 Q-108.85 -15.2 -108.1 -14.45 L-107.75 -14.0 -107.4 -14.45 Q-106.65 -15.2 -105.65 -15.2 L-97.0 -15.2 Q-96.05 -15.2 -95.35 -14.55 -94.65 -15.2 -93.7 -15.2 L-93.55 -15.2 Q-86.9 -15.2 -81.5 -12.8 L-79.05 -11.6 -79.05 -12.7 Q-79.05 -13.7 -78.3 -14.45 -77.55 -15.2 -76.55 -15.2 L-67.9 -15.2 Q-66.95 -15.2 -66.2 -14.5 -65.45 -15.2 -64.5 -15.2 L-55.9 -15.2 Q-54.9 -15.2 -54.15 -14.45 -53.4 -13.7 -53.4 -12.7 L-53.4 -8.6 -51.35 -10.8 -51.35 -10.85 Q-46.55 -15.2 -39.8 -15.2 L-30.15 -15.2 Q-29.2 -15.2 -28.45 -14.5 -27.75 -15.15 -26.85 -15.15 L-18.2 -15.2 Q-17.2 -15.2 -16.45 -14.45 -15.7 -13.7 -15.7 -12.7 L-15.7 2.35 -1.05 2.35 -0.5 2.4 -0.5 -12.7 Q-0.5 -13.7 0.25 -14.45 1.0 -15.2 2.0 -15.2 L10.6 -15.2 Q11.6 -15.2 12.35 -14.45 L12.4 -14.4 Q13.05 -15.15 14.15 -15.15 L30.5 -15.2 Q35.3 -15.2 38.75 -12.15 L38.95 -12.0 Q42.45 -8.7 42.45 -4.15 42.45 0.55 38.95 3.75 L38.8 3.85 Q35.45 6.9 30.5 6.9 L25.3 6.9 25.3 12.55 Q25.3 13.55 24.55 14.3 23.8 15.05 22.8 15.05 L14.15 15.05 Q13.15 15.05 12.4 14.3 L12.35 14.3 Q11.6 15.05 10.6 15.05 L2.0 15.05 Q1.15 15.05 0.5 14.5 -0.2 15.05 -1.05 15.05 L-26.85 15.05 Q-27.8 15.05 -28.5 14.4 -29.2 15.05 -30.15 15.05 L-39.8 15.05 Q-46.7 15.05 -51.35 10.75 L-51.5 10.55 -53.4 8.55 -53.4 12.55 Q-53.4 13.55 -54.15 14.3 -54.9 15.05 -55.9 15.05 L-64.5 15.05 Q-65.45 15.05 -66.2 14.35 -66.95 15.05 -67.9 15.05 L-76.55 15.05 Q-77.55 15.05 -78.3 14.3 -79.05 13.55 -79.05 12.55 -79.05 6.55 -81.7 3.8 L-81.75 3.75 -82.6 3.1 -82.6 12.55 Q-82.6 13.55 -83.35 14.3 -84.1 15.05 -85.1 15.05 L-93.7 15.05 Q-94.65 15.05 -95.35 14.4 -96.05 15.05 -97.0 15.05 L-105.65 15.05 Q-106.65 15.05 -107.4 14.3 L-107.75 13.9 -108.1 14.3 Q-108.85 15.05 -109.85 15.05 L-118.45 15.05 Q-119.45 15.05 -120.2 14.3 -120.95 13.55 -120.95 12.55 L-120.95 11.5 -122.9 14.1 -122.9 14.05 Q-123.4 14.7 -124.1 14.95 L-124.2 15.0 -125.55 15.0 -125.65 14.95 -126.9 14.05 -128.8 11.5 -128.8 12.55 Q-128.8 13.55 -129.55 14.3 -130.3 15.05 -131.3 15.05 L-139.9 15.05 Q-140.9 15.05 -141.65 14.3 -142.4 13.55 -142.4 12.55 L-142.4 -2.5 -142.95 -2.5 Q-143.95 -2.5 -144.7 -3.25 -145.45 -4.0 -145.45 -5.0 L-145.45 -12.7 Q-145.45 -13.7 -144.7 -14.45 -143.95 -15.2 -142.95 -15.2 L-131.35 -15.2 -130.25 -14.95 -130.2 -14.95 -129.3 -14.15 -129.35 -14.2 -124.9 -8.3 -120.45 -14.2" fill="#ffffff" fill-opacity="0.64705884" fill-rule="evenodd" stroke="none"/>
      <path d="M95.8 -2.9 Q94.45 -2.9 93.5 -2.0 92.65 -1.25 92.65 -0.05 92.65 1.05 93.5 1.85 94.45 2.7 95.8 2.7 97.15 2.7 98.1 1.85 98.95 1.05 98.95 -0.05 98.95 -1.15 98.05 -2.05 97.05 -2.9 95.8 -2.9 M98.45 -2.5 L98.45 -2.45 98.5 -2.45 98.45 -2.5 M78.55 -2.5 L68.85 -2.5 Q67.75 -2.5 66.9 -1.85 L66.7 -1.65 Q66.0 -1.05 66.0 -0.05 66.0 0.9 66.75 1.55 L66.7 1.55 Q67.6 2.35 68.85 2.35 L78.55 2.35 79.0 2.4 Q78.8 1.25 78.85 0.0 L79.05 -2.55 78.55 -2.5 M123.55 -14.15 L123.5 -14.2 127.95 -8.3 132.4 -14.2 132.45 -14.25 133.3 -14.95 134.4 -15.2 143.0 -15.2 Q144.0 -15.2 144.75 -14.45 145.5 -13.7 145.5 -12.7 L145.5 12.55 Q145.5 13.55 144.75 14.3 144.0 15.05 143.0 15.05 L134.4 15.05 Q133.4 15.05 132.65 14.3 131.9 13.55 131.9 12.55 L131.9 11.5 129.95 14.1 129.95 14.05 Q129.45 14.7 128.75 14.95 L128.65 15.0 127.3 15.0 127.2 14.95 Q126.45 14.7 125.95 14.05 L124.05 11.5 124.05 12.55 Q124.05 13.55 123.3 14.3 122.55 15.05 121.55 15.05 L112.95 15.05 Q111.95 15.05 111.2 14.3 110.45 13.55 110.45 12.55 L110.45 7.95 107.9 10.85 Q102.95 15.3 95.85 15.35 88.7 15.3 83.8 10.85 82.15 9.35 81.05 7.65 L81.05 12.55 Q81.05 13.55 80.3 14.3 79.55 15.05 78.55 15.05 L68.85 15.05 Q61.95 15.05 57.3 10.75 L57.15 10.6 Q52.35 6.2 52.35 -0.05 52.35 -6.25 57.3 -10.8 L57.3 -10.85 Q62.1 -15.2 68.85 -15.2 L78.55 -15.2 Q79.55 -15.2 80.3 -14.45 81.05 -13.7 81.05 -12.7 L81.05 -7.6 Q82.2 -9.35 83.9 -10.85 88.9 -15.35 95.85 -15.35 102.8 -15.35 107.9 -10.85 L110.45 -7.9 110.45 -12.7 Q110.45 -13.7 111.2 -14.45 111.95 -15.2 112.95 -15.2 L121.5 -15.2 122.6 -14.95 122.65 -14.95 123.55 -14.15" fill="#ffffff" fill-opacity="0.64705884" fill-rule="evenodd" stroke="none"/>
      <path d="M50.95 12.65 Q49.15 14.35 46.45 14.35 43.8 14.35 42.05 12.65 40.1 10.95 40.1 8.65 40.1 6.3 42.05 4.6 43.8 2.9 46.45 2.9 49.15 2.9 50.95 4.6 52.85 6.3 52.9 8.65 52.85 10.95 50.95 12.65" fill="#ffffff" fill-opacity="0.64705884" fill-rule="evenodd" stroke="none"/>
    </g>
    <g id="shape1" transform="matrix(1.0, 0.0, 0.0, 1.0, 105.7, 12.65)">
      <path d="M10.55 -12.65 L10.55 12.6 1.95 12.6 1.95 -12.65 10.55 -12.65" fill="url(#gradient0)" fill-rule="evenodd" stroke="none"/>
      <path d="M28.9 -6.05 L28.7 -6.05 22.7 -6.05 22.7 -2.15 28.7 -2.15 Q31.3 -2.15 31.3 -4.1 31.3 -5.8 29.35 -6.0 L28.9 -6.05 M37.15 -10.15 Q39.9 -7.6 39.9 -4.1 39.9 -0.5 37.15 1.95 34.45 4.45 30.45 4.45 L22.75 4.45 22.75 12.6 14.1 12.6 14.1 -12.6 30.45 -12.65 Q34.35 -12.65 37.15 -10.15" fill="url(#gradient1)" fill-rule="evenodd" stroke="none"/>
      <path d="M78.6 -4.95 L68.9 -4.95 Q66.7 -4.95 65.1 -3.5 63.55 -2.1 63.55 0.0 63.55 2.05 65.1 3.45 66.7 4.9 68.9 4.9 L78.6 4.9 78.6 12.6 68.9 12.6 Q63.0 12.6 59.0 8.9 54.9 5.25 54.9 0.0 54.9 -5.15 59.0 -8.95 63.15 -12.65 68.9 -12.65 L78.6 -12.65 78.6 -4.95" fill="url(#gradient2)" fill-rule="evenodd" stroke="none"/>
      <path d="M99.55 -3.5 Q97.95 -4.95 95.75 -4.95 93.55 -4.95 91.95 -3.5 90.4 -2.1 90.4 0.0 90.4 2.05 91.95 3.45 93.55 4.9 95.75 4.9 98.0 4.9 99.6 3.45 101.15 2.05 101.15 0.0 101.15 -1.95 99.55 -3.5 M85.9 -8.95 Q90.05 -12.65 95.75 -12.65 101.5 -12.65 105.65 -8.95 109.75 -5.2 109.75 0.0 109.75 5.25 105.65 8.9 101.6 12.6 95.75 12.6 89.9 12.6 85.85 8.9 81.75 5.2 81.75 0.0 81.75 -5.2 85.9 -8.95" fill="url(#gradient3)" fill-rule="evenodd" stroke="none"/>
      <path d="M134.45 -12.65 L143.05 -12.65 143.05 12.6 134.45 12.6 134.45 4.05 128.0 12.6 121.6 4.05 121.6 12.6 113.0 12.6 113.0 -12.65 121.55 -12.65 128.0 -4.1 134.45 -12.65" fill="url(#gradient4)" fill-rule="evenodd" stroke="none"/>
      <path d="M46.3 4.85 Q48.15 4.85 49.35 6.0 50.65 7.15 50.65 8.75 50.65 10.3 49.35 11.45 48.15 12.6 46.3 12.6 44.5 12.6 43.3 11.45 42.0 10.3 42.0 8.75 42.0 7.15 43.3 6.0 44.5 4.85 46.3 4.85" fill="url(#gradient5)" fill-rule="evenodd" stroke="none"/>
      <path d="M-97.05 -12.65 L-97.05 12.6 -105.7 12.6 -105.7 -12.65 -97.05 -12.65" fill="url(#gradient6)" fill-rule="evenodd" stroke="none"/>
      <path d="M-93.6 -12.65 Q-87.5 -12.65 -82.55 -10.5 -78.1 -8.6 -76.6 -6.05 L-76.6 -12.65 -67.95 -12.65 -67.95 12.6 -76.6 12.6 Q-76.6 5.35 -80.1 2.0 -82.45 -0.2 -85.15 -0.2 L-85.15 12.6 -93.75 12.6 -93.75 -12.65 -93.6 -12.65" fill="url(#gradient7)" fill-rule="evenodd" stroke="none"/>
      <path d="M-55.95 -12.65 L-55.95 12.6 -64.55 12.6 -64.55 -12.65 -55.95 -12.65" fill="url(#gradient8)" fill-rule="evenodd" stroke="none"/>
      <path d="M-18.25 -12.65 L-18.25 4.9 -1.1 4.9 -1.1 12.6 -26.9 12.6 -26.9 -12.6 -18.25 -12.65" fill="url(#gradient9)" fill-rule="evenodd" stroke="none"/>
      <path d="M-39.85 -4.95 Q-42.05 -4.95 -43.65 -3.5 -45.25 -2.05 -45.25 0.0 -45.25 2.0 -43.65 3.45 -42.05 4.9 -39.85 4.9 L-30.2 4.9 -30.2 12.6 -39.85 12.6 Q-45.75 12.6 -49.75 8.9 -53.85 5.25 -53.85 0.0 -53.85 -5.2 -49.75 -8.95 -45.6 -12.65 -39.85 -12.65 L-30.2 -12.65 -30.2 -4.95 -39.85 -4.95" fill="url(#gradient10)" fill-rule="evenodd" stroke="none"/>
      <path d="M28.7 -6.05 L28.9 -6.05" ffdec:has-small-stroke="true" ffdec:original-stroke-width="0.05" fill="none" stroke="#ffffff" stroke-linecap="round" stroke-linejoin="round" stroke-opacity="0.64705884" stroke-width="1.0"/>
    </g>
    <linearGradient gradientTransform="matrix(0.0, 0.0154, -0.0154, 0.0, 6.25, -0.05)" gradientUnits="userSpaceOnUse" id="gradient0" spreadMethod="pad" x1="-819.2" x2="819.2">
      <stop offset="0.0" stop-color="#ff8a00" stop-opacity="0.64705884"/>
      <stop offset="1.0" stop-color="#e60012" stop-opacity="0.64705884"/>
    </linearGradient>
    <linearGradient gradientTransform="matrix(0.0, 0.0151, -0.0154, 0.0, 27.0, -0.05)" gradientUnits="userSpaceOnUse" id="gradient1" spreadMethod="pad" x1="-819.2" x2="819.2">
      <stop offset="0.0" stop-color="#ff8a00" stop-opacity="0.64705884"/>
      <stop offset="1.0" stop-color="#e60012" stop-opacity="0.64705884"/>
    </linearGradient>
    <linearGradient gradientTransform="matrix(0.0, 0.0154, -0.0154, 0.0, 66.75, -0.05)" gradientUnits="userSpaceOnUse" id="gradient2" spreadMethod="pad" x1="-819.2" x2="819.2">
      <stop offset="0.0" stop-color="#ff8a00" stop-opacity="0.64705884"/>
      <stop offset="1.0" stop-color="#e60012" stop-opacity="0.64705884"/>
    </linearGradient>
    <linearGradient gradientTransform="matrix(0.0, 0.0154, -0.0154, 0.0, 95.75, -0.05)" gradientUnits="userSpaceOnUse" id="gradient3" spreadMethod="pad" x1="-819.2" x2="819.2">
      <stop offset="0.0" stop-color="#ff8a00" stop-opacity="0.64705884"/>
      <stop offset="1.0" stop-color="#e60012" stop-opacity="0.64705884"/>
    </linearGradient>
    <linearGradient gradientTransform="matrix(0.0, 0.0154, -0.0154, 0.0, 128.0, -0.05)" gradientUnits="userSpaceOnUse" id="gradient4" spreadMethod="pad" x1="-819.2" x2="819.2">
      <stop offset="0.0" stop-color="#ff8a00" stop-opacity="0.64705884"/>
      <stop offset="1.0" stop-color="#e60012" stop-opacity="0.64705884"/>
    </linearGradient>
    <linearGradient gradientTransform="matrix(0.0, 0.0151, -0.0047, 0.0, 45.55, 0.7)" gradientUnits="userSpaceOnUse" id="gradient5" spreadMethod="pad" x1="-819.2" x2="819.2">
      <stop offset="0.0" stop-color="#ff8a00" stop-opacity="0.64705884"/>
      <stop offset="1.0" stop-color="#e60012" stop-opacity="0.64705884"/>
    </linearGradient>
    <linearGradient gradientTransform="matrix(0.0, 0.0154, -0.0154, 0.0, -101.4, -0.05)" gradientUnits="userSpaceOnUse" id="gradient6" spreadMethod="pad" x1="-819.2" x2="819.2">
      <stop offset="0.0" stop-color="#ff8a00" stop-opacity="0.64705884"/>
      <stop offset="1.0" stop-color="#e60012" stop-opacity="0.64705884"/>
    </linearGradient>
    <linearGradient gradientTransform="matrix(0.0, 0.0154, -0.0154, 0.0, -80.85, -0.05)" gradientUnits="userSpaceOnUse" id="gradient7" spreadMethod="pad" x1="-819.2" x2="819.2">
      <stop offset="0.0" stop-color="#ff8a00" stop-opacity="0.64705884"/>
      <stop offset="1.0" stop-color="#e60012" stop-opacity="0.64705884"/>
    </linearGradient>
    <linearGradient gradientTransform="matrix(0.0, 0.0154, -0.0154, 0.0, -60.25, -0.05)" gradientUnits="userSpaceOnUse" id="gradient8" spreadMethod="pad" x1="-819.2" x2="819.2">
      <stop offset="0.0" stop-color="#ff8a00" stop-opacity="0.64705884"/>
      <stop offset="1.0" stop-color="#e60012" stop-opacity="0.64705884"/>
    </linearGradient>
    <linearGradient gradientTransform="matrix(0.0, 0.0154, -0.0154, 0.0, -14.0, -0.05)" gradientUnits="userSpaceOnUse" id="gradient9" spreadMethod="pad" x1="-819.2" x2="819.2">
      <stop offset="0.0" stop-color="#ff8a00" stop-opacity="0.64705884"/>
      <stop offset="1.0" stop-color="#e60012" stop-opacity="0.64705884"/>
    </linearGradient>
    <linearGradient gradientTransform="matrix(0.0, 0.0153, -0.0154, 0.0, -42.05, -0.05)" gradientUnits="userSpaceOnUse" id="gradient10" spreadMethod="pad" x1="-819.2" x2="819.2">
      <stop offset="0.0" stop-color="#ff8a00" stop-opacity="0.64705884"/>
      <stop offset="1.0" stop-color="#e60012" stop-opacity="0.64705884"/>
    </linearGradient>
    <g id="shape2" transform="matrix(1.0, 0.0, 0.0, 1.0, 16.55, 12.65)">
      <path d="M16.55 -12.65 L16.55 12.6 7.95 12.6 7.95 4.05 1.5 12.6 -4.9 4.05 -4.9 12.6 -13.5 12.6 -13.5 -4.95 -16.55 -4.95 -16.55 -12.65 -4.95 -12.65 1.5 -4.1 7.95 -12.65 16.55 -12.65" fill="url(#gradient11)" fill-rule="evenodd" stroke="none"/>
    </g>
    <linearGradient gradientTransform="matrix(0.0, 0.0154, -0.0154, 0.0, 0.0, -0.05)" gradientUnits="userSpaceOnUse" id="gradient11" spreadMethod="pad" x1="-819.2" x2="819.2">
      <stop offset="0.0" stop-color="#ff8a00" stop-opacity="0.64705884"/>
      <stop offset="1.0" stop-color="#e60012" stop-opacity="0.64705884"/>
    </linearGradient>
  </defs>
</svg>
