<?xml version="1.0" encoding="UTF-8" standalone="no"?>
<svg xmlns:ffdec="https://www.free-decompiler.com/flash" xmlns:xlink="http://www.w3.org/1999/xlink" ffdec:objectType="frame" height="434.1px" width="621.95px" xmlns="http://www.w3.org/2000/svg">
  <g transform="matrix(1.0, 0.0, 0.0, 1.0, 3.0, 0.0)">
    <use ffdec:characterId="246" height="135.45" transform="matrix(1.0, 0.0, 0.0, 1.0, 0.0, 0.0)" width="612.15" xlink:href="#morphshape0"/>
    <use ffdec:characterId="247" height="329.65" transform="matrix(1.0, 0.0, 0.0, 1.0, -3.0, 43.3)" width="621.95" xlink:href="#morphshape1"/>
    <use ffdec:characterId="248" height="332.95" transform="matrix(1.0, 0.0, 0.0, 1.0, 0.0, 101.15)" width="612.15" xlink:href="#morphshape2"/>
  </g>
  <defs>
    <g id="morphshape0" transform="matrix(1.0, 0.0, 0.0, 1.0, 0.0, 0.0)">
      <path d="M0.0 0.0 L0.0 88.05 0.5 87.9 Q15.85 84.45 31.5 81.7 52.0 78.15 72.7 76.0 110.2 72.1 148.35 72.85 L151.85 73.05 180.35 76.0 Q215.0 80.4 249.0 88.6 267.15 92.95 285.05 98.4 318.6 107.05 351.35 117.55 365.7 122.15 380.05 125.4 408.4 130.4 436.95 133.85 L449.85 135.3 448.2 130.95 446.6 125.8 Q445.0 120.7 444.25 115.65 L441.4 115.6 436.95 114.95 Q424.9 112.25 421.15 99.85 419.7 95.0 420.85 90.3 423.05 81.45 428.2 76.0 435.2 68.6 447.7 67.35 453.05 66.5 457.65 68.1 463.1 62.0 469.1 56.35 482.0 44.1 501.25 43.45 504.25 43.0 507.6 44.05 511.3 45.15 514.85 46.7 532.75 54.55 542.35 68.9 547.4 66.2 553.95 65.35 569.0 66.75 574.15 81.95 575.5 85.95 574.35 89.95 568.7 109.85 548.25 111.95 L545.5 111.75 544.15 111.35 544.0 111.65 Q544.5 114.1 543.95 117.25 L542.55 124.45 Q541.3 130.2 538.85 135.45 L555.45 133.25 612.15 125.55 612.15 0.0 0.0 0.0" fill="#e0f0f0" fill-rule="evenodd" stroke="none"/>
      <path d="M0.0 0.0 L612.15 0.0 612.15 125.55 555.45 133.25 538.85 135.45 Q541.3 130.2 542.55 124.45 L543.95 117.25 Q544.5 114.1 544.0 111.65 L544.15 111.35 545.5 111.75 548.25 111.95 Q568.7 109.85 574.35 89.95 575.5 85.95 574.15 81.95 569.0 66.75 553.95 65.35 547.4 66.2 542.35 68.9 532.75 54.55 514.85 46.7 511.3 45.15 507.6 44.05 504.25 43.0 501.25 43.45 482.0 44.1 469.1 56.35 463.1 62.0 457.65 68.1 453.05 66.5 447.7 67.35 435.2 68.6 428.2 76.0 423.05 81.45 420.85 90.3 419.7 95.0 421.15 99.85 424.9 112.25 436.95 114.95 L441.4 115.6 444.25 115.65 Q445.0 120.7 446.6 125.8 L448.2 130.95 449.85 135.3 436.95 133.85 Q408.4 130.4 380.05 125.4 365.7 122.15 351.35 117.55 318.6 107.05 285.05 98.4 267.15 92.95 249.0 88.6 215.0 80.4 180.35 76.0 L151.85 73.05 148.35 72.85 Q110.2 72.1 72.7 76.0 52.0 78.15 31.5 81.7 15.85 84.45 0.5 87.9 L0.0 88.05 0.0 0.0 Z" ffdec:has-small-stroke="true" ffdec:original-stroke-width="0.0" fill="none" stroke="#000000" stroke-linecap="round" stroke-linejoin="round" stroke-opacity="0.0" stroke-width="1.0"/>
    </g>
    <g id="morphshape1" transform="matrix(1.0, 0.0, 0.0, 1.0, 3.0, -43.3)">
      <path d="M-3.0 192.0 L-3.0 372.95 613.95 372.95 613.95 232.0 618.95 232.0 618.95 148.0 612.15 148.0 612.15 125.55 555.45 133.25 538.85 135.45 Q541.3 130.2 542.55 124.45 L543.95 117.25 Q544.5 114.1 544.0 111.65 L544.15 111.35 545.5 111.75 548.25 111.95 Q568.7 109.85 574.35 89.95 575.5 85.95 574.15 81.95 569.0 66.75 553.95 65.35 547.4 66.2 542.35 68.9 532.75 54.55 514.85 46.7 511.3 45.15 507.6 44.05 504.25 43.0 501.25 43.45 482.0 44.1 469.1 56.35 463.1 62.0 457.65 68.1 453.05 66.5 447.7 67.35 435.2 68.6 428.2 76.0 423.05 81.45 420.85 90.3 419.7 95.0 421.15 99.85 424.9 112.25 436.95 114.95 L441.4 115.6 444.25 115.65 Q445.0 120.7 446.6 125.8 L448.2 130.95 449.85 135.3 436.95 133.85 Q408.4 130.4 380.05 125.4 365.7 122.15 351.35 117.55 318.6 107.05 285.05 98.4 267.15 92.95 249.0 88.6 215.0 80.4 180.35 76.0 L151.85 73.05 148.35 72.85 Q110.2 72.1 72.7 76.0 52.0 78.15 31.5 81.7 15.85 84.45 0.5 87.9 L0.0 88.05 0.0 192.0 -3.0 192.0" fill="#d3e6ea" fill-rule="evenodd" stroke="none"/>
      <path d="M-3.0 192.0 L0.0 192.0 0.0 88.05 0.5 87.9 Q15.85 84.45 31.5 81.7 52.0 78.15 72.7 76.0 110.2 72.1 148.35 72.85 L151.85 73.05 180.35 76.0 Q215.0 80.4 249.0 88.6 267.15 92.95 285.05 98.4 318.6 107.05 351.35 117.55 365.7 122.15 380.05 125.4 408.4 130.4 436.95 133.85 L449.85 135.3 448.2 130.95 446.6 125.8 Q445.0 120.7 444.25 115.65 L441.4 115.6 436.95 114.95 Q424.9 112.25 421.15 99.85 419.7 95.0 420.85 90.3 423.05 81.45 428.2 76.0 435.2 68.6 447.7 67.35 453.05 66.5 457.65 68.1 463.1 62.0 469.1 56.35 482.0 44.1 501.25 43.45 504.25 43.0 507.6 44.05 511.3 45.15 514.85 46.7 532.75 54.55 542.35 68.9 547.4 66.2 553.95 65.35 569.0 66.75 574.15 81.95 575.5 85.95 574.35 89.95 568.7 109.85 548.25 111.95 L545.5 111.75 544.15 111.35 544.0 111.65 Q544.5 114.1 543.95 117.25 L542.55 124.45 Q541.3 130.2 538.85 135.45 L555.45 133.25 612.15 125.55 612.15 148.0 618.95 148.0 618.95 232.0 613.95 232.0 613.95 372.95 -3.0 372.95 -3.0 192.0 Z" ffdec:has-small-stroke="true" ffdec:original-stroke-width="0.0" fill="none" stroke="#000000" stroke-linecap="round" stroke-linejoin="round" stroke-opacity="0.0" stroke-width="1.0"/>
    </g>
    <g id="morphshape2" transform="matrix(1.0, 0.0, 0.0, 1.0, 0.0, -101.15)">
      <path d="M0.0 300.05 L0.0 418.85 612.15 418.85 612.15 171.15 597.0 173.8 595.05 170.5 Q591.0 163.35 588.45 150.25 L586.75 140.65 Q585.45 131.9 584.65 122.55 L583.9 121.75 582.9 121.85 581.8 128.9 581.45 130.9 581.1 133.65 581.05 134.0 581.0 134.6 580.8 136.75 Q579.4 150.9 574.15 164.1 570.65 172.9 565.55 180.9 550.55 184.8 535.9 189.75 L534.75 182.9 Q533.45 174.15 532.65 164.8 L531.9 164.0 530.9 164.1 529.8 171.1 529.45 173.1 529.1 175.85 529.05 176.25 529.0 176.85 528.8 179.0 Q528.1 186.15 526.4 193.05 505.0 200.8 484.3 210.8 L482.15 211.85 Q480.0 207.3 478.4 201.25 477.35 197.35 476.55 193.3 475.05 186.1 474.2 178.4 L473.35 177.75 472.2 177.8 471.0 183.6 470.55 185.25 470.15 187.5 470.15 187.8 470.1 188.3 469.85 190.1 Q468.25 201.75 462.4 212.65 458.7 219.45 453.4 225.65 L451.6 226.5 436.95 233.55 414.8 244.25 412.05 238.0 Q406.8 224.8 405.4 210.65 L405.2 208.5 405.15 207.9 405.15 207.55 404.8 204.8 404.4 202.8 403.3 195.8 402.3 195.7 401.55 196.5 Q400.75 205.85 399.45 214.6 L397.8 224.2 Q395.2 237.3 391.15 244.45 387.1 251.6 383.2 256.8 382.1 258.25 382.1 260.0 378.95 261.55 375.85 263.05 357.75 271.8 339.25 279.15 L339.2 277.75 339.2 276.0 Q343.1 274.4 346.45 270.8 347.45 269.7 348.1 270.15 348.85 268.65 349.25 268.7 L349.55 268.5 349.75 268.05 350.05 267.6 Q345.6 257.95 342.85 247.1 339.35 233.7 338.45 219.4 L338.3 217.2 338.3 216.6 338.25 216.25 338.05 213.45 337.8 211.4 Q337.4 207.9 337.05 204.35 L336.4 204.25 335.9 205.05 Q335.4 214.55 334.55 223.4 L333.45 233.15 Q331.75 246.4 329.1 253.7 326.4 260.9 323.85 266.2 322.85 268.1 323.2 270.6 L325.8 274.7 Q326.85 276.3 328.25 276.9 331.6 277.35 335.05 277.2 L334.5 281.05 Q314.8 288.6 294.7 294.6 L292.5 290.8 Q286.35 279.95 282.45 260.15 281.05 252.95 279.9 245.55 277.9 232.3 276.75 218.15 L275.6 216.95 274.1 217.1 272.4 227.7 271.85 230.8 271.3 234.95 271.3 235.5 271.2 236.4 270.9 239.65 Q268.8 261.1 260.85 281.15 256.0 293.35 249.0 304.5 L247.8 306.4 Q227.75 310.6 207.5 313.45 L205.25 309.6 Q201.4 302.85 199.0 290.55 L197.4 281.45 Q196.15 273.2 195.45 264.35 L194.75 263.6 193.8 263.7 192.75 270.3 192.4 272.2 192.05 274.75 192.05 275.1 192.0 275.65 191.8 277.7 Q190.5 291.05 185.55 303.55 182.8 310.4 179.0 316.75 L146.5 318.9 139.65 319.1 139.5 318.3 137.8 308.7 Q136.5 299.95 135.7 290.6 L134.95 289.8 133.95 289.9 132.85 296.9 132.5 298.9 132.15 301.65 132.1 302.05 132.05 302.65 131.85 304.8 Q131.1 312.15 129.4 319.2 L91.65 317.75 90.15 312.45 Q98.5 313.4 106.5 312.05 109.8 311.3 112.3 309.3 L118.65 304.15 Q119.35 301.05 117.05 298.65 110.9 292.1 104.5 283.0 101.3 278.45 98.65 271.95 96.05 265.55 94.05 257.3 92.6 251.3 91.4 245.05 L90.05 237.25 Q88.9 229.85 88.1 222.1 L86.9 221.1 85.35 221.25 83.6 230.15 83.0 232.75 82.45 236.25 82.4 236.7 82.35 237.35 82.35 237.45 82.05 240.25 Q79.95 257.2 72.45 273.1 L71.55 275.0 Q64.8 288.6 54.2 300.7 L54.9 301.35 55.45 301.9 56.15 302.15 Q57.1 302.05 58.9 303.9 60.4 303.35 62.85 304.7 70.8 309.2 80.3 311.2 L80.3 313.35 80.05 315.4 79.65 316.75 Q64.85 315.2 50.15 312.75 50.25 311.25 49.35 310.1 46.5 306.3 43.55 301.05 40.55 295.8 38.7 286.25 38.0 282.8 37.45 279.2 L36.65 273.1 35.95 265.95 35.4 265.35 34.65 265.45 33.85 270.6 33.6 272.1 33.5 273.1 33.3 274.1 33.3 274.4 33.25 274.8 33.1 276.4 Q32.1 286.75 28.25 296.4 26.0 302.05 22.85 307.25 11.1 304.3 0.0 300.1" fill="#b7d3dd" fill-rule="evenodd" stroke="none"/>
      <path d="M0.0 300.1 Q11.1 304.3 22.85 307.25 26.0 302.05 28.25 296.4 32.1 286.75 33.1 276.4 L33.25 274.8 33.3 274.4 33.3 274.1 33.5 273.1 33.6 272.1 33.85 270.6 34.65 265.45 35.4 265.35 35.95 265.95 36.65 273.1 37.45 279.2 Q38.0 282.8 38.7 286.25 40.55 295.8 43.55 301.05 46.5 306.3 49.35 310.1 50.25 311.25 50.15 312.75 64.85 315.2 79.65 316.75 L80.05 315.4 80.3 313.35 80.3 311.2 Q70.8 309.2 62.85 304.7 60.4 303.35 58.9 303.9 57.1 302.05 56.15 302.15 L55.45 301.9 54.9 301.35 54.2 300.7 Q64.8 288.6 71.55 275.0 L72.45 273.1 Q79.95 257.2 82.05 240.25 L82.35 237.45 82.35 237.35 82.4 236.7 82.45 236.25 83.0 232.75 83.6 230.15 85.35 221.25 86.9 221.1 88.1 222.1 Q88.9 229.85 90.05 237.25 L91.4 245.05 Q92.6 251.3 94.05 257.3 96.05 265.55 98.65 271.95 101.3 278.45 104.5 283.0 110.9 292.1 117.05 298.65 119.35 301.05 118.65 304.15 L112.3 309.3 Q109.8 311.3 106.5 312.05 98.5 313.4 90.15 312.45 L91.65 317.75 129.4 319.2 Q131.1 312.15 131.85 304.8 L132.05 302.65 132.1 302.05 132.15 301.65 132.5 298.9 132.85 296.9 133.95 289.9 134.95 289.8 135.7 290.6 Q136.5 299.95 137.8 308.7 L139.5 318.3 139.65 319.1 146.5 318.9 179.0 316.75 Q182.8 310.4 185.55 303.55 190.5 291.05 191.8 277.7 L192.0 275.65 192.05 275.1 192.05 274.75 192.4 272.2 192.75 270.3 193.8 263.7 194.75 263.6 195.45 264.35 Q196.15 273.2 197.4 281.45 L199.0 290.55 Q201.4 302.85 205.25 309.6 L207.5 313.45 Q227.75 310.6 247.8 306.4 L249.0 304.5 Q256.0 293.35 260.85 281.15 268.8 261.1 270.9 239.65 L271.2 236.4 271.3 235.5 271.3 234.95 271.85 230.8 272.4 227.7 274.1 217.1 275.6 216.95 276.75 218.15 Q277.9 232.3 279.9 245.55 281.05 252.95 282.45 260.15 286.35 279.95 292.5 290.8 L294.7 294.6 Q314.8 288.6 334.5 281.05 L335.05 277.2 Q331.6 277.35 328.25 276.9 326.85 276.3 325.8 274.7 L323.2 270.6 Q322.85 268.1 323.85 266.2 326.4 260.9 329.1 253.7 331.75 246.4 333.45 233.15 L334.55 223.4 Q335.4 214.55 335.9 205.05 L336.4 204.25 337.05 204.35 Q337.4 207.9 337.8 211.4 L338.05 213.45 338.25 216.25 338.3 216.6 338.3 217.2 338.45 219.4 Q339.35 233.7 342.85 247.1 345.6 257.95 350.05 267.6 L349.75 268.05 349.55 268.5 349.25 268.7 Q348.85 268.65 348.1 270.15 347.45 269.7 346.45 270.8 343.1 274.4 339.2 276.0 L339.2 277.75 339.25 279.15 Q357.75 271.8 375.85 263.05 378.95 261.55 382.1 260.0 382.1 258.25 383.2 256.8 387.1 251.6 391.15 244.45 395.2 237.3 397.8 224.2 L399.45 214.6 Q400.75 205.85 401.55 196.5 L402.3 195.7 403.3 195.8 404.4 202.8 404.8 204.8 405.15 207.55 405.15 207.9 405.2 208.5 405.4 210.65 Q406.8 224.8 412.05 238.0 L414.8 244.25 436.95 233.55 451.6 226.5 453.4 225.65 Q458.7 219.45 462.4 212.65 468.25 201.75 469.85 190.1 L470.1 188.3 470.15 187.8 470.15 187.5 470.55 185.25 471.0 183.6 472.2 177.8 473.35 177.75 474.2 178.4 Q475.05 186.1 476.55 193.3 477.35 197.35 478.4 201.25 480.0 207.3 482.15 211.85 L484.3 210.8 Q505.0 200.8 526.4 193.05 528.1 186.15 528.8 179.0 L529.0 176.85 529.05 176.25 529.1 175.85 529.45 173.1 529.8 171.1 530.9 164.1 531.9 164.0 532.65 164.8 Q533.45 174.15 534.75 182.9 L535.9 189.75 Q550.55 184.8 565.55 180.9 570.65 172.9 574.15 164.1 579.4 150.9 580.8 136.75 L581.0 134.6 581.05 134.0 581.1 133.65 581.45 130.9 581.8 128.9 582.9 121.85 583.9 121.75 584.65 122.55 Q585.45 131.9 586.75 140.65 L588.45 150.25 Q591.0 163.35 595.05 170.5 L597.0 173.8 612.15 171.15 612.15 418.85 0.0 418.85 0.0 300.05" ffdec:has-small-stroke="true" ffdec:original-stroke-width="0.0" fill="none" stroke="#000000" stroke-linecap="round" stroke-linejoin="round" stroke-opacity="0.0" stroke-width="1.0"/>
    </g>
  </defs>
</svg>
