<?xml version="1.0" encoding="UTF-8" standalone="no"?>
<svg xmlns:ffdec="https://www.free-decompiler.com/flash" xmlns:xlink="http://www.w3.org/1999/xlink" ffdec:objectType="frame" height="434.1px" width="621.95px" xmlns="http://www.w3.org/2000/svg">
  <g transform="matrix(1.0, 0.0, 0.0, 1.0, 3.0, 0.0)">
    <use ffdec:characterId="246" height="135.45" transform="matrix(1.0, 0.0, 0.0, 1.0, 0.0, 0.0)" width="612.15" xlink:href="#morphshape0"/>
    <use ffdec:characterId="247" height="329.65" transform="matrix(1.0, 0.0, 0.0, 1.0, -3.0, 43.3)" width="621.95" xlink:href="#morphshape1"/>
    <use ffdec:characterId="248" height="332.95" transform="matrix(1.0, 0.0, 0.0, 1.0, 0.0, 101.15)" width="612.15" xlink:href="#morphshape2"/>
  </g>
  <defs>
    <g id="morphshape0" transform="matrix(1.0, 0.0, 0.0, 1.0, 0.0, 0.0)">
      <path d="M0.0 0.0 L0.0 88.05 0.5 87.9 Q15.85 84.45 31.5 81.7 52.0 78.15 72.7 76.0 110.2 72.1 148.35 72.85 L151.85 73.05 180.35 76.0 Q215.0 80.4 249.0 88.6 267.15 92.95 285.05 98.4 318.6 107.05 351.35 117.55 365.7 122.15 380.05 125.4 408.4 130.4 436.95 133.85 L449.85 135.3 448.2 130.95 446.6 125.8 Q445.0 120.7 444.25 115.65 L441.4 115.6 436.95 114.95 Q424.9 112.25 421.15 99.85 419.7 95.0 420.85 90.3 423.05 81.45 428.2 76.0 435.2 68.6 447.7 67.35 453.05 66.5 457.65 68.1 463.1 62.0 469.1 56.35 482.0 44.1 501.25 43.45 504.25 43.0 507.6 44.05 511.3 45.15 514.85 46.7 532.75 54.55 542.35 68.9 547.4 66.2 553.95 65.35 569.0 66.75 574.15 81.95 575.5 85.95 574.35 89.95 568.7 109.85 548.25 111.95 L545.5 111.75 544.15 111.35 544.0 111.65 Q544.5 114.1 543.95 117.25 L542.55 124.45 Q541.3 130.2 538.85 135.45 L555.45 133.25 612.15 125.55 612.15 0.0 0.0 0.0" fill="#ddf0f3" fill-rule="evenodd" stroke="none"/>
      <path d="M0.0 0.0 L612.15 0.0 612.15 125.55 555.45 133.25 538.85 135.45 Q541.3 130.2 542.55 124.45 L543.95 117.25 Q544.5 114.1 544.0 111.65 L544.15 111.35 545.5 111.75 548.25 111.95 Q568.7 109.85 574.35 89.95 575.5 85.95 574.15 81.95 569.0 66.75 553.95 65.35 547.4 66.2 542.35 68.9 532.75 54.55 514.85 46.7 511.3 45.15 507.6 44.05 504.25 43.0 501.25 43.45 482.0 44.1 469.1 56.35 463.1 62.0 457.65 68.1 453.05 66.5 447.7 67.35 435.2 68.6 428.2 76.0 423.05 81.45 420.85 90.3 419.7 95.0 421.15 99.85 424.9 112.25 436.95 114.95 L441.4 115.6 444.25 115.65 Q445.0 120.7 446.6 125.8 L448.2 130.95 449.85 135.3 436.95 133.85 Q408.4 130.4 380.05 125.4 365.7 122.15 351.35 117.55 318.6 107.05 285.05 98.4 267.15 92.95 249.0 88.6 215.0 80.4 180.35 76.0 L151.85 73.05 148.35 72.85 Q110.2 72.1 72.7 76.0 52.0 78.15 31.5 81.7 15.85 84.45 0.5 87.9 L0.0 88.05 0.0 0.0 Z" ffdec:has-small-stroke="true" ffdec:original-stroke-width="0.0" fill="none" stroke="#000000" stroke-linecap="round" stroke-linejoin="round" stroke-opacity="0.0" stroke-width="1.0"/>
    </g>
    <g id="morphshape1" transform="matrix(1.0, 0.0, 0.0, 1.0, 3.0, -43.3)">
      <path d="M-3.0 192.0 L-3.0 372.95 613.95 372.95 613.95 232.0 618.95 232.0 618.95 148.0 612.15 148.0 612.15 125.55 555.45 133.25 538.85 135.45 Q541.3 130.2 542.55 124.45 L543.95 117.25 Q544.5 114.1 544.0 111.65 L544.15 111.35 545.5 111.75 548.25 111.95 Q568.7 109.85 574.35 89.95 575.5 85.95 574.15 81.95 569.0 66.75 553.95 65.35 547.4 66.2 542.35 68.9 532.75 54.55 514.85 46.7 511.3 45.15 507.6 44.05 504.25 43.0 501.25 43.45 482.0 44.1 469.1 56.35 463.1 62.0 457.65 68.1 453.05 66.5 447.7 67.35 435.2 68.6 428.2 76.0 423.05 81.45 420.85 90.3 419.7 95.0 421.15 99.85 424.9 112.25 436.95 114.95 L441.4 115.6 444.25 115.65 Q445.0 120.7 446.6 125.8 L448.2 130.95 449.85 135.3 436.95 133.85 Q408.4 130.4 380.05 125.4 365.7 122.15 351.35 117.55 318.6 107.05 285.05 98.4 267.15 92.95 249.0 88.6 215.0 80.4 180.35 76.0 L151.85 73.05 148.35 72.85 Q110.2 72.1 72.7 76.0 52.0 78.15 31.5 81.7 15.85 84.45 0.5 87.9 L0.0 88.05 0.0 192.0 -3.0 192.0" fill="#cfe6ee" fill-rule="evenodd" stroke="none"/>
      <path d="M-3.0 192.0 L0.0 192.0 0.0 88.05 0.5 87.9 Q15.85 84.45 31.5 81.7 52.0 78.15 72.7 76.0 110.2 72.1 148.35 72.85 L151.85 73.05 180.35 76.0 Q215.0 80.4 249.0 88.6 267.15 92.95 285.05 98.4 318.6 107.05 351.35 117.55 365.7 122.15 380.05 125.4 408.4 130.4 436.95 133.85 L449.85 135.3 448.2 130.95 446.6 125.8 Q445.0 120.7 444.25 115.65 L441.4 115.6 436.95 114.95 Q424.9 112.25 421.15 99.85 419.7 95.0 420.85 90.3 423.05 81.45 428.2 76.0 435.2 68.6 447.7 67.35 453.05 66.5 457.65 68.1 463.1 62.0 469.1 56.35 482.0 44.1 501.25 43.45 504.25 43.0 507.6 44.05 511.3 45.15 514.85 46.7 532.75 54.55 542.35 68.9 547.4 66.2 553.95 65.35 569.0 66.75 574.15 81.95 575.5 85.95 574.35 89.95 568.7 109.85 548.25 111.95 L545.5 111.75 544.15 111.35 544.0 111.65 Q544.5 114.1 543.95 117.25 L542.55 124.45 Q541.3 130.2 538.85 135.45 L555.45 133.25 612.15 125.55 612.15 148.0 618.95 148.0 618.95 232.0 613.95 232.0 613.95 372.95 -3.0 372.95 -3.0 192.0 Z" ffdec:has-small-stroke="true" ffdec:original-stroke-width="0.0" fill="none" stroke="#000000" stroke-linecap="round" stroke-linejoin="round" stroke-opacity="0.0" stroke-width="1.0"/>
    </g>
    <g id="morphshape2" transform="matrix(1.0, 0.0, 0.0, 1.0, 0.0, -101.15)">
      <path d="M0.0 300.25 L0.0 417.85 612.15 417.85 612.15 172.7 597.0 175.3 595.05 172.05 Q591.0 165.0 588.45 152.05 L586.75 142.55 Q585.45 133.9 584.65 124.65 L583.9 123.85 582.9 123.95 581.8 130.9 581.45 132.9 581.1 135.6 581.05 135.95 581.0 136.5 580.8 138.65 Q579.4 152.65 574.15 165.7 570.65 174.4 565.55 182.3 550.55 186.15 535.9 191.05 L534.75 184.3 Q533.45 175.65 532.65 166.4 L531.9 165.6 530.9 165.7 529.8 172.65 529.45 174.65 529.1 177.35 529.05 177.7 529.0 178.25 528.8 180.4 Q528.1 187.45 526.4 194.3 505.0 202.0 484.3 211.9 L482.15 212.95 Q480.0 208.45 478.4 202.5 477.35 198.65 476.55 194.65 475.05 187.55 474.2 179.9 L473.35 179.3 472.2 179.35 471.0 185.1 470.55 186.7 470.15 188.95 470.15 189.25 470.1 189.7 469.85 191.5 Q468.25 203.0 462.4 213.8 458.7 220.5 453.4 226.65 L451.6 227.5 436.95 234.5 414.8 245.05 412.05 238.9 Q406.8 225.85 405.4 211.85 L405.2 209.7 405.15 209.15 405.15 208.8 404.8 206.1 404.4 204.1 403.3 197.15 402.3 197.05 401.55 197.85 Q400.75 207.1 399.45 215.75 L397.8 225.25 Q395.2 238.2 391.15 245.25 387.1 252.3 383.2 257.4 382.1 258.85 382.1 260.6 378.95 262.1 375.85 263.55 357.75 272.2 339.25 279.45 L339.2 278.1 339.2 276.4 Q343.1 274.8 346.45 271.25 347.45 270.15 348.1 270.6 348.85 269.15 349.25 269.2 L349.55 269.0 349.75 268.6 350.05 268.15 Q345.6 258.6 342.85 247.85 339.35 234.6 338.45 220.45 L338.3 218.25 338.3 217.7 338.25 217.35 338.05 214.6 337.8 212.55 Q337.4 209.05 337.05 205.55 L336.4 205.45 335.9 206.25 Q335.4 215.65 334.55 224.4 L333.45 234.05 Q331.75 247.15 329.1 254.35 326.4 261.45 323.85 266.65 322.85 268.5 323.2 270.95 L325.8 275.0 Q326.85 276.55 328.25 277.1 331.65 277.5 335.05 277.4 L334.5 281.2 Q314.8 288.65 294.7 294.6 L292.5 290.85 Q286.35 280.15 282.45 260.55 281.05 253.45 279.9 246.1 277.9 233.0 276.75 219.0 L275.6 217.8 274.1 217.95 272.4 228.45 271.85 231.5 271.3 235.6 271.3 236.15 271.2 237.05 270.9 240.3 Q268.8 261.55 260.85 281.35 256.0 293.4 249.0 304.45 L247.8 306.35 Q227.75 310.5 207.5 313.3 L205.25 309.5 Q201.4 302.8 199.0 290.6 L197.4 281.6 Q196.15 273.45 195.45 264.7 L194.75 263.95 193.8 264.05 192.75 270.6 192.4 272.5 192.05 275.05 192.05 275.4 192.0 275.9 191.8 277.95 Q190.5 291.15 185.55 303.5 182.8 310.3 179.0 316.6 L146.5 318.75 139.65 318.95 139.5 318.15 137.8 308.65 Q136.5 300.0 135.7 290.75 L134.95 290.0 133.95 290.1 132.85 297.05 132.5 299.05 132.15 301.75 132.1 302.1 132.05 302.65 131.85 304.8 Q131.1 312.05 129.4 319.05 L91.65 317.65 90.15 312.45 Q98.5 313.4 106.5 312.05 109.8 311.3 112.3 309.3 L118.65 304.2 Q119.35 301.15 117.05 298.75 110.9 292.25 104.5 283.25 101.3 278.75 98.65 272.35 96.05 266.0 94.05 257.85 92.6 251.9 91.4 245.75 L90.05 238.0 Q88.9 230.7 88.1 223.0 L86.9 222.0 85.35 222.1 83.6 230.9 83.0 233.45 82.45 236.9 82.4 237.3 82.35 237.9 82.35 238.0 82.05 240.75 Q79.95 257.55 72.45 273.3 L71.55 275.15 Q64.8 288.6 54.2 300.55 L54.9 301.15 55.45 301.65 56.15 301.9 Q57.1 301.8 58.9 303.6 60.4 303.05 62.85 304.4 70.8 308.85 80.3 310.85 L80.3 313.0 80.05 315.05 79.65 316.4 Q64.85 314.9 50.15 312.45 50.25 311.0 49.35 309.85 46.5 306.1 43.55 300.95 40.55 295.8 38.7 286.35 38.0 282.95 37.45 279.4 L36.65 273.35 35.95 266.3 35.4 265.75 34.65 265.85 33.85 270.9 33.6 272.35 33.5 273.35 33.3 274.35 33.3 274.6 33.25 275.0 33.1 276.55 Q32.1 286.8 28.25 296.35 26.0 301.95 22.85 307.1 11.1 304.15 0.0 300.0" fill="#b1d4e4" fill-rule="evenodd" stroke="none"/>
      <path d="M0.0 300.0 Q11.1 304.15 22.85 307.1 26.0 301.95 28.25 296.35 32.1 286.8 33.1 276.55 L33.25 275.0 33.3 274.6 33.3 274.35 33.5 273.35 33.6 272.35 33.85 270.9 34.65 265.85 35.4 265.75 35.95 266.3 36.65 273.35 37.45 279.4 Q38.0 282.95 38.7 286.35 40.55 295.8 43.55 300.95 46.5 306.1 49.35 309.85 50.25 311.0 50.15 312.45 64.85 314.9 79.65 316.4 L80.05 315.05 80.3 313.0 80.3 310.85 Q70.8 308.85 62.85 304.4 60.4 303.05 58.9 303.6 57.1 301.8 56.15 301.9 L55.45 301.65 54.9 301.15 54.2 300.55 Q64.8 288.6 71.55 275.15 L72.45 273.3 Q79.95 257.55 82.05 240.75 L82.35 238.0 82.35 237.9 82.4 237.3 82.45 236.9 83.0 233.45 83.6 230.9 85.35 222.1 86.9 222.0 88.1 223.0 Q88.9 230.7 90.05 238.0 L91.4 245.75 Q92.6 251.9 94.05 257.85 96.05 266.0 98.65 272.35 101.3 278.75 104.5 283.25 110.9 292.25 117.05 298.75 119.35 301.15 118.65 304.2 L112.3 309.3 Q109.8 311.3 106.5 312.05 98.5 313.4 90.15 312.45 L91.65 317.65 129.4 319.05 Q131.1 312.05 131.85 304.8 L132.05 302.65 132.1 302.1 132.15 301.75 132.5 299.05 132.85 297.05 133.95 290.1 134.95 290.0 135.7 290.75 Q136.5 300.0 137.8 308.65 L139.5 318.15 139.65 318.95 146.5 318.75 179.0 316.6 Q182.8 310.3 185.55 303.5 190.5 291.15 191.8 277.95 L192.0 275.9 192.05 275.4 192.05 275.05 192.4 272.5 192.75 270.6 193.8 264.05 194.75 263.95 195.45 264.7 Q196.15 273.45 197.4 281.6 L199.0 290.6 Q201.4 302.8 205.25 309.5 L207.5 313.3 Q227.75 310.5 247.8 306.35 L249.0 304.45 Q256.0 293.4 260.85 281.35 268.8 261.55 270.9 240.3 L271.2 237.05 271.3 236.15 271.3 235.6 271.85 231.5 272.4 228.45 274.1 217.95 275.6 217.8 276.75 219.0 Q277.9 233.0 279.9 246.1 281.05 253.45 282.45 260.55 286.35 280.15 292.5 290.85 L294.7 294.6 Q314.8 288.65 334.5 281.2 L335.05 277.4 Q331.65 277.5 328.25 277.1 326.85 276.55 325.8 275.0 L323.2 270.95 Q322.85 268.5 323.85 266.65 326.4 261.45 329.1 254.35 331.75 247.15 333.45 234.05 L334.55 224.4 Q335.4 215.65 335.9 206.25 L336.4 205.45 337.05 205.55 Q337.4 209.05 337.8 212.55 L338.05 214.6 338.25 217.35 338.3 217.7 338.3 218.25 338.45 220.45 Q339.35 234.6 342.85 247.85 345.6 258.6 350.05 268.15 L349.75 268.6 349.55 269.0 349.25 269.2 Q348.85 269.15 348.1 270.6 347.45 270.15 346.45 271.25 343.1 274.8 339.2 276.4 L339.2 278.1 339.25 279.45 Q357.75 272.2 375.85 263.55 378.95 262.1 382.1 260.6 382.1 258.85 383.2 257.4 387.1 252.3 391.15 245.25 395.2 238.2 397.8 225.25 L399.45 215.75 Q400.75 207.1 401.55 197.85 L402.3 197.05 403.3 197.15 404.4 204.1 404.8 206.1 405.15 208.8 405.15 209.15 405.2 209.7 405.4 211.85 Q406.8 225.85 412.05 238.9 L414.8 245.05 436.95 234.5 451.6 227.5 453.4 226.65 Q458.7 220.5 462.4 213.8 468.25 203.0 469.85 191.5 L470.1 189.7 470.15 189.25 470.15 188.95 470.55 186.7 471.0 185.1 472.2 179.35 473.35 179.3 474.2 179.9 Q475.05 187.55 476.55 194.65 477.35 198.65 478.4 202.5 480.0 208.45 482.15 212.95 L484.3 211.9 Q505.0 202.0 526.4 194.3 528.1 187.45 528.8 180.4 L529.0 178.25 529.05 177.7 529.1 177.35 529.45 174.65 529.8 172.65 530.9 165.7 531.9 165.6 532.65 166.4 Q533.45 175.65 534.75 184.3 L535.9 191.05 Q550.55 186.15 565.55 182.3 570.65 174.4 574.15 165.7 579.4 152.65 580.8 138.65 L581.0 136.5 581.05 135.95 581.1 135.6 581.45 132.9 581.8 130.9 582.9 123.95 583.9 123.85 584.65 124.65 Q585.45 133.9 586.75 142.55 L588.45 152.05 Q591.0 165.0 595.05 172.05 L597.0 175.3 612.15 172.7 612.15 417.85 0.0 417.85 0.0 300.25" ffdec:has-small-stroke="true" ffdec:original-stroke-width="0.0" fill="none" stroke="#000000" stroke-linecap="round" stroke-linejoin="round" stroke-opacity="0.0" stroke-width="1.0"/>
    </g>
  </defs>
</svg>
