<?xml version="1.0" encoding="UTF-8" standalone="no"?>
<svg xmlns:ffdec="https://www.free-decompiler.com/flash" xmlns:xlink="http://www.w3.org/1999/xlink" ffdec:objectType="frame" height="434.1px" width="621.95px" xmlns="http://www.w3.org/2000/svg">
  <g transform="matrix(1.0, 0.0, 0.0, 1.0, 3.0, 0.0)">
    <use ffdec:characterId="246" height="135.45" transform="matrix(1.0, 0.0, 0.0, 1.0, 0.0, 0.0)" width="612.15" xlink:href="#morphshape0"/>
    <use ffdec:characterId="247" height="329.65" transform="matrix(1.0, 0.0, 0.0, 1.0, -3.0, 43.3)" width="621.95" xlink:href="#morphshape1"/>
    <use ffdec:characterId="248" height="332.95" transform="matrix(1.0, 0.0, 0.0, 1.0, 0.0, 101.15)" width="612.15" xlink:href="#morphshape2"/>
  </g>
  <defs>
    <g id="morphshape0" transform="matrix(1.0, 0.0, 0.0, 1.0, 0.0, 0.0)">
      <path d="M0.0 0.0 L0.0 88.05 0.5 87.9 Q15.85 84.45 31.5 81.7 52.0 78.15 72.7 76.0 110.2 72.1 148.35 72.85 L151.85 73.05 180.35 76.0 Q215.0 80.4 249.0 88.6 267.15 92.95 285.05 98.4 318.6 107.05 351.35 117.55 365.7 122.15 380.05 125.4 408.4 130.4 436.95 133.85 L449.85 135.3 448.2 130.95 446.6 125.8 Q445.0 120.7 444.25 115.65 L441.4 115.6 436.95 114.95 Q424.9 112.25 421.15 99.85 419.7 95.0 420.85 90.3 423.05 81.45 428.2 76.0 435.2 68.6 447.7 67.35 453.05 66.5 457.65 68.1 463.1 62.0 469.1 56.35 482.0 44.1 501.25 43.45 504.25 43.0 507.6 44.05 511.3 45.15 514.85 46.7 532.75 54.55 542.35 68.9 547.4 66.2 553.95 65.35 569.0 66.75 574.15 81.95 575.5 85.95 574.35 89.95 568.7 109.85 548.25 111.95 L545.5 111.75 544.15 111.35 544.0 111.65 Q544.5 114.1 543.95 117.25 L542.55 124.45 Q541.3 130.2 538.85 135.45 L555.45 133.25 612.15 125.55 612.15 0.0 0.0 0.0" fill="#dbeff6" fill-rule="evenodd" stroke="none"/>
      <path d="M0.0 0.0 L612.15 0.0 612.15 125.55 555.45 133.25 538.85 135.45 Q541.3 130.2 542.55 124.45 L543.95 117.25 Q544.5 114.1 544.0 111.65 L544.15 111.35 545.5 111.75 548.25 111.95 Q568.7 109.85 574.35 89.95 575.5 85.95 574.15 81.95 569.0 66.75 553.95 65.35 547.4 66.2 542.35 68.9 532.75 54.55 514.85 46.7 511.3 45.15 507.6 44.05 504.25 43.0 501.25 43.45 482.0 44.1 469.1 56.35 463.1 62.0 457.65 68.1 453.05 66.5 447.7 67.35 435.2 68.6 428.2 76.0 423.05 81.45 420.85 90.3 419.7 95.0 421.15 99.85 424.9 112.25 436.95 114.95 L441.4 115.6 444.25 115.65 Q445.0 120.7 446.6 125.8 L448.2 130.95 449.85 135.3 436.95 133.85 Q408.4 130.4 380.05 125.4 365.7 122.15 351.35 117.55 318.6 107.05 285.05 98.4 267.15 92.95 249.0 88.6 215.0 80.4 180.35 76.0 L151.85 73.05 148.35 72.85 Q110.2 72.1 72.7 76.0 52.0 78.15 31.5 81.7 15.85 84.45 0.5 87.9 L0.0 88.05 0.0 0.0 Z" ffdec:has-small-stroke="true" ffdec:original-stroke-width="0.0" fill="none" stroke="#000000" stroke-linecap="round" stroke-linejoin="round" stroke-opacity="0.0" stroke-width="1.0"/>
    </g>
    <g id="morphshape1" transform="matrix(1.0, 0.0, 0.0, 1.0, 3.0, -43.3)">
      <path d="M-3.0 192.0 L-3.0 372.95 613.95 372.95 613.95 232.0 618.95 232.0 618.95 148.0 612.15 148.0 612.15 125.55 555.45 133.25 538.85 135.45 Q541.3 130.2 542.55 124.45 L543.95 117.25 Q544.5 114.1 544.0 111.65 L544.15 111.35 545.5 111.75 548.25 111.95 Q568.7 109.85 574.35 89.95 575.5 85.95 574.15 81.95 569.0 66.75 553.95 65.35 547.4 66.2 542.35 68.9 532.75 54.55 514.85 46.7 511.3 45.15 507.6 44.05 504.25 43.0 501.25 43.45 482.0 44.1 469.1 56.35 463.1 62.0 457.65 68.1 453.05 66.5 447.7 67.35 435.2 68.6 428.2 76.0 423.05 81.45 420.85 90.3 419.7 95.0 421.15 99.85 424.9 112.25 436.95 114.95 L441.4 115.6 444.25 115.65 Q445.0 120.7 446.6 125.8 L448.2 130.95 449.85 135.3 436.95 133.85 Q408.4 130.4 380.05 125.4 365.7 122.15 351.35 117.55 318.6 107.05 285.05 98.4 267.15 92.95 249.0 88.6 215.0 80.4 180.35 76.0 L151.85 73.05 148.35 72.85 Q110.2 72.1 72.7 76.0 52.0 78.15 31.5 81.7 15.85 84.45 0.5 87.9 L0.0 88.05 0.0 192.0 -3.0 192.0" fill="#cce6f2" fill-rule="evenodd" stroke="none"/>
      <path d="M-3.0 192.0 L0.0 192.0 0.0 88.05 0.5 87.9 Q15.85 84.45 31.5 81.7 52.0 78.15 72.7 76.0 110.2 72.1 148.35 72.85 L151.85 73.05 180.35 76.0 Q215.0 80.4 249.0 88.6 267.15 92.95 285.05 98.4 318.6 107.05 351.35 117.55 365.7 122.15 380.05 125.4 408.4 130.4 436.95 133.85 L449.85 135.3 448.2 130.95 446.6 125.8 Q445.0 120.7 444.25 115.65 L441.4 115.6 436.95 114.95 Q424.9 112.25 421.15 99.85 419.7 95.0 420.85 90.3 423.05 81.45 428.2 76.0 435.2 68.6 447.7 67.35 453.05 66.5 457.65 68.1 463.1 62.0 469.1 56.35 482.0 44.1 501.25 43.45 504.25 43.0 507.6 44.05 511.3 45.15 514.85 46.7 532.75 54.55 542.35 68.9 547.4 66.2 553.95 65.35 569.0 66.75 574.15 81.95 575.5 85.95 574.35 89.95 568.7 109.85 548.25 111.95 L545.5 111.75 544.15 111.35 544.0 111.65 Q544.5 114.1 543.95 117.25 L542.55 124.45 Q541.3 130.2 538.85 135.45 L555.45 133.25 612.15 125.55 612.15 148.0 618.95 148.0 618.95 232.0 613.95 232.0 613.95 372.95 -3.0 372.95 -3.0 192.0 Z" ffdec:has-small-stroke="true" ffdec:original-stroke-width="0.0" fill="none" stroke="#000000" stroke-linecap="round" stroke-linejoin="round" stroke-opacity="0.0" stroke-width="1.0"/>
    </g>
    <g id="morphshape2" transform="matrix(1.0, 0.0, 0.0, 1.0, 0.0, -101.15)">
      <path d="M0.0 300.15 L0.0 416.65 612.15 416.65 612.15 173.75 597.0 176.35 595.05 173.15 Q591.0 166.15 588.45 153.3 L586.75 143.85 Q585.45 135.25 584.65 126.05 L583.9 125.25 582.9 125.35 581.8 132.25 581.45 134.2 581.1 136.9 581.05 137.25 581.0 137.8 580.8 139.95 Q579.4 153.85 574.15 166.8 570.65 175.4 565.55 183.25 550.55 187.1 535.9 191.95 L534.75 185.25 Q533.45 176.65 532.65 167.5 L531.9 166.7 530.9 166.8 529.8 173.7 529.45 175.7 529.1 178.4 529.05 178.75 529.0 179.3 528.8 181.4 Q528.1 188.4 526.4 195.2 505.0 202.8 484.3 212.6 L482.15 213.65 Q480.0 209.2 478.4 203.3 477.35 199.45 476.55 195.45 475.05 188.4 474.2 180.85 L473.35 180.25 472.2 180.3 471.0 186.0 470.55 187.6 470.15 189.85 470.15 190.15 470.1 190.6 469.85 192.35 Q468.25 203.75 462.4 214.45 458.7 221.1 453.4 227.2 L451.6 228.05 436.95 235.0 414.8 245.5 412.05 239.4 Q406.8 226.45 405.4 212.55 L405.2 210.4 405.15 209.85 405.15 209.5 404.8 206.8 404.4 204.85 403.3 197.95 402.3 197.85 401.55 198.65 Q400.75 207.85 399.45 216.45 L397.8 225.9 Q395.2 238.75 391.15 245.75 387.1 252.75 383.2 257.85 382.1 259.3 382.1 261.0 378.95 262.5 375.85 263.95 357.75 272.5 339.25 279.7 L339.2 278.35 339.2 276.65 Q343.1 275.1 346.45 271.6 347.45 270.5 348.1 270.95 348.85 269.5 349.25 269.55 L349.55 269.35 349.75 268.95 350.05 268.5 Q345.6 259.0 342.85 248.35 339.35 235.2 338.45 221.15 L338.3 218.95 338.3 218.4 338.25 218.05 338.05 215.3 337.8 213.3 Q337.4 209.85 337.05 206.35 L336.4 206.25 335.9 207.05 Q335.4 216.35 334.55 225.0 L333.45 234.6 Q331.75 247.6 329.1 254.75 326.4 261.8 323.85 267.0 322.85 268.85 323.2 271.3 L325.8 275.35 Q326.85 276.9 328.25 277.45 331.65 277.8 335.05 277.75 L334.5 281.55 Q314.8 288.95 294.7 294.85 L292.5 291.1 Q286.35 280.45 282.45 261.0 281.05 253.95 279.9 246.7 277.9 233.7 276.75 219.8 L275.6 218.6 274.1 218.75 272.4 229.15 271.85 232.15 271.3 236.25 271.3 236.8 271.2 237.7 270.9 240.9 Q268.8 261.95 260.85 281.6 256.0 293.55 249.0 304.5 L247.8 306.35 Q227.75 310.5 207.5 313.3 L205.25 309.5 Q201.4 302.85 199.0 290.8 L197.4 281.9 Q196.15 273.8 195.45 265.15 L194.75 264.4 193.8 264.5 192.75 271.0 192.4 272.85 192.05 275.4 192.05 275.75 192.0 276.25 191.8 278.25 Q190.5 291.3 185.55 303.55 182.8 310.3 179.0 316.55 L146.5 318.7 139.65 318.9 139.5 318.1 137.8 308.65 Q136.5 300.05 135.7 290.85 L134.95 290.1 133.95 290.2 132.85 297.1 132.5 299.1 132.15 301.8 132.1 302.15 132.05 302.7 131.85 304.8 Q131.1 312.0 129.4 318.95 L91.65 317.55 90.15 312.35 Q98.5 313.3 106.5 311.95 109.8 311.2 112.3 309.25 L118.65 304.2 Q119.35 301.15 117.05 298.75 110.9 292.3 104.5 283.4 101.3 278.95 98.65 272.6 96.05 266.3 94.05 258.2 92.6 252.3 91.4 246.2 L90.05 238.55 Q88.9 231.3 88.1 223.7 L86.9 222.7 85.35 222.8 83.6 231.55 83.0 234.1 82.45 237.5 82.4 237.9 82.35 238.5 82.35 238.6 82.05 241.35 Q79.95 258.0 72.45 273.6 L71.55 275.45 Q64.8 288.75 54.2 300.6 L54.9 301.2 55.45 301.7 56.15 301.95 Q57.1 301.85 58.9 303.65 60.4 303.1 62.85 304.45 70.8 308.85 80.3 310.8 L80.3 312.95 80.05 314.95 79.65 316.3 Q64.85 314.8 50.15 312.35 50.25 310.9 49.35 309.75 46.5 306.0 43.55 300.85 40.55 295.7 38.7 286.3 38.0 282.95 37.45 279.4 L36.65 273.4 35.95 266.4 35.4 265.85 34.65 265.95 33.85 271.0 33.6 272.45 33.5 273.45 33.3 274.45 33.3 274.7 33.25 275.1 33.1 276.65 Q32.1 286.8 28.25 296.3 26.0 301.85 22.85 306.95 11.1 304.05 0.0 299.95" fill="#acd4ea" fill-rule="evenodd" stroke="none"/>
      <path d="M0.0 299.95 Q11.1 304.05 22.85 306.95 26.0 301.85 28.25 296.3 32.1 286.8 33.1 276.65 L33.25 275.1 33.3 274.7 33.3 274.45 33.5 273.45 33.6 272.45 33.85 271.0 34.65 265.95 35.4 265.85 35.95 266.4 36.65 273.4 37.45 279.4 Q38.0 282.95 38.7 286.3 40.55 295.7 43.55 300.85 46.5 306.0 49.35 309.75 50.25 310.9 50.15 312.35 64.85 314.8 79.65 316.3 L80.05 314.95 80.3 312.95 80.3 310.8 Q70.8 308.85 62.85 304.45 60.4 303.1 58.9 303.65 57.1 301.85 56.15 301.95 L55.45 301.7 54.9 301.2 54.2 300.6 Q64.8 288.75 71.55 275.45 L72.45 273.6 Q79.95 258.0 82.05 241.35 L82.35 238.6 82.35 238.5 82.4 237.9 82.45 237.5 83.0 234.1 83.6 231.55 85.35 222.8 86.9 222.7 88.1 223.7 Q88.9 231.3 90.05 238.55 L91.4 246.2 Q92.6 252.3 94.05 258.2 96.05 266.3 98.65 272.6 101.3 278.95 104.5 283.4 110.9 292.3 117.05 298.75 119.35 301.15 118.65 304.2 L112.3 309.25 Q109.8 311.2 106.5 311.95 98.5 313.3 90.15 312.35 L91.65 317.55 129.4 318.95 Q131.1 312.0 131.85 304.8 L132.05 302.7 132.1 302.15 132.15 301.8 132.5 299.1 132.85 297.1 133.95 290.2 134.95 290.1 135.7 290.85 Q136.5 300.05 137.8 308.65 L139.5 318.1 139.65 318.9 146.5 318.7 179.0 316.55 Q182.8 310.3 185.55 303.55 190.5 291.3 191.8 278.25 L192.0 276.25 192.05 275.75 192.05 275.4 192.4 272.85 192.75 271.0 193.8 264.5 194.75 264.4 195.45 265.15 Q196.15 273.8 197.4 281.9 L199.0 290.8 Q201.4 302.85 205.25 309.5 L207.5 313.3 Q227.75 310.5 247.8 306.35 L249.0 304.5 Q256.0 293.55 260.85 281.6 268.8 261.95 270.9 240.9 L271.2 237.7 271.3 236.8 271.3 236.25 271.85 232.15 272.4 229.15 274.1 218.75 275.6 218.6 276.75 219.8 Q277.9 233.7 279.9 246.7 281.05 253.95 282.45 261.0 286.35 280.45 292.5 291.1 L294.7 294.85 Q314.8 288.95 334.5 281.55 L335.05 277.75 Q331.65 277.8 328.25 277.45 326.85 276.9 325.8 275.35 L323.2 271.3 Q322.85 268.85 323.85 267.0 326.4 261.8 329.1 254.75 331.75 247.6 333.45 234.6 L334.55 225.0 Q335.4 216.35 335.9 207.05 L336.4 206.25 337.05 206.35 Q337.4 209.85 337.8 213.3 L338.05 215.3 338.25 218.05 338.3 218.4 338.3 218.95 338.45 221.15 Q339.35 235.2 342.85 248.35 345.6 259.0 350.05 268.5 L349.75 268.95 349.55 269.35 349.25 269.55 Q348.85 269.5 348.1 270.95 347.45 270.5 346.45 271.6 343.1 275.1 339.2 276.65 L339.2 278.35 339.25 279.7 Q357.75 272.5 375.85 263.95 378.95 262.5 382.1 261.0 382.1 259.3 383.2 257.85 387.1 252.75 391.15 245.75 395.2 238.75 397.8 225.9 L399.45 216.45 Q400.75 207.85 401.55 198.65 L402.3 197.85 403.3 197.95 404.4 204.85 404.8 206.8 405.15 209.5 405.15 209.85 405.2 210.4 405.4 212.55 Q406.8 226.45 412.05 239.4 L414.8 245.5 436.95 235.0 451.6 228.05 453.4 227.2 Q458.7 221.1 462.4 214.45 468.25 203.75 469.85 192.35 L470.1 190.6 470.15 190.15 470.15 189.85 470.55 187.6 471.0 186.0 472.2 180.3 473.35 180.25 474.2 180.85 Q475.05 188.4 476.55 195.45 477.35 199.45 478.4 203.3 480.0 209.2 482.15 213.65 L484.3 212.6 Q505.0 202.8 526.4 195.2 528.1 188.4 528.8 181.4 L529.0 179.3 529.05 178.75 529.1 178.4 529.45 175.7 529.8 173.7 530.9 166.8 531.9 166.7 532.65 167.5 Q533.45 176.65 534.75 185.25 L535.9 191.95 Q550.55 187.1 565.55 183.25 570.65 175.4 574.15 166.8 579.4 153.85 580.8 139.95 L581.0 137.8 581.05 137.25 581.1 136.9 581.45 134.2 581.8 132.25 582.9 125.35 583.9 125.25 584.65 126.05 Q585.45 135.25 586.75 143.85 L588.45 153.3 Q591.0 166.15 595.05 173.15 L597.0 176.35 612.15 173.75 612.15 416.65 0.0 416.65 0.0 300.15" ffdec:has-small-stroke="true" ffdec:original-stroke-width="0.0" fill="none" stroke="#000000" stroke-linecap="round" stroke-linejoin="round" stroke-opacity="0.0" stroke-width="1.0"/>
    </g>
  </defs>
</svg>
