<?xml version="1.0" encoding="UTF-8" standalone="no"?>
<svg xmlns:ffdec="https://www.free-decompiler.com/flash" xmlns:xlink="http://www.w3.org/1999/xlink" ffdec:objectType="frame" height="434.1px" width="621.95px" xmlns="http://www.w3.org/2000/svg">
  <g transform="matrix(1.0, 0.0, 0.0, 1.0, 3.0, 0.0)">
    <use ffdec:characterId="246" height="135.45" transform="matrix(1.0, 0.0, 0.0, 1.0, 0.0, 0.0)" width="612.15" xlink:href="#morphshape0"/>
    <use ffdec:characterId="247" height="329.65" transform="matrix(1.0, 0.0, 0.0, 1.0, -3.0, 43.3)" width="621.95" xlink:href="#morphshape1"/>
    <use ffdec:characterId="248" height="332.95" transform="matrix(1.0, 0.0, 0.0, 1.0, 0.0, 101.15)" width="612.15" xlink:href="#morphshape2"/>
  </g>
  <defs>
    <g id="morphshape0" transform="matrix(1.0, 0.0, 0.0, 1.0, 0.0, 0.0)">
      <path d="M0.0 0.0 L0.0 88.05 0.5 87.9 Q15.85 84.45 31.5 81.7 52.0 78.15 72.7 76.0 110.2 72.1 148.35 72.85 L151.85 73.05 180.35 76.0 Q215.0 80.4 249.0 88.6 267.15 92.95 285.05 98.4 318.6 107.05 351.35 117.55 365.7 122.15 380.05 125.4 408.4 130.4 436.95 133.85 L449.85 135.3 448.2 130.95 446.6 125.8 Q445.0 120.7 444.25 115.65 L441.4 115.6 436.95 114.95 Q424.9 112.25 421.15 99.85 419.7 95.0 420.85 90.3 423.05 81.45 428.2 76.0 435.2 68.6 447.7 67.35 453.05 66.5 457.65 68.1 463.1 62.0 469.1 56.35 482.0 44.1 501.25 43.45 504.25 43.0 507.6 44.05 511.3 45.15 514.85 46.7 532.75 54.55 542.35 68.9 547.4 66.2 553.95 65.35 569.0 66.75 574.15 81.95 575.5 85.95 574.35 89.95 568.7 109.85 548.25 111.95 L545.5 111.75 544.15 111.35 544.0 111.65 Q544.5 114.1 543.95 117.25 L542.55 124.45 Q541.3 130.2 538.85 135.45 L555.45 133.25 612.15 125.55 612.15 0.0 0.0 0.0" fill="#d9eff8" fill-rule="evenodd" stroke="none"/>
      <path d="M0.0 0.0 L612.15 0.0 612.15 125.55 555.45 133.25 538.85 135.45 Q541.3 130.2 542.55 124.45 L543.95 117.25 Q544.5 114.1 544.0 111.65 L544.15 111.35 545.5 111.75 548.25 111.95 Q568.7 109.85 574.35 89.95 575.5 85.95 574.15 81.95 569.0 66.75 553.95 65.35 547.4 66.2 542.35 68.9 532.75 54.55 514.85 46.7 511.3 45.15 507.6 44.05 504.25 43.0 501.25 43.45 482.0 44.1 469.1 56.35 463.1 62.0 457.65 68.1 453.05 66.5 447.7 67.35 435.2 68.6 428.2 76.0 423.05 81.45 420.85 90.3 419.7 95.0 421.15 99.85 424.9 112.25 436.95 114.95 L441.4 115.6 444.25 115.65 Q445.0 120.7 446.6 125.8 L448.2 130.95 449.85 135.3 436.95 133.85 Q408.4 130.4 380.05 125.4 365.7 122.15 351.35 117.55 318.6 107.05 285.05 98.4 267.15 92.95 249.0 88.6 215.0 80.4 180.35 76.0 L151.85 73.05 148.35 72.85 Q110.2 72.1 72.7 76.0 52.0 78.15 31.5 81.7 15.85 84.45 0.5 87.9 L0.0 88.05 0.0 0.0 Z" ffdec:has-small-stroke="true" ffdec:original-stroke-width="0.0" fill="none" stroke="#000000" stroke-linecap="round" stroke-linejoin="round" stroke-opacity="0.0" stroke-width="1.0"/>
    </g>
    <g id="morphshape1" transform="matrix(1.0, 0.0, 0.0, 1.0, 3.0, -43.3)">
      <path d="M-3.0 192.0 L-3.0 372.95 613.95 372.95 613.95 232.0 618.95 232.0 618.95 148.0 612.15 148.0 612.15 125.55 555.45 133.25 538.85 135.45 Q541.3 130.2 542.55 124.45 L543.95 117.25 Q544.5 114.1 544.0 111.65 L544.15 111.35 545.5 111.75 548.25 111.95 Q568.7 109.85 574.35 89.95 575.5 85.95 574.15 81.95 569.0 66.75 553.95 65.35 547.4 66.2 542.35 68.9 532.75 54.55 514.85 46.7 511.3 45.15 507.6 44.05 504.25 43.0 501.25 43.45 482.0 44.1 469.1 56.35 463.1 62.0 457.65 68.1 453.05 66.5 447.7 67.35 435.2 68.6 428.2 76.0 423.05 81.45 420.85 90.3 419.7 95.0 421.15 99.85 424.9 112.25 436.95 114.95 L441.4 115.6 444.25 115.65 Q445.0 120.7 446.6 125.8 L448.2 130.95 449.85 135.3 436.95 133.85 Q408.4 130.4 380.05 125.4 365.7 122.15 351.35 117.55 318.6 107.05 285.05 98.4 267.15 92.95 249.0 88.6 215.0 80.4 180.35 76.0 L151.85 73.05 148.35 72.85 Q110.2 72.1 72.7 76.0 52.0 78.15 31.5 81.7 15.85 84.45 0.5 87.9 L0.0 88.05 0.0 192.0 -3.0 192.0" fill="#c9e6f5" fill-rule="evenodd" stroke="none"/>
      <path d="M-3.0 192.0 L0.0 192.0 0.0 88.05 0.5 87.9 Q15.85 84.45 31.5 81.7 52.0 78.15 72.7 76.0 110.2 72.1 148.35 72.85 L151.85 73.05 180.35 76.0 Q215.0 80.4 249.0 88.6 267.15 92.95 285.05 98.4 318.6 107.05 351.35 117.55 365.7 122.15 380.05 125.4 408.4 130.4 436.95 133.85 L449.85 135.3 448.2 130.95 446.6 125.8 Q445.0 120.7 444.25 115.65 L441.4 115.6 436.95 114.95 Q424.9 112.25 421.15 99.85 419.7 95.0 420.85 90.3 423.05 81.45 428.2 76.0 435.2 68.6 447.7 67.35 453.05 66.5 457.65 68.1 463.1 62.0 469.1 56.35 482.0 44.1 501.25 43.45 504.25 43.0 507.6 44.05 511.3 45.15 514.85 46.7 532.75 54.55 542.35 68.9 547.4 66.2 553.95 65.35 569.0 66.75 574.15 81.95 575.5 85.95 574.35 89.95 568.7 109.85 548.25 111.95 L545.5 111.75 544.15 111.35 544.0 111.65 Q544.5 114.1 543.95 117.25 L542.55 124.45 Q541.3 130.2 538.85 135.45 L555.45 133.25 612.15 125.55 612.15 148.0 618.95 148.0 618.95 232.0 613.95 232.0 613.95 372.95 -3.0 372.95 -3.0 192.0 Z" ffdec:has-small-stroke="true" ffdec:original-stroke-width="0.0" fill="none" stroke="#000000" stroke-linecap="round" stroke-linejoin="round" stroke-opacity="0.0" stroke-width="1.0"/>
    </g>
    <g id="morphshape2" transform="matrix(1.0, 0.0, 0.0, 1.0, 0.0, -101.15)">
      <path d="M0.0 300.3 L0.0 415.85 612.15 415.85 612.15 174.95 597.0 177.5 595.05 174.3 Q591.0 167.35 588.45 154.6 L586.75 145.25 Q585.45 136.7 584.65 127.6 L583.9 126.85 582.9 126.95 581.8 133.8 581.45 135.75 581.1 138.45 581.05 138.8 581.0 139.35 580.8 141.45 Q579.4 155.2 574.15 168.05 570.65 176.6 565.55 184.35 550.55 188.15 535.9 193.0 L534.75 186.35 Q533.45 177.8 532.65 168.7 L531.9 167.95 530.9 168.05 529.8 174.9 529.45 176.85 529.1 179.5 529.05 179.85 529.0 180.4 528.8 182.5 Q528.1 189.45 526.4 196.2 505.0 203.75 484.3 213.45 L482.15 214.45 Q480.0 210.05 478.4 204.2 477.35 200.4 476.55 196.45 475.05 189.45 474.2 181.95 L473.35 181.35 472.2 181.4 471.0 187.05 470.55 188.65 470.15 190.85 470.15 191.15 470.1 191.6 469.85 193.35 Q468.25 204.65 462.4 215.3 458.7 221.9 453.4 227.95 L451.6 228.75 436.95 235.65 414.8 246.05 412.05 240.0 Q406.8 227.15 405.4 213.4 L405.2 211.3 405.15 210.75 405.15 210.4 404.8 207.7 404.4 205.75 403.3 198.9 402.3 198.8 401.55 199.55 Q400.75 208.65 399.45 217.2 L397.8 226.55 Q395.2 239.3 391.15 246.25 387.1 253.2 383.2 258.25 382.1 259.7 382.1 261.4 378.95 262.9 375.85 264.35 357.75 272.85 339.25 280.0 L339.2 278.65 339.2 276.95 Q343.1 275.4 346.45 271.9 347.45 270.85 348.1 271.3 348.85 269.85 349.25 269.9 L349.55 269.7 349.75 269.3 350.05 268.85 Q345.6 259.45 342.85 248.9 339.35 235.85 338.45 221.9 L338.3 219.75 338.3 219.2 338.25 218.85 338.05 216.1 337.8 214.1 Q337.4 210.65 337.05 207.2 L336.4 207.1 335.9 207.85 Q335.4 217.1 334.55 225.7 L333.45 235.2 Q331.75 248.1 329.1 255.2 326.4 262.2 323.85 267.35 322.85 269.2 323.2 271.6 L325.8 275.6 Q326.85 277.15 328.25 277.7 331.65 278.0 335.05 278.0 L334.5 281.75 Q314.8 289.1 294.7 294.95 L292.5 291.25 Q286.35 280.7 282.45 261.45 281.05 254.45 279.9 247.25 277.9 234.35 276.75 220.55 L275.6 219.35 274.1 219.5 272.4 229.8 271.85 232.8 271.3 236.85 271.3 237.35 271.2 238.2 270.9 241.4 Q268.8 262.25 260.85 281.75 256.0 293.6 249.0 304.45 L247.8 306.3 Q227.75 310.4 207.5 313.2 L205.25 309.45 Q201.4 302.85 199.0 290.85 L197.4 282.0 Q196.15 274.0 195.45 265.4 L194.75 264.7 193.8 264.8 192.75 271.25 192.4 273.1 192.05 275.6 192.05 275.95 192.0 276.45 191.8 278.45 Q190.5 291.4 185.55 303.55 182.8 310.2 179.0 316.35 L146.5 318.45 139.65 318.65 139.5 317.9 137.8 308.55 Q136.5 300.0 135.7 290.9 L134.95 290.15 133.95 290.25 132.85 297.1 132.5 299.05 132.15 301.7 132.1 302.05 132.05 302.6 131.85 304.7 Q131.1 311.85 129.4 318.75 L91.65 317.35 90.15 312.2 Q98.5 313.1 106.5 311.75 109.8 311.05 112.3 309.1 L118.65 304.1 Q119.35 301.05 117.05 298.7 110.9 292.3 104.5 283.45 101.3 279.05 98.65 272.75 96.05 266.55 94.05 258.55 92.6 252.7 91.4 246.65 L90.05 239.05 Q88.9 231.85 88.1 224.3 L86.9 223.3 85.35 223.4 83.6 232.1 83.0 234.6 82.45 238.0 82.4 238.4 82.35 239.0 82.35 239.1 82.05 241.8 Q79.95 258.3 72.45 273.75 L71.55 275.6 Q64.8 288.8 54.2 300.55 L54.9 301.15 55.45 301.65 56.15 301.9 Q57.1 301.8 58.9 303.6 60.4 303.05 62.85 304.4 70.8 308.75 80.3 310.7 L80.3 312.8 80.05 314.8 79.65 316.15 Q64.85 314.65 50.15 312.25 50.25 310.8 49.35 309.65 46.5 305.95 43.55 300.85 40.55 295.75 38.7 286.45 38.0 283.1 37.45 279.6 L36.65 273.65 35.95 266.7 35.4 266.15 34.65 266.25 33.85 271.25 33.6 272.7 33.5 273.7 33.3 274.65 33.3 274.9 33.25 275.3 33.1 276.85 Q32.1 286.9 28.25 296.3 26.0 301.8 22.85 306.85 11.1 303.95 0.0 299.9" fill="#a7d5ef" fill-rule="evenodd" stroke="none"/>
      <path d="M0.0 299.9 Q11.1 303.95 22.85 306.85 26.0 301.8 28.25 296.3 32.1 286.9 33.1 276.85 L33.25 275.3 33.3 274.9 33.3 274.65 33.5 273.7 33.6 272.7 33.85 271.25 34.65 266.25 35.4 266.15 35.95 266.7 36.65 273.65 37.45 279.6 Q38.0 283.1 38.7 286.45 40.55 295.75 43.55 300.85 46.5 305.95 49.35 309.65 50.25 310.8 50.15 312.25 64.85 314.65 79.65 316.15 L80.05 314.8 80.3 312.8 80.3 310.7 Q70.8 308.75 62.85 304.4 60.4 303.05 58.9 303.6 57.1 301.8 56.15 301.9 L55.45 301.65 54.9 301.15 54.2 300.55 Q64.8 288.8 71.55 275.6 L72.45 273.75 Q79.95 258.3 82.05 241.8 L82.35 239.1 82.35 239.0 82.4 238.4 82.45 238.0 83.0 234.6 83.6 232.1 85.35 223.4 86.9 223.3 88.1 224.3 Q88.9 231.85 90.05 239.05 L91.4 246.65 Q92.6 252.7 94.05 258.55 96.05 266.55 98.65 272.75 101.3 279.05 104.5 283.45 110.9 292.3 117.05 298.7 119.35 301.05 118.65 304.1 L112.3 309.1 Q109.8 311.05 106.5 311.75 98.5 313.1 90.15 312.2 L91.65 317.35 129.4 318.75 Q131.1 311.85 131.85 304.7 L132.05 302.6 132.1 302.05 132.15 301.7 132.5 299.05 132.85 297.1 133.95 290.25 134.95 290.15 135.7 290.9 Q136.5 300.0 137.8 308.55 L139.5 317.9 139.65 318.65 146.5 318.45 179.0 316.35 Q182.8 310.2 185.55 303.55 190.5 291.4 191.8 278.45 L192.0 276.45 192.05 275.95 192.05 275.6 192.4 273.1 192.75 271.25 193.8 264.8 194.75 264.7 195.45 265.4 Q196.15 274.0 197.4 282.0 L199.0 290.85 Q201.4 302.85 205.25 309.45 L207.5 313.2 Q227.75 310.4 247.8 306.3 L249.0 304.45 Q256.0 293.6 260.85 281.75 268.8 262.25 270.9 241.4 L271.2 238.2 271.3 237.35 271.3 236.85 271.85 232.8 272.4 229.8 274.1 219.5 275.6 219.35 276.75 220.55 Q277.9 234.35 279.9 247.25 281.05 254.45 282.45 261.45 286.35 280.7 292.5 291.25 L294.7 294.95 Q314.8 289.1 334.5 281.75 L335.05 278.0 Q331.65 278.0 328.25 277.7 326.85 277.15 325.8 275.6 L323.2 271.6 Q322.85 269.2 323.85 267.35 326.4 262.2 329.1 255.2 331.75 248.1 333.45 235.2 L334.55 225.7 Q335.4 217.1 335.9 207.85 L336.4 207.1 337.05 207.2 Q337.4 210.65 337.8 214.1 L338.05 216.1 338.25 218.85 338.3 219.2 338.3 219.75 338.45 221.9 Q339.35 235.85 342.85 248.9 345.6 259.45 350.05 268.85 L349.75 269.3 349.55 269.7 349.25 269.9 Q348.85 269.85 348.1 271.3 347.45 270.85 346.45 271.9 343.1 275.4 339.2 276.95 L339.2 278.65 339.25 280.0 Q357.75 272.85 375.85 264.35 378.95 262.9 382.1 261.4 382.1 259.7 383.2 258.25 387.1 253.2 391.15 246.25 395.2 239.3 397.8 226.55 L399.45 217.2 Q400.75 208.65 401.55 199.55 L402.3 198.8 403.3 198.9 404.4 205.75 404.8 207.7 405.15 210.4 405.15 210.75 405.2 211.3 405.4 213.4 Q406.8 227.15 412.05 240.0 L414.8 246.05 436.95 235.65 451.6 228.75 453.4 227.95 Q458.7 221.9 462.4 215.3 468.25 204.65 469.85 193.35 L470.1 191.6 470.15 191.15 470.15 190.85 470.55 188.65 471.0 187.05 472.2 181.4 473.35 181.35 474.2 181.95 Q475.05 189.45 476.55 196.45 477.35 200.4 478.4 204.2 480.0 210.05 482.15 214.45 L484.3 213.45 Q505.0 203.75 526.4 196.2 528.1 189.45 528.8 182.5 L529.0 180.4 529.05 179.85 529.1 179.5 529.45 176.85 529.8 174.9 530.9 168.05 531.9 167.95 532.65 168.7 Q533.45 177.8 534.75 186.35 L535.9 193.0 Q550.55 188.15 565.55 184.35 570.65 176.6 574.15 168.05 579.4 155.2 580.8 141.45 L581.0 139.35 581.05 138.8 581.1 138.45 581.45 135.75 581.8 133.8 582.9 126.95 583.9 126.85 584.65 127.6 Q585.45 136.7 586.75 145.25 L588.45 154.6 Q591.0 167.35 595.05 174.3 L597.0 177.5 612.15 174.95 612.15 415.85 0.0 415.85 0.0 300.3" ffdec:has-small-stroke="true" ffdec:original-stroke-width="0.0" fill="none" stroke="#000000" stroke-linecap="round" stroke-linejoin="round" stroke-opacity="0.0" stroke-width="1.0"/>
    </g>
  </defs>
</svg>
