<?xml version="1.0" encoding="UTF-8" standalone="no"?>
<svg xmlns:ffdec="https://www.free-decompiler.com/flash" xmlns:xlink="http://www.w3.org/1999/xlink" ffdec:objectType="frame" height="434.1px" width="621.95px" xmlns="http://www.w3.org/2000/svg">
  <g transform="matrix(1.0, 0.0, 0.0, 1.0, 3.0, 0.0)">
    <use ffdec:characterId="246" height="135.45" transform="matrix(1.0, 0.0, 0.0, 1.0, 0.0, 0.0)" width="612.15" xlink:href="#morphshape0"/>
    <use ffdec:characterId="247" height="329.65" transform="matrix(1.0, 0.0, 0.0, 1.0, -3.0, 43.3)" width="621.95" xlink:href="#morphshape1"/>
    <use ffdec:characterId="248" height="332.95" transform="matrix(1.0, 0.0, 0.0, 1.0, 0.0, 101.15)" width="612.15" xlink:href="#morphshape2"/>
  </g>
  <defs>
    <g id="morphshape0" transform="matrix(1.0, 0.0, 0.0, 1.0, 0.0, 0.0)">
      <path d="M0.0 0.0 L0.0 88.05 0.5 87.9 Q15.85 84.45 31.5 81.7 52.0 78.15 72.7 76.0 110.2 72.1 148.35 72.85 L151.85 73.05 180.35 76.0 Q215.0 80.4 249.0 88.6 267.15 92.95 285.05 98.4 318.6 107.05 351.35 117.55 365.7 122.15 380.05 125.4 408.4 130.4 436.95 133.85 L449.85 135.3 448.2 130.95 446.6 125.8 Q445.0 120.7 444.25 115.65 L441.4 115.6 436.95 114.95 Q424.9 112.25 421.15 99.85 419.7 95.0 420.85 90.3 423.05 81.45 428.2 76.0 435.2 68.6 447.7 67.35 453.05 66.5 457.65 68.1 463.1 62.0 469.1 56.35 482.0 44.1 501.25 43.45 504.25 43.0 507.6 44.05 511.3 45.15 514.85 46.7 532.75 54.55 542.35 68.9 547.4 66.2 553.95 65.35 569.0 66.75 574.15 81.95 575.5 85.95 574.35 89.95 568.7 109.85 548.25 111.95 L545.5 111.75 544.15 111.35 544.0 111.65 Q544.5 114.1 543.95 117.25 L542.55 124.45 Q541.3 130.2 538.85 135.45 L555.45 133.25 612.15 125.55 612.15 0.0 0.0 0.0" fill="#d7eefa" fill-rule="evenodd" stroke="none"/>
      <path d="M0.0 0.0 L612.15 0.0 612.15 125.55 555.45 133.25 538.85 135.45 Q541.3 130.2 542.55 124.45 L543.95 117.25 Q544.5 114.1 544.0 111.65 L544.15 111.35 545.5 111.75 548.25 111.95 Q568.7 109.85 574.35 89.95 575.5 85.95 574.15 81.95 569.0 66.75 553.95 65.35 547.4 66.2 542.35 68.9 532.75 54.55 514.85 46.7 511.3 45.15 507.6 44.05 504.25 43.0 501.25 43.45 482.0 44.1 469.1 56.35 463.1 62.0 457.65 68.1 453.05 66.5 447.7 67.35 435.2 68.6 428.2 76.0 423.05 81.45 420.85 90.3 419.7 95.0 421.15 99.85 424.9 112.25 436.95 114.95 L441.4 115.6 444.25 115.65 Q445.0 120.7 446.6 125.8 L448.2 130.95 449.85 135.3 436.95 133.85 Q408.4 130.4 380.05 125.4 365.7 122.15 351.35 117.55 318.6 107.05 285.05 98.4 267.15 92.95 249.0 88.6 215.0 80.4 180.35 76.0 L151.85 73.05 148.35 72.85 Q110.2 72.1 72.7 76.0 52.0 78.15 31.5 81.7 15.85 84.45 0.5 87.9 L0.0 88.05 0.0 0.0 Z" ffdec:has-small-stroke="true" ffdec:original-stroke-width="0.0" fill="none" stroke="#000000" stroke-linecap="round" stroke-linejoin="round" stroke-opacity="0.0" stroke-width="1.0"/>
    </g>
    <g id="morphshape1" transform="matrix(1.0, 0.0, 0.0, 1.0, 3.0, -43.3)">
      <path d="M-3.0 192.0 L-3.0 372.95 613.95 372.95 613.95 232.0 618.95 232.0 618.95 148.0 612.15 148.0 612.15 125.55 555.45 133.25 538.85 135.45 Q541.3 130.2 542.55 124.45 L543.95 117.25 Q544.5 114.1 544.0 111.65 L544.15 111.35 545.5 111.75 548.25 111.95 Q568.7 109.85 574.35 89.95 575.5 85.95 574.15 81.95 569.0 66.75 553.95 65.35 547.4 66.2 542.35 68.9 532.75 54.55 514.85 46.7 511.3 45.15 507.6 44.05 504.25 43.0 501.25 43.45 482.0 44.1 469.1 56.35 463.1 62.0 457.65 68.1 453.05 66.5 447.7 67.35 435.2 68.6 428.2 76.0 423.05 81.45 420.85 90.3 419.7 95.0 421.15 99.85 424.9 112.25 436.95 114.95 L441.4 115.6 444.25 115.65 Q445.0 120.7 446.6 125.8 L448.2 130.95 449.85 135.3 436.95 133.85 Q408.4 130.4 380.05 125.4 365.7 122.15 351.35 117.55 318.6 107.05 285.05 98.4 267.15 92.95 249.0 88.6 215.0 80.4 180.35 76.0 L151.85 73.05 148.35 72.85 Q110.2 72.1 72.7 76.0 52.0 78.15 31.5 81.7 15.85 84.45 0.5 87.9 L0.0 88.05 0.0 192.0 -3.0 192.0" fill="#c6e6f8" fill-rule="evenodd" stroke="none"/>
      <path d="M-3.0 192.0 L0.0 192.0 0.0 88.05 0.5 87.9 Q15.85 84.45 31.5 81.7 52.0 78.15 72.7 76.0 110.2 72.1 148.35 72.85 L151.85 73.05 180.35 76.0 Q215.0 80.4 249.0 88.6 267.15 92.95 285.05 98.4 318.6 107.05 351.35 117.55 365.7 122.15 380.05 125.4 408.4 130.4 436.95 133.85 L449.85 135.3 448.2 130.95 446.6 125.8 Q445.0 120.7 444.25 115.65 L441.4 115.6 436.95 114.95 Q424.9 112.25 421.15 99.85 419.7 95.0 420.85 90.3 423.05 81.45 428.2 76.0 435.2 68.6 447.7 67.35 453.05 66.5 457.65 68.1 463.1 62.0 469.1 56.35 482.0 44.1 501.25 43.45 504.25 43.0 507.6 44.05 511.3 45.15 514.85 46.7 532.75 54.55 542.35 68.9 547.4 66.2 553.95 65.35 569.0 66.75 574.15 81.95 575.5 85.95 574.35 89.95 568.7 109.85 548.25 111.95 L545.5 111.75 544.15 111.35 544.0 111.65 Q544.5 114.1 543.95 117.25 L542.55 124.45 Q541.3 130.2 538.85 135.45 L555.45 133.25 612.15 125.55 612.15 148.0 618.95 148.0 618.95 232.0 613.95 232.0 613.95 372.95 -3.0 372.95 -3.0 192.0 Z" ffdec:has-small-stroke="true" ffdec:original-stroke-width="0.0" fill="none" stroke="#000000" stroke-linecap="round" stroke-linejoin="round" stroke-opacity="0.0" stroke-width="1.0"/>
    </g>
    <g id="morphshape2" transform="matrix(1.0, 0.0, 0.0, 1.0, 0.0, -101.15)">
      <path d="M0.0 299.65 L0.0 414.35 612.15 414.35 612.15 175.2 597.0 177.75 595.05 174.6 Q591.0 167.7 588.45 155.05 L586.75 145.75 Q585.45 137.3 584.65 128.25 L583.9 127.5 582.9 127.6 581.8 134.4 581.45 136.35 581.1 139.0 581.05 139.35 581.0 139.9 580.8 142.0 Q579.4 155.65 574.15 168.4 570.65 176.85 565.55 184.55 550.55 188.35 535.9 193.15 L534.75 186.55 Q533.45 178.1 532.65 169.05 L531.9 168.3 530.9 168.4 529.8 175.2 529.45 177.15 529.1 179.8 529.05 180.15 529.0 180.7 528.8 182.8 Q528.1 189.7 526.4 196.4 505.0 203.9 484.3 213.55 L482.15 214.55 Q480.0 210.15 478.4 204.35 477.35 200.6 476.55 196.65 475.05 189.7 474.2 182.25 L473.35 181.65 472.2 181.7 471.0 187.3 470.55 188.9 470.15 191.1 470.15 191.4 470.1 191.85 469.85 193.6 Q468.25 204.85 462.4 215.4 458.7 221.95 453.4 227.95 L451.6 228.75 436.95 235.6 414.8 245.9 412.05 239.9 Q406.8 227.15 405.4 213.5 L405.2 211.4 405.15 210.85 405.15 210.5 404.8 207.85 404.4 205.9 403.3 199.1 402.3 199.0 401.55 199.75 Q400.75 208.8 399.45 217.25 L397.8 226.55 Q395.2 239.2 391.15 246.1 387.1 253.0 383.2 258.0 382.1 259.4 382.1 261.1 378.95 262.6 375.85 264.05 357.75 272.45 339.25 279.55 L339.2 278.2 339.2 276.5 Q343.1 274.95 346.45 271.5 347.45 270.45 348.1 270.9 348.85 269.45 349.25 269.5 L349.55 269.3 349.75 268.9 350.05 268.45 Q345.6 259.1 342.85 248.65 339.35 235.7 338.45 221.85 L338.3 219.7 338.3 219.15 338.25 218.8 338.05 216.1 337.8 214.1 Q337.4 210.7 337.05 207.25 L336.4 207.15 335.9 207.9 Q335.4 217.1 334.55 225.65 L333.45 235.1 Q331.75 247.9 329.1 254.95 326.4 261.9 323.85 267.0 322.85 268.85 323.2 271.25 L325.8 275.25 Q326.85 276.8 328.25 277.35 331.65 277.6 335.05 277.65 L334.5 281.35 Q314.8 288.65 294.7 294.45 L292.5 290.8 Q286.35 280.35 282.45 261.2 281.05 254.25 279.9 247.1 277.9 234.3 276.75 220.6 L275.6 219.45 274.1 219.6 272.4 229.85 271.85 232.8 271.3 236.8 271.3 237.3 271.2 238.15 270.9 241.3 Q268.8 262.0 260.85 281.35 256.0 293.15 249.0 303.9 L247.8 305.75 Q227.75 309.85 207.5 312.6 L205.25 308.9 Q201.4 302.35 199.0 290.45 L197.4 281.65 Q196.15 273.7 195.45 265.2 L194.75 264.5 193.8 264.6 192.75 271.0 192.4 272.85 192.05 275.35 192.05 275.7 192.0 276.2 191.8 278.2 Q190.5 291.05 185.55 303.1 182.8 309.75 179.0 315.9 L146.5 318.0 139.65 318.2 139.5 317.45 137.8 308.15 Q136.5 299.7 135.7 290.65 L134.95 289.9 133.95 290.0 132.85 296.8 132.5 298.75 132.15 301.4 132.1 301.75 132.05 302.3 131.85 304.4 Q131.1 311.5 129.4 318.35 L91.65 316.95 90.15 311.85 Q98.5 312.75 106.5 311.45 109.8 310.75 112.3 308.8 L118.65 303.85 Q119.35 300.85 117.05 298.5 110.9 292.15 104.5 283.4 101.3 279.0 98.65 272.75 96.05 266.55 94.05 258.6 92.6 252.8 91.4 246.8 L90.05 239.25 Q88.9 232.1 88.1 224.6 L86.9 223.65 85.35 223.75 83.6 232.35 83.0 234.85 82.45 238.2 82.4 238.6 82.35 239.2 82.35 239.3 82.05 242.0 Q79.95 258.4 72.45 273.75 L71.55 275.6 Q64.8 288.7 54.2 300.4 L54.9 301.0 55.45 301.5 56.15 301.75 Q57.1 301.65 58.9 303.45 60.4 302.9 62.85 304.2 70.8 308.55 80.3 310.5 L80.3 312.6 80.05 314.6 79.65 315.9 Q64.85 314.4 50.15 312.0 50.25 310.55 49.35 309.45 46.5 305.8 43.55 300.75 40.55 295.7 38.7 286.45 38.0 283.15 37.45 279.7 L36.65 273.8 35.95 266.9 35.4 266.35 34.65 266.45 33.85 271.4 33.6 272.85 33.5 273.8 33.3 274.75 33.3 275.0 33.25 275.4 33.1 276.95 Q32.1 286.95 28.25 296.3 26.0 301.75 22.85 306.75 11.1 303.9 0.0 299.85" fill="#a3d5f3" fill-rule="evenodd" stroke="none"/>
      <path d="M0.0 299.85 Q11.1 303.9 22.85 306.75 26.0 301.75 28.25 296.3 32.1 286.95 33.1 276.95 L33.25 275.4 33.3 275.0 33.3 274.75 33.5 273.8 33.6 272.85 33.85 271.4 34.65 266.45 35.4 266.35 35.95 266.9 36.65 273.8 37.45 279.7 Q38.0 283.15 38.7 286.45 40.55 295.7 43.55 300.75 46.5 305.8 49.35 309.45 50.25 310.55 50.15 312.0 64.85 314.4 79.65 315.9 L80.05 314.6 80.3 312.6 80.3 310.5 Q70.8 308.55 62.85 304.2 60.4 302.9 58.9 303.45 57.1 301.65 56.15 301.75 L55.45 301.5 54.9 301.0 54.2 300.4 Q64.8 288.7 71.55 275.6 L72.45 273.75 Q79.95 258.4 82.05 242.0 L82.35 239.3 82.35 239.2 82.4 238.6 82.45 238.2 83.0 234.85 83.6 232.35 85.35 223.75 86.9 223.65 88.1 224.6 Q88.9 232.1 90.05 239.25 L91.4 246.8 Q92.6 252.8 94.05 258.6 96.05 266.55 98.65 272.75 101.3 279.0 104.5 283.4 110.9 292.15 117.05 298.5 119.35 300.85 118.65 303.85 L112.3 308.8 Q109.8 310.75 106.5 311.45 98.5 312.75 90.15 311.85 L91.65 316.95 129.4 318.35 Q131.1 311.5 131.85 304.4 L132.05 302.3 132.1 301.75 132.15 301.4 132.5 298.75 132.85 296.8 133.95 290.0 134.95 289.9 135.7 290.65 Q136.5 299.7 137.8 308.15 L139.5 317.45 139.65 318.2 146.5 318.0 179.0 315.9 Q182.8 309.75 185.55 303.1 190.5 291.05 191.8 278.2 L192.0 276.2 192.05 275.7 192.05 275.35 192.4 272.85 192.75 271.0 193.8 264.6 194.75 264.5 195.45 265.2 Q196.15 273.7 197.4 281.65 L199.0 290.45 Q201.4 302.35 205.25 308.9 L207.5 312.6 Q227.75 309.85 247.8 305.75 L249.0 303.9 Q256.0 293.15 260.85 281.35 268.8 262.0 270.9 241.3 L271.2 238.15 271.3 237.3 271.3 236.8 271.85 232.8 272.4 229.85 274.1 219.6 275.6 219.45 276.75 220.6 Q277.9 234.3 279.9 247.1 281.05 254.25 282.45 261.2 286.35 280.35 292.5 290.8 L294.7 294.45 Q314.8 288.65 334.5 281.35 L335.05 277.65 Q331.65 277.6 328.25 277.35 326.85 276.8 325.8 275.25 L323.2 271.25 Q322.85 268.85 323.85 267.0 326.4 261.9 329.1 254.95 331.75 247.9 333.45 235.1 L334.55 225.65 Q335.4 217.1 335.9 207.9 L336.4 207.15 337.05 207.25 Q337.4 210.7 337.8 214.1 L338.05 216.1 338.25 218.8 338.3 219.15 338.3 219.7 338.45 221.85 Q339.35 235.7 342.85 248.65 345.6 259.1 350.05 268.45 L349.75 268.9 349.55 269.3 349.25 269.5 Q348.85 269.45 348.1 270.9 347.45 270.45 346.45 271.5 343.1 274.95 339.2 276.5 L339.2 278.2 339.25 279.55 Q357.75 272.45 375.85 264.05 378.95 262.6 382.1 261.1 382.1 259.4 383.2 258.0 387.1 253.0 391.15 246.1 395.2 239.2 397.8 226.55 L399.45 217.25 Q400.75 208.8 401.55 199.75 L402.3 199.0 403.3 199.1 404.4 205.9 404.8 207.85 405.15 210.5 405.15 210.85 405.2 211.4 405.4 213.5 Q406.8 227.15 412.05 239.9 L414.8 245.9 436.95 235.6 451.6 228.75 453.4 227.95 Q458.7 221.95 462.4 215.4 468.25 204.85 469.85 193.6 L470.1 191.85 470.15 191.4 470.15 191.1 470.55 188.9 471.0 187.3 472.2 181.7 473.35 181.65 474.2 182.25 Q475.05 189.7 476.55 196.65 477.35 200.6 478.4 204.35 480.0 210.15 482.15 214.55 L484.3 213.55 Q505.0 203.9 526.4 196.4 528.1 189.7 528.8 182.8 L529.0 180.7 529.05 180.15 529.1 179.8 529.45 177.15 529.8 175.2 530.9 168.4 531.9 168.3 532.65 169.05 Q533.45 178.1 534.75 186.55 L535.9 193.15 Q550.55 188.35 565.55 184.55 570.65 176.85 574.15 168.4 579.4 155.65 580.8 142.0 L581.0 139.9 581.05 139.35 581.1 139.0 581.45 136.35 581.8 134.4 582.9 127.6 583.9 127.5 584.65 128.25 Q585.45 137.3 586.75 145.75 L588.45 155.05 Q591.0 167.7 595.05 174.6 L597.0 177.75 612.15 175.2 612.15 414.35 0.0 414.35 0.0 299.65" ffdec:has-small-stroke="true" ffdec:original-stroke-width="0.0" fill="none" stroke="#000000" stroke-linecap="round" stroke-linejoin="round" stroke-opacity="0.0" stroke-width="1.0"/>
    </g>
  </defs>
</svg>
