<?xml version="1.0" encoding="UTF-8" standalone="no"?>
<svg xmlns:ffdec="https://www.free-decompiler.com/flash" xmlns:xlink="http://www.w3.org/1999/xlink" ffdec:objectType="frame" height="434.1px" width="621.95px" xmlns="http://www.w3.org/2000/svg">
  <g transform="matrix(1.0, 0.0, 0.0, 1.0, 3.0, 0.0)">
    <use ffdec:characterId="246" height="135.45" transform="matrix(1.0, 0.0, 0.0, 1.0, 0.0, 0.0)" width="612.15" xlink:href="#morphshape0"/>
    <use ffdec:characterId="247" height="329.65" transform="matrix(1.0, 0.0, 0.0, 1.0, -3.0, 43.3)" width="621.95" xlink:href="#morphshape1"/>
    <use ffdec:characterId="248" height="332.95" transform="matrix(1.0, 0.0, 0.0, 1.0, 0.0, 101.15)" width="612.15" xlink:href="#morphshape2"/>
  </g>
  <defs>
    <g id="morphshape0" transform="matrix(1.0, 0.0, 0.0, 1.0, 0.0, 0.0)">
      <path d="M0.0 0.0 L0.0 88.05 0.5 87.9 Q15.85 84.45 31.5 81.7 52.0 78.15 72.7 76.0 110.2 72.1 148.35 72.85 L151.85 73.05 180.35 76.0 Q215.0 80.4 249.0 88.6 267.15 92.95 285.05 98.4 318.6 107.05 351.35 117.55 365.7 122.15 380.05 125.4 408.4 130.4 436.95 133.85 L449.85 135.3 448.2 130.95 446.6 125.8 Q445.0 120.7 444.25 115.65 L441.4 115.6 436.95 114.95 Q424.9 112.25 421.15 99.85 419.7 95.0 420.85 90.3 423.05 81.45 428.2 76.0 435.2 68.6 447.7 67.35 453.05 66.5 457.65 68.1 463.1 62.0 469.1 56.35 482.0 44.1 501.25 43.45 504.25 43.0 507.6 44.05 511.3 45.15 514.85 46.7 532.75 54.55 542.35 68.9 547.4 66.2 553.95 65.35 569.0 66.75 574.15 81.95 575.5 85.95 574.35 89.95 568.7 109.85 548.25 111.95 L545.5 111.75 544.15 111.35 544.0 111.65 Q544.5 114.1 543.95 117.25 L542.55 124.45 Q541.3 130.2 538.85 135.45 L555.45 133.25 612.15 125.55 612.15 0.0 0.0 0.0" fill="#d5eefc" fill-rule="evenodd" stroke="none"/>
      <path d="M0.0 0.0 L612.15 0.0 612.15 125.55 555.45 133.25 538.85 135.45 Q541.3 130.2 542.55 124.45 L543.95 117.25 Q544.5 114.1 544.0 111.65 L544.15 111.35 545.5 111.75 548.25 111.95 Q568.7 109.85 574.35 89.95 575.5 85.95 574.15 81.95 569.0 66.75 553.95 65.35 547.4 66.2 542.35 68.9 532.75 54.55 514.85 46.7 511.3 45.15 507.6 44.05 504.25 43.0 501.25 43.45 482.0 44.1 469.1 56.35 463.1 62.0 457.65 68.1 453.05 66.5 447.7 67.35 435.2 68.6 428.2 76.0 423.05 81.45 420.85 90.3 419.7 95.0 421.15 99.85 424.9 112.25 436.95 114.95 L441.4 115.6 444.25 115.65 Q445.0 120.7 446.6 125.8 L448.2 130.95 449.85 135.3 436.95 133.85 Q408.4 130.4 380.05 125.4 365.7 122.15 351.35 117.55 318.6 107.05 285.05 98.4 267.15 92.95 249.0 88.6 215.0 80.4 180.35 76.0 L151.85 73.05 148.35 72.85 Q110.2 72.1 72.7 76.0 52.0 78.15 31.5 81.7 15.85 84.45 0.5 87.9 L0.0 88.05 0.0 0.0 Z" ffdec:has-small-stroke="true" ffdec:original-stroke-width="0.0" fill="none" stroke="#000000" stroke-linecap="round" stroke-linejoin="round" stroke-opacity="0.0" stroke-width="1.0"/>
    </g>
    <g id="morphshape1" transform="matrix(1.0, 0.0, 0.0, 1.0, 3.0, -43.3)">
      <path d="M-3.0 192.0 L-3.0 372.95 613.95 372.95 613.95 232.0 618.95 232.0 618.95 148.0 612.15 148.0 612.15 125.55 555.45 133.25 538.85 135.45 Q541.3 130.2 542.55 124.45 L543.95 117.25 Q544.5 114.1 544.0 111.65 L544.15 111.35 545.5 111.75 548.25 111.95 Q568.7 109.85 574.35 89.95 575.5 85.95 574.15 81.95 569.0 66.75 553.95 65.35 547.4 66.2 542.35 68.9 532.75 54.55 514.85 46.7 511.3 45.15 507.6 44.05 504.25 43.0 501.25 43.45 482.0 44.1 469.1 56.35 463.1 62.0 457.65 68.1 453.05 66.5 447.7 67.35 435.2 68.6 428.2 76.0 423.05 81.45 420.85 90.3 419.7 95.0 421.15 99.85 424.9 112.25 436.95 114.95 L441.4 115.6 444.25 115.65 Q445.0 120.7 446.6 125.8 L448.2 130.95 449.85 135.3 436.95 133.85 Q408.4 130.4 380.05 125.4 365.7 122.15 351.35 117.55 318.6 107.05 285.05 98.4 267.15 92.95 249.0 88.6 215.0 80.4 180.35 76.0 L151.85 73.05 148.35 72.85 Q110.2 72.1 72.7 76.0 52.0 78.15 31.5 81.7 15.85 84.45 0.5 87.9 L0.0 88.05 0.0 192.0 -3.0 192.0" fill="#c4e6fa" fill-rule="evenodd" stroke="none"/>
      <path d="M-3.0 192.0 L0.0 192.0 0.0 88.05 0.5 87.9 Q15.85 84.45 31.5 81.7 52.0 78.15 72.7 76.0 110.2 72.1 148.35 72.85 L151.85 73.05 180.35 76.0 Q215.0 80.4 249.0 88.6 267.15 92.95 285.05 98.4 318.6 107.05 351.35 117.55 365.7 122.15 380.05 125.4 408.4 130.4 436.95 133.85 L449.85 135.3 448.2 130.95 446.6 125.8 Q445.0 120.7 444.25 115.65 L441.4 115.6 436.95 114.95 Q424.9 112.25 421.15 99.85 419.7 95.0 420.85 90.3 423.05 81.45 428.2 76.0 435.2 68.6 447.7 67.35 453.05 66.5 457.65 68.1 463.1 62.0 469.1 56.35 482.0 44.1 501.25 43.45 504.25 43.0 507.6 44.05 511.3 45.15 514.85 46.7 532.75 54.55 542.35 68.9 547.4 66.2 553.95 65.35 569.0 66.75 574.15 81.95 575.5 85.95 574.35 89.95 568.7 109.85 548.25 111.95 L545.5 111.75 544.15 111.35 544.0 111.65 Q544.5 114.1 543.95 117.25 L542.55 124.45 Q541.3 130.2 538.85 135.45 L555.45 133.25 612.15 125.55 612.15 148.0 618.95 148.0 618.95 232.0 613.95 232.0 613.95 372.95 -3.0 372.95 -3.0 192.0 Z" ffdec:has-small-stroke="true" ffdec:original-stroke-width="0.0" fill="none" stroke="#000000" stroke-linecap="round" stroke-linejoin="round" stroke-opacity="0.0" stroke-width="1.0"/>
    </g>
    <g id="morphshape2" transform="matrix(1.0, 0.0, 0.0, 1.0, 0.0, -101.15)">
      <path d="M0.0 299.6 L0.0 413.6 612.15 413.6 612.15 175.9 597.0 178.45 595.05 175.3 Q591.0 168.45 588.45 155.9 L586.75 146.65 Q585.45 138.25 584.65 129.25 L583.9 128.5 582.9 128.6 581.8 135.35 581.45 137.3 581.1 139.95 581.05 140.3 581.0 140.85 580.8 142.95 Q579.4 156.55 574.15 169.25 570.65 177.65 565.55 185.3 550.55 189.05 535.9 193.8 L534.75 187.25 Q533.45 178.85 532.65 169.9 L531.9 169.15 530.9 169.25 529.8 176.0 529.45 177.95 529.1 180.6 529.05 180.95 529.0 181.5 528.8 183.6 Q528.1 190.45 526.4 197.1 505.0 204.55 484.3 214.15 L482.15 215.15 Q480.0 210.8 478.4 205.0 477.35 201.25 476.55 197.35 475.05 190.45 474.2 183.05 L473.35 182.45 472.2 182.5 471.0 188.1 470.55 189.65 470.15 191.85 470.15 192.15 470.1 192.6 469.85 194.35 Q468.25 205.5 462.4 216.0 458.7 222.5 453.4 228.5 L451.6 229.3 436.95 236.1 414.8 246.35 412.05 240.35 Q406.8 227.65 405.4 214.05 L405.2 211.95 405.15 211.4 405.15 211.05 404.8 208.4 404.4 206.45 403.3 199.7 402.3 199.6 401.55 200.35 Q400.75 209.35 399.45 217.75 L397.8 227.0 Q395.2 239.55 391.15 246.4 387.1 253.25 383.2 258.2 382.1 259.6 382.1 261.3 378.95 262.75 375.85 264.15 357.75 272.5 339.25 279.55 L339.2 278.25 339.2 276.6 Q343.1 275.05 346.45 271.6 347.45 270.55 348.1 271.0 348.85 269.6 349.25 269.65 L349.55 269.45 349.75 269.05 350.05 268.6 Q345.6 259.3 342.85 248.9 339.35 236.0 338.45 222.25 L338.3 220.1 338.3 219.55 338.25 219.2 338.05 216.5 337.8 214.5 Q337.4 211.1 337.05 207.7 L336.4 207.6 335.9 208.35 Q335.4 217.45 334.55 225.9 L333.45 235.3 Q331.75 248.05 329.1 255.05 326.4 261.95 323.85 267.0 322.85 268.8 323.2 271.2 L325.8 275.15 Q326.85 276.65 328.25 277.2 331.65 277.45 335.05 277.55 L334.5 281.25 Q314.8 288.5 294.7 294.3 L292.5 290.65 Q286.35 280.25 282.45 261.25 281.05 254.35 279.9 247.25 277.9 234.55 276.75 220.95 L275.6 219.8 274.1 219.95 272.4 230.15 271.85 233.1 271.3 237.1 271.3 237.6 271.2 238.45 270.9 241.6 Q268.8 262.2 260.85 281.4 256.0 293.1 249.0 303.8 L247.8 305.65 Q227.75 309.7 207.5 312.45 L205.25 308.75 Q201.4 302.25 199.0 290.45 L197.4 281.75 Q196.15 273.85 195.45 265.4 L194.75 264.7 193.8 264.8 192.75 271.15 192.4 273.0 192.05 275.5 192.05 275.85 192.0 276.35 191.8 278.35 Q190.5 291.15 185.55 303.1 182.8 309.7 179.0 315.8 L146.5 317.9 139.65 318.1 139.5 317.35 137.8 308.1 Q136.5 299.7 135.7 290.7 L134.95 289.95 133.95 290.05 132.85 296.8 132.5 298.75 132.15 301.4 132.1 301.75 132.05 302.3 131.85 304.4 Q131.1 311.45 129.4 318.25 L91.65 316.9 90.15 311.85 Q98.5 312.75 106.5 311.45 109.8 310.75 112.3 308.8 L118.65 303.9 Q119.35 300.9 117.05 298.55 110.9 292.25 104.5 283.55 101.3 279.2 98.65 272.95 96.05 266.8 94.05 258.9 92.6 253.1 91.4 247.1 L90.05 239.6 Q88.9 232.5 88.1 225.05 L86.9 224.1 85.35 224.2 83.6 232.75 83.0 235.25 82.45 238.6 82.4 239.0 82.35 239.6 82.35 239.7 82.05 242.4 Q79.95 258.7 72.45 273.95 L71.55 275.75 Q64.8 288.8 54.2 300.4 L54.9 301.0 55.45 301.5 56.15 301.75 Q57.1 301.65 58.9 303.4 60.4 302.85 62.85 304.15 70.8 308.45 80.3 310.4 L80.3 312.5 80.05 314.5 79.65 315.8 Q64.85 314.35 50.15 311.95 50.25 310.55 49.35 309.45 46.5 305.8 43.55 300.8 40.55 295.8 38.7 286.6 38.0 283.3 37.45 279.85 L36.65 273.95 35.95 267.1 35.4 266.55 34.65 266.65 33.85 271.55 33.6 272.95 33.5 273.9 33.3 274.85 33.3 275.1 33.25 275.5 33.1 277.0 Q32.1 286.95 28.25 296.25 26.0 301.7 22.85 306.65 11.1 303.8 0.0 299.8" fill="#9fd5f7" fill-rule="evenodd" stroke="none"/>
      <path d="M0.0 299.8 Q11.1 303.8 22.85 306.65 26.0 301.7 28.25 296.25 32.1 286.95 33.1 277.0 L33.25 275.5 33.3 275.1 33.3 274.85 33.5 273.9 33.6 272.95 33.85 271.55 34.65 266.65 35.4 266.55 35.95 267.1 36.65 273.95 37.45 279.85 Q38.0 283.3 38.7 286.6 40.55 295.8 43.55 300.8 46.5 305.8 49.35 309.45 50.25 310.55 50.15 311.95 64.85 314.35 79.65 315.8 L80.05 314.5 80.3 312.5 80.3 310.4 Q70.8 308.45 62.85 304.15 60.4 302.85 58.9 303.4 57.1 301.65 56.15 301.75 L55.45 301.5 54.9 301.0 54.2 300.4 Q64.8 288.8 71.55 275.75 L72.45 273.95 Q79.95 258.7 82.05 242.4 L82.35 239.7 82.35 239.6 82.4 239.0 82.45 238.6 83.0 235.25 83.6 232.75 85.35 224.2 86.9 224.1 88.1 225.05 Q88.9 232.5 90.05 239.6 L91.4 247.1 Q92.6 253.1 94.05 258.9 96.05 266.8 98.65 272.95 101.3 279.2 104.5 283.55 110.9 292.25 117.05 298.55 119.35 300.9 118.65 303.9 L112.3 308.8 Q109.8 310.75 106.5 311.45 98.5 312.75 90.15 311.85 L91.65 316.9 129.4 318.25 Q131.1 311.45 131.85 304.4 L132.05 302.3 132.1 301.75 132.15 301.4 132.5 298.75 132.85 296.8 133.95 290.05 134.95 289.95 135.7 290.7 Q136.5 299.7 137.8 308.1 L139.5 317.35 139.65 318.1 146.5 317.9 179.0 315.8 Q182.8 309.7 185.55 303.1 190.5 291.15 191.8 278.35 L192.0 276.35 192.05 275.85 192.05 275.5 192.4 273.0 192.75 271.15 193.8 264.8 194.75 264.7 195.45 265.4 Q196.15 273.85 197.4 281.75 L199.0 290.45 Q201.4 302.25 205.25 308.75 L207.5 312.45 Q227.75 309.7 247.8 305.65 L249.0 303.8 Q256.0 293.1 260.85 281.4 268.8 262.2 270.9 241.6 L271.2 238.45 271.3 237.6 271.3 237.1 271.85 233.1 272.4 230.15 274.1 219.95 275.6 219.8 276.75 220.95 Q277.9 234.55 279.9 247.25 281.05 254.35 282.45 261.25 286.35 280.25 292.5 290.65 L294.7 294.3 Q314.8 288.5 334.5 281.25 L335.05 277.55 Q331.65 277.45 328.25 277.2 326.85 276.65 325.8 275.15 L323.2 271.2 Q322.85 268.8 323.85 267.0 326.4 261.95 329.1 255.05 331.75 248.05 333.45 235.3 L334.55 225.9 Q335.4 217.45 335.9 208.35 L336.4 207.6 337.05 207.7 Q337.4 211.1 337.8 214.5 L338.05 216.5 338.25 219.2 338.3 219.55 338.3 220.1 338.45 222.25 Q339.35 236.0 342.85 248.9 345.6 259.3 350.05 268.6 L349.75 269.05 349.55 269.45 349.25 269.65 Q348.85 269.6 348.1 271.0 347.45 270.55 346.45 271.6 343.1 275.05 339.2 276.6 L339.2 278.25 339.25 279.55 Q357.75 272.5 375.85 264.15 378.95 262.75 382.1 261.3 382.1 259.6 383.2 258.2 387.1 253.25 391.15 246.4 395.2 239.55 397.8 227.0 L399.45 217.75 Q400.75 209.35 401.55 200.35 L402.3 199.6 403.3 199.7 404.4 206.45 404.8 208.4 405.15 211.05 405.15 211.4 405.2 211.95 405.4 214.05 Q406.8 227.65 412.05 240.35 L414.8 246.35 436.95 236.1 451.6 229.3 453.4 228.5 Q458.7 222.5 462.4 216.0 468.25 205.5 469.85 194.35 L470.1 192.6 470.15 192.15 470.15 191.85 470.55 189.65 471.0 188.1 472.2 182.5 473.35 182.45 474.2 183.05 Q475.05 190.45 476.55 197.35 477.35 201.25 478.4 205.0 480.0 210.8 482.15 215.15 L484.3 214.15 Q505.0 204.55 526.4 197.1 528.1 190.45 528.8 183.6 L529.0 181.5 529.05 180.95 529.1 180.6 529.45 177.95 529.8 176.0 530.9 169.25 531.9 169.15 532.65 169.9 Q533.45 178.85 534.75 187.25 L535.9 193.8 Q550.55 189.05 565.55 185.3 570.65 177.65 574.15 169.25 579.4 156.55 580.8 142.95 L581.0 140.85 581.05 140.3 581.1 139.95 581.45 137.3 581.8 135.35 582.9 128.6 583.9 128.5 584.65 129.25 Q585.45 138.25 586.75 146.65 L588.45 155.9 Q591.0 168.45 595.05 175.3 L597.0 178.45 612.15 175.9 612.15 413.6 0.0 413.6 0.0 299.6" ffdec:has-small-stroke="true" ffdec:original-stroke-width="0.0" fill="none" stroke="#000000" stroke-linecap="round" stroke-linejoin="round" stroke-opacity="0.0" stroke-width="1.0"/>
    </g>
  </defs>
</svg>
