<?xml version="1.0" encoding="UTF-8" standalone="no"?>
<svg xmlns:ffdec="https://www.free-decompiler.com/flash" xmlns:xlink="http://www.w3.org/1999/xlink" ffdec:objectType="frame" height="434.1px" width="621.95px" xmlns="http://www.w3.org/2000/svg">
  <g transform="matrix(1.0, 0.0, 0.0, 1.0, 3.0, 0.0)">
    <use ffdec:characterId="246" height="135.45" transform="matrix(1.0, 0.0, 0.0, 1.0, 0.0, 0.0)" width="612.15" xlink:href="#morphshape0"/>
    <use ffdec:characterId="247" height="329.65" transform="matrix(1.0, 0.0, 0.0, 1.0, -3.0, 43.3)" width="621.95" xlink:href="#morphshape1"/>
    <use ffdec:characterId="248" height="332.95" transform="matrix(1.0, 0.0, 0.0, 1.0, 0.0, 101.15)" width="612.15" xlink:href="#morphshape2"/>
  </g>
  <defs>
    <g id="morphshape0" transform="matrix(1.0, 0.0, 0.0, 1.0, 0.0, 0.0)">
      <path d="M0.0 0.0 L0.0 88.05 0.5 87.9 Q15.85 84.45 31.5 81.7 52.0 78.15 72.7 76.0 110.2 72.1 148.35 72.85 L151.85 73.05 180.35 76.0 Q215.0 80.4 249.0 88.6 267.15 92.95 285.05 98.4 318.6 107.05 351.35 117.55 365.7 122.15 380.05 125.4 408.4 130.4 436.95 133.85 L449.85 135.3 448.2 130.95 446.6 125.8 Q445.0 120.7 444.25 115.65 L441.4 115.6 436.95 114.95 Q424.9 112.25 421.15 99.85 419.7 95.0 420.85 90.3 423.05 81.45 428.2 76.0 435.2 68.6 447.7 67.35 453.05 66.5 457.65 68.1 463.1 62.0 469.1 56.35 482.0 44.1 501.25 43.45 504.25 43.0 507.6 44.05 511.3 45.15 514.85 46.7 532.75 54.55 542.35 68.9 547.4 66.2 553.95 65.35 569.0 66.75 574.15 81.95 575.5 85.95 574.35 89.95 568.7 109.85 548.25 111.95 L545.5 111.75 544.15 111.35 544.0 111.65 Q544.5 114.1 543.95 117.25 L542.55 124.45 Q541.3 130.2 538.85 135.45 L555.45 133.25 612.15 125.55 612.15 0.0 0.0 0.0" fill="#d4eefd" fill-rule="evenodd" stroke="none"/>
      <path d="M0.0 0.0 L612.15 0.0 612.15 125.55 555.45 133.25 538.85 135.45 Q541.3 130.2 542.55 124.45 L543.95 117.25 Q544.5 114.1 544.0 111.65 L544.15 111.35 545.5 111.75 548.25 111.95 Q568.7 109.85 574.35 89.95 575.5 85.95 574.15 81.95 569.0 66.75 553.95 65.35 547.4 66.2 542.35 68.9 532.75 54.55 514.85 46.7 511.3 45.15 507.6 44.05 504.25 43.0 501.25 43.45 482.0 44.1 469.1 56.35 463.1 62.0 457.65 68.1 453.05 66.5 447.7 67.35 435.2 68.6 428.2 76.0 423.05 81.45 420.85 90.3 419.7 95.0 421.15 99.85 424.9 112.25 436.95 114.95 L441.4 115.6 444.25 115.65 Q445.0 120.7 446.6 125.8 L448.2 130.95 449.85 135.3 436.95 133.85 Q408.4 130.4 380.05 125.4 365.7 122.15 351.35 117.55 318.6 107.05 285.05 98.4 267.15 92.95 249.0 88.6 215.0 80.4 180.35 76.0 L151.85 73.05 148.35 72.85 Q110.2 72.1 72.7 76.0 52.0 78.15 31.5 81.7 15.85 84.45 0.5 87.9 L0.0 88.05 0.0 0.0 Z" ffdec:has-small-stroke="true" ffdec:original-stroke-width="0.0" fill="none" stroke="#000000" stroke-linecap="round" stroke-linejoin="round" stroke-opacity="0.0" stroke-width="1.0"/>
    </g>
    <g id="morphshape1" transform="matrix(1.0, 0.0, 0.0, 1.0, 3.0, -43.3)">
      <path d="M-3.0 192.0 L-3.0 372.95 613.95 372.95 613.95 232.0 618.95 232.0 618.95 148.0 612.15 148.0 612.15 125.55 555.45 133.25 538.85 135.45 Q541.3 130.2 542.55 124.45 L543.95 117.25 Q544.5 114.1 544.0 111.65 L544.15 111.35 545.5 111.75 548.25 111.95 Q568.7 109.85 574.35 89.95 575.5 85.95 574.15 81.95 569.0 66.75 553.95 65.35 547.4 66.2 542.35 68.9 532.75 54.55 514.85 46.7 511.3 45.15 507.6 44.05 504.25 43.0 501.25 43.45 482.0 44.1 469.1 56.35 463.1 62.0 457.65 68.1 453.05 66.5 447.7 67.35 435.2 68.6 428.2 76.0 423.05 81.45 420.85 90.3 419.7 95.0 421.15 99.85 424.9 112.25 436.95 114.95 L441.4 115.6 444.25 115.65 Q445.0 120.7 446.6 125.8 L448.2 130.95 449.85 135.3 436.95 133.85 Q408.4 130.4 380.05 125.4 365.7 122.15 351.35 117.55 318.6 107.05 285.05 98.4 267.15 92.95 249.0 88.6 215.0 80.4 180.35 76.0 L151.85 73.05 148.35 72.85 Q110.2 72.1 72.7 76.0 52.0 78.15 31.5 81.7 15.85 84.45 0.5 87.9 L0.0 88.05 0.0 192.0 -3.0 192.0" fill="#c2e6fc" fill-rule="evenodd" stroke="none"/>
      <path d="M-3.0 192.0 L0.0 192.0 0.0 88.05 0.5 87.9 Q15.85 84.45 31.5 81.7 52.0 78.15 72.7 76.0 110.2 72.1 148.35 72.85 L151.85 73.05 180.35 76.0 Q215.0 80.4 249.0 88.6 267.15 92.95 285.05 98.4 318.6 107.05 351.35 117.55 365.7 122.15 380.05 125.4 408.4 130.4 436.95 133.85 L449.85 135.3 448.2 130.95 446.6 125.8 Q445.0 120.7 444.25 115.65 L441.4 115.6 436.95 114.95 Q424.9 112.25 421.15 99.85 419.7 95.0 420.85 90.3 423.05 81.45 428.2 76.0 435.2 68.6 447.7 67.35 453.05 66.5 457.65 68.1 463.1 62.0 469.1 56.35 482.0 44.1 501.25 43.45 504.25 43.0 507.6 44.05 511.3 45.15 514.85 46.7 532.75 54.55 542.35 68.9 547.4 66.2 553.95 65.35 569.0 66.75 574.15 81.95 575.5 85.95 574.35 89.95 568.7 109.85 548.25 111.95 L545.5 111.75 544.15 111.35 544.0 111.65 Q544.5 114.1 543.95 117.25 L542.55 124.45 Q541.3 130.2 538.85 135.45 L555.45 133.25 612.15 125.55 612.15 148.0 618.95 148.0 618.95 232.0 613.95 232.0 613.95 372.95 -3.0 372.95 -3.0 192.0 Z" ffdec:has-small-stroke="true" ffdec:original-stroke-width="0.0" fill="none" stroke="#000000" stroke-linecap="round" stroke-linejoin="round" stroke-opacity="0.0" stroke-width="1.0"/>
    </g>
    <g id="morphshape2" transform="matrix(1.0, 0.0, 0.0, 1.0, 0.0, -101.15)">
      <path d="M0.0 300.2 L0.0 413.6 612.15 413.6 612.15 177.1 597.0 179.6 595.05 176.45 Q591.0 169.65 588.45 157.15 L586.75 147.95 Q585.45 139.6 584.65 130.65 L583.9 129.9 582.9 130.0 581.8 136.7 581.45 138.6 581.1 141.2 581.05 141.55 581.0 142.1 580.8 144.15 Q579.4 157.65 574.15 170.25 570.65 178.65 565.55 186.25 550.55 190.0 535.9 194.75 L534.75 188.25 Q533.45 179.9 532.65 170.95 L531.9 170.2 530.9 170.3 529.8 177.0 529.45 178.9 529.1 181.5 529.05 181.85 529.0 182.4 528.8 184.45 Q528.1 191.25 526.4 197.85 505.0 205.25 484.3 214.8 L482.15 215.8 Q480.0 211.45 478.4 205.7 477.35 201.95 476.55 198.05 475.05 191.2 474.2 183.85 L473.35 183.25 472.2 183.3 471.0 188.85 470.55 190.4 470.15 192.55 470.15 192.85 470.1 193.3 469.85 195.0 Q468.25 206.1 462.4 216.55 458.7 223.0 453.4 228.95 L451.6 229.75 436.95 236.5 414.8 246.7 412.05 240.75 Q406.8 228.15 405.4 214.65 L405.2 212.6 405.15 212.05 405.15 211.7 404.8 209.1 404.4 207.2 403.3 200.5 402.3 200.4 401.55 201.15 Q400.75 210.1 399.45 218.45 L397.8 227.65 Q395.2 240.15 391.15 246.95 387.1 253.75 383.2 258.7 382.1 260.1 382.1 261.75 378.95 263.2 375.85 264.6 357.75 272.95 339.25 279.95 L339.2 278.65 339.2 277.0 Q343.1 275.5 346.45 272.05 347.45 271.0 348.1 271.45 348.85 270.05 349.25 270.1 L349.55 269.9 349.75 269.5 350.05 269.05 Q345.6 259.8 342.85 249.45 339.35 236.65 338.45 223.0 L338.3 220.9 338.3 220.35 338.25 220.0 338.05 217.35 337.8 215.4 Q337.4 212.0 337.05 208.6 L336.4 208.5 335.9 209.25 Q335.4 218.35 334.55 226.8 L333.45 236.15 Q331.75 248.8 329.1 255.75 326.4 262.6 323.85 267.65 322.85 269.45 323.2 271.8 L325.8 275.75 Q326.85 277.25 328.25 277.8 331.65 278.0 335.05 278.1 L334.5 281.8 Q314.8 289.0 294.7 294.75 L292.5 291.1 Q286.35 280.75 282.45 261.85 281.05 255.0 279.9 247.95 277.9 235.3 276.75 221.8 L275.6 220.65 274.1 220.8 272.4 230.95 271.85 233.9 271.3 237.9 271.3 238.4 271.2 239.25 270.9 242.4 Q268.8 262.9 260.85 282.0 256.0 293.65 249.0 304.3 L247.8 306.1 Q227.75 310.15 207.5 312.85 L205.25 309.15 Q201.4 302.7 199.0 290.95 L197.4 282.25 Q196.15 274.4 195.45 265.95 L194.75 265.25 193.8 265.35 192.75 271.65 192.4 273.45 192.05 275.9 192.05 276.25 192.0 276.75 191.8 278.7 Q190.5 291.4 185.55 303.3 182.8 309.85 179.0 315.9 L146.5 317.95 139.65 318.15 139.5 317.4 137.8 308.2 Q136.5 299.85 135.7 290.9 L134.95 290.15 133.95 290.25 132.85 296.95 132.5 298.85 132.15 301.45 132.1 301.8 132.05 302.35 131.85 304.4 Q131.1 311.4 129.4 318.15 L91.65 316.8 90.15 311.75 Q98.5 312.65 106.5 311.35 109.8 310.65 112.3 308.75 L118.65 303.85 Q119.35 300.9 117.05 298.6 110.9 292.35 104.5 283.65 101.3 279.3 98.65 273.1 96.05 267.0 94.05 259.15 92.6 253.4 91.4 247.45 L90.05 240.0 Q88.9 232.95 88.1 225.55 L86.9 224.6 85.35 224.7 83.6 233.2 83.0 235.65 82.45 239.0 82.4 239.4 82.35 240.0 82.35 240.1 82.05 242.75 Q79.95 258.95 72.45 274.15 L71.55 275.95 Q64.8 288.9 54.2 300.45 L54.9 301.05 55.45 301.55 56.15 301.8 Q57.1 301.7 58.9 303.45 60.4 302.9 62.85 304.2 70.8 308.5 80.3 310.4 L80.3 312.45 80.05 314.4 79.65 315.7 Q64.85 314.25 50.15 311.9 50.25 310.5 49.35 309.4 46.5 305.75 43.55 300.75 40.55 295.75 38.7 286.6 38.0 283.3 37.45 279.85 L36.65 274.0 35.95 267.2 35.4 266.65 34.65 266.75 33.85 271.65 33.6 273.05 33.5 274.0 33.3 274.95 33.3 275.2 33.25 275.6 33.1 277.1 Q32.1 287.0 28.25 296.25 26.0 301.65 22.85 306.6 11.1 303.75 0.0 299.75" fill="#9cd6fa" fill-rule="evenodd" stroke="none"/>
      <path d="M0.0 299.75 Q11.1 303.75 22.85 306.6 26.0 301.65 28.25 296.25 32.1 287.0 33.1 277.1 L33.25 275.6 33.3 275.2 33.3 274.95 33.5 274.0 33.6 273.05 33.85 271.65 34.65 266.75 35.4 266.65 35.95 267.2 36.65 274.0 37.45 279.85 Q38.0 283.3 38.7 286.6 40.55 295.75 43.55 300.75 46.5 305.75 49.35 309.4 50.25 310.5 50.15 311.9 64.85 314.25 79.65 315.7 L80.05 314.4 80.3 312.45 80.3 310.4 Q70.8 308.5 62.85 304.2 60.4 302.9 58.9 303.45 57.1 301.7 56.15 301.8 L55.45 301.55 54.9 301.05 54.2 300.45 Q64.8 288.9 71.55 275.95 L72.45 274.15 Q79.95 258.95 82.05 242.75 L82.35 240.1 82.35 240.0 82.4 239.4 82.45 239.0 83.0 235.65 83.6 233.2 85.35 224.7 86.9 224.6 88.1 225.55 Q88.9 232.95 90.05 240.0 L91.4 247.45 Q92.6 253.4 94.05 259.15 96.05 267.0 98.65 273.1 101.3 279.3 104.5 283.65 110.9 292.35 117.05 298.6 119.35 300.9 118.65 303.85 L112.3 308.75 Q109.8 310.65 106.5 311.35 98.5 312.65 90.15 311.75 L91.65 316.8 129.4 318.15 Q131.1 311.4 131.85 304.4 L132.05 302.35 132.1 301.8 132.15 301.45 132.5 298.85 132.85 296.95 133.95 290.25 134.95 290.15 135.7 290.9 Q136.5 299.85 137.8 308.2 L139.5 317.4 139.65 318.15 146.5 317.95 179.0 315.9 Q182.8 309.85 185.55 303.3 190.5 291.4 191.8 278.7 L192.0 276.75 192.05 276.25 192.05 275.9 192.4 273.45 192.75 271.65 193.8 265.35 194.75 265.25 195.45 265.95 Q196.15 274.4 197.4 282.25 L199.0 290.95 Q201.4 302.7 205.25 309.15 L207.5 312.85 Q227.75 310.15 247.8 306.1 L249.0 304.3 Q256.0 293.65 260.85 282.0 268.8 262.9 270.9 242.4 L271.2 239.25 271.3 238.4 271.3 237.9 271.85 233.9 272.4 230.95 274.1 220.8 275.6 220.65 276.75 221.8 Q277.9 235.3 279.9 247.95 281.05 255.0 282.45 261.85 286.35 280.75 292.5 291.1 L294.7 294.75 Q314.8 289.0 334.5 281.8 L335.05 278.1 Q331.65 278.0 328.25 277.8 326.85 277.25 325.8 275.75 L323.2 271.8 Q322.85 269.45 323.85 267.65 326.4 262.6 329.1 255.75 331.75 248.8 333.45 236.15 L334.55 226.8 Q335.4 218.35 335.9 209.25 L336.4 208.5 337.05 208.6 Q337.4 212.0 337.8 215.4 L338.05 217.35 338.25 220.0 338.3 220.35 338.3 220.9 338.45 223.0 Q339.35 236.65 342.85 249.45 345.6 259.8 350.05 269.05 L349.75 269.5 349.55 269.9 349.25 270.1 Q348.85 270.05 348.1 271.45 347.45 271.0 346.45 272.05 343.1 275.5 339.2 277.0 L339.2 278.65 339.25 279.95 Q357.75 272.95 375.85 264.6 378.95 263.2 382.1 261.75 382.1 260.1 383.2 258.7 387.1 253.75 391.15 246.95 395.2 240.15 397.8 227.65 L399.45 218.45 Q400.75 210.1 401.55 201.15 L402.3 200.4 403.3 200.5 404.4 207.2 404.8 209.1 405.15 211.7 405.15 212.05 405.2 212.6 405.4 214.65 Q406.8 228.15 412.05 240.75 L414.8 246.7 436.95 236.5 451.6 229.75 453.4 228.95 Q458.7 223.0 462.4 216.55 468.25 206.1 469.85 195.0 L470.1 193.3 470.15 192.85 470.15 192.55 470.55 190.4 471.0 188.85 472.2 183.3 473.35 183.25 474.2 183.85 Q475.05 191.2 476.55 198.05 477.35 201.95 478.4 205.7 480.0 211.45 482.15 215.8 L484.3 214.8 Q505.0 205.25 526.4 197.85 528.1 191.25 528.8 184.45 L529.0 182.4 529.05 181.85 529.1 181.5 529.45 178.9 529.8 177.0 530.9 170.3 531.9 170.2 532.65 170.95 Q533.45 179.9 534.75 188.25 L535.9 194.75 Q550.55 190.0 565.55 186.25 570.65 178.65 574.15 170.25 579.4 157.65 580.8 144.15 L581.0 142.1 581.05 141.55 581.1 141.2 581.45 138.6 581.8 136.7 582.9 130.0 583.9 129.9 584.65 130.65 Q585.45 139.6 586.75 147.95 L588.45 157.15 Q591.0 169.65 595.05 176.45 L597.0 179.6 612.15 177.1 612.15 413.6 0.0 413.6 0.0 300.2" ffdec:has-small-stroke="true" ffdec:original-stroke-width="0.0" fill="none" stroke="#000000" stroke-linecap="round" stroke-linejoin="round" stroke-opacity="0.0" stroke-width="1.0"/>
    </g>
  </defs>
</svg>
