<?xml version="1.0" encoding="UTF-8" standalone="no"?>
<svg xmlns:ffdec="https://www.free-decompiler.com/flash" xmlns:xlink="http://www.w3.org/1999/xlink" ffdec:objectType="frame" height="434.1px" width="621.95px" xmlns="http://www.w3.org/2000/svg">
  <g transform="matrix(1.0, 0.0, 0.0, 1.0, 3.0, 0.0)">
    <use ffdec:characterId="246" height="135.45" transform="matrix(1.0, 0.0, 0.0, 1.0, 0.0, 0.0)" width="612.15" xlink:href="#morphshape0"/>
    <use ffdec:characterId="247" height="329.65" transform="matrix(1.0, 0.0, 0.0, 1.0, -3.0, 43.3)" width="621.95" xlink:href="#morphshape1"/>
    <use ffdec:characterId="248" height="332.95" transform="matrix(1.0, 0.0, 0.0, 1.0, 0.0, 101.15)" width="612.15" xlink:href="#morphshape2"/>
  </g>
  <defs>
    <g id="morphshape0" transform="matrix(1.0, 0.0, 0.0, 1.0, 0.0, 0.0)">
      <path d="M0.0 0.0 L0.0 88.05 0.5 87.9 Q15.85 84.45 31.5 81.7 52.0 78.15 72.7 76.0 110.2 72.1 148.35 72.85 L151.85 73.05 180.35 76.0 Q215.0 80.4 249.0 88.6 267.15 92.95 285.05 98.4 318.6 107.05 351.35 117.55 365.7 122.15 380.05 125.4 408.4 130.4 436.95 133.85 L449.85 135.3 448.2 130.95 446.6 125.8 Q445.0 120.7 444.25 115.65 L441.4 115.6 436.95 114.95 Q424.9 112.25 421.15 99.85 419.7 95.0 420.85 90.3 423.05 81.45 428.2 76.0 435.2 68.6 447.7 67.35 453.05 66.5 457.65 68.1 463.1 62.0 469.1 56.35 482.0 44.1 501.25 43.45 504.25 43.0 507.6 44.05 511.3 45.15 514.85 46.7 532.75 54.55 542.35 68.9 547.4 66.2 553.95 65.35 569.0 66.75 574.15 81.95 575.5 85.95 574.35 89.95 568.7 109.85 548.25 111.95 L545.5 111.75 544.15 111.35 544.0 111.65 Q544.5 114.1 543.95 117.25 L542.55 124.45 Q541.3 130.2 538.85 135.45 L555.45 133.25 612.15 125.55 612.15 0.0 0.0 0.0" fill="#d3edfe" fill-rule="evenodd" stroke="none"/>
      <path d="M0.0 0.0 L612.15 0.0 612.15 125.55 555.45 133.25 538.85 135.45 Q541.3 130.2 542.55 124.45 L543.95 117.25 Q544.5 114.1 544.0 111.65 L544.15 111.35 545.5 111.75 548.25 111.95 Q568.7 109.85 574.35 89.95 575.5 85.95 574.15 81.95 569.0 66.75 553.95 65.35 547.4 66.2 542.35 68.9 532.75 54.55 514.85 46.7 511.3 45.15 507.6 44.05 504.25 43.0 501.25 43.45 482.0 44.1 469.1 56.35 463.1 62.0 457.65 68.1 453.05 66.5 447.7 67.35 435.2 68.6 428.2 76.0 423.05 81.45 420.85 90.3 419.7 95.0 421.15 99.85 424.9 112.25 436.95 114.95 L441.4 115.6 444.25 115.65 Q445.0 120.7 446.6 125.8 L448.2 130.95 449.85 135.3 436.95 133.85 Q408.4 130.4 380.05 125.4 365.7 122.15 351.35 117.55 318.6 107.05 285.05 98.4 267.15 92.95 249.0 88.6 215.0 80.4 180.35 76.0 L151.85 73.05 148.35 72.85 Q110.2 72.1 72.7 76.0 52.0 78.15 31.5 81.7 15.85 84.45 0.5 87.9 L0.0 88.05 0.0 0.0 Z" ffdec:has-small-stroke="true" ffdec:original-stroke-width="0.0" fill="none" stroke="#000000" stroke-linecap="round" stroke-linejoin="round" stroke-opacity="0.0" stroke-width="1.0"/>
    </g>
    <g id="morphshape1" transform="matrix(1.0, 0.0, 0.0, 1.0, 3.0, -43.3)">
      <path d="M-3.0 192.0 L-3.0 372.95 613.95 372.95 613.95 232.0 618.95 232.0 618.95 148.0 612.15 148.0 612.15 125.55 555.45 133.25 538.85 135.45 Q541.3 130.2 542.55 124.45 L543.95 117.25 Q544.5 114.1 544.0 111.65 L544.15 111.35 545.5 111.75 548.25 111.95 Q568.7 109.85 574.35 89.95 575.5 85.95 574.15 81.95 569.0 66.75 553.95 65.35 547.4 66.2 542.35 68.9 532.75 54.55 514.85 46.7 511.3 45.15 507.6 44.05 504.25 43.0 501.25 43.45 482.0 44.1 469.1 56.35 463.1 62.0 457.65 68.1 453.05 66.5 447.7 67.35 435.2 68.6 428.2 76.0 423.05 81.45 420.85 90.3 419.7 95.0 421.15 99.85 424.9 112.25 436.95 114.95 L441.4 115.6 444.25 115.65 Q445.0 120.7 446.6 125.8 L448.2 130.95 449.85 135.3 436.95 133.85 Q408.4 130.4 380.05 125.4 365.7 122.15 351.35 117.55 318.6 107.05 285.05 98.4 267.15 92.95 249.0 88.6 215.0 80.4 180.35 76.0 L151.85 73.05 148.35 72.85 Q110.2 72.1 72.7 76.0 52.0 78.15 31.5 81.7 15.85 84.45 0.5 87.9 L0.0 88.05 0.0 192.0 -3.0 192.0" fill="#c1e6fe" fill-rule="evenodd" stroke="none"/>
      <path d="M-3.0 192.0 L0.0 192.0 0.0 88.05 0.5 87.9 Q15.85 84.45 31.5 81.7 52.0 78.15 72.7 76.0 110.2 72.1 148.35 72.85 L151.85 73.05 180.35 76.0 Q215.0 80.4 249.0 88.6 267.15 92.95 285.05 98.4 318.6 107.05 351.35 117.55 365.7 122.15 380.05 125.4 408.4 130.4 436.95 133.85 L449.85 135.3 448.2 130.95 446.6 125.8 Q445.0 120.7 444.25 115.65 L441.4 115.6 436.95 114.95 Q424.9 112.25 421.15 99.85 419.7 95.0 420.85 90.3 423.05 81.45 428.2 76.0 435.2 68.6 447.7 67.35 453.05 66.5 457.65 68.1 463.1 62.0 469.1 56.35 482.0 44.1 501.25 43.45 504.25 43.0 507.6 44.05 511.3 45.15 514.85 46.7 532.75 54.55 542.35 68.9 547.4 66.2 553.95 65.35 569.0 66.75 574.15 81.95 575.5 85.95 574.35 89.95 568.7 109.85 548.25 111.95 L545.5 111.75 544.15 111.35 544.0 111.65 Q544.5 114.1 543.95 117.25 L542.55 124.45 Q541.3 130.2 538.85 135.45 L555.45 133.25 612.15 125.55 612.15 148.0 618.95 148.0 618.95 232.0 613.95 232.0 613.95 372.95 -3.0 372.95 -3.0 192.0 Z" ffdec:has-small-stroke="true" ffdec:original-stroke-width="0.0" fill="none" stroke="#000000" stroke-linecap="round" stroke-linejoin="round" stroke-opacity="0.0" stroke-width="1.0"/>
    </g>
    <g id="morphshape2" transform="matrix(1.0, 0.0, 0.0, 1.0, 0.0, -101.15)">
      <path d="M0.0 299.8 L0.0 412.8 612.15 412.8 612.15 177.25 597.0 179.75 595.05 176.65 Q591.0 169.85 588.45 157.4 L586.75 148.25 Q585.45 139.9 584.65 131.0 L583.9 130.25 582.9 130.35 581.8 137.05 581.45 138.95 581.1 141.55 581.05 141.9 581.0 142.45 580.8 144.5 Q579.4 157.95 574.15 170.5 570.65 178.85 565.55 186.45 550.55 190.15 535.9 194.85 L534.75 188.35 Q533.45 180.0 532.65 171.1 L531.9 170.35 530.9 170.45 529.8 177.15 529.45 179.05 529.1 181.65 529.05 182.0 529.0 182.55 528.8 184.6 Q528.1 191.4 526.4 198.0 505.0 205.4 484.3 214.9 L482.15 215.9 Q480.0 211.6 478.4 205.85 477.35 202.15 476.55 198.3 475.05 191.45 474.2 184.1 L473.35 183.5 472.2 183.55 471.0 189.1 470.55 190.65 470.15 192.8 470.15 193.1 470.1 193.55 469.85 195.25 Q468.25 206.3 462.4 216.7 458.7 223.15 453.4 229.1 L451.6 229.9 436.95 236.65 414.8 246.8 412.05 240.85 Q406.8 228.3 405.4 214.85 L405.2 212.8 405.15 212.25 405.15 211.9 404.8 209.3 404.4 207.4 403.3 200.7 402.3 200.6 401.55 201.35 Q400.75 210.25 399.45 218.6 L397.8 227.75 Q395.2 240.2 391.15 247.0 387.1 253.8 383.2 258.7 382.1 260.1 382.1 261.75 378.95 263.2 375.85 264.6 357.75 272.9 339.25 279.9 L339.2 278.6 339.2 276.95 Q343.1 275.45 346.45 272.05 347.45 271.0 348.1 271.45 348.85 270.05 349.25 270.1 L349.55 269.9 349.75 269.5 350.05 269.05 Q345.6 259.85 342.85 249.55 339.35 236.8 338.45 223.2 L338.3 221.1 338.3 220.55 338.25 220.2 338.05 217.55 337.8 215.6 Q337.4 212.25 337.05 208.9 L336.4 208.8 335.9 209.55 Q335.4 218.6 334.55 227.0 L333.45 236.3 Q331.75 248.9 329.1 255.85 326.4 262.7 323.85 267.7 322.85 269.5 323.2 271.85 L325.8 275.75 Q326.85 277.25 328.25 277.8 331.65 278.0 335.05 278.1 L334.5 281.75 Q314.8 288.95 294.7 294.7 L292.5 291.1 Q286.35 280.8 282.45 261.95 281.05 255.1 279.9 248.05 277.9 235.45 276.75 222.0 L275.6 220.85 274.1 221.0 272.4 231.1 271.85 234.0 271.3 237.95 271.3 238.45 271.2 239.3 270.9 242.4 Q268.8 262.8 260.85 281.85 256.0 293.45 249.0 304.05 L247.8 305.85 Q227.75 309.85 207.5 312.55 L205.25 308.9 Q201.4 302.45 199.0 290.75 L197.4 282.1 Q196.15 274.25 195.45 265.85 L194.75 265.15 193.8 265.25 192.75 271.55 192.4 273.35 192.05 275.8 192.05 276.15 192.0 276.65 191.8 278.6 Q190.5 291.25 185.55 303.1 182.8 309.65 179.0 315.7 L146.5 317.75 139.65 317.95 139.5 317.2 137.8 308.05 Q136.5 299.7 135.7 290.8 L134.95 290.05 133.95 290.15 132.85 296.85 132.5 298.75 132.15 301.35 132.1 301.7 132.05 302.25 131.85 304.3 Q131.1 311.3 129.4 318.05 L91.65 316.7 90.15 311.7 Q98.5 312.6 106.5 311.3 109.8 310.6 112.3 308.7 L118.65 303.8 Q119.35 300.85 117.05 298.55 110.9 292.3 104.5 283.65 101.3 279.35 98.65 273.15 96.05 267.05 94.05 259.2 92.6 253.45 91.4 247.5 L90.05 240.05 Q88.9 233.0 88.1 225.6 L86.9 224.65 85.35 224.75 83.6 233.25 83.0 235.7 82.45 239.0 82.4 239.4 82.35 240.0 82.35 240.1 82.05 242.75 Q79.95 258.9 72.45 274.05 L71.55 275.85 Q64.8 288.75 54.2 300.25 L54.9 300.85 55.45 301.35 56.15 301.6 Q57.1 301.5 58.9 303.25 60.4 302.7 62.85 304.0 70.8 308.25 80.3 310.15 L80.3 312.2 80.05 314.15 79.65 315.45 Q64.85 314.0 50.15 311.65 50.25 310.25 49.35 309.15 46.5 305.55 43.55 300.6 40.55 295.65 38.7 286.55 38.0 283.3 37.45 279.9 L36.65 274.05 35.95 267.25 35.4 266.7 34.65 266.8 33.85 271.65 33.6 273.05 33.5 274.0 33.3 274.95 33.3 275.2 33.25 275.6 33.1 277.1 Q32.1 286.95 28.25 296.15 26.0 301.55 22.85 306.5 11.1 303.7 0.0 299.75" fill="#9ad6fc" fill-rule="evenodd" stroke="none"/>
      <path d="M0.0 299.75 Q11.1 303.7 22.85 306.5 26.0 301.55 28.25 296.15 32.1 286.95 33.1 277.1 L33.25 275.6 33.3 275.2 33.3 274.95 33.5 274.0 33.6 273.05 33.85 271.65 34.65 266.8 35.4 266.7 35.95 267.25 36.65 274.05 37.45 279.9 Q38.0 283.3 38.7 286.55 40.55 295.65 43.55 300.6 46.5 305.55 49.35 309.15 50.25 310.25 50.15 311.65 64.85 314.0 79.65 315.45 L80.05 314.15 80.3 312.2 80.3 310.15 Q70.8 308.25 62.85 304.0 60.4 302.7 58.9 303.25 57.1 301.5 56.15 301.6 L55.45 301.35 54.9 300.85 54.2 300.25 Q64.8 288.75 71.55 275.85 L72.45 274.05 Q79.95 258.9 82.05 242.75 L82.35 240.1 82.35 240.0 82.4 239.4 82.45 239.0 83.0 235.7 83.6 233.25 85.35 224.75 86.9 224.65 88.1 225.6 Q88.9 233.0 90.05 240.05 L91.4 247.5 Q92.6 253.45 94.05 259.2 96.05 267.05 98.65 273.15 101.3 279.35 104.5 283.65 110.9 292.3 117.05 298.55 119.35 300.85 118.65 303.8 L112.3 308.7 Q109.8 310.6 106.5 311.3 98.5 312.6 90.15 311.7 L91.65 316.7 129.4 318.05 Q131.1 311.3 131.85 304.3 L132.05 302.25 132.1 301.7 132.15 301.35 132.5 298.75 132.85 296.85 133.95 290.15 134.95 290.05 135.7 290.8 Q136.5 299.7 137.8 308.05 L139.5 317.2 139.65 317.95 146.5 317.75 179.0 315.7 Q182.8 309.65 185.55 303.1 190.5 291.25 191.8 278.6 L192.0 276.65 192.05 276.15 192.05 275.8 192.4 273.35 192.75 271.55 193.8 265.25 194.75 265.15 195.45 265.85 Q196.15 274.25 197.4 282.1 L199.0 290.75 Q201.4 302.45 205.25 308.9 L207.5 312.55 Q227.75 309.85 247.8 305.85 L249.0 304.05 Q256.0 293.45 260.85 281.85 268.8 262.8 270.9 242.4 L271.2 239.3 271.3 238.45 271.3 237.95 271.85 234.0 272.4 231.1 274.1 221.0 275.6 220.85 276.75 222.0 Q277.9 235.45 279.9 248.05 281.05 255.1 282.45 261.95 286.35 280.8 292.5 291.1 L294.7 294.7 Q314.8 288.95 334.5 281.75 L335.05 278.1 Q331.65 278.0 328.25 277.8 326.85 277.25 325.8 275.75 L323.2 271.85 Q322.85 269.5 323.85 267.7 326.4 262.7 329.1 255.85 331.75 248.9 333.45 236.3 L334.55 227.0 Q335.4 218.6 335.9 209.55 L336.4 208.8 337.05 208.9 Q337.4 212.25 337.8 215.6 L338.05 217.55 338.25 220.2 338.3 220.55 338.3 221.1 338.45 223.2 Q339.35 236.8 342.85 249.55 345.6 259.85 350.05 269.05 L349.75 269.5 349.55 269.9 349.25 270.1 Q348.85 270.05 348.1 271.45 347.45 271.0 346.45 272.05 343.1 275.45 339.2 276.95 L339.2 278.6 339.25 279.9 Q357.75 272.9 375.85 264.6 378.95 263.2 382.1 261.75 382.1 260.1 383.2 258.7 387.1 253.8 391.15 247.0 395.2 240.2 397.8 227.75 L399.45 218.6 Q400.75 210.25 401.55 201.35 L402.3 200.6 403.3 200.7 404.4 207.4 404.8 209.3 405.15 211.9 405.15 212.25 405.2 212.8 405.4 214.85 Q406.8 228.3 412.05 240.85 L414.8 246.8 436.95 236.65 451.6 229.9 453.4 229.1 Q458.7 223.15 462.4 216.7 468.25 206.3 469.85 195.25 L470.1 193.55 470.15 193.1 470.15 192.8 470.55 190.65 471.0 189.1 472.2 183.55 473.35 183.5 474.2 184.1 Q475.05 191.45 476.55 198.3 477.35 202.15 478.4 205.85 480.0 211.6 482.15 215.9 L484.3 214.9 Q505.0 205.4 526.4 198.0 528.1 191.4 528.8 184.6 L529.0 182.55 529.05 182.0 529.1 181.65 529.45 179.05 529.8 177.15 530.9 170.45 531.9 170.35 532.65 171.1 Q533.45 180.0 534.75 188.35 L535.9 194.85 Q550.55 190.15 565.55 186.45 570.65 178.85 574.15 170.5 579.4 157.95 580.8 144.5 L581.0 142.45 581.05 141.9 581.1 141.55 581.45 138.95 581.8 137.05 582.9 130.35 583.9 130.25 584.65 131.0 Q585.45 139.9 586.75 148.25 L588.45 157.4 Q591.0 169.85 595.05 176.65 L597.0 179.75 612.15 177.25 612.15 412.8 0.0 412.8 0.0 299.8" ffdec:has-small-stroke="true" ffdec:original-stroke-width="0.0" fill="none" stroke="#000000" stroke-linecap="round" stroke-linejoin="round" stroke-opacity="0.0" stroke-width="1.0"/>
    </g>
  </defs>
</svg>
