<?xml version="1.0" encoding="UTF-8" standalone="no"?>
<svg xmlns:ffdec="https://www.free-decompiler.com/flash" xmlns:xlink="http://www.w3.org/1999/xlink" ffdec:objectType="frame" height="434.1px" width="621.95px" xmlns="http://www.w3.org/2000/svg">
  <g transform="matrix(1.0, 0.0, 0.0, 1.0, 3.0, 0.0)">
    <use ffdec:characterId="246" height="135.45" transform="matrix(1.0, 0.0, 0.0, 1.0, 0.0, 0.0)" width="612.15" xlink:href="#morphshape0"/>
    <use ffdec:characterId="247" height="329.65" transform="matrix(1.0, 0.0, 0.0, 1.0, -3.0, 43.3)" width="621.95" xlink:href="#morphshape1"/>
    <use ffdec:characterId="248" height="332.95" transform="matrix(1.0, 0.0, 0.0, 1.0, 0.0, 101.15)" width="612.15" xlink:href="#morphshape2"/>
  </g>
  <defs>
    <g id="morphshape0" transform="matrix(1.0, 0.0, 0.0, 1.0, 0.0, 0.0)">
      <path d="M0.0 0.0 L0.0 88.05 0.5 87.9 Q15.85 84.45 31.5 81.7 52.0 78.15 72.7 76.0 110.2 72.1 148.35 72.85 L151.85 73.05 180.35 76.0 Q215.0 80.4 249.0 88.6 267.15 92.95 285.05 98.4 318.6 107.05 351.35 117.55 365.7 122.15 380.05 125.4 408.4 130.4 436.95 133.85 L449.85 135.3 448.2 130.95 446.6 125.8 Q445.0 120.7 444.25 115.65 L441.4 115.6 436.95 114.95 Q424.9 112.25 421.15 99.85 419.7 95.0 420.85 90.3 423.05 81.45 428.2 76.0 435.2 68.6 447.7 67.35 453.05 66.5 457.65 68.1 463.1 62.0 469.1 56.35 482.0 44.1 501.25 43.45 504.25 43.0 507.6 44.05 511.3 45.15 514.85 46.7 532.75 54.55 542.35 68.9 547.4 66.2 553.95 65.35 569.0 66.75 574.15 81.95 575.5 85.95 574.35 89.95 568.7 109.85 548.25 111.95 L545.5 111.75 544.15 111.35 544.0 111.65 Q544.5 114.1 543.95 117.25 L542.55 124.45 Q541.3 130.2 538.85 135.45 L555.45 133.25 612.15 125.55 612.15 0.0 0.0 0.0" fill="#d3edff" fill-rule="evenodd" stroke="none"/>
      <path d="M0.0 0.0 L612.15 0.0 612.15 125.55 555.45 133.25 538.85 135.45 Q541.3 130.2 542.55 124.45 L543.95 117.25 Q544.5 114.1 544.0 111.65 L544.15 111.35 545.5 111.75 548.25 111.95 Q568.7 109.85 574.35 89.95 575.5 85.95 574.15 81.95 569.0 66.75 553.95 65.35 547.4 66.2 542.35 68.9 532.75 54.55 514.85 46.7 511.3 45.15 507.6 44.05 504.25 43.0 501.25 43.45 482.0 44.1 469.1 56.35 463.1 62.0 457.65 68.1 453.05 66.5 447.7 67.35 435.2 68.6 428.2 76.0 423.05 81.45 420.85 90.3 419.7 95.0 421.15 99.85 424.9 112.25 436.95 114.95 L441.4 115.6 444.25 115.65 Q445.0 120.7 446.6 125.8 L448.2 130.95 449.85 135.3 436.95 133.85 Q408.4 130.4 380.05 125.4 365.7 122.15 351.35 117.55 318.6 107.05 285.05 98.4 267.15 92.95 249.0 88.6 215.0 80.4 180.35 76.0 L151.85 73.05 148.35 72.85 Q110.2 72.1 72.7 76.0 52.0 78.15 31.5 81.7 15.85 84.45 0.5 87.9 L0.0 88.05 0.0 0.0 Z" ffdec:has-small-stroke="true" ffdec:original-stroke-width="0.0" fill="none" stroke="#000000" stroke-linecap="round" stroke-linejoin="round" stroke-opacity="0.0" stroke-width="1.0"/>
    </g>
    <g id="morphshape1" transform="matrix(1.0, 0.0, 0.0, 1.0, 3.0, -43.3)">
      <path d="M-3.0 192.0 L-3.0 372.95 613.95 372.95 613.95 232.0 618.95 232.0 618.95 148.0 612.15 148.0 612.15 125.55 555.45 133.25 538.85 135.45 Q541.3 130.2 542.55 124.45 L543.95 117.25 Q544.5 114.1 544.0 111.65 L544.15 111.35 545.5 111.75 548.25 111.95 Q568.7 109.85 574.35 89.95 575.5 85.95 574.15 81.95 569.0 66.75 553.95 65.35 547.4 66.2 542.35 68.9 532.75 54.55 514.85 46.7 511.3 45.15 507.6 44.05 504.25 43.0 501.25 43.45 482.0 44.1 469.1 56.35 463.1 62.0 457.65 68.1 453.05 66.5 447.7 67.35 435.2 68.6 428.2 76.0 423.05 81.45 420.85 90.3 419.7 95.0 421.15 99.85 424.9 112.25 436.95 114.95 L441.4 115.6 444.25 115.65 Q445.0 120.7 446.6 125.8 L448.2 130.95 449.85 135.3 436.95 133.85 Q408.4 130.4 380.05 125.4 365.7 122.15 351.35 117.55 318.6 107.05 285.05 98.4 267.15 92.95 249.0 88.6 215.0 80.4 180.35 76.0 L151.85 73.05 148.35 72.85 Q110.2 72.1 72.7 76.0 52.0 78.15 31.5 81.7 15.85 84.45 0.5 87.9 L0.0 88.05 0.0 192.0 -3.0 192.0" fill="#c0e6ff" fill-rule="evenodd" stroke="none"/>
      <path d="M-3.0 192.0 L0.0 192.0 0.0 88.05 0.5 87.9 Q15.85 84.45 31.5 81.7 52.0 78.15 72.7 76.0 110.2 72.1 148.35 72.85 L151.85 73.05 180.35 76.0 Q215.0 80.4 249.0 88.6 267.15 92.95 285.05 98.4 318.6 107.05 351.35 117.55 365.7 122.15 380.05 125.4 408.4 130.4 436.95 133.85 L449.85 135.3 448.2 130.95 446.6 125.8 Q445.0 120.7 444.25 115.65 L441.4 115.6 436.95 114.95 Q424.9 112.25 421.15 99.85 419.7 95.0 420.85 90.3 423.05 81.45 428.2 76.0 435.2 68.6 447.7 67.35 453.05 66.5 457.65 68.1 463.1 62.0 469.1 56.35 482.0 44.1 501.25 43.45 504.25 43.0 507.6 44.05 511.3 45.15 514.85 46.7 532.75 54.55 542.35 68.9 547.4 66.2 553.95 65.35 569.0 66.75 574.15 81.95 575.5 85.95 574.35 89.95 568.7 109.85 548.25 111.95 L545.5 111.75 544.15 111.35 544.0 111.65 Q544.5 114.1 543.95 117.25 L542.55 124.45 Q541.3 130.2 538.85 135.45 L555.45 133.25 612.15 125.55 612.15 148.0 618.95 148.0 618.95 232.0 613.95 232.0 613.95 372.95 -3.0 372.95 -3.0 192.0 Z" ffdec:has-small-stroke="true" ffdec:original-stroke-width="0.0" fill="none" stroke="#000000" stroke-linecap="round" stroke-linejoin="round" stroke-opacity="0.0" stroke-width="1.0"/>
    </g>
    <g id="morphshape2" transform="matrix(1.0, 0.0, 0.0, 1.0, 0.0, -101.15)">
      <path d="M0.0 299.75 L0.0 412.4 612.15 412.4 612.15 177.5 597.0 180.0 595.05 176.9 Q591.0 170.15 588.45 157.7 L586.75 148.6 Q585.45 140.3 584.65 131.45 L583.9 130.7 582.9 130.8 581.8 137.45 581.45 139.35 581.1 141.95 581.05 142.3 581.0 142.85 580.8 144.9 Q579.4 158.35 574.15 170.9 570.65 179.2 565.55 186.75 550.55 190.45 535.9 195.15 L534.75 188.7 Q533.45 180.4 532.65 171.55 L531.9 170.8 530.9 170.9 529.8 177.55 529.45 179.45 529.1 182.05 529.05 182.4 529.0 182.95 528.8 185.0 Q528.1 191.75 526.4 198.3 505.0 205.65 484.3 215.1 L482.15 216.1 Q480.0 211.8 478.4 206.1 477.35 202.4 476.55 198.55 475.05 191.75 474.2 184.45 L473.35 183.85 472.2 183.9 471.0 189.4 470.55 190.95 470.15 193.1 470.15 193.4 470.1 193.85 469.85 195.55 Q468.25 206.6 462.4 216.95 458.7 223.35 453.4 229.25 L451.6 230.05 436.95 236.75 414.8 246.85 412.05 240.95 Q406.8 228.4 405.4 214.95 L405.2 212.9 405.15 212.35 405.15 212.0 404.8 209.4 404.4 207.5 403.3 200.85 402.3 200.75 401.55 201.5 Q400.75 210.35 399.45 218.65 L397.8 227.75 Q395.2 240.2 391.15 246.95 387.1 253.7 383.2 258.6 382.1 260.0 382.1 261.65 378.95 263.1 375.85 264.5 357.75 272.75 339.25 279.7 L339.2 278.4 339.2 276.75 Q343.1 275.25 346.45 271.85 347.45 270.8 348.1 271.25 348.85 269.85 349.25 269.9 L349.55 269.7 349.75 269.3 350.05 268.85 Q345.6 259.7 342.85 249.45 339.35 236.7 338.45 223.1 L338.3 221.0 338.3 220.45 338.25 220.1 338.05 217.45 337.8 215.5 Q337.4 212.15 337.05 208.8 L336.4 208.7 335.9 209.45 Q335.4 218.45 334.55 226.8 L333.45 236.05 Q331.75 248.65 329.1 255.55 326.4 262.35 323.85 267.35 322.85 269.15 323.2 271.5 L325.8 275.4 Q326.85 276.9 328.25 277.45 331.65 277.6 335.05 277.75 L334.5 281.4 Q314.8 288.55 294.7 294.25 L292.5 290.65 Q286.35 280.4 282.45 261.6 281.05 254.8 279.9 247.8 277.9 235.2 276.75 221.75 L275.6 220.6 274.1 220.75 272.4 230.8 271.85 233.7 271.3 237.65 271.3 238.15 271.2 239.0 270.9 242.1 Q268.8 262.45 260.85 281.45 256.0 293.05 249.0 303.6 L247.8 305.4 Q227.75 309.4 207.5 312.1 L205.25 308.45 Q201.4 302.05 199.0 290.35 L197.4 281.75 Q196.15 273.95 195.45 265.6 L194.75 264.9 193.8 265.0 192.75 271.25 192.4 273.05 192.05 275.5 192.05 275.85 192.0 276.35 191.8 278.3 Q190.5 290.95 185.55 302.8 182.8 309.3 179.0 315.3 L146.5 317.35 139.65 317.55 139.5 316.8 137.8 307.7 Q136.5 299.4 135.7 290.55 L134.95 289.8 133.95 289.9 132.85 296.55 132.5 298.45 132.15 301.05 132.1 301.4 132.05 301.95 131.85 304.0 Q131.1 310.95 129.4 317.65 L91.65 316.3 90.15 311.3 Q98.5 312.2 106.5 310.9 109.8 310.2 112.3 308.3 L118.65 303.45 Q119.35 300.5 117.05 298.2 110.9 292.0 104.5 283.4 101.3 279.1 98.65 272.95 96.05 266.9 94.05 259.1 92.6 253.4 91.4 247.5 L90.05 240.1 Q88.9 233.1 88.1 225.75 L86.9 224.8 85.35 224.9 83.6 233.35 83.0 235.8 82.45 239.1 82.4 239.5 82.35 240.1 82.35 240.2 82.05 242.85 Q79.95 258.95 72.45 274.05 L71.55 275.85 Q64.8 288.75 54.2 300.25 L54.9 300.85 55.45 301.35 56.15 301.6 Q57.1 301.5 58.9 303.25 60.4 302.7 62.85 304.0 70.8 308.25 80.3 310.15 L80.3 312.2 80.05 314.15 79.65 315.45 Q64.85 314.0 50.15 311.65 50.25 310.25 49.35 309.15 46.5 305.55 43.55 300.6 40.55 295.65 38.7 286.6 38.0 283.35 37.45 279.95 L36.65 274.15 35.95 267.4 35.4 266.85 34.65 266.95 33.85 271.8 33.6 273.2 33.5 274.15 33.3 275.1 33.3 275.35 33.25 275.75 33.1 277.25 Q32.1 287.05 28.25 296.2 26.0 301.55 22.85 306.45 11.1 303.65 0.0 299.7" fill="#98d6fe" fill-rule="evenodd" stroke="none"/>
      <path d="M0.0 299.7 Q11.1 303.65 22.85 306.45 26.0 301.55 28.25 296.2 32.1 287.05 33.1 277.25 L33.25 275.75 33.3 275.35 33.3 275.1 33.5 274.15 33.6 273.2 33.85 271.8 34.65 266.95 35.4 266.85 35.95 267.4 36.65 274.15 37.45 279.95 Q38.0 283.35 38.7 286.6 40.55 295.65 43.55 300.6 46.5 305.55 49.35 309.15 50.25 310.25 50.15 311.65 64.85 314.0 79.65 315.45 L80.05 314.15 80.3 312.2 80.3 310.15 Q70.8 308.25 62.85 304.0 60.4 302.7 58.9 303.25 57.1 301.5 56.15 301.6 L55.45 301.35 54.9 300.85 54.2 300.25 Q64.8 288.75 71.55 275.85 L72.45 274.05 Q79.95 258.95 82.05 242.85 L82.35 240.2 82.35 240.1 82.4 239.5 82.45 239.1 83.0 235.8 83.6 233.35 85.35 224.9 86.9 224.8 88.1 225.75 Q88.9 233.1 90.05 240.1 L91.4 247.5 Q92.6 253.4 94.05 259.1 96.05 266.9 98.65 272.95 101.3 279.1 104.5 283.4 110.9 292.0 117.05 298.2 119.35 300.5 118.65 303.45 L112.3 308.3 Q109.8 310.2 106.5 310.9 98.5 312.2 90.15 311.3 L91.65 316.3 129.4 317.65 Q131.1 310.95 131.85 304.0 L132.05 301.95 132.1 301.4 132.15 301.05 132.5 298.45 132.85 296.55 133.95 289.9 134.95 289.8 135.7 290.55 Q136.5 299.4 137.8 307.7 L139.5 316.8 139.65 317.55 146.5 317.35 179.0 315.3 Q182.8 309.3 185.55 302.8 190.5 290.95 191.8 278.3 L192.0 276.35 192.05 275.85 192.05 275.5 192.4 273.05 192.75 271.25 193.8 265.0 194.75 264.9 195.45 265.6 Q196.15 273.95 197.4 281.75 L199.0 290.35 Q201.4 302.05 205.25 308.45 L207.5 312.1 Q227.75 309.4 247.8 305.4 L249.0 303.6 Q256.0 293.05 260.85 281.45 268.8 262.45 270.9 242.1 L271.2 239.0 271.3 238.15 271.3 237.65 271.85 233.7 272.4 230.8 274.1 220.75 275.6 220.6 276.75 221.75 Q277.9 235.2 279.9 247.8 281.05 254.8 282.45 261.6 286.35 280.4 292.5 290.65 L294.7 294.25 Q314.8 288.55 334.5 281.4 L335.05 277.75 Q331.65 277.6 328.25 277.45 326.85 276.9 325.8 275.4 L323.2 271.5 Q322.85 269.15 323.85 267.35 326.4 262.35 329.1 255.55 331.75 248.65 333.45 236.05 L334.55 226.8 Q335.4 218.45 335.9 209.45 L336.4 208.7 337.05 208.8 Q337.4 212.15 337.8 215.5 L338.05 217.45 338.25 220.1 338.3 220.45 338.3 221.0 338.45 223.1 Q339.35 236.7 342.85 249.45 345.6 259.7 350.05 268.85 L349.75 269.3 349.55 269.7 349.25 269.9 Q348.85 269.85 348.1 271.25 347.45 270.8 346.45 271.85 343.1 275.25 339.2 276.75 L339.2 278.4 339.25 279.7 Q357.75 272.75 375.85 264.5 378.95 263.1 382.1 261.65 382.1 260.0 383.2 258.6 387.1 253.7 391.15 246.95 395.2 240.2 397.8 227.75 L399.45 218.65 Q400.75 210.35 401.55 201.5 L402.3 200.75 403.3 200.85 404.4 207.5 404.8 209.4 405.15 212.0 405.15 212.35 405.2 212.9 405.4 214.95 Q406.8 228.4 412.05 240.95 L414.8 246.85 436.95 236.75 451.6 230.05 453.4 229.25 Q458.7 223.35 462.4 216.95 468.25 206.6 469.85 195.55 L470.1 193.85 470.15 193.4 470.15 193.1 470.55 190.95 471.0 189.4 472.2 183.9 473.35 183.85 474.2 184.45 Q475.05 191.75 476.55 198.55 477.35 202.4 478.4 206.1 480.0 211.8 482.15 216.1 L484.3 215.1 Q505.0 205.65 526.4 198.3 528.1 191.75 528.8 185.0 L529.0 182.95 529.05 182.4 529.1 182.05 529.45 179.45 529.8 177.55 530.9 170.9 531.9 170.8 532.65 171.55 Q533.45 180.4 534.75 188.7 L535.9 195.15 Q550.55 190.45 565.55 186.75 570.65 179.2 574.15 170.9 579.4 158.35 580.8 144.9 L581.0 142.85 581.05 142.3 581.1 141.95 581.45 139.35 581.8 137.45 582.9 130.8 583.9 130.7 584.65 131.45 Q585.45 140.3 586.75 148.6 L588.45 157.7 Q591.0 170.15 595.05 176.9 L597.0 180.0 612.15 177.5 612.15 412.4 0.0 412.4 0.0 299.75" ffdec:has-small-stroke="true" ffdec:original-stroke-width="0.0" fill="none" stroke="#000000" stroke-linecap="round" stroke-linejoin="round" stroke-opacity="0.0" stroke-width="1.0"/>
    </g>
  </defs>
</svg>
