<?xml version="1.0" encoding="UTF-8" standalone="no"?>
<svg xmlns:ffdec="https://www.free-decompiler.com/flash" xmlns:xlink="http://www.w3.org/1999/xlink" ffdec:objectType="frame" height="434.1px" width="621.95px" xmlns="http://www.w3.org/2000/svg">
  <g transform="matrix(1.0, 0.0, 0.0, 1.0, 3.0, 0.0)">
    <use ffdec:characterId="246" height="135.45" transform="matrix(1.0, 0.0, 0.0, 1.0, 0.0, 0.0)" width="612.15" xlink:href="#morphshape0"/>
    <use ffdec:characterId="247" height="329.65" transform="matrix(1.0, 0.0, 0.0, 1.0, -3.0, 43.3)" width="621.95" xlink:href="#morphshape1"/>
    <use ffdec:characterId="248" height="332.95" transform="matrix(1.0, 0.0, 0.0, 1.0, 0.0, 101.15)" width="612.15" xlink:href="#morphshape2"/>
  </g>
  <defs>
    <g id="morphshape0" transform="matrix(1.0, 0.0, 0.0, 1.0, 0.0, 0.0)">
      <path d="M0.0 0.0 L0.0 88.05 0.5 87.9 Q15.85 84.45 31.5 81.7 52.0 78.15 72.7 76.0 110.2 72.1 148.35 72.85 L151.85 73.05 180.35 76.0 Q215.0 80.4 249.0 88.6 267.15 92.95 285.05 98.4 318.6 107.05 351.35 117.55 365.7 122.15 380.05 125.4 408.4 130.4 436.95 133.85 L449.85 135.3 448.2 130.95 446.6 125.8 Q445.0 120.7 444.25 115.65 L441.4 115.6 436.95 114.95 Q424.9 112.25 421.15 99.85 419.7 95.0 420.85 90.3 423.05 81.45 428.2 76.0 435.2 68.6 447.7 67.35 453.05 66.5 457.65 68.1 463.1 62.0 469.1 56.35 482.0 44.1 501.25 43.45 504.25 43.0 507.6 44.05 511.3 45.15 514.85 46.7 532.75 54.55 542.35 68.9 547.4 66.2 553.95 65.35 569.0 66.75 574.15 81.95 575.5 85.95 574.35 89.95 568.7 109.85 548.25 111.95 L545.5 111.75 544.15 111.35 544.0 111.65 Q544.5 114.1 543.95 117.25 L542.55 124.45 Q541.3 130.2 538.85 135.45 L555.45 133.25 612.15 125.55 612.15 0.0 0.0 0.0" fill="#fff8ce" fill-rule="evenodd" stroke="none"/>
      <path d="M0.0 0.0 L612.15 0.0 612.15 125.55 555.45 133.25 538.85 135.45 Q541.3 130.2 542.55 124.45 L543.95 117.25 Q544.5 114.1 544.0 111.65 L544.15 111.35 545.5 111.75 548.25 111.95 Q568.7 109.85 574.35 89.95 575.5 85.95 574.15 81.95 569.0 66.75 553.95 65.35 547.4 66.2 542.35 68.9 532.75 54.55 514.85 46.7 511.3 45.15 507.6 44.05 504.25 43.0 501.25 43.45 482.0 44.1 469.1 56.35 463.1 62.0 457.65 68.1 453.05 66.5 447.7 67.35 435.2 68.6 428.2 76.0 423.05 81.45 420.85 90.3 419.7 95.0 421.15 99.85 424.9 112.25 436.95 114.95 L441.4 115.6 444.25 115.65 Q445.0 120.7 446.6 125.8 L448.2 130.95 449.85 135.3 436.95 133.85 Q408.4 130.4 380.05 125.4 365.7 122.15 351.35 117.55 318.6 107.05 285.05 98.4 267.15 92.95 249.0 88.6 215.0 80.4 180.35 76.0 L151.85 73.05 148.35 72.85 Q110.2 72.1 72.7 76.0 52.0 78.15 31.5 81.7 15.85 84.45 0.5 87.9 L0.0 88.05 0.0 0.0 Z" ffdec:has-small-stroke="true" ffdec:original-stroke-width="0.0" fill="none" stroke="#000000" stroke-linecap="round" stroke-linejoin="round" stroke-opacity="0.0" stroke-width="1.0"/>
    </g>
    <g id="morphshape1" transform="matrix(1.0, 0.0, 0.0, 1.0, 3.0, -43.3)">
      <path d="M-3.0 192.0 L-3.0 372.95 613.95 372.95 613.95 232.0 618.95 232.0 618.95 148.0 612.15 148.0 612.15 125.55 555.45 133.25 538.85 135.45 Q541.3 130.2 542.55 124.45 L543.95 117.25 Q544.5 114.1 544.0 111.65 L544.15 111.35 545.5 111.75 548.25 111.95 Q568.7 109.85 574.35 89.95 575.5 85.95 574.15 81.95 569.0 66.75 553.95 65.35 547.4 66.2 542.35 68.9 532.75 54.55 514.85 46.7 511.3 45.15 507.6 44.05 504.25 43.0 501.25 43.45 482.0 44.1 469.1 56.35 463.1 62.0 457.65 68.1 453.05 66.5 447.7 67.35 435.2 68.6 428.2 76.0 423.05 81.45 420.85 90.3 419.7 95.0 421.15 99.85 424.9 112.25 436.95 114.95 L441.4 115.6 444.25 115.65 Q445.0 120.7 446.6 125.8 L448.2 130.95 449.85 135.3 436.95 133.85 Q408.4 130.4 380.05 125.4 365.7 122.15 351.35 117.55 318.6 107.05 285.05 98.4 267.15 92.95 249.0 88.6 215.0 80.4 180.35 76.0 L151.85 73.05 148.35 72.85 Q110.2 72.1 72.7 76.0 52.0 78.15 31.5 81.7 15.85 84.45 0.5 87.9 L0.0 88.05 0.0 192.0 -3.0 192.0" fill="#ffe6bb" fill-rule="evenodd" stroke="none"/>
      <path d="M-3.0 192.0 L0.0 192.0 0.0 88.05 0.5 87.9 Q15.85 84.45 31.5 81.7 52.0 78.15 72.7 76.0 110.2 72.1 148.35 72.85 L151.85 73.05 180.35 76.0 Q215.0 80.4 249.0 88.6 267.15 92.95 285.05 98.4 318.6 107.05 351.35 117.55 365.7 122.15 380.05 125.4 408.4 130.4 436.95 133.85 L449.85 135.3 448.2 130.95 446.6 125.8 Q445.0 120.7 444.25 115.65 L441.4 115.6 436.95 114.95 Q424.9 112.25 421.15 99.85 419.7 95.0 420.85 90.3 423.05 81.45 428.2 76.0 435.2 68.6 447.7 67.35 453.05 66.5 457.65 68.1 463.1 62.0 469.1 56.35 482.0 44.1 501.25 43.45 504.25 43.0 507.6 44.05 511.3 45.15 514.85 46.7 532.75 54.55 542.35 68.9 547.4 66.2 553.95 65.35 569.0 66.75 574.15 81.95 575.5 85.95 574.35 89.95 568.7 109.85 548.25 111.95 L545.5 111.75 544.15 111.35 544.0 111.65 Q544.5 114.1 543.95 117.25 L542.55 124.45 Q541.3 130.2 538.85 135.45 L555.45 133.25 612.15 125.55 612.15 148.0 618.95 148.0 618.95 232.0 613.95 232.0 613.95 372.95 -3.0 372.95 -3.0 192.0 Z" ffdec:has-small-stroke="true" ffdec:original-stroke-width="0.0" fill="none" stroke="#000000" stroke-linecap="round" stroke-linejoin="round" stroke-opacity="0.0" stroke-width="1.0"/>
    </g>
    <g id="morphshape2" transform="matrix(1.0, 0.0, 0.0, 1.0, 0.0, -101.15)">
      <path d="M0.0 300.95 L0.0 434.1 612.15 434.1 612.15 156.55 597.0 159.5 595.05 155.8 Q591.0 147.8 588.45 133.15 L586.75 122.35 Q585.45 112.55 584.65 102.05 L583.9 101.15 582.9 101.25 581.8 109.15 581.45 111.4 581.1 114.5 581.05 114.9 581.0 115.55 580.8 118.0 Q579.4 133.85 574.15 148.65 570.65 158.5 565.55 167.45 550.55 171.85 535.9 177.4 L534.75 169.7 Q533.45 159.9 532.65 149.45 L531.9 148.55 530.9 148.65 529.8 156.5 529.45 158.8 529.1 161.85 529.05 162.3 529.0 162.95 528.8 165.35 Q528.1 173.35 526.4 181.1 505.0 189.8 484.3 201.0 L482.15 202.15 Q480.0 197.1 478.4 190.3 477.35 185.95 476.55 181.4 475.05 173.35 474.2 164.7 L473.35 164.0 472.2 164.05 471.0 170.55 470.55 172.4 470.15 174.95 470.15 175.25 470.1 175.8 469.85 177.85 Q468.25 190.9 462.4 203.1 458.7 210.75 453.4 217.7 L451.6 218.65 436.95 226.55 414.8 238.55 412.05 231.55 Q406.8 216.75 405.4 200.9 L405.2 198.45 405.15 197.8 405.15 197.4 404.8 194.3 404.4 192.05 403.3 184.2 402.3 184.05 401.55 184.95 Q400.75 195.45 399.45 205.25 L397.8 216.05 Q395.2 230.7 391.15 238.75 387.1 246.75 383.2 252.55 382.1 254.15 382.1 256.15 378.95 257.85 375.85 259.5 357.75 269.3 339.25 277.5 L339.2 275.95 339.2 274.05 Q343.1 272.2 346.45 268.2 347.45 267.0 348.1 267.5 348.85 265.85 349.25 265.9 L349.55 265.7 349.75 265.2 350.05 264.7 Q345.6 253.85 342.85 241.65 339.35 226.65 338.45 210.6 L338.3 208.1 338.3 207.45 338.25 207.05 338.05 203.9 337.8 201.6 Q337.35 197.7 337.05 193.65 L336.4 193.55 335.9 194.45 Q335.4 205.05 334.55 215.0 L333.45 225.95 Q331.75 240.8 329.1 248.95 326.4 257.05 323.85 262.95 322.85 265.05 323.2 267.85 L325.8 272.45 Q326.85 274.25 328.25 274.9 331.55 276.1 335.05 275.3 L334.5 279.6 Q314.8 288.05 294.7 294.8 L292.5 290.55 Q286.35 278.4 282.45 256.2 281.05 248.15 279.9 239.8 277.9 225.0 276.75 209.1 L275.6 207.75 274.1 207.95 272.4 219.8 271.85 223.3 271.3 227.9 271.3 228.55 271.2 229.55 270.9 233.2 Q268.8 257.25 260.85 279.7 256.0 293.35 249.0 305.9 L247.8 308.05 Q227.75 312.75 207.5 315.95 L205.25 311.65 Q201.4 304.05 199.0 290.25 L197.4 280.05 Q196.15 270.85 195.45 260.95 L194.75 260.1 193.8 260.2 192.75 267.65 192.4 269.8 192.05 272.65 192.05 273.05 192.0 273.65 191.8 275.95 Q190.5 290.9 185.55 304.9 182.8 312.55 179.0 319.7 L146.5 322.15 139.65 322.35 139.5 321.45 137.8 310.65 Q136.5 300.85 135.7 290.35 L134.95 289.5 133.95 289.6 132.85 297.45 132.5 299.75 132.15 302.8 132.1 303.25 132.05 303.9 131.85 306.3 Q131.1 314.55 129.4 322.45 L91.65 320.85 90.15 314.95 Q98.5 316.0 106.5 314.5 109.8 313.65 112.3 311.4 L118.65 305.6 Q119.35 302.15 117.05 299.45 110.9 292.05 104.5 281.9 101.3 276.8 98.65 269.55 96.05 262.35 94.05 253.1 92.6 246.35 91.4 239.35 L90.05 230.6 Q88.9 222.3 88.1 213.6 L86.9 212.45 85.35 212.65 83.6 222.6 83.0 225.5 82.45 229.4 82.4 229.9 82.35 230.6 82.35 230.75 82.05 233.85 Q79.95 252.85 72.45 270.7 L71.55 272.8 Q64.8 288.05 54.2 301.6 L54.9 302.3 55.45 302.9 56.15 303.2 Q57.1 303.1 58.9 305.15 60.4 304.55 62.85 306.05 70.8 311.1 80.3 313.35 L80.3 315.8 80.05 318.1 79.65 319.6 Q64.85 317.9 50.15 315.15 50.25 313.45 49.35 312.15 46.5 307.9 43.55 302.05 40.55 296.2 38.7 285.45 38.0 281.6 37.45 277.55 L36.65 270.7 35.95 262.7 35.4 262.05 34.65 262.15 33.85 267.9 33.6 269.55 33.5 270.7 33.3 271.8 33.3 272.15 33.25 272.6 33.1 274.4 Q32.1 286.0 28.25 296.8 26.0 303.15 22.85 309.0 11.1 305.65 0.0 300.95" fill="#ffcd91" fill-rule="evenodd" stroke="none"/>
      <path d="M0.0 300.95 Q11.1 305.65 22.85 309.0 26.0 303.15 28.25 296.8 32.1 286.0 33.1 274.4 L33.25 272.6 33.3 272.15 33.3 271.8 33.5 270.7 33.6 269.55 33.85 267.9 34.65 262.15 35.4 262.05 35.95 262.7 36.65 270.7 37.45 277.55 Q38.0 281.6 38.7 285.45 40.55 296.2 43.55 302.05 46.5 307.9 49.35 312.15 50.25 313.45 50.15 315.15 64.85 317.9 79.65 319.6 L80.05 318.1 80.3 315.8 80.3 313.35 Q70.8 311.1 62.85 306.05 60.4 304.55 58.9 305.15 57.1 303.1 56.15 303.2 L55.45 302.9 54.9 302.3 54.2 301.6 Q64.8 288.05 71.55 272.8 L72.45 270.7 Q79.95 252.85 82.05 233.85 L82.35 230.75 82.35 230.6 82.4 229.9 82.45 229.4 83.0 225.5 83.6 222.6 85.35 212.65 86.9 212.45 88.1 213.6 Q88.9 222.3 90.05 230.6 L91.4 239.35 Q92.6 246.35 94.05 253.1 96.05 262.35 98.65 269.55 101.3 276.8 104.5 281.9 110.9 292.05 117.05 299.45 119.35 302.15 118.65 305.6 L112.3 311.4 Q109.8 313.65 106.5 314.5 98.5 316.0 90.15 314.95 L91.65 320.85 129.4 322.45 Q131.1 314.55 131.85 306.3 L132.05 303.9 132.1 303.25 132.15 302.8 132.5 299.75 132.85 297.45 133.95 289.6 134.95 289.5 135.7 290.35 Q136.5 300.85 137.8 310.65 L139.5 321.45 139.65 322.35 146.5 322.15 179.0 319.7 Q182.8 312.55 185.55 304.9 190.5 290.9 191.8 275.95 L192.0 273.65 192.05 273.05 192.05 272.65 192.4 269.8 192.75 267.65 193.8 260.2 194.75 260.1 195.45 260.95 Q196.15 270.85 197.4 280.05 L199.0 290.25 Q201.4 304.05 205.25 311.65 L207.5 315.95 Q227.75 312.75 247.8 308.05 L249.0 305.9 Q256.0 293.35 260.85 279.7 268.8 257.25 270.9 233.2 L271.2 229.55 271.3 228.55 271.3 227.9 271.85 223.3 272.4 219.8 274.1 207.95 275.6 207.75 276.75 209.1 Q277.9 225.0 279.9 239.8 281.05 248.15 282.45 256.2 286.35 278.4 292.5 290.55 L294.7 294.8 Q314.8 288.05 334.5 279.6 L335.05 275.3 Q331.55 276.1 328.25 274.9 326.85 274.25 325.8 272.45 L323.2 267.85 Q322.85 265.05 323.85 262.95 326.4 257.05 329.1 248.95 331.75 240.8 333.45 225.95 L334.55 215.0 Q335.4 205.05 335.9 194.45 L336.4 193.55 337.05 193.65 Q337.35 197.7 337.8 201.6 L338.05 203.9 338.25 207.05 338.3 207.45 338.3 208.1 338.45 210.6 Q339.35 226.65 342.85 241.65 345.6 253.85 350.05 264.7 L349.75 265.2 349.55 265.7 349.25 265.9 Q348.85 265.85 348.1 267.5 347.45 267.0 346.45 268.2 343.1 272.2 339.2 274.05 L339.2 275.95 339.25 277.5 Q357.75 269.3 375.85 259.5 378.95 257.85 382.1 256.15 382.1 254.15 383.2 252.55 387.1 246.75 391.15 238.75 395.2 230.7 397.8 216.05 L399.45 205.25 Q400.75 195.45 401.55 184.95 L402.3 184.05 403.3 184.2 404.4 192.05 404.8 194.3 405.15 197.4 405.15 197.8 405.2 198.45 405.4 200.9 Q406.8 216.75 412.05 231.55 L414.8 238.55 436.95 226.55 451.6 218.65 453.4 217.7 Q458.7 210.75 462.4 203.1 468.25 190.9 469.85 177.85 L470.1 175.8 470.15 175.25 470.15 174.95 470.55 172.4 471.0 170.55 472.2 164.05 473.35 164.0 474.2 164.7 Q475.05 173.35 476.55 181.4 477.35 185.95 478.4 190.3 480.0 197.1 482.15 202.15 L484.3 201.0 Q505.0 189.8 526.4 181.1 528.1 173.35 528.8 165.35 L529.0 162.95 529.05 162.3 529.1 161.85 529.45 158.8 529.8 156.5 530.9 148.65 531.9 148.55 532.65 149.45 Q533.45 159.9 534.75 169.7 L535.9 177.4 Q550.55 171.85 565.55 167.45 570.65 158.5 574.15 148.65 579.4 133.85 580.8 118.0 L581.0 115.55 581.05 114.9 581.1 114.5 581.45 111.4 581.8 109.15 582.9 101.25 583.9 101.15 584.65 102.05 Q585.45 112.55 586.75 122.35 L588.45 133.15 Q591.0 147.8 595.05 155.8 L597.0 159.5 612.15 156.55 612.15 434.1 0.0 434.1 0.0 300.95 Z" ffdec:has-small-stroke="true" ffdec:original-stroke-width="0.0" fill="none" stroke="#000000" stroke-linecap="round" stroke-linejoin="round" stroke-opacity="0.0" stroke-width="1.0"/>
    </g>
  </defs>
</svg>
