<?xml version="1.0" encoding="UTF-8" standalone="no"?>
<svg xmlns:ffdec="https://www.free-decompiler.com/flash" xmlns:xlink="http://www.w3.org/1999/xlink" ffdec:objectType="frame" height="434.1px" width="621.95px" xmlns="http://www.w3.org/2000/svg">
  <g transform="matrix(1.0, 0.0, 0.0, 1.0, 3.0, 0.0)">
    <use ffdec:characterId="246" height="135.45" transform="matrix(1.0, 0.0, 0.0, 1.0, 0.0, 0.0)" width="612.15" xlink:href="#morphshape0"/>
    <use ffdec:characterId="247" height="329.65" transform="matrix(1.0, 0.0, 0.0, 1.0, -3.0, 43.3)" width="621.95" xlink:href="#morphshape1"/>
    <use ffdec:characterId="248" height="332.95" transform="matrix(1.0, 0.0, 0.0, 1.0, 0.0, 101.15)" width="612.15" xlink:href="#morphshape2"/>
  </g>
  <defs>
    <g id="morphshape0" transform="matrix(1.0, 0.0, 0.0, 1.0, 0.0, 0.0)">
      <path d="M0.0 0.0 L0.0 88.05 0.5 87.9 Q15.85 84.45 31.5 81.7 52.0 78.15 72.7 76.0 110.2 72.1 148.35 72.85 L151.85 73.05 180.35 76.0 Q215.0 80.4 249.0 88.6 267.15 92.95 285.05 98.4 318.6 107.05 351.35 117.55 365.7 122.15 380.05 125.4 408.4 130.4 436.95 133.85 L449.85 135.3 448.2 130.95 446.6 125.8 Q445.0 120.7 444.25 115.65 L441.4 115.6 436.95 114.95 Q424.9 112.25 421.15 99.85 419.7 95.0 420.85 90.3 423.05 81.45 428.2 76.0 435.2 68.6 447.7 67.35 453.05 66.5 457.65 68.1 463.1 62.0 469.1 56.35 482.0 44.1 501.25 43.45 504.25 43.0 507.6 44.05 511.3 45.15 514.85 46.7 532.75 54.55 542.35 68.9 547.4 66.2 553.95 65.35 569.0 66.75 574.15 81.95 575.5 85.95 574.35 89.95 568.7 109.85 548.25 111.95 L545.5 111.75 544.15 111.35 544.0 111.65 Q544.5 114.1 543.95 117.25 L542.55 124.45 Q541.3 130.2 538.85 135.45 L555.45 133.25 612.15 125.55 612.15 0.0 0.0 0.0" fill="#faf7d3" fill-rule="evenodd" stroke="none"/>
      <path d="M0.0 0.0 L612.15 0.0 612.15 125.55 555.45 133.25 538.85 135.45 Q541.3 130.2 542.55 124.45 L543.95 117.25 Q544.5 114.1 544.0 111.65 L544.15 111.35 545.5 111.75 548.25 111.95 Q568.7 109.85 574.35 89.95 575.5 85.95 574.15 81.95 569.0 66.75 553.95 65.35 547.4 66.2 542.35 68.9 532.75 54.55 514.85 46.7 511.3 45.15 507.6 44.05 504.25 43.0 501.25 43.45 482.0 44.1 469.1 56.35 463.1 62.0 457.65 68.1 453.05 66.5 447.7 67.35 435.2 68.6 428.2 76.0 423.05 81.45 420.85 90.3 419.7 95.0 421.15 99.85 424.9 112.25 436.95 114.95 L441.4 115.6 444.25 115.65 Q445.0 120.7 446.6 125.8 L448.2 130.95 449.85 135.3 436.95 133.85 Q408.4 130.4 380.05 125.4 365.7 122.15 351.35 117.55 318.6 107.05 285.05 98.4 267.15 92.95 249.0 88.6 215.0 80.4 180.35 76.0 L151.85 73.05 148.35 72.85 Q110.2 72.1 72.7 76.0 52.0 78.15 31.5 81.7 15.85 84.45 0.5 87.9 L0.0 88.05 0.0 0.0 Z" ffdec:has-small-stroke="true" ffdec:original-stroke-width="0.0" fill="none" stroke="#000000" stroke-linecap="round" stroke-linejoin="round" stroke-opacity="0.0" stroke-width="1.0"/>
    </g>
    <g id="morphshape1" transform="matrix(1.0, 0.0, 0.0, 1.0, 3.0, -43.3)">
      <path d="M-3.0 192.0 L-3.0 372.95 613.95 372.95 613.95 232.0 618.95 232.0 618.95 148.0 612.15 148.0 612.15 125.55 555.45 133.25 538.85 135.45 Q541.3 130.2 542.55 124.45 L543.95 117.25 Q544.5 114.1 544.0 111.65 L544.15 111.35 545.5 111.75 548.25 111.95 Q568.7 109.85 574.35 89.95 575.5 85.95 574.15 81.95 569.0 66.75 553.95 65.35 547.4 66.2 542.35 68.9 532.75 54.55 514.85 46.7 511.3 45.15 507.6 44.05 504.25 43.0 501.25 43.45 482.0 44.1 469.1 56.35 463.1 62.0 457.65 68.1 453.05 66.5 447.7 67.35 435.2 68.6 428.2 76.0 423.05 81.45 420.85 90.3 419.7 95.0 421.15 99.85 424.9 112.25 436.95 114.95 L441.4 115.6 444.25 115.65 Q445.0 120.7 446.6 125.8 L448.2 130.95 449.85 135.3 436.95 133.85 Q408.4 130.4 380.05 125.4 365.7 122.15 351.35 117.55 318.6 107.05 285.05 98.4 267.15 92.95 249.0 88.6 215.0 80.4 180.35 76.0 L151.85 73.05 148.35 72.85 Q110.2 72.1 72.7 76.0 52.0 78.15 31.5 81.7 15.85 84.45 0.5 87.9 L0.0 88.05 0.0 192.0 -3.0 192.0" fill="#f8e6c2" fill-rule="evenodd" stroke="none"/>
      <path d="M-3.0 192.0 L0.0 192.0 0.0 88.05 0.5 87.9 Q15.85 84.45 31.5 81.7 52.0 78.15 72.7 76.0 110.2 72.1 148.35 72.85 L151.85 73.05 180.35 76.0 Q215.0 80.4 249.0 88.6 267.15 92.95 285.05 98.4 318.6 107.05 351.35 117.55 365.7 122.15 380.05 125.4 408.4 130.4 436.95 133.85 L449.85 135.3 448.2 130.95 446.6 125.8 Q445.0 120.7 444.25 115.65 L441.4 115.6 436.95 114.95 Q424.9 112.25 421.15 99.85 419.7 95.0 420.85 90.3 423.05 81.45 428.2 76.0 435.2 68.6 447.7 67.35 453.05 66.5 457.65 68.1 463.1 62.0 469.1 56.35 482.0 44.1 501.25 43.45 504.25 43.0 507.6 44.05 511.3 45.15 514.85 46.7 532.75 54.55 542.35 68.9 547.4 66.2 553.95 65.35 569.0 66.75 574.15 81.95 575.5 85.95 574.35 89.95 568.7 109.85 548.25 111.95 L545.5 111.75 544.15 111.35 544.0 111.65 Q544.5 114.1 543.95 117.25 L542.55 124.45 Q541.3 130.2 538.85 135.45 L555.45 133.25 612.15 125.55 612.15 148.0 618.95 148.0 618.95 232.0 613.95 232.0 613.95 372.95 -3.0 372.95 -3.0 192.0 Z" ffdec:has-small-stroke="true" ffdec:original-stroke-width="0.0" fill="none" stroke="#000000" stroke-linecap="round" stroke-linejoin="round" stroke-opacity="0.0" stroke-width="1.0"/>
    </g>
    <g id="morphshape2" transform="matrix(1.0, 0.0, 0.0, 1.0, 0.0, -101.15)">
      <path d="M0.0 301.1 L0.0 432.0 612.15 432.0 612.15 159.1 597.0 162.0 595.05 158.35 Q591.0 150.5 588.45 136.1 L586.75 125.5 Q585.45 115.85 584.65 105.55 L583.9 104.65 582.9 104.75 581.8 112.5 581.45 114.7 581.1 117.75 581.05 118.15 581.0 118.8 580.8 121.2 Q579.4 136.8 574.15 151.35 570.65 161.05 565.55 169.85 550.55 174.15 535.9 179.6 L534.75 172.05 Q533.45 162.4 532.65 152.1 L531.9 151.2 530.9 151.3 529.8 159.0 529.45 161.25 529.1 164.25 529.05 164.7 529.0 165.35 528.8 167.7 Q528.1 175.55 526.4 183.15 505.0 191.7 484.3 202.7 L482.15 203.85 Q480.0 198.9 478.4 192.2 477.35 187.9 476.55 183.45 475.05 175.55 474.2 167.05 L473.35 166.35 472.2 166.4 471.0 172.8 470.55 174.6 470.15 177.1 470.15 177.4 470.1 177.95 469.85 179.95 Q468.25 192.8 462.4 204.8 458.7 212.3 453.4 219.15 L451.6 220.1 436.95 227.85 414.8 239.65 412.05 232.75 Q406.8 218.2 405.4 202.6 L405.2 200.2 405.15 199.55 405.15 199.15 404.8 196.1 404.4 193.9 403.3 186.2 402.3 186.05 401.55 186.95 Q400.75 197.25 399.45 206.9 L397.8 217.5 Q395.2 231.9 391.15 239.8 387.1 247.65 383.2 253.35 382.1 254.95 382.1 256.9 378.95 258.55 375.85 260.15 357.75 269.8 339.25 277.85 L339.2 276.35 339.2 274.5 Q343.1 272.7 346.45 268.75 347.45 267.55 348.1 268.05 348.85 266.45 349.25 266.5 L349.55 266.3 349.75 265.8 350.05 265.3 Q345.6 254.65 342.85 242.65 339.35 227.9 338.45 212.1 L338.3 209.65 338.3 209.0 338.25 208.6 338.05 205.5 337.8 203.25 Q337.35 199.4 337.05 195.45 L336.4 195.35 335.9 196.25 Q335.4 206.7 334.55 216.5 L333.45 227.25 Q331.75 241.85 329.1 249.85 326.4 257.8 323.85 263.6 322.85 265.65 323.2 268.4 L325.8 272.9 Q326.85 274.65 328.25 275.3 331.55 276.4 335.05 275.7 L334.5 279.95 Q314.8 288.25 294.7 294.9 L292.5 290.7 Q286.35 278.75 282.45 256.9 281.05 249.0 279.9 240.8 277.9 226.25 276.75 210.6 L275.6 209.25 274.1 209.45 272.4 221.1 271.85 224.55 271.3 229.1 271.3 229.75 271.2 230.75 270.9 234.35 Q268.8 258.0 260.85 280.05 256.0 293.45 249.0 305.8 L247.8 307.9 Q227.75 312.5 207.5 315.65 L205.25 311.4 Q201.4 303.95 199.0 290.4 L197.4 280.35 Q196.15 271.3 195.45 261.55 L194.75 260.7 193.8 260.8 192.75 268.1 192.4 270.2 192.05 273.0 192.05 273.4 192.0 274.0 191.8 276.25 Q190.5 290.95 185.55 304.7 182.8 312.25 179.0 319.3 L146.5 321.7 139.65 321.9 139.5 321.0 137.8 310.4 Q136.5 300.75 135.7 290.45 L134.95 289.6 133.95 289.7 132.85 297.4 132.5 299.65 132.15 302.65 132.1 303.1 132.05 303.75 131.85 306.1 Q131.1 314.2 129.4 321.95 L91.65 320.4 90.15 314.6 Q98.5 315.65 106.5 314.15 109.8 313.3 112.3 311.1 L118.65 305.4 Q119.35 302.0 117.05 299.35 110.9 292.1 104.5 282.1 101.3 277.1 98.65 269.95 96.05 262.85 94.05 253.75 92.6 247.1 91.4 240.2 L90.05 231.6 Q88.9 223.45 88.1 214.9 L86.9 213.75 85.35 213.95 83.6 223.75 83.0 226.6 82.45 230.45 82.4 230.95 82.35 231.65 82.35 231.8 82.05 234.85 Q79.95 253.55 72.45 271.1 L71.55 273.15 Q64.8 288.15 54.2 301.45 L54.9 302.15 55.45 302.75 56.15 303.05 Q57.1 302.95 58.9 304.95 60.4 304.35 62.85 305.85 70.8 310.8 80.3 313.0 L80.3 315.4 80.05 317.65 79.65 319.15 Q64.85 317.5 50.15 314.8 50.25 313.15 49.35 311.85 46.5 307.65 43.55 301.9 40.55 296.15 38.7 285.6 38.0 281.8 37.45 277.8 L36.65 271.05 35.95 263.2 35.4 262.55 34.65 262.65 33.85 268.3 33.6 269.9 33.5 271.05 33.3 272.15 33.3 272.5 33.25 272.95 33.1 274.7 Q32.1 286.1 28.25 296.7 26.0 302.95 22.85 308.7 11.1 305.4 0.0 300.8" fill="#f4ce9d" fill-rule="evenodd" stroke="none"/>
      <path d="M0.0 300.8 Q11.1 305.4 22.85 308.7 26.0 302.95 28.25 296.7 32.1 286.1 33.1 274.7 L33.25 272.95 33.3 272.5 33.3 272.15 33.5 271.05 33.6 269.9 33.85 268.3 34.65 262.65 35.4 262.55 35.95 263.2 36.65 271.05 37.45 277.8 Q38.0 281.8 38.7 285.6 40.55 296.15 43.55 301.9 46.5 307.65 49.35 311.85 50.25 313.15 50.15 314.8 64.85 317.5 79.65 319.15 L80.05 317.65 80.3 315.4 80.3 313.0 Q70.8 310.8 62.85 305.85 60.4 304.35 58.9 304.95 57.1 302.95 56.15 303.05 L55.45 302.75 54.9 302.15 54.2 301.45 Q64.8 288.15 71.55 273.15 L72.45 271.1 Q79.95 253.55 82.05 234.85 L82.35 231.8 82.35 231.65 82.4 230.95 82.45 230.45 83.0 226.6 83.6 223.75 85.35 213.95 86.9 213.75 88.1 214.9 Q88.9 223.45 90.05 231.6 L91.4 240.2 Q92.6 247.1 94.05 253.75 96.05 262.85 98.65 269.95 101.3 277.1 104.5 282.1 110.9 292.1 117.05 299.35 119.35 302.0 118.65 305.4 L112.3 311.1 Q109.8 313.3 106.5 314.15 98.5 315.65 90.15 314.6 L91.65 320.4 129.4 321.95 Q131.1 314.2 131.85 306.1 L132.05 303.75 132.1 303.1 132.15 302.65 132.5 299.65 132.85 297.4 133.95 289.7 134.95 289.6 135.7 290.45 Q136.5 300.75 137.8 310.4 L139.5 321.0 139.65 321.9 146.5 321.7 179.0 319.3 Q182.8 312.25 185.55 304.7 190.5 290.95 191.8 276.25 L192.0 274.0 192.05 273.4 192.05 273.0 192.4 270.2 192.75 268.1 193.8 260.8 194.75 260.7 195.45 261.55 Q196.15 271.3 197.4 280.35 L199.0 290.4 Q201.4 303.95 205.25 311.4 L207.5 315.65 Q227.75 312.5 247.8 307.9 L249.0 305.8 Q256.0 293.45 260.85 280.05 268.8 258.0 270.9 234.35 L271.2 230.75 271.3 229.75 271.3 229.1 271.85 224.55 272.4 221.1 274.1 209.45 275.6 209.25 276.75 210.6 Q277.9 226.25 279.9 240.8 281.05 249.0 282.45 256.9 286.35 278.75 292.5 290.7 L294.7 294.9 Q314.8 288.25 334.5 279.95 L335.05 275.7 Q331.55 276.4 328.25 275.3 326.85 274.65 325.8 272.9 L323.2 268.4 Q322.85 265.65 323.85 263.6 326.4 257.8 329.1 249.85 331.75 241.85 333.45 227.25 L334.55 216.5 Q335.4 206.7 335.9 196.25 L336.4 195.35 337.05 195.45 Q337.35 199.4 337.8 203.25 L338.05 205.5 338.25 208.6 338.3 209.0 338.3 209.65 338.45 212.1 Q339.35 227.9 342.85 242.65 345.6 254.65 350.05 265.3 L349.75 265.8 349.55 266.3 349.25 266.5 Q348.85 266.45 348.1 268.05 347.45 267.55 346.45 268.75 343.1 272.7 339.2 274.5 L339.2 276.35 339.25 277.85 Q357.75 269.8 375.85 260.15 378.95 258.55 382.1 256.9 382.1 254.95 383.2 253.35 387.1 247.65 391.15 239.8 395.2 231.9 397.8 217.5 L399.45 206.9 Q400.75 197.25 401.55 186.95 L402.3 186.05 403.3 186.2 404.4 193.9 404.8 196.1 405.15 199.15 405.15 199.55 405.2 200.2 405.4 202.6 Q406.8 218.2 412.05 232.75 L414.8 239.65 436.95 227.85 451.6 220.1 453.4 219.15 Q458.7 212.3 462.4 204.8 468.25 192.8 469.85 179.95 L470.1 177.95 470.15 177.4 470.15 177.1 470.55 174.6 471.0 172.8 472.2 166.4 473.35 166.35 474.2 167.05 Q475.05 175.55 476.55 183.45 477.35 187.9 478.4 192.2 480.0 198.9 482.15 203.85 L484.3 202.7 Q505.0 191.7 526.4 183.15 528.1 175.55 528.8 167.7 L529.0 165.35 529.05 164.7 529.1 164.25 529.45 161.25 529.8 159.0 530.9 151.3 531.9 151.2 532.65 152.1 Q533.45 162.4 534.75 172.05 L535.9 179.6 Q550.55 174.15 565.55 169.85 570.65 161.05 574.15 151.35 579.4 136.8 580.8 121.2 L581.0 118.8 581.05 118.15 581.1 117.75 581.45 114.7 581.8 112.5 582.9 104.75 583.9 104.65 584.65 105.55 Q585.45 115.85 586.75 125.5 L588.45 136.1 Q591.0 150.5 595.05 158.35 L597.0 162.0 612.15 159.1 612.15 432.0 0.0 432.0 0.0 301.1" ffdec:has-small-stroke="true" ffdec:original-stroke-width="0.0" fill="none" stroke="#000000" stroke-linecap="round" stroke-linejoin="round" stroke-opacity="0.0" stroke-width="1.0"/>
    </g>
  </defs>
</svg>
