<?xml version="1.0" encoding="UTF-8" standalone="no"?>
<svg xmlns:ffdec="https://www.free-decompiler.com/flash" xmlns:xlink="http://www.w3.org/1999/xlink" ffdec:objectType="frame" height="434.1px" width="621.95px" xmlns="http://www.w3.org/2000/svg">
  <g transform="matrix(1.0, 0.0, 0.0, 1.0, 3.0, 0.0)">
    <use ffdec:characterId="246" height="135.45" transform="matrix(1.0, 0.0, 0.0, 1.0, 0.0, 0.0)" width="612.15" xlink:href="#morphshape0"/>
    <use ffdec:characterId="247" height="329.65" transform="matrix(1.0, 0.0, 0.0, 1.0, -3.0, 43.3)" width="621.95" xlink:href="#morphshape1"/>
    <use ffdec:characterId="248" height="332.95" transform="matrix(1.0, 0.0, 0.0, 1.0, 0.0, 101.15)" width="612.15" xlink:href="#morphshape2"/>
  </g>
  <defs>
    <g id="morphshape0" transform="matrix(1.0, 0.0, 0.0, 1.0, 0.0, 0.0)">
      <path d="M0.0 0.0 L0.0 88.05 0.5 87.9 Q15.85 84.45 31.5 81.7 52.0 78.15 72.7 76.0 110.2 72.1 148.35 72.85 L151.85 73.05 180.35 76.0 Q215.0 80.4 249.0 88.6 267.15 92.95 285.05 98.4 318.6 107.05 351.35 117.55 365.7 122.15 380.05 125.4 408.4 130.4 436.95 133.85 L449.85 135.3 448.2 130.95 446.6 125.8 Q445.0 120.7 444.25 115.65 L441.4 115.6 436.95 114.95 Q424.9 112.25 421.15 99.85 419.7 95.0 420.85 90.3 423.05 81.45 428.2 76.0 435.2 68.6 447.7 67.35 453.05 66.5 457.65 68.1 463.1 62.0 469.1 56.35 482.0 44.1 501.25 43.45 504.25 43.0 507.6 44.05 511.3 45.15 514.85 46.7 532.75 54.55 542.35 68.9 547.4 66.2 553.95 65.35 569.0 66.75 574.15 81.95 575.5 85.95 574.35 89.95 568.7 109.85 548.25 111.95 L545.5 111.75 544.15 111.35 544.0 111.65 Q544.5 114.1 543.95 117.25 L542.55 124.45 Q541.3 130.2 538.85 135.45 L555.45 133.25 612.15 125.55 612.15 0.0 0.0 0.0" fill="#f6f6d8" fill-rule="evenodd" stroke="none"/>
      <path d="M0.0 0.0 L612.15 0.0 612.15 125.55 555.45 133.25 538.85 135.45 Q541.3 130.2 542.55 124.45 L543.95 117.25 Q544.5 114.1 544.0 111.65 L544.15 111.35 545.5 111.75 548.25 111.95 Q568.7 109.85 574.35 89.95 575.5 85.95 574.15 81.95 569.0 66.75 553.95 65.35 547.4 66.2 542.35 68.9 532.75 54.55 514.85 46.7 511.3 45.15 507.6 44.05 504.25 43.0 501.25 43.45 482.0 44.1 469.1 56.35 463.1 62.0 457.65 68.1 453.05 66.5 447.7 67.35 435.2 68.6 428.2 76.0 423.05 81.45 420.85 90.3 419.7 95.0 421.15 99.85 424.9 112.25 436.95 114.95 L441.4 115.6 444.25 115.65 Q445.0 120.7 446.6 125.8 L448.2 130.95 449.85 135.3 436.95 133.85 Q408.4 130.4 380.05 125.4 365.7 122.15 351.35 117.55 318.6 107.05 285.05 98.4 267.15 92.95 249.0 88.6 215.0 80.4 180.35 76.0 L151.85 73.05 148.35 72.85 Q110.2 72.1 72.7 76.0 52.0 78.15 31.5 81.7 15.85 84.45 0.5 87.9 L0.0 88.05 0.0 0.0 Z" ffdec:has-small-stroke="true" ffdec:original-stroke-width="0.0" fill="none" stroke="#000000" stroke-linecap="round" stroke-linejoin="round" stroke-opacity="0.0" stroke-width="1.0"/>
    </g>
    <g id="morphshape1" transform="matrix(1.0, 0.0, 0.0, 1.0, 3.0, -43.3)">
      <path d="M-3.0 192.0 L-3.0 372.95 613.95 372.95 613.95 232.0 618.95 232.0 618.95 148.0 612.15 148.0 612.15 125.55 555.45 133.25 538.85 135.45 Q541.3 130.2 542.55 124.45 L543.95 117.25 Q544.5 114.1 544.0 111.65 L544.15 111.35 545.5 111.75 548.25 111.95 Q568.7 109.85 574.35 89.95 575.5 85.95 574.15 81.95 569.0 66.75 553.95 65.35 547.4 66.2 542.35 68.9 532.75 54.55 514.85 46.7 511.3 45.15 507.6 44.05 504.25 43.0 501.25 43.45 482.0 44.1 469.1 56.35 463.1 62.0 457.65 68.1 453.05 66.5 447.7 67.35 435.2 68.6 428.2 76.0 423.05 81.45 420.85 90.3 419.7 95.0 421.15 99.85 424.9 112.25 436.95 114.95 L441.4 115.6 444.25 115.65 Q445.0 120.7 446.6 125.8 L448.2 130.95 449.85 135.3 436.95 133.85 Q408.4 130.4 380.05 125.4 365.7 122.15 351.35 117.55 318.6 107.05 285.05 98.4 267.15 92.95 249.0 88.6 215.0 80.4 180.35 76.0 L151.85 73.05 148.35 72.85 Q110.2 72.1 72.7 76.0 52.0 78.15 31.5 81.7 15.85 84.45 0.5 87.9 L0.0 88.05 0.0 192.0 -3.0 192.0" fill="#f2e6c9" fill-rule="evenodd" stroke="none"/>
      <path d="M-3.0 192.0 L0.0 192.0 0.0 88.05 0.5 87.9 Q15.85 84.45 31.5 81.7 52.0 78.15 72.7 76.0 110.2 72.1 148.35 72.85 L151.85 73.05 180.35 76.0 Q215.0 80.4 249.0 88.6 267.15 92.95 285.05 98.4 318.6 107.05 351.35 117.55 365.7 122.15 380.05 125.4 408.4 130.4 436.95 133.85 L449.85 135.3 448.2 130.95 446.6 125.8 Q445.0 120.7 444.25 115.65 L441.4 115.6 436.95 114.95 Q424.9 112.25 421.15 99.85 419.7 95.0 420.85 90.3 423.05 81.45 428.2 76.0 435.2 68.6 447.7 67.35 453.05 66.5 457.65 68.1 463.1 62.0 469.1 56.35 482.0 44.1 501.25 43.45 504.25 43.0 507.6 44.05 511.3 45.15 514.85 46.7 532.75 54.55 542.35 68.9 547.4 66.2 553.95 65.35 569.0 66.75 574.15 81.95 575.5 85.95 574.35 89.95 568.7 109.85 548.25 111.95 L545.5 111.75 544.15 111.35 544.0 111.65 Q544.5 114.1 543.95 117.25 L542.55 124.45 Q541.3 130.2 538.85 135.45 L555.45 133.25 612.15 125.55 612.15 148.0 618.95 148.0 618.95 232.0 613.95 232.0 613.95 372.95 -3.0 372.95 -3.0 192.0 Z" ffdec:has-small-stroke="true" ffdec:original-stroke-width="0.0" fill="none" stroke="#000000" stroke-linecap="round" stroke-linejoin="round" stroke-opacity="0.0" stroke-width="1.0"/>
    </g>
    <g id="morphshape2" transform="matrix(1.0, 0.0, 0.0, 1.0, 0.0, -101.15)">
      <path d="M0.0 300.4 L0.0 429.2 612.15 429.2 612.15 160.7 597.0 163.55 595.05 160.0 Q591.0 152.25 588.45 138.05 L586.75 127.6 Q585.45 118.1 584.65 107.95 L583.9 107.1 582.9 107.2 581.8 114.85 581.45 117.05 581.1 120.05 581.05 120.45 581.0 121.1 580.8 123.45 Q579.4 138.8 574.15 153.1 570.65 162.6 565.55 171.25 550.55 175.5 535.9 180.85 L534.75 173.4 Q533.45 163.9 532.65 153.8 L531.9 152.95 530.9 153.05 529.8 160.65 529.45 162.85 529.1 165.8 529.05 166.25 529.0 166.9 528.8 169.25 Q528.1 177.0 526.4 184.5 505.0 192.9 484.3 203.75 L482.15 204.85 Q480.0 199.95 478.4 193.4 477.35 189.2 476.55 184.8 475.05 177.0 474.2 168.65 L473.35 167.95 472.2 168.0 471.0 174.3 470.55 176.1 470.15 178.55 470.15 178.85 470.1 179.4 469.85 181.4 Q468.25 194.0 462.4 205.8 458.7 213.2 453.4 219.95 L451.6 220.85 436.95 228.5 414.8 240.1 412.05 233.35 Q406.8 219.05 405.4 203.7 L405.2 201.35 405.15 200.7 405.15 200.3 404.8 197.3 404.4 195.1 403.3 187.5 402.3 187.35 401.55 188.2 Q400.75 198.35 399.45 207.85 L397.8 218.3 Q395.2 232.5 391.15 240.3 387.1 248.05 383.2 253.65 382.1 255.2 382.1 257.15 378.95 258.8 375.85 260.4 357.75 269.85 339.25 277.8 L339.2 276.3 339.2 274.45 Q343.1 272.65 346.45 268.8 347.45 267.65 348.1 268.15 348.85 266.55 349.25 266.6 L349.55 266.4 349.75 265.9 350.05 265.4 Q345.6 254.9 342.85 243.1 339.35 228.6 338.45 213.05 L338.3 210.65 338.3 210.0 338.25 209.6 338.05 206.55 337.8 204.3 Q337.35 200.5 337.05 196.6 L336.4 196.5 335.9 197.35 Q335.4 207.6 334.55 217.2 L333.45 227.8 Q331.75 242.15 329.1 250.05 326.4 257.9 323.85 263.6 322.85 265.65 323.2 268.35 L325.8 272.8 Q326.85 274.55 328.25 275.2 331.55 276.2 335.05 275.6 L334.5 279.75 Q314.8 287.95 294.7 294.5 L292.5 290.4 Q286.35 278.65 282.45 257.15 281.05 249.35 279.9 241.3 277.9 226.95 276.75 211.55 L275.6 210.25 274.1 210.45 272.4 221.9 271.85 225.25 271.3 229.7 271.3 230.3 271.2 231.25 270.9 234.8 Q268.8 258.05 260.85 279.75 256.0 292.95 249.0 305.1 L247.8 307.2 Q227.75 311.75 207.5 314.85 L205.25 310.7 Q201.4 303.35 199.0 290.0 L197.4 280.15 Q196.15 271.25 195.45 261.7 L194.75 260.9 193.8 261.0 192.75 268.2 192.4 270.3 192.05 273.05 192.05 273.45 192.0 274.05 191.8 276.3 Q190.5 290.75 185.55 304.3 182.8 311.7 179.0 318.6 L146.5 320.95 139.65 321.15 139.5 320.3 137.8 309.85 Q136.5 300.35 135.7 290.2 L134.95 289.35 133.95 289.45 132.85 297.05 132.5 299.25 132.15 302.2 132.1 302.65 132.05 303.3 131.85 305.65 Q131.1 313.65 129.4 321.3 L91.65 319.75 90.15 314.05 Q98.5 315.05 106.5 313.6 109.8 312.8 112.3 310.6 L118.65 305.0 Q119.35 301.65 117.05 299.05 110.9 291.9 104.5 282.1 101.3 277.15 98.65 270.15 96.05 263.2 94.05 254.25 92.6 247.7 91.4 240.95 L90.05 232.5 Q88.9 224.45 88.1 216.05 L86.9 214.95 85.35 215.15 83.6 224.8 83.0 227.6 82.45 231.35 82.4 231.85 82.35 232.55 82.35 232.7 82.05 235.7 Q79.95 254.1 72.45 271.35 L71.55 273.4 Q64.8 288.15 54.2 301.25 L54.9 301.95 55.45 302.55 56.15 302.85 Q57.1 302.75 58.9 304.75 60.4 304.15 62.85 305.6 70.8 310.5 80.3 312.7 L80.3 315.05 80.05 317.3 79.65 318.75 Q64.85 317.1 50.15 314.45 50.25 312.8 49.35 311.55 46.5 307.45 43.55 301.8 40.55 296.15 38.7 285.75 38.0 282.05 37.45 278.15 L36.65 271.5 35.95 263.75 35.4 263.1 34.65 263.2 33.85 268.75 33.6 270.35 33.5 271.45 33.3 272.5 33.3 272.85 33.25 273.3 33.1 275.05 Q32.1 286.25 28.25 296.7 26.0 302.85 22.85 308.5 11.1 305.25 0.0 300.7" fill="#e9cfa8" fill-rule="evenodd" stroke="none"/>
      <path d="M0.0 300.7 Q11.1 305.25 22.85 308.5 26.0 302.85 28.25 296.7 32.1 286.25 33.1 275.05 L33.25 273.3 33.3 272.85 33.3 272.5 33.5 271.45 33.6 270.35 33.85 268.75 34.65 263.2 35.4 263.1 35.95 263.75 36.65 271.5 37.45 278.15 Q38.0 282.05 38.7 285.75 40.55 296.15 43.55 301.8 46.5 307.45 49.35 311.55 50.25 312.8 50.15 314.45 64.85 317.1 79.65 318.75 L80.05 317.3 80.3 315.05 80.3 312.7 Q70.8 310.5 62.85 305.6 60.4 304.15 58.9 304.75 57.1 302.75 56.15 302.85 L55.45 302.55 54.9 301.95 54.2 301.25 Q64.8 288.15 71.55 273.4 L72.45 271.35 Q79.95 254.1 82.05 235.7 L82.35 232.7 82.35 232.55 82.4 231.85 82.45 231.35 83.0 227.6 83.6 224.8 85.35 215.15 86.9 214.95 88.1 216.05 Q88.9 224.45 90.05 232.5 L91.4 240.95 Q92.6 247.7 94.05 254.25 96.05 263.2 98.65 270.15 101.3 277.15 104.5 282.1 110.9 291.9 117.05 299.05 119.35 301.65 118.65 305.0 L112.3 310.6 Q109.8 312.8 106.5 313.6 98.5 315.05 90.15 314.05 L91.65 319.75 129.4 321.3 Q131.1 313.65 131.85 305.65 L132.05 303.3 132.1 302.65 132.15 302.2 132.5 299.25 132.85 297.05 133.95 289.45 134.95 289.35 135.7 290.2 Q136.5 300.35 137.8 309.85 L139.5 320.3 139.65 321.15 146.5 320.95 179.0 318.6 Q182.8 311.7 185.55 304.3 190.5 290.75 191.8 276.3 L192.0 274.05 192.05 273.45 192.05 273.05 192.4 270.3 192.75 268.2 193.8 261.0 194.75 260.9 195.45 261.7 Q196.15 271.25 197.4 280.15 L199.0 290.0 Q201.4 303.35 205.25 310.7 L207.5 314.85 Q227.75 311.75 247.8 307.2 L249.0 305.1 Q256.0 292.95 260.85 279.75 268.8 258.05 270.9 234.8 L271.2 231.25 271.3 230.3 271.3 229.7 271.85 225.25 272.4 221.9 274.1 210.45 275.6 210.25 276.75 211.55 Q277.9 226.95 279.9 241.3 281.05 249.35 282.45 257.15 286.35 278.65 292.5 290.4 L294.7 294.5 Q314.8 287.95 334.5 279.75 L335.05 275.6 Q331.55 276.2 328.25 275.2 326.85 274.55 325.8 272.8 L323.2 268.35 Q322.85 265.65 323.85 263.6 326.4 257.9 329.1 250.05 331.75 242.15 333.45 227.8 L334.55 217.2 Q335.4 207.6 335.9 197.35 L336.4 196.5 337.05 196.6 Q337.35 200.5 337.8 204.3 L338.05 206.55 338.25 209.6 338.3 210.0 338.3 210.65 338.45 213.05 Q339.35 228.6 342.85 243.1 345.6 254.9 350.05 265.4 L349.75 265.9 349.55 266.4 349.25 266.6 Q348.85 266.55 348.1 268.15 347.45 267.65 346.45 268.8 343.1 272.65 339.2 274.45 L339.2 276.3 339.25 277.8 Q357.75 269.85 375.85 260.4 378.95 258.8 382.1 257.15 382.1 255.2 383.2 253.65 387.1 248.05 391.15 240.3 395.2 232.5 397.8 218.3 L399.45 207.85 Q400.75 198.35 401.55 188.2 L402.3 187.35 403.3 187.5 404.4 195.1 404.8 197.3 405.15 200.3 405.15 200.7 405.2 201.35 405.4 203.7 Q406.8 219.05 412.05 233.35 L414.8 240.1 436.95 228.5 451.6 220.85 453.4 219.95 Q458.7 213.2 462.4 205.8 468.25 194.0 469.85 181.4 L470.1 179.4 470.15 178.85 470.15 178.55 470.55 176.1 471.0 174.3 472.2 168.0 473.35 167.95 474.2 168.65 Q475.05 177.0 476.55 184.8 477.35 189.2 478.4 193.4 480.0 199.95 482.15 204.85 L484.3 203.75 Q505.0 192.9 526.4 184.5 528.1 177.0 528.8 169.25 L529.0 166.9 529.05 166.25 529.1 165.8 529.45 162.85 529.8 160.65 530.9 153.05 531.9 152.95 532.65 153.8 Q533.45 163.9 534.75 173.4 L535.9 180.85 Q550.55 175.5 565.55 171.25 570.65 162.6 574.15 153.1 579.4 138.8 580.8 123.45 L581.0 121.1 581.05 120.45 581.1 120.05 581.45 117.05 581.8 114.85 582.9 107.2 583.9 107.1 584.65 107.95 Q585.45 118.1 586.75 127.6 L588.45 138.05 Q591.0 152.25 595.05 160.0 L597.0 163.55 612.15 160.7 612.15 429.2 0.0 429.2 0.0 300.4" ffdec:has-small-stroke="true" ffdec:original-stroke-width="0.0" fill="none" stroke="#000000" stroke-linecap="round" stroke-linejoin="round" stroke-opacity="0.0" stroke-width="1.0"/>
    </g>
  </defs>
</svg>
