<?xml version="1.0" encoding="UTF-8" standalone="no"?>
<svg xmlns:ffdec="https://www.free-decompiler.com/flash" xmlns:xlink="http://www.w3.org/1999/xlink" ffdec:objectType="frame" height="434.1px" width="621.95px" xmlns="http://www.w3.org/2000/svg">
  <g transform="matrix(1.0, 0.0, 0.0, 1.0, 3.0, 0.0)">
    <use ffdec:characterId="246" height="135.45" transform="matrix(1.0, 0.0, 0.0, 1.0, 0.0, 0.0)" width="612.15" xlink:href="#morphshape0"/>
    <use ffdec:characterId="247" height="329.65" transform="matrix(1.0, 0.0, 0.0, 1.0, -3.0, 43.3)" width="621.95" xlink:href="#morphshape1"/>
    <use ffdec:characterId="248" height="332.95" transform="matrix(1.0, 0.0, 0.0, 1.0, 0.0, 101.15)" width="612.15" xlink:href="#morphshape2"/>
  </g>
  <defs>
    <g id="morphshape0" transform="matrix(1.0, 0.0, 0.0, 1.0, 0.0, 0.0)">
      <path d="M0.0 0.0 L0.0 88.05 0.5 87.9 Q15.85 84.45 31.5 81.7 52.0 78.15 72.7 76.0 110.2 72.1 148.35 72.85 L151.85 73.05 180.35 76.0 Q215.0 80.4 249.0 88.6 267.15 92.95 285.05 98.4 318.6 107.05 351.35 117.55 365.7 122.15 380.05 125.4 408.4 130.4 436.95 133.85 L449.85 135.3 448.2 130.95 446.6 125.8 Q445.0 120.7 444.25 115.65 L441.4 115.6 436.95 114.95 Q424.9 112.25 421.15 99.85 419.7 95.0 420.85 90.3 423.05 81.45 428.2 76.0 435.2 68.6 447.7 67.35 453.05 66.5 457.65 68.1 463.1 62.0 469.1 56.35 482.0 44.1 501.25 43.45 504.25 43.0 507.6 44.05 511.3 45.15 514.85 46.7 532.75 54.55 542.35 68.9 547.4 66.2 553.95 65.35 569.0 66.75 574.15 81.95 575.5 85.95 574.35 89.95 568.7 109.85 548.25 111.95 L545.5 111.75 544.15 111.35 544.0 111.65 Q544.5 114.1 543.95 117.25 L542.55 124.45 Q541.3 130.2 538.85 135.45 L555.45 133.25 612.15 125.55 612.15 0.0 0.0 0.0" fill="#f1f5dd" fill-rule="evenodd" stroke="none"/>
      <path d="M0.0 0.0 L612.15 0.0 612.15 125.55 555.45 133.25 538.85 135.45 Q541.3 130.2 542.55 124.45 L543.95 117.25 Q544.5 114.1 544.0 111.65 L544.15 111.35 545.5 111.75 548.25 111.95 Q568.7 109.85 574.35 89.95 575.5 85.95 574.15 81.95 569.0 66.75 553.95 65.35 547.4 66.2 542.35 68.9 532.75 54.55 514.85 46.7 511.3 45.15 507.6 44.05 504.25 43.0 501.25 43.45 482.0 44.1 469.1 56.35 463.1 62.0 457.65 68.1 453.05 66.5 447.7 67.35 435.2 68.6 428.2 76.0 423.05 81.45 420.85 90.3 419.7 95.0 421.15 99.85 424.9 112.25 436.95 114.95 L441.4 115.6 444.25 115.65 Q445.0 120.7 446.6 125.8 L448.2 130.95 449.85 135.3 436.95 133.85 Q408.4 130.4 380.05 125.4 365.7 122.15 351.35 117.55 318.6 107.05 285.05 98.4 267.15 92.95 249.0 88.6 215.0 80.4 180.35 76.0 L151.85 73.05 148.35 72.85 Q110.2 72.1 72.7 76.0 52.0 78.15 31.5 81.7 15.85 84.45 0.5 87.9 L0.0 88.05 0.0 0.0 Z" ffdec:has-small-stroke="true" ffdec:original-stroke-width="0.0" fill="none" stroke="#000000" stroke-linecap="round" stroke-linejoin="round" stroke-opacity="0.0" stroke-width="1.0"/>
    </g>
    <g id="morphshape1" transform="matrix(1.0, 0.0, 0.0, 1.0, 3.0, -43.3)">
      <path d="M-3.0 192.0 L-3.0 372.95 613.95 372.95 613.95 232.0 618.95 232.0 618.95 148.0 612.15 148.0 612.15 125.55 555.45 133.25 538.85 135.45 Q541.3 130.2 542.55 124.45 L543.95 117.25 Q544.5 114.1 544.0 111.65 L544.15 111.35 545.5 111.75 548.25 111.95 Q568.7 109.85 574.35 89.95 575.5 85.95 574.15 81.95 569.0 66.75 553.95 65.35 547.4 66.2 542.35 68.9 532.75 54.55 514.85 46.7 511.3 45.15 507.6 44.05 504.25 43.0 501.25 43.45 482.0 44.1 469.1 56.35 463.1 62.0 457.65 68.1 453.05 66.5 447.7 67.35 435.2 68.6 428.2 76.0 423.05 81.45 420.85 90.3 419.7 95.0 421.15 99.85 424.9 112.25 436.95 114.95 L441.4 115.6 444.25 115.65 Q445.0 120.7 446.6 125.8 L448.2 130.95 449.85 135.3 436.95 133.85 Q408.4 130.4 380.05 125.4 365.7 122.15 351.35 117.55 318.6 107.05 285.05 98.4 267.15 92.95 249.0 88.6 215.0 80.4 180.35 76.0 L151.85 73.05 148.35 72.85 Q110.2 72.1 72.7 76.0 52.0 78.15 31.5 81.7 15.85 84.45 0.5 87.9 L0.0 88.05 0.0 192.0 -3.0 192.0" fill="#ebe6d0" fill-rule="evenodd" stroke="none"/>
      <path d="M-3.0 192.0 L0.0 192.0 0.0 88.05 0.5 87.9 Q15.85 84.45 31.5 81.7 52.0 78.15 72.7 76.0 110.2 72.1 148.35 72.85 L151.85 73.05 180.35 76.0 Q215.0 80.4 249.0 88.6 267.15 92.95 285.05 98.4 318.6 107.05 351.35 117.55 365.7 122.15 380.05 125.4 408.4 130.4 436.95 133.85 L449.85 135.3 448.2 130.95 446.6 125.8 Q445.0 120.7 444.25 115.65 L441.4 115.6 436.95 114.95 Q424.9 112.25 421.15 99.85 419.7 95.0 420.85 90.3 423.05 81.45 428.2 76.0 435.2 68.6 447.7 67.35 453.05 66.5 457.65 68.1 463.1 62.0 469.1 56.35 482.0 44.1 501.25 43.45 504.25 43.0 507.6 44.05 511.3 45.15 514.85 46.7 532.75 54.55 542.35 68.9 547.4 66.2 553.95 65.35 569.0 66.75 574.15 81.95 575.5 85.95 574.35 89.95 568.7 109.85 548.25 111.95 L545.5 111.75 544.15 111.35 544.0 111.65 Q544.5 114.1 543.95 117.25 L542.55 124.45 Q541.3 130.2 538.85 135.45 L555.45 133.25 612.15 125.55 612.15 148.0 618.95 148.0 618.95 232.0 613.95 232.0 613.95 372.95 -3.0 372.95 -3.0 192.0 Z" ffdec:has-small-stroke="true" ffdec:original-stroke-width="0.0" fill="none" stroke="#000000" stroke-linecap="round" stroke-linejoin="round" stroke-opacity="0.0" stroke-width="1.0"/>
    </g>
    <g id="morphshape2" transform="matrix(1.0, 0.0, 0.0, 1.0, 0.0, -101.15)">
      <path d="M0.0 300.55 L0.0 427.35 612.15 427.35 612.15 163.0 597.0 165.8 595.05 162.3 Q591.0 154.7 588.45 140.75 L586.75 130.45 Q585.45 121.1 584.65 111.1 L583.9 110.25 582.9 110.35 581.8 117.85 581.45 120.0 581.1 122.95 581.05 123.35 581.0 123.95 580.8 126.3 Q579.4 141.4 574.15 155.5 570.65 164.9 565.55 173.4 550.55 177.6 535.9 182.9 L534.75 175.6 Q533.45 166.25 532.65 156.3 L531.9 155.45 530.9 155.55 529.8 163.05 529.45 165.25 529.1 168.15 529.05 168.55 529.0 169.15 528.8 171.45 Q528.1 179.05 526.4 186.45 505.0 194.75 484.3 205.4 L482.15 206.5 Q480.0 201.7 478.4 195.25 477.35 191.1 476.55 186.75 475.05 179.1 474.2 170.85 L473.35 170.2 472.2 170.25 471.0 176.45 470.55 178.2 470.15 180.65 470.15 180.95 470.1 181.45 469.85 183.4 Q468.25 195.8 462.4 207.45 458.7 214.7 453.4 221.35 L451.6 222.25 436.95 229.8 414.8 241.2 412.05 234.55 Q406.8 220.45 405.4 205.35 L405.2 203.0 405.15 202.4 405.15 202.0 404.8 199.05 404.4 196.9 403.3 189.4 402.3 189.25 401.55 190.1 Q400.75 200.1 399.45 209.45 L397.8 219.75 Q395.2 233.7 391.15 241.35 387.1 248.95 383.2 254.45 382.1 256.0 382.1 257.9 378.95 259.5 375.85 261.05 357.75 270.4 339.25 278.2 L339.2 276.75 339.2 274.95 Q343.1 273.2 346.45 269.4 347.45 268.25 348.1 268.75 348.85 267.2 349.25 267.25 L349.55 267.05 349.75 266.6 350.05 266.1 Q345.6 255.75 342.85 244.15 339.35 229.85 338.45 214.55 L338.3 212.15 338.3 211.55 338.25 211.15 338.05 208.15 337.8 205.95 Q337.35 202.2 337.05 198.35 L336.4 198.25 335.9 199.1 Q335.4 209.2 334.55 218.65 L333.45 229.1 Q331.75 243.25 329.1 251.0 326.4 258.7 323.85 264.3 322.85 266.3 323.2 268.95 L325.8 273.35 Q326.85 275.05 328.25 275.65 331.6 276.55 335.05 276.05 L334.5 280.15 Q314.8 288.2 294.7 294.65 L292.5 290.6 Q286.35 279.05 282.45 257.9 281.05 250.25 279.9 242.3 277.9 228.2 276.75 213.05 L275.6 211.75 274.1 211.95 272.4 223.25 271.85 226.55 271.3 230.95 271.3 231.55 271.2 232.5 270.9 236.0 Q268.8 258.9 260.85 280.3 256.0 293.3 249.0 305.25 L247.8 307.3 Q227.75 311.8 207.5 314.85 L205.25 310.75 Q201.4 303.5 199.0 290.35 L197.4 280.65 Q196.15 271.9 195.45 262.45 L194.75 261.65 193.8 261.75 192.75 268.85 192.4 270.9 192.05 273.65 192.05 274.05 192.0 274.6 191.8 276.8 Q190.5 291.05 185.55 304.4 182.8 311.7 179.0 318.5 L146.5 320.85 139.65 321.05 139.5 320.2 137.8 309.9 Q136.5 300.55 135.7 290.55 L134.95 289.75 133.95 289.85 132.85 297.35 132.5 299.55 132.15 302.45 132.1 302.85 132.05 303.45 131.85 305.75 Q131.1 313.6 129.4 321.15 L91.65 319.65 90.15 314.05 Q98.5 315.05 106.5 313.6 109.8 312.8 112.3 310.65 L118.65 305.15 Q119.35 301.85 117.05 299.25 110.9 292.2 104.5 282.5 101.3 277.65 98.65 270.75 96.05 263.9 94.05 255.1 92.6 248.65 91.4 242.0 L90.05 233.65 Q88.9 225.75 88.1 217.45 L86.9 216.35 85.35 216.5 83.6 226.0 83.0 228.75 82.45 232.45 82.4 232.9 82.35 233.55 82.35 233.7 82.05 236.65 Q79.95 254.75 72.45 271.75 L71.55 273.75 Q64.8 288.25 54.2 301.15 L54.9 301.8 55.45 302.35 56.15 302.65 Q57.1 302.55 58.9 304.5 60.4 303.9 62.85 305.35 70.8 310.15 80.3 312.3 L80.3 314.65 80.05 316.85 79.65 318.3 Q64.85 316.7 50.15 314.05 50.25 312.45 49.35 311.2 46.5 307.15 43.55 301.6 40.55 296.05 38.7 285.8 38.0 282.15 37.45 278.3 L36.65 271.75 35.95 264.15 35.4 263.55 34.65 263.65 33.85 269.1 33.6 270.65 33.5 271.75 33.3 272.8 33.3 273.1 33.25 273.55 33.1 275.25 Q32.1 286.3 28.25 296.6 26.0 302.65 22.85 308.2 11.1 305.0 0.0 300.55" fill="#dfd0b3" fill-rule="evenodd" stroke="none"/>
      <path d="M0.0 300.55 Q11.1 305.0 22.85 308.2 26.0 302.65 28.25 296.6 32.1 286.3 33.1 275.25 L33.25 273.55 33.3 273.1 33.3 272.8 33.5 271.75 33.6 270.65 33.85 269.1 34.65 263.65 35.4 263.55 35.95 264.15 36.65 271.75 37.45 278.3 Q38.0 282.15 38.7 285.8 40.55 296.05 43.55 301.6 46.5 307.15 49.35 311.2 50.25 312.45 50.15 314.05 64.85 316.7 79.65 318.3 L80.05 316.85 80.3 314.65 80.3 312.3 Q70.8 310.15 62.85 305.35 60.4 303.9 58.9 304.5 57.1 302.55 56.15 302.65 L55.45 302.35 54.9 301.8 54.2 301.15 Q64.8 288.25 71.55 273.75 L72.45 271.75 Q79.95 254.75 82.05 236.65 L82.35 233.7 82.35 233.55 82.4 232.9 82.45 232.45 83.0 228.75 83.6 226.0 85.35 216.5 86.9 216.35 88.1 217.45 Q88.9 225.75 90.05 233.65 L91.4 242.0 Q92.6 248.65 94.05 255.1 96.05 263.9 98.65 270.75 101.3 277.65 104.5 282.5 110.9 292.2 117.05 299.25 119.35 301.85 118.65 305.15 L112.3 310.65 Q109.8 312.8 106.5 313.6 98.5 315.05 90.15 314.05 L91.65 319.65 129.4 321.15 Q131.1 313.6 131.85 305.75 L132.05 303.45 132.1 302.85 132.15 302.45 132.5 299.55 132.85 297.35 133.95 289.85 134.95 289.75 135.7 290.55 Q136.5 300.55 137.8 309.9 L139.5 320.2 139.65 321.05 146.5 320.85 179.0 318.5 Q182.8 311.7 185.55 304.4 190.5 291.05 191.8 276.8 L192.0 274.6 192.05 274.05 192.05 273.65 192.4 270.9 192.75 268.85 193.8 261.75 194.75 261.65 195.45 262.45 Q196.15 271.9 197.4 280.65 L199.0 290.35 Q201.4 303.5 205.25 310.75 L207.5 314.85 Q227.75 311.8 247.8 307.3 L249.0 305.25 Q256.0 293.3 260.85 280.3 268.8 258.9 270.9 236.0 L271.2 232.5 271.3 231.55 271.3 230.95 271.85 226.55 272.4 223.25 274.1 211.95 275.6 211.75 276.75 213.05 Q277.9 228.2 279.9 242.3 281.05 250.25 282.45 257.9 286.35 279.05 292.5 290.6 L294.7 294.65 Q314.8 288.2 334.5 280.15 L335.05 276.05 Q331.6 276.55 328.25 275.65 326.85 275.05 325.8 273.35 L323.2 268.95 Q322.85 266.3 323.85 264.3 326.4 258.7 329.1 251.0 331.75 243.25 333.45 229.1 L334.55 218.65 Q335.4 209.2 335.9 199.1 L336.4 198.25 337.05 198.35 Q337.35 202.2 337.8 205.95 L338.05 208.15 338.25 211.15 338.3 211.55 338.3 212.15 338.45 214.55 Q339.35 229.85 342.85 244.15 345.6 255.75 350.05 266.1 L349.75 266.6 349.55 267.05 349.25 267.25 Q348.85 267.2 348.1 268.75 347.45 268.25 346.45 269.4 343.1 273.2 339.2 274.95 L339.2 276.75 339.25 278.2 Q357.75 270.4 375.85 261.05 378.95 259.5 382.1 257.9 382.1 256.0 383.2 254.45 387.1 248.95 391.15 241.35 395.2 233.7 397.8 219.75 L399.45 209.45 Q400.75 200.1 401.55 190.1 L402.3 189.25 403.3 189.4 404.4 196.9 404.8 199.05 405.15 202.0 405.15 202.4 405.2 203.0 405.4 205.35 Q406.8 220.45 412.05 234.55 L414.8 241.2 436.95 229.8 451.6 222.25 453.4 221.35 Q458.7 214.7 462.4 207.45 468.25 195.8 469.85 183.4 L470.1 181.45 470.15 180.95 470.15 180.65 470.55 178.2 471.0 176.45 472.2 170.25 473.35 170.2 474.2 170.85 Q475.05 179.1 476.55 186.75 477.35 191.1 478.4 195.25 480.0 201.7 482.15 206.5 L484.3 205.4 Q505.0 194.75 526.4 186.45 528.1 179.05 528.8 171.45 L529.0 169.15 529.05 168.55 529.1 168.15 529.45 165.25 529.8 163.05 530.9 155.55 531.9 155.45 532.65 156.3 Q533.45 166.25 534.75 175.6 L535.9 182.9 Q550.55 177.6 565.55 173.4 570.65 164.9 574.15 155.5 579.4 141.4 580.8 126.3 L581.0 123.95 581.05 123.35 581.1 122.95 581.45 120.0 581.8 117.85 582.9 110.35 583.9 110.25 584.65 111.1 Q585.45 121.1 586.75 130.45 L588.45 140.75 Q591.0 154.7 595.05 162.3 L597.0 165.8 612.15 163.0 612.15 427.35 0.0 427.35 0.0 300.55 Z" ffdec:has-small-stroke="true" ffdec:original-stroke-width="0.0" fill="none" stroke="#000000" stroke-linecap="round" stroke-linejoin="round" stroke-opacity="0.0" stroke-width="1.0"/>
    </g>
  </defs>
</svg>
