<?xml version="1.0" encoding="UTF-8" standalone="no"?>
<svg xmlns:ffdec="https://www.free-decompiler.com/flash" xmlns:xlink="http://www.w3.org/1999/xlink" ffdec:objectType="frame" height="434.1px" width="621.95px" xmlns="http://www.w3.org/2000/svg">
  <g transform="matrix(1.0, 0.0, 0.0, 1.0, 3.0, 0.0)">
    <use ffdec:characterId="246" height="135.45" transform="matrix(1.0, 0.0, 0.0, 1.0, 0.0, 0.0)" width="612.15" xlink:href="#morphshape0"/>
    <use ffdec:characterId="247" height="329.65" transform="matrix(1.0, 0.0, 0.0, 1.0, -3.0, 43.3)" width="621.95" xlink:href="#morphshape1"/>
    <use ffdec:characterId="248" height="332.95" transform="matrix(1.0, 0.0, 0.0, 1.0, 0.0, 101.15)" width="612.15" xlink:href="#morphshape2"/>
  </g>
  <defs>
    <g id="morphshape0" transform="matrix(1.0, 0.0, 0.0, 1.0, 0.0, 0.0)">
      <path d="M0.0 0.0 L0.0 88.05 0.5 87.9 Q15.85 84.45 31.5 81.7 52.0 78.15 72.7 76.0 110.2 72.1 148.35 72.85 L151.85 73.05 180.35 76.0 Q215.0 80.4 249.0 88.6 267.15 92.95 285.05 98.4 318.6 107.05 351.35 117.55 365.7 122.15 380.05 125.4 408.4 130.4 436.95 133.85 L449.85 135.3 448.2 130.95 446.6 125.8 Q445.0 120.7 444.25 115.65 L441.4 115.6 436.95 114.95 Q424.9 112.25 421.15 99.85 419.7 95.0 420.85 90.3 423.05 81.45 428.2 76.0 435.2 68.6 447.7 67.35 453.05 66.5 457.65 68.1 463.1 62.0 469.1 56.35 482.0 44.1 501.25 43.45 504.25 43.0 507.6 44.05 511.3 45.15 514.85 46.7 532.75 54.55 542.35 68.9 547.4 66.2 553.95 65.35 569.0 66.75 574.15 81.95 575.5 85.95 574.35 89.95 568.7 109.85 548.25 111.95 L545.5 111.75 544.15 111.35 544.0 111.65 Q544.5 114.1 543.95 117.25 L542.55 124.45 Q541.3 130.2 538.85 135.45 L555.45 133.25 612.15 125.55 612.15 0.0 0.0 0.0" fill="#edf4e2" fill-rule="evenodd" stroke="none"/>
      <path d="M0.0 0.0 L612.15 0.0 612.15 125.55 555.45 133.25 538.85 135.45 Q541.3 130.2 542.55 124.45 L543.95 117.25 Q544.5 114.1 544.0 111.65 L544.15 111.35 545.5 111.75 548.25 111.95 Q568.7 109.85 574.35 89.95 575.5 85.95 574.15 81.95 569.0 66.75 553.95 65.35 547.4 66.2 542.35 68.9 532.75 54.55 514.85 46.7 511.3 45.15 507.6 44.05 504.25 43.0 501.25 43.45 482.0 44.1 469.1 56.35 463.1 62.0 457.65 68.1 453.05 66.5 447.7 67.35 435.2 68.6 428.2 76.0 423.05 81.45 420.85 90.3 419.7 95.0 421.15 99.85 424.9 112.25 436.95 114.95 L441.4 115.6 444.25 115.65 Q445.0 120.7 446.6 125.8 L448.2 130.95 449.85 135.3 436.95 133.85 Q408.4 130.4 380.05 125.4 365.7 122.15 351.35 117.55 318.6 107.05 285.05 98.4 267.15 92.95 249.0 88.6 215.0 80.4 180.35 76.0 L151.85 73.05 148.35 72.85 Q110.2 72.1 72.7 76.0 52.0 78.15 31.5 81.7 15.85 84.45 0.5 87.9 L0.0 88.05 0.0 0.0 Z" ffdec:has-small-stroke="true" ffdec:original-stroke-width="0.0" fill="none" stroke="#000000" stroke-linecap="round" stroke-linejoin="round" stroke-opacity="0.0" stroke-width="1.0"/>
    </g>
    <g id="morphshape1" transform="matrix(1.0, 0.0, 0.0, 1.0, 3.0, -43.3)">
      <path d="M-3.0 192.0 L-3.0 372.95 613.95 372.95 613.95 232.0 618.95 232.0 618.95 148.0 612.15 148.0 612.15 125.55 555.45 133.25 538.85 135.45 Q541.3 130.2 542.55 124.45 L543.95 117.25 Q544.5 114.1 544.0 111.65 L544.15 111.35 545.5 111.75 548.25 111.95 Q568.7 109.85 574.35 89.95 575.5 85.95 574.15 81.95 569.0 66.75 553.95 65.35 547.4 66.2 542.35 68.9 532.75 54.55 514.85 46.7 511.3 45.15 507.6 44.05 504.25 43.0 501.25 43.45 482.0 44.1 469.1 56.35 463.1 62.0 457.65 68.1 453.05 66.5 447.7 67.35 435.2 68.6 428.2 76.0 423.05 81.45 420.85 90.3 419.7 95.0 421.15 99.85 424.9 112.25 436.95 114.95 L441.4 115.6 444.25 115.65 Q445.0 120.7 446.6 125.8 L448.2 130.95 449.85 135.3 436.95 133.85 Q408.4 130.4 380.05 125.4 365.7 122.15 351.35 117.55 318.6 107.05 285.05 98.4 267.15 92.95 249.0 88.6 215.0 80.4 180.35 76.0 L151.85 73.05 148.35 72.85 Q110.2 72.1 72.7 76.0 52.0 78.15 31.5 81.7 15.85 84.45 0.5 87.9 L0.0 88.05 0.0 192.0 -3.0 192.0" fill="#e6e6d6" fill-rule="evenodd" stroke="none"/>
      <path d="M-3.0 192.0 L0.0 192.0 0.0 88.05 0.5 87.9 Q15.85 84.45 31.5 81.7 52.0 78.15 72.7 76.0 110.2 72.1 148.35 72.85 L151.85 73.05 180.35 76.0 Q215.0 80.4 249.0 88.6 267.15 92.95 285.05 98.4 318.6 107.05 351.35 117.55 365.7 122.15 380.05 125.4 408.4 130.4 436.95 133.85 L449.85 135.3 448.2 130.95 446.6 125.8 Q445.0 120.7 444.25 115.65 L441.4 115.6 436.95 114.95 Q424.9 112.25 421.15 99.85 419.7 95.0 420.85 90.3 423.05 81.45 428.2 76.0 435.2 68.6 447.7 67.35 453.05 66.5 457.65 68.1 463.1 62.0 469.1 56.35 482.0 44.1 501.25 43.45 504.25 43.0 507.6 44.05 511.3 45.15 514.85 46.7 532.75 54.55 542.35 68.9 547.4 66.2 553.95 65.35 569.0 66.75 574.15 81.95 575.5 85.95 574.35 89.95 568.7 109.85 548.25 111.95 L545.5 111.75 544.15 111.35 544.0 111.65 Q544.5 114.1 543.95 117.25 L542.55 124.45 Q541.3 130.2 538.85 135.45 L555.45 133.25 612.15 125.55 612.15 148.0 618.95 148.0 618.95 232.0 613.95 232.0 613.95 372.95 -3.0 372.95 -3.0 192.0 Z" ffdec:has-small-stroke="true" ffdec:original-stroke-width="0.0" fill="none" stroke="#000000" stroke-linecap="round" stroke-linejoin="round" stroke-opacity="0.0" stroke-width="1.0"/>
    </g>
    <g id="morphshape2" transform="matrix(1.0, 0.0, 0.0, 1.0, 0.0, -101.15)">
      <path d="M0.0 300.5 L0.0 425.45 612.15 425.45 612.15 164.95 597.0 167.7 595.05 164.25 Q591.0 156.75 588.45 143.0 L586.75 132.85 Q585.45 123.65 584.65 113.8 L583.9 112.95 582.9 113.05 581.8 120.45 581.45 122.55 581.1 125.45 581.05 125.85 581.0 126.45 580.8 128.75 Q579.4 143.65 574.15 157.55 570.65 166.8 565.55 175.2 550.55 179.3 535.9 184.5 L534.75 177.3 Q533.45 168.1 532.65 158.3 L531.9 157.45 530.9 157.55 529.8 164.95 529.45 167.1 529.1 169.95 529.05 170.35 529.0 170.95 528.8 173.2 Q528.1 180.7 526.4 188.0 505.0 196.15 484.3 206.65 L482.15 207.75 Q480.0 203.0 478.4 196.65 477.35 192.55 476.55 188.3 475.05 180.75 474.2 172.65 L473.35 172.0 472.2 172.05 471.0 178.15 470.55 179.9 470.15 182.3 470.15 182.6 470.1 183.1 469.85 185.0 Q468.25 197.25 462.4 208.7 458.7 215.85 453.4 222.4 L451.6 223.3 436.95 230.75 414.8 242.0 412.05 235.45 Q406.8 221.55 405.4 206.65 L405.2 204.35 405.15 203.75 405.15 203.35 404.8 200.45 404.4 198.35 403.3 190.95 402.3 190.8 401.55 191.65 Q400.75 201.5 399.45 210.7 L397.8 220.85 Q395.2 234.6 391.15 242.15 387.1 249.65 383.2 255.1 382.1 256.6 382.1 258.45 378.95 260.05 375.85 261.6 357.75 270.8 339.25 278.5 L339.2 277.05 339.2 275.25 Q343.1 273.55 346.45 269.8 347.45 268.65 348.1 269.15 348.85 267.6 349.25 267.65 L349.55 267.45 349.75 267.0 350.05 266.5 Q345.6 256.3 342.85 244.85 339.35 230.75 338.45 215.7 L338.3 213.35 338.3 212.75 338.25 212.35 338.05 209.4 337.8 207.25 Q337.35 203.55 337.05 199.8 L336.4 199.7 335.9 200.55 Q335.4 210.5 334.55 219.8 L333.45 230.1 Q331.75 244.05 329.1 251.7 326.4 259.3 323.85 264.85 322.85 266.85 323.2 269.45 L325.8 273.75 Q326.85 275.45 328.25 276.05 331.6 276.85 335.05 276.45 L334.5 280.5 Q314.8 288.45 294.7 294.8 L292.5 290.8 Q286.35 279.4 282.45 258.55 281.05 251.0 279.9 243.2 277.9 229.3 276.75 214.4 L275.6 213.15 274.1 213.35 272.4 224.5 271.85 227.75 271.3 232.1 271.3 232.7 271.2 233.65 270.9 237.1 Q268.8 259.65 260.85 280.7 256.0 293.5 249.0 305.25 L247.8 307.25 Q227.75 311.65 207.5 314.65 L205.25 310.6 Q201.4 303.45 199.0 290.5 L197.4 280.95 Q196.15 272.3 195.45 263.0 L194.75 262.2 193.8 262.3 192.75 269.3 192.4 271.3 192.05 274.0 192.05 274.4 192.0 274.95 191.8 277.1 Q190.5 291.1 185.55 304.25 182.8 311.45 179.0 318.15 L146.5 320.45 139.65 320.65 139.5 319.8 137.8 309.65 Q136.5 300.45 135.7 290.6 L134.95 289.8 133.95 289.9 132.85 297.3 132.5 299.45 132.15 302.3 132.1 302.7 132.05 303.3 131.85 305.55 Q131.1 313.3 129.4 320.75 L91.65 319.25 90.15 313.7 Q98.5 314.7 106.5 313.3 109.8 312.5 112.3 310.4 L118.65 305.0 Q119.35 301.75 117.05 299.2 110.9 292.25 104.5 282.7 101.3 277.9 98.65 271.1 96.05 264.35 94.05 255.65 92.6 249.3 91.4 242.75 L90.05 234.55 Q88.9 226.75 88.1 218.6 L86.9 217.55 85.35 217.7 83.6 227.05 83.0 229.75 82.45 233.4 82.4 233.85 82.35 234.5 82.35 234.65 82.05 237.55 Q79.95 255.4 72.45 272.15 L71.55 274.15 Q64.8 288.45 54.2 301.15 L54.9 301.8 55.45 302.35 56.15 302.65 Q57.1 302.55 58.9 304.5 60.4 303.9 62.85 305.3 70.8 310.05 80.3 312.15 L80.3 314.45 80.05 316.6 79.65 318.0 Q64.85 316.4 50.15 313.8 50.25 312.2 49.35 311.0 46.5 307.0 43.55 301.5 40.55 296.0 38.7 285.9 38.0 282.3 37.45 278.5 L36.65 272.05 35.95 264.55 35.4 263.95 34.65 264.05 33.85 269.45 33.6 271.0 33.5 272.05 33.3 273.1 33.3 273.4 33.25 273.85 33.1 275.55 Q32.1 286.45 28.25 296.6 26.0 302.55 22.85 308.0 11.1 304.85 0.0 300.45" fill="#d6d1bd" fill-rule="evenodd" stroke="none"/>
      <path d="M0.0 300.45 Q11.1 304.85 22.85 308.0 26.0 302.55 28.25 296.6 32.1 286.45 33.1 275.55 L33.25 273.85 33.3 273.4 33.3 273.1 33.5 272.05 33.6 271.0 33.85 269.45 34.65 264.05 35.4 263.95 35.95 264.55 36.65 272.05 37.45 278.5 Q38.0 282.3 38.7 285.9 40.55 296.0 43.55 301.5 46.5 307.0 49.35 311.0 50.25 312.2 50.15 313.8 64.85 316.4 79.65 318.0 L80.05 316.6 80.3 314.45 80.3 312.15 Q70.8 310.05 62.85 305.3 60.4 303.9 58.9 304.5 57.1 302.55 56.15 302.65 L55.45 302.35 54.9 301.8 54.2 301.15 Q64.8 288.45 71.55 274.15 L72.45 272.15 Q79.95 255.4 82.05 237.55 L82.35 234.65 82.35 234.5 82.4 233.85 82.45 233.4 83.0 229.75 83.6 227.05 85.35 217.7 86.9 217.55 88.1 218.6 Q88.9 226.75 90.05 234.55 L91.4 242.75 Q92.6 249.3 94.05 255.65 96.05 264.35 98.65 271.1 101.3 277.9 104.5 282.7 110.9 292.25 117.05 299.2 119.35 301.75 118.65 305.0 L112.3 310.4 Q109.8 312.5 106.5 313.3 98.5 314.7 90.15 313.7 L91.65 319.25 129.4 320.75 Q131.1 313.3 131.85 305.55 L132.05 303.3 132.1 302.7 132.15 302.3 132.5 299.45 132.85 297.3 133.95 289.9 134.95 289.8 135.7 290.6 Q136.5 300.45 137.8 309.65 L139.5 319.8 139.65 320.65 146.5 320.45 179.0 318.15 Q182.8 311.45 185.55 304.25 190.5 291.1 191.8 277.1 L192.0 274.95 192.05 274.4 192.05 274.0 192.4 271.3 192.75 269.3 193.8 262.3 194.75 262.2 195.45 263.0 Q196.15 272.3 197.4 280.95 L199.0 290.5 Q201.4 303.45 205.25 310.6 L207.5 314.65 Q227.75 311.65 247.8 307.25 L249.0 305.25 Q256.0 293.5 260.85 280.7 268.8 259.65 270.9 237.1 L271.2 233.65 271.3 232.7 271.3 232.1 271.85 227.75 272.4 224.5 274.1 213.35 275.6 213.15 276.75 214.4 Q277.9 229.3 279.9 243.2 281.05 251.0 282.45 258.55 286.35 279.4 292.5 290.8 L294.7 294.8 Q314.8 288.45 334.5 280.5 L335.05 276.45 Q331.6 276.85 328.25 276.05 326.85 275.45 325.8 273.75 L323.2 269.45 Q322.85 266.85 323.85 264.85 326.4 259.3 329.1 251.7 331.75 244.05 333.45 230.1 L334.55 219.8 Q335.4 210.5 335.9 200.55 L336.4 199.7 337.05 199.8 Q337.35 203.55 337.8 207.25 L338.05 209.4 338.25 212.35 338.3 212.75 338.3 213.35 338.45 215.7 Q339.35 230.75 342.85 244.85 345.6 256.3 350.05 266.5 L349.75 267.0 349.55 267.45 349.25 267.65 Q348.85 267.6 348.1 269.15 347.45 268.65 346.45 269.8 343.1 273.55 339.2 275.25 L339.2 277.05 339.25 278.5 Q357.75 270.8 375.85 261.6 378.95 260.05 382.1 258.45 382.1 256.6 383.2 255.1 387.1 249.65 391.15 242.15 395.2 234.6 397.8 220.85 L399.45 210.7 Q400.75 201.5 401.55 191.65 L402.3 190.8 403.3 190.95 404.4 198.35 404.8 200.45 405.15 203.35 405.15 203.75 405.2 204.35 405.4 206.65 Q406.8 221.55 412.05 235.45 L414.8 242.0 436.95 230.75 451.6 223.3 453.4 222.4 Q458.7 215.85 462.4 208.7 468.25 197.25 469.85 185.0 L470.1 183.1 470.15 182.6 470.15 182.3 470.55 179.9 471.0 178.15 472.2 172.05 473.35 172.0 474.2 172.65 Q475.05 180.75 476.55 188.3 477.35 192.55 478.4 196.65 480.0 203.0 482.15 207.75 L484.3 206.65 Q505.0 196.15 526.4 188.0 528.1 180.7 528.8 173.2 L529.0 170.95 529.05 170.35 529.1 169.95 529.45 167.1 529.8 164.95 530.9 157.55 531.9 157.45 532.65 158.3 Q533.45 168.1 534.75 177.3 L535.9 184.5 Q550.55 179.3 565.55 175.2 570.65 166.8 574.15 157.55 579.4 143.65 580.8 128.75 L581.0 126.45 581.05 125.85 581.1 125.45 581.45 122.55 581.8 120.45 582.9 113.05 583.9 112.95 584.65 113.8 Q585.45 123.65 586.75 132.85 L588.45 143.0 Q591.0 156.75 595.05 164.25 L597.0 167.7 612.15 164.95 612.15 425.45 0.0 425.45 0.0 300.5" ffdec:has-small-stroke="true" ffdec:original-stroke-width="0.0" fill="none" stroke="#000000" stroke-linecap="round" stroke-linejoin="round" stroke-opacity="0.0" stroke-width="1.0"/>
    </g>
  </defs>
</svg>
