<?xml version="1.0" encoding="UTF-8" standalone="no"?>
<svg xmlns:ffdec="https://www.free-decompiler.com/flash" xmlns:xlink="http://www.w3.org/1999/xlink" ffdec:objectType="frame" height="434.1px" width="621.95px" xmlns="http://www.w3.org/2000/svg">
  <g transform="matrix(1.0, 0.0, 0.0, 1.0, 3.0, 0.0)">
    <use ffdec:characterId="246" height="135.45" transform="matrix(1.0, 0.0, 0.0, 1.0, 0.0, 0.0)" width="612.15" xlink:href="#morphshape0"/>
    <use ffdec:characterId="247" height="329.65" transform="matrix(1.0, 0.0, 0.0, 1.0, -3.0, 43.3)" width="621.95" xlink:href="#morphshape1"/>
    <use ffdec:characterId="248" height="332.95" transform="matrix(1.0, 0.0, 0.0, 1.0, 0.0, 101.15)" width="612.15" xlink:href="#morphshape2"/>
  </g>
  <defs>
    <g id="morphshape0" transform="matrix(1.0, 0.0, 0.0, 1.0, 0.0, 0.0)">
      <path d="M0.0 0.0 L0.0 88.05 0.5 87.9 Q15.85 84.45 31.5 81.7 52.0 78.15 72.7 76.0 110.2 72.1 148.35 72.85 L151.85 73.05 180.35 76.0 Q215.0 80.4 249.0 88.6 267.15 92.95 285.05 98.4 318.6 107.05 351.35 117.55 365.7 122.15 380.05 125.4 408.4 130.4 436.95 133.85 L449.85 135.3 448.2 130.95 446.6 125.8 Q445.0 120.7 444.25 115.65 L441.4 115.6 436.95 114.95 Q424.9 112.25 421.15 99.85 419.7 95.0 420.85 90.3 423.05 81.45 428.2 76.0 435.2 68.6 447.7 67.35 453.05 66.5 457.65 68.1 463.1 62.0 469.1 56.35 482.0 44.1 501.25 43.45 504.25 43.0 507.6 44.05 511.3 45.15 514.85 46.7 532.75 54.55 542.35 68.9 547.4 66.2 553.95 65.35 569.0 66.75 574.15 81.95 575.5 85.95 574.35 89.95 568.7 109.85 548.25 111.95 L545.5 111.75 544.15 111.35 544.0 111.65 Q544.5 114.1 543.95 117.25 L542.55 124.45 Q541.3 130.2 538.85 135.45 L555.45 133.25 612.15 125.55 612.15 0.0 0.0 0.0" fill="#e9f3e6" fill-rule="evenodd" stroke="none"/>
      <path d="M0.0 0.0 L612.15 0.0 612.15 125.55 555.45 133.25 538.85 135.45 Q541.3 130.2 542.55 124.45 L543.95 117.25 Q544.5 114.1 544.0 111.65 L544.15 111.35 545.5 111.75 548.25 111.95 Q568.7 109.85 574.35 89.95 575.5 85.95 574.15 81.95 569.0 66.75 553.95 65.35 547.4 66.2 542.35 68.9 532.75 54.55 514.85 46.7 511.3 45.15 507.6 44.05 504.25 43.0 501.25 43.45 482.0 44.1 469.1 56.35 463.1 62.0 457.65 68.1 453.05 66.5 447.7 67.35 435.2 68.6 428.2 76.0 423.05 81.45 420.85 90.3 419.7 95.0 421.15 99.85 424.9 112.25 436.95 114.95 L441.4 115.6 444.25 115.65 Q445.0 120.7 446.6 125.8 L448.2 130.95 449.85 135.3 436.95 133.85 Q408.4 130.4 380.05 125.4 365.7 122.15 351.35 117.55 318.6 107.05 285.05 98.4 267.15 92.95 249.0 88.6 215.0 80.4 180.35 76.0 L151.85 73.05 148.35 72.85 Q110.2 72.1 72.7 76.0 52.0 78.15 31.5 81.7 15.85 84.45 0.5 87.9 L0.0 88.05 0.0 0.0 Z" ffdec:has-small-stroke="true" ffdec:original-stroke-width="0.0" fill="none" stroke="#000000" stroke-linecap="round" stroke-linejoin="round" stroke-opacity="0.0" stroke-width="1.0"/>
    </g>
    <g id="morphshape1" transform="matrix(1.0, 0.0, 0.0, 1.0, 3.0, -43.3)">
      <path d="M-3.0 192.0 L-3.0 372.95 613.95 372.95 613.95 232.0 618.95 232.0 618.95 148.0 612.15 148.0 612.15 125.55 555.45 133.25 538.85 135.45 Q541.3 130.2 542.55 124.45 L543.95 117.25 Q544.5 114.1 544.0 111.65 L544.15 111.35 545.5 111.75 548.25 111.95 Q568.7 109.85 574.35 89.95 575.5 85.95 574.15 81.95 569.0 66.75 553.95 65.35 547.4 66.2 542.35 68.9 532.75 54.55 514.85 46.7 511.3 45.15 507.6 44.05 504.25 43.0 501.25 43.45 482.0 44.1 469.1 56.35 463.1 62.0 457.65 68.1 453.05 66.5 447.7 67.35 435.2 68.6 428.2 76.0 423.05 81.45 420.85 90.3 419.7 95.0 421.15 99.85 424.9 112.25 436.95 114.95 L441.4 115.6 444.25 115.65 Q445.0 120.7 446.6 125.8 L448.2 130.95 449.85 135.3 436.95 133.85 Q408.4 130.4 380.05 125.4 365.7 122.15 351.35 117.55 318.6 107.05 285.05 98.4 267.15 92.95 249.0 88.6 215.0 80.4 180.35 76.0 L151.85 73.05 148.35 72.85 Q110.2 72.1 72.7 76.0 52.0 78.15 31.5 81.7 15.85 84.45 0.5 87.9 L0.0 88.05 0.0 192.0 -3.0 192.0" fill="#e0e6dc" fill-rule="evenodd" stroke="none"/>
      <path d="M-3.0 192.0 L0.0 192.0 0.0 88.05 0.5 87.9 Q15.85 84.45 31.5 81.7 52.0 78.15 72.7 76.0 110.2 72.1 148.35 72.85 L151.85 73.05 180.35 76.0 Q215.0 80.4 249.0 88.6 267.15 92.95 285.05 98.4 318.6 107.05 351.35 117.55 365.7 122.15 380.05 125.4 408.4 130.4 436.95 133.85 L449.85 135.3 448.2 130.95 446.6 125.8 Q445.0 120.7 444.25 115.65 L441.4 115.6 436.95 114.95 Q424.9 112.25 421.15 99.85 419.7 95.0 420.85 90.3 423.05 81.45 428.2 76.0 435.2 68.6 447.7 67.35 453.05 66.5 457.65 68.1 463.1 62.0 469.1 56.35 482.0 44.1 501.25 43.45 504.25 43.0 507.6 44.05 511.3 45.15 514.85 46.7 532.75 54.55 542.35 68.9 547.4 66.2 553.95 65.35 569.0 66.75 574.15 81.95 575.5 85.95 574.35 89.95 568.7 109.85 548.25 111.95 L545.5 111.75 544.15 111.35 544.0 111.65 Q544.5 114.1 543.95 117.25 L542.55 124.45 Q541.3 130.2 538.85 135.45 L555.45 133.25 612.15 125.55 612.15 148.0 618.95 148.0 618.95 232.0 613.95 232.0 613.95 372.95 -3.0 372.95 -3.0 192.0 Z" ffdec:has-small-stroke="true" ffdec:original-stroke-width="0.0" fill="none" stroke="#000000" stroke-linecap="round" stroke-linejoin="round" stroke-opacity="0.0" stroke-width="1.0"/>
    </g>
    <g id="morphshape2" transform="matrix(1.0, 0.0, 0.0, 1.0, 0.0, -101.15)">
      <path d="M0.0 300.0 L0.0 423.2 612.15 423.2 612.15 166.3 597.0 169.05 595.05 165.65 Q591.0 158.25 588.45 144.7 L586.75 134.7 Q585.45 125.6 584.65 115.9 L583.9 115.05 582.9 115.15 581.8 122.45 581.45 124.55 581.1 127.4 581.05 127.8 581.0 128.4 580.8 130.65 Q579.4 145.35 574.15 159.05 570.65 168.15 565.55 176.45 550.55 180.5 535.9 185.65 L534.75 178.55 Q533.45 169.45 532.65 159.75 L531.9 158.9 530.9 159.0 529.8 166.3 529.45 168.4 529.1 171.25 529.05 171.65 529.0 172.25 528.8 174.5 Q528.1 181.9 526.4 189.1 505.0 197.15 484.3 207.5 L482.15 208.6 Q480.0 203.9 478.4 197.65 477.35 193.6 476.55 189.4 475.05 181.95 474.2 173.95 L473.35 173.3 472.2 173.35 471.0 179.35 470.55 181.05 470.15 183.4 470.15 183.7 470.1 184.2 469.85 186.1 Q468.25 198.15 462.4 209.45 458.7 216.5 453.4 222.95 L451.6 223.85 436.95 231.2 414.8 242.3 412.05 235.85 Q406.8 222.15 405.4 207.45 L405.2 205.2 405.15 204.6 405.15 204.2 404.8 201.35 404.4 199.25 403.3 191.95 402.3 191.8 401.55 192.65 Q400.75 202.35 399.45 211.45 L397.8 221.45 Q395.2 235.0 391.15 242.45 387.1 249.85 383.2 255.2 382.1 256.7 382.1 258.55 378.95 260.15 375.85 261.7 357.75 270.75 339.25 278.35 L339.2 276.9 339.2 275.1 Q343.1 273.4 346.45 269.7 347.45 268.55 348.1 269.05 348.85 267.5 349.25 267.55 L349.55 267.35 349.75 266.9 350.05 266.4 Q345.6 256.35 342.85 245.1 339.35 231.2 338.45 216.35 L338.3 214.05 338.3 213.45 338.25 213.05 338.05 210.15 337.8 208.0 Q337.35 204.35 337.05 200.65 L336.4 200.55 335.9 201.4 Q335.4 211.25 334.55 220.45 L333.45 230.6 Q331.75 244.35 329.1 251.9 326.4 259.4 323.85 264.85 322.85 266.8 323.2 269.4 L325.8 273.65 Q326.85 275.3 328.25 275.9 331.6 276.6 335.05 276.25 L334.5 280.25 Q314.8 288.1 294.7 294.35 L292.5 290.4 Q286.35 279.15 282.45 258.6 281.05 251.15 279.9 243.45 277.9 229.75 276.75 215.05 L275.6 213.8 274.1 214.0 272.4 225.0 271.85 228.2 271.3 232.5 271.3 233.1 271.2 234.05 270.9 237.45 Q268.8 259.7 260.85 280.5 256.0 293.15 249.0 304.75 L247.8 306.75 Q227.75 311.1 207.5 314.05 L205.25 310.05 Q201.4 303.0 199.0 290.25 L197.4 280.8 Q196.15 272.25 195.45 263.1 L194.75 262.3 193.8 262.4 192.75 269.3 192.4 271.3 192.05 273.95 192.05 274.35 192.0 274.9 191.8 277.05 Q190.5 290.9 185.55 303.85 182.8 310.95 179.0 317.55 L146.5 319.8 139.65 320.0 139.5 319.15 137.8 309.15 Q136.5 300.05 135.7 290.35 L134.95 289.55 133.95 289.65 132.85 296.95 132.5 299.05 132.15 301.9 132.1 302.3 132.05 302.9 131.85 305.15 Q131.1 312.8 129.4 320.15 L91.65 318.65 90.15 313.2 Q98.5 314.2 106.5 312.8 109.8 312.0 112.3 309.9 L118.65 304.55 Q119.35 301.35 117.05 298.85 110.9 292.0 104.5 282.6 101.3 277.9 98.65 271.2 96.05 264.55 94.05 256.0 92.6 249.75 91.4 243.3 L90.05 235.2 Q88.9 227.5 88.1 219.45 L86.9 218.4 85.35 218.55 83.6 227.8 83.0 230.5 82.45 234.1 82.4 234.55 82.35 235.2 82.35 235.35 82.05 238.25 Q79.95 255.85 72.45 272.35 L71.55 274.3 Q64.8 288.4 54.2 300.95 L54.9 301.6 55.45 302.15 56.15 302.45 Q57.1 302.35 58.9 304.25 60.4 303.65 62.85 305.05 70.8 309.7 80.3 311.8 L80.3 314.05 80.05 316.2 79.65 317.6 Q64.85 316.0 50.15 313.45 50.25 311.9 49.35 310.7 46.5 306.75 43.55 301.35 40.55 295.95 38.7 286.0 38.0 282.45 37.45 278.7 L36.65 272.35 35.95 264.95 35.4 264.35 34.65 264.45 33.85 269.75 33.6 271.3 33.5 272.35 33.3 273.4 33.3 273.7 33.25 274.15 33.1 275.8 Q32.1 286.55 28.25 296.55 26.0 302.4 22.85 307.8 11.1 304.7 0.0 300.35" fill="#cdd1c6" fill-rule="evenodd" stroke="none"/>
      <path d="M0.0 300.35 Q11.1 304.7 22.85 307.8 26.0 302.4 28.25 296.55 32.1 286.55 33.1 275.8 L33.25 274.15 33.3 273.7 33.3 273.4 33.5 272.35 33.6 271.3 33.85 269.75 34.65 264.45 35.4 264.35 35.95 264.95 36.65 272.35 37.45 278.7 Q38.0 282.45 38.7 286.0 40.55 295.95 43.55 301.35 46.5 306.75 49.35 310.7 50.25 311.9 50.15 313.45 64.85 316.0 79.65 317.6 L80.05 316.2 80.3 314.05 80.3 311.8 Q70.8 309.7 62.85 305.05 60.4 303.65 58.9 304.25 57.1 302.35 56.15 302.45 L55.45 302.15 54.9 301.6 54.2 300.95 Q64.8 288.4 71.55 274.3 L72.45 272.35 Q79.95 255.85 82.05 238.25 L82.35 235.35 82.35 235.2 82.4 234.55 82.45 234.1 83.0 230.5 83.6 227.8 85.35 218.55 86.9 218.4 88.1 219.45 Q88.9 227.5 90.05 235.2 L91.4 243.3 Q92.6 249.75 94.05 256.0 96.05 264.55 98.65 271.2 101.3 277.9 104.5 282.6 110.9 292.0 117.05 298.85 119.35 301.35 118.65 304.55 L112.3 309.9 Q109.8 312.0 106.5 312.8 98.5 314.2 90.15 313.2 L91.65 318.65 129.4 320.15 Q131.1 312.8 131.85 305.15 L132.05 302.9 132.1 302.3 132.15 301.9 132.5 299.05 132.85 296.95 133.95 289.65 134.95 289.55 135.7 290.35 Q136.5 300.05 137.8 309.15 L139.5 319.15 139.65 320.0 146.5 319.8 179.0 317.55 Q182.8 310.95 185.55 303.85 190.5 290.9 191.8 277.05 L192.0 274.9 192.05 274.35 192.05 273.95 192.4 271.3 192.75 269.3 193.8 262.4 194.75 262.3 195.45 263.1 Q196.15 272.25 197.4 280.8 L199.0 290.25 Q201.4 303.0 205.25 310.05 L207.5 314.05 Q227.75 311.1 247.8 306.75 L249.0 304.75 Q256.0 293.15 260.85 280.5 268.8 259.7 270.9 237.45 L271.2 234.05 271.3 233.1 271.3 232.5 271.85 228.2 272.4 225.0 274.1 214.0 275.6 213.8 276.75 215.05 Q277.9 229.75 279.9 243.45 281.05 251.15 282.45 258.6 286.35 279.15 292.5 290.4 L294.7 294.35 Q314.8 288.1 334.5 280.25 L335.05 276.25 Q331.6 276.6 328.25 275.9 326.85 275.3 325.8 273.65 L323.2 269.4 Q322.85 266.8 323.85 264.85 326.4 259.4 329.1 251.9 331.75 244.35 333.45 230.6 L334.55 220.45 Q335.4 211.25 335.9 201.4 L336.4 200.55 337.05 200.65 Q337.35 204.35 337.8 208.0 L338.05 210.15 338.25 213.05 338.3 213.45 338.3 214.05 338.45 216.35 Q339.35 231.2 342.85 245.1 345.6 256.35 350.05 266.4 L349.75 266.9 349.55 267.35 349.25 267.55 Q348.85 267.5 348.1 269.05 347.45 268.55 346.45 269.7 343.1 273.4 339.2 275.1 L339.2 276.9 339.25 278.35 Q357.75 270.75 375.85 261.7 378.95 260.15 382.1 258.55 382.1 256.7 383.2 255.2 387.1 249.85 391.15 242.45 395.2 235.0 397.8 221.45 L399.45 211.45 Q400.75 202.35 401.55 192.65 L402.3 191.8 403.3 191.95 404.4 199.25 404.8 201.35 405.15 204.2 405.15 204.6 405.2 205.2 405.4 207.45 Q406.8 222.15 412.05 235.85 L414.8 242.3 436.95 231.2 451.6 223.85 453.4 222.95 Q458.7 216.5 462.4 209.45 468.25 198.15 469.85 186.1 L470.1 184.2 470.15 183.7 470.15 183.4 470.55 181.05 471.0 179.35 472.2 173.35 473.35 173.3 474.2 173.95 Q475.05 181.95 476.55 189.4 477.35 193.6 478.4 197.65 480.0 203.9 482.15 208.6 L484.3 207.5 Q505.0 197.15 526.4 189.1 528.1 181.9 528.8 174.5 L529.0 172.25 529.05 171.65 529.1 171.25 529.45 168.4 529.8 166.3 530.9 159.0 531.9 158.9 532.65 159.75 Q533.45 169.45 534.75 178.55 L535.9 185.65 Q550.55 180.5 565.55 176.45 570.65 168.15 574.15 159.05 579.4 145.35 580.8 130.65 L581.0 128.4 581.05 127.8 581.1 127.4 581.45 124.55 581.8 122.45 582.9 115.15 583.9 115.05 584.65 115.9 Q585.45 125.6 586.75 134.7 L588.45 144.7 Q591.0 158.25 595.05 165.65 L597.0 169.05 612.15 166.3 612.15 423.2 0.0 423.2 0.0 300.0" ffdec:has-small-stroke="true" ffdec:original-stroke-width="0.0" fill="none" stroke="#000000" stroke-linecap="round" stroke-linejoin="round" stroke-opacity="0.0" stroke-width="1.0"/>
    </g>
  </defs>
</svg>
