<?xml version="1.0" encoding="UTF-8" standalone="no"?>
<svg xmlns:ffdec="https://www.free-decompiler.com/flash" xmlns:xlink="http://www.w3.org/1999/xlink" ffdec:objectType="frame" height="434.1px" width="621.95px" xmlns="http://www.w3.org/2000/svg">
  <g transform="matrix(1.0, 0.0, 0.0, 1.0, 3.0, 0.0)">
    <use ffdec:characterId="246" height="135.45" transform="matrix(1.0, 0.0, 0.0, 1.0, 0.0, 0.0)" width="612.15" xlink:href="#morphshape0"/>
    <use ffdec:characterId="247" height="329.65" transform="matrix(1.0, 0.0, 0.0, 1.0, -3.0, 43.3)" width="621.95" xlink:href="#morphshape1"/>
    <use ffdec:characterId="248" height="332.95" transform="matrix(1.0, 0.0, 0.0, 1.0, 0.0, 101.15)" width="612.15" xlink:href="#morphshape2"/>
  </g>
  <defs>
    <g id="morphshape0" transform="matrix(1.0, 0.0, 0.0, 1.0, 0.0, 0.0)">
      <path d="M0.0 0.0 L0.0 88.05 0.5 87.9 Q15.85 84.45 31.5 81.7 52.0 78.15 72.7 76.0 110.2 72.1 148.35 72.85 L151.85 73.05 180.35 76.0 Q215.0 80.4 249.0 88.6 267.15 92.95 285.05 98.4 318.6 107.05 351.35 117.55 365.7 122.15 380.05 125.4 408.4 130.4 436.95 133.85 L449.85 135.3 448.2 130.95 446.6 125.8 Q445.0 120.7 444.25 115.65 L441.4 115.6 436.95 114.95 Q424.9 112.25 421.15 99.85 419.7 95.0 420.85 90.3 423.05 81.45 428.2 76.0 435.2 68.6 447.7 67.35 453.05 66.5 457.65 68.1 463.1 62.0 469.1 56.35 482.0 44.1 501.25 43.45 504.25 43.0 507.6 44.05 511.3 45.15 514.85 46.7 532.75 54.55 542.35 68.9 547.4 66.2 553.95 65.35 569.0 66.75 574.15 81.95 575.5 85.95 574.35 89.95 568.7 109.85 548.25 111.95 L545.5 111.75 544.15 111.35 544.0 111.65 Q544.5 114.1 543.95 117.25 L542.55 124.45 Q541.3 130.2 538.85 135.45 L555.45 133.25 612.15 125.55 612.15 0.0 0.0 0.0" fill="#e6f2e9" fill-rule="evenodd" stroke="none"/>
      <path d="M0.0 0.0 L612.15 0.0 612.15 125.55 555.45 133.25 538.85 135.45 Q541.3 130.2 542.55 124.45 L543.95 117.25 Q544.5 114.1 544.0 111.65 L544.15 111.35 545.5 111.75 548.25 111.95 Q568.7 109.85 574.35 89.95 575.5 85.95 574.15 81.95 569.0 66.75 553.95 65.35 547.4 66.2 542.35 68.9 532.75 54.55 514.85 46.7 511.3 45.15 507.6 44.05 504.25 43.0 501.25 43.45 482.0 44.1 469.1 56.35 463.1 62.0 457.65 68.1 453.05 66.5 447.7 67.35 435.2 68.6 428.2 76.0 423.05 81.45 420.85 90.3 419.7 95.0 421.15 99.85 424.9 112.25 436.95 114.95 L441.4 115.6 444.25 115.65 Q445.0 120.7 446.6 125.8 L448.2 130.95 449.85 135.3 436.95 133.85 Q408.4 130.4 380.05 125.4 365.7 122.15 351.35 117.55 318.6 107.05 285.05 98.4 267.15 92.95 249.0 88.6 215.0 80.4 180.35 76.0 L151.85 73.05 148.35 72.85 Q110.2 72.1 72.7 76.0 52.0 78.15 31.5 81.7 15.85 84.45 0.5 87.9 L0.0 88.05 0.0 0.0 Z" ffdec:has-small-stroke="true" ffdec:original-stroke-width="0.0" fill="none" stroke="#000000" stroke-linecap="round" stroke-linejoin="round" stroke-opacity="0.0" stroke-width="1.0"/>
    </g>
    <g id="morphshape1" transform="matrix(1.0, 0.0, 0.0, 1.0, 3.0, -43.3)">
      <path d="M-3.0 192.0 L-3.0 372.95 613.95 372.95 613.95 232.0 618.95 232.0 618.95 148.0 612.15 148.0 612.15 125.55 555.45 133.25 538.85 135.45 Q541.3 130.2 542.55 124.45 L543.95 117.25 Q544.5 114.1 544.0 111.65 L544.15 111.35 545.5 111.75 548.25 111.95 Q568.7 109.85 574.35 89.95 575.5 85.95 574.15 81.95 569.0 66.75 553.95 65.35 547.4 66.2 542.35 68.9 532.75 54.55 514.85 46.7 511.3 45.15 507.6 44.05 504.25 43.0 501.25 43.45 482.0 44.1 469.1 56.35 463.1 62.0 457.65 68.1 453.05 66.5 447.7 67.35 435.2 68.6 428.2 76.0 423.05 81.45 420.85 90.3 419.7 95.0 421.15 99.85 424.9 112.25 436.95 114.95 L441.4 115.6 444.25 115.65 Q445.0 120.7 446.6 125.8 L448.2 130.95 449.85 135.3 436.95 133.85 Q408.4 130.4 380.05 125.4 365.7 122.15 351.35 117.55 318.6 107.05 285.05 98.4 267.15 92.95 249.0 88.6 215.0 80.4 180.35 76.0 L151.85 73.05 148.35 72.85 Q110.2 72.1 72.7 76.0 52.0 78.15 31.5 81.7 15.85 84.45 0.5 87.9 L0.0 88.05 0.0 192.0 -3.0 192.0" fill="#dbe6e1" fill-rule="evenodd" stroke="none"/>
      <path d="M-3.0 192.0 L0.0 192.0 0.0 88.05 0.5 87.9 Q15.85 84.45 31.5 81.7 52.0 78.15 72.7 76.0 110.2 72.1 148.35 72.85 L151.85 73.05 180.35 76.0 Q215.0 80.4 249.0 88.6 267.15 92.95 285.05 98.4 318.6 107.05 351.35 117.55 365.7 122.15 380.05 125.4 408.4 130.4 436.95 133.85 L449.85 135.3 448.2 130.95 446.6 125.8 Q445.0 120.7 444.25 115.65 L441.4 115.6 436.95 114.95 Q424.9 112.25 421.15 99.85 419.7 95.0 420.85 90.3 423.05 81.45 428.2 76.0 435.2 68.6 447.7 67.35 453.05 66.5 457.65 68.1 463.1 62.0 469.1 56.35 482.0 44.1 501.25 43.45 504.25 43.0 507.6 44.05 511.3 45.15 514.85 46.7 532.75 54.55 542.35 68.9 547.4 66.2 553.95 65.35 569.0 66.75 574.15 81.95 575.5 85.95 574.35 89.95 568.7 109.85 548.25 111.95 L545.5 111.75 544.15 111.35 544.0 111.65 Q544.5 114.1 543.95 117.25 L542.55 124.45 Q541.3 130.2 538.85 135.45 L555.45 133.25 612.15 125.55 612.15 148.0 618.95 148.0 618.95 232.0 613.95 232.0 613.95 372.95 -3.0 372.95 -3.0 192.0 Z" ffdec:has-small-stroke="true" ffdec:original-stroke-width="0.0" fill="none" stroke="#000000" stroke-linecap="round" stroke-linejoin="round" stroke-opacity="0.0" stroke-width="1.0"/>
    </g>
    <g id="morphshape2" transform="matrix(1.0, 0.0, 0.0, 1.0, 0.0, -101.15)">
      <path d="M0.0 300.05 L0.0 421.65 612.15 421.65 612.15 168.1 597.0 170.8 595.05 167.45 Q591.0 160.15 588.45 146.75 L586.75 136.9 Q585.45 127.95 584.65 118.35 L583.9 117.55 582.9 117.65 581.8 124.85 581.45 126.9 581.1 129.7 581.05 130.05 581.0 130.65 580.8 132.9 Q579.4 147.4 574.15 160.9 570.65 169.9 565.55 178.05 550.55 182.05 535.9 187.15 L534.75 180.15 Q533.45 171.2 532.65 161.65 L531.9 160.85 530.9 160.95 529.8 168.15 529.45 170.25 529.1 173.05 529.05 173.45 529.0 174.05 528.8 176.25 Q528.1 183.55 526.4 190.65 505.0 198.6 484.3 208.85 L482.15 209.9 Q480.0 205.25 478.4 199.05 477.35 195.05 476.55 190.9 475.05 183.55 474.2 175.65 L473.35 175.0 472.2 175.05 471.0 181.0 470.55 182.7 470.15 185.05 470.15 185.35 470.1 185.85 469.85 187.7 Q468.25 199.6 462.4 210.75 458.7 217.7 453.4 224.05 L451.6 224.9 436.95 232.15 414.8 243.1 412.05 236.7 Q406.8 223.2 405.4 208.7 L405.2 206.45 405.15 205.85 405.15 205.5 404.8 202.7 404.4 200.65 403.3 193.45 402.3 193.35 401.55 194.15 Q400.75 203.75 399.45 212.7 L397.8 222.55 Q395.2 235.95 391.15 243.3 387.1 250.6 383.2 255.9 382.1 257.4 382.1 259.2 378.95 260.75 375.85 262.25 357.75 271.2 339.25 278.7 L339.2 277.3 339.2 275.55 Q343.1 273.9 346.45 270.25 347.45 269.15 348.1 269.6 348.85 268.1 349.25 268.15 L349.55 267.95 349.75 267.5 350.05 267.05 Q345.6 257.15 342.85 246.05 339.35 232.35 338.45 217.7 L338.3 215.4 338.3 214.8 338.25 214.45 338.05 211.6 337.8 209.5 Q337.4 205.9 337.05 202.25 L336.4 202.15 335.9 202.95 Q335.4 212.65 334.55 221.7 L333.45 231.7 Q331.75 245.25 329.1 252.7 326.4 260.1 323.85 265.5 322.85 267.45 323.2 270.0 L325.8 274.2 Q326.85 275.85 328.25 276.45 331.6 277.05 335.05 276.8 L334.5 280.75 Q314.8 288.5 294.7 294.65 L292.5 290.75 Q286.35 279.65 282.45 259.35 281.05 252.0 279.9 244.4 277.9 230.85 276.75 216.35 L275.6 215.1 274.1 215.25 272.4 226.1 271.85 229.25 271.3 233.5 271.3 234.05 271.2 234.95 270.9 238.3 Q268.8 260.25 260.85 280.75 256.0 293.25 249.0 304.7 L247.8 306.65 Q227.75 310.95 207.5 313.85 L205.25 309.9 Q201.4 302.95 199.0 290.35 L197.4 281.05 Q196.15 272.65 195.45 263.6 L194.75 262.85 193.8 262.95 192.75 269.75 192.4 271.7 192.05 274.35 192.05 274.7 192.0 275.25 191.8 277.35 Q190.5 291.0 185.55 303.8 182.8 310.8 179.0 317.3 L146.5 319.55 139.65 319.75 139.5 318.95 137.8 309.1 Q136.5 300.15 135.7 290.55 L134.95 289.75 133.95 289.85 132.85 297.05 132.5 299.15 132.15 301.95 132.1 302.35 132.05 302.95 131.85 305.15 Q131.1 312.7 129.4 319.95 L91.65 318.5 90.15 313.1 Q98.5 314.05 106.5 312.65 109.8 311.9 112.3 309.85 L118.65 304.6 Q119.35 301.45 117.05 298.95 110.9 292.2 104.5 282.9 101.3 278.25 98.65 271.6 96.05 265.05 94.05 256.6 92.6 250.45 91.4 244.05 L90.05 236.05 Q88.9 228.45 88.1 220.5 L86.9 219.45 85.35 219.6 83.6 228.7 83.0 231.35 82.45 234.9 82.4 235.35 82.35 236.0 82.35 236.1 82.05 238.95 Q79.95 256.3 72.45 272.6 L71.55 274.55 Q64.8 288.45 54.2 300.85 L54.9 301.5 55.45 302.05 56.15 302.3 Q57.1 302.2 58.9 304.1 60.4 303.55 62.85 304.95 70.8 309.55 80.3 311.6 L80.3 313.85 80.05 315.95 79.65 317.35 Q64.85 315.8 50.15 313.25 50.25 311.7 49.35 310.5 46.5 306.6 43.55 301.25 40.55 295.9 38.7 286.1 38.0 282.6 37.45 278.9 L36.65 272.65 35.95 265.35 35.4 264.75 34.65 264.85 33.85 270.1 33.6 271.6 33.5 272.65 33.3 273.65 33.3 273.95 33.25 274.35 33.1 276.0 Q32.1 286.6 28.25 296.5 26.0 302.3 22.85 307.6 11.1 304.55 0.0 300.25" fill="#c5d2ce" fill-rule="evenodd" stroke="none"/>
      <path d="M0.0 300.25 Q11.1 304.55 22.85 307.6 26.0 302.3 28.25 296.5 32.1 286.6 33.1 276.0 L33.25 274.35 33.3 273.95 33.3 273.65 33.5 272.65 33.6 271.6 33.85 270.1 34.65 264.85 35.4 264.75 35.95 265.35 36.65 272.65 37.45 278.9 Q38.0 282.6 38.7 286.1 40.55 295.9 43.55 301.25 46.5 306.6 49.35 310.5 50.25 311.7 50.15 313.25 64.85 315.8 79.65 317.35 L80.05 315.95 80.3 313.85 80.3 311.6 Q70.8 309.55 62.85 304.95 60.4 303.55 58.9 304.1 57.1 302.2 56.15 302.3 L55.45 302.05 54.9 301.5 54.2 300.85 Q64.8 288.45 71.55 274.55 L72.45 272.6 Q79.95 256.3 82.05 238.95 L82.35 236.1 82.35 236.0 82.4 235.35 82.45 234.9 83.0 231.35 83.6 228.7 85.35 219.6 86.9 219.45 88.1 220.5 Q88.9 228.45 90.05 236.05 L91.4 244.05 Q92.6 250.45 94.05 256.6 96.05 265.05 98.65 271.6 101.3 278.25 104.5 282.9 110.9 292.2 117.05 298.95 119.35 301.45 118.65 304.6 L112.3 309.85 Q109.8 311.9 106.5 312.65 98.5 314.05 90.15 313.1 L91.65 318.5 129.4 319.95 Q131.1 312.7 131.85 305.15 L132.05 302.95 132.1 302.35 132.15 301.95 132.5 299.15 132.85 297.05 133.95 289.85 134.95 289.75 135.7 290.55 Q136.5 300.15 137.8 309.1 L139.5 318.95 139.65 319.75 146.5 319.55 179.0 317.3 Q182.8 310.8 185.55 303.8 190.5 291.0 191.8 277.35 L192.0 275.25 192.05 274.7 192.05 274.35 192.4 271.7 192.75 269.75 193.8 262.95 194.75 262.85 195.45 263.6 Q196.15 272.65 197.4 281.05 L199.0 290.35 Q201.4 302.95 205.25 309.9 L207.5 313.85 Q227.75 310.95 247.8 306.65 L249.0 304.7 Q256.0 293.25 260.85 280.75 268.8 260.25 270.9 238.3 L271.2 234.95 271.3 234.05 271.3 233.5 271.85 229.25 272.4 226.1 274.1 215.25 275.6 215.1 276.75 216.35 Q277.9 230.85 279.9 244.4 281.05 252.0 282.45 259.35 286.35 279.65 292.5 290.75 L294.7 294.65 Q314.8 288.5 334.5 280.75 L335.05 276.8 Q331.6 277.05 328.25 276.45 326.85 275.85 325.8 274.2 L323.2 270.0 Q322.85 267.45 323.85 265.5 326.4 260.1 329.1 252.7 331.75 245.25 333.45 231.7 L334.55 221.7 Q335.4 212.65 335.9 202.95 L336.4 202.15 337.05 202.25 Q337.4 205.9 337.8 209.5 L338.05 211.6 338.25 214.45 338.3 214.8 338.3 215.4 338.45 217.7 Q339.35 232.35 342.85 246.05 345.6 257.15 350.05 267.05 L349.75 267.5 349.55 267.95 349.25 268.15 Q348.85 268.1 348.1 269.6 347.45 269.15 346.45 270.25 343.1 273.9 339.2 275.55 L339.2 277.3 339.25 278.7 Q357.75 271.2 375.85 262.25 378.95 260.75 382.1 259.2 382.1 257.4 383.2 255.9 387.1 250.6 391.15 243.3 395.2 235.95 397.8 222.55 L399.45 212.7 Q400.75 203.75 401.55 194.15 L402.3 193.35 403.3 193.45 404.4 200.65 404.8 202.7 405.15 205.5 405.15 205.85 405.2 206.45 405.4 208.7 Q406.8 223.2 412.05 236.7 L414.8 243.1 436.95 232.15 451.6 224.9 453.4 224.05 Q458.7 217.7 462.4 210.75 468.25 199.6 469.85 187.7 L470.1 185.85 470.15 185.35 470.15 185.05 470.55 182.7 471.0 181.0 472.2 175.05 473.35 175.0 474.2 175.65 Q475.05 183.55 476.55 190.9 477.35 195.05 478.4 199.05 480.0 205.25 482.15 209.9 L484.3 208.85 Q505.0 198.6 526.4 190.65 528.1 183.55 528.8 176.25 L529.0 174.05 529.05 173.45 529.1 173.05 529.45 170.25 529.8 168.15 530.9 160.95 531.9 160.85 532.65 161.65 Q533.45 171.2 534.75 180.15 L535.9 187.15 Q550.55 182.05 565.55 178.05 570.65 169.9 574.15 160.9 579.4 147.4 580.8 132.9 L581.0 130.65 581.05 130.05 581.1 129.7 581.45 126.9 581.8 124.85 582.9 117.65 583.9 117.55 584.65 118.35 Q585.45 127.95 586.75 136.9 L588.45 146.75 Q591.0 160.15 595.05 167.45 L597.0 170.8 612.15 168.1 612.15 421.65 0.0 421.65 0.0 300.05" ffdec:has-small-stroke="true" ffdec:original-stroke-width="0.0" fill="none" stroke="#000000" stroke-linecap="round" stroke-linejoin="round" stroke-opacity="0.0" stroke-width="1.0"/>
    </g>
  </defs>
</svg>
