<?xml version="1.0" encoding="UTF-8" standalone="no"?>
<svg xmlns:ffdec="https://www.free-decompiler.com/flash" xmlns:xlink="http://www.w3.org/1999/xlink" ffdec:objectType="frame" height="434.1px" width="621.95px" xmlns="http://www.w3.org/2000/svg">
  <g transform="matrix(1.0, 0.0, 0.0, 1.0, 3.0, 0.0)">
    <use ffdec:characterId="246" height="135.45" transform="matrix(1.0, 0.0, 0.0, 1.0, 0.0, 0.0)" width="612.15" xlink:href="#morphshape0"/>
    <use ffdec:characterId="247" height="329.65" transform="matrix(1.0, 0.0, 0.0, 1.0, -3.0, 43.3)" width="621.95" xlink:href="#morphshape1"/>
    <use ffdec:characterId="248" height="332.95" transform="matrix(1.0, 0.0, 0.0, 1.0, 0.0, 101.15)" width="612.15" xlink:href="#morphshape2"/>
  </g>
  <defs>
    <g id="morphshape0" transform="matrix(1.0, 0.0, 0.0, 1.0, 0.0, 0.0)">
      <path d="M0.0 0.0 L0.0 88.05 0.5 87.9 Q15.85 84.45 31.5 81.7 52.0 78.15 72.7 76.0 110.2 72.1 148.35 72.85 L151.85 73.05 180.35 76.0 Q215.0 80.4 249.0 88.6 267.15 92.95 285.05 98.4 318.6 107.05 351.35 117.55 365.7 122.15 380.05 125.4 408.4 130.4 436.95 133.85 L449.85 135.3 448.2 130.95 446.6 125.8 Q445.0 120.7 444.25 115.65 L441.4 115.6 436.95 114.95 Q424.9 112.25 421.15 99.85 419.7 95.0 420.85 90.3 423.05 81.45 428.2 76.0 435.2 68.6 447.7 67.35 453.05 66.5 457.65 68.1 463.1 62.0 469.1 56.35 482.0 44.1 501.25 43.45 504.25 43.0 507.6 44.05 511.3 45.15 514.85 46.7 532.75 54.55 542.35 68.9 547.4 66.2 553.95 65.35 569.0 66.75 574.15 81.95 575.5 85.95 574.35 89.95 568.7 109.85 548.25 111.95 L545.5 111.75 544.15 111.35 544.0 111.65 Q544.5 114.1 543.95 117.25 L542.55 124.45 Q541.3 130.2 538.85 135.45 L555.45 133.25 612.15 125.55 612.15 0.0 0.0 0.0" fill="#e3f1ed" fill-rule="evenodd" stroke="none"/>
      <path d="M0.0 0.0 L612.15 0.0 612.15 125.55 555.45 133.25 538.85 135.45 Q541.3 130.2 542.55 124.45 L543.95 117.25 Q544.5 114.1 544.0 111.65 L544.15 111.35 545.5 111.75 548.25 111.95 Q568.7 109.85 574.35 89.95 575.5 85.95 574.15 81.95 569.0 66.75 553.95 65.35 547.4 66.2 542.35 68.9 532.75 54.55 514.85 46.7 511.3 45.15 507.6 44.05 504.25 43.0 501.25 43.45 482.0 44.1 469.1 56.35 463.1 62.0 457.65 68.1 453.05 66.5 447.7 67.35 435.2 68.6 428.2 76.0 423.05 81.45 420.85 90.3 419.7 95.0 421.15 99.85 424.9 112.25 436.95 114.95 L441.4 115.6 444.25 115.65 Q445.0 120.7 446.6 125.8 L448.2 130.95 449.85 135.3 436.95 133.85 Q408.4 130.4 380.05 125.4 365.7 122.15 351.35 117.55 318.6 107.05 285.05 98.4 267.15 92.95 249.0 88.6 215.0 80.4 180.35 76.0 L151.85 73.05 148.35 72.85 Q110.2 72.1 72.7 76.0 52.0 78.15 31.5 81.7 15.85 84.45 0.5 87.9 L0.0 88.05 0.0 0.0 Z" ffdec:has-small-stroke="true" ffdec:original-stroke-width="0.0" fill="none" stroke="#000000" stroke-linecap="round" stroke-linejoin="round" stroke-opacity="0.0" stroke-width="1.0"/>
    </g>
    <g id="morphshape1" transform="matrix(1.0, 0.0, 0.0, 1.0, 3.0, -43.3)">
      <path d="M-3.0 192.0 L-3.0 372.95 613.95 372.95 613.95 232.0 618.95 232.0 618.95 148.0 612.15 148.0 612.15 125.55 555.45 133.25 538.85 135.45 Q541.3 130.2 542.55 124.45 L543.95 117.25 Q544.5 114.1 544.0 111.65 L544.15 111.35 545.5 111.75 548.25 111.95 Q568.7 109.85 574.35 89.95 575.5 85.95 574.15 81.95 569.0 66.75 553.95 65.35 547.4 66.2 542.35 68.9 532.75 54.55 514.85 46.7 511.3 45.15 507.6 44.05 504.25 43.0 501.25 43.45 482.0 44.1 469.1 56.35 463.1 62.0 457.65 68.1 453.05 66.5 447.7 67.35 435.2 68.6 428.2 76.0 423.05 81.45 420.85 90.3 419.7 95.0 421.15 99.85 424.9 112.25 436.95 114.95 L441.4 115.6 444.25 115.65 Q445.0 120.7 446.6 125.8 L448.2 130.95 449.85 135.3 436.95 133.85 Q408.4 130.4 380.05 125.4 365.7 122.15 351.35 117.55 318.6 107.05 285.05 98.4 267.15 92.95 249.0 88.6 215.0 80.4 180.35 76.0 L151.85 73.05 148.35 72.85 Q110.2 72.1 72.7 76.0 52.0 78.15 31.5 81.7 15.85 84.45 0.5 87.9 L0.0 88.05 0.0 192.0 -3.0 192.0" fill="#d7e6e6" fill-rule="evenodd" stroke="none"/>
      <path d="M-3.0 192.0 L0.0 192.0 0.0 88.05 0.5 87.9 Q15.85 84.45 31.5 81.7 52.0 78.15 72.7 76.0 110.2 72.1 148.35 72.85 L151.85 73.05 180.35 76.0 Q215.0 80.4 249.0 88.6 267.15 92.95 285.05 98.4 318.6 107.05 351.35 117.55 365.7 122.15 380.05 125.4 408.4 130.4 436.95 133.85 L449.85 135.3 448.2 130.95 446.6 125.8 Q445.0 120.7 444.25 115.65 L441.4 115.6 436.95 114.95 Q424.9 112.25 421.15 99.85 419.7 95.0 420.85 90.3 423.05 81.45 428.2 76.0 435.2 68.6 447.7 67.35 453.05 66.5 457.65 68.1 463.1 62.0 469.1 56.35 482.0 44.1 501.25 43.45 504.25 43.0 507.6 44.05 511.3 45.15 514.85 46.7 532.75 54.55 542.35 68.9 547.4 66.2 553.95 65.35 569.0 66.75 574.15 81.95 575.5 85.95 574.35 89.95 568.7 109.85 548.25 111.95 L545.5 111.75 544.15 111.35 544.0 111.65 Q544.5 114.1 543.95 117.25 L542.55 124.45 Q541.3 130.2 538.85 135.45 L555.45 133.25 612.15 125.55 612.15 148.0 618.95 148.0 618.95 232.0 613.95 232.0 613.95 372.95 -3.0 372.95 -3.0 192.0 Z" ffdec:has-small-stroke="true" ffdec:original-stroke-width="0.0" fill="none" stroke="#000000" stroke-linecap="round" stroke-linejoin="round" stroke-opacity="0.0" stroke-width="1.0"/>
    </g>
    <g id="morphshape2" transform="matrix(1.0, 0.0, 0.0, 1.0, 0.0, -101.15)">
      <path d="M0.0 300.3 L0.0 420.45 612.15 420.45 612.15 169.95 597.0 172.6 595.05 169.3 Q591.0 162.1 588.45 148.85 L586.75 139.1 Q585.45 130.25 584.65 120.8 L583.9 120.0 582.9 120.1 581.8 127.2 581.45 129.25 581.1 132.05 581.05 132.4 581.0 133.0 580.8 135.2 Q579.4 149.5 574.15 162.85 570.65 171.75 565.55 179.8 550.55 183.75 535.9 188.75 L534.75 181.85 Q533.45 173.0 532.65 163.55 L531.9 162.75 530.9 162.85 529.8 169.95 529.45 172.0 529.1 174.75 529.05 175.15 529.0 175.75 528.8 177.95 Q528.1 185.15 526.4 192.15 505.0 200.0 484.3 210.1 L482.15 211.15 Q480.0 206.55 478.4 200.45 477.35 196.5 476.55 192.4 475.05 185.15 474.2 177.35 L473.35 176.7 472.2 176.75 471.0 182.6 470.55 184.25 470.15 186.55 470.15 186.85 470.1 187.35 469.85 189.2 Q468.25 200.95 462.4 212.0 458.7 218.85 453.4 225.15 L451.6 226.0 436.95 233.15 414.8 243.95 412.05 237.65 Q406.8 224.3 405.4 210.0 L405.2 207.8 405.15 207.2 405.15 206.85 404.8 204.05 404.4 202.0 403.3 194.9 402.3 194.8 401.55 195.6 Q400.75 205.05 399.45 213.9 L397.8 223.65 Q395.2 236.9 391.15 244.15 387.1 251.35 383.2 256.6 382.1 258.05 382.1 259.85 378.95 261.4 375.85 262.9 357.75 271.75 339.25 279.15 L339.2 277.75 339.2 276.0 Q343.1 274.35 346.45 270.75 347.45 269.65 348.1 270.1 348.85 268.6 349.25 268.65 L349.55 268.45 349.75 268.0 350.05 267.55 Q345.6 257.75 342.85 246.75 339.35 233.2 338.45 218.7 L338.3 216.45 338.3 215.85 338.25 215.5 338.05 212.65 337.8 210.55 Q337.4 207.0 337.05 203.4 L336.4 203.3 335.9 204.1 Q335.4 213.7 334.55 222.65 L333.45 232.55 Q331.75 245.95 329.1 253.3 326.4 260.6 323.85 265.95 322.85 267.85 323.2 270.35 L325.8 274.5 Q326.85 276.1 328.25 276.7 331.6 277.25 335.05 277.05 L334.5 280.95 Q314.8 288.6 294.7 294.7 L292.5 290.85 Q286.35 279.9 282.45 259.85 281.05 252.6 279.9 245.1 277.9 231.7 276.75 217.35 L275.6 216.15 274.1 216.3 272.4 227.0 271.85 230.1 271.3 234.3 271.3 234.85 271.2 235.75 270.9 239.05 Q268.8 260.75 260.85 281.0 256.0 293.35 249.0 304.65 L247.8 306.6 Q227.75 310.85 207.5 313.75 L205.25 309.85 Q201.4 303.0 199.0 290.55 L197.4 281.35 Q196.15 273.05 195.45 264.1 L194.75 263.35 193.8 263.45 192.75 270.15 192.4 272.1 192.05 274.7 192.05 275.05 192.0 275.6 191.8 277.7 Q190.5 291.2 185.55 303.8 182.8 310.75 179.0 317.2 L146.5 319.4 139.65 319.6 139.5 318.8 137.8 309.05 Q136.5 300.2 135.7 290.75 L134.95 289.95 133.95 290.05 132.85 297.15 132.5 299.2 132.15 301.95 132.1 302.35 132.05 302.95 131.85 305.15 Q131.1 312.6 129.4 319.75 L91.65 318.3 90.15 312.95 Q98.5 313.9 106.5 312.55 109.8 311.8 112.3 309.75 L118.65 304.55 Q119.35 301.4 117.05 298.95 110.9 292.3 104.5 283.1 101.3 278.5 98.65 271.95 96.05 265.45 94.05 257.1 92.6 251.0 91.4 244.7 L90.05 236.8 Q88.9 229.3 88.1 221.45 L86.9 220.45 85.35 220.6 83.6 229.6 83.0 232.2 82.45 235.7 82.4 236.15 82.35 236.8 82.35 236.9 82.05 239.7 Q79.95 256.85 72.45 272.95 L71.55 274.85 Q64.8 288.6 54.2 300.85 L54.9 301.5 55.45 302.05 56.15 302.3 Q57.1 302.2 58.9 304.05 60.4 303.5 62.85 304.85 70.8 309.4 80.3 311.45 L80.3 313.65 80.05 315.75 79.65 317.1 Q64.85 315.55 50.15 313.05 50.25 311.55 49.35 310.4 46.5 306.55 43.55 301.25 40.55 295.95 38.7 286.25 38.0 282.8 37.45 279.15 L36.65 272.95 35.95 265.75 35.4 265.15 34.65 265.25 33.85 270.45 33.6 271.95 33.5 272.95 33.3 273.95 33.3 274.25 33.25 274.65 33.1 276.25 Q32.1 286.7 28.25 296.45 26.0 302.15 22.85 307.4 11.1 304.4 0.0 300.15" fill="#bed3d6" fill-rule="evenodd" stroke="none"/>
      <path d="M0.0 300.15 Q11.1 304.4 22.85 307.4 26.0 302.15 28.25 296.45 32.1 286.7 33.1 276.25 L33.25 274.65 33.3 274.25 33.3 273.95 33.5 272.95 33.6 271.95 33.85 270.45 34.65 265.25 35.4 265.15 35.95 265.75 36.65 272.95 37.45 279.15 Q38.0 282.8 38.7 286.25 40.55 295.95 43.55 301.25 46.5 306.55 49.35 310.4 50.25 311.55 50.15 313.05 64.85 315.55 79.65 317.1 L80.05 315.75 80.3 313.65 80.3 311.45 Q70.8 309.4 62.85 304.85 60.4 303.5 58.9 304.05 57.1 302.2 56.15 302.3 L55.45 302.05 54.9 301.5 54.2 300.85 Q64.8 288.6 71.55 274.85 L72.45 272.95 Q79.95 256.85 82.05 239.7 L82.35 236.9 82.35 236.8 82.4 236.15 82.45 235.7 83.0 232.2 83.6 229.6 85.35 220.6 86.9 220.45 88.1 221.45 Q88.9 229.3 90.05 236.8 L91.4 244.7 Q92.6 251.0 94.05 257.1 96.05 265.45 98.65 271.95 101.3 278.5 104.5 283.1 110.9 292.3 117.05 298.95 119.35 301.4 118.65 304.55 L112.3 309.75 Q109.8 311.8 106.5 312.55 98.5 313.9 90.15 312.95 L91.65 318.3 129.4 319.75 Q131.1 312.6 131.85 305.15 L132.05 302.95 132.1 302.35 132.15 301.95 132.5 299.2 132.85 297.15 133.95 290.05 134.95 289.95 135.7 290.75 Q136.5 300.2 137.8 309.05 L139.5 318.8 139.65 319.6 146.5 319.4 179.0 317.2 Q182.8 310.75 185.55 303.8 190.5 291.2 191.8 277.7 L192.0 275.6 192.05 275.05 192.05 274.7 192.4 272.1 192.75 270.15 193.8 263.45 194.75 263.35 195.45 264.1 Q196.15 273.05 197.4 281.35 L199.0 290.55 Q201.4 303.0 205.25 309.85 L207.5 313.75 Q227.75 310.85 247.8 306.6 L249.0 304.65 Q256.0 293.35 260.85 281.0 268.8 260.75 270.9 239.05 L271.2 235.75 271.3 234.85 271.3 234.3 271.85 230.1 272.4 227.0 274.1 216.3 275.6 216.15 276.75 217.35 Q277.9 231.7 279.9 245.1 281.05 252.6 282.45 259.85 286.35 279.9 292.5 290.85 L294.7 294.7 Q314.8 288.6 334.5 280.95 L335.05 277.05 Q331.6 277.25 328.25 276.7 326.85 276.1 325.8 274.5 L323.2 270.35 Q322.85 267.85 323.85 265.95 326.4 260.6 329.1 253.3 331.75 245.95 333.45 232.55 L334.55 222.65 Q335.4 213.7 335.9 204.1 L336.4 203.3 337.05 203.4 Q337.4 207.0 337.8 210.55 L338.05 212.65 338.25 215.5 338.3 215.85 338.3 216.45 338.45 218.7 Q339.35 233.2 342.85 246.75 345.6 257.75 350.05 267.55 L349.75 268.0 349.55 268.45 349.25 268.65 Q348.85 268.6 348.1 270.1 347.45 269.65 346.45 270.75 343.1 274.35 339.2 276.0 L339.2 277.75 339.25 279.15 Q357.75 271.75 375.85 262.9 378.95 261.4 382.1 259.85 382.1 258.05 383.2 256.6 387.1 251.35 391.15 244.15 395.2 236.9 397.8 223.65 L399.45 213.9 Q400.75 205.05 401.55 195.6 L402.3 194.8 403.3 194.9 404.4 202.0 404.8 204.05 405.15 206.85 405.15 207.2 405.2 207.8 405.4 210.0 Q406.8 224.3 412.05 237.65 L414.8 243.95 436.95 233.15 451.6 226.0 453.4 225.15 Q458.7 218.85 462.4 212.0 468.25 200.95 469.85 189.2 L470.1 187.35 470.15 186.85 470.15 186.55 470.55 184.25 471.0 182.6 472.2 176.75 473.35 176.7 474.2 177.35 Q475.05 185.15 476.55 192.4 477.35 196.5 478.4 200.45 480.0 206.55 482.15 211.15 L484.3 210.1 Q505.0 200.0 526.4 192.15 528.1 185.15 528.8 177.95 L529.0 175.75 529.05 175.15 529.1 174.75 529.45 172.0 529.8 169.95 530.9 162.85 531.9 162.75 532.65 163.55 Q533.45 173.0 534.75 181.85 L535.9 188.75 Q550.55 183.75 565.55 179.8 570.65 171.75 574.15 162.85 579.4 149.5 580.8 135.2 L581.0 133.0 581.05 132.4 581.1 132.05 581.45 129.25 581.8 127.2 582.9 120.1 583.9 120.0 584.65 120.8 Q585.45 130.25 586.75 139.1 L588.45 148.85 Q591.0 162.1 595.05 169.3 L597.0 172.6 612.15 169.95 612.15 420.45 0.0 420.45 0.0 300.3" ffdec:has-small-stroke="true" ffdec:original-stroke-width="0.0" fill="none" stroke="#000000" stroke-linecap="round" stroke-linejoin="round" stroke-opacity="0.0" stroke-width="1.0"/>
    </g>
  </defs>
</svg>
