<?xml version="1.0" encoding="UTF-8" standalone="no"?>
<svg xmlns:ffdec="https://www.free-decompiler.com/flash" xmlns:xlink="http://www.w3.org/1999/xlink" ffdec:objectType="frame" height="16.0px" width="16.0px" xmlns="http://www.w3.org/2000/svg">
  <g transform="matrix(1.0, 0.0, 0.0, 1.0, 0.0, 0.0)">
    <use ffdec:characterId="123" height="4.0" id="dfs" transform="matrix(1.0, 0.0, 0.0, 4.0, 0.0, 0.0)" width="16.0" xlink:href="#sprite0"/>
  </g>
  <defs>
    <g id="sprite0" transform="matrix(1.0, 0.0, 0.0, 1.0, 0.0, 0.0)">
      <use ffdec:characterId="121" height="18.3" transform="matrix(0.8743, 0.0, 0.0, 0.2186, 0.0, 0.0)" width="18.3" xlink:href="#shape0"/>
      <use ffdec:characterId="121" height="18.3" transform="matrix(0.8197, 0.0, 0.0, 0.2186, 0.0, 0.0)" width="18.3" xlink:href="#shape1"/>
      <use ffdec:characterId="121" height="18.3" transform="matrix(0.765, 0.0, 0.0, 0.2186, 1.0, 0.0)" width="18.3" xlink:href="#shape2"/>
      <use ffdec:characterId="122" height="1.0" transform="matrix(1.1667, 0.0, 0.0, 4.0, 1.0, 0.0)" width="12.0" xlink:href="#shape3"/>
    </g>
    <g id="shape0" transform="matrix(1.0, 0.0, 0.0, 1.0, 0.0, 0.0)">
      <path d="M18.3 0.0 L18.3 18.3 0.0 18.3 0.0 0.0 18.3 0.0" fill="#eeeeee" fill-rule="evenodd" stroke="none"/>
    </g>
    <g id="shape1" transform="matrix(1.0, 0.0, 0.0, 1.0, 0.0, 0.0)">
      <path d="M18.3 0.0 L18.3 18.3 0.0 18.3 0.0 0.0 18.3 0.0" fill="#cccccc" fill-rule="evenodd" stroke="none"/>
    </g>
    <g id="shape2" transform="matrix(1.0, 0.0, 0.0, 1.0, 0.0, 0.0)">
      <path d="M18.3 0.0 L18.3 18.3 0.0 18.3 0.0 0.0 18.3 0.0" fill="#ffffff" fill-rule="evenodd" stroke="none"/>
    </g>
    <g id="shape3" transform="matrix(1.0, 0.0, 0.0, 1.0, 0.0, 0.0)">
      <path d="M12.0 0.6 L12.0 1.0 0.0 1.0 0.0 0.0 12.0 0.0 12.0 0.6" fill="url(#gradient0)" fill-rule="evenodd" stroke="none"/>
    </g>
    <linearGradient gradientTransform="matrix(-0.0068, 0.0, 0.0, -0.0012, 6.3, 0.0)" gradientUnits="userSpaceOnUse" id="gradient0" spreadMethod="pad" x1="-819.2" x2="819.2">
      <stop offset="0.16470588235294117" stop-color="#ffffff" stop-opacity="0.49803922"/>
      <stop offset="0.6705882352941176" stop-color="#ffffff" stop-opacity="0.0"/>
      <stop offset="1.0" stop-color="#2d2d2d" stop-opacity="0.09803922"/>
    </linearGradient>
  </defs>
</svg>
