<?xml version="1.0" encoding="UTF-8" standalone="no"?>
<svg xmlns:ffdec="https://www.free-decompiler.com/flash" xmlns:xlink="http://www.w3.org/1999/xlink" ffdec:objectType="frame" height="17.4px" width="106.9px" xmlns="http://www.w3.org/2000/svg">
  <g transform="matrix(1.0, 0.0, 0.0, 1.0, 0.0, 0.0)">
    <use ffdec:characterId="33" height="17.4" transform="matrix(1.0, 0.0, 0.0, 1.0, 0.0, 0.0)" width="106.9" xlink:href="#shape0"/>
    <use ffdec:characterId="34" height="8.15" transform="matrix(0.9999, 0.0, 0.0, 1.0, 9.7529, 4.75)" width="90.85" xlink:href="#text0"/>
    <use ffdec:characterId="35" height="13.5" transform="matrix(1.0, 0.0, 0.0, 1.0, 1.6, 2.0)" width="103.6" xlink:href="#shape1"/>
  </g>
  <defs>
    <g id="shape0" transform="matrix(1.0, 0.0, 0.0, 1.0, 0.0, 0.0)">
      <path d="M106.9 6.0 L106.9 11.4 Q106.85 13.9 105.15 15.65 L104.75 16.0 Q103.1 17.4 100.9 17.4 L5.95 17.4 Q3.7 17.4 2.05 16.0 L1.7 15.65 Q0.3 14.25 0.0 12.4 L0.0 5.0 Q0.3 3.15 1.7 1.75 3.45 0.0 5.95 0.0 L100.9 0.0 Q103.35 0.0 105.15 1.75 106.85 3.5 106.9 6.0" fill="url(#gradient0)" fill-rule="evenodd" stroke="none"/>
    </g>
    <linearGradient gradientTransform="matrix(0.0, -0.0107, 0.0106, 0.0, 53.45, 8.7)" gradientUnits="userSpaceOnUse" id="gradient0" spreadMethod="pad" x1="-819.2" x2="819.2">
      <stop offset="0.0" stop-color="#ff9900"/>
      <stop offset="1.0" stop-color="#feb356"/>
    </linearGradient>
    <g id="text0" transform="matrix(1.0, 0.0, 0.0, 1.0, 21.3, -2.65)">
      <g transform="matrix(1.0, 0.0, 0.0, 1.0, -21.9, 0.0)">
        <use fill="#ffffff" height="8.15" transform="matrix(0.2148, 0.0, 0.0, 0.2148, 0.0, 11.0)" width="90.85" xlink:href="#font_TradeGothic_Bold_G0"/>
        <use fill="#ffffff" height="8.15" transform="matrix(0.2148, 0.0, 0.0, 0.2148, 6.1, 11.0)" width="90.85" xlink:href="#font_TradeGothic_Bold_O0"/>
        <use fill="#ffffff" height="8.15" transform="matrix(0.2148, 0.0, 0.0, 0.2148, 15.25, 11.0)" width="90.85" xlink:href="#font_TradeGothic_Bold_B0"/>
        <use fill="#ffffff" height="8.15" transform="matrix(0.2148, 0.0, 0.0, 0.2148, 21.35, 11.0)" width="90.85" xlink:href="#font_TradeGothic_Bold_A0"/>
        <use fill="#ffffff" height="8.15" transform="matrix(0.2148, 0.0, 0.0, 0.2148, 27.45, 11.0)" width="90.85" xlink:href="#font_TradeGothic_Bold_C0"/>
        <use fill="#ffffff" height="8.15" transform="matrix(0.2148, 0.0, 0.0, 0.2148, 33.55, 11.0)" width="90.85" xlink:href="#font_TradeGothic_Bold_K0"/>
        <use fill="#ffffff" height="8.15" transform="matrix(0.2148, 0.0, 0.0, 0.2148, 42.7, 11.0)" width="90.85" xlink:href="#font_TradeGothic_Bold_T0"/>
        <use fill="#ffffff" height="8.15" transform="matrix(0.2148, 0.0, 0.0, 0.2148, 48.2, 11.0)" width="90.85" xlink:href="#font_TradeGothic_Bold_O0"/>
        <use fill="#ffffff" height="8.15" transform="matrix(0.2148, 0.0, 0.0, 0.2148, 57.35, 11.0)" width="90.85" xlink:href="#font_TradeGothic_Bold_L0"/>
        <use fill="#ffffff" height="8.15" transform="matrix(0.2148, 0.0, 0.0, 0.2148, 62.25, 11.0)" width="90.85" xlink:href="#font_TradeGothic_Bold_O0"/>
        <use fill="#ffffff" height="8.15" transform="matrix(0.2148, 0.0, 0.0, 0.2148, 68.35, 11.0)" width="90.85" xlink:href="#font_TradeGothic_Bold_B0"/>
        <use fill="#ffffff" height="8.15" transform="matrix(0.2148, 0.0, 0.0, 0.2148, 74.45, 11.0)" width="90.85" xlink:href="#font_TradeGothic_Bold_B0"/>
        <use fill="#ffffff" height="8.15" transform="matrix(0.2148, 0.0, 0.0, 0.2148, 80.55, 11.0)" width="90.85" xlink:href="#font_TradeGothic_Bold_Y0"/>
      </g>
    </g>
    <g id="font_TradeGothic_Bold_G0">
      <path d="M21.9 0.0 L20.85 -3.05 Q19.45 -1.45 17.85 -0.45 16.2 0.5 14.25 0.5 10.8 0.55 8.15 -0.7 5.55 -1.9 4.05 -4.6 2.6 -7.35 2.55 -11.9 L2.55 -25.05 Q2.6 -29.6 4.05 -32.35 5.55 -35.05 8.15 -36.25 10.8 -37.5 14.25 -37.45 19.65 -37.45 22.55 -34.35 25.4 -31.2 25.6 -24.9 L18.55 -24.9 Q18.5 -28.45 17.35 -29.85 16.2 -31.25 14.25 -31.2 12.1 -31.25 10.9 -30.15 9.65 -29.0 9.65 -26.0 L9.65 -10.95 Q9.65 -7.95 10.9 -6.8 12.1 -5.7 14.25 -5.75 16.25 -5.75 17.4 -7.1 18.5 -8.45 18.55 -10.85 L18.55 -13.1 13.6 -13.1 13.6 -18.95 25.6 -18.95 25.6 0.0 21.9 0.0" fill-rule="evenodd" stroke="none"/>
    </g>
    <g id="font_TradeGothic_Bold_O0">
      <path d="M9.65 -26.0 L9.65 -10.95 Q9.65 -7.95 10.9 -6.8 12.1 -5.7 14.25 -5.75 16.35 -5.7 17.6 -6.8 18.8 -7.95 18.85 -10.95 L18.85 -26.0 Q18.8 -29.0 17.6 -30.15 16.35 -31.25 14.25 -31.2 12.1 -31.25 10.9 -30.15 9.65 -29.0 9.65 -26.0 M2.55 -11.9 L2.55 -25.05 Q2.6 -29.6 4.05 -32.35 5.55 -35.05 8.15 -36.25 10.8 -37.5 14.25 -37.45 17.7 -37.5 20.3 -36.25 22.95 -35.05 24.4 -32.35 25.9 -29.6 25.9 -25.05 L25.9 -11.9 Q25.9 -7.35 24.4 -4.6 22.95 -1.9 20.3 -0.7 17.7 0.55 14.25 0.5 10.8 0.55 8.15 -0.7 5.55 -1.9 4.05 -4.6 2.6 -7.35 2.55 -11.9" fill-rule="evenodd" stroke="none"/>
    </g>
    <g id="font_TradeGothic_Bold_B0">
      <path d="M10.25 -31.15 L10.25 -22.3 12.7 -22.3 Q15.15 -22.35 16.55 -23.55 17.95 -24.75 18.0 -26.65 18.0 -28.75 16.8 -29.95 15.55 -31.1 13.1 -31.15 L10.25 -31.15 M10.25 -16.5 L10.25 -5.8 13.2 -5.8 Q16.0 -5.85 17.4 -7.3 18.85 -8.75 18.85 -11.2 18.8 -13.85 17.15 -15.15 15.5 -16.5 12.7 -16.5 L10.25 -16.5 M3.2 0.0 L3.2 -36.95 13.15 -36.95 Q18.85 -36.95 21.95 -34.6 25.0 -32.2 25.05 -27.45 25.05 -25.0 23.9 -23.05 22.75 -21.1 20.5 -19.75 22.4 -18.55 23.6 -17.35 24.8 -16.1 25.35 -14.5 25.9 -12.9 25.9 -10.65 25.9 -7.0 24.35 -4.6 22.85 -2.25 20.05 -1.1 17.3 0.0 13.55 0.0 L3.2 0.0" fill-rule="evenodd" stroke="none"/>
    </g>
    <g id="font_TradeGothic_Bold_A0">
      <path d="M7.5 0.0 L0.7 0.0 9.85 -36.95 18.9 -36.95 27.8 0.0 21.05 0.0 19.25 -7.75 9.5 -7.75 7.5 0.0 M14.25 -29.0 L10.75 -14.0 17.8 -14.0 14.35 -29.0 14.25 -29.0" fill-rule="evenodd" stroke="none"/>
    </g>
    <g id="font_TradeGothic_Bold_C0">
      <path d="M9.65 -26.0 L9.65 -10.95 Q9.65 -7.95 10.9 -6.8 12.1 -5.7 14.25 -5.75 16.35 -5.7 17.6 -6.8 18.8 -7.95 18.85 -10.95 L18.85 -13.4 25.9 -13.4 25.9 -11.9 Q25.9 -7.35 24.4 -4.6 22.95 -1.9 20.3 -0.7 17.7 0.55 14.25 0.5 10.8 0.55 8.15 -0.7 5.55 -1.9 4.05 -4.6 2.6 -7.35 2.55 -11.9 L2.55 -25.05 Q2.6 -29.6 4.05 -32.35 5.55 -35.05 8.15 -36.25 10.8 -37.5 14.25 -37.45 17.7 -37.5 20.3 -36.25 22.95 -35.05 24.4 -32.35 25.9 -29.6 25.9 -25.05 L25.9 -24.95 18.85 -24.95 18.85 -26.0 Q18.8 -29.0 17.6 -30.15 16.35 -31.25 14.25 -31.2 12.1 -31.25 10.9 -30.15 9.65 -29.0 9.65 -26.0" fill-rule="evenodd" stroke="none"/>
    </g>
    <g id="font_TradeGothic_Bold_K0">
      <path d="M10.25 0.0 L3.2 0.0 3.2 -36.95 10.25 -36.95 10.25 -21.7 10.35 -21.7 19.55 -36.95 27.25 -36.95 17.75 -22.05 28.35 0.0 20.4 0.0 13.0 -15.5 10.25 -11.3 10.25 0.0" fill-rule="evenodd" stroke="none"/>
    </g>
    <g id="font_TradeGothic_Bold_T0">
      <path d="M1.05 -36.95 L24.6 -36.95 24.6 -30.7 16.35 -30.7 16.35 0.0 9.3 0.0 9.3 -30.7 1.05 -30.7 1.05 -36.95" fill-rule="evenodd" stroke="none"/>
    </g>
    <g id="font_TradeGothic_Bold_L0">
      <path d="M21.65 0.0 L3.2 0.0 3.2 -36.95 10.25 -36.95 10.25 -6.25 21.65 -6.25 21.65 0.0" fill-rule="evenodd" stroke="none"/>
    </g>
    <g id="font_TradeGothic_Bold_Y0">
      <path d="M8.15 -36.95 L14.35 -22.05 20.35 -36.95 27.85 -36.95 17.8 -14.95 17.8 0.0 10.7 0.0 10.7 -14.95 0.65 -36.95 8.15 -36.95" fill-rule="evenodd" stroke="none"/>
    </g>
    <g id="shape1" transform="matrix(1.0, 0.0, 0.0, 1.0, -1.6, -2.0)">
      <path d="M3.35 3.75 Q2.65 4.45 2.65 5.5 L2.65 9.95 2.6 9.95 2.6 10.35 2.65 10.35 2.65 11.1 2.6 11.1 2.6 12.0 Q2.6 13.05 3.35 13.8 4.05 14.5 5.1 14.5 L101.65 14.5 103.15 14.05 103.45 13.8 Q104.15 13.05 104.15 12.0 L104.15 6.35 104.2 6.35 104.2 5.5 Q104.2 4.45 103.45 3.7 102.75 3.0 101.7 3.0 L5.15 3.0 Q4.3 3.0 3.65 3.5 L3.4 3.7 3.35 3.75 M2.65 3.0 L3.65 2.3 Q4.35 2.0 5.15 2.0 L101.7 2.0 Q103.15 2.0 104.15 3.0 105.2 4.05 105.2 5.5 L105.2 9.95 105.15 9.95 105.15 10.35 105.2 10.35 105.2 11.1 105.15 11.1 105.15 12.0 Q105.15 13.45 104.2 14.5 L104.15 14.55 103.15 15.2 101.65 15.5 5.1 15.5 Q3.65 15.5 2.65 14.5 1.6 13.45 1.6 12.0 L1.6 6.35 1.65 6.35 1.65 5.5 Q1.65 4.05 2.65 3.0" fill="url(#gradient1)" fill-rule="evenodd" stroke="none"/>
    </g>
    <linearGradient gradientTransform="matrix(-0.0014, -0.0135, 0.0082, -9.0E-4, 53.4, 8.75)" gradientUnits="userSpaceOnUse" id="gradient1" spreadMethod="pad" x1="-819.2" x2="819.2">
      <stop offset="0.0" stop-color="#000000" stop-opacity="0.2509804"/>
      <stop offset="0.596078431372549" stop-color="#ffffff" stop-opacity="0.5019608"/>
    </linearGradient>
  </defs>
</svg>
