<?xml version="1.0" encoding="UTF-8" standalone="no"?>
<svg xmlns:ffdec="https://www.free-decompiler.com/flash" xmlns:xlink="http://www.w3.org/1999/xlink" ffdec:objectType="frame" height="40.0px" width="50.0px" xmlns="http://www.w3.org/2000/svg">
  <g transform="matrix(1.0, 0.0, 0.0, 1.0, 0.0, 0.0)">
    <use ffdec:characterId="42" height="40.0" transform="matrix(1.0, 0.0, 0.0, 1.0, 0.0, 0.0)" width="50.0" xlink:href="#shape0"/>
    <use ffdec:characterId="4" height="54.5" transform="matrix(0.4986, 0.0, 0.0, 0.4986, 2.0, 7.0)" width="92.3" xlink:href="#shape1"/>
    <use ffdec:characterId="11" height="9.05" transform="matrix(0.3851, -0.0284, 0.0284, 0.3851, 16.2185, 27.6662)" width="34.15" xlink:href="#sprite0"/>
    <use ffdec:characterId="17" height="21.6" transform="matrix(0.4477, -0.0331, 0.0331, 0.4477, 12.9725, 12.0213)" width="39.4" xlink:href="#sprite1"/>
  </g>
  <defs>
    <g id="shape0" transform="matrix(1.0, 0.0, 0.0, 1.0, 0.0, 0.0)">
      <path d="M50.0 0.0 L50.0 40.0 0.0 40.0 0.0 0.0 50.0 0.0" fill="#ffffff" fill-opacity="0.0" fill-rule="evenodd" stroke="none"/>
    </g>
    <g id="shape1" transform="matrix(1.0, 0.0, 0.0, 1.0, 0.0, 0.0)">
      <path d="M73.2 23.15 L73.7 23.85 74.1 24.4 76.3 25.1 76.4 25.15 79.25 26.4 80.95 26.85 85.05 26.55 Q86.5 25.95 88.05 25.5 L88.5 25.3 Q88.85 24.6 89.45 24.15 L89.8 23.85 90.05 23.45 90.45 21.95 90.4 21.65 89.8 14.7 89.75 14.4 89.4 13.8 89.25 13.15 89.15 13.0 88.55 12.45 88.1 11.9 88.05 11.45 86.6 9.15 86.1 8.55 86.0 8.4 85.7 8.25 85.55 8.1 85.55 8.05 85.15 7.9 83.85 7.65 Q80.5 7.4 77.1 7.65 76.2 8.9 74.9 9.8 72.0 11.8 70.7 15.1 L70.55 15.25 70.5 15.25 70.4 15.3 70.4 15.4 70.45 16.2 70.9 17.25 71.9 20.65 72.95 22.8 73.2 23.15 M89.75 8.3 L89.8 8.35 90.15 9.1 90.15 9.2 90.4 9.5 90.5 9.6 90.6 9.95 90.65 10.2 90.8 10.3 91.0 10.45 91.05 10.6 Q91.05 11.5 91.35 12.4 L91.55 13.15 91.75 13.75 91.9 14.35 91.8 14.4 91.9 15.7 92.3 21.5 92.1 23.2 91.95 23.5 91.0 25.95 90.5 26.3 90.4 26.8 90.1 26.95 89.2 27.6 88.75 28.0 Q82.1 30.15 75.3 27.6 L73.3 26.75 72.7 26.25 72.4 25.95 72.35 27.6 Q71.9 37.1 65.1 44.45 L64.6 45.45 Q59.8 51.15 52.45 53.5 L51.45 54.0 37.7 54.5 35.0 54.45 Q24.8 50.6 17.6 42.75 14.25 39.15 13.55 34.7 L12.3 34.75 12.15 33.85 13.4 33.3 Q13.2 30.8 13.8 28.05 L13.85 27.6 13.9 27.4 12.6 27.6 7.75 27.8 7.35 27.6 5.1 26.75 Q3.25 25.7 1.9 24.1 L1.85 23.9 1.3 23.35 1.25 23.1 Q0.65 22.25 0.45 21.2 L0.2 20.0 0.15 18.8 0.0 17.05 0.45 16.4 0.7 15.85 0.8 15.4 2.05 13.7 3.95 12.35 4.3 11.8 5.05 11.5 7.3 10.9 7.4 10.85 7.85 10.8 Q14.35 11.5 19.3 16.55 24.5 8.05 32.75 3.0 L28.85 2.65 28.4 2.35 28.45 1.8 28.8 1.4 29.25 1.2 29.3 1.1 Q43.95 -2.2 56.6 4.2 62.6 7.3 67.15 12.3 L68.15 12.8 69.0 13.3 69.1 13.5 Q69.8 12.45 70.65 11.45 73.05 8.35 76.2 5.8 L76.4 5.65 76.95 5.45 76.95 5.35 Q84.1 3.5 89.15 7.8 L89.75 8.3 M67.9 37.0 L68.2 36.3 70.5 25.15 70.5 24.9 70.55 24.7 70.5 24.3 70.45 23.1 Q70.2 20.35 68.95 17.95 L68.9 17.95 68.75 17.15 68.15 16.15 Q67.0 14.1 65.05 12.85 L64.85 12.45 Q60.85 8.95 56.35 5.95 L56.0 5.55 53.8 4.9 Q45.85 0.9 36.8 2.9 29.5 6.55 24.5 12.75 21.95 15.85 20.0 19.55 L19.05 21.25 18.8 21.7 15.8 26.15 15.75 27.6 15.65 32.0 15.6 32.45 Q17.9 31.7 20.65 31.3 L32.1 29.25 33.65 28.75 42.55 28.15 43.0 28.05 45.25 28.0 45.4 28.0 45.5 28.05 48.15 28.35 48.6 28.45 49.0 28.4 50.3 28.4 50.4 28.5 50.45 28.5 Q52.2 28.4 53.75 29.05 L54.05 29.2 58.0 29.65 Q65.0 30.25 68.3 35.3 L68.1 35.5 67.35 35.7 66.2 35.85 Q65.0 34.65 63.55 33.95 57.05 30.7 49.55 30.85 L49.4 30.7 45.4 30.15 44.3 30.25 42.4 30.35 38.15 30.75 34.2 31.15 31.7 31.55 Q23.65 32.65 15.7 34.35 L15.8 36.65 Q17.25 40.65 20.55 43.2 21.85 44.85 23.7 46.15 L24.1 46.45 24.1 46.5 24.3 46.6 26.95 48.35 27.05 48.4 27.2 48.6 27.6 49.15 Q31.65 50.45 35.35 52.3 L35.6 52.45 Q43.25 53.8 51.1 51.9 L60.25 47.55 Q62.55 46.35 63.15 44.1 L63.65 43.05 63.7 42.95 Q66.25 40.15 67.9 37.0 M41.35 34.4 Q40.55 34.65 40.2 34.05 L40.1 33.75 40.05 33.7 39.7 33.4 Q39.5 32.7 39.95 32.15 40.1 31.9 40.45 31.8 L40.85 31.7 41.5 31.6 Q41.8 31.6 42.05 31.85 42.4 32.15 42.4 32.65 42.5 33.9 41.35 34.4 M16.95 20.65 L17.8 19.2 18.05 18.75 17.85 18.05 17.4 17.6 16.9 17.15 Q14.6 15.05 11.6 14.05 L11.35 13.75 11.3 13.7 9.75 13.45 6.35 13.75 6.2 13.8 Q4.0 14.7 3.1 16.75 L2.95 17.1 2.3 18.15 2.05 18.45 2.1 19.05 2.2 20.2 2.25 21.35 2.55 21.85 5.5 24.7 5.65 25.0 8.0 25.25 8.4 25.25 14.35 24.9 15.6 22.95 16.95 20.65 M4.55 13.1 L4.65 13.0 4.55 13.0 4.55 13.1 M34.85 33.4 Q34.9 32.7 35.55 32.3 L35.65 32.3 35.8 32.25 Q36.9 32.0 37.05 33.05 37.15 33.6 36.75 34.0 35.85 34.9 35.0 33.85 L34.85 33.4" fill="#000000" fill-rule="evenodd" stroke="none"/>
      <path d="M70.7 15.1 Q72.0 11.8 74.9 9.8 76.2 8.9 77.1 7.65 80.5 7.4 83.85 7.65 L85.15 7.9 85.55 8.05 85.55 8.1 85.7 8.25 86.0 8.4 86.1 8.55 86.6 9.15 88.05 11.45 88.1 11.9 88.55 12.45 89.15 13.0 89.25 13.15 89.4 13.8 89.75 14.4 89.8 14.7 90.4 21.65 90.45 21.95 90.05 23.45 89.8 23.85 89.45 24.15 Q88.85 24.6 88.5 25.3 L88.05 25.5 Q86.5 25.95 85.05 26.55 L80.95 26.85 79.25 26.4 76.4 25.15 76.3 25.1 74.1 24.4 73.7 23.85 73.2 23.15 Q76.75 23.95 80.15 21.8 L80.8 21.5 Q81.0 20.8 81.75 20.45 L82.4 19.6 Q82.55 19.1 83.0 18.9 L83.25 18.65 83.3 18.1 Q83.55 17.05 82.95 16.3 L82.6 15.7 82.4 15.5 81.5 14.75 81.2 14.4 80.85 14.3 Q79.95 13.9 79.25 13.3 75.9 12.7 73.25 14.95 L73.1 15.05 73.05 15.2 73.0 15.4 72.85 15.45 Q72.15 15.8 71.65 16.35 L71.4 16.55 71.35 16.7 71.25 17.0 71.1 17.1 70.9 17.25 70.45 16.2 70.4 15.4 70.4 15.3 70.5 15.25 70.55 15.25 Q70.6 15.15 70.7 15.15 L70.7 15.1 M85.05 15.85 L85.3 16.3 84.85 15.25 84.95 15.55 85.05 15.85 M19.05 21.25 L20.0 19.55 Q21.95 15.85 24.5 12.75 29.5 6.55 36.8 2.9 45.85 0.9 53.8 4.9 L56.0 5.55 56.35 5.95 Q60.85 8.95 64.85 12.45 L65.05 12.85 Q67.0 14.1 68.15 16.15 L68.75 17.15 68.9 17.95 68.95 17.95 Q70.2 20.35 70.45 23.1 L70.5 24.3 70.55 24.7 70.5 24.9 70.5 25.15 68.2 36.3 67.9 37.0 67.8 36.7 67.35 35.7 68.1 35.5 68.3 35.3 Q65.0 30.25 58.0 29.65 L54.05 29.2 53.75 29.05 Q52.2 28.4 50.45 28.5 L50.4 28.5 50.3 28.4 49.0 28.4 48.6 28.45 48.15 28.35 45.5 28.05 45.4 28.0 45.25 28.0 43.0 28.05 42.55 28.15 33.65 28.75 32.1 29.25 20.65 31.3 Q17.9 31.7 15.6 32.45 L15.65 32.0 15.75 27.6 15.8 26.15 18.8 21.7 19.05 21.35 19.05 21.25 M15.6 22.95 L14.35 24.9 8.4 25.25 8.0 25.25 5.65 25.0 5.5 24.7 2.55 21.85 2.25 21.35 2.2 20.2 2.1 19.05 2.05 18.45 2.3 18.15 2.95 17.1 3.1 16.75 Q4.0 14.7 6.2 13.8 L6.35 13.75 9.75 13.45 11.3 13.7 11.35 13.75 11.6 14.05 Q14.6 15.05 16.9 17.15 L17.4 17.6 17.85 18.05 18.05 18.75 17.8 19.2 16.95 20.65 15.7 19.05 Q14.3 17.4 12.3 16.55 9.05 16.1 7.05 18.3 L7.0 18.65 Q6.75 18.95 6.65 19.45 L6.5 19.65 6.4 19.8 6.4 20.4 6.4 20.5 7.05 22.25 Q7.95 22.6 8.55 23.35 10.55 24.65 12.95 23.8 L15.05 23.1 15.6 22.95" fill="#95632d" fill-rule="evenodd" stroke="none"/>
      <path d="M70.9 17.25 L71.1 17.1 71.25 17.0 71.35 16.7 71.4 16.55 71.65 16.35 Q72.15 15.8 72.85 15.45 L73.0 15.4 73.05 15.2 73.1 15.05 73.25 14.95 Q75.9 12.7 79.25 13.3 79.95 13.9 80.85 14.3 L81.2 14.4 81.5 14.75 82.4 15.5 82.6 15.7 82.95 16.3 Q83.55 17.05 83.3 18.1 L83.25 18.65 83.0 18.9 Q82.55 19.1 82.4 19.6 L81.75 20.45 Q81.0 20.8 80.8 21.5 L80.15 21.8 Q76.75 23.95 73.2 23.15 L72.95 22.8 71.9 20.65 70.9 17.25 M85.05 15.85 L84.95 15.55 84.85 15.25 85.3 16.3 85.05 15.85 M19.05 21.25 L19.05 21.35 18.8 21.7 19.05 21.25 M67.35 35.7 L67.8 36.7 67.9 37.0 Q66.25 40.15 63.7 42.95 L63.65 43.05 63.15 44.1 Q62.55 46.35 60.25 47.55 L51.1 51.9 Q43.25 53.8 35.6 52.45 L35.35 52.3 Q31.65 50.45 27.6 49.15 L27.2 48.6 27.05 48.4 26.95 48.35 24.3 46.6 24.1 46.5 24.1 46.45 23.7 46.15 Q21.85 44.85 20.55 43.2 17.25 40.65 15.8 36.65 L15.7 34.35 Q23.65 32.65 31.7 31.55 L34.2 31.15 38.15 30.75 42.4 30.35 44.3 30.25 45.4 30.15 49.4 30.7 49.55 30.85 Q57.05 30.7 63.55 33.95 65.0 34.65 66.2 35.85 L67.35 35.7 M41.35 34.4 Q42.5 33.9 42.4 32.65 42.4 32.15 42.05 31.85 41.8 31.6 41.5 31.6 L40.85 31.7 40.45 31.8 Q40.1 31.9 39.95 32.15 39.5 32.7 39.7 33.4 L40.05 33.7 40.1 33.75 40.2 34.05 Q40.55 34.65 41.35 34.4 M15.6 22.95 L15.05 23.1 12.95 23.8 Q10.55 24.65 8.55 23.35 7.95 22.6 7.05 22.25 L6.4 20.5 6.4 20.4 6.4 19.8 6.5 19.65 6.65 19.45 Q6.75 18.95 7.0 18.65 L7.05 18.3 Q9.05 16.1 12.3 16.55 14.3 17.4 15.7 19.05 L16.95 20.65 15.6 22.95 M34.85 33.4 L35.0 33.85 Q35.85 34.9 36.75 34.0 37.15 33.6 37.05 33.05 36.9 32.0 35.8 32.25 L35.65 32.3 35.55 32.3 Q34.9 32.7 34.85 33.4" fill="#d79e4a" fill-rule="evenodd" stroke="none"/>
    </g>
    <g id="sprite0" transform="matrix(1.0, 0.0, 0.0, 1.0, 16.2, 5.05)">
      <use ffdec:characterId="5" height="4.5" transform="matrix(1.0, 0.0, 0.0, 1.0, -7.65, -2.25)" width="15.3" xlink:href="#shape2"/>
    </g>
    <g id="shape2" transform="matrix(1.0, 0.0, 0.0, 1.0, 7.65, 2.25)">
      <path d="M7.6 -0.15 L7.6 0.5 Q0.1 3.55 -7.65 1.25 L-7.5 0.6 -6.9 -0.25 -6.15 -1.0 Q-1.9 -0.55 0.6 -2.25 L3.85 -1.55 7.1 -1.0 7.6 -0.15" fill="#000000" fill-rule="evenodd" stroke="none"/>
    </g>
    <g id="sprite1" transform="matrix(1.0, 0.0, 0.0, 1.0, 23.5, 12.3)">
      <use ffdec:characterId="12" height="17.25" transform="matrix(1.0, 0.0, 0.0, 1.0, -21.25, -10.1)" width="34.95" xlink:href="#shape3"/>
      <use ffdec:characterId="14" height="7.8" transform="matrix(1.0, 0.0, 0.0, 1.0, -16.85, -2.6)" width="25.55" xlink:href="#sprite2"/>
      <use ffdec:characterId="15" height="21.6" transform="matrix(1.0, 0.0, 0.0, 1.0, -23.5, -12.3)" width="39.4" xlink:href="#shape5"/>
    </g>
    <g id="shape3" transform="matrix(1.0, 0.0, 0.0, 1.0, 21.25, 10.1)">
      <path d="M5.7 -3.5 L6.05 -3.65 Q8.4 -4.15 10.45 -3.25 14.2 -1.65 13.65 2.6 13.55 3.45 13.05 4.05 L13.0 4.05 Q12.15 5.5 9.65 5.75 4.25 6.25 1.75 1.95 L1.6 1.85 1.5 1.45 1.45 1.4 1.4 0.8 1.4 -0.35 Q1.6 -1.85 3.15 -2.45 L5.7 -3.5" fill="#ffffff" fill-rule="evenodd" stroke="none"/>
      <path d="M-20.35 -6.45 L-19.75 -7.25 Q-16.65 -9.65 -12.7 -9.9 -7.05 -10.85 -3.5 -6.9 -0.55 -3.6 -1.1 0.95 -1.35 3.2 -3.25 4.65 -5.15 6.2 -7.5 6.7 L-12.95 7.15 -14.6 6.7 Q-15.35 6.3 -16.15 6.0 -17.95 5.4 -18.85 3.85 -20.95 2.45 -21.2 -0.1 -21.5 -3.5 -20.35 -6.45" fill="#ffffff" fill-rule="evenodd" stroke="none"/>
    </g>
    <g id="sprite2" transform="matrix(1.0, 0.0, 0.0, 1.0, 2.75, 0.0)">
      <use ffdec:characterId="13" height="5.35" transform="matrix(1.0, 0.0, 0.0, 1.0, 0.0, 0.0)" width="22.8" xlink:href="#shape4"/>
    </g>
    <g id="shape4" transform="matrix(1.0, 0.0, 0.0, 1.0, 2.75, -2.45)">
      <path d="M20.05 6.1 Q20.1 6.9 19.55 7.35 L18.6 7.8 18.5 7.8 17.9 7.65 17.35 7.5 16.75 6.95 Q16.25 6.45 16.35 5.8 L16.4 5.75 16.5 5.45 17.2 4.75 17.55 4.7 Q18.9 4.3 19.7 5.2 20.05 5.55 20.05 6.1" fill="#000000" fill-rule="evenodd" stroke="none"/>
      <path d="M1.1 3.95 Q1.3 5.05 0.7 5.9 0.5 6.25 0.0 6.3 -2.4 6.65 -2.7 4.4 -2.9 3.0 -1.65 2.55 -0.55 2.3 0.25 2.8 0.9 3.25 1.1 3.95" fill="#000000" fill-rule="evenodd" stroke="none"/>
    </g>
    <g id="shape5" transform="matrix(1.0, 0.0, 0.0, 1.0, 23.5, 12.3)">
      <path d="M1.4 -3.5 L1.95 -3.95 Q3.6 -5.2 5.4 -5.65 L5.45 -5.75 10.95 -5.5 11.45 -4.7 11.5 -4.6 11.9 -4.5 11.95 -4.5 12.1 -4.4 12.9 -3.85 Q15.7 -1.75 15.9 1.25 L15.65 2.75 15.55 3.1 12.35 6.85 Q11.8 6.95 11.35 7.3 L8.15 7.3 3.75 6.35 2.35 5.85 2.05 5.65 -0.15 2.7 -0.2 2.05 -0.25 0.25 -0.1 -1.4 -0.05 -1.75 1.1 -3.5 1.4 -3.5 M3.15 -2.45 Q1.6 -1.85 1.4 -0.35 L1.4 0.8 1.45 1.4 1.5 1.45 1.6 1.85 1.75 1.95 Q4.25 6.25 9.65 5.75 12.15 5.5 13.0 4.05 L13.05 4.05 Q13.55 3.45 13.65 2.6 14.2 -1.65 10.45 -3.25 8.4 -4.15 6.05 -3.65 L5.7 -3.5 3.15 -2.45" fill="#000000" fill-rule="evenodd" stroke="none"/>
      <path d="M0.85 -1.4 L0.85 1.3 0.9 1.5 Q0.15 3.1 -0.35 4.8 L-1.85 6.1 -2.9 7.0 Q-5.4 8.6 -8.3 9.25 L-8.35 9.3 -17.8 8.0 -18.55 7.25 -21.55 4.25 -22.3 3.5 -22.3 2.95 Q-23.65 1.2 -23.5 -1.2 L-23.15 -4.4 -22.75 -6.1 -22.3 -6.6 -22.3 -7.0 -21.2 -8.55 -19.65 -9.75 Q-16.8 -11.35 -14.05 -12.25 -4.75 -13.0 -0.3 -5.45 -0.2 -4.75 0.35 -4.0 L0.85 -1.4 M-20.35 -6.45 Q-21.5 -3.5 -21.2 -0.1 -20.95 2.45 -18.85 3.85 -17.95 5.4 -16.15 6.0 -15.35 6.3 -14.6 6.7 L-12.95 7.15 -7.5 6.7 Q-5.15 6.2 -3.25 4.65 -1.35 3.2 -1.1 0.95 -0.55 -3.6 -3.5 -6.9 -7.05 -10.85 -12.7 -9.9 -16.65 -9.65 -19.75 -7.25 L-20.35 -6.45" fill="#000000" fill-rule="evenodd" stroke="none"/>
    </g>
  </defs>
</svg>
