<?xml version="1.0" encoding="UTF-8" standalone="no"?>
<svg xmlns:ffdec="https://www.free-decompiler.com/flash" xmlns:xlink="http://www.w3.org/1999/xlink" ffdec:objectType="frame" height="220.3px" width="226.55px" xmlns="http://www.w3.org/2000/svg">
  <g transform="matrix(1.0, 0.0, 0.0, 1.0, 108.95, 112.25)">
    <use ffdec:characterId="550" height="181.1" transform="matrix(1.0, 0.0, 0.0, 1.0, -90.7, -90.55)" width="181.35" xlink:href="#morphshape0"/>
  </g>
  <defs>
    <g id="morphshape0" transform="matrix(1.0, 0.0, 0.0, 1.0, 90.7, 90.55)">
      <path d="M-90.7 -0.05 Q-90.7 37.55 -64.15 64.15 -37.55 90.65 0.05 90.55 37.6 90.65 64.15 64.15 90.7 37.55 90.65 -0.05 90.7 -37.55 64.15 -64.1 37.6 -90.6 0.05 -90.55 -37.55 -90.6 -64.15 -64.1 -90.7 -37.55 -90.7 -0.05" fill="url(#gradient0)" fill-rule="evenodd" stroke="none"/>
      <path d="M-90.7 -0.05 Q-90.7 -37.55 -64.15 -64.1 -37.55 -90.6 0.05 -90.55 37.6 -90.6 64.15 -64.1 90.7 -37.55 90.65 -0.05 90.7 37.55 64.15 64.15 37.6 90.65 0.05 90.55 -37.55 90.65 -64.15 64.15 -90.7 37.55 -90.7 -0.05 Z" ffdec:has-small-stroke="true" ffdec:original-stroke-width="0.0" fill="none" stroke="#000000" stroke-linecap="round" stroke-linejoin="round" stroke-opacity="0.0" stroke-width="1.0"/>
    </g>
    <radialGradient cx="0" cy="0" gradientTransform="matrix(0.1289, 0.0, 0.0, 0.1287, 0.9, 0.3)" gradientUnits="userSpaceOnUse" id="gradient0" r="819.2" spreadMethod="pad">
      <stop offset="0.0" stop-color="#ffffff"/>
      <stop offset="0.8666666666666667" stop-color="#ffffff"/>
      <stop offset="0.9529411764705882" stop-color="#ffff00"/>
      <stop offset="1.0" stop-color="#ff0000"/>
    </radialGradient>
  </defs>
</svg>
