<?xml version="1.0" encoding="UTF-8" standalone="no"?>
<svg xmlns:ffdec="https://www.free-decompiler.com/flash" xmlns:xlink="http://www.w3.org/1999/xlink" ffdec:objectType="frame" height="220.3px" width="226.55px" xmlns="http://www.w3.org/2000/svg">
  <g transform="matrix(1.0, 0.0, 0.0, 1.0, 108.95, 112.25)">
    <use ffdec:characterId="551" height="181.1" transform="matrix(1.0, 0.0, 0.0, 1.0, -90.7, -90.55)" width="181.35" xlink:href="#morphshape0"/>
    <clipPath id="clipPath0">
      <path d="M 17.19 -96.15 L 18.43 -96.14 L 19.66 -96.12 L 20.88 -96.09 L 22.1 -96.04 L 23.32 -95.98 L 24.53 -95.9 L 25.73 -95.81 L 26.93 -95.71 L 28.12 -95.6 L 29.3 -95.47 L 30.48 -95.32 L 31.66 -95.16 L 32.83 -94.99 L 33.99 -94.81 L 35.15 -94.61 L 36.3 -94.4 L 37.44 -94.17 L 38.58 -93.93 L 39.72 -93.68 L 40.85 -93.41 L 41.97 -93.13 L 43.09 -92.84 L 44.2 -92.53 L 45.31 -92.21 L 46.41 -91.87 L 47.51 -91.52 L 48.6 -91.16 L 49.68 -90.78 L 50.76 -90.39 L 51.83 -89.99 L 52.9 -89.57 L 53.96 -89.14 L 55.02 -88.69 L 56.07 -88.23 L 57.11 -87.76 L 58.15 -87.27 L 59.18 -86.77 L 60.21 -86.26 L 61.23 -85.73 L 62.25 -85.19 L 63.26 -84.64 L 64.27 -84.07 L 65.26 -83.49 L 66.26 -82.89 L 67.25 -82.28 L 68.23 -81.66 L 69.21 -81.02 L 70.18 -80.37 L 71.14 -79.71 L 72.1 -79.03 L 73.06 -78.34 L 74.01 -77.63 L 74.95 -76.91 L 75.89 -76.18 L 76.82 -75.43 L 77.74 -74.67 L 78.66 -73.9 L 79.58 -73.11 L 80.49 -72.31 L 81.39 -71.5 L 82.29 -70.67 L 83.18 -69.83 L 84.07 -68.97 L 84.95 -68.1 L 85.82 -67.22 L 86.68 -66.33 L 87.52 -65.44 L 88.35 -64.54 L 89.17 -63.63 L 89.97 -62.72 L 90.76 -61.8 L 91.54 -60.88 L 92.3 -59.96 L 93.04 -59.02 L 93.78 -58.08 L 94.5 -57.14 L 95.2 -56.19 L 95.9 -55.23 L 96.58 -54.27 L 97.24 -53.31 L 97.89 -52.33 L 98.53 -51.36 L 99.15 -50.37 L 99.76 -49.38 L 100.36 -48.39 L 100.94 -47.39 L 101.51 -46.38 L 102.07 -45.37 L 102.61 -44.35 L 103.14 -43.33 L 103.65 -42.3 L 104.15 -41.27 L 104.64 -40.23 L 105.11 -39.18 L 105.57 -38.13 L 106.01 -37.08 L 106.44 -36.01 L 106.86 -34.95 L 107.27 -33.87 L 107.66 -32.79 L 108.03 -31.71 L 108.39 -30.62 L 108.74 -29.52 L 109.08 -28.42 L 109.4 -27.31 L 109.71 -26.2 L 110 -25.08 L 110.28 -23.96 L 110.55 -22.83 L 110.8 -21.69 L 111.04 -20.55 L 111.27 -19.41 L 111.48 -18.25 L 111.67 -17.1 L 111.86 -15.93 L 112.03 -14.76 L 112.19 -13.59 L 112.33 -12.41 L 112.46 -11.22 L 112.57 -10.03 L 112.67 -8.84 L 112.76 -7.63 L 112.84 -6.43 L 112.9 -5.21 L 112.94 -3.99 L 112.98 -2.77 L 112.99 -1.54 L 113 -0.3 L 112.99 0.94 L 112.98 2.17 L 112.94 3.4 L 112.9 4.62 L 112.84 5.84 L 112.76 7.05 L 112.67 8.26 L 112.57 9.46 L 112.46 10.65 L 112.33 11.84 L 112.19 13.02 L 112.03 14.2 L 111.86 15.37 L 111.67 16.54 L 111.48 17.7 L 111.27 18.85 L 111.04 20 L 110.8 21.15 L 110.55 22.28 L 110.28 23.42 L 110 24.54 L 109.71 25.66 L 109.4 26.78 L 109.08 27.89 L 108.74 28.99 L 108.39 30.09 L 108.03 31.18 L 107.66 32.27 L 107.27 33.35 L 106.86 34.43 L 106.44 35.5 L 106.01 36.56 L 105.57 37.62 L 105.11 38.67 L 104.64 39.72 L 104.15 40.76 L 103.65 41.8 L 103.14 42.83 L 102.61 43.86 L 102.07 44.88 L 101.51 45.89 L 100.94 46.9 L 100.36 47.9 L 99.76 48.9 L 99.15 49.89 L 98.53 50.87 L 97.89 51.85 L 97.24 52.83 L 96.58 53.8 L 95.9 54.76 L 95.2 55.72 L 94.5 56.67 L 93.78 57.62 L 93.04 58.56 L 92.3 59.49 L 91.54 60.42 L 90.76 61.34 L 89.97 62.26 L 89.17 63.17 L 88.35 64.08 L 87.52 64.98 L 86.68 65.88 L 85.82 66.77 L 84.95 67.65 L 84.07 68.52 L 83.18 69.37 L 82.29 70.21 L 81.39 71.04 L 80.49 71.85 L 79.58 72.65 L 78.66 73.44 L 77.74 74.21 L 76.82 74.97 L 75.89 75.72 L 74.95 76.45 L 74.01 77.17 L 73.06 77.87 L 72.1 78.56 L 71.14 79.24 L 70.18 79.9 L 69.21 80.55 L 68.23 81.19 L 67.25 81.81 L 66.26 82.42 L 65.26 83.01 L 64.27 83.59 L 63.26 84.16 L 62.25 84.71 L 61.23 85.25 L 60.21 85.78 L 59.18 86.29 L 58.15 86.79 L 57.11 87.28 L 56.07 87.75 L 55.02 88.21 L 53.96 88.65 L 52.9 89.08 L 51.83 89.5 L 50.76 89.9 L 49.68 90.29 L 48.6 90.67 L 47.51 91.03 L 46.41 91.38 L 45.31 91.71 L 44.2 92.03 L 43.09 92.34 L 41.97 92.64 L 40.85 92.92 L 39.72 93.18 L 38.59 93.44 L 37.44 93.67 L 36.3 93.9 L 35.15 94.11 L 33.99 94.31 L 32.83 94.49 L 31.66 94.67 L 30.48 94.82 L 29.3 94.97 L 28.12 95.1 L 26.93 95.21 L 25.73 95.32 L 24.53 95.4 L 23.32 95.48 L 22.1 95.54 L 20.88 95.59 L 19.66 95.62 L 18.43 95.64 L 17.19 95.65 L 17.05 95.65 L 16.91 95.65 L 15.67 95.64 L 14.44 95.62 L 13.22 95.59 L 12 95.54 L 10.78 95.48 L 9.57 95.4 L 8.37 95.32 L 7.17 95.21 L 5.98 95.1 L 4.8 94.97 L 3.62 94.82 L 2.44 94.67 L 1.27 94.49 L 0.11 94.31 L -1.05 94.11 L -2.2 93.9 L -3.35 93.67 L -4.49 93.44 L -5.62 93.18 L -6.75 92.92 L -7.88 92.64 L -9 92.34 L -10.11 92.03 L -11.22 91.71 L -12.32 91.38 L -13.41 91.03 L -14.51 90.67 L -15.59 90.29 L -16.67 89.9 L -17.74 89.5 L -18.81 89.08 L -19.87 88.65 L -20.93 88.21 L -21.98 87.75 L -23.03 87.28 L -24.07 86.79 L -25.1 86.29 L -26.13 85.78 L -27.15 85.25 L -28.17 84.71 L -29.18 84.16 L -30.19 83.59 L -31.19 83.01 L -32.18 82.42 L -33.17 81.81 L -34.16 81.19 L -35.13 80.55 L -36.11 79.9 L -37.07 79.24 L -38.03 78.56 L -38.99 77.87 L -39.94 77.17 L -40.88 76.45 L -41.82 75.72 L -42.76 74.97 L -43.68 74.21 L -44.6 73.44 L -45.52 72.65 L -46.43 71.85 L -47.34 71.04 L -48.24 70.21 L -49.13 69.37 L -50.02 68.52 L -50.9 67.65 L -51.77 66.77 L -52.63 65.88 L -53.47 64.98 L -54.3 64.08 L -55.12 63.17 L -55.92 62.26 L -56.71 61.34 L -57.49 60.42 L -58.25 59.49 L -59 58.56 L -59.73 57.62 L -60.45 56.67 L -61.16 55.72 L -61.85 54.76 L -62.53 53.8 L -63.19 52.83 L -63.85 51.85 L -64.48 50.87 L -65.11 49.89 L -65.72 48.9 L -66.32 47.9 L -66.9 46.9 L -67.47 45.89 L -68.02 44.88 L -68.57 43.86 L -69.09 42.83 L -69.61 41.8 L -70.11 40.76 L -70.6 39.72 L -71.07 38.67 L -71.53 37.62 L -71.97 36.56 L -72.41 35.5 L -72.83 34.43 L -73.23 33.35 L -73.62 32.27 L -74 31.18 L -74.36 30.09 L -74.71 28.99 L -75.05 27.89 L -75.37 26.78 L -75.68 25.66 L -75.97 24.54 L -76.26 23.42 L -76.52 22.28 L -76.78 21.15 L -77.02 20 L -77.24 18.85 L -77.46 17.7 L -77.66 16.54 L -77.84 15.37 L -78.01 14.2 L -78.17 13.02 L -78.31 11.84 L -78.44 10.65 L -78.56 9.46 L -78.66 8.26 L -78.75 7.05 L -78.83 5.84 L -78.89 4.62 L -78.94 3.4 L -78.97 2.17 L -78.99 0.94 L -79 -0.3 L -78.99 -1.54 L -78.97 -2.77 L -78.94 -3.99 L -78.89 -5.21 L -78.83 -6.43 L -78.75 -7.63 L -78.66 -8.84 L -78.56 -10.03 L -78.44 -11.22 L -78.31 -12.41 L -78.17 -13.59 L -78.01 -14.76 L -77.84 -15.93 L -77.66 -17.1 L -77.46 -18.25 L -77.24 -19.41 L -77.02 -20.55 L -76.78 -21.69 L -76.52 -22.83 L -76.26 -23.96 L -75.97 -25.08 L -75.68 -26.2 L -75.37 -27.31 L -75.05 -28.42 L -74.71 -29.52 L -74.36 -30.62 L -74 -31.71 L -73.62 -32.79 L -73.23 -33.87 L -72.83 -34.95 L -72.41 -36.01 L -71.97 -37.08 L -71.53 -38.13 L -71.07 -39.18 L -70.6 -40.23 L -70.11 -41.27 L -69.61 -42.3 L -69.09 -43.33 L -68.57 -44.35 L -68.02 -45.37 L -67.47 -46.38 L -66.9 -47.39 L -66.32 -48.39 L -65.72 -49.38 L -65.11 -50.37 L -64.48 -51.36 L -63.85 -52.33 L -63.19 -53.31 L -62.53 -54.27 L -61.85 -55.23 L -61.16 -56.19 L -60.45 -57.14 L -59.73 -58.08 L -59 -59.02 L -58.25 -59.96 L -57.49 -60.88 L -56.71 -61.8 L -55.92 -62.72 L -55.12 -63.63 L -54.3 -64.54 L -53.47 -65.44 L -52.63 -66.33 L -51.77 -67.22 L -50.9 -68.1 L -50.02 -68.97 L -49.13 -69.83 L -48.24 -70.67 L -47.34 -71.5 L -46.43 -72.31 L -45.52 -73.11 L -44.6 -73.9 L -43.68 -74.67 L -42.76 -75.43 L -41.82 -76.18 L -40.88 -76.91 L -39.94 -77.63 L -38.99 -78.34 L -38.03 -79.03 L -37.07 -79.71 L -36.11 -80.37 L -35.13 -81.02 L -34.16 -81.66 L -33.17 -82.28 L -32.18 -82.89 L -31.19 -83.49 L -30.19 -84.07 L -29.18 -84.64 L -28.17 -85.19 L -27.15 -85.73 L -26.13 -86.26 L -25.1 -86.77 L -24.07 -87.27 L -23.03 -87.76 L -21.98 -88.23 L -20.93 -88.69 L -19.87 -89.14 L -18.81 -89.57 L -17.74 -89.99 L -16.67 -90.39 L -15.59 -90.78 L -14.51 -91.16 L -13.41 -91.52 L -12.32 -91.87 L -11.22 -92.21 L -10.11 -92.53 L -9 -92.84 L -7.88 -93.13 L -6.75 -93.41 L -5.62 -93.68 L -4.49 -93.93 L -3.35 -94.17 L -2.2 -94.4 L -1.05 -94.61 L 0.11 -94.81 L 1.27 -94.99 L 2.44 -95.16 L 3.62 -95.32 L 4.8 -95.47 L 5.98 -95.6 L 7.17 -95.71 L 8.37 -95.81 L 9.57 -95.9 L 10.78 -95.98 L 12 -96.04 L 13.22 -96.09 L 14.44 -96.12 L 15.67 -96.14 L 16.91 -96.15 L 17.05 -96.15 L 17.19 -96.15 Z M 10.55 -106.5 L 9.21 -106.49 L 7.87 -106.47 L 6.53 -106.43 L 5.19 -106.38 L 3.86 -106.32 L 2.54 -106.24 L 1.22 -106.14 L -0.1 -106.04 L -1.42 -105.91 L -2.72 -105.77 L -4.03 -105.62 L -5.33 -105.46 L -6.63 -105.27 L -7.92 -105.08 L -9.21 -104.87 L -10.49 -104.64 L -11.77 -104.4 L -13.05 -104.15 L -14.32 -103.88 L -15.58 -103.6 L -16.85 -103.3 L -18.11 -102.99 L -19.36 -102.66 L -20.61 -102.32 L -21.86 -101.97 L -23.1 -101.6 L -24.34 -101.21 L -25.57 -100.82 L -26.8 -100.4 L -28.03 -99.97 L -29.25 -99.53 L -30.47 -99.08 L -31.68 -98.6 L -32.89 -98.12 L -34.09 -97.62 L -35.29 -97.1 L -36.49 -96.57 L -37.68 -96.03 L -38.87 -95.47 L -40.05 -94.9 L -41.23 -94.31 L -42.41 -93.71 L -43.58 -93.09 L -44.74 -92.46 L -45.91 -91.82 L -47.06 -91.16 L -48.22 -90.48 L -49.37 -89.79 L -50.51 -89.09 L -51.66 -88.37 L -52.79 -87.64 L -53.93 -86.89 L -55.06 -86.13 L -56.18 -85.36 L -57.3 -84.57 L -58.42 -83.76 L -59.53 -82.94 L -60.64 -82.11 L -61.74 -81.26 L -62.84 -80.4 L -63.94 -79.52 L -65.03 -78.63 L -66.12 -77.72 L -67.2 -76.8 L -68.27 -75.86 L -69.33 -74.92 L -70.37 -73.97 L -71.39 -73 L -72.4 -72.03 L -73.39 -71.05 L -74.36 -70.07 L -75.32 -69.07 L -76.25 -68.06 L -77.17 -67.05 L -78.08 -66.03 L -78.96 -64.99 L -79.83 -63.95 L -80.68 -62.9 L -81.52 -61.85 L -82.34 -60.78 L -83.14 -59.7 L -83.92 -58.62 L -84.69 -57.52 L -85.44 -56.42 L -86.17 -55.31 L -86.89 -54.19 L -87.58 -53.06 L -88.27 -51.93 L -88.93 -50.78 L -89.58 -49.63 L -90.21 -48.46 L -90.82 -47.29 L -91.42 -46.11 L -91.99 -44.92 L -92.56 -43.72 L -93.1 -42.51 L -93.63 -41.3 L -94.14 -40.07 L -94.63 -38.84 L -95.11 -37.6 L -95.57 -36.34 L -96.01 -35.08 L -96.43 -33.82 L -96.84 -32.54 L -97.23 -31.25 L -97.6 -29.96 L -97.96 -28.65 L -98.3 -27.34 L -98.62 -26.02 L -98.93 -24.69 L -99.22 -23.35 L -99.49 -22 L -99.74 -20.65 L -99.98 -19.28 L -100.2 -17.91 L -100.4 -16.53 L -100.59 -15.13 L -100.75 -13.73 L -100.91 -12.32 L -101.04 -10.91 L -101.16 -9.48 L -101.26 -8.05 L -101.34 -6.6 L -101.41 -5.15 L -101.46 -3.69 L -101.49 -2.22 L -101.5 -0.74 L -101.5 0.75 L -101.45 0.75 L -101.43 2.24 L -101.4 3.72 L -101.35 5.19 L -101.28 6.64 L -101.2 8.09 L -101.09 9.53 L -100.98 10.96 L -100.84 12.37 L -100.69 13.78 L -100.53 15.17 L -100.34 16.56 L -100.14 17.94 L -99.93 19.3 L -99.69 20.66 L -99.44 22 L -99.18 23.34 L -98.89 24.66 L -98.59 25.98 L -98.28 27.28 L -97.94 28.57 L -97.59 29.86 L -97.23 31.13 L -96.84 32.39 L -96.44 33.65 L -96.03 34.89 L -95.59 36.12 L -95.15 37.34 L -94.68 38.56 L -94.2 39.76 L -93.7 40.95 L -93.18 42.13 L -92.65 43.3 L -92.1 44.46 L -91.54 45.61 L -90.95 46.75 L -90.35 47.88 L -89.74 49 L -89.11 50.11 L -88.46 51.21 L -87.79 52.3 L -87.11 53.38 L -86.41 54.44 L -85.7 55.5 L -84.97 56.55 L -84.22 57.59 L -83.45 58.61 L -82.67 59.63 L -81.88 60.64 L -81.06 61.63 L -80.23 62.62 L -79.38 63.6 L -78.52 64.56 L -77.64 65.52 L -76.74 66.46 L -75.82 67.4 L -74.89 68.32 L -73.95 69.24 L -72.98 70.14 L -72 71.03 L -71 71.92 L -69.99 72.79 L -68.96 73.65 L -67.91 74.51 L -66.85 75.35 L -65.78 76.17 L -64.71 76.99 L -63.63 77.79 L -62.54 78.57 L -61.46 79.34 L -60.36 80.1 L -59.27 80.85 L -58.17 81.58 L -57.06 82.31 L -55.95 83.01 L -54.84 83.71 L -53.72 84.39 L -52.6 85.06 L -51.47 85.71 L -50.34 86.36 L -49.21 86.99 L -48.07 87.6 L -46.93 88.21 L -45.78 88.8 L -44.62 89.38 L -43.47 89.94 L -42.31 90.49 L -41.14 91.03 L -39.97 91.56 L -38.8 92.07 L -37.62 92.57 L -36.44 93.06 L -35.25 93.53 L -34.06 93.99 L -32.86 94.44 L -31.66 94.88 L -30.46 95.3 L -29.25 95.71 L -28.04 96.11 L -26.82 96.49 L -25.6 96.86 L -24.37 97.22 L -23.14 97.56 L -21.9 97.89 L -20.66 98.21 L -19.42 98.51 L -18.17 98.81 L -16.92 99.09 L -15.66 99.35 L -14.4 99.61 L -13.14 99.85 L -11.87 100.07 L -10.6 100.29 L -9.32 100.49 L -8.03 100.68 L -6.75 100.85 L -5.46 101.02 L -4.16 101.16 L -2.86 101.3 L -1.56 101.42 L -0.25 101.53 L 1.07 101.63 L 2.38 101.72 L 3.7 101.79 L 5.03 101.85 L 6.36 101.89 L 7.7 101.92 L 9.03 101.94 L 10.38 101.95 L 10.7 101.95 L 10.98 101.95 L 12.33 101.94 L 13.66 101.92 L 14.99 101.88 L 16.32 101.83 L 17.63 101.76 L 18.95 101.68 L 20.25 101.59 L 21.55 101.48 L 22.85 101.35 L 24.13 101.21 L 25.41 101.05 L 26.69 100.88 L 27.96 100.7 L 29.22 100.5 L 30.48 100.28 L 31.73 100.05 L 32.97 99.81 L 34.21 99.55 L 35.44 99.27 L 36.67 98.98 L 37.89 98.68 L 39.1 98.36 L 40.31 98.02 L 41.51 97.68 L 42.7 97.31 L 43.89 96.93 L 45.07 96.54 L 46.25 96.13 L 47.42 95.71 L 48.59 95.27 L 49.74 94.82 L 50.9 94.35 L 52.04 93.87 L 53.18 93.37 L 54.31 92.86 L 55.44 92.33 L 56.56 91.79 L 57.68 91.23 L 58.79 90.66 L 59.89 90.08 L 60.98 89.47 L 62.07 88.86 L 63.16 88.23 L 64.24 87.58 L 65.31 86.92 L 66.37 86.25 L 67.43 85.56 L 68.49 84.85 L 69.53 84.13 L 70.57 83.4 L 71.61 82.65 L 72.64 81.88 L 73.66 81.1 L 74.68 80.31 L 75.69 79.5 L 76.69 78.68 L 77.69 77.84 L 78.68 76.98 L 79.67 76.11 L 80.64 75.23 L 81.62 74.33 L 82.58 73.42 L 83.55 72.49 L 84.5 71.55 L 85.45 70.59 L 86.38 69.63 L 87.3 68.65 L 88.2 67.68 L 89.09 66.69 L 89.96 65.7 L 90.82 64.7 L 91.66 63.7 L 92.49 62.69 L 93.3 61.68 L 94.1 60.66 L 94.88 59.63 L 95.65 58.6 L 96.4 57.56 L 97.14 56.51 L 97.86 55.46 L 98.57 54.4 L 99.26 53.34 L 99.94 52.27 L 100.61 51.19 L 101.25 50.11 L 101.89 49.02 L 102.51 47.92 L 103.11 46.82 L 103.7 45.71 L 104.27 44.6 L 104.83 43.48 L 105.37 42.35 L 105.9 41.22 L 106.42 40.08 L 106.92 38.94 L 107.4 37.79 L 107.87 36.63 L 108.32 35.47 L 108.76 34.3 L 109.19 33.12 L 109.6 31.94 L 109.99 30.75 L 110.37 29.56 L 110.73 28.36 L 111.08 27.15 L 111.42 25.94 L 111.74 24.72 L 112.04 23.5 L 112.33 22.26 L 112.61 21.03 L 112.87 19.78 L 113.11 18.53 L 113.34 17.28 L 113.56 16.02 L 113.76 14.75 L 113.94 13.47 L 114.11 12.19 L 114.27 10.91 L 114.41 9.61 L 114.53 8.31 L 114.64 7.01 L 114.74 5.7 L 114.82 4.38 L 114.89 3.06 L 114.94 1.73 L 114.97 0.39 L 114.99 -0.95 L 115 -2.3 L 114.99 -3.65 L 114.97 -4.98 L 114.94 -6.32 L 114.89 -7.64 L 114.82 -8.97 L 114.74 -10.28 L 114.64 -11.59 L 114.53 -12.89 L 114.41 -14.19 L 114.27 -15.48 L 114.11 -16.76 L 113.94 -18.04 L 113.76 -19.31 L 113.56 -20.58 L 113.34 -21.84 L 113.11 -23.09 L 112.87 -24.34 L 112.61 -25.58 L 112.33 -26.81 L 112.04 -28.04 L 111.74 -29.27 L 111.42 -30.48 L 111.08 -31.69 L 110.73 -32.9 L 110.37 -34.1 L 109.99 -35.29 L 109.6 -36.47 L 109.19 -37.65 L 108.76 -38.83 L 108.32 -40 L 107.87 -41.16 L 107.4 -42.31 L 106.92 -43.46 L 106.42 -44.6 L 105.9 -45.74 L 105.37 -46.87 L 104.83 -48 L 104.27 -49.12 L 103.7 -50.23 L 103.11 -51.34 L 102.51 -52.44 L 101.89 -53.53 L 101.25 -54.62 L 100.61 -55.7 L 99.94 -56.78 L 99.26 -57.84 L 98.57 -58.91 L 97.86 -59.97 L 97.14 -61.02 L 96.4 -62.06 L 95.65 -63.1 L 94.88 -64.13 L 94.1 -65.16 L 93.3 -66.18 L 92.49 -67.2 L 91.66 -68.2 L 90.82 -69.21 L 89.96 -70.2 L 89.09 -71.19 L 88.2 -72.18 L 87.3 -73.15 L 86.38 -74.13 L 85.45 -75.09 L 84.5 -76.05 L 83.54 -76.99 L 82.58 -77.92 L 81.61 -78.84 L 80.64 -79.74 L 79.66 -80.62 L 78.67 -81.49 L 77.68 -82.35 L 76.68 -83.19 L 75.67 -84.01 L 74.66 -84.82 L 73.64 -85.62 L 72.62 -86.4 L 71.59 -87.16 L 70.55 -87.91 L 69.51 -88.65 L 68.46 -89.37 L 67.4 -90.08 L 66.34 -90.77 L 65.27 -91.45 L 64.2 -92.11 L 63.12 -92.75 L 62.04 -93.39 L 60.94 -94 L 59.84 -94.61 L 58.74 -95.19 L 57.63 -95.77 L 56.51 -96.32 L 55.39 -96.87 L 54.26 -97.39 L 53.12 -97.91 L 51.98 -98.4 L 50.84 -98.89 L 49.68 -99.36 L 48.52 -99.81 L 47.35 -100.25 L 46.18 -100.67 L 45 -101.08 L 43.82 -101.47 L 42.63 -101.85 L 41.43 -102.22 L 40.23 -102.57 L 39.02 -102.9 L 37.8 -103.22 L 36.58 -103.53 L 35.35 -103.82 L 34.12 -104.09 L 32.88 -104.35 L 31.63 -104.6 L 30.38 -104.83 L 29.12 -105.04 L 27.85 -105.24 L 26.58 -105.43 L 25.3 -105.6 L 24.02 -105.76 L 22.73 -105.9 L 21.43 -106.02 L 20.13 -106.14 L 18.82 -106.23 L 17.51 -106.31 L 16.19 -106.38 L 14.86 -106.43 L 13.53 -106.47 L 12.19 -106.49 L 10.84 -106.5 L 10.7 -106.5 L 10.55 -106.5 Z"/>
    </clipPath>
    <g clip-path="url(#clipPath0)">
      <use ffdec:characterId="550" height="181.1" transform="matrix(1.0, 0.0, 0.0, 1.0, -90.7, -90.55)" width="181.35" xlink:href="#morphshape1"/>
    </g>
  </g>
  <defs>
    <g id="morphshape0" transform="matrix(1.0, 0.0, 0.0, 1.0, 90.7, 90.55)">
      <path d="M-7.6 0.0 Q-7.45 3.1 -5.4 5.35 -3.1 7.45 -0.05 7.55 3.05 7.4 5.3 5.35 7.4 3.05 7.5 0.0 7.35 -3.1 5.3 -5.35 3.0 -7.45 -0.05 -7.55 -3.15 -7.4 -5.4 -5.35 -7.5 -3.05 -7.6 0.0" fill="#ffffff" fill-rule="evenodd" stroke="none"/>
      <path d="M-7.6 0.0 Q-7.5 -3.05 -5.4 -5.35 -3.15 -7.4 -0.05 -7.55 3.0 -7.45 5.3 -5.35 7.35 -3.1 7.5 0.0 7.4 3.05 5.3 5.35 3.05 7.4 -0.05 7.55 -3.1 7.45 -5.4 5.35 -7.45 3.1 -7.6 0.0 Z" ffdec:has-small-stroke="true" ffdec:original-stroke-width="0.0" fill="none" stroke="#000000" stroke-linecap="round" stroke-linejoin="round" stroke-opacity="0.0" stroke-width="1.0"/>
    </g>
    <g id="morphshape1" transform="matrix(1.0, 0.0, 0.0, 1.0, 90.7, 90.55)">
      <path d="M-90.7 -0.05 Q-90.7 37.55 -64.15 64.15 -37.55 90.65 0.05 90.55 37.6 90.65 64.15 64.15 90.7 37.55 90.65 -0.05 90.7 -37.55 64.15 -64.1 37.6 -90.6 0.05 -90.55 -37.55 -90.6 -64.15 -64.1 -90.7 -37.55 -90.7 -0.05" fill="url(#gradient0)" fill-rule="evenodd" stroke="none"/>
      <path d="M-90.7 -0.05 Q-90.7 -37.55 -64.15 -64.1 -37.55 -90.6 0.05 -90.55 37.6 -90.6 64.15 -64.1 90.7 -37.55 90.65 -0.05 90.7 37.55 64.15 64.15 37.6 90.65 0.05 90.55 -37.55 90.65 -64.15 64.15 -90.7 37.55 -90.7 -0.05 Z" ffdec:has-small-stroke="true" ffdec:original-stroke-width="0.0" fill="none" stroke="#000000" stroke-linecap="round" stroke-linejoin="round" stroke-opacity="0.0" stroke-width="1.0"/>
    </g>
    <radialGradient cx="0" cy="0" gradientTransform="matrix(0.118, 0.0, 0.0, 0.1178, 0.0, -1.05)" gradientUnits="userSpaceOnUse" id="gradient0" r="819.2" spreadMethod="pad">
      <stop offset="0.0" stop-color="#ffffff"/>
      <stop offset="0.30196078431372547" stop-color="#ffffff"/>
      <stop offset="0.6784313725490196" stop-color="#ffff00"/>
      <stop offset="1.0" stop-color="#ff0000"/>
    </radialGradient>
  </defs>
</svg>
