<?xml version="1.0" encoding="UTF-8" standalone="no"?>
<svg xmlns:ffdec="https://www.free-decompiler.com/flash" xmlns:xlink="http://www.w3.org/1999/xlink" ffdec:objectType="frame" height="220.3px" width="226.55px" xmlns="http://www.w3.org/2000/svg">
  <g transform="matrix(1.0, 0.0, 0.0, 1.0, 108.95, 112.25)">
    <use ffdec:characterId="551" height="181.1" transform="matrix(1.0, 0.0, 0.0, 1.0, -90.7, -90.55)" width="181.35" xlink:href="#morphshape0"/>
    <clipPath id="clipPath0">
      <path d="M 12.24 -99 L 13.52 -98.99 L 14.79 -98.97 L 16.05 -98.94 L 17.31 -98.89 L 18.57 -98.82 L 19.82 -98.75 L 21.06 -98.65 L 22.29 -98.55 L 23.52 -98.43 L 24.75 -98.29 L 25.97 -98.14 L 27.18 -97.98 L 28.39 -97.81 L 29.59 -97.61 L 30.78 -97.41 L 31.97 -97.19 L 33.16 -96.96 L 34.33 -96.71 L 35.51 -96.45 L 36.67 -96.17 L 37.83 -95.88 L 38.99 -95.58 L 40.14 -95.26 L 41.28 -94.93 L 42.42 -94.58 L 43.55 -94.22 L 44.67 -93.85 L 45.79 -93.46 L 46.9 -93.06 L 48.01 -92.64 L 49.11 -92.21 L 50.21 -91.76 L 51.3 -91.3 L 52.38 -90.83 L 53.46 -90.34 L 54.54 -89.84 L 55.6 -89.32 L 56.66 -88.79 L 57.72 -88.25 L 58.77 -87.69 L 59.81 -87.12 L 60.85 -86.53 L 61.88 -85.93 L 62.91 -85.32 L 63.93 -84.69 L 64.94 -84.04 L 65.95 -83.39 L 66.95 -82.72 L 67.95 -82.03 L 68.94 -81.33 L 69.93 -80.62 L 70.9 -79.89 L 71.88 -79.15 L 72.85 -78.39 L 73.81 -77.62 L 74.76 -76.84 L 75.71 -76.04 L 76.66 -75.22 L 77.6 -74.4 L 78.53 -73.56 L 79.45 -72.7 L 80.38 -71.83 L 81.29 -70.95 L 82.2 -70.05 L 83.1 -69.14 L 83.98 -68.22 L 84.85 -67.3 L 85.71 -66.37 L 86.55 -65.44 L 87.38 -64.5 L 88.2 -63.55 L 89 -62.6 L 89.78 -61.65 L 90.55 -60.68 L 91.31 -59.71 L 92.05 -58.74 L 92.78 -57.76 L 93.5 -56.77 L 94.2 -55.78 L 94.88 -54.78 L 95.56 -53.78 L 96.21 -52.77 L 96.86 -51.76 L 97.49 -50.74 L 98.1 -49.71 L 98.7 -48.68 L 99.29 -47.64 L 99.86 -46.6 L 100.42 -45.55 L 100.97 -44.49 L 101.5 -43.43 L 102.01 -42.36 L 102.52 -41.29 L 103 -40.21 L 103.48 -39.13 L 103.94 -38.04 L 104.38 -36.94 L 104.81 -35.84 L 105.23 -34.73 L 105.63 -33.62 L 106.02 -32.5 L 106.4 -31.38 L 106.76 -30.24 L 107.1 -29.11 L 107.43 -27.97 L 107.75 -26.82 L 108.06 -25.66 L 108.34 -24.51 L 108.62 -23.34 L 108.88 -22.17 L 109.13 -20.99 L 109.36 -19.81 L 109.58 -18.62 L 109.78 -17.43 L 109.97 -16.23 L 110.15 -15.02 L 110.31 -13.81 L 110.46 -12.59 L 110.59 -11.37 L 110.71 -10.14 L 110.81 -8.91 L 110.9 -7.66 L 110.98 -6.42 L 111.04 -5.17 L 111.09 -3.91 L 111.12 -2.64 L 111.14 -1.38 L 111.15 -0.1 L 111.14 1.18 L 111.12 2.45 L 111.09 3.72 L 111.04 4.98 L 110.98 6.23 L 110.9 7.48 L 110.81 8.73 L 110.71 9.96 L 110.59 11.2 L 110.46 12.42 L 110.31 13.64 L 110.15 14.86 L 109.97 16.07 L 109.78 17.27 L 109.58 18.47 L 109.36 19.66 L 109.13 20.85 L 108.88 22.03 L 108.62 23.2 L 108.34 24.37 L 108.06 25.53 L 107.75 26.69 L 107.43 27.84 L 107.1 28.98 L 106.76 30.12 L 106.4 31.26 L 106.02 32.38 L 105.63 33.51 L 105.23 34.62 L 104.81 35.73 L 104.38 36.84 L 103.94 37.94 L 103.48 39.03 L 103 40.12 L 102.52 41.2 L 102.01 42.28 L 101.5 43.35 L 100.97 44.41 L 100.42 45.47 L 99.86 46.52 L 99.29 47.57 L 98.7 48.61 L 98.1 49.64 L 97.49 50.67 L 96.86 51.7 L 96.21 52.72 L 95.56 53.73 L 94.88 54.73 L 94.2 55.73 L 93.5 56.73 L 92.78 57.72 L 92.05 58.7 L 91.31 59.68 L 90.55 60.65 L 89.78 61.62 L 89 62.58 L 88.2 63.53 L 87.38 64.48 L 86.55 65.42 L 85.71 66.36 L 84.85 67.29 L 83.98 68.22 L 83.1 69.14 L 82.2 70.05 L 81.29 70.94 L 80.38 71.82 L 79.45 72.69 L 78.53 73.54 L 77.6 74.38 L 76.66 75.21 L 75.71 76.02 L 74.76 76.81 L 73.81 77.59 L 72.85 78.36 L 71.88 79.11 L 70.9 79.85 L 69.93 80.58 L 68.94 81.29 L 67.95 81.99 L 66.95 82.67 L 65.95 83.34 L 64.94 84 L 63.93 84.64 L 62.91 85.26 L 61.88 85.88 L 60.85 86.48 L 59.81 87.06 L 58.77 87.63 L 57.72 88.19 L 56.66 88.73 L 55.6 89.26 L 54.54 89.77 L 53.46 90.27 L 52.39 90.76 L 51.3 91.23 L 50.21 91.69 L 49.11 92.13 L 48.01 92.56 L 46.9 92.98 L 45.79 93.38 L 44.67 93.77 L 43.55 94.14 L 42.42 94.5 L 41.28 94.84 L 40.14 95.17 L 38.99 95.49 L 37.83 95.79 L 36.67 96.08 L 35.51 96.36 L 34.33 96.62 L 33.16 96.86 L 31.97 97.1 L 30.78 97.32 L 29.59 97.52 L 28.39 97.71 L 27.18 97.89 L 25.97 98.05 L 24.75 98.2 L 23.52 98.33 L 22.29 98.45 L 21.06 98.55 L 19.82 98.65 L 18.57 98.72 L 17.31 98.79 L 16.06 98.84 L 14.79 98.87 L 13.52 98.89 L 12.24 98.9 L 12.1 98.9 L 11.96 98.9 L 10.68 98.89 L 9.41 98.87 L 8.15 98.84 L 6.89 98.79 L 5.64 98.72 L 4.39 98.65 L 3.15 98.55 L 1.92 98.45 L 0.69 98.33 L -0.54 98.2 L -1.76 98.05 L -2.97 97.89 L -4.17 97.71 L -5.37 97.52 L -6.57 97.32 L -7.76 97.1 L -8.94 96.86 L -10.12 96.62 L -11.29 96.36 L -12.46 96.08 L -13.62 95.79 L -14.77 95.49 L -15.92 95.17 L -17.06 94.84 L -18.2 94.5 L -19.33 94.14 L -20.46 93.77 L -21.58 93.38 L -22.69 92.98 L -23.8 92.56 L -24.9 92.13 L -26 91.69 L -27.09 91.23 L -28.17 90.76 L -29.25 90.27 L -30.33 89.77 L -31.4 89.26 L -32.46 88.73 L -33.51 88.19 L -34.56 87.63 L -35.61 87.06 L -36.65 86.48 L -37.68 85.88 L -38.71 85.26 L -39.73 84.64 L -40.75 84 L -41.76 83.34 L -42.76 82.67 L -43.76 81.99 L -44.75 81.29 L -45.74 80.58 L -46.72 79.85 L -47.7 79.11 L -48.67 78.36 L -49.63 77.59 L -50.59 76.81 L -51.54 76.02 L -52.49 75.21 L -53.43 74.38 L -54.37 73.54 L -55.3 72.69 L -56.22 71.82 L -57.14 70.94 L -58.05 70.05 L -58.95 69.14 L -59.83 68.22 L -60.7 67.29 L -61.56 66.36 L -62.4 65.42 L -63.22 64.48 L -64.04 63.53 L -64.84 62.58 L -65.62 61.62 L -66.39 60.65 L -67.15 59.68 L -67.89 58.7 L -68.62 57.72 L -69.33 56.73 L -70.03 55.73 L -70.72 54.73 L -71.39 53.73 L -72.04 52.72 L -72.69 51.7 L -73.32 50.67 L -73.93 49.64 L -74.53 48.61 L -75.12 47.57 L -75.69 46.52 L -76.25 45.47 L -76.79 44.41 L -77.32 43.35 L -77.84 42.28 L -78.34 41.2 L -78.83 40.12 L -79.3 39.03 L -79.76 37.94 L -80.21 36.84 L -80.64 35.73 L -81.06 34.62 L -81.46 33.51 L -81.85 32.38 L -82.22 31.26 L -82.58 30.12 L -82.93 28.98 L -83.26 27.84 L -83.58 26.69 L -83.88 25.53 L -84.17 24.37 L -84.45 23.2 L -84.71 22.03 L -84.96 20.85 L -85.19 19.66 L -85.41 18.47 L -85.61 17.27 L -85.81 16.07 L -85.98 14.86 L -86.14 13.64 L -86.29 12.42 L -86.43 11.2 L -86.55 9.96 L -86.65 8.73 L -86.75 7.48 L -86.82 6.23 L -86.89 4.98 L -86.94 3.72 L -86.97 2.45 L -86.99 1.18 L -87 -0.1 L -86.99 -1.38 L -86.97 -2.64 L -86.94 -3.91 L -86.89 -5.17 L -86.82 -6.42 L -86.75 -7.66 L -86.65 -8.91 L -86.55 -10.14 L -86.43 -11.37 L -86.29 -12.59 L -86.14 -13.81 L -85.98 -15.02 L -85.81 -16.23 L -85.61 -17.43 L -85.41 -18.62 L -85.19 -19.81 L -84.96 -20.99 L -84.71 -22.17 L -84.45 -23.34 L -84.17 -24.51 L -83.88 -25.66 L -83.58 -26.82 L -83.26 -27.97 L -82.93 -29.11 L -82.58 -30.24 L -82.22 -31.38 L -81.85 -32.5 L -81.46 -33.62 L -81.06 -34.73 L -80.64 -35.84 L -80.21 -36.94 L -79.76 -38.04 L -79.3 -39.13 L -78.83 -40.21 L -78.34 -41.29 L -77.84 -42.36 L -77.32 -43.43 L -76.79 -44.49 L -76.25 -45.55 L -75.69 -46.6 L -75.12 -47.64 L -74.53 -48.68 L -73.93 -49.71 L -73.32 -50.74 L -72.69 -51.76 L -72.04 -52.77 L -71.39 -53.78 L -70.72 -54.78 L -70.03 -55.78 L -69.33 -56.77 L -68.62 -57.76 L -67.89 -58.74 L -67.15 -59.71 L -66.39 -60.68 L -65.62 -61.65 L -64.84 -62.6 L -64.04 -63.55 L -63.22 -64.5 L -62.4 -65.44 L -61.56 -66.37 L -60.7 -67.3 L -59.83 -68.22 L -58.95 -69.14 L -58.05 -70.05 L -57.14 -70.95 L -56.22 -71.83 L -55.3 -72.7 L -54.37 -73.56 L -53.43 -74.4 L -52.49 -75.22 L -51.54 -76.04 L -50.59 -76.84 L -49.63 -77.62 L -48.67 -78.39 L -47.7 -79.15 L -46.72 -79.89 L -45.74 -80.62 L -44.75 -81.33 L -43.76 -82.03 L -42.76 -82.72 L -41.76 -83.39 L -40.75 -84.04 L -39.73 -84.69 L -38.71 -85.32 L -37.68 -85.93 L -36.65 -86.53 L -35.61 -87.12 L -34.56 -87.69 L -33.51 -88.25 L -32.46 -88.79 L -31.4 -89.32 L -30.33 -89.84 L -29.25 -90.34 L -28.17 -90.83 L -27.09 -91.3 L -26 -91.76 L -24.9 -92.21 L -23.8 -92.64 L -22.69 -93.06 L -21.58 -93.46 L -20.46 -93.85 L -19.33 -94.22 L -18.2 -94.58 L -17.06 -94.93 L -15.92 -95.26 L -14.77 -95.58 L -13.62 -95.88 L -12.46 -96.17 L -11.29 -96.45 L -10.12 -96.71 L -8.94 -96.96 L -7.76 -97.19 L -6.57 -97.41 L -5.37 -97.61 L -4.17 -97.81 L -2.97 -97.98 L -1.75 -98.14 L -0.54 -98.29 L 0.69 -98.43 L 1.92 -98.55 L 3.15 -98.65 L 4.39 -98.75 L 5.64 -98.82 L 6.89 -98.89 L 8.15 -98.94 L 9.41 -98.97 L 10.68 -98.99 L 11.96 -99 L 12.1 -99 L 12.24 -99 Z M 5.36 -109.65 L 3.97 -109.64 L 2.59 -109.62 L 1.21 -109.58 L -0.16 -109.53 L -1.53 -109.46 L -2.89 -109.38 L -4.25 -109.28 L -5.6 -109.16 L -6.94 -109.04 L -8.28 -108.89 L -9.61 -108.73 L -10.94 -108.56 L -12.26 -108.37 L -13.58 -108.16 L -14.89 -107.94 L -16.2 -107.71 L -17.5 -107.46 L -18.79 -107.19 L -20.08 -106.91 L -21.37 -106.62 L -22.65 -106.31 L -23.92 -105.98 L -25.19 -105.64 L -26.45 -105.28 L -27.71 -104.91 L -28.96 -104.53 L -30.2 -104.12 L -31.44 -103.71 L -32.68 -103.27 L -33.91 -102.83 L -35.13 -102.37 L -36.35 -101.89 L -37.56 -101.39 L -38.77 -100.89 L -39.97 -100.36 L -41.17 -99.83 L -42.36 -99.27 L -43.55 -98.7 L -44.73 -98.12 L -45.9 -97.52 L -47.07 -96.91 L -48.23 -96.28 L -49.39 -95.63 L -50.54 -94.97 L -51.69 -94.3 L -52.83 -93.61 L -53.97 -92.9 L -55.1 -92.18 L -56.23 -91.45 L -57.35 -90.7 L -58.46 -89.93 L -59.57 -89.15 L -60.67 -88.36 L -61.77 -87.55 L -62.86 -86.72 L -63.95 -85.88 L -65.03 -85.02 L -66.11 -84.15 L -67.18 -83.26 L -68.24 -82.36 L -69.3 -81.44 L -70.36 -80.51 L -71.41 -79.56 L -72.45 -78.6 L -73.48 -77.62 L -74.5 -76.64 L -75.5 -75.64 L -76.49 -74.64 L -77.46 -73.63 L -78.41 -72.62 L -79.34 -71.59 L -80.26 -70.56 L -81.17 -69.52 L -82.05 -68.48 L -82.92 -67.42 L -83.78 -66.36 L -84.62 -65.29 L -85.44 -64.22 L -86.24 -63.13 L -87.03 -62.04 L -87.8 -60.94 L -88.56 -59.84 L -89.3 -58.72 L -90.02 -57.6 L -90.73 -56.47 L -91.42 -55.34 L -92.09 -54.19 L -92.75 -53.04 L -93.39 -51.88 L -94.02 -50.72 L -94.63 -49.54 L -95.22 -48.36 L -95.8 -47.17 L -96.35 -45.98 L -96.9 -44.77 L -97.43 -43.56 L -97.94 -42.34 L -98.43 -41.12 L -98.91 -39.88 L -99.37 -38.64 L -99.81 -37.39 L -100.24 -36.14 L -100.66 -34.87 L -101.05 -33.6 L -101.43 -32.33 L -101.79 -31.04 L -102.14 -29.75 L -102.47 -28.44 L -102.79 -27.14 L -103.08 -25.82 L -103.37 -24.5 L -103.63 -23.17 L -103.88 -21.83 L -104.11 -20.48 L -104.33 -19.13 L -104.53 -17.77 L -104.71 -16.4 L -104.88 -15.02 L -105.03 -13.64 L -105.16 -12.25 L -105.28 -10.85 L -105.38 -9.44 L -105.47 -8.03 L -105.54 -6.61 L -105.59 -5.18 L -105.63 -3.74 L -105.65 -2.3 L -105.65 -0.85 L -105.65 -0.8 L -105.64 0.65 L -105.61 2.1 L -105.56 3.54 L -105.5 4.97 L -105.42 6.39 L -105.33 7.8 L -105.22 9.2 L -105.1 10.6 L -104.95 11.99 L -104.8 13.37 L -104.62 14.74 L -104.43 16.1 L -104.23 17.46 L -104 18.81 L -103.76 20.15 L -103.51 21.48 L -103.24 22.8 L -102.95 24.12 L -102.65 25.42 L -102.33 26.72 L -101.99 28.01 L -101.64 29.29 L -101.27 30.57 L -100.89 31.83 L -100.49 33.09 L -100.07 34.34 L -99.64 35.58 L -99.19 36.81 L -98.73 38.04 L -98.25 39.25 L -97.75 40.46 L -97.24 41.66 L -96.71 42.85 L -96.16 44.04 L -95.6 45.21 L -95.02 46.38 L -94.43 47.54 L -93.82 48.69 L -93.19 49.83 L -92.55 50.97 L -91.89 52.1 L -91.22 53.21 L -90.53 54.32 L -89.82 55.43 L -89.1 56.52 L -88.36 57.61 L -87.61 58.68 L -86.83 59.75 L -86.05 60.81 L -85.24 61.87 L -84.42 62.91 L -83.59 63.95 L -82.74 64.98 L -81.87 66 L -80.98 67.01 L -80.08 68.01 L -79.17 69.01 L -78.23 70 L -77.29 70.98 L -76.32 71.95 L -75.34 72.91 L -74.34 73.86 L -73.33 74.81 L -72.3 75.75 L -71.26 76.67 L -70.22 77.58 L -69.17 78.47 L -68.12 79.35 L -67.06 80.21 L -66 81.06 L -64.93 81.89 L -63.85 82.71 L -62.77 83.52 L -61.68 84.31 L -60.59 85.08 L -59.49 85.84 L -58.39 86.59 L -57.28 87.32 L -56.17 88.04 L -55.05 88.74 L -53.92 89.43 L -52.79 90.11 L -51.66 90.77 L -50.51 91.41 L -49.37 92.04 L -48.21 92.66 L -47.05 93.26 L -45.89 93.85 L -44.72 94.42 L -43.55 94.98 L -42.37 95.52 L -41.18 96.05 L -39.99 96.57 L -38.79 97.07 L -37.59 97.55 L -36.38 98.03 L -35.17 98.48 L -33.95 98.92 L -32.72 99.35 L -31.49 99.77 L -30.26 100.16 L -29.01 100.55 L -27.77 100.92 L -26.52 101.27 L -25.26 101.61 L -23.99 101.94 L -22.72 102.25 L -21.45 102.55 L -20.17 102.83 L -18.88 103.1 L -17.59 103.35 L -16.3 103.59 L -14.99 103.82 L -13.69 104.03 L -12.37 104.22 L -11.05 104.41 L -9.73 104.57 L -8.4 104.73 L -7.07 104.86 L -5.72 104.99 L -4.38 105.1 L -3.03 105.19 L -1.67 105.27 L -0.31 105.33 L 1.06 105.39 L 2.44 105.42 L 3.82 105.44 L 5.2 105.45 L 5.5 105.45 L 5.78 105.45 L 7.17 105.44 L 8.55 105.42 L 9.92 105.38 L 11.28 105.33 L 12.64 105.26 L 14 105.17 L 15.34 105.07 L 16.68 104.96 L 18.02 104.83 L 19.35 104.68 L 20.67 104.52 L 21.98 104.35 L 23.29 104.15 L 24.59 103.95 L 25.89 103.73 L 27.18 103.49 L 28.46 103.23 L 29.74 102.97 L 31.01 102.68 L 32.28 102.38 L 33.54 102.07 L 34.79 101.74 L 36.03 101.39 L 37.27 101.03 L 38.5 100.66 L 39.73 100.27 L 40.95 99.86 L 42.17 99.44 L 43.37 99 L 44.57 98.55 L 45.77 98.08 L 46.96 97.6 L 48.14 97.1 L 49.32 96.59 L 50.49 96.06 L 51.65 95.52 L 52.81 94.96 L 53.96 94.38 L 55.1 93.79 L 56.24 93.18 L 57.37 92.56 L 58.5 91.93 L 59.61 91.28 L 60.73 90.61 L 61.83 89.93 L 62.93 89.23 L 64.03 88.52 L 65.11 87.79 L 66.2 87.04 L 67.27 86.29 L 68.34 85.51 L 69.4 84.72 L 70.46 83.92 L 71.51 83.1 L 72.55 82.26 L 73.58 81.41 L 74.62 80.54 L 75.64 79.66 L 76.66 78.76 L 77.67 77.85 L 78.67 76.92 L 79.67 75.98 L 80.66 75.02 L 81.65 74.05 L 82.63 73.06 L 83.59 72.06 L 84.54 71.06 L 85.47 70.05 L 86.39 69.03 L 87.29 68.01 L 88.17 66.98 L 89.04 65.95 L 89.9 64.91 L 90.74 63.86 L 91.56 62.8 L 92.37 61.74 L 93.16 60.68 L 93.94 59.6 L 94.7 58.52 L 95.45 57.44 L 96.18 56.35 L 96.9 55.25 L 97.6 54.14 L 98.28 53.03 L 98.95 51.91 L 99.61 50.79 L 100.25 49.66 L 100.87 48.52 L 101.48 47.38 L 102.07 46.23 L 102.65 45.07 L 103.21 43.91 L 103.75 42.74 L 104.28 41.57 L 104.8 40.39 L 105.3 39.2 L 105.78 38.01 L 106.25 36.81 L 106.71 35.6 L 107.15 34.39 L 107.57 33.17 L 107.98 31.94 L 108.37 30.71 L 108.74 29.47 L 109.1 28.23 L 109.45 26.98 L 109.78 25.72 L 110.1 24.46 L 110.39 23.19 L 110.68 21.91 L 110.95 20.63 L 111.2 19.34 L 111.44 18.04 L 111.66 16.74 L 111.87 15.43 L 112.06 14.12 L 112.23 12.8 L 112.39 11.47 L 112.54 10.14 L 112.67 8.8 L 112.78 7.45 L 112.88 6.1 L 112.96 4.74 L 113.03 3.37 L 113.09 2 L 113.12 0.62 L 113.14 -0.76 L 113.15 -2.15 L 113.14 -3.54 L 113.12 -4.92 L 113.09 -6.29 L 113.03 -7.66 L 112.96 -9.02 L 112.88 -10.38 L 112.78 -11.73 L 112.67 -13.07 L 112.54 -14.41 L 112.39 -15.74 L 112.23 -17.07 L 112.06 -18.38 L 111.87 -19.7 L 111.66 -21 L 111.44 -22.3 L 111.2 -23.59 L 110.95 -24.88 L 110.68 -26.16 L 110.39 -27.43 L 110.1 -28.7 L 109.78 -29.96 L 109.45 -31.22 L 109.1 -32.47 L 108.74 -33.71 L 108.37 -34.95 L 107.98 -36.18 L 107.57 -37.4 L 107.15 -38.62 L 106.71 -39.83 L 106.25 -41.03 L 105.78 -42.23 L 105.3 -43.42 L 104.8 -44.61 L 104.28 -45.79 L 103.75 -46.96 L 103.21 -48.13 L 102.65 -49.29 L 102.07 -50.45 L 101.48 -51.59 L 100.87 -52.74 L 100.25 -53.87 L 99.61 -55 L 98.95 -56.12 L 98.28 -57.24 L 97.6 -58.35 L 96.9 -59.45 L 96.18 -60.55 L 95.45 -61.64 L 94.7 -62.73 L 93.94 -63.81 L 93.16 -64.88 L 92.37 -65.95 L 91.56 -67.01 L 90.74 -68.06 L 89.9 -69.11 L 89.04 -70.15 L 88.17 -71.18 L 87.29 -72.21 L 86.39 -73.23 L 85.47 -74.25 L 84.54 -75.26 L 83.59 -76.26 L 82.63 -77.26 L 81.65 -78.25 L 80.66 -79.22 L 79.67 -80.18 L 78.67 -81.12 L 77.66 -82.05 L 76.65 -82.96 L 75.63 -83.86 L 74.6 -84.74 L 73.57 -85.61 L 72.53 -86.46 L 71.49 -87.3 L 70.44 -88.12 L 69.38 -88.92 L 68.32 -89.71 L 67.25 -90.48 L 66.17 -91.24 L 65.09 -91.99 L 64 -92.72 L 62.9 -93.43 L 61.8 -94.13 L 60.69 -94.81 L 59.58 -95.48 L 58.46 -96.13 L 57.33 -96.76 L 56.2 -97.38 L 55.06 -97.99 L 53.91 -98.58 L 52.76 -99.16 L 51.6 -99.71 L 50.43 -100.26 L 49.26 -100.79 L 48.08 -101.3 L 46.9 -101.8 L 45.71 -102.28 L 44.51 -102.75 L 43.31 -103.2 L 42.1 -103.64 L 40.88 -104.06 L 39.66 -104.47 L 38.43 -104.86 L 37.19 -105.23 L 35.95 -105.59 L 34.7 -105.94 L 33.45 -106.27 L 32.19 -106.58 L 30.92 -106.88 L 29.65 -107.17 L 28.37 -107.43 L 27.08 -107.69 L 25.79 -107.93 L 24.49 -108.15 L 23.19 -108.35 L 21.87 -108.55 L 20.56 -108.72 L 19.23 -108.88 L 17.9 -109.03 L 16.57 -109.16 L 15.22 -109.27 L 13.87 -109.37 L 12.52 -109.46 L 11.15 -109.53 L 9.79 -109.58 L 8.41 -109.62 L 7.03 -109.64 L 5.64 -109.65 L 5.5 -109.65 L 5.36 -109.65 Z"/>
    </clipPath>
    <g clip-path="url(#clipPath0)">
      <use ffdec:characterId="550" height="181.1" transform="matrix(1.0, 0.0, 0.0, 1.0, -90.7, -90.55)" width="181.35" xlink:href="#morphshape1"/>
    </g>
  </g>
  <defs>
    <g id="morphshape0" transform="matrix(1.0, 0.0, 0.0, 1.0, 90.7, 90.55)">
      <path d="M-3.9 0.0 Q-3.75 1.6 -2.8 2.75 -1.6 3.75 -0.05 3.85 1.55 3.7 2.7 2.75 3.7 1.55 3.8 0.0 3.65 -1.6 2.7 -2.75 1.5 -3.75 -0.05 -3.85 -1.65 -3.7 -2.8 -2.75 -3.8 -1.55 -3.9 0.0" fill="#ffffff" fill-rule="evenodd" stroke="none"/>
      <path d="M-3.9 0.0 Q-3.8 -1.55 -2.8 -2.75 -1.65 -3.7 -0.05 -3.85 1.5 -3.75 2.7 -2.75 3.65 -1.6 3.8 0.0 3.7 1.55 2.7 2.75 1.55 3.7 -0.05 3.85 -1.6 3.75 -2.8 2.75 -3.75 1.6 -3.9 0.0 Z" ffdec:has-small-stroke="true" ffdec:original-stroke-width="0.0" fill="none" stroke="#000000" stroke-linecap="round" stroke-linejoin="round" stroke-opacity="0.0" stroke-width="1.0"/>
    </g>
    <g id="morphshape1" transform="matrix(1.0, 0.0, 0.0, 1.0, 90.7, 90.55)">
      <path d="M-90.7 -0.05 Q-90.7 37.55 -64.15 64.15 -37.55 90.65 0.05 90.55 37.6 90.65 64.15 64.15 90.7 37.55 90.65 -0.05 90.7 -37.55 64.15 -64.1 37.6 -90.6 0.05 -90.55 -37.55 -90.6 -64.15 -64.1 -90.7 -37.55 -90.7 -0.05" fill="url(#gradient0)" fill-rule="evenodd" stroke="none"/>
      <path d="M-90.7 -0.05 Q-90.7 -37.55 -64.15 -64.1 -37.55 -90.6 0.05 -90.55 37.6 -90.6 64.15 -64.1 90.7 -37.55 90.65 -0.05 90.7 37.55 64.15 64.15 37.6 90.65 0.05 90.55 -37.55 90.65 -64.15 64.15 -90.7 37.55 -90.7 -0.05 Z" ffdec:has-small-stroke="true" ffdec:original-stroke-width="0.0" fill="none" stroke="#000000" stroke-linecap="round" stroke-linejoin="round" stroke-opacity="0.0" stroke-width="1.0"/>
    </g>
    <radialGradient cx="0" cy="0" gradientTransform="matrix(0.1167, 0.0, 0.0, 0.1166, -0.1, -1.2)" gradientUnits="userSpaceOnUse" id="gradient0" r="819.2" spreadMethod="pad">
      <stop offset="0.0" stop-color="#ffffff"/>
      <stop offset="0.23921568627450981" stop-color="#ffffff"/>
      <stop offset="0.6470588235294118" stop-color="#ffff00"/>
      <stop offset="1.0" stop-color="#ff0000"/>
    </radialGradient>
  </defs>
</svg>
