<?xml version="1.0" encoding="UTF-8" standalone="no"?>
<svg xmlns:ffdec="https://www.free-decompiler.com/flash" xmlns:xlink="http://www.w3.org/1999/xlink" ffdec:objectType="frame" height="220.3px" width="226.55px" xmlns="http://www.w3.org/2000/svg">
  <g transform="matrix(1.0, 0.0, 0.0, 1.0, 108.95, 112.25)">
    <use ffdec:characterId="551" height="181.1" transform="matrix(1.0, 0.0, 0.0, 1.0, -90.7, -90.55)" width="181.35" xlink:href="#morphshape0"/>
    <clipPath id="clipPath0">
      <path d="M 9.24 -100.7 L 10.54 -100.69 L 11.84 -100.67 L 13.12 -100.64 L 14.41 -100.59 L 15.68 -100.52 L 16.95 -100.44 L 18.22 -100.35 L 19.48 -100.24 L 20.73 -100.12 L 21.98 -99.98 L 23.22 -99.83 L 24.45 -99.66 L 25.68 -99.48 L 26.9 -99.29 L 28.12 -99.08 L 29.33 -98.86 L 30.54 -98.62 L 31.74 -98.37 L 32.93 -98.1 L 34.12 -97.82 L 35.3 -97.53 L 36.47 -97.22 L 37.64 -96.9 L 38.81 -96.56 L 39.96 -96.21 L 41.11 -95.84 L 42.26 -95.46 L 43.4 -95.06 L 44.53 -94.65 L 45.66 -94.23 L 46.78 -93.79 L 47.9 -93.34 L 49.01 -92.87 L 50.11 -92.39 L 51.21 -91.89 L 52.3 -91.38 L 53.39 -90.86 L 54.47 -90.32 L 55.54 -89.76 L 56.61 -89.2 L 57.67 -88.61 L 58.73 -88.02 L 59.78 -87.41 L 60.82 -86.78 L 61.86 -86.14 L 62.89 -85.49 L 63.92 -84.82 L 64.94 -84.13 L 65.95 -83.44 L 66.96 -82.73 L 67.96 -82 L 68.96 -81.26 L 69.95 -80.5 L 70.93 -79.73 L 71.91 -78.95 L 72.88 -78.15 L 73.85 -77.34 L 74.81 -76.51 L 75.77 -75.67 L 76.71 -74.82 L 77.66 -73.95 L 78.59 -73.06 L 79.53 -72.16 L 80.45 -71.25 L 81.36 -70.32 L 82.26 -69.39 L 83.15 -68.45 L 84.02 -67.51 L 84.88 -66.56 L 85.72 -65.6 L 86.55 -64.64 L 87.36 -63.67 L 88.16 -62.7 L 88.95 -61.72 L 89.72 -60.73 L 90.47 -59.74 L 91.22 -58.75 L 91.94 -57.74 L 92.65 -56.73 L 93.35 -55.72 L 94.04 -54.7 L 94.71 -53.67 L 95.36 -52.64 L 96 -51.6 L 96.63 -50.56 L 97.24 -49.5 L 97.84 -48.45 L 98.42 -47.39 L 98.99 -46.32 L 99.54 -45.24 L 100.08 -44.16 L 100.61 -43.08 L 101.12 -41.99 L 101.61 -40.89 L 102.1 -39.78 L 102.56 -38.67 L 103.02 -37.56 L 103.45 -36.44 L 103.88 -35.31 L 104.29 -34.18 L 104.68 -33.04 L 105.06 -31.89 L 105.43 -30.74 L 105.78 -29.59 L 106.12 -28.42 L 106.44 -27.25 L 106.75 -26.08 L 107.05 -24.9 L 107.33 -23.71 L 107.59 -22.52 L 107.84 -21.32 L 108.08 -20.12 L 108.3 -18.91 L 108.51 -17.69 L 108.7 -16.47 L 108.88 -15.24 L 109.04 -14.01 L 109.19 -12.77 L 109.33 -11.52 L 109.45 -10.27 L 109.56 -9.02 L 109.65 -7.75 L 109.73 -6.48 L 109.79 -5.21 L 109.84 -3.93 L 109.87 -2.64 L 109.89 -1.35 L 109.9 -0.05 L 109.89 1.25 L 109.87 2.55 L 109.84 3.84 L 109.79 5.12 L 109.73 6.4 L 109.65 7.67 L 109.56 8.94 L 109.45 10.2 L 109.33 11.45 L 109.19 12.7 L 109.04 13.94 L 108.88 15.18 L 108.7 16.41 L 108.51 17.64 L 108.3 18.86 L 108.08 20.07 L 107.84 21.28 L 107.59 22.48 L 107.33 23.67 L 107.05 24.86 L 106.75 26.05 L 106.44 27.22 L 106.12 28.4 L 105.78 29.56 L 105.43 30.72 L 105.06 31.87 L 104.68 33.02 L 104.29 34.17 L 103.88 35.3 L 103.45 36.43 L 103.02 37.56 L 102.56 38.67 L 102.1 39.79 L 101.61 40.89 L 101.12 42 L 100.61 43.09 L 100.08 44.18 L 99.54 45.26 L 98.99 46.34 L 98.42 47.41 L 97.84 48.48 L 97.24 49.54 L 96.63 50.59 L 96 51.64 L 95.36 52.68 L 94.71 53.71 L 94.04 54.74 L 93.35 55.77 L 92.65 56.79 L 91.94 57.8 L 91.22 58.81 L 90.47 59.81 L 89.72 60.8 L 88.95 61.79 L 88.16 62.77 L 87.36 63.75 L 86.55 64.72 L 85.72 65.68 L 84.88 66.64 L 84.02 67.6 L 83.15 68.54 L 82.26 69.49 L 81.36 70.42 L 80.45 71.35 L 79.53 72.26 L 78.59 73.16 L 77.66 74.04 L 76.71 74.91 L 75.77 75.76 L 74.81 76.6 L 73.85 77.43 L 72.88 78.24 L 71.91 79.04 L 70.93 79.82 L 69.95 80.59 L 68.96 81.34 L 67.96 82.08 L 66.96 82.81 L 65.95 83.52 L 64.94 84.21 L 63.92 84.89 L 62.89 85.56 L 61.86 86.22 L 60.82 86.85 L 59.78 87.48 L 58.73 88.09 L 57.67 88.68 L 56.61 89.27 L 55.54 89.83 L 54.47 90.39 L 53.39 90.92 L 52.3 91.45 L 51.21 91.96 L 50.11 92.45 L 49.01 92.93 L 47.9 93.4 L 46.78 93.85 L 45.66 94.29 L 44.53 94.71 L 43.4 95.12 L 42.26 95.52 L 41.11 95.9 L 39.96 96.26 L 38.81 96.62 L 37.64 96.95 L 36.47 97.28 L 35.3 97.58 L 34.12 97.88 L 32.93 98.16 L 31.74 98.42 L 30.54 98.68 L 29.33 98.91 L 28.12 99.14 L 26.9 99.34 L 25.68 99.54 L 24.45 99.72 L 23.22 99.88 L 21.98 100.03 L 20.73 100.17 L 19.48 100.29 L 18.22 100.4 L 16.95 100.49 L 15.68 100.57 L 14.41 100.64 L 13.12 100.69 L 11.84 100.72 L 10.54 100.74 L 9.24 100.75 L 9.1 100.75 L 8.96 100.75 L 7.66 100.74 L 6.37 100.72 L 5.08 100.69 L 3.8 100.64 L 2.52 100.57 L 1.25 100.49 L -0.01 100.4 L -1.27 100.29 L -2.52 100.17 L -3.77 100.03 L -5.01 99.88 L -6.24 99.72 L -7.47 99.54 L -8.69 99.34 L -9.91 99.14 L -11.12 98.91 L -12.32 98.68 L -13.52 98.42 L -14.71 98.16 L -15.9 97.88 L -17.08 97.58 L -18.26 97.28 L -19.43 96.95 L -20.59 96.62 L -21.75 96.26 L -22.9 95.9 L -24.04 95.52 L -25.18 95.12 L -26.32 94.71 L -27.45 94.29 L -28.57 93.85 L -29.69 93.4 L -30.8 92.93 L -31.9 92.45 L -33 91.96 L -34.09 91.45 L -35.18 90.92 L -36.26 90.39 L -37.34 89.83 L -38.4 89.27 L -39.47 88.68 L -40.53 88.09 L -41.58 87.48 L -42.62 86.85 L -43.66 86.22 L -44.7 85.56 L -45.72 84.89 L -46.75 84.21 L -47.76 83.52 L -48.77 82.81 L -49.78 82.08 L -50.78 81.34 L -51.77 80.59 L -52.76 79.82 L -53.74 79.04 L -54.71 78.24 L -55.68 77.43 L -56.64 76.6 L -57.6 75.76 L -58.55 74.91 L -59.5 74.04 L -60.44 73.16 L -61.37 72.26 L -62.3 71.35 L -63.21 70.42 L -64.11 69.49 L -65 68.54 L -65.87 67.6 L -66.73 66.64 L -67.57 65.68 L -68.4 64.72 L -69.21 63.75 L -70.01 62.77 L -70.8 61.79 L -71.57 60.8 L -72.33 59.81 L -73.07 58.81 L -73.79 57.8 L -74.51 56.79 L -75.21 55.77 L -75.89 54.74 L -76.56 53.71 L -77.22 52.68 L -77.86 51.64 L -78.48 50.59 L -79.1 49.54 L -79.69 48.48 L -80.28 47.41 L -80.85 46.34 L -81.4 45.26 L -81.94 44.18 L -82.47 43.09 L -82.98 42 L -83.47 40.89 L -83.96 39.79 L -84.43 38.67 L -84.88 37.56 L -85.32 36.43 L -85.74 35.3 L -86.15 34.17 L -86.55 33.02 L -86.93 31.87 L -87.3 30.72 L -87.65 29.56 L -87.99 28.4 L -88.31 27.22 L -88.62 26.05 L -88.92 24.86 L -89.2 23.67 L -89.47 22.48 L -89.72 21.28 L -89.96 20.07 L -90.18 18.86 L -90.39 17.64 L -90.58 16.41 L -90.76 15.18 L -90.93 13.94 L -91.08 12.7 L -91.22 11.45 L -91.34 10.2 L -91.45 8.94 L -91.54 7.67 L -91.62 6.4 L -91.68 5.12 L -91.74 3.84 L -91.77 2.55 L -91.79 1.25 L -91.8 -0.05 L -91.79 -1.35 L -91.77 -2.64 L -91.74 -3.93 L -91.68 -5.21 L -91.62 -6.48 L -91.54 -7.75 L -91.45 -9.02 L -91.34 -10.27 L -91.22 -11.52 L -91.08 -12.77 L -90.93 -14.01 L -90.76 -15.24 L -90.58 -16.47 L -90.39 -17.69 L -90.18 -18.91 L -89.96 -20.12 L -89.72 -21.32 L -89.47 -22.52 L -89.2 -23.71 L -88.92 -24.9 L -88.62 -26.08 L -88.31 -27.25 L -87.99 -28.42 L -87.65 -29.59 L -87.3 -30.74 L -86.93 -31.89 L -86.55 -33.04 L -86.15 -34.18 L -85.74 -35.31 L -85.32 -36.44 L -84.88 -37.56 L -84.43 -38.67 L -83.96 -39.78 L -83.47 -40.89 L -82.98 -41.99 L -82.47 -43.08 L -81.94 -44.16 L -81.4 -45.24 L -80.85 -46.32 L -80.28 -47.39 L -79.69 -48.45 L -79.1 -49.5 L -78.48 -50.56 L -77.86 -51.6 L -77.22 -52.64 L -76.56 -53.67 L -75.89 -54.7 L -75.21 -55.72 L -74.51 -56.73 L -73.79 -57.74 L -73.07 -58.75 L -72.33 -59.74 L -71.57 -60.73 L -70.8 -61.72 L -70.01 -62.7 L -69.21 -63.67 L -68.4 -64.64 L -67.57 -65.6 L -66.73 -66.56 L -65.87 -67.51 L -65 -68.45 L -64.11 -69.39 L -63.21 -70.32 L -62.3 -71.25 L -61.37 -72.16 L -60.44 -73.06 L -59.5 -73.95 L -58.55 -74.82 L -57.6 -75.67 L -56.64 -76.51 L -55.68 -77.34 L -54.71 -78.15 L -53.74 -78.95 L -52.76 -79.73 L -51.77 -80.5 L -50.78 -81.26 L -49.78 -82 L -48.77 -82.73 L -47.76 -83.44 L -46.75 -84.13 L -45.72 -84.82 L -44.7 -85.49 L -43.66 -86.14 L -42.62 -86.78 L -41.58 -87.41 L -40.53 -88.02 L -39.47 -88.61 L -38.4 -89.2 L -37.34 -89.76 L -36.26 -90.32 L -35.18 -90.86 L -34.09 -91.38 L -33 -91.89 L -31.9 -92.39 L -30.8 -92.87 L -29.69 -93.34 L -28.57 -93.79 L -27.45 -94.23 L -26.32 -94.65 L -25.18 -95.06 L -24.04 -95.46 L -22.9 -95.84 L -21.75 -96.21 L -20.59 -96.56 L -19.43 -96.9 L -18.26 -97.22 L -17.08 -97.53 L -15.9 -97.82 L -14.71 -98.1 L -13.52 -98.37 L -12.32 -98.62 L -11.12 -98.86 L -9.91 -99.08 L -8.69 -99.29 L -7.47 -99.48 L -6.24 -99.66 L -5.01 -99.83 L -3.77 -99.98 L -2.52 -100.12 L -1.27 -100.24 L -0.01 -100.35 L 1.25 -100.44 L 2.52 -100.52 L 3.8 -100.59 L 5.08 -100.64 L 6.37 -100.67 L 7.66 -100.69 L 8.96 -100.7 L 9.1 -100.7 L 9.24 -100.7 Z M 2.31 -111.65 L 0.89 -111.64 L -0.51 -111.62 L -1.92 -111.58 L -3.31 -111.53 L -4.7 -111.46 L -6.08 -111.37 L -7.46 -111.27 L -8.83 -111.15 L -10.2 -111.02 L -11.55 -110.87 L -12.91 -110.71 L -14.25 -110.53 L -15.59 -110.33 L -16.92 -110.12 L -18.25 -109.9 L -19.57 -109.66 L -20.89 -109.4 L -22.19 -109.13 L -23.49 -108.84 L -24.79 -108.53 L -26.08 -108.22 L -27.36 -107.88 L -28.64 -107.53 L -29.91 -107.16 L -31.17 -106.78 L -32.43 -106.39 L -33.68 -105.97 L -34.93 -105.54 L -36.17 -105.1 L -37.4 -104.64 L -38.63 -104.17 L -39.85 -103.68 L -41.06 -103.17 L -42.27 -102.65 L -43.47 -102.11 L -44.67 -101.56 L -45.86 -100.99 L -47.04 -100.4 L -48.22 -99.8 L -49.39 -99.19 L -50.55 -98.56 L -51.71 -97.91 L -52.86 -97.25 L -54.01 -96.57 L -55.15 -95.88 L -56.28 -95.17 L -57.4 -94.45 L -58.52 -93.71 L -59.64 -92.95 L -60.75 -92.18 L -61.85 -91.39 L -62.94 -90.59 L -64.03 -89.77 L -65.12 -88.94 L -66.19 -88.09 L -67.26 -87.23 L -68.33 -86.35 L -69.38 -85.45 L -70.44 -84.54 L -71.48 -83.61 L -72.52 -82.67 L -73.55 -81.71 L -74.58 -80.74 L -75.6 -79.75 L -76.61 -78.75 L -77.6 -77.73 L -78.58 -76.71 L -79.54 -75.69 L -80.49 -74.66 L -81.42 -73.62 L -82.33 -72.57 L -83.23 -71.52 L -84.11 -70.46 L -84.98 -69.4 L -85.83 -68.33 L -86.66 -67.25 L -87.48 -66.16 L -88.28 -65.07 L -89.07 -63.97 L -89.84 -62.86 L -90.59 -61.75 L -91.33 -60.63 L -92.05 -59.5 L -92.76 -58.37 L -93.45 -57.23 L -94.13 -56.08 L -94.79 -54.93 L -95.43 -53.77 L -96.06 -52.61 L -96.67 -51.43 L -97.26 -50.25 L -97.84 -49.06 L -98.4 -47.87 L -98.95 -46.67 L -99.48 -45.46 L -100 -44.25 L -100.5 -43.03 L -100.98 -41.8 L -101.45 -40.57 L -101.9 -39.33 L -102.34 -38.08 L -102.76 -36.83 L -103.16 -35.56 L -103.55 -34.3 L -103.93 -33.02 L -104.28 -31.74 L -104.62 -30.45 L -104.95 -29.16 L -105.26 -27.86 L -105.55 -26.55 L -105.83 -25.23 L -106.09 -23.91 L -106.33 -22.58 L -106.56 -21.25 L -106.78 -19.91 L -106.97 -18.56 L -107.15 -17.2 L -107.32 -15.84 L -107.47 -14.47 L -107.6 -13.1 L -107.72 -11.71 L -107.82 -10.33 L -107.91 -8.93 L -107.98 -7.53 L -108.03 -6.12 L -108.07 -4.7 L -108.09 -3.28 L -108.1 -1.85 L -108.1 -1.9 L -108.09 -0.47 L -108.07 0.96 L -108.02 2.38 L -107.97 3.79 L -107.89 5.19 L -107.81 6.59 L -107.7 7.98 L -107.58 9.37 L -107.44 10.74 L -107.29 12.11 L -107.12 13.48 L -106.94 14.83 L -106.74 16.18 L -106.53 17.52 L -106.29 18.86 L -106.05 20.19 L -105.78 21.51 L -105.51 22.82 L -105.21 24.13 L -104.9 25.43 L -104.57 26.73 L -104.23 28.01 L -103.87 29.29 L -103.5 30.57 L -103.11 31.83 L -102.7 33.09 L -102.28 34.34 L -101.85 35.59 L -101.39 36.83 L -100.92 38.06 L -100.44 39.28 L -99.94 40.5 L -99.42 41.71 L -98.89 42.91 L -98.34 44.11 L -97.78 45.3 L -97.2 46.48 L -96.6 47.66 L -95.99 48.83 L -95.36 49.99 L -94.72 51.15 L -94.06 52.29 L -93.38 53.44 L -92.69 54.57 L -91.99 55.7 L -91.26 56.82 L -90.53 57.93 L -89.77 59.04 L -89 60.14 L -88.22 61.23 L -87.41 62.32 L -86.6 63.39 L -85.76 64.47 L -84.91 65.53 L -84.05 66.59 L -83.17 67.64 L -82.27 68.68 L -81.36 69.72 L -80.43 70.75 L -79.49 71.78 L -78.53 72.79 L -77.55 73.8 L -76.56 74.8 L -75.55 75.8 L -74.53 76.78 L -73.51 77.74 L -72.48 78.69 L -71.44 79.62 L -70.4 80.54 L -69.35 81.44 L -68.3 82.32 L -67.24 83.19 L -66.17 84.05 L -65.1 84.89 L -64.02 85.71 L -62.93 86.52 L -61.84 87.32 L -60.74 88.09 L -59.64 88.86 L -58.53 89.6 L -57.41 90.34 L -56.28 91.05 L -55.15 91.75 L -54.02 92.44 L -52.88 93.11 L -51.73 93.76 L -50.57 94.4 L -49.41 95.03 L -48.24 95.63 L -47.07 96.23 L -45.89 96.81 L -44.7 97.37 L -43.51 97.91 L -42.31 98.45 L -41.11 98.96 L -39.9 99.46 L -38.68 99.95 L -37.46 100.42 L -36.23 100.87 L -34.99 101.31 L -33.75 101.74 L -32.5 102.14 L -31.24 102.54 L -29.98 102.91 L -28.72 103.28 L -27.44 103.62 L -26.16 103.95 L -24.88 104.27 L -23.58 104.57 L -22.28 104.85 L -20.98 105.12 L -19.67 105.38 L -18.35 105.62 L -17.03 105.84 L -15.7 106.05 L -14.36 106.24 L -13.02 106.42 L -11.67 106.58 L -10.31 106.73 L -8.95 106.86 L -7.58 106.97 L -6.21 107.07 L -4.83 107.16 L -3.44 107.23 L -2.05 107.28 L -0.65 107.32 L 0.75 107.34 L 2.16 107.35 L 2.45 107.35 L 2.73 107.35 L 4.14 107.34 L 5.55 107.32 L 6.95 107.28 L 8.34 107.23 L 9.72 107.16 L 11.1 107.07 L 12.48 106.97 L 13.84 106.85 L 15.2 106.72 L 16.55 106.57 L 17.9 106.41 L 19.24 106.23 L 20.58 106.03 L 21.9 105.82 L 23.22 105.6 L 24.54 105.35 L 25.84 105.1 L 27.15 104.82 L 28.44 104.53 L 29.73 104.23 L 31.01 103.91 L 32.29 103.57 L 33.55 103.22 L 34.82 102.86 L 36.07 102.48 L 37.32 102.08 L 38.57 101.66 L 39.8 101.23 L 41.03 100.79 L 42.26 100.33 L 43.47 99.85 L 44.68 99.36 L 45.89 98.86 L 47.08 98.33 L 48.28 97.79 L 49.46 97.24 L 50.64 96.67 L 51.81 96.09 L 52.98 95.49 L 54.13 94.87 L 55.29 94.24 L 56.43 93.59 L 57.57 92.93 L 58.7 92.25 L 59.83 91.55 L 60.95 90.84 L 62.06 90.12 L 63.17 89.38 L 64.27 88.62 L 65.37 87.85 L 66.45 87.06 L 67.53 86.26 L 68.61 85.44 L 69.68 84.6 L 70.74 83.75 L 71.79 82.89 L 72.84 82.01 L 73.88 81.11 L 74.92 80.2 L 75.95 79.27 L 76.97 78.33 L 77.99 77.37 L 79 76.39 L 80 75.4 L 81 74.39 L 81.97 73.38 L 82.94 72.36 L 83.89 71.33 L 84.82 70.3 L 85.74 69.25 L 86.64 68.21 L 87.52 67.15 L 88.39 66.09 L 89.25 65.03 L 90.08 63.96 L 90.91 62.88 L 91.71 61.79 L 92.51 60.7 L 93.28 59.6 L 94.04 58.49 L 94.78 57.38 L 95.51 56.26 L 96.23 55.14 L 96.92 54.01 L 97.6 52.87 L 98.27 51.73 L 98.92 50.57 L 99.55 49.42 L 100.17 48.25 L 100.78 47.08 L 101.36 45.91 L 101.93 44.72 L 102.49 43.53 L 103.03 42.34 L 103.55 41.13 L 104.06 39.92 L 104.56 38.71 L 105.03 37.49 L 105.49 36.26 L 105.94 35.02 L 106.37 33.78 L 106.78 32.53 L 107.18 31.28 L 107.57 30.02 L 107.93 28.75 L 108.29 27.48 L 108.62 26.19 L 108.94 24.91 L 109.25 23.61 L 109.54 22.31 L 109.81 21.01 L 110.07 19.69 L 110.31 18.37 L 110.53 17.05 L 110.74 15.72 L 110.94 14.38 L 111.12 13.03 L 111.28 11.68 L 111.43 10.32 L 111.56 8.95 L 111.68 7.58 L 111.78 6.2 L 111.86 4.82 L 111.93 3.43 L 111.98 2.03 L 112.02 0.63 L 112.04 -0.78 L 112.05 -2.2 L 112.04 -3.61 L 112.02 -5.02 L 111.98 -6.42 L 111.93 -7.82 L 111.86 -9.21 L 111.78 -10.59 L 111.68 -11.96 L 111.56 -13.33 L 111.43 -14.69 L 111.28 -16.05 L 111.12 -17.4 L 110.94 -18.74 L 110.74 -20.08 L 110.53 -21.41 L 110.31 -22.73 L 110.07 -24.05 L 109.81 -25.36 L 109.54 -26.67 L 109.25 -27.96 L 108.94 -29.25 L 108.62 -30.54 L 108.29 -31.82 L 107.93 -33.09 L 107.57 -34.36 L 107.18 -35.62 L 106.78 -36.87 L 106.37 -38.11 L 105.94 -39.35 L 105.49 -40.59 L 105.03 -41.82 L 104.56 -43.04 L 104.06 -44.25 L 103.55 -45.46 L 103.03 -46.66 L 102.49 -47.85 L 101.93 -49.04 L 101.36 -50.22 L 100.78 -51.4 L 100.17 -52.57 L 99.55 -53.73 L 98.92 -54.89 L 98.27 -56.04 L 97.6 -57.18 L 96.92 -58.32 L 96.23 -59.45 L 95.51 -60.57 L 94.78 -61.69 L 94.04 -62.8 L 93.28 -63.9 L 92.51 -65 L 91.71 -66.09 L 90.91 -67.18 L 90.08 -68.26 L 89.25 -69.33 L 88.39 -70.4 L 87.52 -71.46 L 86.64 -72.51 L 85.74 -73.56 L 84.82 -74.6 L 83.89 -75.63 L 82.94 -76.66 L 81.97 -77.68 L 81 -78.69 L 80 -79.7 L 79 -80.69 L 77.98 -81.67 L 76.97 -82.63 L 75.94 -83.57 L 74.91 -84.5 L 73.87 -85.41 L 72.83 -86.31 L 71.78 -87.19 L 70.72 -88.05 L 69.66 -88.9 L 68.59 -89.74 L 67.51 -90.56 L 66.43 -91.36 L 65.34 -92.15 L 64.25 -92.92 L 63.14 -93.68 L 62.03 -94.42 L 60.92 -95.14 L 59.8 -95.85 L 58.67 -96.55 L 57.53 -97.23 L 56.39 -97.89 L 55.25 -98.54 L 54.09 -99.17 L 52.93 -99.79 L 51.76 -100.39 L 50.59 -100.97 L 49.41 -101.54 L 48.22 -102.09 L 47.03 -102.63 L 45.83 -103.16 L 44.62 -103.66 L 43.41 -104.15 L 42.19 -104.63 L 40.97 -105.09 L 39.73 -105.53 L 38.49 -105.96 L 37.25 -106.38 L 36 -106.77 L 34.74 -107.16 L 33.47 -107.52 L 32.2 -107.87 L 30.93 -108.21 L 29.64 -108.53 L 28.35 -108.83 L 27.05 -109.12 L 25.75 -109.4 L 24.44 -109.65 L 23.12 -109.9 L 21.8 -110.12 L 20.47 -110.33 L 19.13 -110.53 L 17.79 -110.71 L 16.44 -110.87 L 15.09 -111.02 L 13.72 -111.15 L 12.35 -111.27 L 10.98 -111.37 L 9.6 -111.46 L 8.21 -111.53 L 6.81 -111.58 L 5.41 -111.62 L 4.01 -111.64 L 2.59 -111.65 L 2.45 -111.65 L 2.31 -111.65 Z"/>
    </clipPath>
    <g clip-path="url(#clipPath0)">
      <use ffdec:characterId="550" height="181.1" transform="matrix(1.0, 0.0, 0.0, 1.0, -90.7, -90.55)" width="181.35" xlink:href="#morphshape1"/>
    </g>
  </g>
  <defs>
    <g id="morphshape0" transform="matrix(1.0, 0.0, 0.0, 1.0, 90.7, 90.55)">
      <path d="M-1.7 0.0 Q-1.55 0.65 -1.25 1.15 -0.7 1.5 -0.1 1.6 0.55 1.45 1.05 1.15 1.4 0.6 1.5 0.0 1.35 -0.65 1.05 -1.15 0.5 -1.5 -0.1 -1.6 -0.75 -1.45 -1.25 -1.15 -1.6 -0.6 -1.7 0.0" fill="#ffffff" fill-rule="evenodd" stroke="none"/>
      <path d="M-1.7 0.0 Q-1.6 -0.6 -1.25 -1.15 -0.75 -1.45 -0.1 -1.6 0.5 -1.5 1.05 -1.15 1.35 -0.65 1.5 0.0 1.4 0.6 1.05 1.15 0.55 1.45 -0.1 1.6 -0.7 1.5 -1.25 1.15 -1.55 0.65 -1.7 0.0 Z" ffdec:has-small-stroke="true" ffdec:original-stroke-width="0.0" fill="none" stroke="#000000" stroke-linecap="round" stroke-linejoin="round" stroke-opacity="0.0" stroke-width="1.0"/>
    </g>
    <g id="morphshape1" transform="matrix(1.0, 0.0, 0.0, 1.0, 90.7, 90.55)">
      <path d="M-90.7 -0.05 Q-90.7 37.55 -64.15 64.15 -37.55 90.65 0.05 90.55 37.6 90.65 64.15 64.15 90.7 37.55 90.65 -0.05 90.7 -37.55 64.15 -64.1 37.6 -90.6 0.05 -90.55 -37.55 -90.6 -64.15 -64.1 -90.7 -37.55 -90.7 -0.05" fill="url(#gradient0)" fill-rule="evenodd" stroke="none"/>
      <path d="M-90.7 -0.05 Q-90.7 -37.55 -64.15 -64.1 -37.55 -90.6 0.05 -90.55 37.6 -90.6 64.15 -64.1 90.7 -37.55 90.65 -0.05 90.7 37.55 64.15 64.15 37.6 90.65 0.05 90.55 -37.55 90.65 -64.15 64.15 -90.7 37.55 -90.7 -0.05 Z" ffdec:has-small-stroke="true" ffdec:original-stroke-width="0.0" fill="none" stroke="#000000" stroke-linecap="round" stroke-linejoin="round" stroke-opacity="0.0" stroke-width="1.0"/>
    </g>
    <radialGradient cx="0" cy="0" gradientTransform="matrix(0.1155, 0.0, 0.0, 0.1154, -0.2, -1.35)" gradientUnits="userSpaceOnUse" id="gradient0" r="819.2" spreadMethod="pad">
      <stop offset="0.0" stop-color="#ffffff"/>
      <stop offset="0.17647058823529413" stop-color="#ffffff"/>
      <stop offset="0.615686274509804" stop-color="#ffff00"/>
      <stop offset="1.0" stop-color="#ff0000"/>
    </radialGradient>
  </defs>
</svg>
