<?xml version="1.0" encoding="UTF-8" standalone="no"?>
<svg xmlns:ffdec="https://www.free-decompiler.com/flash" xmlns:xlink="http://www.w3.org/1999/xlink" ffdec:objectType="frame" height="220.3px" width="226.55px" xmlns="http://www.w3.org/2000/svg">
  <g transform="matrix(1.0, 0.0, 0.0, 1.0, 108.95, 112.25)">
    <use ffdec:characterId="293" height="1.8" transform="matrix(1.0, 0.0, 0.0, 1.0, -0.95, -0.9)" width="1.8" xlink:href="#shape0"/>
    <clipPath id="clipPath0">
      <path d="M 8.24 -101.3 L 9.55 -101.29 L 10.85 -101.27 L 12.15 -101.23 L 13.44 -101.18 L 14.72 -101.12 L 16 -101.04 L 17.27 -100.95 L 18.54 -100.84 L 19.8 -100.71 L 21.05 -100.58 L 22.3 -100.42 L 23.54 -100.26 L 24.78 -100.08 L 26.01 -99.88 L 27.24 -99.67 L 28.45 -99.45 L 29.67 -99.21 L 30.87 -98.95 L 32.07 -98.69 L 33.27 -98.4 L 34.46 -98.11 L 35.64 -97.8 L 36.82 -97.47 L 37.99 -97.13 L 39.15 -96.78 L 40.31 -96.41 L 41.46 -96.02 L 42.61 -95.62 L 43.75 -95.21 L 44.88 -94.79 L 46.01 -94.34 L 47.14 -93.89 L 48.25 -93.42 L 49.36 -92.93 L 50.47 -92.43 L 51.57 -91.92 L 52.66 -91.39 L 53.75 -90.85 L 54.83 -90.29 L 55.9 -89.72 L 56.97 -89.13 L 58.03 -88.53 L 59.09 -87.92 L 60.14 -87.29 L 61.19 -86.64 L 62.22 -85.98 L 63.26 -85.31 L 64.28 -84.62 L 65.3 -83.92 L 66.32 -83.2 L 67.33 -82.47 L 68.33 -81.73 L 69.33 -80.97 L 70.32 -80.19 L 71.3 -79.4 L 72.28 -78.6 L 73.26 -77.78 L 74.22 -76.95 L 75.18 -76.1 L 76.14 -75.24 L 77.09 -74.36 L 78.03 -73.47 L 78.97 -72.57 L 79.9 -71.65 L 80.82 -70.72 L 81.73 -69.78 L 82.62 -68.83 L 83.5 -67.88 L 84.36 -66.93 L 85.21 -65.97 L 86.04 -65 L 86.86 -64.02 L 87.66 -63.04 L 88.45 -62.06 L 89.23 -61.06 L 89.99 -60.07 L 90.74 -59.06 L 91.47 -58.05 L 92.19 -57.04 L 92.89 -56.02 L 93.58 -54.99 L 94.25 -53.95 L 94.91 -52.92 L 95.56 -51.87 L 96.19 -50.82 L 96.8 -49.76 L 97.4 -48.7 L 97.99 -47.63 L 98.56 -46.55 L 99.12 -45.47 L 99.66 -44.39 L 100.19 -43.29 L 100.71 -42.19 L 101.21 -41.09 L 101.69 -39.98 L 102.16 -38.86 L 102.62 -37.74 L 103.06 -36.61 L 103.49 -35.48 L 103.9 -34.34 L 104.3 -33.19 L 104.68 -32.04 L 105.05 -30.88 L 105.4 -29.72 L 105.74 -28.55 L 106.07 -27.37 L 106.38 -26.19 L 106.68 -25 L 106.96 -23.81 L 107.22 -22.61 L 107.48 -21.4 L 107.72 -20.19 L 107.94 -18.97 L 108.15 -17.75 L 108.34 -16.52 L 108.52 -15.29 L 108.69 -14.04 L 108.84 -12.8 L 108.98 -11.54 L 109.1 -10.29 L 109.21 -9.02 L 109.3 -7.75 L 109.38 -6.47 L 109.44 -5.19 L 109.49 -3.9 L 109.52 -2.61 L 109.54 -1.31 L 109.55 0 L 109.54 1.31 L 109.52 2.61 L 109.49 3.91 L 109.44 5.2 L 109.38 6.49 L 109.3 7.77 L 109.21 9.04 L 109.1 10.31 L 108.98 11.57 L 108.84 12.83 L 108.69 14.08 L 108.52 15.32 L 108.34 16.56 L 108.15 17.79 L 107.94 19.02 L 107.72 20.24 L 107.48 21.46 L 107.22 22.66 L 106.96 23.87 L 106.68 25.06 L 106.38 26.25 L 106.07 27.44 L 105.74 28.62 L 105.4 29.79 L 105.05 30.96 L 104.68 32.12 L 104.3 33.28 L 103.9 34.42 L 103.49 35.57 L 103.06 36.71 L 102.62 37.84 L 102.16 38.96 L 101.69 40.08 L 101.21 41.2 L 100.71 42.3 L 100.19 43.41 L 99.66 44.5 L 99.12 45.59 L 98.56 46.68 L 97.99 47.75 L 97.4 48.83 L 96.8 49.89 L 96.19 50.95 L 95.56 52.01 L 94.91 53.06 L 94.25 54.1 L 93.58 55.13 L 92.89 56.17 L 92.19 57.19 L 91.47 58.21 L 90.74 59.22 L 89.99 60.23 L 89.23 61.23 L 88.45 62.23 L 87.66 63.21 L 86.86 64.2 L 86.04 65.17 L 85.21 66.15 L 84.36 67.11 L 83.5 68.07 L 82.62 69.02 L 81.73 69.97 L 80.82 70.91 L 79.9 71.85 L 78.97 72.77 L 78.03 73.67 L 77.09 74.56 L 76.14 75.43 L 75.18 76.29 L 74.22 77.13 L 73.26 77.96 L 72.28 78.78 L 71.3 79.58 L 70.32 80.36 L 69.33 81.13 L 68.33 81.89 L 67.33 82.64 L 66.32 83.36 L 65.3 84.08 L 64.28 84.78 L 63.26 85.46 L 62.22 86.13 L 61.19 86.79 L 60.14 87.43 L 59.09 88.06 L 58.03 88.67 L 56.97 89.27 L 55.9 89.86 L 54.83 90.43 L 53.75 90.98 L 52.66 91.52 L 51.57 92.05 L 50.47 92.56 L 49.36 93.06 L 48.25 93.54 L 47.14 94.01 L 46.01 94.47 L 44.88 94.91 L 43.75 95.33 L 42.61 95.74 L 41.46 96.14 L 40.31 96.52 L 39.15 96.89 L 37.99 97.24 L 36.82 97.58 L 35.64 97.91 L 34.46 98.22 L 33.27 98.51 L 32.07 98.8 L 30.87 99.06 L 29.67 99.32 L 28.45 99.55 L 27.24 99.78 L 26.01 99.99 L 24.78 100.18 L 23.55 100.36 L 22.3 100.53 L 21.05 100.68 L 19.8 100.82 L 18.54 100.94 L 17.27 101.05 L 16 101.14 L 14.72 101.22 L 13.44 101.28 L 12.15 101.34 L 10.85 101.37 L 9.55 101.39 L 8.24 101.4 L 8.1 101.4 L 7.96 101.4 L 6.65 101.39 L 5.35 101.37 L 4.06 101.34 L 2.77 101.28 L 1.48 101.22 L 0.21 101.14 L -1.06 101.05 L -2.33 100.94 L -3.59 100.82 L -4.84 100.68 L -6.09 100.53 L -7.33 100.36 L -8.57 100.18 L -9.8 99.99 L -11.02 99.78 L -12.24 99.55 L -13.45 99.32 L -14.66 99.06 L -15.86 98.8 L -17.05 98.51 L -18.24 98.22 L -19.42 97.91 L -20.6 97.58 L -21.77 97.24 L -22.94 96.89 L -24.09 96.52 L -25.25 96.14 L -26.39 95.74 L -27.54 95.33 L -28.67 94.91 L -29.8 94.47 L -30.92 94.01 L -32.04 93.54 L -33.15 93.06 L -34.26 92.56 L -35.36 92.05 L -36.45 91.52 L -37.54 90.98 L -38.62 90.43 L -39.7 89.86 L -40.77 89.27 L -41.83 88.67 L -42.89 88.06 L -43.94 87.43 L -44.99 86.79 L -46.03 86.13 L -47.06 85.46 L -48.09 84.78 L -49.12 84.08 L -50.13 83.36 L -51.14 82.64 L -52.15 81.89 L -53.15 81.13 L -54.14 80.36 L -55.13 79.58 L -56.11 78.78 L -57.09 77.96 L -58.06 77.13 L -59.02 76.29 L -59.98 75.43 L -60.93 74.56 L -61.88 73.67 L -62.82 72.77 L -63.75 71.85 L -64.67 70.91 L -65.57 69.97 L -66.46 69.02 L -67.34 68.07 L -68.2 67.11 L -69.05 66.15 L -69.88 65.17 L -70.7 64.2 L -71.5 63.21 L -72.29 62.23 L -73.07 61.23 L -73.83 60.23 L -74.57 59.22 L -75.3 58.21 L -76.02 57.19 L -76.72 56.17 L -77.41 55.13 L -78.08 54.1 L -78.74 53.06 L -79.39 52.01 L -80.02 50.95 L -80.63 49.89 L -81.23 48.83 L -81.82 47.75 L -82.39 46.68 L -82.95 45.59 L -83.49 44.5 L -84.02 43.41 L -84.53 42.3 L -85.03 41.2 L -85.52 40.08 L -85.99 38.96 L -86.44 37.84 L -86.89 36.71 L -87.31 35.57 L -87.72 34.42 L -88.12 33.28 L -88.51 32.12 L -88.88 30.96 L -89.23 29.79 L -89.57 28.62 L -89.9 27.44 L -90.21 26.25 L -90.5 25.06 L -90.79 23.87 L -91.05 22.66 L -91.31 21.46 L -91.55 20.24 L -91.77 19.02 L -91.98 17.79 L -92.18 16.56 L -92.36 15.32 L -92.52 14.08 L -92.68 12.83 L -92.81 11.57 L -92.94 10.31 L -93.05 9.04 L -93.14 7.77 L -93.22 6.49 L -93.28 5.2 L -93.33 3.91 L -93.37 2.61 L -93.39 1.31 L -93.4 0 L -93.39 -1.31 L -93.37 -2.61 L -93.33 -3.9 L -93.28 -5.19 L -93.22 -6.47 L -93.14 -7.75 L -93.05 -9.02 L -92.94 -10.29 L -92.81 -11.54 L -92.68 -12.8 L -92.52 -14.04 L -92.36 -15.29 L -92.18 -16.52 L -91.98 -17.75 L -91.77 -18.97 L -91.55 -20.19 L -91.31 -21.4 L -91.05 -22.61 L -90.79 -23.81 L -90.5 -25 L -90.21 -26.19 L -89.9 -27.37 L -89.57 -28.55 L -89.23 -29.72 L -88.88 -30.88 L -88.51 -32.04 L -88.12 -33.19 L -87.72 -34.34 L -87.31 -35.48 L -86.89 -36.61 L -86.44 -37.74 L -85.99 -38.86 L -85.52 -39.98 L -85.03 -41.09 L -84.53 -42.19 L -84.02 -43.29 L -83.49 -44.39 L -82.95 -45.47 L -82.39 -46.55 L -81.82 -47.63 L -81.23 -48.7 L -80.63 -49.76 L -80.02 -50.82 L -79.39 -51.87 L -78.74 -52.92 L -78.08 -53.95 L -77.41 -54.99 L -76.72 -56.02 L -76.02 -57.04 L -75.3 -58.05 L -74.57 -59.06 L -73.83 -60.07 L -73.07 -61.06 L -72.29 -62.06 L -71.5 -63.04 L -70.7 -64.02 L -69.88 -65 L -69.05 -65.97 L -68.2 -66.93 L -67.34 -67.88 L -66.46 -68.83 L -65.57 -69.78 L -64.67 -70.72 L -63.75 -71.65 L -62.82 -72.57 L -61.88 -73.47 L -60.93 -74.36 L -59.98 -75.24 L -59.02 -76.1 L -58.06 -76.95 L -57.09 -77.78 L -56.11 -78.6 L -55.13 -79.4 L -54.14 -80.19 L -53.15 -80.97 L -52.15 -81.73 L -51.14 -82.47 L -50.13 -83.2 L -49.12 -83.92 L -48.09 -84.62 L -47.06 -85.31 L -46.03 -85.98 L -44.99 -86.64 L -43.94 -87.29 L -42.89 -87.92 L -41.83 -88.53 L -40.77 -89.13 L -39.7 -89.72 L -38.62 -90.29 L -37.54 -90.85 L -36.45 -91.39 L -35.36 -91.92 L -34.26 -92.43 L -33.15 -92.93 L -32.04 -93.42 L -30.92 -93.89 L -29.8 -94.34 L -28.67 -94.79 L -27.53 -95.21 L -26.39 -95.62 L -25.25 -96.02 L -24.09 -96.41 L -22.93 -96.78 L -21.77 -97.13 L -20.6 -97.47 L -19.42 -97.8 L -18.24 -98.11 L -17.05 -98.4 L -15.86 -98.69 L -14.66 -98.95 L -13.45 -99.21 L -12.24 -99.45 L -11.02 -99.67 L -9.8 -99.88 L -8.57 -100.08 L -7.33 -100.26 L -6.09 -100.42 L -4.84 -100.58 L -3.59 -100.71 L -2.33 -100.84 L -1.06 -100.95 L 0.21 -101.04 L 1.48 -101.12 L 2.77 -101.18 L 4.06 -101.23 L 5.35 -101.27 L 6.65 -101.29 L 7.96 -101.3 L 8.1 -101.3 L 8.24 -101.3 Z M 1.26 -112.25 L -0.16 -112.24 L -1.58 -112.22 L -2.99 -112.18 L -4.39 -112.12 L -5.79 -112.05 L -7.18 -111.97 L -8.56 -111.87 L -9.94 -111.75 L -11.31 -111.61 L -12.67 -111.47 L -14.03 -111.3 L -15.38 -111.12 L -16.72 -110.92 L -18.06 -110.71 L -19.39 -110.48 L -20.71 -110.24 L -22.03 -109.98 L -23.34 -109.71 L -24.65 -109.42 L -25.95 -109.11 L -27.24 -108.79 L -28.52 -108.45 L -29.8 -108.1 L -31.08 -107.73 L -32.34 -107.34 L -33.6 -106.94 L -34.86 -106.53 L -36.1 -106.1 L -37.34 -105.65 L -38.58 -105.19 L -39.8 -104.71 L -41.02 -104.21 L -42.24 -103.7 L -43.44 -103.18 L -44.65 -102.63 L -45.84 -102.08 L -47.03 -101.5 L -48.21 -100.92 L -49.39 -100.31 L -50.55 -99.69 L -51.72 -99.06 L -52.87 -98.4 L -54.02 -97.74 L -55.16 -97.05 L -56.3 -96.36 L -57.43 -95.64 L -58.55 -94.91 L -59.67 -94.17 L -60.78 -93.4 L -61.88 -92.63 L -62.98 -91.83 L -64.07 -91.03 L -65.15 -90.2 L -66.23 -89.36 L -67.3 -88.51 L -68.37 -87.64 L -69.43 -86.75 L -70.48 -85.85 L -71.52 -84.93 L -72.56 -83.99 L -73.59 -83.04 L -74.62 -82.08 L -75.64 -81.1 L -76.65 -80.1 L -77.65 -79.09 L -78.64 -78.07 L -79.61 -77.04 L -80.56 -76 L -81.5 -74.96 L -82.42 -73.92 L -83.33 -72.86 L -84.22 -71.81 L -85.1 -70.74 L -85.96 -69.67 L -86.8 -68.59 L -87.63 -67.5 L -88.44 -66.41 L -89.24 -65.31 L -90.02 -64.21 L -90.78 -63.1 L -91.53 -61.98 L -92.26 -60.86 L -92.98 -59.72 L -93.68 -58.59 L -94.37 -57.44 L -95.04 -56.29 L -95.69 -55.14 L -96.33 -53.97 L -96.96 -52.8 L -97.56 -51.63 L -98.15 -50.45 L -98.73 -49.26 L -99.29 -48.06 L -99.83 -46.86 L -100.36 -45.65 L -100.88 -44.44 L -101.37 -43.22 L -101.85 -41.99 L -102.32 -40.75 L -102.77 -39.51 L -103.2 -38.27 L -103.62 -37.01 L -104.02 -35.75 L -104.41 -34.49 L -104.78 -33.21 L -105.13 -31.93 L -105.47 -30.65 L -105.8 -29.36 L -106.1 -28.06 L -106.4 -26.75 L -106.67 -25.44 L -106.93 -24.12 L -107.18 -22.8 L -107.4 -21.47 L -107.62 -20.13 L -107.81 -18.78 L -108 -17.43 L -108.16 -16.08 L -108.31 -14.71 L -108.45 -13.34 L -108.56 -11.97 L -108.67 -10.58 L -108.75 -9.19 L -108.82 -7.8 L -108.88 -6.4 L -108.92 -4.99 L -108.94 -3.57 L -108.95 -2.15 L -108.94 -0.73 L -108.92 0.69 L -108.88 2.11 L -108.82 3.51 L -108.75 4.91 L -108.67 6.3 L -108.56 7.69 L -108.45 9.07 L -108.31 10.44 L -108.16 11.81 L -108 13.17 L -107.81 14.52 L -107.62 15.86 L -107.4 17.2 L -107.18 18.54 L -106.93 19.87 L -106.67 21.19 L -106.4 22.5 L -106.1 23.81 L -105.8 25.11 L -105.47 26.4 L -105.13 27.69 L -104.78 28.97 L -104.41 30.25 L -104.02 31.52 L -103.62 32.78 L -103.2 34.03 L -102.77 35.28 L -102.32 36.52 L -101.85 37.76 L -101.37 38.99 L -100.88 40.21 L -100.36 41.43 L -99.83 42.64 L -99.29 43.84 L -98.73 45.04 L -98.15 46.23 L -97.56 47.41 L -96.96 48.59 L -96.33 49.76 L -95.69 50.92 L -95.04 52.08 L -94.37 53.23 L -93.68 54.38 L -92.98 55.52 L -92.26 56.65 L -91.53 57.77 L -90.78 58.89 L -90.02 60 L -89.24 61.11 L -88.44 62.21 L -87.63 63.3 L -86.8 64.39 L -85.96 65.46 L -85.1 66.54 L -84.22 67.6 L -83.33 68.66 L -82.42 69.72 L -81.5 70.76 L -80.56 71.8 L -79.61 72.84 L -78.64 73.87 L -77.65 74.89 L -76.65 75.9 L -75.64 76.9 L -74.62 77.88 L -73.6 78.84 L -72.57 79.79 L -71.53 80.73 L -70.49 81.65 L -69.44 82.55 L -68.38 83.44 L -67.32 84.31 L -66.25 85.16 L -65.17 86 L -64.09 86.83 L -63 87.63 L -61.91 88.43 L -60.8 89.2 L -59.7 89.97 L -58.58 90.71 L -57.46 91.44 L -56.33 92.16 L -55.2 92.85 L -54.06 93.54 L -52.91 94.2 L -51.76 94.86 L -50.6 95.49 L -49.43 96.11 L -48.26 96.72 L -47.08 97.3 L -45.89 97.88 L -44.7 98.44 L -43.5 98.98 L -42.29 99.5 L -41.08 100.01 L -39.86 100.51 L -38.64 100.99 L -37.41 101.45 L -36.17 101.9 L -34.93 102.33 L -33.68 102.74 L -32.42 103.14 L -31.15 103.53 L -29.88 103.9 L -28.61 104.25 L -27.32 104.59 L -26.04 104.91 L -24.74 105.22 L -23.44 105.51 L -22.13 105.78 L -20.81 106.04 L -19.49 106.28 L -18.16 106.51 L -16.83 106.72 L -15.49 106.92 L -14.14 107.1 L -12.78 107.27 L -11.42 107.41 L -10.05 107.55 L -8.68 107.67 L -7.3 107.77 L -5.91 107.85 L -4.52 107.92 L -3.12 107.98 L -1.71 108.02 L -0.3 108.04 L 1.12 108.05 L 1.4 108.05 L 1.68 108.05 L 3.1 108.04 L 4.51 108.02 L 5.92 107.98 L 7.32 107.92 L 8.71 107.85 L 10.1 107.77 L 11.48 107.67 L 12.85 107.55 L 14.22 107.41 L 15.58 107.27 L 16.94 107.1 L 18.28 106.92 L 19.62 106.72 L 20.96 106.51 L 22.29 106.28 L 23.61 106.04 L 24.92 105.78 L 26.23 105.51 L 27.53 105.22 L 28.83 104.91 L 30.12 104.59 L 31.4 104.25 L 32.68 103.9 L 33.95 103.53 L 35.21 103.14 L 36.47 102.74 L 37.72 102.33 L 38.96 101.9 L 40.2 101.45 L 41.43 100.99 L 42.65 100.51 L 43.87 100.01 L 45.08 99.5 L 46.29 98.98 L 47.48 98.44 L 48.68 97.88 L 49.86 97.3 L 51.04 96.72 L 52.21 96.11 L 53.38 95.49 L 54.54 94.86 L 55.69 94.2 L 56.83 93.54 L 57.97 92.85 L 59.11 92.16 L 60.23 91.44 L 61.35 90.71 L 62.47 89.97 L 63.57 89.2 L 64.68 88.43 L 65.77 87.63 L 66.86 86.83 L 67.94 86 L 69.01 85.16 L 70.08 84.31 L 71.14 83.44 L 72.2 82.55 L 73.25 81.65 L 74.29 80.73 L 75.32 79.79 L 76.35 78.84 L 77.37 77.88 L 78.39 76.9 L 79.4 75.9 L 80.4 74.89 L 81.39 73.87 L 82.36 72.84 L 83.31 71.8 L 84.25 70.76 L 85.17 69.72 L 86.08 68.66 L 86.97 67.6 L 87.84 66.54 L 88.7 65.46 L 89.55 64.39 L 90.38 63.3 L 91.19 62.21 L 91.98 61.11 L 92.76 60 L 93.53 58.89 L 94.28 57.77 L 95.01 56.65 L 95.73 55.52 L 96.43 54.38 L 97.11 53.23 L 97.78 52.08 L 98.44 50.92 L 99.08 49.76 L 99.7 48.59 L 100.3 47.41 L 100.9 46.23 L 101.47 45.04 L 102.03 43.84 L 102.57 42.64 L 103.1 41.43 L 103.61 40.21 L 104.11 38.99 L 104.59 37.76 L 105.05 36.52 L 105.5 35.28 L 105.93 34.03 L 106.35 32.78 L 106.75 31.52 L 107.14 30.25 L 107.51 28.97 L 107.86 27.69 L 108.2 26.4 L 108.52 25.11 L 108.83 23.81 L 109.12 22.5 L 109.39 21.19 L 109.65 19.87 L 109.9 18.54 L 110.12 17.2 L 110.34 15.86 L 110.53 14.52 L 110.71 13.17 L 110.88 11.81 L 111.02 10.44 L 111.16 9.07 L 111.27 7.69 L 111.38 6.3 L 111.46 4.91 L 111.53 3.51 L 111.58 2.11 L 111.62 0.69 L 111.64 -0.73 L 111.65 -2.15 L 111.64 -3.57 L 111.62 -4.99 L 111.58 -6.4 L 111.53 -7.8 L 111.46 -9.19 L 111.38 -10.58 L 111.27 -11.97 L 111.16 -13.34 L 111.02 -14.71 L 110.88 -16.08 L 110.71 -17.43 L 110.53 -18.78 L 110.34 -20.13 L 110.12 -21.47 L 109.9 -22.8 L 109.65 -24.12 L 109.39 -25.44 L 109.12 -26.75 L 108.83 -28.06 L 108.52 -29.36 L 108.2 -30.65 L 107.86 -31.93 L 107.51 -33.21 L 107.14 -34.49 L 106.75 -35.75 L 106.35 -37.01 L 105.93 -38.27 L 105.5 -39.51 L 105.05 -40.75 L 104.59 -41.99 L 104.11 -43.22 L 103.61 -44.44 L 103.1 -45.65 L 102.57 -46.86 L 102.03 -48.06 L 101.47 -49.26 L 100.9 -50.45 L 100.3 -51.63 L 99.7 -52.8 L 99.08 -53.97 L 98.44 -55.14 L 97.78 -56.29 L 97.11 -57.44 L 96.43 -58.59 L 95.73 -59.72 L 95.01 -60.86 L 94.28 -61.98 L 93.53 -63.1 L 92.76 -64.21 L 91.98 -65.31 L 91.19 -66.41 L 90.38 -67.5 L 89.55 -68.59 L 88.7 -69.67 L 87.84 -70.74 L 86.97 -71.81 L 86.08 -72.86 L 85.17 -73.92 L 84.25 -74.96 L 83.31 -76 L 82.36 -77.04 L 81.39 -78.07 L 80.4 -79.09 L 79.4 -80.1 L 78.39 -81.1 L 77.37 -82.08 L 76.35 -83.04 L 75.32 -83.99 L 74.28 -84.93 L 73.24 -85.85 L 72.19 -86.75 L 71.13 -87.64 L 70.07 -88.51 L 69 -89.36 L 67.92 -90.2 L 66.84 -91.03 L 65.75 -91.83 L 64.65 -92.63 L 63.55 -93.4 L 62.44 -94.17 L 61.32 -94.91 L 60.2 -95.64 L 59.07 -96.36 L 57.94 -97.05 L 56.8 -97.74 L 55.65 -98.4 L 54.5 -99.06 L 53.33 -99.69 L 52.17 -100.31 L 50.99 -100.92 L 49.81 -101.5 L 48.62 -102.08 L 47.43 -102.63 L 46.23 -103.18 L 45.02 -103.7 L 43.81 -104.21 L 42.59 -104.71 L 41.36 -105.19 L 40.13 -105.65 L 38.89 -106.1 L 37.65 -106.53 L 36.39 -106.94 L 35.13 -107.34 L 33.87 -107.73 L 32.6 -108.1 L 31.32 -108.45 L 30.03 -108.79 L 28.74 -109.11 L 27.44 -109.42 L 26.14 -109.71 L 24.83 -109.98 L 23.51 -110.24 L 22.19 -110.48 L 20.86 -110.71 L 19.52 -110.92 L 18.18 -111.12 L 16.82 -111.3 L 15.47 -111.47 L 14.1 -111.61 L 12.74 -111.75 L 11.36 -111.87 L 9.98 -111.97 L 8.59 -112.05 L 7.19 -112.12 L 5.79 -112.18 L 4.38 -112.22 L 2.96 -112.24 L 1.54 -112.25 L 1.4 -112.25 L 1.26 -112.25 Z"/>
    </clipPath>
    <g clip-path="url(#clipPath0)">
      <use ffdec:characterId="555" height="181.1" transform="matrix(1.0, 0.0, 0.0, 1.0, -90.7, -90.55)" width="181.35" xlink:href="#shape1"/>
    </g>
  </g>
  <defs>
    <g id="shape0" transform="matrix(1.0, 0.0, 0.0, 1.0, 0.95, 0.9)">
      <path d="M-0.05 -0.9 L0.6 -0.65 0.85 0.0 0.6 0.65 -0.05 0.9 -0.7 0.65 -0.95 0.0 -0.7 -0.65 -0.05 -0.9" fill="#ffffff" fill-rule="evenodd" stroke="none"/>
    </g>
    <g id="shape1" transform="matrix(1.0, 0.0, 0.0, 1.0, 90.7, 90.55)">
      <path d="M64.15 -64.1 Q90.7 -37.55 90.65 -0.05 90.7 37.55 64.15 64.15 37.6 90.65 0.05 90.55 -37.55 90.65 -64.15 64.15 -90.7 37.55 -90.7 -0.05 -90.7 -37.55 -64.15 -64.1 -37.55 -90.6 0.05 -90.55 37.6 -90.6 64.15 -64.1" fill="url(#gradient0)" fill-rule="evenodd" stroke="none"/>
    </g>
    <radialGradient cx="0" cy="0" gradientTransform="matrix(0.1143, 0.0, 0.0, 0.1141, -0.3, -1.5)" gradientUnits="userSpaceOnUse" id="gradient0" r="819.2" spreadMethod="pad">
      <stop offset="0.0" stop-color="#ffffff"/>
      <stop offset="0.11372549019607843" stop-color="#ffffff"/>
      <stop offset="0.5843137254901961" stop-color="#ffff00"/>
      <stop offset="1.0" stop-color="#ff0000"/>
    </radialGradient>
  </defs>
</svg>
