<?xml version="1.0" encoding="UTF-8" standalone="no"?>
<svg xmlns:ffdec="https://www.free-decompiler.com/flash" xmlns:xlink="http://www.w3.org/1999/xlink" ffdec:objectType="frame" height="220.3px" width="226.55px" xmlns="http://www.w3.org/2000/svg">
  <g transform="matrix(1.0, 0.0, 0.0, 1.0, 108.95, 112.25)">
    <use ffdec:characterId="551" height="181.1" transform="matrix(1.0, 0.0, 0.0, 1.0, -90.7, -90.55)" width="181.35" xlink:href="#morphshape0"/>
    <clipPath id="clipPath0">
      <path d="M 0.5 -5.35 L 0.8 -5.34 L 1.09 -5.32 L 1.37 -5.29 L 1.65 -5.25 L 1.93 -5.19 L 2.19 -5.12 L 2.46 -5.03 L 2.71 -4.94 L 2.96 -4.83 L 3.21 -4.71 L 3.45 -4.57 L 3.68 -4.42 L 3.9 -4.26 L 4.13 -4.09 L 4.34 -3.9 L 4.55 -3.7 L 4.76 -3.48 L 4.95 -3.26 L 5.13 -3.04 L 5.29 -2.81 L 5.45 -2.57 L 5.59 -2.33 L 5.71 -2.08 L 5.82 -1.83 L 5.92 -1.57 L 6.01 -1.3 L 6.08 -1.03 L 6.14 -0.76 L 6.19 -0.48 L 6.22 -0.19 L 6.24 0.1 L 6.25 0.4 L 6.24 0.7 L 6.22 0.99 L 6.19 1.27 L 6.14 1.55 L 6.08 1.83 L 6.01 2.09 L 5.92 2.36 L 5.82 2.61 L 5.71 2.86 L 5.59 3.11 L 5.45 3.35 L 5.29 3.58 L 5.13 3.8 L 4.95 4.03 L 4.76 4.24 L 4.55 4.45 L 4.34 4.66 L 4.13 4.85 L 3.9 5.03 L 3.68 5.19 L 3.45 5.35 L 3.21 5.49 L 2.96 5.61 L 2.71 5.72 L 2.46 5.82 L 2.19 5.91 L 1.93 5.98 L 1.65 6.04 L 1.37 6.09 L 1.09 6.12 L 0.8 6.14 L 0.5 6.15 L 0.2 6.14 L -0.09 6.12 L -0.38 6.09 L -0.66 6.04 L -0.93 5.98 L -1.2 5.91 L -1.47 5.82 L -1.73 5.72 L -1.98 5.61 L -2.23 5.49 L -2.47 5.35 L -2.71 5.19 L -2.94 5.03 L -3.16 4.85 L -3.38 4.66 L -3.6 4.45 L -3.8 4.24 L -3.99 4.03 L -4.16 3.8 L -4.32 3.58 L -4.47 3.35 L -4.61 3.11 L -4.73 2.86 L -4.84 2.61 L -4.93 2.36 L -5.02 2.09 L -5.09 1.83 L -5.15 1.55 L -5.19 1.27 L -5.22 0.99 L -5.24 0.7 L -5.25 0.4 L -5.24 0.1 L -5.22 -0.19 L -5.19 -0.48 L -5.15 -0.76 L -5.09 -1.03 L -5.02 -1.3 L -4.93 -1.57 L -4.84 -1.83 L -4.73 -2.08 L -4.61 -2.33 L -4.47 -2.57 L -4.32 -2.81 L -4.16 -3.04 L -3.99 -3.26 L -3.8 -3.48 L -3.6 -3.7 L -3.38 -3.9 L -3.16 -4.09 L -2.94 -4.26 L -2.71 -4.42 L -2.47 -4.57 L -2.23 -4.71 L -1.98 -4.83 L -1.73 -4.94 L -1.47 -5.03 L -1.2 -5.12 L -0.93 -5.19 L -0.66 -5.25 L -0.38 -5.29 L -0.09 -5.32 L 0.2 -5.34 L 0.5 -5.35 Z M -0.09 -90.55 L -1.26 -90.54 L -2.43 -90.52 L -3.58 -90.49 L -4.74 -90.45 L -5.89 -90.39 L -7.03 -90.32 L -8.17 -90.23 L -9.3 -90.14 L -10.42 -90.03 L -11.55 -89.9 L -12.66 -89.77 L -13.77 -89.62 L -14.88 -89.46 L -15.98 -89.28 L -17.07 -89.1 L -18.16 -88.9 L -19.24 -88.68 L -20.32 -88.46 L -21.4 -88.22 L -22.46 -87.97 L -23.53 -87.7 L -24.58 -87.42 L -25.64 -87.13 L -26.68 -86.83 L -27.72 -86.51 L -28.76 -86.18 L -29.79 -85.84 L -30.81 -85.49 L -31.83 -85.12 L -32.85 -84.74 L -33.86 -84.34 L -34.86 -83.94 L -35.86 -83.52 L -36.85 -83.09 L -37.84 -82.64 L -38.82 -82.18 L -39.8 -81.71 L -40.77 -81.23 L -41.74 -80.73 L -42.7 -80.22 L -43.65 -79.69 L -44.6 -79.16 L -45.55 -78.61 L -46.49 -78.05 L -47.42 -77.47 L -48.35 -76.89 L -49.27 -76.29 L -50.19 -75.67 L -51.1 -75.05 L -52.01 -74.41 L -52.91 -73.75 L -53.81 -73.09 L -54.7 -72.41 L -55.59 -71.72 L -56.47 -71.02 L -57.34 -70.3 L -58.21 -69.57 L -59.08 -68.83 L -59.93 -68.07 L -60.79 -67.3 L -61.64 -66.52 L -62.48 -65.73 L -63.32 -64.92 L -64.15 -64.1 L -64.97 -63.27 L -65.78 -62.43 L -66.58 -61.59 L -67.37 -60.74 L -68.14 -59.88 L -68.89 -59.03 L -69.64 -58.16 L -70.37 -57.29 L -71.09 -56.42 L -71.8 -55.54 L -72.49 -54.65 L -73.17 -53.76 L -73.84 -52.86 L -74.5 -51.96 L -75.14 -51.05 L -75.77 -50.14 L -76.38 -49.22 L -76.98 -48.3 L -77.57 -47.37 L -78.15 -46.44 L -78.71 -45.5 L -79.27 -44.55 L -79.8 -43.6 L -80.33 -42.65 L -80.84 -41.69 L -81.34 -40.72 L -81.83 -39.75 L -82.3 -38.77 L -82.76 -37.79 L -83.21 -36.8 L -83.64 -35.81 L -84.06 -34.81 L -84.47 -33.81 L -84.87 -32.8 L -85.25 -31.79 L -85.62 -30.77 L -85.97 -29.74 L -86.32 -28.71 L -86.65 -27.68 L -86.97 -26.64 L -87.27 -25.59 L -87.56 -24.54 L -87.84 -23.48 L -88.11 -22.42 L -88.36 -21.35 L -88.6 -20.28 L -88.83 -19.2 L -89.04 -18.12 L -89.24 -17.03 L -89.43 -15.93 L -89.6 -14.83 L -89.77 -13.73 L -89.92 -12.62 L -90.05 -11.5 L -90.17 -10.38 L -90.29 -9.25 L -90.38 -8.12 L -90.47 -6.99 L -90.54 -5.84 L -90.6 -4.69 L -90.64 -3.54 L -90.67 -2.38 L -90.69 -1.22 L -90.7 -0.05 L -90.69 1.12 L -90.67 2.29 L -90.64 3.45 L -90.6 4.61 L -90.54 5.76 L -90.47 6.9 L -90.38 8.04 L -90.29 9.18 L -90.17 10.31 L -90.05 11.43 L -89.92 12.55 L -89.77 13.66 L -89.6 14.77 L -89.43 15.87 L -89.24 16.97 L -89.04 18.06 L -88.83 19.15 L -88.6 20.23 L -88.36 21.31 L -88.11 22.38 L -87.84 23.44 L -87.56 24.5 L -87.27 25.55 L -86.97 26.6 L -86.65 27.65 L -86.32 28.68 L -85.97 29.72 L -85.62 30.74 L -85.25 31.77 L -84.87 32.78 L -84.47 33.79 L -84.06 34.8 L -83.64 35.8 L -83.21 36.8 L -82.76 37.79 L -82.3 38.77 L -81.83 39.75 L -81.34 40.72 L -80.84 41.69 L -80.33 42.65 L -79.8 43.61 L -79.27 44.56 L -78.71 45.51 L -78.15 46.45 L -77.57 47.39 L -76.98 48.32 L -76.38 49.24 L -75.77 50.16 L -75.14 51.08 L -74.5 51.99 L -73.84 52.89 L -73.17 53.79 L -72.49 54.68 L -71.8 55.57 L -71.09 56.45 L -70.37 57.33 L -69.64 58.2 L -68.89 59.07 L -68.14 59.93 L -67.37 60.78 L -66.58 61.63 L -65.78 62.48 L -64.97 63.32 L -64.15 64.15 L -63.32 64.97 L -62.48 65.77 L -61.64 66.57 L -60.79 67.35 L -59.94 68.11 L -59.09 68.87 L -58.22 69.61 L -57.35 70.34 L -56.48 71.05 L -55.6 71.76 L -54.72 72.45 L -53.83 73.12 L -52.93 73.79 L -52.03 74.44 L -51.13 75.07 L -50.22 75.7 L -49.3 76.31 L -48.38 76.91 L -47.45 77.5 L -46.52 78.07 L -45.58 78.63 L -44.64 79.18 L -43.69 79.72 L -42.74 80.24 L -41.78 80.75 L -40.82 81.24 L -39.85 81.73 L -38.87 82.2 L -37.89 82.65 L -36.91 83.1 L -35.92 83.53 L -34.92 83.95 L -33.92 84.36 L -32.91 84.75 L -31.9 85.13 L -30.88 85.5 L -29.86 85.85 L -28.83 86.19 L -27.8 86.52 L -26.76 86.84 L -25.72 87.14 L -24.67 87.43 L -23.61 87.71 L -22.55 87.97 L -21.49 88.22 L -20.42 88.46 L -19.34 88.69 L -18.26 88.9 L -17.17 89.1 L -16.08 89.29 L -14.98 89.46 L -13.88 89.62 L -12.77 89.77 L -11.66 89.91 L -10.54 90.03 L -9.42 90.14 L -8.29 90.23 L -7.15 90.32 L -6.01 90.39 L -4.87 90.45 L -3.72 90.49 L -2.56 90.52 L -1.4 90.54 L -0.23 90.55 L 0.05 90.55 L 0.33 90.55 L 1.5 90.54 L 2.66 90.52 L 3.81 90.49 L 4.96 90.45 L 6.1 90.39 L 7.24 90.32 L 8.38 90.23 L 9.5 90.14 L 10.63 90.03 L 11.74 89.91 L 12.85 89.77 L 13.96 89.62 L 15.06 89.46 L 16.16 89.29 L 17.25 89.1 L 18.33 88.9 L 19.41 88.69 L 20.49 88.46 L 21.56 88.22 L 22.62 87.97 L 23.68 87.71 L 24.73 87.43 L 25.78 87.14 L 26.82 86.84 L 27.86 86.52 L 28.89 86.19 L 29.92 85.85 L 30.94 85.5 L 31.95 85.13 L 32.97 84.75 L 33.97 84.36 L 34.97 83.95 L 35.96 83.53 L 36.95 83.1 L 37.94 82.65 L 38.92 82.2 L 39.89 81.73 L 40.86 81.24 L 41.82 80.75 L 42.78 80.24 L 43.73 79.72 L 44.68 79.18 L 45.62 78.63 L 46.55 78.07 L 47.48 77.5 L 48.41 76.91 L 49.33 76.31 L 50.24 75.7 L 51.15 75.07 L 52.06 74.44 L 52.95 73.79 L 53.85 73.12 L 54.74 72.45 L 55.62 71.76 L 56.49 71.05 L 57.37 70.34 L 58.23 69.61 L 59.09 68.87 L 59.95 68.11 L 60.8 67.35 L 61.65 66.57 L 62.49 65.77 L 63.32 64.97 L 64.15 64.15 L 64.97 63.32 L 65.78 62.48 L 66.58 61.63 L 67.36 60.78 L 68.14 59.93 L 68.89 59.07 L 69.64 58.2 L 70.37 57.33 L 71.09 56.45 L 71.8 55.57 L 72.49 54.68 L 73.17 53.79 L 73.84 52.89 L 74.49 51.99 L 75.13 51.08 L 75.76 50.16 L 76.38 49.24 L 76.98 48.32 L 77.57 47.39 L 78.15 46.45 L 78.71 45.51 L 79.26 44.56 L 79.8 43.61 L 80.32 42.65 L 80.83 41.69 L 81.33 40.72 L 81.82 39.75 L 82.29 38.77 L 82.75 37.79 L 83.2 36.8 L 83.63 35.8 L 84.05 34.8 L 84.46 33.79 L 84.85 32.78 L 85.23 31.77 L 85.6 30.74 L 85.96 29.72 L 86.3 28.68 L 86.63 27.65 L 86.95 26.6 L 87.25 25.55 L 87.54 24.5 L 87.82 23.44 L 88.08 22.38 L 88.34 21.31 L 88.57 20.23 L 88.8 19.15 L 89.01 18.06 L 89.21 16.97 L 89.4 15.87 L 89.57 14.77 L 89.73 13.66 L 89.88 12.55 L 90.02 11.43 L 90.14 10.31 L 90.25 9.18 L 90.34 8.04 L 90.43 6.9 L 90.5 5.76 L 90.55 4.61 L 90.6 3.45 L 90.63 2.29 L 90.65 1.12 L 90.65 -0.05 L 90.65 -1.22 L 90.63 -2.38 L 90.6 -3.54 L 90.55 -4.69 L 90.5 -5.84 L 90.43 -6.99 L 90.34 -8.12 L 90.25 -9.25 L 90.14 -10.38 L 90.02 -11.5 L 89.88 -12.62 L 89.73 -13.73 L 89.57 -14.83 L 89.4 -15.93 L 89.21 -17.03 L 89.01 -18.12 L 88.8 -19.2 L 88.57 -20.28 L 88.34 -21.35 L 88.08 -22.42 L 87.82 -23.48 L 87.54 -24.54 L 87.25 -25.59 L 86.95 -26.64 L 86.63 -27.68 L 86.3 -28.71 L 85.96 -29.74 L 85.6 -30.77 L 85.23 -31.79 L 84.85 -32.8 L 84.46 -33.81 L 84.05 -34.81 L 83.63 -35.81 L 83.2 -36.8 L 82.75 -37.79 L 82.29 -38.77 L 81.82 -39.75 L 81.33 -40.72 L 80.83 -41.69 L 80.32 -42.65 L 79.8 -43.6 L 79.26 -44.55 L 78.71 -45.5 L 78.15 -46.44 L 77.57 -47.37 L 76.98 -48.3 L 76.38 -49.22 L 75.76 -50.14 L 75.13 -51.05 L 74.49 -51.96 L 73.84 -52.86 L 73.17 -53.76 L 72.49 -54.65 L 71.8 -55.54 L 71.09 -56.42 L 70.37 -57.29 L 69.64 -58.16 L 68.89 -59.03 L 68.14 -59.88 L 67.36 -60.74 L 66.58 -61.59 L 65.78 -62.43 L 64.97 -63.27 L 64.15 -64.1 L 63.32 -64.92 L 62.48 -65.73 L 61.64 -66.52 L 60.79 -67.3 L 59.94 -68.07 L 59.08 -68.83 L 58.22 -69.57 L 57.35 -70.3 L 56.48 -71.02 L 55.6 -71.72 L 54.72 -72.41 L 53.83 -73.09 L 52.93 -73.75 L 52.03 -74.41 L 51.13 -75.05 L 50.22 -75.67 L 49.3 -76.29 L 48.38 -76.89 L 47.45 -77.47 L 46.52 -78.05 L 45.58 -78.61 L 44.64 -79.16 L 43.69 -79.69 L 42.73 -80.22 L 41.77 -80.73 L 40.81 -81.23 L 39.84 -81.71 L 38.86 -82.18 L 37.88 -82.64 L 36.9 -83.09 L 35.91 -83.52 L 34.91 -83.94 L 33.91 -84.34 L 32.9 -84.74 L 31.89 -85.12 L 30.87 -85.49 L 29.85 -85.84 L 28.82 -86.18 L 27.78 -86.51 L 26.74 -86.83 L 25.7 -87.13 L 24.65 -87.42 L 23.59 -87.7 L 22.53 -87.97 L 21.47 -88.22 L 20.4 -88.46 L 19.32 -88.68 L 18.24 -88.9 L 17.15 -89.1 L 16.06 -89.28 L 14.96 -89.46 L 13.85 -89.62 L 12.74 -89.77 L 11.63 -89.9 L 10.51 -90.03 L 9.38 -90.14 L 8.25 -90.23 L 7.12 -90.32 L 5.98 -90.39 L 4.83 -90.45 L 3.68 -90.49 L 2.52 -90.52 L 1.36 -90.54 L 0.19 -90.55 L 0.05 -90.55 L -0.09 -90.55 Z"/>
    </clipPath>
    <g clip-path="url(#clipPath0)">
      <use ffdec:characterId="550" height="181.1" transform="matrix(1.0, 0.0, 0.0, 1.0, -90.7, -90.55)" width="181.35" xlink:href="#morphshape1"/>
    </g>
  </g>
  <defs>
    <g id="morphshape0" transform="matrix(1.0, 0.0, 0.0, 1.0, 90.7, 90.55)">
      <path d="M-90.7 -0.05 Q-90.7 37.55 -64.15 64.15 -37.55 90.65 0.05 90.55 37.6 90.65 64.15 64.15 90.7 37.55 90.65 -0.05 90.7 -37.55 64.15 -64.1 37.6 -90.6 0.05 -90.55 -37.55 -90.6 -64.15 -64.1 -90.7 -37.55 -90.7 -0.05" fill="#ffffff" fill-rule="evenodd" stroke="none"/>
      <path d="M-90.7 -0.05 Q-90.7 -37.55 -64.15 -64.1 -37.55 -90.6 0.05 -90.55 37.6 -90.6 64.15 -64.1 90.7 -37.55 90.65 -0.05 90.7 37.55 64.15 64.15 37.6 90.65 0.05 90.55 -37.55 90.65 -64.15 64.15 -90.7 37.55 -90.7 -0.05 Z" ffdec:has-small-stroke="true" ffdec:original-stroke-width="0.0" fill="none" stroke="#000000" stroke-linecap="round" stroke-linejoin="round" stroke-opacity="0.0" stroke-width="1.0"/>
    </g>
    <g id="morphshape1" transform="matrix(1.0, 0.0, 0.0, 1.0, 90.7, 90.55)">
      <path d="M-90.7 -0.05 Q-90.7 37.55 -64.15 64.15 -37.55 90.65 0.05 90.55 37.6 90.65 64.15 64.15 90.7 37.55 90.65 -0.05 90.7 -37.55 64.15 -64.1 37.6 -90.6 0.05 -90.55 -37.55 -90.6 -64.15 -64.1 -90.7 -37.55 -90.7 -0.05" fill="url(#gradient0)" fill-rule="evenodd" stroke="none"/>
      <path d="M-90.7 -0.05 Q-90.7 -37.55 -64.15 -64.1 -37.55 -90.6 0.05 -90.55 37.6 -90.6 64.15 -64.1 90.7 -37.55 90.65 -0.05 90.7 37.55 64.15 64.15 37.6 90.65 0.05 90.55 -37.55 90.65 -64.15 64.15 -90.7 37.55 -90.7 -0.05 Z" ffdec:has-small-stroke="true" ffdec:original-stroke-width="0.0" fill="none" stroke="#000000" stroke-linecap="round" stroke-linejoin="round" stroke-opacity="0.0" stroke-width="1.0"/>
    </g>
    <radialGradient cx="0" cy="0" gradientTransform="matrix(0.1277, 0.0, 0.0, 0.1275, 0.8, 0.15)" gradientUnits="userSpaceOnUse" id="gradient0" r="819.2" spreadMethod="pad">
      <stop offset="0.0" stop-color="#ffffff"/>
      <stop offset="0.807843137254902" stop-color="#ffffff"/>
      <stop offset="0.9254901960784314" stop-color="#ffff00"/>
      <stop offset="1.0" stop-color="#ff0000"/>
    </radialGradient>
  </defs>
</svg>
