<?xml version="1.0" encoding="UTF-8" standalone="no"?>
<svg xmlns:ffdec="https://www.free-decompiler.com/flash" xmlns:xlink="http://www.w3.org/1999/xlink" ffdec:objectType="frame" height="220.3px" width="226.55px" xmlns="http://www.w3.org/2000/svg">
  <g transform="matrix(1.0, 0.0, 0.0, 1.0, 108.95, 112.25)">
    <use ffdec:characterId="551" height="181.1" transform="matrix(1.0, 0.0, 0.0, 1.0, -90.7, -90.55)" width="181.35" xlink:href="#morphshape0"/>
    <clipPath id="clipPath0">
      <path d="M 3.85 -17.75 L 4.32 -17.74 L 4.78 -17.73 L 5.24 -17.7 L 5.69 -17.67 L 6.14 -17.62 L 6.58 -17.57 L 7.02 -17.5 L 7.46 -17.42 L 7.89 -17.33 L 8.32 -17.24 L 8.74 -17.13 L 9.16 -17.01 L 9.57 -16.88 L 9.98 -16.75 L 10.39 -16.6 L 10.79 -16.44 L 11.18 -16.27 L 11.58 -16.09 L 11.96 -15.9 L 12.35 -15.7 L 12.72 -15.49 L 13.1 -15.27 L 13.47 -15.04 L 13.83 -14.8 L 14.2 -14.55 L 14.55 -14.28 L 14.9 -14.01 L 15.25 -13.73 L 15.6 -13.44 L 15.93 -13.14 L 16.27 -12.82 L 16.6 -12.5 L 16.93 -12.17 L 17.24 -11.83 L 17.55 -11.49 L 17.84 -11.14 L 18.13 -10.79 L 18.4 -10.44 L 18.67 -10.08 L 18.92 -9.72 L 19.16 -9.35 L 19.39 -8.98 L 19.62 -8.6 L 19.83 -8.22 L 20.03 -7.84 L 20.22 -7.45 L 20.4 -7.06 L 20.58 -6.66 L 20.74 -6.26 L 20.89 -5.86 L 21.03 -5.45 L 21.15 -5.04 L 21.27 -4.62 L 21.38 -4.2 L 21.48 -3.77 L 21.57 -3.34 L 21.65 -2.91 L 21.71 -2.47 L 21.77 -2.03 L 21.82 -1.58 L 21.85 -1.13 L 21.88 -0.67 L 21.89 -0.21 L 21.9 0.25 L 21.89 0.72 L 21.88 1.18 L 21.85 1.64 L 21.82 2.09 L 21.77 2.54 L 21.71 2.98 L 21.65 3.42 L 21.57 3.86 L 21.48 4.29 L 21.38 4.72 L 21.27 5.14 L 21.15 5.56 L 21.03 5.97 L 20.89 6.38 L 20.74 6.79 L 20.58 7.19 L 20.4 7.58 L 20.22 7.98 L 20.03 8.36 L 19.83 8.75 L 19.62 9.12 L 19.39 9.5 L 19.16 9.87 L 18.92 10.23 L 18.67 10.6 L 18.4 10.95 L 18.13 11.3 L 17.84 11.65 L 17.55 12 L 17.24 12.33 L 16.93 12.67 L 16.6 13 L 16.27 13.33 L 15.93 13.64 L 15.6 13.95 L 15.25 14.24 L 14.9 14.53 L 14.55 14.8 L 14.2 15.07 L 13.83 15.32 L 13.47 15.56 L 13.1 15.79 L 12.72 16.02 L 12.35 16.23 L 11.96 16.43 L 11.58 16.62 L 11.18 16.8 L 10.79 16.98 L 10.39 17.14 L 9.98 17.29 L 9.57 17.43 L 9.16 17.55 L 8.74 17.67 L 8.32 17.78 L 7.89 17.88 L 7.46 17.97 L 7.02 18.05 L 6.58 18.11 L 6.14 18.17 L 5.69 18.22 L 5.24 18.25 L 4.78 18.28 L 4.32 18.29 L 3.85 18.3 L 3.38 18.29 L 2.92 18.28 L 2.46 18.25 L 2.01 18.22 L 1.56 18.17 L 1.11 18.11 L 0.67 18.05 L 0.24 17.97 L -0.19 17.88 L -0.62 17.78 L -1.05 17.67 L -1.47 17.55 L -1.88 17.43 L -2.29 17.29 L -2.7 17.14 L -3.1 16.98 L -3.5 16.8 L -3.89 16.62 L -4.28 16.43 L -4.67 16.23 L -5.05 16.02 L -5.42 15.79 L -5.79 15.56 L -6.16 15.32 L -6.53 15.07 L -6.89 14.8 L -7.24 14.53 L -7.59 14.24 L -7.94 13.95 L -8.28 13.64 L -8.62 13.33 L -8.95 13 L -9.27 12.67 L -9.59 12.33 L -9.89 12 L -10.18 11.65 L -10.46 11.3 L -10.73 10.95 L -11 10.6 L -11.25 10.23 L -11.49 9.87 L -11.72 9.5 L -11.94 9.12 L -12.15 8.75 L -12.35 8.36 L -12.54 7.98 L -12.72 7.58 L -12.89 7.19 L -13.05 6.79 L -13.2 6.38 L -13.33 5.97 L -13.46 5.56 L -13.58 5.14 L -13.69 4.72 L -13.78 4.29 L -13.87 3.86 L -13.95 3.42 L -14.02 2.98 L -14.07 2.54 L -14.12 2.09 L -14.15 1.64 L -14.18 1.18 L -14.19 0.72 L -14.2 0.25 L -14.19 -0.21 L -14.18 -0.67 L -14.15 -1.13 L -14.12 -1.58 L -14.07 -2.03 L -14.02 -2.47 L -13.95 -2.91 L -13.87 -3.34 L -13.78 -3.77 L -13.69 -4.2 L -13.58 -4.62 L -13.46 -5.04 L -13.33 -5.45 L -13.2 -5.86 L -13.05 -6.26 L -12.89 -6.66 L -12.72 -7.06 L -12.54 -7.45 L -12.35 -7.84 L -12.15 -8.22 L -11.94 -8.6 L -11.72 -8.98 L -11.49 -9.35 L -11.25 -9.72 L -11 -10.08 L -10.73 -10.44 L -10.46 -10.79 L -10.18 -11.14 L -9.89 -11.49 L -9.59 -11.83 L -9.27 -12.17 L -8.95 -12.5 L -8.62 -12.82 L -8.28 -13.14 L -7.94 -13.44 L -7.59 -13.73 L -7.24 -14.01 L -6.89 -14.28 L -6.53 -14.55 L -6.16 -14.8 L -5.79 -15.04 L -5.42 -15.27 L -5.05 -15.49 L -4.67 -15.7 L -4.28 -15.9 L -3.89 -16.09 L -3.5 -16.27 L -3.1 -16.44 L -2.7 -16.6 L -2.29 -16.75 L -1.88 -16.88 L -1.47 -17.01 L -1.05 -17.13 L -0.62 -17.24 L -0.19 -17.33 L 0.24 -17.42 L 0.67 -17.5 L 1.11 -17.57 L 1.56 -17.62 L 2.01 -17.67 L 2.46 -17.7 L 2.92 -17.73 L 3.38 -17.74 L 3.85 -17.75 Z M 2.46 -92.2 L 1.27 -92.19 L 0.09 -92.17 L -1.09 -92.14 L -2.26 -92.1 L -3.43 -92.04 L -4.59 -91.97 L -5.75 -91.88 L -6.9 -91.78 L -8.05 -91.67 L -9.19 -91.55 L -10.33 -91.41 L -11.46 -91.26 L -12.59 -91.1 L -13.71 -90.92 L -14.83 -90.74 L -15.94 -90.53 L -17.05 -90.32 L -18.15 -90.09 L -19.25 -89.85 L -20.34 -89.6 L -21.43 -89.33 L -22.51 -89.05 L -23.59 -88.76 L -24.67 -88.45 L -25.73 -88.13 L -26.8 -87.8 L -27.86 -87.46 L -28.91 -87.1 L -29.96 -86.73 L -31 -86.34 L -32.04 -85.95 L -33.07 -85.54 L -34.1 -85.11 L -35.13 -84.68 L -36.15 -84.23 L -37.16 -83.77 L -38.17 -83.29 L -39.17 -82.8 L -40.17 -82.3 L -41.17 -81.79 L -42.16 -81.26 L -43.14 -80.72 L -44.12 -80.17 L -45.1 -79.6 L -46.06 -79.02 L -47.03 -78.43 L -47.99 -77.83 L -48.94 -77.21 L -49.89 -76.58 L -50.84 -75.93 L -51.78 -75.28 L -52.71 -74.61 L -53.64 -73.92 L -54.57 -73.23 L -55.49 -72.52 L -56.41 -71.8 L -57.32 -71.06 L -58.22 -70.31 L -59.12 -69.55 L -60.02 -68.78 L -60.91 -67.99 L -61.79 -67.19 L -62.67 -66.38 L -63.55 -65.55 L -64.42 -64.71 L -65.27 -63.87 L -66.11 -63.01 L -66.93 -62.16 L -67.75 -61.29 L -68.54 -60.42 L -69.33 -59.55 L -70.1 -58.67 L -70.86 -57.78 L -71.6 -56.89 L -72.33 -55.99 L -73.05 -55.08 L -73.75 -54.17 L -74.44 -53.25 L -75.11 -52.33 L -75.77 -51.4 L -76.42 -50.46 L -77.05 -49.52 L -77.67 -48.57 L -78.28 -47.62 L -78.87 -46.65 L -79.45 -45.69 L -80.02 -44.72 L -80.57 -43.74 L -81.11 -42.75 L -81.63 -41.76 L -82.14 -40.76 L -82.64 -39.76 L -83.12 -38.75 L -83.59 -37.74 L -84.05 -36.71 L -84.49 -35.69 L -84.92 -34.65 L -85.33 -33.61 L -85.73 -32.57 L -86.12 -31.52 L -86.49 -30.46 L -86.85 -29.4 L -87.2 -28.33 L -87.53 -27.25 L -87.85 -26.17 L -88.15 -25.08 L -88.45 -23.98 L -88.72 -22.88 L -88.99 -21.78 L -89.24 -20.67 L -89.47 -19.55 L -89.7 -18.42 L -89.91 -17.29 L -90.1 -16.15 L -90.28 -15.01 L -90.45 -13.86 L -90.61 -12.71 L -90.75 -11.55 L -90.87 -10.38 L -90.99 -9.21 L -91.09 -8.03 L -91.17 -6.84 L -91.24 -5.65 L -91.3 -4.45 L -91.35 -3.25 L -91.38 -2.04 L -91.4 -0.82 L -91.4 0.4 L -91.45 0.5 L -91.44 1.72 L -91.42 2.94 L -91.38 4.16 L -91.33 5.36 L -91.26 6.56 L -91.19 7.75 L -91.1 8.94 L -90.99 10.12 L -90.87 11.29 L -90.74 12.46 L -90.59 13.62 L -90.44 14.77 L -90.26 15.92 L -90.08 17.06 L -89.88 18.19 L -89.66 19.32 L -89.44 20.44 L -89.19 21.55 L -88.94 22.66 L -88.67 23.76 L -88.39 24.86 L -88.1 25.95 L -87.79 27.03 L -87.47 28.1 L -87.13 29.17 L -86.78 30.24 L -86.42 31.29 L -86.04 32.34 L -85.65 33.38 L -85.25 34.42 L -84.83 35.45 L -84.4 36.47 L -83.96 37.49 L -83.5 38.5 L -83.03 39.51 L -82.54 40.5 L -82.04 41.5 L -81.53 42.48 L -81 43.46 L -80.47 44.43 L -79.91 45.39 L -79.35 46.35 L -78.77 47.31 L -78.17 48.25 L -77.57 49.19 L -76.94 50.12 L -76.31 51.05 L -75.66 51.97 L -75 52.88 L -74.33 53.79 L -73.64 54.69 L -72.94 55.58 L -72.22 56.47 L -71.49 57.35 L -70.75 58.22 L -69.99 59.09 L -69.22 59.95 L -68.44 60.81 L -67.64 61.66 L -66.83 62.5 L -66 63.33 L -65.17 64.16 L -64.32 64.98 L -63.45 65.8 L -62.58 66.6 L -61.7 67.39 L -60.82 68.16 L -59.94 68.92 L -59.05 69.67 L -58.15 70.41 L -57.25 71.14 L -56.34 71.85 L -55.43 72.55 L -54.52 73.23 L -53.6 73.91 L -52.67 74.57 L -51.74 75.22 L -50.8 75.85 L -49.86 76.48 L -48.92 77.09 L -47.97 77.69 L -47.01 78.27 L -46.05 78.85 L -45.09 79.41 L -44.12 79.95 L -43.14 80.49 L -42.16 81.01 L -41.18 81.52 L -40.18 82.02 L -39.19 82.5 L -38.19 82.98 L -37.18 83.44 L -36.17 83.88 L -35.16 84.32 L -34.14 84.74 L -33.11 85.15 L -32.08 85.55 L -31.05 85.93 L -30.01 86.3 L -28.96 86.66 L -27.92 87.01 L -26.86 87.34 L -25.8 87.66 L -24.74 87.97 L -23.67 88.27 L -22.59 88.55 L -21.51 88.82 L -20.43 89.08 L -19.34 89.33 L -18.24 89.56 L -17.14 89.78 L -16.04 89.99 L -14.93 90.18 L -13.82 90.37 L -12.7 90.54 L -11.57 90.69 L -10.44 90.84 L -9.31 90.97 L -8.17 91.09 L -7.03 91.2 L -5.88 91.29 L -4.72 91.37 L -3.56 91.44 L -2.4 91.5 L -1.23 91.54 L -0.06 91.58 L 1.12 91.59 L 2.31 91.6 L 2.6 91.6 L 2.88 91.6 L 4.06 91.59 L 5.24 91.57 L 6.41 91.54 L 7.58 91.5 L 8.74 91.44 L 9.89 91.36 L 11.04 91.28 L 12.19 91.18 L 13.33 91.07 L 14.46 90.95 L 15.59 90.81 L 16.71 90.66 L 17.83 90.49 L 18.94 90.32 L 20.05 90.13 L 21.15 89.93 L 22.24 89.71 L 23.34 89.48 L 24.42 89.24 L 25.5 88.98 L 26.57 88.71 L 27.64 88.43 L 28.71 88.14 L 29.76 87.83 L 30.82 87.51 L 31.86 87.18 L 32.91 86.83 L 33.94 86.47 L 34.97 86.1 L 36 85.71 L 37.02 85.31 L 38.03 84.9 L 39.04 84.47 L 40.05 84.04 L 41.04 83.59 L 42.04 83.12 L 43.03 82.64 L 44.01 82.15 L 44.98 81.65 L 45.96 81.13 L 46.92 80.6 L 47.88 80.06 L 48.84 79.5 L 49.79 78.93 L 50.73 78.35 L 51.67 77.76 L 52.6 77.15 L 53.53 76.53 L 54.46 75.89 L 55.37 75.24 L 56.29 74.58 L 57.19 73.91 L 58.09 73.22 L 58.99 72.52 L 59.88 71.81 L 60.76 71.08 L 61.64 70.34 L 62.52 69.59 L 63.39 68.82 L 64.25 68.05 L 65.11 67.25 L 65.96 66.45 L 66.81 65.63 L 67.65 64.8 L 68.49 63.95 L 69.31 63.1 L 70.12 62.24 L 70.91 61.38 L 71.7 60.51 L 72.47 59.64 L 73.22 58.76 L 73.97 57.88 L 74.7 56.99 L 75.41 56.09 L 76.12 55.19 L 76.81 54.28 L 77.48 53.37 L 78.15 52.45 L 78.8 51.53 L 79.44 50.6 L 80.06 49.67 L 80.67 48.73 L 81.27 47.79 L 81.86 46.84 L 82.43 45.88 L 82.99 44.92 L 83.53 43.95 L 84.07 42.98 L 84.58 42 L 85.09 41.02 L 85.58 40.03 L 86.06 39.04 L 86.53 38.04 L 86.98 37.04 L 87.42 36.03 L 87.85 35.01 L 88.26 33.99 L 88.66 32.97 L 89.05 31.93 L 89.43 30.9 L 89.79 29.85 L 90.13 28.81 L 90.47 27.75 L 90.79 26.69 L 91.1 25.63 L 91.39 24.56 L 91.68 23.49 L 91.94 22.4 L 92.2 21.32 L 92.44 20.23 L 92.67 19.13 L 92.89 18.03 L 93.09 16.92 L 93.28 15.81 L 93.46 14.69 L 93.62 13.56 L 93.77 12.43 L 93.91 11.3 L 94.03 10.16 L 94.14 9.01 L 94.24 7.86 L 94.32 6.71 L 94.39 5.54 L 94.45 4.38 L 94.5 3.2 L 94.53 2.02 L 94.54 0.84 L 94.55 -0.35 L 94.54 -1.54 L 94.53 -2.72 L 94.5 -3.89 L 94.45 -5.06 L 94.39 -6.23 L 94.32 -7.39 L 94.24 -8.54 L 94.14 -9.69 L 94.03 -10.83 L 93.91 -11.97 L 93.77 -13.1 L 93.62 -14.23 L 93.46 -15.35 L 93.28 -16.47 L 93.09 -17.58 L 92.89 -18.68 L 92.67 -19.78 L 92.44 -20.88 L 92.2 -21.96 L 91.94 -23.05 L 91.68 -24.13 L 91.39 -25.2 L 91.1 -26.26 L 90.79 -27.33 L 90.47 -28.38 L 90.13 -29.43 L 89.79 -30.48 L 89.43 -31.52 L 89.05 -32.55 L 88.66 -33.58 L 88.26 -34.61 L 87.85 -35.62 L 87.42 -36.64 L 86.98 -37.65 L 86.53 -38.65 L 86.06 -39.64 L 85.58 -40.64 L 85.09 -41.62 L 84.58 -42.6 L 84.07 -43.58 L 83.53 -44.55 L 82.99 -45.51 L 82.43 -46.47 L 81.86 -47.42 L 81.27 -48.37 L 80.67 -49.31 L 80.06 -50.25 L 79.44 -51.18 L 78.8 -52.11 L 78.15 -53.03 L 77.48 -53.94 L 76.81 -54.85 L 76.12 -55.76 L 75.41 -56.66 L 74.7 -57.55 L 73.97 -58.44 L 73.22 -59.32 L 72.47 -60.2 L 71.7 -61.07 L 70.91 -61.94 L 70.12 -62.8 L 69.31 -63.65 L 68.49 -64.51 L 67.65 -65.35 L 66.81 -66.18 L 65.96 -67 L 65.1 -67.81 L 64.24 -68.6 L 63.38 -69.38 L 62.51 -70.15 L 61.63 -70.9 L 60.75 -71.64 L 59.86 -72.37 L 58.97 -73.09 L 58.07 -73.79 L 57.17 -74.47 L 56.26 -75.15 L 55.35 -75.81 L 54.43 -76.46 L 53.51 -77.1 L 52.58 -77.72 L 51.64 -78.33 L 50.7 -78.93 L 49.75 -79.51 L 48.8 -80.08 L 47.84 -80.64 L 46.88 -81.18 L 45.91 -81.71 L 44.94 -82.23 L 43.96 -82.73 L 42.98 -83.23 L 41.99 -83.7 L 40.99 -84.17 L 39.99 -84.62 L 38.98 -85.06 L 37.97 -85.49 L 36.96 -85.9 L 35.93 -86.3 L 34.91 -86.69 L 33.87 -87.06 L 32.83 -87.42 L 31.79 -87.77 L 30.74 -88.1 L 29.69 -88.42 L 28.63 -88.73 L 27.56 -89.03 L 26.49 -89.31 L 25.41 -89.58 L 24.33 -89.83 L 23.24 -90.08 L 22.15 -90.31 L 21.05 -90.52 L 19.95 -90.73 L 18.84 -90.92 L 17.72 -91.09 L 16.6 -91.26 L 15.48 -91.41 L 14.35 -91.54 L 13.21 -91.67 L 12.07 -91.78 L 10.92 -91.88 L 9.77 -91.96 L 8.61 -92.04 L 7.45 -92.1 L 6.28 -92.14 L 5.11 -92.17 L 3.93 -92.19 L 2.74 -92.2 L 2.6 -92.2 L 2.46 -92.2 Z"/>
    </clipPath>
    <g clip-path="url(#clipPath0)">
      <use ffdec:characterId="550" height="181.1" transform="matrix(1.0, 0.0, 0.0, 1.0, -90.7, -90.55)" width="181.35" xlink:href="#morphshape1"/>
    </g>
  </g>
  <defs>
    <g id="morphshape0" transform="matrix(1.0, 0.0, 0.0, 1.0, 90.7, 90.55)">
      <path d="M-75.15 -0.05 Q-75.1 31.1 -53.15 53.15 -31.1 75.1 0.05 75.05 31.15 75.1 53.15 53.2 75.1 31.15 75.1 0.0 75.1 -31.05 53.15 -53.05 31.15 -75.0 0.05 -75.0 -31.1 -75.0 -53.15 -53.1 -75.1 -31.1 -75.1 -0.05" fill="#ffffff" fill-rule="evenodd" stroke="none"/>
      <path d="M-75.1 -0.05 Q-75.1 -31.1 -53.15 -53.1 -31.1 -75.0 0.05 -75.0 31.15 -75.0 53.15 -53.05 75.1 -31.05 75.1 0.0 75.1 31.15 53.15 53.2 31.15 75.1 0.05 75.05 -31.1 75.1 -53.15 53.15 -75.1 31.1 -75.15 -0.05" ffdec:has-small-stroke="true" ffdec:original-stroke-width="0.0" fill="none" stroke="#000000" stroke-linecap="round" stroke-linejoin="round" stroke-opacity="0.0" stroke-width="1.0"/>
    </g>
    <g id="morphshape1" transform="matrix(1.0, 0.0, 0.0, 1.0, 90.7, 90.55)">
      <path d="M-90.7 -0.05 Q-90.7 37.55 -64.15 64.15 -37.55 90.65 0.05 90.55 37.6 90.65 64.15 64.15 90.7 37.55 90.65 -0.05 90.7 -37.55 64.15 -64.1 37.6 -90.6 0.05 -90.55 -37.55 -90.6 -64.15 -64.1 -90.7 -37.55 -90.7 -0.05" fill="url(#gradient0)" fill-rule="evenodd" stroke="none"/>
      <path d="M-90.7 -0.05 Q-90.7 -37.55 -64.15 -64.1 -37.55 -90.6 0.05 -90.55 37.6 -90.6 64.15 -64.1 90.7 -37.55 90.65 -0.05 90.7 37.55 64.15 64.15 37.6 90.65 0.05 90.55 -37.55 90.65 -64.15 64.15 -90.7 37.55 -90.7 -0.05 Z" ffdec:has-small-stroke="true" ffdec:original-stroke-width="0.0" fill="none" stroke="#000000" stroke-linecap="round" stroke-linejoin="round" stroke-opacity="0.0" stroke-width="1.0"/>
    </g>
    <radialGradient cx="0" cy="0" gradientTransform="matrix(0.1264, 0.0, 0.0, 0.1263, 0.7, 0.0)" gradientUnits="userSpaceOnUse" id="gradient0" r="819.2" spreadMethod="pad">
      <stop offset="0.0" stop-color="#ffffff"/>
      <stop offset="0.7411764705882353" stop-color="#ffffff"/>
      <stop offset="0.8941176470588236" stop-color="#ffff00"/>
      <stop offset="1.0" stop-color="#ff0000"/>
    </radialGradient>
  </defs>
</svg>
