<?xml version="1.0" encoding="UTF-8" standalone="no"?>
<svg xmlns:ffdec="https://www.free-decompiler.com/flash" xmlns:xlink="http://www.w3.org/1999/xlink" ffdec:objectType="frame" height="220.3px" width="226.55px" xmlns="http://www.w3.org/2000/svg">
  <g transform="matrix(1.0, 0.0, 0.0, 1.0, 108.95, 112.25)">
    <use ffdec:characterId="551" height="181.1" transform="matrix(1.0, 0.0, 0.0, 1.0, -90.7, -90.55)" width="181.35" xlink:href="#morphshape0"/>
    <clipPath id="clipPath0">
      <path d="M 7.2 -30.15 L 7.98 -30.14 L 8.75 -30.12 L 9.52 -30.07 L 10.28 -30.01 L 11.03 -29.93 L 11.78 -29.84 L 12.51 -29.73 L 13.24 -29.6 L 13.97 -29.45 L 14.68 -29.29 L 15.39 -29.1 L 16.09 -28.91 L 16.79 -28.69 L 17.47 -28.46 L 18.15 -28.21 L 18.83 -27.94 L 19.49 -27.65 L 20.15 -27.35 L 20.8 -27.03 L 21.44 -26.69 L 22.08 -26.34 L 22.71 -25.97 L 23.33 -25.58 L 23.94 -25.17 L 24.55 -24.75 L 25.15 -24.31 L 25.74 -23.85 L 26.33 -23.37 L 26.91 -22.88 L 27.48 -22.37 L 28.04 -21.84 L 28.6 -21.3 L 29.15 -20.74 L 29.68 -20.17 L 30.19 -19.6 L 30.69 -19.02 L 31.16 -18.43 L 31.62 -17.83 L 32.07 -17.23 L 32.49 -16.62 L 32.9 -16.01 L 33.29 -15.38 L 33.67 -14.75 L 34.02 -14.11 L 34.36 -13.47 L 34.68 -12.81 L 34.99 -12.15 L 35.28 -11.49 L 35.54 -10.81 L 35.8 -10.13 L 36.03 -9.44 L 36.25 -8.75 L 36.45 -8.05 L 36.63 -7.34 L 36.8 -6.62 L 36.94 -5.9 L 37.07 -5.17 L 37.19 -4.43 L 37.28 -3.68 L 37.36 -2.93 L 37.42 -2.17 L 37.47 -1.4 L 37.49 -0.63 L 37.5 0.15 L 37.49 0.93 L 37.47 1.7 L 37.42 2.47 L 37.36 3.23 L 37.28 3.98 L 37.19 4.73 L 37.07 5.47 L 36.94 6.2 L 36.8 6.92 L 36.63 7.64 L 36.45 8.35 L 36.25 9.05 L 36.03 9.74 L 35.8 10.43 L 35.54 11.11 L 35.28 11.79 L 34.99 12.45 L 34.68 13.11 L 34.36 13.77 L 34.02 14.41 L 33.67 15.05 L 33.29 15.68 L 32.9 16.31 L 32.49 16.92 L 32.07 17.53 L 31.62 18.13 L 31.16 18.73 L 30.69 19.32 L 30.19 19.9 L 29.68 20.47 L 29.15 21.04 L 28.6 21.6 L 28.04 22.14 L 27.48 22.67 L 26.91 23.18 L 26.33 23.67 L 25.74 24.15 L 25.15 24.61 L 24.55 25.05 L 23.94 25.47 L 23.33 25.88 L 22.71 26.27 L 22.08 26.64 L 21.44 26.99 L 20.8 27.33 L 20.15 27.65 L 19.49 27.95 L 18.83 28.24 L 18.15 28.51 L 17.47 28.76 L 16.79 28.99 L 16.09 29.21 L 15.39 29.4 L 14.68 29.59 L 13.97 29.75 L 13.24 29.9 L 12.51 30.03 L 11.78 30.14 L 11.03 30.23 L 10.28 30.31 L 9.52 30.37 L 8.75 30.42 L 7.98 30.44 L 7.2 30.45 L 6.42 30.44 L 5.65 30.42 L 4.88 30.37 L 4.12 30.31 L 3.37 30.23 L 2.62 30.14 L 1.88 30.03 L 1.15 29.9 L 0.43 29.75 L -0.29 29.59 L -1 29.4 L -1.7 29.21 L -2.39 28.99 L -3.08 28.76 L -3.76 28.51 L -4.44 28.24 L -5.1 27.95 L -5.76 27.65 L -6.42 27.33 L -7.06 26.99 L -7.7 26.64 L -8.33 26.27 L -8.96 25.88 L -9.57 25.47 L -10.18 25.05 L -10.78 24.61 L -11.38 24.15 L -11.97 23.67 L -12.55 23.18 L -13.12 22.67 L -13.69 22.14 L -14.25 21.6 L -14.79 21.04 L -15.32 20.47 L -15.83 19.9 L -16.32 19.32 L -16.8 18.73 L -17.26 18.13 L -17.7 17.53 L -18.12 16.92 L -18.53 16.31 L -18.92 15.68 L -19.29 15.05 L -19.64 14.41 L -19.98 13.77 L -20.3 13.11 L -20.6 12.45 L -20.89 11.79 L -21.16 11.11 L -21.41 10.43 L -21.64 9.74 L -21.86 9.05 L -22.05 8.35 L -22.24 7.64 L -22.4 6.92 L -22.55 6.2 L -22.68 5.47 L -22.79 4.73 L -22.88 3.98 L -22.96 3.23 L -23.02 2.47 L -23.07 1.7 L -23.09 0.93 L -23.1 0.15 L -23.09 -0.63 L -23.07 -1.4 L -23.02 -2.17 L -22.96 -2.93 L -22.88 -3.68 L -22.79 -4.43 L -22.68 -5.17 L -22.55 -5.9 L -22.4 -6.62 L -22.24 -7.34 L -22.05 -8.05 L -21.86 -8.75 L -21.64 -9.44 L -21.41 -10.13 L -21.16 -10.81 L -20.89 -11.49 L -20.6 -12.15 L -20.3 -12.81 L -19.98 -13.47 L -19.64 -14.11 L -19.29 -14.75 L -18.92 -15.38 L -18.53 -16.01 L -18.12 -16.62 L -17.7 -17.23 L -17.26 -17.83 L -16.8 -18.43 L -16.32 -19.02 L -15.83 -19.6 L -15.32 -20.17 L -14.79 -20.74 L -14.25 -21.3 L -13.69 -21.84 L -13.12 -22.37 L -12.55 -22.88 L -11.97 -23.37 L -11.38 -23.85 L -10.78 -24.31 L -10.18 -24.75 L -9.57 -25.17 L -8.96 -25.58 L -8.33 -25.97 L -7.7 -26.34 L -7.06 -26.69 L -6.42 -27.03 L -5.76 -27.35 L -5.1 -27.65 L -4.44 -27.94 L -3.76 -28.21 L -3.08 -28.46 L -2.39 -28.69 L -1.7 -28.91 L -1 -29.1 L -0.29 -29.29 L 0.43 -29.45 L 1.15 -29.6 L 1.88 -29.73 L 2.62 -29.84 L 3.37 -29.93 L 4.12 -30.01 L 4.88 -30.07 L 5.65 -30.12 L 6.42 -30.14 L 7.2 -30.15 Z M 5.01 -93.8 L 3.8 -93.79 L 2.61 -93.77 L 1.41 -93.74 L 0.22 -93.7 L -0.96 -93.64 L -2.14 -93.56 L -3.32 -93.48 L -4.49 -93.38 L -5.66 -93.27 L -6.82 -93.15 L -7.98 -93.01 L -9.13 -92.86 L -10.28 -92.69 L -11.42 -92.52 L -12.56 -92.33 L -13.7 -92.13 L -14.83 -91.91 L -15.96 -91.68 L -17.08 -91.44 L -18.19 -91.18 L -19.31 -90.91 L -20.42 -90.63 L -21.52 -90.34 L -22.62 -90.03 L -23.71 -89.71 L -24.8 -89.38 L -25.89 -89.03 L -26.97 -88.67 L -28.05 -88.3 L -29.12 -87.91 L -30.19 -87.51 L -31.25 -87.1 L -32.31 -86.67 L -33.36 -86.24 L -34.41 -85.78 L -35.46 -85.32 L -36.5 -84.84 L -37.54 -84.35 L -38.57 -83.85 L -39.6 -83.33 L -40.62 -82.8 L -41.64 -82.26 L -42.65 -81.7 L -43.66 -81.13 L -44.66 -80.55 L -45.66 -79.96 L -46.66 -79.35 L -47.65 -78.73 L -48.64 -78.09 L -49.62 -77.44 L -50.6 -76.78 L -51.57 -76.11 L -52.54 -75.42 L -53.5 -74.72 L -54.46 -74.01 L -55.42 -73.28 L -56.37 -72.54 L -57.32 -71.79 L -58.26 -71.02 L -59.2 -70.25 L -60.13 -69.45 L -61.06 -68.65 L -61.98 -67.83 L -62.9 -67 L -63.81 -66.16 L -64.71 -65.31 L -65.59 -64.45 L -66.46 -63.58 L -67.31 -62.71 L -68.15 -61.83 L -68.98 -60.95 L -69.79 -60.06 L -70.58 -59.16 L -71.37 -58.25 L -72.13 -57.34 L -72.89 -56.42 L -73.62 -55.49 L -74.35 -54.56 L -75.06 -53.62 L -75.75 -52.67 L -76.43 -51.72 L -77.1 -50.76 L -77.75 -49.79 L -78.39 -48.82 L -79.01 -47.84 L -79.62 -46.85 L -80.21 -45.86 L -80.79 -44.86 L -81.36 -43.85 L -81.91 -42.83 L -82.45 -41.81 L -82.97 -40.78 L -83.48 -39.75 L -83.97 -38.71 L -84.45 -37.66 L -84.91 -36.6 L -85.36 -35.54 L -85.8 -34.47 L -86.22 -33.39 L -86.63 -32.31 L -87.02 -31.22 L -87.39 -30.12 L -87.76 -29.02 L -88.11 -27.91 L -88.44 -26.79 L -88.76 -25.66 L -89.07 -24.53 L -89.36 -23.4 L -89.63 -22.25 L -89.9 -21.1 L -90.14 -19.94 L -90.38 -18.77 L -90.6 -17.6 L -90.8 -16.42 L -90.99 -15.24 L -91.17 -14.05 L -91.33 -12.85 L -91.48 -11.64 L -91.61 -10.43 L -91.73 -9.21 L -91.83 -7.98 L -91.92 -6.75 L -91.99 -5.51 L -92.05 -4.26 L -92.1 -3 L -92.13 -1.74 L -92.15 -0.47 L -92.15 0.8 L -92.1 0.75 L -92.09 2.03 L -92.06 3.3 L -92.02 4.56 L -91.97 5.81 L -91.9 7.06 L -91.82 8.3 L -91.72 9.53 L -91.61 10.76 L -91.48 11.97 L -91.34 13.18 L -91.19 14.38 L -91.02 15.58 L -90.84 16.76 L -90.64 17.94 L -90.43 19.11 L -90.21 20.27 L -89.97 21.43 L -89.72 22.58 L -89.45 23.72 L -89.17 24.85 L -88.87 25.98 L -88.56 27.09 L -88.24 28.2 L -87.9 29.31 L -87.55 30.4 L -87.18 31.49 L -86.8 32.57 L -86.41 33.64 L -86 34.7 L -85.58 35.76 L -85.14 36.81 L -84.69 37.85 L -84.22 38.88 L -83.74 39.91 L -83.25 40.93 L -82.74 41.94 L -82.22 42.94 L -81.68 43.94 L -81.13 44.93 L -80.56 45.91 L -79.99 46.88 L -79.39 47.84 L -78.78 48.8 L -78.16 49.75 L -77.53 50.69 L -76.88 51.63 L -76.21 52.56 L -75.53 53.47 L -74.84 54.39 L -74.13 55.29 L -73.41 56.19 L -72.68 57.08 L -71.93 57.96 L -71.17 58.83 L -70.39 59.7 L -69.6 60.56 L -68.79 61.41 L -67.97 62.25 L -67.14 63.09 L -66.29 63.91 L -65.42 64.73 L -64.55 65.55 L -63.66 66.35 L -62.75 67.15 L -61.84 67.93 L -60.92 68.7 L -60 69.46 L -59.07 70.21 L -58.14 70.94 L -57.21 71.66 L -56.27 72.37 L -55.32 73.07 L -54.37 73.75 L -53.42 74.42 L -52.46 75.08 L -51.5 75.73 L -50.53 76.37 L -49.56 76.99 L -48.58 77.6 L -47.6 78.2 L -46.61 78.78 L -45.62 79.36 L -44.63 79.92 L -43.63 80.47 L -42.63 81 L -41.62 81.53 L -40.6 82.04 L -39.59 82.54 L -38.57 83.02 L -37.54 83.5 L -36.51 83.96 L -35.47 84.41 L -34.43 84.85 L -33.39 85.27 L -32.34 85.69 L -31.28 86.09 L -30.22 86.48 L -29.16 86.85 L -28.09 87.22 L -27.02 87.57 L -25.95 87.91 L -24.86 88.23 L -23.78 88.55 L -22.69 88.85 L -21.59 89.14 L -20.49 89.42 L -19.39 89.68 L -18.28 89.93 L -17.17 90.17 L -16.05 90.4 L -14.93 90.62 L -13.8 90.82 L -12.67 91.01 L -11.53 91.19 L -10.39 91.36 L -9.25 91.51 L -8.1 91.65 L -6.95 91.78 L -5.79 91.9 L -4.62 92.01 L -3.46 92.1 L -2.28 92.18 L -1.11 92.25 L 0.08 92.3 L 1.26 92.34 L 2.45 92.38 L 3.65 92.39 L 4.85 92.4 L 5.15 92.4 L 5.43 92.4 L 6.63 92.39 L 7.82 92.37 L 9.01 92.34 L 10.19 92.29 L 11.37 92.23 L 12.54 92.16 L 13.7 92.08 L 14.86 91.98 L 16.02 91.86 L 17.16 91.74 L 18.31 91.6 L 19.44 91.45 L 20.58 91.28 L 21.7 91.1 L 22.82 90.91 L 23.94 90.7 L 25.05 90.48 L 26.15 90.25 L 27.25 90.01 L 28.35 89.75 L 29.44 89.48 L 30.52 89.19 L 31.6 88.89 L 32.67 88.58 L 33.73 88.26 L 34.8 87.92 L 35.85 87.57 L 36.9 87.2 L 37.94 86.83 L 38.98 86.43 L 40.02 86.03 L 41.05 85.61 L 42.07 85.18 L 43.09 84.74 L 44.1 84.28 L 45.1 83.81 L 46.1 83.33 L 47.1 82.83 L 48.09 82.32 L 49.07 81.79 L 50.05 81.26 L 51.02 80.71 L 51.99 80.14 L 52.95 79.57 L 53.91 78.98 L 54.86 78.37 L 55.81 77.76 L 56.75 77.13 L 57.68 76.49 L 58.61 75.83 L 59.54 75.16 L 60.46 74.48 L 61.37 73.78 L 62.28 73.07 L 63.18 72.35 L 64.07 71.61 L 64.97 70.86 L 65.85 70.1 L 66.73 69.33 L 67.61 68.54 L 68.48 67.74 L 69.34 66.92 L 70.2 66.09 L 71.05 65.25 L 71.9 64.39 L 72.73 63.53 L 73.55 62.66 L 74.36 61.79 L 75.15 60.91 L 75.93 60.02 L 76.69 59.13 L 77.45 58.24 L 78.19 57.33 L 78.91 56.43 L 79.63 55.51 L 80.33 54.6 L 81.01 53.67 L 81.69 52.74 L 82.34 51.81 L 82.99 50.87 L 83.62 49.92 L 84.24 48.97 L 84.85 48.02 L 85.44 47.05 L 86.02 46.08 L 86.59 45.11 L 87.14 44.13 L 87.68 43.15 L 88.2 42.16 L 88.72 41.16 L 89.22 40.16 L 89.7 39.16 L 90.18 38.14 L 90.63 37.13 L 91.08 36.1 L 91.51 35.08 L 91.93 34.04 L 92.34 33 L 92.73 31.96 L 93.11 30.91 L 93.47 29.85 L 93.83 28.79 L 94.17 27.72 L 94.49 26.65 L 94.8 25.57 L 95.1 24.49 L 95.39 23.4 L 95.66 22.3 L 95.92 21.2 L 96.16 20.1 L 96.4 18.99 L 96.62 17.87 L 96.82 16.75 L 97.01 15.62 L 97.19 14.49 L 97.36 13.35 L 97.51 12.2 L 97.65 11.05 L 97.77 9.9 L 97.89 8.74 L 97.98 7.57 L 98.07 6.4 L 98.14 5.22 L 98.2 4.04 L 98.24 2.85 L 98.28 1.65 L 98.29 0.46 L 98.3 -0.75 L 98.29 -1.95 L 98.28 -3.15 L 98.24 -4.34 L 98.2 -5.52 L 98.14 -6.7 L 98.07 -7.88 L 97.98 -9.05 L 97.89 -10.21 L 97.77 -11.37 L 97.65 -12.52 L 97.51 -13.67 L 97.36 -14.81 L 97.19 -15.95 L 97.01 -17.08 L 96.82 -18.2 L 96.62 -19.32 L 96.4 -20.44 L 96.16 -21.54 L 95.92 -22.65 L 95.66 -23.75 L 95.39 -24.84 L 95.1 -25.92 L 94.8 -27 L 94.49 -28.08 L 94.17 -29.15 L 93.83 -30.22 L 93.47 -31.27 L 93.11 -32.33 L 92.73 -33.38 L 92.34 -34.42 L 91.93 -35.46 L 91.51 -36.49 L 91.08 -37.51 L 90.63 -38.53 L 90.18 -39.55 L 89.7 -40.56 L 89.22 -41.56 L 88.72 -42.56 L 88.2 -43.56 L 87.68 -44.54 L 87.14 -45.53 L 86.59 -46.5 L 86.02 -47.47 L 85.44 -48.44 L 84.85 -49.4 L 84.24 -50.35 L 83.62 -51.3 L 82.99 -52.25 L 82.34 -53.19 L 81.69 -54.12 L 81.01 -55.05 L 80.33 -55.97 L 79.63 -56.88 L 78.91 -57.79 L 78.19 -58.7 L 77.45 -59.6 L 76.69 -60.49 L 75.93 -61.38 L 75.15 -62.27 L 74.36 -63.14 L 73.55 -64.02 L 72.73 -64.88 L 71.9 -65.74 L 71.05 -66.6 L 70.2 -67.44 L 69.34 -68.27 L 68.47 -69.09 L 67.6 -69.89 L 66.72 -70.68 L 65.84 -71.46 L 64.95 -72.22 L 64.06 -72.98 L 63.16 -73.71 L 62.26 -74.44 L 61.35 -75.15 L 60.44 -75.84 L 59.52 -76.53 L 58.59 -77.2 L 57.66 -77.86 L 56.72 -78.5 L 55.78 -79.13 L 54.83 -79.75 L 53.88 -80.35 L 52.92 -80.94 L 51.96 -81.52 L 50.99 -82.09 L 50.01 -82.64 L 49.03 -83.18 L 48.04 -83.7 L 47.05 -84.21 L 46.05 -84.71 L 45.05 -85.19 L 44.04 -85.67 L 43.03 -86.12 L 42.01 -86.57 L 40.99 -87 L 39.96 -87.42 L 38.92 -87.82 L 37.88 -88.22 L 36.83 -88.59 L 35.78 -88.96 L 34.72 -89.31 L 33.66 -89.65 L 32.59 -89.98 L 31.52 -90.29 L 30.44 -90.59 L 29.35 -90.87 L 28.26 -91.14 L 27.16 -91.4 L 26.06 -91.65 L 24.95 -91.88 L 23.84 -92.1 L 22.72 -92.31 L 21.6 -92.5 L 20.47 -92.68 L 19.34 -92.84 L 18.2 -93 L 17.05 -93.14 L 15.9 -93.26 L 14.74 -93.38 L 13.58 -93.47 L 12.41 -93.56 L 11.24 -93.63 L 10.06 -93.69 L 8.88 -93.74 L 7.69 -93.77 L 6.49 -93.79 L 5.29 -93.8 L 5.15 -93.8 L 5.01 -93.8 Z"/>
    </clipPath>
    <g clip-path="url(#clipPath0)">
      <use ffdec:characterId="550" height="181.1" transform="matrix(1.0, 0.0, 0.0, 1.0, -90.7, -90.55)" width="181.35" xlink:href="#morphshape1"/>
    </g>
  </g>
  <defs>
    <g id="morphshape0" transform="matrix(1.0, 0.0, 0.0, 1.0, 90.7, 90.55)">
      <path d="M-60.95 -0.1 Q-60.9 25.2 -43.1 43.1 -25.2 60.9 0.05 60.85 25.3 60.85 43.15 43.1 60.95 25.2 60.95 -0.05 60.95 -25.25 43.15 -43.1 25.25 -60.9 0.0 -60.9 -25.3 -60.9 -43.2 -43.15 -61.0 -25.25 -61.05 -0.05" fill="#ffffff" fill-rule="evenodd" stroke="none"/>
      <path d="M-61.05 -0.05 Q-61.0 -25.25 -43.2 -43.15 -25.3 -60.9 0.0 -60.9 25.25 -60.9 43.15 -43.1 60.95 -25.25 60.95 -0.05 60.95 25.2 43.15 43.1 25.3 60.85 0.05 60.85 -25.2 60.9 -43.1 43.1 -60.9 25.2 -60.95 -0.1" ffdec:has-small-stroke="true" ffdec:original-stroke-width="0.0" fill="none" stroke="#000000" stroke-linecap="round" stroke-linejoin="round" stroke-opacity="0.0" stroke-width="1.0"/>
    </g>
    <g id="morphshape1" transform="matrix(1.0, 0.0, 0.0, 1.0, 90.7, 90.55)">
      <path d="M-90.7 -0.05 Q-90.7 37.55 -64.15 64.15 -37.55 90.65 0.05 90.55 37.6 90.65 64.15 64.15 90.7 37.55 90.65 -0.05 90.7 -37.55 64.15 -64.1 37.6 -90.6 0.05 -90.55 -37.55 -90.6 -64.15 -64.1 -90.7 -37.55 -90.7 -0.05" fill="url(#gradient0)" fill-rule="evenodd" stroke="none"/>
      <path d="M-90.7 -0.05 Q-90.7 -37.55 -64.15 -64.1 -37.55 -90.6 0.05 -90.55 37.6 -90.6 64.15 -64.1 90.7 -37.55 90.65 -0.05 90.7 37.55 64.15 64.15 37.6 90.65 0.05 90.55 -37.55 90.65 -64.15 64.15 -90.7 37.55 -90.7 -0.05 Z" ffdec:has-small-stroke="true" ffdec:original-stroke-width="0.0" fill="none" stroke="#000000" stroke-linecap="round" stroke-linejoin="round" stroke-opacity="0.0" stroke-width="1.0"/>
    </g>
    <radialGradient cx="0" cy="0" gradientTransform="matrix(0.1252, 0.0, 0.0, 0.1251, 0.6, -0.15)" gradientUnits="userSpaceOnUse" id="gradient0" r="819.2" spreadMethod="pad">
      <stop offset="0.0" stop-color="#ffffff"/>
      <stop offset="0.6784313725490196" stop-color="#ffffff"/>
      <stop offset="0.8627450980392157" stop-color="#ffff00"/>
      <stop offset="1.0" stop-color="#ff0000"/>
    </radialGradient>
  </defs>
</svg>
