<?xml version="1.0" encoding="UTF-8" standalone="no"?>
<svg xmlns:ffdec="https://www.free-decompiler.com/flash" xmlns:xlink="http://www.w3.org/1999/xlink" ffdec:objectType="frame" height="220.3px" width="226.55px" xmlns="http://www.w3.org/2000/svg">
  <g transform="matrix(1.0, 0.0, 0.0, 1.0, 108.95, 112.25)">
    <use ffdec:characterId="551" height="181.1" transform="matrix(1.0, 0.0, 0.0, 1.0, -90.7, -90.55)" width="181.35" xlink:href="#morphshape0"/>
    <clipPath id="clipPath0">
      <path d="M 10.55 -42.55 L 11.65 -42.54 L 12.74 -42.5 L 13.81 -42.44 L 14.88 -42.36 L 15.94 -42.25 L 16.99 -42.11 L 18.02 -41.95 L 19.05 -41.77 L 20.07 -41.57 L 21.07 -41.33 L 22.07 -41.08 L 23.06 -40.8 L 24.03 -40.5 L 25 -40.17 L 25.95 -39.81 L 26.9 -39.44 L 27.84 -39.04 L 28.76 -38.61 L 29.68 -38.16 L 30.58 -37.69 L 31.48 -37.19 L 32.36 -36.67 L 33.24 -36.12 L 34.1 -35.55 L 34.95 -34.95 L 35.8 -34.33 L 36.63 -33.69 L 37.46 -33.02 L 38.27 -32.32 L 39.07 -31.61 L 39.87 -30.87 L 40.65 -30.1 L 41.42 -29.31 L 42.16 -28.52 L 42.88 -27.71 L 43.58 -26.9 L 44.25 -26.07 L 44.9 -25.23 L 45.52 -24.39 L 46.12 -23.53 L 46.69 -22.67 L 47.24 -21.79 L 47.77 -20.9 L 48.27 -20.01 L 48.74 -19.1 L 49.19 -18.19 L 49.62 -17.26 L 50.03 -16.33 L 50.4 -15.38 L 50.76 -14.42 L 51.09 -13.46 L 51.39 -12.48 L 51.67 -11.5 L 51.93 -10.5 L 52.16 -9.5 L 52.37 -8.48 L 52.55 -7.46 L 52.71 -6.42 L 52.84 -5.38 L 52.95 -4.32 L 53.04 -3.26 L 53.1 -2.18 L 53.14 -1.1 L 53.15 0 L 53.14 1.1 L 53.1 2.19 L 53.04 3.26 L 52.95 4.33 L 52.84 5.39 L 52.71 6.44 L 52.55 7.48 L 52.37 8.5 L 52.16 9.52 L 51.93 10.53 L 51.67 11.53 L 51.39 12.51 L 51.09 13.49 L 50.76 14.46 L 50.4 15.42 L 50.03 16.36 L 49.62 17.3 L 49.19 18.23 L 48.74 19.14 L 48.27 20.05 L 47.77 20.95 L 47.24 21.83 L 46.69 22.71 L 46.12 23.58 L 45.52 24.43 L 44.9 25.28 L 44.25 26.12 L 43.58 26.94 L 42.88 27.76 L 42.16 28.57 L 41.42 29.36 L 40.65 30.15 L 39.87 30.92 L 39.07 31.66 L 38.27 32.37 L 37.46 33.07 L 36.63 33.74 L 35.8 34.38 L 34.95 35 L 34.1 35.6 L 33.24 36.17 L 32.36 36.72 L 31.48 37.24 L 30.58 37.74 L 29.68 38.21 L 28.76 38.66 L 27.84 39.09 L 26.9 39.49 L 25.95 39.86 L 25 40.22 L 24.03 40.55 L 23.06 40.85 L 22.07 41.13 L 21.07 41.38 L 20.07 41.62 L 19.05 41.82 L 18.02 42 L 16.99 42.16 L 15.94 42.3 L 14.88 42.41 L 13.81 42.49 L 12.74 42.55 L 11.65 42.59 L 10.55 42.6 L 9.45 42.59 L 8.36 42.55 L 7.29 42.49 L 6.22 42.41 L 5.16 42.3 L 4.11 42.16 L 3.07 42 L 2.05 41.82 L 1.03 41.62 L 0.02 41.38 L -0.98 41.13 L -1.96 40.85 L -2.94 40.55 L -3.91 40.22 L -4.87 39.86 L -5.81 39.49 L -6.75 39.09 L -7.68 38.66 L -8.59 38.21 L -9.5 37.74 L -10.4 37.24 L -11.28 36.72 L -12.16 36.17 L -13.03 35.6 L -13.88 35 L -14.73 34.38 L -15.57 33.74 L -16.39 33.07 L -17.21 32.37 L -18.02 31.66 L -18.81 30.92 L -19.6 30.15 L -20.37 29.36 L -21.11 28.57 L -21.82 27.76 L -22.52 26.94 L -23.19 26.12 L -23.83 25.28 L -24.45 24.43 L -25.05 23.58 L -25.62 22.71 L -26.17 21.83 L -26.69 20.95 L -27.19 20.05 L -27.66 19.14 L -28.11 18.23 L -28.54 17.3 L -28.94 16.36 L -29.31 15.42 L -29.67 14.46 L -30 13.49 L -30.3 12.51 L -30.58 11.53 L -30.83 10.53 L -31.07 9.52 L -31.27 8.5 L -31.45 7.48 L -31.61 6.44 L -31.75 5.39 L -31.86 4.33 L -31.94 3.26 L -32 2.19 L -32.04 1.1 L -32.05 0 L -32.04 -1.1 L -32 -2.18 L -31.94 -3.26 L -31.86 -4.32 L -31.75 -5.38 L -31.61 -6.42 L -31.45 -7.46 L -31.27 -8.48 L -31.07 -9.5 L -30.83 -10.5 L -30.58 -11.5 L -30.3 -12.48 L -30 -13.46 L -29.67 -14.42 L -29.31 -15.38 L -28.94 -16.33 L -28.54 -17.26 L -28.11 -18.19 L -27.66 -19.1 L -27.19 -20.01 L -26.69 -20.9 L -26.17 -21.79 L -25.62 -22.67 L -25.05 -23.53 L -24.45 -24.39 L -23.83 -25.23 L -23.19 -26.07 L -22.52 -26.9 L -21.82 -27.71 L -21.11 -28.52 L -20.37 -29.31 L -19.6 -30.1 L -18.81 -30.87 L -18.02 -31.61 L -17.21 -32.32 L -16.39 -33.02 L -15.57 -33.69 L -14.73 -34.33 L -13.88 -34.95 L -13.03 -35.55 L -12.16 -36.12 L -11.28 -36.67 L -10.4 -37.19 L -9.5 -37.69 L -8.59 -38.16 L -7.68 -38.61 L -6.75 -39.04 L -5.81 -39.44 L -4.87 -39.81 L -3.91 -40.17 L -2.94 -40.5 L -1.96 -40.8 L -0.98 -41.08 L 0.02 -41.33 L 1.03 -41.57 L 2.05 -41.77 L 3.07 -41.95 L 4.11 -42.11 L 5.16 -42.25 L 6.22 -42.36 L 7.29 -42.44 L 8.36 -42.5 L 9.45 -42.54 L 10.55 -42.55 Z M 7.56 -95.45 L 6.34 -95.44 L 5.12 -95.42 L 3.91 -95.39 L 2.7 -95.34 L 1.5 -95.29 L 0.3 -95.21 L -0.9 -95.13 L -2.09 -95.03 L -3.28 -94.92 L -4.46 -94.79 L -5.64 -94.65 L -6.82 -94.5 L -7.99 -94.34 L -9.16 -94.16 L -10.32 -93.97 L -11.48 -93.76 L -12.63 -93.55 L -13.78 -93.31 L -14.93 -93.07 L -16.07 -92.81 L -17.21 -92.54 L -18.35 -92.26 L -19.48 -91.96 L -20.6 -91.65 L -21.72 -91.33 L -22.84 -90.99 L -23.96 -90.64 L -25.07 -90.28 L -26.17 -89.91 L -27.27 -89.52 L -28.37 -89.12 L -29.46 -88.7 L -30.55 -88.27 L -31.64 -87.83 L -32.72 -87.38 L -33.8 -86.91 L -34.87 -86.43 L -35.94 -85.93 L -37 -85.42 L -38.07 -84.9 L -39.12 -84.37 L -40.18 -83.82 L -41.22 -83.26 L -42.27 -82.69 L -43.31 -82.1 L -44.34 -81.5 L -45.38 -80.89 L -46.41 -80.26 L -47.43 -79.62 L -48.45 -78.97 L -49.47 -78.3 L -50.48 -77.63 L -51.48 -76.93 L -52.49 -76.23 L -53.49 -75.51 L -54.48 -74.78 L -55.47 -74.03 L -56.46 -73.28 L -57.45 -72.5 L -58.42 -71.72 L -59.4 -70.92 L -60.37 -70.11 L -61.34 -69.29 L -62.3 -68.45 L -63.25 -67.6 L -64.19 -66.74 L -65.12 -65.88 L -66.03 -65 L -66.92 -64.12 L -67.8 -63.23 L -68.67 -62.34 L -69.51 -61.43 L -70.35 -60.52 L -71.17 -59.6 L -71.97 -58.68 L -72.76 -57.74 L -73.53 -56.8 L -74.29 -55.85 L -75.03 -54.9 L -75.76 -53.93 L -76.47 -52.96 L -77.17 -51.98 L -77.85 -50.99 L -78.52 -50 L -79.17 -49 L -79.81 -47.99 L -80.43 -46.97 L -81.03 -45.95 L -81.62 -44.91 L -82.2 -43.87 L -82.76 -42.83 L -83.31 -41.77 L -83.84 -40.71 L -84.35 -39.64 L -84.85 -38.56 L -85.34 -37.47 L -85.81 -36.38 L -86.26 -35.28 L -86.7 -34.17 L -87.13 -33.06 L -87.53 -31.94 L -87.93 -30.8 L -88.31 -29.67 L -88.67 -28.52 L -89.02 -27.37 L -89.35 -26.21 L -89.67 -25.04 L -89.97 -23.86 L -90.26 -22.68 L -90.53 -21.49 L -90.79 -20.29 L -91.03 -19.08 L -91.26 -17.87 L -91.47 -16.65 L -91.67 -15.42 L -91.85 -14.18 L -92.02 -12.94 L -92.17 -11.68 L -92.31 -10.42 L -92.43 -9.16 L -92.53 -7.88 L -92.62 -6.6 L -92.7 -5.31 L -92.76 -4.01 L -92.81 -2.71 L -92.84 -1.4 L -92.85 -0.08 L -92.85 1.25 L -92.85 1.3 L -92.83 2.63 L -92.8 3.95 L -92.76 5.26 L -92.7 6.57 L -92.63 7.86 L -92.54 9.15 L -92.43 10.43 L -92.31 11.7 L -92.18 12.96 L -92.03 14.21 L -91.87 15.45 L -91.69 16.68 L -91.5 17.91 L -91.29 19.12 L -91.07 20.33 L -90.83 21.53 L -90.58 22.72 L -90.31 23.9 L -90.03 25.08 L -89.73 26.24 L -89.42 27.39 L -89.1 28.54 L -88.76 29.68 L -88.4 30.81 L -88.03 31.93 L -87.65 33.04 L -87.25 34.14 L -86.83 35.24 L -86.4 36.32 L -85.96 37.4 L -85.5 38.47 L -85.03 39.53 L -84.54 40.58 L -84.03 41.62 L -83.51 42.65 L -82.98 43.67 L -82.43 44.69 L -81.87 45.7 L -81.29 46.69 L -80.7 47.68 L -80.09 48.66 L -79.47 49.63 L -78.84 50.6 L -78.18 51.55 L -77.52 52.5 L -76.84 53.43 L -76.14 54.36 L -75.43 55.28 L -74.71 56.19 L -73.97 57.09 L -73.21 57.99 L -72.44 58.87 L -71.66 59.75 L -70.86 60.61 L -70.04 61.47 L -69.21 62.32 L -68.37 63.16 L -67.51 63.99 L -66.64 64.82 L -65.75 65.63 L -64.85 66.44 L -63.93 67.23 L -63 68.02 L -62.05 68.8 L -61.1 69.56 L -60.14 70.32 L -59.18 71.06 L -58.21 71.79 L -57.24 72.5 L -56.27 73.21 L -55.29 73.9 L -54.31 74.58 L -53.32 75.25 L -52.33 75.9 L -51.34 76.55 L -50.34 77.18 L -49.33 77.8 L -48.33 78.4 L -47.32 79 L -46.3 79.58 L -45.28 80.16 L -44.26 80.72 L -43.23 81.26 L -42.2 81.8 L -41.16 82.32 L -40.12 82.83 L -39.07 83.33 L -38.02 83.82 L -36.97 84.3 L -35.91 84.76 L -34.85 85.21 L -33.78 85.65 L -32.71 86.08 L -31.64 86.49 L -30.56 86.9 L -29.48 87.29 L -28.39 87.67 L -27.3 88.03 L -26.2 88.39 L -25.1 88.73 L -24 89.06 L -22.89 89.38 L -21.78 89.69 L -20.66 89.98 L -19.54 90.27 L -18.42 90.54 L -17.29 90.8 L -16.16 91.04 L -15.02 91.28 L -13.88 91.5 L -12.73 91.71 L -11.58 91.91 L -10.43 92.1 L -9.27 92.27 L -8.11 92.43 L -6.94 92.58 L -5.77 92.72 L -4.6 92.85 L -3.42 92.96 L -2.23 93.07 L -1.05 93.16 L 0.15 93.23 L 1.34 93.3 L 2.54 93.35 L 3.75 93.4 L 4.96 93.43 L 6.17 93.44 L 7.38 93.45 L 7.7 93.45 L 7.98 93.45 L 9.2 93.44 L 10.41 93.42 L 11.61 93.39 L 12.81 93.34 L 14 93.28 L 15.19 93.21 L 16.37 93.12 L 17.55 93.02 L 18.72 92.91 L 19.88 92.78 L 21.04 92.64 L 22.2 92.48 L 23.34 92.31 L 24.49 92.13 L 25.62 91.94 L 26.76 91.73 L 27.88 91.51 L 29 91.27 L 30.12 91.02 L 31.23 90.76 L 32.33 90.48 L 33.43 90.19 L 34.52 89.89 L 35.61 89.58 L 36.69 89.25 L 37.77 88.9 L 38.84 88.55 L 39.9 88.18 L 40.96 87.79 L 42.02 87.4 L 43.07 86.99 L 44.11 86.56 L 45.15 86.13 L 46.18 85.67 L 47.2 85.21 L 48.22 84.73 L 49.24 84.24 L 50.25 83.74 L 51.25 83.22 L 52.25 82.69 L 53.24 82.14 L 54.23 81.59 L 55.21 81.01 L 56.19 80.43 L 57.16 79.83 L 58.13 79.22 L 59.09 78.59 L 60.04 77.95 L 60.99 77.3 L 61.93 76.63 L 62.87 75.96 L 63.8 75.26 L 64.73 74.56 L 65.65 73.84 L 66.56 73.1 L 67.47 72.36 L 68.38 71.6 L 69.28 70.82 L 70.17 70.04 L 71.06 69.24 L 71.94 68.42 L 72.81 67.59 L 73.68 66.75 L 74.55 65.9 L 75.41 65.03 L 76.25 64.15 L 77.09 63.27 L 77.9 62.39 L 78.71 61.49 L 79.5 60.6 L 80.28 59.69 L 81.04 58.78 L 81.79 57.87 L 82.53 56.95 L 83.25 56.02 L 83.96 55.09 L 84.66 54.15 L 85.34 53.21 L 86.01 52.26 L 86.67 51.31 L 87.31 50.35 L 87.94 49.38 L 88.55 48.41 L 89.15 47.44 L 89.74 46.46 L 90.31 45.47 L 90.88 44.48 L 91.42 43.48 L 91.96 42.47 L 92.48 41.46 L 92.98 40.45 L 93.48 39.43 L 93.96 38.4 L 94.42 37.37 L 94.87 36.33 L 95.31 35.29 L 95.74 34.24 L 96.15 33.18 L 96.55 32.12 L 96.93 31.06 L 97.3 29.99 L 97.66 28.91 L 98 27.83 L 98.34 26.74 L 98.65 25.65 L 98.96 24.55 L 99.25 23.44 L 99.52 22.33 L 99.78 21.22 L 100.03 20.09 L 100.27 18.97 L 100.49 17.83 L 100.7 16.7 L 100.89 15.55 L 101.08 14.4 L 101.24 13.25 L 101.4 12.09 L 101.54 10.92 L 101.67 9.75 L 101.78 8.57 L 101.88 7.39 L 101.97 6.2 L 102.04 5.01 L 102.1 3.81 L 102.14 2.6 L 102.18 1.39 L 102.19 0.17 L 102.2 -1.05 L 102.19 -2.27 L 102.18 -3.48 L 102.14 -4.69 L 102.1 -5.89 L 102.04 -7.09 L 101.97 -8.28 L 101.88 -9.47 L 101.78 -10.65 L 101.67 -11.82 L 101.54 -12.99 L 101.4 -14.15 L 101.24 -15.31 L 101.08 -16.46 L 100.89 -17.61 L 100.7 -18.75 L 100.49 -19.89 L 100.27 -21.02 L 100.03 -22.14 L 99.78 -23.26 L 99.52 -24.37 L 99.25 -25.48 L 98.96 -26.58 L 98.65 -27.68 L 98.34 -28.77 L 98 -29.86 L 97.66 -30.94 L 97.3 -32.01 L 96.93 -33.08 L 96.55 -34.14 L 96.15 -35.2 L 95.74 -36.25 L 95.31 -37.3 L 94.87 -38.34 L 94.42 -39.38 L 93.96 -40.41 L 93.48 -41.43 L 92.98 -42.45 L 92.48 -43.46 L 91.96 -44.47 L 91.42 -45.47 L 90.88 -46.47 L 90.31 -47.46 L 89.74 -48.44 L 89.15 -49.42 L 88.55 -50.4 L 87.94 -51.37 L 87.31 -52.33 L 86.67 -53.29 L 86.01 -54.24 L 85.34 -55.19 L 84.66 -56.13 L 83.96 -57.06 L 83.25 -57.99 L 82.53 -58.92 L 81.79 -59.83 L 81.04 -60.75 L 80.28 -61.65 L 79.5 -62.56 L 78.71 -63.45 L 77.9 -64.34 L 77.09 -65.23 L 76.25 -66.11 L 75.41 -66.98 L 74.55 -67.85 L 73.68 -68.71 L 72.81 -69.55 L 71.93 -70.38 L 71.05 -71.19 L 70.16 -71.99 L 69.27 -72.78 L 68.37 -73.56 L 67.46 -74.32 L 66.55 -75.07 L 65.63 -75.8 L 64.71 -76.52 L 63.78 -77.23 L 62.85 -77.92 L 61.91 -78.6 L 60.96 -79.27 L 60.01 -79.93 L 59.06 -80.57 L 58.09 -81.19 L 57.13 -81.81 L 56.15 -82.4 L 55.18 -82.99 L 54.19 -83.56 L 53.2 -84.12 L 52.21 -84.67 L 51.21 -85.2 L 50.2 -85.72 L 49.19 -86.23 L 48.17 -86.72 L 47.15 -87.2 L 46.12 -87.66 L 45.09 -88.11 L 44.05 -88.55 L 43 -88.97 L 41.95 -89.39 L 40.9 -89.78 L 39.83 -90.17 L 38.77 -90.54 L 37.69 -90.89 L 36.62 -91.24 L 35.53 -91.57 L 34.44 -91.89 L 33.35 -92.19 L 32.25 -92.48 L 31.14 -92.75 L 30.03 -93.02 L 28.91 -93.27 L 27.79 -93.5 L 26.66 -93.73 L 25.52 -93.93 L 24.38 -94.13 L 23.24 -94.31 L 22.09 -94.48 L 20.93 -94.63 L 19.77 -94.78 L 18.6 -94.9 L 17.43 -95.02 L 16.25 -95.12 L 15.06 -95.21 L 13.87 -95.28 L 12.68 -95.34 L 11.48 -95.39 L 10.27 -95.42 L 9.06 -95.44 L 7.84 -95.45 L 7.7 -95.45 L 7.56 -95.45 Z"/>
    </clipPath>
    <g clip-path="url(#clipPath0)">
      <use ffdec:characterId="550" height="181.1" transform="matrix(1.0, 0.0, 0.0, 1.0, -90.7, -90.55)" width="181.35" xlink:href="#morphshape1"/>
    </g>
  </g>
  <defs>
    <g id="morphshape0" transform="matrix(1.0, 0.0, 0.0, 1.0, 90.7, 90.55)">
      <path d="M-48.45 -0.05 Q-48.4 20.0 -34.3 34.2 -20.05 48.3 0.0 48.3 20.05 48.3 34.25 34.25 48.35 20.0 48.35 -0.05 48.3 -20.05 34.2 -34.25 20.0 -48.35 0.0 -48.35 -20.05 -48.3 -34.25 -34.25 -48.35 -20.05 -48.4 -0.05" fill="#ffffff" fill-rule="evenodd" stroke="none"/>
      <path d="M-48.4 -0.05 Q-48.35 -20.05 -34.25 -34.25 -20.05 -48.3 0.0 -48.35 20.0 -48.35 34.2 -34.25 48.3 -20.05 48.35 -0.05 48.35 20.0 34.25 34.25 20.05 48.3 0.0 48.3 -20.05 48.3 -34.3 34.2 -48.4 20.0 -48.45 -0.05" ffdec:has-small-stroke="true" ffdec:original-stroke-width="0.0" fill="none" stroke="#000000" stroke-linecap="round" stroke-linejoin="round" stroke-opacity="0.0" stroke-width="1.0"/>
    </g>
    <g id="morphshape1" transform="matrix(1.0, 0.0, 0.0, 1.0, 90.7, 90.55)">
      <path d="M-90.7 -0.05 Q-90.7 37.55 -64.15 64.15 -37.55 90.65 0.05 90.55 37.6 90.65 64.15 64.15 90.7 37.55 90.65 -0.05 90.7 -37.55 64.15 -64.1 37.6 -90.6 0.05 -90.55 -37.55 -90.6 -64.15 -64.1 -90.7 -37.55 -90.7 -0.05" fill="url(#gradient0)" fill-rule="evenodd" stroke="none"/>
      <path d="M-90.7 -0.05 Q-90.7 -37.55 -64.15 -64.1 -37.55 -90.6 0.05 -90.55 37.6 -90.6 64.15 -64.1 90.7 -37.55 90.65 -0.05 90.7 37.55 64.15 64.15 37.6 90.65 0.05 90.55 -37.55 90.65 -64.15 64.15 -90.7 37.55 -90.7 -0.05 Z" ffdec:has-small-stroke="true" ffdec:original-stroke-width="0.0" fill="none" stroke="#000000" stroke-linecap="round" stroke-linejoin="round" stroke-opacity="0.0" stroke-width="1.0"/>
    </g>
    <radialGradient cx="0" cy="0" gradientTransform="matrix(0.124, 0.0, 0.0, 0.1239, 0.5, -0.3)" gradientUnits="userSpaceOnUse" id="gradient0" r="819.2" spreadMethod="pad">
      <stop offset="0.0" stop-color="#ffffff"/>
      <stop offset="0.615686274509804" stop-color="#ffffff"/>
      <stop offset="0.8313725490196079" stop-color="#ffff00"/>
      <stop offset="1.0" stop-color="#ff0000"/>
    </radialGradient>
  </defs>
</svg>
