<?xml version="1.0" encoding="UTF-8" standalone="no"?>
<svg xmlns:ffdec="https://www.free-decompiler.com/flash" xmlns:xlink="http://www.w3.org/1999/xlink" ffdec:objectType="frame" height="220.3px" width="226.55px" xmlns="http://www.w3.org/2000/svg">
  <g transform="matrix(1.0, 0.0, 0.0, 1.0, 108.95, 112.25)">
    <use ffdec:characterId="551" height="181.1" transform="matrix(1.0, 0.0, 0.0, 1.0, -90.7, -90.55)" width="181.35" xlink:href="#morphshape0"/>
    <clipPath id="clipPath0">
      <path d="M 14.09 -54.9 L 15.5 -54.88 L 16.9 -54.84 L 18.28 -54.76 L 19.65 -54.65 L 21.01 -54.51 L 22.36 -54.34 L 23.69 -54.13 L 25.01 -53.9 L 26.31 -53.63 L 27.61 -53.34 L 28.89 -53.01 L 30.16 -52.65 L 31.41 -52.26 L 32.65 -51.84 L 33.88 -51.38 L 35.1 -50.9 L 36.3 -50.38 L 37.49 -49.84 L 38.67 -49.26 L 39.83 -48.65 L 40.98 -48.01 L 42.12 -47.34 L 43.25 -46.63 L 44.36 -45.9 L 45.46 -45.13 L 46.55 -44.34 L 47.62 -43.51 L 48.68 -42.65 L 49.73 -41.76 L 50.77 -40.84 L 51.79 -39.88 L 52.8 -38.9 L 53.79 -37.89 L 54.74 -36.86 L 55.67 -35.82 L 56.56 -34.77 L 57.42 -33.71 L 58.25 -32.63 L 59.05 -31.54 L 59.82 -30.44 L 60.55 -29.32 L 61.26 -28.19 L 61.93 -27.05 L 62.57 -25.9 L 63.18 -24.73 L 63.76 -23.55 L 64.31 -22.36 L 64.82 -21.15 L 65.31 -19.93 L 65.76 -18.7 L 66.18 -17.45 L 66.57 -16.2 L 66.93 -14.93 L 67.26 -13.64 L 67.55 -12.35 L 67.82 -11.04 L 68.05 -9.72 L 68.25 -8.38 L 68.42 -7.03 L 68.56 -5.67 L 68.67 -4.3 L 68.74 -2.91 L 68.79 -1.51 L 68.8 -0.1 L 68.79 1.32 L 68.74 2.72 L 68.67 4.11 L 68.56 5.48 L 68.42 6.85 L 68.25 8.2 L 68.05 9.53 L 67.82 10.86 L 67.55 12.17 L 67.26 13.47 L 66.93 14.75 L 66.57 16.03 L 66.18 17.29 L 65.76 18.53 L 65.31 19.77 L 64.82 20.99 L 64.31 22.2 L 63.76 23.39 L 63.18 24.57 L 62.57 25.74 L 61.93 26.9 L 61.26 28.04 L 60.55 29.17 L 59.82 30.28 L 59.05 31.39 L 58.25 32.48 L 57.42 33.56 L 56.56 34.62 L 55.67 35.67 L 54.74 36.71 L 53.79 37.74 L 52.8 38.75 L 51.79 39.73 L 50.77 40.69 L 49.73 41.61 L 48.68 42.5 L 47.62 43.36 L 46.55 44.19 L 45.46 44.98 L 44.36 45.75 L 43.25 46.48 L 42.12 47.19 L 40.98 47.86 L 39.83 48.5 L 38.67 49.11 L 37.49 49.69 L 36.3 50.23 L 35.1 50.75 L 33.88 51.23 L 32.65 51.69 L 31.41 52.11 L 30.16 52.5 L 28.89 52.86 L 27.61 53.19 L 26.31 53.48 L 25.01 53.75 L 23.69 53.98 L 22.36 54.19 L 21.01 54.36 L 19.65 54.5 L 18.28 54.61 L 16.9 54.69 L 15.5 54.73 L 14.09 54.75 L 13.95 54.75 L 13.81 54.75 L 12.4 54.73 L 11 54.69 L 9.62 54.61 L 8.25 54.5 L 6.89 54.36 L 5.54 54.19 L 4.21 53.98 L 2.89 53.75 L 1.58 53.48 L 0.29 53.19 L -0.99 52.86 L -2.26 52.5 L -3.52 52.11 L -4.76 51.69 L -5.99 51.23 L -7.21 50.75 L -8.42 50.23 L -9.61 49.69 L -10.79 49.11 L -11.95 48.5 L -13.11 47.86 L -14.25 47.19 L -15.38 46.48 L -16.49 45.75 L -17.59 44.98 L -18.68 44.19 L -19.76 43.36 L -20.82 42.5 L -21.87 41.61 L -22.91 40.69 L -23.94 39.73 L -24.95 38.75 L -25.94 37.74 L -26.89 36.71 L -27.82 35.67 L -28.71 34.62 L -29.57 33.56 L -30.4 32.48 L -31.2 31.39 L -31.97 30.28 L -32.71 29.17 L -33.41 28.04 L -34.09 26.9 L -34.73 25.74 L -35.34 24.57 L -35.92 23.39 L -36.47 22.2 L -36.99 20.99 L -37.47 19.77 L -37.93 18.53 L -38.35 17.29 L -38.74 16.03 L -39.1 14.75 L -39.43 13.47 L -39.73 12.17 L -40 10.86 L -40.23 9.53 L -40.44 8.2 L -40.61 6.85 L -40.75 5.48 L -40.86 4.11 L -40.94 2.72 L -40.98 1.32 L -41 -0.1 L -40.98 -1.51 L -40.94 -2.91 L -40.86 -4.3 L -40.75 -5.67 L -40.61 -7.03 L -40.44 -8.38 L -40.23 -9.72 L -40 -11.04 L -39.73 -12.35 L -39.43 -13.64 L -39.1 -14.93 L -38.74 -16.2 L -38.35 -17.45 L -37.93 -18.7 L -37.47 -19.93 L -36.99 -21.15 L -36.47 -22.36 L -35.92 -23.55 L -35.34 -24.73 L -34.73 -25.9 L -34.09 -27.05 L -33.41 -28.19 L -32.71 -29.32 L -31.97 -30.44 L -31.2 -31.54 L -30.4 -32.63 L -29.57 -33.71 L -28.71 -34.77 L -27.82 -35.82 L -26.89 -36.86 L -25.94 -37.89 L -24.95 -38.9 L -23.94 -39.88 L -22.91 -40.84 L -21.87 -41.76 L -20.82 -42.65 L -19.76 -43.51 L -18.68 -44.34 L -17.59 -45.13 L -16.49 -45.9 L -15.38 -46.63 L -14.25 -47.34 L -13.11 -48.01 L -11.95 -48.65 L -10.79 -49.26 L -9.61 -49.84 L -8.42 -50.38 L -7.21 -50.9 L -5.99 -51.38 L -4.76 -51.84 L -3.52 -52.26 L -2.26 -52.65 L -0.99 -53.01 L 0.29 -53.34 L 1.58 -53.63 L 2.89 -53.9 L 4.21 -54.13 L 5.54 -54.34 L 6.89 -54.51 L 8.25 -54.65 L 9.62 -54.76 L 11 -54.84 L 12.4 -54.88 L 13.81 -54.9 L 13.95 -54.9 L 14.09 -54.9 Z M 10.15 -97.1 L 8.92 -97.09 L 7.68 -97.07 L 6.45 -97.04 L 5.23 -96.99 L 4 -96.93 L 2.78 -96.86 L 1.57 -96.77 L 0.36 -96.68 L -0.85 -96.56 L -2.06 -96.44 L -3.26 -96.3 L -4.46 -96.14 L -5.65 -95.98 L -6.84 -95.8 L -8.03 -95.61 L -9.21 -95.4 L -10.39 -95.18 L -11.57 -94.95 L -12.74 -94.7 L -13.91 -94.44 L -15.07 -94.17 L -16.23 -93.89 L -17.39 -93.59 L -18.54 -93.28 L -19.69 -92.95 L -20.84 -92.61 L -21.98 -92.26 L -23.12 -91.89 L -24.26 -91.52 L -25.39 -91.12 L -26.52 -90.72 L -27.64 -90.3 L -28.76 -89.87 L -29.88 -89.42 L -30.99 -88.97 L -32.1 -88.49 L -33.21 -88.01 L -34.31 -87.51 L -35.41 -87 L -36.51 -86.48 L -37.6 -85.94 L -38.69 -85.39 L -39.77 -84.82 L -40.85 -84.24 L -41.93 -83.65 L -43 -83.05 L -44.07 -82.43 L -45.14 -81.8 L -46.2 -81.16 L -47.26 -80.5 L -48.31 -79.83 L -49.37 -79.14 L -50.41 -78.45 L -51.46 -77.74 L -52.5 -77.01 L -53.54 -76.28 L -54.57 -75.52 L -55.6 -74.76 L -56.62 -73.98 L -57.65 -73.19 L -58.67 -72.39 L -59.68 -71.57 L -60.69 -70.74 L -61.7 -69.9 L -62.7 -69.04 L -63.68 -68.18 L -64.65 -67.31 L -65.6 -66.43 L -66.53 -65.54 L -67.45 -64.64 L -68.35 -63.73 L -69.24 -62.82 L -70.11 -61.9 L -70.97 -60.97 L -71.81 -60.03 L -72.63 -59.08 L -73.44 -58.12 L -74.23 -57.16 L -75.01 -56.19 L -75.77 -55.21 L -76.51 -54.22 L -77.24 -53.22 L -77.95 -52.21 L -78.65 -51.2 L -79.33 -50.18 L -79.99 -49.15 L -80.64 -48.11 L -81.27 -47.06 L -81.89 -46 L -82.49 -44.94 L -83.08 -43.86 L -83.64 -42.78 L -84.2 -41.69 L -84.74 -40.6 L -85.26 -39.49 L -85.76 -38.38 L -86.25 -37.25 L -86.73 -36.12 L -87.18 -34.98 L -87.63 -33.83 L -88.05 -32.68 L -88.46 -31.51 L -88.86 -30.34 L -89.24 -29.16 L -89.6 -27.97 L -89.94 -26.77 L -90.28 -25.56 L -90.59 -24.35 L -90.89 -23.13 L -91.17 -21.89 L -91.44 -20.65 L -91.69 -19.41 L -91.93 -18.15 L -92.15 -16.88 L -92.35 -15.61 L -92.54 -14.33 L -92.71 -13.04 L -92.86 -11.74 L -93 -10.44 L -93.13 -9.12 L -93.24 -7.8 L -93.33 -6.47 L -93.41 -5.13 L -93.47 -3.78 L -93.51 -2.42 L -93.54 -1.06 L -93.55 0.32 L -93.55 1.7 L -93.55 1.65 L -93.53 3.03 L -93.5 4.4 L -93.45 5.76 L -93.39 7.12 L -93.31 8.46 L -93.22 9.79 L -93.11 11.11 L -92.98 12.42 L -92.84 13.73 L -92.68 15.02 L -92.51 16.3 L -92.33 17.57 L -92.12 18.84 L -91.91 20.09 L -91.67 21.33 L -91.43 22.57 L -91.16 23.79 L -90.88 25.01 L -90.59 26.21 L -90.28 27.41 L -89.95 28.59 L -89.61 29.77 L -89.25 30.93 L -88.88 32.09 L -88.49 33.23 L -88.09 34.37 L -87.67 35.49 L -87.24 36.61 L -86.79 37.72 L -86.33 38.81 L -85.85 39.9 L -85.35 40.97 L -84.84 42.04 L -84.31 43.1 L -83.77 44.15 L -83.21 45.18 L -82.64 46.21 L -82.05 47.23 L -81.45 48.24 L -80.83 49.24 L -80.2 50.22 L -79.55 51.2 L -78.88 52.17 L -78.2 53.13 L -77.51 54.08 L -76.79 55.02 L -76.07 55.95 L -75.32 56.87 L -74.57 57.78 L -73.79 58.68 L -73.01 59.57 L -72.2 60.45 L -71.38 61.32 L -70.55 62.18 L -69.7 63.03 L -68.83 63.87 L -67.95 64.7 L -67.05 65.53 L -66.14 66.34 L -65.21 67.14 L -64.27 67.93 L -63.31 68.71 L -62.34 69.49 L -61.35 70.25 L -60.36 71 L -59.36 71.73 L -58.35 72.45 L -57.35 73.16 L -56.34 73.86 L -55.32 74.55 L -54.31 75.22 L -53.29 75.89 L -52.26 76.54 L -51.23 77.18 L -50.2 77.81 L -49.16 78.42 L -48.12 79.03 L -47.08 79.62 L -46.03 80.2 L -44.98 80.77 L -43.92 81.33 L -42.86 81.88 L -41.8 82.41 L -40.73 82.93 L -39.66 83.44 L -38.59 83.94 L -37.51 84.43 L -36.43 84.91 L -35.34 85.37 L -34.25 85.82 L -33.16 86.26 L -32.06 86.69 L -30.96 87.11 L -29.86 87.51 L -28.75 87.91 L -27.64 88.29 L -26.52 88.66 L -25.4 89.02 L -24.27 89.36 L -23.15 89.7 L -22.02 90.02 L -20.88 90.33 L -19.74 90.63 L -18.6 90.92 L -17.45 91.19 L -16.3 91.46 L -15.15 91.71 L -13.99 91.95 L -12.83 92.18 L -11.66 92.4 L -10.49 92.6 L -9.32 92.8 L -8.14 92.98 L -6.96 93.15 L -5.78 93.31 L -4.59 93.45 L -3.39 93.59 L -2.2 93.71 L -1 93.82 L 0.21 93.92 L 1.41 94.01 L 2.62 94.09 L 3.84 94.15 L 5.06 94.21 L 6.28 94.25 L 7.51 94.28 L 8.74 94.29 L 9.97 94.3 L 10.3 94.3 L 10.58 94.3 L 11.81 94.29 L 13.04 94.27 L 14.26 94.24 L 15.48 94.19 L 16.69 94.13 L 17.89 94.06 L 19.09 93.97 L 20.28 93.86 L 21.47 93.75 L 22.65 93.62 L 23.82 93.48 L 24.99 93.32 L 26.16 93.15 L 27.32 92.97 L 28.47 92.77 L 29.62 92.56 L 30.76 92.33 L 31.9 92.09 L 33.03 91.84 L 34.15 91.58 L 35.27 91.3 L 36.38 91 L 37.49 90.7 L 38.59 90.38 L 39.69 90.04 L 40.78 89.7 L 41.87 89.33 L 42.95 88.96 L 44.02 88.57 L 45.09 88.17 L 46.15 87.75 L 47.21 87.33 L 48.26 86.88 L 49.31 86.43 L 50.35 85.96 L 51.38 85.47 L 52.41 84.98 L 53.43 84.46 L 54.45 83.94 L 55.46 83.4 L 56.47 82.85 L 57.47 82.28 L 58.46 81.71 L 59.45 81.11 L 60.44 80.51 L 61.41 79.89 L 62.39 79.25 L 63.35 78.61 L 64.31 77.95 L 65.27 77.27 L 66.22 76.58 L 67.16 75.88 L 68.1 75.17 L 69.03 74.44 L 69.96 73.7 L 70.88 72.94 L 71.8 72.17 L 72.71 71.39 L 73.61 70.59 L 74.51 69.78 L 75.4 68.95 L 76.29 68.12 L 77.17 67.27 L 78.05 66.4 L 78.92 65.52 L 79.78 64.63 L 80.62 63.74 L 81.45 62.84 L 82.26 61.94 L 83.06 61.03 L 83.85 60.11 L 84.62 59.19 L 85.38 58.27 L 86.13 57.33 L 86.86 56.4 L 87.58 55.45 L 88.29 54.5 L 88.98 53.55 L 89.65 52.59 L 90.32 51.62 L 90.97 50.65 L 91.61 49.67 L 92.23 48.69 L 92.84 47.7 L 93.43 46.71 L 94.01 45.7 L 94.58 44.7 L 95.14 43.69 L 95.68 42.67 L 96.2 41.65 L 96.72 40.62 L 97.22 39.58 L 97.7 38.54 L 98.17 37.5 L 98.63 36.44 L 99.07 35.39 L 99.51 34.32 L 99.92 33.26 L 100.33 32.18 L 100.72 31.1 L 101.09 30.02 L 101.45 28.92 L 101.8 27.83 L 102.14 26.72 L 102.46 25.62 L 102.76 24.5 L 103.06 23.38 L 103.34 22.26 L 103.6 21.12 L 103.86 19.99 L 104.09 18.85 L 104.32 17.7 L 104.53 16.54 L 104.73 15.38 L 104.91 14.22 L 105.08 13.05 L 105.24 11.87 L 105.38 10.69 L 105.51 9.5 L 105.62 8.31 L 105.72 7.11 L 105.81 5.9 L 105.89 4.69 L 105.95 3.47 L 105.99 2.25 L 106.03 1.02 L 106.04 -0.21 L 106.05 -1.45 L 106.04 -2.68 L 106.03 -3.91 L 105.99 -5.14 L 105.95 -6.36 L 105.89 -7.57 L 105.81 -8.77 L 105.72 -9.97 L 105.62 -11.17 L 105.51 -12.36 L 105.38 -13.54 L 105.24 -14.72 L 105.08 -15.9 L 104.91 -17.06 L 104.73 -18.22 L 104.53 -19.38 L 104.32 -20.53 L 104.09 -21.68 L 103.86 -22.82 L 103.6 -23.95 L 103.34 -25.08 L 103.06 -26.2 L 102.76 -27.32 L 102.46 -28.43 L 102.14 -29.53 L 101.8 -30.63 L 101.45 -31.73 L 101.09 -32.82 L 100.72 -33.9 L 100.33 -34.98 L 99.92 -36.05 L 99.51 -37.11 L 99.07 -38.17 L 98.63 -39.23 L 98.17 -40.28 L 97.7 -41.32 L 97.22 -42.36 L 96.72 -43.39 L 96.2 -44.42 L 95.68 -45.44 L 95.14 -46.46 L 94.58 -47.47 L 94.01 -48.47 L 93.43 -49.47 L 92.84 -50.46 L 92.23 -51.45 L 91.61 -52.43 L 90.97 -53.41 L 90.32 -54.38 L 89.65 -55.35 L 88.98 -56.31 L 88.29 -57.26 L 87.58 -58.21 L 86.86 -59.15 L 86.13 -60.09 L 85.38 -61.02 L 84.62 -61.95 L 83.85 -62.87 L 83.06 -63.78 L 82.26 -64.69 L 81.45 -65.59 L 80.62 -66.49 L 79.78 -67.38 L 78.92 -68.27 L 78.05 -69.15 L 77.17 -70.02 L 76.29 -70.87 L 75.4 -71.71 L 74.5 -72.53 L 73.6 -73.35 L 72.7 -74.14 L 71.79 -74.93 L 70.87 -75.7 L 69.95 -76.46 L 69.02 -77.2 L 68.08 -77.93 L 67.14 -78.65 L 66.2 -79.35 L 65.24 -80.04 L 64.29 -80.72 L 63.32 -81.38 L 62.36 -82.03 L 61.38 -82.66 L 60.4 -83.28 L 59.42 -83.89 L 58.43 -84.48 L 57.43 -85.06 L 56.43 -85.63 L 55.42 -86.18 L 54.4 -86.72 L 53.38 -87.25 L 52.36 -87.76 L 51.33 -88.26 L 50.29 -88.74 L 49.25 -89.21 L 48.2 -89.67 L 47.15 -90.11 L 46.09 -90.54 L 45.02 -90.96 L 43.95 -91.36 L 42.88 -91.75 L 41.8 -92.13 L 40.71 -92.49 L 39.61 -92.84 L 38.52 -93.17 L 37.41 -93.49 L 36.3 -93.8 L 35.18 -94.09 L 34.06 -94.37 L 32.94 -94.64 L 31.8 -94.89 L 30.66 -95.13 L 29.52 -95.35 L 28.37 -95.56 L 27.21 -95.76 L 26.05 -95.95 L 24.89 -96.12 L 23.71 -96.27 L 22.54 -96.42 L 21.35 -96.55 L 20.16 -96.66 L 18.97 -96.77 L 17.77 -96.85 L 16.56 -96.93 L 15.35 -96.99 L 14.13 -97.04 L 12.91 -97.07 L 11.68 -97.09 L 10.44 -97.1 L 10.3 -97.1 L 10.15 -97.1 Z"/>
    </clipPath>
    <g clip-path="url(#clipPath0)">
      <use ffdec:characterId="550" height="181.1" transform="matrix(1.0, 0.0, 0.0, 1.0, -90.7, -90.55)" width="181.35" xlink:href="#morphshape1"/>
    </g>
  </g>
  <defs>
    <g id="morphshape0" transform="matrix(1.0, 0.0, 0.0, 1.0, 90.7, 90.55)">
      <path d="M-37.35 0.1 Q-37.25 15.55 -26.45 26.5 -15.45 37.3 -0.05 37.3 15.35 37.25 26.3 26.45 37.15 15.45 37.2 0.05 37.15 -15.35 26.35 -26.3 15.4 -37.1 0.0 -37.15 -15.45 -37.1 -26.4 -26.3 -37.25 -15.35 -37.3 0.0" fill="#ffffff" fill-rule="evenodd" stroke="none"/>
      <path d="M-37.3 0.0 Q-37.25 -15.35 -26.4 -26.3 -15.45 -37.1 0.0 -37.15 15.4 -37.1 26.35 -26.3 37.15 -15.35 37.2 0.05 37.15 15.45 26.3 26.45 15.35 37.25 -0.05 37.3 -15.45 37.3 -26.45 26.5 -37.25 15.55 -37.35 0.1" ffdec:has-small-stroke="true" ffdec:original-stroke-width="0.0" fill="none" stroke="#000000" stroke-linecap="round" stroke-linejoin="round" stroke-opacity="0.0" stroke-width="1.0"/>
    </g>
    <g id="morphshape1" transform="matrix(1.0, 0.0, 0.0, 1.0, 90.7, 90.55)">
      <path d="M-90.7 -0.05 Q-90.7 37.55 -64.15 64.15 -37.55 90.65 0.05 90.55 37.6 90.65 64.15 64.15 90.7 37.55 90.65 -0.05 90.7 -37.55 64.15 -64.1 37.6 -90.6 0.05 -90.55 -37.55 -90.6 -64.15 -64.1 -90.7 -37.55 -90.7 -0.05" fill="url(#gradient0)" fill-rule="evenodd" stroke="none"/>
      <path d="M-90.7 -0.05 Q-90.7 -37.55 -64.15 -64.1 -37.55 -90.6 0.05 -90.55 37.6 -90.6 64.15 -64.1 90.7 -37.55 90.65 -0.05 90.7 37.55 64.15 64.15 37.6 90.65 0.05 90.55 -37.55 90.65 -64.15 64.15 -90.7 37.55 -90.7 -0.05 Z" ffdec:has-small-stroke="true" ffdec:original-stroke-width="0.0" fill="none" stroke="#000000" stroke-linecap="round" stroke-linejoin="round" stroke-opacity="0.0" stroke-width="1.0"/>
    </g>
    <radialGradient cx="0" cy="0" gradientTransform="matrix(0.1228, 0.0, 0.0, 0.1227, 0.4, -0.45)" gradientUnits="userSpaceOnUse" id="gradient0" r="819.2" spreadMethod="pad">
      <stop offset="0.0" stop-color="#ffffff"/>
      <stop offset="0.5529411764705883" stop-color="#ffffff"/>
      <stop offset="0.8" stop-color="#ffff00"/>
      <stop offset="1.0" stop-color="#ff0000"/>
    </radialGradient>
  </defs>
</svg>
