<?xml version="1.0" encoding="UTF-8" standalone="no"?>
<svg xmlns:ffdec="https://www.free-decompiler.com/flash" xmlns:xlink="http://www.w3.org/1999/xlink" ffdec:objectType="frame" height="220.3px" width="226.55px" xmlns="http://www.w3.org/2000/svg">
  <g transform="matrix(1.0, 0.0, 0.0, 1.0, 108.95, 112.25)">
    <use ffdec:characterId="551" height="181.1" transform="matrix(1.0, 0.0, 0.0, 1.0, -90.7, -90.55)" width="181.35" xlink:href="#morphshape0"/>
    <clipPath id="clipPath0">
      <path d="M 17.44 -67.3 L 19.17 -67.28 L 20.88 -67.22 L 22.57 -67.13 L 24.25 -66.99 L 25.92 -66.82 L 27.57 -66.61 L 28.38 -66.49 L 29.2 -66.36 L 30.01 -66.22 L 30.81 -66.08 L 31.62 -65.92 L 32.41 -65.75 L 33.21 -65.57 L 34 -65.39 L 34.78 -65.19 L 35.57 -64.98 L 36.35 -64.77 L 37.12 -64.54 L 37.89 -64.31 L 38.66 -64.07 L 39.42 -63.81 L 40.18 -63.55 L 40.93 -63.28 L 41.68 -62.99 L 42.43 -62.7 L 43.17 -62.4 L 43.91 -62.09 L 44.65 -61.77 L 45.38 -61.44 L 46.1 -61.1 L 46.83 -60.75 L 47.55 -60.39 L 48.26 -60.02 L 48.97 -59.64 L 49.68 -59.26 L 50.38 -58.86 L 51.08 -58.45 L 51.78 -58.04 L 52.47 -57.61 L 53.16 -57.17 L 53.84 -56.73 L 54.52 -56.28 L 55.19 -55.81 L 55.87 -55.34 L 56.53 -54.85 L 57.2 -54.36 L 58.51 -53.35 L 59.81 -52.29 L 61.09 -51.2 L 62.36 -50.07 L 63.61 -48.91 L 64.85 -47.7 L 66.06 -46.46 L 67.23 -45.21 L 68.36 -43.94 L 69.45 -42.65 L 70.51 -41.35 L 71.02 -40.69 L 71.53 -40.03 L 72.02 -39.36 L 72.5 -38.7 L 72.98 -38.02 L 73.44 -37.35 L 73.9 -36.67 L 74.34 -35.98 L 74.78 -35.29 L 75.21 -34.6 L 75.62 -33.91 L 76.03 -33.21 L 76.43 -32.5 L 76.82 -31.79 L 77.2 -31.08 L 77.56 -30.37 L 77.92 -29.65 L 78.27 -28.92 L 78.61 -28.19 L 78.94 -27.46 L 79.26 -26.73 L 79.57 -25.99 L 79.88 -25.24 L 80.17 -24.5 L 80.45 -23.75 L 80.72 -22.99 L 80.99 -22.23 L 81.24 -21.47 L 81.48 -20.7 L 81.72 -19.93 L 81.94 -19.16 L 82.16 -18.38 L 82.36 -17.59 L 82.56 -16.81 L 82.74 -16.02 L 82.92 -15.22 L 83.09 -14.42 L 83.24 -13.62 L 83.39 -12.82 L 83.53 -12.01 L 83.66 -11.19 L 83.78 -10.37 L 83.89 -9.55 L 83.98 -8.73 L 84.15 -7.06 L 84.29 -5.38 L 84.38 -3.69 L 84.43 -1.98 L 84.45 -0.25 L 84.43 1.48 L 84.38 3.2 L 84.29 4.9 L 84.15 6.59 L 83.98 8.25 L 83.89 9.08 L 83.78 9.91 L 83.66 10.73 L 83.53 11.54 L 83.39 12.36 L 83.24 13.17 L 83.09 13.97 L 82.92 14.77 L 82.74 15.57 L 82.56 16.36 L 82.36 17.15 L 82.16 17.93 L 81.94 18.71 L 81.72 19.49 L 81.48 20.26 L 81.24 21.03 L 80.99 21.8 L 80.72 22.56 L 80.45 23.32 L 80.17 24.07 L 79.88 24.82 L 79.57 25.56 L 79.26 26.3 L 78.94 27.04 L 78.61 27.77 L 78.27 28.5 L 77.92 29.23 L 77.56 29.95 L 77.2 30.67 L 76.82 31.38 L 76.43 32.09 L 76.03 32.79 L 75.62 33.49 L 75.21 34.19 L 74.78 34.88 L 74.34 35.57 L 73.9 36.26 L 73.44 36.94 L 72.98 37.62 L 72.5 38.29 L 72.02 38.96 L 71.53 39.63 L 71.02 40.29 L 70.51 40.94 L 69.45 42.25 L 68.36 43.53 L 67.23 44.81 L 66.06 46.06 L 64.85 47.3 L 63.61 48.51 L 62.36 49.67 L 61.09 50.8 L 59.81 51.89 L 58.51 52.95 L 57.2 53.96 L 56.53 54.45 L 55.87 54.94 L 55.19 55.41 L 54.52 55.88 L 53.84 56.33 L 53.16 56.77 L 52.47 57.21 L 51.78 57.64 L 51.08 58.05 L 50.38 58.46 L 49.68 58.86 L 48.97 59.24 L 48.26 59.62 L 47.55 59.99 L 46.83 60.35 L 46.1 60.7 L 45.38 61.04 L 44.65 61.37 L 43.91 61.69 L 43.17 62 L 42.43 62.3 L 41.68 62.59 L 40.93 62.88 L 40.18 63.15 L 39.42 63.41 L 38.66 63.67 L 37.89 63.91 L 37.12 64.14 L 36.35 64.37 L 35.57 64.58 L 34.78 64.79 L 34 64.99 L 33.21 65.17 L 32.41 65.35 L 31.62 65.52 L 30.81 65.68 L 30.01 65.82 L 29.2 65.96 L 28.38 66.09 L 27.57 66.21 L 25.92 66.42 L 24.25 66.59 L 22.57 66.73 L 20.88 66.82 L 19.17 66.88 L 17.44 66.9 L 17.3 66.9 L 17.16 66.9 L 15.43 66.88 L 13.72 66.82 L 12.02 66.73 L 10.34 66.59 L 8.68 66.42 L 7.03 66.21 L 6.21 66.09 L 5.4 65.96 L 4.59 65.82 L 3.78 65.68 L 2.98 65.52 L 2.18 65.35 L 1.39 65.17 L 0.6 64.99 L -0.19 64.79 L -0.97 64.58 L -1.75 64.37 L -2.53 64.14 L -3.3 63.91 L -4.07 63.67 L -4.83 63.41 L -5.59 63.15 L -6.34 62.88 L -7.09 62.59 L -7.84 62.3 L -8.59 62 L -9.32 61.69 L -10.06 61.37 L -10.79 61.04 L -11.52 60.7 L -12.24 60.35 L -12.96 59.99 L -13.68 59.62 L -14.39 59.24 L -15.1 58.86 L -15.8 58.46 L -16.5 58.05 L -17.2 57.64 L -17.89 57.21 L -18.58 56.77 L -19.27 56.33 L -19.95 55.88 L -20.62 55.41 L -21.3 54.94 L -21.96 54.45 L -22.63 53.96 L -23.95 52.95 L -25.25 51.89 L -26.54 50.8 L -27.81 49.67 L -29.06 48.51 L -30.3 47.3 L -31.51 46.06 L -32.68 44.81 L -33.81 43.53 L -34.91 42.25 L -35.96 40.94 L -36.47 40.29 L -36.98 39.63 L -37.47 38.96 L -37.96 38.29 L -38.43 37.62 L -38.9 36.94 L -39.35 36.26 L -39.8 35.57 L -40.24 34.88 L -40.66 34.19 L -41.08 33.49 L -41.49 32.79 L -41.89 32.09 L -42.27 31.38 L -42.65 30.67 L -43.02 29.95 L -43.38 29.23 L -43.73 28.5 L -44.07 27.77 L -44.4 27.04 L -44.73 26.3 L -45.04 25.56 L -45.34 24.82 L -45.63 24.07 L -45.92 23.32 L -46.19 22.56 L -46.45 21.8 L -46.71 21.03 L -46.95 20.26 L -47.19 19.49 L -47.41 18.71 L -47.63 17.93 L -47.83 17.15 L -48.03 16.36 L -48.22 15.57 L -48.4 14.77 L -48.56 13.97 L -48.72 13.17 L -48.87 12.36 L -49.01 11.54 L -49.14 10.73 L -49.26 9.91 L -49.37 9.08 L -49.47 8.25 L -49.64 6.59 L -49.78 4.9 L -49.87 3.2 L -49.93 1.48 L -49.95 -0.25 L -49.93 -1.98 L -49.87 -3.69 L -49.78 -5.38 L -49.64 -7.06 L -49.47 -8.73 L -49.37 -9.55 L -49.26 -10.37 L -49.14 -11.19 L -49.01 -12.01 L -48.87 -12.82 L -48.72 -13.62 L -48.56 -14.42 L -48.4 -15.22 L -48.22 -16.02 L -48.03 -16.81 L -47.83 -17.59 L -47.63 -18.38 L -47.41 -19.16 L -47.19 -19.93 L -46.95 -20.7 L -46.71 -21.47 L -46.45 -22.23 L -46.19 -22.99 L -45.92 -23.75 L -45.63 -24.5 L -45.34 -25.24 L -45.04 -25.99 L -44.73 -26.73 L -44.4 -27.46 L -44.07 -28.19 L -43.73 -28.92 L -43.38 -29.65 L -43.02 -30.37 L -42.65 -31.08 L -42.27 -31.79 L -41.89 -32.5 L -41.49 -33.21 L -41.08 -33.91 L -40.66 -34.6 L -40.24 -35.29 L -39.8 -35.98 L -39.35 -36.67 L -38.9 -37.35 L -38.43 -38.02 L -37.96 -38.7 L -37.47 -39.36 L -36.98 -40.03 L -35.96 -41.35 L -34.91 -42.65 L -33.81 -43.94 L -32.68 -45.21 L -31.51 -46.46 L -30.3 -47.7 L -29.06 -48.91 L -27.81 -50.07 L -26.54 -51.2 L -25.25 -52.29 L -23.95 -53.35 L -22.63 -54.36 L -21.96 -54.85 L -21.3 -55.34 L -20.62 -55.81 L -19.95 -56.28 L -19.27 -56.73 L -18.58 -57.17 L -17.89 -57.61 L -17.2 -58.04 L -16.5 -58.45 L -15.8 -58.86 L -15.1 -59.26 L -14.39 -59.64 L -13.68 -60.02 L -12.96 -60.39 L -12.24 -60.75 L -11.52 -61.1 L -10.79 -61.44 L -10.06 -61.77 L -9.32 -62.09 L -8.59 -62.4 L -7.84 -62.7 L -7.09 -62.99 L -6.34 -63.28 L -5.59 -63.55 L -4.83 -63.81 L -4.07 -64.07 L -3.3 -64.31 L -2.53 -64.54 L -1.75 -64.77 L -0.97 -64.98 L -0.19 -65.19 L 0.6 -65.39 L 1.39 -65.57 L 2.18 -65.75 L 2.98 -65.92 L 3.78 -66.08 L 4.59 -66.22 L 5.4 -66.36 L 6.21 -66.49 L 7.03 -66.61 L 8.68 -66.82 L 10.34 -66.99 L 12.02 -67.13 L 13.72 -67.22 L 15.43 -67.28 L 17.16 -67.3 L 17.3 -67.3 L 17.44 -67.3 Z M 12.7 -98.75 L 11.45 -98.74 L 10.2 -98.72 L 8.95 -98.69 L 7.7 -98.64 L 6.46 -98.58 L 5.22 -98.51 L 3.99 -98.42 L 2.75 -98.32 L 1.52 -98.21 L 0.3 -98.08 L -0.92 -97.94 L -2.14 -97.79 L -3.36 -97.62 L -4.57 -97.44 L -5.78 -97.24 L -6.99 -97.04 L -8.19 -96.82 L -9.39 -96.58 L -10.59 -96.34 L -11.78 -96.07 L -12.97 -95.8 L -14.16 -95.51 L -15.35 -95.21 L -16.53 -94.9 L -17.7 -94.57 L -18.88 -94.23 L -20.05 -93.87 L -21.22 -93.51 L -22.38 -93.12 L -23.54 -92.73 L -24.7 -92.32 L -25.85 -91.9 L -27.01 -91.47 L -28.15 -91.02 L -29.3 -90.56 L -30.44 -90.08 L -31.58 -89.59 L -32.72 -89.09 L -33.85 -88.58 L -34.98 -88.05 L -36.1 -87.51 L -37.22 -86.95 L -38.34 -86.38 L -39.46 -85.8 L -40.57 -85.2 L -41.68 -84.6 L -42.79 -83.97 L -43.89 -83.34 L -44.99 -82.69 L -46.09 -82.03 L -47.18 -81.35 L -48.27 -80.66 L -49.36 -79.96 L -50.44 -79.24 L -51.52 -78.51 L -52.6 -77.77 L -53.67 -77.02 L -54.74 -76.25 L -55.81 -75.46 L -56.88 -74.67 L -57.94 -73.86 L -58.99 -73.04 L -60.05 -72.2 L -61.1 -71.35 L -62.14 -70.49 L -63.17 -69.62 L -64.18 -68.74 L -65.17 -67.85 L -66.14 -66.95 L -67.1 -66.04 L -68.04 -65.12 L -68.97 -64.2 L -69.88 -63.26 L -70.77 -62.32 L -71.64 -61.36 L -72.5 -60.4 L -73.35 -59.43 L -74.17 -58.45 L -74.98 -57.46 L -75.77 -56.46 L -76.55 -55.45 L -77.31 -54.44 L -78.05 -53.41 L -78.77 -52.38 L -79.48 -51.33 L -80.18 -50.28 L -80.85 -49.22 L -81.51 -48.15 L -82.15 -47.07 L -82.78 -45.98 L -83.39 -44.88 L -83.98 -43.77 L -84.56 -42.65 L -85.12 -41.53 L -85.66 -40.39 L -86.19 -39.25 L -86.7 -38.1 L -87.19 -36.93 L -87.67 -35.76 L -88.13 -34.58 L -88.57 -33.39 L -89 -32.2 L -89.41 -30.99 L -89.8 -29.77 L -90.18 -28.55 L -90.54 -27.31 L -90.88 -26.07 L -91.21 -24.81 L -91.52 -23.55 L -91.81 -22.28 L -92.09 -21 L -92.35 -19.71 L -92.59 -18.41 L -92.82 -17.11 L -93.03 -15.79 L -93.22 -14.46 L -93.4 -13.13 L -93.56 -11.79 L -93.7 -10.43 L -93.83 -9.07 L -93.94 -7.7 L -94.04 -6.32 L -94.11 -4.93 L -94.17 -3.53 L -94.22 -2.13 L -94.24 -0.71 L -94.26 0.72 L -94.25 2.15 L -94.3 2.2 L -94.28 3.63 L -94.24 5.06 L -94.19 6.47 L -94.12 7.87 L -94.04 9.26 L -93.94 10.64 L -93.82 12.01 L -93.69 13.36 L -93.54 14.71 L -93.37 16.04 L -93.19 17.37 L -93 18.68 L -92.78 19.98 L -92.55 21.27 L -92.31 22.56 L -92.05 23.83 L -91.77 25.08 L -91.48 26.33 L -91.17 27.57 L -90.84 28.79 L -90.5 30.01 L -90.14 31.21 L -89.77 32.41 L -89.38 33.59 L -88.97 34.76 L -88.55 35.92 L -88.12 37.07 L -87.66 38.21 L -87.19 39.33 L -86.71 40.45 L -86.21 41.56 L -85.69 42.65 L -85.15 43.73 L -84.6 44.81 L -84.04 45.87 L -83.46 46.92 L -82.86 47.96 L -82.24 48.99 L -81.61 50.01 L -80.97 51.01 L -80.31 52.01 L -79.63 52.99 L -78.93 53.97 L -78.22 54.93 L -77.5 55.88 L -76.75 56.83 L -76 57.76 L -75.22 58.67 L -74.43 59.58 L -73.62 60.48 L -72.8 61.37 L -71.96 62.24 L -71.11 63.11 L -70.24 63.96 L -69.35 64.81 L -68.45 65.64 L -67.53 66.46 L -66.6 67.27 L -65.64 68.07 L -64.68 68.86 L -63.7 69.63 L -62.7 70.4 L -61.68 71.16 L -60.65 71.9 L -59.62 72.63 L -58.58 73.34 L -57.54 74.05 L -56.49 74.74 L -55.44 75.42 L -54.39 76.09 L -53.33 76.75 L -52.28 77.4 L -51.21 78.03 L -50.15 78.66 L -49.08 79.27 L -48.01 79.87 L -46.93 80.46 L -45.85 81.04 L -44.77 81.6 L -43.68 82.16 L -42.59 82.7 L -41.5 83.24 L -40.4 83.76 L -39.3 84.27 L -38.2 84.76 L -37.09 85.25 L -35.98 85.73 L -34.87 86.19 L -33.75 86.64 L -32.63 87.08 L -31.5 87.51 L -30.38 87.93 L -29.24 88.34 L -28.11 88.73 L -26.97 89.12 L -25.83 89.49 L -24.69 89.85 L -23.54 90.2 L -22.39 90.54 L -21.23 90.86 L -20.07 91.18 L -18.91 91.48 L -17.74 91.77 L -16.58 92.05 L -15.4 92.32 L -14.23 92.58 L -13.05 92.83 L -11.87 93.06 L -10.68 93.28 L -9.49 93.5 L -8.3 93.7 L -7.1 93.88 L -5.9 94.06 L -4.7 94.23 L -3.49 94.38 L -2.28 94.53 L -1.07 94.66 L 0.15 94.78 L 1.37 94.89 L 2.59 94.98 L 3.82 95.07 L 5.05 95.14 L 6.29 95.21 L 7.52 95.26 L 8.77 95.3 L 10.01 95.33 L 11.26 95.34 L 12.51 95.35 L 12.85 95.35 L 13.13 95.35 L 14.38 95.34 L 15.63 95.32 L 16.86 95.29 L 18.09 95.24 L 19.32 95.18 L 20.54 95.1 L 21.76 95.01 L 22.97 94.91 L 24.17 94.79 L 25.37 94.66 L 26.56 94.51 L 27.75 94.36 L 28.93 94.18 L 30.1 94 L 31.27 93.8 L 32.43 93.58 L 33.59 93.35 L 34.74 93.11 L 35.89 92.86 L 37.03 92.59 L 38.17 92.3 L 39.29 92.01 L 40.42 91.7 L 41.54 91.37 L 42.65 91.03 L 43.75 90.68 L 44.85 90.31 L 45.95 89.93 L 47.04 89.54 L 48.12 89.13 L 49.2 88.71 L 50.27 88.28 L 51.34 87.83 L 52.4 87.36 L 53.45 86.89 L 54.5 86.4 L 55.54 85.89 L 56.58 85.37 L 57.61 84.84 L 58.64 84.3 L 59.66 83.74 L 60.67 83.16 L 61.68 82.58 L 62.69 81.97 L 63.68 81.36 L 64.68 80.73 L 65.66 80.09 L 66.64 79.43 L 67.62 78.76 L 68.59 78.08 L 69.55 77.38 L 70.51 76.67 L 71.46 75.94 L 72.4 75.2 L 73.34 74.45 L 74.28 73.68 L 75.21 72.9 L 76.13 72.11 L 77.05 71.3 L 77.96 70.48 L 78.87 69.64 L 79.77 68.79 L 80.66 67.93 L 81.55 67.05 L 82.43 66.16 L 83.3 65.26 L 84.15 64.35 L 84.99 63.44 L 85.82 62.52 L 86.63 61.6 L 87.43 60.67 L 88.22 59.74 L 88.99 58.8 L 89.74 57.86 L 90.49 56.9 L 91.22 55.95 L 91.93 54.99 L 92.63 54.02 L 93.32 53.04 L 93.99 52.06 L 94.65 51.08 L 95.3 50.09 L 95.93 49.09 L 96.55 48.09 L 97.15 47.08 L 97.74 46.06 L 98.32 45.04 L 98.88 44.02 L 99.43 42.98 L 99.96 41.95 L 100.48 40.9 L 100.99 39.85 L 101.48 38.8 L 101.96 37.74 L 102.42 36.67 L 102.88 35.6 L 103.31 34.52 L 103.73 33.44 L 104.14 32.35 L 104.54 31.25 L 104.92 30.15 L 105.29 29.05 L 105.64 27.93 L 105.98 26.82 L 106.31 25.69 L 106.62 24.56 L 106.91 23.43 L 107.2 22.29 L 107.47 21.14 L 107.72 19.99 L 107.97 18.83 L 108.19 17.66 L 108.41 16.49 L 108.61 15.32 L 108.79 14.14 L 108.97 12.95 L 109.13 11.75 L 109.27 10.56 L 109.4 9.35 L 109.52 8.14 L 109.62 6.92 L 109.71 5.7 L 109.78 4.47 L 109.84 3.24 L 109.89 2 L 109.93 0.76 L 109.94 -0.49 L 109.95 -1.75 L 109.94 -3 L 109.93 -4.25 L 109.89 -5.49 L 109.84 -6.72 L 109.78 -7.95 L 109.71 -9.18 L 109.62 -10.39 L 109.52 -11.61 L 109.4 -12.81 L 109.27 -14.01 L 109.13 -15.21 L 108.97 -16.4 L 108.79 -17.58 L 108.61 -18.76 L 108.41 -19.93 L 108.19 -21.1 L 107.97 -22.26 L 107.72 -23.41 L 107.47 -24.56 L 107.2 -25.71 L 106.91 -26.84 L 106.62 -27.98 L 106.31 -29.1 L 105.98 -30.22 L 105.64 -31.34 L 105.29 -32.45 L 104.92 -33.55 L 104.54 -34.65 L 104.14 -35.74 L 103.73 -36.83 L 103.31 -37.91 L 102.88 -38.99 L 102.42 -40.06 L 101.96 -41.12 L 101.48 -42.18 L 100.99 -43.23 L 100.48 -44.28 L 99.96 -45.32 L 99.43 -46.36 L 98.88 -47.39 L 98.32 -48.41 L 97.74 -49.43 L 97.15 -50.44 L 96.55 -51.45 L 95.93 -52.45 L 95.3 -53.45 L 94.65 -54.44 L 93.99 -55.42 L 93.32 -56.4 L 92.63 -57.37 L 91.93 -58.34 L 91.22 -59.3 L 90.49 -60.26 L 89.74 -61.21 L 88.99 -62.15 L 88.22 -63.09 L 87.43 -64.03 L 86.63 -64.95 L 85.82 -65.88 L 84.99 -66.79 L 84.15 -67.7 L 83.3 -68.61 L 82.43 -69.51 L 81.55 -70.4 L 80.66 -71.28 L 79.76 -72.14 L 78.86 -73 L 77.95 -73.83 L 77.04 -74.66 L 76.12 -75.47 L 75.2 -76.26 L 74.27 -77.04 L 73.33 -77.81 L 72.39 -78.57 L 71.44 -79.31 L 70.49 -80.03 L 69.53 -80.75 L 68.56 -81.45 L 67.59 -82.13 L 66.62 -82.8 L 65.63 -83.46 L 64.64 -84.1 L 63.65 -84.73 L 62.65 -85.35 L 61.65 -85.95 L 60.64 -86.54 L 59.62 -87.12 L 58.6 -87.68 L 57.57 -88.22 L 56.53 -88.76 L 55.49 -89.27 L 54.45 -89.78 L 53.4 -90.27 L 52.34 -90.75 L 51.28 -91.21 L 50.21 -91.66 L 49.14 -92.1 L 48.06 -92.52 L 46.97 -92.93 L 45.88 -93.32 L 44.78 -93.7 L 43.68 -94.07 L 42.57 -94.42 L 41.46 -94.76 L 40.34 -95.09 L 39.21 -95.4 L 38.08 -95.7 L 36.94 -95.98 L 35.8 -96.25 L 34.65 -96.51 L 33.5 -96.75 L 32.34 -96.98 L 31.17 -97.19 L 30 -97.39 L 28.82 -97.58 L 27.64 -97.75 L 26.45 -97.91 L 25.25 -98.06 L 24.05 -98.19 L 22.85 -98.31 L 21.64 -98.41 L 20.42 -98.5 L 19.19 -98.58 L 17.97 -98.64 L 16.73 -98.69 L 15.49 -98.72 L 14.24 -98.74 L 12.99 -98.75 L 12.85 -98.75 L 12.7 -98.75 Z"/>
    </clipPath>
    <g clip-path="url(#clipPath0)">
      <use ffdec:characterId="550" height="181.1" transform="matrix(1.0, 0.0, 0.0, 1.0, -90.7, -90.55)" width="181.35" xlink:href="#morphshape1"/>
    </g>
  </g>
  <defs>
    <g id="morphshape0" transform="matrix(1.0, 0.0, 0.0, 1.0, 90.7, 90.55)">
      <path d="M-27.6 0.0 Q-27.5 11.45 -19.55 19.55 -11.4 27.55 0.0 27.6 11.4 27.5 19.5 19.55 27.5 11.4 27.55 0.0 27.45 -11.4 19.5 -19.5 11.35 -27.5 -0.05 -27.55 -11.5 -27.45 -19.6 -19.5 -27.6 -11.35 -27.65 0.0" fill="#ffffff" fill-rule="evenodd" stroke="none"/>
      <path d="M-27.65 0.0 Q-27.6 -11.35 -19.6 -19.5 -11.5 -27.45 -0.05 -27.55 11.35 -27.5 19.5 -19.5 27.45 -11.4 27.55 0.0 27.5 11.4 19.5 19.55 11.4 27.5 0.0 27.6 -11.4 27.55 -19.55 19.55 -27.5 11.45 -27.6 0.0" ffdec:has-small-stroke="true" ffdec:original-stroke-width="0.0" fill="none" stroke="#000000" stroke-linecap="round" stroke-linejoin="round" stroke-opacity="0.0" stroke-width="1.0"/>
    </g>
    <g id="morphshape1" transform="matrix(1.0, 0.0, 0.0, 1.0, 90.7, 90.55)">
      <path d="M-90.7 -0.05 Q-90.7 37.55 -64.15 64.15 -37.55 90.65 0.05 90.55 37.6 90.65 64.15 64.15 90.7 37.55 90.65 -0.05 90.7 -37.55 64.15 -64.1 37.6 -90.6 0.05 -90.55 -37.55 -90.6 -64.15 -64.1 -90.7 -37.55 -90.7 -0.05" fill="url(#gradient0)" fill-rule="evenodd" stroke="none"/>
      <path d="M-90.7 -0.05 Q-90.7 -37.55 -64.15 -64.1 -37.55 -90.6 0.05 -90.55 37.6 -90.6 64.15 -64.1 90.7 -37.55 90.65 -0.05 90.7 37.55 64.15 64.15 37.6 90.65 0.05 90.55 -37.55 90.65 -64.15 64.15 -90.7 37.55 -90.7 -0.05 Z" ffdec:has-small-stroke="true" ffdec:original-stroke-width="0.0" fill="none" stroke="#000000" stroke-linecap="round" stroke-linejoin="round" stroke-opacity="0.0" stroke-width="1.0"/>
    </g>
    <radialGradient cx="0" cy="0" gradientTransform="matrix(0.1216, 0.0, 0.0, 0.1214, 0.3, -0.6)" gradientUnits="userSpaceOnUse" id="gradient0" r="819.2" spreadMethod="pad">
      <stop offset="0.0" stop-color="#ffffff"/>
      <stop offset="0.49019607843137253" stop-color="#ffffff"/>
      <stop offset="0.7686274509803922" stop-color="#ffff00"/>
      <stop offset="1.0" stop-color="#ff0000"/>
    </radialGradient>
  </defs>
</svg>
