<?xml version="1.0" encoding="UTF-8" standalone="no"?>
<svg xmlns:ffdec="https://www.free-decompiler.com/flash" xmlns:xlink="http://www.w3.org/1999/xlink" ffdec:objectType="frame" height="220.3px" width="226.55px" xmlns="http://www.w3.org/2000/svg">
  <g transform="matrix(1.0, 0.0, 0.0, 1.0, 108.95, 112.25)">
    <use ffdec:characterId="551" height="181.1" transform="matrix(1.0, 0.0, 0.0, 1.0, -90.7, -90.55)" width="181.35" xlink:href="#morphshape0"/>
    <clipPath id="clipPath0">
      <path d="M 20.79 -79.7 L 21.81 -79.69 L 22.83 -79.68 L 23.85 -79.65 L 24.85 -79.61 L 25.86 -79.56 L 26.86 -79.5 L 27.85 -79.42 L 28.84 -79.34 L 29.83 -79.24 L 30.81 -79.13 L 31.79 -79.01 L 32.76 -78.88 L 33.73 -78.74 L 34.69 -78.59 L 35.65 -78.43 L 36.6 -78.25 L 37.55 -78.06 L 38.49 -77.86 L 39.43 -77.66 L 40.36 -77.43 L 41.29 -77.2 L 42.22 -76.96 L 43.14 -76.7 L 44.05 -76.44 L 44.96 -76.16 L 45.87 -75.87 L 46.77 -75.57 L 47.67 -75.26 L 48.56 -74.94 L 49.45 -74.6 L 50.33 -74.26 L 51.21 -73.9 L 52.08 -73.53 L 52.95 -73.15 L 53.82 -72.76 L 54.68 -72.36 L 55.53 -71.95 L 56.38 -71.52 L 57.23 -71.09 L 58.07 -70.64 L 58.9 -70.18 L 59.74 -69.71 L 60.56 -69.23 L 61.39 -68.73 L 62.2 -68.23 L 63.02 -67.71 L 63.82 -67.19 L 64.63 -66.65 L 65.43 -66.1 L 66.22 -65.54 L 67.01 -64.97 L 67.8 -64.38 L 68.58 -63.79 L 69.35 -63.18 L 70.12 -62.57 L 70.89 -61.94 L 71.65 -61.3 L 72.41 -60.65 L 73.16 -59.98 L 73.91 -59.31 L 74.65 -58.62 L 75.39 -57.93 L 76.12 -57.22 L 76.85 -56.5 L 77.57 -55.77 L 78.28 -55.03 L 78.98 -54.29 L 79.67 -53.55 L 80.34 -52.8 L 81 -52.05 L 81.66 -51.29 L 82.3 -50.53 L 82.93 -49.76 L 83.55 -48.99 L 84.15 -48.21 L 84.75 -47.43 L 85.33 -46.64 L 85.91 -45.85 L 86.47 -45.05 L 87.02 -44.25 L 87.56 -43.45 L 88.09 -42.64 L 88.6 -41.82 L 89.11 -41 L 89.6 -40.18 L 90.08 -39.35 L 90.55 -38.52 L 91.01 -37.68 L 91.46 -36.84 L 91.9 -35.99 L 92.32 -35.14 L 92.73 -34.28 L 93.14 -33.42 L 93.53 -32.56 L 93.91 -31.69 L 94.28 -30.81 L 94.63 -29.93 L 94.98 -29.05 L 95.31 -28.16 L 95.63 -27.27 L 95.95 -26.37 L 96.25 -25.46 L 96.53 -24.56 L 96.81 -23.64 L 97.08 -22.73 L 97.33 -21.81 L 97.57 -20.88 L 97.81 -19.95 L 98.03 -19.01 L 98.24 -18.07 L 98.43 -17.13 L 98.62 -16.18 L 98.79 -15.22 L 98.96 -14.26 L 99.11 -13.3 L 99.25 -12.33 L 99.38 -11.36 L 99.5 -10.38 L 99.6 -9.4 L 99.7 -8.41 L 99.78 -7.42 L 99.85 -6.43 L 99.92 -5.42 L 99.97 -4.42 L 100 -3.41 L 100.03 -2.39 L 100.05 -1.37 L 100.05 -0.35 L 100.05 0.68 L 100.03 1.7 L 100 2.71 L 99.97 3.73 L 99.92 4.73 L 99.85 5.73 L 99.78 6.73 L 99.7 7.73 L 99.6 8.71 L 99.5 9.7 L 99.38 10.68 L 99.25 11.65 L 99.11 12.62 L 98.96 13.59 L 98.79 14.55 L 98.62 15.5 L 98.43 16.45 L 98.24 17.4 L 98.03 18.34 L 97.81 19.28 L 97.57 20.21 L 97.33 21.14 L 97.08 22.06 L 96.81 22.98 L 96.53 23.9 L 96.25 24.81 L 95.95 25.71 L 95.63 26.61 L 95.31 27.5 L 94.98 28.4 L 94.63 29.28 L 94.28 30.16 L 93.91 31.04 L 93.53 31.91 L 93.14 32.78 L 92.73 33.64 L 92.32 34.5 L 91.9 35.35 L 91.46 36.2 L 91.01 37.04 L 90.55 37.88 L 90.08 38.72 L 89.6 39.55 L 89.11 40.37 L 88.6 41.19 L 88.09 42.01 L 87.56 42.82 L 87.02 43.63 L 86.47 44.43 L 85.91 45.23 L 85.33 46.02 L 84.75 46.81 L 84.15 47.59 L 83.55 48.37 L 82.93 49.14 L 82.3 49.91 L 81.66 50.68 L 81 51.44 L 80.34 52.19 L 79.67 52.94 L 78.98 53.69 L 78.28 54.43 L 77.57 55.17 L 76.85 55.9 L 76.12 56.62 L 75.39 57.32 L 74.65 58.02 L 73.91 58.7 L 73.16 59.38 L 72.41 60.04 L 71.65 60.69 L 70.89 61.33 L 70.12 61.95 L 69.35 62.57 L 68.58 63.17 L 67.8 63.77 L 67.01 64.35 L 66.22 64.92 L 65.43 65.48 L 64.63 66.03 L 63.82 66.57 L 63.02 67.09 L 62.2 67.61 L 61.39 68.11 L 60.56 68.6 L 59.74 69.08 L 58.9 69.55 L 58.07 70.01 L 57.23 70.45 L 56.38 70.89 L 55.53 71.31 L 54.68 71.73 L 53.82 72.13 L 52.95 72.52 L 52.08 72.9 L 51.21 73.26 L 50.33 73.62 L 49.45 73.96 L 48.56 74.3 L 47.67 74.62 L 46.77 74.93 L 45.87 75.23 L 44.96 75.52 L 44.05 75.79 L 43.14 76.06 L 42.22 76.31 L 41.29 76.56 L 40.36 76.79 L 39.43 77.01 L 38.49 77.22 L 37.55 77.42 L 36.6 77.6 L 35.65 77.78 L 34.69 77.94 L 33.73 78.09 L 32.76 78.24 L 31.79 78.37 L 30.81 78.48 L 29.83 78.59 L 28.84 78.69 L 27.85 78.77 L 26.86 78.85 L 25.86 78.91 L 24.86 78.96 L 23.85 79 L 22.83 79.03 L 21.81 79.04 L 20.79 79.05 L 20.65 79.05 L 20.51 79.05 L 19.49 79.04 L 18.47 79.03 L 17.45 79 L 16.44 78.96 L 15.44 78.91 L 14.44 78.85 L 13.45 78.77 L 12.45 78.69 L 11.47 78.59 L 10.49 78.48 L 9.51 78.37 L 8.54 78.24 L 7.57 78.09 L 6.61 77.94 L 5.65 77.78 L 4.7 77.6 L 3.75 77.42 L 2.81 77.22 L 1.87 77.01 L 0.93 76.79 L 0 76.56 L -0.92 76.31 L -1.84 76.06 L -2.76 75.79 L -3.67 75.52 L -4.58 75.23 L -5.48 74.93 L -6.38 74.62 L -7.27 74.3 L -8.16 73.96 L -9.04 73.62 L -9.92 73.26 L -10.8 72.9 L -11.67 72.52 L -12.53 72.13 L -13.39 71.73 L -14.25 71.31 L -15.1 70.89 L -15.95 70.45 L -16.79 70.01 L -17.63 69.55 L -18.46 69.08 L -19.29 68.6 L -20.11 68.11 L -20.93 67.61 L -21.74 67.09 L -22.55 66.57 L -23.36 66.03 L -24.16 65.48 L -24.95 64.92 L -25.74 64.35 L -26.53 63.77 L -27.31 63.17 L -28.09 62.57 L -28.86 61.95 L -29.63 61.33 L -30.39 60.69 L -31.15 60.04 L -31.9 59.38 L -32.65 58.7 L -33.39 58.02 L -34.13 57.32 L -34.87 56.62 L -35.6 55.9 L -36.32 55.17 L -37.03 54.43 L -37.73 53.69 L -38.42 52.94 L -39.09 52.19 L -39.76 51.44 L -40.41 50.68 L -41.05 49.91 L -41.68 49.14 L -42.3 48.37 L -42.91 47.59 L -43.5 46.81 L -44.09 46.02 L -44.66 45.23 L -45.22 44.43 L -45.77 43.63 L -46.31 42.82 L -46.84 42.01 L -47.36 41.19 L -47.86 40.37 L -48.35 39.55 L -48.84 38.72 L -49.31 37.88 L -49.77 37.04 L -50.22 36.2 L -50.65 35.35 L -51.08 34.5 L -51.49 33.64 L -51.9 32.78 L -52.29 31.91 L -52.67 31.04 L -53.04 30.16 L -53.4 29.28 L -53.74 28.4 L -54.08 27.5 L -54.4 26.61 L -54.71 25.71 L -55.01 24.81 L -55.3 23.9 L -55.58 22.98 L -55.85 22.06 L -56.1 21.14 L -56.35 20.21 L -56.58 19.28 L -56.8 18.34 L -57.01 17.4 L -57.21 16.45 L -57.4 15.5 L -57.57 14.55 L -57.74 13.59 L -57.89 12.62 L -58.03 11.65 L -58.16 10.68 L -58.28 9.7 L -58.39 8.71 L -58.49 7.73 L -58.57 6.73 L -58.65 5.73 L -58.71 4.73 L -58.76 3.73 L -58.8 2.71 L -58.83 1.7 L -58.84 0.68 L -58.85 -0.35 L -58.84 -1.37 L -58.83 -2.39 L -58.8 -3.41 L -58.76 -4.42 L -58.71 -5.42 L -58.65 -6.43 L -58.57 -7.42 L -58.49 -8.41 L -58.39 -9.4 L -58.28 -10.38 L -58.16 -11.36 L -58.03 -12.33 L -57.89 -13.3 L -57.74 -14.26 L -57.57 -15.22 L -57.4 -16.18 L -57.21 -17.13 L -57.01 -18.07 L -56.8 -19.01 L -56.58 -19.95 L -56.35 -20.88 L -56.1 -21.81 L -55.85 -22.73 L -55.58 -23.64 L -55.3 -24.56 L -55.01 -25.46 L -54.71 -26.37 L -54.4 -27.27 L -54.08 -28.16 L -53.74 -29.05 L -53.4 -29.93 L -53.04 -30.81 L -52.67 -31.69 L -52.29 -32.56 L -51.9 -33.42 L -51.49 -34.28 L -51.08 -35.14 L -50.65 -35.99 L -50.22 -36.84 L -49.77 -37.68 L -49.31 -38.52 L -48.84 -39.35 L -48.35 -40.18 L -47.86 -41 L -47.36 -41.82 L -46.84 -42.64 L -46.31 -43.45 L -45.77 -44.25 L -45.22 -45.05 L -44.66 -45.85 L -44.09 -46.64 L -43.5 -47.43 L -42.91 -48.21 L -42.3 -48.99 L -41.68 -49.76 L -41.05 -50.53 L -40.41 -51.29 L -39.76 -52.05 L -39.09 -52.8 L -38.42 -53.55 L -37.73 -54.29 L -37.03 -55.03 L -36.32 -55.77 L -35.6 -56.5 L -34.87 -57.22 L -34.13 -57.93 L -33.39 -58.62 L -32.65 -59.31 L -31.9 -59.98 L -31.15 -60.65 L -30.39 -61.3 L -29.63 -61.94 L -28.86 -62.57 L -28.09 -63.18 L -27.31 -63.79 L -26.53 -64.38 L -25.74 -64.97 L -24.95 -65.54 L -24.16 -66.1 L -23.36 -66.65 L -22.55 -67.19 L -21.74 -67.71 L -20.93 -68.23 L -20.11 -68.73 L -19.29 -69.23 L -18.46 -69.71 L -17.63 -70.18 L -16.79 -70.64 L -15.95 -71.09 L -15.1 -71.52 L -14.25 -71.95 L -13.39 -72.36 L -12.53 -72.76 L -11.67 -73.15 L -10.8 -73.53 L -9.92 -73.9 L -9.04 -74.26 L -8.16 -74.6 L -7.27 -74.94 L -6.38 -75.26 L -5.48 -75.57 L -4.58 -75.87 L -3.67 -76.16 L -2.76 -76.44 L -1.84 -76.7 L -0.92 -76.96 L 0 -77.2 L 0.93 -77.43 L 1.87 -77.66 L 2.81 -77.86 L 3.75 -78.06 L 4.7 -78.25 L 5.65 -78.43 L 6.61 -78.59 L 7.57 -78.74 L 8.54 -78.88 L 9.51 -79.01 L 10.49 -79.13 L 11.47 -79.24 L 12.46 -79.34 L 13.45 -79.42 L 14.44 -79.5 L 15.44 -79.56 L 16.44 -79.61 L 17.45 -79.65 L 18.47 -79.68 L 19.49 -79.69 L 20.51 -79.7 L 20.65 -79.7 L 20.79 -79.7 Z M 15.25 -100.35 L 13.98 -100.34 L 12.71 -100.32 L 11.45 -100.29 L 10.19 -100.24 L 8.93 -100.18 L 7.67 -100.11 L 6.41 -100.02 L 5.16 -99.92 L 3.91 -99.81 L 2.67 -99.68 L 1.43 -99.54 L 0.19 -99.38 L -1.05 -99.21 L -2.29 -99.03 L -3.52 -98.84 L -4.75 -98.63 L -5.97 -98.41 L -7.2 -98.17 L -8.42 -97.92 L -9.64 -97.66 L -10.85 -97.38 L -12.06 -97.09 L -13.27 -96.79 L -14.48 -96.48 L -15.68 -96.15 L -16.88 -95.8 L -18.08 -95.45 L -19.28 -95.08 L -20.47 -94.69 L -21.66 -94.3 L -22.85 -93.89 L -24.03 -93.46 L -25.21 -93.03 L -26.39 -92.57 L -27.57 -92.11 L -28.74 -91.63 L -29.91 -91.14 L -31.08 -90.64 L -32.24 -90.12 L -33.4 -89.59 L -34.56 -89.04 L -35.72 -88.49 L -36.87 -87.91 L -38.02 -87.33 L -39.17 -86.73 L -40.32 -86.12 L -41.46 -85.49 L -42.6 -84.85 L -43.74 -84.2 L -44.87 -83.53 L -46 -82.86 L -47.13 -82.16 L -48.25 -81.46 L -49.38 -80.74 L -50.5 -80 L -51.61 -79.26 L -52.73 -78.5 L -53.84 -77.72 L -54.95 -76.94 L -56.05 -76.14 L -57.16 -75.32 L -58.26 -74.49 L -59.36 -73.65 L -60.45 -72.8 L -61.54 -71.93 L -62.61 -71.06 L -63.66 -70.17 L -64.69 -69.27 L -65.71 -68.36 L -66.71 -67.45 L -67.69 -66.52 L -68.66 -65.59 L -69.6 -64.64 L -70.54 -63.68 L -71.45 -62.72 L -72.34 -61.74 L -73.22 -60.76 L -74.08 -59.76 L -74.93 -58.76 L -75.75 -57.74 L -76.56 -56.72 L -77.35 -55.68 L -78.13 -54.64 L -78.88 -53.58 L -79.62 -52.52 L -80.35 -51.44 L -81.05 -50.36 L -81.74 -49.27 L -82.41 -48.16 L -83.06 -47.05 L -83.7 -45.93 L -84.31 -44.79 L -84.91 -43.65 L -85.5 -42.5 L -86.06 -41.33 L -86.61 -40.16 L -87.14 -38.98 L -87.66 -37.79 L -88.15 -36.59 L -88.63 -35.37 L -89.09 -34.15 L -89.54 -32.92 L -89.97 -31.68 L -90.38 -30.43 L -90.77 -29.17 L -91.14 -27.9 L -91.5 -26.62 L -91.84 -25.33 L -92.16 -24.03 L -92.47 -22.72 L -92.76 -21.4 L -93.03 -20.07 L -93.28 -18.73 L -93.52 -17.38 L -93.74 -16.02 L -93.94 -14.65 L -94.12 -13.27 L -94.29 -11.88 L -94.44 -10.48 L -94.57 -9.07 L -94.68 -7.65 L -94.78 -6.23 L -94.86 -4.79 L -94.92 -3.34 L -94.97 -1.88 L -95 -0.41 L -95.01 1.06 L -95 2.55 L -94.95 2.45 L -94.93 3.94 L -94.89 5.41 L -94.83 6.87 L -94.76 8.32 L -94.67 9.76 L -94.57 11.19 L -94.44 12.6 L -94.3 14 L -94.15 15.39 L -93.98 16.77 L -93.79 18.13 L -93.58 19.49 L -93.36 20.83 L -93.12 22.16 L -92.87 23.48 L -92.59 24.78 L -92.3 26.07 L -92 27.36 L -91.68 28.62 L -91.34 29.88 L -90.98 31.13 L -90.61 32.36 L -90.22 33.58 L -89.82 34.79 L -89.4 35.99 L -88.96 37.17 L -88.5 38.34 L -88.03 39.5 L -87.54 40.65 L -87.04 41.79 L -86.51 42.91 L -85.97 44.03 L -85.42 45.13 L -84.85 46.21 L -84.26 47.29 L -83.65 48.35 L -83.03 49.41 L -82.39 50.45 L -81.74 51.47 L -81.07 52.49 L -80.38 53.49 L -79.67 54.48 L -78.95 55.46 L -78.21 56.43 L -77.46 57.39 L -76.69 58.33 L -75.9 59.26 L -75.09 60.18 L -74.27 61.09 L -73.43 61.98 L -72.58 62.87 L -71.71 63.74 L -70.82 64.6 L -69.91 65.44 L -68.99 66.28 L -68.05 67.1 L -67.1 67.91 L -66.13 68.71 L -65.14 69.5 L -64.14 70.27 L -63.11 71.03 L -62.08 71.79 L -61.02 72.52 L -59.95 73.25 L -58.87 73.96 L -57.79 74.66 L -56.71 75.35 L -55.63 76.02 L -54.54 76.69 L -53.45 77.34 L -52.35 77.99 L -51.25 78.62 L -50.15 79.24 L -49.05 79.85 L -47.94 80.45 L -46.83 81.03 L -45.72 81.61 L -44.6 82.17 L -43.48 82.73 L -42.36 83.27 L -41.24 83.8 L -40.11 84.32 L -38.98 84.83 L -37.84 85.33 L -36.71 85.81 L -35.57 86.29 L -34.42 86.75 L -33.28 87.2 L -32.13 87.65 L -30.98 88.08 L -29.82 88.5 L -28.66 88.9 L -27.5 89.3 L -26.34 89.69 L -25.17 90.06 L -24 90.43 L -22.83 90.78 L -21.65 91.12 L -20.47 91.45 L -19.29 91.77 L -18.1 92.07 L -16.92 92.37 L -15.72 92.66 L -14.53 92.93 L -13.33 93.19 L -12.13 93.44 L -10.93 93.68 L -9.72 93.91 L -8.51 94.13 L -7.3 94.34 L -6.08 94.53 L -4.86 94.72 L -3.64 94.89 L -2.42 95.05 L -1.19 95.21 L 0.04 95.35 L 1.27 95.47 L 2.51 95.59 L 3.75 95.7 L 4.99 95.79 L 6.24 95.88 L 7.49 95.95 L 8.74 96.01 L 10 96.06 L 11.25 96.1 L 12.52 96.13 L 13.78 96.14 L 15.05 96.15 L 15.4 96.15 L 15.68 96.15 L 16.95 96.14 L 18.21 96.12 L 19.46 96.09 L 20.71 96.04 L 21.95 95.98 L 23.18 95.9 L 24.41 95.81 L 25.64 95.7 L 26.86 95.58 L 28.07 95.45 L 29.28 95.3 L 30.48 95.14 L 31.67 94.97 L 32.86 94.78 L 34.05 94.58 L 35.22 94.36 L 36.4 94.13 L 37.56 93.88 L 38.72 93.63 L 39.88 93.35 L 41.03 93.07 L 42.17 92.76 L 43.31 92.45 L 44.44 92.12 L 45.56 91.78 L 46.68 91.42 L 47.8 91.05 L 48.91 90.67 L 50.01 90.27 L 51.11 89.86 L 52.2 89.43 L 53.28 88.99 L 54.36 88.53 L 55.44 88.06 L 56.5 87.58 L 57.57 87.09 L 58.62 86.57 L 59.67 86.05 L 60.72 85.51 L 61.76 84.96 L 62.79 84.39 L 63.82 83.81 L 64.84 83.22 L 65.85 82.61 L 66.86 81.99 L 67.87 81.35 L 68.87 80.7 L 69.86 80.03 L 70.84 79.36 L 71.83 78.66 L 72.8 77.96 L 73.77 77.24 L 74.73 76.5 L 75.69 75.75 L 76.64 74.99 L 77.59 74.21 L 78.53 73.42 L 79.46 72.62 L 80.39 71.8 L 81.32 70.97 L 82.23 70.12 L 83.14 69.26 L 84.05 68.39 L 84.95 67.5 L 85.84 66.6 L 86.72 65.69 L 87.59 64.77 L 88.44 63.85 L 89.27 62.92 L 90.1 61.99 L 90.9 61.05 L 91.7 60.1 L 92.48 59.15 L 93.25 58.19 L 94 57.23 L 94.74 56.26 L 95.46 55.29 L 96.17 54.31 L 96.87 53.32 L 97.55 52.33 L 98.21 51.33 L 98.87 50.33 L 99.51 49.32 L 100.13 48.3 L 100.74 47.28 L 101.34 46.25 L 101.92 45.22 L 102.49 44.18 L 103.05 43.14 L 103.59 42.09 L 104.12 41.03 L 104.63 39.97 L 105.13 38.9 L 105.61 37.83 L 106.08 36.75 L 106.54 35.66 L 106.98 34.57 L 107.41 33.47 L 107.82 32.37 L 108.22 31.26 L 108.61 30.15 L 108.98 29.03 L 109.34 27.9 L 109.68 26.77 L 110.01 25.63 L 110.33 24.49 L 110.63 23.34 L 110.91 22.18 L 111.19 21.02 L 111.45 19.85 L 111.69 18.68 L 111.92 17.5 L 112.14 16.32 L 112.34 15.13 L 112.53 13.93 L 112.7 12.73 L 112.86 11.52 L 113.01 10.31 L 113.14 9.09 L 113.26 7.86 L 113.37 6.63 L 113.46 5.39 L 113.53 4.15 L 113.59 2.9 L 113.64 1.65 L 113.67 0.39 L 113.69 -0.88 L 113.7 -2.15 L 113.69 -3.42 L 113.67 -4.68 L 113.64 -5.94 L 113.59 -7.19 L 113.53 -8.43 L 113.46 -9.67 L 113.37 -10.9 L 113.26 -12.13 L 113.14 -13.35 L 113.01 -14.57 L 112.86 -15.77 L 112.7 -16.98 L 112.53 -18.18 L 112.34 -19.37 L 112.14 -20.56 L 111.92 -21.74 L 111.69 -22.91 L 111.45 -24.08 L 111.19 -25.25 L 110.91 -26.4 L 110.63 -27.56 L 110.33 -28.7 L 110.01 -29.84 L 109.68 -30.98 L 109.34 -32.11 L 108.98 -33.23 L 108.61 -34.35 L 108.22 -35.46 L 107.82 -36.57 L 107.41 -37.67 L 106.98 -38.76 L 106.54 -39.85 L 106.08 -40.93 L 105.61 -42.01 L 105.13 -43.08 L 104.63 -44.15 L 104.12 -45.21 L 103.59 -46.26 L 103.05 -47.31 L 102.49 -48.35 L 101.92 -49.39 L 101.34 -50.42 L 100.74 -51.45 L 100.13 -52.47 L 99.51 -53.48 L 98.87 -54.49 L 98.21 -55.49 L 97.55 -56.49 L 96.87 -57.48 L 96.17 -58.46 L 95.46 -59.44 L 94.74 -60.42 L 94 -61.38 L 93.25 -62.35 L 92.48 -63.3 L 91.7 -64.25 L 90.9 -65.2 L 90.1 -66.14 L 89.27 -67.07 L 88.44 -68 L 87.59 -68.92 L 86.72 -69.84 L 85.84 -70.75 L 84.95 -71.65 L 84.05 -72.54 L 83.14 -73.42 L 82.23 -74.28 L 81.31 -75.13 L 80.39 -75.96 L 79.45 -76.78 L 78.52 -77.58 L 77.58 -78.38 L 76.63 -79.15 L 75.67 -79.92 L 74.72 -80.67 L 73.75 -81.4 L 72.78 -82.13 L 71.8 -82.83 L 70.82 -83.53 L 69.83 -84.21 L 68.84 -84.87 L 67.84 -85.52 L 66.83 -86.16 L 65.82 -86.78 L 64.8 -87.39 L 63.78 -87.99 L 62.75 -88.57 L 61.71 -89.14 L 60.67 -89.69 L 59.63 -90.23 L 58.57 -90.76 L 57.51 -91.27 L 56.45 -91.77 L 55.38 -92.25 L 54.3 -92.72 L 53.22 -93.18 L 52.14 -93.62 L 51.04 -94.04 L 49.94 -94.46 L 48.84 -94.86 L 47.73 -95.24 L 46.61 -95.61 L 45.49 -95.97 L 44.36 -96.31 L 43.23 -96.64 L 42.09 -96.96 L 40.94 -97.26 L 39.79 -97.55 L 38.63 -97.82 L 37.47 -98.08 L 36.3 -98.33 L 35.13 -98.56 L 33.95 -98.77 L 32.76 -98.98 L 31.57 -99.17 L 30.37 -99.34 L 29.17 -99.5 L 27.96 -99.65 L 26.74 -99.78 L 25.52 -99.9 L 24.29 -100.01 L 23.06 -100.1 L 21.82 -100.17 L 20.58 -100.24 L 19.33 -100.29 L 18.07 -100.32 L 16.81 -100.34 L 15.54 -100.35 L 15.4 -100.35 L 15.25 -100.35 Z"/>
    </clipPath>
    <g clip-path="url(#clipPath0)">
      <use ffdec:characterId="550" height="181.1" transform="matrix(1.0, 0.0, 0.0, 1.0, -90.7, -90.55)" width="181.35" xlink:href="#morphshape1"/>
    </g>
  </g>
  <defs>
    <g id="morphshape0" transform="matrix(1.0, 0.0, 0.0, 1.0, 90.7, 90.55)">
      <path d="M-19.4 -0.1 Q-19.3 7.95 -13.75 13.7 -8.0 19.3 0.0 19.35 8.05 19.25 13.75 13.7 19.35 7.95 19.4 -0.05 19.3 -8.05 13.75 -13.75 8.0 -19.35 0.0 -19.4 -8.05 -19.3 -13.8 -13.75 -19.4 -8.0 -19.5 0.0" fill="#ffffff" fill-rule="evenodd" stroke="none"/>
      <path d="M-19.5 0.0 Q-19.4 -8.0 -13.8 -13.75 -8.05 -19.3 0.0 -19.4 8.0 -19.35 13.75 -13.75 19.3 -8.05 19.4 -0.05 19.35 7.95 13.75 13.7 8.05 19.25 0.0 19.35 -8.0 19.3 -13.75 13.7 -19.3 7.95 -19.4 -0.1" ffdec:has-small-stroke="true" ffdec:original-stroke-width="0.0" fill="none" stroke="#000000" stroke-linecap="round" stroke-linejoin="round" stroke-opacity="0.0" stroke-width="1.0"/>
    </g>
    <g id="morphshape1" transform="matrix(1.0, 0.0, 0.0, 1.0, 90.7, 90.55)">
      <path d="M-90.7 -0.05 Q-90.7 37.55 -64.15 64.15 -37.55 90.65 0.05 90.55 37.6 90.65 64.15 64.15 90.7 37.55 90.65 -0.05 90.7 -37.55 64.15 -64.1 37.6 -90.6 0.05 -90.55 -37.55 -90.6 -64.15 -64.1 -90.7 -37.55 -90.7 -0.05" fill="url(#gradient0)" fill-rule="evenodd" stroke="none"/>
      <path d="M-90.7 -0.05 Q-90.7 -37.55 -64.15 -64.1 -37.55 -90.6 0.05 -90.55 37.6 -90.6 64.15 -64.1 90.7 -37.55 90.65 -0.05 90.7 37.55 64.15 64.15 37.6 90.65 0.05 90.55 -37.55 90.65 -64.15 64.15 -90.7 37.55 -90.7 -0.05 Z" ffdec:has-small-stroke="true" ffdec:original-stroke-width="0.0" fill="none" stroke="#000000" stroke-linecap="round" stroke-linejoin="round" stroke-opacity="0.0" stroke-width="1.0"/>
    </g>
    <radialGradient cx="0" cy="0" gradientTransform="matrix(0.1204, 0.0, 0.0, 0.1202, 0.2, -0.75)" gradientUnits="userSpaceOnUse" id="gradient0" r="819.2" spreadMethod="pad">
      <stop offset="0.0" stop-color="#ffffff"/>
      <stop offset="0.42745098039215684" stop-color="#ffffff"/>
      <stop offset="0.7411764705882353" stop-color="#ffff00"/>
      <stop offset="1.0" stop-color="#ff0000"/>
    </radialGradient>
  </defs>
</svg>
