<?xml version="1.0" encoding="UTF-8" standalone="no"?>
<svg xmlns:ffdec="https://www.free-decompiler.com/flash" xmlns:xlink="http://www.w3.org/1999/xlink" ffdec:objectType="frame" height="220.3px" width="226.55px" xmlns="http://www.w3.org/2000/svg">
  <g transform="matrix(1.0, 0.0, 0.0, 1.0, 108.95, 112.25)">
    <use ffdec:characterId="551" height="181.1" transform="matrix(1.0, 0.0, 0.0, 1.0, -90.7, -90.55)" width="181.35" xlink:href="#morphshape0"/>
    <clipPath id="clipPath0">
      <path d="M 24.14 -92.1 L 25.32 -92.09 L 26.5 -92.07 L 27.67 -92.04 L 28.84 -92 L 30 -91.94 L 31.15 -91.86 L 32.3 -91.78 L 33.45 -91.68 L 34.58 -91.57 L 35.72 -91.45 L 36.85 -91.31 L 37.97 -91.16 L 39.09 -90.99 L 40.2 -90.82 L 41.3 -90.63 L 42.4 -90.43 L 43.5 -90.21 L 44.59 -89.98 L 45.67 -89.74 L 46.75 -89.48 L 47.83 -89.21 L 48.9 -88.93 L 49.96 -88.64 L 51.02 -88.33 L 52.07 -88.01 L 53.12 -87.68 L 54.16 -87.33 L 55.19 -86.97 L 56.23 -86.6 L 57.25 -86.21 L 58.27 -85.81 L 59.29 -85.4 L 60.29 -84.97 L 61.3 -84.54 L 62.3 -84.08 L 63.29 -83.62 L 64.28 -83.14 L 65.26 -82.65 L 66.24 -82.15 L 67.21 -81.63 L 68.17 -81.1 L 69.13 -80.56 L 70.09 -80 L 71.04 -79.43 L 71.98 -78.85 L 72.92 -78.26 L 73.86 -77.65 L 74.78 -77.03 L 75.71 -76.39 L 76.62 -75.74 L 77.54 -75.08 L 78.44 -74.41 L 79.34 -73.72 L 80.24 -73.02 L 81.13 -72.31 L 82.01 -71.58 L 82.89 -70.84 L 83.77 -70.09 L 84.64 -69.32 L 85.5 -68.55 L 86.36 -67.75 L 87.21 -66.95 L 88.06 -66.13 L 88.9 -65.3 L 89.73 -64.46 L 90.55 -63.61 L 91.36 -62.75 L 92.15 -61.89 L 92.93 -61.03 L 93.7 -60.16 L 94.45 -59.28 L 95.19 -58.4 L 95.92 -57.52 L 96.63 -56.63 L 97.34 -55.73 L 98.02 -54.83 L 98.7 -53.92 L 99.36 -53 L 100.01 -52.09 L 100.64 -51.16 L 101.27 -50.23 L 101.88 -49.3 L 102.47 -48.36 L 103.05 -47.41 L 103.62 -46.46 L 104.18 -45.51 L 104.72 -44.54 L 105.25 -43.58 L 105.77 -42.61 L 106.28 -41.63 L 106.77 -40.65 L 107.24 -39.66 L 107.71 -38.66 L 108.16 -37.66 L 108.6 -36.66 L 109.03 -35.65 L 109.44 -34.63 L 109.84 -33.61 L 110.22 -32.59 L 110.59 -31.56 L 110.95 -30.52 L 111.3 -29.48 L 111.63 -28.43 L 111.95 -27.38 L 112.26 -26.32 L 112.56 -25.26 L 112.84 -24.19 L 113.1 -23.11 L 113.36 -22.03 L 113.6 -20.95 L 113.83 -19.86 L 114.04 -18.76 L 114.25 -17.66 L 114.43 -16.55 L 114.61 -15.44 L 114.77 -14.33 L 114.92 -13.2 L 115.06 -12.08 L 115.18 -10.94 L 115.29 -9.8 L 115.39 -8.66 L 115.47 -7.51 L 115.54 -6.35 L 115.6 -5.19 L 115.65 -4.03 L 115.68 -2.86 L 115.69 -1.68 L 115.7 -0.5 L 115.69 0.68 L 115.68 1.86 L 115.65 3.04 L 115.6 4.21 L 115.54 5.37 L 115.47 6.53 L 115.39 7.68 L 115.29 8.83 L 115.18 9.97 L 115.06 11.11 L 114.92 12.24 L 114.77 13.36 L 114.61 14.48 L 114.43 15.6 L 114.25 16.71 L 114.04 17.81 L 113.83 18.91 L 113.6 20 L 113.36 21.09 L 113.1 22.17 L 112.84 23.25 L 112.56 24.32 L 112.26 25.39 L 111.95 26.45 L 111.63 27.5 L 111.3 28.55 L 110.95 29.6 L 110.59 30.63 L 110.22 31.67 L 109.84 32.7 L 109.44 33.72 L 109.03 34.74 L 108.6 35.75 L 108.16 36.76 L 107.71 37.76 L 107.24 38.75 L 106.77 39.74 L 106.28 40.73 L 105.77 41.71 L 105.25 42.68 L 104.72 43.65 L 104.18 44.62 L 103.62 45.57 L 103.05 46.53 L 102.47 47.47 L 101.88 48.42 L 101.27 49.35 L 100.64 50.28 L 100.01 51.21 L 99.36 52.13 L 98.7 53.05 L 98.02 53.96 L 97.34 54.86 L 96.63 55.76 L 95.92 56.65 L 95.19 57.54 L 94.45 58.42 L 93.7 59.3 L 92.93 60.17 L 92.15 61.04 L 91.36 61.9 L 90.55 62.75 L 89.73 63.61 L 88.9 64.45 L 88.06 65.28 L 87.21 66.1 L 86.36 66.9 L 85.5 67.69 L 84.64 68.47 L 83.77 69.23 L 82.89 69.98 L 82.01 70.72 L 81.13 71.44 L 80.24 72.16 L 79.34 72.86 L 78.44 73.54 L 77.54 74.21 L 76.62 74.87 L 75.71 75.52 L 74.78 76.15 L 73.86 76.77 L 72.92 77.38 L 71.98 77.98 L 71.04 78.56 L 70.09 79.12 L 69.13 79.68 L 68.17 80.22 L 67.21 80.75 L 66.24 81.27 L 65.26 81.77 L 64.28 82.26 L 63.29 82.74 L 62.3 83.2 L 61.3 83.65 L 60.29 84.09 L 59.29 84.51 L 58.27 84.92 L 57.25 85.32 L 56.23 85.71 L 55.19 86.08 L 54.16 86.44 L 53.12 86.79 L 52.07 87.12 L 51.02 87.44 L 49.96 87.75 L 48.9 88.04 L 47.83 88.32 L 46.75 88.59 L 45.68 88.84 L 44.59 89.08 L 43.5 89.31 L 42.4 89.53 L 41.3 89.73 L 40.2 89.92 L 39.09 90.1 L 37.97 90.26 L 36.85 90.41 L 35.72 90.55 L 34.58 90.67 L 33.45 90.78 L 32.3 90.88 L 31.15 90.96 L 30 91.04 L 28.84 91.1 L 27.67 91.14 L 26.5 91.17 L 25.32 91.19 L 24.14 91.2 L 24 91.2 L 23.86 91.2 L 22.68 91.19 L 21.5 91.17 L 20.33 91.14 L 19.16 91.1 L 18 91.04 L 16.85 90.96 L 15.7 90.88 L 14.55 90.78 L 13.41 90.67 L 12.28 90.55 L 11.15 90.41 L 10.03 90.26 L 8.91 90.1 L 7.8 89.92 L 6.69 89.73 L 5.59 89.53 L 4.5 89.31 L 3.41 89.08 L 2.32 88.84 L 1.24 88.59 L 0.17 88.32 L -0.9 88.04 L -1.97 87.75 L -3.02 87.44 L -4.08 87.12 L -5.13 86.79 L -6.17 86.44 L -7.2 86.08 L -8.24 85.71 L -9.26 85.32 L -10.28 84.92 L -11.3 84.51 L -12.31 84.09 L -13.31 83.65 L -14.31 83.2 L -15.31 82.74 L -16.29 82.26 L -17.28 81.77 L -18.25 81.27 L -19.23 80.75 L -20.19 80.22 L -21.16 79.68 L -22.11 79.12 L -23.06 78.56 L -24.01 77.98 L -24.95 77.38 L -25.88 76.77 L -26.81 76.15 L -27.74 75.52 L -28.65 74.87 L -29.57 74.21 L -30.48 73.54 L -31.38 72.86 L -32.28 72.16 L -33.17 71.44 L -34.05 70.72 L -34.93 69.98 L -35.81 69.23 L -36.68 68.47 L -37.54 67.69 L -38.4 66.9 L -39.26 66.1 L -40.11 65.28 L -40.95 64.45 L -41.78 63.61 L -42.6 62.75 L -43.41 61.9 L -44.2 61.04 L -44.98 60.17 L -45.75 59.3 L -46.5 58.42 L -47.24 57.54 L -47.97 56.65 L -48.69 55.76 L -49.39 54.86 L -50.07 53.96 L -50.75 53.05 L -51.41 52.13 L -52.06 51.21 L -52.7 50.28 L -53.32 49.35 L -53.93 48.42 L -54.53 47.47 L -55.11 46.53 L -55.68 45.57 L -56.24 44.62 L -56.78 43.65 L -57.31 42.68 L -57.83 41.71 L -58.33 40.73 L -58.83 39.74 L -59.3 38.75 L -59.77 37.76 L -60.22 36.76 L -60.66 35.75 L -61.09 34.74 L -61.5 33.72 L -61.9 32.7 L -62.29 31.67 L -62.66 30.63 L -63.02 29.6 L -63.37 28.55 L -63.7 27.5 L -64.02 26.45 L -64.33 25.39 L -64.63 24.32 L -64.91 23.25 L -65.18 22.17 L -65.43 21.09 L -65.68 20 L -65.91 18.91 L -66.12 17.81 L -66.33 16.71 L -66.52 15.6 L -66.69 14.48 L -66.86 13.36 L -67.01 12.24 L -67.14 11.11 L -67.27 9.97 L -67.38 8.83 L -67.48 7.68 L -67.56 6.53 L -67.64 5.37 L -67.7 4.21 L -67.74 3.04 L -67.77 1.86 L -67.79 0.68 L -67.8 -0.5 L -67.79 -1.68 L -67.77 -2.86 L -67.74 -4.03 L -67.7 -5.19 L -67.64 -6.35 L -67.56 -7.51 L -67.48 -8.66 L -67.38 -9.8 L -67.27 -10.94 L -67.14 -12.08 L -67.01 -13.2 L -66.86 -14.33 L -66.69 -15.44 L -66.52 -16.55 L -66.33 -17.66 L -66.12 -18.76 L -65.91 -19.86 L -65.68 -20.95 L -65.43 -22.03 L -65.18 -23.11 L -64.91 -24.19 L -64.63 -25.26 L -64.33 -26.32 L -64.02 -27.38 L -63.7 -28.43 L -63.37 -29.48 L -63.02 -30.52 L -62.66 -31.56 L -62.29 -32.59 L -61.9 -33.61 L -61.5 -34.63 L -61.09 -35.65 L -60.66 -36.66 L -60.22 -37.66 L -59.77 -38.66 L -59.3 -39.66 L -58.83 -40.65 L -58.33 -41.63 L -57.83 -42.61 L -57.31 -43.58 L -56.78 -44.54 L -56.24 -45.51 L -55.68 -46.46 L -55.11 -47.41 L -54.53 -48.36 L -53.93 -49.3 L -53.32 -50.23 L -52.7 -51.16 L -52.06 -52.09 L -51.41 -53 L -50.75 -53.92 L -50.07 -54.83 L -49.39 -55.73 L -48.69 -56.63 L -47.97 -57.52 L -47.24 -58.4 L -46.5 -59.28 L -45.75 -60.16 L -44.98 -61.03 L -44.2 -61.89 L -43.41 -62.75 L -42.6 -63.61 L -41.78 -64.46 L -40.95 -65.3 L -40.11 -66.13 L -39.26 -66.95 L -38.4 -67.75 L -37.54 -68.55 L -36.68 -69.32 L -35.81 -70.09 L -34.93 -70.84 L -34.05 -71.58 L -33.17 -72.31 L -32.28 -73.02 L -31.38 -73.72 L -30.48 -74.41 L -29.57 -75.08 L -28.65 -75.74 L -27.74 -76.39 L -26.81 -77.03 L -25.88 -77.65 L -24.95 -78.26 L -24.01 -78.85 L -23.06 -79.43 L -22.11 -80 L -21.16 -80.56 L -20.19 -81.1 L -19.23 -81.63 L -18.25 -82.15 L -17.28 -82.65 L -16.29 -83.14 L -15.31 -83.62 L -14.31 -84.08 L -13.31 -84.54 L -12.31 -84.97 L -11.3 -85.4 L -10.28 -85.81 L -9.26 -86.21 L -8.24 -86.6 L -7.2 -86.97 L -6.17 -87.33 L -5.13 -87.68 L -4.08 -88.01 L -3.02 -88.33 L -1.97 -88.64 L -0.9 -88.93 L 0.17 -89.21 L 1.24 -89.48 L 2.32 -89.74 L 3.41 -89.98 L 4.5 -90.21 L 5.59 -90.43 L 6.69 -90.63 L 7.8 -90.82 L 8.91 -90.99 L 10.03 -91.16 L 11.15 -91.31 L 12.28 -91.45 L 13.41 -91.57 L 14.55 -91.68 L 15.7 -91.78 L 16.85 -91.86 L 18 -91.94 L 19.16 -92 L 20.33 -92.04 L 21.5 -92.07 L 22.68 -92.09 L 23.86 -92.1 L 24 -92.1 L 24.14 -92.1 Z M 17.8 -102 L 16.51 -101.99 L 15.23 -101.97 L 13.94 -101.94 L 12.66 -101.89 L 11.38 -101.83 L 10.11 -101.76 L 8.83 -101.67 L 7.56 -101.57 L 6.29 -101.45 L 5.02 -101.32 L 3.76 -101.18 L 2.5 -101.02 L 1.24 -100.86 L -0.02 -100.67 L -1.27 -100.48 L -2.53 -100.27 L -3.78 -100.04 L -5.02 -99.81 L -6.27 -99.55 L -7.51 -99.29 L -8.75 -99.01 L -9.99 -98.72 L -11.23 -98.42 L -12.46 -98.1 L -13.69 -97.77 L -14.92 -97.42 L -16.15 -97.06 L -17.37 -96.69 L -18.59 -96.3 L -19.81 -95.9 L -21.03 -95.49 L -22.24 -95.06 L -23.46 -94.62 L -24.67 -94.17 L -25.87 -93.7 L -27.08 -93.22 L -28.28 -92.73 L -29.48 -92.22 L -30.68 -91.7 L -31.87 -91.16 L -33.07 -90.61 L -34.26 -90.05 L -35.45 -89.47 L -36.63 -88.88 L -37.82 -88.28 L -39 -87.66 L -40.18 -87.03 L -41.35 -86.39 L -42.53 -85.73 L -43.7 -85.06 L -44.87 -84.38 L -46.03 -83.68 L -47.2 -82.97 L -48.36 -82.24 L -49.52 -81.51 L -50.68 -80.75 L -51.83 -79.99 L -52.98 -79.21 L -54.14 -78.42 L -55.28 -77.61 L -56.43 -76.79 L -57.57 -75.96 L -58.71 -75.11 L -59.85 -74.25 L -60.98 -73.38 L -62.09 -72.49 L -63.19 -71.6 L -64.26 -70.69 L -65.32 -69.77 L -66.36 -68.85 L -67.38 -67.91 L -68.38 -66.96 L -69.37 -66 L -70.34 -65.03 L -71.29 -64.05 L -72.22 -63.06 L -73.13 -62.06 L -74.02 -61.05 L -74.9 -60.03 L -75.76 -59 L -76.6 -57.95 L -77.42 -56.9 L -78.23 -55.84 L -79.01 -54.76 L -79.78 -53.68 L -80.53 -52.58 L -81.26 -51.47 L -81.98 -50.36 L -82.67 -49.23 L -83.35 -48.09 L -84.01 -46.94 L -84.65 -45.78 L -85.28 -44.61 L -85.88 -43.43 L -86.47 -42.24 L -87.04 -41.04 L -87.59 -39.83 L -88.12 -38.6 L -88.64 -37.37 L -89.13 -36.12 L -89.61 -34.87 L -90.07 -33.61 L -90.52 -32.33 L -90.94 -31.04 L -91.35 -29.75 L -91.73 -28.44 L -92.1 -27.12 L -92.46 -25.79 L -92.79 -24.45 L -93.11 -23.1 L -93.4 -21.74 L -93.68 -20.37 L -93.95 -18.99 L -94.19 -17.6 L -94.42 -16.2 L -94.62 -14.78 L -94.81 -13.36 L -94.98 -11.92 L -95.14 -10.48 L -95.27 -9.02 L -95.39 -7.56 L -95.49 -6.08 L -95.57 -4.59 L -95.63 -3.1 L -95.67 -1.59 L -95.7 -0.07 L -95.71 1.46 L -95.7 3 L -95.67 4.54 L -95.63 6.06 L -95.57 7.58 L -95.49 9.08 L -95.4 10.56 L -95.29 12.03 L -95.16 13.49 L -95.01 14.94 L -94.85 16.37 L -94.67 17.79 L -94.47 19.2 L -94.25 20.59 L -94.02 21.98 L -93.77 23.34 L -93.5 24.7 L -93.22 26.04 L -92.91 27.37 L -92.59 28.68 L -92.26 29.98 L -91.9 31.27 L -91.53 32.54 L -91.14 33.81 L -90.74 35.06 L -90.32 36.29 L -89.88 37.51 L -89.42 38.72 L -88.94 39.92 L -88.45 41.1 L -87.94 42.27 L -87.42 43.43 L -86.87 44.57 L -86.31 45.7 L -85.73 46.82 L -85.14 47.92 L -84.53 49.01 L -83.9 50.09 L -83.25 51.15 L -82.58 52.2 L -81.9 53.24 L -81.2 54.27 L -80.49 55.28 L -79.75 56.28 L -79 57.26 L -78.24 58.23 L -77.45 59.19 L -76.65 60.14 L -75.83 61.07 L -74.99 61.99 L -74.14 62.89 L -73.26 63.79 L -72.38 64.67 L -71.47 65.53 L -70.55 66.39 L -69.61 67.23 L -68.65 68.05 L -67.67 68.87 L -66.68 69.67 L -65.67 70.45 L -64.64 71.23 L -63.6 71.99 L -62.54 72.74 L -61.46 73.47 L -60.36 74.19 L -59.25 74.9 L -58.13 75.59 L -57.01 76.27 L -55.89 76.94 L -54.77 77.6 L -53.64 78.25 L -52.51 78.89 L -51.38 79.51 L -50.24 80.13 L -49.1 80.73 L -47.96 81.32 L -46.82 81.91 L -45.67 82.48 L -44.53 83.04 L -43.37 83.59 L -42.22 84.13 L -41.06 84.66 L -39.9 85.17 L -38.74 85.68 L -37.58 86.18 L -36.41 86.66 L -35.24 87.13 L -34.07 87.6 L -32.89 88.05 L -31.72 88.49 L -30.53 88.92 L -29.35 89.34 L -28.17 89.75 L -26.98 90.14 L -25.79 90.53 L -24.59 90.91 L -23.4 91.27 L -22.2 91.63 L -20.99 91.97 L -19.79 92.3 L -18.58 92.62 L -17.37 92.93 L -16.16 93.23 L -14.95 93.52 L -13.73 93.8 L -12.51 94.06 L -11.28 94.32 L -10.06 94.57 L -8.83 94.8 L -7.6 95.02 L -6.36 95.24 L -5.13 95.44 L -3.89 95.63 L -2.65 95.81 L -1.4 95.98 L -0.16 96.13 L 1.09 96.28 L 2.35 96.42 L 3.6 96.54 L 4.86 96.66 L 6.12 96.76 L 7.38 96.85 L 8.65 96.93 L 9.92 97 L 11.19 97.06 L 12.46 97.11 L 13.74 97.15 L 15.02 97.18 L 16.3 97.19 L 17.58 97.2 L 17.95 97.2 L 18.23 97.2 L 19.51 97.19 L 20.79 97.17 L 22.06 97.14 L 23.33 97.09 L 24.58 97.02 L 25.84 96.95 L 27.08 96.85 L 28.32 96.75 L 29.56 96.63 L 30.79 96.49 L 32.01 96.34 L 33.23 96.18 L 34.44 96 L 35.65 95.81 L 36.85 95.6 L 38.04 95.38 L 39.23 95.15 L 40.41 94.9 L 41.59 94.64 L 42.76 94.36 L 43.92 94.07 L 45.08 93.77 L 46.23 93.45 L 47.38 93.12 L 48.52 92.77 L 49.66 92.41 L 50.79 92.03 L 51.91 91.64 L 53.03 91.24 L 54.14 90.82 L 55.25 90.38 L 56.35 89.94 L 57.44 89.48 L 58.53 89 L 59.61 88.51 L 60.69 88.01 L 61.76 87.49 L 62.82 86.96 L 63.88 86.41 L 64.93 85.85 L 65.98 85.28 L 67.02 84.69 L 68.06 84.09 L 69.09 83.47 L 70.11 82.84 L 71.13 82.19 L 72.14 81.53 L 73.15 80.86 L 74.15 80.17 L 75.14 79.47 L 76.13 78.75 L 77.11 78.02 L 78.09 77.28 L 79.06 76.52 L 80.03 75.75 L 80.99 74.96 L 81.94 74.16 L 82.89 73.34 L 83.83 72.51 L 84.77 71.67 L 85.7 70.81 L 86.62 69.94 L 87.54 69.05 L 88.45 68.15 L 89.36 67.23 L 90.25 66.31 L 91.12 65.38 L 91.99 64.45 L 92.83 63.51 L 93.67 62.56 L 94.49 61.61 L 95.29 60.65 L 96.08 59.68 L 96.86 58.71 L 97.62 57.74 L 98.37 56.76 L 99.11 55.77 L 99.83 54.77 L 100.53 53.77 L 101.22 52.77 L 101.9 51.76 L 102.56 50.74 L 103.21 49.72 L 103.84 48.69 L 104.46 47.65 L 105.07 46.61 L 105.66 45.56 L 106.24 44.51 L 106.8 43.45 L 107.35 42.39 L 107.88 41.32 L 108.4 40.24 L 108.91 39.16 L 109.4 38.07 L 109.87 36.98 L 110.34 35.88 L 110.79 34.77 L 111.22 33.66 L 111.64 32.54 L 112.05 31.42 L 112.44 30.29 L 112.81 29.15 L 113.18 28.01 L 113.52 26.86 L 113.86 25.71 L 114.18 24.55 L 114.48 23.38 L 114.77 22.21 L 115.05 21.04 L 115.31 19.85 L 115.56 18.66 L 115.8 17.47 L 116.02 16.27 L 116.22 15.06 L 116.41 13.85 L 116.59 12.63 L 116.75 11.41 L 116.9 10.18 L 117.04 8.94 L 117.16 7.7 L 117.26 6.45 L 117.35 5.2 L 117.43 3.94 L 117.49 2.67 L 117.54 1.4 L 117.57 0.12 L 117.59 -1.16 L 117.6 -2.45 L 117.59 -3.73 L 117.57 -5.01 L 117.54 -6.29 L 117.49 -7.55 L 117.43 -8.81 L 117.35 -10.07 L 117.26 -11.32 L 117.16 -12.56 L 117.04 -13.8 L 116.9 -15.03 L 116.75 -16.26 L 116.59 -17.48 L 116.41 -18.69 L 116.22 -19.9 L 116.02 -21.11 L 115.8 -22.3 L 115.56 -23.49 L 115.31 -24.68 L 115.05 -25.86 L 114.77 -27.03 L 114.48 -28.2 L 114.18 -29.36 L 113.86 -30.52 L 113.52 -31.67 L 113.18 -32.81 L 112.81 -33.95 L 112.44 -35.09 L 112.05 -36.21 L 111.64 -37.33 L 111.22 -38.45 L 110.79 -39.56 L 110.34 -40.66 L 109.87 -41.76 L 109.4 -42.85 L 108.91 -43.94 L 108.4 -45.02 L 107.88 -46.09 L 107.35 -47.16 L 106.8 -48.23 L 106.24 -49.28 L 105.66 -50.33 L 105.07 -51.38 L 104.46 -52.42 L 103.84 -53.45 L 103.21 -54.48 L 102.56 -55.5 L 101.9 -56.52 L 101.22 -57.53 L 100.53 -58.53 L 99.83 -59.53 L 99.11 -60.52 L 98.37 -61.51 L 97.62 -62.49 L 96.86 -63.47 L 96.08 -64.44 L 95.29 -65.4 L 94.49 -66.36 L 93.67 -67.31 L 92.83 -68.26 L 91.99 -69.2 L 91.12 -70.13 L 90.25 -71.06 L 89.36 -71.98 L 88.45 -72.9 L 87.54 -73.8 L 86.62 -74.69 L 85.69 -75.56 L 84.76 -76.42 L 83.82 -77.27 L 82.88 -78.1 L 81.93 -78.92 L 80.97 -79.72 L 80.01 -80.51 L 79.05 -81.28 L 78.07 -82.04 L 77.09 -82.79 L 76.11 -83.52 L 75.12 -84.24 L 74.12 -84.94 L 73.12 -85.63 L 72.11 -86.31 L 71.1 -86.97 L 70.08 -87.61 L 69.05 -88.25 L 68.02 -88.86 L 66.98 -89.47 L 65.94 -90.06 L 64.89 -90.63 L 63.84 -91.19 L 62.78 -91.74 L 61.71 -92.27 L 60.64 -92.79 L 59.56 -93.3 L 58.47 -93.79 L 57.38 -94.26 L 56.29 -94.73 L 55.18 -95.17 L 54.07 -95.61 L 52.96 -96.03 L 51.84 -96.43 L 50.71 -96.82 L 49.58 -97.2 L 48.45 -97.56 L 47.3 -97.91 L 46.15 -98.24 L 45 -98.56 L 43.84 -98.87 L 42.67 -99.16 L 41.5 -99.44 L 40.32 -99.7 L 39.13 -99.95 L 37.94 -100.18 L 36.75 -100.4 L 35.54 -100.61 L 34.33 -100.8 L 33.12 -100.98 L 31.9 -101.14 L 30.67 -101.29 L 29.44 -101.42 L 28.21 -101.55 L 26.96 -101.65 L 25.71 -101.74 L 24.46 -101.82 L 23.2 -101.89 L 21.93 -101.94 L 20.66 -101.97 L 19.38 -101.99 L 18.09 -102 L 17.95 -102 L 17.8 -102 Z"/>
    </clipPath>
    <g clip-path="url(#clipPath0)">
      <use ffdec:characterId="550" height="181.1" transform="matrix(1.0, 0.0, 0.0, 1.0, -90.7, -90.55)" width="181.35" xlink:href="#morphshape1"/>
    </g>
  </g>
  <defs>
    <g id="morphshape0" transform="matrix(1.0, 0.0, 0.0, 1.0, 90.7, 90.55)">
      <path d="M-12.75 0.0 Q-12.6 5.3 -9.0 9.1 -5.2 12.75 0.05 12.8 5.3 12.7 9.05 9.1 12.7 5.3 12.8 0.05 12.7 -5.2 9.1 -8.95 5.3 -12.6 0.05 -12.7 -5.25 -12.6 -9.05 -9.0 -12.7 -5.2 -12.8 0.0" fill="#ffffff" fill-rule="evenodd" stroke="none"/>
      <path d="M-12.8 0.0 Q-12.7 -5.2 -9.05 -9.0 -5.25 -12.6 0.05 -12.7 5.3 -12.6 9.1 -8.95 12.7 -5.2 12.8 0.05 12.7 5.3 9.05 9.1 5.3 12.7 0.05 12.8 -5.2 12.75 -9.0 9.1 -12.6 5.3 -12.75 0.0" ffdec:has-small-stroke="true" ffdec:original-stroke-width="0.0" fill="none" stroke="#000000" stroke-linecap="round" stroke-linejoin="round" stroke-opacity="0.0" stroke-width="1.0"/>
    </g>
    <g id="morphshape1" transform="matrix(1.0, 0.0, 0.0, 1.0, 90.7, 90.55)">
      <path d="M-90.7 -0.05 Q-90.7 37.55 -64.15 64.15 -37.55 90.65 0.05 90.55 37.6 90.65 64.15 64.15 90.7 37.55 90.65 -0.05 90.7 -37.55 64.15 -64.1 37.6 -90.6 0.05 -90.55 -37.55 -90.6 -64.15 -64.1 -90.7 -37.55 -90.7 -0.05" fill="url(#gradient0)" fill-rule="evenodd" stroke="none"/>
      <path d="M-90.7 -0.05 Q-90.7 -37.55 -64.15 -64.1 -37.55 -90.6 0.05 -90.55 37.6 -90.6 64.15 -64.1 90.7 -37.55 90.65 -0.05 90.7 37.55 64.15 64.15 37.6 90.65 0.05 90.55 -37.55 90.65 -64.15 64.15 -90.7 37.55 -90.7 -0.05 Z" ffdec:has-small-stroke="true" ffdec:original-stroke-width="0.0" fill="none" stroke="#000000" stroke-linecap="round" stroke-linejoin="round" stroke-opacity="0.0" stroke-width="1.0"/>
    </g>
    <radialGradient cx="0" cy="0" gradientTransform="matrix(0.1192, 0.0, 0.0, 0.119, 0.1, -0.9)" gradientUnits="userSpaceOnUse" id="gradient0" r="819.2" spreadMethod="pad">
      <stop offset="0.0" stop-color="#ffffff"/>
      <stop offset="0.36470588235294116" stop-color="#ffffff"/>
      <stop offset="0.7098039215686275" stop-color="#ffff00"/>
      <stop offset="1.0" stop-color="#ff0000"/>
    </radialGradient>
  </defs>
</svg>
