<?xml version="1.0" encoding="UTF-8" standalone="no"?>
<svg xmlns:ffdec="https://www.free-decompiler.com/flash" xmlns:xlink="http://www.w3.org/1999/xlink" ffdec:objectType="frame" height="142.85px" width="751.95px" xmlns="http://www.w3.org/2000/svg">
  <g transform="matrix(1.0, 0.0, 0.0, 1.0, 0.0, 36.5)">
    <use ffdec:characterId="114" height="107.3" transform="matrix(1.0, 0.0, 0.0, 1.0, 29.8, -0.95)" width="183.3" xlink:href="#sprite0"/>
    <use ffdec:characterId="115" height="113.15" transform="matrix(2.5, 0.0, 0.0, 1.0, 59.075, -9.4)" width="277.15" xlink:href="#sprite1"/>
    <use ffdec:characterId="227" height="107.3" transform="matrix(1.0, 0.0, 0.0, 1.0, 38.8, -36.5)" width="242.0" xlink:href="#sprite3"/>
  </g>
  <defs>
    <g id="sprite1" transform="matrix(1.0, 0.0, 0.0, 1.0, 35.15, 0.15)">
      <use ffdec:characterId="92" height="100.0" id="boundingBox_mc" transform="matrix(0.16, 0.0, 0.0, 0.16, 0.0, 0.0)" width="100.0" xlink:href="#sprite2"/>
    </g>
    <g id="sprite2" transform="matrix(1.0, 0.0, 0.0, 1.0, 0.0, 0.0)">
      <use ffdec:characterId="91" height="100.0" transform="matrix(1.0, 0.0, 0.0, 1.0, 0.0, 0.0)" width="100.0" xlink:href="#shape0"/>
    </g>
    <g id="shape0" transform="matrix(1.0, 0.0, 0.0, 1.0, 0.0, 0.0)">
      <path d="M100.0 100.0 L0.0 100.0 0.0 0.0 100.0 0.0 100.0 100.0" fill="#ffffff" fill-rule="evenodd" stroke="none"/>
      <path d="M100.0 100.0 L0.0 100.0 0.0 0.0 100.0 0.0 100.0 100.0 Z" ffdec:has-small-stroke="true" ffdec:original-stroke-width="0.05" fill="none" stroke="#666666" stroke-linecap="round" stroke-linejoin="round" stroke-width="3.2825856890691507"/>
    </g>
    <g id="sprite3" transform="matrix(1.0, 0.0, 0.0, 1.0, 0.0, 27.3)">
      <use ffdec:characterId="226" height="22.0" id="label" transform="matrix(1.0, 0.0, 0.0, 1.0, 0.0, 0.0)" width="100.0" xlink:href="#text0"/>
    </g>
  </defs>
</svg>
