<?xml version="1.0" encoding="UTF-8" standalone="no"?>
<svg xmlns:ffdec="https://www.free-decompiler.com/flash" xmlns:xlink="http://www.w3.org/1999/xlink" ffdec:objectType="frame" height="328.05px" width="592.4px" xmlns="http://www.w3.org/2000/svg">
  <g transform="matrix(1.0, 0.0, 0.0, 1.0, 127.6, 137.0)">
    <use ffdec:characterId="434" height="131.0" transform="matrix(1.0, 0.0, 0.0, 1.0, -104.8, -121.1)" width="216.0" xlink:href="#shape0"/>
    <use ffdec:characterId="435" height="23.6" id="txtName" transform="matrix(1.0, 0.0, 0.0, 1.0, -127.6, -72.3)" width="265.6" xlink:href="#text0"/>
    <use ffdec:characterId="4" height="54.5" transform="matrix(0.3409, 0.0, 0.0, 0.3409, -88.3, -101.85)" width="92.3" xlink:href="#shape1"/>
    <use ffdec:characterId="11" height="9.05" transform="matrix(0.2632, -0.0194, 0.0194, 0.2632, -78.5627, -87.7145)" width="34.15" xlink:href="#sprite0"/>
    <use ffdec:characterId="17" height="21.6" transform="matrix(0.3061, -0.0226, 0.0226, 0.3061, -80.7708, -98.3828)" width="39.4" xlink:href="#sprite1"/>
    <use ffdec:characterId="4" height="54.5" transform="matrix(0.3409, 0.0, 0.0, 0.3409, 63.7, -101.85)" width="92.3" xlink:href="#shape1"/>
    <use ffdec:characterId="11" height="9.05" transform="matrix(0.2632, -0.0194, 0.0194, 0.2632, 73.4373, -87.7145)" width="34.15" xlink:href="#sprite0"/>
    <use ffdec:characterId="17" height="21.6" transform="matrix(0.3061, -0.0226, 0.0226, 0.3061, 71.2292, -98.3828)" width="39.4" xlink:href="#sprite1"/>
    <use ffdec:characterId="29" height="20.0" transform="matrix(9.8475, 0.0, 0.0, 1.55, -96.0, -77.0)" width="20.0" xlink:href="#shape6"/>
    <use ffdec:characterId="422" height="13.85" transform="matrix(1.0, 0.0, 0.0, 1.0, -37.85, -64.75)" width="90.45" xlink:href="#text1"/>
    <use ffdec:characterId="436" height="26.85" transform="matrix(1.0, 0.0, 0.0, 1.0, -33.95, -106.3)" width="82.5" xlink:href="#text2"/>
    <use ffdec:characterId="437" height="36.65" transform="matrix(1.0, 0.0, 0.0, 1.0, -49.5, -33.2)" width="103.0" xlink:href="#shape7"/>
  </g>
  <defs>
    <g id="shape0" transform="matrix(1.0, 0.0, 0.0, 1.0, 104.8, 121.1)">
      <path d="M93.25 4.9 L97.0 4.9 Q101.15 4.9 104.1 1.95 107.0 -0.95 107.0 -5.1 L107.0 -106.1 Q107.0 -110.25 104.1 -113.2 102.3 -114.95 100.1 -115.65 L97.0 -116.1 93.2 -116.1 96.1 -115.65 Q98.3 -114.95 100.1 -113.2 103.0 -110.25 103.0 -106.1 L103.0 -5.1 Q103.0 -0.95 100.1 1.95 97.25 4.8 93.25 4.9 L93.25 4.85 92.25 4.9 93.25 4.9 M102.95 -120.95 Q106.0 -120.45 108.25 -118.2 111.2 -115.25 111.2 -111.1 L111.2 -0.1 Q111.2 4.05 108.25 6.95 105.35 9.9 101.2 9.9 L-94.8 9.9 Q-98.95 9.9 -101.9 6.95 -104.8 4.05 -104.8 -0.1 L-104.8 -111.1 Q-104.8 -115.25 -101.9 -118.2 -100.1 -119.95 -97.85 -120.65 L-94.8 -121.1 101.2 -121.1 102.95 -120.95 M-100.8 -106.1 L-100.8 -5.1 Q-100.8 -0.95 -97.9 1.95 -94.95 4.9 -90.8 4.9 L-87.05 4.9 Q-91.05 4.8 -93.9 1.95 -96.8 -0.95 -96.8 -5.1 L-96.8 -106.1 Q-96.8 -110.25 -93.9 -113.2 -92.1 -114.95 -89.85 -115.65 L-87.0 -116.1 -90.8 -116.1 -93.85 -115.65 Q-96.1 -114.95 -97.9 -113.2 -100.8 -110.25 -100.8 -106.1" fill="#ffffff" fill-rule="evenodd" stroke="none"/>
      <path d="M93.25 4.9 Q97.25 4.8 100.1 1.95 103.0 -0.95 103.0 -5.1 L103.0 -106.1 Q103.0 -110.25 100.1 -113.2 98.3 -114.95 96.1 -115.65 L93.2 -116.1 97.0 -116.1 100.1 -115.65 Q102.3 -114.95 104.1 -113.2 107.0 -110.25 107.0 -106.1 L107.0 -5.1 Q107.0 -0.95 104.1 1.95 101.15 4.9 97.0 4.9 L93.25 4.9 M-100.8 -106.1 Q-100.8 -110.25 -97.9 -113.2 -96.1 -114.95 -93.85 -115.65 L-90.8 -116.1 -87.0 -116.1 -89.85 -115.65 Q-92.1 -114.95 -93.9 -113.2 -96.8 -110.25 -96.8 -106.1 L-96.8 -5.1 Q-96.8 -0.95 -93.9 1.95 -91.05 4.8 -87.05 4.9 L-90.8 4.9 Q-94.95 4.9 -97.9 1.95 -100.8 -0.95 -100.8 -5.1 L-100.8 -106.1" fill="#66cc00" fill-rule="evenodd" stroke="none"/>
    </g>
    <g id="text0" transform="matrix(1.0, 0.0, 0.0, 1.0, -102.25, 2.0)">
      <g transform="matrix(1.0, 0.0, 0.0, 1.0, 102.25, -2.0)">
        <use fill="#000000" height="23.6" transform="matrix(0.3125, 0.0, 0.0, 0.3125, 107.0, 10.85)" width="265.6" xlink:href="#font_VAGRounded_BT_n0"/>
        <use fill="#000000" height="23.6" transform="matrix(0.3125, 0.0, 0.0, 0.3125, 116.4, 10.85)" width="265.6" xlink:href="#font_VAGRounded_BT_o0"/>
      </g>
      <g transform="matrix(1.0, 0.0, 0.0, 1.0, 102.25, -2.0)">
        <use fill="#000000" height="23.6" transform="matrix(0.3125, 0.0, 0.0, 0.3125, 130.9, 10.85)" width="265.6" xlink:href="#font_VAGRounded_BT_o0"/>
        <use fill="#000000" height="23.6" transform="matrix(0.3125, 0.0, 0.0, 0.3125, 140.2, 10.85)" width="265.6" xlink:href="#font_VAGRounded_BT_n0"/>
        <use fill="#000000" height="23.6" transform="matrix(0.3125, 0.0, 0.0, 0.3125, 149.6, 10.85)" width="265.6" xlink:href="#font_VAGRounded_BT_e0"/>
      </g>
    </g>
    <g id="font_VAGRounded_BT_n0">
      <path d="M2.8 -5.5 L2.8 -5.5 Q2.8 -2.55 3.8 -1.1 4.75 0.35 6.8 0.35 8.85 0.35 9.85 -1.1 10.85 -2.55 10.85 -5.5 L10.85 -14.75 Q10.85 -17.9 11.9 -19.4 12.95 -20.9 15.15 -20.9 17.5 -20.9 18.5 -19.45 19.5 -18.0 19.5 -14.65 L19.5 -5.5 Q19.5 -2.55 20.5 -1.1 21.5 0.35 23.55 0.35 25.6 0.35 26.6 -1.1 27.6 -2.55 27.6 -5.5 L27.6 -17.1 Q27.6 -22.3 25.1 -25.0 22.55 -27.75 17.8 -27.75 L13.65 -27.1 Q11.95 -26.45 10.65 -25.0 L9.0 -26.95 Q8.05 -27.6 6.8 -27.6 4.75 -27.6 3.8 -26.15 2.8 -24.7 2.8 -21.75 L2.8 -5.5" fill-rule="evenodd" stroke="none"/>
    </g>
    <g id="font_VAGRounded_BT_o0">
      <path d="M1.2 -13.6 L1.2 -13.6 Q1.2 -7.3 5.05 -3.25 8.9 0.85 14.85 0.85 20.85 0.85 24.65 -3.2 28.5 -7.3 28.5 -13.6 28.5 -19.95 24.65 -24.0 20.85 -28.05 14.85 -28.05 8.9 -28.05 5.05 -23.95 1.2 -19.9 1.2 -13.6 M9.55 -13.7 L9.55 -13.7 Q9.55 -16.7 11.05 -18.6 12.5 -20.45 14.85 -20.45 17.15 -20.45 18.7 -18.55 20.2 -16.7 20.2 -13.7 20.2 -10.65 18.7 -8.75 17.25 -6.85 14.85 -6.85 12.5 -6.85 11.0 -8.7 9.55 -10.6 9.55 -13.7" fill-rule="evenodd" stroke="none"/>
    </g>
    <g id="font_VAGRounded_BT_e0">
      <path d="M9.5 -11.35 L23.9 -11.35 Q26.25 -11.35 27.1 -12.1 27.9 -12.8 27.9 -14.65 27.9 -20.25 24.15 -24.1 20.35 -28.0 14.75 -28.0 8.95 -28.0 5.1 -23.85 1.2 -19.75 1.2 -13.55 1.2 -7.4 5.2 -3.35 9.2 0.75 15.15 0.75 20.05 0.75 23.7 -1.35 27.3 -3.45 27.3 -6.05 27.3 -7.4 26.4 -8.3 25.5 -9.15 24.1 -9.15 23.45 -9.15 20.65 -7.85 17.85 -6.55 15.6 -6.55 12.95 -6.55 11.35 -7.8 9.75 -9.1 9.5 -11.35 M9.4 -16.65 L9.4 -16.65 Q9.8 -18.85 11.3 -20.15 12.75 -21.45 14.8 -21.45 16.9 -21.45 18.4 -20.05 19.9 -18.7 20.05 -16.65 L9.4 -16.65" fill-rule="evenodd" stroke="none"/>
    </g>
    <g id="shape1" transform="matrix(1.0, 0.0, 0.0, 1.0, 0.0, 0.0)">
      <path d="M73.2 23.15 L73.7 23.85 74.1 24.4 76.3 25.1 76.4 25.15 79.25 26.4 80.95 26.85 85.05 26.55 Q86.5 25.95 88.05 25.5 L88.5 25.3 Q88.85 24.6 89.45 24.15 L89.8 23.85 90.05 23.45 90.45 21.95 90.4 21.65 89.8 14.7 89.75 14.4 89.4 13.8 89.25 13.15 89.15 13.0 88.55 12.45 88.1 11.9 88.05 11.45 86.6 9.15 86.1 8.55 86.0 8.4 85.7 8.25 85.55 8.1 85.55 8.05 85.15 7.9 83.85 7.65 Q80.5 7.4 77.1 7.65 76.2 8.9 74.9 9.8 72.0 11.8 70.7 15.1 L70.55 15.25 70.5 15.25 70.4 15.3 70.4 15.4 70.45 16.2 70.9 17.25 71.9 20.65 72.95 22.8 73.2 23.15 M89.75 8.3 L89.8 8.35 90.15 9.1 90.15 9.2 90.4 9.5 90.5 9.6 90.6 9.95 90.65 10.2 90.8 10.3 91.0 10.45 91.05 10.6 Q91.05 11.5 91.35 12.4 L91.55 13.15 91.75 13.75 91.9 14.35 91.8 14.4 91.9 15.7 92.3 21.5 92.1 23.2 91.95 23.5 91.0 25.95 90.5 26.3 90.4 26.8 90.1 26.95 89.2 27.6 88.75 28.0 Q82.1 30.15 75.3 27.6 L73.3 26.75 72.7 26.25 72.4 25.95 72.35 27.6 Q71.9 37.1 65.1 44.45 L64.6 45.45 Q59.8 51.15 52.45 53.5 L51.45 54.0 37.7 54.5 35.0 54.45 Q24.8 50.6 17.6 42.75 14.25 39.15 13.55 34.7 L12.3 34.75 12.15 33.85 13.4 33.3 Q13.2 30.8 13.8 28.05 L13.85 27.6 13.9 27.4 12.6 27.6 7.75 27.8 7.35 27.6 5.1 26.75 Q3.25 25.7 1.9 24.1 L1.85 23.9 1.3 23.35 1.25 23.1 Q0.65 22.25 0.45 21.2 L0.2 20.0 0.15 18.8 0.0 17.05 0.45 16.4 0.7 15.85 0.8 15.4 2.05 13.7 3.95 12.35 4.3 11.8 5.05 11.5 7.3 10.9 7.4 10.85 7.85 10.8 Q14.35 11.5 19.3 16.55 24.5 8.05 32.75 3.0 L28.85 2.65 28.4 2.35 28.45 1.8 28.8 1.4 29.25 1.2 29.3 1.1 Q43.95 -2.2 56.6 4.2 62.6 7.3 67.15 12.3 L68.15 12.8 69.0 13.3 69.1 13.5 Q69.8 12.45 70.65 11.45 73.05 8.35 76.2 5.8 L76.4 5.65 76.95 5.45 76.95 5.35 Q84.1 3.5 89.15 7.8 L89.75 8.3 M67.9 37.0 L68.2 36.3 70.5 25.15 70.5 24.9 70.55 24.7 70.5 24.3 70.45 23.1 Q70.2 20.35 68.95 17.95 L68.9 17.95 68.75 17.15 68.15 16.15 Q67.0 14.1 65.05 12.85 L64.85 12.45 Q60.85 8.95 56.35 5.95 L56.0 5.55 53.8 4.9 Q45.85 0.9 36.8 2.9 29.5 6.55 24.5 12.75 21.95 15.85 20.0 19.55 L19.05 21.25 18.8 21.7 15.8 26.15 15.75 27.6 15.65 32.0 15.6 32.45 Q17.9 31.7 20.65 31.3 L32.1 29.25 33.65 28.75 42.55 28.15 43.0 28.05 45.25 28.0 45.4 28.0 45.5 28.05 48.15 28.35 48.6 28.45 49.0 28.4 50.3 28.4 50.4 28.5 50.45 28.5 Q52.2 28.4 53.75 29.05 L54.05 29.2 58.0 29.65 Q65.0 30.25 68.3 35.3 L68.1 35.5 67.35 35.7 66.2 35.85 Q65.0 34.65 63.55 33.95 57.05 30.7 49.55 30.85 L49.4 30.7 45.4 30.15 44.3 30.25 42.4 30.35 38.15 30.75 34.2 31.15 31.7 31.55 Q23.65 32.65 15.7 34.35 L15.8 36.65 Q17.25 40.65 20.55 43.2 21.85 44.85 23.7 46.15 L24.1 46.45 24.1 46.5 24.3 46.6 26.95 48.35 27.05 48.4 27.2 48.6 27.6 49.15 Q31.65 50.45 35.35 52.3 L35.6 52.45 Q43.25 53.8 51.1 51.9 L60.25 47.55 Q62.55 46.35 63.15 44.1 L63.65 43.05 63.7 42.95 Q66.25 40.15 67.9 37.0 M41.35 34.4 Q40.55 34.65 40.2 34.05 L40.1 33.75 40.05 33.7 39.7 33.4 Q39.5 32.7 39.95 32.15 40.1 31.9 40.45 31.8 L40.85 31.7 41.5 31.6 Q41.8 31.6 42.05 31.85 42.4 32.15 42.4 32.65 42.5 33.9 41.35 34.4 M16.95 20.65 L17.8 19.2 18.05 18.75 17.85 18.05 17.4 17.6 16.9 17.15 Q14.6 15.05 11.6 14.05 L11.35 13.75 11.3 13.7 9.75 13.45 6.35 13.75 6.2 13.8 Q4.0 14.7 3.1 16.75 L2.95 17.1 2.3 18.15 2.05 18.45 2.1 19.05 2.2 20.2 2.25 21.35 2.55 21.85 5.5 24.7 5.65 25.0 8.0 25.25 8.4 25.25 14.35 24.9 15.6 22.95 16.95 20.65 M4.55 13.1 L4.65 13.0 4.55 13.0 4.55 13.1 M34.85 33.4 Q34.9 32.7 35.55 32.3 L35.65 32.3 35.8 32.25 Q36.9 32.0 37.05 33.05 37.15 33.6 36.75 34.0 35.85 34.9 35.0 33.85 L34.85 33.4" fill="#000000" fill-rule="evenodd" stroke="none"/>
      <path d="M70.7 15.1 Q72.0 11.8 74.9 9.8 76.2 8.9 77.1 7.65 80.5 7.4 83.85 7.65 L85.15 7.9 85.55 8.05 85.55 8.1 85.7 8.25 86.0 8.4 86.1 8.55 86.6 9.15 88.05 11.45 88.1 11.9 88.55 12.45 89.15 13.0 89.25 13.15 89.4 13.8 89.75 14.4 89.8 14.7 90.4 21.65 90.45 21.95 90.05 23.45 89.8 23.85 89.45 24.15 Q88.85 24.6 88.5 25.3 L88.05 25.5 Q86.5 25.95 85.05 26.55 L80.95 26.85 79.25 26.4 76.4 25.15 76.3 25.1 74.1 24.4 73.7 23.85 73.2 23.15 Q76.75 23.95 80.15 21.8 L80.8 21.5 Q81.0 20.8 81.75 20.45 L82.4 19.6 Q82.55 19.1 83.0 18.9 L83.25 18.65 83.3 18.1 Q83.55 17.05 82.95 16.3 L82.6 15.7 82.4 15.5 81.5 14.75 81.2 14.4 80.85 14.3 Q79.95 13.9 79.25 13.3 75.9 12.7 73.25 14.95 L73.1 15.05 73.05 15.2 73.0 15.4 72.85 15.45 Q72.15 15.8 71.65 16.35 L71.4 16.55 71.35 16.7 71.25 17.0 71.1 17.1 70.9 17.25 70.45 16.2 70.4 15.4 70.4 15.3 70.5 15.25 70.55 15.25 Q70.6 15.15 70.7 15.15 L70.7 15.1 M85.05 15.85 L85.3 16.3 84.85 15.25 84.95 15.55 85.05 15.85 M19.05 21.25 L20.0 19.55 Q21.95 15.85 24.5 12.75 29.5 6.55 36.8 2.9 45.85 0.9 53.8 4.9 L56.0 5.55 56.35 5.95 Q60.85 8.95 64.85 12.45 L65.05 12.85 Q67.0 14.1 68.15 16.15 L68.75 17.15 68.9 17.95 68.95 17.95 Q70.2 20.35 70.45 23.1 L70.5 24.3 70.55 24.7 70.5 24.9 70.5 25.15 68.2 36.3 67.9 37.0 67.8 36.7 67.35 35.7 68.1 35.5 68.3 35.3 Q65.0 30.25 58.0 29.65 L54.05 29.2 53.75 29.05 Q52.2 28.4 50.45 28.5 L50.4 28.5 50.3 28.4 49.0 28.4 48.6 28.45 48.15 28.35 45.5 28.05 45.4 28.0 45.25 28.0 43.0 28.05 42.55 28.15 33.65 28.75 32.1 29.25 20.65 31.3 Q17.9 31.7 15.6 32.45 L15.65 32.0 15.75 27.6 15.8 26.15 18.8 21.7 19.05 21.35 19.05 21.25 M15.6 22.95 L14.35 24.9 8.4 25.25 8.0 25.25 5.65 25.0 5.5 24.7 2.55 21.85 2.25 21.35 2.2 20.2 2.1 19.05 2.05 18.45 2.3 18.15 2.95 17.1 3.1 16.75 Q4.0 14.7 6.2 13.8 L6.35 13.75 9.75 13.45 11.3 13.7 11.35 13.75 11.6 14.05 Q14.6 15.05 16.9 17.15 L17.4 17.6 17.85 18.05 18.05 18.75 17.8 19.2 16.95 20.65 15.7 19.05 Q14.3 17.4 12.3 16.55 9.05 16.1 7.05 18.3 L7.0 18.65 Q6.75 18.95 6.65 19.45 L6.5 19.65 6.4 19.8 6.4 20.4 6.4 20.5 7.05 22.25 Q7.95 22.6 8.55 23.35 10.55 24.65 12.95 23.8 L15.05 23.1 15.6 22.95" fill="#95632d" fill-rule="evenodd" stroke="none"/>
      <path d="M70.9 17.25 L71.1 17.1 71.25 17.0 71.35 16.7 71.4 16.55 71.65 16.35 Q72.15 15.8 72.85 15.45 L73.0 15.4 73.05 15.2 73.1 15.05 73.25 14.95 Q75.9 12.7 79.25 13.3 79.95 13.9 80.85 14.3 L81.2 14.4 81.5 14.75 82.4 15.5 82.6 15.7 82.95 16.3 Q83.55 17.05 83.3 18.1 L83.25 18.65 83.0 18.9 Q82.55 19.1 82.4 19.6 L81.75 20.45 Q81.0 20.8 80.8 21.5 L80.15 21.8 Q76.75 23.95 73.2 23.15 L72.95 22.8 71.9 20.65 70.9 17.25 M85.05 15.85 L84.95 15.55 84.85 15.25 85.3 16.3 85.05 15.85 M19.05 21.25 L19.05 21.35 18.8 21.7 19.05 21.25 M67.35 35.7 L67.8 36.7 67.9 37.0 Q66.25 40.15 63.7 42.95 L63.65 43.05 63.15 44.1 Q62.55 46.35 60.25 47.55 L51.1 51.9 Q43.25 53.8 35.6 52.45 L35.35 52.3 Q31.65 50.45 27.6 49.15 L27.2 48.6 27.05 48.4 26.95 48.35 24.3 46.6 24.1 46.5 24.1 46.45 23.7 46.15 Q21.85 44.85 20.55 43.2 17.25 40.65 15.8 36.65 L15.7 34.35 Q23.65 32.65 31.7 31.55 L34.2 31.15 38.15 30.75 42.4 30.35 44.3 30.25 45.4 30.15 49.4 30.7 49.55 30.85 Q57.05 30.7 63.55 33.95 65.0 34.65 66.2 35.85 L67.35 35.7 M41.35 34.4 Q42.5 33.9 42.4 32.65 42.4 32.15 42.05 31.85 41.8 31.6 41.5 31.6 L40.85 31.7 40.45 31.8 Q40.1 31.9 39.95 32.15 39.5 32.7 39.7 33.4 L40.05 33.7 40.1 33.75 40.2 34.05 Q40.55 34.65 41.35 34.4 M15.6 22.95 L15.05 23.1 12.95 23.8 Q10.55 24.65 8.55 23.35 7.95 22.6 7.05 22.25 L6.4 20.5 6.4 20.4 6.4 19.8 6.5 19.65 6.65 19.45 Q6.75 18.95 7.0 18.65 L7.05 18.3 Q9.05 16.1 12.3 16.55 14.3 17.4 15.7 19.05 L16.95 20.65 15.6 22.95 M34.85 33.4 L35.0 33.85 Q35.85 34.9 36.75 34.0 37.15 33.6 37.05 33.05 36.9 32.0 35.8 32.25 L35.65 32.3 35.55 32.3 Q34.9 32.7 34.85 33.4" fill="#d79e4a" fill-rule="evenodd" stroke="none"/>
    </g>
    <g id="sprite0" transform="matrix(1.0, 0.0, 0.0, 1.0, 16.2, 5.05)">
      <use ffdec:characterId="5" height="4.5" transform="matrix(1.0, 0.0, 0.0, 1.0, -7.65, -2.25)" width="15.3" xlink:href="#shape2"/>
    </g>
    <g id="shape2" transform="matrix(1.0, 0.0, 0.0, 1.0, 7.65, 2.25)">
      <path d="M7.6 -0.15 L7.6 0.5 Q0.1 3.55 -7.65 1.25 L-7.5 0.6 -6.9 -0.25 -6.15 -1.0 Q-1.9 -0.55 0.6 -2.25 L3.85 -1.55 7.1 -1.0 7.6 -0.15" fill="#000000" fill-rule="evenodd" stroke="none"/>
    </g>
    <g id="sprite1" transform="matrix(1.0, 0.0, 0.0, 1.0, 23.5, 12.3)">
      <use ffdec:characterId="12" height="17.25" transform="matrix(1.0, 0.0, 0.0, 1.0, -21.25, -10.1)" width="34.95" xlink:href="#shape3"/>
      <use ffdec:characterId="14" height="7.8" transform="matrix(1.0, 0.0, 0.0, 1.0, -16.85, -2.6)" width="25.55" xlink:href="#sprite2"/>
      <use ffdec:characterId="15" height="21.6" transform="matrix(1.0, 0.0, 0.0, 1.0, -23.5, -12.3)" width="39.4" xlink:href="#shape5"/>
    </g>
    <g id="shape3" transform="matrix(1.0, 0.0, 0.0, 1.0, 21.25, 10.1)">
      <path d="M5.7 -3.5 L6.05 -3.65 Q8.4 -4.15 10.45 -3.25 14.2 -1.65 13.65 2.6 13.55 3.45 13.05 4.05 L13.0 4.05 Q12.15 5.5 9.65 5.75 4.25 6.25 1.75 1.95 L1.6 1.85 1.5 1.45 1.45 1.4 1.4 0.8 1.4 -0.35 Q1.6 -1.85 3.15 -2.45 L5.7 -3.5" fill="#ffffff" fill-rule="evenodd" stroke="none"/>
      <path d="M-20.35 -6.45 L-19.75 -7.25 Q-16.65 -9.65 -12.7 -9.9 -7.05 -10.85 -3.5 -6.9 -0.55 -3.6 -1.1 0.95 -1.35 3.2 -3.25 4.65 -5.15 6.2 -7.5 6.7 L-12.95 7.15 -14.6 6.7 Q-15.35 6.3 -16.15 6.0 -17.95 5.4 -18.85 3.85 -20.95 2.45 -21.2 -0.1 -21.5 -3.5 -20.35 -6.45" fill="#ffffff" fill-rule="evenodd" stroke="none"/>
    </g>
    <g id="sprite2" transform="matrix(1.0, 0.0, 0.0, 1.0, 2.75, 0.0)">
      <use ffdec:characterId="13" height="5.35" transform="matrix(1.0, 0.0, 0.0, 1.0, 0.0, 0.0)" width="22.8" xlink:href="#shape4"/>
    </g>
    <g id="shape4" transform="matrix(1.0, 0.0, 0.0, 1.0, 2.75, -2.45)">
      <path d="M20.05 6.1 Q20.1 6.9 19.55 7.35 L18.6 7.8 18.5 7.8 17.9 7.65 17.35 7.5 16.75 6.95 Q16.25 6.45 16.35 5.8 L16.4 5.75 16.5 5.45 17.2 4.75 17.55 4.7 Q18.9 4.3 19.7 5.2 20.05 5.55 20.05 6.1" fill="#000000" fill-rule="evenodd" stroke="none"/>
      <path d="M1.1 3.95 Q1.3 5.05 0.7 5.9 0.5 6.25 0.0 6.3 -2.4 6.65 -2.7 4.4 -2.9 3.0 -1.65 2.55 -0.55 2.3 0.25 2.8 0.9 3.25 1.1 3.95" fill="#000000" fill-rule="evenodd" stroke="none"/>
    </g>
    <g id="shape5" transform="matrix(1.0, 0.0, 0.0, 1.0, 23.5, 12.3)">
      <path d="M1.4 -3.5 L1.95 -3.95 Q3.6 -5.2 5.4 -5.65 L5.45 -5.75 10.95 -5.5 11.45 -4.7 11.5 -4.6 11.9 -4.5 11.95 -4.5 12.1 -4.4 12.9 -3.85 Q15.7 -1.75 15.9 1.25 L15.65 2.75 15.55 3.1 12.35 6.85 Q11.8 6.95 11.35 7.3 L8.15 7.3 3.75 6.35 2.35 5.85 2.05 5.65 -0.15 2.7 -0.2 2.05 -0.25 0.25 -0.1 -1.4 -0.05 -1.75 1.1 -3.5 1.4 -3.5 M3.15 -2.45 Q1.6 -1.85 1.4 -0.35 L1.4 0.8 1.45 1.4 1.5 1.45 1.6 1.85 1.75 1.95 Q4.25 6.25 9.65 5.75 12.15 5.5 13.0 4.05 L13.05 4.05 Q13.55 3.45 13.65 2.6 14.2 -1.65 10.45 -3.25 8.4 -4.15 6.05 -3.65 L5.7 -3.5 3.15 -2.45" fill="#000000" fill-rule="evenodd" stroke="none"/>
      <path d="M0.85 -1.4 L0.85 1.3 0.9 1.5 Q0.15 3.1 -0.35 4.8 L-1.85 6.1 -2.9 7.0 Q-5.4 8.6 -8.3 9.25 L-8.35 9.3 -17.8 8.0 -18.55 7.25 -21.55 4.25 -22.3 3.5 -22.3 2.95 Q-23.65 1.2 -23.5 -1.2 L-23.15 -4.4 -22.75 -6.1 -22.3 -6.6 -22.3 -7.0 -21.2 -8.55 -19.65 -9.75 Q-16.8 -11.35 -14.05 -12.25 -4.75 -13.0 -0.3 -5.45 -0.2 -4.75 0.35 -4.0 L0.85 -1.4 M-20.35 -6.45 Q-21.5 -3.5 -21.2 -0.1 -20.95 2.45 -18.85 3.85 -17.95 5.4 -16.15 6.0 -15.35 6.3 -14.6 6.7 L-12.95 7.15 -7.5 6.7 Q-5.15 6.2 -3.25 4.65 -1.35 3.2 -1.1 0.95 -0.55 -3.6 -3.5 -6.9 -7.05 -10.85 -12.7 -9.9 -16.65 -9.65 -19.75 -7.25 L-20.35 -6.45" fill="#000000" fill-rule="evenodd" stroke="none"/>
    </g>
    <g id="shape6" transform="matrix(1.0, 0.0, 0.0, 1.0, 0.0, 0.0)">
      <path d="M20.0 0.0 L20.0 20.0 0.0 20.0 0.0 0.0 20.0 0.0" fill="#ffffff" fill-rule="evenodd" stroke="none"/>
    </g>
    <g id="text1" transform="matrix(1.0, 0.0, 0.0, 1.0, -31.1, -3.1)">
      <g transform="matrix(1.0, 0.0, 0.0, 1.0, 30.05, 0.0)">
        <use fill="#cccccc" height="13.85" transform="matrix(0.2734, 0.0, 0.0, 0.2734, 0.0, 14.0)" width="90.45" xlink:href="#font_VAGRounded_BT__1"/>
        <use fill="#cccccc" height="13.85" transform="matrix(0.2734, 0.0, 0.0, 0.2734, 4.55, 14.0)" width="90.45" xlink:href="#font_VAGRounded_BT_p0"/>
        <use fill="#cccccc" height="13.85" transform="matrix(0.2734, 0.0, 0.0, 0.2734, 13.0, 14.0)" width="90.45" xlink:href="#font_VAGRounded_BT_l0"/>
        <use fill="#cccccc" height="13.85" transform="matrix(0.2734, 0.0, 0.0, 0.2734, 16.85, 14.0)" width="90.45" xlink:href="#font_VAGRounded_BT_e0"/>
        <use fill="#cccccc" height="13.85" transform="matrix(0.2734, 0.0, 0.0, 0.2734, 24.7, 14.0)" width="90.45" xlink:href="#font_VAGRounded_BT_a0"/>
        <use fill="#cccccc" height="13.85" transform="matrix(0.2734, 0.0, 0.0, 0.2734, 33.15, 14.0)" width="90.45" xlink:href="#font_VAGRounded_BT_s0"/>
        <use fill="#cccccc" height="13.85" transform="matrix(0.2734, 0.0, 0.0, 0.2734, 39.25, 14.0)" width="90.45" xlink:href="#font_VAGRounded_BT_e0"/>
        <use fill="#cccccc" height="13.85" transform="matrix(0.2734, 0.0, 0.0, 0.2734, 51.65, 14.0)" width="90.45" xlink:href="#font_VAGRounded_BT_w0"/>
        <use fill="#cccccc" height="13.85" transform="matrix(0.2734, 0.0, 0.0, 0.2734, 62.25, 14.0)" width="90.45" xlink:href="#font_VAGRounded_BT_a0"/>
        <use fill="#cccccc" height="13.85" transform="matrix(0.2734, 0.0, 0.0, 0.2734, 70.7, 14.0)" width="90.45" xlink:href="#font_VAGRounded_BT_i0"/>
        <use fill="#cccccc" height="13.85" transform="matrix(0.2734, 0.0, 0.0, 0.2734, 74.55, 14.0)" width="90.45" xlink:href="#font_VAGRounded_BT_t0"/>
        <use fill="#cccccc" height="13.85" transform="matrix(0.2734, 0.0, 0.0, 0.2734, 79.2, 14.0)" width="90.45" xlink:href="#font_VAGRounded_BT__2"/>
      </g>
    </g>
    <g id="font_VAGRounded_BT__1">
      <path d="M10.55 -16.65 L10.55 -16.65 Q10.55 -23.05 12.4 -29.5 L14.25 -36.2 Q14.25 -37.7 13.4 -38.5 12.55 -39.35 11.05 -39.35 9.75 -39.35 8.8 -38.3 7.8 -37.25 6.8 -34.7 5.25 -30.6 4.4 -26.0 3.6 -21.35 3.6 -16.65 3.6 -11.5 4.55 -6.55 5.45 -1.6 7.2 2.45 7.95 4.35 8.9 5.25 9.85 6.1 11.05 6.1 12.55 6.1 13.4 5.3 14.25 4.45 14.25 2.95 L12.4 -3.75 Q10.55 -10.15 10.55 -16.65" fill-rule="evenodd" stroke="none"/>
    </g>
    <g id="font_VAGRounded_BT_p0">
      <path d="M10.85 5.4 L10.85 -1.45 Q12.25 -0.3 13.85 0.3 15.4 0.9 17.2 0.9 22.35 0.9 26.0 -3.35 29.6 -7.55 29.6 -13.6 29.6 -19.7 26.05 -23.75 22.5 -27.8 17.3 -27.8 15.3 -27.8 13.6 -27.1 11.9 -26.4 10.65 -25.0 L9.0 -26.95 Q8.05 -27.6 6.8 -27.6 4.75 -27.6 3.8 -26.15 2.8 -24.7 2.8 -21.75 L2.8 5.4 Q2.8 8.4 3.8 9.85 4.75 11.3 6.8 11.3 8.85 11.3 9.85 9.85 10.85 8.4 10.85 5.4 M10.7 -13.5 L10.7 -13.5 Q10.7 -16.5 12.2 -18.4 13.7 -20.25 16.05 -20.25 18.35 -20.25 19.85 -18.35 21.35 -16.5 21.35 -13.5 21.35 -10.45 19.9 -8.55 18.4 -6.65 16.05 -6.65 13.65 -6.65 12.2 -8.5 10.7 -10.4 10.7 -13.5" fill-rule="evenodd" stroke="none"/>
    </g>
    <g id="font_VAGRounded_BT_l0">
      <path d="M3.05 -33.15 L3.05 -5.5 Q3.05 -2.55 4.05 -1.1 5.05 0.35 7.1 0.35 9.1 0.35 10.1 -1.05 11.05 -2.5 11.05 -5.5 L11.05 -33.15 Q11.05 -36.15 10.1 -37.6 9.1 -39.05 7.1 -39.05 5.05 -39.05 4.05 -37.6 3.05 -36.15 3.05 -33.15" fill-rule="evenodd" stroke="none"/>
    </g>
    <g id="font_VAGRounded_BT_a0">
      <path d="M9.55 -13.7 L9.55 -13.7 Q9.55 -16.6 11.0 -18.35 12.45 -20.15 14.75 -20.15 17.0 -20.15 18.5 -18.35 19.95 -16.55 19.95 -13.7 19.95 -10.8 18.5 -8.95 17.05 -7.1 14.75 -7.1 12.45 -7.1 11.0 -8.9 9.55 -10.75 9.55 -13.7 M20.2 -2.45 L20.2 -2.45 Q20.85 -1.0 21.75 -0.3 22.7 0.35 24.05 0.35 26.05 0.35 27.05 -1.1 28.0 -2.55 28.0 -5.5 L28.0 -21.75 Q28.0 -24.75 27.05 -26.15 26.05 -27.6 24.05 -27.6 22.85 -27.6 21.85 -26.95 20.9 -26.3 20.2 -25.0 18.95 -26.5 17.4 -27.2 15.8 -27.9 13.75 -27.9 8.5 -27.9 4.85 -23.75 1.2 -19.65 1.2 -13.6 1.2 -7.5 4.75 -3.45 8.25 0.65 13.45 0.65 15.5 0.65 17.25 -0.15 18.95 -0.95 20.2 -2.45" fill-rule="evenodd" stroke="none"/>
    </g>
    <g id="font_VAGRounded_BT_s0">
      <path d="M10.5 0.8 L10.5 0.8 Q15.25 0.8 18.35 -1.85 21.4 -4.5 21.4 -8.45 21.4 -11.0 19.9 -12.8 18.35 -14.65 14.7 -16.25 L12.35 -17.25 Q9.15 -18.45 9.15 -19.6 9.15 -20.2 9.65 -20.6 10.15 -21.0 10.95 -21.0 12.1 -21.0 14.35 -20.0 16.55 -19.05 17.45 -19.05 18.85 -19.05 19.85 -20.0 20.8 -21.0 20.8 -22.4 20.8 -24.7 18.05 -26.35 15.3 -28.05 11.35 -28.05 6.95 -28.05 4.1 -25.55 1.25 -23.05 1.25 -19.35 1.25 -16.55 2.85 -14.75 4.5 -12.95 8.95 -11.1 L9.45 -10.9 Q13.3 -9.35 13.3 -8.15 13.3 -7.45 12.7 -6.95 12.05 -6.5 11.05 -6.5 9.8 -6.5 7.35 -7.65 4.85 -8.85 3.6 -8.85 2.3 -8.85 1.4 -7.8 0.5 -6.75 0.5 -5.2 0.5 -2.65 3.35 -0.95 6.2 0.8 10.5 0.8" fill-rule="evenodd" stroke="none"/>
    </g>
    <g id="font_VAGRounded_BT_w0">
      <path d="M31.3 -24.15 L27.05 -9.1 23.35 -23.6 Q22.9 -25.4 21.85 -26.35 20.8 -27.35 19.25 -27.35 17.9 -27.35 16.9 -26.4 15.95 -25.45 15.55 -23.7 L12.1 -8.9 7.85 -23.65 Q7.25 -25.65 6.25 -26.6 5.25 -27.6 3.7 -27.6 2.05 -27.6 0.95 -26.45 -0.2 -25.3 -0.2 -23.6 L-0.05 -22.6 0.25 -21.4 6.65 -3.5 Q7.5 -1.2 8.6 -0.25 9.7 0.7 11.55 0.7 13.25 0.7 14.5 -0.35 15.7 -1.4 16.15 -3.25 L19.25 -16.35 22.6 -3.5 Q23.15 -1.45 24.4 -0.4 25.65 0.7 27.45 0.7 29.15 0.7 30.25 -0.2 31.3 -1.1 32.05 -3.25 L38.25 -20.9 38.75 -22.5 38.85 -23.55 Q38.85 -25.3 37.85 -26.4 36.8 -27.5 35.1 -27.5 33.7 -27.5 32.75 -26.6 31.75 -25.75 31.3 -24.15" fill-rule="evenodd" stroke="none"/>
    </g>
    <g id="font_VAGRounded_BT_i0">
      <path d="M11.05 -5.5 L11.05 -21.75 Q11.05 -24.7 10.1 -26.15 9.1 -27.6 7.1 -27.6 5.0 -27.6 4.05 -26.15 3.05 -24.7 3.05 -21.75 L3.05 -5.5 Q3.05 -2.55 4.05 -1.1 5.05 0.35 7.1 0.35 9.1 0.35 10.1 -1.05 11.05 -2.5 11.05 -5.5 M2.4 -34.4 L2.4 -34.4 Q2.4 -32.45 3.75 -31.1 5.1 -29.75 7.1 -29.75 9.0 -29.75 10.35 -31.1 11.7 -32.45 11.7 -34.4 11.7 -36.3 10.35 -37.7 9.0 -39.05 7.1 -39.05 5.15 -39.05 3.8 -37.7 2.4 -36.3 2.4 -34.4" fill-rule="evenodd" stroke="none"/>
    </g>
    <g id="font_VAGRounded_BT_t0">
      <path d="M4.4 -19.8 L4.4 -5.5 Q4.4 -2.55 5.4 -1.1 6.4 0.35 8.45 0.35 10.5 0.35 11.5 -1.05 12.45 -2.5 12.45 -5.5 L12.45 -19.8 13.1 -19.8 Q15.65 -19.8 16.95 -20.7 18.25 -21.55 18.25 -23.3 18.25 -24.95 16.9 -25.9 15.55 -26.85 13.15 -26.85 L12.45 -26.85 12.45 -30.4 Q12.45 -33.4 11.5 -34.85 10.5 -36.3 8.45 -36.3 6.4 -36.3 5.4 -34.85 4.4 -33.4 4.4 -30.4 L4.4 -26.85 Q2.0 -26.75 0.8 -25.85 -0.45 -24.95 -0.45 -23.3 -0.45 -21.7 0.8 -20.75 2.0 -19.8 4.1 -19.8 L4.4 -19.8" fill-rule="evenodd" stroke="none"/>
    </g>
    <g id="font_VAGRounded_BT__2">
      <path d="M6.05 -16.65 L6.05 -16.65 Q6.05 -10.25 4.2 -3.8 L2.35 2.95 Q2.35 4.45 3.2 5.3 4.05 6.1 5.55 6.1 6.85 6.1 7.85 5.05 8.85 3.95 9.8 1.45 11.35 -2.75 12.2 -7.35 13.0 -11.95 13.0 -16.65 13.0 -21.75 12.1 -26.75 11.15 -31.75 9.45 -35.75 8.65 -37.6 7.7 -38.45 6.75 -39.35 5.55 -39.35 4.05 -39.35 3.2 -38.55 2.35 -37.7 2.35 -36.2 L4.2 -29.5 Q6.05 -23.05 6.05 -16.65" fill-rule="evenodd" stroke="none"/>
    </g>
    <g id="text2" transform="matrix(1.0, 0.0, 0.0, 1.0, -88.95, -3.6)">
      <g transform="matrix(1.0, 0.0, 0.0, 1.0, 88.45, 0.0)">
        <use fill="#66cc00" height="26.85" transform="matrix(0.2734, 0.0, 0.0, 0.2734, 1.0, 14.0)" width="82.5" xlink:href="#font_VAGRounded_BT_P0"/>
        <use fill="#66cc00" height="26.85" transform="matrix(0.2734, 0.0, 0.0, 0.2734, 9.5, 14.0)" width="82.5" xlink:href="#font_VAGRounded_BT_R0"/>
        <use fill="#66cc00" height="26.85" transform="matrix(0.2734, 0.0, 0.0, 0.2734, 17.85, 14.0)" width="82.5" xlink:href="#font_VAGRounded_BT_E0"/>
        <use fill="#66cc00" height="26.85" transform="matrix(0.2734, 0.0, 0.0, 0.2734, 24.9, 14.0)" width="82.5" xlink:href="#font_VAGRounded_BT_P0"/>
        <use fill="#66cc00" height="26.85" transform="matrix(0.2734, 0.0, 0.0, 0.2734, 33.4, 14.0)" width="82.5" xlink:href="#font_VAGRounded_BT_A0"/>
        <use fill="#66cc00" height="26.85" transform="matrix(0.2734, 0.0, 0.0, 0.2734, 42.15, 14.0)" width="82.5" xlink:href="#font_VAGRounded_BT_R0"/>
        <use fill="#66cc00" height="26.85" transform="matrix(0.2734, 0.0, 0.0, 0.2734, 50.5, 14.0)" width="82.5" xlink:href="#font_VAGRounded_BT_I0"/>
        <use fill="#66cc00" height="26.85" transform="matrix(0.2734, 0.0, 0.0, 0.2734, 54.65, 14.0)" width="82.5" xlink:href="#font_VAGRounded_BT_N0"/>
        <use fill="#66cc00" height="26.85" transform="matrix(0.2734, 0.0, 0.0, 0.2734, 65.1, 14.0)" width="82.5" xlink:href="#font_VAGRounded_BT_G0"/>
      </g>
      <g transform="matrix(1.0, 0.0, 0.0, 1.0, 88.45, 0.0)">
        <use fill="#66cc00" height="26.85" transform="matrix(0.2734, 0.0, 0.0, 0.2734, 0.0, 28.0)" width="82.5" xlink:href="#font_VAGRounded_BT_C0"/>
        <use fill="#66cc00" height="26.85" transform="matrix(0.2734, 0.0, 0.0, 0.2734, 8.45, 28.0)" width="82.5" xlink:href="#font_VAGRounded_BT_H0"/>
        <use fill="#66cc00" height="26.85" transform="matrix(0.2734, 0.0, 0.0, 0.2734, 18.9, 28.0)" width="82.5" xlink:href="#font_VAGRounded_BT_A0"/>
        <use fill="#66cc00" height="26.85" transform="matrix(0.2734, 0.0, 0.0, 0.2734, 27.65, 28.0)" width="82.5" xlink:href="#font_VAGRounded_BT_L0"/>
        <use fill="#66cc00" height="26.85" transform="matrix(0.2734, 0.0, 0.0, 0.2734, 34.1, 28.0)" width="82.5" xlink:href="#font_VAGRounded_BT_L0"/>
        <use fill="#66cc00" height="26.85" transform="matrix(0.2734, 0.0, 0.0, 0.2734, 40.55, 28.0)" width="82.5" xlink:href="#font_VAGRounded_BT_E0"/>
        <use fill="#66cc00" height="26.85" transform="matrix(0.2734, 0.0, 0.0, 0.2734, 47.6, 28.0)" width="82.5" xlink:href="#font_VAGRounded_BT_N0"/>
        <use fill="#66cc00" height="26.85" transform="matrix(0.2734, 0.0, 0.0, 0.2734, 58.05, 28.0)" width="82.5" xlink:href="#font_VAGRounded_BT_G0"/>
        <use fill="#66cc00" height="26.85" transform="matrix(0.2734, 0.0, 0.0, 0.2734, 68.15, 28.0)" width="82.5" xlink:href="#font_VAGRounded_BT_E0"/>
      </g>
    </g>
    <g id="font_VAGRounded_BT_P0">
      <path d="M11.55 -19.2 L11.55 -28.75 15.1 -28.75 Q18.0 -28.75 19.4 -27.6 20.8 -26.45 20.8 -24.0 20.8 -21.6 19.35 -20.4 17.95 -19.2 15.1 -19.2 L11.55 -19.2 M11.55 -5.4 L11.55 -11.65 17.1 -11.65 Q23.05 -11.65 26.4 -14.95 29.75 -18.2 29.75 -24.0 29.75 -29.7 26.2 -33.05 22.6 -36.4 16.45 -36.4 L8.95 -36.4 Q5.8 -36.4 4.5 -35.15 3.25 -33.9 3.25 -30.55 L3.25 -5.4 Q3.25 -2.45 4.25 -1.0 5.3 0.45 7.4 0.45 9.5 0.45 10.5 -1.0 11.55 -2.45 11.55 -5.4" fill-rule="evenodd" stroke="none"/>
    </g>
    <g id="font_VAGRounded_BT_R0">
      <path d="M11.55 -19.9 L11.55 -28.75 15.45 -28.75 Q17.95 -28.75 19.3 -27.6 20.65 -26.5 20.65 -24.4 20.65 -22.25 19.25 -21.1 17.9 -19.9 15.35 -19.9 L11.55 -19.9 M11.55 -14.35 L21.2 -2.25 Q22.55 -0.6 23.55 0.05 24.55 0.75 25.65 0.75 27.35 0.75 28.5 -0.4 29.6 -1.5 29.6 -3.15 29.6 -4.15 29.0 -5.35 L27.15 -7.9 20.6 -15.2 Q24.65 -15.9 27.0 -18.5 29.3 -21.1 29.3 -25.0 29.3 -30.25 25.6 -33.3 21.9 -36.4 15.4 -36.4 L8.95 -36.4 Q5.8 -36.4 4.5 -35.15 3.25 -33.9 3.25 -30.55 L3.25 -5.4 Q3.25 -2.45 4.25 -1.0 5.3 0.45 7.4 0.45 9.5 0.45 10.5 -1.0 11.55 -2.45 11.55 -5.4 L11.55 -14.35" fill-rule="evenodd" stroke="none"/>
    </g>
    <g id="font_VAGRounded_BT_E0">
      <path d="M18.3 -36.4 L8.95 -36.4 Q5.8 -36.4 4.5 -35.15 3.25 -33.9 3.25 -30.55 L3.25 -5.2 Q3.25 -2.2 4.45 -1.1 5.65 0.0 8.85 0.0 L18.55 0.0 Q21.55 0.0 23.0 -0.95 24.45 -1.9 24.45 -3.85 24.45 -5.75 23.0 -6.7 21.55 -7.65 18.55 -7.65 L11.55 -7.65 11.55 -14.5 17.35 -14.5 Q20.35 -14.5 21.8 -15.4 23.25 -16.35 23.25 -18.3 23.25 -20.25 21.8 -21.2 20.35 -22.15 17.35 -22.15 L11.55 -22.15 11.55 -28.65 18.3 -28.65 Q21.25 -28.65 22.75 -29.6 24.2 -30.55 24.2 -32.5 24.2 -34.45 22.7 -35.4 21.25 -36.4 18.3 -36.4" fill-rule="evenodd" stroke="none"/>
    </g>
    <g id="font_VAGRounded_BT_A0">
      <path d="M11.55 -14.5 L16.05 -28.0 20.25 -14.5 11.55 -14.5 M9.2 -6.85 L22.65 -6.85 23.65 -3.45 Q24.3 -1.4 25.35 -0.4 26.4 0.6 28.0 0.6 29.8 0.6 30.95 -0.5 32.1 -1.6 32.1 -3.3 L32.0 -4.45 31.55 -5.95 22.35 -32.1 Q21.5 -34.45 19.95 -35.65 18.35 -36.9 16.25 -36.9 14.0 -36.9 12.45 -35.6 10.9 -34.3 9.9 -31.55 L0.4 -5.8 0.1 -4.7 0.0 -3.4 Q0.0 -1.7 1.15 -0.55 2.25 0.6 3.95 0.6 5.3 0.6 6.35 -0.35 7.35 -1.35 7.95 -3.15 L9.2 -6.85" fill-rule="evenodd" stroke="none"/>
    </g>
    <g id="font_VAGRounded_BT_I0">
      <path d="M11.75 -5.4 L11.75 -30.95 Q11.75 -33.95 10.7 -35.4 9.7 -36.85 7.6 -36.85 5.5 -36.85 4.45 -35.4 3.45 -33.95 3.45 -30.95 L3.45 -5.4 Q3.45 -2.45 4.45 -1.0 5.5 0.45 7.6 0.45 9.7 0.45 10.7 -1.0 11.75 -2.45 11.75 -5.4" fill-rule="evenodd" stroke="none"/>
    </g>
    <g id="font_VAGRounded_BT_N0">
      <path d="M11.55 -5.4 L11.55 -22.15 26.55 -2.35 Q27.75 -0.75 28.85 -0.05 30.0 0.7 31.3 0.7 33.25 0.7 34.15 -0.55 35.1 -1.85 35.1 -4.5 L35.1 -30.95 Q35.1 -33.95 34.05 -35.4 33.05 -36.85 30.95 -36.85 28.85 -36.85 27.8 -35.4 26.8 -33.95 26.8 -30.95 L26.8 -13.9 11.5 -34.15 9.35 -36.2 Q8.35 -36.8 7.1 -36.8 5.15 -36.8 4.2 -35.45 3.25 -34.05 3.25 -31.25 L3.25 -5.4 Q3.25 -2.45 4.25 -1.0 5.3 0.45 7.4 0.45 9.5 0.45 10.5 -1.0 11.55 -2.45 11.55 -5.4" fill-rule="evenodd" stroke="none"/>
    </g>
    <g id="font_VAGRounded_BT_G0">
      <path d="M26.9 -14.15 L26.9 -14.15 Q26.8 -10.8 24.8 -8.8 22.8 -6.85 19.5 -6.85 15.35 -6.85 12.9 -9.95 10.4 -13.1 10.4 -18.35 10.4 -23.55 12.9 -26.55 15.35 -29.55 19.55 -29.55 22.4 -29.55 25.6 -27.75 28.8 -26.0 29.7 -26.0 31.15 -26.0 32.2 -27.15 33.25 -28.35 33.25 -29.9 33.25 -32.85 29.35 -35.15 25.4 -37.45 19.85 -37.45 11.4 -37.45 6.45 -32.25 1.45 -27.05 1.45 -18.2 1.45 -9.65 6.3 -4.3 11.2 1.1 18.85 1.1 26.5 1.1 31.2 -3.75 35.85 -8.6 35.85 -16.35 35.85 -19.3 34.5 -20.6 33.15 -21.9 30.05 -21.9 L23.95 -21.9 Q21.0 -21.9 19.55 -20.95 18.15 -20.0 18.15 -18.0 18.15 -16.05 19.55 -15.1 20.95 -14.15 23.95 -14.15 L26.9 -14.15" fill-rule="evenodd" stroke="none"/>
    </g>
    <g id="font_VAGRounded_BT_C0">
      <path d="M19.25 1.1 L19.25 1.1 Q24.1 1.1 27.45 -0.75 30.75 -2.65 30.75 -5.2 30.75 -6.65 29.7 -7.75 28.7 -8.85 27.4 -8.85 26.6 -8.85 24.1 -7.9 21.6 -6.95 19.65 -6.95 15.45 -6.95 12.95 -9.9 10.45 -12.9 10.45 -17.95 10.45 -23.15 12.9 -26.2 15.35 -29.25 19.4 -29.25 L23.5 -28.55 26.75 -27.85 Q28.15 -27.85 29.2 -28.95 30.25 -30.1 30.25 -31.6 30.25 -33.9 27.1 -35.65 23.95 -37.4 19.35 -37.4 11.6 -37.4 6.5 -32.0 1.45 -26.65 1.45 -18.15 1.45 -9.5 6.35 -4.2 11.25 1.1 19.25 1.1" fill-rule="evenodd" stroke="none"/>
    </g>
    <g id="font_VAGRounded_BT_H0">
      <path d="M11.55 -14.7 L26.8 -14.7 26.8 -5.4 Q26.8 -2.45 27.8 -1.0 28.85 0.45 30.95 0.45 33.05 0.45 34.05 -1.0 35.1 -2.45 35.1 -5.4 L35.1 -30.95 Q35.1 -33.95 34.05 -35.4 33.05 -36.85 30.95 -36.85 28.85 -36.85 27.8 -35.4 26.8 -33.95 26.8 -30.95 L26.8 -22.35 11.55 -22.35 11.55 -30.95 Q11.55 -33.95 10.5 -35.4 9.5 -36.85 7.4 -36.85 5.3 -36.85 4.25 -35.4 3.25 -33.95 3.25 -30.95 L3.25 -5.4 Q3.25 -2.45 4.25 -1.0 5.3 0.45 7.4 0.45 9.5 0.45 10.5 -1.0 11.55 -2.45 11.55 -5.4 L11.55 -14.7" fill-rule="evenodd" stroke="none"/>
    </g>
    <g id="font_VAGRounded_BT_L0">
      <path d="M3.25 -30.95 L3.25 -5.2 Q3.25 -2.2 4.45 -1.1 5.65 0.0 8.85 0.0 L18.55 0.0 Q21.55 0.0 23.0 -0.95 24.45 -1.9 24.45 -3.85 24.45 -5.75 23.0 -6.7 21.55 -7.65 18.55 -7.65 L11.55 -7.65 11.55 -30.95 Q11.55 -33.95 10.5 -35.4 9.5 -36.85 7.4 -36.85 5.3 -36.85 4.25 -35.4 3.25 -33.95 3.25 -30.95" fill-rule="evenodd" stroke="none"/>
    </g>
    <g id="shape7" transform="matrix(1.0, 0.0, 0.0, 1.0, 51.5, 18.35)">
      <path d="M-37.15 -17.4 L-35.5 -17.55 35.5 -17.55 37.2 -17.4 Q40.25 -16.95 42.55 -14.65 L43.35 -13.75 Q45.5 -11.1 45.5 -7.55 L45.5 -1.1 Q45.5 2.75 44.85 6.1 L-44.85 6.1 Q-45.5 2.75 -45.5 -1.1 L-45.5 -7.55 Q-45.5 -11.1 -43.4 -13.75 L-42.6 -14.65 Q-40.25 -16.95 -37.15 -17.4 M21.95 -1.85 L23.2 -5.55 24.35 -1.85 21.95 -1.85 M24.9 -6.7 L24.25 -7.65 23.25 -8.0 Q22.6 -8.0 22.2 -7.65 21.8 -7.3 21.5 -6.55 L18.9 0.5 18.85 0.8 18.8 1.15 Q18.8 1.65 19.1 1.95 L19.9 2.25 20.55 2.0 20.95 1.25 21.3 0.25 25.0 0.25 25.25 1.15 25.75 2.0 26.45 2.25 27.25 1.95 27.6 1.2 27.55 0.9 27.45 0.45 24.9 -6.7 M34.15 -8.0 L33.55 -7.75 32.95 -7.15 31.25 -4.7 29.55 -7.1 28.95 -7.75 28.4 -8.0 Q27.9 -8.0 27.6 -7.7 27.3 -7.4 27.3 -7.0 27.3 -6.55 27.8 -5.85 L30.1 -2.6 30.1 0.6 Q30.1 1.45 30.35 1.85 30.65 2.2 31.2 2.2 31.8 2.2 32.05 1.85 L32.35 0.6 32.35 -2.6 34.65 -5.85 34.7 -5.95 35.15 -7.0 34.85 -7.7 34.15 -8.0 M2.8 -1.85 L0.4 -1.85 1.65 -5.55 2.8 -1.85 M0.65 -7.65 L-0.05 -6.55 -2.65 0.5 -2.7 0.8 -2.75 1.15 -2.45 1.95 Q-2.15 2.25 -1.65 2.25 L-1.0 2.0 -0.6 1.25 -0.25 0.25 3.45 0.25 3.7 1.15 4.2 2.0 4.9 2.25 5.7 1.95 6.05 1.2 6.0 0.9 5.9 0.45 3.35 -6.7 2.7 -7.65 1.7 -8.0 Q1.05 -8.0 0.65 -7.65 M13.65 -7.0 L13.25 -7.75 12.45 -8.0 11.65 -7.75 11.2 -7.05 9.55 -0.7 8.35 -7.0 7.95 -7.75 7.25 -8.0 6.4 -7.7 Q6.1 -7.45 6.1 -6.95 L6.1 -6.65 6.1 -6.45 7.8 0.75 Q7.95 1.55 8.3 1.9 L9.35 2.2 Q9.95 2.2 10.4 1.85 L10.95 0.85 12.35 -4.75 13.85 0.95 Q14.0 1.6 14.4 1.9 L15.35 2.2 16.4 1.95 16.95 0.75 18.65 -6.25 18.75 -6.6 18.75 -6.95 18.45 -7.7 Q18.15 -8.0 17.65 -8.0 L16.9 -7.7 16.5 -6.85 15.3 -0.7 13.65 -7.0 M44.85 6.1 Q44.1 7.95 42.55 9.5 39.65 12.45 35.5 12.45 L-35.5 12.45 Q-39.65 12.45 -42.6 9.5 -44.15 7.95 -44.85 6.1 L44.85 6.1 M-10.15 -7.6 L-10.45 -6.35 -10.45 -1.7 -14.6 -7.25 -15.2 -7.8 -15.8 -7.95 Q-16.35 -7.95 -16.6 -7.6 L-16.85 -6.45 -16.85 0.6 -16.6 1.85 -15.75 2.2 Q-15.15 2.2 -14.9 1.85 -14.6 1.45 -14.6 0.6 L-14.6 -3.95 -10.5 1.45 -9.85 2.1 -9.2 2.3 Q-8.65 2.3 -8.4 1.95 -8.15 1.6 -8.15 0.85 L-8.15 -6.35 Q-8.15 -7.2 -8.45 -7.6 -8.7 -8.0 -9.3 -8.0 -9.85 -8.0 -10.15 -7.6 M-31.15 -5.45 Q-30.75 -5.15 -30.75 -4.6 -30.75 -4.0 -31.15 -3.65 -31.5 -3.35 -32.2 -3.35 L-33.25 -3.35 -33.25 -5.75 -32.2 -5.75 -31.15 -5.45 M-28.4 -4.75 Q-28.4 -6.2 -29.4 -7.0 -30.4 -7.85 -32.2 -7.85 L-33.95 -7.85 Q-34.8 -7.85 -35.15 -7.5 -35.5 -7.15 -35.5 -6.25 L-35.5 0.6 -35.25 1.85 Q-34.95 2.2 -34.4 2.2 -33.8 2.2 -33.55 1.85 -33.25 1.45 -33.25 0.6 L-33.25 -1.85 -30.6 1.5 -29.95 2.1 -29.4 2.3 Q-28.9 2.3 -28.6 2.0 -28.3 1.7 -28.3 1.25 L-28.45 0.65 -29.0 -0.05 -30.75 -2.05 Q-29.65 -2.25 -29.0 -2.95 -28.4 -3.7 -28.4 -4.75 M-24.9 -6.35 Q-24.9 -7.2 -25.2 -7.6 -25.45 -8.0 -26.05 -8.0 -26.6 -8.0 -26.9 -7.6 L-27.15 -6.35 -27.15 -2.15 Q-27.15 0.0 -26.05 1.2 -24.9 2.4 -22.9 2.4 -20.9 2.4 -19.75 1.2 -18.65 0.0 -18.65 -2.15 L-18.65 -6.35 Q-18.65 -7.2 -18.9 -7.6 -19.2 -8.0 -19.75 -8.0 -20.35 -8.0 -20.6 -7.6 L-20.9 -6.35 -20.9 -2.45 Q-20.9 -1.1 -21.4 -0.45 -21.9 0.25 -22.9 0.25 -23.9 0.25 -24.4 -0.45 -24.9 -1.1 -24.9 -2.45 L-24.9 -6.35" fill="#ffffff" fill-opacity="0.19607843" fill-rule="evenodd" stroke="none"/>
      <path d="M37.2 -17.4 L35.5 -17.55 -35.5 -17.55 -37.15 -17.4 -39.5 -17.4 Q-43.65 -17.4 -46.6 -14.65 -49.5 -11.9 -49.5 -7.95 L-49.5 6.1 -49.5 7.9 Q-49.5 11.8 -46.6 14.55 -43.65 17.3 -39.5 17.35 L39.5 17.35 Q43.65 17.3 46.55 14.55 49.5 11.8 49.5 7.9 L49.5 6.1 51.5 6.1 51.5 8.85 Q51.5 12.75 48.55 15.5 45.65 18.25 41.5 18.3 L-41.5 18.3 Q-45.65 18.25 -48.6 15.5 -51.5 12.75 -51.5 8.85 L-51.5 6.1 -49.5 6.1 -51.5 6.1 -51.5 -8.9 Q-51.5 -12.85 -48.6 -15.6 -45.65 -18.35 -41.5 -18.35 L41.5 -18.35 Q45.65 -18.35 48.55 -15.6 51.5 -12.85 51.5 -8.9 L51.5 6.1 49.5 6.1 49.5 -7.95 Q49.5 -11.9 46.55 -14.65 43.65 -17.4 39.5 -17.4 L37.2 -17.4" fill="#01317e" fill-opacity="0.003921569" fill-rule="evenodd" stroke="none"/>
      <path d="M13.65 -7.0 L15.3 -0.7 16.5 -6.85 16.9 -7.7 17.65 -8.0 Q18.15 -8.0 18.45 -7.7 L18.75 -6.95 18.75 -6.6 18.65 -6.25 16.95 0.75 16.4 1.95 15.35 2.2 14.4 1.9 Q14.0 1.6 13.85 0.95 L12.35 -4.75 10.95 0.85 10.4 1.85 Q9.95 2.2 9.35 2.2 L8.3 1.9 Q7.95 1.55 7.8 0.75 L6.1 -6.45 6.1 -6.65 6.1 -6.95 Q6.1 -7.45 6.4 -7.7 L7.25 -8.0 7.95 -7.75 8.35 -7.0 9.55 -0.7 11.2 -7.05 11.65 -7.75 12.45 -8.0 13.25 -7.75 13.65 -7.0 M0.65 -7.65 Q1.05 -8.0 1.7 -8.0 L2.7 -7.65 3.35 -6.7 5.9 0.45 6.0 0.9 6.05 1.2 5.7 1.95 4.9 2.25 4.2 2.0 3.7 1.15 3.45 0.25 -0.25 0.25 -0.6 1.25 -1.0 2.0 -1.65 2.25 Q-2.15 2.25 -2.45 1.95 L-2.75 1.15 -2.7 0.8 -2.65 0.5 -0.05 -6.55 0.65 -7.65 M2.8 -1.85 L1.65 -5.55 0.4 -1.85 2.8 -1.85 M34.15 -8.0 L34.85 -7.7 35.15 -7.0 34.7 -5.95 34.65 -5.85 32.35 -2.6 32.35 0.6 32.05 1.85 Q31.8 2.2 31.2 2.2 30.65 2.2 30.35 1.85 30.1 1.45 30.1 0.6 L30.1 -2.6 27.8 -5.85 Q27.3 -6.55 27.3 -7.0 27.3 -7.4 27.6 -7.7 27.9 -8.0 28.4 -8.0 L28.95 -7.75 29.55 -7.1 31.25 -4.7 32.95 -7.15 33.55 -7.75 34.15 -8.0 M24.9 -6.7 L27.45 0.45 27.55 0.9 27.6 1.2 27.25 1.95 26.45 2.25 25.75 2.0 25.25 1.15 25.0 0.25 21.3 0.25 20.95 1.25 20.55 2.0 19.9 2.25 19.1 1.95 Q18.8 1.65 18.8 1.15 L18.85 0.8 18.9 0.5 21.5 -6.55 Q21.8 -7.3 22.2 -7.65 22.6 -8.0 23.25 -8.0 L24.25 -7.65 24.9 -6.7 M21.95 -1.85 L24.35 -1.85 23.2 -5.55 21.95 -1.85 M-24.9 -6.35 L-24.9 -2.45 Q-24.9 -1.1 -24.4 -0.45 -23.9 0.25 -22.9 0.25 -21.9 0.25 -21.4 -0.45 -20.9 -1.1 -20.9 -2.45 L-20.9 -6.35 -20.6 -7.6 Q-20.35 -8.0 -19.75 -8.0 -19.2 -8.0 -18.9 -7.6 -18.65 -7.2 -18.65 -6.35 L-18.65 -2.15 Q-18.65 0.0 -19.75 1.2 -20.9 2.4 -22.9 2.4 -24.9 2.4 -26.05 1.2 -27.15 0.0 -27.15 -2.15 L-27.15 -6.35 -26.9 -7.6 Q-26.6 -8.0 -26.05 -8.0 -25.45 -8.0 -25.2 -7.6 -24.9 -7.2 -24.9 -6.35 M-28.4 -4.75 Q-28.4 -3.7 -29.0 -2.95 -29.65 -2.25 -30.75 -2.05 L-29.0 -0.05 -28.45 0.65 -28.3 1.25 Q-28.3 1.7 -28.6 2.0 -28.9 2.3 -29.4 2.3 L-29.95 2.1 -30.6 1.5 -33.25 -1.85 -33.25 0.6 Q-33.25 1.45 -33.55 1.85 -33.8 2.2 -34.4 2.2 -34.95 2.2 -35.25 1.85 L-35.5 0.6 -35.5 -6.25 Q-35.5 -7.15 -35.15 -7.5 -34.8 -7.85 -33.95 -7.85 L-32.2 -7.85 Q-30.4 -7.85 -29.4 -7.0 -28.4 -6.2 -28.4 -4.75 M-31.15 -5.45 L-32.2 -5.75 -33.25 -5.75 -33.25 -3.35 -32.2 -3.35 Q-31.5 -3.35 -31.15 -3.65 -30.75 -4.0 -30.75 -4.6 -30.75 -5.15 -31.15 -5.45 M-10.15 -7.6 Q-9.85 -8.0 -9.3 -8.0 -8.7 -8.0 -8.45 -7.6 -8.15 -7.2 -8.15 -6.35 L-8.15 0.85 Q-8.15 1.6 -8.4 1.95 -8.65 2.3 -9.2 2.3 L-9.85 2.1 -10.5 1.45 -14.6 -3.95 -14.6 0.6 Q-14.6 1.45 -14.9 1.85 -15.15 2.2 -15.75 2.2 L-16.6 1.85 -16.85 0.6 -16.85 -6.45 -16.6 -7.6 Q-16.35 -7.95 -15.8 -7.95 L-15.2 -7.8 -14.6 -7.25 -10.45 -1.7 -10.45 -6.35 -10.15 -7.6" fill="#999999" fill-opacity="0.19607843" fill-rule="evenodd" stroke="none"/>
      <path d="M-37.15 -17.4 Q-40.25 -16.95 -42.6 -14.65 L-43.4 -13.75 -44.6 -12.75 Q-46.95 -10.5 -47.4 -7.5 L-47.5 -7.5 -47.5 5.85 -47.5 6.1 -49.5 6.1 -49.5 -7.95 Q-49.5 -11.9 -46.6 -14.65 -43.65 -17.4 -39.5 -17.4 L-37.15 -17.4 M43.35 -13.75 L42.55 -14.65 Q40.25 -16.95 37.2 -17.4 L39.5 -17.4 Q43.65 -17.4 46.55 -14.65 49.5 -11.9 49.5 -7.95 L49.5 6.1 47.5 6.1 47.5 5.85 47.5 -7.5 47.4 -7.5 Q46.95 -10.5 44.55 -12.75 L43.35 -13.75 M-47.5 6.1 L-47.45 6.65 -47.5 6.65 -47.5 6.95 -47.45 6.95 Q-47.15 10.25 -44.6 12.65 -41.65 15.45 -37.5 15.45 L37.5 15.45 Q41.65 15.45 44.55 12.65 47.15 10.25 47.45 6.95 L47.5 6.95 47.5 6.65 47.5 6.1 49.5 6.1 49.5 7.9 Q49.5 11.8 46.55 14.55 43.65 17.3 39.5 17.35 L-39.5 17.35 Q-43.65 17.3 -46.6 14.55 -49.5 11.8 -49.5 7.9 L-49.5 6.1 -47.5 6.1" fill="#01317e" fill-opacity="0.015686275" fill-rule="evenodd" stroke="none"/>
      <path d="M-43.4 -13.75 Q-45.5 -11.1 -45.5 -7.55 L-45.5 -1.1 Q-45.5 2.75 -44.85 6.1 -44.15 7.95 -42.6 9.5 -39.65 12.45 -35.5 12.45 L35.5 12.45 Q39.65 12.45 42.55 9.5 44.1 7.95 44.85 6.1 45.5 2.75 45.5 -1.1 L45.5 -7.55 Q45.5 -11.1 43.35 -13.75 L44.55 -12.75 Q46.95 -10.5 47.4 -7.5 L47.5 -7.5 47.5 5.85 47.5 6.1 44.85 6.1 47.5 6.1 47.5 6.65 47.5 6.95 47.45 6.95 Q47.15 10.25 44.55 12.65 41.65 15.45 37.5 15.45 L-37.5 15.45 Q-41.65 15.45 -44.6 12.65 -47.15 10.25 -47.45 6.95 L-47.5 6.95 -47.5 6.65 -47.45 6.65 -47.5 6.1 -44.85 6.1 -47.5 6.1 -47.5 5.85 -47.5 -7.5 -47.4 -7.5 Q-46.95 -10.5 -44.6 -12.75 L-43.4 -13.75" fill="#01317e" fill-opacity="0.03529412" fill-rule="evenodd" stroke="none"/>
    </g>
  </defs>
</svg>
