<?xml version="1.0" encoding="UTF-8" standalone="no"?>
<svg xmlns:ffdec="https://www.free-decompiler.com/flash" xmlns:xlink="http://www.w3.org/1999/xlink" ffdec:objectType="frame" height="328.05px" width="592.4px" xmlns="http://www.w3.org/2000/svg">
  <g transform="matrix(1.0, 0.0, 0.0, 1.0, 127.6, 137.0)">
    <use ffdec:characterId="440" height="131.0" transform="matrix(1.0, 0.0, 0.0, 1.0, -104.8, -121.1)" width="216.0" xlink:href="#shape0"/>
    <use ffdec:characterId="441" height="13.2" transform="matrix(1.0, 0.0, 0.0, 1.0, -40.9, -59.5)" width="96.45" xlink:href="#text0"/>
    <use ffdec:characterId="442" height="19.95" transform="matrix(8.0049, 0.0, 0.0, 16.3027, 302.9513, -134.2118)" width="19.95" xlink:href="#button0"/>
    <use ffdec:characterId="443" height="327.0" transform="matrix(1.0, 0.0, 0.0, 1.0, 301.8, -137.0)" width="163.0" xlink:href="#shape1"/>
    <use ffdec:characterId="444" height="12.0" transform="matrix(1.0, 0.0, 0.0, 1.0, 323.15, 23.1)" width="127.7" xlink:href="#text1"/>
    <use ffdec:characterId="445" height="17.7" transform="matrix(1.0, 0.0, 0.0, 1.0, 368.35, -0.9)" width="30.0" xlink:href="#shape2"/>
  </g>
  <defs>
    <g id="shape0" transform="matrix(1.0, 0.0, 0.0, 1.0, 104.8, 121.1)">
      <path d="M93.25 4.9 L97.0 4.9 Q101.15 4.9 104.1 1.95 107.0 -0.95 107.0 -5.1 L107.0 -106.1 Q107.0 -110.25 104.1 -113.2 102.3 -114.95 100.1 -115.65 L97.0 -116.1 93.2 -116.1 96.1 -115.65 Q98.3 -114.95 100.1 -113.2 103.0 -110.25 103.0 -106.1 L103.0 -5.1 Q103.0 -0.95 100.1 1.95 97.25 4.8 93.25 4.9 L93.25 4.85 92.25 4.9 93.25 4.9 M102.95 -120.95 Q106.0 -120.45 108.25 -118.2 111.2 -115.25 111.2 -111.1 L111.2 -0.1 Q111.2 4.05 108.25 6.95 105.35 9.9 101.2 9.9 L-94.8 9.9 Q-98.95 9.9 -101.9 6.95 -104.8 4.05 -104.8 -0.1 L-104.8 -111.1 Q-104.8 -115.25 -101.9 -118.2 -100.1 -119.95 -97.85 -120.65 L-94.8 -121.1 101.2 -121.1 102.95 -120.95 M-100.8 -106.1 L-100.8 -5.1 Q-100.8 -0.95 -97.9 1.95 -94.95 4.9 -90.8 4.9 L-87.05 4.9 Q-91.05 4.8 -93.9 1.95 -96.8 -0.95 -96.8 -5.1 L-96.8 -106.1 Q-96.8 -110.25 -93.9 -113.2 -92.1 -114.95 -89.85 -115.65 L-87.0 -116.1 -90.8 -116.1 -93.85 -115.65 Q-96.1 -114.95 -97.9 -113.2 -100.8 -110.25 -100.8 -106.1" fill="#ffffff" fill-rule="evenodd" stroke="none"/>
      <path d="M93.25 4.9 Q97.25 4.8 100.1 1.95 103.0 -0.95 103.0 -5.1 L103.0 -106.1 Q103.0 -110.25 100.1 -113.2 98.3 -114.95 96.1 -115.65 L93.2 -116.1 97.0 -116.1 100.1 -115.65 Q102.3 -114.95 104.1 -113.2 107.0 -110.25 107.0 -106.1 L107.0 -5.1 Q107.0 -0.95 104.1 1.95 101.15 4.9 97.0 4.9 L93.25 4.9 M-100.8 -106.1 Q-100.8 -110.25 -97.9 -113.2 -96.1 -114.95 -93.85 -115.65 L-90.8 -116.1 -87.0 -116.1 -89.85 -115.65 Q-92.1 -114.95 -93.9 -113.2 -96.8 -110.25 -96.8 -106.1 L-96.8 -5.1 Q-96.8 -0.95 -93.9 1.95 -91.05 4.8 -87.05 4.9 L-90.8 4.9 Q-94.95 4.9 -97.9 1.95 -100.8 -0.95 -100.8 -5.1 L-100.8 -106.1" fill="#66cc00" fill-rule="evenodd" stroke="none"/>
    </g>
    <g id="text0" transform="matrix(1.0, 0.0, 0.0, 1.0, -82.25, -3.1)">
      <g transform="matrix(1.0, 0.0, 0.0, 1.0, 81.2, 0.0)">
        <use fill="#999999" height="13.2" transform="matrix(0.2734, 0.0, 0.0, 0.2734, 0.0, 14.0)" width="96.45" xlink:href="#font_VAGRounded_BT__0"/>
        <use fill="#999999" height="13.2" transform="matrix(0.2734, 0.0, 0.0, 0.2734, 4.55, 14.0)" width="96.45" xlink:href="#font_VAGRounded_BT_N0"/>
        <use fill="#999999" height="13.2" transform="matrix(0.2734, 0.0, 0.0, 0.2734, 15.0, 14.0)" width="96.45" xlink:href="#font_VAGRounded_BT_O0"/>
        <use fill="#999999" height="13.2" transform="matrix(0.2734, 0.0, 0.0, 0.2734, 30.1, 14.0)" width="96.45" xlink:href="#font_VAGRounded_BT_A0"/>
        <use fill="#999999" height="13.2" transform="matrix(0.2734, 0.0, 0.0, 0.2734, 38.85, 14.0)" width="96.45" xlink:href="#font_VAGRounded_BT_N0"/>
        <use fill="#999999" height="13.2" transform="matrix(0.2734, 0.0, 0.0, 0.2734, 49.3, 14.0)" width="96.45" xlink:href="#font_VAGRounded_BT_S0"/>
        <use fill="#999999" height="13.2" transform="matrix(0.2734, 0.0, 0.0, 0.2734, 57.0, 14.0)" width="96.45" xlink:href="#font_VAGRounded_BT_W0"/>
        <use fill="#999999" height="13.2" transform="matrix(0.2734, 0.0, 0.0, 0.2734, 69.8, 14.0)" width="96.45" xlink:href="#font_VAGRounded_BT_E0"/>
        <use fill="#999999" height="13.2" transform="matrix(0.2734, 0.0, 0.0, 0.2734, 76.85, 14.0)" width="96.45" xlink:href="#font_VAGRounded_BT_R0"/>
        <use fill="#999999" height="13.2" transform="matrix(0.2734, 0.0, 0.0, 0.2734, 85.2, 14.0)" width="96.45" xlink:href="#font_VAGRounded_BT__2"/>
      </g>
    </g>
    <g id="font_VAGRounded_BT__0">
      <path d="M10.55 -16.65 L10.55 -16.65 Q10.55 -23.05 12.4 -29.5 L14.25 -36.2 Q14.25 -37.7 13.4 -38.5 12.55 -39.35 11.05 -39.35 9.75 -39.35 8.8 -38.3 7.8 -37.25 6.8 -34.7 5.25 -30.6 4.4 -26.0 3.6 -21.35 3.6 -16.65 3.6 -11.5 4.55 -6.55 5.45 -1.6 7.2 2.45 7.95 4.35 8.9 5.25 9.85 6.1 11.05 6.1 12.55 6.1 13.4 5.3 14.25 4.45 14.25 2.95 L12.4 -3.75 Q10.55 -10.15 10.55 -16.65" fill-rule="evenodd" stroke="none"/>
    </g>
    <g id="font_VAGRounded_BT_N0">
      <path d="M11.55 -5.4 L11.55 -22.15 26.55 -2.35 Q27.75 -0.75 28.85 -0.05 30.0 0.7 31.3 0.7 33.25 0.7 34.15 -0.55 35.1 -1.85 35.1 -4.5 L35.1 -30.95 Q35.1 -33.95 34.05 -35.4 33.05 -36.85 30.95 -36.85 28.85 -36.85 27.8 -35.4 26.8 -33.95 26.8 -30.95 L26.8 -13.9 11.5 -34.15 9.35 -36.2 Q8.35 -36.8 7.1 -36.8 5.15 -36.8 4.2 -35.45 3.25 -34.05 3.25 -31.25 L3.25 -5.4 Q3.25 -2.45 4.25 -1.0 5.3 0.45 7.4 0.45 9.5 0.45 10.5 -1.0 11.55 -2.45 11.55 -5.4" fill-rule="evenodd" stroke="none"/>
    </g>
    <g id="font_VAGRounded_BT_O0">
      <path d="M1.45 -18.15 L1.45 -18.15 Q1.45 -9.5 6.35 -4.2 11.25 1.1 19.3 1.1 27.35 1.1 32.3 -4.2 37.25 -9.5 37.25 -18.15 37.25 -26.75 32.3 -32.1 27.35 -37.4 19.3 -37.4 11.3 -37.4 6.4 -32.1 1.45 -26.8 1.45 -18.15 M10.45 -18.05 L10.45 -18.05 Q10.45 -23.35 12.85 -26.45 15.25 -29.55 19.3 -29.55 23.35 -29.55 25.75 -26.45 28.15 -23.35 28.15 -18.05 28.15 -12.95 25.75 -9.9 23.3 -6.85 19.3 -6.85 15.3 -6.85 12.9 -9.9 10.45 -12.95 10.45 -18.05" fill-rule="evenodd" stroke="none"/>
    </g>
    <g id="font_VAGRounded_BT_A0">
      <path d="M11.55 -14.5 L16.05 -28.0 20.25 -14.5 11.55 -14.5 M9.2 -6.85 L22.65 -6.85 23.65 -3.45 Q24.3 -1.4 25.35 -0.4 26.4 0.6 28.0 0.6 29.8 0.6 30.95 -0.5 32.1 -1.6 32.1 -3.3 L32.0 -4.45 31.55 -5.95 22.35 -32.1 Q21.5 -34.45 19.95 -35.65 18.35 -36.9 16.25 -36.9 14.0 -36.9 12.45 -35.6 10.9 -34.3 9.9 -31.55 L0.4 -5.8 0.1 -4.7 0.0 -3.4 Q0.0 -1.7 1.15 -0.55 2.25 0.6 3.95 0.6 5.3 0.6 6.35 -0.35 7.35 -1.35 7.95 -3.15 L9.2 -6.85" fill-rule="evenodd" stroke="none"/>
    </g>
    <g id="font_VAGRounded_BT_S0">
      <path d="M27.2 -11.25 L27.2 -11.25 Q27.2 -15.25 24.8 -17.9 22.4 -20.55 17.15 -22.3 L15.4 -22.85 Q10.55 -24.4 10.55 -26.6 10.55 -28.0 11.65 -28.85 12.75 -29.75 14.6 -29.75 L17.95 -29.1 21.1 -28.45 Q22.85 -28.45 23.85 -29.4 24.85 -30.35 24.85 -32.0 24.85 -34.3 22.05 -35.8 19.25 -37.35 14.9 -37.35 9.05 -37.35 5.4 -34.15 1.7 -30.9 1.7 -25.85 1.7 -21.9 4.0 -19.55 6.25 -17.2 12.0 -15.5 15.95 -14.3 17.15 -13.25 18.35 -12.2 18.35 -10.5 18.35 -8.9 17.15 -7.8 16.0 -6.75 14.25 -6.75 12.2 -6.75 9.25 -7.65 L5.4 -8.6 Q3.5 -8.6 2.4 -7.55 1.3 -6.55 1.3 -4.85 1.3 -2.5 4.75 -0.75 8.2 1.0 13.05 1.0 19.4 1.0 23.3 -2.4 27.2 -5.8 27.2 -11.25" fill-rule="evenodd" stroke="none"/>
    </g>
    <g id="font_VAGRounded_BT_W0">
      <path d="M18.2 -4.65 L23.3 -24.95 28.75 -4.2 Q29.35 -1.8 30.7 -0.65 32.0 0.45 34.25 0.45 36.75 0.45 37.95 -0.6 39.2 -1.7 40.0 -5.0 L46.35 -30.55 46.6 -31.8 46.65 -33.0 Q46.65 -34.7 45.5 -35.75 44.35 -36.85 42.55 -36.85 40.75 -36.85 39.8 -35.9 38.8 -34.9 38.35 -32.7 L34.0 -10.15 28.05 -33.25 Q27.6 -35.05 26.5 -35.95 25.35 -36.85 23.55 -36.85 21.75 -36.85 20.6 -36.0 19.4 -35.1 18.95 -33.35 L12.9 -10.15 8.55 -33.25 Q8.25 -35.0 7.2 -35.95 6.15 -36.9 4.55 -36.9 2.7 -36.9 1.55 -35.9 0.35 -34.85 0.35 -33.15 L0.4 -32.0 0.45 -31.35 6.5 -5.0 Q7.2 -2.05 8.5 -0.8 9.8 0.45 12.2 0.45 14.5 0.45 16.05 -0.85 17.55 -2.15 18.2 -4.65" fill-rule="evenodd" stroke="none"/>
    </g>
    <g id="font_VAGRounded_BT_E0">
      <path d="M18.3 -36.4 L8.95 -36.4 Q5.8 -36.4 4.5 -35.15 3.25 -33.9 3.25 -30.55 L3.25 -5.2 Q3.25 -2.2 4.45 -1.1 5.65 0.0 8.85 0.0 L18.55 0.0 Q21.55 0.0 23.0 -0.95 24.45 -1.9 24.45 -3.85 24.45 -5.75 23.0 -6.7 21.55 -7.65 18.55 -7.65 L11.55 -7.65 11.55 -14.5 17.35 -14.5 Q20.35 -14.5 21.8 -15.4 23.25 -16.35 23.25 -18.3 23.25 -20.25 21.8 -21.2 20.35 -22.15 17.35 -22.15 L11.55 -22.15 11.55 -28.65 18.3 -28.65 Q21.25 -28.65 22.75 -29.6 24.2 -30.55 24.2 -32.5 24.2 -34.45 22.7 -35.4 21.25 -36.4 18.3 -36.4" fill-rule="evenodd" stroke="none"/>
    </g>
    <g id="font_VAGRounded_BT_R0">
      <path d="M11.55 -19.9 L11.55 -28.75 15.45 -28.75 Q17.95 -28.75 19.3 -27.6 20.65 -26.5 20.65 -24.4 20.65 -22.25 19.25 -21.1 17.9 -19.9 15.35 -19.9 L11.55 -19.9 M11.55 -14.35 L21.2 -2.25 Q22.55 -0.6 23.55 0.05 24.55 0.75 25.65 0.75 27.35 0.75 28.5 -0.4 29.6 -1.5 29.6 -3.15 29.6 -4.15 29.0 -5.35 L27.15 -7.9 20.6 -15.2 Q24.65 -15.9 27.0 -18.5 29.3 -21.1 29.3 -25.0 29.3 -30.25 25.6 -33.3 21.9 -36.4 15.4 -36.4 L8.95 -36.4 Q5.8 -36.4 4.5 -35.15 3.25 -33.9 3.25 -30.55 L3.25 -5.4 Q3.25 -2.45 4.25 -1.0 5.3 0.45 7.4 0.45 9.5 0.45 10.5 -1.0 11.55 -2.45 11.55 -5.4 L11.55 -14.35" fill-rule="evenodd" stroke="none"/>
    </g>
    <g id="font_VAGRounded_BT__2">
      <path d="M6.05 -16.65 L6.05 -16.65 Q6.05 -10.25 4.2 -3.8 L2.35 2.95 Q2.35 4.45 3.2 5.3 4.05 6.1 5.55 6.1 6.85 6.1 7.85 5.05 8.85 3.95 9.8 1.45 11.35 -2.75 12.2 -7.35 13.0 -11.95 13.0 -16.65 13.0 -21.75 12.1 -26.75 11.15 -31.75 9.45 -35.75 8.65 -37.6 7.7 -38.45 6.75 -39.35 5.55 -39.35 4.05 -39.35 3.2 -38.55 2.35 -37.7 2.35 -36.2 L4.2 -29.5 Q6.05 -23.05 6.05 -16.65" fill-rule="evenodd" stroke="none"/>
    </g>
    <g id="shape1" transform="matrix(1.0, 0.0, 0.0, 1.0, -301.8, 137.0)">
      <path d="M301.8 -131.0 Q301.8 -133.5 303.55 -135.25 305.3 -137.0 307.8 -137.0 L458.8 -137.0 Q461.3 -137.0 463.05 -135.25 464.8 -133.5 464.8 -131.0 L464.8 184.0 Q464.8 186.5 463.05 188.25 461.3 190.0 458.8 190.0 L307.8 190.0 Q305.3 190.0 303.55 188.25 301.8 186.5 301.8 184.0 L301.8 -131.0" fill="#ffffff" fill-rule="evenodd" stroke="none"/>
    </g>
    <g id="text1" transform="matrix(1.0, 0.0, 0.0, 1.0, -11.85, -2.6)">
      <g transform="matrix(1.0, 0.0, 0.0, 1.0, 10.95, 0.0)">
        <use fill="#999999" height="12.0" transform="matrix(0.2344, 0.0, 0.0, 0.2344, 0.0, 12.0)" width="127.7" xlink:href="#font_VAGRounded_BT__0"/>
        <use fill="#999999" height="12.0" transform="matrix(0.2344, 0.0, 0.0, 0.2344, 3.9, 12.0)" width="127.7" xlink:href="#font_VAGRounded_BT_w0"/>
        <use fill="#999999" height="12.0" transform="matrix(0.2344, 0.0, 0.0, 0.2344, 13.0, 12.0)" width="127.7" xlink:href="#font_VAGRounded_BT_a0"/>
        <use fill="#999999" height="12.0" transform="matrix(0.2344, 0.0, 0.0, 0.2344, 20.2, 12.0)" width="127.7" xlink:href="#font_VAGRounded_BT_i0"/>
        <use fill="#999999" height="12.0" transform="matrix(0.2344, 0.0, 0.0, 0.2344, 23.5, 12.0)" width="127.7" xlink:href="#font_VAGRounded_BT_t0"/>
        <use fill="#999999" height="12.0" transform="matrix(0.2344, 0.0, 0.0, 0.2344, 27.5, 12.0)" width="127.7" xlink:href="#font_VAGRounded_BT_i0"/>
        <use fill="#999999" height="12.0" transform="matrix(0.2344, 0.0, 0.0, 0.2344, 30.8, 12.0)" width="127.7" xlink:href="#font_VAGRounded_BT_n0"/>
        <use fill="#999999" height="12.0" transform="matrix(0.2344, 0.0, 0.0, 0.2344, 37.85, 12.0)" width="127.7" xlink:href="#font_VAGRounded_BT_g0"/>
        <use fill="#999999" height="12.0" transform="matrix(0.2344, 0.0, 0.0, 0.2344, 48.9, 12.0)" width="127.7" xlink:href="#font_VAGRounded_BT_f0"/>
        <use fill="#999999" height="12.0" transform="matrix(0.2344, 0.0, 0.0, 0.2344, 53.1, 12.0)" width="127.7" xlink:href="#font_VAGRounded_BT_o0"/>
        <use fill="#999999" height="12.0" transform="matrix(0.2344, 0.0, 0.0, 0.2344, 60.05, 12.0)" width="127.7" xlink:href="#font_VAGRounded_BT_r0"/>
        <use fill="#999999" height="12.0" transform="matrix(0.2344, 0.0, 0.0, 0.2344, 68.5, 12.0)" width="127.7" xlink:href="#font_VAGRounded_BT_r0"/>
        <use fill="#999999" height="12.0" transform="matrix(0.2344, 0.0, 0.0, 0.2344, 73.05, 12.0)" width="127.7" xlink:href="#font_VAGRounded_BT_e0"/>
        <use fill="#999999" height="12.0" transform="matrix(0.2344, 0.0, 0.0, 0.2344, 79.75, 12.0)" width="127.7" xlink:href="#font_VAGRounded_BT_s0"/>
        <use fill="#999999" height="12.0" transform="matrix(0.2344, 0.0, 0.0, 0.2344, 84.95, 12.0)" width="127.7" xlink:href="#font_VAGRounded_BT_p0"/>
        <use fill="#999999" height="12.0" transform="matrix(0.2344, 0.0, 0.0, 0.2344, 92.15, 12.0)" width="127.7" xlink:href="#font_VAGRounded_BT_o0"/>
        <use fill="#999999" height="12.0" transform="matrix(0.2344, 0.0, 0.0, 0.2344, 99.1, 12.0)" width="127.7" xlink:href="#font_VAGRounded_BT_n0"/>
        <use fill="#999999" height="12.0" transform="matrix(0.2344, 0.0, 0.0, 0.2344, 106.15, 12.0)" width="127.7" xlink:href="#font_VAGRounded_BT_s0"/>
        <use fill="#999999" height="12.0" transform="matrix(0.2344, 0.0, 0.0, 0.2344, 111.35, 12.0)" width="127.7" xlink:href="#font_VAGRounded_BT_e0"/>
        <use fill="#999999" height="12.0" transform="matrix(0.2344, 0.0, 0.0, 0.2344, 118.05, 12.0)" width="127.7" xlink:href="#font_VAGRounded_BT__2"/>
      </g>
    </g>
    <g id="font_VAGRounded_BT_w0">
      <path d="M31.3 -24.15 L27.05 -9.1 23.35 -23.6 Q22.9 -25.4 21.85 -26.35 20.8 -27.35 19.25 -27.35 17.9 -27.35 16.9 -26.4 15.95 -25.45 15.55 -23.7 L12.1 -8.9 7.85 -23.65 Q7.25 -25.65 6.25 -26.6 5.25 -27.6 3.7 -27.6 2.05 -27.6 0.95 -26.45 -0.2 -25.3 -0.2 -23.6 L-0.05 -22.6 0.25 -21.4 6.65 -3.5 Q7.5 -1.2 8.6 -0.25 9.7 0.7 11.55 0.7 13.25 0.7 14.5 -0.35 15.7 -1.4 16.15 -3.25 L19.25 -16.35 22.6 -3.5 Q23.15 -1.45 24.4 -0.4 25.65 0.7 27.45 0.7 29.15 0.7 30.25 -0.2 31.3 -1.1 32.05 -3.25 L38.25 -20.9 38.75 -22.5 38.85 -23.55 Q38.85 -25.3 37.85 -26.4 36.8 -27.5 35.1 -27.5 33.7 -27.5 32.75 -26.6 31.75 -25.75 31.3 -24.15" fill-rule="evenodd" stroke="none"/>
    </g>
    <g id="font_VAGRounded_BT_a0">
      <path d="M9.55 -13.7 L9.55 -13.7 Q9.55 -16.6 11.0 -18.35 12.45 -20.15 14.75 -20.15 17.0 -20.15 18.5 -18.35 19.95 -16.55 19.95 -13.7 19.95 -10.8 18.5 -8.95 17.05 -7.1 14.75 -7.1 12.45 -7.1 11.0 -8.9 9.55 -10.75 9.55 -13.7 M20.2 -2.45 L20.2 -2.45 Q20.85 -1.0 21.75 -0.3 22.7 0.35 24.05 0.35 26.05 0.35 27.05 -1.1 28.0 -2.55 28.0 -5.5 L28.0 -21.75 Q28.0 -24.75 27.05 -26.15 26.05 -27.6 24.05 -27.6 22.85 -27.6 21.85 -26.95 20.9 -26.3 20.2 -25.0 18.95 -26.5 17.4 -27.2 15.8 -27.9 13.75 -27.9 8.5 -27.9 4.85 -23.75 1.2 -19.65 1.2 -13.6 1.2 -7.5 4.75 -3.45 8.25 0.65 13.45 0.65 15.5 0.65 17.25 -0.15 18.95 -0.95 20.2 -2.45" fill-rule="evenodd" stroke="none"/>
    </g>
    <g id="font_VAGRounded_BT_i0">
      <path d="M11.05 -5.5 L11.05 -21.75 Q11.05 -24.7 10.1 -26.15 9.1 -27.6 7.1 -27.6 5.0 -27.6 4.05 -26.15 3.05 -24.7 3.05 -21.75 L3.05 -5.5 Q3.05 -2.55 4.05 -1.1 5.05 0.35 7.1 0.35 9.1 0.35 10.1 -1.05 11.05 -2.5 11.05 -5.5 M2.4 -34.4 L2.4 -34.4 Q2.4 -32.45 3.75 -31.1 5.1 -29.75 7.1 -29.75 9.0 -29.75 10.35 -31.1 11.7 -32.45 11.7 -34.4 11.7 -36.3 10.35 -37.7 9.0 -39.05 7.1 -39.05 5.15 -39.05 3.8 -37.7 2.4 -36.3 2.4 -34.4" fill-rule="evenodd" stroke="none"/>
    </g>
    <g id="font_VAGRounded_BT_t0">
      <path d="M4.4 -19.8 L4.4 -5.5 Q4.4 -2.55 5.4 -1.1 6.4 0.35 8.45 0.35 10.5 0.35 11.5 -1.05 12.45 -2.5 12.45 -5.5 L12.45 -19.8 13.1 -19.8 Q15.65 -19.8 16.95 -20.7 18.25 -21.55 18.25 -23.3 18.25 -24.95 16.9 -25.9 15.55 -26.85 13.15 -26.85 L12.45 -26.85 12.45 -30.4 Q12.45 -33.4 11.5 -34.85 10.5 -36.3 8.45 -36.3 6.4 -36.3 5.4 -34.85 4.4 -33.4 4.4 -30.4 L4.4 -26.85 Q2.0 -26.75 0.8 -25.85 -0.45 -24.95 -0.45 -23.3 -0.45 -21.7 0.8 -20.75 2.0 -19.8 4.1 -19.8 L4.4 -19.8" fill-rule="evenodd" stroke="none"/>
    </g>
    <g id="font_VAGRounded_BT_n0">
      <path d="M2.8 -5.5 L2.8 -5.5 Q2.8 -2.55 3.8 -1.1 4.75 0.35 6.8 0.35 8.85 0.35 9.85 -1.1 10.85 -2.55 10.85 -5.5 L10.85 -14.75 Q10.85 -17.9 11.9 -19.4 12.95 -20.9 15.15 -20.9 17.5 -20.9 18.5 -19.45 19.5 -18.0 19.5 -14.65 L19.5 -5.5 Q19.5 -2.55 20.5 -1.1 21.5 0.35 23.55 0.35 25.6 0.35 26.6 -1.1 27.6 -2.55 27.6 -5.5 L27.6 -17.1 Q27.6 -22.3 25.1 -25.0 22.55 -27.75 17.8 -27.75 L13.65 -27.1 Q11.95 -26.45 10.65 -25.0 L9.0 -26.95 Q8.05 -27.6 6.8 -27.6 4.75 -27.6 3.8 -26.15 2.8 -24.7 2.8 -21.75 L2.8 -5.5" fill-rule="evenodd" stroke="none"/>
    </g>
    <g id="font_VAGRounded_BT_g0">
      <path d="M9.55 -13.6 L9.55 -13.6 Q9.55 -16.55 11.0 -18.35 12.5 -20.2 14.8 -20.2 17.15 -20.2 18.65 -18.35 20.15 -16.55 20.15 -13.6 20.15 -10.6 18.65 -8.7 17.15 -6.85 14.8 -6.85 12.5 -6.85 11.0 -8.7 9.55 -10.6 9.55 -13.6 M20.2 -3.35 L20.2 -3.35 20.2 -2.85 20.25 -2.4 Q20.25 0.85 18.6 2.65 16.95 4.4 13.95 4.4 11.55 4.4 8.8 3.35 6.0 2.25 5.3 2.25 3.8 2.25 2.8 3.25 1.8 4.25 1.8 5.8 1.8 8.35 5.1 10.0 8.4 11.7 13.65 11.7 17.9 11.7 21.05 10.15 24.15 8.6 25.9 5.65 26.95 4.0 27.4 1.5 27.8 -1.05 27.8 -5.5 L27.8 -21.75 Q27.8 -24.7 26.85 -26.15 25.85 -27.6 23.75 -27.6 22.75 -27.6 21.8 -26.9 20.85 -26.2 20.2 -25.0 18.95 -26.5 17.4 -27.2 15.8 -27.9 13.75 -27.9 8.5 -27.9 4.85 -23.75 1.2 -19.65 1.2 -13.6 1.2 -7.65 4.6 -3.6 7.95 0.4 12.85 0.4 15.2 0.4 17.05 -0.5 18.85 -1.45 20.2 -3.35" fill-rule="evenodd" stroke="none"/>
    </g>
    <g id="font_VAGRounded_BT_f0">
      <path d="M12.6 -26.85 L12.6 -28.65 Q12.6 -30.55 12.95 -31.0 13.25 -31.5 14.4 -31.7 16.45 -32.0 17.25 -32.75 18.1 -33.55 18.1 -35.0 18.1 -36.9 16.65 -37.95 15.25 -39.05 12.75 -39.05 8.7 -39.05 6.55 -36.25 4.35 -33.45 4.35 -28.25 L4.4 -27.55 4.4 -26.85 Q2.0 -26.75 0.8 -25.85 -0.45 -24.95 -0.45 -23.3 -0.45 -21.7 0.8 -20.75 2.0 -19.8 4.1 -19.8 L4.4 -19.8 4.4 -5.5 Q4.4 -2.55 5.4 -1.1 6.4 0.35 8.45 0.35 10.55 0.35 11.6 -1.1 12.6 -2.55 12.6 -5.5 L12.6 -19.8 13.8 -19.8 Q16.3 -19.8 17.6 -20.7 18.9 -21.55 18.9 -23.3 18.9 -24.95 17.55 -25.9 16.2 -26.85 13.8 -26.85 L12.6 -26.85" fill-rule="evenodd" stroke="none"/>
    </g>
    <g id="font_VAGRounded_BT_o0">
      <path d="M1.2 -13.6 L1.2 -13.6 Q1.2 -7.3 5.05 -3.25 8.9 0.85 14.85 0.85 20.85 0.85 24.65 -3.2 28.5 -7.3 28.5 -13.6 28.5 -19.95 24.65 -24.0 20.85 -28.05 14.85 -28.05 8.9 -28.05 5.05 -23.95 1.2 -19.9 1.2 -13.6 M9.55 -13.7 L9.55 -13.7 Q9.55 -16.7 11.05 -18.6 12.5 -20.45 14.85 -20.45 17.15 -20.45 18.7 -18.55 20.2 -16.7 20.2 -13.7 20.2 -10.65 18.7 -8.75 17.25 -6.85 14.85 -6.85 12.5 -6.85 11.0 -8.7 9.55 -10.6 9.55 -13.7" fill-rule="evenodd" stroke="none"/>
    </g>
    <g id="font_VAGRounded_BT_r0">
      <path d="M2.8 -5.5 L2.8 -5.5 Q2.8 -2.55 3.8 -1.1 4.75 0.35 6.8 0.35 8.85 0.35 9.85 -1.1 10.85 -2.55 10.85 -5.5 L10.85 -13.9 Q10.85 -16.25 11.35 -17.1 11.85 -18.0 13.4 -18.75 L15.8 -19.7 Q20.25 -21.3 20.25 -23.75 20.25 -25.35 19.05 -26.55 17.8 -27.75 16.15 -27.75 14.7 -27.75 13.3 -27.05 11.9 -26.35 10.65 -25.0 L9.0 -26.95 Q8.05 -27.6 6.8 -27.6 4.75 -27.6 3.8 -26.15 2.8 -24.7 2.8 -21.75 L2.8 -5.5" fill-rule="evenodd" stroke="none"/>
    </g>
    <g id="font_VAGRounded_BT_e0">
      <path d="M9.5 -11.35 L23.9 -11.35 Q26.25 -11.35 27.1 -12.1 27.9 -12.8 27.9 -14.65 27.9 -20.25 24.15 -24.1 20.35 -28.0 14.75 -28.0 8.95 -28.0 5.1 -23.85 1.2 -19.75 1.2 -13.55 1.2 -7.4 5.2 -3.35 9.2 0.75 15.15 0.75 20.05 0.75 23.7 -1.35 27.3 -3.45 27.3 -6.05 27.3 -7.4 26.4 -8.3 25.5 -9.15 24.1 -9.15 23.45 -9.15 20.65 -7.85 17.85 -6.55 15.6 -6.55 12.95 -6.55 11.35 -7.8 9.75 -9.1 9.5 -11.35 M9.4 -16.65 L9.4 -16.65 Q9.8 -18.85 11.3 -20.15 12.75 -21.45 14.8 -21.45 16.9 -21.45 18.4 -20.05 19.9 -18.7 20.05 -16.65 L9.4 -16.65" fill-rule="evenodd" stroke="none"/>
    </g>
    <g id="font_VAGRounded_BT_s0">
      <path d="M10.5 0.8 L10.5 0.8 Q15.25 0.8 18.35 -1.85 21.4 -4.5 21.4 -8.45 21.4 -11.0 19.9 -12.8 18.35 -14.65 14.7 -16.25 L12.35 -17.25 Q9.15 -18.45 9.15 -19.6 9.15 -20.2 9.65 -20.6 10.15 -21.0 10.95 -21.0 12.1 -21.0 14.35 -20.0 16.55 -19.05 17.45 -19.05 18.85 -19.05 19.85 -20.0 20.8 -21.0 20.8 -22.4 20.8 -24.7 18.05 -26.35 15.3 -28.05 11.35 -28.05 6.95 -28.05 4.1 -25.55 1.25 -23.05 1.25 -19.35 1.25 -16.55 2.85 -14.75 4.5 -12.95 8.95 -11.1 L9.45 -10.9 Q13.3 -9.35 13.3 -8.15 13.3 -7.45 12.7 -6.95 12.05 -6.5 11.05 -6.5 9.8 -6.5 7.35 -7.65 4.85 -8.85 3.6 -8.85 2.3 -8.85 1.4 -7.8 0.5 -6.75 0.5 -5.2 0.5 -2.65 3.35 -0.95 6.2 0.8 10.5 0.8" fill-rule="evenodd" stroke="none"/>
    </g>
    <g id="font_VAGRounded_BT_p0">
      <path d="M10.85 5.4 L10.85 -1.45 Q12.25 -0.3 13.85 0.3 15.4 0.9 17.2 0.9 22.35 0.9 26.0 -3.35 29.6 -7.55 29.6 -13.6 29.6 -19.7 26.05 -23.75 22.5 -27.8 17.3 -27.8 15.3 -27.8 13.6 -27.1 11.9 -26.4 10.65 -25.0 L9.0 -26.95 Q8.05 -27.6 6.8 -27.6 4.75 -27.6 3.8 -26.15 2.8 -24.7 2.8 -21.75 L2.8 5.4 Q2.8 8.4 3.8 9.85 4.75 11.3 6.8 11.3 8.85 11.3 9.85 9.85 10.85 8.4 10.85 5.4 M10.7 -13.5 L10.7 -13.5 Q10.7 -16.5 12.2 -18.4 13.7 -20.25 16.05 -20.25 18.35 -20.25 19.85 -18.35 21.35 -16.5 21.35 -13.5 21.35 -10.45 19.9 -8.55 18.4 -6.65 16.05 -6.65 13.65 -6.65 12.2 -8.5 10.7 -10.4 10.7 -13.5" fill-rule="evenodd" stroke="none"/>
    </g>
    <g id="shape2" transform="matrix(1.0, 0.0, 0.0, 1.0, -368.35, 0.9)">
      <path d="M397.55 1.8 L397.65 2.05 397.7 2.1 397.75 2.2 397.8 2.35 397.85 2.4 397.85 2.45 397.95 2.45 397.95 2.55 398.05 3.15 398.15 3.35 398.2 3.55 398.2 3.75 398.2 4.2 398.35 6.1 398.3 6.65 398.25 6.75 397.95 7.55 397.75 7.6 397.75 7.8 397.65 7.85 397.35 8.05 397.2 8.2 392.85 8.05 392.2 7.8 392.0 7.6 391.9 7.55 391.9 8.05 Q391.75 11.15 389.5 13.55 L389.35 13.85 Q387.8 15.7 385.4 16.5 L385.1 16.65 380.65 16.8 379.75 16.8 Q376.45 15.55 374.1 13.0 373.0 11.8 372.8 10.35 L372.4 10.4 372.3 10.1 372.75 9.9 Q372.65 9.1 372.85 8.25 L372.9 8.05 372.9 8.0 372.45 8.05 370.9 8.15 370.75 8.05 370.0 7.8 369.0 6.9 368.95 6.85 368.8 6.65 368.75 6.6 368.5 5.95 368.4 5.6 368.4 5.2 368.35 4.65 368.5 4.4 368.6 4.25 368.6 4.1 369.05 3.55 369.65 3.1 369.75 2.9 370.0 2.8 370.75 2.6 370.8 2.6 370.95 2.6 Q373.05 2.85 374.65 4.45 376.35 1.7 379.0 0.05 L377.75 -0.05 377.6 -0.15 377.6 -0.35 377.7 -0.45 377.85 -0.5 377.9 -0.55 Q382.65 -1.6 386.8 0.45 388.75 1.45 390.2 3.1 L390.55 3.25 390.75 3.45 390.8 3.5 391.3 2.8 Q392.1 1.8 393.15 0.95 L393.2 0.95 393.4 0.9 393.4 0.8 Q395.7 0.25 397.35 1.6 L397.55 1.8 M369.9 3.35 L369.85 3.35 369.9 3.35" fill="#e7e7e7" fill-rule="evenodd" stroke="none"/>
    </g>
  </defs>
</svg>
