<?xml version="1.0" encoding="UTF-8" standalone="no"?>
<svg xmlns:ffdec="https://www.free-decompiler.com/flash" xmlns:xlink="http://www.w3.org/1999/xlink" ffdec:objectType="frame" height="328.05px" width="592.4px" xmlns="http://www.w3.org/2000/svg">
  <g transform="matrix(1.0, 0.0, 0.0, 1.0, 127.6, 137.0)">
    <use ffdec:characterId="434" height="131.0" transform="matrix(1.0, 0.0, 0.0, 1.0, -104.8, -121.1)" width="216.0" xlink:href="#shape0"/>
    <use ffdec:characterId="435" height="23.6" id="txtName" transform="matrix(1.0, 0.0, 0.0, 1.0, -127.6, -72.3)" width="265.6" xlink:href="#text0"/>
    <use ffdec:characterId="4" height="54.5" transform="matrix(0.3409, 0.0, 0.0, 0.3409, -88.3, -101.85)" width="92.3" xlink:href="#shape1"/>
    <use ffdec:characterId="11" height="9.05" transform="matrix(0.2632, -0.0194, 0.0194, 0.2632, -78.5627, -87.7145)" width="34.15" xlink:href="#sprite0"/>
    <use ffdec:characterId="17" height="21.6" transform="matrix(0.3061, -0.0226, 0.0226, 0.3061, -80.7708, -98.3828)" width="39.4" xlink:href="#sprite1"/>
    <use ffdec:characterId="4" height="54.5" transform="matrix(0.3409, 0.0, 0.0, 0.3409, 63.7, -101.85)" width="92.3" xlink:href="#shape1"/>
    <use ffdec:characterId="11" height="9.05" transform="matrix(0.2632, -0.0194, 0.0194, 0.2632, 73.4373, -87.7145)" width="34.15" xlink:href="#sprite0"/>
    <use ffdec:characterId="17" height="21.6" transform="matrix(0.3061, -0.0226, 0.0226, 0.3061, 71.2292, -98.3828)" width="39.4" xlink:href="#sprite1"/>
    <use ffdec:characterId="438" height="26.85" transform="matrix(1.0, 0.0, 0.0, 1.0, -38.85, -106.3)" width="92.25" xlink:href="#text1"/>
    <use ffdec:characterId="439" height="36.65" transform="matrix(1.0, 0.0, 0.0, 1.0, -49.5, -33.2)" width="103.0" xlink:href="#button0"/>
  </g>
  <defs>
    <g id="shape0" transform="matrix(1.0, 0.0, 0.0, 1.0, 104.8, 121.1)">
      <path d="M93.25 4.9 L97.0 4.9 Q101.15 4.9 104.1 1.95 107.0 -0.95 107.0 -5.1 L107.0 -106.1 Q107.0 -110.25 104.1 -113.2 102.3 -114.95 100.1 -115.65 L97.0 -116.1 93.2 -116.1 96.1 -115.65 Q98.3 -114.95 100.1 -113.2 103.0 -110.25 103.0 -106.1 L103.0 -5.1 Q103.0 -0.95 100.1 1.95 97.25 4.8 93.25 4.9 L93.25 4.85 92.25 4.9 93.25 4.9 M102.95 -120.95 Q106.0 -120.45 108.25 -118.2 111.2 -115.25 111.2 -111.1 L111.2 -0.1 Q111.2 4.05 108.25 6.95 105.35 9.9 101.2 9.9 L-94.8 9.9 Q-98.95 9.9 -101.9 6.95 -104.8 4.05 -104.8 -0.1 L-104.8 -111.1 Q-104.8 -115.25 -101.9 -118.2 -100.1 -119.95 -97.85 -120.65 L-94.8 -121.1 101.2 -121.1 102.95 -120.95 M-100.8 -106.1 L-100.8 -5.1 Q-100.8 -0.95 -97.9 1.95 -94.95 4.9 -90.8 4.9 L-87.05 4.9 Q-91.05 4.8 -93.9 1.95 -96.8 -0.95 -96.8 -5.1 L-96.8 -106.1 Q-96.8 -110.25 -93.9 -113.2 -92.1 -114.95 -89.85 -115.65 L-87.0 -116.1 -90.8 -116.1 -93.85 -115.65 Q-96.1 -114.95 -97.9 -113.2 -100.8 -110.25 -100.8 -106.1" fill="#ffffff" fill-rule="evenodd" stroke="none"/>
      <path d="M93.25 4.9 Q97.25 4.8 100.1 1.95 103.0 -0.95 103.0 -5.1 L103.0 -106.1 Q103.0 -110.25 100.1 -113.2 98.3 -114.95 96.1 -115.65 L93.2 -116.1 97.0 -116.1 100.1 -115.65 Q102.3 -114.95 104.1 -113.2 107.0 -110.25 107.0 -106.1 L107.0 -5.1 Q107.0 -0.95 104.1 1.95 101.15 4.9 97.0 4.9 L93.25 4.9 M-100.8 -106.1 Q-100.8 -110.25 -97.9 -113.2 -96.1 -114.95 -93.85 -115.65 L-90.8 -116.1 -87.0 -116.1 -89.85 -115.65 Q-92.1 -114.95 -93.9 -113.2 -96.8 -110.25 -96.8 -106.1 L-96.8 -5.1 Q-96.8 -0.95 -93.9 1.95 -91.05 4.8 -87.05 4.9 L-90.8 4.9 Q-94.95 4.9 -97.9 1.95 -100.8 -0.95 -100.8 -5.1 L-100.8 -106.1" fill="#66cc00" fill-rule="evenodd" stroke="none"/>
    </g>
    <g id="text0" transform="matrix(1.0, 0.0, 0.0, 1.0, -102.25, 2.0)">
      <g transform="matrix(1.0, 0.0, 0.0, 1.0, 102.25, -2.0)">
        <use fill="#000000" height="23.6" transform="matrix(0.3125, 0.0, 0.0, 0.3125, 107.0, 10.85)" width="265.6" xlink:href="#font_VAGRounded_BT_n0"/>
        <use fill="#000000" height="23.6" transform="matrix(0.3125, 0.0, 0.0, 0.3125, 116.4, 10.85)" width="265.6" xlink:href="#font_VAGRounded_BT_o0"/>
      </g>
      <g transform="matrix(1.0, 0.0, 0.0, 1.0, 102.25, -2.0)">
        <use fill="#000000" height="23.6" transform="matrix(0.3125, 0.0, 0.0, 0.3125, 130.9, 10.85)" width="265.6" xlink:href="#font_VAGRounded_BT_o0"/>
        <use fill="#000000" height="23.6" transform="matrix(0.3125, 0.0, 0.0, 0.3125, 140.2, 10.85)" width="265.6" xlink:href="#font_VAGRounded_BT_n0"/>
        <use fill="#000000" height="23.6" transform="matrix(0.3125, 0.0, 0.0, 0.3125, 149.6, 10.85)" width="265.6" xlink:href="#font_VAGRounded_BT_e0"/>
      </g>
    </g>
    <g id="font_VAGRounded_BT_n0">
      <path d="M2.8 -5.5 L2.8 -5.5 Q2.8 -2.55 3.8 -1.1 4.75 0.35 6.8 0.35 8.85 0.35 9.85 -1.1 10.85 -2.55 10.85 -5.5 L10.85 -14.75 Q10.85 -17.9 11.9 -19.4 12.95 -20.9 15.15 -20.9 17.5 -20.9 18.5 -19.45 19.5 -18.0 19.5 -14.65 L19.5 -5.5 Q19.5 -2.55 20.5 -1.1 21.5 0.35 23.55 0.35 25.6 0.35 26.6 -1.1 27.6 -2.55 27.6 -5.5 L27.6 -17.1 Q27.6 -22.3 25.1 -25.0 22.55 -27.75 17.8 -27.75 L13.65 -27.1 Q11.95 -26.45 10.65 -25.0 L9.0 -26.95 Q8.05 -27.6 6.8 -27.6 4.75 -27.6 3.8 -26.15 2.8 -24.7 2.8 -21.75 L2.8 -5.5" fill-rule="evenodd" stroke="none"/>
    </g>
    <g id="font_VAGRounded_BT_o0">
      <path d="M1.2 -13.6 L1.2 -13.6 Q1.2 -7.3 5.05 -3.25 8.9 0.85 14.85 0.85 20.85 0.85 24.65 -3.2 28.5 -7.3 28.5 -13.6 28.5 -19.95 24.65 -24.0 20.85 -28.05 14.85 -28.05 8.9 -28.05 5.05 -23.95 1.2 -19.9 1.2 -13.6 M9.55 -13.7 L9.55 -13.7 Q9.55 -16.7 11.05 -18.6 12.5 -20.45 14.85 -20.45 17.15 -20.45 18.7 -18.55 20.2 -16.7 20.2 -13.7 20.2 -10.65 18.7 -8.75 17.25 -6.85 14.85 -6.85 12.5 -6.85 11.0 -8.7 9.55 -10.6 9.55 -13.7" fill-rule="evenodd" stroke="none"/>
    </g>
    <g id="font_VAGRounded_BT_e0">
      <path d="M9.5 -11.35 L23.9 -11.35 Q26.25 -11.35 27.1 -12.1 27.9 -12.8 27.9 -14.65 27.9 -20.25 24.15 -24.1 20.35 -28.0 14.75 -28.0 8.95 -28.0 5.1 -23.85 1.2 -19.75 1.2 -13.55 1.2 -7.4 5.2 -3.35 9.2 0.75 15.15 0.75 20.05 0.75 23.7 -1.35 27.3 -3.45 27.3 -6.05 27.3 -7.4 26.4 -8.3 25.5 -9.15 24.1 -9.15 23.45 -9.15 20.65 -7.85 17.85 -6.55 15.6 -6.55 12.95 -6.55 11.35 -7.8 9.75 -9.1 9.5 -11.35 M9.4 -16.65 L9.4 -16.65 Q9.8 -18.85 11.3 -20.15 12.75 -21.45 14.8 -21.45 16.9 -21.45 18.4 -20.05 19.9 -18.7 20.05 -16.65 L9.4 -16.65" fill-rule="evenodd" stroke="none"/>
    </g>
    <g id="shape1" transform="matrix(1.0, 0.0, 0.0, 1.0, 0.0, 0.0)">
      <path d="M73.2 23.15 L73.7 23.85 74.1 24.4 76.3 25.1 76.4 25.15 79.25 26.4 80.95 26.85 85.05 26.55 Q86.5 25.95 88.05 25.5 L88.5 25.3 Q88.85 24.6 89.45 24.15 L89.8 23.85 90.05 23.45 90.45 21.95 90.4 21.65 89.8 14.7 89.75 14.4 89.4 13.8 89.25 13.15 89.15 13.0 88.55 12.45 88.1 11.9 88.05 11.45 86.6 9.15 86.1 8.55 86.0 8.4 85.7 8.25 85.55 8.1 85.55 8.05 85.15 7.9 83.85 7.65 Q80.5 7.4 77.1 7.65 76.2 8.9 74.9 9.8 72.0 11.8 70.7 15.1 L70.55 15.25 70.5 15.25 70.4 15.3 70.4 15.4 70.45 16.2 70.9 17.25 71.9 20.65 72.95 22.8 73.2 23.15 M89.75 8.3 L89.8 8.35 90.15 9.1 90.15 9.2 90.4 9.5 90.5 9.6 90.6 9.95 90.65 10.2 90.8 10.3 91.0 10.45 91.05 10.6 Q91.05 11.5 91.35 12.4 L91.55 13.15 91.75 13.75 91.9 14.35 91.8 14.4 91.9 15.7 92.3 21.5 92.1 23.2 91.95 23.5 91.0 25.95 90.5 26.3 90.4 26.8 90.1 26.95 89.2 27.6 88.75 28.0 Q82.1 30.15 75.3 27.6 L73.3 26.75 72.7 26.25 72.4 25.95 72.35 27.6 Q71.9 37.1 65.1 44.45 L64.6 45.45 Q59.8 51.15 52.45 53.5 L51.45 54.0 37.7 54.5 35.0 54.45 Q24.8 50.6 17.6 42.75 14.25 39.15 13.55 34.7 L12.3 34.75 12.15 33.85 13.4 33.3 Q13.2 30.8 13.8 28.05 L13.85 27.6 13.9 27.4 12.6 27.6 7.75 27.8 7.35 27.6 5.1 26.75 Q3.25 25.7 1.9 24.1 L1.85 23.9 1.3 23.35 1.25 23.1 Q0.65 22.25 0.45 21.2 L0.2 20.0 0.15 18.8 0.0 17.05 0.45 16.4 0.7 15.85 0.8 15.4 2.05 13.7 3.95 12.35 4.3 11.8 5.05 11.5 7.3 10.9 7.4 10.85 7.85 10.8 Q14.35 11.5 19.3 16.55 24.5 8.05 32.75 3.0 L28.85 2.65 28.4 2.35 28.45 1.8 28.8 1.4 29.25 1.2 29.3 1.1 Q43.95 -2.2 56.6 4.2 62.6 7.3 67.15 12.3 L68.15 12.8 69.0 13.3 69.1 13.5 Q69.8 12.45 70.65 11.45 73.05 8.35 76.2 5.8 L76.4 5.65 76.95 5.45 76.95 5.35 Q84.1 3.5 89.15 7.8 L89.75 8.3 M67.9 37.0 L68.2 36.3 70.5 25.15 70.5 24.9 70.55 24.7 70.5 24.3 70.45 23.1 Q70.2 20.35 68.95 17.95 L68.9 17.95 68.75 17.15 68.15 16.15 Q67.0 14.1 65.05 12.85 L64.85 12.45 Q60.85 8.95 56.35 5.95 L56.0 5.55 53.8 4.9 Q45.85 0.9 36.8 2.9 29.5 6.55 24.5 12.75 21.95 15.85 20.0 19.55 L19.05 21.25 18.8 21.7 15.8 26.15 15.75 27.6 15.65 32.0 15.6 32.45 Q17.9 31.7 20.65 31.3 L32.1 29.25 33.65 28.75 42.55 28.15 43.0 28.05 45.25 28.0 45.4 28.0 45.5 28.05 48.15 28.35 48.6 28.45 49.0 28.4 50.3 28.4 50.4 28.5 50.45 28.5 Q52.2 28.4 53.75 29.05 L54.05 29.2 58.0 29.65 Q65.0 30.25 68.3 35.3 L68.1 35.5 67.35 35.7 66.2 35.85 Q65.0 34.65 63.55 33.95 57.05 30.7 49.55 30.85 L49.4 30.7 45.4 30.15 44.3 30.25 42.4 30.35 38.15 30.75 34.2 31.15 31.7 31.55 Q23.65 32.65 15.7 34.35 L15.8 36.65 Q17.25 40.65 20.55 43.2 21.85 44.85 23.7 46.15 L24.1 46.45 24.1 46.5 24.3 46.6 26.95 48.35 27.05 48.4 27.2 48.6 27.6 49.15 Q31.65 50.45 35.35 52.3 L35.6 52.45 Q43.25 53.8 51.1 51.9 L60.25 47.55 Q62.55 46.35 63.15 44.1 L63.65 43.05 63.7 42.95 Q66.25 40.15 67.9 37.0 M41.35 34.4 Q40.55 34.65 40.2 34.05 L40.1 33.75 40.05 33.7 39.7 33.4 Q39.5 32.7 39.95 32.15 40.1 31.9 40.45 31.8 L40.85 31.7 41.5 31.6 Q41.8 31.6 42.05 31.85 42.4 32.15 42.4 32.65 42.5 33.9 41.35 34.4 M16.95 20.65 L17.8 19.2 18.05 18.75 17.85 18.05 17.4 17.6 16.9 17.15 Q14.6 15.05 11.6 14.05 L11.35 13.75 11.3 13.7 9.75 13.45 6.35 13.75 6.2 13.8 Q4.0 14.7 3.1 16.75 L2.95 17.1 2.3 18.15 2.05 18.45 2.1 19.05 2.2 20.2 2.25 21.35 2.55 21.85 5.5 24.7 5.65 25.0 8.0 25.25 8.4 25.25 14.35 24.9 15.6 22.95 16.95 20.65 M4.55 13.1 L4.65 13.0 4.55 13.0 4.55 13.1 M34.85 33.4 Q34.9 32.7 35.55 32.3 L35.65 32.3 35.8 32.25 Q36.9 32.0 37.05 33.05 37.15 33.6 36.75 34.0 35.85 34.9 35.0 33.85 L34.85 33.4" fill="#000000" fill-rule="evenodd" stroke="none"/>
      <path d="M70.7 15.1 Q72.0 11.8 74.9 9.8 76.2 8.9 77.1 7.65 80.5 7.4 83.85 7.65 L85.15 7.9 85.55 8.05 85.55 8.1 85.7 8.25 86.0 8.4 86.1 8.55 86.6 9.15 88.05 11.45 88.1 11.9 88.55 12.45 89.15 13.0 89.25 13.15 89.4 13.8 89.75 14.4 89.8 14.7 90.4 21.65 90.45 21.95 90.05 23.45 89.8 23.85 89.45 24.15 Q88.85 24.6 88.5 25.3 L88.05 25.5 Q86.5 25.95 85.05 26.55 L80.95 26.85 79.25 26.4 76.4 25.15 76.3 25.1 74.1 24.4 73.7 23.85 73.2 23.15 Q76.75 23.95 80.15 21.8 L80.8 21.5 Q81.0 20.8 81.75 20.45 L82.4 19.6 Q82.55 19.1 83.0 18.9 L83.25 18.65 83.3 18.1 Q83.55 17.05 82.95 16.3 L82.6 15.7 82.4 15.5 81.5 14.75 81.2 14.4 80.85 14.3 Q79.95 13.9 79.25 13.3 75.9 12.7 73.25 14.95 L73.1 15.05 73.05 15.2 73.0 15.4 72.85 15.45 Q72.15 15.8 71.65 16.35 L71.4 16.55 71.35 16.7 71.25 17.0 71.1 17.1 70.9 17.25 70.45 16.2 70.4 15.4 70.4 15.3 70.5 15.25 70.55 15.25 Q70.6 15.15 70.7 15.15 L70.7 15.1 M85.05 15.85 L85.3 16.3 84.85 15.25 84.95 15.55 85.05 15.85 M19.05 21.25 L20.0 19.55 Q21.95 15.85 24.5 12.75 29.5 6.55 36.8 2.9 45.85 0.9 53.8 4.9 L56.0 5.55 56.35 5.95 Q60.85 8.95 64.85 12.45 L65.05 12.85 Q67.0 14.1 68.15 16.15 L68.75 17.15 68.9 17.95 68.95 17.95 Q70.2 20.35 70.45 23.1 L70.5 24.3 70.55 24.7 70.5 24.9 70.5 25.15 68.2 36.3 67.9 37.0 67.8 36.7 67.35 35.7 68.1 35.5 68.3 35.3 Q65.0 30.25 58.0 29.65 L54.05 29.2 53.75 29.05 Q52.2 28.4 50.45 28.5 L50.4 28.5 50.3 28.4 49.0 28.4 48.6 28.45 48.15 28.35 45.5 28.05 45.4 28.0 45.25 28.0 43.0 28.05 42.55 28.15 33.65 28.75 32.1 29.25 20.65 31.3 Q17.9 31.7 15.6 32.45 L15.65 32.0 15.75 27.6 15.8 26.15 18.8 21.7 19.05 21.35 19.05 21.25 M15.6 22.95 L14.35 24.9 8.4 25.25 8.0 25.25 5.65 25.0 5.5 24.7 2.55 21.85 2.25 21.35 2.2 20.2 2.1 19.05 2.05 18.45 2.3 18.15 2.95 17.1 3.1 16.75 Q4.0 14.7 6.2 13.8 L6.35 13.75 9.75 13.45 11.3 13.7 11.35 13.75 11.6 14.05 Q14.6 15.05 16.9 17.15 L17.4 17.6 17.85 18.05 18.05 18.75 17.8 19.2 16.95 20.65 15.7 19.05 Q14.3 17.4 12.3 16.55 9.05 16.1 7.05 18.3 L7.0 18.65 Q6.75 18.95 6.65 19.45 L6.5 19.65 6.4 19.8 6.4 20.4 6.4 20.5 7.05 22.25 Q7.95 22.6 8.55 23.35 10.55 24.65 12.95 23.8 L15.05 23.1 15.6 22.95" fill="#95632d" fill-rule="evenodd" stroke="none"/>
      <path d="M70.9 17.25 L71.1 17.1 71.25 17.0 71.35 16.7 71.4 16.55 71.65 16.35 Q72.15 15.8 72.85 15.45 L73.0 15.4 73.05 15.2 73.1 15.05 73.25 14.95 Q75.9 12.7 79.25 13.3 79.95 13.9 80.85 14.3 L81.2 14.4 81.5 14.75 82.4 15.5 82.6 15.7 82.95 16.3 Q83.55 17.05 83.3 18.1 L83.25 18.65 83.0 18.9 Q82.55 19.1 82.4 19.6 L81.75 20.45 Q81.0 20.8 80.8 21.5 L80.15 21.8 Q76.75 23.95 73.2 23.15 L72.95 22.8 71.9 20.65 70.9 17.25 M85.05 15.85 L84.95 15.55 84.85 15.25 85.3 16.3 85.05 15.85 M19.05 21.25 L19.05 21.35 18.8 21.7 19.05 21.25 M67.35 35.7 L67.8 36.7 67.9 37.0 Q66.25 40.15 63.7 42.95 L63.65 43.05 63.15 44.1 Q62.55 46.35 60.25 47.55 L51.1 51.9 Q43.25 53.8 35.6 52.45 L35.35 52.3 Q31.65 50.45 27.6 49.15 L27.2 48.6 27.05 48.4 26.95 48.35 24.3 46.6 24.1 46.5 24.1 46.45 23.7 46.15 Q21.85 44.85 20.55 43.2 17.25 40.65 15.8 36.65 L15.7 34.35 Q23.65 32.65 31.7 31.55 L34.2 31.15 38.15 30.75 42.4 30.35 44.3 30.25 45.4 30.15 49.4 30.7 49.55 30.85 Q57.05 30.7 63.55 33.95 65.0 34.65 66.2 35.85 L67.35 35.7 M41.35 34.4 Q42.5 33.9 42.4 32.65 42.4 32.15 42.05 31.85 41.8 31.6 41.5 31.6 L40.85 31.7 40.45 31.8 Q40.1 31.9 39.95 32.15 39.5 32.7 39.7 33.4 L40.05 33.7 40.1 33.75 40.2 34.05 Q40.55 34.65 41.35 34.4 M15.6 22.95 L15.05 23.1 12.95 23.8 Q10.55 24.65 8.55 23.35 7.95 22.6 7.05 22.25 L6.4 20.5 6.4 20.4 6.4 19.8 6.5 19.65 6.65 19.45 Q6.75 18.95 7.0 18.65 L7.05 18.3 Q9.05 16.1 12.3 16.55 14.3 17.4 15.7 19.05 L16.95 20.65 15.6 22.95 M34.85 33.4 L35.0 33.85 Q35.85 34.9 36.75 34.0 37.15 33.6 37.05 33.05 36.9 32.0 35.8 32.25 L35.65 32.3 35.55 32.3 Q34.9 32.7 34.85 33.4" fill="#d79e4a" fill-rule="evenodd" stroke="none"/>
    </g>
    <g id="sprite0" transform="matrix(1.0, 0.0, 0.0, 1.0, 16.2, 5.05)">
      <use ffdec:characterId="5" height="4.5" transform="matrix(1.0, 0.0, 0.0, 1.0, -7.65, -2.25)" width="15.3" xlink:href="#shape2"/>
    </g>
    <g id="shape2" transform="matrix(1.0, 0.0, 0.0, 1.0, 7.65, 2.25)">
      <path d="M7.6 -0.15 L7.6 0.5 Q0.1 3.55 -7.65 1.25 L-7.5 0.6 -6.9 -0.25 -6.15 -1.0 Q-1.9 -0.55 0.6 -2.25 L3.85 -1.55 7.1 -1.0 7.6 -0.15" fill="#000000" fill-rule="evenodd" stroke="none"/>
    </g>
    <g id="sprite1" transform="matrix(1.0, 0.0, 0.0, 1.0, 23.5, 12.3)">
      <use ffdec:characterId="12" height="17.25" transform="matrix(1.0, 0.0, 0.0, 1.0, -21.25, -10.1)" width="34.95" xlink:href="#shape3"/>
      <use ffdec:characterId="14" height="7.8" transform="matrix(1.0, 0.0, 0.0, 1.0, -16.85, -2.6)" width="25.55" xlink:href="#sprite2"/>
      <use ffdec:characterId="15" height="21.6" transform="matrix(1.0, 0.0, 0.0, 1.0, -23.5, -12.3)" width="39.4" xlink:href="#shape5"/>
    </g>
    <g id="shape3" transform="matrix(1.0, 0.0, 0.0, 1.0, 21.25, 10.1)">
      <path d="M5.7 -3.5 L6.05 -3.65 Q8.4 -4.15 10.45 -3.25 14.2 -1.65 13.65 2.6 13.55 3.45 13.05 4.05 L13.0 4.05 Q12.15 5.5 9.65 5.75 4.25 6.25 1.75 1.95 L1.6 1.85 1.5 1.45 1.45 1.4 1.4 0.8 1.4 -0.35 Q1.6 -1.85 3.15 -2.45 L5.7 -3.5" fill="#ffffff" fill-rule="evenodd" stroke="none"/>
      <path d="M-20.35 -6.45 L-19.75 -7.25 Q-16.65 -9.65 -12.7 -9.9 -7.05 -10.85 -3.5 -6.9 -0.55 -3.6 -1.1 0.95 -1.35 3.2 -3.25 4.65 -5.15 6.2 -7.5 6.7 L-12.95 7.15 -14.6 6.7 Q-15.35 6.3 -16.15 6.0 -17.95 5.4 -18.85 3.85 -20.95 2.45 -21.2 -0.1 -21.5 -3.5 -20.35 -6.45" fill="#ffffff" fill-rule="evenodd" stroke="none"/>
    </g>
    <g id="sprite2" transform="matrix(1.0, 0.0, 0.0, 1.0, 2.75, 0.0)">
      <use ffdec:characterId="13" height="5.35" transform="matrix(1.0, 0.0, 0.0, 1.0, 0.0, 0.0)" width="22.8" xlink:href="#shape4"/>
    </g>
    <g id="shape4" transform="matrix(1.0, 0.0, 0.0, 1.0, 2.75, -2.45)">
      <path d="M20.05 6.1 Q20.1 6.9 19.55 7.35 L18.6 7.8 18.5 7.8 17.9 7.65 17.35 7.5 16.75 6.95 Q16.25 6.45 16.35 5.8 L16.4 5.75 16.5 5.45 17.2 4.75 17.55 4.7 Q18.9 4.3 19.7 5.2 20.05 5.55 20.05 6.1" fill="#000000" fill-rule="evenodd" stroke="none"/>
      <path d="M1.1 3.95 Q1.3 5.05 0.7 5.9 0.5 6.25 0.0 6.3 -2.4 6.65 -2.7 4.4 -2.9 3.0 -1.65 2.55 -0.55 2.3 0.25 2.8 0.9 3.25 1.1 3.95" fill="#000000" fill-rule="evenodd" stroke="none"/>
    </g>
    <g id="shape5" transform="matrix(1.0, 0.0, 0.0, 1.0, 23.5, 12.3)">
      <path d="M1.4 -3.5 L1.95 -3.95 Q3.6 -5.2 5.4 -5.65 L5.45 -5.75 10.95 -5.5 11.45 -4.7 11.5 -4.6 11.9 -4.5 11.95 -4.5 12.1 -4.4 12.9 -3.85 Q15.7 -1.75 15.9 1.25 L15.65 2.75 15.55 3.1 12.35 6.85 Q11.8 6.95 11.35 7.3 L8.15 7.3 3.75 6.35 2.35 5.85 2.05 5.65 -0.15 2.7 -0.2 2.05 -0.25 0.25 -0.1 -1.4 -0.05 -1.75 1.1 -3.5 1.4 -3.5 M3.15 -2.45 Q1.6 -1.85 1.4 -0.35 L1.4 0.8 1.45 1.4 1.5 1.45 1.6 1.85 1.75 1.95 Q4.25 6.25 9.65 5.75 12.15 5.5 13.0 4.05 L13.05 4.05 Q13.55 3.45 13.65 2.6 14.2 -1.65 10.45 -3.25 8.4 -4.15 6.05 -3.65 L5.7 -3.5 3.15 -2.45" fill="#000000" fill-rule="evenodd" stroke="none"/>
      <path d="M0.85 -1.4 L0.85 1.3 0.9 1.5 Q0.15 3.1 -0.35 4.8 L-1.85 6.1 -2.9 7.0 Q-5.4 8.6 -8.3 9.25 L-8.35 9.3 -17.8 8.0 -18.55 7.25 -21.55 4.25 -22.3 3.5 -22.3 2.95 Q-23.65 1.2 -23.5 -1.2 L-23.15 -4.4 -22.75 -6.1 -22.3 -6.6 -22.3 -7.0 -21.2 -8.55 -19.65 -9.75 Q-16.8 -11.35 -14.05 -12.25 -4.75 -13.0 -0.3 -5.45 -0.2 -4.75 0.35 -4.0 L0.85 -1.4 M-20.35 -6.45 Q-21.5 -3.5 -21.2 -0.1 -20.95 2.45 -18.85 3.85 -17.95 5.4 -16.15 6.0 -15.35 6.3 -14.6 6.7 L-12.95 7.15 -7.5 6.7 Q-5.15 6.2 -3.25 4.65 -1.35 3.2 -1.1 0.95 -0.55 -3.6 -3.5 -6.9 -7.05 -10.85 -12.7 -9.9 -16.65 -9.65 -19.75 -7.25 L-20.35 -6.45" fill="#000000" fill-rule="evenodd" stroke="none"/>
    </g>
    <g id="text1" transform="matrix(1.0, 0.0, 0.0, 1.0, -84.05, -3.6)">
      <g transform="matrix(1.0, 0.0, 0.0, 1.0, 83.6, 0.0)">
        <use fill="#66cc00" height="26.85" transform="matrix(0.2734, 0.0, 0.0, 0.2734, 9.0, 14.0)" width="92.25" xlink:href="#font_VAGRounded_BT_Y0"/>
        <use fill="#66cc00" height="26.85" transform="matrix(0.2734, 0.0, 0.0, 0.2734, 16.25, 14.0)" width="92.25" xlink:href="#font_VAGRounded_BT_O0"/>
        <use fill="#66cc00" height="26.85" transform="matrix(0.2734, 0.0, 0.0, 0.2734, 26.8, 14.0)" width="92.25" xlink:href="#font_VAGRounded_BT_U0"/>
        <use fill="#66cc00" height="26.85" transform="matrix(0.2734, 0.0, 0.0, 0.2734, 41.65, 14.0)" width="92.25" xlink:href="#font_VAGRounded_BT_H0"/>
        <use fill="#66cc00" height="26.85" transform="matrix(0.2734, 0.0, 0.0, 0.2734, 52.1, 14.0)" width="92.25" xlink:href="#font_VAGRounded_BT_A0"/>
        <use fill="#66cc00" height="26.85" transform="matrix(0.2734, 0.0, 0.0, 0.2734, 60.85, 14.0)" width="92.25" xlink:href="#font_VAGRounded_BT_V0"/>
        <use fill="#66cc00" height="26.85" transform="matrix(0.2734, 0.0, 0.0, 0.2734, 68.9, 14.0)" width="92.25" xlink:href="#font_VAGRounded_BT_E0"/>
      </g>
      <g transform="matrix(1.0, 0.0, 0.0, 1.0, 83.6, 0.0)">
        <use fill="#66cc00" height="26.85" transform="matrix(0.2734, 0.0, 0.0, 0.2734, 0.0, 28.0)" width="92.25" xlink:href="#font_VAGRounded_BT_C0"/>
        <use fill="#66cc00" height="26.85" transform="matrix(0.2734, 0.0, 0.0, 0.2734, 8.45, 28.0)" width="92.25" xlink:href="#font_VAGRounded_BT_H0"/>
        <use fill="#66cc00" height="26.85" transform="matrix(0.2734, 0.0, 0.0, 0.2734, 18.9, 28.0)" width="92.25" xlink:href="#font_VAGRounded_BT_A0"/>
        <use fill="#66cc00" height="26.85" transform="matrix(0.2734, 0.0, 0.0, 0.2734, 27.65, 28.0)" width="92.25" xlink:href="#font_VAGRounded_BT_L0"/>
        <use fill="#66cc00" height="26.85" transform="matrix(0.2734, 0.0, 0.0, 0.2734, 34.1, 28.0)" width="92.25" xlink:href="#font_VAGRounded_BT_L0"/>
        <use fill="#66cc00" height="26.85" transform="matrix(0.2734, 0.0, 0.0, 0.2734, 40.55, 28.0)" width="92.25" xlink:href="#font_VAGRounded_BT_E0"/>
        <use fill="#66cc00" height="26.85" transform="matrix(0.2734, 0.0, 0.0, 0.2734, 47.6, 28.0)" width="92.25" xlink:href="#font_VAGRounded_BT_N0"/>
        <use fill="#66cc00" height="26.85" transform="matrix(0.2734, 0.0, 0.0, 0.2734, 58.05, 28.0)" width="92.25" xlink:href="#font_VAGRounded_BT_G0"/>
        <use fill="#66cc00" height="26.85" transform="matrix(0.2734, 0.0, 0.0, 0.2734, 68.15, 28.0)" width="92.25" xlink:href="#font_VAGRounded_BT_E0"/>
        <use fill="#66cc00" height="26.85" transform="matrix(0.2734, 0.0, 0.0, 0.2734, 75.2, 28.0)" width="92.25" xlink:href="#font_VAGRounded_BT_D0"/>
      </g>
    </g>
    <g id="font_VAGRounded_BT_Y0">
      <path d="M19.8 -33.8 L13.5 -24.8 7.3 -33.7 5.1 -36.1 Q4.05 -36.85 3.05 -36.85 1.35 -36.85 0.2 -35.8 -0.95 -34.7 -0.95 -33.2 -0.95 -31.6 0.85 -29.1 L0.9 -29.0 9.3 -17.15 9.3 -5.4 Q9.3 -2.45 10.3 -1.0 11.35 0.45 13.45 0.45 15.5 0.45 16.55 -1.0 17.55 -2.45 17.55 -5.4 L17.55 -17.15 25.95 -29.1 26.15 -29.35 Q27.85 -31.75 27.85 -33.3 27.85 -34.65 26.75 -35.8 25.6 -36.9 24.25 -36.9 23.15 -36.9 22.0 -36.1 20.85 -35.3 19.8 -33.8" fill-rule="evenodd" stroke="none"/>
    </g>
    <g id="font_VAGRounded_BT_O0">
      <path d="M1.45 -18.15 L1.45 -18.15 Q1.45 -9.5 6.35 -4.2 11.25 1.1 19.3 1.1 27.35 1.1 32.3 -4.2 37.25 -9.5 37.25 -18.15 37.25 -26.75 32.3 -32.1 27.35 -37.4 19.3 -37.4 11.3 -37.4 6.4 -32.1 1.45 -26.8 1.45 -18.15 M10.45 -18.05 L10.45 -18.05 Q10.45 -23.35 12.85 -26.45 15.25 -29.55 19.3 -29.55 23.35 -29.55 25.75 -26.45 28.15 -23.35 28.15 -18.05 28.15 -12.95 25.75 -9.9 23.3 -6.85 19.3 -6.85 15.3 -6.85 12.9 -9.9 10.45 -12.95 10.45 -18.05" fill-rule="evenodd" stroke="none"/>
    </g>
    <g id="font_VAGRounded_BT_U0">
      <path d="M3.25 -15.6 L3.25 -15.6 Q3.25 -7.7 7.35 -3.3 11.5 1.1 18.85 1.1 26.2 1.1 30.35 -3.3 34.45 -7.7 34.45 -15.6 L34.45 -30.95 Q34.45 -33.95 33.45 -35.4 32.4 -36.85 30.3 -36.85 28.25 -36.85 27.2 -35.4 26.2 -33.95 26.2 -30.95 L26.2 -16.55 Q26.2 -11.7 24.35 -9.25 22.5 -6.85 18.85 -6.85 15.2 -6.85 13.4 -9.25 11.55 -11.7 11.55 -16.55 L11.55 -30.95 Q11.55 -33.95 10.5 -35.4 9.5 -36.85 7.4 -36.85 5.3 -36.85 4.25 -35.4 3.25 -33.95 3.25 -30.95 L3.25 -15.6" fill-rule="evenodd" stroke="none"/>
    </g>
    <g id="font_VAGRounded_BT_H0">
      <path d="M11.55 -14.7 L26.8 -14.7 26.8 -5.4 Q26.8 -2.45 27.8 -1.0 28.85 0.45 30.95 0.45 33.05 0.45 34.05 -1.0 35.1 -2.45 35.1 -5.4 L35.1 -30.95 Q35.1 -33.95 34.05 -35.4 33.05 -36.85 30.95 -36.85 28.85 -36.85 27.8 -35.4 26.8 -33.95 26.8 -30.95 L26.8 -22.35 11.55 -22.35 11.55 -30.95 Q11.55 -33.95 10.5 -35.4 9.5 -36.85 7.4 -36.85 5.3 -36.85 4.25 -35.4 3.25 -33.95 3.25 -30.95 L3.25 -5.4 Q3.25 -2.45 4.25 -1.0 5.3 0.45 7.4 0.45 9.5 0.45 10.5 -1.0 11.55 -2.45 11.55 -5.4 L11.55 -14.7" fill-rule="evenodd" stroke="none"/>
    </g>
    <g id="font_VAGRounded_BT_A0">
      <path d="M11.55 -14.5 L16.05 -28.0 20.25 -14.5 11.55 -14.5 M9.2 -6.85 L22.65 -6.85 23.65 -3.45 Q24.3 -1.4 25.35 -0.4 26.4 0.6 28.0 0.6 29.8 0.6 30.95 -0.5 32.1 -1.6 32.1 -3.3 L32.0 -4.45 31.55 -5.95 22.35 -32.1 Q21.5 -34.45 19.95 -35.65 18.35 -36.9 16.25 -36.9 14.0 -36.9 12.45 -35.6 10.9 -34.3 9.9 -31.55 L0.4 -5.8 0.1 -4.7 0.0 -3.4 Q0.0 -1.7 1.15 -0.55 2.25 0.6 3.95 0.6 5.3 0.6 6.35 -0.35 7.35 -1.35 7.95 -3.15 L9.2 -6.85" fill-rule="evenodd" stroke="none"/>
    </g>
    <g id="font_VAGRounded_BT_V0">
      <path d="M10.9 -2.4 L10.9 -2.4 Q11.6 -0.7 12.55 0.0 13.45 0.75 14.85 0.75 16.4 0.75 17.35 -0.05 18.35 -0.85 19.05 -2.7 L29.8 -30.05 30.25 -31.45 30.35 -32.9 Q30.35 -34.7 29.3 -35.7 28.2 -36.75 26.35 -36.75 24.8 -36.75 23.9 -35.9 22.95 -35.05 22.25 -32.85 L15.1 -12.5 7.45 -33.15 Q6.7 -35.1 5.85 -35.9 5.0 -36.75 3.65 -36.75 1.8 -36.75 0.55 -35.55 -0.65 -34.4 -0.65 -32.6 L-0.55 -31.35 -0.2 -30.25 10.9 -2.4" fill-rule="evenodd" stroke="none"/>
    </g>
    <g id="font_VAGRounded_BT_E0">
      <path d="M18.3 -36.4 L8.95 -36.4 Q5.8 -36.4 4.5 -35.15 3.25 -33.9 3.25 -30.55 L3.25 -5.2 Q3.25 -2.2 4.45 -1.1 5.65 0.0 8.85 0.0 L18.55 0.0 Q21.55 0.0 23.0 -0.95 24.45 -1.9 24.45 -3.85 24.45 -5.75 23.0 -6.7 21.55 -7.65 18.55 -7.65 L11.55 -7.65 11.55 -14.5 17.35 -14.5 Q20.35 -14.5 21.8 -15.4 23.25 -16.35 23.25 -18.3 23.25 -20.25 21.8 -21.2 20.35 -22.15 17.35 -22.15 L11.55 -22.15 11.55 -28.65 18.3 -28.65 Q21.25 -28.65 22.75 -29.6 24.2 -30.55 24.2 -32.5 24.2 -34.45 22.7 -35.4 21.25 -36.4 18.3 -36.4" fill-rule="evenodd" stroke="none"/>
    </g>
    <g id="font_VAGRounded_BT_C0">
      <path d="M19.25 1.1 L19.25 1.1 Q24.1 1.1 27.45 -0.75 30.75 -2.65 30.75 -5.2 30.75 -6.65 29.7 -7.75 28.7 -8.85 27.4 -8.85 26.6 -8.85 24.1 -7.9 21.6 -6.95 19.65 -6.95 15.45 -6.95 12.95 -9.9 10.45 -12.9 10.45 -17.95 10.45 -23.15 12.9 -26.2 15.35 -29.25 19.4 -29.25 L23.5 -28.55 26.75 -27.85 Q28.15 -27.85 29.2 -28.95 30.25 -30.1 30.25 -31.6 30.25 -33.9 27.1 -35.65 23.95 -37.4 19.35 -37.4 11.6 -37.4 6.5 -32.0 1.45 -26.65 1.45 -18.15 1.45 -9.5 6.35 -4.2 11.25 1.1 19.25 1.1" fill-rule="evenodd" stroke="none"/>
    </g>
    <g id="font_VAGRounded_BT_L0">
      <path d="M3.25 -30.95 L3.25 -5.2 Q3.25 -2.2 4.45 -1.1 5.65 0.0 8.85 0.0 L18.55 0.0 Q21.55 0.0 23.0 -0.95 24.45 -1.9 24.45 -3.85 24.45 -5.75 23.0 -6.7 21.55 -7.65 18.55 -7.65 L11.55 -7.65 11.55 -30.95 Q11.55 -33.95 10.5 -35.4 9.5 -36.85 7.4 -36.85 5.3 -36.85 4.25 -35.4 3.25 -33.95 3.25 -30.95" fill-rule="evenodd" stroke="none"/>
    </g>
    <g id="font_VAGRounded_BT_N0">
      <path d="M11.55 -5.4 L11.55 -22.15 26.55 -2.35 Q27.75 -0.75 28.85 -0.05 30.0 0.7 31.3 0.7 33.25 0.7 34.15 -0.55 35.1 -1.85 35.1 -4.5 L35.1 -30.95 Q35.1 -33.95 34.05 -35.4 33.05 -36.85 30.95 -36.85 28.85 -36.85 27.8 -35.4 26.8 -33.95 26.8 -30.95 L26.8 -13.9 11.5 -34.15 9.35 -36.2 Q8.35 -36.8 7.1 -36.8 5.15 -36.8 4.2 -35.45 3.25 -34.05 3.25 -31.25 L3.25 -5.4 Q3.25 -2.45 4.25 -1.0 5.3 0.45 7.4 0.45 9.5 0.45 10.5 -1.0 11.55 -2.45 11.55 -5.4" fill-rule="evenodd" stroke="none"/>
    </g>
    <g id="font_VAGRounded_BT_G0">
      <path d="M26.9 -14.15 L26.9 -14.15 Q26.8 -10.8 24.8 -8.8 22.8 -6.85 19.5 -6.85 15.35 -6.85 12.9 -9.95 10.4 -13.1 10.4 -18.35 10.4 -23.55 12.9 -26.55 15.35 -29.55 19.55 -29.55 22.4 -29.55 25.6 -27.75 28.8 -26.0 29.7 -26.0 31.15 -26.0 32.2 -27.15 33.25 -28.35 33.25 -29.9 33.25 -32.85 29.35 -35.15 25.4 -37.45 19.85 -37.45 11.4 -37.45 6.45 -32.25 1.45 -27.05 1.45 -18.2 1.45 -9.65 6.3 -4.3 11.2 1.1 18.85 1.1 26.5 1.1 31.2 -3.75 35.85 -8.6 35.85 -16.35 35.85 -19.3 34.5 -20.6 33.15 -21.9 30.05 -21.9 L23.95 -21.9 Q21.0 -21.9 19.55 -20.95 18.15 -20.0 18.15 -18.0 18.15 -16.05 19.55 -15.1 20.95 -14.15 23.95 -14.15 L26.9 -14.15" fill-rule="evenodd" stroke="none"/>
    </g>
    <g id="font_VAGRounded_BT_D0">
      <path d="M15.65 -36.4 L8.95 -36.4 Q5.8 -36.4 4.5 -35.15 3.25 -33.9 3.25 -30.55 L3.25 -5.2 Q3.25 -2.2 4.45 -1.1 5.65 0.0 8.85 0.0 L16.45 0.0 Q24.7 0.0 29.45 -5.0 34.2 -10.0 34.2 -18.55 34.2 -23.4 32.15 -27.45 30.1 -31.55 26.5 -33.85 24.45 -35.15 21.8 -35.75 L15.65 -36.4 M11.55 -7.65 L11.55 -28.65 15.15 -28.65 Q20.2 -28.65 22.7 -26.15 25.2 -23.65 25.2 -18.6 25.2 -13.1 22.75 -10.4 20.3 -7.65 15.3 -7.65 L11.55 -7.65" fill-rule="evenodd" stroke="none"/>
    </g>
    <g id="button0" transform="matrix(1.0, 0.0, 0.0, 1.0, 47.6, 19.3)">
      <use ffdec:characterId="424" height="36.65" transform="matrix(1.0, 0.0, 0.0, 1.0, -47.6, -19.3)" width="103.0" xlink:href="#shape6"/>
      <use ffdec:characterId="425" height="30.0" transform="matrix(1.0, 0.0, 0.0, 1.0, -41.6, -18.5)" width="91.0" xlink:href="#shape7"/>
      <use ffdec:characterId="426" height="12.55" transform="matrix(1.0, 0.0, 0.0, 1.0, -31.6, -8.95)" width="78.0" xlink:href="#text2"/>
    </g>
    <g id="shape6" transform="matrix(1.0, 0.0, 0.0, 1.0, 47.6, 19.3)">
      <path d="M-45.6 5.15 L-45.6 -8.9 Q-45.6 -12.85 -42.7 -15.6 -39.75 -18.35 -35.6 -18.35 L43.4 -18.35 Q47.55 -18.35 50.45 -15.6 53.4 -12.85 53.4 -8.9 L53.4 5.15 51.4 5.15 51.4 4.9 51.4 -8.45 51.3 -8.45 Q50.85 -11.45 48.45 -13.7 45.55 -16.45 41.4 -16.45 L-33.6 -16.45 Q-37.75 -16.45 -40.7 -13.7 -43.05 -11.45 -43.5 -8.45 L-43.6 -8.45 -43.6 4.9 -43.6 5.15 -43.55 5.7 -43.6 5.7 -43.6 6.0 -43.55 6.0 Q-43.25 9.3 -40.7 11.7 -37.75 14.5 -33.6 14.5 L41.4 14.5 Q45.55 14.5 48.45 11.7 51.05 9.3 51.35 6.0 L51.4 6.0 51.4 5.7 51.4 5.15 53.4 5.15 53.4 6.95 Q53.4 10.85 50.45 13.6 47.55 16.35 43.4 16.4 L-35.6 16.4 Q-39.75 16.35 -42.7 13.6 -45.6 10.85 -45.6 6.95 L-45.6 5.15 -43.6 5.15 -45.6 5.15" fill="#01317e" fill-opacity="0.08235294" fill-rule="evenodd" stroke="none"/>
      <path d="M53.4 5.15 L53.4 -8.9 Q53.4 -12.85 50.45 -15.6 47.55 -18.35 43.4 -18.35 L-35.6 -18.35 Q-39.75 -18.35 -42.7 -15.6 -45.6 -12.85 -45.6 -8.9 L-45.6 5.15 -47.6 5.15 -47.6 -9.85 Q-47.6 -13.8 -44.7 -16.55 -41.75 -19.3 -37.6 -19.3 L45.4 -19.3 Q49.55 -19.3 52.45 -16.55 55.4 -13.8 55.4 -9.85 L55.4 5.15 53.4 5.15 55.4 5.15 55.4 7.9 Q55.4 11.8 52.45 14.55 49.55 17.3 45.4 17.35 L-37.6 17.35 Q-41.75 17.3 -44.7 14.55 -47.6 11.8 -47.6 7.9 L-47.6 5.15 -45.6 5.15 -45.6 6.95 Q-45.6 10.85 -42.7 13.6 -39.75 16.35 -35.6 16.4 L43.4 16.4 Q47.55 16.35 50.45 13.6 53.4 10.85 53.4 6.95 L53.4 5.15" fill="#01317e" fill-opacity="0.03137255" fill-rule="evenodd" stroke="none"/>
      <path d="M-43.6 5.15 L-43.6 4.9 -43.6 -8.45 -43.5 -8.45 Q-43.05 -11.45 -40.7 -13.7 -37.75 -16.45 -33.6 -16.45 L41.4 -16.45 Q45.55 -16.45 48.45 -13.7 50.85 -11.45 51.3 -8.45 L51.4 -8.45 51.4 4.9 51.4 5.15 51.4 5.7 51.4 6.0 51.35 6.0 Q51.05 9.3 48.45 11.7 45.55 14.5 41.4 14.5 L-33.6 14.5 Q-37.75 14.5 -40.7 11.7 -43.25 9.3 -43.55 6.0 L-43.6 6.0 -43.6 5.7 -43.55 5.7 -43.6 5.15 51.4 5.15 -43.6 5.15" fill="#01317e" fill-opacity="0.18039216" fill-rule="evenodd" stroke="none"/>
    </g>
    <g id="shape7" transform="matrix(1.0, 0.0, 0.0, 1.0, 41.6, 18.5)">
      <path d="M48.75 5.15 Q48.0 7.0 46.45 8.55 43.55 11.5 39.4 11.5 L-31.6 11.5 Q-35.75 11.5 -38.7 8.55 -40.25 7.0 -40.95 5.15 L48.75 5.15 -40.95 5.15 Q-41.6 1.8 -41.6 -2.05 L-41.6 -8.5 Q-41.6 -12.65 -38.7 -15.6 -35.75 -18.5 -31.6 -18.5 L39.4 -18.5 Q43.55 -18.5 46.45 -15.6 49.4 -12.65 49.4 -8.5 L49.4 -2.05 Q49.4 1.8 48.75 5.15" fill="#ffffff" fill-rule="evenodd" stroke="none"/>
    </g>
    <g id="text2" transform="matrix(1.0, 0.0, 0.0, 1.0, -0.9, -3.75)">
      <g transform="matrix(1.0, 0.0, 0.0, 1.0, 0.0, 0.0)">
        <use fill="#999999" height="12.55" transform="matrix(0.2734, 0.0, 0.0, 0.2734, 0.0, 14.0)" width="78.0" xlink:href="#font_VAGRounded_BT_R0"/>
        <use fill="#999999" height="12.55" transform="matrix(0.2734, 0.0, 0.0, 0.2734, 8.35, 14.0)" width="78.0" xlink:href="#font_VAGRounded_BT_U0"/>
        <use fill="#999999" height="12.55" transform="matrix(0.2734, 0.0, 0.0, 0.2734, 18.65, 14.0)" width="78.0" xlink:href="#font_VAGRounded_BT_N0"/>
        <use fill="#999999" height="12.55" transform="matrix(0.2734, 0.0, 0.0, 0.2734, 33.65, 14.0)" width="78.0" xlink:href="#font_VAGRounded_BT_A0"/>
        <use fill="#999999" height="12.55" transform="matrix(0.2734, 0.0, 0.0, 0.2734, 42.4, 14.0)" width="78.0" xlink:href="#font_VAGRounded_BT_W0"/>
        <use fill="#999999" height="12.55" transform="matrix(0.2734, 0.0, 0.0, 0.2734, 55.2, 14.0)" width="78.0" xlink:href="#font_VAGRounded_BT_A0"/>
        <use fill="#999999" height="12.55" transform="matrix(0.2734, 0.0, 0.0, 0.2734, 63.95, 14.0)" width="78.0" xlink:href="#font_VAGRounded_BT_Y0"/>
      </g>
    </g>
    <g id="font_VAGRounded_BT_R0">
      <path d="M11.55 -19.9 L11.55 -28.75 15.45 -28.75 Q17.95 -28.75 19.3 -27.6 20.65 -26.5 20.65 -24.4 20.65 -22.25 19.25 -21.1 17.9 -19.9 15.35 -19.9 L11.55 -19.9 M11.55 -14.35 L21.2 -2.25 Q22.55 -0.6 23.55 0.05 24.55 0.75 25.65 0.75 27.35 0.75 28.5 -0.4 29.6 -1.5 29.6 -3.15 29.6 -4.15 29.0 -5.35 L27.15 -7.9 20.6 -15.2 Q24.65 -15.9 27.0 -18.5 29.3 -21.1 29.3 -25.0 29.3 -30.25 25.6 -33.3 21.9 -36.4 15.4 -36.4 L8.95 -36.4 Q5.8 -36.4 4.5 -35.15 3.25 -33.9 3.25 -30.55 L3.25 -5.4 Q3.25 -2.45 4.25 -1.0 5.3 0.45 7.4 0.45 9.5 0.45 10.5 -1.0 11.55 -2.45 11.55 -5.4 L11.55 -14.35" fill-rule="evenodd" stroke="none"/>
    </g>
    <g id="font_VAGRounded_BT_W0">
      <path d="M18.2 -4.65 L23.3 -24.95 28.75 -4.2 Q29.35 -1.8 30.7 -0.65 32.0 0.45 34.25 0.45 36.75 0.45 37.95 -0.6 39.2 -1.7 40.0 -5.0 L46.35 -30.55 46.6 -31.8 46.65 -33.0 Q46.65 -34.7 45.5 -35.75 44.35 -36.85 42.55 -36.85 40.75 -36.85 39.8 -35.9 38.8 -34.9 38.35 -32.7 L34.0 -10.15 28.05 -33.25 Q27.6 -35.05 26.5 -35.95 25.35 -36.85 23.55 -36.85 21.75 -36.85 20.6 -36.0 19.4 -35.1 18.95 -33.35 L12.9 -10.15 8.55 -33.25 Q8.25 -35.0 7.2 -35.95 6.15 -36.9 4.55 -36.9 2.7 -36.9 1.55 -35.9 0.35 -34.85 0.35 -33.15 L0.4 -32.0 0.45 -31.35 6.5 -5.0 Q7.2 -2.05 8.5 -0.8 9.8 0.45 12.2 0.45 14.5 0.45 16.05 -0.85 17.55 -2.15 18.2 -4.65" fill-rule="evenodd" stroke="none"/>
    </g>
  </defs>
</svg>
