<?xml version="1.0" encoding="UTF-8" standalone="no"?>
<svg xmlns:ffdec="https://www.free-decompiler.com/flash" xmlns:xlink="http://www.w3.org/1999/xlink" ffdec:objectType="frame" height="20.0px" width="19.95px" xmlns="http://www.w3.org/2000/svg">
  <g transform="matrix(1.0, 0.0, 0.0, 1.0, 9.75, 10.0)">
    <use ffdec:characterId="285" height="20.0" transform="matrix(1.0, 0.0, 0.0, 1.0, -9.75, -10.0)" width="19.95" xlink:href="#shape0"/>
    <use ffdec:characterId="287" height="10.05" id="mcSliderDirection" transform="matrix(1.0, 0.0, 0.0, 1.0, -4.45, -4.9)" width="8.8" xlink:href="#sprite0"/>
    <use ffdec:characterId="288" height="13.1" transform="matrix(1.0, 0.0, 0.0, 1.0, -6.4, -6.55)" width="13.1" xlink:href="#shape2"/>
    <use ffdec:characterId="292" height="26.2" transform="matrix(0.5, 0.0, 0.0, 0.5, -6.4, -6.55)" width="26.25" xlink:href="#sprite1"/>
    <use ffdec:characterId="294" height="12.0" transform="matrix(1.25, 0.0, 0.0, 1.25, -7.2876, -7.5001)" width="11.95" xlink:href="#button0"/>
  </g>
  <defs>
    <g id="shape0" transform="matrix(1.0, 0.0, 0.0, 1.0, 9.75, 10.0)">
      <path d="M10.2 0.0 Q10.2 4.1 7.25 7.05 4.3 10.0 0.25 10.0 -3.95 10.0 -6.85 7.05 -9.8 4.1 -9.75 0.0 -9.8 -4.15 -6.85 -7.1 -3.95 -10.0 0.25 -10.0 4.3 -10.0 7.25 -7.1 10.2 -4.15 10.2 0.0" fill="#000000" fill-opacity="0.03137255" fill-rule="evenodd" stroke="none"/>
      <path d="M9.75 0.05 Q9.75 3.95 6.95 6.75 4.15 9.55 0.25 9.55 -3.75 9.55 -6.55 6.75 -9.3 3.95 -9.3 0.05 -9.3 -3.95 -6.55 -6.75 -3.75 -9.5 0.25 -9.5 4.15 -9.5 6.95 -6.75 9.75 -3.95 9.75 0.05" fill="#000000" fill-opacity="0.0627451" fill-rule="evenodd" stroke="none"/>
      <path d="M9.05 0.05 Q9.05 3.65 6.45 6.25 3.85 8.85 0.25 8.85 -3.45 8.85 -6.0 6.25 -8.6 3.65 -8.6 0.05 -8.6 -3.65 -6.0 -6.25 -3.45 -8.85 0.25 -8.8 3.85 -8.85 6.45 -6.25 9.05 -3.65 9.05 0.05" fill="#000000" fill-opacity="0.15294118" fill-rule="evenodd" stroke="none"/>
      <path d="M4.35 -5.0 L3.3 -5.75 Q1.9 -6.55 0.15 -6.55 -2.6 -6.55 -4.5 -4.65 -6.4 -2.75 -6.4 0.0 -6.4 2.0 -5.3 3.6 L-4.75 4.3 -4.85 4.2 -4.5 4.6 -4.45 4.6 -4.4 4.65 -4.2 4.9 -4.1 4.95 -3.6 5.35 -2.65 5.9 Q-1.35 6.55 0.2 6.55 2.9 6.55 4.8 4.65 6.7 2.75 6.75 0.05 6.75 -1.35 6.25 -2.5 L4.95 -4.4 5.15 -4.25 4.85 -4.55 4.8 -4.6 4.8 -4.65 4.5 -4.9 4.35 -5.0 M5.85 -5.7 Q8.2 -3.35 8.25 0.0 8.2 3.35 5.85 5.7 3.45 8.1 0.15 8.1 -3.2 8.1 -5.6 5.7 -7.95 3.35 -7.95 0.0 -7.95 -3.35 -5.6 -5.7 -3.2 -8.1 0.15 -8.05 3.45 -8.1 5.85 -5.7" fill="#000000" fill-rule="evenodd" stroke="none"/>
      <path d="M4.8 -4.6 Q6.7 -2.7 6.7 0.05 6.7 2.75 4.8 4.65 2.9 6.55 0.2 6.55 -2.55 6.55 -4.45 4.65 -6.35 2.75 -6.35 0.05 -6.35 -2.7 -4.45 -4.6 -2.55 -6.5 0.2 -6.5 2.9 -6.5 4.8 -4.6" fill="url(#gradient0)" fill-rule="evenodd" stroke="none"/>
    </g>
    <linearGradient gradientTransform="matrix(0.0055, 0.0057, -0.0057, 0.0055, 0.2, 0.05)" gradientUnits="userSpaceOnUse" id="gradient0" spreadMethod="pad" x1="-819.2" x2="819.2">
      <stop offset="0.0" stop-color="#68b4fd"/>
      <stop offset="1.0" stop-color="#0157ad"/>
    </linearGradient>
    <g id="sprite0" transform="matrix(1.0, 0.0, 0.0, 1.0, 4.4, 5.0)">
      <use ffdec:characterId="286" height="10.05" transform="matrix(1.0, 0.0, 0.0, 1.0, -4.4, -5.0)" width="8.8" xlink:href="#shape1"/>
    </g>
    <g id="shape1" transform="matrix(1.0, 0.0, 0.0, 1.0, 4.4, 5.0)">
      <path d="M-4.4 -0.6 L0.0 -5.0 4.4 -0.6 -4.4 -0.6 M-4.4 0.7 L4.4 0.7 0.0 5.05 -4.4 0.7" fill="#ffffff" fill-rule="evenodd" stroke="none"/>
    </g>
    <g id="shape2" transform="matrix(1.0, 0.0, 0.0, 1.0, 6.4, 6.55)">
      <path d="M5.15 -4.25 Q3.35 -5.8 0.9 -5.8 -1.8 -5.8 -3.7 -3.9 -5.6 -1.95 -5.6 0.75 -5.6 3.2 -4.1 4.95 L-4.5 4.6 Q-6.4 2.7 -6.4 0.0 -6.4 -2.75 -4.5 -4.65 -2.55 -6.55 0.15 -6.55 2.85 -6.55 4.75 -4.65 L5.15 -4.25" fill="#ffffff" fill-opacity="0.5019608" fill-rule="evenodd" stroke="none"/>
      <path d="M4.8 -4.6 Q6.7 -2.7 6.7 0.0 6.7 2.7 4.8 4.65 2.85 6.55 0.15 6.55 -2.6 6.55 -4.45 4.65 L-4.85 4.25 Q-3.05 5.75 -0.6 5.75 2.1 5.75 4.0 3.85 5.9 1.95 5.9 -0.75 5.9 -3.2 4.35 -5.0 L4.8 -4.6" fill="#003366" fill-opacity="0.2" fill-rule="evenodd" stroke="none"/>
    </g>
    <g id="sprite1" transform="matrix(1.0, 0.0, 0.0, 1.0, 0.0, 0.0)">
      <use ffdec:characterId="289" height="26.2" transform="matrix(1.0, 0.0, 0.0, 1.0, 0.0, 0.0)" width="26.25" xlink:href="#morphshape0"/>
    </g>
    <g id="morphshape0" transform="matrix(1.0, 0.0, 0.0, 1.0, 0.0, 0.0)">
      <path d="M0.0 13.05 Q0.0 17.1 2.2 20.3 L3.3 21.65 3.1 21.5 3.8 22.25 3.85 22.3 3.95 22.4 4.4 22.85 4.6 23.0 5.55 23.75 5.85 23.95 7.45 24.9 Q10.05 26.2 13.2 26.2 18.6 26.2 22.4 22.4 26.25 18.55 26.25 13.15 26.25 10.4 25.25 8.05 L22.7 4.3 23.05 4.6 22.45 3.95 22.4 3.9 22.35 3.8 21.75 3.3 21.5 3.05 19.4 1.6 Q16.55 -0.05 13.05 0.0 7.65 -0.05 3.8 3.8 0.0 7.6 0.0 13.05" fill="#ffffff" fill-opacity="0.03137255" fill-rule="evenodd" stroke="none"/>
      <path d="M0.0 13.05 Q0.0 7.6 3.8 3.8 7.65 -0.05 13.05 0.0 16.55 -0.05 19.4 1.6 L21.5 3.05 21.75 3.3 22.35 3.8 22.4 3.9 22.45 3.95 23.05 4.6 22.7 4.3 25.25 8.05 Q26.25 10.4 26.25 13.15 26.25 18.55 22.4 22.4 18.6 26.2 13.2 26.2 10.05 26.2 7.45 24.9 L5.85 23.95 5.55 23.75 4.6 23.0 4.4 22.85 3.95 22.4 3.85 22.3 3.8 22.25 3.1 21.5 3.3 21.65 2.2 20.3 Q0.0 17.1 0.0 13.05 Z" ffdec:has-small-stroke="true" ffdec:original-stroke-width="0.0" fill="none" stroke="#000000" stroke-linecap="round" stroke-linejoin="round" stroke-opacity="0.0" stroke-width="2.0"/>
    </g>
  </defs>
</svg>
