<?xml version="1.0" encoding="UTF-8" standalone="no"?>
<svg xmlns:ffdec="https://www.free-decompiler.com/flash" xmlns:xlink="http://www.w3.org/1999/xlink" ffdec:objectType="frame" height="10.05px" width="68.75px" xmlns="http://www.w3.org/2000/svg">
  <g transform="matrix(1.0, 0.0, 0.0, 1.0, -15.95, -4.75)">
    <use ffdec:characterId="62" height="10.05" transform="matrix(1.0, 0.0, 0.0, 1.0, 15.95, 4.75)" width="68.75" xlink:href="#text0"/>
  </g>
  <defs>
    <g id="text0" transform="matrix(1.0, 0.0, 0.0, 1.0, -38.3, -2.75)">
      <g transform="matrix(1.0, 0.0, 0.0, 1.0, 24.35, 0.0)">
        <use fill="#003366" height="10.05" transform="matrix(0.2148, 0.0, 0.0, 0.2148, 13.0, 11.0)" width="68.75" xlink:href="#font_TradeGothic_Bold_H0"/>
        <use fill="#003366" height="10.05" transform="matrix(0.2148, 0.0, 0.0, 0.2148, 19.7, 11.0)" width="68.75" xlink:href="#font_TradeGothic_Bold_a0"/>
        <use fill="#003366" height="10.05" transform="matrix(0.2148, 0.0, 0.0, 0.2148, 25.2, 11.0)" width="68.75" xlink:href="#font_TradeGothic_Bold_s0"/>
        <use fill="#003366" height="10.05" transform="matrix(0.2148, 0.0, 0.0, 0.2148, 33.15, 11.0)" width="68.75" xlink:href="#font_TradeGothic_Bold_a0"/>
        <use fill="#003366" height="10.05" transform="matrix(0.2148, 0.0, 0.0, 0.2148, 38.65, 11.0)" width="68.75" xlink:href="#font_TradeGothic_Bold_c0"/>
        <use fill="#003366" height="10.05" transform="matrix(0.2148, 0.0, 0.0, 0.2148, 44.15, 11.0)" width="68.75" xlink:href="#font_TradeGothic_Bold_c0"/>
        <use fill="#003366" height="10.05" transform="matrix(0.2148, 0.0, 0.0, 0.2148, 49.65, 11.0)" width="68.75" xlink:href="#font_TradeGothic_Bold_e0"/>
        <use fill="#003366" height="10.05" transform="matrix(0.2148, 0.0, 0.0, 0.2148, 55.15, 11.0)" width="68.75" xlink:href="#font_TradeGothic_Bold_p0"/>
        <use fill="#003366" height="10.05" transform="matrix(0.2148, 0.0, 0.0, 0.2148, 60.65, 11.0)" width="68.75" xlink:href="#font_TradeGothic_Bold_t0"/>
        <use fill="#003366" height="10.05" transform="matrix(0.2148, 0.0, 0.0, 0.2148, 63.7, 11.0)" width="68.75" xlink:href="#font_TradeGothic_Bold_e0"/>
        <use fill="#003366" height="10.05" transform="matrix(0.2148, 0.0, 0.0, 0.2148, 69.2, 11.0)" width="68.75" xlink:href="#font_TradeGothic_Bold_d0"/>
        <use fill="#003366" height="10.05" transform="matrix(0.2148, 0.0, 0.0, 0.2148, 74.7, 11.0)" width="68.75" xlink:href="#font_TradeGothic_Bold__1"/>
      </g>
    </g>
    <g id="font_TradeGothic_Bold_H0">
      <path d="M10.65 0.0 L3.6 0.0 3.6 -36.95 10.65 -36.95 10.65 -22.2 20.65 -22.2 20.65 -36.95 27.7 -36.95 27.7 0.0 20.65 0.0 20.65 -15.95 10.65 -15.95 10.65 0.0" fill-rule="evenodd" stroke="none"/>
    </g>
    <g id="font_TradeGothic_Bold_a0">
      <path d="M15.85 -6.85 L15.85 -13.65 12.15 -12.0 Q10.4 -11.1 9.25 -9.9 8.15 -8.7 8.1 -7.25 8.15 -5.85 8.9 -5.1 9.65 -4.3 11.0 -4.3 12.4 -4.3 13.55 -5.0 14.7 -5.7 15.85 -6.85 M8.9 -19.7 L2.45 -19.7 Q2.75 -22.75 4.2 -24.7 5.65 -26.6 7.95 -27.45 10.2 -28.35 12.8 -28.35 17.9 -28.25 20.1 -26.0 22.35 -23.7 22.3 -19.9 L22.3 -2.25 22.4 -1.1 22.65 0.0 16.2 0.0 16.0 -1.2 15.75 -2.7 Q14.3 -1.25 12.4 -0.4 10.5 0.5 8.05 0.5 5.1 0.5 3.4 -1.15 1.7 -2.8 1.65 -6.15 1.7 -9.35 3.55 -11.5 5.4 -13.65 8.6 -15.1 11.8 -16.6 15.85 -17.75 L15.85 -19.8 Q15.8 -21.55 14.85 -22.35 13.9 -23.15 12.5 -23.1 11.0 -23.1 10.0 -22.15 8.95 -21.2 8.9 -19.7" fill-rule="evenodd" stroke="none"/>
    </g>
    <g id="font_TradeGothic_Bold_s0">
      <path d="M20.7 -21.4 L15.4 -19.35 Q14.7 -21.25 13.55 -22.2 12.4 -23.1 10.9 -23.1 9.8 -23.1 9.05 -22.4 8.35 -21.7 8.3 -20.6 8.35 -19.35 9.6 -18.45 10.9 -17.55 12.75 -16.7 L16.45 -14.75 Q18.35 -13.65 19.6 -12.0 20.85 -10.4 20.9 -7.95 20.9 -5.15 19.7 -3.3 18.5 -1.4 16.45 -0.45 14.35 0.5 11.65 0.5 L7.9 0.0 Q6.05 -0.55 4.4 -2.25 2.7 -4.0 1.15 -7.4 L6.95 -9.0 Q7.35 -7.05 8.55 -5.9 9.7 -4.75 11.65 -4.7 13.1 -4.7 13.95 -5.35 14.75 -6.0 14.75 -7.15 14.7 -8.75 13.45 -9.7 12.2 -10.7 10.35 -11.5 8.45 -12.3 6.6 -13.35 4.75 -14.4 3.5 -16.1 2.2 -17.8 2.15 -20.55 2.2 -23.2 3.45 -24.9 4.65 -26.65 6.65 -27.5 8.65 -28.35 10.95 -28.35 14.6 -28.3 17.05 -26.45 19.5 -24.55 20.7 -21.4" fill-rule="evenodd" stroke="none"/>
    </g>
    <g id="font_TradeGothic_Bold_c0">
      <path d="M23.0 -18.2 L16.6 -18.2 16.6 -19.45 Q16.6 -21.05 15.55 -21.9 14.55 -22.7 12.8 -22.7 11.1 -22.7 10.05 -21.9 9.05 -21.05 9.0 -19.45 L9.0 -8.4 Q9.05 -6.75 10.05 -5.95 11.1 -5.1 12.8 -5.1 14.55 -5.1 15.55 -5.95 16.6 -6.75 16.6 -8.4 L16.6 -10.15 23.05 -10.15 23.05 -10.0 Q23.05 -4.55 20.35 -2.0 17.7 0.55 12.8 0.5 7.95 0.55 5.25 -2.0 2.6 -4.55 2.55 -10.0 L2.55 -17.8 Q2.6 -23.3 5.25 -25.85 7.95 -28.35 12.8 -28.35 17.6 -28.35 20.25 -25.9 22.9 -23.5 23.0 -18.2" fill-rule="evenodd" stroke="none"/>
    </g>
    <g id="font_TradeGothic_Bold_e0">
      <path d="M9.0 -17.6 L16.6 -17.6 16.6 -19.15 Q16.6 -21.0 15.7 -22.05 14.75 -23.1 12.8 -23.1 10.85 -23.1 9.95 -22.05 9.0 -21.0 9.0 -19.15 L9.0 -17.6 M23.05 -12.4 L9.0 -12.4 9.0 -8.7 Q9.05 -6.65 10.1 -5.65 11.15 -4.7 12.8 -4.7 14.85 -4.75 15.75 -5.85 16.65 -6.95 16.6 -8.6 L23.05 -8.6 Q22.85 -4.25 20.25 -1.9 17.7 0.5 12.8 0.5 9.7 0.5 7.4 -0.7 5.1 -1.9 3.85 -4.1 2.6 -6.3 2.55 -9.35 L2.55 -18.5 Q2.6 -21.55 3.85 -23.75 5.1 -25.95 7.4 -27.15 9.7 -28.3 12.8 -28.35 15.85 -28.3 18.15 -27.15 20.45 -25.95 21.75 -23.85 23.05 -21.75 23.05 -18.9 L23.05 -12.4" fill-rule="evenodd" stroke="none"/>
    </g>
    <g id="font_TradeGothic_Bold_p0">
      <path d="M3.1 -27.85 L9.0 -27.85 9.0 -24.45 9.15 -24.45 10.75 -26.2 13.2 -27.7 Q14.55 -28.3 16.0 -28.35 19.75 -28.3 21.4 -25.5 23.1 -22.65 23.05 -17.3 L23.05 -10.55 Q23.1 -5.15 21.4 -2.35 19.75 0.5 16.0 0.5 14.75 0.55 13.25 -0.2 11.8 -0.9 9.55 -2.55 L9.55 9.85 3.1 9.85 3.1 -27.85 M9.55 -21.5 L9.55 -6.3 Q10.5 -5.25 11.45 -4.8 12.35 -4.3 13.45 -4.3 14.3 -4.3 15.05 -4.8 15.75 -5.35 16.2 -6.8 16.6 -8.2 16.6 -10.95 L16.6 -16.9 Q16.6 -19.6 16.2 -21.05 15.75 -22.5 15.05 -23.0 14.3 -23.55 13.45 -23.5 L11.45 -23.05 Q10.5 -22.55 9.55 -21.5" fill-rule="evenodd" stroke="none"/>
    </g>
    <g id="font_TradeGothic_Bold_t0">
      <path d="M2.9 -21.4 L0.35 -21.4 0.35 -26.6 2.9 -26.6 2.9 -34.2 9.35 -34.2 9.35 -26.6 13.5 -26.6 13.5 -21.4 9.35 -21.4 9.35 -7.15 Q9.35 -6.1 10.15 -5.6 10.95 -5.1 12.25 -5.1 L12.9 -5.1 13.55 -5.15 13.55 0.25 11.7 0.45 9.85 0.5 Q6.65 0.55 4.8 -0.75 2.95 -2.05 2.9 -5.0 L2.9 -21.4" fill-rule="evenodd" stroke="none"/>
    </g>
    <g id="font_TradeGothic_Bold_d0">
      <path d="M22.55 0.0 L16.6 0.0 16.6 -3.4 16.5 -3.4 14.85 -1.6 12.45 -0.1 Q11.1 0.5 9.65 0.5 5.9 0.5 4.2 -2.35 2.55 -5.15 2.55 -10.55 L2.55 -17.3 Q2.55 -22.65 4.2 -25.5 5.9 -28.3 9.65 -28.35 10.9 -28.35 12.35 -27.65 13.85 -26.95 16.1 -25.25 L16.1 -36.95 22.55 -36.95 22.55 0.0 M16.1 -6.3 L16.1 -21.5 14.2 -23.05 12.2 -23.5 Q11.3 -23.55 10.6 -23.0 9.85 -22.5 9.45 -21.05 9.0 -19.6 9.0 -16.9 L9.0 -10.95 Q9.0 -8.2 9.45 -6.8 9.85 -5.35 10.6 -4.8 11.3 -4.3 12.2 -4.3 13.25 -4.3 14.2 -4.8 L16.1 -6.3" fill-rule="evenodd" stroke="none"/>
    </g>
    <g id="font_TradeGothic_Bold__1">
      <path d="M10.75 0.0 L3.5 0.0 3.5 -7.25 10.75 -7.25 10.75 0.0 M10.85 -36.95 L9.45 -12.5 4.8 -12.5 3.4 -36.95 10.85 -36.95" fill-rule="evenodd" stroke="none"/>
    </g>
  </defs>
</svg>
