<?xml version="1.0" encoding="UTF-8" standalone="no"?>
<svg xmlns:ffdec="https://www.free-decompiler.com/flash" xmlns:xlink="http://www.w3.org/1999/xlink" ffdec:objectType="frame" height="99.0px" width="94.15px" xmlns="http://www.w3.org/2000/svg">
  <g transform="matrix(1.0, 0.0, 0.0, 1.0, 15.15, 13.6)">
    <use ffdec:characterId="400" height="62.1" transform="matrix(1.0, 0.0, 0.0, 1.0, -0.4, -1.0)" width="62.55" xlink:href="#shape0"/>
    <clipPath id="clipPath0">
      <path d="M 35.6 1 L 34.72 1.01 L 33.85 1.04 L 32.99 1.09 L 32.14 1.16 L 31.3 1.24 L 30.46 1.35 L 29.63 1.48 L 28.81 1.62 L 28 1.79 L 27.19 1.97 L 26.4 2.18 L 25.61 2.4 L 24.83 2.64 L 24.06 2.9 L 23.29 3.19 L 22.54 3.49 L 21.79 3.81 L 21.05 4.15 L 20.32 4.51 L 19.6 4.89 L 18.88 5.29 L 18.17 5.7 L 17.48 6.14 L 16.78 6.6 L 16.1 7.07 L 15.43 7.57 L 14.76 8.08 L 14.1 8.62 L 13.45 9.17 L 12.81 9.75 L 12.18 10.34 L 11.55 10.95 L 10.94 11.58 L 10.35 12.21 L 9.77 12.85 L 9.22 13.5 L 8.68 14.16 L 8.17 14.83 L 7.67 15.5 L 7.2 16.18 L 6.74 16.88 L 6.3 17.57 L 5.89 18.28 L 5.49 19 L 5.11 19.72 L 4.75 20.45 L 4.41 21.19 L 4.09 21.94 L 3.79 22.69 L 3.5 23.46 L 3.24 24.23 L 3 25.01 L 2.78 25.8 L 2.57 26.59 L 2.39 27.4 L 2.22 28.21 L 2.08 29.03 L 1.95 29.86 L 1.84 30.7 L 1.76 31.54 L 1.69 32.39 L 1.64 33.25 L 1.61 34.12 L 1.6 35 L 1.61 35.85 L 1.64 36.7 L 1.68 37.53 L 1.74 38.36 L 1.82 39.18 L 1.92 39.99 L 2.04 40.79 L 2.17 41.59 L 2.32 42.37 L 2.49 43.15 L 2.68 43.92 L 2.88 44.68 L 3.1 45.44 L 3.34 46.18 L 3.6 46.92 L 3.88 47.65 L 4.17 48.37 L 4.48 49.08 L 4.81 49.79 L 5.15 50.48 L 5.52 51.17 L 5.9 51.85 L 6.3 52.52 L 6.72 53.19 L 7.15 53.84 L 7.61 54.49 L 8.08 55.13 L 8.57 55.76 L 9.07 56.38 L 9.6 57 L 10.14 57.6 L 10.7 58.2 L 19.4 49.65 L 19.05 49.26 L 18.72 48.87 L 18.39 48.48 L 18.08 48.08 L 17.77 47.67 L 17.48 47.26 L 17.2 46.85 L 16.93 46.43 L 16.67 46 L 16.42 45.58 L 16.18 45.14 L 15.96 44.71 L 15.74 44.27 L 15.54 43.82 L 15.34 43.37 L 15.16 42.91 L 14.99 42.45 L 14.83 41.99 L 14.68 41.52 L 14.54 41.04 L 14.42 40.57 L 14.3 40.08 L 14.2 39.6 L 14.1 39.1 L 14.02 38.61 L 13.95 38.1 L 13.89 37.6 L 13.84 37.09 L 13.8 36.57 L 13.77 36.05 L 13.76 35.53 L 13.75 35 L 13.76 34.44 L 13.77 33.88 L 13.81 33.33 L 13.85 32.78 L 13.91 32.24 L 13.98 31.7 L 14.06 31.17 L 14.15 30.64 L 14.26 30.12 L 14.38 29.6 L 14.51 29.09 L 14.65 28.59 L 14.81 28.08 L 14.98 27.59 L 15.16 27.1 L 15.35 26.61 L 15.56 26.13 L 15.77 25.66 L 16.01 25.19 L 16.25 24.72 L 16.51 24.26 L 16.77 23.81 L 17.06 23.36 L 17.35 22.92 L 17.66 22.48 L 17.98 22.04 L 18.31 21.61 L 18.65 21.19 L 19.01 20.77 L 19.38 20.36 L 19.76 19.95 L 20.15 19.55 L 20.55 19.16 L 20.96 18.77 L 21.37 18.41 L 21.79 18.05 L 22.21 17.71 L 22.64 17.38 L 23.08 17.06 L 23.52 16.75 L 23.96 16.46 L 24.41 16.17 L 24.86 15.91 L 25.32 15.65 L 25.79 15.41 L 26.26 15.18 L 26.73 14.96 L 27.21 14.75 L 27.7 14.56 L 28.19 14.38 L 28.68 14.21 L 29.19 14.05 L 29.69 13.91 L 30.2 13.77 L 30.72 13.66 L 31.24 13.55 L 31.77 13.46 L 32.3 13.38 L 32.84 13.31 L 33.38 13.25 L 33.93 13.21 L 34.48 13.18 L 35.04 13.16 L 35.6 13.15 L 36.14 13.16 L 36.68 13.17 L 37.21 13.2 L 37.73 13.24 L 38.25 13.29 L 38.77 13.35 L 39.27 13.42 L 39.78 13.51 L 40.28 13.6 L 40.77 13.71 L 41.26 13.82 L 41.74 13.95 L 42.21 14.09 L 42.69 14.24 L 43.15 14.4 L 43.61 14.57 L 44.07 14.76 L 44.52 14.95 L 44.96 15.16 L 45.4 15.38 L 45.83 15.6 L 46.26 15.84 L 46.69 16.09 L 47.1 16.36 L 47.52 16.63 L 47.92 16.91 L 48.32 17.21 L 48.72 17.51 L 49.11 17.83 L 49.5 18.16 L 49.88 18.5 L 50.25 18.85 L 58.8 10.15 L 58.2 9.59 L 57.6 9.04 L 56.98 8.51 L 56.36 8.01 L 55.73 7.51 L 55.09 7.04 L 54.44 6.58 L 53.79 6.15 L 53.12 5.73 L 52.45 5.32 L 51.77 4.94 L 51.08 4.57 L 50.39 4.23 L 49.68 3.9 L 48.97 3.58 L 48.25 3.29 L 47.52 3.01 L 46.78 2.75 L 46.04 2.51 L 45.28 2.29 L 44.52 2.08 L 43.75 1.89 L 42.97 1.72 L 42.19 1.57 L 41.39 1.44 L 40.59 1.32 L 39.78 1.22 L 38.96 1.14 L 38.13 1.08 L 37.3 1.04 L 36.45 1.01 L 35.6 1 Z"/>
    </clipPath>
    <g clip-path="url(#clipPath0)">
      <use ffdec:characterId="401" height="34.55" transform="matrix(1.0, 0.0, 0.0, 1.0, 0.85, 0.25)" width="47.8" xlink:href="#shape1"/>
    </g>
    <clipPath id="clipPath1">
      <path d="M 37.01 -0.53 L 36.96 -0.36 L 36.02 -0.39 L 35.09 -0.41 L 34.32 -0.4 L 33.55 -0.37 L 32.79 -0.33 L 32.03 -0.28 L 31.28 -0.21 L 30.53 -0.12 L 29.78 -0.02 L 29.05 0.1 L 28.31 0.24 L 27.58 0.39 L 26.86 0.56 L 26.14 0.74 L 25.42 0.94 L 24.71 1.16 L 24.01 1.39 L 23.31 1.63 L 22.61 1.9 L 21.92 2.18 L 21.24 2.47 L 20.56 2.78 L 19.88 3.11 L 19.21 3.45 L 18.54 3.81 L 17.88 4.18 L 17.22 4.57 L 16.57 4.98 L 15.92 5.4 L 15.28 5.84 L 14.64 6.29 L 14.01 6.76 L 13.38 7.25 L 12.76 7.75 L 12.05 8.34 L 11.36 8.95 L 10.7 9.56 L 10.05 10.19 L 9.42 10.82 L 8.81 11.47 L 8.22 12.12 L 7.65 12.79 L 7.11 13.46 L 6.58 14.15 L 6.07 14.85 L 5.57 15.55 L 5.1 16.27 L 4.65 17 L 4.22 17.74 L 3.81 18.48 L 3.42 19.24 L 3.04 20.01 L 2.69 20.79 L 2.36 21.58 L 2.04 22.38 L 1.75 23.19 L 1.47 24.02 L 1.22 24.85 L 0.98 25.69 L 0.77 26.54 L 0.57 27.4 L 0.39 28.28 L 0.24 29.16 L 0.1 30.06 L -0.02 30.96 L -0.12 31.87 L -0.2 32.79 L -0.26 33.7 L -0.3 34.6 L -0.32 35.5 L -0.32 36.39 L -0.29 37.28 L -0.25 38.16 L -0.18 39.03 L -0.09 39.89 L 0.02 40.75 L 0.15 41.61 L 0.3 42.45 L 0.47 43.29 L 0.67 44.13 L 0.88 44.95 L 1.12 45.77 L 1.38 46.59 L 1.66 47.4 L 1.96 48.2 L 2.28 48.99 L 2.62 49.78 L 2.99 50.57 L 3.37 51.34 L 3.78 52.11 L 4.21 52.88 L 4.66 53.63 L 5.13 54.39 L 5.62 55.13 L 6.13 55.87 L 6.67 56.6 L 7.22 57.33 L 7.8 58.05 L 8.39 58.75 L 9 59.44 L 9.61 60.11 L 10.23 60.75 L 10.87 61.38 L 11.51 61.99 L 12.17 62.58 L 12.83 63.15 L 13.51 63.7 L 14.19 64.23 L 14.89 64.74 L 15.6 65.23 L 16.31 65.7 L 17.04 66.16 L 17.78 66.59 L 18.52 67 L 19.28 67.4 L 20.05 67.77 L 20.83 68.12 L 21.62 68.46 L 22.42 68.77 L 23.22 69.07 L 24.04 69.35 L 24.87 69.6 L 25.71 69.84 L 26.57 70.06 L 27.43 70.25 L 28.3 70.43 L 29.18 70.59 L 30.07 70.73 L 30.97 70.85 L 31.89 70.95 L 31.94 70.78 L 24.67 61.45 L 33.49 54.97 L 37.24 16.58 L 43.31 16.19 L 50.33 0.67 L 37.01 -0.53 Z"/>
    </clipPath>
    <g clip-path="url(#clipPath1)">
      <use ffdec:characterId="403" height="57.3" transform="matrix(1.0, 0.0, 0.0, 1.0, 1.45, 1.0)" width="58.6" xlink:href="#shape2"/>
    </g>
  </g>
  <defs>
    <g id="shape0" transform="matrix(1.0, 0.0, 0.0, 1.0, 0.4, 1.0)">
      <path d="M50.85 19.15 L60.05 18.45 59.6 10.65 Q49.3 1.0 35.6 1.0 21.5 1.0 11.55 10.95 1.6 20.9 1.6 35.0 1.6 42.35 4.25 48.5 L4.25 48.55 Q6.45 53.7 10.5 58.0 L10.7 58.2 10.75 58.15 11.7 50.25 19.3 49.6 19.4 49.65 19.35 49.6 Q16.65 46.65 15.25 43.15 13.75 39.4 13.75 35.0 13.75 25.95 20.15 19.55 26.55 13.15 35.6 13.15 44.25 13.15 50.2 18.8 L50.25 18.85 50.85 19.15 M61.55 10.1 L61.7 10.45 62.15 20.55 51.55 21.25 47.3 18.4 Q43.0 15.15 35.6 15.15 27.35 15.15 21.55 20.95 15.75 26.75 15.75 35.0 15.75 42.65 20.65 48.25 L21.85 49.7 22.15 49.9 22.15 51.1 13.2 52.1 11.85 61.1 10.75 60.75 9.75 60.0 Q-0.4 49.6 -0.4 35.0 L-0.3 32.65 Q0.45 19.25 10.15 9.55 20.7 -1.0 35.6 -1.0 48.95 -1.0 58.85 7.5 L61.05 9.55 61.1 9.6 61.55 10.1" fill="#003366" fill-opacity="0.2" fill-rule="evenodd" stroke="none"/>
      <path d="M50.85 19.15 L50.25 18.85 50.2 18.8 Q44.25 13.15 35.6 13.15 26.55 13.15 20.15 19.55 13.75 25.95 13.75 35.0 13.75 39.4 15.25 43.15 16.65 46.65 19.35 49.6 L19.3 49.6 11.7 50.25 10.75 58.15 10.7 58.2 10.5 58.0 Q6.45 53.7 4.25 48.55 L4.25 48.5 Q1.6 42.35 1.6 35.0 1.6 20.9 11.55 10.95 21.5 1.0 35.6 1.0 49.3 1.0 59.6 10.65 L60.05 18.45 50.85 19.15" fill="#ffffff" fill-rule="evenodd" stroke="none"/>
    </g>
    <g id="shape1" transform="matrix(1.0, 0.0, 0.0, 1.0, -0.85, -0.25)">
      <path d="M47.9 3.15 L43.25 14.45 M22.3 3.6 L26.95 14.85 M34.9 1.0 L34.9 13.15 M11.7 10.85 L20.3 19.45 M4.25 21.55 L15.55 26.2" fill="none" stroke="#3399ff" stroke-linecap="round" stroke-linejoin="round" stroke-opacity="0.2" stroke-width="1.5"/>
      <path d="M1.6 34.05 L13.8 34.05" fill="none" stroke="#3399ff" stroke-linecap="round" stroke-linejoin="round" stroke-opacity="0.2" stroke-width="1.5"/>
    </g>
    <g id="shape2" transform="matrix(1.0, 0.0, 0.0, 1.0, -1.45, -1.0)">
      <path d="M20.3 19.45 L20.15 19.55 Q17.15 22.55 15.55 26.2 L4.25 21.55 Q6.75 15.75 11.55 10.95 L11.7 10.85 20.3 19.45" fill="#ffcc00" fill-rule="evenodd" stroke="none"/>
      <path d="M34.9 13.15 Q30.6 13.3 26.95 14.85 L22.3 3.6 Q28.1 1.1 34.9 1.0 L34.9 13.15" fill="#ff6600" fill-rule="evenodd" stroke="none"/>
      <path d="M15.55 26.2 Q13.95 29.8 13.8 34.05 L13.65 35.4 1.45 34.95 1.85 30.65 Q2.4 25.8 4.25 21.55 L15.55 26.2" fill="#ffff00" fill-rule="evenodd" stroke="none"/>
      <path d="M26.95 14.85 Q23.3 16.45 20.3 19.45 L11.7 10.85 Q16.5 6.05 22.3 3.6 L26.95 14.85" fill="#ff9900" fill-rule="evenodd" stroke="none"/>
      <path d="M47.9 3.15 L43.25 14.45 Q39.7 13.15 35.6 13.15 L34.9 13.15 34.9 1.0 35.6 1.0 Q42.25 1.0 47.9 3.15" fill="#ff3300" fill-rule="evenodd" stroke="none"/>
      <path d="M47.9 3.15 Q54.5 6.0 56.95 8.25 L59.6 10.5 60.05 18.45 52.25 19.15 50.25 18.85 Q47.1 15.85 43.25 14.45 L47.9 3.15" fill="#cc0000" fill-rule="evenodd" stroke="none"/>
      <path d="M4.15 47.9 L2.55 43.6 1.5 35.1 13.7 35.6 14.55 38.75 Q15.4 41.5 16.65 44.15 L19.4 49.4 11.4 50.2 11.8 57.0 10.5 58.3 9.15 56.6 6.65 53.0 Q5.15 50.5 4.15 47.9" fill="#00ff33" fill-rule="evenodd" stroke="none"/>
    </g>
  </defs>
</svg>
