<?xml version="1.0" encoding="UTF-8" standalone="no"?>
<svg xmlns:ffdec="https://www.free-decompiler.com/flash" xmlns:xlink="http://www.w3.org/1999/xlink" ffdec:objectType="frame" height="99.0px" width="94.15px" xmlns="http://www.w3.org/2000/svg">
  <g transform="matrix(1.0, 0.0, 0.0, 1.0, 15.15, 13.6)">
    <use ffdec:characterId="400" height="62.1" transform="matrix(1.0, 0.0, 0.0, 1.0, -0.4, -1.0)" width="62.55" xlink:href="#shape0"/>
    <clipPath id="clipPath0">
      <path d="M 35.6 1 L 34.72 1.01 L 33.85 1.04 L 32.99 1.09 L 32.14 1.16 L 31.3 1.24 L 30.46 1.35 L 29.63 1.48 L 28.81 1.62 L 28 1.79 L 27.19 1.97 L 26.4 2.18 L 25.61 2.4 L 24.83 2.64 L 24.06 2.9 L 23.29 3.19 L 22.54 3.49 L 21.79 3.81 L 21.05 4.15 L 20.32 4.51 L 19.6 4.89 L 18.88 5.29 L 18.17 5.7 L 17.48 6.14 L 16.78 6.6 L 16.1 7.07 L 15.43 7.57 L 14.76 8.08 L 14.1 8.62 L 13.45 9.17 L 12.81 9.75 L 12.18 10.34 L 11.55 10.95 L 10.94 11.58 L 10.35 12.21 L 9.77 12.85 L 9.22 13.5 L 8.68 14.16 L 8.17 14.83 L 7.67 15.5 L 7.2 16.18 L 6.74 16.88 L 6.3 17.57 L 5.89 18.28 L 5.49 19 L 5.11 19.72 L 4.75 20.45 L 4.41 21.19 L 4.09 21.94 L 3.79 22.69 L 3.5 23.46 L 3.24 24.23 L 3 25.01 L 2.78 25.8 L 2.57 26.59 L 2.39 27.4 L 2.22 28.21 L 2.08 29.03 L 1.95 29.86 L 1.84 30.7 L 1.76 31.54 L 1.69 32.39 L 1.64 33.25 L 1.61 34.12 L 1.6 35 L 1.61 35.85 L 1.64 36.7 L 1.68 37.53 L 1.74 38.36 L 1.82 39.18 L 1.92 39.99 L 2.04 40.79 L 2.17 41.59 L 2.32 42.37 L 2.49 43.15 L 2.68 43.92 L 2.88 44.68 L 3.1 45.44 L 3.34 46.18 L 3.6 46.92 L 3.88 47.65 L 4.17 48.37 L 4.48 49.08 L 4.81 49.79 L 5.15 50.48 L 5.52 51.17 L 5.9 51.85 L 6.3 52.52 L 6.72 53.19 L 7.15 53.84 L 7.61 54.49 L 8.08 55.13 L 8.57 55.76 L 9.07 56.38 L 9.6 57 L 10.14 57.6 L 10.7 58.2 L 19.4 49.65 L 19.05 49.26 L 18.72 48.87 L 18.39 48.48 L 18.08 48.08 L 17.77 47.67 L 17.48 47.26 L 17.2 46.85 L 16.93 46.43 L 16.67 46 L 16.42 45.58 L 16.18 45.14 L 15.96 44.71 L 15.74 44.27 L 15.54 43.82 L 15.34 43.37 L 15.16 42.91 L 14.99 42.45 L 14.83 41.99 L 14.68 41.52 L 14.54 41.04 L 14.42 40.57 L 14.3 40.08 L 14.2 39.6 L 14.1 39.1 L 14.02 38.61 L 13.95 38.1 L 13.89 37.6 L 13.84 37.09 L 13.8 36.57 L 13.77 36.05 L 13.76 35.53 L 13.75 35 L 13.76 34.44 L 13.77 33.88 L 13.81 33.33 L 13.85 32.78 L 13.91 32.24 L 13.98 31.7 L 14.06 31.17 L 14.15 30.64 L 14.26 30.12 L 14.38 29.6 L 14.51 29.09 L 14.65 28.59 L 14.81 28.08 L 14.98 27.59 L 15.16 27.1 L 15.35 26.61 L 15.56 26.13 L 15.77 25.66 L 16.01 25.19 L 16.25 24.72 L 16.51 24.26 L 16.77 23.81 L 17.06 23.36 L 17.35 22.92 L 17.66 22.48 L 17.98 22.04 L 18.31 21.61 L 18.65 21.19 L 19.01 20.77 L 19.38 20.36 L 19.76 19.95 L 20.15 19.55 L 20.55 19.16 L 20.96 18.77 L 21.37 18.41 L 21.79 18.05 L 22.21 17.71 L 22.64 17.38 L 23.08 17.06 L 23.52 16.75 L 23.96 16.46 L 24.41 16.17 L 24.86 15.91 L 25.32 15.65 L 25.79 15.41 L 26.26 15.18 L 26.73 14.96 L 27.21 14.75 L 27.7 14.56 L 28.19 14.38 L 28.68 14.21 L 29.19 14.05 L 29.69 13.91 L 30.2 13.77 L 30.72 13.66 L 31.24 13.55 L 31.77 13.46 L 32.3 13.38 L 32.84 13.31 L 33.38 13.25 L 33.93 13.21 L 34.48 13.18 L 35.04 13.16 L 35.6 13.15 L 36.14 13.16 L 36.68 13.17 L 37.21 13.2 L 37.73 13.24 L 38.25 13.29 L 38.77 13.35 L 39.27 13.42 L 39.78 13.51 L 40.28 13.6 L 40.77 13.71 L 41.26 13.82 L 41.74 13.95 L 42.21 14.09 L 42.69 14.24 L 43.15 14.4 L 43.61 14.57 L 44.07 14.76 L 44.52 14.95 L 44.96 15.16 L 45.4 15.38 L 45.83 15.6 L 46.26 15.84 L 46.69 16.09 L 47.1 16.36 L 47.52 16.63 L 47.92 16.91 L 48.32 17.21 L 48.72 17.51 L 49.11 17.83 L 49.5 18.16 L 49.88 18.5 L 50.25 18.85 L 58.8 10.15 L 58.2 9.59 L 57.6 9.04 L 56.98 8.51 L 56.36 8.01 L 55.73 7.51 L 55.09 7.04 L 54.44 6.58 L 53.79 6.15 L 53.12 5.73 L 52.45 5.32 L 51.77 4.94 L 51.08 4.57 L 50.39 4.23 L 49.68 3.9 L 48.97 3.58 L 48.25 3.29 L 47.52 3.01 L 46.78 2.75 L 46.04 2.51 L 45.28 2.29 L 44.52 2.08 L 43.75 1.89 L 42.97 1.72 L 42.19 1.57 L 41.39 1.44 L 40.59 1.32 L 39.78 1.22 L 38.96 1.14 L 38.13 1.08 L 37.3 1.04 L 36.45 1.01 L 35.6 1 Z"/>
    </clipPath>
    <g clip-path="url(#clipPath0)">
      <use ffdec:characterId="401" height="34.55" transform="matrix(1.0, 0.0, 0.0, 1.0, 0.85, 0.25)" width="47.8" xlink:href="#shape1"/>
    </g>
    <clipPath id="clipPath1">
      <path d="M 65.05 14.82 L 64.88 14.88 L 62.21 26.42 L 51.61 23.64 L 19.41 44.95 L 15.27 40.49 L -1.22 44.82 L 6.25 55.93 L 6.41 55.86 L 6.92 56.54 L 7.44 57.2 L 7.97 57.84 L 8.51 58.47 L 9.06 59.08 L 9.62 59.67 L 10.19 60.25 L 10.77 60.81 L 11.36 61.36 L 11.97 61.89 L 12.58 62.41 L 13.21 62.91 L 13.84 63.39 L 14.49 63.86 L 15.15 64.31 L 15.82 64.75 L 16.5 65.17 L 17.19 65.57 L 17.89 65.96 L 18.6 66.33 L 19.32 66.69 L 20.06 67.03 L 20.8 67.35 L 21.56 67.66 L 22.32 67.96 L 23.1 68.23 L 23.89 68.49 L 24.69 68.74 L 25.5 68.97 L 26.32 69.18 L 27.15 69.38 L 27.99 69.56 L 28.96 69.74 L 29.92 69.91 L 30.88 70.04 L 31.83 70.15 L 32.77 70.24 L 33.71 70.3 L 34.65 70.34 L 35.58 70.35 L 36.22 70.35 L 36.86 70.33 L 37.49 70.3 L 38.12 70.26 L 38.75 70.2 L 39.38 70.14 L 40 70.06 L 40.63 69.98 L 41.25 69.88 L 41.86 69.76 L 42.48 69.64 L 43.09 69.51 L 43.7 69.36 L 44.31 69.2 L 44.92 69.03 L 45.52 68.85 L 46.12 68.66 L 46.72 68.45 L 47.32 68.23 L 47.91 68.01 L 48.5 67.76 L 49.09 67.51 L 49.68 67.25 L 50.27 66.97 L 50.85 66.69 L 51.43 66.39 L 52.01 66.08 L 52.58 65.75 L 53.16 65.42 L 53.73 65.07 L 54.3 64.72 L 54.86 64.35 L 55.63 63.83 L 56.37 63.3 L 57.1 62.77 L 57.81 62.21 L 58.5 61.65 L 59.17 61.07 L 59.83 60.48 L 60.46 59.88 L 61.08 59.27 L 61.68 58.64 L 62.26 58 L 62.82 57.35 L 63.37 56.68 L 63.89 56.01 L 64.4 55.32 L 64.89 54.61 L 65.36 53.9 L 65.81 53.17 L 66.24 52.43 L 66.66 51.68 L 67.06 50.92 L 67.44 50.14 L 67.8 49.35 L 68.14 48.55 L 68.46 47.73 L 68.77 46.9 L 69.05 46.07 L 69.32 45.21 L 69.57 44.35 L 69.8 43.47 L 70.02 42.58 L 70.21 41.68 L 70.39 40.77 L 70.54 39.87 L 70.67 38.97 L 70.78 38.08 L 70.87 37.19 L 70.94 36.3 L 70.98 35.42 L 71 34.55 L 71.01 33.68 L 70.99 32.81 L 70.94 31.94 L 70.88 31.09 L 70.79 30.23 L 70.69 29.38 L 70.56 28.53 L 70.41 27.69 L 70.24 26.86 L 70.04 26.02 L 69.83 25.19 L 69.59 24.37 L 69.33 23.55 L 69.05 22.73 L 68.75 21.92 L 68.42 21.12 L 68.08 20.31 L 67.71 19.51 L 67.32 18.72 L 66.91 17.93 L 66.48 17.15 L 66.02 16.36 L 65.55 15.59 L 65.05 14.82 Z"/>
    </clipPath>
    <g clip-path="url(#clipPath1)">
      <use ffdec:characterId="403" height="57.3" transform="matrix(1.0, 0.0, 0.0, 1.0, 1.45, 1.0)" width="58.6" xlink:href="#shape2"/>
    </g>
  </g>
  <defs>
    <g id="shape0" transform="matrix(1.0, 0.0, 0.0, 1.0, 0.4, 1.0)">
      <path d="M50.85 19.15 L60.05 18.45 59.6 10.65 Q49.3 1.0 35.6 1.0 21.5 1.0 11.55 10.95 1.6 20.9 1.6 35.0 1.6 42.35 4.25 48.5 L4.25 48.55 Q6.45 53.7 10.5 58.0 L10.7 58.2 10.75 58.15 11.7 50.25 19.3 49.6 19.4 49.65 19.35 49.6 Q16.65 46.65 15.25 43.15 13.75 39.4 13.75 35.0 13.75 25.95 20.15 19.55 26.55 13.15 35.6 13.15 44.25 13.15 50.2 18.8 L50.25 18.85 50.85 19.15 M61.55 10.1 L61.7 10.45 62.15 20.55 51.55 21.25 47.3 18.4 Q43.0 15.15 35.6 15.15 27.35 15.15 21.55 20.95 15.75 26.75 15.75 35.0 15.75 42.65 20.65 48.25 L21.85 49.7 22.15 49.9 22.15 51.1 13.2 52.1 11.85 61.1 10.75 60.75 9.75 60.0 Q-0.4 49.6 -0.4 35.0 L-0.3 32.65 Q0.45 19.25 10.15 9.55 20.7 -1.0 35.6 -1.0 48.95 -1.0 58.85 7.5 L61.05 9.55 61.1 9.6 61.55 10.1" fill="#003366" fill-opacity="0.2" fill-rule="evenodd" stroke="none"/>
      <path d="M50.85 19.15 L50.25 18.85 50.2 18.8 Q44.25 13.15 35.6 13.15 26.55 13.15 20.15 19.55 13.75 25.95 13.75 35.0 13.75 39.4 15.25 43.15 16.65 46.65 19.35 49.6 L19.3 49.6 11.7 50.25 10.75 58.15 10.7 58.2 10.5 58.0 Q6.45 53.7 4.25 48.55 L4.25 48.5 Q1.6 42.35 1.6 35.0 1.6 20.9 11.55 10.95 21.5 1.0 35.6 1.0 49.3 1.0 59.6 10.65 L60.05 18.45 50.85 19.15" fill="#ffffff" fill-rule="evenodd" stroke="none"/>
    </g>
    <g id="shape1" transform="matrix(1.0, 0.0, 0.0, 1.0, -0.85, -0.25)">
      <path d="M47.9 3.15 L43.25 14.45 M22.3 3.6 L26.95 14.85 M34.9 1.0 L34.9 13.15 M11.7 10.85 L20.3 19.45 M4.25 21.55 L15.55 26.2" fill="none" stroke="#3399ff" stroke-linecap="round" stroke-linejoin="round" stroke-opacity="0.2" stroke-width="1.5"/>
      <path d="M1.6 34.05 L13.8 34.05" fill="none" stroke="#3399ff" stroke-linecap="round" stroke-linejoin="round" stroke-opacity="0.2" stroke-width="1.5"/>
    </g>
    <g id="shape2" transform="matrix(1.0, 0.0, 0.0, 1.0, -1.45, -1.0)">
      <path d="M20.3 19.45 L20.15 19.55 Q17.15 22.55 15.55 26.2 L4.25 21.55 Q6.75 15.75 11.55 10.95 L11.7 10.85 20.3 19.45" fill="#ffcc00" fill-rule="evenodd" stroke="none"/>
      <path d="M34.9 13.15 Q30.6 13.3 26.95 14.85 L22.3 3.6 Q28.1 1.1 34.9 1.0 L34.9 13.15" fill="#ff6600" fill-rule="evenodd" stroke="none"/>
      <path d="M15.55 26.2 Q13.95 29.8 13.8 34.05 L13.65 35.4 1.45 34.95 1.85 30.65 Q2.4 25.8 4.25 21.55 L15.55 26.2" fill="#ffff00" fill-rule="evenodd" stroke="none"/>
      <path d="M26.95 14.85 Q23.3 16.45 20.3 19.45 L11.7 10.85 Q16.5 6.05 22.3 3.6 L26.95 14.85" fill="#ff9900" fill-rule="evenodd" stroke="none"/>
      <path d="M47.9 3.15 L43.25 14.45 Q39.7 13.15 35.6 13.15 L34.9 13.15 34.9 1.0 35.6 1.0 Q42.25 1.0 47.9 3.15" fill="#ff3300" fill-rule="evenodd" stroke="none"/>
      <path d="M47.9 3.15 Q54.5 6.0 56.95 8.25 L59.6 10.5 60.05 18.45 52.25 19.15 50.25 18.85 Q47.1 15.85 43.25 14.45 L47.9 3.15" fill="#cc0000" fill-rule="evenodd" stroke="none"/>
      <path d="M4.15 47.9 L2.55 43.6 1.5 35.1 13.7 35.6 14.55 38.75 Q15.4 41.5 16.65 44.15 L19.4 49.4 11.4 50.2 11.8 57.0 10.5 58.3 9.15 56.6 6.65 53.0 Q5.15 50.5 4.15 47.9" fill="#00ff33" fill-rule="evenodd" stroke="none"/>
    </g>
  </defs>
</svg>
