<?xml version="1.0" encoding="UTF-8" standalone="no"?>
<svg xmlns:ffdec="https://www.free-decompiler.com/flash" xmlns:xlink="http://www.w3.org/1999/xlink" ffdec:objectType="frame" height="22.0px" width="18.0px" xmlns="http://www.w3.org/2000/svg">
  <g transform="matrix(1.0, 0.0, 0.0, 1.0, 0.0, 0.0)">
    <use ffdec:characterId="229" height="22.0" transform="matrix(1.0, 0.0, 0.0, 1.0, 0.0, 0.0)" width="18.0" xlink:href="#shape0"/>
    <use ffdec:characterId="236" height="22.0" transform="matrix(1.0, 0.0, 0.0, 1.0, 0.0, 0.0)" width="18.0" xlink:href="#sprite0"/>
    <use ffdec:characterId="231" height="22.0" transform="matrix(1.0, 0.0, 0.0, 1.0, 0.0, 0.0)" width="18.0" xlink:href="#sprite1"/>
    <use ffdec:characterId="232" height="20.0" transform="matrix(1.0, 0.0, 0.0, 1.0, 1.0, 1.0)" width="16.0" xlink:href="#shape3"/>
    <use ffdec:characterId="232" height="20.0" transform="matrix(0.9375, 0.0, 0.0, 0.95, 1.85, 2.0)" width="16.0" xlink:href="#shape4"/>
    <use ffdec:characterId="128" height="4.0" transform="matrix(1.0, 0.0, 0.0, -1.0, 6.0, 14.0)" width="6.0" xlink:href="#shape5"/>
  </g>
  <defs>
    <g id="shape0" transform="matrix(1.0, 0.0, 0.0, 1.0, 0.0, 0.0)">
      <path d="M13.0 22.0 L0.0 22.0 0.0 0.0 13.0 0.0 Q15.1 0.05 16.55 1.45 17.95 2.9 18.0 5.0 L18.0 17.0 Q17.95 19.1 16.55 20.55 15.1 21.95 13.0 22.0" fill="#cccccc" fill-rule="evenodd" stroke="none"/>
    </g>
    <g id="sprite0" transform="matrix(1.0, 0.0, 0.0, 1.0, 0.0, 0.0)">
      <use ffdec:characterId="235" height="22.0" transform="matrix(1.0, 0.0, 0.0, 1.0, 0.0, 0.0)" width="18.0" xlink:href="#shape1"/>
    </g>
    <g id="shape1" transform="matrix(1.0, 0.0, 0.0, 1.0, 0.0, 0.0)">
      <path d="M13.0 22.0 L0.0 22.0 0.0 0.0 13.0 0.0 Q15.1 0.05 16.55 1.45 17.95 2.9 18.0 5.0 L18.0 17.0 Q17.95 19.1 16.55 20.55 15.1 21.95 13.0 22.0" fill="#00ff00" fill-opacity="0.49803922" fill-rule="evenodd" stroke="none"/>
    </g>
    <g id="sprite1" transform="matrix(1.0, 0.0, 0.0, 1.0, 0.0, 0.0)">
      <use ffdec:characterId="230" height="22.0" transform="matrix(1.0, 0.0, 0.0, 1.0, 0.0, 0.0)" width="18.0" xlink:href="#shape2"/>
    </g>
    <g id="shape2" transform="matrix(1.0, 0.0, 0.0, 1.0, 0.0, 0.0)">
      <path d="M13.0 0.0 Q15.1 0.05 16.55 1.45 17.95 2.9 18.0 5.0 L18.0 17.0 Q17.95 19.1 16.55 20.55 15.1 21.95 13.0 22.0 L0.0 22.0 0.0 0.0 13.0 0.0" fill="url(#gradient0)" fill-rule="evenodd" stroke="none"/>
    </g>
    <linearGradient gradientTransform="matrix(0.0, 0.011, -0.0134, 0.0, 9.0, 11.0)" gradientUnits="userSpaceOnUse" id="gradient0" spreadMethod="pad" x1="-819.2" x2="819.2">
      <stop offset="0.0" stop-color="#ffffff" stop-opacity="0.2509804"/>
      <stop offset="1.0" stop-color="#2d2d2d" stop-opacity="0.3137255"/>
    </linearGradient>
    <g id="shape3" transform="matrix(1.0, 0.0, 0.0, 1.0, 0.0, 0.0)">
      <path d="M12.0 0.0 Q13.7 0.05 14.85 1.15 15.95 2.3 16.0 4.0 L16.0 16.0 Q15.95 17.7 14.85 18.85 13.7 19.95 12.0 20.0 L0.0 20.0 0.0 0.0 12.0 0.0" fill="#ffffff" fill-opacity="0.7490196" fill-rule="evenodd" stroke="none"/>
    </g>
    <g id="shape4" transform="matrix(1.0, 0.0, 0.0, 1.0, 0.0, 0.0)">
      <path d="M12.0 0.0 Q13.7 0.05 14.85 1.15 15.95 2.3 16.0 4.0 L16.0 16.0 Q15.95 17.7 14.85 18.85 13.7 19.95 12.0 20.0 L0.0 20.0 0.0 0.0 12.0 0.0" fill="#f7f7f7" fill-rule="evenodd" stroke="none"/>
    </g>
    <g id="shape5" transform="matrix(1.0, 0.0, 0.0, 1.0, 0.0, 0.0)">
      <path d="M6.0 4.0 L0.0 4.0 3.0 0.0 6.0 4.0" fill="#2b333c" fill-rule="evenodd" stroke="none"/>
    </g>
  </defs>
</svg>
