<?xml version="1.0" encoding="UTF-8" standalone="no"?>
<svg xmlns:ffdec="https://www.free-decompiler.com/flash" xmlns:xlink="http://www.w3.org/1999/xlink" ffdec:objectType="frame" height="13.95px" width="23.55px" xmlns="http://www.w3.org/2000/svg">
  <g transform="matrix(1.0, 0.0, 0.0, 1.0, 13.05, 13.95)">
    <use ffdec:characterId="308" height="13.95" transform="matrix(1.0, 0.0, 0.0, 1.0, -13.05, -13.95)" width="23.55" xlink:href="#shape0"/>
    <use ffdec:characterId="11" height="9.05" transform="matrix(-0.1959, -0.024, -0.024, 0.1959, 2.9454, -3.2007)" width="34.15" xlink:href="#sprite0"/>
    <use ffdec:characterId="17" height="21.6" transform="matrix(-0.2278, -0.0279, -0.0279, 0.2278, 4.9965, -11.1461)" width="39.4" xlink:href="#sprite1"/>
  </g>
  <defs>
    <g id="shape0" transform="matrix(1.0, 0.0, 0.0, 1.0, 13.05, 13.95)">
      <path d="M3.5 -13.35 L3.4 -13.4 3.25 -13.5 Q-0.4 -14.55 -3.75 -13.05 L-6.55 -11.15 -6.8 -11.05 -7.0 -10.9 -7.0 -10.85 -7.4 -11.35 -8.75 -12.9 -8.8 -12.95 -8.9 -13.0 Q-10.75 -13.6 -12.1 -12.55 L-12.25 -12.4 -12.35 -12.2 -12.4 -12.1 -12.45 -12.0 -12.45 -11.95 -12.5 -11.9 -12.55 -11.85 -12.7 -11.4 -12.75 -11.25 -12.8 -11.1 -12.85 -10.9 -12.8 -10.9 -12.9 -10.6 -13.05 -9.1 -12.95 -8.65 -12.95 -8.6 -12.75 -7.9 -12.6 -7.85 -12.6 -7.7 -12.5 -7.65 -12.3 -7.5 -12.2 -7.4 Q-10.55 -6.75 -8.75 -7.35 L-8.25 -7.5 -8.1 -7.65 -8.0 -7.7 -8.0 -7.3 Q-8.05 -4.9 -6.4 -2.9 L-6.3 -2.65 Q-5.1 -1.15 -3.3 -0.45 L-3.05 -0.35 0.45 0.0 1.15 0.0 Q3.8 -0.85 5.75 -2.75 6.65 -3.65 6.85 -4.75 L7.2 -4.75 7.25 -4.95 6.9 -5.1 6.85 -6.5 6.9 -6.6 6.9 -6.65 7.2 -6.55 8.4 -6.45 8.55 -6.5 9.1 -6.65 9.95 -7.35 9.95 -7.4 10.15 -7.5 10.15 -7.55 10.35 -8.05 10.4 -8.35 10.5 -8.65 10.5 -9.1 10.4 -9.25 10.35 -9.4 10.35 -9.5 10.05 -10.0 9.55 -10.35 9.5 -10.5 9.3 -10.55 8.75 -10.75 8.6 -10.8 Q6.9 -10.7 5.6 -9.45 4.4 -11.7 2.4 -13.05 L3.35 -13.1 3.5 -13.2 3.5 -13.35 M6.15 -8.35 L6.0 -8.8 5.95 -8.9 6.0 -9.1 6.1 -9.15 6.2 -9.25 Q6.85 -9.8 7.6 -10.0 L7.7 -10.1 8.1 -10.15 8.95 -10.05 9.0 -10.0 9.75 -9.2 9.75 -9.1 9.95 -8.85 10.0 -8.8 10.0 -8.65 9.9 -8.35 9.9 -8.05 9.8 -7.9 9.0 -7.25 9.0 -7.15 8.4 -7.1 8.3 -7.1 6.75 -7.3 6.5 -7.8 6.15 -8.35 M5.7 -8.15 L6.4 -6.95 6.4 -6.6 6.35 -5.5 6.35 -5.35 5.1 -5.7 2.2 -6.4 1.8 -6.5 -0.45 -6.8 -0.55 -6.85 -0.6 -6.85 -1.15 -6.85 -1.2 -6.85 -1.9 -6.8 -2.0 -6.8 -2.1 -6.8 -2.45 -6.8 -2.45 -6.75 -2.45 -6.8 -3.3 -6.7 -3.4 -6.65 -4.4 -6.6 Q-6.15 -6.55 -7.05 -5.3 L-7.0 -5.25 -6.85 -5.2 -6.55 -5.1 -5.85 -5.6 -2.25 -6.15 -2.2 -6.2 -1.2 -6.3 -0.9 -6.3 -0.45 -6.25 0.65 -6.1 1.65 -5.95 2.3 -5.8 6.35 -4.9 6.25 -4.3 Q5.85 -3.3 5.0 -2.7 L4.15 -2.0 4.05 -1.9 4.0 -1.85 3.25 -1.45 3.2 -1.4 3.1 -1.25 1.05 -0.55 1.0 -0.5 -2.9 -0.85 -5.15 -2.1 Q-5.75 -2.4 -5.9 -3.0 L-6.0 -3.25 -6.0 -3.3 -7.0 -4.85 -7.1 -5.05 -7.55 -7.9 -7.55 -7.95 -7.55 -8.0 -7.55 -8.1 -7.45 -8.4 -7.05 -9.7 -7.0 -9.7 -7.0 -9.9 -6.85 -10.15 -6.0 -10.95 -5.95 -11.05 -3.65 -12.6 -3.6 -12.7 -3.05 -12.85 1.35 -13.15 Q3.15 -12.1 4.35 -10.5 L5.4 -8.7 5.65 -8.25 5.7 -8.15 M-8.15 -8.45 L-8.35 -8.25 -8.45 -8.1 -9.0 -8.0 -9.05 -8.0 -9.75 -7.7 -10.2 -7.6 -11.25 -7.7 -12.0 -8.05 -12.1 -8.1 -12.35 -8.4 -12.45 -8.45 -12.45 -8.55 -12.55 -8.95 -12.55 -9.0 -12.3 -10.8 -12.3 -10.85 -12.2 -11.0 -12.15 -11.2 -12.0 -11.35 -11.85 -11.5 -11.85 -11.6 -11.45 -12.15 -11.3 -12.3 -11.25 -12.35 -11.2 -12.4 -11.15 -12.4 -11.15 -12.45 -11.05 -12.45 -10.75 -12.55 -9.0 -12.45 -8.45 -11.85 Q-7.75 -11.35 -7.45 -10.45 L-7.35 -10.4 -7.35 -10.35 -7.4 -10.15 -7.55 -9.95 -7.85 -9.05 -8.1 -8.5 -8.15 -8.45 M1.45 -5.4 L1.25 -5.65 1.2 -5.65 Q0.95 -5.75 0.9 -5.45 L0.95 -5.2 1.4 -5.25 1.45 -5.4 M-0.4 -5.8 L-0.5 -5.65 -0.2 -5.15 0.1 -5.25 0.1 -5.35 0.2 -5.4 0.15 -5.75 0.0 -5.85 -0.2 -5.9 -0.4 -5.8" fill="#000000" fill-rule="evenodd" stroke="none"/>
      <path d="M6.5 -7.8 L6.75 -7.3 8.3 -7.1 8.4 -7.1 9.0 -7.15 9.0 -7.25 9.8 -7.9 9.9 -8.05 9.9 -8.35 10.0 -8.65 10.0 -8.8 9.95 -8.85 9.75 -9.1 9.75 -9.2 9.0 -10.0 8.95 -10.05 8.1 -10.15 7.7 -10.1 7.6 -10.0 Q6.85 -9.8 6.2 -9.25 L6.1 -9.15 6.0 -9.1 5.95 -8.9 6.0 -8.8 6.15 -8.35 6.55 -8.8 Q6.9 -9.2 7.4 -9.35 8.2 -9.45 8.75 -8.85 L8.75 -8.8 8.85 -8.6 8.8 -8.5 8.85 -8.5 8.85 -8.35 8.85 -8.3 8.7 -7.85 8.3 -7.6 7.1 -7.5 6.65 -7.75 6.5 -7.8 M5.7 -8.15 L5.6 -8.25 5.65 -8.25 5.4 -8.7 4.35 -10.5 Q3.15 -12.1 1.35 -13.15 L-3.05 -12.85 -3.6 -12.7 -3.65 -12.6 -5.95 -11.05 -6.0 -10.95 -6.85 -10.15 -7.0 -9.9 -7.0 -9.7 -7.05 -9.7 -7.45 -8.4 -7.55 -8.1 -7.55 -8.0 -7.55 -7.95 -7.55 -7.9 -7.1 -5.05 -7.0 -4.85 -7.0 -4.95 -6.85 -5.2 -7.0 -5.25 -7.05 -5.3 Q-6.15 -6.55 -4.4 -6.6 L-3.4 -6.65 -3.3 -6.7 -2.45 -6.8 -2.45 -6.75 -2.45 -6.8 -2.1 -6.8 -2.0 -6.8 -1.9 -6.8 -1.2 -6.85 -1.15 -6.85 -0.6 -6.85 -0.55 -6.85 -0.45 -6.8 1.8 -6.5 2.2 -6.4 5.1 -5.7 6.35 -5.35 6.35 -5.5 6.4 -6.6 6.4 -6.95 5.7 -8.15 M-7.45 -10.45 Q-7.75 -11.35 -8.45 -11.85 L-9.0 -12.45 -10.75 -12.55 -11.05 -12.45 -11.15 -12.45 -11.15 -12.4 -11.2 -12.4 -11.25 -12.35 -11.3 -12.3 -11.45 -12.15 -11.85 -11.6 -11.85 -11.5 -12.0 -11.35 -12.15 -11.2 -12.2 -11.0 -12.3 -10.85 -12.3 -10.8 -12.55 -9.0 -12.55 -8.95 -12.45 -8.55 -12.45 -8.45 -12.35 -8.4 -12.1 -8.1 -12.0 -8.05 -11.25 -7.7 -10.2 -7.6 -9.75 -7.7 -9.05 -8.0 -9.0 -8.0 -8.45 -8.1 -8.35 -8.25 -8.15 -8.45 Q-9.1 -8.3 -9.95 -8.9 L-10.1 -8.95 -10.35 -9.25 -10.5 -9.45 -10.6 -9.6 -10.65 -9.75 -10.7 -9.85 -10.6 -10.3 -10.5 -10.45 -10.45 -10.5 -10.2 -10.65 -10.1 -10.75 -10.0 -10.8 -9.6 -11.05 Q-8.75 -11.15 -8.1 -10.55 L-8.05 -10.5 -8.0 -10.45 -8.0 -10.4 -7.7 -10.15 -7.65 -10.1 -7.6 -10.0 -7.6 -9.95 -7.55 -9.95 -7.4 -10.15 -7.35 -10.35 -7.35 -10.4 -7.45 -10.45 M-11.05 -10.6 L-11.1 -10.5 -11.15 -10.45 -11.2 -10.35 -11.05 -10.6" fill="#95632d" fill-rule="evenodd" stroke="none"/>
      <path d="M6.5 -7.8 L6.65 -7.75 7.1 -7.5 8.3 -7.6 8.7 -7.85 8.85 -8.3 8.85 -8.35 8.85 -8.5 8.8 -8.5 8.85 -8.6 8.75 -8.8 8.75 -8.85 Q8.2 -9.45 7.4 -9.35 6.9 -9.2 6.55 -8.8 L6.15 -8.35 6.5 -7.8 M5.65 -8.25 L5.6 -8.25 5.7 -8.15 5.65 -8.25 M-6.85 -5.2 L-7.0 -4.95 -7.0 -4.85 -6.0 -3.3 -6.0 -3.25 -5.9 -3.0 Q-5.75 -2.4 -5.15 -2.1 L-2.9 -0.85 1.0 -0.5 1.05 -0.55 3.1 -1.25 3.2 -1.4 3.25 -1.45 4.0 -1.85 4.05 -1.9 4.15 -2.0 5.0 -2.7 Q5.85 -3.3 6.25 -4.3 L6.35 -4.9 2.3 -5.8 1.65 -5.95 0.65 -6.1 -0.45 -6.25 -0.9 -6.3 -1.2 -6.3 -2.2 -6.2 -2.25 -6.15 -5.85 -5.6 -6.55 -5.1 -6.85 -5.2 M-7.55 -9.95 L-7.6 -9.95 -7.6 -10.0 -7.65 -10.1 -7.7 -10.15 -8.0 -10.4 -8.0 -10.45 -8.05 -10.5 -8.1 -10.55 Q-8.75 -11.15 -9.6 -11.05 L-10.0 -10.8 -10.1 -10.75 -10.2 -10.65 -10.45 -10.5 -10.5 -10.45 -10.6 -10.3 -10.7 -9.85 -10.65 -9.75 -10.6 -9.6 -10.5 -9.45 -10.35 -9.25 -10.1 -8.95 -9.95 -8.9 Q-9.1 -8.3 -8.15 -8.45 L-8.1 -8.5 -7.85 -9.05 -7.55 -9.95 M-11.05 -10.6 L-11.2 -10.35 -11.15 -10.45 -11.1 -10.5 -11.05 -10.6 M-0.4 -5.8 L-0.2 -5.9 0.0 -5.85 0.15 -5.75 0.2 -5.4 0.1 -5.35 0.1 -5.25 -0.2 -5.15 -0.5 -5.65 -0.4 -5.8 M1.45 -5.4 L1.4 -5.25 0.95 -5.2 0.9 -5.45 Q0.95 -5.75 1.2 -5.65 L1.25 -5.65 1.45 -5.4" fill="#d79e4a" fill-rule="evenodd" stroke="none"/>
    </g>
    <g id="sprite0" transform="matrix(1.0, 0.0, 0.0, 1.0, 16.2, 5.05)">
      <use ffdec:characterId="5" height="4.5" transform="matrix(1.0, 0.0, 0.0, 1.0, -7.65, -2.25)" width="15.3" xlink:href="#shape1"/>
    </g>
    <g id="shape1" transform="matrix(1.0, 0.0, 0.0, 1.0, 7.65, 2.25)">
      <path d="M7.6 -0.15 L7.6 0.5 Q0.1 3.55 -7.65 1.25 L-7.5 0.6 -6.9 -0.25 -6.15 -1.0 Q-1.9 -0.55 0.6 -2.25 L3.85 -1.55 7.1 -1.0 7.6 -0.15" fill="#000000" fill-rule="evenodd" stroke="none"/>
    </g>
    <g id="sprite1" transform="matrix(1.0, 0.0, 0.0, 1.0, 23.5, 12.3)">
      <use ffdec:characterId="12" height="17.25" transform="matrix(1.0, 0.0, 0.0, 1.0, -21.25, -10.1)" width="34.95" xlink:href="#shape2"/>
      <use ffdec:characterId="14" height="7.8" transform="matrix(1.0, 0.0, 0.0, 1.0, -16.85, -2.6)" width="25.55" xlink:href="#sprite2"/>
      <use ffdec:characterId="15" height="21.6" transform="matrix(1.0, 0.0, 0.0, 1.0, -23.5, -12.3)" width="39.4" xlink:href="#shape4"/>
    </g>
    <g id="shape2" transform="matrix(1.0, 0.0, 0.0, 1.0, 21.25, 10.1)">
      <path d="M5.7 -3.5 L6.05 -3.65 Q8.4 -4.15 10.45 -3.25 14.2 -1.65 13.65 2.6 13.55 3.45 13.05 4.05 L13.0 4.05 Q12.15 5.5 9.65 5.75 4.25 6.25 1.75 1.95 L1.6 1.85 1.5 1.45 1.45 1.4 1.4 0.8 1.4 -0.35 Q1.6 -1.85 3.15 -2.45 L5.7 -3.5" fill="#ffffff" fill-rule="evenodd" stroke="none"/>
      <path d="M-20.35 -6.45 L-19.75 -7.25 Q-16.65 -9.65 -12.7 -9.9 -7.05 -10.85 -3.5 -6.9 -0.55 -3.6 -1.1 0.95 -1.35 3.2 -3.25 4.65 -5.15 6.2 -7.5 6.7 L-12.95 7.15 -14.6 6.7 Q-15.35 6.3 -16.15 6.0 -17.95 5.4 -18.85 3.85 -20.95 2.45 -21.2 -0.1 -21.5 -3.5 -20.35 -6.45" fill="#ffffff" fill-rule="evenodd" stroke="none"/>
    </g>
    <g id="sprite2" transform="matrix(1.0, 0.0, 0.0, 1.0, 2.75, 0.0)">
      <use ffdec:characterId="13" height="5.35" transform="matrix(1.0, 0.0, 0.0, 1.0, 0.0, 0.0)" width="22.8" xlink:href="#shape3"/>
    </g>
    <g id="shape3" transform="matrix(1.0, 0.0, 0.0, 1.0, 2.75, -2.45)">
      <path d="M20.05 6.1 Q20.1 6.9 19.55 7.35 L18.6 7.8 18.5 7.8 17.9 7.65 17.35 7.5 16.75 6.95 Q16.25 6.45 16.35 5.8 L16.4 5.75 16.5 5.45 17.2 4.75 17.55 4.7 Q18.9 4.3 19.7 5.2 20.05 5.55 20.05 6.1" fill="#000000" fill-rule="evenodd" stroke="none"/>
      <path d="M1.1 3.95 Q1.3 5.05 0.7 5.9 0.5 6.25 0.0 6.3 -2.4 6.65 -2.7 4.4 -2.9 3.0 -1.65 2.55 -0.55 2.3 0.25 2.8 0.9 3.25 1.1 3.95" fill="#000000" fill-rule="evenodd" stroke="none"/>
    </g>
    <g id="shape4" transform="matrix(1.0, 0.0, 0.0, 1.0, 23.5, 12.3)">
      <path d="M1.4 -3.5 L1.95 -3.95 Q3.6 -5.2 5.4 -5.65 L5.45 -5.75 10.95 -5.5 11.45 -4.7 11.5 -4.6 11.9 -4.5 11.95 -4.5 12.1 -4.4 12.9 -3.85 Q15.7 -1.75 15.9 1.25 L15.65 2.75 15.55 3.1 12.35 6.85 Q11.8 6.95 11.35 7.3 L8.15 7.3 3.75 6.35 2.35 5.85 2.05 5.65 -0.15 2.7 -0.2 2.05 -0.25 0.25 -0.1 -1.4 -0.05 -1.75 1.1 -3.5 1.4 -3.5 M3.15 -2.45 Q1.6 -1.85 1.4 -0.35 L1.4 0.8 1.45 1.4 1.5 1.45 1.6 1.85 1.75 1.95 Q4.25 6.25 9.65 5.75 12.15 5.5 13.0 4.05 L13.05 4.05 Q13.55 3.45 13.65 2.6 14.2 -1.65 10.45 -3.25 8.4 -4.15 6.05 -3.65 L5.7 -3.5 3.15 -2.45" fill="#000000" fill-rule="evenodd" stroke="none"/>
      <path d="M0.85 -1.4 L0.85 1.3 0.9 1.5 Q0.15 3.1 -0.35 4.8 L-1.85 6.1 -2.9 7.0 Q-5.4 8.6 -8.3 9.25 L-8.35 9.3 -17.8 8.0 -18.55 7.25 -21.55 4.25 -22.3 3.5 -22.3 2.95 Q-23.65 1.2 -23.5 -1.2 L-23.15 -4.4 -22.75 -6.1 -22.3 -6.6 -22.3 -7.0 -21.2 -8.55 -19.65 -9.75 Q-16.8 -11.35 -14.05 -12.25 -4.75 -13.0 -0.3 -5.45 -0.2 -4.75 0.35 -4.0 L0.85 -1.4 M-20.35 -6.45 Q-21.5 -3.5 -21.2 -0.1 -20.95 2.45 -18.85 3.85 -17.95 5.4 -16.15 6.0 -15.35 6.3 -14.6 6.7 L-12.95 7.15 -7.5 6.7 Q-5.15 6.2 -3.25 4.65 -1.35 3.2 -1.1 0.95 -0.55 -3.6 -3.5 -6.9 -7.05 -10.85 -12.7 -9.9 -16.65 -9.65 -19.75 -7.25 L-20.35 -6.45" fill="#000000" fill-rule="evenodd" stroke="none"/>
    </g>
  </defs>
</svg>
