<?xml version="1.0" encoding="UTF-8" standalone="no"?>
<svg xmlns:ffdec="https://www.free-decompiler.com/flash" xmlns:xlink="http://www.w3.org/1999/xlink" ffdec:objectType="frame" height="31.0px" width="216.0px" xmlns="http://www.w3.org/2000/svg">
  <g transform="matrix(1.0, 0.0, 0.0, 1.0, 0.0, 0.0)">
    <use ffdec:characterId="459" height="31.0" transform="matrix(1.0, 0.0, 0.0, 1.0, 0.0, 0.0)" width="216.0" xlink:href="#shape0"/>
    <use ffdec:characterId="461" height="12.7" transform="matrix(1.0, 0.0, 0.0, 1.0, 17.9, 10.6)" width="187.15" xlink:href="#text0"/>
  </g>
  <defs>
    <g id="shape0" transform="matrix(1.0, 0.0, 0.0, 1.0, 0.0, 0.0)">
      <path d="M14.25 25.3 L14.0 26.0 17.75 26.0 Q15.85 25.95 14.25 25.3 M14.95 5.45 L17.8 5.0 14.95 5.0 14.95 5.45 M197.05 26.0 L198.05 26.0 201.8 26.0 201.6 25.3 Q199.95 25.95 198.05 26.0 L198.05 25.95 197.05 26.0 M198.0 5.0 L200.9 5.45 201.5 5.7 201.8 5.0 198.0 5.0 M216.0 10.0 L216.0 21.0 Q216.0 25.15 213.05 28.05 210.15 31.0 206.0 31.0 L10.0 31.0 Q5.85 31.0 2.9 28.05 0.0 25.15 0.0 21.0 L0.0 10.0 Q0.0 5.85 2.9 2.9 4.7 1.15 6.95 0.45 8.35 0.0 10.0 0.0 L206.0 0.0 207.75 0.15 Q210.8 0.65 213.05 2.9 216.0 5.85 216.0 10.0" fill="#ffffff" fill-rule="evenodd" stroke="none"/>
      <path d="M198.0 3.0 L201.8 3.0 204.9 3.45 Q207.1 4.15 208.9 5.9 211.8 8.85 211.8 13.0 L211.8 18.0 Q211.8 22.15 208.9 25.05 205.95 28.0 201.8 28.0 L198.05 28.0 Q202.05 27.9 204.9 25.05 207.8 22.15 207.8 18.0 L207.8 13.0 Q207.8 8.85 204.9 5.9 203.1 4.15 200.9 3.45 L198.0 3.0" fill="#66cc00" fill-rule="evenodd" stroke="none"/>
      <path d="M17.8 3.0 L14.0 3.0 10.9 3.45 Q8.7 4.15 6.9 5.9 4.0 8.85 4.0 13.0 L4.0 18.0 Q4.0 22.15 6.9 25.05 9.85 28.0 14.0 28.0 L17.75 28.0 Q13.75 27.9 10.9 25.05 8.0 22.15 8.0 18.0 L8.0 13.0 Q8.0 8.85 10.9 5.9 12.7 4.15 14.9 3.45 L17.8 3.0" fill="#66cc00" fill-rule="evenodd" stroke="none"/>
    </g>
    <g id="text0" transform="matrix(1.0, 0.0, 0.0, 1.0, -67.75, -3.6)">
      <g transform="matrix(1.0, 0.0, 0.0, 1.0, 53.8, 0.0)">
        <use fill="#ff6600" height="12.7" transform="matrix(0.2734, 0.0, 0.0, 0.2734, 14.0, 14.0)" width="187.15" xlink:href="#font_VAGRounded_BT_O0"/>
        <use fill="#ff6600" height="12.7" transform="matrix(0.2734, 0.0, 0.0, 0.2734, 24.55, 14.0)" width="187.15" xlink:href="#font_VAGRounded_BT_P0"/>
        <use fill="#ff6600" height="12.7" transform="matrix(0.2734, 0.0, 0.0, 0.2734, 33.05, 14.0)" width="187.15" xlink:href="#font_VAGRounded_BT_P0"/>
        <use fill="#ff6600" height="12.7" transform="matrix(0.2734, 0.0, 0.0, 0.2734, 41.55, 14.0)" width="187.15" xlink:href="#font_VAGRounded_BT_O0"/>
        <use fill="#ff6600" height="12.7" transform="matrix(0.2734, 0.0, 0.0, 0.2734, 52.1, 14.0)" width="187.15" xlink:href="#font_VAGRounded_BT_N0"/>
        <use fill="#ff6600" height="12.7" transform="matrix(0.2734, 0.0, 0.0, 0.2734, 62.55, 14.0)" width="187.15" xlink:href="#font_VAGRounded_BT_E0"/>
        <use fill="#ff6600" height="12.7" transform="matrix(0.2734, 0.0, 0.0, 0.2734, 69.6, 14.0)" width="187.15" xlink:href="#font_VAGRounded_BT_N0"/>
        <use fill="#ff6600" height="12.7" transform="matrix(0.2734, 0.0, 0.0, 0.2734, 80.05, 14.0)" width="187.15" xlink:href="#font_VAGRounded_BT_T0"/>
        <use fill="#ff6600" height="12.7" transform="matrix(0.2734, 0.0, 0.0, 0.2734, 91.2, 14.0)" width="187.15" xlink:href="#font_VAGRounded_BT_H0"/>
        <use fill="#ff6600" height="12.7" transform="matrix(0.2734, 0.0, 0.0, 0.2734, 101.65, 14.0)" width="187.15" xlink:href="#font_VAGRounded_BT_A0"/>
        <use fill="#ff6600" height="12.7" transform="matrix(0.2734, 0.0, 0.0, 0.2734, 110.4, 14.0)" width="187.15" xlink:href="#font_VAGRounded_BT_S0"/>
        <use fill="#ff6600" height="12.7" transform="matrix(0.2734, 0.0, 0.0, 0.2734, 122.65, 14.0)" width="187.15" xlink:href="#font_VAGRounded_BT_N0"/>
        <use fill="#ff6600" height="12.7" transform="matrix(0.2734, 0.0, 0.0, 0.2734, 133.1, 14.0)" width="187.15" xlink:href="#font_VAGRounded_BT_O0"/>
        <use fill="#ff6600" height="12.7" transform="matrix(0.2734, 0.0, 0.0, 0.2734, 148.2, 14.0)" width="187.15" xlink:href="#font_VAGRounded_BT_S0"/>
        <use fill="#ff6600" height="12.7" transform="matrix(0.2734, 0.0, 0.0, 0.2734, 155.9, 14.0)" width="187.15" xlink:href="#font_VAGRounded_BT_N0"/>
        <use fill="#ff6600" height="12.7" transform="matrix(0.2734, 0.0, 0.0, 0.2734, 166.35, 14.0)" width="187.15" xlink:href="#font_VAGRounded_BT_O0"/>
        <use fill="#ff6600" height="12.7" transform="matrix(0.2734, 0.0, 0.0, 0.2734, 176.9, 14.0)" width="187.15" xlink:href="#font_VAGRounded_BT_W0"/>
        <use fill="#ff6600" height="12.7" transform="matrix(0.2734, 0.0, 0.0, 0.2734, 189.7, 14.0)" width="187.15" xlink:href="#font_VAGRounded_BT__1"/>
      </g>
    </g>
    <g id="font_VAGRounded_BT_O0">
      <path d="M1.45 -18.15 L1.45 -18.15 Q1.45 -9.5 6.35 -4.2 11.25 1.1 19.3 1.1 27.35 1.1 32.3 -4.2 37.25 -9.5 37.25 -18.15 37.25 -26.75 32.3 -32.1 27.35 -37.4 19.3 -37.4 11.3 -37.4 6.4 -32.1 1.45 -26.8 1.45 -18.15 M10.45 -18.05 L10.45 -18.05 Q10.45 -23.35 12.85 -26.45 15.25 -29.55 19.3 -29.55 23.35 -29.55 25.75 -26.45 28.15 -23.35 28.15 -18.05 28.15 -12.95 25.75 -9.9 23.3 -6.85 19.3 -6.85 15.3 -6.85 12.9 -9.9 10.45 -12.95 10.45 -18.05" fill-rule="evenodd" stroke="none"/>
    </g>
    <g id="font_VAGRounded_BT_P0">
      <path d="M11.55 -19.2 L11.55 -28.75 15.1 -28.75 Q18.0 -28.75 19.4 -27.6 20.8 -26.45 20.8 -24.0 20.8 -21.6 19.35 -20.4 17.95 -19.2 15.1 -19.2 L11.55 -19.2 M11.55 -5.4 L11.55 -11.65 17.1 -11.65 Q23.05 -11.65 26.4 -14.95 29.75 -18.2 29.75 -24.0 29.75 -29.7 26.2 -33.05 22.6 -36.4 16.45 -36.4 L8.95 -36.4 Q5.8 -36.4 4.5 -35.15 3.25 -33.9 3.25 -30.55 L3.25 -5.4 Q3.25 -2.45 4.25 -1.0 5.3 0.45 7.4 0.45 9.5 0.45 10.5 -1.0 11.55 -2.45 11.55 -5.4" fill-rule="evenodd" stroke="none"/>
    </g>
    <g id="font_VAGRounded_BT_N0">
      <path d="M11.55 -5.4 L11.55 -22.15 26.55 -2.35 Q27.75 -0.75 28.85 -0.05 30.0 0.7 31.3 0.7 33.25 0.7 34.15 -0.55 35.1 -1.85 35.1 -4.5 L35.1 -30.95 Q35.1 -33.95 34.05 -35.4 33.05 -36.85 30.95 -36.85 28.85 -36.85 27.8 -35.4 26.8 -33.95 26.8 -30.95 L26.8 -13.9 11.5 -34.15 9.35 -36.2 Q8.35 -36.8 7.1 -36.8 5.15 -36.8 4.2 -35.45 3.25 -34.05 3.25 -31.25 L3.25 -5.4 Q3.25 -2.45 4.25 -1.0 5.3 0.45 7.4 0.45 9.5 0.45 10.5 -1.0 11.55 -2.45 11.55 -5.4" fill-rule="evenodd" stroke="none"/>
    </g>
    <g id="font_VAGRounded_BT_E0">
      <path d="M18.3 -36.4 L8.95 -36.4 Q5.8 -36.4 4.5 -35.15 3.25 -33.9 3.25 -30.55 L3.25 -5.2 Q3.25 -2.2 4.45 -1.1 5.65 0.0 8.85 0.0 L18.55 0.0 Q21.55 0.0 23.0 -0.95 24.45 -1.9 24.45 -3.85 24.45 -5.75 23.0 -6.7 21.55 -7.65 18.55 -7.65 L11.55 -7.65 11.55 -14.5 17.35 -14.5 Q20.35 -14.5 21.8 -15.4 23.25 -16.35 23.25 -18.3 23.25 -20.25 21.8 -21.2 20.35 -22.15 17.35 -22.15 L11.55 -22.15 11.55 -28.65 18.3 -28.65 Q21.25 -28.65 22.75 -29.6 24.2 -30.55 24.2 -32.5 24.2 -34.45 22.7 -35.4 21.25 -36.4 18.3 -36.4" fill-rule="evenodd" stroke="none"/>
    </g>
    <g id="font_VAGRounded_BT_T0">
      <path d="M7.95 -28.65 L7.95 -5.4 Q7.95 -2.45 8.95 -1.0 10.0 0.45 12.1 0.45 14.2 0.45 15.2 -1.0 16.25 -2.45 16.25 -5.4 L16.25 -28.65 19.3 -28.65 Q22.3 -28.65 23.75 -29.6 25.2 -30.55 25.2 -32.5 25.2 -34.45 23.75 -35.4 22.25 -36.4 19.3 -36.4 L4.9 -36.4 Q1.9 -36.4 0.45 -35.4 -1.0 -34.45 -1.0 -32.5 -1.0 -30.55 0.45 -29.6 1.9 -28.65 4.9 -28.65 L7.95 -28.65" fill-rule="evenodd" stroke="none"/>
    </g>
    <g id="font_VAGRounded_BT_H0">
      <path d="M11.55 -14.7 L26.8 -14.7 26.8 -5.4 Q26.8 -2.45 27.8 -1.0 28.85 0.45 30.95 0.45 33.05 0.45 34.05 -1.0 35.1 -2.45 35.1 -5.4 L35.1 -30.95 Q35.1 -33.95 34.05 -35.4 33.05 -36.85 30.95 -36.85 28.85 -36.85 27.8 -35.4 26.8 -33.95 26.8 -30.95 L26.8 -22.35 11.55 -22.35 11.55 -30.95 Q11.55 -33.95 10.5 -35.4 9.5 -36.85 7.4 -36.85 5.3 -36.85 4.25 -35.4 3.25 -33.95 3.25 -30.95 L3.25 -5.4 Q3.25 -2.45 4.25 -1.0 5.3 0.45 7.4 0.45 9.5 0.45 10.5 -1.0 11.55 -2.45 11.55 -5.4 L11.55 -14.7" fill-rule="evenodd" stroke="none"/>
    </g>
    <g id="font_VAGRounded_BT_A0">
      <path d="M11.55 -14.5 L16.05 -28.0 20.25 -14.5 11.55 -14.5 M9.2 -6.85 L22.65 -6.85 23.65 -3.45 Q24.3 -1.4 25.35 -0.4 26.4 0.6 28.0 0.6 29.8 0.6 30.95 -0.5 32.1 -1.6 32.1 -3.3 L32.0 -4.45 31.55 -5.95 22.35 -32.1 Q21.5 -34.45 19.95 -35.65 18.35 -36.9 16.25 -36.9 14.0 -36.9 12.45 -35.6 10.9 -34.3 9.9 -31.55 L0.4 -5.8 0.1 -4.7 0.0 -3.4 Q0.0 -1.7 1.15 -0.55 2.25 0.6 3.95 0.6 5.3 0.6 6.35 -0.35 7.35 -1.35 7.95 -3.15 L9.2 -6.85" fill-rule="evenodd" stroke="none"/>
    </g>
    <g id="font_VAGRounded_BT_S0">
      <path d="M27.2 -11.25 L27.2 -11.25 Q27.2 -15.25 24.8 -17.9 22.4 -20.55 17.15 -22.3 L15.4 -22.85 Q10.55 -24.4 10.55 -26.6 10.55 -28.0 11.65 -28.85 12.75 -29.75 14.6 -29.75 L17.95 -29.1 21.1 -28.45 Q22.85 -28.45 23.85 -29.4 24.85 -30.35 24.85 -32.0 24.85 -34.3 22.05 -35.8 19.25 -37.35 14.9 -37.35 9.05 -37.35 5.4 -34.15 1.7 -30.9 1.7 -25.85 1.7 -21.9 4.0 -19.55 6.25 -17.2 12.0 -15.5 15.95 -14.3 17.15 -13.25 18.35 -12.2 18.35 -10.5 18.35 -8.9 17.15 -7.8 16.0 -6.75 14.25 -6.75 12.2 -6.75 9.25 -7.65 L5.4 -8.6 Q3.5 -8.6 2.4 -7.55 1.3 -6.55 1.3 -4.85 1.3 -2.5 4.75 -0.75 8.2 1.0 13.05 1.0 19.4 1.0 23.3 -2.4 27.2 -5.8 27.2 -11.25" fill-rule="evenodd" stroke="none"/>
    </g>
    <g id="font_VAGRounded_BT_W0">
      <path d="M18.2 -4.65 L23.3 -24.95 28.75 -4.2 Q29.35 -1.8 30.7 -0.65 32.0 0.45 34.25 0.45 36.75 0.45 37.95 -0.6 39.2 -1.7 40.0 -5.0 L46.35 -30.55 46.6 -31.8 46.65 -33.0 Q46.65 -34.7 45.5 -35.75 44.35 -36.85 42.55 -36.85 40.75 -36.85 39.8 -35.9 38.8 -34.9 38.35 -32.7 L34.0 -10.15 28.05 -33.25 Q27.6 -35.05 26.5 -35.95 25.35 -36.85 23.55 -36.85 21.75 -36.85 20.6 -36.0 19.4 -35.1 18.95 -33.35 L12.9 -10.15 8.55 -33.25 Q8.25 -35.0 7.2 -35.95 6.15 -36.9 4.55 -36.9 2.7 -36.9 1.55 -35.9 0.35 -34.85 0.35 -33.15 L0.4 -32.0 0.45 -31.35 6.5 -5.0 Q7.2 -2.05 8.5 -0.8 9.8 0.45 12.2 0.45 14.5 0.45 16.05 -0.85 17.55 -2.15 18.2 -4.65" fill-rule="evenodd" stroke="none"/>
    </g>
    <g id="font_VAGRounded_BT__1">
      <path d="M3.15 -3.4 L3.15 -3.4 Q3.15 -1.55 4.45 -0.2 5.75 1.1 7.6 1.1 9.4 1.1 10.75 -0.25 12.05 -1.55 12.05 -3.4 12.05 -5.25 10.75 -6.55 9.45 -7.85 7.6 -7.85 5.75 -7.85 4.45 -6.55 3.15 -5.3 3.15 -3.4 M11.6 -16.55 L11.6 -31.6 Q11.6 -34.55 10.6 -35.95 9.6 -37.4 7.6 -37.4 5.6 -37.4 4.6 -35.95 3.6 -34.5 3.6 -31.6 L3.6 -16.55 Q3.6 -13.55 4.6 -12.1 5.6 -10.65 7.6 -10.65 9.6 -10.65 10.6 -12.1 11.6 -13.55 11.6 -16.55" fill-rule="evenodd" stroke="none"/>
    </g>
  </defs>
</svg>
