<?xml version="1.0" encoding="UTF-8" standalone="no"?>
<svg xmlns:ffdec="https://www.free-decompiler.com/flash" xmlns:xlink="http://www.w3.org/1999/xlink" ffdec:objectType="frame" height="756.85px" width="166.4px" xmlns="http://www.w3.org/2000/svg">
  <g transform="matrix(1.0, 0.0, 0.0, 1.0, 25.9, 99.2)">
    <use ffdec:characterId="507" height="232.2" id="mcBonusPipeSilhouette" transform="matrix(1.0, 0.0, 0.0, 1.0, -21.35, -41.35)" width="161.85" xlink:href="#sprite0"/>
    <use ffdec:characterId="507" height="232.2" id="mcBonusPipe" transform="matrix(1.0, 0.0, 0.0, 1.0, -21.35, -41.35)" width="161.85" xlink:href="#sprite1"/>
    <use ffdec:characterId="508" height="13.3" transform="matrix(1.6504, 0.0, 0.0, 1.6504, -1.5248, -21.2752)" width="11.35" xlink:href="#shape4"/>
    <use ffdec:characterId="510" height="13.45" transform="matrix(0.9959, -0.083, 0.083, 0.9959, -6.6308, 35.834)" width="12.2" xlink:href="#shape5"/>
    <use ffdec:characterId="510" height="13.45" transform="matrix(0.7246, 0.6848, -0.6848, 0.7246, 0.1177, 261.4679)" width="12.2" xlink:href="#shape6"/>
    <use ffdec:characterId="508" height="13.3" transform="matrix(1.5626, -2.2008, 2.2008, 1.5626, -23.514, 121.7433)" width="11.35" xlink:href="#shape4"/>
    <clipPath id="clipPath0">
      <path d="M 1.9 33.67 L 1.33 33.68 L 0.76 33.7 L 0.21 33.73 L -0.34 33.77 L -0.88 33.82 L -1.41 33.88 L -1.92 33.96 L -2.44 34.05 L -2.94 34.15 L -3.43 34.26 L -3.91 34.38 L -4.39 34.51 L -4.85 34.66 L -5.31 34.82 L -5.75 34.98 L -6.19 35.16 L -6.62 35.36 L -7.04 35.56 L -7.45 35.77 L -7.85 36 L -8.24 36.24 L -8.63 36.49 L -9 36.75 L -9.37 37.03 L -9.72 37.31 L -10.07 37.61 L -10.41 37.92 L -10.74 38.24 L -11.06 38.57 L -11.37 38.91 L -11.67 39.26 L -11.96 39.63 L -12.25 40.01 L -12.52 40.4 L -12.79 40.8 L -13.04 41.21 L -13.29 41.64 L -13.53 42.07 L -13.76 42.52 L -13.98 42.98 L -14.19 43.45 L -14.39 43.94 L -14.59 44.43 L -14.77 44.94 L -14.94 45.45 L -15.11 45.98 L -15.27 46.52 L -15.42 47.08 L -15.55 47.64 L -15.68 48.22 L -15.8 48.8 L -15.92 49.4 L -16.02 50.01 L -16.11 50.64 L -16.2 51.27 L -16.27 51.92 L -16.34 52.57 L -16.4 53.24 L -16.48 54.61 L -16.54 56.03 L -16.55 57.5 L -16.55 349.9 L 57.45 349.9 L 57.45 57.5 L 55.15 56.03 L 52.89 54.61 L 50.67 53.24 L 48.48 51.92 L 46.32 50.64 L 44.21 49.4 L 42.13 48.22 L 40.08 47.08 L 38.08 45.98 L 36.11 44.94 L 34.17 43.94 L 32.27 42.98 L 30.41 42.07 L 28.58 41.21 L 26.79 40.4 L 25.04 39.63 L 23.32 38.91 L 21.64 38.24 L 19.99 37.61 L 18.38 37.03 L 16.81 36.49 L 15.27 36 L 13.77 35.56 L 12.31 35.16 L 10.88 34.82 L 9.49 34.51 L 8.13 34.26 L 7.47 34.15 L 6.81 34.05 L 6.17 33.96 L 5.53 33.88 L 4.9 33.82 L 4.28 33.77 L 3.68 33.73 L 3.07 33.7 L 2.48 33.68 L 1.9 33.67 Z"/>
    </clipPath>
    <g clip-path="url(#clipPath0)">
      <use ffdec:characterId="513" height="332.65" transform="matrix(1.0, 0.0, 0.0, 1.0, 0.0, 0.0)" width="33.25" xlink:href="#shape7"/>
    </g>
    <clipPath id="clipPath1">
      <path d="M 1.52 34.95 L 0.95 34.96 L 0.39 34.97 L -0.17 35 L -0.71 35.04 L -1.25 35.09 L -1.78 35.15 L -2.3 35.22 L -2.8 35.3 L -3.3 35.4 L -3.79 35.5 L -4.28 35.62 L -4.75 35.74 L -5.21 35.88 L -5.66 36.03 L -6.11 36.19 L -6.54 36.36 L -6.97 36.54 L -7.38 36.73 L -7.79 36.94 L -8.19 37.15 L -8.58 37.38 L -8.96 37.61 L -9.33 37.86 L -9.69 38.12 L -10.04 38.39 L -10.38 38.67 L -10.72 38.96 L -11.04 39.27 L -11.35 39.58 L -11.66 39.9 L -11.96 40.24 L -12.24 40.59 L -12.52 40.95 L -12.79 41.31 L -13.05 41.69 L -13.3 42.08 L -13.54 42.49 L -13.77 42.9 L -13.99 43.32 L -14.21 43.76 L -14.41 44.2 L -14.61 44.66 L -14.79 45.13 L -14.97 45.61 L -15.13 46.1 L -15.29 46.6 L -15.44 47.11 L -15.58 47.63 L -15.71 48.17 L -15.83 48.71 L -15.94 49.27 L -16.04 49.84 L -16.14 50.41 L -16.22 51 L -16.3 51.6 L -16.36 52.21 L -16.42 52.84 L -16.46 53.47 L -16.53 54.77 L -16.56 56.11 L -16.55 57.5 L -16.55 349.9 L 57.45 349.9 L 57.45 57.5 L 55.13 56.11 L 52.85 54.77 L 50.6 53.47 L 48.39 52.21 L 46.22 51 L 44.08 49.84 L 41.98 48.71 L 39.92 47.63 L 37.9 46.6 L 35.91 45.61 L 33.96 44.66 L 32.04 43.76 L 30.17 42.9 L 28.33 42.08 L 26.52 41.31 L 24.76 40.59 L 23.03 39.9 L 21.33 39.27 L 19.68 38.67 L 18.06 38.12 L 16.48 37.61 L 14.94 37.15 L 13.43 36.73 L 11.96 36.36 L 10.52 36.03 L 9.13 35.74 L 7.77 35.5 L 6.45 35.3 L 5.16 35.15 L 4.53 35.09 L 3.91 35.04 L 3.3 35 L 2.7 34.97 L 2.11 34.96 L 1.52 34.95 Z"/>
    </clipPath>
    <g clip-path="url(#clipPath1)">
      <use ffdec:characterId="515" height="333.65" transform="matrix(1.0, 0.0, 0.0, 1.0, -0.75, -0.75)" width="34.75" xlink:href="#shape8"/>
    </g>
  </g>
  <defs>
    <g id="sprite0" transform="matrix(1.0, 0.0, 0.0, 1.0, 46.35, 160.6)">
      <use ffdec:characterId="496" height="59.85" transform="matrix(1.0, 0.0, 0.0, 1.0, -31.8, -14.25)" width="78.75" xlink:href="#shape0"/>
      <use ffdec:characterId="497" height="5.4" transform="matrix(1.0, 0.0, 0.0, 1.0, 19.55, -9.8)" width="5.4" xlink:href="#shape1"/>
      <use ffdec:characterId="497" height="5.4" transform="matrix(1.0, 0.0, 0.0, 1.0, 26.0, -8.6)" width="5.4" xlink:href="#shape1"/>
      <use ffdec:characterId="497" height="5.4" transform="matrix(1.0, 0.0, 0.0, 1.0, 32.85, -8.4)" width="5.4" xlink:href="#shape1"/>
      <use ffdec:characterId="497" height="5.4" transform="matrix(1.0, 0.0, 0.0, 1.0, 39.65, -9.4)" width="5.4" xlink:href="#shape1"/>
    </g>
    <g id="shape0" transform="matrix(1.0, 0.0, 0.0, 1.0, 31.8, 14.25)">
      <path d="M12.85 11.4 L12.85 11.6 12.85 12.1 12.7 12.55 12.9 14.85 12.35 12.65 12.8 11.35 12.85 11.4 M14.1 23.65 L14.15 23.8 14.1 23.7 14.1 23.65 M19.4 33.45 L20.7 34.65 20.85 35.1 21.35 35.25 21.4 35.5 20.85 35.2 19.75 34.1 19.4 33.45 M21.85 35.9 L21.95 36.0 22.0 36.1 22.1 36.3 22.25 36.45 22.3 36.55 22.3 36.6 21.95 36.3 21.85 35.9" fill="#93d1fa" fill-opacity="0.8980392" fill-rule="evenodd" stroke="none"/>
      <path d="M4.45 14.35 L4.35 17.4 4.1 17.8 Q3.45 21.85 3.1 26.15 3.05 20.0 4.15 14.85 L4.45 14.35 M3.25 33.0 L3.45 35.0 3.7 35.4 4.05 38.6 3.95 38.5 3.4 35.1 3.25 33.45 3.25 33.0" fill="#94d2fb" fill-opacity="0.8980392" fill-rule="evenodd" stroke="none"/>
      <path d="M4.55 13.4 Q4.45 13.8 4.5 14.3 L4.45 14.35 4.5 13.35 4.55 13.4" fill="url(#gradient0)" fill-rule="evenodd" stroke="none"/>
      <path d="M14.15 23.8 L15.2 25.85 Q15.85 27.75 16.95 29.1 L19.4 33.45 18.9 33.0 18.75 32.4 Q18.1 31.75 18.0 31.1 L17.85 30.75 17.6 30.4 17.35 30.0 16.95 29.5 15.45 26.8 14.85 25.95 14.8 25.7 14.75 25.55 14.7 25.4 14.65 25.25 14.5 25.1 14.35 24.95 14.15 23.8" fill="url(#gradient1)" fill-rule="evenodd" stroke="none"/>
      <path d="M3.1 26.15 L3.1 26.5 3.25 33.0 2.8 31.75 3.1 26.15" fill="url(#gradient2)" fill-rule="evenodd" stroke="none"/>
      <path d="M5.65 44.5 L5.5 44.5 4.75 43.4 4.05 38.6 4.35 38.9 4.7 41.35 4.9 41.7 5.2 42.3 5.25 43.8 5.65 44.5" fill="url(#gradient3)" fill-rule="evenodd" stroke="none"/>
      <path d="M21.4 35.5 L21.75 35.65 21.85 35.9 21.8 35.85 21.7 35.85 21.65 35.7 21.4 35.5" fill="url(#gradient4)" fill-rule="evenodd" stroke="none"/>
      <path d="M24.85 38.1 L24.65 38.45 23.6 37.85 23.45 37.5 22.55 36.9 22.4 36.75 22.3 36.6 Q23.6 37.5 24.75 38.05 L24.85 38.1" fill="url(#gradient5)" fill-rule="evenodd" stroke="none"/>
      <path d="M12.65 18.45 L12.7 17.85 12.8 15.6 12.9 14.85 Q13.5 18.1 13.45 21.75 L13.75 22.75 13.6 22.4 13.55 22.15 Q13.25 21.9 13.25 21.65 L13.3 20.9 13.0 20.6 12.7 19.3 12.65 18.9 12.65 18.45" fill="url(#gradient6)" fill-rule="evenodd" stroke="none"/>
      <path d="M13.75 22.85 L13.75 22.75 14.1 23.65 14.05 23.6 13.9 23.3 13.85 23.15 13.8 23.0 13.75 22.85" fill="url(#gradient7)" fill-rule="evenodd" stroke="none"/>
      <path d="M20.85 3.75 L20.65 3.35 20.65 3.3 20.55 3.2 20.35 2.8 20.3 2.7 20.2 2.5 20.15 2.45 20.2 2.4 20.3 2.05 20.4 1.6 Q20.8 0.1 19.8 -2.9 22.05 -0.8 23.9 -0.45 L27.7 -0.05 31.6 0.0 35.55 -0.05 39.35 -0.5 43.15 -1.15 Q44.1 -1.45 44.95 -1.9 L45.05 -1.25 44.4 2.0 44.25 3.35 44.2 3.6 44.2 4.0 44.2 4.15 44.2 4.6 44.2 4.9 44.3 6.1 44.3 6.2 44.35 6.35 44.75 7.85 45.95 10.0 Q40.95 14.4 39.65 20.55 39.15 22.9 39.2 25.5 L39.3 27.15 33.45 29.05 32.7 29.35 Q29.85 30.7 27.15 34.4 L24.85 38.1 M24.65 38.45 L24.5 38.65 20.95 38.1 17.7 38.0 15.0 38.35 Q12.65 38.9 11.2 40.25 L11.1 40.3 6.5 44.6 5.65 44.5 M4.75 43.4 L3.75 42.0 2.75 40.95 Q1.85 40.3 0.95 40.35 L-2.75 40.5 -30.15 41.2 M19.6 8.4 L19.75 8.2 21.0 6.15 21.2 5.1 21.1 4.45 M12.85 11.6 Q14.65 13.0 15.7 12.85 L16.35 12.7 Q17.05 12.5 17.6 12.0 18.35 11.25 18.8 9.1 M12.85 11.4 L12.8 11.35 12.35 12.65 12.15 13.15 11.15 14.35 10.55 14.9 Q9.15 15.45 8.0 15.4 L6.3 15.0 5.75 14.65 4.55 13.4 M4.5 13.35 L4.2 12.75 3.9 12.75 3.4 13.6 Q2.45 15.15 0.85 16.4 L-2.75 16.55 -29.6 17.0" fill="none" stroke="#97d6ff" stroke-linecap="round" stroke-linejoin="round" stroke-opacity="0.8980392" stroke-width="2.0"/>
      <path d="M20.85 3.75 L20.65 3.35 20.65 3.3 20.55 3.2 20.35 2.8 20.3 2.7 20.2 2.5 20.15 2.45 20.2 2.4 20.3 2.05 20.4 1.6 Q20.8 0.1 20.35 -1.2 L23.9 -0.45 27.7 -0.05 31.6 0.0 35.55 -0.05 39.35 -0.5 43.15 -1.15 Q44.1 -1.45 44.95 -1.9 L45.05 -1.25 44.4 2.0 44.25 3.35 44.2 3.6 44.2 4.0 44.2 4.15 44.2 4.6 44.2 4.9 44.3 6.1 44.3 6.2 44.35 6.35 41.9 6.35 29.7 5.6 Q25.05 5.05 20.85 3.75" fill="url(#gradient8)" fill-rule="evenodd" stroke="none"/>
      <path d="M44.35 6.35 L44.75 7.85 45.8 9.75 44.2 9.9 Q36.5 9.95 30.1 8.1 29.7 8.0 29.55 7.75 L28.35 7.75 28.0 7.35 25.45 6.6 25.1 6.2 24.1 6.0 23.75 5.6 22.0 5.05 21.25 4.45 21.1 4.4 20.85 3.75 Q25.05 5.05 29.7 5.6 L41.9 6.35 44.35 6.35 M39.65 20.55 Q39.15 22.9 39.2 25.5 L39.25 26.0 38.8 25.95 38.6 25.9 Q36.6 25.7 34.8 24.8 L33.6 24.55 Q32.4 23.8 31.2 23.55 L30.45 23.1 29.9 23.0 29.55 22.6 28.75 22.2 28.55 21.65 Q27.8 21.2 27.4 20.5 26.6 19.0 25.6 18.15 L24.95 17.6 24.9 17.4 Q23.55 16.2 22.7 14.85 L22.35 14.15 22.25 13.9 22.2 13.7 21.8 13.35 Q21.45 12.15 20.45 11.4 L18.9 9.05 19.15 8.85 19.6 8.4 Q22.95 12.85 29.05 16.25 34.2 19.05 39.65 20.55 M27.15 34.4 L24.85 38.1 24.75 38.05 Q23.6 37.5 22.3 36.6 L22.3 36.55 22.25 36.45 22.1 36.3 22.0 36.1 21.95 36.0 21.85 35.9 21.75 35.65 21.4 35.5 21.35 35.25 20.85 35.1 20.7 34.65 19.4 33.45 16.95 29.1 Q15.85 27.75 15.2 25.85 L14.15 23.8 14.1 23.65 13.75 22.75 13.45 21.75 Q13.5 18.1 12.9 14.85 L12.7 12.55 12.85 12.1 12.85 11.4 13.1 11.6 Q13.95 16.15 16.1 20.55 18.25 25.0 21.45 28.8 24.0 31.8 27.15 34.4" fill="#94d2fb" fill-opacity="0.8980392" fill-rule="evenodd" stroke="none"/>
      <path d="M45.8 9.75 L45.95 10.0 Q40.95 14.4 39.65 20.55 34.2 19.05 29.05 16.25 22.95 12.85 19.6 8.4 L19.75 8.2 21.0 6.15 21.2 5.1 21.1 4.45 21.1 4.4 21.25 4.45 22.0 5.05 23.75 5.6 24.1 6.0 25.1 6.2 25.45 6.6 28.0 7.35 28.35 7.75 29.55 7.75 Q29.7 8.0 30.1 8.1 36.5 9.95 44.2 9.9 L45.8 9.75" fill="url(#gradient9)" fill-rule="evenodd" stroke="none"/>
      <path d="M39.25 26.0 L39.3 27.15 33.45 29.05 32.7 29.35 Q29.85 30.7 27.15 34.4 24.0 31.8 21.45 28.8 18.25 25.0 16.1 20.55 13.95 16.15 13.1 11.6 14.65 13.0 15.7 12.85 L16.35 12.7 Q17.05 12.5 17.6 12.0 18.35 11.25 18.8 9.1 L18.9 9.05 20.45 11.4 Q21.45 12.15 21.8 13.35 L22.2 13.7 22.25 13.9 22.35 14.15 22.7 14.85 Q23.55 16.2 24.9 17.4 L24.95 17.6 25.6 18.15 Q26.6 19.0 27.4 20.5 27.8 21.2 28.55 21.65 L28.75 22.2 29.55 22.6 29.9 23.0 30.45 23.1 31.2 23.55 Q32.4 23.8 33.6 24.55 L34.8 24.8 Q36.6 25.7 38.6 25.9 L38.8 25.95 39.25 26.0" fill="url(#gradient10)" fill-rule="evenodd" stroke="none"/>
      <path d="M22.3 36.6 L22.4 36.75 22.55 36.9 23.45 37.5 23.6 37.85 24.65 38.45 24.5 38.65 20.95 38.1 17.7 38.0 15.0 38.35 Q12.65 38.9 11.2 40.25 L11.1 40.3 10.55 39.35 Q6.75 32.4 5.8 24.6 5.15 19.45 5.75 14.65 L6.3 15.0 8.0 15.4 Q9.15 15.45 10.55 14.9 L11.15 14.35 12.15 13.15 12.35 12.65 12.9 14.85 12.8 15.6 12.7 17.85 12.65 18.45 12.65 18.9 12.7 19.3 13.0 20.6 13.3 20.9 13.25 21.65 Q13.25 21.9 13.55 22.15 L13.6 22.4 13.75 22.75 13.75 22.85 13.8 23.0 13.85 23.15 13.9 23.3 14.05 23.6 14.1 23.65 14.1 23.7 14.15 23.8 14.35 24.95 14.5 25.1 14.65 25.25 14.7 25.4 14.75 25.55 14.8 25.7 14.85 25.95 15.45 26.8 16.95 29.5 17.35 30.0 17.6 30.4 17.85 30.75 18.0 31.1 Q18.1 31.75 18.75 32.4 L18.9 33.0 19.4 33.45 19.75 34.1 20.85 35.2 21.4 35.5 21.65 35.7 21.7 35.85 21.8 35.85 21.85 35.9 21.95 36.3 22.3 36.6" fill="url(#gradient11)" fill-rule="evenodd" stroke="none"/>
      <path d="M4.05 38.6 L4.75 43.4 3.75 42.0 2.75 40.95 Q1.85 40.3 0.95 40.35 L-2.75 40.4 -2.75 16.6 0.85 16.4 Q2.45 15.15 3.4 13.6 L3.9 12.75 4.2 12.75 4.5 13.35 4.45 14.35 4.15 14.85 Q3.05 20.0 3.1 26.15 L2.8 31.75 3.25 33.0 3.25 33.45 3.4 35.1 3.95 38.5 4.05 38.6" fill="#93d1fa" fill-opacity="0.8980392" fill-rule="evenodd" stroke="none"/>
      <path d="M11.1 40.3 L6.5 44.6 5.65 44.5 5.25 43.8 5.2 42.3 4.9 41.7 4.7 41.35 4.35 38.9 4.05 38.6 3.7 35.4 3.45 35.0 3.25 33.0 3.1 26.5 3.1 26.15 Q3.45 21.85 4.1 17.8 L4.35 17.4 4.45 14.35 4.5 14.3 Q4.45 13.8 4.55 13.4 L5.75 14.65 Q5.15 19.45 5.8 24.6 6.75 32.4 10.55 39.35 L11.1 40.3" fill="url(#gradient12)" fill-rule="evenodd" stroke="none"/>
      <path d="M-2.75 40.4 L-29.9 40.4 Q-33.65 29.05 -29.9 17.65 L-2.75 16.6 -2.75 40.4" fill="url(#gradient13)" fill-rule="evenodd" stroke="none"/>
      <path d="M45.8 9.75 L44.2 9.9 Q36.5 9.95 30.1 8.1 29.7 8.0 29.55 7.75 L28.35 7.75 28.0 7.35 25.45 6.6 25.1 6.2 24.1 6.0 23.75 5.6 22.0 5.05 21.25 4.45 21.1 4.4 20.85 3.75 Q25.05 5.05 29.7 5.6 L41.9 6.35 44.35 6.35 44.75 7.85 45.8 9.75 M22.35 14.15 L22.25 13.9 22.2 13.7 21.8 13.35 Q21.45 12.15 20.45 11.4 L18.9 9.05 19.15 8.85 19.6 8.4 Q22.95 12.85 29.05 16.25 34.2 19.05 39.65 20.55 39.15 22.9 39.2 25.5 L39.25 26.0 38.8 25.95 38.6 25.9 Q36.6 25.7 34.8 24.8 L33.6 24.55 Q32.4 23.8 31.2 23.55 L30.45 23.1 29.9 23.0 29.55 22.6 28.75 22.2 28.55 21.65 Q27.8 21.2 27.4 20.5 26.6 19.0 25.6 18.15 L24.95 17.6 24.9 17.4 Q23.55 16.2 22.7 14.85 L22.35 14.15 M12.85 11.4 L13.1 11.6 Q13.95 16.15 16.1 20.55 18.25 25.0 21.45 28.8 24.0 31.8 27.15 34.4 25.85 36.15 24.65 38.45 L23.6 37.85 23.45 37.5 22.55 36.9 22.4 36.75 22.3 36.55 22.25 36.45 22.1 36.3 22.0 36.1 21.95 36.0 21.8 35.85 21.7 35.85 21.65 35.7 21.4 35.5 21.35 35.25 20.85 35.1 20.7 34.65 18.9 33.0 18.75 32.4 Q18.1 31.75 18.0 31.1 L17.85 30.75 17.6 30.4 17.35 30.0 16.95 29.5 15.45 26.8 14.85 25.95 14.8 25.7 14.75 25.55 14.7 25.4 14.65 25.25 14.5 25.1 14.35 24.95 14.15 23.8 14.05 23.6 13.9 23.3 13.85 23.15 13.8 23.0 13.75 22.85 13.75 22.75 13.6 22.4 13.55 22.15 Q13.25 21.9 13.25 21.65 L13.3 20.9 13.0 20.6 12.7 19.3 12.65 18.9 12.65 18.45 12.7 17.85 12.8 15.6 Q13.0 13.9 12.7 12.55 L12.85 12.1 12.85 11.4 M4.55 13.4 L5.75 14.65 Q5.15 19.45 5.8 25.3 6.45 31.1 8.6 35.3 L11.1 40.3 6.5 44.6 5.65 44.5 5.25 43.8 5.2 42.3 4.9 41.7 4.7 41.35 4.35 38.9 3.95 38.5 3.4 35.1 3.25 33.45 3.1 26.5 Q3.0 20.15 4.15 14.85 L4.5 14.3 Q4.45 13.8 4.55 13.4" fill="#94d2fb" fill-opacity="0.8980392" fill-rule="evenodd" stroke="none"/>
      <path d="M20.25 -0.95 L19.35 -3.35 Q28.55 0.4 37.7 -0.7 L45.1 -2.05 45.1 -1.35 Q42.7 -0.05 39.85 0.45 29.4 2.25 20.25 -0.95 M45.75 10.0 L39.2 9.8 34.35 9.15 29.2 7.65 23.75 5.65 21.45 5.0 20.05 2.4 24.65 4.4 Q27.75 5.75 31.05 6.8 L37.1 8.4 45.75 9.55 45.75 10.0 M3.75 12.75 L4.1 12.75 5.7 14.8 Q3.85 23.95 4.6 32.3 5.3 40.6 6.45 44.65 L5.3 44.4 Q1.5 35.55 2.5 24.85 L3.75 12.75 M12.1 14.75 Q12.25 13.15 12.45 12.9 L12.85 11.35 13.9 18.25 Q15.2 23.6 16.9 27.15 19.45 32.4 24.6 38.35 17.95 34.35 15.5 29.65 13.05 24.95 12.5 20.65 11.9 16.3 12.1 14.75 M19.75 8.15 Q25.45 18.45 32.0 22.4 L39.75 27.05 Q26.3 21.9 23.0 16.5 L18.65 9.25 19.75 8.15" fill="#90cef7" fill-opacity="0.8980392" fill-rule="evenodd" stroke="none"/>
      <path d="M18.6 -8.9 L18.7 -8.95 18.9 -9.0 19.0 -9.0 Q24.35 -7.4 30.05 -6.9 L41.8 -7.3 Q43.7 -7.6 45.45 -8.3 L45.75 -8.3 45.8 -8.3 46.1 -8.25 46.2 -8.2 Q47.2 -5.25 46.55 -2.15 L46.4 -1.95 45.85 -2.05 45.85 -2.1 Q44.65 -1.1 42.85 -0.85 33.95 0.65 25.1 -0.9 L23.75 -1.25 Q21.2 -1.95 18.85 -2.95 L18.7 -2.75 18.15 -2.8 Q17.8 -5.6 18.35 -8.45 L18.4 -8.7 18.45 -8.75 18.6 -8.9 M19.0 -3.9 Q23.9 -2.1 29.15 -1.7 L37.7 -1.35 Q41.9 -1.35 45.75 -2.8 L45.85 -2.8 45.4 -7.45 Q43.4 -6.0 40.6 -5.95 L36.45 -5.8 25.3 -6.3 Q22.05 -6.75 19.25 -7.85 L19.0 -3.9" fill="#97d6ff" fill-opacity="0.8980392" fill-rule="evenodd" stroke="none"/>
      <path d="M19.0 -3.9 L19.25 -7.85 Q22.05 -6.75 25.3 -6.3 L36.45 -5.8 40.6 -5.95 Q43.4 -6.0 45.4 -7.45 L45.85 -2.8 45.75 -2.8 Q41.9 -1.35 37.7 -1.35 L29.15 -1.7 Q23.9 -2.1 19.0 -3.9" fill="url(#gradient14)" fill-rule="evenodd" stroke="none"/>
      <path d="M0.6 14.65 L0.65 14.75 0.7 14.95 0.7 15.05 Q-0.7 20.45 -0.95 26.15 -1.25 32.05 -0.1 37.85 0.25 39.75 1.05 41.45 L1.05 41.75 1.05 41.8 1.0 42.1 0.95 42.25 Q-1.95 43.35 -5.05 42.8 L-5.25 42.65 Q-5.4 42.4 -5.2 42.1 L-5.15 42.1 Q-6.2 40.95 -6.5 39.15 -8.35 30.35 -7.15 21.45 L-6.85 20.1 -5.35 15.15 -5.55 15.0 -5.55 14.45 Q-2.75 14.0 0.1 14.4 L0.4 14.45 0.45 14.5 0.6 14.65 M-4.4 15.25 Q-6.0 20.2 -6.2 25.45 L-6.2 34.0 Q-6.05 38.2 -4.45 42.0 L-4.45 42.1 0.2 41.45 Q-1.35 39.5 -1.5 36.7 L-1.8 32.55 Q-2.25 27.0 -1.75 21.45 -1.45 18.2 -0.45 15.35 L-4.4 15.25" fill="#97d6ff" fill-opacity="0.8980392" fill-rule="evenodd" stroke="none"/>
      <path d="M-4.4 15.25 L-0.45 15.35 Q-1.45 18.2 -1.75 21.45 -2.25 27.0 -1.8 32.55 L-1.5 36.7 Q-1.35 39.5 0.2 41.45 L-4.45 42.1 -4.45 42.0 Q-6.05 38.2 -6.2 34.0 L-6.2 25.45 Q-6.0 20.2 -4.4 15.25" fill="url(#gradient15)" fill-rule="evenodd" stroke="none"/>
      <path d="M18.8 -13.9 L18.7 -13.95 25.5 -14.15 46.8 -14.2 46.75 -13.55 46.6 -13.5 46.55 -13.5 46.6 -13.5 Q46.7 -10.75 46.15 -8.0 L46.2 -8.0 46.15 -7.95 46.1 -7.7 45.9 -7.5 45.85 -7.75 Q42.35 -6.25 35.35 -5.5 28.4 -4.85 19.1 -7.8 L18.75 -8.25 18.65 -8.75 18.4 -9.35 Q17.95 -11.4 18.7 -13.8 L18.75 -13.8 18.85 -13.9 18.8 -13.9 M19.4 -8.9 L20.45 -8.15 Q33.0 -4.8 45.85 -7.85 L45.5 -13.45 36.45 -12.85 19.3 -13.35 19.15 -11.35 Q19.1 -9.15 19.4 -8.9 M46.3 -13.45 L46.35 -13.4 46.35 -13.45 46.3 -13.45" fill="#97d6ff" fill-opacity="0.8980392" fill-rule="evenodd" stroke="none"/>
      <path d="M18.75 -13.8 L18.8 -13.9 18.85 -13.9 18.75 -13.8 M46.3 -13.45 L46.35 -13.45 46.35 -13.4 46.3 -13.45" fill="url(#gradient16)" fill-rule="evenodd" stroke="none"/>
      <path d="M19.4 -8.9 Q19.1 -9.15 19.15 -11.35 L19.3 -13.35 36.45 -12.85 45.5 -13.45 45.85 -7.85 Q33.0 -4.8 20.45 -8.15 L19.4 -8.9" fill="url(#gradient17)" fill-rule="evenodd" stroke="none"/>
    </g>
    <linearGradient gradientTransform="matrix(1.0E-4, 0.0, 0.0, 6.0E-4, 4.5, 13.85)" gradientUnits="userSpaceOnUse" id="gradient0" spreadMethod="pad" x1="-819.2" x2="819.2">
      <stop offset="0.0" stop-color="#94d2fb" stop-opacity="0.8980392"/>
      <stop offset="1.0" stop-color="#93d1fa" stop-opacity="0.8980392"/>
    </linearGradient>
    <linearGradient gradientTransform="matrix(0.0032, 0.0, 0.0, 0.0059, 16.75, 28.6)" gradientUnits="userSpaceOnUse" id="gradient1" spreadMethod="pad" x1="-819.2" x2="819.2">
      <stop offset="0.0" stop-color="#94d2fb" stop-opacity="0.8980392"/>
      <stop offset="1.0" stop-color="#93d1fa" stop-opacity="0.8980392"/>
    </linearGradient>
    <linearGradient gradientTransform="matrix(3.0E-4, 0.0, 0.0, 0.0042, 3.0, 29.55)" gradientUnits="userSpaceOnUse" id="gradient2" spreadMethod="pad" x1="-819.2" x2="819.2">
      <stop offset="0.0" stop-color="#94d2fb" stop-opacity="0.8980392"/>
      <stop offset="1.0" stop-color="#93d1fa" stop-opacity="0.8980392"/>
    </linearGradient>
    <linearGradient gradientTransform="matrix(0.001, 0.0, 0.0, 0.0036, 4.85, 41.55)" gradientUnits="userSpaceOnUse" id="gradient3" spreadMethod="pad" x1="-819.2" x2="819.2">
      <stop offset="0.0" stop-color="#94d2fb" stop-opacity="0.8980392"/>
      <stop offset="1.0" stop-color="#93d1fa" stop-opacity="0.8980392"/>
    </linearGradient>
    <linearGradient gradientTransform="matrix(3.0E-4, 0.0, 0.0, 2.0E-4, 21.6, 35.7)" gradientUnits="userSpaceOnUse" id="gradient4" spreadMethod="pad" x1="-819.2" x2="819.2">
      <stop offset="0.0" stop-color="#94d2fb" stop-opacity="0.8980392"/>
      <stop offset="1.0" stop-color="#93d1fa" stop-opacity="0.8980392"/>
    </linearGradient>
    <linearGradient gradientTransform="matrix(0.0016, 0.0, 0.0, 0.0011, 23.55, 37.5)" gradientUnits="userSpaceOnUse" id="gradient5" spreadMethod="pad" x1="-819.2" x2="819.2">
      <stop offset="0.0" stop-color="#94d2fb" stop-opacity="0.8980392"/>
      <stop offset="1.0" stop-color="#93d1fa" stop-opacity="0.8980392"/>
    </linearGradient>
    <linearGradient gradientTransform="matrix(7.0E-4, 0.0, 0.0, 0.0048, 13.2, 18.8)" gradientUnits="userSpaceOnUse" id="gradient6" spreadMethod="pad" x1="-819.2" x2="819.2">
      <stop offset="0.0" stop-color="#94d2fb" stop-opacity="0.8980392"/>
      <stop offset="1.0" stop-color="#93d1fa" stop-opacity="0.8980392"/>
    </linearGradient>
    <linearGradient gradientTransform="matrix(2.0E-4, 0.0, 0.0, 5.0E-4, 13.9, 23.2)" gradientUnits="userSpaceOnUse" id="gradient7" spreadMethod="pad" x1="-819.2" x2="819.2">
      <stop offset="0.0" stop-color="#94d2fb" stop-opacity="0.8980392"/>
      <stop offset="1.0" stop-color="#93d1fa" stop-opacity="0.8980392"/>
    </linearGradient>
    <radialGradient cx="0" cy="0" gradientTransform="matrix(0.0148, 0.0, 0.0, 0.008, 32.9, 0.2)" gradientUnits="userSpaceOnUse" id="gradient8" r="819.2" spreadMethod="pad">
      <stop offset="0.0" stop-color="#92cff8" stop-opacity="0.8980392"/>
      <stop offset="1.0" stop-color="#94d2fb" stop-opacity="0.8980392"/>
    </radialGradient>
    <radialGradient cx="0" cy="0" gradientTransform="matrix(0.0032, -0.0081, 0.0164, 0.0064, 33.25, 10.25)" gradientUnits="userSpaceOnUse" id="gradient9" r="819.2" spreadMethod="pad">
      <stop offset="0.0" stop-color="#92cff8" stop-opacity="0.8980392"/>
      <stop offset="1.0" stop-color="#94d2fb" stop-opacity="0.8980392"/>
    </radialGradient>
    <radialGradient cx="0" cy="0" gradientTransform="matrix(0.0076, -0.0065, 0.0124, 0.0144, 26.75, 21.1)" gradientUnits="userSpaceOnUse" id="gradient10" r="819.2" spreadMethod="pad">
      <stop offset="0.0" stop-color="#92cff8" stop-opacity="0.8980392"/>
      <stop offset="1.0" stop-color="#94d2fb" stop-opacity="0.8980392"/>
    </radialGradient>
    <radialGradient cx="0" cy="0" gradientTransform="matrix(0.0099, -0.0027, 0.0049, 0.0184, 15.05, 26.45)" gradientUnits="userSpaceOnUse" id="gradient11" r="819.2" spreadMethod="pad">
      <stop offset="0.0" stop-color="#92cff8" stop-opacity="0.8980392"/>
      <stop offset="1.0" stop-color="#94d2fb" stop-opacity="0.8980392"/>
    </radialGradient>
    <linearGradient gradientTransform="matrix(0.0049, 0.0, 0.0, 0.019, 7.1, 29.0)" gradientUnits="userSpaceOnUse" id="gradient12" spreadMethod="pad" x1="-819.2" x2="819.2">
      <stop offset="0.0" stop-color="#94d2fb" stop-opacity="0.8980392"/>
      <stop offset="1.0" stop-color="#93d1fa" stop-opacity="0.8980392"/>
    </linearGradient>
    <linearGradient gradientTransform="matrix(6.0E-4, 0.0145, -0.0145, 6.0E-4, -22.0, 28.5)" gradientUnits="userSpaceOnUse" id="gradient13" spreadMethod="pad" x1="-819.2" x2="819.2">
      <stop offset="0.0" stop-color="#8fcdf6" stop-opacity="0.8980392"/>
      <stop offset="0.3333333333333333" stop-color="#8dcbf4" stop-opacity="0.8980392"/>
      <stop offset="0.611764705882353" stop-color="#90cef6" stop-opacity="0.8980392"/>
      <stop offset="1.0" stop-color="#94d1fa" stop-opacity="0.8980392"/>
    </linearGradient>
    <linearGradient gradientTransform="matrix(0.0163, 1.0E-4, 0.0, 0.004, 32.4, -4.6)" gradientUnits="userSpaceOnUse" id="gradient14" spreadMethod="pad" x1="-819.2" x2="819.2">
      <stop offset="0.0" stop-color="#8ccbf4" stop-opacity="0.8980392"/>
      <stop offset="1.0" stop-color="#90cef7" stop-opacity="0.8980392"/>
    </linearGradient>
    <linearGradient gradientTransform="matrix(5.0E-4, 0.0163, -0.004, 1.0E-4, -3.15, 28.55)" gradientUnits="userSpaceOnUse" id="gradient15" spreadMethod="pad" x1="-819.2" x2="819.2">
      <stop offset="0.0" stop-color="#8ccbf4" stop-opacity="0.8980392"/>
      <stop offset="1.0" stop-color="#90cef7" stop-opacity="0.8980392"/>
    </linearGradient>
    <linearGradient gradientTransform="matrix(-0.0175, 4.0E-4, -1.0E-4, -0.0045, 32.55, -10.2)" gradientUnits="userSpaceOnUse" id="gradient16" spreadMethod="pad" x1="-819.2" x2="819.2">
      <stop offset="0.0" stop-color="#8bd3ff" stop-opacity="0.8980392"/>
      <stop offset="1.0" stop-color="#8bcefc" stop-opacity="0.8980392"/>
    </linearGradient>
    <linearGradient gradientTransform="matrix(-0.0175, 4.0E-4, -1.0E-4, -0.0045, 32.55, -10.2)" gradientUnits="userSpaceOnUse" id="gradient17" spreadMethod="pad" x1="-819.2" x2="819.2">
      <stop offset="0.0" stop-color="#8bd1ff" stop-opacity="0.8980392"/>
      <stop offset="1.0" stop-color="#8bcefc" stop-opacity="0.8980392"/>
    </linearGradient>
    <g id="shape1" transform="matrix(1.0, 0.0, 0.0, 1.0, 0.5, 0.5)">
      <path d="M0.0 2.2 Q0.0 1.3 0.6 0.6 1.3 0.0 2.2 0.0 3.1 0.0 3.7 0.6 4.4 1.3 4.4 2.2 4.4 3.1 3.7 3.7 3.1 4.4 2.2 4.4 1.3 4.4 0.6 3.7 0.0 3.1 0.0 2.2 Z" fill="none" stroke="#97d6ff" stroke-linecap="round" stroke-linejoin="round" stroke-opacity="0.8980392" stroke-width="1.0"/>
      <path d="M0.0 2.2 Q0.0 1.3 0.6 0.6 1.3 0.0 2.2 0.0 3.1 0.0 3.7 0.6 4.4 1.3 4.4 2.2 4.4 3.1 3.7 3.7 3.1 4.4 2.2 4.4 1.3 4.4 0.6 3.7 0.0 3.1 0.0 2.2" fill="url(#gradient18)" fill-rule="evenodd" stroke="none"/>
      <path d="M1.8 1.0 L2.3 1.2 2.5 1.7 2.3 2.2 Q2.1 2.4 1.8 2.4 L1.3 2.2 1.1 1.7 1.3 1.2 1.8 1.0" fill="#8bcaf3" fill-opacity="0.8980392" fill-rule="evenodd" stroke="none"/>
    </g>
    <radialGradient cx="0" cy="0" gradientTransform="matrix(0.0045, 0.0, 0.0, 0.0045, 1.7, 1.8)" gradientUnits="userSpaceOnUse" id="gradient18" r="819.2" spreadMethod="pad">
      <stop offset="0.0" stop-color="#8eccf5" stop-opacity="0.8980392"/>
      <stop offset="1.0" stop-color="#96d4fd" stop-opacity="0.8980392"/>
    </radialGradient>
    <g id="sprite1" transform="matrix(1.0, 0.0, 0.0, 1.0, 46.35, 160.6)">
      <use ffdec:characterId="496" height="59.85" transform="matrix(1.0, 0.0, 0.0, 1.0, -31.8, -14.25)" width="78.75" xlink:href="#shape2"/>
      <use ffdec:characterId="497" height="5.4" transform="matrix(1.0, 0.0, 0.0, 1.0, 19.55, -9.8)" width="5.4" xlink:href="#shape3"/>
      <use ffdec:characterId="497" height="5.4" transform="matrix(1.0, 0.0, 0.0, 1.0, 26.0, -8.6)" width="5.4" xlink:href="#shape3"/>
      <use ffdec:characterId="497" height="5.4" transform="matrix(1.0, 0.0, 0.0, 1.0, 32.85, -8.4)" width="5.4" xlink:href="#shape3"/>
      <use ffdec:characterId="497" height="5.4" transform="matrix(1.0, 0.0, 0.0, 1.0, 39.65, -9.4)" width="5.4" xlink:href="#shape3"/>
    </g>
    <g id="shape2" transform="matrix(1.0, 0.0, 0.0, 1.0, 31.8, 14.25)">
      <path d="M12.85 11.4 L12.85 11.6 12.85 12.1 12.7 12.55 12.9 14.85 12.35 12.65 12.8 11.35 12.85 11.4 M14.1 23.65 L14.15 23.8 14.1 23.7 14.1 23.65 M19.4 33.45 L20.7 34.65 20.85 35.1 21.35 35.25 21.4 35.5 20.85 35.2 19.75 34.1 19.4 33.45 M21.85 35.9 L21.95 36.0 22.0 36.1 22.1 36.3 22.25 36.45 22.3 36.55 22.3 36.6 21.95 36.3 21.85 35.9" fill="#516875" fill-rule="evenodd" stroke="none"/>
      <path d="M4.45 14.35 L4.35 17.4 4.1 17.8 Q3.45 21.85 3.1 26.15 3.05 20.0 4.15 14.85 L4.45 14.35 M3.25 33.0 L3.45 35.0 3.7 35.4 4.05 38.6 3.95 38.5 3.4 35.1 3.25 33.45 3.25 33.0" fill="#445a60" fill-rule="evenodd" stroke="none"/>
      <path d="M4.55 13.4 Q4.45 13.8 4.5 14.3 L4.45 14.35 4.5 13.35 4.55 13.4" fill="url(#gradient19)" fill-rule="evenodd" stroke="none"/>
      <path d="M14.15 23.8 L15.2 25.85 Q15.85 27.75 16.95 29.1 L19.4 33.45 18.9 33.0 18.75 32.4 Q18.1 31.75 18.0 31.1 L17.85 30.75 17.6 30.4 17.35 30.0 16.95 29.5 15.45 26.8 14.85 25.95 14.8 25.7 14.75 25.55 14.7 25.4 14.65 25.25 14.5 25.1 14.35 24.95 14.15 23.8" fill="url(#gradient20)" fill-rule="evenodd" stroke="none"/>
      <path d="M3.1 26.15 L3.1 26.5 3.25 33.0 2.8 31.75 3.1 26.15" fill="url(#gradient21)" fill-rule="evenodd" stroke="none"/>
      <path d="M5.65 44.5 L5.5 44.5 4.75 43.4 4.05 38.6 4.35 38.9 4.7 41.35 4.9 41.7 5.2 42.3 5.25 43.8 5.65 44.5" fill="url(#gradient22)" fill-rule="evenodd" stroke="none"/>
      <path d="M21.4 35.5 L21.75 35.65 21.85 35.9 21.8 35.85 21.7 35.85 21.65 35.7 21.4 35.5" fill="url(#gradient23)" fill-rule="evenodd" stroke="none"/>
      <path d="M24.85 38.1 L24.65 38.45 23.6 37.85 23.45 37.5 22.55 36.9 22.4 36.75 22.3 36.6 Q23.6 37.5 24.75 38.05 L24.85 38.1" fill="url(#gradient24)" fill-rule="evenodd" stroke="none"/>
      <path d="M12.65 18.45 L12.7 17.85 12.8 15.6 12.9 14.85 Q13.5 18.1 13.45 21.75 L13.75 22.75 13.6 22.4 13.55 22.15 Q13.25 21.9 13.25 21.65 L13.3 20.9 13.0 20.6 12.7 19.3 12.65 18.9 12.65 18.45" fill="url(#gradient25)" fill-rule="evenodd" stroke="none"/>
      <path d="M13.75 22.85 L13.75 22.75 14.1 23.65 14.05 23.6 13.9 23.3 13.85 23.15 13.8 23.0 13.75 22.85" fill="url(#gradient26)" fill-rule="evenodd" stroke="none"/>
      <path d="M20.85 3.75 L20.65 3.35 20.65 3.3 20.55 3.2 20.35 2.8 20.3 2.7 20.2 2.5 20.15 2.45 20.2 2.4 20.3 2.05 20.4 1.6 Q20.8 0.1 19.8 -2.9 22.05 -0.8 23.9 -0.45 L27.7 -0.05 31.6 0.0 35.55 -0.05 39.35 -0.5 43.15 -1.15 Q44.1 -1.45 44.95 -1.9 L45.05 -1.25 44.4 2.0 44.25 3.35 44.2 3.6 44.2 4.0 44.2 4.15 44.2 4.6 44.2 4.9 44.3 6.1 44.3 6.2 44.35 6.35 44.75 7.85 45.95 10.0 Q40.95 14.4 39.65 20.55 39.15 22.9 39.2 25.5 L39.3 27.15 33.45 29.05 32.7 29.35 Q29.85 30.7 27.15 34.4 L24.85 38.1 M24.65 38.45 L24.5 38.65 20.95 38.1 17.7 38.0 15.0 38.35 Q12.65 38.9 11.2 40.25 L11.1 40.3 6.5 44.6 5.65 44.5 M4.75 43.4 L3.75 42.0 2.75 40.95 Q1.85 40.3 0.95 40.35 L-2.75 40.5 -30.15 41.2 M19.6 8.4 L19.75 8.2 21.0 6.15 21.2 5.1 21.1 4.45 M12.85 11.6 Q14.65 13.0 15.7 12.85 L16.35 12.7 Q17.05 12.5 17.6 12.0 18.35 11.25 18.8 9.1 M12.85 11.4 L12.8 11.35 12.35 12.65 12.15 13.15 11.15 14.35 10.55 14.9 Q9.15 15.45 8.0 15.4 L6.3 15.0 5.75 14.65 4.55 13.4 M4.5 13.35 L4.2 12.75 3.9 12.75 3.4 13.6 Q2.45 15.15 0.85 16.4 L-2.75 16.55 -29.6 17.0" fill="none" stroke="#000000" stroke-linecap="round" stroke-linejoin="round" stroke-width="2.0"/>
      <path d="M20.85 3.75 L20.65 3.35 20.65 3.3 20.55 3.2 20.35 2.8 20.3 2.7 20.2 2.5 20.15 2.45 20.2 2.4 20.3 2.05 20.4 1.6 Q20.8 0.1 20.35 -1.2 L23.9 -0.45 27.7 -0.05 31.6 0.0 35.55 -0.05 39.35 -0.5 43.15 -1.15 Q44.1 -1.45 44.95 -1.9 L45.05 -1.25 44.4 2.0 44.25 3.35 44.2 3.6 44.2 4.0 44.2 4.15 44.2 4.6 44.2 4.9 44.3 6.1 44.3 6.2 44.35 6.35 41.9 6.35 29.7 5.6 Q25.05 5.05 20.85 3.75" fill="url(#gradient27)" fill-rule="evenodd" stroke="none"/>
      <path d="M44.35 6.35 L44.75 7.85 45.8 9.75 44.2 9.9 Q36.5 9.95 30.1 8.1 29.7 8.0 29.55 7.75 L28.35 7.75 28.0 7.35 25.45 6.6 25.1 6.2 24.1 6.0 23.75 5.6 22.0 5.05 21.25 4.45 21.1 4.4 20.85 3.75 Q25.05 5.05 29.7 5.6 L41.9 6.35 44.35 6.35 M39.65 20.55 Q39.15 22.9 39.2 25.5 L39.25 26.0 38.8 25.95 38.6 25.9 Q36.6 25.7 34.8 24.8 L33.6 24.55 Q32.4 23.8 31.2 23.55 L30.45 23.1 29.9 23.0 29.55 22.6 28.75 22.2 28.55 21.65 Q27.8 21.2 27.4 20.5 26.6 19.0 25.6 18.15 L24.95 17.6 24.9 17.4 Q23.55 16.2 22.7 14.85 L22.35 14.15 22.25 13.9 22.2 13.7 21.8 13.35 Q21.45 12.15 20.45 11.4 L18.9 9.05 19.15 8.85 19.6 8.4 Q22.95 12.85 29.05 16.25 34.2 19.05 39.65 20.55 M27.15 34.4 L24.85 38.1 24.75 38.05 Q23.6 37.5 22.3 36.6 L22.3 36.55 22.25 36.45 22.1 36.3 22.0 36.1 21.95 36.0 21.85 35.9 21.75 35.65 21.4 35.5 21.35 35.25 20.85 35.1 20.7 34.65 19.4 33.45 16.95 29.1 Q15.85 27.75 15.2 25.85 L14.15 23.8 14.1 23.65 13.75 22.75 13.45 21.75 Q13.5 18.1 12.9 14.85 L12.7 12.55 12.85 12.1 12.85 11.4 13.1 11.6 Q13.95 16.15 16.1 20.55 18.25 25.0 21.45 28.8 24.0 31.8 27.15 34.4" fill="#445a60" fill-rule="evenodd" stroke="none"/>
      <path d="M45.8 9.75 L45.95 10.0 Q40.95 14.4 39.65 20.55 34.2 19.05 29.05 16.25 22.95 12.85 19.6 8.4 L19.75 8.2 21.0 6.15 21.2 5.1 21.1 4.45 21.1 4.4 21.25 4.45 22.0 5.05 23.75 5.6 24.1 6.0 25.1 6.2 25.45 6.6 28.0 7.35 28.35 7.75 29.55 7.75 Q29.7 8.0 30.1 8.1 36.5 9.95 44.2 9.9 L45.8 9.75" fill="url(#gradient28)" fill-rule="evenodd" stroke="none"/>
      <path d="M39.25 26.0 L39.3 27.15 33.45 29.05 32.7 29.35 Q29.85 30.7 27.15 34.4 24.0 31.8 21.45 28.8 18.25 25.0 16.1 20.55 13.95 16.15 13.1 11.6 14.65 13.0 15.7 12.85 L16.35 12.7 Q17.05 12.5 17.6 12.0 18.35 11.25 18.8 9.1 L18.9 9.05 20.45 11.4 Q21.45 12.15 21.8 13.35 L22.2 13.7 22.25 13.9 22.35 14.15 22.7 14.85 Q23.55 16.2 24.9 17.4 L24.95 17.6 25.6 18.15 Q26.6 19.0 27.4 20.5 27.8 21.2 28.55 21.65 L28.75 22.2 29.55 22.6 29.9 23.0 30.45 23.1 31.2 23.55 Q32.4 23.8 33.6 24.55 L34.8 24.8 Q36.6 25.7 38.6 25.9 L38.8 25.95 39.25 26.0" fill="url(#gradient29)" fill-rule="evenodd" stroke="none"/>
      <path d="M22.3 36.6 L22.4 36.75 22.55 36.9 23.45 37.5 23.6 37.85 24.65 38.45 24.5 38.65 20.95 38.1 17.7 38.0 15.0 38.35 Q12.65 38.9 11.2 40.25 L11.1 40.3 10.55 39.35 Q6.75 32.4 5.8 24.6 5.15 19.45 5.75 14.65 L6.3 15.0 8.0 15.4 Q9.15 15.45 10.55 14.9 L11.15 14.35 12.15 13.15 12.35 12.65 12.9 14.85 12.8 15.6 12.7 17.85 12.65 18.45 12.65 18.9 12.7 19.3 13.0 20.6 13.3 20.9 13.25 21.65 Q13.25 21.9 13.55 22.15 L13.6 22.4 13.75 22.75 13.75 22.85 13.8 23.0 13.85 23.15 13.9 23.3 14.05 23.6 14.1 23.65 14.1 23.7 14.15 23.8 14.35 24.95 14.5 25.1 14.65 25.25 14.7 25.4 14.75 25.55 14.8 25.7 14.85 25.95 15.45 26.8 16.95 29.5 17.35 30.0 17.6 30.4 17.85 30.75 18.0 31.1 Q18.1 31.75 18.75 32.4 L18.9 33.0 19.4 33.45 19.75 34.1 20.85 35.2 21.4 35.5 21.65 35.7 21.7 35.85 21.8 35.85 21.85 35.9 21.95 36.3 22.3 36.6" fill="url(#gradient30)" fill-rule="evenodd" stroke="none"/>
      <path d="M4.05 38.6 L4.75 43.4 3.75 42.0 2.75 40.95 Q1.85 40.3 0.95 40.35 L-2.75 40.4 -2.75 16.6 0.85 16.4 Q2.45 15.15 3.4 13.6 L3.9 12.75 4.2 12.75 4.5 13.35 4.45 14.35 4.15 14.85 Q3.05 20.0 3.1 26.15 L2.8 31.75 3.25 33.0 3.25 33.45 3.4 35.1 3.95 38.5 4.05 38.6" fill="#516875" fill-rule="evenodd" stroke="none"/>
      <path d="M11.1 40.3 L6.5 44.6 5.65 44.5 5.25 43.8 5.2 42.3 4.9 41.7 4.7 41.35 4.35 38.9 4.05 38.6 3.7 35.4 3.45 35.0 3.25 33.0 3.1 26.5 3.1 26.15 Q3.45 21.85 4.1 17.8 L4.35 17.4 4.45 14.35 4.5 14.3 Q4.45 13.8 4.55 13.4 L5.75 14.65 Q5.15 19.45 5.8 24.6 6.75 32.4 10.55 39.35 L11.1 40.3" fill="url(#gradient31)" fill-rule="evenodd" stroke="none"/>
      <path d="M-2.75 40.4 L-29.9 40.4 Q-33.65 29.05 -29.9 17.65 L-2.75 16.6 -2.75 40.4" fill="url(#gradient32)" fill-rule="evenodd" stroke="none"/>
      <path d="M45.8 9.75 L44.2 9.9 Q36.5 9.95 30.1 8.1 29.7 8.0 29.55 7.75 L28.35 7.75 28.0 7.35 25.45 6.6 25.1 6.2 24.1 6.0 23.75 5.6 22.0 5.05 21.25 4.45 21.1 4.4 20.85 3.75 Q25.05 5.05 29.7 5.6 L41.9 6.35 44.35 6.35 44.75 7.85 45.8 9.75 M22.35 14.15 L22.25 13.9 22.2 13.7 21.8 13.35 Q21.45 12.15 20.45 11.4 L18.9 9.05 19.15 8.85 19.6 8.4 Q22.95 12.85 29.05 16.25 34.2 19.05 39.65 20.55 39.15 22.9 39.2 25.5 L39.25 26.0 38.8 25.95 38.6 25.9 Q36.6 25.7 34.8 24.8 L33.6 24.55 Q32.4 23.8 31.2 23.55 L30.45 23.1 29.9 23.0 29.55 22.6 28.75 22.2 28.55 21.65 Q27.8 21.2 27.4 20.5 26.6 19.0 25.6 18.15 L24.95 17.6 24.9 17.4 Q23.55 16.2 22.7 14.85 L22.35 14.15 M12.85 11.4 L13.1 11.6 Q13.95 16.15 16.1 20.55 18.25 25.0 21.45 28.8 24.0 31.8 27.15 34.4 25.85 36.15 24.65 38.45 L23.6 37.85 23.45 37.5 22.55 36.9 22.4 36.75 22.3 36.55 22.25 36.45 22.1 36.3 22.0 36.1 21.95 36.0 21.8 35.85 21.7 35.85 21.65 35.7 21.4 35.5 21.35 35.25 20.85 35.1 20.7 34.65 18.9 33.0 18.75 32.4 Q18.1 31.75 18.0 31.1 L17.85 30.75 17.6 30.4 17.35 30.0 16.95 29.5 15.45 26.8 14.85 25.95 14.8 25.7 14.75 25.55 14.7 25.4 14.65 25.25 14.5 25.1 14.35 24.95 14.15 23.8 14.05 23.6 13.9 23.3 13.85 23.15 13.8 23.0 13.75 22.85 13.75 22.75 13.6 22.4 13.55 22.15 Q13.25 21.9 13.25 21.65 L13.3 20.9 13.0 20.6 12.7 19.3 12.65 18.9 12.65 18.45 12.7 17.85 12.8 15.6 Q13.0 13.9 12.7 12.55 L12.85 12.1 12.85 11.4 M4.55 13.4 L5.75 14.65 Q5.15 19.45 5.8 25.3 6.45 31.1 8.6 35.3 L11.1 40.3 6.5 44.6 5.65 44.5 5.25 43.8 5.2 42.3 4.9 41.7 4.7 41.35 4.35 38.9 3.95 38.5 3.4 35.1 3.25 33.45 3.1 26.5 Q3.0 20.15 4.15 14.85 L4.5 14.3 Q4.45 13.8 4.55 13.4" fill="#445a60" fill-rule="evenodd" stroke="none"/>
      <path d="M20.25 -0.95 L19.35 -3.35 Q28.55 0.4 37.7 -0.7 L45.1 -2.05 45.1 -1.35 Q42.7 -0.05 39.85 0.45 29.4 2.25 20.25 -0.95 M45.75 10.0 L39.2 9.8 34.35 9.15 29.2 7.65 23.75 5.65 21.45 5.0 20.05 2.4 24.65 4.4 Q27.75 5.75 31.05 6.8 L37.1 8.4 45.75 9.55 45.75 10.0 M3.75 12.75 L4.1 12.75 5.7 14.8 Q3.85 23.95 4.6 32.3 5.3 40.6 6.45 44.65 L5.3 44.4 Q1.5 35.55 2.5 24.85 L3.75 12.75 M12.1 14.75 Q12.25 13.15 12.45 12.9 L12.85 11.35 13.9 18.25 Q15.2 23.6 16.9 27.15 19.45 32.4 24.6 38.35 17.95 34.35 15.5 29.65 13.05 24.95 12.5 20.65 11.9 16.3 12.1 14.75 M19.75 8.15 Q25.45 18.45 32.0 22.4 L39.75 27.05 Q26.3 21.9 23.0 16.5 L18.65 9.25 19.75 8.15" fill="#8fa9b1" fill-rule="evenodd" stroke="none"/>
      <path d="M18.6 -8.9 L18.7 -8.95 18.9 -9.0 19.0 -9.0 Q24.35 -7.4 30.05 -6.9 L41.8 -7.3 Q43.7 -7.6 45.45 -8.3 L45.75 -8.3 45.8 -8.3 46.1 -8.25 46.2 -8.2 Q47.2 -5.25 46.55 -2.15 L46.4 -1.95 45.85 -2.05 45.85 -2.1 Q44.65 -1.1 42.85 -0.85 33.95 0.65 25.1 -0.9 L23.75 -1.25 Q21.2 -1.95 18.85 -2.95 L18.7 -2.75 18.15 -2.8 Q17.8 -5.6 18.35 -8.45 L18.4 -8.7 18.45 -8.75 18.6 -8.9 M19.0 -3.9 Q23.9 -2.1 29.15 -1.7 L37.7 -1.35 Q41.9 -1.35 45.75 -2.8 L45.85 -2.8 45.4 -7.45 Q43.4 -6.0 40.6 -5.95 L36.45 -5.8 25.3 -6.3 Q22.05 -6.75 19.25 -7.85 L19.0 -3.9" fill="#000000" fill-rule="evenodd" stroke="none"/>
      <path d="M19.0 -3.9 L19.25 -7.85 Q22.05 -6.75 25.3 -6.3 L36.45 -5.8 40.6 -5.95 Q43.4 -6.0 45.4 -7.45 L45.85 -2.8 45.75 -2.8 Q41.9 -1.35 37.7 -1.35 L29.15 -1.7 Q23.9 -2.1 19.0 -3.9" fill="url(#gradient33)" fill-rule="evenodd" stroke="none"/>
      <path d="M0.6 14.65 L0.65 14.75 0.7 14.95 0.7 15.05 Q-0.7 20.45 -0.95 26.15 -1.25 32.05 -0.1 37.85 0.25 39.75 1.05 41.45 L1.05 41.75 1.05 41.8 1.0 42.1 0.95 42.25 Q-1.95 43.35 -5.05 42.8 L-5.25 42.65 Q-5.4 42.4 -5.2 42.1 L-5.15 42.1 Q-6.2 40.95 -6.5 39.15 -8.35 30.35 -7.15 21.45 L-6.85 20.1 -5.35 15.15 -5.55 15.0 -5.55 14.45 Q-2.75 14.0 0.1 14.4 L0.4 14.45 0.45 14.5 0.6 14.65 M-4.4 15.25 Q-6.0 20.2 -6.2 25.45 L-6.2 34.0 Q-6.05 38.2 -4.45 42.0 L-4.45 42.1 0.2 41.45 Q-1.35 39.5 -1.5 36.7 L-1.8 32.55 Q-2.25 27.0 -1.75 21.45 -1.45 18.2 -0.45 15.35 L-4.4 15.25" fill="#000000" fill-rule="evenodd" stroke="none"/>
      <path d="M-4.4 15.25 L-0.45 15.35 Q-1.45 18.2 -1.75 21.45 -2.25 27.0 -1.8 32.55 L-1.5 36.7 Q-1.35 39.5 0.2 41.45 L-4.45 42.1 -4.45 42.0 Q-6.05 38.2 -6.2 34.0 L-6.2 25.45 Q-6.0 20.2 -4.4 15.25" fill="url(#gradient34)" fill-rule="evenodd" stroke="none"/>
      <path d="M18.8 -13.9 L18.7 -13.95 25.5 -14.15 46.8 -14.2 46.75 -13.55 46.6 -13.5 46.55 -13.5 46.6 -13.5 Q46.7 -10.75 46.15 -8.0 L46.2 -8.0 46.15 -7.95 46.1 -7.7 45.9 -7.5 45.85 -7.75 Q42.35 -6.25 35.35 -5.5 28.4 -4.85 19.1 -7.8 L18.75 -8.25 18.65 -8.75 18.4 -9.35 Q17.95 -11.4 18.7 -13.8 L18.75 -13.8 18.85 -13.9 18.8 -13.9 M19.4 -8.9 L20.45 -8.15 Q33.0 -4.8 45.85 -7.85 L45.5 -13.45 36.45 -12.85 19.3 -13.35 19.15 -11.35 Q19.1 -9.15 19.4 -8.9 M46.3 -13.45 L46.35 -13.4 46.35 -13.45 46.3 -13.45" fill="#000000" fill-rule="evenodd" stroke="none"/>
      <path d="M18.75 -13.8 L18.8 -13.9 18.85 -13.9 18.75 -13.8 M46.3 -13.45 L46.35 -13.45 46.35 -13.4 46.3 -13.45" fill="url(#gradient35)" fill-rule="evenodd" stroke="none"/>
      <path d="M19.4 -8.9 Q19.1 -9.15 19.15 -11.35 L19.3 -13.35 36.45 -12.85 45.5 -13.45 45.85 -7.85 Q33.0 -4.8 20.45 -8.15 L19.4 -8.9" fill="url(#gradient36)" fill-rule="evenodd" stroke="none"/>
    </g>
    <linearGradient gradientTransform="matrix(1.0E-4, 0.0, 0.0, 6.0E-4, 4.5, 13.85)" gradientUnits="userSpaceOnUse" id="gradient19" spreadMethod="pad" x1="-819.2" x2="819.2">
      <stop offset="0.0" stop-color="#445a60"/>
      <stop offset="1.0" stop-color="#516875"/>
    </linearGradient>
    <linearGradient gradientTransform="matrix(0.0032, 0.0, 0.0, 0.0059, 16.75, 28.6)" gradientUnits="userSpaceOnUse" id="gradient20" spreadMethod="pad" x1="-819.2" x2="819.2">
      <stop offset="0.0" stop-color="#445a60"/>
      <stop offset="1.0" stop-color="#516875"/>
    </linearGradient>
    <linearGradient gradientTransform="matrix(3.0E-4, 0.0, 0.0, 0.0042, 3.0, 29.55)" gradientUnits="userSpaceOnUse" id="gradient21" spreadMethod="pad" x1="-819.2" x2="819.2">
      <stop offset="0.0" stop-color="#445a60"/>
      <stop offset="1.0" stop-color="#516875"/>
    </linearGradient>
    <linearGradient gradientTransform="matrix(0.001, 0.0, 0.0, 0.0036, 4.85, 41.55)" gradientUnits="userSpaceOnUse" id="gradient22" spreadMethod="pad" x1="-819.2" x2="819.2">
      <stop offset="0.0" stop-color="#445a60"/>
      <stop offset="1.0" stop-color="#516875"/>
    </linearGradient>
    <linearGradient gradientTransform="matrix(3.0E-4, 0.0, 0.0, 2.0E-4, 21.6, 35.7)" gradientUnits="userSpaceOnUse" id="gradient23" spreadMethod="pad" x1="-819.2" x2="819.2">
      <stop offset="0.0" stop-color="#445a60"/>
      <stop offset="1.0" stop-color="#516875"/>
    </linearGradient>
    <linearGradient gradientTransform="matrix(0.0016, 0.0, 0.0, 0.0011, 23.55, 37.5)" gradientUnits="userSpaceOnUse" id="gradient24" spreadMethod="pad" x1="-819.2" x2="819.2">
      <stop offset="0.0" stop-color="#445a60"/>
      <stop offset="1.0" stop-color="#516875"/>
    </linearGradient>
    <linearGradient gradientTransform="matrix(7.0E-4, 0.0, 0.0, 0.0048, 13.2, 18.8)" gradientUnits="userSpaceOnUse" id="gradient25" spreadMethod="pad" x1="-819.2" x2="819.2">
      <stop offset="0.0" stop-color="#445a60"/>
      <stop offset="1.0" stop-color="#516875"/>
    </linearGradient>
    <linearGradient gradientTransform="matrix(2.0E-4, 0.0, 0.0, 5.0E-4, 13.9, 23.2)" gradientUnits="userSpaceOnUse" id="gradient26" spreadMethod="pad" x1="-819.2" x2="819.2">
      <stop offset="0.0" stop-color="#445a60"/>
      <stop offset="1.0" stop-color="#516875"/>
    </linearGradient>
    <radialGradient cx="0" cy="0" gradientTransform="matrix(0.0148, 0.0, 0.0, 0.008, 32.9, 0.2)" gradientUnits="userSpaceOnUse" id="gradient27" r="819.2" spreadMethod="pad">
      <stop offset="0.0" stop-color="#6b8c98"/>
      <stop offset="1.0" stop-color="#445a60"/>
    </radialGradient>
    <radialGradient cx="0" cy="0" gradientTransform="matrix(0.0032, -0.0081, 0.0164, 0.0064, 33.25, 10.25)" gradientUnits="userSpaceOnUse" id="gradient28" r="819.2" spreadMethod="pad">
      <stop offset="0.0" stop-color="#6b8c98"/>
      <stop offset="1.0" stop-color="#445a60"/>
    </radialGradient>
    <radialGradient cx="0" cy="0" gradientTransform="matrix(0.0076, -0.0065, 0.0124, 0.0144, 26.75, 21.1)" gradientUnits="userSpaceOnUse" id="gradient29" r="819.2" spreadMethod="pad">
      <stop offset="0.0" stop-color="#6b8c98"/>
      <stop offset="1.0" stop-color="#445a60"/>
    </radialGradient>
    <radialGradient cx="0" cy="0" gradientTransform="matrix(0.0099, -0.0027, 0.0049, 0.0184, 15.05, 26.45)" gradientUnits="userSpaceOnUse" id="gradient30" r="819.2" spreadMethod="pad">
      <stop offset="0.0" stop-color="#6b8c98"/>
      <stop offset="1.0" stop-color="#445a60"/>
    </radialGradient>
    <linearGradient gradientTransform="matrix(0.0049, 0.0, 0.0, 0.019, 7.1, 29.0)" gradientUnits="userSpaceOnUse" id="gradient31" spreadMethod="pad" x1="-819.2" x2="819.2">
      <stop offset="0.0" stop-color="#445a60"/>
      <stop offset="1.0" stop-color="#516875"/>
    </linearGradient>
    <linearGradient gradientTransform="matrix(6.0E-4, 0.0145, -0.0145, 6.0E-4, -22.0, 28.5)" gradientUnits="userSpaceOnUse" id="gradient32" spreadMethod="pad" x1="-819.2" x2="819.2">
      <stop offset="0.0" stop-color="#aec4c4"/>
      <stop offset="0.3333333333333333" stop-color="#d0dbdd"/>
      <stop offset="0.611764705882353" stop-color="#97b0b7"/>
      <stop offset="1.0" stop-color="#486366"/>
    </linearGradient>
    <linearGradient gradientTransform="matrix(0.0163, 1.0E-4, 0.0, 0.004, 32.4, -4.6)" gradientUnits="userSpaceOnUse" id="gradient33" spreadMethod="pad" x1="-819.2" x2="819.2">
      <stop offset="0.0" stop-color="#dfe7e8"/>
      <stop offset="1.0" stop-color="#8fa9b1"/>
    </linearGradient>
    <linearGradient gradientTransform="matrix(5.0E-4, 0.0163, -0.004, 1.0E-4, -3.15, 28.55)" gradientUnits="userSpaceOnUse" id="gradient34" spreadMethod="pad" x1="-819.2" x2="819.2">
      <stop offset="0.0" stop-color="#dfe7e8"/>
      <stop offset="1.0" stop-color="#8fa9b1"/>
    </linearGradient>
    <linearGradient gradientTransform="matrix(-0.0175, 4.0E-4, -1.0E-4, -0.0045, 32.55, -10.2)" gradientUnits="userSpaceOnUse" id="gradient35" spreadMethod="pad" x1="-819.2" x2="819.2">
      <stop offset="0.0" stop-color="#fe4905"/>
      <stop offset="1.0" stop-color="#fda34a"/>
    </linearGradient>
    <linearGradient gradientTransform="matrix(-0.0175, 4.0E-4, -1.0E-4, -0.0045, 32.55, -10.2)" gradientUnits="userSpaceOnUse" id="gradient36" spreadMethod="pad" x1="-819.2" x2="819.2">
      <stop offset="0.0" stop-color="#ff6600"/>
      <stop offset="1.0" stop-color="#fda34a"/>
    </linearGradient>
    <g id="shape3" transform="matrix(1.0, 0.0, 0.0, 1.0, 0.5, 0.5)">
      <path d="M0.0 2.2 Q0.0 1.3 0.6 0.6 1.3 0.0 2.2 0.0 3.1 0.0 3.7 0.6 4.4 1.3 4.4 2.2 4.4 3.1 3.7 3.7 3.1 4.4 2.2 4.4 1.3 4.4 0.6 3.7 0.0 3.1 0.0 2.2 Z" fill="none" stroke="#000000" stroke-linecap="round" stroke-linejoin="round" stroke-width="1.0"/>
      <path d="M0.0 2.2 Q0.0 1.3 0.6 0.6 1.3 0.0 2.2 0.0 3.1 0.0 3.7 0.6 4.4 1.3 4.4 2.2 4.4 3.1 3.7 3.7 3.1 4.4 2.2 4.4 1.3 4.4 0.6 3.7 0.0 3.1 0.0 2.2" fill="url(#gradient37)" fill-rule="evenodd" stroke="none"/>
      <path d="M1.8 1.0 L2.3 1.2 2.5 1.7 2.3 2.2 Q2.1 2.4 1.8 2.4 L1.3 2.2 1.1 1.7 1.3 1.2 1.8 1.0" fill="#ffffff" fill-rule="evenodd" stroke="none"/>
    </g>
    <radialGradient cx="0" cy="0" gradientTransform="matrix(0.0045, 0.0, 0.0, 0.0045, 1.7, 1.8)" gradientUnits="userSpaceOnUse" id="gradient37" r="819.2" spreadMethod="pad">
      <stop offset="0.0" stop-color="#bacbcf"/>
      <stop offset="1.0" stop-color="#243131"/>
    </radialGradient>
    <g id="shape4" transform="matrix(1.0, 0.0, 0.0, 1.0, 5.65, 6.65)">
      <path d="M4.25 -3.85 Q5.5 -1.95 5.1 0.9 4.75 3.7 2.4 5.25 0.1 6.7 -1.65 5.8 -3.4 4.85 -4.35 2.75 -5.25 0.9 -5.15 -1.35 -5.05 -3.4 -3.35 -4.8 -1.35 -6.5 0.7 -6.05 2.55 -5.65 4.0 -4.45 L4.25 -3.85" fill="#ffffff" fill-rule="evenodd" stroke="none"/>
      <path d="M4.25 -3.85 Q5.5 -1.95 5.1 0.9 4.75 3.7 2.4 5.25 0.1 6.7 -1.65 5.8 -3.4 4.85 -4.35 2.75 -5.25 0.9 -5.15 -1.35 -5.05 -3.4 -3.35 -4.8 -1.35 -6.5 0.7 -6.05 2.55 -5.65 4.0 -4.45 L4.25 -3.85 Z" fill="none" stroke="#000000" stroke-linecap="round" stroke-linejoin="round" stroke-width="1.0"/>
    </g>
    <g id="shape5" transform="matrix(1.0, 0.0, 0.0, 1.0, 6.1, 6.7)">
      <path d="M0.55 -5.95 Q2.45 -6.1 3.95 -4.25 5.45 -2.35 5.6 0.6 5.75 3.5 3.7 4.9 1.7 6.25 -0.65 6.25 -2.7 6.25 -4.25 4.75 -5.8 3.25 -5.6 -0.25 -5.4 -3.8 -3.75 -5.1 -2.05 -6.35 -0.9 -6.2 L0.55 -5.95" fill="#ffffff" fill-rule="evenodd" stroke="none"/>
      <path d="M0.55 -5.95 Q2.45 -6.1 3.95 -4.25 5.45 -2.35 5.6 0.6 5.75 3.5 3.7 4.9 1.7 6.25 -0.65 6.25 -2.7 6.25 -4.25 4.75 -5.8 3.25 -5.6 -0.25 -5.4 -3.8 -3.75 -5.1 -2.05 -6.35 -0.9 -6.2 L0.55 -5.95 Z" ffdec:has-small-stroke="true" ffdec:original-stroke-width="1.0" fill="none" stroke="#000000" stroke-linecap="round" stroke-linejoin="round" stroke-width="1.0006834001083182"/>
    </g>
    <g id="shape6" transform="matrix(1.0, 0.0, 0.0, 1.0, 6.1, 6.7)">
      <path d="M0.55 -5.95 Q2.45 -6.1 3.95 -4.25 5.45 -2.35 5.6 0.6 5.75 3.5 3.7 4.9 1.7 6.25 -0.65 6.25 -2.7 6.25 -4.25 4.75 -5.8 3.25 -5.6 -0.25 -5.4 -3.8 -3.75 -5.1 -2.05 -6.35 -0.9 -6.2 L0.55 -5.95" fill="#ffffff" fill-rule="evenodd" stroke="none"/>
      <path d="M0.55 -5.95 Q2.45 -6.1 3.95 -4.25 5.45 -2.35 5.6 0.6 5.75 3.5 3.7 4.9 1.7 6.25 -0.65 6.25 -2.7 6.25 -4.25 4.75 -5.8 3.25 -5.6 -0.25 -5.4 -3.8 -3.75 -5.1 -2.05 -6.35 -0.9 -6.2 L0.55 -5.95 Z" ffdec:has-small-stroke="true" ffdec:original-stroke-width="1.0" fill="none" stroke="#000000" stroke-linecap="round" stroke-linejoin="round" stroke-width="1.0030191174923844"/>
    </g>
    <g id="shape7" transform="matrix(1.0, 0.0, 0.0, 1.0, 0.0, 0.0)">
      <path d="M4.3 1.7 Q26.3 18.75 21.45 40.75 16.15 68.8 16.6 80.95 17.05 93.1 18.15 99.55 19.2 106.0 18.65 112.15 L17.55 123.6 Q24.3 134.95 25.3 147.9 25.8 153.9 24.65 159.85 27.45 163.85 26.6 168.85 24.85 179.4 20.7 189.05 L19.5 191.5 21.55 219.6 28.25 226.7 Q29.3 240.6 33.25 253.5 31.9 257.65 32.55 261.8 27.75 286.85 33.1 320.6 L33.2 320.65 32.8 321.55 Q30.85 326.25 29.5 331.2 31.45 335.5 0.0 326.9 L0.0 0.0 4.3 1.7" fill="#000000" fill-rule="evenodd" stroke="none"/>
    </g>
    <g id="shape8" transform="matrix(1.0, 0.0, 0.0, 1.0, 0.75, 0.75)">
      <path d="M0.0 0.0 L4.3 1.7 Q26.3 18.75 21.45 40.75 16.15 68.8 16.6 80.95 17.05 93.1 18.15 99.55 19.2 106.0 18.65 112.15 L17.55 123.6 Q24.3 134.95 25.3 147.9 25.8 153.9 24.65 159.85 27.45 163.85 26.6 168.85 24.85 179.4 20.7 189.05 L19.5 191.5 21.55 219.6 28.25 226.7 Q29.3 240.6 33.25 253.5 31.9 257.65 32.55 261.8 27.75 286.85 33.1 320.6 L33.2 320.65 32.8 321.55 Q30.85 326.25 29.5 331.2 31.45 335.5 0.0 326.9 L0.0 0.0" fill="#ffffff" fill-rule="evenodd" stroke="none"/>
      <path d="M0.0 0.0 L4.3 1.7 Q26.3 18.75 21.45 40.75 16.15 68.8 16.6 80.95 17.05 93.1 18.15 99.55 19.2 106.0 18.65 112.15 L17.55 123.6 Q24.3 134.95 25.3 147.9 25.8 153.9 24.65 159.85 27.45 163.85 26.6 168.85 24.85 179.4 20.7 189.05 L19.5 191.5 21.55 219.6 28.25 226.7 Q29.3 240.6 33.25 253.5 31.9 257.65 32.55 261.8 27.75 286.85 33.1 320.6 L33.2 320.65 32.8 321.55 Q30.85 326.25 29.5 331.2" fill="none" stroke="#000000" stroke-linecap="round" stroke-linejoin="round" stroke-width="1.5"/>
      <path d="M12.2 23.7 Q11.05 23.25 9.6 23.15 L9.35 23.1 7.4 23.1 6.45 23.1 4.4 25.55 Q2.0 28.15 -0.75 30.35 L-0.75 21.0 1.2 20.6 8.25 20.3 Q14.8 20.15 16.3 24.65 17.0 26.65 17.0 28.3 17.05 33.05 11.6 34.6 L8.0 34.6 6.45 33.65 Q5.25 31.75 4.85 29.45 L4.65 28.25 5.15 27.4 Q6.35 25.6 8.25 25.05 L8.3 24.9 10.7 24.9 8.9 25.5 8.0 27.0 8.0 30.05 8.6 30.95 8.85 31.2 Q9.65 31.85 10.7 32.15 L11.3 32.15 12.9 31.65 14.35 30.65 14.65 30.35 14.95 26.4 14.05 24.9 Q13.3 24.15 12.2 23.7" fill="#def2fe" fill-rule="evenodd" stroke="none"/>
      <path d="M32.5 253.8 Q31.15 257.95 31.8 262.1 29.85 272.2 29.6 283.75 L28.8 282.15 Q27.65 274.95 29.65 269.15 30.9 265.5 30.6 260.65 L28.8 258.4 28.8 255.3 Q31.0 249.35 27.95 245.0 L26.6 242.75 Q22.85 239.55 18.1 237.25 16.9 236.65 16.75 235.6 19.8 232.1 23.5 229.85 24.65 229.2 25.25 227.95 L26.6 227.5 27.15 226.65 27.5 227.0 Q28.55 240.9 32.5 253.8 M28.75 331.5 Q29.3 332.7 27.15 332.9 25.75 330.0 25.7 326.05 L25.7 325.6 27.95 322.0 Q30.05 320.8 32.2 319.75 L32.35 320.9 32.45 320.95 32.05 321.85 Q30.1 326.55 28.75 331.5 M16.4 69.3 Q15.65 76.5 15.85 81.25 16.3 93.4 17.4 99.85 18.45 106.3 17.9 112.45 L16.85 123.45 Q14.65 121.3 12.2 119.65 L11.8 119.6 10.9 117.8 10.9 112.4 13.6 107.05 Q11.5 89.6 15.1 73.6 15.55 71.45 16.4 69.3 M23.95 163.05 L23.5 159.45 24.25 158.05 23.9 160.15 Q26.7 164.15 25.85 169.15 L24.2 176.95 Q22.75 182.45 20.7 187.65 L19.95 189.35 19.1 191.15 18.75 191.8 18.9 193.5 18.55 193.05 18.5 192.3 18.25 192.3 17.95 191.65 14.0 190.0 12.85 189.85 11.05 189.0 10.7 188.95 13.45 187.75 14.65 186.55 17.05 185.05 17.35 184.4 20.75 181.15 Q24.85 174.8 25.25 165.25 L23.95 163.05" fill="#caeafe" fill-rule="evenodd" stroke="none"/>
    </g>
  </defs>
</svg>
