<?xml version="1.0" encoding="UTF-8" standalone="no"?>
<svg xmlns:ffdec="https://www.free-decompiler.com/flash" xmlns:xlink="http://www.w3.org/1999/xlink" ffdec:objectType="frame" height="256.2px" width="198.05px" xmlns="http://www.w3.org/2000/svg">
  <g transform="matrix(1.0, 0.0, 0.0, 1.0, 85.55, 229.1)">
    <use ffdec:characterId="281" height="81.0" id="mcAngle" transform="matrix(1.0, 0.0, 0.0, 1.0, -78.4, -78.1)" width="81.05" xlink:href="#sprite0"/>
    <use ffdec:characterId="284" height="39.8" id="mcBarrel" transform="matrix(0.6283, -0.7737, 0.7737, 0.6283, -27.8761, -12.3519)" width="41.1" xlink:href="#sprite1"/>
    <use ffdec:characterId="296" height="20.0" id="mcSliderKnob" transform="matrix(1.0, 0.0, 0.0, 1.0, -12.45, -85.75)" width="19.95" xlink:href="#sprite2"/>
    <use ffdec:characterId="385" height="110.8" id="mcCannonAndMonkey" transform="matrix(-1.0, 0.0, 0.0, 1.0, 105.9, -86.85)" width="126.55" xlink:href="#sprite5"/>
    <use ffdec:characterId="399" height="136.25" id="mcAddSnow" transform="matrix(1.0, 0.0, 0.0, 1.0, -36.95, -172.1)" width="136.25" xlink:href="#sprite11"/>
    <use ffdec:characterId="410" height="136.6" id="mcSetPower" transform="matrix(1.0, 0.0, 0.0, 1.0, -24.1, -229.1)" width="136.6" xlink:href="#sprite13"/>
  </g>
  <defs>
    <g id="sprite0" transform="matrix(1.0, 0.0, 0.0, 1.0, 2.6, 2.5)">
      <use ffdec:characterId="280" height="81.0" transform="matrix(1.0, 0.0, 0.0, 1.0, -2.6, -2.5)" width="81.05" xlink:href="#shape0"/>
    </g>
    <g id="shape0" transform="matrix(1.0, 0.0, 0.0, 1.0, 2.6, 2.5)">
      <path d="M71.7 -0.55 L72.0 0.15 71.7 0.85 71.0 1.15 Q70.6 1.15 70.3 0.85 70.0 0.55 70.0 0.15 70.0 -0.25 70.3 -0.55 70.6 -0.85 71.0 -0.85 L71.7 -0.55 M66.05 -0.4 L66.75 -0.1 67.05 0.6 66.75 1.3 66.05 1.6 Q65.65 1.6 65.35 1.3 65.05 1.0 65.05 0.6 65.05 0.2 65.35 -0.1 65.65 -0.4 66.05 -0.4 M61.8 2.05 L61.1 2.35 Q60.7 2.35 60.4 2.05 60.1 1.75 60.1 1.35 60.1 0.95 60.4 0.65 60.7 0.35 61.1 0.35 L61.8 0.65 62.1 1.35 61.8 2.05 M56.95 1.7 L57.25 2.4 56.95 3.1 Q56.65 3.4 56.25 3.4 L55.55 3.1 Q55.25 2.8 55.25 2.4 55.25 2.0 55.55 1.7 55.85 1.4 56.25 1.4 56.65 1.4 56.95 1.7 M50.75 4.55 Q50.45 4.25 50.45 3.85 50.45 3.45 50.75 3.15 51.05 2.85 51.45 2.85 51.85 2.85 52.15 3.15 L52.45 3.85 52.15 4.55 51.45 4.85 50.75 4.55 M42.85 7.0 L43.15 7.7 42.85 8.4 Q42.55 8.7 42.15 8.7 L41.45 8.4 Q41.15 8.1 41.15 7.7 41.15 7.3 41.45 7.0 41.75 6.7 42.15 6.7 42.55 6.7 42.85 7.0 M34.25 12.1 L34.55 12.8 34.25 13.5 33.55 13.8 Q33.15 13.8 32.85 13.5 32.55 13.2 32.55 12.8 32.55 12.4 32.85 12.1 33.15 11.8 33.55 11.8 33.95 11.8 34.25 12.1 M37.05 10.8 Q36.75 10.5 36.75 10.1 36.75 9.7 37.05 9.4 37.35 9.1 37.75 9.1 38.15 9.1 38.45 9.4 L38.75 10.1 38.45 10.8 37.75 11.1 Q37.35 11.1 37.05 10.8 M26.4 18.3 L26.7 19.0 26.4 19.7 26.35 19.75 25.7 20.0 Q25.3 20.0 25.0 19.7 L24.95 19.65 24.7 19.0 Q24.7 18.6 25.0 18.3 25.3 18.0 25.7 18.0 26.1 18.0 26.4 18.3 M28.55 15.75 Q28.55 15.35 28.85 15.05 29.15 14.75 29.55 14.75 29.95 14.75 30.25 15.05 L30.55 15.75 30.25 16.45 Q29.95 16.75 29.55 16.75 L28.85 16.45 Q28.55 16.15 28.55 15.75 M19.4 25.3 L19.7 26.0 19.4 26.7 18.7 27.0 18.0 26.7 Q17.7 26.4 17.7 26.0 17.7 25.6 18.0 25.3 18.3 25.0 18.7 25.0 19.1 25.0 19.4 25.3 M16.25 30.55 L15.55 30.85 14.85 30.55 Q14.55 30.25 14.55 29.85 14.55 29.45 14.85 29.15 15.15 28.85 15.55 28.85 15.95 28.85 16.25 29.15 L16.55 29.85 16.25 30.55 M13.6 33.85 L13.3 34.55 12.6 34.85 11.9 34.55 Q11.6 34.25 11.6 33.85 11.6 33.45 11.9 33.15 12.2 32.85 12.6 32.85 13.0 32.85 13.3 33.15 L13.6 33.85 M8.95 38.0 Q8.95 37.6 9.25 37.3 9.55 37.0 9.95 37.0 10.35 37.0 10.65 37.3 L10.95 38.0 10.65 38.7 9.95 39.0 Q9.55 39.0 9.25 38.7 8.95 38.4 8.95 38.0 M6.9 41.7 Q7.2 41.4 7.6 41.4 8.0 41.4 8.3 41.7 L8.6 42.4 8.3 43.1 7.6 43.4 6.9 43.1 Q6.6 42.8 6.6 42.4 6.6 42.0 6.9 41.7 M4.3 50.85 L4.5 51.0 4.8 51.7 4.75 52.0 4.5 52.4 3.8 52.7 Q3.4 52.7 3.1 52.4 2.8 52.1 2.8 51.7 2.8 51.3 3.1 51.0 3.4 50.7 3.8 50.7 L3.9 50.7 4.3 50.85 M3.4 56.5 L3.1 57.2 2.4 57.5 Q2.0 57.5 1.7 57.2 L1.4 56.5 Q1.4 56.1 1.7 55.8 2.0 55.5 2.4 55.5 2.8 55.5 3.1 55.8 L3.4 56.5 M0.6 60.7 Q0.9 60.4 1.3 60.4 1.7 60.4 2.0 60.7 L2.3 61.4 2.0 62.1 1.3 62.4 0.6 62.1 Q0.3 61.8 0.3 61.4 0.3 61.0 0.6 60.7 M1.55 66.45 L1.25 67.15 0.55 67.45 Q0.15 67.45 -0.15 67.15 L-0.45 66.45 -0.15 65.75 Q0.15 65.45 0.55 65.45 0.95 65.45 1.25 65.75 L1.55 66.45 M0.1 72.4 L-0.6 72.1 -0.9 71.4 -0.6 70.7 Q-0.3 70.4 0.1 70.4 0.5 70.4 0.8 70.7 L1.1 71.4 0.8 72.1 0.1 72.4" fill="#3399ff" fill-rule="evenodd" stroke="none"/>
      <path d="M77.0 -1.05 L77.45 0.0 77.0 1.05 Q76.55 1.5 75.95 1.5 75.35 1.5 74.9 1.05 74.45 0.6 74.45 0.0 74.45 -0.6 74.9 -1.05 75.35 -1.5 75.95 -1.5 76.55 -1.5 77.0 -1.05 M46.75 4.05 Q47.35 4.05 47.85 4.5 48.3 4.95 48.35 5.6 48.3 6.25 47.85 6.7 47.35 7.15 46.75 7.2 46.1 7.15 45.65 6.7 45.15 6.25 45.2 5.6 45.15 4.95 45.65 4.5 46.1 4.05 46.75 4.05 M22.15 20.85 Q22.75 20.85 23.2 21.3 23.65 21.75 23.65 22.35 L23.2 23.4 Q22.75 23.85 22.15 23.85 21.55 23.85 21.1 23.4 20.65 22.95 20.65 22.35 20.65 21.75 21.1 21.3 21.55 20.85 22.15 20.85 M4.0 46.95 Q4.0 46.3 4.45 45.8 4.95 45.35 5.6 45.35 6.2 45.35 6.65 45.8 7.15 46.3 7.15 46.95 L6.65 48.05 Q6.2 48.5 5.6 48.5 4.95 48.5 4.45 48.05 4.0 47.55 4.0 46.95 M0.95 77.05 Q0.5 77.5 -0.1 77.5 -0.7 77.5 -1.15 77.05 L-1.6 76.0 Q-1.6 75.4 -1.15 74.95 -0.7 74.5 -0.1 74.5 0.5 74.5 0.95 74.95 1.4 75.4 1.4 76.0 L0.95 77.05 Z" fill="none" stroke="#3399ff" stroke-linecap="round" stroke-linejoin="round" stroke-width="2.0"/>
      <path d="M22.15 20.85 Q22.75 20.85 23.2 21.3 23.65 21.75 23.65 22.35 L23.2 23.4 Q22.75 23.85 22.15 23.85 21.55 23.85 21.1 23.4 20.65 22.95 20.65 22.35 20.65 21.75 21.1 21.3 21.55 20.85 22.15 20.85" fill="#ffffff" fill-rule="evenodd" stroke="none"/>
      <path d="M47.85 4.45 Q48.3 4.95 48.3 5.55 48.3 6.2 47.85 6.65 47.35 7.15 46.75 7.15 46.1 7.15 45.65 6.65 45.15 6.2 45.15 5.55 45.15 4.95 45.65 4.45 46.1 4.0 46.75 4.0 47.35 4.0 47.85 4.45" fill="#ffffff" fill-rule="evenodd" stroke="none"/>
      <path d="M75.95 -1.5 Q76.55 -1.5 77.0 -1.05 L77.45 0.0 77.0 1.05 Q76.55 1.5 75.95 1.5 75.35 1.5 74.9 1.05 74.45 0.6 74.45 0.0 74.45 -0.6 74.9 -1.05 75.35 -1.5 75.95 -1.5" fill="#ffffff" fill-rule="evenodd" stroke="none"/>
      <path d="M1.4 76.0 L0.95 77.05 Q0.5 77.5 -0.1 77.5 -0.7 77.5 -1.15 77.05 L-1.6 76.0 Q-1.6 75.4 -1.15 74.95 -0.7 74.5 -0.1 74.5 0.5 74.5 0.95 74.95 1.4 75.4 1.4 76.0" fill="#ffffff" fill-rule="evenodd" stroke="none"/>
      <path d="M4.0 46.95 Q4.0 46.3 4.5 45.85 4.95 45.35 5.6 45.35 6.2 45.35 6.7 45.85 7.15 46.3 7.15 46.95 7.15 47.6 6.7 48.05 L5.6 48.5 Q4.95 48.5 4.5 48.05 4.0 47.6 4.0 46.95" fill="#ffffff" fill-rule="evenodd" stroke="none"/>
    </g>
    <g id="sprite1" transform="matrix(1.0, 0.0, 0.0, 1.0, 21.65, 17.35)">
      <use ffdec:characterId="282" height="18.5" transform="matrix(0.9982, -0.0264, 0.0264, 0.9982, -14.9917, -4.0882)" width="19.15" xlink:href="#shape1"/>
      <use ffdec:characterId="283" height="27.1" transform="matrix(0.9982, -0.0264, 0.0264, 0.9982, -21.6749, -4.6067)" width="26.2" xlink:href="#shape2"/>
    </g>
    <g id="shape1" transform="matrix(1.0, 0.0, 0.0, 1.0, 11.25, 8.05)">
      <path d="M0.35 -8.05 L2.8 -5.15 2.7 -5.1 7.9 0.9 7.3 2.2 -1.15 10.45 -1.15 9.05 5.35 2.65 5.85 1.75 Q6.55 0.75 6.1 0.2 L4.15 -2.05 2.0 -4.45 2.0 -4.5 0.15 -6.5 -11.25 1.1 -11.25 -1.0 0.35 -8.05" fill="#000000" fill-rule="evenodd" stroke="none"/>
      <path d="M2.0 -4.5 L2.0 -4.45 4.15 -2.05 6.1 0.2 Q6.55 0.75 5.85 1.75 L5.35 2.65 -1.15 9.05 -7.35 9.05 -11.25 1.1 0.15 -6.5 2.0 -4.5" fill="url(#gradient0)" fill-rule="evenodd" stroke="none"/>
    </g>
    <linearGradient gradientTransform="matrix(0.0048, 0.0059, -0.0074, 0.006, -2.0, 1.7)" gradientUnits="userSpaceOnUse" id="gradient0" spreadMethod="pad" x1="-819.2" x2="819.2">
      <stop offset="0.0" stop-color="#737373"/>
      <stop offset="1.0" stop-color="#bfbfbf"/>
    </linearGradient>
    <g id="shape2" transform="matrix(1.0, 0.0, 0.0, 1.0, 14.1, 11.4)">
      <path d="M-12.2 -1.45 L-14.1 -1.7 1.65 -11.4 5.65 -6.65 5.6 -6.6 12.1 1.0 11.15 3.0 -1.75 15.7 -1.05 12.7 Q7.6 5.35 9.15 3.05 10.9 0.35 9.9 -0.55 L7.05 -3.55 4.85 -5.95 4.7 -6.15 4.8 -6.1 1.3 -9.95 -12.2 -1.45" fill="#000000" fill-rule="evenodd" stroke="none"/>
      <path d="M-12.2 -1.45 L1.3 -9.95 4.8 -6.1 4.7 -6.15 4.85 -5.95 7.05 -3.55 9.9 -0.55 Q10.9 0.35 9.15 3.05 7.6 5.35 -1.05 12.7 L-12.2 -1.45" fill="url(#gradient1)" fill-rule="evenodd" stroke="none"/>
    </g>
    <linearGradient gradientTransform="matrix(0.0062, 0.0078, -0.0108, 0.0086, -1.0, 1.3)" gradientUnits="userSpaceOnUse" id="gradient1" spreadMethod="pad" x1="-819.2" x2="819.2">
      <stop offset="0.0" stop-color="#a7a7a7"/>
      <stop offset="1.0" stop-color="#eaeaea"/>
    </linearGradient>
    <g id="sprite2" transform="matrix(1.0, 0.0, 0.0, 1.0, 9.75, 10.0)">
      <use ffdec:characterId="285" height="20.0" transform="matrix(1.0, 0.0, 0.0, 1.0, -9.75, -10.0)" width="19.95" xlink:href="#shape3"/>
      <use ffdec:characterId="287" height="10.05" id="mcSliderDirection" transform="matrix(1.0, 0.0, 0.0, 1.0, -4.45, -4.9)" width="8.8" xlink:href="#sprite3"/>
      <use ffdec:characterId="288" height="13.1" transform="matrix(1.0, 0.0, 0.0, 1.0, -6.4, -6.55)" width="13.1" xlink:href="#shape5"/>
      <use ffdec:characterId="292" height="26.2" transform="matrix(0.5, 0.0, 0.0, 0.5, -6.4, -6.55)" width="26.25" xlink:href="#sprite4"/>
      <use ffdec:characterId="294" height="12.0" transform="matrix(1.25, 0.0, 0.0, 1.25, -7.2876, -7.5001)" width="11.95" xlink:href="#button0"/>
    </g>
    <g id="shape3" transform="matrix(1.0, 0.0, 0.0, 1.0, 9.75, 10.0)">
      <path d="M10.2 0.0 Q10.2 4.1 7.25 7.05 4.3 10.0 0.25 10.0 -3.95 10.0 -6.85 7.05 -9.8 4.1 -9.75 0.0 -9.8 -4.15 -6.85 -7.1 -3.95 -10.0 0.25 -10.0 4.3 -10.0 7.25 -7.1 10.2 -4.15 10.2 0.0" fill="#000000" fill-opacity="0.03137255" fill-rule="evenodd" stroke="none"/>
      <path d="M9.75 0.05 Q9.75 3.95 6.95 6.75 4.15 9.55 0.25 9.55 -3.75 9.55 -6.55 6.75 -9.3 3.95 -9.3 0.05 -9.3 -3.95 -6.55 -6.75 -3.75 -9.5 0.25 -9.5 4.15 -9.5 6.95 -6.75 9.75 -3.95 9.75 0.05" fill="#000000" fill-opacity="0.0627451" fill-rule="evenodd" stroke="none"/>
      <path d="M9.05 0.05 Q9.05 3.65 6.45 6.25 3.85 8.85 0.25 8.85 -3.45 8.85 -6.0 6.25 -8.6 3.65 -8.6 0.05 -8.6 -3.65 -6.0 -6.25 -3.45 -8.85 0.25 -8.8 3.85 -8.85 6.45 -6.25 9.05 -3.65 9.05 0.05" fill="#000000" fill-opacity="0.15294118" fill-rule="evenodd" stroke="none"/>
      <path d="M4.35 -5.0 L3.3 -5.75 Q1.9 -6.55 0.15 -6.55 -2.6 -6.55 -4.5 -4.65 -6.4 -2.75 -6.4 0.0 -6.4 2.0 -5.3 3.6 L-4.75 4.3 -4.85 4.2 -4.5 4.6 -4.45 4.6 -4.4 4.65 -4.2 4.9 -4.1 4.95 -3.6 5.35 -2.65 5.9 Q-1.35 6.55 0.2 6.55 2.9 6.55 4.8 4.65 6.7 2.75 6.75 0.05 6.75 -1.35 6.25 -2.5 L4.95 -4.4 5.15 -4.25 4.85 -4.55 4.8 -4.6 4.8 -4.65 4.5 -4.9 4.35 -5.0 M5.85 -5.7 Q8.2 -3.35 8.25 0.0 8.2 3.35 5.85 5.7 3.45 8.1 0.15 8.1 -3.2 8.1 -5.6 5.7 -7.95 3.35 -7.95 0.0 -7.95 -3.35 -5.6 -5.7 -3.2 -8.1 0.15 -8.05 3.45 -8.1 5.85 -5.7" fill="#000000" fill-rule="evenodd" stroke="none"/>
      <path d="M4.8 -4.6 Q6.7 -2.7 6.7 0.05 6.7 2.75 4.8 4.65 2.9 6.55 0.2 6.55 -2.55 6.55 -4.45 4.65 -6.35 2.75 -6.35 0.05 -6.35 -2.7 -4.45 -4.6 -2.55 -6.5 0.2 -6.5 2.9 -6.5 4.8 -4.6" fill="url(#gradient2)" fill-rule="evenodd" stroke="none"/>
    </g>
    <linearGradient gradientTransform="matrix(0.0055, 0.0057, -0.0057, 0.0055, 0.2, 0.05)" gradientUnits="userSpaceOnUse" id="gradient2" spreadMethod="pad" x1="-819.2" x2="819.2">
      <stop offset="0.0" stop-color="#68b4fd"/>
      <stop offset="1.0" stop-color="#0157ad"/>
    </linearGradient>
    <g id="sprite3" transform="matrix(1.0, 0.0, 0.0, 1.0, 4.4, 5.0)">
      <use ffdec:characterId="286" height="10.05" transform="matrix(1.0, 0.0, 0.0, 1.0, -4.4, -5.0)" width="8.8" xlink:href="#shape4"/>
    </g>
    <g id="shape4" transform="matrix(1.0, 0.0, 0.0, 1.0, 4.4, 5.0)">
      <path d="M-4.4 -0.6 L0.0 -5.0 4.4 -0.6 -4.4 -0.6 M-4.4 0.7 L4.4 0.7 0.0 5.05 -4.4 0.7" fill="#ffffff" fill-rule="evenodd" stroke="none"/>
    </g>
    <g id="shape5" transform="matrix(1.0, 0.0, 0.0, 1.0, 6.4, 6.55)">
      <path d="M5.15 -4.25 Q3.35 -5.8 0.9 -5.8 -1.8 -5.8 -3.7 -3.9 -5.6 -1.95 -5.6 0.75 -5.6 3.2 -4.1 4.95 L-4.5 4.6 Q-6.4 2.7 -6.4 0.0 -6.4 -2.75 -4.5 -4.65 -2.55 -6.55 0.15 -6.55 2.85 -6.55 4.75 -4.65 L5.15 -4.25" fill="#ffffff" fill-opacity="0.5019608" fill-rule="evenodd" stroke="none"/>
      <path d="M4.8 -4.6 Q6.7 -2.7 6.7 0.0 6.7 2.7 4.8 4.65 2.85 6.55 0.15 6.55 -2.6 6.55 -4.45 4.65 L-4.85 4.25 Q-3.05 5.75 -0.6 5.75 2.1 5.75 4.0 3.85 5.9 1.95 5.9 -0.75 5.9 -3.2 4.35 -5.0 L4.8 -4.6" fill="#003366" fill-opacity="0.2" fill-rule="evenodd" stroke="none"/>
    </g>
    <g id="sprite4" transform="matrix(1.0, 0.0, 0.0, 1.0, 0.0, 0.0)">
      <use ffdec:characterId="289" height="26.2" transform="matrix(1.0, 0.0, 0.0, 1.0, 0.0, 0.0)" width="26.25" xlink:href="#morphshape0"/>
    </g>
    <g id="morphshape0" transform="matrix(1.0, 0.0, 0.0, 1.0, 0.0, 0.0)">
      <path d="M0.0 13.05 Q0.0 17.1 2.2 20.3 L3.3 21.65 3.1 21.5 3.8 22.25 3.85 22.3 3.95 22.4 4.4 22.85 4.6 23.0 5.55 23.75 5.85 23.95 7.45 24.9 Q10.05 26.2 13.2 26.2 18.6 26.2 22.4 22.4 26.25 18.55 26.25 13.15 26.25 10.4 25.25 8.05 L22.7 4.3 23.05 4.6 22.45 3.95 22.4 3.9 22.35 3.8 21.75 3.3 21.5 3.05 19.4 1.6 Q16.55 -0.05 13.05 0.0 7.65 -0.05 3.8 3.8 0.0 7.6 0.0 13.05" fill="#ffffff" fill-opacity="0.03137255" fill-rule="evenodd" stroke="none"/>
      <path d="M0.0 13.05 Q0.0 7.6 3.8 3.8 7.65 -0.05 13.05 0.0 16.55 -0.05 19.4 1.6 L21.5 3.05 21.75 3.3 22.35 3.8 22.4 3.9 22.45 3.95 23.05 4.6 22.7 4.3 25.25 8.05 Q26.25 10.4 26.25 13.15 26.25 18.55 22.4 22.4 18.6 26.2 13.2 26.2 10.05 26.2 7.45 24.9 L5.85 23.95 5.55 23.75 4.6 23.0 4.4 22.85 3.95 22.4 3.85 22.3 3.8 22.25 3.1 21.5 3.3 21.65 2.2 20.3 Q0.0 17.1 0.0 13.05 Z" ffdec:has-small-stroke="true" ffdec:original-stroke-width="0.0" fill="none" stroke="#000000" stroke-linecap="round" stroke-linejoin="round" stroke-opacity="0.0" stroke-width="2.0"/>
    </g>
    <g id="sprite5" transform="matrix(1.0, 0.0, 0.0, 1.0, 125.65, 69.65)">
      <use ffdec:characterId="297" height="0.25" transform="matrix(1.0, 0.0, 0.0, 1.0, -29.25, 13.1)" width="0.15" xlink:href="#shape6"/>
      <use ffdec:characterId="298" height="107.25" transform="matrix(-0.2131, 0.0209, 0.0209, 0.2131, -63.6833, -27.2793)" width="48.75" xlink:href="#shape7"/>
      <use ffdec:characterId="299" height="73.4" transform="matrix(1.0, 0.0, 0.0, 1.0, -121.25, -41.95)" width="72.55" xlink:href="#shape8"/>
      <use ffdec:characterId="11" height="9.05" transform="matrix(-0.1973, -0.0146, -0.0146, 0.1973, -63.3802, -31.3603)" width="34.15" xlink:href="#sprite6"/>
      <use ffdec:characterId="17" height="21.6" transform="matrix(-0.2294, -0.017, -0.017, 0.2294, -61.7009, -39.3731)" width="39.4" xlink:href="#sprite7"/>
      <use ffdec:characterId="300" height="14.0" transform="matrix(1.0, 0.0, 0.0, 1.0, -38.0, 4.15)" width="11.1" xlink:href="#shape13"/>
      <use ffdec:characterId="301" height="27.7" transform="matrix(1.0, 0.0, 0.0, 1.0, -49.2, 3.2)" width="44.15" xlink:href="#shape14"/>
      <use ffdec:characterId="302" height="12.15" transform="matrix(1.0, 0.0, 0.0, 1.0, -36.45, 5.5)" width="9.2" xlink:href="#shape15"/>
      <use ffdec:characterId="303" height="20.0" id="mcHitTestMonkey" transform="matrix(1.956, 0.0, 0.0, 3.7691, -86.15, -42.65)" width="20.0" xlink:href="#sprite9"/>
      <use ffdec:characterId="305" height="20.0" id="mcHitTestCannon" transform="matrix(1.75, 0.0, 0.0, 1.75, -38.5125, 0.25)" width="20.0" xlink:href="#sprite10"/>
    </g>
    <g id="shape6" transform="matrix(1.0, 0.0, 0.0, 1.0, 0.05, 0.1)">
      <path d="M0.05 0.15 L-0.05 0.0 0.1 -0.1 0.1 -0.05 0.05 0.15" fill="#ff9900" fill-rule="evenodd" stroke="none"/>
    </g>
    <g id="shape7" transform="matrix(1.0, 0.0, 0.0, 1.0, 24.35, 53.6)">
      <path d="M9.5 -7.25 Q8.8 -9.65 7.5 -11.8 L5.6 -14.5 5.5 -14.65 Q0.6 -20.5 -9.25 -25.0 -12.85 -26.65 -16.7 -27.7 L-17.45 -27.75 Q-20.25 -26.25 -20.95 -23.8 -21.3 -22.75 -21.95 -21.8 -21.0 -35.4 -14.1 -47.9 L-12.6 -48.5 -12.45 -48.5 -11.6 -48.7 -11.55 -48.9 -8.55 -49.65 -8.25 -49.9 -8.05 -50.15 -6.6 -50.55 Q-5.05 -51.1 -3.5 -50.55 L-2.9 -50.15 Q-1.45 -49.4 0.1 -48.8 3.0 -47.8 5.45 -46.05 L5.95 -45.15 7.95 -44.05 Q8.85 -42.6 10.25 -41.55 L11.45 -40.45 11.5 -40.1 11.55 -39.85 11.65 -39.5 Q13.3 -38.55 14.1 -36.7 14.45 -35.85 15.1 -35.15 L15.15 -34.85 15.2 -34.55 15.3 -34.25 15.55 -33.9 16.2 -32.9 16.85 -30.8 17.2 -29.45 17.2 -29.05 17.2 -28.75 17.4 -28.45 17.5 -28.3 17.6 -27.85 17.6 -27.25 17.6 -26.65 17.6 -26.35 17.8 -26.05 18.0 -25.7 18.1 -25.15 18.4 -23.3 18.45 -23.0 18.75 -22.7 18.8 -22.65 Q21.45 -9.9 21.95 2.75 22.55 16.3 22.0 29.75 21.6 40.8 18.15 51.5 L18.2 51.65 17.4 51.85 Q14.4 52.25 11.0 51.9 L10.1 52.05 7.15 51.5 Q7.8 50.95 7.8 50.05 L7.95 49.85 8.95 50.2 Q15.5 35.65 13.25 19.85 L12.7 19.4 12.65 18.6 12.65 18.1 13.0 14.0 12.3 13.4 Q12.65 10.6 12.45 7.85 L12.6 7.85 12.7 8.0 12.5 7.25 12.45 7.05 Q11.6 3.8 11.4 0.55 L11.2 -0.45 11.1 -1.2 11.05 -1.45 10.95 -1.75 10.85 -2.45 10.7 -3.6 10.55 -4.2 10.55 -4.25 10.15 -6.0 9.65 -6.9 9.55 -7.25 9.55 -7.15 9.5 -7.25 M-17.95 -24.45 L-18.8 -23.95 -19.25 -23.55 -18.75 -24.05 -18.4 -24.3 -17.95 -24.45" fill="#95632d" fill-rule="evenodd" stroke="none"/>
      <path d="M18.15 51.5 Q21.6 40.8 22.0 29.75 22.55 16.3 21.95 2.75 21.45 -9.9 18.8 -22.65 L18.75 -22.7 18.45 -23.0 18.4 -23.3 18.1 -25.15 18.0 -25.7 17.8 -26.05 17.6 -26.35 17.6 -26.65 17.6 -27.25 17.6 -27.85 17.5 -28.3 17.4 -28.45 17.2 -28.75 17.2 -29.05 17.2 -29.45 16.85 -30.8 16.2 -32.9 15.55 -33.9 15.3 -34.25 15.2 -34.55 15.15 -34.85 15.1 -35.15 Q14.45 -35.85 14.1 -36.7 13.3 -38.55 11.65 -39.5 L11.55 -39.85 11.5 -40.1 11.45 -40.45 10.25 -41.55 Q8.85 -42.6 7.95 -44.05 L5.95 -45.15 5.45 -46.05 Q3.0 -47.8 0.1 -48.8 -1.45 -49.4 -2.9 -50.15 L-3.5 -50.55 Q-5.05 -51.1 -6.6 -50.55 L-8.05 -50.15 -8.25 -49.9 -8.55 -49.65 -11.55 -48.9 -11.6 -48.7 -12.45 -48.5 -12.6 -48.5 -14.1 -47.9 Q-21.0 -35.4 -21.95 -21.8 -21.3 -22.75 -20.95 -23.8 -20.25 -26.25 -17.45 -27.75 L-16.7 -27.7 Q-12.85 -26.65 -9.25 -25.0 0.6 -20.5 5.5 -14.65 L5.6 -14.5 7.5 -11.8 Q8.8 -9.65 9.5 -7.25 L9.55 -7.1 9.55 -7.15 9.55 -7.25 9.65 -6.9 10.4 -4.7 10.55 -4.25 10.55 -4.2 10.7 -3.6 10.85 -2.45 10.95 -1.75 11.15 -0.85 11.2 -0.45 11.4 0.55 Q11.6 3.8 12.45 7.05 L12.35 6.95 12.4 7.65 12.45 7.85 Q12.65 10.6 12.3 13.4 L13.0 14.0 12.65 18.1 12.55 19.25 12.7 19.4 13.25 19.85 Q15.5 35.65 8.95 50.2 L7.95 49.85 5.15 49.0 7.25 48.0 7.35 47.05 8.15 46.7 8.65 44.3 Q12.25 26.0 9.6 7.3 L9.7 5.3 Q9.55 2.95 9.0 0.65 L8.55 -0.85 8.45 -1.25 8.3 -1.65 Q8.1 -2.15 8.2 -2.6 8.45 -4.4 7.4 -5.75 L7.2 -6.5 6.0 -9.95 5.95 -10.1 Q1.2 -20.0 -15.3 -24.35 L-15.95 -24.6 -16.45 -24.65 -16.7 -24.7 -17.0 -24.65 -17.95 -24.45 -18.4 -24.3 -18.75 -24.05 -19.25 -23.55 -19.35 -23.4 -19.85 -22.35 Q-22.0 -21.2 -21.55 -19.1 L-22.1 -18.75 -22.1 -18.1 Q-22.3 -2.15 -18.25 14.35 -16.6 21.3 -12.8 28.3 -11.1 31.6 -9.95 35.0 -8.85 38.3 -6.95 41.5 L-7.0 41.6 -6.85 42.1 -6.6 42.85 Q-4.3 46.5 1.0 49.2 3.9 50.65 7.15 51.5 L10.1 52.05 11.0 51.9 Q14.4 52.25 17.4 51.85 L18.2 51.65 18.35 51.6 18.15 51.5 M12.5 7.25 L12.7 8.0 12.6 7.85 12.4 7.65 12.45 7.3 12.5 7.25 M15.7 -38.2 L16.0 -37.85 17.05 -36.1 17.2 -35.75 17.2 -35.45 17.2 -35.15 Q19.35 -33.2 19.55 -30.3 L19.65 -29.1 Q20.85 -25.95 21.55 -22.65 L21.95 -21.7 22.1 -20.7 22.1 -20.55 22.15 -20.5 23.4 -10.7 24.0 -4.55 23.9 -4.5 Q24.5 2.95 24.4 10.35 24.15 26.25 22.15 42.0 L21.5 48.0 20.75 51.25 Q21.4 51.9 20.25 52.55 18.5 53.45 15.95 53.45 L15.2 53.65 Q9.25 53.85 3.55 51.75 -2.35 49.6 -6.05 46.2 -8.35 44.05 -9.15 41.75 -13.5 32.95 -17.2 23.9 -24.25 6.95 -24.35 -9.95 L-24.2 -17.05 -24.3 -17.05 -24.1 -19.2 -24.1 -19.7 -24.0 -19.75 -24.0 -20.35 -23.95 -20.5 -23.95 -20.65 -23.95 -20.75 Q-23.1 -30.25 -20.6 -39.55 -19.15 -44.95 -15.55 -49.6 L-15.25 -49.6 -15.2 -49.6 -13.45 -50.8 -12.3 -51.3 -11.55 -52.0 -10.1 -53.0 -8.55 -53.05 -8.3 -53.4 -7.9 -53.5 -7.2 -53.55 -7.1 -53.6 -2.55 -52.3 Q0.25 -51.7 3.0 -50.35 5.45 -49.15 7.45 -47.4 L7.7 -47.25 10.15 -44.6 13.4 -41.5 Q14.8 -40.05 15.7 -38.2" fill="#000000" fill-rule="evenodd" stroke="none"/>
      <path d="M9.5 -7.25 L9.55 -7.15 9.55 -7.1 9.5 -7.25 M9.65 -6.9 L10.15 -6.0 10.55 -4.25 10.4 -4.7 9.65 -6.9 M10.95 -1.75 L11.05 -1.45 11.1 -1.2 11.15 -0.85 10.95 -1.75 M12.65 18.1 L12.65 18.6 12.7 19.4 12.55 19.25 12.65 18.1 M7.95 49.85 L7.8 50.05 Q7.8 50.95 7.15 51.5 3.9 50.65 1.0 49.2 -4.3 46.5 -6.6 42.85 L-6.85 42.1 -7.0 41.6 -6.95 41.5 Q-8.85 38.3 -9.95 35.0 -11.1 31.6 -12.8 28.3 -16.6 21.3 -18.25 14.35 -22.3 -2.15 -22.1 -18.1 L-22.1 -18.75 -21.55 -19.1 Q-22.0 -21.2 -19.85 -22.35 L-19.35 -23.4 -19.25 -23.55 -18.8 -23.95 -17.95 -24.45 -17.0 -24.65 -16.7 -24.7 -16.45 -24.65 -15.95 -24.6 -15.3 -24.35 Q1.2 -20.0 5.95 -10.1 L6.0 -9.95 7.2 -6.5 7.4 -5.75 Q8.45 -4.4 8.2 -2.6 8.1 -2.15 8.3 -1.65 L8.45 -1.25 8.55 -0.85 9.0 0.65 Q9.55 2.95 9.7 5.3 L9.6 7.3 Q12.25 26.0 8.65 44.3 L8.15 46.7 7.35 47.05 7.25 48.0 5.15 49.0 7.95 49.85" fill="#d79e4a" fill-rule="evenodd" stroke="none"/>
    </g>
    <g id="shape8" transform="matrix(1.0, 0.0, 0.0, 1.0, 121.25, 41.95)">
      <path d="M-96.2 -24.15 Q-94.55 -23.35 -93.25 -22.1 -89.1 -17.8 -90.35 -11.85 -91.6 -6.05 -96.95 -3.5 L-97.0 -3.5 Q-100.3 -1.9 -104.25 -2.85 -106.8 -4.35 -108.4 -6.7 -109.2 -7.9 -109.45 -9.3 -110.1 -16.7 -103.15 -15.95 -98.7 -15.5 -100.8 -11.8 L-100.5 -11.4 -99.9 -11.3 Q-98.0 -14.7 -101.0 -16.5 -103.0 -17.65 -105.35 -17.0 -111.05 -15.3 -110.55 -9.3 -110.1 -3.95 -104.0 -2.0 -100.2 -0.75 -96.95 -2.4 -94.6 -3.25 -92.75 -5.0 -88.45 -9.05 -88.75 -15.0 -89.05 -21.05 -94.1 -24.15 -96.95 -25.95 -100.2 -26.75 -114.8 -27.9 -120.4 -14.9 -121.45 -12.5 -121.2 -9.85 -120.3 -0.7 -111.55 2.65 -107.35 4.25 -102.95 4.95 -91.8 6.7 -81.85 3.0 -78.75 1.55 -76.65 0.3 L-73.6 -0.85 Q-72.2 -2.3 -74.15 -2.5 L-81.85 1.75 Q-85.6 3.1 -91.05 3.9 -96.45 4.7 -101.6 4.0 -106.75 3.3 -110.05 2.25 -118.15 -0.3 -119.6 -8.65 -121.15 -17.65 -113.2 -22.9 -106.8 -27.1 -99.0 -25.1 L-96.2 -24.15" fill="#000000" fill-rule="evenodd" stroke="none"/>
      <path d="M-69.25 0.15 Q-68.55 1.95 -68.0 7.9 -67.4 13.8 -69.15 18.9 -70.85 23.75 -72.2 25.8 L-73.15 26.8 Q-70.8 27.5 -70.6 28.25 L-70.25 29.35 Q-71.65 30.6 -73.3 30.65 L-73.4 30.7 -73.4 30.8 -73.35 31.1 -73.25 31.2 Q-71.15 31.6 -69.35 30.05 -68.95 27.95 -70.15 27.15 L-71.4 26.3 -69.5 23.45 Q-67.95 21.0 -67.05 14.15 -66.15 7.35 -67.4 2.5 -68.7 -2.3 -69.5 -2.65 -69.9 -1.65 -69.25 0.15 M-65.2 -3.4 L-65.3 -2.5 Q-64.9 -0.85 -63.65 0.75 -60.3 5.9 -58.65 11.95 -56.4 20.25 -61.3 26.55 L-61.0 26.55 -61.0 26.6 -61.05 26.7 -60.95 27.0 -60.9 27.05 Q-59.5 27.65 -58.95 29.15 L-58.9 29.5 -59.0 29.6 -59.2 29.9 -59.25 29.95 -63.55 30.4 -63.65 30.6 -63.55 30.95 Q-60.25 32.35 -58.0 29.95 -57.9 27.9 -59.55 26.6 L-59.85 26.4 Q-57.8 24.15 -57.15 20.55 -56.35 15.95 -57.9 9.65 -59.4 3.7 -64.9 -3.55 L-65.05 -3.45 -65.2 -3.4" fill="#000000" fill-rule="evenodd" stroke="none"/>
      <path d="M-80.35 11.85 L-80.6 11.5 -80.95 11.25 -81.4 11.4 Q-83.35 6.65 -82.55 1.1 -81.6 -5.15 -79.7 -11.25 -77.5 -18.2 -73.0 -23.2 -73.0 -23.6 -73.4 -23.7 L-73.6 -23.8 Q-79.25 -18.45 -81.45 -10.25 -83.0 -4.45 -83.7 1.4 -84.35 6.75 -82.85 11.5 L-82.55 12.05 Q-83.8 13.1 -83.45 15.3 L-83.35 15.5 Q-82.9 15.8 -82.55 15.3 L-82.5 15.1 -82.5 14.7 -82.5 14.15 -82.05 13.35 -81.7 12.85 -80.5 12.1 -80.35 11.85" fill="#000000" fill-rule="evenodd" stroke="none"/>
      <path d="M-62.3 -22.8 L-62.2 -22.65 Q-51.4 -13.45 -50.2 0.5 -49.85 4.35 -51.5 7.45 -52.35 7.8 -51.4 8.65 L-51.3 8.8 -51.05 10.15 Q-50.95 10.4 -51.0 10.7 L-51.45 11.55 -51.45 11.7 Q-51.3 12.5 -50.5 12.2 L-50.05 11.55 -49.85 11.35 Q-49.6 9.35 -50.7 7.7 -47.75 2.6 -49.15 -3.55 -51.9 -15.85 -61.75 -23.8 -62.55 -23.55 -62.3 -22.8" fill="#000000" fill-rule="evenodd" stroke="none"/>
      <path d="M-63.35 -41.5 L-63.45 -41.6 -63.55 -41.65 Q-67.3 -42.5 -70.55 -40.9 -72.1 -40.1 -73.25 -38.8 L-73.5 -38.7 -73.7 -38.55 -73.75 -38.5 -74.15 -39.05 -75.55 -40.5 -75.6 -40.5 -75.75 -40.55 -75.75 -40.6 Q-77.55 -41.05 -78.85 -39.95 L-79.0 -39.85 -79.1 -39.65 -79.1 -39.6 -79.2 -39.55 -79.2 -39.5 -79.25 -39.4 -79.25 -39.35 -79.3 -39.3 -79.35 -39.3 -79.35 -39.25 -79.4 -38.8 -79.5 -38.6 -79.5 -38.45 -79.55 -38.3 -79.55 -38.25 -79.55 -37.95 -79.65 -36.45 -79.6 -36.0 -79.55 -35.95 -79.35 -35.3 -79.2 -35.25 -79.2 -35.1 -79.1 -35.05 -78.9 -34.9 -78.75 -34.8 -75.3 -34.9 -74.8 -35.1 -74.65 -35.25 -74.6 -35.3 -74.55 -34.9 Q-74.45 -32.5 -72.7 -30.6 L-72.6 -30.35 Q-71.35 -28.9 -69.5 -28.3 L-69.25 -28.15 -65.7 -28.05 -65.0 -28.05 Q-62.4 -29.0 -60.6 -31.05 -59.75 -31.95 -59.55 -33.1 L-59.2 -33.05 -59.2 -33.3 -59.5 -33.45 -59.6 -34.8 -59.6 -34.9 -59.65 -34.95 -59.3 -34.9 -58.05 -34.85 -57.95 -34.9 -57.4 -35.1 -56.55 -35.8 -56.55 -35.85 -56.4 -36.0 -56.4 -36.05 -56.2 -36.55 -56.15 -36.85 -56.1 -37.15 -56.1 -37.6 -56.2 -37.75 -56.25 -37.9 -56.3 -38.0 -56.6 -38.45 -57.1 -38.8 -57.2 -38.95 -57.4 -39.0 -57.95 -39.15 -57.95 -39.2 -58.1 -39.2 Q-59.75 -39.0 -61.0 -37.75 -62.35 -39.9 -64.45 -41.2 L-63.45 -41.3 -63.35 -41.35 -63.35 -41.5 M-60.4 -36.7 L-60.65 -37.05 -60.7 -37.15 -60.65 -37.35 -60.5 -37.45 -60.4 -37.55 -59.05 -38.35 -59.0 -38.45 -58.95 -38.45 -58.6 -38.5 -57.7 -38.45 -57.65 -38.45 -56.85 -37.7 -56.85 -37.6 -56.65 -37.3 -56.6 -37.25 -56.6 -37.1 -56.65 -36.8 -56.65 -36.5 -56.75 -36.35 -57.5 -35.65 -57.5 -35.55 -58.15 -35.5 -58.25 -35.5 -59.75 -35.6 -60.05 -36.1 -60.4 -36.7 M-57.25 -38.65 L-57.25 -38.6 -57.25 -38.65 M-60.95 -36.5 L-60.9 -36.4 -60.1 -35.25 -60.1 -34.9 -60.1 -33.8 -60.05 -33.65 -61.35 -33.95 -64.3 -34.5 -64.7 -34.6 -66.95 -34.75 -67.05 -34.8 -67.65 -34.8 -67.7 -34.8 -68.4 -34.7 -68.5 -34.7 -68.6 -34.7 -68.95 -34.7 -68.95 -34.65 -69.8 -34.55 -69.9 -34.5 -70.9 -34.4 Q-72.7 -34.2 -73.55 -32.95 L-73.5 -32.9 -73.3 -32.85 -73.0 -32.8 -72.3 -33.3 Q-70.65 -34.1 -68.75 -34.05 L-68.7 -34.1 -67.7 -34.25 -67.4 -34.25 -66.9 -34.2 -65.85 -34.1 -64.8 -34.0 -64.2 -33.9 -60.1 -33.2 -60.1 -32.6 Q-60.5 -31.55 -61.35 -30.9 L-62.15 -30.15 -62.25 -30.1 -62.25 -30.05 -62.3 -30.05 -62.95 -29.6 -63.0 -29.6 -63.05 -29.55 -63.15 -29.4 -65.1 -28.6 -65.2 -28.55 -69.15 -28.7 -71.5 -29.8 Q-72.05 -30.1 -72.2 -30.7 L-72.35 -30.95 -72.35 -31.0 -73.45 -32.5 -73.5 -32.7 -74.1 -35.55 -74.1 -35.6 -74.1 -35.65 -74.1 -35.75 -74.1 -36.05 -73.7 -37.35 -73.65 -37.55 -73.5 -37.85 -72.7 -38.7 -72.65 -38.75 -70.5 -40.45 -70.4 -40.55 -69.85 -40.7 Q-67.8 -41.7 -65.5 -41.2 -63.6 -40.3 -62.35 -38.7 L-61.2 -36.95 -60.95 -36.5 M-74.8 -36.05 L-74.9 -35.85 -75.0 -35.7 -75.6 -35.55 -76.35 -35.2 -76.75 -35.1 -77.8 -35.2 -78.6 -35.45 -78.7 -35.5 -78.95 -35.8 -79.0 -35.85 -79.1 -35.95 -79.2 -36.35 -79.2 -36.45 -79.0 -38.2 -79.0 -38.25 -79.0 -38.3 -78.95 -38.45 -78.9 -38.6 -78.85 -38.65 -78.7 -38.8 -78.6 -38.9 -78.6 -39.05 -78.2 -39.6 -78.1 -39.75 -78.05 -39.8 -77.95 -39.85 -77.95 -39.9 -77.85 -39.95 -77.5 -40.0 -75.8 -40.0 -75.2 -39.45 Q-74.45 -38.95 -74.15 -38.1 L-74.1 -38.05 -74.05 -38.05 -74.05 -38.0 -74.1 -37.8 -74.2 -37.55 -74.45 -36.7 -74.7 -36.15 -74.8 -36.05 M-65.0 -33.45 L-65.15 -33.7 -65.2 -33.7 -65.25 -33.7 Q-65.5 -33.8 -65.55 -33.5 L-65.45 -33.25 -65.0 -33.3 -65.0 -33.45 M-66.85 -33.8 L-66.9 -33.6 Q-66.95 -33.3 -66.65 -33.15 L-66.35 -33.25 -66.3 -33.35 -66.25 -33.4 -66.3 -33.75 -66.4 -33.85 -66.5 -33.85 -66.7 -33.9 -66.85 -33.8" fill="#000000" fill-rule="evenodd" stroke="none"/>
      <path d="M-60.4 -36.7 L-60.1 -37.1 -59.25 -37.75 Q-58.4 -37.85 -57.9 -37.3 L-57.85 -37.2 -57.8 -37.0 -57.75 -36.95 -57.7 -36.9 -57.7 -36.75 -57.7 -36.7 -57.9 -36.25 -58.25 -36.0 -59.4 -35.85 -59.9 -36.05 -60.05 -36.1 -59.75 -35.6 -58.25 -35.5 -58.15 -35.5 -57.5 -35.55 -57.5 -35.65 -56.75 -36.35 -56.65 -36.5 -56.65 -36.8 -56.6 -37.1 -56.6 -37.25 -56.65 -37.3 -56.85 -37.6 -56.85 -37.7 -57.65 -38.45 -57.7 -38.45 -58.6 -38.5 -58.95 -38.45 -59.0 -38.45 -59.05 -38.35 -60.4 -37.55 -60.5 -37.45 -60.65 -37.35 -60.7 -37.15 -60.65 -37.05 -60.4 -36.7 M-60.9 -36.4 L-60.95 -36.5 -61.2 -36.95 -62.35 -38.7 Q-63.6 -40.3 -65.5 -41.2 -67.8 -41.7 -69.85 -40.7 L-70.4 -40.55 -70.5 -40.45 -72.65 -38.75 -72.7 -38.7 -73.5 -37.85 -73.65 -37.55 -73.7 -37.35 -74.1 -36.05 -74.1 -35.75 -74.1 -35.65 -74.1 -35.6 -74.1 -35.55 -73.5 -32.7 -73.45 -32.5 -73.4 -32.6 -73.3 -32.85 -73.5 -32.9 -73.55 -32.95 Q-72.7 -34.2 -70.9 -34.4 L-69.9 -34.5 -69.8 -34.55 -68.95 -34.65 -68.95 -34.7 -68.6 -34.7 -68.5 -34.7 -68.4 -34.7 -67.7 -34.8 -67.65 -34.8 -67.05 -34.8 -66.95 -34.75 -64.7 -34.6 -64.3 -34.5 -61.35 -33.95 -60.05 -33.65 -60.1 -33.8 -60.1 -34.9 -60.1 -35.25 -60.9 -36.4 M-74.15 -38.1 Q-74.45 -38.95 -75.2 -39.45 L-75.8 -40.0 -77.5 -40.0 -77.85 -39.95 -77.95 -39.9 -77.95 -39.85 -78.05 -39.8 -78.1 -39.75 -78.2 -39.6 -78.6 -39.05 -78.6 -38.9 -78.7 -38.8 -78.85 -38.65 -78.9 -38.6 -78.95 -38.45 -79.0 -38.3 -79.0 -38.25 -79.0 -38.2 -79.2 -36.45 -79.2 -36.35 -79.1 -35.95 -79.0 -35.85 -78.95 -35.8 -78.7 -35.5 -78.6 -35.45 -77.8 -35.2 -76.75 -35.1 -76.35 -35.2 -75.6 -35.55 -75.0 -35.7 -74.9 -35.85 -74.8 -36.05 Q-75.7 -35.85 -76.55 -36.4 L-76.75 -36.45 -76.95 -36.75 -77.15 -36.95 -77.3 -37.1 -77.35 -37.2 -77.35 -37.35 -77.3 -37.8 -77.2 -37.95 -77.15 -38.0 -76.9 -38.2 -76.8 -38.3 -76.75 -38.3 -76.35 -38.55 Q-75.45 -38.7 -74.8 -38.15 L-74.75 -38.1 -74.75 -38.05 -74.75 -38.0 -74.7 -38.0 -74.4 -37.8 -74.3 -37.75 -74.3 -37.7 -74.3 -37.6 -74.25 -37.6 -74.2 -37.55 -74.1 -37.8 -74.05 -38.0 -74.05 -38.05 -74.1 -38.05 -74.15 -38.1 M-77.75 -38.05 L-77.8 -38.0 -77.8 -37.9 -77.85 -37.8 -77.75 -38.05" fill="#95632d" fill-rule="evenodd" stroke="none"/>
      <path d="M-60.05 -36.1 L-59.9 -36.05 -59.4 -35.85 -58.25 -36.0 -57.9 -36.25 -57.7 -36.7 -57.7 -36.75 -57.7 -36.9 -57.75 -36.95 -57.8 -37.0 -57.85 -37.2 -57.9 -37.3 Q-58.4 -37.85 -59.25 -37.75 L-60.1 -37.1 -60.4 -36.7 -60.05 -36.1 M-60.9 -36.4 L-60.95 -36.5 -60.9 -36.4 M-73.45 -32.5 L-72.35 -31.0 -72.35 -30.95 -72.2 -30.7 Q-72.05 -30.1 -71.5 -29.8 L-69.15 -28.7 -65.2 -28.55 -65.1 -28.6 -63.15 -29.4 -63.05 -29.55 -63.0 -29.6 -62.95 -29.6 -62.3 -30.05 -62.25 -30.05 -62.25 -30.1 -62.15 -30.15 -61.35 -30.9 Q-60.5 -31.55 -60.1 -32.6 L-60.1 -33.2 -64.2 -33.9 -64.8 -34.0 -65.85 -34.1 -66.9 -34.2 -67.4 -34.25 -67.7 -34.25 -68.7 -34.1 -68.75 -34.05 Q-70.65 -34.1 -72.3 -33.3 L-73.0 -32.8 -73.3 -32.85 -73.4 -32.6 -73.45 -32.5 M-74.2 -37.55 L-74.25 -37.6 -74.3 -37.6 -74.3 -37.7 -74.3 -37.75 -74.4 -37.8 -74.7 -38.0 -74.75 -38.0 -74.75 -38.05 -74.75 -38.1 -74.8 -38.15 Q-75.45 -38.7 -76.35 -38.55 L-76.75 -38.3 -76.8 -38.3 -76.9 -38.2 -77.15 -38.0 -77.2 -37.95 -77.3 -37.8 -77.35 -37.35 -77.35 -37.2 -77.3 -37.1 -77.15 -36.95 -76.95 -36.75 -76.75 -36.45 -76.55 -36.4 Q-75.7 -35.85 -74.8 -36.05 L-74.7 -36.15 -74.45 -36.7 -74.2 -37.55 M-77.75 -38.05 L-77.85 -37.8 -77.8 -37.9 -77.8 -38.0 -77.75 -38.05 M-66.85 -33.8 L-66.7 -33.9 -66.5 -33.85 -66.4 -33.85 -66.3 -33.75 -66.25 -33.4 -66.3 -33.35 -66.35 -33.25 -66.65 -33.15 Q-66.95 -33.3 -66.9 -33.6 L-66.85 -33.8 M-65.0 -33.45 L-65.0 -33.3 -65.45 -33.25 -65.55 -33.5 Q-65.5 -33.8 -65.25 -33.7 L-65.2 -33.7 -65.15 -33.7 -65.0 -33.45" fill="#d79e4a" fill-rule="evenodd" stroke="none"/>
    </g>
    <g id="sprite6" transform="matrix(1.0, 0.0, 0.0, 1.0, 16.2, 5.05)">
      <use ffdec:characterId="5" height="4.5" transform="matrix(1.0, 0.0, 0.0, 1.0, -7.65, -2.25)" width="15.3" xlink:href="#shape9"/>
    </g>
    <g id="shape9" transform="matrix(1.0, 0.0, 0.0, 1.0, 7.65, 2.25)">
      <path d="M7.6 -0.15 L7.6 0.5 Q0.1 3.55 -7.65 1.25 L-7.5 0.6 -6.9 -0.25 -6.15 -1.0 Q-1.9 -0.55 0.6 -2.25 L3.85 -1.55 7.1 -1.0 7.6 -0.15" fill="#000000" fill-rule="evenodd" stroke="none"/>
    </g>
    <g id="sprite7" transform="matrix(1.0, 0.0, 0.0, 1.0, 23.5, 12.3)">
      <use ffdec:characterId="12" height="17.25" transform="matrix(1.0, 0.0, 0.0, 1.0, -21.25, -10.1)" width="34.95" xlink:href="#shape10"/>
      <use ffdec:characterId="14" height="7.8" transform="matrix(1.0, 0.0, 0.0, 1.0, -16.85, -2.6)" width="25.55" xlink:href="#sprite8"/>
      <use ffdec:characterId="15" height="21.6" transform="matrix(1.0, 0.0, 0.0, 1.0, -23.5, -12.3)" width="39.4" xlink:href="#shape12"/>
    </g>
    <g id="shape10" transform="matrix(1.0, 0.0, 0.0, 1.0, 21.25, 10.1)">
      <path d="M5.7 -3.5 L6.05 -3.65 Q8.4 -4.15 10.45 -3.25 14.2 -1.65 13.65 2.6 13.55 3.45 13.05 4.05 L13.0 4.05 Q12.15 5.5 9.65 5.75 4.25 6.25 1.75 1.95 L1.6 1.85 1.5 1.45 1.45 1.4 1.4 0.8 1.4 -0.35 Q1.6 -1.85 3.15 -2.45 L5.7 -3.5" fill="#ffffff" fill-rule="evenodd" stroke="none"/>
      <path d="M-20.35 -6.45 L-19.75 -7.25 Q-16.65 -9.65 -12.7 -9.9 -7.05 -10.85 -3.5 -6.9 -0.55 -3.6 -1.1 0.95 -1.35 3.2 -3.25 4.65 -5.15 6.2 -7.5 6.7 L-12.95 7.15 -14.6 6.7 Q-15.35 6.3 -16.15 6.0 -17.95 5.4 -18.85 3.85 -20.95 2.45 -21.2 -0.1 -21.5 -3.5 -20.35 -6.45" fill="#ffffff" fill-rule="evenodd" stroke="none"/>
    </g>
    <g id="sprite8" transform="matrix(1.0, 0.0, 0.0, 1.0, 2.75, 0.0)">
      <use ffdec:characterId="13" height="5.35" transform="matrix(1.0, 0.0, 0.0, 1.0, 0.0, 0.0)" width="22.8" xlink:href="#shape11"/>
    </g>
    <g id="shape11" transform="matrix(1.0, 0.0, 0.0, 1.0, 2.75, -2.45)">
      <path d="M20.05 6.1 Q20.1 6.9 19.55 7.35 L18.6 7.8 18.5 7.8 17.9 7.65 17.35 7.5 16.75 6.95 Q16.25 6.45 16.35 5.8 L16.4 5.75 16.5 5.45 17.2 4.75 17.55 4.7 Q18.9 4.3 19.7 5.2 20.05 5.55 20.05 6.1" fill="#000000" fill-rule="evenodd" stroke="none"/>
      <path d="M1.1 3.95 Q1.3 5.05 0.7 5.9 0.5 6.25 0.0 6.3 -2.4 6.65 -2.7 4.4 -2.9 3.0 -1.65 2.55 -0.55 2.3 0.25 2.8 0.9 3.25 1.1 3.95" fill="#000000" fill-rule="evenodd" stroke="none"/>
    </g>
    <g id="shape12" transform="matrix(1.0, 0.0, 0.0, 1.0, 23.5, 12.3)">
      <path d="M1.4 -3.5 L1.95 -3.95 Q3.6 -5.2 5.4 -5.65 L5.45 -5.75 10.95 -5.5 11.45 -4.7 11.5 -4.6 11.9 -4.5 11.95 -4.5 12.1 -4.4 12.9 -3.85 Q15.7 -1.75 15.9 1.25 L15.65 2.75 15.55 3.1 12.35 6.85 Q11.8 6.95 11.35 7.3 L8.15 7.3 3.75 6.35 2.35 5.85 2.05 5.65 -0.15 2.7 -0.2 2.05 -0.25 0.25 -0.1 -1.4 -0.05 -1.75 1.1 -3.5 1.4 -3.5 M3.15 -2.45 Q1.6 -1.85 1.4 -0.35 L1.4 0.8 1.45 1.4 1.5 1.45 1.6 1.85 1.75 1.95 Q4.25 6.25 9.65 5.75 12.15 5.5 13.0 4.05 L13.05 4.05 Q13.55 3.45 13.65 2.6 14.2 -1.65 10.45 -3.25 8.4 -4.15 6.05 -3.65 L5.7 -3.5 3.15 -2.45" fill="#000000" fill-rule="evenodd" stroke="none"/>
      <path d="M0.85 -1.4 L0.85 1.3 0.9 1.5 Q0.15 3.1 -0.35 4.8 L-1.85 6.1 -2.9 7.0 Q-5.4 8.6 -8.3 9.25 L-8.35 9.3 -17.8 8.0 -18.55 7.25 -21.55 4.25 -22.3 3.5 -22.3 2.95 Q-23.65 1.2 -23.5 -1.2 L-23.15 -4.4 -22.75 -6.1 -22.3 -6.6 -22.3 -7.0 -21.2 -8.55 -19.65 -9.75 Q-16.8 -11.35 -14.05 -12.25 -4.75 -13.0 -0.3 -5.45 -0.2 -4.75 0.35 -4.0 L0.85 -1.4 M-20.35 -6.45 Q-21.5 -3.5 -21.2 -0.1 -20.95 2.45 -18.85 3.85 -17.95 5.4 -16.15 6.0 -15.35 6.3 -14.6 6.7 L-12.95 7.15 -7.5 6.7 Q-5.15 6.2 -3.25 4.65 -1.35 3.2 -1.1 0.95 -0.55 -3.6 -3.5 -6.9 -7.05 -10.85 -12.7 -9.9 -16.65 -9.65 -19.75 -7.25 L-20.35 -6.45" fill="#000000" fill-rule="evenodd" stroke="none"/>
    </g>
    <g id="shape13" transform="matrix(1.0, 0.0, 0.0, 1.0, 38.0, -4.15)">
      <path d="M-27.45 5.5 L-27.65 5.6 -27.85 5.7 Q-31.2 7.4 -33.2 9.7 L-33.35 9.75 -33.95 10.35 -34.0 10.7 Q-35.55 12.75 -36.1 15.3 L-36.45 17.85 -33.45 16.95 -31.05 15.45 -29.95 14.3 Q-29.4 13.8 -29.3 13.15 L-29.2 13.35 -29.1 13.2 -28.1 11.35 Q-27.6 10.1 -27.4 8.8 L-27.25 6.55 -27.35 5.6 -27.45 5.5 M-27.8 4.4 L-27.75 4.35 -27.45 4.25 -27.2 4.15 Q-26.85 5.45 -26.9 6.9 L-27.2 9.2 Q-27.6 11.0 -28.55 12.55 -29.5 14.15 -30.9 15.5 -32.15 16.7 -33.85 17.5 -35.65 18.3 -37.65 18.1 L-38.0 18.15 Q-37.9 15.2 -36.05 11.95 -33.1 6.9 -27.8 4.4" fill="#000000" fill-rule="evenodd" stroke="none"/>
    </g>
    <g id="shape14" transform="matrix(1.0, 0.0, 0.0, 1.0, 49.2, -3.2)">
      <path d="M-47.05 21.5 L-46.75 21.45 -45.65 21.6 -44.9 22.15 -44.3 22.85 Q-43.35 24.2 -43.95 25.55 -45.7 26.95 -46.95 25.85 -48.85 23.45 -47.05 21.5" fill="#ff0000" fill-rule="evenodd" stroke="none"/>
      <path d="M-46.75 21.45 Q-46.65 20.95 -45.25 20.85 -42.1 22.25 -42.8 26.15 L-43.35 26.7 Q-48.3 28.4 -48.85 25.6 L-49.2 23.75 Q-49.05 21.25 -47.05 21.5 -48.85 23.45 -46.95 25.85 -45.7 26.95 -43.95 25.55 -43.35 24.2 -44.3 22.85 L-44.9 22.15 -45.65 21.6 -46.75 21.45" fill="#000000" fill-rule="evenodd" stroke="none"/>
      <path d="M-43.35 24.15 L-36.15 24.2 Q-35.7 24.2 -35.55 23.7 L-35.6 23.55 Q-35.6 23.05 -36.15 23.05 L-36.15 23.0 -43.4 23.35 Q-43.75 23.35 -43.7 23.65 L-43.65 23.8 -43.35 24.15" fill="#000000" fill-rule="evenodd" stroke="none"/>
      <path d="M-46.8 24.65 Q-47.25 24.95 -47.6 24.5 -48.6 23.2 -47.0 22.75 -45.1 23.55 -46.8 24.65" fill="#ffffff" fill-rule="evenodd" stroke="none"/>
      <path d="M-7.5 13.8 Q-9.1 10.3 -12.55 7.75 -18.85 3.25 -26.25 4.8 L-26.25 5.9 Q-26.0 9.6 -27.6 12.85 -28.4 14.35 -29.7 15.35 -32.85 17.65 -36.4 18.45 -36.4 22.5 -33.7 25.0 -30.0 28.4 -23.9 29.3 -16.6 30.45 -10.5 26.7 -9.0 25.75 -8.0 24.35 -4.8 19.6 -7.5 13.8 M-12.9 6.1 Q-5.5 10.1 -5.05 18.4 -4.65 25.55 -11.4 28.75 -18.05 31.95 -25.5 30.4 -30.65 29.4 -34.45 25.65 -37.65 22.45 -37.9 18.75 L-37.95 18.75 -37.95 17.85 -37.9 17.85 -36.6 17.7 -33.75 16.85 Q-32.0 16.15 -30.7 15.0 -29.4 13.85 -28.45 12.25 -27.5 10.7 -27.25 9.2 -27.0 7.7 -27.05 6.45 -27.1 5.1 -27.7 4.1 L-25.4 3.2 -24.95 3.2 -25.05 3.3 Q-18.6 3.0 -12.9 6.1" fill="#000000" fill-rule="evenodd" stroke="none"/>
      <path d="M-7.5 13.8 Q-4.8 19.6 -8.0 24.35 -9.0 25.75 -10.5 26.7 -16.6 30.45 -23.9 29.3 -30.0 28.4 -33.7 25.0 -36.4 22.5 -36.4 18.45 -32.85 17.65 -29.7 15.35 -28.4 14.35 -27.6 12.85 -26.0 9.6 -26.25 5.9 L-26.25 4.8 Q-18.85 3.25 -12.55 7.75 -9.1 10.3 -7.5 13.8" fill="url(#gradient3)" fill-rule="evenodd" stroke="none"/>
    </g>
    <radialGradient cx="0" cy="0" gradientTransform="matrix(0.0385, 0.0, 0.0, 0.0276, -15.35, 8.15)" gradientUnits="userSpaceOnUse" id="gradient3" r="819.2" spreadMethod="pad">
      <stop offset="0.0" stop-color="#febf74"/>
      <stop offset="0.4980392156862745" stop-color="#ff9900"/>
      <stop offset="1.0" stop-color="#ff6600"/>
    </radialGradient>
    <g id="shape15" transform="matrix(1.0, 0.0, 0.0, 1.0, 36.45, -5.5)">
      <path d="M-27.85 5.7 L-27.65 5.6 -27.45 5.5 -27.35 5.6 -27.35 5.65 -27.85 5.7 M-33.9 10.55 L-34.15 10.75 -33.95 10.45 -33.95 10.5 -33.9 10.55" fill="#e5e5e5" fill-rule="evenodd" stroke="none"/>
      <path d="M-27.85 5.7 L-27.35 5.65 -27.25 6.55 -27.4 8.8 Q-27.6 10.1 -28.1 11.35 L-29.0 13.05 -29.7 12.95 -30.85 12.15 -33.3 10.35 -33.45 10.2 Q-33.25 9.9 -33.4 9.85 L-32.65 9.1 Q-30.7 7.15 -27.85 5.7 M-29.85 14.2 L-30.7 15.0 Q-32.0 16.15 -33.75 16.85 L-36.45 17.65 -36.1 15.3 Q-35.6 13.0 -34.15 10.75 L-33.9 10.55 Q-32.4 12.5 -30.45 13.55 -29.3 14.0 -29.85 14.2" fill="#ffcc00" fill-rule="evenodd" stroke="none"/>
      <path d="M-29.0 13.05 Q-28.85 13.35 -29.05 13.9 -29.25 14.45 -29.85 14.2 -29.3 14.0 -30.45 13.55 -32.4 12.5 -33.9 10.55 L-33.95 10.5 -33.95 10.45 -34.15 10.75 -34.2 10.75 Q-34.65 10.4 -34.5 9.85 -34.4 9.45 -34.0 9.4 -33.45 9.45 -33.4 9.85 -33.25 9.9 -33.45 10.2 L-33.3 10.35 -30.85 12.15 -29.7 12.95 -29.0 13.05" fill="#000000" fill-rule="evenodd" stroke="none"/>
    </g>
    <g id="sprite9" transform="matrix(1.0, 0.0, 0.0, 1.0, 0.0, 0.0)">
      <use ffdec:characterId="42" height="40.0" transform="matrix(0.4, 0.0, 0.0, 0.5, 0.0, 0.0)" width="50.0" xlink:href="#shape16"/>
    </g>
    <g id="shape16" transform="matrix(1.0, 0.0, 0.0, 1.0, 0.0, 0.0)">
      <path d="M50.0 0.0 L50.0 40.0 0.0 40.0 0.0 0.0 50.0 0.0" fill="#ffffff" fill-opacity="0.0" fill-rule="evenodd" stroke="none"/>
    </g>
    <g id="sprite10" transform="matrix(1.0, 0.0, 0.0, 1.0, -0.05, 0.0)">
      <use ffdec:characterId="304" height="20.0" transform="matrix(1.0, 0.0, 0.0, 1.0, 0.05, 0.0)" width="20.0" xlink:href="#shape17"/>
    </g>
    <g id="shape17" transform="matrix(1.0, 0.0, 0.0, 1.0, -0.05, 0.0)">
      <path d="M10.05 20.0 Q5.9 20.0 2.95 17.05 0.0 14.1 0.05 10.0 0.0 5.85 2.95 2.9 5.9 0.0 10.05 0.0 14.15 0.0 17.1 2.9 20.05 5.85 20.05 10.0 20.05 14.1 17.1 17.05 14.15 20.0 10.05 20.0" fill="#ffffff" fill-opacity="0.0" fill-rule="evenodd" stroke="none"/>
    </g>
    <g id="sprite11" transform="matrix(1.0, 0.0, 0.0, 1.0, 57.35, 49.55)">
      <use ffdec:characterId="386" height="36.3" transform="matrix(1.0, 0.0, 0.0, 1.0, -3.1, -3.15)" width="36.3" xlink:href="#shape18"/>
      <use ffdec:characterId="387" height="26.1" transform="matrix(1.0, 0.0, 0.0, 1.0, 1.8, 1.9)" width="26.15" xlink:href="#shape19"/>
      <use ffdec:characterId="292" height="26.2" transform="matrix(1.0, 0.0, 0.0, 1.0, 1.8, 1.9)" width="26.25" xlink:href="#sprite4"/>
      <use ffdec:characterId="388" height="12.0" transform="matrix(2.5, 0.0, 0.0, 2.5, 0.6748, -2.0E-4)" width="11.95" xlink:href="#button1"/>
      <use ffdec:characterId="397" height="98.75" id="mcSnowScale" transform="matrix(0.7071, -0.7071, 0.7071, 0.7071, -57.344, 16.89)" width="93.95" xlink:href="#sprite12"/>
    </g>
    <g id="shape18" transform="matrix(1.0, 0.0, 0.0, 1.0, 3.1, 3.15)">
      <path d="M33.2 15.0 Q33.15 22.5 27.8 27.8 22.5 33.15 15.05 33.15 7.5 33.15 2.15 27.8 -3.15 22.5 -3.1 15.0 -3.15 7.45 2.15 2.1 7.5 -3.2 15.05 -3.15 22.5 -3.2 27.8 2.1 33.15 7.45 33.2 15.0" fill="#000000" fill-opacity="0.03137255" fill-rule="evenodd" stroke="none"/>
      <path d="M32.4 15.05 Q32.35 22.2 27.25 27.25 22.2 32.35 15.05 32.4 7.85 32.35 2.75 27.25 -2.3 22.2 -2.3 15.05 -2.3 7.85 2.75 2.75 7.85 -2.3 15.05 -2.3 22.2 -2.3 27.25 2.75 32.35 7.85 32.4 15.05" fill="#000000" fill-opacity="0.0627451" fill-rule="evenodd" stroke="none"/>
      <path d="M31.1 15.05 Q31.05 21.65 26.35 26.35 21.65 31.05 15.05 31.1 8.4 31.05 3.7 26.35 -1.0 21.65 -1.0 15.05 -1.0 8.4 3.7 3.65 8.4 -1.05 15.05 -1.0 21.65 -1.05 26.35 3.65 31.05 8.4 31.1 15.05" fill="#000000" fill-opacity="0.15294118" fill-rule="evenodd" stroke="none"/>
      <path d="M27.0 9.8 Q28.05 12.2 28.05 15.05 28.05 20.45 24.2 24.3 20.4 28.1 15.0 28.1 9.55 28.1 5.75 24.3 1.9 20.45 1.95 15.05 1.9 12.2 3.0 9.8 3.9 7.6 5.75 5.8 9.55 1.95 15.0 2.0 20.4 1.95 24.2 5.8 26.05 7.6 27.0 9.8" fill="url(#gradient4)" fill-rule="evenodd" stroke="none"/>
      <path d="M29.1 9.8 Q30.0 12.2 30.0 15.0 30.0 21.2 25.55 25.6 21.2 30.0 15.0 30.0 8.75 30.0 4.35 25.6 -0.05 21.2 0.0 15.0 -0.05 12.2 0.85 9.8 1.9 6.8 4.35 4.35 8.75 -0.05 15.0 0.0 21.2 -0.05 25.55 4.35 28.0 6.8 29.1 9.8 M27.0 9.8 Q26.05 7.6 24.2 5.8 20.4 1.95 15.0 2.0 9.55 1.95 5.75 5.8 3.9 7.6 3.0 9.8 1.9 12.2 1.95 15.05 1.9 20.45 5.75 24.3 9.55 28.1 15.0 28.1 20.4 28.1 24.2 24.3 28.05 20.45 28.05 15.05 28.05 12.2 27.0 9.8" fill="#000000" fill-rule="evenodd" stroke="none"/>
      <path d="M22.0 8.35 L21.5 10.25 23.5 9.1 24.45 10.7 22.45 11.9 24.35 12.4 23.9 14.1 20.3 13.15 16.9 15.1 20.3 17.05 23.9 16.05 24.35 17.75 22.45 18.3 24.45 19.45 23.5 21.1 21.5 19.9 22.0 21.85 20.3 22.3 19.35 18.65 15.95 16.75 15.95 20.6 18.6 23.25 17.35 24.5 15.95 23.1 15.95 25.45 14.05 25.45 14.05 23.15 12.65 24.5 11.4 23.25 14.05 20.6 14.05 16.75 10.7 18.65 9.7 22.3 8.0 21.85 8.5 19.9 6.5 21.1 5.55 19.45 7.55 18.3 5.65 17.75 6.15 16.05 9.75 17.05 13.1 15.1 9.75 13.15 6.15 14.1 5.65 12.4 7.55 11.9 5.55 10.7 6.5 9.1 8.5 10.25 8.0 8.35 9.7 7.9 10.7 11.5 14.05 13.45 14.05 9.55 11.4 6.9 12.65 5.65 14.05 7.05 14.05 4.7 15.95 4.7 15.95 7.05 17.35 5.65 18.6 6.9 15.95 9.55 15.95 13.45 19.35 11.5 20.3 7.9 22.0 8.35 Z" fill="none" stroke="#ffffff" stroke-linecap="round" stroke-linejoin="round" stroke-opacity="0.2509804" stroke-width="2.0"/>
      <path d="M21.5 10.25 L23.5 9.1 24.45 10.7 22.45 11.9 24.35 12.4 23.9 14.1 20.3 13.15 16.9 15.1 20.3 17.05 23.9 16.05 24.35 17.75 22.45 18.3 24.45 19.45 23.5 21.1 21.5 19.9 22.0 21.85 20.3 22.3 19.35 18.65 15.95 16.75 15.95 20.6 18.6 23.25 17.35 24.5 15.95 23.1 15.95 25.45 14.05 25.45 14.05 23.15 12.65 24.5 11.4 23.25 14.05 20.6 14.05 16.75 10.7 18.65 9.7 22.3 8.0 21.85 8.5 19.9 6.5 21.1 5.55 19.45 7.55 18.3 5.65 17.75 6.15 16.05 9.75 17.05 13.1 15.1 9.75 13.15 6.15 14.1 5.65 12.4 7.55 11.9 5.55 10.7 6.5 9.1 8.5 10.25 8.0 8.35 9.7 7.9 10.7 11.5 14.05 13.45 14.05 9.55 11.4 6.9 12.65 5.65 14.05 7.05 14.05 4.7 15.95 4.7 15.95 7.05 17.35 5.65 18.6 6.9 15.95 9.55 15.95 13.45 19.35 11.5 20.3 7.9 22.0 8.35 21.5 10.25" fill="#ffffff" fill-rule="evenodd" stroke="none"/>
    </g>
    <linearGradient gradientTransform="matrix(0.011, 0.0115, -0.0115, 0.011, 15.0, 15.05)" gradientUnits="userSpaceOnUse" id="gradient4" spreadMethod="pad" x1="-819.2" x2="819.2">
      <stop offset="0.0" stop-color="#70dc03"/>
      <stop offset="1.0" stop-color="#427102"/>
    </linearGradient>
    <g id="shape19" transform="matrix(1.0, 0.0, 0.0, 1.0, -1.8, -1.9)">
      <path d="M24.85 6.5 Q21.25 3.4 16.4 3.4 11.0 3.4 7.15 7.2 3.35 11.05 3.35 16.5 3.35 21.35 6.4 24.9 L5.6 24.15 Q1.8 20.35 1.8 14.95 1.8 9.5 5.6 5.7 9.45 1.85 14.85 1.9 20.25 1.85 24.1 5.7 L24.85 6.5" fill="#ffffff" fill-opacity="0.5019608" fill-rule="evenodd" stroke="none"/>
      <path d="M26.4 13.4 Q26.35 8.55 23.3 4.95 L24.15 5.7 Q27.95 9.5 27.95 14.95 27.95 20.35 24.15 24.2 20.25 28.0 14.85 28.0 9.45 28.0 5.65 24.2 L4.9 23.4 Q8.45 26.45 13.35 26.45 18.75 26.45 22.6 22.65 26.4 18.8 26.4 13.4" fill="#003366" fill-opacity="0.2" fill-rule="evenodd" stroke="none"/>
    </g>
    <g id="sprite12" transform="matrix(1.0, 0.0, 0.0, 1.0, 15.05, 13.65)">
      <use ffdec:characterId="389" height="62.1" transform="matrix(1.0, 0.0, 0.0, 1.0, -0.4, -1.0)" width="62.55" xlink:href="#shape20"/>
      <clipPath id="clipPath0">
        <path d="M 35.6 1 L 34.72 1.01 L 33.85 1.04 L 32.99 1.09 L 32.14 1.16 L 31.3 1.24 L 30.46 1.35 L 29.63 1.48 L 28.81 1.62 L 28 1.79 L 27.19 1.97 L 26.4 2.18 L 25.61 2.4 L 24.83 2.64 L 24.06 2.9 L 23.29 3.19 L 22.54 3.49 L 21.79 3.81 L 21.05 4.15 L 20.32 4.51 L 19.6 4.89 L 18.88 5.29 L 18.17 5.7 L 17.48 6.14 L 16.78 6.6 L 16.1 7.07 L 15.43 7.57 L 14.76 8.08 L 14.1 8.62 L 13.45 9.17 L 12.81 9.75 L 12.18 10.34 L 11.55 10.95 L 10.94 11.58 L 10.35 12.21 L 9.77 12.85 L 9.22 13.5 L 8.68 14.16 L 8.17 14.83 L 7.67 15.5 L 7.2 16.18 L 6.74 16.88 L 6.3 17.57 L 5.89 18.28 L 5.49 19 L 5.11 19.72 L 4.75 20.45 L 4.41 21.19 L 4.09 21.94 L 3.79 22.69 L 3.5 23.46 L 3.24 24.23 L 3 25.01 L 2.78 25.8 L 2.57 26.59 L 2.39 27.4 L 2.22 28.21 L 2.08 29.03 L 1.95 29.86 L 1.84 30.7 L 1.76 31.54 L 1.69 32.39 L 1.64 33.25 L 1.61 34.12 L 1.6 35 L 1.61 35.85 L 1.64 36.7 L 1.68 37.53 L 1.74 38.36 L 1.82 39.18 L 1.92 39.99 L 2.04 40.79 L 2.17 41.59 L 2.32 42.37 L 2.49 43.15 L 2.68 43.92 L 2.88 44.68 L 3.1 45.44 L 3.34 46.18 L 3.6 46.92 L 3.88 47.65 L 4.17 48.37 L 4.48 49.08 L 4.81 49.79 L 5.15 50.48 L 5.52 51.17 L 5.9 51.85 L 6.3 52.52 L 6.72 53.19 L 7.15 53.84 L 7.61 54.49 L 8.08 55.13 L 8.57 55.76 L 9.07 56.38 L 9.6 57 L 10.14 57.6 L 10.7 58.2 L 19.4 49.65 L 19.05 49.26 L 18.72 48.87 L 18.39 48.48 L 18.08 48.08 L 17.77 47.67 L 17.48 47.26 L 17.2 46.85 L 16.93 46.43 L 16.67 46 L 16.42 45.58 L 16.18 45.14 L 15.96 44.71 L 15.74 44.27 L 15.54 43.82 L 15.34 43.37 L 15.16 42.91 L 14.99 42.45 L 14.83 41.99 L 14.68 41.52 L 14.54 41.04 L 14.42 40.57 L 14.3 40.08 L 14.2 39.6 L 14.1 39.1 L 14.02 38.61 L 13.95 38.1 L 13.89 37.6 L 13.84 37.09 L 13.8 36.57 L 13.77 36.05 L 13.76 35.53 L 13.75 35 L 13.76 34.44 L 13.77 33.88 L 13.81 33.33 L 13.85 32.78 L 13.91 32.24 L 13.98 31.7 L 14.06 31.17 L 14.15 30.64 L 14.26 30.12 L 14.38 29.6 L 14.51 29.09 L 14.65 28.59 L 14.81 28.08 L 14.98 27.59 L 15.16 27.1 L 15.35 26.61 L 15.56 26.13 L 15.77 25.66 L 16.01 25.19 L 16.25 24.72 L 16.51 24.26 L 16.77 23.81 L 17.06 23.36 L 17.35 22.92 L 17.66 22.48 L 17.98 22.04 L 18.31 21.61 L 18.65 21.19 L 19.01 20.77 L 19.38 20.36 L 19.76 19.95 L 20.15 19.55 L 20.55 19.16 L 20.96 18.77 L 21.37 18.41 L 21.79 18.05 L 22.21 17.71 L 22.64 17.38 L 23.08 17.06 L 23.52 16.75 L 23.96 16.46 L 24.41 16.17 L 24.86 15.91 L 25.32 15.65 L 25.79 15.41 L 26.26 15.18 L 26.73 14.96 L 27.21 14.75 L 27.7 14.56 L 28.19 14.38 L 28.68 14.21 L 29.19 14.05 L 29.69 13.91 L 30.2 13.77 L 30.72 13.66 L 31.24 13.55 L 31.77 13.46 L 32.3 13.38 L 32.84 13.31 L 33.38 13.25 L 33.93 13.21 L 34.48 13.18 L 35.04 13.16 L 35.6 13.15 L 36.14 13.16 L 36.68 13.17 L 37.21 13.2 L 37.73 13.24 L 38.25 13.29 L 38.77 13.35 L 39.27 13.42 L 39.78 13.51 L 40.28 13.6 L 40.77 13.71 L 41.26 13.82 L 41.74 13.95 L 42.21 14.09 L 42.69 14.24 L 43.15 14.4 L 43.61 14.57 L 44.07 14.76 L 44.52 14.95 L 44.96 15.16 L 45.4 15.38 L 45.83 15.6 L 46.26 15.84 L 46.69 16.09 L 47.1 16.36 L 47.52 16.63 L 47.92 16.91 L 48.32 17.21 L 48.72 17.51 L 49.11 17.83 L 49.5 18.16 L 49.88 18.5 L 50.25 18.85 L 58.8 10.15 L 58.2 9.59 L 57.6 9.04 L 56.98 8.51 L 56.36 8.01 L 55.73 7.51 L 55.09 7.04 L 54.44 6.58 L 53.79 6.15 L 53.12 5.73 L 52.45 5.32 L 51.77 4.94 L 51.08 4.57 L 50.39 4.23 L 49.68 3.9 L 48.97 3.58 L 48.25 3.29 L 47.52 3.01 L 46.78 2.75 L 46.04 2.51 L 45.28 2.29 L 44.52 2.08 L 43.75 1.89 L 42.97 1.72 L 42.19 1.57 L 41.39 1.44 L 40.59 1.32 L 39.78 1.22 L 38.96 1.14 L 38.13 1.08 L 37.3 1.04 L 36.45 1.01 L 35.6 1 Z"/>
      </clipPath>
      <g clip-path="url(#clipPath0)">
        <use ffdec:characterId="391" height="50.6" transform="matrix(1.0, 0.0, 0.0, 1.0, 1.2, 0.3)" width="56.65" xlink:href="#shape21"/>
      </g>
      <clipPath id="clipPath1">
        <path d="M 16.61 53.77 L 16.43 53.78 L 16.25 53.81 L 16.09 53.86 L 15.93 53.92 L 15.79 54 L 15.65 54.11 L 15.52 54.23 L 15.4 54.37 L 15.3 54.52 L 15.2 54.7 L 15.11 54.9 L 15.03 55.11 L 14.96 55.34 L 14.89 55.59 L 14.84 55.86 L 14.8 56.15 L 14.78 56.42 L 14.79 56.55 L 14.81 56.67 L 14.83 56.78 L 14.87 56.89 L 14.92 56.98 L 14.98 57.08 L 15.04 57.16 L 15.12 57.24 L 15.21 57.31 L 15.31 57.37 L 15.41 57.42 L 15.53 57.47 L 15.8 57.55 L 16.19 57.63 L 16.55 57.68 L 16.88 57.72 L 17.19 57.73 L 17.5 57.71 L 17.78 57.67 L 18.03 57.61 L 18.24 57.52 L 18.42 57.4 L 18.5 57.33 L 18.58 57.25 L 18.64 57.17 L 18.7 57.08 L 18.79 56.88 L 18.85 56.66 L 18.88 56.41 L 18.88 56.13 L 18.84 55.83 L 18.78 55.5 L 18.68 55.14 L 18.56 54.76 L 18.4 54.35 L 18.14 54.21 L 17.9 54.1 L 17.66 54 L 17.43 53.92 L 17.21 53.85 L 17.01 53.81 L 16.81 53.78 L 16.61 53.77 Z"/>
      </clipPath>
      <g clip-path="url(#clipPath1)">
        <use ffdec:characterId="393" height="57.2" transform="matrix(1.0, 0.0, 0.0, 1.0, 1.6, 1.0)" width="58.45" xlink:href="#shape22"/>
        <use ffdec:characterId="394" height="51.85" transform="matrix(1.0, 0.0, 0.0, 1.0, 3.15, 1.95)" width="56.75" xlink:href="#shape23"/>
      </g>
    </g>
    <g id="shape20" transform="matrix(1.0, 0.0, 0.0, 1.0, 0.4, 1.0)">
      <path d="M50.85 19.15 L60.05 18.45 59.6 10.65 Q49.3 1.0 35.6 1.0 21.5 1.0 11.55 10.95 1.6 20.9 1.6 35.0 1.6 42.35 4.25 48.5 L4.25 48.55 Q6.45 53.7 10.5 58.0 L10.7 58.2 10.75 58.15 11.7 50.25 19.3 49.6 19.4 49.65 19.35 49.6 Q16.65 46.65 15.25 43.15 13.75 39.4 13.75 35.0 13.75 25.95 20.15 19.55 26.55 13.15 35.6 13.15 44.25 13.15 50.2 18.8 L50.25 18.85 50.85 19.15 M61.1 9.6 L61.55 10.1 61.7 10.45 62.15 20.55 51.55 21.25 47.3 18.4 Q43.0 15.15 35.6 15.15 27.35 15.15 21.55 20.95 15.75 26.75 15.75 35.0 15.75 42.65 20.65 48.25 L21.85 49.7 22.15 49.9 22.15 51.1 13.2 52.1 11.85 61.1 10.75 60.75 9.75 60.0 Q-0.4 49.6 -0.4 35.0 -0.4 20.1 10.15 9.55 20.7 -1.0 35.6 -1.0 48.95 -1.0 58.85 7.5 L61.05 9.55 61.1 9.6" fill="#003366" fill-opacity="0.2" fill-rule="evenodd" stroke="none"/>
      <path d="M50.2 18.8 Q44.25 13.15 35.6 13.15 26.55 13.15 20.15 19.55 13.75 25.95 13.75 35.0 13.75 39.4 15.25 43.15 16.65 46.65 19.35 49.6 L19.3 49.6 11.7 50.25 10.75 58.15 10.7 58.2 10.5 58.0 Q6.45 53.7 4.25 48.55 L4.25 48.5 Q1.6 42.35 1.6 35.0 1.6 20.9 11.55 10.95 21.5 1.0 35.6 1.0 49.3 1.0 59.6 10.65 L60.05 18.45 50.85 19.15 50.25 18.85 50.2 18.8" fill="#ffffff" fill-rule="evenodd" stroke="none"/>
    </g>
    <g id="shape21" transform="matrix(1.0, 0.0, 0.0, 1.0, -1.2, -0.3)">
      <path d="M46.8 2.8 L42.6 14.1 M57.1 8.3 L49.35 17.5 M6.45 17.5 L16.65 24.0 M2.25 27.95 L14.05 30.85 M1.95 39.2 L14.0 37.75 M13.85 8.7 L21.2 18.35 M23.8 3.0 L27.5 14.5 M34.95 1.05 L35.05 13.15 M5.35 50.15 L16.15 44.65" fill="none" stroke="#3399ff" stroke-linecap="round" stroke-linejoin="round" stroke-opacity="0.2" stroke-width="1.5"/>
    </g>
    <g id="shape22" transform="matrix(1.0, 0.0, 0.0, 1.0, -1.6, -1.0)">
      <path d="M37.2 1.05 Q42.95 1.25 47.9 3.15 54.5 6.0 56.95 8.25 L59.6 10.5 60.05 18.45 52.25 19.15 50.25 18.85 Q47.1 15.85 43.25 14.45 40.4 13.4 37.2 13.2 L37.2 1.05" fill="#6699ff" fill-rule="evenodd" stroke="none"/>
      <path d="M37.2 1.05 L37.2 13.2 35.6 13.15 34.9 13.15 Q30.6 13.3 26.95 14.85 23.4 16.4 20.45 19.25 L11.85 10.65 Q16.6 6.0 22.3 3.6 28.1 1.1 34.9 1.0 L35.6 1.0 37.2 1.05" fill="url(#gradient5)" fill-rule="evenodd" stroke="none"/>
      <path d="M20.45 19.25 L20.3 19.45 20.15 19.55 Q17.15 22.55 15.55 26.2 13.95 29.8 13.8 34.05 L13.75 35.0 13.8 36.0 1.6 36.0 1.6 35.0 1.6 34.05 Q1.75 27.3 4.25 21.55 6.75 15.75 11.55 10.95 L11.7 10.85 11.85 10.65 20.45 19.25" fill="url(#gradient6)" fill-rule="evenodd" stroke="none"/>
      <path d="M13.8 36.0 Q13.9 38.9 14.7 41.55 L14.7 41.5 Q16.65 46.65 19.35 49.6 L11.7 50.25 10.75 58.15 10.7 58.2 Q6.2 53.5 3.95 47.8 L3.35 46.35 3.4 46.35 Q1.75 41.5 1.6 36.0 L13.8 36.0" fill="url(#gradient7)" fill-rule="evenodd" stroke="none"/>
    </g>
    <linearGradient gradientTransform="matrix(0.0142, -0.0056, 0.0041, 0.0103, 24.4, 10.15)" gradientUnits="userSpaceOnUse" id="gradient5" spreadMethod="pad" x1="-819.2" x2="819.2">
      <stop offset="0.0" stop-color="#98ccfe"/>
      <stop offset="1.0" stop-color="#6699ff"/>
    </linearGradient>
    <linearGradient gradientTransform="matrix(0.0062, -0.0091, 0.0128, 0.0087, 9.85, 24.3)" gradientUnits="userSpaceOnUse" id="gradient6" spreadMethod="pad" x1="-819.2" x2="819.2">
      <stop offset="0.0" stop-color="#9fcefd"/>
      <stop offset="1.0" stop-color="#8ec2fe"/>
    </linearGradient>
    <linearGradient gradientTransform="matrix(5.0E-4, -0.0094, 0.0135, 7.0E-4, 10.35, 48.2)" gradientUnits="userSpaceOnUse" id="gradient7" spreadMethod="pad" x1="-819.2" x2="819.2">
      <stop offset="0.0" stop-color="#dfecff"/>
      <stop offset="1.0" stop-color="#9fcefd"/>
    </linearGradient>
    <g id="shape23" transform="matrix(1.0, 0.0, 0.0, 1.0, -3.15, -1.95)">
      <path d="M51.05 4.45 L51.15 4.45 51.45 4.6 51.85 4.8 52.0 6.55 53.35 5.6 54.95 6.6 55.15 6.75 53.05 8.15 56.65 9.95 58.3 9.35 58.8 9.8 59.55 10.85 58.95 11.05 59.8 11.5 59.7 11.8 59.7 13.15 59.9 13.5 59.85 13.7 58.05 12.8 58.75 14.75 57.0 15.3 55.8 11.65 52.2 9.9 52.45 13.9 55.35 16.4 54.15 17.8 52.65 16.45 52.8 18.85 50.85 18.95 50.7 16.6 49.35 18.1 48.0 16.9 50.5 14.0 50.25 10.05 46.95 12.25 46.25 15.8 45.75 15.45 45.65 15.5 44.55 14.8 44.8 13.65 43.65 14.4 42.85 14.2 42.6 14.0 42.25 14.0 42.1 13.95 41.75 13.4 43.7 12.05 41.75 11.65 42.1 9.9 45.85 10.65 49.15 8.4 45.6 6.65 41.95 7.9 41.35 6.15 43.3 5.5 41.15 4.45 42.0 2.75 44.15 3.75 43.55 1.95 44.8 2.3 45.65 2.6 46.45 4.9 50.05 6.65 49.85 3.95 51.0 4.4 51.05 4.45 M35.1 8.5 L35.9 9.9 34.15 10.95 35.8 11.4 35.4 12.9 32.25 12.05 29.25 13.75 29.55 13.9 29.15 14.05 Q27.8 14.35 26.0 15.3 24.3 16.1 22.5 17.35 L21.4 18.3 20.1 19.05 19.25 17.6 21.0 16.6 19.35 16.15 19.75 14.65 22.95 15.5 25.9 13.75 22.95 12.05 19.75 12.9 19.35 11.4 21.0 10.95 19.25 9.9 20.1 8.5 21.85 9.5 21.4 7.8 22.9 7.4 23.8 10.6 26.75 12.3 26.75 8.9 24.4 6.55 25.5 5.45 26.75 6.65 26.75 4.6 28.45 4.6 28.45 6.65 29.65 5.45 30.75 6.55 28.45 8.9 28.45 12.3 31.4 10.6 32.25 7.4 33.75 7.8 33.3 9.5 35.1 8.5 M7.95 14.95 L8.55 14.15 8.55 14.2 8.6 14.05 9.55 12.9 10.35 13.25 9.7 14.65 10.95 14.2 11.4 15.3 9.05 16.25 8.05 18.6 10.65 18.3 12.15 16.3 13.1 17.05 12.3 18.1 13.85 17.9 14.0 19.15 12.45 19.35 13.5 20.15 12.8 21.1 10.8 19.55 8.2 19.9 9.8 21.95 12.25 22.3 12.1 23.45 10.8 23.3 11.75 24.5 10.75 25.3 9.8 24.05 9.6 25.35 8.45 25.2 8.8 22.7 7.2 20.65 6.2 23.05 7.15 25.35 6.05 25.8 5.55 24.6 4.95 26.05 3.75 25.55 4.4 24.1 3.15 24.6 3.15 24.5 3.6 23.15 5.05 22.55 6.05 20.15 4.9 20.3 5.7 18.9 5.9 18.9 5.8 18.75 6.05 18.35 6.5 17.65 6.9 18.15 7.9 15.75 7.7 15.3 7.75 15.15 7.95 14.95 M12.8 30.25 L12.95 31.6 13.65 30.75 13.9 30.95 13.9 31.6 13.7 32.0 13.75 32.2 13.05 33.05 13.3 35.25 13.8 34.9 13.8 36.9 13.8 37.2 13.85 37.3 13.5 37.15 13.8 39.4 14.45 39.9 14.45 40.25 14.45 40.4 14.6 40.6 14.65 40.95 14.8 41.5 13.9 40.8 14.05 42.15 13.0 42.3 12.85 40.95 12.15 41.85 11.35 41.2 12.7 39.5 12.45 37.25 10.65 38.6 10.3 40.75 9.3 40.6 9.45 39.45 8.4 40.25 7.75 39.4 8.8 38.6 7.7 38.4 7.85 37.4 10.0 37.7 11.8 36.4 9.75 35.5 7.75 36.25 7.35 35.3 8.4 34.9 7.2 34.35 7.6 33.4 8.85 33.9 8.45 32.85 9.4 32.45 10.2 34.5 12.25 35.4 12.0 33.15 10.3 31.8 10.95 31.0 11.85 31.75 11.65 30.4 12.8 30.25 M4.45 45.1 L5.25 45.55 4.95 44.45 5.85 44.25 6.1 45.3 6.55 44.5 7.3 44.9 6.4 46.45 6.85 48.15 8.15 46.9 8.1 45.15 8.95 45.15 8.95 46.05 9.75 45.3 10.35 45.9 9.6 46.7 10.5 46.7 10.5 47.5 8.75 47.5 7.5 48.8 9.25 49.25 10.75 48.4 11.15 49.1 10.35 49.55 11.4 49.85 11.15 50.7 10.1 50.4 10.6 51.2 9.85 51.6 9.0 50.1 7.25 49.65 7.75 51.4 9.25 52.25 8.85 52.95 8.05 52.5 8.3 53.55 7.5 53.8 7.2 52.75 6.75 53.55 6.35 52.85 6.25 52.65 6.85 51.6 6.4 49.85 5.4 50.85 4.85 50.15 5.8 49.25 4.45 48.9 4.45 48.75 4.1 48.3 4.05 48.2 4.05 48.1 4.0 47.6 3.8 47.3 3.7 46.9 4.3 47.9 6.0 48.4 5.55 46.65 4.05 45.8 4.45 45.1" fill="#ffffff" fill-opacity="0.5019608" fill-rule="evenodd" stroke="none"/>
    </g>
    <g id="sprite13" transform="matrix(1.0, 0.0, 0.0, 1.0, 51.35, 49.65)">
      <use ffdec:characterId="405" height="99.0" id="mcScale" transform="matrix(-0.7071, -0.7071, -0.7071, 0.7071, 85.2293, 16.946)" width="94.15" xlink:href="#sprite14"/>
      <use ffdec:characterId="406" height="36.3" transform="matrix(1.0, 0.0, 0.0, 1.0, -3.1, -3.15)" width="36.3" xlink:href="#shape27"/>
      <clipPath id="clipPath4">
        <path d="M 15.05 1.95 L 14.38 1.97 L 13.71 2.01 L 13.06 2.09 L 12.43 2.19 L 11.8 2.33 L 11.19 2.49 L 10.6 2.69 L 10.01 2.91 L 9.44 3.17 L 8.88 3.45 L 8.34 3.77 L 7.8 4.12 L 7.28 4.49 L 6.78 4.9 L 6.28 5.33 L 5.8 5.8 L 5.33 6.28 L 4.9 6.78 L 4.49 7.28 L 4.12 7.8 L 3.77 8.34 L 3.45 8.88 L 3.17 9.44 L 2.91 10.01 L 2.69 10.6 L 2.49 11.19 L 2.33 11.8 L 2.19 12.43 L 2.09 13.06 L 2.01 13.71 L 1.97 14.38 L 1.95 15.05 L 1.97 15.72 L 2.01 16.38 L 2.09 17.02 L 2.19 17.65 L 2.33 18.27 L 2.49 18.88 L 2.69 19.48 L 2.91 20.06 L 3.17 20.63 L 3.45 21.19 L 3.77 21.74 L 4.12 22.28 L 4.49 22.8 L 4.9 23.31 L 5.33 23.81 L 5.8 24.3 L 6.28 24.76 L 6.78 25.19 L 7.28 25.59 L 7.8 25.96 L 8.34 26.3 L 8.88 26.62 L 9.44 26.9 L 10.01 27.15 L 10.6 27.37 L 11.19 27.57 L 11.8 27.73 L 12.43 27.86 L 13.06 27.97 L 13.71 28.04 L 14.38 28.09 L 15.05 28.1 L 15.72 28.09 L 16.38 28.04 L 17.02 27.97 L 17.65 27.86 L 18.27 27.73 L 18.88 27.57 L 19.47 27.37 L 20.05 27.15 L 20.62 26.9 L 21.17 26.62 L 21.72 26.3 L 22.25 25.96 L 22.77 25.59 L 23.27 25.19 L 23.77 24.76 L 24.25 24.3 L 24.72 23.81 L 25.15 23.31 L 25.56 22.8 L 25.93 22.28 L 26.28 21.74 L 26.6 21.19 L 26.88 20.63 L 27.14 20.06 L 27.36 19.48 L 27.56 18.88 L 27.72 18.27 L 27.86 17.65 L 27.96 17.02 L 28.04 16.38 L 28.08 15.72 L 28.1 15.05 L 28.08 14.38 L 28.04 13.71 L 27.96 13.06 L 27.86 12.43 L 27.72 11.8 L 27.56 11.19 L 27.36 10.6 L 27.14 10.01 L 26.88 9.44 L 26.6 8.88 L 26.28 8.34 L 25.93 7.8 L 25.56 7.28 L 25.15 6.78 L 24.72 6.28 L 24.25 5.8 L 23.77 5.33 L 23.27 4.9 L 22.77 4.49 L 22.25 4.12 L 21.72 3.77 L 21.17 3.45 L 20.62 3.17 L 20.05 2.91 L 19.47 2.69 L 18.88 2.49 L 18.27 2.33 L 17.65 2.19 L 17.02 2.09 L 16.38 2.01 L 15.72 1.97 L 15.05 1.95 Z"/>
      </clipPath>
      <g clip-path="url(#clipPath4)">
        <use ffdec:characterId="408" height="20.7" transform="matrix(1.0, 0.0, 0.0, 1.0, 6.75, 6.15)" width="19.25" xlink:href="#shape28"/>
      </g>
      <use ffdec:characterId="387" height="26.1" transform="matrix(1.0, 0.0, 0.0, 1.0, 1.8, 1.9)" width="26.15" xlink:href="#shape19"/>
      <use ffdec:characterId="292" height="26.2" transform="matrix(1.0, 0.0, 0.0, 1.0, 1.8, 1.9)" width="26.25" xlink:href="#sprite4"/>
      <use ffdec:characterId="409" height="12.0" transform="matrix(2.5, 0.0, 0.0, 2.5, 0.6748, -2.0E-4)" width="11.95" xlink:href="#button2"/>
    </g>
    <g id="sprite14" transform="matrix(1.0, 0.0, 0.0, 1.0, 15.15, 13.6)">
      <use ffdec:characterId="400" height="62.1" transform="matrix(1.0, 0.0, 0.0, 1.0, -0.4, -1.0)" width="62.55" xlink:href="#shape24"/>
      <clipPath id="clipPath2">
        <path d="M 35.6 1 L 34.72 1.01 L 33.85 1.04 L 32.99 1.09 L 32.14 1.16 L 31.3 1.24 L 30.46 1.35 L 29.63 1.48 L 28.81 1.62 L 28 1.79 L 27.19 1.97 L 26.4 2.18 L 25.61 2.4 L 24.83 2.64 L 24.06 2.9 L 23.29 3.19 L 22.54 3.49 L 21.79 3.81 L 21.05 4.15 L 20.32 4.51 L 19.6 4.89 L 18.88 5.29 L 18.17 5.7 L 17.48 6.14 L 16.78 6.6 L 16.1 7.07 L 15.43 7.57 L 14.76 8.08 L 14.1 8.62 L 13.45 9.17 L 12.81 9.75 L 12.18 10.34 L 11.55 10.95 L 10.94 11.58 L 10.35 12.21 L 9.77 12.85 L 9.22 13.5 L 8.68 14.16 L 8.17 14.83 L 7.67 15.5 L 7.2 16.18 L 6.74 16.88 L 6.3 17.57 L 5.89 18.28 L 5.49 19 L 5.11 19.72 L 4.75 20.45 L 4.41 21.19 L 4.09 21.94 L 3.79 22.69 L 3.5 23.46 L 3.24 24.23 L 3 25.01 L 2.78 25.8 L 2.57 26.59 L 2.39 27.4 L 2.22 28.21 L 2.08 29.03 L 1.95 29.86 L 1.84 30.7 L 1.76 31.54 L 1.69 32.39 L 1.64 33.25 L 1.61 34.12 L 1.6 35 L 1.61 35.85 L 1.64 36.7 L 1.68 37.53 L 1.74 38.36 L 1.82 39.18 L 1.92 39.99 L 2.04 40.79 L 2.17 41.59 L 2.32 42.37 L 2.49 43.15 L 2.68 43.92 L 2.88 44.68 L 3.1 45.44 L 3.34 46.18 L 3.6 46.92 L 3.88 47.65 L 4.17 48.37 L 4.48 49.08 L 4.81 49.79 L 5.15 50.48 L 5.52 51.17 L 5.9 51.85 L 6.3 52.52 L 6.72 53.19 L 7.15 53.84 L 7.61 54.49 L 8.08 55.13 L 8.57 55.76 L 9.07 56.38 L 9.6 57 L 10.14 57.6 L 10.7 58.2 L 19.4 49.65 L 19.05 49.26 L 18.72 48.87 L 18.39 48.48 L 18.08 48.08 L 17.77 47.67 L 17.48 47.26 L 17.2 46.85 L 16.93 46.43 L 16.67 46 L 16.42 45.58 L 16.18 45.14 L 15.96 44.71 L 15.74 44.27 L 15.54 43.82 L 15.34 43.37 L 15.16 42.91 L 14.99 42.45 L 14.83 41.99 L 14.68 41.52 L 14.54 41.04 L 14.42 40.57 L 14.3 40.08 L 14.2 39.6 L 14.1 39.1 L 14.02 38.61 L 13.95 38.1 L 13.89 37.6 L 13.84 37.09 L 13.8 36.57 L 13.77 36.05 L 13.76 35.53 L 13.75 35 L 13.76 34.44 L 13.77 33.88 L 13.81 33.33 L 13.85 32.78 L 13.91 32.24 L 13.98 31.7 L 14.06 31.17 L 14.15 30.64 L 14.26 30.12 L 14.38 29.6 L 14.51 29.09 L 14.65 28.59 L 14.81 28.08 L 14.98 27.59 L 15.16 27.1 L 15.35 26.61 L 15.56 26.13 L 15.77 25.66 L 16.01 25.19 L 16.25 24.72 L 16.51 24.26 L 16.77 23.81 L 17.06 23.36 L 17.35 22.92 L 17.66 22.48 L 17.98 22.04 L 18.31 21.61 L 18.65 21.19 L 19.01 20.77 L 19.38 20.36 L 19.76 19.95 L 20.15 19.55 L 20.55 19.16 L 20.96 18.77 L 21.37 18.41 L 21.79 18.05 L 22.21 17.71 L 22.64 17.38 L 23.08 17.06 L 23.52 16.75 L 23.96 16.46 L 24.41 16.17 L 24.86 15.91 L 25.32 15.65 L 25.79 15.41 L 26.26 15.18 L 26.73 14.96 L 27.21 14.75 L 27.7 14.56 L 28.19 14.38 L 28.68 14.21 L 29.19 14.05 L 29.69 13.91 L 30.2 13.77 L 30.72 13.66 L 31.24 13.55 L 31.77 13.46 L 32.3 13.38 L 32.84 13.31 L 33.38 13.25 L 33.93 13.21 L 34.48 13.18 L 35.04 13.16 L 35.6 13.15 L 36.14 13.16 L 36.68 13.17 L 37.21 13.2 L 37.73 13.24 L 38.25 13.29 L 38.77 13.35 L 39.27 13.42 L 39.78 13.51 L 40.28 13.6 L 40.77 13.71 L 41.26 13.82 L 41.74 13.95 L 42.21 14.09 L 42.69 14.24 L 43.15 14.4 L 43.61 14.57 L 44.07 14.76 L 44.52 14.95 L 44.96 15.16 L 45.4 15.38 L 45.83 15.6 L 46.26 15.84 L 46.69 16.09 L 47.1 16.36 L 47.52 16.63 L 47.92 16.91 L 48.32 17.21 L 48.72 17.51 L 49.11 17.83 L 49.5 18.16 L 49.88 18.5 L 50.25 18.85 L 58.8 10.15 L 58.2 9.59 L 57.6 9.04 L 56.98 8.51 L 56.36 8.01 L 55.73 7.51 L 55.09 7.04 L 54.44 6.58 L 53.79 6.15 L 53.12 5.73 L 52.45 5.32 L 51.77 4.94 L 51.08 4.57 L 50.39 4.23 L 49.68 3.9 L 48.97 3.58 L 48.25 3.29 L 47.52 3.01 L 46.78 2.75 L 46.04 2.51 L 45.28 2.29 L 44.52 2.08 L 43.75 1.89 L 42.97 1.72 L 42.19 1.57 L 41.39 1.44 L 40.59 1.32 L 39.78 1.22 L 38.96 1.14 L 38.13 1.08 L 37.3 1.04 L 36.45 1.01 L 35.6 1 Z"/>
      </clipPath>
      <g clip-path="url(#clipPath2)">
        <use ffdec:characterId="401" height="34.55" transform="matrix(1.0, 0.0, 0.0, 1.0, 0.85, 0.25)" width="47.8" xlink:href="#shape25"/>
      </g>
      <clipPath id="clipPath3">
        <path d="M 23 47.45 L 7.45 62.9 L 16 71.55 L 31.55 56.05 L 23 47.45 Z"/>
      </clipPath>
      <g clip-path="url(#clipPath3)">
        <use ffdec:characterId="403" height="57.3" transform="matrix(1.0, 0.0, 0.0, 1.0, 1.45, 1.0)" width="58.6" xlink:href="#shape26"/>
      </g>
    </g>
    <g id="shape24" transform="matrix(1.0, 0.0, 0.0, 1.0, 0.4, 1.0)">
      <path d="M50.85 19.15 L60.05 18.45 59.6 10.65 Q49.3 1.0 35.6 1.0 21.5 1.0 11.55 10.95 1.6 20.9 1.6 35.0 1.6 42.35 4.25 48.5 L4.25 48.55 Q6.45 53.7 10.5 58.0 L10.7 58.2 10.75 58.15 11.7 50.25 19.3 49.6 19.4 49.65 19.35 49.6 Q16.65 46.65 15.25 43.15 13.75 39.4 13.75 35.0 13.75 25.95 20.15 19.55 26.55 13.15 35.6 13.15 44.25 13.15 50.2 18.8 L50.25 18.85 50.85 19.15 M61.55 10.1 L61.7 10.45 62.15 20.55 51.55 21.25 47.3 18.4 Q43.0 15.15 35.6 15.15 27.35 15.15 21.55 20.95 15.75 26.75 15.75 35.0 15.75 42.65 20.65 48.25 L21.85 49.7 22.15 49.9 22.15 51.1 13.2 52.1 11.85 61.1 10.75 60.75 9.75 60.0 Q-0.4 49.6 -0.4 35.0 L-0.3 32.65 Q0.45 19.25 10.15 9.55 20.7 -1.0 35.6 -1.0 48.95 -1.0 58.85 7.5 L61.05 9.55 61.1 9.6 61.55 10.1" fill="#003366" fill-opacity="0.2" fill-rule="evenodd" stroke="none"/>
      <path d="M50.85 19.15 L50.25 18.85 50.2 18.8 Q44.25 13.15 35.6 13.15 26.55 13.15 20.15 19.55 13.75 25.95 13.75 35.0 13.75 39.4 15.25 43.15 16.65 46.65 19.35 49.6 L19.3 49.6 11.7 50.25 10.75 58.15 10.7 58.2 10.5 58.0 Q6.45 53.7 4.25 48.55 L4.25 48.5 Q1.6 42.35 1.6 35.0 1.6 20.9 11.55 10.95 21.5 1.0 35.6 1.0 49.3 1.0 59.6 10.65 L60.05 18.45 50.85 19.15" fill="#ffffff" fill-rule="evenodd" stroke="none"/>
    </g>
    <g id="shape25" transform="matrix(1.0, 0.0, 0.0, 1.0, -0.85, -0.25)">
      <path d="M47.9 3.15 L43.25 14.45 M22.3 3.6 L26.95 14.85 M34.9 1.0 L34.9 13.15 M11.7 10.85 L20.3 19.45 M4.25 21.55 L15.55 26.2" fill="none" stroke="#3399ff" stroke-linecap="round" stroke-linejoin="round" stroke-opacity="0.2" stroke-width="1.5"/>
      <path d="M1.6 34.05 L13.8 34.05" fill="none" stroke="#3399ff" stroke-linecap="round" stroke-linejoin="round" stroke-opacity="0.2" stroke-width="1.5"/>
    </g>
    <g id="shape26" transform="matrix(1.0, 0.0, 0.0, 1.0, -1.45, -1.0)">
      <path d="M20.3 19.45 L20.15 19.55 Q17.15 22.55 15.55 26.2 L4.25 21.55 Q6.75 15.75 11.55 10.95 L11.7 10.85 20.3 19.45" fill="#ffcc00" fill-rule="evenodd" stroke="none"/>
      <path d="M34.9 13.15 Q30.6 13.3 26.95 14.85 L22.3 3.6 Q28.1 1.1 34.9 1.0 L34.9 13.15" fill="#ff6600" fill-rule="evenodd" stroke="none"/>
      <path d="M15.55 26.2 Q13.95 29.8 13.8 34.05 L13.65 35.4 1.45 34.95 1.85 30.65 Q2.4 25.8 4.25 21.55 L15.55 26.2" fill="#ffff00" fill-rule="evenodd" stroke="none"/>
      <path d="M26.95 14.85 Q23.3 16.45 20.3 19.45 L11.7 10.85 Q16.5 6.05 22.3 3.6 L26.95 14.85" fill="#ff9900" fill-rule="evenodd" stroke="none"/>
      <path d="M47.9 3.15 L43.25 14.45 Q39.7 13.15 35.6 13.15 L34.9 13.15 34.9 1.0 35.6 1.0 Q42.25 1.0 47.9 3.15" fill="#ff3300" fill-rule="evenodd" stroke="none"/>
      <path d="M47.9 3.15 Q54.5 6.0 56.95 8.25 L59.6 10.5 60.05 18.45 52.25 19.15 50.25 18.85 Q47.1 15.85 43.25 14.45 L47.9 3.15" fill="#cc0000" fill-rule="evenodd" stroke="none"/>
      <path d="M4.15 47.9 L2.55 43.6 1.5 35.1 13.7 35.6 14.55 38.75 Q15.4 41.5 16.65 44.15 L19.4 49.4 11.4 50.2 11.8 57.0 10.5 58.3 9.15 56.6 6.65 53.0 Q5.15 50.5 4.15 47.9" fill="#00ff33" fill-rule="evenodd" stroke="none"/>
    </g>
    <g id="shape27" transform="matrix(1.0, 0.0, 0.0, 1.0, 3.1, 3.15)">
      <path d="M27.8 27.8 Q22.5 33.15 15.05 33.15 7.5 33.15 2.15 27.8 -3.15 22.5 -3.1 15.0 -3.15 7.45 2.15 2.1 7.5 -3.2 15.05 -3.15 22.5 -3.2 27.8 2.1 33.15 7.45 33.2 15.0 33.15 22.5 27.8 27.8" fill="#000000" fill-opacity="0.03137255" fill-rule="evenodd" stroke="none"/>
      <path d="M27.25 27.25 Q22.2 32.35 15.05 32.4 7.85 32.35 2.75 27.25 -2.3 22.2 -2.3 15.05 -2.3 7.85 2.75 2.75 7.85 -2.3 15.05 -2.3 22.2 -2.3 27.25 2.75 32.35 7.85 32.4 15.05 32.35 22.2 27.25 27.25" fill="#000000" fill-opacity="0.0627451" fill-rule="evenodd" stroke="none"/>
      <path d="M15.05 31.1 Q8.4 31.05 3.7 26.35 -1.0 21.65 -1.0 15.05 -1.0 8.4 3.7 3.65 8.4 -1.05 15.05 -1.0 21.65 -1.05 26.35 3.65 31.05 8.4 31.1 15.05 31.05 21.65 26.35 26.35 21.65 31.05 15.05 31.1" fill="#000000" fill-opacity="0.15294118" fill-rule="evenodd" stroke="none"/>
      <path d="M30.0 15.0 Q30.0 21.2 25.55 25.6 21.2 30.0 15.0 30.0 8.75 30.0 4.35 25.6 -0.05 21.2 0.0 15.0 -0.05 8.75 4.35 4.35 8.75 -0.05 15.0 0.0 21.2 -0.05 25.55 4.35 30.0 8.75 30.0 15.0" fill="#000000" fill-rule="evenodd" stroke="none"/>
      <path d="M28.05 15.05 Q28.05 20.45 24.2 24.3 20.4 28.1 15.0 28.1 9.55 28.1 5.75 24.3 1.9 20.45 1.95 15.05 1.9 9.6 5.75 5.8 9.55 1.95 15.0 2.0 20.4 1.95 24.2 5.8 28.05 9.6 28.05 15.05" fill="url(#gradient8)" fill-rule="evenodd" stroke="none"/>
    </g>
    <linearGradient gradientTransform="matrix(0.011, 0.0115, -0.0115, 0.011, 15.0, 15.05)" gradientUnits="userSpaceOnUse" id="gradient8" spreadMethod="pad" x1="-819.2" x2="819.2">
      <stop offset="0.0" stop-color="#feb792"/>
      <stop offset="1.0" stop-color="#eb5301"/>
    </linearGradient>
    <g id="shape28" transform="matrix(1.0, 0.0, 0.0, 1.0, -6.75, -6.15)">
      <path d="M7.7 13.0 L14.5 8.5 24.95 25.7 24.75 26.7 7.7 13.0" fill="url(#gradient9)" fill-rule="evenodd" stroke="none"/>
      <path d="M10.9 14.45 Q9.2 14.45 7.95 13.2 6.75 12.0 6.75 10.3 6.75 8.6 7.95 7.35 9.2 6.15 10.9 6.15 12.6 6.15 13.8 7.35 15.05 8.6 15.05 10.3 15.05 12.0 13.8 13.2 12.6 14.45 10.9 14.45" fill="#ffffff" fill-rule="evenodd" stroke="none"/>
      <path d="M23.1 18.75 L23.4 13.7 26.0 23.45 21.1 26.85 11.55 24.1 17.55 23.45 9.25 18.1 17.9 21.2 15.9 15.8 21.35 19.65 19.15 12.05 23.1 18.75" fill="#ffffff" fill-rule="evenodd" stroke="none"/>
    </g>
    <linearGradient gradientTransform="matrix(0.0078, 0.0095, -0.0086, 0.007, 14.5, 15.75)" gradientUnits="userSpaceOnUse" id="gradient9" spreadMethod="pad" x1="-819.2" x2="819.2">
      <stop offset="0.0" stop-color="#ffffff"/>
      <stop offset="1.0" stop-color="#ffffff" stop-opacity="0.0"/>
    </linearGradient>
  </defs>
</svg>
