<?xml version="1.0" encoding="UTF-8" standalone="no"?>
<svg xmlns:ffdec="https://www.free-decompiler.com/flash" xmlns:xlink="http://www.w3.org/1999/xlink" ffdec:objectType="frame" height="55.0px" width="112.95px" xmlns="http://www.w3.org/2000/svg">
  <g transform="matrix(1.0, 0.0, 0.0, 1.0, -92.0, -20.0)">
    <use ffdec:characterId="603" height="55.0" transform="matrix(1.0, 0.0, 0.0, 1.0, 92.0, 20.0)" width="112.95" xlink:href="#shape0"/>
    <use ffdec:characterId="604" height="16.35" transform="matrix(1.0, 0.0, 0.0, 1.0, 122.9, 41.15)" width="63.2" xlink:href="#text0"/>
  </g>
  <defs>
    <g id="shape0" transform="matrix(1.0, 0.0, 0.0, 1.0, -92.0, -20.0)">
      <path d="M203.2 21.75 Q204.95 23.5 204.95 26.0 L204.95 69.0 Q204.95 71.5 203.2 73.25 201.45 75.0 198.95 75.0 L98.0 75.0 Q95.5 75.0 93.75 73.25 92.0 71.5 92.0 69.0 L92.0 26.0 Q92.0 23.5 93.75 21.75 95.5 20.0 98.0 20.0 L198.95 20.0 Q201.45 20.0 203.2 21.75 M193.1 28.35 Q196.0 31.3 196.0 35.45 L196.0 59.95 Q196.0 64.1 193.1 67.0 190.25 69.85 186.35 69.95 L191.5 69.95 Q195.65 69.95 198.6 67.0 201.5 64.1 201.5 59.95 L201.5 35.45 Q201.5 31.3 198.6 28.35 195.65 25.45 191.5 25.45 L186.35 25.45 Q190.25 25.55 193.1 28.35 M112.05 25.45 L106.9 25.45 Q102.75 25.45 99.8 28.35 96.9 31.3 96.9 35.45 L96.9 59.95 Q96.9 64.1 99.8 67.0 102.75 69.95 106.9 69.95 L112.05 69.95 Q108.15 69.85 105.3 67.0 102.4 64.1 102.4 59.95 L102.4 35.45 Q102.4 31.3 105.3 28.35 108.15 25.55 112.05 25.45" fill="#ffffff" fill-rule="evenodd" stroke="none"/>
      <path d="M112.05 25.45 Q108.15 25.55 105.3 28.35 102.4 31.3 102.4 35.45 L102.4 59.95 Q102.4 64.1 105.3 67.0 108.15 69.85 112.05 69.95 L106.9 69.95 Q102.75 69.95 99.8 67.0 96.9 64.1 96.9 59.95 L96.9 35.45 Q96.9 31.3 99.8 28.35 102.75 25.45 106.9 25.45 L112.05 25.45 M193.1 28.35 Q190.25 25.55 186.35 25.45 L191.5 25.45 Q195.65 25.45 198.6 28.35 201.5 31.3 201.5 35.45 L201.5 59.95 Q201.5 64.1 198.6 67.0 195.65 69.95 191.5 69.95 L186.35 69.95 Q190.25 69.85 193.1 67.0 196.0 64.1 196.0 59.95 L196.0 35.45 Q196.0 31.3 193.1 28.35" fill="#66cc00" fill-rule="evenodd" stroke="none"/>
    </g>
    <g id="text0" transform="matrix(1.0, 0.0, 0.0, 1.0, -120.85, -4.65)">
      <g transform="matrix(1.0, 0.0, 0.0, 1.0, 0.0, 0.0)">
        <use fill="#ff6600" height="16.35" transform="matrix(0.3516, 0.0, 0.0, 0.3516, 120.0, 18.0)" width="63.2" xlink:href="#font_VAGRounded_BT_F0"/>
        <use fill="#ff6600" height="16.35" transform="matrix(0.3516, 0.0, 0.0, 0.3516, 128.8, 18.0)" width="63.2" xlink:href="#font_VAGRounded_BT_I0"/>
        <use fill="#ff6600" height="16.35" transform="matrix(0.3516, 0.0, 0.0, 0.3516, 134.15, 18.0)" width="63.2" xlink:href="#font_VAGRounded_BT_G0"/>
        <use fill="#ff6600" height="16.35" transform="matrix(0.3516, 0.0, 0.0, 0.3516, 147.15, 18.0)" width="63.2" xlink:href="#font_VAGRounded_BT_H0"/>
        <use fill="#ff6600" height="16.35" transform="matrix(0.3516, 0.0, 0.0, 0.3516, 160.6, 18.0)" width="63.2" xlink:href="#font_VAGRounded_BT_T0"/>
        <use fill="#ff6600" height="16.35" transform="matrix(0.3516, 0.0, 0.0, 0.3516, 169.1, 18.0)" width="63.2" xlink:href="#font_VAGRounded_BT__0"/>
      </g>
    </g>
    <g id="font_VAGRounded_BT_F0">
      <path d="M18.3 -36.4 L8.95 -36.4 Q5.8 -36.4 4.5 -35.15 3.25 -33.9 3.25 -30.55 L3.25 -5.4 Q3.25 -2.45 4.25 -1.0 5.3 0.45 7.4 0.45 9.5 0.45 10.5 -1.0 11.55 -2.45 11.55 -5.4 L11.55 -14.5 17.35 -14.5 Q20.35 -14.5 21.8 -15.4 23.25 -16.35 23.25 -18.3 23.25 -20.25 21.8 -21.2 20.35 -22.15 17.35 -22.15 L11.55 -22.15 11.55 -28.65 18.3 -28.65 Q21.25 -28.65 22.75 -29.6 24.2 -30.55 24.2 -32.5 24.2 -34.45 22.7 -35.4 21.25 -36.4 18.3 -36.4" fill-rule="evenodd" stroke="none"/>
    </g>
    <g id="font_VAGRounded_BT_I0">
      <path d="M11.75 -5.4 L11.75 -30.95 Q11.75 -33.95 10.7 -35.4 9.7 -36.85 7.6 -36.85 5.5 -36.85 4.45 -35.4 3.45 -33.95 3.45 -30.95 L3.45 -5.4 Q3.45 -2.45 4.45 -1.0 5.5 0.45 7.6 0.45 9.7 0.45 10.7 -1.0 11.75 -2.45 11.75 -5.4" fill-rule="evenodd" stroke="none"/>
    </g>
    <g id="font_VAGRounded_BT_G0">
      <path d="M26.9 -14.15 L26.9 -14.15 Q26.8 -10.8 24.8 -8.8 22.8 -6.85 19.5 -6.85 15.35 -6.85 12.9 -9.95 10.4 -13.1 10.4 -18.35 10.4 -23.55 12.9 -26.55 15.35 -29.55 19.55 -29.55 22.4 -29.55 25.6 -27.75 28.8 -26.0 29.7 -26.0 31.15 -26.0 32.2 -27.15 33.25 -28.35 33.25 -29.9 33.25 -32.85 29.35 -35.15 25.4 -37.45 19.85 -37.45 11.4 -37.45 6.45 -32.25 1.45 -27.05 1.45 -18.2 1.45 -9.65 6.3 -4.3 11.2 1.1 18.85 1.1 26.5 1.1 31.2 -3.75 35.85 -8.6 35.85 -16.35 35.85 -19.3 34.5 -20.6 33.15 -21.9 30.05 -21.9 L23.95 -21.9 Q21.0 -21.9 19.55 -20.95 18.15 -20.0 18.15 -18.0 18.15 -16.05 19.55 -15.1 20.95 -14.15 23.95 -14.15 L26.9 -14.15" fill-rule="evenodd" stroke="none"/>
    </g>
    <g id="font_VAGRounded_BT_H0">
      <path d="M11.55 -14.7 L26.8 -14.7 26.8 -5.4 Q26.8 -2.45 27.8 -1.0 28.85 0.45 30.95 0.45 33.05 0.45 34.05 -1.0 35.1 -2.45 35.1 -5.4 L35.1 -30.95 Q35.1 -33.95 34.05 -35.4 33.05 -36.85 30.95 -36.85 28.85 -36.85 27.8 -35.4 26.8 -33.95 26.8 -30.95 L26.8 -22.35 11.55 -22.35 11.55 -30.95 Q11.55 -33.95 10.5 -35.4 9.5 -36.85 7.4 -36.85 5.3 -36.85 4.25 -35.4 3.25 -33.95 3.25 -30.95 L3.25 -5.4 Q3.25 -2.45 4.25 -1.0 5.3 0.45 7.4 0.45 9.5 0.45 10.5 -1.0 11.55 -2.45 11.55 -5.4 L11.55 -14.7" fill-rule="evenodd" stroke="none"/>
    </g>
    <g id="font_VAGRounded_BT_T0">
      <path d="M7.95 -28.65 L7.95 -5.4 Q7.95 -2.45 8.95 -1.0 10.0 0.45 12.1 0.45 14.2 0.45 15.2 -1.0 16.25 -2.45 16.25 -5.4 L16.25 -28.65 19.3 -28.65 Q22.3 -28.65 23.75 -29.6 25.2 -30.55 25.2 -32.5 25.2 -34.45 23.75 -35.4 22.25 -36.4 19.3 -36.4 L4.9 -36.4 Q1.9 -36.4 0.45 -35.4 -1.0 -34.45 -1.0 -32.5 -1.0 -30.55 0.45 -29.6 1.9 -28.65 4.9 -28.65 L7.95 -28.65" fill-rule="evenodd" stroke="none"/>
    </g>
    <g id="font_VAGRounded_BT__0">
      <path d="M3.15 -3.4 L3.15 -3.4 Q3.15 -1.55 4.45 -0.2 5.75 1.1 7.6 1.1 9.4 1.1 10.75 -0.25 12.05 -1.55 12.05 -3.4 12.05 -5.25 10.75 -6.55 9.45 -7.85 7.6 -7.85 5.75 -7.85 4.45 -6.55 3.15 -5.3 3.15 -3.4 M11.6 -16.55 L11.6 -31.6 Q11.6 -34.55 10.6 -35.95 9.6 -37.4 7.6 -37.4 5.6 -37.4 4.6 -35.95 3.6 -34.5 3.6 -31.6 L3.6 -16.55 Q3.6 -13.55 4.6 -12.1 5.6 -10.65 7.6 -10.65 9.6 -10.65 10.6 -12.1 11.6 -13.55 11.6 -16.55" fill-rule="evenodd" stroke="none"/>
    </g>
  </defs>
</svg>
