<?xml version="1.0" encoding="UTF-8" standalone="no"?>
<svg xmlns:ffdec="https://www.free-decompiler.com/flash" xmlns:xlink="http://www.w3.org/1999/xlink" ffdec:objectType="frame" height="33.0px" width="42.2px" xmlns="http://www.w3.org/2000/svg">
  <g transform="matrix(1.0, 0.0, 0.0, 1.0, 20.95, 16.6)">
    <use ffdec:characterId="450" height="26.9" id="mcObstacle" transform="matrix(1.0, 0.0, 0.0, 1.0, -20.95, -13.45)" width="42.2" xlink:href="#sprite0"/>
  </g>
  <defs>
    <g id="sprite0" transform="matrix(1.0, 0.0, 0.0, 1.0, 21.15, 13.35)">
      <use ffdec:characterId="447" height="26.9" transform="matrix(1.0, 0.0, 0.0, 1.0, -21.15, -13.35)" width="41.9" xlink:href="#shape0"/>
    </g>
    <g id="shape0" transform="matrix(1.0, 0.0, 0.0, 1.0, 21.15, 13.35)">
      <path d="M20.0 -12.5 L20.0 12.5 -20.0 12.5 -20.0 -12.5 20.0 -12.5" fill="url(#gradient0)" fill-rule="evenodd" stroke="none"/>
      <path d="M14.6 -12.15 Q20.1 -13.7 19.75 -9.45 L19.95 11.0 19.5 11.8 -4.35 13.0 Q-12.3 13.2 -20.1 11.8 L-20.25 9.7 -19.9 9.25 -19.9 7.95 -17.5 8.4 Q-9.85 9.9 -2.0 9.8 L7.8 9.65 Q13.45 9.5 15.45 4.55 18.3 -2.5 14.6 -12.15" fill="#27bebd" fill-opacity="0.2" fill-rule="evenodd" stroke="none"/>
      <path d="M6.3 -7.5 Q6.2 -6.2 4.85 -6.2 L-9.2 -5.95 Q-11.35 -5.95 -11.5 -7.8 -11.65 -9.2 -10.2 -9.35 L-9.1 -9.35 5.05 -8.9 Q6.45 -8.85 6.3 -7.5 M-14.85 -6.4 L-15.95 -6.35 Q-18.0 -7.65 -16.0 -9.0 L-15.45 -9.2 Q-12.8 -8.2 -14.85 -6.4" fill="#ffffff" fill-rule="evenodd" stroke="none"/>
      <path d="M13.25 11.45 L18.85 5.85 M1.75 11.45 L18.7 -5.5 M-8.75 11.45 L14.0 -11.35" fill="none" stroke="#ffffff" stroke-linecap="round" stroke-linejoin="round" stroke-opacity="0.6" stroke-width="2.0"/>
      <path d="M-18.3 0.25 L-7.7 -10.35" fill="none" stroke="#ffffff" stroke-linecap="round" stroke-linejoin="round" stroke-opacity="0.6" stroke-width="3.0"/>
      <path d="M-19.7 -3.35 L-11.3 -11.75 M-1.6 11.45 L18.65 -8.8 M-19.1 8.4 L1.1 -11.75" fill="none" stroke="#ffffff" stroke-linecap="round" stroke-linejoin="round" stroke-opacity="0.6" stroke-width="1.0"/>
      <path d="M15.0 -11.8 L14.95 -11.65 14.95 -10.5 Q15.35 -9.6 15.9 -8.85 L14.85 -9.05 13.25 -9.2 -5.7 -10.0 -7.5 -10.1 Q-7.85 -9.8 -8.45 -9.75 -14.4 -9.6 -16.35 -4.35 L-16.35 -2.95 -16.35 -0.2 -16.25 4.95 -16.3 8.45 -16.75 8.7 -19.2 8.7 -19.45 8.85 Q-19.1 2.0 -20.35 -4.55 L-20.2 -9.6 Q-20.1 -12.2 -17.5 -13.0 L-16.85 -13.2 Q-12.6 -12.15 -7.4 -12.6 L4.45 -12.45 14.95 -12.1 15.15 -12.05 15.0 -11.8" fill="#ffffff" fill-opacity="0.2" fill-rule="evenodd" stroke="none"/>
      <path d="M19.75 -12.95 L20.35 -12.85 20.55 -12.75 Q19.85 -3.55 20.55 5.9 L20.75 12.35 20.2 12.75 19.85 12.9 Q2.7 13.45 -14.9 13.2 L-15.45 13.25 Q-17.9 13.85 -20.25 13.15 L-20.45 13.0 -20.7 12.8 -20.6 11.85 -20.6 11.7 Q-20.15 9.95 -20.05 8.15 L-20.05 7.75 -20.05 7.65 -21.15 -10.75 Q-21.25 -12.45 -20.25 -13.3 L-18.05 -13.3 Q-6.25 -12.8 5.6 -12.75 L5.85 -12.75 Q11.15 -13.2 16.15 -12.6 L16.2 -12.6 19.75 -12.95 M19.15 -9.85 L19.45 -11.45 16.55 -11.6 14.25 -11.5 14.2 -11.5 Q-2.8 -11.3 -19.65 -11.9 L-19.65 -10.9 -19.65 -10.75 -19.5 -7.2 -19.5 -6.8 -19.5 -6.7 -18.95 7.15 Q-18.85 9.7 -19.45 12.05 -0.05 11.35 19.4 11.55 19.45 2.3 19.0 -7.1 18.95 -8.45 19.15 -9.85" fill="#000000" fill-rule="evenodd" stroke="none"/>
    </g>
    <linearGradient gradientTransform="matrix(0.0258, 0.0136, -0.0071, 0.0135, 0.0, 0.0)" gradientUnits="userSpaceOnUse" id="gradient0" spreadMethod="pad" x1="-819.2" x2="819.2">
      <stop offset="0.0" stop-color="#f3fefe"/>
      <stop offset="1.0" stop-color="#7fe6e6" stop-opacity="0.5019608"/>
    </linearGradient>
  </defs>
</svg>
