<?xml version="1.0" encoding="UTF-8" standalone="no"?>
<svg xmlns:ffdec="https://www.free-decompiler.com/flash" xmlns:xlink="http://www.w3.org/1999/xlink" ffdec:objectType="frame" height="36.65px" width="103.0px" xmlns="http://www.w3.org/2000/svg">
  <g transform="matrix(1.0, 0.0, 0.0, 1.0, 47.6, 19.3)">
    <use ffdec:characterId="424" height="36.65" transform="matrix(1.0, 0.0, 0.0, 1.0, -47.6, -19.3)" width="103.0" xlink:href="#shape0"/>
    <use ffdec:characterId="425" height="30.0" transform="matrix(1.0, 0.0, 0.0, 1.0, -41.6, -18.5)" width="91.0" xlink:href="#shape1"/>
    <use ffdec:characterId="426" height="12.55" transform="matrix(1.0, 0.0, 0.0, 1.0, -31.6, -8.95)" width="78.0" xlink:href="#text0"/>
  </g>
  <defs>
    <g id="shape0" transform="matrix(1.0, 0.0, 0.0, 1.0, 47.6, 19.3)">
      <path d="M-45.6 5.15 L-45.6 -8.9 Q-45.6 -12.85 -42.7 -15.6 -39.75 -18.35 -35.6 -18.35 L43.4 -18.35 Q47.55 -18.35 50.45 -15.6 53.4 -12.85 53.4 -8.9 L53.4 5.15 51.4 5.15 51.4 4.9 51.4 -8.45 51.3 -8.45 Q50.85 -11.45 48.45 -13.7 45.55 -16.45 41.4 -16.45 L-33.6 -16.45 Q-37.75 -16.45 -40.7 -13.7 -43.05 -11.45 -43.5 -8.45 L-43.6 -8.45 -43.6 4.9 -43.6 5.15 -43.55 5.7 -43.6 5.7 -43.6 6.0 -43.55 6.0 Q-43.25 9.3 -40.7 11.7 -37.75 14.5 -33.6 14.5 L41.4 14.5 Q45.55 14.5 48.45 11.7 51.05 9.3 51.35 6.0 L51.4 6.0 51.4 5.7 51.4 5.15 53.4 5.15 53.4 6.95 Q53.4 10.85 50.45 13.6 47.55 16.35 43.4 16.4 L-35.6 16.4 Q-39.75 16.35 -42.7 13.6 -45.6 10.85 -45.6 6.95 L-45.6 5.15 -43.6 5.15 -45.6 5.15" fill="#01317e" fill-opacity="0.08235294" fill-rule="evenodd" stroke="none"/>
      <path d="M53.4 5.15 L53.4 -8.9 Q53.4 -12.85 50.45 -15.6 47.55 -18.35 43.4 -18.35 L-35.6 -18.35 Q-39.75 -18.35 -42.7 -15.6 -45.6 -12.85 -45.6 -8.9 L-45.6 5.15 -47.6 5.15 -47.6 -9.85 Q-47.6 -13.8 -44.7 -16.55 -41.75 -19.3 -37.6 -19.3 L45.4 -19.3 Q49.55 -19.3 52.45 -16.55 55.4 -13.8 55.4 -9.85 L55.4 5.15 53.4 5.15 55.4 5.15 55.4 7.9 Q55.4 11.8 52.45 14.55 49.55 17.3 45.4 17.35 L-37.6 17.35 Q-41.75 17.3 -44.7 14.55 -47.6 11.8 -47.6 7.9 L-47.6 5.15 -45.6 5.15 -45.6 6.95 Q-45.6 10.85 -42.7 13.6 -39.75 16.35 -35.6 16.4 L43.4 16.4 Q47.55 16.35 50.45 13.6 53.4 10.85 53.4 6.95 L53.4 5.15" fill="#01317e" fill-opacity="0.03137255" fill-rule="evenodd" stroke="none"/>
      <path d="M-43.6 5.15 L-43.6 4.9 -43.6 -8.45 -43.5 -8.45 Q-43.05 -11.45 -40.7 -13.7 -37.75 -16.45 -33.6 -16.45 L41.4 -16.45 Q45.55 -16.45 48.45 -13.7 50.85 -11.45 51.3 -8.45 L51.4 -8.45 51.4 4.9 51.4 5.15 51.4 5.7 51.4 6.0 51.35 6.0 Q51.05 9.3 48.45 11.7 45.55 14.5 41.4 14.5 L-33.6 14.5 Q-37.75 14.5 -40.7 11.7 -43.25 9.3 -43.55 6.0 L-43.6 6.0 -43.6 5.7 -43.55 5.7 -43.6 5.15 51.4 5.15 -43.6 5.15" fill="#01317e" fill-opacity="0.18039216" fill-rule="evenodd" stroke="none"/>
    </g>
    <g id="shape1" transform="matrix(1.0, 0.0, 0.0, 1.0, 41.6, 18.5)">
      <path d="M48.75 5.15 Q48.0 7.0 46.45 8.55 43.55 11.5 39.4 11.5 L-31.6 11.5 Q-35.75 11.5 -38.7 8.55 -40.25 7.0 -40.95 5.15 L48.75 5.15 -40.95 5.15 Q-41.6 1.8 -41.6 -2.05 L-41.6 -8.5 Q-41.6 -12.65 -38.7 -15.6 -35.75 -18.5 -31.6 -18.5 L39.4 -18.5 Q43.55 -18.5 46.45 -15.6 49.4 -12.65 49.4 -8.5 L49.4 -2.05 Q49.4 1.8 48.75 5.15" fill="#ffffff" fill-rule="evenodd" stroke="none"/>
    </g>
    <g id="text0" transform="matrix(1.0, 0.0, 0.0, 1.0, -0.9, -3.75)">
      <g transform="matrix(1.0, 0.0, 0.0, 1.0, 0.0, 0.0)">
        <use fill="#999999" height="12.55" transform="matrix(0.2734, 0.0, 0.0, 0.2734, 0.0, 14.0)" width="78.0" xlink:href="#font_VAGRounded_BT_R0"/>
        <use fill="#999999" height="12.55" transform="matrix(0.2734, 0.0, 0.0, 0.2734, 8.35, 14.0)" width="78.0" xlink:href="#font_VAGRounded_BT_U0"/>
        <use fill="#999999" height="12.55" transform="matrix(0.2734, 0.0, 0.0, 0.2734, 18.65, 14.0)" width="78.0" xlink:href="#font_VAGRounded_BT_N0"/>
        <use fill="#999999" height="12.55" transform="matrix(0.2734, 0.0, 0.0, 0.2734, 33.65, 14.0)" width="78.0" xlink:href="#font_VAGRounded_BT_A0"/>
        <use fill="#999999" height="12.55" transform="matrix(0.2734, 0.0, 0.0, 0.2734, 42.4, 14.0)" width="78.0" xlink:href="#font_VAGRounded_BT_W0"/>
        <use fill="#999999" height="12.55" transform="matrix(0.2734, 0.0, 0.0, 0.2734, 55.2, 14.0)" width="78.0" xlink:href="#font_VAGRounded_BT_A0"/>
        <use fill="#999999" height="12.55" transform="matrix(0.2734, 0.0, 0.0, 0.2734, 63.95, 14.0)" width="78.0" xlink:href="#font_VAGRounded_BT_Y0"/>
      </g>
    </g>
    <g id="font_VAGRounded_BT_R0">
      <path d="M11.55 -19.9 L11.55 -28.75 15.45 -28.75 Q17.95 -28.75 19.3 -27.6 20.65 -26.5 20.65 -24.4 20.65 -22.25 19.25 -21.1 17.9 -19.9 15.35 -19.9 L11.55 -19.9 M11.55 -14.35 L21.2 -2.25 Q22.55 -0.6 23.55 0.05 24.55 0.75 25.65 0.75 27.35 0.75 28.5 -0.4 29.6 -1.5 29.6 -3.15 29.6 -4.15 29.0 -5.35 L27.15 -7.9 20.6 -15.2 Q24.65 -15.9 27.0 -18.5 29.3 -21.1 29.3 -25.0 29.3 -30.25 25.6 -33.3 21.9 -36.4 15.4 -36.4 L8.95 -36.4 Q5.8 -36.4 4.5 -35.15 3.25 -33.9 3.25 -30.55 L3.25 -5.4 Q3.25 -2.45 4.25 -1.0 5.3 0.45 7.4 0.45 9.5 0.45 10.5 -1.0 11.55 -2.45 11.55 -5.4 L11.55 -14.35" fill-rule="evenodd" stroke="none"/>
    </g>
    <g id="font_VAGRounded_BT_U0">
      <path d="M3.25 -15.6 L3.25 -15.6 Q3.25 -7.7 7.35 -3.3 11.5 1.1 18.85 1.1 26.2 1.1 30.35 -3.3 34.45 -7.7 34.45 -15.6 L34.45 -30.95 Q34.45 -33.95 33.45 -35.4 32.4 -36.85 30.3 -36.85 28.25 -36.85 27.2 -35.4 26.2 -33.95 26.2 -30.95 L26.2 -16.55 Q26.2 -11.7 24.35 -9.25 22.5 -6.85 18.85 -6.85 15.2 -6.85 13.4 -9.25 11.55 -11.7 11.55 -16.55 L11.55 -30.95 Q11.55 -33.95 10.5 -35.4 9.5 -36.85 7.4 -36.85 5.3 -36.85 4.25 -35.4 3.25 -33.95 3.25 -30.95 L3.25 -15.6" fill-rule="evenodd" stroke="none"/>
    </g>
    <g id="font_VAGRounded_BT_N0">
      <path d="M11.55 -5.4 L11.55 -22.15 26.55 -2.35 Q27.75 -0.75 28.85 -0.05 30.0 0.7 31.3 0.7 33.25 0.7 34.15 -0.55 35.1 -1.85 35.1 -4.5 L35.1 -30.95 Q35.1 -33.95 34.05 -35.4 33.05 -36.85 30.95 -36.85 28.85 -36.85 27.8 -35.4 26.8 -33.95 26.8 -30.95 L26.8 -13.9 11.5 -34.15 9.35 -36.2 Q8.35 -36.8 7.1 -36.8 5.15 -36.8 4.2 -35.45 3.25 -34.05 3.25 -31.25 L3.25 -5.4 Q3.25 -2.45 4.25 -1.0 5.3 0.45 7.4 0.45 9.5 0.45 10.5 -1.0 11.55 -2.45 11.55 -5.4" fill-rule="evenodd" stroke="none"/>
    </g>
    <g id="font_VAGRounded_BT_A0">
      <path d="M11.55 -14.5 L16.05 -28.0 20.25 -14.5 11.55 -14.5 M9.2 -6.85 L22.65 -6.85 23.65 -3.45 Q24.3 -1.4 25.35 -0.4 26.4 0.6 28.0 0.6 29.8 0.6 30.95 -0.5 32.1 -1.6 32.1 -3.3 L32.0 -4.45 31.55 -5.95 22.35 -32.1 Q21.5 -34.45 19.95 -35.65 18.35 -36.9 16.25 -36.9 14.0 -36.9 12.45 -35.6 10.9 -34.3 9.9 -31.55 L0.4 -5.8 0.1 -4.7 0.0 -3.4 Q0.0 -1.7 1.15 -0.55 2.25 0.6 3.95 0.6 5.3 0.6 6.35 -0.35 7.35 -1.35 7.95 -3.15 L9.2 -6.85" fill-rule="evenodd" stroke="none"/>
    </g>
    <g id="font_VAGRounded_BT_W0">
      <path d="M18.2 -4.65 L23.3 -24.95 28.75 -4.2 Q29.35 -1.8 30.7 -0.65 32.0 0.45 34.25 0.45 36.75 0.45 37.95 -0.6 39.2 -1.7 40.0 -5.0 L46.35 -30.55 46.6 -31.8 46.65 -33.0 Q46.65 -34.7 45.5 -35.75 44.35 -36.85 42.55 -36.85 40.75 -36.85 39.8 -35.9 38.8 -34.9 38.35 -32.7 L34.0 -10.15 28.05 -33.25 Q27.6 -35.05 26.5 -35.95 25.35 -36.85 23.55 -36.85 21.75 -36.85 20.6 -36.0 19.4 -35.1 18.95 -33.35 L12.9 -10.15 8.55 -33.25 Q8.25 -35.0 7.2 -35.95 6.15 -36.9 4.55 -36.9 2.7 -36.9 1.55 -35.9 0.35 -34.85 0.35 -33.15 L0.4 -32.0 0.45 -31.35 6.5 -5.0 Q7.2 -2.05 8.5 -0.8 9.8 0.45 12.2 0.45 14.5 0.45 16.05 -0.85 17.55 -2.15 18.2 -4.65" fill-rule="evenodd" stroke="none"/>
    </g>
    <g id="font_VAGRounded_BT_Y0">
      <path d="M19.8 -33.8 L13.5 -24.8 7.3 -33.7 5.1 -36.1 Q4.05 -36.85 3.05 -36.85 1.35 -36.85 0.2 -35.8 -0.95 -34.7 -0.95 -33.2 -0.95 -31.6 0.85 -29.1 L0.9 -29.0 9.3 -17.15 9.3 -5.4 Q9.3 -2.45 10.3 -1.0 11.35 0.45 13.45 0.45 15.5 0.45 16.55 -1.0 17.55 -2.45 17.55 -5.4 L17.55 -17.15 25.95 -29.1 26.15 -29.35 Q27.85 -31.75 27.85 -33.3 27.85 -34.65 26.75 -35.8 25.6 -36.9 24.25 -36.9 23.15 -36.9 22.0 -36.1 20.85 -35.3 19.8 -33.8" fill-rule="evenodd" stroke="none"/>
    </g>
  </defs>
</svg>
