<?xml version="1.0" encoding="UTF-8" standalone="no"?>
<svg xmlns:ffdec="https://www.free-decompiler.com/flash" xmlns:xlink="http://www.w3.org/1999/xlink" ffdec:objectType="frame" height="17.4px" width="73.9px" xmlns="http://www.w3.org/2000/svg">
  <g transform="matrix(1.0, 0.0, 0.0, 1.0, 0.0, 0.0)">
    <use ffdec:characterId="52" height="17.4" transform="matrix(1.0, 0.0, 0.0, 1.0, 0.0, 0.0)" width="73.9" xlink:href="#shape0"/>
    <use ffdec:characterId="53" height="8.15" transform="matrix(0.9999, 0.0, 0.0, 1.0, 18.8022, 4.75)" width="39.6" xlink:href="#text0"/>
    <use ffdec:characterId="46" height="13.5" transform="matrix(1.0, 0.0, 0.0, 1.0, 1.6, 2.0)" width="70.6" xlink:href="#shape1"/>
  </g>
  <defs>
    <g id="shape0" transform="matrix(1.0, 0.0, 0.0, 1.0, 0.0, 0.0)">
      <path d="M72.15 1.75 Q73.85 3.5 73.9 6.0 L73.9 11.4 Q73.85 13.9 72.15 15.65 70.35 17.4 67.9 17.4 L5.95 17.4 Q3.45 17.4 1.7 15.65 0.3 14.25 0.0 12.4 L0.0 5.0 Q0.3 3.15 1.7 1.75 3.45 0.0 5.95 0.0 L67.9 0.0 Q70.35 0.0 72.15 1.75" fill="url(#gradient0)" fill-rule="evenodd" stroke="none"/>
    </g>
    <linearGradient gradientTransform="matrix(0.0, -0.0108, 0.0106, 0.0, 36.95, 8.7)" gradientUnits="userSpaceOnUse" id="gradient0" spreadMethod="pad" x1="-819.2" x2="819.2">
      <stop offset="0.0" stop-color="#336699"/>
      <stop offset="1.0" stop-color="#6096ca"/>
    </linearGradient>
    <g id="text0" transform="matrix(1.0, 0.0, 0.0, 1.0, 16.25, -2.65)">
      <g transform="matrix(1.0, 0.0, 0.0, 1.0, -16.9, 0.0)">
        <use fill="#ffffff" height="8.15" transform="matrix(0.2148, 0.0, 0.0, 0.2148, 0.0, 11.0)" width="39.6" xlink:href="#font_TradeGothic_Bold_C0"/>
        <use fill="#ffffff" height="8.15" transform="matrix(0.2148, 0.0, 0.0, 0.2148, 6.1, 11.0)" width="39.6" xlink:href="#font_TradeGothic_Bold_A0"/>
        <use fill="#ffffff" height="8.15" transform="matrix(0.2148, 0.0, 0.0, 0.2148, 12.2, 11.0)" width="39.6" xlink:href="#font_TradeGothic_Bold_N0"/>
        <use fill="#ffffff" height="8.15" transform="matrix(0.2148, 0.0, 0.0, 0.2148, 18.9, 11.0)" width="39.6" xlink:href="#font_TradeGothic_Bold_C0"/>
        <use fill="#ffffff" height="8.15" transform="matrix(0.2148, 0.0, 0.0, 0.2148, 25.0, 11.0)" width="39.6" xlink:href="#font_TradeGothic_Bold_E0"/>
        <use fill="#ffffff" height="8.15" transform="matrix(0.2148, 0.0, 0.0, 0.2148, 30.5, 11.0)" width="39.6" xlink:href="#font_TradeGothic_Bold_L0"/>
      </g>
    </g>
    <g id="font_TradeGothic_Bold_C0">
      <path d="M9.65 -26.0 L9.65 -10.95 Q9.65 -7.95 10.9 -6.8 12.1 -5.7 14.25 -5.75 16.35 -5.7 17.6 -6.8 18.8 -7.95 18.85 -10.95 L18.85 -13.4 25.9 -13.4 25.9 -11.9 Q25.9 -7.35 24.4 -4.6 22.95 -1.9 20.3 -0.7 17.7 0.55 14.25 0.5 10.8 0.55 8.15 -0.7 5.55 -1.9 4.05 -4.6 2.6 -7.35 2.55 -11.9 L2.55 -25.05 Q2.6 -29.6 4.05 -32.35 5.55 -35.05 8.15 -36.25 10.8 -37.5 14.25 -37.45 17.7 -37.5 20.3 -36.25 22.95 -35.05 24.4 -32.35 25.9 -29.6 25.9 -25.05 L25.9 -24.95 18.85 -24.95 18.85 -26.0 Q18.8 -29.0 17.6 -30.15 16.35 -31.25 14.25 -31.2 12.1 -31.25 10.9 -30.15 9.65 -29.0 9.65 -26.0" fill-rule="evenodd" stroke="none"/>
    </g>
    <g id="font_TradeGothic_Bold_A0">
      <path d="M7.5 0.0 L0.7 0.0 9.85 -36.95 18.9 -36.95 27.8 0.0 21.05 0.0 19.25 -7.75 9.5 -7.75 7.5 0.0 M14.25 -29.0 L10.75 -14.0 17.8 -14.0 14.35 -29.0 14.25 -29.0" fill-rule="evenodd" stroke="none"/>
    </g>
    <g id="font_TradeGothic_Bold_N0">
      <path d="M10.05 0.0 L3.6 0.0 3.6 -36.95 11.3 -36.95 21.15 -15.05 21.25 -15.05 21.25 -36.95 27.7 -36.95 27.7 0.0 20.95 0.0 10.15 -23.85 10.05 -23.85 10.05 0.0" fill-rule="evenodd" stroke="none"/>
    </g>
    <g id="font_TradeGothic_Bold_E0">
      <path d="M23.05 0.0 L3.2 0.0 3.2 -36.95 22.55 -36.95 22.55 -30.7 10.25 -30.7 10.25 -22.2 19.65 -22.2 19.65 -15.95 10.25 -15.95 10.25 -6.25 23.05 -6.25 23.05 0.0" fill-rule="evenodd" stroke="none"/>
    </g>
    <g id="font_TradeGothic_Bold_L0">
      <path d="M21.65 0.0 L3.2 0.0 3.2 -36.95 10.25 -36.95 10.25 -6.25 21.65 -6.25 21.65 0.0" fill-rule="evenodd" stroke="none"/>
    </g>
    <g id="shape1" transform="matrix(1.0, 0.0, 0.0, 1.0, -1.6, -2.0)">
      <path d="M68.7 3.0 L5.15 3.0 Q4.3 3.0 3.65 3.5 L3.4 3.7 3.35 3.75 Q2.65 4.45 2.65 5.5 L2.65 9.95 2.6 9.95 2.6 12.0 Q2.6 13.05 3.35 13.8 4.05 14.5 5.1 14.5 L68.65 14.5 70.15 14.05 70.45 13.8 Q71.15 13.05 71.15 12.0 L71.15 6.35 71.2 6.35 71.2 5.5 Q71.2 4.45 70.45 3.7 69.75 3.0 68.7 3.0 M71.15 3.0 Q72.2 4.05 72.2 5.5 L72.2 9.95 72.15 9.95 72.15 12.0 Q72.15 13.45 71.2 14.5 L71.15 14.55 70.15 15.2 68.65 15.5 5.1 15.5 Q3.65 15.5 2.65 14.5 1.6 13.45 1.6 12.0 L1.6 6.35 1.65 6.35 1.65 5.5 Q1.65 4.05 2.65 3.0 L3.65 2.3 Q4.35 2.0 5.15 2.0 L68.7 2.0 Q70.15 2.0 71.15 3.0" fill="url(#gradient1)" fill-rule="evenodd" stroke="none"/>
    </g>
    <linearGradient gradientTransform="matrix(-0.0016, -0.013, 0.0082, -0.001, 36.9, 8.75)" gradientUnits="userSpaceOnUse" id="gradient1" spreadMethod="pad" x1="-819.2" x2="819.2">
      <stop offset="0.0" stop-color="#000000" stop-opacity="0.2509804"/>
      <stop offset="0.596078431372549" stop-color="#ffffff" stop-opacity="0.5019608"/>
    </linearGradient>
  </defs>
</svg>
