<?xml version="1.0" encoding="UTF-8" standalone="no"?>
<svg xmlns:ffdec="https://www.free-decompiler.com/flash" xmlns:xlink="http://www.w3.org/1999/xlink" ffdec:objectType="frame" height="298.05px" width="531.0px" xmlns="http://www.w3.org/2000/svg">
  <g transform="matrix(1.0, 0.0, 0.0, 1.0, 0.0, 0.0)">
    <use ffdec:characterId="564" height="298.05" transform="matrix(1.0, 0.0, 0.0, 1.0, 0.0, 0.0)" width="531.0" xlink:href="#shape0"/>
  </g>
  <defs>
    <g id="shape0" transform="matrix(1.0, 0.0, 0.0, 1.0, 0.0, 0.0)">
      <path d="M514.5 0.0 L524.6 0.0 Q527.25 0.05 529.15 1.95 530.8 3.65 531.0 6.0 L531.0 51.0 Q530.8 53.35 529.15 55.05 527.25 56.95 524.6 57.0 L450.85 57.0 450.85 57.05 446.85 57.05 446.85 55.3 446.85 57.05 409.4 57.05 409.4 57.0 399.3 57.0 Q396.65 56.95 394.8 55.05 393.1 53.35 392.9 51.0 L392.9 6.0 Q393.1 3.65 394.8 1.95 396.65 0.05 399.3 0.0 L446.85 0.0 446.85 2.0 446.85 0.0 504.05 0.0 505.8 0.0 505.85 0.0 514.5 0.0 M531.0 68.0 L531.0 292.0 Q530.8 294.35 529.15 296.05 527.25 297.95 524.6 298.0 L421.95 298.0 421.95 298.05 353.3 298.05 353.3 298.0 352.45 298.0 352.45 298.05 320.05 298.05 320.05 298.0 26.95 298.0 26.95 298.05 25.2 298.05 25.2 298.0 25.2 298.05 16.5 298.05 16.5 298.0 6.4 298.0 Q3.75 297.95 1.9 296.05 0.2 294.35 0.0 292.0 L0.0 68.0 Q0.2 65.65 1.9 63.95 3.75 62.05 6.4 62.0 L362.05 62.0 363.8 62.0 363.85 62.0 372.5 62.0 504.05 62.0 505.8 62.0 505.85 62.0 514.5 62.0 524.6 62.0 Q527.25 62.05 529.15 63.95 530.8 65.65 531.0 68.0 M446.85 4.0 L446.85 8.9 446.85 4.0 M446.85 26.3 L446.85 28.0 446.85 26.3 M388.0 6.0 L388.0 51.0 Q387.8 53.35 386.15 55.05 384.25 56.95 381.6 57.0 L26.95 57.0 26.95 57.05 25.2 57.05 25.2 57.0 25.2 57.05 16.5 57.05 16.5 57.0 6.4 57.0 Q3.75 56.95 1.9 55.05 0.2 53.35 0.0 51.0 L0.0 6.0 Q0.2 3.65 1.9 1.95 3.75 0.05 6.4 0.0 L362.05 0.0 363.8 0.0 363.85 0.0 364.5 0.0 364.6 0.0 371.5 0.0 381.6 0.0 Q384.25 0.05 386.15 1.95 387.8 3.65 388.0 6.0 M446.85 53.3 L446.85 50.0 446.85 53.3" fill="#ffffff" fill-opacity="0.2" fill-rule="evenodd" stroke="none"/>
    </g>
  </defs>
</svg>
