<?xml version="1.0" encoding="UTF-8" standalone="no"?>
<svg xmlns:ffdec="https://www.free-decompiler.com/flash" xmlns:xlink="http://www.w3.org/1999/xlink" ffdec:objectType="frame" height="266.05px" width="337.85px" xmlns="http://www.w3.org/2000/svg">
  <g transform="matrix(1.0, 0.0, 0.0, 1.0, 43.45, 93.45)">
    <use ffdec:characterId="217" height="0.0" transform="matrix(1.0, 0.0, 0.0, 1.0, 31.85, -4.15)" width="0.0" xlink:href="#sprite0"/>
    <use ffdec:characterId="218" height="0.0" transform="matrix(1.0, 0.0, 0.0, 1.0, 32.85, 18.85)" width="0.0" xlink:href="#sprite1"/>
    <use ffdec:characterId="219" height="128.05" transform="matrix(1.0, 0.0, 0.0, 1.0, 57.55, 44.55)" width="183.3" xlink:href="#sprite2"/>
    <use ffdec:characterId="181" height="210.4" transform="matrix(1.0, 0.0, 0.0, 1.0, -43.45, -93.45)" width="337.85" xlink:href="#sprite3"/>
  </g>
  <defs>
    <g id="sprite3" transform="matrix(1.0, 0.0, 0.0, 1.0, 128.3, 49.3)">
      <use ffdec:characterId="92" height="100.0" id="boundingBox_mc" transform="matrix(1.0, 0.0, 0.0, 1.0, 0.0, 0.0)" width="100.0" xlink:href="#sprite4"/>
    </g>
    <g id="sprite4" transform="matrix(1.0, 0.0, 0.0, 1.0, 0.0, 0.0)">
      <use ffdec:characterId="91" height="100.0" transform="matrix(1.0, 0.0, 0.0, 1.0, 0.0, 0.0)" width="100.0" xlink:href="#shape0"/>
    </g>
    <g id="shape0" transform="matrix(1.0, 0.0, 0.0, 1.0, 0.0, 0.0)">
      <path d="M100.0 100.0 L0.0 100.0 0.0 0.0 100.0 0.0 100.0 100.0" fill="#ffffff" fill-rule="evenodd" stroke="none"/>
      <path d="M100.0 100.0 L0.0 100.0 0.0 0.0 100.0 0.0 100.0 100.0 Z" ffdec:has-small-stroke="true" ffdec:original-stroke-width="0.05" fill="none" stroke="#666666" stroke-linecap="round" stroke-linejoin="round" stroke-width="1.0"/>
    </g>
  </defs>
</svg>
