<?xml version="1.0" encoding="UTF-8" standalone="no"?>
<svg xmlns:ffdec="https://www.free-decompiler.com/flash" xmlns:xlink="http://www.w3.org/1999/xlink" ffdec:objectType="frame" height="59.35px" width="65.85px" xmlns="http://www.w3.org/2000/svg">
  <g transform="matrix(1.0, 0.0, 0.0, 1.0, 31.95, 32.05)">
    <use ffdec:characterId="475" height="14.8" transform="matrix(1.0, 0.0, 0.0, 1.0, -6.8, -7.35)" width="14.25" xlink:href="#shape0"/>
  </g>
  <defs>
    <g id="shape0" transform="matrix(1.0, 0.0, 0.0, 1.0, 6.8, 7.35)">
      <path d="M4.1 -3.55 L2.8 -3.7 0.45 -2.35 0.3 -2.05 Q-0.75 -1.9 -1.65 -2.5 -1.75 -3.15 -0.95 -3.6 L-0.9 -3.7 -0.45 -3.95 1.9 -4.1 2.05 -5.15 Q-0.1 -5.6 -1.7 -4.45 -2.35 -3.95 -3.25 -3.7 L-4.0 -2.95 -4.7 -1.75 -4.8 -1.7 Q-2.85 -0.15 -3.1 3.4 L-3.1 3.7 Q-0.6 5.95 2.7 4.75 L3.5 3.95 3.8 3.7 Q4.55 2.6 4.9 1.25 L4.85 0.45 5.45 -0.45 5.45 -2.2 4.25 -3.4 4.1 -3.55 M-6.2 -2.4 L-6.1 -3.15 -4.65 -5.1 Q-3.1 -6.55 -1.05 -6.75 1.95 -7.2 4.45 -5.85 4.55 -5.75 4.65 -5.75 L4.75 -5.6 5.05 -5.15 5.75 -4.5 Q7.65 -1.15 6.55 2.9 6.25 4.0 5.3 4.75 2.2 7.25 -1.75 6.9 -6.0 4.95 -6.25 0.4 L-6.25 -1.6 Q-5.95 -1.45 -5.75 -2.25 L-6.2 -2.4" fill="#d5eaff" fill-rule="evenodd" stroke="none"/>
      <path d="M4.1 -3.55 L4.25 -3.4 5.45 -2.2 5.45 -0.45 4.85 0.45 4.9 1.25 Q4.55 2.6 3.8 3.7 L3.5 3.95 2.7 4.75 Q-0.6 5.95 -3.1 3.7 L-3.1 3.4 Q-2.85 -0.15 -4.8 -1.7 L-4.7 -1.75 -4.0 -2.95 -3.25 -3.7 Q-2.35 -3.95 -1.7 -4.45 -0.1 -5.6 2.05 -5.15 L1.9 -4.1 -0.45 -3.95 -0.9 -3.7 -0.95 -3.6 Q-1.75 -3.15 -1.65 -2.5 -0.75 -1.9 0.3 -2.05 L0.45 -2.35 2.8 -3.7 4.1 -3.55 M-6.2 -2.4 L-5.75 -2.25 Q-5.95 -1.45 -6.25 -1.6 L-6.2 -2.4" fill="#ffffff" fill-rule="evenodd" stroke="none"/>
      <path d="M-6.25 -1.6 L-6.25 0.4 Q-6.0 4.95 -1.75 6.9 2.2 7.25 5.3 4.75 6.25 4.0 6.55 2.9 7.65 -1.15 5.75 -4.5 L5.05 -5.15 4.75 -5.6 4.65 -5.75 Q4.55 -5.75 4.45 -5.85 1.95 -7.2 -1.05 -6.75 -3.1 -6.55 -4.65 -5.1 L-6.1 -3.15 -6.2 -2.4 -6.25 -1.6 Z" fill="none" stroke="#000000" stroke-linecap="round" stroke-linejoin="round" stroke-width="1.0"/>
    </g>
  </defs>
</svg>
