<?xml version="1.0" encoding="UTF-8" standalone="no"?>
<svg xmlns:ffdec="https://www.free-decompiler.com/flash" xmlns:xlink="http://www.w3.org/1999/xlink" ffdec:objectType="frame" height="59.35px" width="65.85px" xmlns="http://www.w3.org/2000/svg">
  <g transform="matrix(1.0, 0.0, 0.0, 1.0, 31.95, 32.05)">
    <use ffdec:characterId="493" height="80.2" transform="matrix(-0.0379, -0.2672, 0.2672, -0.0379, -18.2758, 16.8416)" width="84.05" xlink:href="#shape0"/>
    <use ffdec:characterId="493" height="80.2" transform="matrix(0.2456, -0.0324, 0.0324, 0.2456, -12.4645, -10.3395)" width="84.05" xlink:href="#shape0"/>
    <use ffdec:characterId="493" height="80.2" transform="matrix(0.2476, -0.0326, 0.0326, 0.2476, -3.5082, -0.0581)" width="84.05" xlink:href="#shape0"/>
    <use ffdec:characterId="493" height="80.2" transform="matrix(0.2371, -0.0682, 0.0682, 0.2371, -8.0404, -17.744)" width="84.05" xlink:href="#shape0"/>
    <use ffdec:characterId="484" height="14.25" transform="matrix(1.0, 0.0, 0.0, 1.0, -1.65, -12.45)" width="17.25" xlink:href="#morphshape0"/>
    <use ffdec:characterId="485" height="32.9" transform="matrix(1.0, 0.0, 0.0, 1.0, -8.3, -25.1)" width="14.85" xlink:href="#morphshape1"/>
    <use ffdec:characterId="486" height="16.1" transform="matrix(1.0, 0.0, 0.0, 1.0, -3.8, -10.1)" width="37.7" xlink:href="#morphshape2"/>
    <use ffdec:characterId="487" height="14.95" transform="matrix(1.0, 0.0, 0.0, 1.0, -1.6, -3.35)" width="25.7" xlink:href="#morphshape3"/>
    <use ffdec:characterId="488" height="14.75" transform="matrix(1.0, 0.0, 0.0, 1.0, -1.45, 0.1)" width="12.45" xlink:href="#morphshape4"/>
    <use ffdec:characterId="489" height="11.1" transform="matrix(1.0, 0.0, 0.0, 1.0, -23.2, -5.75)" width="21.9" xlink:href="#morphshape5"/>
    <use ffdec:characterId="490" height="29.05" transform="matrix(1.0, 0.0, 0.0, 1.0, -27.6, -27.15)" width="28.55" xlink:href="#morphshape6"/>
    <use ffdec:characterId="491" height="22.9" transform="matrix(1.0, 0.0, 0.0, 1.0, -8.2, -0.8)" width="15.25" xlink:href="#morphshape7"/>
    <use ffdec:characterId="492" height="22.4" transform="matrix(1.0, 0.0, 0.0, 1.0, -31.95, -2.05)" width="34.55" xlink:href="#morphshape8"/>
  </g>
  <defs>
    <g id="shape0" transform="matrix(1.0, 0.0, 0.0, 1.0, 42.0, 40.1)">
      <path d="M39.55 -8.9 L19.8 10.35 24.45 37.6 0.0 24.75 -24.4 37.6 -19.75 10.35 -39.5 -8.9 -12.2 -12.85 0.0 -37.6 12.2 -12.85 39.55 -8.9 Z" fill="none" stroke="#ffffff" stroke-linecap="round" stroke-linejoin="round" stroke-width="5.0"/>
      <path d="M12.2 -12.85 L39.55 -8.9 19.8 10.35 24.45 37.6 0.0 24.75 -24.4 37.6 -19.75 10.35 -39.5 -8.9 -12.2 -12.85 0.0 -37.6 12.2 -12.85" fill="url(#gradient0)" fill-rule="evenodd" stroke="none"/>
    </g>
    <linearGradient gradientTransform="matrix(0.0482, 0.0, 0.0, 0.0459, 0.0, 0.0)" gradientUnits="userSpaceOnUse" id="gradient0" spreadMethod="pad" x1="-819.2" x2="819.2">
      <stop offset="0.0" stop-color="#ff6600"/>
      <stop offset="1.0" stop-color="#ffcc00"/>
    </linearGradient>
    <g id="morphshape0" transform="matrix(1.0, 0.0, 0.0, 1.0, 1.65, 12.45)">
      <path d="M4.45 -7.2 Q4.4 -6.25 4.75 -5.25 5.0 -5.0 5.3 -4.8 7.25 -3.0 9.7 -3.1 10.75 -4.0 11.3 -5.25 12.1 -7.7 10.25 -9.75 L7.4 -10.1 6.05 -9.65 Q4.75 -8.65 4.45 -7.15" fill="#ffffff" fill-rule="evenodd" stroke="none"/>
      <path d="M4.45 -7.1 Q4.75 -8.6 6.05 -9.6 L7.4 -10.05 10.25 -9.7 Q12.1 -7.65 11.3 -5.2 10.75 -3.95 9.7 -3.05 7.25 -2.95 5.3 -4.75 5.0 -4.95 4.75 -5.2 4.4 -6.2 4.45 -7.15 4.75 -8.65 6.05 -9.65 L7.4 -10.1 10.25 -9.75 Q12.1 -7.7 11.3 -5.25 10.75 -4.0 9.7 -3.1 7.25 -3.0 5.3 -4.8 5.0 -5.0 4.75 -5.25 4.4 -6.25 4.45 -7.2" fill="none" stroke="#000000" stroke-linecap="round" stroke-linejoin="round" stroke-width="1.0"/>
    </g>
    <g id="morphshape1" transform="matrix(1.0, 0.0, 0.0, 1.0, 8.3, 25.1)">
      <path d="M-2.1 -14.1 Q-5.55 -9.3 -1.8 -4.4 L-1.65 -4.1 -1.0 -4.0 1.45 -4.1 Q2.9 -4.75 3.7 -5.85 L3.95 -6.25 4.35 -6.55 4.35 -7.0 Q6.85 -11.2 4.75 -14.0 L3.9 -15.3 Q4.05 -18.3 -1.25 -15.3 L-2.1 -14.15" fill="#ffffff" fill-rule="evenodd" stroke="none"/>
      <path d="M-2.1 -14.2 L-1.25 -15.35 Q4.05 -18.35 3.9 -15.35 L4.75 -14.05 Q6.85 -11.25 4.35 -7.05 L4.35 -6.6 3.95 -6.3 3.7 -5.9 Q2.9 -4.8 1.45 -4.15 L-1.0 -4.05 -1.65 -4.15 -1.8 -4.45 Q-5.55 -9.35 -2.1 -14.15 L-1.25 -15.3 Q4.05 -18.3 3.9 -15.3 L4.75 -14.0 Q6.85 -11.2 4.35 -7.0 L4.35 -6.55 3.95 -6.25 3.7 -5.85 Q2.9 -4.75 1.45 -4.1 L-1.0 -4.0 -1.65 -4.1 -1.8 -4.4 Q-5.55 -9.3 -2.1 -14.1" fill="none" stroke="#000000" stroke-linecap="round" stroke-linejoin="round" stroke-width="1.0"/>
    </g>
    <g id="morphshape2" transform="matrix(1.0, 0.0, 0.0, 1.0, 3.8, 10.1)">
      <path d="M11.1 -2.65 L12.05 -1.05 Q12.7 1.25 15.2 -0.2 18.85 -0.9 19.6 -2.75 20.85 -4.15 19.7 -5.5 19.2 -7.75 17.7 -7.35 L13.45 -6.8 Q9.85 -6.2 11.1 -2.55" fill="#ffffff" fill-rule="evenodd" stroke="none"/>
      <path d="M11.1 -2.45 Q9.85 -6.1 13.45 -6.7 L17.7 -7.25 Q19.2 -7.65 19.7 -5.4 20.85 -4.05 19.6 -2.65 18.85 -0.8 15.2 -0.1 12.7 1.35 12.05 -0.95 L11.1 -2.55 Q9.85 -6.2 13.45 -6.8 L17.7 -7.35 Q19.2 -7.75 19.7 -5.5 20.85 -4.15 19.6 -2.75 18.85 -0.9 15.2 -0.2 12.7 1.25 12.05 -1.05 L11.1 -2.65" fill="none" stroke="#000000" stroke-linecap="round" stroke-linejoin="round" stroke-width="1.0"/>
    </g>
    <g id="morphshape3" transform="matrix(1.0, 0.0, 0.0, 1.0, 1.6, 3.35)">
      <path d="M8.05 4.55 L9.35 7.05 Q11.8 9.65 15.05 7.35 15.65 6.75 15.8 4.75 14.85 1.75 12.85 1.8 10.8 1.9 8.5 2.55 L8.05 4.6" fill="#ffffff" fill-rule="evenodd" stroke="none"/>
      <path d="M8.05 4.65 L8.5 2.6 Q10.8 1.95 12.85 1.85 14.85 1.8 15.8 4.8 15.65 6.8 15.05 7.4 11.8 9.7 9.35 7.1 L8.05 4.6 8.5 2.55 Q10.8 1.9 12.85 1.8 14.85 1.75 15.8 4.75 15.65 6.75 15.05 7.35 11.8 9.65 9.35 7.05 L8.05 4.55" fill="none" stroke="#000000" stroke-linecap="round" stroke-linejoin="round" stroke-width="1.0"/>
    </g>
    <g id="morphshape4" transform="matrix(1.0, 0.0, 0.0, 1.0, 1.45, -0.1)">
      <path d="M3.6 9.7 L5.3 10.5 Q7.4 11.15 8.9 8.9 9.4 6.6 7.0 6.0 5.95 4.95 3.7 6.5 1.75 7.45 3.6 9.7" fill="#ffffff" fill-rule="evenodd" stroke="none"/>
      <path d="M3.6 9.7 Q1.75 7.45 3.7 6.5 5.95 4.95 7.0 6.0 9.4 6.6 8.9 8.9 7.4 11.15 5.3 10.5 L3.6 9.7 Q1.75 7.45 3.7 6.5 5.95 4.95 7.0 6.0 9.4 6.6 8.9 8.9 7.4 11.15 5.3 10.5 L3.6 9.7 Z" fill="none" stroke="#000000" stroke-linecap="round" stroke-linejoin="round" stroke-width="1.0"/>
    </g>
    <g id="morphshape5" transform="matrix(1.0, 0.0, 0.0, 1.0, 23.2, 5.75)">
      <path d="M-16.05 -0.8 Q-15.5 3.0 -12.45 1.25 L-10.2 0.6 -9.7 -1.8 -10.35 -3.4 Q-10.75 -6.05 -15.85 -3.1 L-16.0 -0.8" fill="#ffffff" fill-rule="evenodd" stroke="none"/>
      <path d="M-15.95 -0.8 L-15.8 -3.1 Q-10.7 -6.05 -10.3 -3.4 L-9.65 -1.8 -10.15 0.6 -12.4 1.25 Q-15.45 3.0 -16.0 -0.8 L-15.85 -3.1 Q-10.75 -6.05 -10.35 -3.4 L-9.7 -1.8 -10.2 0.6 -12.45 1.25 Q-15.5 3.0 -16.05 -0.8" fill="none" stroke="#000000" stroke-linecap="round" stroke-linejoin="round" stroke-width="1.0"/>
    </g>
    <g id="morphshape6" transform="matrix(1.0, 0.0, 0.0, 1.0, 27.6, 27.15)">
      <path d="M-14.4 -13.65 Q-16.8 -11.4 -14.4 -9.75 -13.2 -9.6 -10.85 -10.6 L-10.5 -13.5 Q-12.0 -15.15 -14.4 -13.7" fill="#ffffff" fill-rule="evenodd" stroke="none"/>
      <path d="M-14.4 -13.75 Q-12.0 -15.2 -10.5 -13.55 L-10.85 -10.65 Q-13.2 -9.65 -14.4 -9.8 -16.8 -11.45 -14.4 -13.7 -12.0 -15.15 -10.5 -13.5 L-10.85 -10.6 Q-13.2 -9.6 -14.4 -9.75 -16.8 -11.4 -14.4 -13.65" fill="none" stroke="#000000" stroke-linecap="round" stroke-linejoin="round" stroke-width="1.0"/>
    </g>
    <g id="morphshape7" transform="matrix(1.0, 0.0, 0.0, 1.0, 8.2, 0.8)">
      <path d="M-7.05 14.7 Q-4.55 15.45 -0.7 15.75 3.3 16.0 1.85 7.9 L-3.65 7.55 -5.6 8.85 -7.05 14.7" fill="#ffffff" fill-rule="evenodd" stroke="none"/>
      <path d="M-7.05 14.7 L-5.6 8.85 -3.65 7.55 1.85 7.9 Q3.3 16.0 -0.7 15.75 -4.55 15.45 -7.05 14.7 L-5.6 8.85 -3.65 7.55 1.85 7.9 Q3.3 16.0 -0.7 15.75 -4.55 15.45 -7.05 14.7 Z" fill="none" stroke="#000000" stroke-linecap="round" stroke-linejoin="round" stroke-width="1.0"/>
    </g>
    <g id="morphshape8" transform="matrix(1.0, 0.0, 0.0, 1.0, 31.95, 2.05)">
      <path d="M-18.05 8.6 Q-19.85 10.15 -18.05 11.7 -15.05 14.25 -12.05 11.6 -10.15 10.05 -11.25 7.7 -12.6 5.6 -15.15 6.6 -16.6 5.65 -18.05 8.65" fill="#ffffff" fill-rule="evenodd" stroke="none"/>
      <path d="M-18.05 8.7 Q-16.6 5.7 -15.15 6.65 -12.6 5.65 -11.25 7.75 -10.15 10.1 -12.05 11.65 -15.05 14.3 -18.05 11.75 -19.85 10.2 -18.05 8.65 -16.6 5.65 -15.15 6.6 -12.6 5.6 -11.25 7.7 -10.15 10.05 -12.05 11.6 -15.05 14.25 -18.05 11.7 -19.85 10.15 -18.05 8.6" fill="none" stroke="#000000" stroke-linecap="round" stroke-linejoin="round" stroke-width="1.0"/>
    </g>
  </defs>
</svg>
