<?xml version="1.0" encoding="UTF-8" standalone="no"?>
<svg xmlns:ffdec="https://www.free-decompiler.com/flash" xmlns:xlink="http://www.w3.org/1999/xlink" ffdec:objectType="frame" height="59.35px" width="65.85px" xmlns="http://www.w3.org/2000/svg">
  <g transform="matrix(1.0, 0.0, 0.0, 1.0, 31.95, 32.05)">
    <use ffdec:characterId="493" height="80.2" transform="matrix(-0.0975, -0.2346, 0.2346, -0.0975, -15.7599, 19.5645)" width="84.05" xlink:href="#shape0"/>
    <use ffdec:characterId="493" height="80.2" transform="matrix(0.2058, -0.0961, 0.0961, 0.2058, -16.0976, -7.4131)" width="84.05" xlink:href="#shape0"/>
    <use ffdec:characterId="493" height="80.2" transform="matrix(0.2094, -0.0978, 0.0978, 0.2094, -3.2661, 5.413)" width="84.05" xlink:href="#shape0"/>
    <use ffdec:characterId="493" height="80.2" transform="matrix(0.2339, 0.0022, -0.0022, 0.2339, -4.1827, -22.0225)" width="84.05" xlink:href="#shape0"/>
    <use ffdec:characterId="484" height="14.25" transform="matrix(1.0, 0.0, 0.0, 1.0, -1.65, -12.45)" width="17.25" xlink:href="#morphshape0"/>
    <use ffdec:characterId="485" height="32.9" transform="matrix(1.0, 0.0, 0.0, 1.0, -8.3, -25.1)" width="14.85" xlink:href="#morphshape1"/>
    <use ffdec:characterId="486" height="16.1" transform="matrix(1.0, 0.0, 0.0, 1.0, -3.8, -10.1)" width="37.7" xlink:href="#morphshape2"/>
    <use ffdec:characterId="487" height="14.95" transform="matrix(1.0, 0.0, 0.0, 1.0, -1.6, -3.35)" width="25.7" xlink:href="#morphshape3"/>
    <use ffdec:characterId="488" height="14.75" transform="matrix(1.0, 0.0, 0.0, 1.0, -1.45, 0.1)" width="12.45" xlink:href="#morphshape4"/>
    <use ffdec:characterId="489" height="11.1" transform="matrix(1.0, 0.0, 0.0, 1.0, -23.2, -5.75)" width="21.9" xlink:href="#morphshape5"/>
    <use ffdec:characterId="490" height="29.05" transform="matrix(1.0, 0.0, 0.0, 1.0, -27.6, -27.15)" width="28.55" xlink:href="#morphshape6"/>
    <use ffdec:characterId="491" height="22.9" transform="matrix(1.0, 0.0, 0.0, 1.0, -8.2, -0.8)" width="15.25" xlink:href="#morphshape7"/>
    <use ffdec:characterId="492" height="22.4" transform="matrix(1.0, 0.0, 0.0, 1.0, -31.95, -2.05)" width="34.55" xlink:href="#morphshape8"/>
  </g>
  <defs>
    <g id="shape0" transform="matrix(1.0, 0.0, 0.0, 1.0, 42.0, 40.1)">
      <path d="M39.55 -8.9 L19.8 10.35 24.45 37.6 0.0 24.75 -24.4 37.6 -19.75 10.35 -39.5 -8.9 -12.2 -12.85 0.0 -37.6 12.2 -12.85 39.55 -8.9 Z" fill="none" stroke="#ffffff" stroke-linecap="round" stroke-linejoin="round" stroke-width="5.0"/>
      <path d="M12.2 -12.85 L39.55 -8.9 19.8 10.35 24.45 37.6 0.0 24.75 -24.4 37.6 -19.75 10.35 -39.5 -8.9 -12.2 -12.85 0.0 -37.6 12.2 -12.85" fill="url(#gradient0)" fill-rule="evenodd" stroke="none"/>
    </g>
    <linearGradient gradientTransform="matrix(0.0482, 0.0, 0.0, 0.0459, 0.0, 0.0)" gradientUnits="userSpaceOnUse" id="gradient0" spreadMethod="pad" x1="-819.2" x2="819.2">
      <stop offset="0.0" stop-color="#ff6600"/>
      <stop offset="1.0" stop-color="#ffcc00"/>
    </linearGradient>
    <g id="morphshape0" transform="matrix(1.0, 0.0, 0.0, 1.0, 1.65, 12.45)">
      <path d="M6.8 -8.25 Q6.75 -7.45 7.05 -6.6 7.25 -6.35 7.5 -6.2 9.15 -4.7 11.2 -4.8 12.05 -5.6 12.55 -6.6 13.2 -8.65 11.65 -10.4 L9.25 -10.7 8.1 -10.3 Q7.0 -9.45 6.75 -8.2" fill="#ffffff" fill-rule="evenodd" stroke="none"/>
      <path d="M6.7 -8.15 Q6.95 -9.4 8.05 -10.25 L9.2 -10.65 11.6 -10.35 Q13.15 -8.6 12.5 -6.55 12.0 -5.55 11.15 -4.75 9.1 -4.65 7.45 -6.15 7.2 -6.3 7.0 -6.55 6.7 -7.4 6.75 -8.2 7.0 -9.45 8.1 -10.3 L9.25 -10.7 11.65 -10.4 Q13.2 -8.65 12.55 -6.6 12.05 -5.6 11.2 -4.8 9.15 -4.7 7.5 -6.2 7.25 -6.35 7.05 -6.6 6.75 -7.45 6.8 -8.25" fill="none" stroke="#000000" stroke-linecap="round" stroke-linejoin="round" stroke-width="1.0"/>
    </g>
    <g id="morphshape1" transform="matrix(1.0, 0.0, 0.0, 1.0, 8.3, 25.1)">
      <path d="M-1.1 -16.95 Q-4.0 -12.9 -0.85 -8.75 L-0.7 -8.5 -0.15 -8.4 1.9 -8.5 Q3.15 -9.05 3.85 -9.95 L4.1 -10.3 4.45 -10.55 4.45 -10.95 Q6.55 -14.5 4.75 -16.85 L4.05 -17.95 Q4.2 -20.45 -0.25 -17.95 L-0.95 -16.95" fill="#ffffff" fill-rule="evenodd" stroke="none"/>
      <path d="M-0.8 -16.95 L-0.1 -17.95 Q4.35 -20.45 4.2 -17.95 L4.9 -16.85 Q6.7 -14.5 4.6 -10.95 L4.6 -10.55 4.25 -10.3 4.0 -9.95 Q3.3 -9.05 2.05 -8.5 L0.0 -8.4 -0.55 -8.5 -0.7 -8.75 Q-3.85 -12.9 -0.95 -16.95 L-0.25 -17.95 Q4.2 -20.45 4.05 -17.95 L4.75 -16.85 Q6.55 -14.5 4.45 -10.95 L4.45 -10.55 4.1 -10.3 3.85 -9.95 Q3.15 -9.05 1.9 -8.5 L-0.15 -8.4 -0.7 -8.5 -0.85 -8.75 Q-4.0 -12.9 -1.1 -16.95" fill="none" stroke="#000000" stroke-linecap="round" stroke-linejoin="round" stroke-width="1.0"/>
    </g>
    <g id="morphshape2" transform="matrix(1.0, 0.0, 0.0, 1.0, 3.8, 10.1)">
      <path d="M16.75 -3.9 L17.55 -2.55 Q18.1 -0.65 20.2 -1.9 23.25 -2.5 23.9 -4.05 24.95 -5.2 23.95 -6.35 23.5 -8.25 22.2 -7.9 L18.6 -7.45 Q15.6 -6.95 16.65 -3.9" fill="#ffffff" fill-rule="evenodd" stroke="none"/>
      <path d="M16.55 -3.9 Q15.5 -6.95 18.5 -7.45 L22.1 -7.9 Q23.4 -8.25 23.85 -6.35 24.85 -5.2 23.8 -4.05 23.15 -2.5 20.1 -1.9 18.0 -0.65 17.45 -2.55 L16.65 -3.9 Q15.6 -6.95 18.6 -7.45 L22.2 -7.9 Q23.5 -8.25 23.95 -6.35 24.95 -5.2 23.9 -4.05 23.25 -2.5 20.2 -1.9 18.1 -0.65 17.55 -2.55 L16.75 -3.9" fill="none" stroke="#000000" stroke-linecap="round" stroke-linejoin="round" stroke-width="1.0"/>
    </g>
    <g id="morphshape3" transform="matrix(1.0, 0.0, 0.0, 1.0, 1.6, 3.35)">
      <path d="M11.75 6.05 L12.85 8.15 Q14.9 10.35 17.65 8.4 18.15 7.9 18.3 6.2 17.5 3.65 15.8 3.7 14.05 3.8 12.1 4.3 L11.7 6.05" fill="#ffffff" fill-rule="evenodd" stroke="none"/>
      <path d="M11.65 6.05 L12.05 4.3 Q14.0 3.8 15.75 3.7 17.45 3.65 18.25 6.2 18.1 7.9 17.6 8.4 14.85 10.35 12.8 8.15 L11.7 6.05 12.1 4.3 Q14.05 3.8 15.8 3.7 17.5 3.65 18.3 6.2 18.15 7.9 17.65 8.4 14.9 10.35 12.85 8.15 L11.75 6.05" fill="none" stroke="#000000" stroke-linecap="round" stroke-linejoin="round" stroke-width="1.0"/>
    </g>
    <g id="morphshape4" transform="matrix(1.0, 0.0, 0.0, 1.0, 1.45, -0.1)">
      <path d="M4.9 11.05 L6.35 11.7 Q8.15 12.25 9.4 10.35 9.8 8.4 7.75 7.9 6.85 7.0 5.0 8.3 3.35 9.1 4.9 11.0" fill="#ffffff" fill-rule="evenodd" stroke="none"/>
      <path d="M4.9 10.95 Q3.35 9.05 5.0 8.25 6.85 6.95 7.75 7.85 9.8 8.35 9.4 10.3 8.15 12.2 6.35 11.65 L4.9 11.0 Q3.35 9.1 5.0 8.3 6.85 7.0 7.75 7.9 9.8 8.4 9.4 10.35 8.15 12.25 6.35 11.7 L4.9 11.05" fill="none" stroke="#000000" stroke-linecap="round" stroke-linejoin="round" stroke-width="1.0"/>
    </g>
    <g id="morphshape5" transform="matrix(1.0, 0.0, 0.0, 1.0, 23.2, 5.75)">
      <path d="M-18.0 -1.6 Q-17.55 1.6 -14.95 0.15 L-13.05 -0.4 -12.65 -2.45 -13.2 -3.8 Q-13.55 -6.05 -17.85 -3.55 L-18.0 -1.6" fill="#ffffff" fill-rule="evenodd" stroke="none"/>
      <path d="M-18.0 -1.6 L-17.85 -3.55 Q-13.55 -6.05 -13.2 -3.8 L-12.65 -2.45 -13.05 -0.4 -14.95 0.15 Q-17.55 1.6 -18.0 -1.6 L-17.85 -3.55 Q-13.55 -6.05 -13.2 -3.8 L-12.65 -2.45 -13.05 -0.4 -14.95 0.15 Q-17.55 1.6 -18.0 -1.6 Z" fill="none" stroke="#000000" stroke-linecap="round" stroke-linejoin="round" stroke-width="1.0"/>
    </g>
    <g id="morphshape6" transform="matrix(1.0, 0.0, 0.0, 1.0, 27.6, 27.15)">
      <path d="M-18.0 -17.55 Q-20.0 -15.65 -18.0 -14.25 -17.0 -14.1 -15.05 -14.95 L-14.75 -17.4 Q-16.1 -18.55 -18.05 -17.55" fill="#ffffff" fill-rule="evenodd" stroke="none"/>
      <path d="M-18.1 -17.55 Q-16.15 -18.55 -14.8 -17.4 L-15.1 -14.95 Q-17.05 -14.1 -18.05 -14.25 -20.05 -15.65 -18.05 -17.55 -16.1 -18.55 -14.75 -17.4 L-15.05 -14.95 Q-17.0 -14.1 -18.0 -14.25 -20.0 -15.65 -18.0 -17.55" fill="none" stroke="#000000" stroke-linecap="round" stroke-linejoin="round" stroke-width="1.0"/>
    </g>
    <g id="morphshape7" transform="matrix(1.0, 0.0, 0.0, 1.0, 8.2, 0.8)">
      <path d="M-7.15 16.65 Q-4.95 17.25 -1.85 17.55 1.55 17.75 0.35 10.95 L-4.3 10.65 -5.95 11.75 -7.2 16.65" fill="#ffffff" fill-rule="evenodd" stroke="none"/>
      <path d="M-7.25 16.65 L-6.0 11.75 -4.35 10.65 0.3 10.95 Q1.5 17.75 -1.9 17.55 -5.0 17.25 -7.2 16.65 L-5.95 11.75 -4.3 10.65 0.35 10.95 Q1.55 17.75 -1.85 17.55 -4.95 17.25 -7.15 16.65" fill="none" stroke="#000000" stroke-linecap="round" stroke-linejoin="round" stroke-width="1.0"/>
    </g>
    <g id="morphshape8" transform="matrix(1.0, 0.0, 0.0, 1.0, 31.95, 2.05)">
      <path d="M-21.9 11.45 Q-23.4 12.75 -21.9 14.05 -19.4 15.8 -16.9 13.95 -15.3 12.6 -16.2 10.65 -17.35 8.85 -19.5 9.7 -20.7 8.9 -21.95 11.45" fill="#ffffff" fill-rule="evenodd" stroke="none"/>
      <path d="M-22.0 11.45 Q-20.75 8.9 -19.55 9.7 -17.4 8.85 -16.25 10.65 -15.35 12.6 -16.95 13.95 -19.45 15.8 -21.95 14.05 -23.45 12.75 -21.95 11.45 -20.7 8.9 -19.5 9.7 -17.35 8.85 -16.2 10.65 -15.3 12.6 -16.9 13.95 -19.4 15.8 -21.9 14.05 -23.4 12.75 -21.9 11.45" fill="none" stroke="#000000" stroke-linecap="round" stroke-linejoin="round" stroke-width="1.0"/>
    </g>
  </defs>
</svg>
