<?xml version="1.0" encoding="UTF-8" standalone="no"?>
<svg xmlns:ffdec="https://www.free-decompiler.com/flash" xmlns:xlink="http://www.w3.org/1999/xlink" ffdec:objectType="frame" height="59.35px" width="65.85px" xmlns="http://www.w3.org/2000/svg">
  <g transform="matrix(1.0, 0.0, 0.0, 1.0, 31.95, 32.05)">
    <use ffdec:characterId="493" height="80.2" transform="matrix(-0.1438, -0.1901, 0.1901, -0.1438, -13.2832, 21.299)" width="84.05" xlink:href="#shape0"/>
    <use ffdec:characterId="493" height="80.2" transform="matrix(0.1521, -0.1398, 0.1398, 0.1521, -18.3454, -4.825)" width="84.05" xlink:href="#shape0"/>
    <use ffdec:characterId="493" height="80.2" transform="matrix(0.1565, -0.1439, 0.1439, 0.1565, -1.7921, 10.6686)" width="84.05" xlink:href="#shape0"/>
    <use ffdec:characterId="493" height="80.2" transform="matrix(0.2106, 0.0657, -0.0657, 0.2106, 0.2882, -25.2572)" width="84.05" xlink:href="#shape0"/>
    <use ffdec:characterId="484" height="14.25" transform="matrix(1.0, 0.0, 0.0, 1.0, -1.65, -12.45)" width="17.25" xlink:href="#morphshape0"/>
    <use ffdec:characterId="485" height="32.9" transform="matrix(1.0, 0.0, 0.0, 1.0, -8.3, -25.1)" width="14.85" xlink:href="#morphshape1"/>
    <use ffdec:characterId="486" height="16.1" transform="matrix(1.0, 0.0, 0.0, 1.0, -3.8, -10.1)" width="37.7" xlink:href="#morphshape2"/>
    <use ffdec:characterId="487" height="14.95" transform="matrix(1.0, 0.0, 0.0, 1.0, -1.6, -3.35)" width="25.7" xlink:href="#morphshape3"/>
    <use ffdec:characterId="488" height="14.75" transform="matrix(1.0, 0.0, 0.0, 1.0, -1.45, 0.1)" width="12.45" xlink:href="#morphshape4"/>
    <use ffdec:characterId="489" height="11.1" transform="matrix(1.0, 0.0, 0.0, 1.0, -23.2, -5.75)" width="21.9" xlink:href="#morphshape5"/>
    <use ffdec:characterId="490" height="29.05" transform="matrix(1.0, 0.0, 0.0, 1.0, -27.6, -27.15)" width="28.55" xlink:href="#morphshape6"/>
    <use ffdec:characterId="491" height="22.9" transform="matrix(1.0, 0.0, 0.0, 1.0, -8.2, -0.8)" width="15.25" xlink:href="#morphshape7"/>
    <use ffdec:characterId="492" height="22.4" transform="matrix(1.0, 0.0, 0.0, 1.0, -31.95, -2.05)" width="34.55" xlink:href="#morphshape8"/>
  </g>
  <defs>
    <g id="shape0" transform="matrix(1.0, 0.0, 0.0, 1.0, 42.0, 40.1)">
      <path d="M39.55 -8.9 L19.8 10.35 24.45 37.6 0.0 24.75 -24.4 37.6 -19.75 10.35 -39.5 -8.9 -12.2 -12.85 0.0 -37.6 12.2 -12.85 39.55 -8.9 Z" fill="none" stroke="#ffffff" stroke-linecap="round" stroke-linejoin="round" stroke-width="5.0"/>
      <path d="M12.2 -12.85 L39.55 -8.9 19.8 10.35 24.45 37.6 0.0 24.75 -24.4 37.6 -19.75 10.35 -39.5 -8.9 -12.2 -12.85 0.0 -37.6 12.2 -12.85" fill="url(#gradient0)" fill-rule="evenodd" stroke="none"/>
    </g>
    <linearGradient gradientTransform="matrix(0.0482, 0.0, 0.0, 0.0459, 0.0, 0.0)" gradientUnits="userSpaceOnUse" id="gradient0" spreadMethod="pad" x1="-819.2" x2="819.2">
      <stop offset="0.0" stop-color="#ff6600"/>
      <stop offset="1.0" stop-color="#ffcc00"/>
    </linearGradient>
    <g id="morphshape0" transform="matrix(1.0, 0.0, 0.0, 1.0, 1.65, 12.45)">
      <path d="M8.4 -9.0 Q8.35 -8.35 8.6 -7.65 8.75 -7.45 9.0 -7.35 10.4 -6.05 12.15 -6.1 12.85 -6.8 13.3 -7.6 13.85 -9.35 12.55 -10.8 L10.55 -11.05 9.6 -10.75 Q8.65 -10.05 8.45 -9.0" fill="#ffffff" fill-rule="evenodd" stroke="none"/>
      <path d="M8.5 -9.0 Q8.7 -10.05 9.65 -10.75 L10.6 -11.05 12.6 -10.8 Q13.9 -9.35 13.35 -7.6 12.9 -6.8 12.2 -6.1 10.45 -6.05 9.05 -7.35 8.8 -7.45 8.65 -7.65 8.4 -8.35 8.45 -9.0 8.65 -10.05 9.6 -10.75 L10.55 -11.05 12.55 -10.8 Q13.85 -9.35 13.3 -7.6 12.85 -6.8 12.15 -6.1 10.4 -6.05 9.0 -7.35 8.75 -7.45 8.6 -7.65 8.35 -8.35 8.4 -9.0" fill="none" stroke="#000000" stroke-linecap="round" stroke-linejoin="round" stroke-width="1.0"/>
    </g>
    <g id="morphshape1" transform="matrix(1.0, 0.0, 0.0, 1.0, 8.3, 25.1)">
      <path d="M0.2 -19.15 Q-2.25 -15.7 0.45 -12.2 L0.55 -12.0 1.0 -11.95 2.75 -12.0 Q3.8 -12.5 4.4 -13.25 L4.6 -13.55 4.9 -13.75 4.9 -14.05 Q6.65 -17.05 5.15 -19.05 L4.55 -20.0 Q4.65 -22.15 0.85 -20.0 L0.25 -19.2" fill="#ffffff" fill-rule="evenodd" stroke="none"/>
      <path d="M0.3 -19.25 L0.9 -20.05 Q4.7 -22.2 4.6 -20.05 L5.2 -19.1 Q6.7 -17.1 4.95 -14.1 L4.95 -13.8 4.65 -13.6 4.45 -13.3 Q3.85 -12.55 2.8 -12.05 L1.05 -12.0 0.6 -12.05 0.5 -12.25 Q-2.2 -15.75 0.25 -19.2 L0.85 -20.0 Q4.65 -22.15 4.55 -20.0 L5.15 -19.05 Q6.65 -17.05 4.9 -14.05 L4.9 -13.75 4.6 -13.55 4.4 -13.25 Q3.8 -12.5 2.75 -12.0 L1.0 -11.95 0.55 -12.0 0.45 -12.2 Q-2.25 -15.7 0.2 -19.15" fill="none" stroke="#000000" stroke-linecap="round" stroke-linejoin="round" stroke-width="1.0"/>
    </g>
    <g id="morphshape2" transform="matrix(1.0, 0.0, 0.0, 1.0, 3.8, 10.1)">
      <path d="M21.0 -5.1 L21.7 -4.0 Q22.15 -2.4 23.9 -3.45 26.5 -3.95 27.05 -5.25 27.95 -6.2 27.15 -7.15 26.8 -8.75 25.7 -8.45 L22.65 -8.1 Q20.1 -7.7 21.0 -5.1" fill="#ffffff" fill-rule="evenodd" stroke="none"/>
      <path d="M21.0 -5.1 Q20.1 -7.7 22.65 -8.1 L25.7 -8.45 Q26.8 -8.75 27.15 -7.15 27.95 -6.2 27.05 -5.25 26.5 -3.95 23.9 -3.45 22.15 -2.4 21.7 -4.0 L21.0 -5.1 Q20.1 -7.7 22.65 -8.1 L25.7 -8.45 Q26.8 -8.75 27.15 -7.15 27.95 -6.2 27.05 -5.25 26.5 -3.95 23.9 -3.45 22.15 -2.4 21.7 -4.0 L21.0 -5.1 Z" fill="none" stroke="#000000" stroke-linecap="round" stroke-linejoin="round" stroke-width="1.0"/>
    </g>
    <g id="morphshape3" transform="matrix(1.0, 0.0, 0.0, 1.0, 1.6, 3.35)">
      <path d="M14.6 7.2 L15.55 8.95 Q17.3 10.8 19.6 9.15 20.05 8.75 20.15 7.35 19.5 5.2 18.05 5.25 16.55 5.4 14.95 5.75 L14.6 7.2" fill="#ffffff" fill-rule="evenodd" stroke="none"/>
      <path d="M14.6 7.2 L14.95 5.75 Q16.55 5.4 18.05 5.25 19.5 5.2 20.15 7.35 20.05 8.75 19.6 9.15 17.3 10.8 15.55 8.95 L14.6 7.2 14.95 5.75 Q16.55 5.4 18.05 5.25 19.5 5.2 20.15 7.35 20.05 8.75 19.6 9.15 17.3 10.8 15.55 8.95 L14.6 7.2 Z" fill="none" stroke="#000000" stroke-linecap="round" stroke-linejoin="round" stroke-width="1.0"/>
    </g>
    <g id="morphshape4" transform="matrix(1.0, 0.0, 0.0, 1.0, 1.45, -0.1)">
      <path d="M5.95 12.15 L7.2 12.7 Q8.7 13.15 9.75 11.55 10.05 9.9 8.35 9.5 7.6 8.75 6.05 9.85 4.65 10.5 5.95 12.1" fill="#ffffff" fill-rule="evenodd" stroke="none"/>
      <path d="M5.95 12.05 Q4.65 10.45 6.05 9.8 7.6 8.7 8.35 9.45 10.05 9.85 9.75 11.5 8.7 13.1 7.2 12.65 L5.95 12.1 Q4.65 10.5 6.05 9.85 7.6 8.75 8.35 9.5 10.05 9.9 9.75 11.55 8.7 13.15 7.2 12.7 L5.95 12.15" fill="none" stroke="#000000" stroke-linecap="round" stroke-linejoin="round" stroke-width="1.0"/>
    </g>
    <g id="morphshape5" transform="matrix(1.0, 0.0, 0.0, 1.0, 23.2, 5.75)">
      <path d="M-19.6 -2.25 Q-19.25 0.45 -17.05 -0.8 L-15.45 -1.25 -15.15 -3.0 -15.6 -4.1 Q-15.9 -6.0 -19.55 -3.9 L-19.65 -2.25" fill="#ffffff" fill-rule="evenodd" stroke="none"/>
      <path d="M-19.7 -2.25 L-19.6 -3.9 Q-15.95 -6.0 -15.65 -4.1 L-15.2 -3.0 -15.5 -1.25 -17.1 -0.8 Q-19.3 0.45 -19.65 -2.25 L-19.55 -3.9 Q-15.9 -6.0 -15.6 -4.1 L-15.15 -3.0 -15.45 -1.25 -17.05 -0.8 Q-19.25 0.45 -19.6 -2.25" fill="none" stroke="#000000" stroke-linecap="round" stroke-linejoin="round" stroke-width="1.0"/>
    </g>
    <g id="morphshape6" transform="matrix(1.0, 0.0, 0.0, 1.0, 27.6, 27.15)">
      <path d="M-21.05 -20.7 Q-22.75 -19.1 -21.05 -17.9 -20.2 -17.8 -18.55 -18.5 L-18.3 -20.55 Q-19.5 -21.3 -21.1 -20.7" fill="#ffffff" fill-rule="evenodd" stroke="none"/>
      <path d="M-21.15 -20.7 Q-19.55 -21.3 -18.35 -20.55 L-18.6 -18.5 Q-20.25 -17.8 -21.1 -17.9 -22.8 -19.1 -21.1 -20.7 -19.5 -21.3 -18.3 -20.55 L-18.55 -18.5 Q-20.2 -17.8 -21.05 -17.9 -22.75 -19.1 -21.05 -20.7" fill="none" stroke="#000000" stroke-linecap="round" stroke-linejoin="round" stroke-width="1.0"/>
    </g>
    <g id="morphshape7" transform="matrix(1.0, 0.0, 0.0, 1.0, 8.2, 0.8)">
      <path d="M-7.4 18.45 Q-5.45 18.9 -2.9 19.15 -0.05 19.3 -1.05 13.55 L-4.95 13.3 -6.35 14.2 -7.4 18.35" fill="#ffffff" fill-rule="evenodd" stroke="none"/>
      <path d="M-7.4 18.25 L-6.35 14.1 -4.95 13.2 -1.05 13.45 Q-0.05 19.2 -2.9 19.05 -5.45 18.8 -7.4 18.35 L-6.35 14.2 -4.95 13.3 -1.05 13.55 Q-0.05 19.3 -2.9 19.15 -5.45 18.9 -7.4 18.45" fill="none" stroke="#000000" stroke-linecap="round" stroke-linejoin="round" stroke-width="1.0"/>
    </g>
    <g id="morphshape8" transform="matrix(1.0, 0.0, 0.0, 1.0, 31.95, 2.05)">
      <path d="M-25.35 13.65 Q-26.65 14.75 -25.35 15.85 -23.2 16.95 -21.05 15.75 -19.7 14.6 -20.45 12.95 -21.45 11.45 -23.25 12.15 -24.25 11.5 -25.3 13.65" fill="#ffffff" fill-rule="evenodd" stroke="none"/>
      <path d="M-25.25 13.65 Q-24.2 11.5 -23.2 12.15 -21.4 11.45 -20.4 12.95 -19.65 14.6 -21.0 15.75 -23.15 16.95 -25.3 15.85 -26.6 14.75 -25.3 13.65 -24.25 11.5 -23.25 12.15 -21.45 11.45 -20.45 12.95 -19.7 14.6 -21.05 15.75 -23.2 16.95 -25.35 15.85 -26.65 14.75 -25.35 13.65" fill="none" stroke="#000000" stroke-linecap="round" stroke-linejoin="round" stroke-width="1.0"/>
    </g>
  </defs>
</svg>
