<?xml version="1.0" encoding="UTF-8" standalone="no"?>
<svg xmlns:ffdec="https://www.free-decompiler.com/flash" xmlns:xlink="http://www.w3.org/1999/xlink" ffdec:objectType="frame" height="59.35px" width="65.85px" xmlns="http://www.w3.org/2000/svg">
  <g transform="matrix(1.0, 0.0, 0.0, 1.0, 31.95, 32.05)">
    <use ffdec:characterId="493" height="80.2" transform="matrix(-0.1746, -0.1382, 0.1382, -0.1746, -11.157, 22.1073)" width="84.05" xlink:href="#shape0"/>
    <use ffdec:characterId="493" height="80.2" transform="matrix(0.0927, -0.1615, 0.1615, 0.0927, -19.3693, -2.9304)" width="84.05" xlink:href="#shape1"/>
    <use ffdec:characterId="493" height="80.2" transform="matrix(0.0966, -0.1684, 0.1684, 0.0966, 0.8381, 15.3008)" width="84.05" xlink:href="#shape2"/>
    <use ffdec:characterId="493" height="80.2" transform="matrix(0.1714, 0.117, -0.117, 0.1714, 4.893, -27.3374)" width="84.05" xlink:href="#shape0"/>
    <use ffdec:characterId="484" height="14.25" transform="matrix(1.0, 0.0, 0.0, 1.0, -1.65, -12.45)" width="17.25" xlink:href="#morphshape0"/>
    <use ffdec:characterId="485" height="32.9" transform="matrix(1.0, 0.0, 0.0, 1.0, -8.3, -25.1)" width="14.85" xlink:href="#morphshape1"/>
    <use ffdec:characterId="486" height="16.1" transform="matrix(1.0, 0.0, 0.0, 1.0, -3.8, -10.1)" width="37.7" xlink:href="#morphshape2"/>
    <use ffdec:characterId="487" height="14.95" transform="matrix(1.0, 0.0, 0.0, 1.0, -1.6, -3.35)" width="25.7" xlink:href="#morphshape3"/>
    <use ffdec:characterId="488" height="14.75" transform="matrix(1.0, 0.0, 0.0, 1.0, -1.45, 0.1)" width="12.45" xlink:href="#morphshape4"/>
    <use ffdec:characterId="489" height="11.1" transform="matrix(1.0, 0.0, 0.0, 1.0, -23.2, -5.75)" width="21.9" xlink:href="#morphshape5"/>
    <use ffdec:characterId="490" height="29.05" transform="matrix(1.0, 0.0, 0.0, 1.0, -27.6, -27.15)" width="28.55" xlink:href="#morphshape6"/>
    <use ffdec:characterId="491" height="22.9" transform="matrix(1.0, 0.0, 0.0, 1.0, -8.2, -0.8)" width="15.25" xlink:href="#morphshape7"/>
    <use ffdec:characterId="492" height="22.4" transform="matrix(1.0, 0.0, 0.0, 1.0, -31.95, -2.05)" width="34.55" xlink:href="#morphshape8"/>
  </g>
  <defs>
    <g id="shape0" transform="matrix(1.0, 0.0, 0.0, 1.0, 42.0, 40.1)">
      <path d="M39.55 -8.9 L19.8 10.35 24.45 37.6 0.0 24.75 -24.4 37.6 -19.75 10.35 -39.5 -8.9 -12.2 -12.85 0.0 -37.6 12.2 -12.85 39.55 -8.9 Z" fill="none" stroke="#ffffff" stroke-linecap="round" stroke-linejoin="round" stroke-width="5.0"/>
      <path d="M12.2 -12.85 L39.55 -8.9 19.8 10.35 24.45 37.6 0.0 24.75 -24.4 37.6 -19.75 10.35 -39.5 -8.9 -12.2 -12.85 0.0 -37.6 12.2 -12.85" fill="url(#gradient0)" fill-rule="evenodd" stroke="none"/>
    </g>
    <linearGradient gradientTransform="matrix(0.0482, 0.0, 0.0, 0.0459, 0.0, 0.0)" gradientUnits="userSpaceOnUse" id="gradient0" spreadMethod="pad" x1="-819.2" x2="819.2">
      <stop offset="0.0" stop-color="#ff6600"/>
      <stop offset="1.0" stop-color="#ffcc00"/>
    </linearGradient>
    <g id="shape1" transform="matrix(1.0, 0.0, 0.0, 1.0, 42.0, 40.1)">
      <path d="M39.55 -8.9 L19.8 10.35 24.45 37.6 0.0 24.75 -24.4 37.6 -19.75 10.35 -39.5 -8.9 -12.2 -12.85 0.0 -37.6 12.2 -12.85 39.55 -8.9 Z" ffdec:has-small-stroke="true" ffdec:original-stroke-width="5.0" fill="none" stroke="#ffffff" stroke-linecap="round" stroke-linejoin="round" stroke-width="5.369751717603452"/>
      <path d="M12.2 -12.85 L39.55 -8.9 19.8 10.35 24.45 37.6 0.0 24.75 -24.4 37.6 -19.75 10.35 -39.5 -8.9 -12.2 -12.85 0.0 -37.6 12.2 -12.85" fill="url(#gradient1)" fill-rule="evenodd" stroke="none"/>
    </g>
    <linearGradient gradientTransform="matrix(0.0482, 0.0, 0.0, 0.0459, 0.0, 0.0)" gradientUnits="userSpaceOnUse" id="gradient1" spreadMethod="pad" x1="-819.2" x2="819.2">
      <stop offset="0.0" stop-color="#ff6600"/>
      <stop offset="1.0" stop-color="#ffcc00"/>
    </linearGradient>
    <g id="shape2" transform="matrix(1.0, 0.0, 0.0, 1.0, 42.0, 40.1)">
      <path d="M39.55 -8.9 L19.8 10.35 24.45 37.6 0.0 24.75 -24.4 37.6 -19.75 10.35 -39.5 -8.9 -12.2 -12.85 0.0 -37.6 12.2 -12.85 39.55 -8.9 Z" ffdec:has-small-stroke="true" ffdec:original-stroke-width="5.0" fill="none" stroke="#ffffff" stroke-linecap="round" stroke-linejoin="round" stroke-width="5.149931023628099"/>
      <path d="M12.2 -12.85 L39.55 -8.9 19.8 10.35 24.45 37.6 0.0 24.75 -24.4 37.6 -19.75 10.35 -39.5 -8.9 -12.2 -12.85 0.0 -37.6 12.2 -12.85" fill="url(#gradient2)" fill-rule="evenodd" stroke="none"/>
    </g>
    <linearGradient gradientTransform="matrix(0.0482, 0.0, 0.0, 0.0459, 0.0, 0.0)" gradientUnits="userSpaceOnUse" id="gradient2" spreadMethod="pad" x1="-819.2" x2="819.2">
      <stop offset="0.0" stop-color="#ff6600"/>
      <stop offset="1.0" stop-color="#ffcc00"/>
    </linearGradient>
    <g id="morphshape0" transform="matrix(1.0, 0.0, 0.0, 1.0, 1.65, 12.45)">
      <path d="M10.0 -9.7 Q9.95 -9.1 10.2 -8.5 10.3 -8.3 10.5 -8.2 11.7 -7.1 13.2 -7.15 13.75 -7.8 14.15 -8.5 14.65 -10.0 13.5 -11.25 L11.8 -11.45 10.95 -11.2 Q10.15 -10.6 9.95 -9.7" fill="#ffffff" fill-rule="evenodd" stroke="none"/>
      <path d="M9.9 -9.7 Q10.1 -10.6 10.9 -11.2 L11.75 -11.45 13.45 -11.25 Q14.6 -10.0 14.1 -8.5 13.7 -7.8 13.15 -7.15 11.65 -7.1 10.45 -8.2 10.25 -8.3 10.15 -8.5 9.9 -9.1 9.95 -9.7 10.15 -10.6 10.95 -11.2 L11.8 -11.45 13.5 -11.25 Q14.65 -10.0 14.15 -8.5 13.75 -7.8 13.2 -7.15 11.7 -7.1 10.5 -8.2 10.3 -8.3 10.2 -8.5 9.95 -9.1 10.0 -9.7" fill="none" stroke="#000000" stroke-linecap="round" stroke-linejoin="round" stroke-width="1.0"/>
    </g>
    <g id="morphshape1" transform="matrix(1.0, 0.0, 0.0, 1.0, 8.3, 25.1)">
      <path d="M1.05 -21.0 Q-1.1 -18.05 1.2 -15.0 L1.3 -14.8 1.7 -14.75 3.2 -14.8 Q4.1 -15.25 4.6 -15.9 L4.8 -16.15 5.05 -16.35 5.05 -16.6 Q6.55 -19.2 5.25 -20.9 L4.75 -21.7 Q4.85 -23.55 1.6 -21.7 L1.1 -21.0" fill="#ffffff" fill-rule="evenodd" stroke="none"/>
      <path d="M1.15 -21.0 L1.65 -21.7 Q4.9 -23.55 4.8 -21.7 L5.3 -20.9 Q6.6 -19.2 5.1 -16.6 L5.1 -16.35 4.85 -16.15 4.65 -15.9 Q4.15 -15.25 3.25 -14.8 L1.75 -14.75 1.35 -14.8 1.25 -15.0 Q-1.05 -18.05 1.1 -21.0 L1.6 -21.7 Q4.85 -23.55 4.75 -21.7 L5.25 -20.9 Q6.55 -19.2 5.05 -16.6 L5.05 -16.35 4.8 -16.15 4.6 -15.9 Q4.1 -15.25 3.2 -14.8 L1.7 -14.75 1.3 -14.8 1.2 -15.0 Q-1.1 -18.05 1.05 -21.0" fill="none" stroke="#000000" stroke-linecap="round" stroke-linejoin="round" stroke-width="1.0"/>
    </g>
    <g id="morphshape2" transform="matrix(1.0, 0.0, 0.0, 1.0, 3.8, 10.1)">
      <path d="M24.6 -5.85 L25.2 -4.9 Q25.6 -3.5 27.1 -4.4 29.3 -4.85 29.8 -6.0 30.55 -6.85 29.85 -7.7 29.55 -9.1 28.6 -8.85 L26.0 -8.55 Q23.8 -8.2 24.55 -5.95" fill="#ffffff" fill-rule="evenodd" stroke="none"/>
      <path d="M24.5 -6.05 Q23.75 -8.3 25.95 -8.65 L28.55 -8.95 Q29.5 -9.2 29.8 -7.8 30.5 -6.95 29.75 -6.1 29.25 -4.95 27.05 -4.5 25.55 -3.6 25.15 -5.0 L24.55 -5.95 Q23.8 -8.2 26.0 -8.55 L28.6 -8.85 Q29.55 -9.1 29.85 -7.7 30.55 -6.85 29.8 -6.0 29.3 -4.85 27.1 -4.4 25.6 -3.5 25.2 -4.9 L24.6 -5.85" fill="none" stroke="#000000" stroke-linecap="round" stroke-linejoin="round" stroke-width="1.0"/>
    </g>
    <g id="morphshape3" transform="matrix(1.0, 0.0, 0.0, 1.0, 1.6, 3.35)">
      <path d="M16.75 8.2 L17.55 9.7 Q19.05 11.3 21.05 9.9 21.45 9.55 21.55 8.35 21.0 6.45 19.75 6.5 18.45 6.65 17.1 6.9 L16.8 8.15" fill="#ffffff" fill-rule="evenodd" stroke="none"/>
      <path d="M16.85 8.1 L17.15 6.85 Q18.5 6.6 19.8 6.45 21.05 6.4 21.6 8.3 21.5 9.5 21.1 9.85 19.1 11.25 17.6 9.65 L16.8 8.15 17.1 6.9 Q18.45 6.65 19.75 6.5 21.0 6.45 21.55 8.35 21.45 9.55 21.05 9.9 19.05 11.3 17.55 9.7 L16.75 8.2" fill="none" stroke="#000000" stroke-linecap="round" stroke-linejoin="round" stroke-width="1.0"/>
    </g>
    <g id="morphshape4" transform="matrix(1.0, 0.0, 0.0, 1.0, 1.45, -0.1)">
      <path d="M6.8 12.75 L7.85 13.25 Q9.15 13.65 10.1 12.25 10.35 10.85 8.9 10.5 8.2 9.85 6.85 10.8 5.65 11.4 6.8 12.8" fill="#ffffff" fill-rule="evenodd" stroke="none"/>
      <path d="M6.8 12.85 Q5.65 11.45 6.85 10.85 8.2 9.9 8.9 10.55 10.35 10.9 10.1 12.3 9.15 13.7 7.85 13.3 L6.8 12.8 Q5.65 11.4 6.85 10.8 8.2 9.85 8.9 10.5 10.35 10.85 10.1 12.25 9.15 13.65 7.85 13.25 L6.8 12.75" fill="none" stroke="#000000" stroke-linecap="round" stroke-linejoin="round" stroke-width="1.0"/>
    </g>
    <g id="morphshape5" transform="matrix(1.0, 0.0, 0.0, 1.0, 23.2, 5.75)">
      <path d="M-20.9 -2.75 Q-20.6 -0.4 -18.7 -1.45 L-17.3 -1.85 -17.05 -3.35 -17.45 -4.3 Q-17.7 -5.95 -20.85 -4.15 L-20.95 -2.75" fill="#ffffff" fill-rule="evenodd" stroke="none"/>
      <path d="M-21.0 -2.75 L-20.9 -4.15 Q-17.75 -5.95 -17.5 -4.3 L-17.1 -3.35 -17.35 -1.85 -18.75 -1.45 Q-20.65 -0.4 -20.95 -2.75 L-20.85 -4.15 Q-17.7 -5.95 -17.45 -4.3 L-17.05 -3.35 -17.3 -1.85 -18.7 -1.45 Q-20.6 -0.4 -20.9 -2.75" fill="none" stroke="#000000" stroke-linecap="round" stroke-linejoin="round" stroke-width="1.0"/>
    </g>
    <g id="morphshape6" transform="matrix(1.0, 0.0, 0.0, 1.0, 27.6, 27.15)">
      <path d="M-23.5 -23.1 Q-24.95 -21.7 -23.5 -20.7 -22.75 -20.6 -21.35 -21.25 L-21.1 -23.0 Q-22.2 -23.45 -23.5 -23.1" fill="#ffffff" fill-rule="evenodd" stroke="none"/>
      <path d="M-23.5 -23.1 Q-22.2 -23.45 -21.1 -23.0 L-21.35 -21.25 Q-22.75 -20.6 -23.5 -20.7 -24.95 -21.7 -23.5 -23.1 -22.2 -23.45 -21.1 -23.0 L-21.35 -21.25 Q-22.75 -20.6 -23.5 -20.7 -24.95 -21.7 -23.5 -23.1 Z" fill="none" stroke="#000000" stroke-linecap="round" stroke-linejoin="round" stroke-width="1.0"/>
    </g>
    <g id="morphshape7" transform="matrix(1.0, 0.0, 0.0, 1.0, 8.2, 0.8)">
      <path d="M-7.55 19.4 Q-5.75 19.8 -3.65 20.05 -1.2 20.2 -2.1 15.25 L-5.45 15.05 -6.65 15.85 -7.55 19.45" fill="#ffffff" fill-rule="evenodd" stroke="none"/>
      <path d="M-7.55 19.5 L-6.65 15.9 -5.45 15.1 -2.1 15.3 Q-1.2 20.25 -3.65 20.1 -5.75 19.85 -7.55 19.45 L-6.65 15.85 -5.45 15.05 -2.1 15.25 Q-1.2 20.2 -3.65 20.05 -5.75 19.8 -7.55 19.4" fill="none" stroke="#000000" stroke-linecap="round" stroke-linejoin="round" stroke-width="1.0"/>
    </g>
    <g id="morphshape8" transform="matrix(1.0, 0.0, 0.0, 1.0, 31.95, 2.05)">
      <path d="M-27.75 15.3 Q-28.85 16.25 -27.75 17.2 -25.9 17.8 -24.05 17.15 -22.9 16.15 -23.55 14.75 -24.4 13.45 -25.95 14.05 -26.85 13.5 -27.75 15.35" fill="#ffffff" fill-rule="evenodd" stroke="none"/>
      <path d="M-27.75 15.4 Q-26.85 13.55 -25.95 14.1 -24.4 13.5 -23.55 14.8 -22.9 16.2 -24.05 17.2 -25.9 17.85 -27.75 17.25 -28.85 16.3 -27.75 15.35 -26.85 13.5 -25.95 14.05 -24.4 13.45 -23.55 14.75 -22.9 16.15 -24.05 17.15 -25.9 17.8 -27.75 17.2 -28.85 16.25 -27.75 15.3" fill="none" stroke="#000000" stroke-linecap="round" stroke-linejoin="round" stroke-width="1.0"/>
    </g>
  </defs>
</svg>
