<?xml version="1.0" encoding="UTF-8" standalone="no"?>
<svg xmlns:ffdec="https://www.free-decompiler.com/flash" xmlns:xlink="http://www.w3.org/1999/xlink" ffdec:objectType="frame" height="59.35px" width="65.85px" xmlns="http://www.w3.org/2000/svg">
  <g transform="matrix(1.0, 0.0, 0.0, 1.0, 31.95, 32.05)">
    <use ffdec:characterId="493" height="80.2" transform="matrix(-0.1895, -0.0837, 0.0837, -0.1895, -9.5953, 22.1634)" width="84.05" xlink:href="#shape0"/>
    <use ffdec:characterId="493" height="80.2" transform="matrix(0.0353, -0.1621, 0.1621, 0.0353, -19.7855, -1.9579)" width="84.05" xlink:href="#shape1"/>
    <use ffdec:characterId="493" height="80.2" transform="matrix(0.0375, -0.1719, 0.1719, 0.0375, 4.2851, 18.916)" width="84.05" xlink:href="#shape2"/>
    <use ffdec:characterId="493" height="80.2" transform="matrix(0.1221, 0.1514, -0.1514, 0.1221, 9.3466, -28.305)" width="84.05" xlink:href="#shape3"/>
    <use ffdec:characterId="484" height="14.25" transform="matrix(1.0, 0.0, 0.0, 1.0, -1.65, -12.45)" width="17.25" xlink:href="#morphshape0"/>
    <use ffdec:characterId="485" height="32.9" transform="matrix(1.0, 0.0, 0.0, 1.0, -8.3, -25.1)" width="14.85" xlink:href="#morphshape1"/>
    <use ffdec:characterId="486" height="16.1" transform="matrix(1.0, 0.0, 0.0, 1.0, -3.8, -10.1)" width="37.7" xlink:href="#morphshape2"/>
    <use ffdec:characterId="487" height="14.95" transform="matrix(1.0, 0.0, 0.0, 1.0, -1.6, -3.35)" width="25.7" xlink:href="#morphshape3"/>
    <use ffdec:characterId="488" height="14.75" transform="matrix(1.0, 0.0, 0.0, 1.0, -1.45, 0.1)" width="12.45" xlink:href="#morphshape4"/>
    <use ffdec:characterId="489" height="11.1" transform="matrix(1.0, 0.0, 0.0, 1.0, -23.2, -5.75)" width="21.9" xlink:href="#morphshape5"/>
    <use ffdec:characterId="490" height="29.05" transform="matrix(1.0, 0.0, 0.0, 1.0, -27.6, -27.15)" width="28.55" xlink:href="#morphshape6"/>
    <use ffdec:characterId="491" height="22.9" transform="matrix(1.0, 0.0, 0.0, 1.0, -8.2, -0.8)" width="15.25" xlink:href="#morphshape7"/>
    <use ffdec:characterId="492" height="22.4" transform="matrix(1.0, 0.0, 0.0, 1.0, -31.95, -2.05)" width="34.55" xlink:href="#morphshape8"/>
  </g>
  <defs>
    <g id="shape0" transform="matrix(1.0, 0.0, 0.0, 1.0, 42.0, 40.1)">
      <path d="M39.55 -8.9 L19.8 10.35 24.45 37.6 0.0 24.75 -24.4 37.6 -19.75 10.35 -39.5 -8.9 -12.2 -12.85 0.0 -37.6 12.2 -12.85 39.55 -8.9 Z" fill="none" stroke="#ffffff" stroke-linecap="round" stroke-linejoin="round" stroke-width="5.0"/>
      <path d="M12.2 -12.85 L39.55 -8.9 19.8 10.35 24.45 37.6 0.0 24.75 -24.4 37.6 -19.75 10.35 -39.5 -8.9 -12.2 -12.85 0.0 -37.6 12.2 -12.85" fill="url(#gradient0)" fill-rule="evenodd" stroke="none"/>
    </g>
    <linearGradient gradientTransform="matrix(0.0482, 0.0, 0.0, 0.0459, 0.0, 0.0)" gradientUnits="userSpaceOnUse" id="gradient0" spreadMethod="pad" x1="-819.2" x2="819.2">
      <stop offset="0.0" stop-color="#ff6600"/>
      <stop offset="1.0" stop-color="#ffcc00"/>
    </linearGradient>
    <g id="shape1" transform="matrix(1.0, 0.0, 0.0, 1.0, 42.0, 40.1)">
      <path d="M39.55 -8.9 L19.8 10.35 24.45 37.6 0.0 24.75 -24.4 37.6 -19.75 10.35 -39.5 -8.9 -12.2 -12.85 0.0 -37.6 12.2 -12.85 39.55 -8.9 Z" ffdec:has-small-stroke="true" ffdec:original-stroke-width="5.0" fill="none" stroke="#ffffff" stroke-linecap="round" stroke-linejoin="round" stroke-width="6.026582795384752"/>
      <path d="M12.2 -12.85 L39.55 -8.9 19.8 10.35 24.45 37.6 0.0 24.75 -24.4 37.6 -19.75 10.35 -39.5 -8.9 -12.2 -12.85 0.0 -37.6 12.2 -12.85" fill="url(#gradient1)" fill-rule="evenodd" stroke="none"/>
    </g>
    <linearGradient gradientTransform="matrix(0.0482, 0.0, 0.0, 0.0459, 0.0, 0.0)" gradientUnits="userSpaceOnUse" id="gradient1" spreadMethod="pad" x1="-819.2" x2="819.2">
      <stop offset="0.0" stop-color="#ff6600"/>
      <stop offset="1.0" stop-color="#ffcc00"/>
    </linearGradient>
    <g id="shape2" transform="matrix(1.0, 0.0, 0.0, 1.0, 42.0, 40.1)">
      <path d="M39.55 -8.9 L19.8 10.35 24.45 37.6 0.0 24.75 -24.4 37.6 -19.75 10.35 -39.5 -8.9 -12.2 -12.85 0.0 -37.6 12.2 -12.85 39.55 -8.9 Z" ffdec:has-small-stroke="true" ffdec:original-stroke-width="5.0" fill="none" stroke="#ffffff" stroke-linecap="round" stroke-linejoin="round" stroke-width="5.685210318311754"/>
      <path d="M12.2 -12.85 L39.55 -8.9 19.8 10.35 24.45 37.6 0.0 24.75 -24.4 37.6 -19.75 10.35 -39.5 -8.9 -12.2 -12.85 0.0 -37.6 12.2 -12.85" fill="url(#gradient2)" fill-rule="evenodd" stroke="none"/>
    </g>
    <linearGradient gradientTransform="matrix(0.0482, 0.0, 0.0, 0.0459, 0.0, 0.0)" gradientUnits="userSpaceOnUse" id="gradient2" spreadMethod="pad" x1="-819.2" x2="819.2">
      <stop offset="0.0" stop-color="#ff6600"/>
      <stop offset="1.0" stop-color="#ffcc00"/>
    </linearGradient>
    <g id="shape3" transform="matrix(1.0, 0.0, 0.0, 1.0, 42.0, 40.1)">
      <path d="M39.55 -8.9 L19.8 10.35 24.45 37.6 0.0 24.75 -24.4 37.6 -19.75 10.35 -39.5 -8.9 -12.2 -12.85 0.0 -37.6 12.2 -12.85 39.55 -8.9 Z" ffdec:has-small-stroke="true" ffdec:original-stroke-width="5.0" fill="none" stroke="#ffffff" stroke-linecap="round" stroke-linejoin="round" stroke-width="5.141230923676744"/>
      <path d="M12.2 -12.85 L39.55 -8.9 19.8 10.35 24.45 37.6 0.0 24.75 -24.4 37.6 -19.75 10.35 -39.5 -8.9 -12.2 -12.85 0.0 -37.6 12.2 -12.85" fill="url(#gradient3)" fill-rule="evenodd" stroke="none"/>
    </g>
    <linearGradient gradientTransform="matrix(0.0482, 0.0, 0.0, 0.0459, 0.0, 0.0)" gradientUnits="userSpaceOnUse" id="gradient3" spreadMethod="pad" x1="-819.2" x2="819.2">
      <stop offset="0.0" stop-color="#ff6600"/>
      <stop offset="1.0" stop-color="#ffcc00"/>
    </linearGradient>
    <g id="morphshape0" transform="matrix(1.0, 0.0, 0.0, 1.0, 1.65, 12.45)">
      <path d="M11.0 -10.15 Q10.95 -9.65 11.15 -9.1 11.2 -8.95 11.4 -8.9 12.45 -7.9 13.8 -7.95 14.25 -8.55 14.6 -9.15 15.05 -10.5 14.05 -11.6 L12.55 -11.75 11.8 -11.5 Q11.1 -10.95 10.95 -10.15" fill="#ffffff" fill-rule="evenodd" stroke="none"/>
      <path d="M10.9 -10.15 Q11.05 -10.95 11.75 -11.5 L12.5 -11.75 14.0 -11.6 Q15.0 -10.5 14.55 -9.15 14.2 -8.55 13.75 -7.95 12.4 -7.9 11.35 -8.9 11.15 -8.95 11.1 -9.1 10.9 -9.65 10.95 -10.15 11.1 -10.95 11.8 -11.5 L12.55 -11.75 14.05 -11.6 Q15.05 -10.5 14.6 -9.15 14.25 -8.55 13.8 -7.95 12.45 -7.9 11.4 -8.9 11.2 -8.95 11.15 -9.1 10.95 -9.65 11.0 -10.15" fill="none" stroke="#000000" stroke-linecap="round" stroke-linejoin="round" stroke-width="1.0"/>
    </g>
    <g id="morphshape1" transform="matrix(1.0, 0.0, 0.0, 1.0, 8.3, 25.1)">
      <path d="M1.75 -22.3 Q-0.15 -19.7 1.9 -17.0 L1.95 -16.85 2.3 -16.8 3.65 -16.85 Q4.45 -17.25 4.9 -17.8 L5.05 -18.0 5.25 -18.15 5.25 -18.4 Q6.6 -20.7 5.45 -22.2 L5.0 -22.9 Q5.1 -24.5 2.2 -22.9 L1.75 -22.3" fill="#ffffff" fill-rule="evenodd" stroke="none"/>
      <path d="M1.75 -22.3 L2.2 -22.9 Q5.1 -24.5 5.0 -22.9 L5.45 -22.2 Q6.6 -20.7 5.25 -18.4 L5.25 -18.15 5.05 -18.0 4.9 -17.8 Q4.45 -17.25 3.65 -16.85 L2.3 -16.8 1.95 -16.85 1.9 -17.0 Q-0.15 -19.7 1.75 -22.3 L2.2 -22.9 Q5.1 -24.5 5.0 -22.9 L5.45 -22.2 Q6.6 -20.7 5.25 -18.4 L5.25 -18.15 5.05 -18.0 4.9 -17.8 Q4.45 -17.25 3.65 -16.85 L2.3 -16.8 1.95 -16.85 1.9 -17.0 Q-0.15 -19.7 1.75 -22.3 Z" fill="none" stroke="#000000" stroke-linecap="round" stroke-linejoin="round" stroke-width="1.0"/>
    </g>
    <g id="morphshape2" transform="matrix(1.0, 0.0, 0.0, 1.0, 3.8, 10.1)">
      <path d="M27.05 -6.6 L27.6 -5.75 Q27.95 -4.5 29.3 -5.3 31.25 -5.7 31.7 -6.7 32.35 -7.45 31.75 -8.2 31.45 -9.45 30.6 -9.25 L28.3 -8.95 Q26.35 -8.65 27.0 -6.65" fill="#ffffff" fill-rule="evenodd" stroke="none"/>
      <path d="M26.95 -6.7 Q26.3 -8.7 28.25 -9.0 L30.55 -9.3 Q31.4 -9.5 31.7 -8.25 32.3 -7.5 31.65 -6.75 31.2 -5.75 29.25 -5.35 27.9 -4.55 27.55 -5.8 L27.0 -6.65 Q26.35 -8.65 28.3 -8.95 L30.6 -9.25 Q31.45 -9.45 31.75 -8.2 32.35 -7.45 31.7 -6.7 31.25 -5.7 29.3 -5.3 27.95 -4.5 27.6 -5.75 L27.05 -6.6" fill="none" stroke="#000000" stroke-linecap="round" stroke-linejoin="round" stroke-width="1.0"/>
    </g>
    <g id="morphshape3" transform="matrix(1.0, 0.0, 0.0, 1.0, 1.6, 3.35)">
      <path d="M18.4 8.75 L19.1 10.1 Q20.45 11.5 22.2 10.25 22.55 9.9 22.65 8.85 22.15 7.2 21.05 7.25 19.9 7.45 18.7 7.65 L18.45 8.75" fill="#ffffff" fill-rule="evenodd" stroke="none"/>
      <path d="M18.5 8.75 L18.75 7.65 Q19.95 7.45 21.1 7.25 22.2 7.2 22.7 8.85 22.6 9.9 22.25 10.25 20.5 11.5 19.15 10.1 L18.45 8.75 18.7 7.65 Q19.9 7.45 21.05 7.25 22.15 7.2 22.65 8.85 22.55 9.9 22.2 10.25 20.45 11.5 19.1 10.1 L18.4 8.75" fill="none" stroke="#000000" stroke-linecap="round" stroke-linejoin="round" stroke-width="1.0"/>
    </g>
    <g id="morphshape4" transform="matrix(1.0, 0.0, 0.0, 1.0, 1.45, -0.1)">
      <path d="M7.4 13.45 L8.35 13.9 Q9.45 14.25 10.3 13.0 10.55 11.75 9.25 11.4 8.65 10.85 7.45 11.7 6.4 12.2 7.4 13.45" fill="#ffffff" fill-rule="evenodd" stroke="none"/>
      <path d="M7.4 13.45 Q6.4 12.2 7.45 11.7 8.65 10.85 9.25 11.4 10.55 11.75 10.3 13.0 9.45 14.25 8.35 13.9 L7.4 13.45 Q6.4 12.2 7.45 11.7 8.65 10.85 9.25 11.4 10.55 11.75 10.3 13.0 9.45 14.25 8.35 13.9 L7.4 13.45 Z" fill="none" stroke="#000000" stroke-linecap="round" stroke-linejoin="round" stroke-width="1.0"/>
    </g>
    <g id="morphshape5" transform="matrix(1.0, 0.0, 0.0, 1.0, 23.2, 5.75)">
      <path d="M-22.05 -3.0 Q-21.75 -0.95 -20.1 -1.9 L-18.85 -2.25 -18.6 -3.6 -18.95 -4.45 Q-19.15 -5.9 -21.95 -4.3 L-22.0 -3.05" fill="#ffffff" fill-rule="evenodd" stroke="none"/>
      <path d="M-21.95 -3.1 L-21.9 -4.35 Q-19.1 -5.95 -18.9 -4.5 L-18.55 -3.65 -18.8 -2.3 -20.05 -1.95 Q-21.7 -1.0 -22.0 -3.05 L-21.95 -4.3 Q-19.15 -5.9 -18.95 -4.45 L-18.6 -3.6 -18.85 -2.25 -20.1 -1.9 Q-21.75 -0.95 -22.05 -3.0" fill="none" stroke="#000000" stroke-linecap="round" stroke-linejoin="round" stroke-width="1.0"/>
    </g>
    <g id="morphshape6" transform="matrix(1.0, 0.0, 0.0, 1.0, 27.6, 27.15)">
      <path d="M-25.15 -24.8 Q-26.45 -23.55 -25.15 -22.65 -24.5 -22.55 -23.25 -23.1 L-23.05 -24.65 Q-24.05 -24.9 -25.15 -24.8" fill="#ffffff" fill-rule="evenodd" stroke="none"/>
      <path d="M-25.15 -24.8 Q-24.05 -24.9 -23.05 -24.65 L-23.25 -23.1 Q-24.5 -22.55 -25.15 -22.65 -26.45 -23.55 -25.15 -24.8 -24.05 -24.9 -23.05 -24.65 L-23.25 -23.1 Q-24.5 -22.55 -25.15 -22.65 -26.45 -23.55 -25.15 -24.8 Z" fill="none" stroke="#000000" stroke-linecap="round" stroke-linejoin="round" stroke-width="1.0"/>
    </g>
    <g id="morphshape7" transform="matrix(1.0, 0.0, 0.0, 1.0, 8.2, 0.8)">
      <path d="M-7.65 20.3 Q-6.0 20.6 -4.25 20.85 -2.05 20.95 -2.85 16.6 L-5.8 16.45 -6.85 17.15 -7.65 20.35" fill="#ffffff" fill-rule="evenodd" stroke="none"/>
      <path d="M-7.65 20.4 L-6.85 17.2 -5.8 16.5 -2.85 16.65 Q-2.05 21.0 -4.25 20.9 -6.0 20.65 -7.65 20.35 L-6.85 17.15 -5.8 16.45 -2.85 16.6 Q-2.05 20.95 -4.25 20.85 -6.0 20.6 -7.65 20.3" fill="none" stroke="#000000" stroke-linecap="round" stroke-linejoin="round" stroke-width="1.0"/>
    </g>
    <g id="morphshape8" transform="matrix(1.0, 0.0, 0.0, 1.0, 31.95, 2.05)">
      <path d="M-29.45 16.6 Q-30.45 17.45 -29.45 18.3 -27.85 18.55 -26.25 18.25 -25.25 17.35 -25.8 16.1 -26.55 14.95 -27.9 15.5 -28.7 15.0 -29.5 16.6" fill="#ffffff" fill-rule="evenodd" stroke="none"/>
      <path d="M-29.55 16.6 Q-28.75 15.0 -27.95 15.5 -26.6 14.95 -25.85 16.1 -25.3 17.35 -26.3 18.25 -27.9 18.55 -29.5 18.3 -30.5 17.45 -29.5 16.6 -28.7 15.0 -27.9 15.5 -26.55 14.95 -25.8 16.1 -25.25 17.35 -26.25 18.25 -27.85 18.55 -29.45 18.3 -30.45 17.45 -29.45 16.6" fill="none" stroke="#000000" stroke-linecap="round" stroke-linejoin="round" stroke-width="1.0"/>
    </g>
  </defs>
</svg>
