<?xml version="1.0" encoding="UTF-8" standalone="no"?>
<svg xmlns:ffdec="https://www.free-decompiler.com/flash" xmlns:xlink="http://www.w3.org/1999/xlink" ffdec:objectType="frame" height="59.35px" width="65.85px" xmlns="http://www.w3.org/2000/svg">
  <g transform="matrix(1.0, 0.0, 0.0, 1.0, 31.95, 32.05)">
    <use ffdec:characterId="476" height="38.65" transform="matrix(1.0, 0.0, 0.0, 1.0, -19.15, -20.15)" width="38.7" xlink:href="#morphshape0"/>
    <use ffdec:characterId="477" height="8.15" transform="matrix(1.0, 0.0, 0.0, 1.0, -1.1, -11.0)" width="6.3" xlink:href="#morphshape1"/>
    <use ffdec:characterId="478" height="17.3" transform="matrix(1.0, 0.0, 0.0, 1.0, -1.7, -13.2)" width="19.05" xlink:href="#morphshape2"/>
    <use ffdec:characterId="479" height="8.05" transform="matrix(1.0, 0.0, 0.0, 1.0, -0.75, -2.55)" width="12.85" xlink:href="#morphshape3"/>
    <use ffdec:characterId="480" height="22.9" transform="matrix(1.0, 0.0, 0.0, 1.0, -3.95, -3.8)" width="14.85" xlink:href="#morphshape4"/>
    <use ffdec:characterId="481" height="19.45" transform="matrix(1.0, 0.0, 0.0, 1.0, -19.15, -14.85)" width="25.0" xlink:href="#morphshape5"/>
    <use ffdec:characterId="482" height="10.35" transform="matrix(1.0, 0.0, 0.0, 1.0, -10.0, -2.4)" width="13.6" xlink:href="#morphshape6"/>
  </g>
  <defs>
    <g id="morphshape0" transform="matrix(1.0, 0.0, 0.0, 1.0, 19.15, 20.15)">
      <path d="M-5.1 -1.1 Q-5.1 0.95 -3.65 2.4 -2.15 3.9 -0.1 3.9 1.95 3.9 3.4 2.4 4.9 0.95 4.9 -1.1 4.9 -3.15 3.4 -4.65 1.95 -6.1 -0.1 -6.1 -2.15 -6.1 -3.65 -4.65 -5.1 -3.15 -5.1 -1.1" fill="#d5eaff" fill-rule="evenodd" stroke="none"/>
      <path d="M-5.1 -1.1 Q-5.1 -3.15 -3.65 -4.65 -2.15 -6.1 -0.1 -6.1 1.95 -6.1 3.4 -4.65 4.9 -3.15 4.9 -1.1 4.9 0.95 3.4 2.4 1.95 3.9 -0.1 3.9 -2.15 3.9 -3.65 2.4 -5.1 0.95 -5.1 -1.1 Z" ffdec:has-small-stroke="true" ffdec:original-stroke-width="0.0" fill="none" stroke="#000000" stroke-linecap="round" stroke-linejoin="round" stroke-opacity="0.0" stroke-width="1.0"/>
    </g>
    <g id="morphshape1" transform="matrix(1.0, 0.0, 0.0, 1.0, 1.1, 11.0)">
      <path d="M-0.4 -5.2 Q0.5 -2.2 4.3 -4.1 5.5 -6.4 3.1 -7.3 0.7 -7.1 -0.4 -5.2" fill="#ffffff" fill-rule="evenodd" stroke="none"/>
      <path d="M-0.4 -5.2 Q0.7 -7.1 3.1 -7.3 5.5 -6.4 4.3 -4.1 0.5 -2.2 -0.4 -5.2 0.7 -7.1 3.1 -7.3 5.5 -6.4 4.3 -4.1 0.5 -2.2 -0.4 -5.2 Z" fill="none" stroke="#000000" stroke-linecap="round" stroke-linejoin="round" stroke-width="1.0"/>
    </g>
    <g id="morphshape2" transform="matrix(1.0, 0.0, 0.0, 1.0, 1.7, 13.2)">
      <path d="M-1.2 0.25 Q-1.2 1.05 -0.8 1.65 2.0 4.95 6.0 2.65 L6.6 1.65 7.1 0.75 7.1 0.25 6.9 -0.65 6.4 -1.65 6.0 -2.15 5.2 -2.45 0.0 -2.15 Q-1.2 -1.15 -1.2 0.25" fill="#ffffff" fill-rule="evenodd" stroke="none"/>
      <path d="M-1.2 0.25 Q-1.2 -1.15 0.0 -2.15 L5.2 -2.45 6.0 -2.15 6.4 -1.65 6.9 -0.65 7.1 0.25 7.1 0.75 6.6 1.65 6.0 2.65 Q2.0 4.95 -0.8 1.65 -1.2 1.05 -1.2 0.25 -1.2 -1.15 0.0 -2.15 L5.2 -2.45 6.0 -2.15 6.4 -1.65 6.9 -0.65 7.1 0.25 7.1 0.75 6.6 1.65 6.0 2.65 Q2.0 4.95 -0.8 1.65 -1.2 1.05 -1.2 0.25 Z" fill="none" stroke="#000000" stroke-linecap="round" stroke-linejoin="round" stroke-width="1.0"/>
    </g>
    <g id="morphshape3" transform="matrix(1.0, 0.0, 0.0, 1.0, 0.75, 2.55)">
      <path d="M-0.1 -0.75 Q-0.4 0.45 -0.1 1.65 2.2 3.55 4.5 1.65 5.0 0.75 4.9 -0.35 4.8 -1.15 4.0 -1.75 L1.3 -2.05 Q0.1 -1.95 -0.1 -0.75" fill="#ffffff" fill-rule="evenodd" stroke="none"/>
      <path d="M-0.1 -0.75 Q0.1 -1.95 1.3 -2.05 L4.0 -1.75 Q4.8 -1.15 4.9 -0.35 5.0 0.75 4.5 1.65 2.2 3.55 -0.1 1.65 -0.4 0.45 -0.1 -0.75 0.1 -1.95 1.3 -2.05 L4.0 -1.75 Q4.8 -1.15 4.9 -0.35 5.0 0.75 4.5 1.65 2.2 3.55 -0.1 1.65 -0.4 0.45 -0.1 -0.75 Z" fill="none" stroke="#000000" stroke-linecap="round" stroke-linejoin="round" stroke-width="1.0"/>
    </g>
    <g id="morphshape4" transform="matrix(1.0, 0.0, 0.0, 1.0, 3.95, 3.8)">
      <path d="M-3.4 1.7 Q-3.3 3.9 -1.6 5.5 1.2 7.1 4.5 6.0 L4.7 5.6 Q8.7 -1.3 -0.2 -3.3 L-2.1 -2.7 -3.2 -1.2 Q-3.5 0.2 -3.4 1.7" fill="#ffffff" fill-rule="evenodd" stroke="none"/>
      <path d="M-3.4 1.7 Q-3.5 0.2 -3.2 -1.2 L-2.1 -2.7 -0.2 -3.3 Q8.7 -1.3 4.7 5.6 L4.5 6.0 Q1.2 7.1 -1.6 5.5 -3.3 3.9 -3.4 1.7 -3.5 0.2 -3.2 -1.2 L-2.1 -2.7 -0.2 -3.3 Q8.7 -1.3 4.7 5.6 L4.5 6.0 Q1.2 7.1 -1.6 5.5 -3.3 3.9 -3.4 1.7 Z" fill="none" stroke="#000000" stroke-linecap="round" stroke-linejoin="round" stroke-width="1.0"/>
    </g>
    <g id="morphshape5" transform="matrix(1.0, 0.0, 0.0, 1.0, 19.15, 14.85)">
      <path d="M-6.95 -1.55 L-6.75 0.85 -6.55 1.35 Q-2.65 5.65 3.45 3.25 5.45 1.95 5.35 -0.35 5.35 -3.15 2.65 -5.45 L-1.75 -5.95 Q-3.45 -5.65 -6.55 -2.95 -6.95 -2.25 -6.95 -1.55" fill="#ffffff" fill-rule="evenodd" stroke="none"/>
      <path d="M-6.95 -1.55 Q-6.95 -2.25 -6.55 -2.95 -3.45 -5.65 -1.75 -5.95 L2.65 -5.45 Q5.35 -3.15 5.35 -0.35 5.45 1.95 3.45 3.25 -2.65 5.65 -6.55 1.35 L-6.75 0.85 -6.95 -1.55 Q-6.95 -2.25 -6.55 -2.95 -3.45 -5.65 -1.75 -5.95 L2.65 -5.45 Q5.35 -3.15 5.35 -0.35 5.45 1.95 3.45 3.25 -2.65 5.65 -6.55 1.35 L-6.75 0.85 -6.95 -1.55 Z" fill="none" stroke="#000000" stroke-linecap="round" stroke-linejoin="round" stroke-width="1.0"/>
    </g>
    <g id="morphshape6" transform="matrix(1.0, 0.0, 0.0, 1.0, 10.0, 2.4)">
      <path d="M-3.1 -0.1 L-3.1 0.4 Q-1.8 3.8 2.9 1.5 3.3 0.8 2.9 -0.8 1.2 -2.5 -1.5 -1.6 -3.0 -1.6 -3.1 -0.1" fill="#ffffff" fill-rule="evenodd" stroke="none"/>
      <path d="M-3.1 -0.1 Q-3.0 -1.6 -1.5 -1.6 1.2 -2.5 2.9 -0.8 3.3 0.8 2.9 1.5 -1.8 3.8 -3.1 0.4 L-3.1 -0.1 Q-3.0 -1.6 -1.5 -1.6 1.2 -2.5 2.9 -0.8 3.3 0.8 2.9 1.5 -1.8 3.8 -3.1 0.4 L-3.1 -0.1 Z" fill="none" stroke="#000000" stroke-linecap="round" stroke-linejoin="round" stroke-width="1.0"/>
    </g>
  </defs>
</svg>
