<?xml version="1.0" encoding="UTF-8" standalone="no"?>
<svg xmlns:ffdec="https://www.free-decompiler.com/flash" xmlns:xlink="http://www.w3.org/1999/xlink" ffdec:objectType="frame" height="59.35px" width="65.85px" xmlns="http://www.w3.org/2000/svg">
  <g transform="matrix(1.0, 0.0, 0.0, 1.0, 31.95, 32.05)">
    <use ffdec:characterId="476" height="38.65" transform="matrix(1.0, 0.0, 0.0, 1.0, -19.15, -20.15)" width="38.7" xlink:href="#morphshape0"/>
    <use ffdec:characterId="477" height="8.15" transform="matrix(1.0, 0.0, 0.0, 1.0, -1.1, -11.0)" width="6.3" xlink:href="#morphshape1"/>
    <use ffdec:characterId="478" height="17.3" transform="matrix(1.0, 0.0, 0.0, 1.0, -1.7, -13.2)" width="19.05" xlink:href="#morphshape2"/>
    <use ffdec:characterId="479" height="8.05" transform="matrix(1.0, 0.0, 0.0, 1.0, -0.75, -2.55)" width="12.85" xlink:href="#morphshape3"/>
    <use ffdec:characterId="480" height="22.9" transform="matrix(1.0, 0.0, 0.0, 1.0, -3.95, -3.8)" width="14.85" xlink:href="#morphshape4"/>
    <use ffdec:characterId="481" height="19.45" transform="matrix(1.0, 0.0, 0.0, 1.0, -19.15, -14.85)" width="25.0" xlink:href="#morphshape5"/>
    <use ffdec:characterId="482" height="10.35" transform="matrix(1.0, 0.0, 0.0, 1.0, -10.0, -2.4)" width="13.6" xlink:href="#morphshape6"/>
  </g>
  <defs>
    <g id="morphshape0" transform="matrix(1.0, 0.0, 0.0, 1.0, 19.15, 20.15)">
      <path d="M-10.15 -1.0 Q-10.15 3.15 -7.2 6.1 -4.15 9.15 0.0 9.15 4.15 9.15 7.1 6.1 10.15 3.15 10.15 -1.0 10.15 -5.15 7.1 -8.2 4.15 -11.15 0.0 -11.15 -4.15 -11.15 -7.2 -8.2 -10.15 -5.15 -10.15 -1.0" fill="#d5eaff" fill-opacity="0.6392157" fill-rule="evenodd" stroke="none"/>
      <path d="M-10.15 -1.0 Q-10.15 -5.15 -7.2 -8.2 -4.15 -11.15 0.0 -11.15 4.15 -11.15 7.1 -8.2 10.15 -5.15 10.15 -1.0 10.15 3.15 7.1 6.1 4.15 9.15 0.0 9.15 -4.15 9.15 -7.2 6.1 -10.15 3.15 -10.15 -1.0 Z" ffdec:has-small-stroke="true" ffdec:original-stroke-width="0.0" fill="none" stroke="#000000" stroke-linecap="round" stroke-linejoin="round" stroke-opacity="0.0" stroke-width="1.0"/>
    </g>
    <g id="morphshape1" transform="matrix(1.0, 0.0, 0.0, 1.0, 1.1, 11.0)">
      <path d="M-0.55 -6.65 Q0.2 -4.2 3.3 -5.75 4.3 -7.65 2.35 -8.4 0.4 -8.25 -0.5 -6.7" fill="#ffffff" fill-rule="evenodd" stroke="none"/>
      <path d="M-0.45 -6.75 Q0.45 -8.3 2.4 -8.45 4.35 -7.7 3.35 -5.8 0.25 -4.25 -0.5 -6.7 0.4 -8.25 2.35 -8.4 4.3 -7.65 3.3 -5.75 0.2 -4.2 -0.55 -6.65" fill="none" stroke="#000000" stroke-linecap="round" stroke-linejoin="round" stroke-width="1.0"/>
    </g>
    <g id="morphshape2" transform="matrix(1.0, 0.0, 0.0, 1.0, 1.7, 13.2)">
      <path d="M3.7 -3.9 Q3.75 -3.25 4.05 -2.75 6.35 -0.05 9.65 -1.95 L10.15 -2.75 10.55 -3.5 10.55 -3.9 10.4 -4.65 10.0 -5.45 9.65 -5.85 9.0 -6.1 4.75 -5.85 Q3.75 -5.05 3.75 -3.9" fill="#ffffff" fill-rule="evenodd" stroke="none"/>
      <path d="M3.8 -3.9 Q3.8 -5.05 4.8 -5.85 L9.05 -6.1 9.7 -5.85 10.05 -5.45 10.45 -4.65 10.6 -3.9 10.6 -3.5 10.2 -2.75 9.7 -1.95 Q6.4 -0.05 4.1 -2.75 3.8 -3.25 3.75 -3.9 3.75 -5.05 4.75 -5.85 L9.0 -6.1 9.65 -5.85 10.0 -5.45 10.4 -4.65 10.55 -3.9 10.55 -3.5 10.15 -2.75 9.65 -1.95 Q6.35 -0.05 4.05 -2.75 3.75 -3.25 3.7 -3.9" fill="none" stroke="#000000" stroke-linecap="round" stroke-linejoin="round" stroke-width="1.0"/>
    </g>
    <g id="morphshape3" transform="matrix(1.0, 0.0, 0.0, 1.0, 0.75, 2.55)">
      <path d="M3.2 0.65 Q2.95 1.65 3.2 2.65 5.1 4.2 7.0 2.65 7.35 1.9 7.3 1.0 7.2 0.35 6.55 -0.15 L4.35 -0.4 Q3.35 -0.3 3.2 0.7" fill="#ffffff" fill-rule="evenodd" stroke="none"/>
      <path d="M3.2 0.75 Q3.35 -0.25 4.35 -0.35 L6.55 -0.1 Q7.2 0.4 7.3 1.05 7.35 1.95 7.0 2.7 5.1 4.25 3.2 2.7 2.95 1.7 3.2 0.7 3.35 -0.3 4.35 -0.4 L6.55 -0.15 Q7.2 0.35 7.3 1.0 7.35 1.9 7.0 2.65 5.1 4.2 3.2 2.65 2.95 1.65 3.2 0.65" fill="none" stroke="#000000" stroke-linecap="round" stroke-linejoin="round" stroke-width="1.0"/>
    </g>
    <g id="morphshape4" transform="matrix(1.0, 0.0, 0.0, 1.0, 3.95, 3.8)">
      <path d="M-0.2 7.05 Q-0.1 8.85 1.3 10.15 3.6 11.45 6.3 10.55 L6.45 10.2 Q9.75 4.55 2.45 2.9 L0.9 3.4 0.0 4.65 Q-0.2 5.8 -0.15 7.0" fill="#ffffff" fill-rule="evenodd" stroke="none"/>
      <path d="M-0.1 6.95 Q-0.15 5.75 0.05 4.6 L0.95 3.35 2.5 2.85 Q9.8 4.5 6.5 10.15 L6.35 10.5 Q3.65 11.4 1.35 10.1 -0.05 8.8 -0.15 7.0 -0.2 5.8 0.0 4.65 L0.9 3.4 2.45 2.9 Q9.75 4.55 6.45 10.2 L6.3 10.55 Q3.6 11.45 1.3 10.15 -0.1 8.85 -0.2 7.05" fill="none" stroke="#000000" stroke-linecap="round" stroke-linejoin="round" stroke-width="1.0"/>
    </g>
    <g id="morphshape5" transform="matrix(1.0, 0.0, 0.0, 1.0, 19.15, 14.85)">
      <path d="M-11.05 -5.25 L-10.9 -3.3 -10.75 -2.9 Q-7.55 0.65 -2.55 -1.3 -0.9 -2.35 -1.0 -4.25 -1.0 -6.55 -3.2 -8.45 L-6.8 -8.85 Q-8.2 -8.6 -10.75 -6.4 -11.05 -5.85 -11.1 -5.3" fill="#ffffff" fill-rule="evenodd" stroke="none"/>
      <path d="M-11.15 -5.35 Q-11.1 -5.9 -10.8 -6.45 -8.25 -8.65 -6.85 -8.9 L-3.25 -8.5 Q-1.05 -6.6 -1.05 -4.3 -0.95 -2.4 -2.6 -1.35 -7.6 0.6 -10.8 -2.95 L-10.95 -3.35 -11.1 -5.3 Q-11.05 -5.85 -10.75 -6.4 -8.2 -8.6 -6.8 -8.85 L-3.2 -8.45 Q-1.0 -6.55 -1.0 -4.25 -0.9 -2.35 -2.55 -1.3 -7.55 0.65 -10.75 -2.9 L-10.9 -3.3 -11.05 -5.25" fill="none" stroke="#000000" stroke-linecap="round" stroke-linejoin="round" stroke-width="1.0"/>
    </g>
    <g id="morphshape6" transform="matrix(1.0, 0.0, 0.0, 1.0, 10.0, 2.4)">
      <path d="M-5.3 2.05 L-5.3 2.45 Q-4.25 5.25 -0.4 3.35 -0.05 2.8 -0.4 1.5 -1.8 0.1 -4.0 0.85 -5.25 0.85 -5.35 2.1" fill="#ffffff" fill-rule="evenodd" stroke="none"/>
      <path d="M-5.4 2.15 Q-5.3 0.9 -4.05 0.9 -1.85 0.15 -0.45 1.55 -0.1 2.85 -0.45 3.4 -4.3 5.3 -5.35 2.5 L-5.35 2.1 Q-5.25 0.85 -4.0 0.85 -1.8 0.1 -0.4 1.5 -0.05 2.8 -0.4 3.35 -4.25 5.25 -5.3 2.45 L-5.3 2.05" fill="none" stroke="#000000" stroke-linecap="round" stroke-linejoin="round" stroke-width="1.0"/>
    </g>
  </defs>
</svg>
