<?xml version="1.0" encoding="UTF-8" standalone="no"?>
<svg xmlns:ffdec="https://www.free-decompiler.com/flash" xmlns:xlink="http://www.w3.org/1999/xlink" ffdec:objectType="frame" height="59.35px" width="65.85px" xmlns="http://www.w3.org/2000/svg">
  <g transform="matrix(1.0, 0.0, 0.0, 1.0, 31.95, 32.05)">
    <use ffdec:characterId="476" height="38.65" transform="matrix(1.0, 0.0, 0.0, 1.0, -19.15, -20.15)" width="38.7" xlink:href="#morphshape0"/>
    <use ffdec:characterId="477" height="8.15" transform="matrix(1.0, 0.0, 0.0, 1.0, -1.1, -11.0)" width="6.3" xlink:href="#morphshape1"/>
    <use ffdec:characterId="478" height="17.3" transform="matrix(1.0, 0.0, 0.0, 1.0, -1.7, -13.2)" width="19.05" xlink:href="#morphshape2"/>
    <use ffdec:characterId="479" height="8.05" transform="matrix(1.0, 0.0, 0.0, 1.0, -0.75, -2.55)" width="12.85" xlink:href="#morphshape3"/>
    <use ffdec:characterId="480" height="22.9" transform="matrix(1.0, 0.0, 0.0, 1.0, -3.95, -3.8)" width="14.85" xlink:href="#morphshape4"/>
    <use ffdec:characterId="481" height="19.45" transform="matrix(1.0, 0.0, 0.0, 1.0, -19.15, -14.85)" width="25.0" xlink:href="#morphshape5"/>
    <use ffdec:characterId="482" height="10.35" transform="matrix(1.0, 0.0, 0.0, 1.0, -10.0, -2.4)" width="13.6" xlink:href="#morphshape6"/>
  </g>
  <defs>
    <g id="morphshape0" transform="matrix(1.0, 0.0, 0.0, 1.0, 19.15, 20.15)">
      <path d="M-14.1 -0.9 Q-14.1 4.9 -10.0 9.0 -5.75 13.25 0.1 13.25 5.9 13.25 10.05 9.0 14.3 4.9 14.3 -0.9 14.3 -6.75 10.05 -11.0 5.9 -15.15 0.1 -15.1 -5.75 -15.15 -10.0 -11.0 -14.1 -6.75 -14.1 -0.9" fill="#d5eaff" fill-opacity="0.36078432" fill-rule="evenodd" stroke="none"/>
      <path d="M-14.1 -0.9 Q-14.1 -6.75 -10.0 -11.0 -5.75 -15.15 0.1 -15.1 5.9 -15.15 10.05 -11.0 14.3 -6.75 14.3 -0.9 14.3 4.9 10.05 9.0 5.9 13.25 0.1 13.25 -5.75 13.25 -10.0 9.0 -14.1 4.9 -14.1 -0.9 Z" ffdec:has-small-stroke="true" ffdec:original-stroke-width="0.0" fill="none" stroke="#000000" stroke-linecap="round" stroke-linejoin="round" stroke-opacity="0.0" stroke-width="1.0"/>
    </g>
    <g id="morphshape1" transform="matrix(1.0, 0.0, 0.0, 1.0, 1.1, 11.0)">
      <path d="M-0.45 -8.0 Q0.15 -5.95 2.75 -7.25 3.55 -8.8 1.9 -9.4 0.25 -9.25 -0.5 -7.95" fill="#ffffff" fill-rule="evenodd" stroke="none"/>
      <path d="M-0.55 -7.9 Q0.2 -9.2 1.85 -9.35 3.5 -8.75 2.7 -7.2 0.1 -5.9 -0.5 -7.95 0.25 -9.25 1.9 -9.4 3.55 -8.8 2.75 -7.25 0.15 -5.95 -0.45 -8.0" fill="none" stroke="#000000" stroke-linecap="round" stroke-linejoin="round" stroke-width="1.0"/>
    </g>
    <g id="morphshape2" transform="matrix(1.0, 0.0, 0.0, 1.0, 1.7, 13.2)">
      <path d="M7.8 -7.15 Q7.85 -6.65 8.05 -6.2 9.95 -3.95 12.65 -5.5 L13.05 -6.2 13.4 -6.8 13.4 -7.15 13.25 -7.75 12.9 -8.45 12.65 -8.8 12.1 -9.0 8.55 -8.8 Q7.75 -8.1 7.75 -7.15" fill="#ffffff" fill-rule="evenodd" stroke="none"/>
      <path d="M7.7 -7.15 Q7.7 -8.1 8.5 -8.8 L12.05 -9.0 12.6 -8.8 12.85 -8.45 13.2 -7.75 13.35 -7.15 13.35 -6.8 13.0 -6.2 12.6 -5.5 Q9.9 -3.95 8.0 -6.2 7.8 -6.65 7.75 -7.15 7.75 -8.1 8.55 -8.8 L12.1 -9.0 12.65 -8.8 12.9 -8.45 13.25 -7.75 13.4 -7.15 13.4 -6.8 13.05 -6.2 12.65 -5.5 Q9.95 -3.95 8.05 -6.2 7.85 -6.65 7.8 -7.15" fill="none" stroke="#000000" stroke-linecap="round" stroke-linejoin="round" stroke-width="1.0"/>
    </g>
    <g id="morphshape3" transform="matrix(1.0, 0.0, 0.0, 1.0, 0.75, 2.55)">
      <path d="M5.8 1.95 Q5.6 2.75 5.8 3.55 7.35 4.85 8.9 3.55 9.15 2.9 9.2 2.2 9.15 1.65 8.6 1.25 L6.75 1.05 Q5.95 1.1 5.8 1.9" fill="#ffffff" fill-rule="evenodd" stroke="none"/>
      <path d="M5.8 1.85 Q5.95 1.05 6.75 1.0 L8.6 1.2 Q9.15 1.6 9.2 2.15 9.15 2.85 8.9 3.5 7.35 4.8 5.8 3.5 5.6 2.7 5.8 1.9 5.95 1.1 6.75 1.05 L8.6 1.25 Q9.15 1.65 9.2 2.2 9.15 2.9 8.9 3.55 7.35 4.85 5.8 3.55 5.6 2.75 5.8 1.95" fill="none" stroke="#000000" stroke-linecap="round" stroke-linejoin="round" stroke-width="1.0"/>
    </g>
    <g id="morphshape4" transform="matrix(1.0, 0.0, 0.0, 1.0, 3.95, 3.8)">
      <path d="M2.55 10.9 Q2.6 12.4 3.75 13.5 5.65 14.6 7.9 13.85 L8.05 13.6 Q10.75 8.9 4.7 7.55 L3.4 7.95 2.65 8.95 Q2.5 9.95 2.5 10.95" fill="#ffffff" fill-rule="evenodd" stroke="none"/>
      <path d="M2.45 11.0 Q2.45 10.0 2.6 9.0 L3.35 8.0 4.65 7.6 Q10.7 8.95 8.0 13.65 L7.85 13.9 Q5.6 14.65 3.7 13.55 2.55 12.45 2.5 10.95 2.5 9.95 2.65 8.95 L3.4 7.95 4.7 7.55 Q10.75 8.9 8.05 13.6 L7.9 13.85 Q5.65 14.6 3.75 13.5 2.6 12.4 2.55 10.9" fill="none" stroke="#000000" stroke-linecap="round" stroke-linejoin="round" stroke-width="1.0"/>
    </g>
    <g id="morphshape5" transform="matrix(1.0, 0.0, 0.0, 1.0, 19.15, 14.85)">
      <path d="M-14.55 -8.45 L-14.4 -6.8 -14.25 -6.45 Q-11.6 -3.55 -7.45 -5.2 -6.1 -6.1 -6.15 -7.65 -6.15 -9.55 -8.0 -11.1 L-11.0 -11.45 Q-12.15 -11.25 -14.25 -9.4 -14.45 -8.9 -14.5 -8.4" fill="#ffffff" fill-rule="evenodd" stroke="none"/>
      <path d="M-14.45 -8.35 Q-14.4 -8.85 -14.2 -9.35 -12.1 -11.2 -10.95 -11.4 L-7.95 -11.05 Q-6.1 -9.5 -6.1 -7.6 -6.05 -6.05 -7.4 -5.15 -11.55 -3.5 -14.2 -6.4 L-14.35 -6.75 -14.5 -8.4 Q-14.45 -8.9 -14.25 -9.4 -12.15 -11.25 -11.0 -11.45 L-8.0 -11.1 Q-6.15 -9.55 -6.15 -7.65 -6.1 -6.1 -7.45 -5.2 -11.6 -3.55 -14.25 -6.45 L-14.4 -6.8 -14.55 -8.45" fill="none" stroke="#000000" stroke-linecap="round" stroke-linejoin="round" stroke-width="1.0"/>
    </g>
    <g id="morphshape6" transform="matrix(1.0, 0.0, 0.0, 1.0, 10.0, 2.4)">
      <path d="M-7.3 4.05 L-7.3 4.4 Q-6.4 6.7 -3.2 5.15 -2.95 4.65 -3.2 3.55 -4.35 2.4 -6.2 3.0 -7.2 3.0 -7.25 4.0" fill="#ffffff" fill-rule="evenodd" stroke="none"/>
      <path d="M-7.2 3.95 Q-7.15 2.95 -6.15 2.95 -4.3 2.35 -3.15 3.5 -2.9 4.6 -3.15 5.1 -6.35 6.65 -7.25 4.35 L-7.25 4.0 Q-7.2 3.0 -6.2 3.0 -4.35 2.4 -3.2 3.55 -2.95 4.65 -3.2 5.15 -6.4 6.7 -7.3 4.4 L-7.3 4.05" fill="none" stroke="#000000" stroke-linecap="round" stroke-linejoin="round" stroke-width="1.0"/>
    </g>
  </defs>
</svg>
