<?xml version="1.0" encoding="UTF-8" standalone="no"?>
<svg xmlns:ffdec="https://www.free-decompiler.com/flash" xmlns:xlink="http://www.w3.org/1999/xlink" ffdec:objectType="frame" height="59.35px" width="65.85px" xmlns="http://www.w3.org/2000/svg">
  <g transform="matrix(1.0, 0.0, 0.0, 1.0, 31.95, 32.05)">
    <use ffdec:characterId="476" height="38.65" transform="matrix(1.0, 0.0, 0.0, 1.0, -19.15, -20.15)" width="38.7" xlink:href="#morphshape0"/>
    <use ffdec:characterId="477" height="8.15" transform="matrix(1.0, 0.0, 0.0, 1.0, -1.1, -11.0)" width="6.3" xlink:href="#morphshape1"/>
    <use ffdec:characterId="478" height="17.3" transform="matrix(1.0, 0.0, 0.0, 1.0, -1.7, -13.2)" width="19.05" xlink:href="#morphshape2"/>
    <use ffdec:characterId="479" height="8.05" transform="matrix(1.0, 0.0, 0.0, 1.0, -0.75, -2.55)" width="12.85" xlink:href="#morphshape3"/>
    <use ffdec:characterId="480" height="22.9" transform="matrix(1.0, 0.0, 0.0, 1.0, -3.95, -3.8)" width="14.85" xlink:href="#morphshape4"/>
    <use ffdec:characterId="481" height="19.45" transform="matrix(1.0, 0.0, 0.0, 1.0, -19.15, -14.85)" width="25.0" xlink:href="#morphshape5"/>
    <use ffdec:characterId="482" height="10.35" transform="matrix(1.0, 0.0, 0.0, 1.0, -10.0, -2.4)" width="13.6" xlink:href="#morphshape6"/>
  </g>
  <defs>
    <g id="morphshape0" transform="matrix(1.0, 0.0, 0.0, 1.0, 19.15, 20.15)">
      <path d="M-16.9 -0.85 Q-16.9 6.1 -11.95 11.05 -6.85 16.15 0.15 16.15 7.1 16.15 12.1 11.05 17.2 6.1 17.2 -0.85 17.2 -7.85 12.1 -12.95 7.1 -17.95 0.15 -17.9 -6.85 -17.95 -11.95 -12.95 -16.9 -7.85 -16.9 -0.85" fill="#d5eaff" fill-opacity="0.16078432" fill-rule="evenodd" stroke="none"/>
      <path d="M-16.9 -0.85 Q-16.9 -7.85 -11.95 -12.95 -6.85 -17.95 0.15 -17.9 7.1 -17.95 12.1 -12.95 17.2 -7.85 17.2 -0.85 17.2 6.1 12.1 11.05 7.1 16.15 0.15 16.15 -6.85 16.15 -11.95 11.05 -16.9 6.1 -16.9 -0.85 Z" ffdec:has-small-stroke="true" ffdec:original-stroke-width="0.0" fill="none" stroke="#000000" stroke-linecap="round" stroke-linejoin="round" stroke-opacity="0.0" stroke-width="1.0"/>
    </g>
    <g id="morphshape1" transform="matrix(1.0, 0.0, 0.0, 1.0, 1.1, 11.0)">
      <path d="M-0.45 -8.75 Q0.05 -7.0 2.25 -8.1 2.95 -9.45 1.55 -9.95 0.15 -9.85 -0.5 -8.75" fill="#ffffff" fill-rule="evenodd" stroke="none"/>
      <path d="M-0.55 -8.75 Q0.1 -9.85 1.5 -9.95 2.9 -9.45 2.2 -8.1 0.0 -7.0 -0.5 -8.75 0.15 -9.85 1.55 -9.95 2.95 -9.45 2.25 -8.1 0.05 -7.0 -0.45 -8.75" fill="none" stroke="#000000" stroke-linecap="round" stroke-linejoin="round" stroke-width="1.0"/>
    </g>
    <g id="morphshape2" transform="matrix(1.0, 0.0, 0.0, 1.0, 1.7, 13.2)">
      <path d="M10.5 -9.35 Q10.6 -8.95 10.75 -8.55 12.35 -6.65 14.65 -8.0 L15.0 -8.6 15.3 -9.1 15.3 -9.4 15.2 -9.9 14.9 -10.5 14.65 -10.8 14.2 -10.95 11.2 -10.8 Q10.5 -10.2 10.5 -9.4" fill="#ffffff" fill-rule="evenodd" stroke="none"/>
      <path d="M10.5 -9.45 Q10.5 -10.25 11.2 -10.85 L14.2 -11.0 14.65 -10.85 14.9 -10.55 15.2 -9.95 15.3 -9.45 15.3 -9.15 15.0 -8.65 14.65 -8.05 Q12.35 -6.7 10.75 -8.6 10.6 -9.0 10.5 -9.4 10.5 -10.2 11.2 -10.8 L14.2 -10.95 14.65 -10.8 14.9 -10.5 15.2 -9.9 15.3 -9.4 15.3 -9.1 15.0 -8.6 14.65 -8.0 Q12.35 -6.65 10.75 -8.55 10.6 -8.95 10.5 -9.35" fill="none" stroke="#000000" stroke-linecap="round" stroke-linejoin="round" stroke-width="1.0"/>
    </g>
    <g id="morphshape3" transform="matrix(1.0, 0.0, 0.0, 1.0, 0.75, 2.55)">
      <path d="M7.55 2.6 Q7.4 3.3 7.55 4.0 8.9 5.1 10.25 4.0 10.4 3.45 10.45 2.85 10.4 2.4 9.95 2.05 L8.4 1.9 Q7.7 1.95 7.6 2.65" fill="#ffffff" fill-rule="evenodd" stroke="none"/>
      <path d="M7.65 2.7 Q7.75 2.0 8.45 1.95 L10.0 2.1 Q10.45 2.45 10.5 2.9 10.45 3.5 10.3 4.05 8.95 5.15 7.6 4.05 7.45 3.35 7.6 2.65 7.7 1.95 8.4 1.9 L9.95 2.05 Q10.4 2.4 10.45 2.85 10.4 3.45 10.25 4.0 8.9 5.1 7.55 4.0 7.4 3.3 7.55 2.6" fill="none" stroke="#000000" stroke-linecap="round" stroke-linejoin="round" stroke-width="1.0"/>
    </g>
    <g id="morphshape4" transform="matrix(1.0, 0.0, 0.0, 1.0, 3.95, 3.8)">
      <path d="M4.5 13.8 Q4.55 15.1 5.55 16.05 7.15 17.0 9.05 16.35 L9.15 16.1 Q11.45 12.1 6.3 10.95 L5.2 11.3 4.55 12.15 Q4.45 13.0 4.4 13.85" fill="#ffffff" fill-rule="evenodd" stroke="none"/>
      <path d="M4.3 13.9 Q4.35 13.05 4.45 12.2 L5.1 11.35 6.2 11.0 Q11.35 12.15 9.05 16.15 L8.95 16.4 Q7.05 17.05 5.45 16.1 4.45 15.15 4.4 13.85 4.45 13.0 4.55 12.15 L5.2 11.3 6.3 10.95 Q11.45 12.1 9.15 16.1 L9.05 16.35 Q7.15 17.0 5.55 16.05 4.55 15.1 4.5 13.8" fill="none" stroke="#000000" stroke-linecap="round" stroke-linejoin="round" stroke-width="1.0"/>
    </g>
    <g id="morphshape5" transform="matrix(1.0, 0.0, 0.0, 1.0, 19.15, 14.85)">
      <path d="M-16.7 -10.35 L-16.6 -8.95 -16.5 -8.65 Q-14.25 -6.15 -10.7 -7.55 -9.55 -8.3 -9.6 -9.65 -9.6 -11.25 -11.15 -12.6 L-13.7 -12.9 Q-14.7 -12.75 -16.5 -11.2 -16.65 -10.8 -16.75 -10.4" fill="#ffffff" fill-rule="evenodd" stroke="none"/>
      <path d="M-16.8 -10.45 Q-16.7 -10.85 -16.55 -11.25 -14.75 -12.8 -13.75 -12.95 L-11.2 -12.65 Q-9.65 -11.3 -9.65 -9.7 -9.6 -8.35 -10.75 -7.6 -14.3 -6.2 -16.55 -8.7 L-16.65 -9.0 -16.75 -10.4 Q-16.65 -10.8 -16.5 -11.2 -14.7 -12.75 -13.7 -12.9 L-11.15 -12.6 Q-9.6 -11.25 -9.6 -9.65 -9.55 -8.3 -10.7 -7.55 -14.25 -6.15 -16.5 -8.65 L-16.6 -8.95 -16.7 -10.35" fill="none" stroke="#000000" stroke-linecap="round" stroke-linejoin="round" stroke-width="1.0"/>
    </g>
    <g id="morphshape6" transform="matrix(1.0, 0.0, 0.0, 1.0, 10.0, 2.4)">
      <path d="M-8.6 5.4 L-8.6 5.7 Q-7.85 7.65 -5.1 6.3 -4.85 5.9 -5.1 4.95 -6.1 3.95 -7.65 4.45 -8.5 4.45 -8.55 5.3" fill="#ffffff" fill-rule="evenodd" stroke="none"/>
      <path d="M-8.5 5.2 Q-8.45 4.35 -7.6 4.35 -6.05 3.85 -5.05 4.85 -4.8 5.8 -5.05 6.2 -7.8 7.55 -8.55 5.6 L-8.55 5.3 Q-8.5 4.45 -7.65 4.45 -6.1 3.95 -5.1 4.95 -4.85 5.9 -5.1 6.3 -7.85 7.65 -8.6 5.7 L-8.6 5.4" fill="none" stroke="#000000" stroke-linecap="round" stroke-linejoin="round" stroke-width="1.0"/>
    </g>
  </defs>
</svg>
