<?xml version="1.0" encoding="UTF-8" standalone="no"?>
<svg xmlns:ffdec="https://www.free-decompiler.com/flash" xmlns:xlink="http://www.w3.org/1999/xlink" ffdec:objectType="frame" height="59.35px" width="65.85px" xmlns="http://www.w3.org/2000/svg">
  <g transform="matrix(1.0, 0.0, 0.0, 1.0, 31.95, 32.05)">
    <use ffdec:characterId="476" height="38.65" transform="matrix(1.0, 0.0, 0.0, 1.0, -19.15, -20.15)" width="38.7" xlink:href="#morphshape0"/>
    <use ffdec:characterId="477" height="8.15" transform="matrix(1.0, 0.0, 0.0, 1.0, -1.1, -11.0)" width="6.3" xlink:href="#morphshape1"/>
    <use ffdec:characterId="478" height="17.3" transform="matrix(1.0, 0.0, 0.0, 1.0, -1.7, -13.2)" width="19.05" xlink:href="#morphshape2"/>
    <use ffdec:characterId="479" height="8.05" transform="matrix(1.0, 0.0, 0.0, 1.0, -0.75, -2.55)" width="12.85" xlink:href="#morphshape3"/>
    <use ffdec:characterId="480" height="22.9" transform="matrix(1.0, 0.0, 0.0, 1.0, -3.95, -3.8)" width="14.85" xlink:href="#morphshape4"/>
    <use ffdec:characterId="481" height="19.45" transform="matrix(1.0, 0.0, 0.0, 1.0, -19.15, -14.85)" width="25.0" xlink:href="#morphshape5"/>
    <use ffdec:characterId="482" height="10.35" transform="matrix(1.0, 0.0, 0.0, 1.0, -10.0, -2.4)" width="13.6" xlink:href="#morphshape6"/>
  </g>
  <defs>
    <g id="morphshape0" transform="matrix(1.0, 0.0, 0.0, 1.0, 19.15, 20.15)">
      <path d="M-18.6 -0.8 Q-18.6 6.85 -13.15 12.3 -7.5 17.95 0.2 17.95 7.85 17.95 13.35 12.3 19.0 6.85 19.0 -0.8 19.0 -8.5 13.35 -14.15 7.85 -19.65 0.2 -19.6 -7.5 -19.65 -13.15 -14.15 -18.6 -8.5 -18.6 -0.8" fill="#d5eaff" fill-opacity="0.039215688" fill-rule="evenodd" stroke="none"/>
      <path d="M-18.6 -0.8 Q-18.6 -8.5 -13.15 -14.15 -7.5 -19.65 0.2 -19.6 7.85 -19.65 13.35 -14.15 19.0 -8.5 19.0 -0.8 19.0 6.85 13.35 12.3 7.85 17.95 0.2 17.95 -7.5 17.95 -13.15 12.3 -18.6 6.85 -18.6 -0.8 Z" ffdec:has-small-stroke="true" ffdec:original-stroke-width="0.0" fill="none" stroke="#000000" stroke-linecap="round" stroke-linejoin="round" stroke-opacity="0.0" stroke-width="1.0"/>
    </g>
    <g id="morphshape1" transform="matrix(1.0, 0.0, 0.0, 1.0, 1.1, 11.0)">
      <path d="M-0.6 -9.3 Q-0.15 -7.75 1.85 -8.75 2.45 -9.95 1.2 -10.4 -0.05 -10.3 -0.6 -9.3" fill="#ffffff" fill-rule="evenodd" stroke="none"/>
      <path d="M-0.6 -9.3 Q-0.05 -10.3 1.2 -10.4 2.45 -9.95 1.85 -8.75 -0.15 -7.75 -0.6 -9.3 -0.05 -10.3 1.2 -10.4 2.45 -9.95 1.85 -8.75 -0.15 -7.75 -0.6 -9.3 Z" fill="none" stroke="#000000" stroke-linecap="round" stroke-linejoin="round" stroke-width="1.0"/>
    </g>
    <g id="morphshape2" transform="matrix(1.0, 0.0, 0.0, 1.0, 1.7, 13.2)">
      <path d="M12.05 -10.95 Q12.15 -10.6 12.25 -10.25 13.7 -8.55 15.8 -9.75 L16.1 -10.25 16.35 -10.7 16.35 -10.95 16.25 -11.4 16.0 -11.9 15.8 -12.15 15.4 -12.3 12.7 -12.15 Q12.1 -11.65 12.1 -10.9" fill="#ffffff" fill-rule="evenodd" stroke="none"/>
      <path d="M12.15 -10.85 Q12.15 -11.6 12.75 -12.1 L15.45 -12.25 15.85 -12.1 16.05 -11.85 16.3 -11.35 16.4 -10.9 16.4 -10.65 16.15 -10.2 15.85 -9.7 Q13.75 -8.5 12.3 -10.2 12.2 -10.55 12.1 -10.9 12.1 -11.65 12.7 -12.15 L15.4 -12.3 15.8 -12.15 16.0 -11.9 16.25 -11.4 16.35 -10.95 16.35 -10.7 16.1 -10.25 15.8 -9.75 Q13.7 -8.55 12.25 -10.25 12.15 -10.6 12.05 -10.95" fill="none" stroke="#000000" stroke-linecap="round" stroke-linejoin="round" stroke-width="1.0"/>
    </g>
    <g id="morphshape3" transform="matrix(1.0, 0.0, 0.0, 1.0, 0.75, 2.55)">
      <path d="M8.65 3.2 Q8.5 3.8 8.65 4.4 9.85 5.4 11.05 4.4 11.15 3.9 11.25 3.4 11.2 3.0 10.8 2.7 L9.4 2.55 Q8.8 2.6 8.7 3.2" fill="#ffffff" fill-rule="evenodd" stroke="none"/>
      <path d="M8.75 3.2 Q8.85 2.6 9.45 2.55 L10.85 2.7 Q11.25 3.0 11.3 3.4 11.2 3.9 11.1 4.4 9.9 5.4 8.7 4.4 8.55 3.8 8.7 3.2 8.8 2.6 9.4 2.55 L10.8 2.7 Q11.2 3.0 11.25 3.4 11.15 3.9 11.05 4.4 9.85 5.4 8.65 4.4 8.5 3.8 8.65 3.2" fill="none" stroke="#000000" stroke-linecap="round" stroke-linejoin="round" stroke-width="1.0"/>
    </g>
    <g id="morphshape4" transform="matrix(1.0, 0.0, 0.0, 1.0, 3.95, 3.8)">
      <path d="M5.4 15.45 Q5.45 16.6 6.35 17.45 7.8 18.3 9.5 17.75 L9.6 17.55 Q11.7 13.95 7.05 12.9 L6.05 13.2 5.5 14.0 Q5.45 14.8 5.4 15.55" fill="#ffffff" fill-rule="evenodd" stroke="none"/>
      <path d="M5.4 15.65 Q5.45 14.9 5.5 14.1 L6.05 13.3 7.05 13.0 Q11.7 14.05 9.6 17.65 L9.5 17.85 Q7.8 18.4 6.35 17.55 5.45 16.7 5.4 15.55 5.45 14.8 5.5 14.0 L6.05 13.2 7.05 12.9 Q11.7 13.95 9.6 17.55 L9.5 17.75 Q7.8 18.3 6.35 17.45 5.45 16.6 5.4 15.45" fill="none" stroke="#000000" stroke-linecap="round" stroke-linejoin="round" stroke-width="1.0"/>
    </g>
    <g id="morphshape5" transform="matrix(1.0, 0.0, 0.0, 1.0, 19.15, 14.85)">
      <path d="M-18.2 -11.65 L-18.1 -10.4 -18.0 -10.15 Q-15.95 -7.9 -12.8 -9.15 -11.75 -9.85 -11.8 -11.05 -11.8 -12.5 -13.2 -13.7 L-15.5 -13.95 Q-16.4 -13.8 -18.0 -12.4 -18.1 -12.05 -18.2 -11.7" fill="#ffffff" fill-rule="evenodd" stroke="none"/>
      <path d="M-18.2 -11.75 Q-18.1 -12.1 -18.0 -12.45 -16.4 -13.85 -15.5 -14.0 L-13.2 -13.75 Q-11.8 -12.55 -11.8 -11.1 -11.75 -9.9 -12.8 -9.2 -15.95 -7.95 -18.0 -10.2 L-18.1 -10.45 -18.2 -11.7 Q-18.1 -12.05 -18.0 -12.4 -16.4 -13.8 -15.5 -13.95 L-13.2 -13.7 Q-11.8 -12.5 -11.8 -11.05 -11.75 -9.85 -12.8 -9.15 -15.95 -7.9 -18.0 -10.15 L-18.1 -10.4 -18.2 -11.65" fill="none" stroke="#000000" stroke-linecap="round" stroke-linejoin="round" stroke-width="1.0"/>
    </g>
    <g id="morphshape6" transform="matrix(1.0, 0.0, 0.0, 1.0, 10.0, 2.4)">
      <path d="M-9.25 6.05 L-9.25 6.3 Q-8.55 8.05 -6.1 6.85 -5.9 6.5 -6.1 5.65 -7.0 4.75 -8.4 5.2 -9.2 5.2 -9.25 6.0" fill="#ffffff" fill-rule="evenodd" stroke="none"/>
      <path d="M-9.25 5.95 Q-9.2 5.15 -8.4 5.15 -7.0 4.7 -6.1 5.6 -5.9 6.45 -6.1 6.8 -8.55 8.0 -9.25 6.25 L-9.25 6.0 Q-9.2 5.2 -8.4 5.2 -7.0 4.75 -6.1 5.65 -5.9 6.5 -6.1 6.85 -8.55 8.05 -9.25 6.3 L-9.25 6.05" fill="none" stroke="#000000" stroke-linecap="round" stroke-linejoin="round" stroke-width="1.0"/>
    </g>
  </defs>
</svg>
