<?xml version="1.0" encoding="UTF-8" standalone="no"?>
<svg xmlns:ffdec="https://www.free-decompiler.com/flash" xmlns:xlink="http://www.w3.org/1999/xlink" ffdec:objectType="frame" height="59.35px" width="65.85px" xmlns="http://www.w3.org/2000/svg">
  <g transform="matrix(1.0, 0.0, 0.0, 1.0, 31.95, 32.05)">
    <use ffdec:characterId="484" height="14.25" transform="matrix(1.0, 0.0, 0.0, 1.0, -1.65, -12.45)" width="17.25" xlink:href="#morphshape0"/>
    <use ffdec:characterId="485" height="32.9" transform="matrix(1.0, 0.0, 0.0, 1.0, -8.3, -25.1)" width="14.85" xlink:href="#morphshape1"/>
    <use ffdec:characterId="486" height="16.1" transform="matrix(1.0, 0.0, 0.0, 1.0, -3.8, -10.1)" width="37.7" xlink:href="#morphshape2"/>
    <use ffdec:characterId="487" height="14.95" transform="matrix(1.0, 0.0, 0.0, 1.0, -1.6, -3.35)" width="25.7" xlink:href="#morphshape3"/>
    <use ffdec:characterId="488" height="14.75" transform="matrix(1.0, 0.0, 0.0, 1.0, -1.45, 0.1)" width="12.45" xlink:href="#morphshape4"/>
    <use ffdec:characterId="489" height="11.1" transform="matrix(1.0, 0.0, 0.0, 1.0, -23.2, -5.75)" width="21.9" xlink:href="#morphshape5"/>
    <use ffdec:characterId="490" height="29.05" transform="matrix(1.0, 0.0, 0.0, 1.0, -27.6, -27.15)" width="28.55" xlink:href="#morphshape6"/>
    <use ffdec:characterId="491" height="22.9" transform="matrix(1.0, 0.0, 0.0, 1.0, -8.2, -0.8)" width="15.25" xlink:href="#morphshape7"/>
    <use ffdec:characterId="492" height="22.4" transform="matrix(1.0, 0.0, 0.0, 1.0, -31.95, -2.05)" width="34.55" xlink:href="#morphshape8"/>
  </g>
  <defs>
    <g id="morphshape0" transform="matrix(1.0, 0.0, 0.0, 1.0, 1.65, 12.45)">
      <path d="M-1.15 -4.4 Q-1.2 -3.05 -0.7 -1.7 -0.3 -1.35 0.05 -1.05 2.75 1.45 6.15 1.3 7.75 0.1 8.45 -1.7 9.55 -5.1 7.0 -8.0 L3.0 -8.5 1.1 -7.85 Q-0.7 -6.5 -1.15 -4.4" fill="#ffffff" fill-rule="evenodd" stroke="none"/>
      <path d="M-1.15 -4.4 Q-0.7 -6.5 1.1 -7.85 L3.0 -8.5 7.0 -8.0 Q9.55 -5.1 8.45 -1.7 7.75 0.1 6.15 1.3 2.75 1.45 0.05 -1.05 -0.3 -1.35 -0.7 -1.7 -1.2 -3.05 -1.15 -4.4 -0.7 -6.5 1.1 -7.85 L3.0 -8.5 7.0 -8.0 Q9.55 -5.1 8.45 -1.7 7.75 0.1 6.15 1.3 2.75 1.45 0.05 -1.05 -0.3 -1.35 -0.7 -1.7 -1.2 -3.05 -1.15 -4.4 Z" fill="none" stroke="#000000" stroke-linecap="round" stroke-linejoin="round" stroke-width="1.0"/>
    </g>
    <g id="morphshape1" transform="matrix(1.0, 0.0, 0.0, 1.0, 8.3, 25.1)">
      <path d="M-5.5 -7.1 Q-10.3 -0.35 -5.1 6.5 L-4.85 6.9 -3.95 7.05 -0.55 6.9 Q1.5 6.0 2.65 4.45 L3.0 3.9 3.55 3.5 3.55 2.85 Q7.05 -3.0 4.1 -6.9 L2.9 -8.75 Q3.1 -12.95 -4.3 -8.75 L-5.5 -7.1" fill="#ffffff" fill-rule="evenodd" stroke="none"/>
      <path d="M-5.5 -7.1 L-4.3 -8.75 Q3.1 -12.95 2.9 -8.75 L4.1 -6.9 Q7.05 -3.0 3.55 2.85 L3.55 3.5 3.0 3.9 2.65 4.45 Q1.5 6.0 -0.55 6.9 L-3.95 7.05 -4.85 6.9 -5.1 6.5 Q-10.3 -0.35 -5.5 -7.1 L-4.3 -8.75 Q3.1 -12.95 2.9 -8.75 L4.1 -6.9 Q7.05 -3.0 3.55 2.85 L3.55 3.5 3.0 3.9 2.65 4.45 Q1.5 6.0 -0.55 6.9 L-3.95 7.05 -4.85 6.9 -5.1 6.5 Q-10.3 -0.35 -5.5 -7.1 Z" fill="none" stroke="#000000" stroke-linecap="round" stroke-linejoin="round" stroke-width="1.0"/>
    </g>
    <g id="morphshape2" transform="matrix(1.0, 0.0, 0.0, 1.0, 3.8, 10.1)">
      <path d="M-2.8 1.3 L-1.5 3.55 Q-0.6 6.75 2.9 4.7 8.0 3.7 9.05 1.1 10.85 -0.85 9.2 -2.75 8.5 -5.9 6.4 -5.35 L0.4 -4.6 Q-4.6 -3.75 -2.8 1.3" fill="#ffffff" fill-rule="evenodd" stroke="none"/>
      <path d="M-2.8 1.3 Q-4.6 -3.75 0.4 -4.6 L6.4 -5.35 Q8.5 -5.9 9.2 -2.75 10.85 -0.85 9.05 1.1 8.0 3.7 2.9 4.7 -0.6 6.75 -1.5 3.55 L-2.8 1.3 Q-4.6 -3.75 0.4 -4.6 L6.4 -5.35 Q8.5 -5.9 9.2 -2.75 10.85 -0.85 9.05 1.1 8.0 3.7 2.9 4.7 -0.6 6.75 -1.5 3.55 L-2.8 1.3 Z" fill="none" stroke="#000000" stroke-linecap="round" stroke-linejoin="round" stroke-width="1.0"/>
    </g>
    <g id="morphshape3" transform="matrix(1.0, 0.0, 0.0, 1.0, 1.6, 3.35)">
      <path d="M-1.1 1.05 L0.75 4.55 Q4.15 8.2 8.75 4.95 9.6 4.15 9.8 1.3 8.5 -2.9 5.7 -2.85 2.85 -2.85 -0.45 -1.85 L-1.1 1.05" fill="#ffffff" fill-rule="evenodd" stroke="none"/>
      <path d="M-1.1 1.05 L-0.45 -1.85 Q2.85 -2.85 5.7 -2.85 8.5 -2.9 9.8 1.3 9.6 4.15 8.75 4.95 4.15 8.2 0.75 4.55 L-1.1 1.05 -0.45 -1.85 Q2.85 -2.85 5.7 -2.85 8.5 -2.9 9.8 1.3 9.6 4.15 8.75 4.95 4.15 8.2 0.75 4.55 L-1.1 1.05 Z" fill="none" stroke="#000000" stroke-linecap="round" stroke-linejoin="round" stroke-width="1.0"/>
    </g>
    <g id="morphshape4" transform="matrix(1.0, 0.0, 0.0, 1.0, 1.45, -0.1)">
      <path d="M0.3 6.4 L2.7 7.5 Q5.7 8.4 7.75 5.25 8.45 2.0 5.05 1.2 3.6 -0.3 0.45 1.9 -2.25 3.25 0.3 6.4" fill="#ffffff" fill-rule="evenodd" stroke="none"/>
      <path d="M0.3 6.4 Q-2.25 3.25 0.45 1.9 3.6 -0.3 5.05 1.2 8.45 2.0 7.75 5.25 5.7 8.4 2.7 7.5 L0.3 6.4 Q-2.25 3.25 0.45 1.9 3.6 -0.3 5.05 1.2 8.45 2.0 7.75 5.25 5.7 8.4 2.7 7.5 L0.3 6.4 Z" fill="none" stroke="#000000" stroke-linecap="round" stroke-linejoin="round" stroke-width="1.0"/>
    </g>
    <g id="morphshape5" transform="matrix(1.0, 0.0, 0.0, 1.0, 23.2, 5.75)">
      <path d="M-10.7 1.2 Q-9.95 6.55 -5.65 4.1 L-2.5 3.15 -1.8 -0.2 -2.75 -2.45 Q-3.3 -6.15 -10.45 -2.05 L-10.7 1.2" fill="#ffffff" fill-rule="evenodd" stroke="none"/>
      <path d="M-10.7 1.2 L-10.45 -2.05 Q-3.3 -6.15 -2.75 -2.45 L-1.8 -0.2 -2.5 3.15 -5.65 4.1 Q-9.95 6.55 -10.7 1.2 L-10.45 -2.05 Q-3.3 -6.15 -2.75 -2.45 L-1.8 -0.2 -2.5 3.15 -5.65 4.1 Q-9.95 6.55 -10.7 1.2 Z" fill="none" stroke="#000000" stroke-linecap="round" stroke-linejoin="round" stroke-width="1.0"/>
    </g>
    <g id="morphshape6" transform="matrix(1.0, 0.0, 0.0, 1.0, 27.6, 27.15)">
      <path d="M-5.0 -4.1 Q-8.35 -0.95 -5.0 1.4 -3.35 1.6 -0.05 0.2 L0.45 -3.85 Q-1.5 -6.75 -5.0 -4.1" fill="#ffffff" fill-rule="evenodd" stroke="none"/>
      <path d="M-5.0 -4.1 Q-1.5 -6.75 0.45 -3.85 L-0.05 0.2 Q-3.35 1.6 -5.0 1.4 -8.35 -0.95 -5.0 -4.1 -1.5 -6.75 0.45 -3.85 L-0.05 0.2 Q-3.35 1.6 -5.0 1.4 -8.35 -0.95 -5.0 -4.1 Z" fill="none" stroke="#000000" stroke-linecap="round" stroke-linejoin="round" stroke-width="1.0"/>
    </g>
    <g id="morphshape7" transform="matrix(1.0, 0.0, 0.0, 1.0, 8.2, 0.8)">
      <path d="M-6.5 9.7 Q-3.25 10.85 2.4 11.2 8.0 11.55 6.0 0.2 L-1.75 -0.3 -4.45 1.55 -6.5 9.7" fill="#ffffff" fill-rule="evenodd" stroke="none"/>
      <path d="M-6.5 9.7 L-4.45 1.55 -1.75 -0.3 6.0 0.2 Q8.0 11.55 2.4 11.2 -3.25 10.85 -6.5 9.7 L-4.45 1.55 -1.75 -0.3 6.0 0.2 Q8.0 11.55 2.4 11.2 -3.25 10.85 -6.5 9.7 Z" fill="none" stroke="#000000" stroke-linecap="round" stroke-linejoin="round" stroke-width="1.0"/>
    </g>
    <g id="morphshape8" transform="matrix(1.0, 0.0, 0.0, 1.0, 31.95, 2.05)">
      <path d="M-7.95 1.8 Q-10.45 3.95 -7.95 6.1 -3.75 10.65 0.45 5.9 3.1 3.75 1.55 0.45 -0.3 -2.5 -3.9 -1.15 -5.9 -2.45 -7.95 1.8" fill="#ffffff" fill-rule="evenodd" stroke="none"/>
      <path d="M-7.95 1.8 Q-5.9 -2.45 -3.9 -1.15 -0.3 -2.5 1.55 0.45 3.1 3.75 0.45 5.9 -3.75 10.65 -7.95 6.1 -10.45 3.95 -7.95 1.8 -5.9 -2.45 -3.9 -1.15 -0.3 -2.5 1.55 0.45 3.1 3.75 0.45 5.9 -3.75 10.65 -7.95 6.1 -10.45 3.95 -7.95 1.8 Z" fill="none" stroke="#000000" stroke-linecap="round" stroke-linejoin="round" stroke-width="1.0"/>
    </g>
  </defs>
</svg>
