<?xml version="1.0" encoding="UTF-8" standalone="no"?>
<svg xmlns:ffdec="https://www.free-decompiler.com/flash" xmlns:xlink="http://www.w3.org/1999/xlink" ffdec:objectType="frame" height="59.35px" width="65.85px" xmlns="http://www.w3.org/2000/svg">
  <g transform="matrix(1.0, 0.0, 0.0, 1.0, 31.95, 32.05)">
    <use ffdec:characterId="493" height="80.2" transform="matrix(0.031, -0.284, 0.284, 0.031, -20.6411, 12.9839)" width="84.05" xlink:href="#shape0"/>
    <use ffdec:characterId="493" height="80.2" transform="matrix(0.2642, 0.0466, -0.0466, 0.2642, -7.3299, -12.9525)" width="84.05" xlink:href="#shape0"/>
    <use ffdec:characterId="493" height="80.2" transform="matrix(0.2642, 0.0466, -0.0466, 0.2642, -2.0799, -5.2025)" width="84.05" xlink:href="#shape0"/>
    <use ffdec:characterId="493" height="80.2" transform="matrix(0.2182, -0.1412, 0.1412, 0.2182, -11.1286, -12.4198)" width="84.05" xlink:href="#shape0"/>
    <use ffdec:characterId="484" height="14.25" transform="matrix(1.0, 0.0, 0.0, 1.0, -1.65, -12.45)" width="17.25" xlink:href="#morphshape0"/>
    <use ffdec:characterId="485" height="32.9" transform="matrix(1.0, 0.0, 0.0, 1.0, -8.3, -25.1)" width="14.85" xlink:href="#morphshape1"/>
    <use ffdec:characterId="486" height="16.1" transform="matrix(1.0, 0.0, 0.0, 1.0, -3.8, -10.1)" width="37.7" xlink:href="#morphshape2"/>
    <use ffdec:characterId="487" height="14.95" transform="matrix(1.0, 0.0, 0.0, 1.0, -1.6, -3.35)" width="25.7" xlink:href="#morphshape3"/>
    <use ffdec:characterId="488" height="14.75" transform="matrix(1.0, 0.0, 0.0, 1.0, -1.45, 0.1)" width="12.45" xlink:href="#morphshape4"/>
    <use ffdec:characterId="489" height="11.1" transform="matrix(1.0, 0.0, 0.0, 1.0, -23.2, -5.75)" width="21.9" xlink:href="#morphshape5"/>
    <use ffdec:characterId="490" height="29.05" transform="matrix(1.0, 0.0, 0.0, 1.0, -27.6, -27.15)" width="28.55" xlink:href="#morphshape6"/>
    <use ffdec:characterId="491" height="22.9" transform="matrix(1.0, 0.0, 0.0, 1.0, -8.2, -0.8)" width="15.25" xlink:href="#morphshape7"/>
    <use ffdec:characterId="492" height="22.4" transform="matrix(1.0, 0.0, 0.0, 1.0, -31.95, -2.05)" width="34.55" xlink:href="#morphshape8"/>
  </g>
  <defs>
    <g id="shape0" transform="matrix(1.0, 0.0, 0.0, 1.0, 42.0, 40.1)">
      <path d="M39.55 -8.9 L19.8 10.35 24.45 37.6 0.0 24.75 -24.4 37.6 -19.75 10.35 -39.5 -8.9 -12.2 -12.85 0.0 -37.6 12.2 -12.85 39.55 -8.9 Z" fill="none" stroke="#ffffff" stroke-linecap="round" stroke-linejoin="round" stroke-width="5.0"/>
      <path d="M12.2 -12.85 L39.55 -8.9 19.8 10.35 24.45 37.6 0.0 24.75 -24.4 37.6 -19.75 10.35 -39.5 -8.9 -12.2 -12.85 0.0 -37.6 12.2 -12.85" fill="url(#gradient0)" fill-rule="evenodd" stroke="none"/>
    </g>
    <linearGradient gradientTransform="matrix(0.0482, 0.0, 0.0, 0.0459, 0.0, 0.0)" gradientUnits="userSpaceOnUse" id="gradient0" spreadMethod="pad" x1="-819.2" x2="819.2">
      <stop offset="0.0" stop-color="#ff6600"/>
      <stop offset="1.0" stop-color="#ffcc00"/>
    </linearGradient>
    <g id="morphshape0" transform="matrix(1.0, 0.0, 0.0, 1.0, 1.65, 12.45)">
      <path d="M1.95 -5.75 Q1.9 -4.6 2.35 -3.45 2.65 -3.15 2.95 -2.9 5.25 -0.8 8.15 -0.95 9.45 -2.0 10.05 -3.5 11.0 -6.4 8.85 -8.85 L5.45 -9.25 3.85 -8.7 Q2.3 -7.55 1.9 -5.8" fill="#ffffff" fill-rule="evenodd" stroke="none"/>
      <path d="M1.85 -5.85 Q2.25 -7.6 3.8 -8.75 L5.4 -9.3 8.8 -8.9 Q10.95 -6.45 10.0 -3.55 9.4 -2.05 8.1 -1.0 5.2 -0.85 2.9 -2.95 2.6 -3.2 2.3 -3.5 1.85 -4.65 1.9 -5.8 2.3 -7.55 3.85 -8.7 L5.45 -9.25 8.85 -8.85 Q11.0 -6.4 10.05 -3.5 9.45 -2.0 8.15 -0.95 5.25 -0.8 2.95 -2.9 2.65 -3.15 2.35 -3.45 1.9 -4.6 1.95 -5.75" fill="none" stroke="#000000" stroke-linecap="round" stroke-linejoin="round" stroke-width="1.0"/>
    </g>
    <g id="morphshape1" transform="matrix(1.0, 0.0, 0.0, 1.0, 8.3, 25.1)">
      <path d="M-3.8 -11.0 Q-7.85 -5.3 -3.45 0.5 L-3.25 0.85 -2.5 1.0 0.4 0.85 Q2.15 0.1 3.1 -1.2 L3.4 -1.65 3.85 -2.0 3.85 -2.55 Q6.8 -7.5 4.3 -10.8 L3.3 -12.35 Q3.5 -15.9 -2.75 -12.35 L-3.75 -10.95" fill="#ffffff" fill-rule="evenodd" stroke="none"/>
      <path d="M-3.7 -10.9 L-2.7 -12.3 Q3.55 -15.85 3.35 -12.3 L4.35 -10.75 Q6.85 -7.45 3.9 -2.5 L3.9 -1.95 3.45 -1.6 3.15 -1.15 Q2.2 0.15 0.45 0.9 L-2.45 1.05 -3.2 0.9 -3.4 0.55 Q-7.8 -5.25 -3.75 -10.95 L-2.75 -12.35 Q3.5 -15.9 3.3 -12.35 L4.3 -10.8 Q6.8 -7.5 3.85 -2.55 L3.85 -2.0 3.4 -1.65 3.1 -1.2 Q2.15 0.1 0.4 0.85 L-2.5 1.0 -3.25 0.85 -3.45 0.5 Q-7.85 -5.3 -3.8 -11.0" fill="none" stroke="#000000" stroke-linecap="round" stroke-linejoin="round" stroke-width="1.0"/>
    </g>
    <g id="morphshape2" transform="matrix(1.0, 0.0, 0.0, 1.0, 3.8, 10.1)">
      <path d="M4.85 -0.7 L5.95 1.2 Q6.7 3.9 9.65 2.15 13.95 1.3 14.85 -0.9 16.35 -2.55 14.95 -4.15 14.35 -6.8 12.55 -6.35 L7.5 -5.7 Q3.25 -5.0 4.75 -0.7" fill="#ffffff" fill-rule="evenodd" stroke="none"/>
      <path d="M4.65 -0.7 Q3.15 -5.0 7.4 -5.7 L12.45 -6.35 Q14.25 -6.8 14.85 -4.15 16.25 -2.55 14.75 -0.9 13.85 1.3 9.55 2.15 6.6 3.9 5.85 1.2 L4.75 -0.7 Q3.25 -5.0 7.5 -5.7 L12.55 -6.35 Q14.35 -6.8 14.95 -4.15 16.35 -2.55 14.85 -0.9 13.95 1.3 9.65 2.15 6.7 3.9 5.95 1.2 L4.85 -0.7" fill="none" stroke="#000000" stroke-linecap="round" stroke-linejoin="round" stroke-width="1.0"/>
    </g>
    <g id="morphshape3" transform="matrix(1.0, 0.0, 0.0, 1.0, 1.6, 3.35)">
      <path d="M3.8 2.95 L5.35 5.9 Q8.25 9.0 12.15 6.25 12.85 5.55 13.05 3.15 11.95 -0.4 9.55 -0.35 7.1 -0.3 4.35 0.5 L3.8 2.95" fill="#ffffff" fill-rule="evenodd" stroke="none"/>
      <path d="M3.8 2.95 L4.35 0.5 Q7.1 -0.3 9.55 -0.35 11.95 -0.4 13.05 3.15 12.85 5.55 12.15 6.25 8.25 9.0 5.35 5.9 L3.8 2.95 4.35 0.5 Q7.1 -0.3 9.55 -0.35 11.95 -0.4 13.05 3.15 12.85 5.55 12.15 6.25 8.25 9.0 5.35 5.9 L3.8 2.95 Z" fill="none" stroke="#000000" stroke-linecap="round" stroke-linejoin="round" stroke-width="1.0"/>
    </g>
    <g id="morphshape4" transform="matrix(1.0, 0.0, 0.0, 1.0, 1.45, -0.1)">
      <path d="M1.95 8.15 L4.0 9.1 Q6.55 9.85 8.3 7.2 8.9 4.45 6.05 3.75 4.8 2.5 2.15 4.35 -0.15 5.5 2.0 8.15" fill="#ffffff" fill-rule="evenodd" stroke="none"/>
      <path d="M2.05 8.15 Q-0.1 5.5 2.2 4.35 4.85 2.5 6.1 3.75 8.95 4.45 8.35 7.2 6.6 9.85 4.05 9.1 L2.0 8.15 Q-0.15 5.5 2.15 4.35 4.8 2.5 6.05 3.75 8.9 4.45 8.3 7.2 6.55 9.85 4.0 9.1 L1.95 8.15" fill="none" stroke="#000000" stroke-linecap="round" stroke-linejoin="round" stroke-width="1.0"/>
    </g>
    <g id="morphshape5" transform="matrix(1.0, 0.0, 0.0, 1.0, 23.2, 5.75)">
      <path d="M-13.6 0.0 Q-12.95 4.55 -9.3 2.5 L-6.65 1.7 -6.05 -1.15 -6.85 -3.05 Q-7.3 -6.2 -13.35 -2.7 L-13.55 0.05" fill="#ffffff" fill-rule="evenodd" stroke="none"/>
      <path d="M-13.5 0.1 L-13.3 -2.65 Q-7.25 -6.15 -6.8 -3.0 L-6.0 -1.1 -6.6 1.75 -9.25 2.55 Q-12.9 4.6 -13.55 0.05 L-13.35 -2.7 Q-7.3 -6.2 -6.85 -3.05 L-6.05 -1.15 -6.65 1.7 -9.3 2.5 Q-12.95 4.55 -13.6 0.0" fill="none" stroke="#000000" stroke-linecap="round" stroke-linejoin="round" stroke-width="1.0"/>
    </g>
    <g id="morphshape6" transform="matrix(1.0, 0.0, 0.0, 1.0, 27.6, 27.15)">
      <path d="M-10.15 -9.2 Q-13.0 -6.55 -10.15 -4.55 -8.75 -4.35 -5.95 -5.55 L-5.5 -9.0 Q-7.2 -11.25 -10.1 -9.25" fill="#ffffff" fill-rule="evenodd" stroke="none"/>
      <path d="M-10.05 -9.3 Q-7.15 -11.3 -5.45 -9.05 L-5.9 -5.6 Q-8.7 -4.4 -10.1 -4.6 -12.95 -6.6 -10.1 -9.25 -7.2 -11.25 -5.5 -9.0 L-5.95 -5.55 Q-8.75 -4.35 -10.15 -4.55 -13.0 -6.55 -10.15 -9.2" fill="none" stroke="#000000" stroke-linecap="round" stroke-linejoin="round" stroke-width="1.0"/>
    </g>
    <g id="morphshape7" transform="matrix(1.0, 0.0, 0.0, 1.0, 8.2, 0.8)">
      <path d="M-6.8 12.25 Q-3.95 13.2 0.75 13.55 5.5 13.85 3.8 4.25 L-2.75 3.85 -5.05 5.4 -6.8 12.3" fill="#ffffff" fill-rule="evenodd" stroke="none"/>
      <path d="M-6.8 12.35 L-5.05 5.45 -2.75 3.9 3.8 4.3 Q5.5 13.9 0.75 13.6 -3.95 13.25 -6.8 12.3 L-5.05 5.4 -2.75 3.85 3.8 4.25 Q5.5 13.85 0.75 13.55 -3.95 13.2 -6.8 12.25" fill="none" stroke="#000000" stroke-linecap="round" stroke-linejoin="round" stroke-width="1.0"/>
    </g>
    <g id="morphshape8" transform="matrix(1.0, 0.0, 0.0, 1.0, 31.95, 2.05)">
      <path d="M-13.25 5.7 Q-15.35 7.5 -13.25 9.3 -9.7 12.75 -6.15 9.1 -3.9 7.25 -5.2 4.45 -6.8 1.95 -9.85 3.1 -11.55 2.0 -13.3 5.6" fill="#ffffff" fill-rule="evenodd" stroke="none"/>
      <path d="M-13.35 5.5 Q-11.6 1.9 -9.9 3.0 -6.85 1.85 -5.25 4.35 -3.95 7.15 -6.2 9.0 -9.75 12.65 -13.3 9.2 -15.4 7.4 -13.3 5.6 -11.55 2.0 -9.85 3.1 -6.8 1.95 -5.2 4.45 -3.9 7.25 -6.15 9.1 -9.7 12.75 -13.25 9.3 -15.35 7.5 -13.25 5.7" fill="none" stroke="#000000" stroke-linecap="round" stroke-linejoin="round" stroke-width="1.0"/>
    </g>
  </defs>
</svg>
