<?xml version="1.0" encoding="UTF-8" standalone="no"?>
<svg xmlns:ffdec="https://www.free-decompiler.com/flash" xmlns:xlink="http://www.w3.org/1999/xlink" ffdec:objectType="shape" height="17.25px" width="34.95px" xmlns="http://www.w3.org/2000/svg">
  <g transform="matrix(1.0, 0.0, 0.0, 1.0, 21.25, 10.1)">
    <path d="M5.7 -3.5 L6.05 -3.65 Q8.4 -4.15 10.45 -3.25 14.2 -1.65 13.65 2.6 13.55 3.45 13.05 4.05 L13.0 4.05 Q12.15 5.5 9.65 5.75 4.25 6.25 1.75 1.95 L1.6 1.85 1.5 1.45 1.45 1.4 1.4 0.8 1.4 -0.35 Q1.6 -1.85 3.15 -2.45 L5.7 -3.5" fill="#ffffff" fill-rule="evenodd" stroke="none"/>
    <path d="M-20.35 -6.45 L-19.75 -7.25 Q-16.65 -9.65 -12.7 -9.9 -7.05 -10.85 -3.5 -6.9 -0.55 -3.6 -1.1 0.95 -1.35 3.2 -3.25 4.65 -5.15 6.2 -7.5 6.7 L-12.95 7.15 -14.6 6.7 Q-15.35 6.3 -16.15 6.0 -17.95 5.4 -18.85 3.85 -20.95 2.45 -21.2 -0.1 -21.5 -3.5 -20.35 -6.45" fill="#ffffff" fill-rule="evenodd" stroke="none"/>
  </g>
</svg>
