<?xml version="1.0" encoding="UTF-8" standalone="no"?>
<svg xmlns:ffdec="https://www.free-decompiler.com/flash" xmlns:xlink="http://www.w3.org/1999/xlink" ffdec:objectType="frame" height="21.6px" width="39.4px" xmlns="http://www.w3.org/2000/svg">
  <g transform="matrix(1.0, 0.0, 0.0, 1.0, 23.5, 12.3)">
    <use ffdec:characterId="12" height="17.25" transform="matrix(1.0, 0.0, 0.0, 1.0, -21.25, -10.1)" width="34.95" xlink:href="#shape0"/>
    <use ffdec:characterId="14" height="7.8" transform="matrix(1.0, 0.0, 0.0, 1.0, -16.85, -2.6)" width="25.55" xlink:href="#sprite0"/>
    <use ffdec:characterId="16" height="19.3" transform="matrix(1.0, 0.0, 0.0, 1.0, -22.45, -11.05)" width="37.45" xlink:href="#shape2"/>
    <use ffdec:characterId="15" height="21.6" transform="matrix(1.0, 0.0, 0.0, 1.0, -23.5, -12.3)" width="39.4" xlink:href="#shape3"/>
  </g>
  <defs>
    <g id="shape0" transform="matrix(1.0, 0.0, 0.0, 1.0, 21.25, 10.1)">
      <path d="M5.7 -3.5 L6.05 -3.65 Q8.4 -4.15 10.45 -3.25 14.2 -1.65 13.65 2.6 13.55 3.45 13.05 4.05 L13.0 4.05 Q12.15 5.5 9.65 5.75 4.25 6.25 1.75 1.95 L1.6 1.85 1.5 1.45 1.45 1.4 1.4 0.8 1.4 -0.35 Q1.6 -1.85 3.15 -2.45 L5.7 -3.5" fill="#ffffff" fill-rule="evenodd" stroke="none"/>
      <path d="M-20.35 -6.45 L-19.75 -7.25 Q-16.65 -9.65 -12.7 -9.9 -7.05 -10.85 -3.5 -6.9 -0.55 -3.6 -1.1 0.95 -1.35 3.2 -3.25 4.65 -5.15 6.2 -7.5 6.7 L-12.95 7.15 -14.6 6.7 Q-15.35 6.3 -16.15 6.0 -17.95 5.4 -18.85 3.85 -20.95 2.45 -21.2 -0.1 -21.5 -3.5 -20.35 -6.45" fill="#ffffff" fill-rule="evenodd" stroke="none"/>
    </g>
    <g id="sprite0" transform="matrix(1.0, 0.0, 0.0, 1.0, 2.75, 0.0)">
      <use ffdec:characterId="13" height="5.35" transform="matrix(1.0, 0.0, 0.0, 1.0, 0.0, 0.0)" width="22.8" xlink:href="#shape1"/>
    </g>
    <g id="shape1" transform="matrix(1.0, 0.0, 0.0, 1.0, 2.75, -2.45)">
      <path d="M20.05 6.1 Q20.1 6.9 19.55 7.35 L18.6 7.8 18.5 7.8 17.9 7.65 17.35 7.5 16.75 6.95 Q16.25 6.45 16.35 5.8 L16.4 5.75 16.5 5.45 17.2 4.75 17.55 4.7 Q18.9 4.3 19.7 5.2 20.05 5.55 20.05 6.1" fill="#000000" fill-rule="evenodd" stroke="none"/>
      <path d="M1.1 3.95 Q1.3 5.05 0.7 5.9 0.5 6.25 0.0 6.3 -2.4 6.65 -2.7 4.4 -2.9 3.0 -1.65 2.55 -0.55 2.3 0.25 2.8 0.9 3.25 1.1 3.95" fill="#000000" fill-rule="evenodd" stroke="none"/>
    </g>
    <g id="shape2" transform="matrix(1.0, 0.0, 0.0, 1.0, 22.45, 11.05)">
      <path d="M14.3 -1.35 Q15.0 -0.3 15.0 0.95 15.0 4.15 12.2 5.55 L10.35 6.25 Q6.7 7.2 4.1 4.9 L3.2 3.55 Q0.15 2.6 1.1 -0.75 1.45 -1.95 2.45 -2.85 4.6 -4.7 7.4 -4.5 11.85 -4.75 14.3 -1.35" fill="#d79e4a" fill-rule="evenodd" stroke="none"/>
      <path d="M-20.6 -7.25 Q-18.55 -8.15 -16.7 -9.55 -14.4 -11.25 -11.45 -11.0 L-10.7 -11.0 Q-4.65 -10.7 -1.35 -6.0 0.6 -3.25 0.15 0.15 -0.4 4.4 -4.45 6.55 -7.05 7.9 -9.95 8.2 -15.3 8.7 -19.4 5.7 L-19.95 5.15 -21.45 2.65 Q-23.35 -1.8 -21.55 -6.25 -21.3 -6.95 -20.6 -7.25" fill="#d79e4a" fill-rule="evenodd" stroke="none"/>
    </g>
    <g id="shape3" transform="matrix(1.0, 0.0, 0.0, 1.0, 23.5, 12.3)">
      <path d="M1.4 -3.5 L1.95 -3.95 Q3.6 -5.2 5.4 -5.65 L5.45 -5.75 10.95 -5.5 11.45 -4.7 11.5 -4.6 11.9 -4.5 11.95 -4.5 12.1 -4.4 12.9 -3.85 Q15.7 -1.75 15.9 1.25 L15.65 2.75 15.55 3.1 12.35 6.85 Q11.8 6.95 11.35 7.3 L8.15 7.3 3.75 6.35 2.35 5.85 2.05 5.65 -0.15 2.7 -0.2 2.05 -0.25 0.25 -0.1 -1.4 -0.05 -1.75 1.1 -3.5 1.4 -3.5 M3.15 -2.45 Q1.6 -1.85 1.4 -0.35 L1.4 0.8 1.45 1.4 1.5 1.45 1.6 1.85 1.75 1.95 Q4.25 6.25 9.65 5.75 12.15 5.5 13.0 4.05 L13.05 4.05 Q13.55 3.45 13.65 2.6 14.2 -1.65 10.45 -3.25 8.4 -4.15 6.05 -3.65 L5.7 -3.5 3.15 -2.45" fill="#000000" fill-rule="evenodd" stroke="none"/>
      <path d="M0.85 -1.4 L0.85 1.3 0.9 1.5 Q0.15 3.1 -0.35 4.8 L-1.85 6.1 -2.9 7.0 Q-5.4 8.6 -8.3 9.25 L-8.35 9.3 -17.8 8.0 -18.55 7.25 -21.55 4.25 -22.3 3.5 -22.3 2.95 Q-23.65 1.2 -23.5 -1.2 L-23.15 -4.4 -22.75 -6.1 -22.3 -6.6 -22.3 -7.0 -21.2 -8.55 -19.65 -9.75 Q-16.8 -11.35 -14.05 -12.25 -4.75 -13.0 -0.3 -5.45 -0.2 -4.75 0.35 -4.0 L0.85 -1.4 M-20.35 -6.45 Q-21.5 -3.5 -21.2 -0.1 -20.95 2.45 -18.85 3.85 -17.95 5.4 -16.15 6.0 -15.35 6.3 -14.6 6.7 L-12.95 7.15 -7.5 6.7 Q-5.15 6.2 -3.25 4.65 -1.35 3.2 -1.1 0.95 -0.55 -3.6 -3.5 -6.9 -7.05 -10.85 -12.7 -9.9 -16.65 -9.65 -19.75 -7.25 L-20.35 -6.45" fill="#000000" fill-rule="evenodd" stroke="none"/>
    </g>
  </defs>
</svg>
