<?xml version="1.0" encoding="UTF-8" standalone="no"?>
<svg xmlns:ffdec="https://www.free-decompiler.com/flash" xmlns:xlink="http://www.w3.org/1999/xlink" ffdec:objectType="shape" height="21.6px" width="39.4px" xmlns="http://www.w3.org/2000/svg">
  <g transform="matrix(1.0, 0.0, 0.0, 1.0, 23.5, 12.3)">
    <path d="M1.4 -3.5 L1.95 -3.95 Q3.6 -5.2 5.4 -5.65 L5.45 -5.75 10.95 -5.5 11.45 -4.7 11.5 -4.6 11.9 -4.5 11.95 -4.5 12.1 -4.4 12.9 -3.85 Q15.7 -1.75 15.9 1.25 L15.65 2.75 15.55 3.1 12.35 6.85 Q11.8 6.95 11.35 7.3 L8.15 7.3 3.75 6.35 2.35 5.85 2.05 5.65 -0.15 2.7 -0.2 2.05 -0.25 0.25 -0.1 -1.4 -0.05 -1.75 1.1 -3.5 1.4 -3.5 M3.15 -2.45 Q1.6 -1.85 1.4 -0.35 L1.4 0.8 1.45 1.4 1.5 1.45 1.6 1.85 1.75 1.95 Q4.25 6.25 9.65 5.75 12.15 5.5 13.0 4.05 L13.05 4.05 Q13.55 3.45 13.65 2.6 14.2 -1.65 10.45 -3.25 8.4 -4.15 6.05 -3.65 L5.7 -3.5 3.15 -2.45" fill="#000000" fill-rule="evenodd" stroke="none"/>
    <path d="M0.85 -1.4 L0.85 1.3 0.9 1.5 Q0.15 3.1 -0.35 4.8 L-1.85 6.1 -2.9 7.0 Q-5.4 8.6 -8.3 9.25 L-8.35 9.3 -17.8 8.0 -18.55 7.25 -21.55 4.25 -22.3 3.5 -22.3 2.95 Q-23.65 1.2 -23.5 -1.2 L-23.15 -4.4 -22.75 -6.1 -22.3 -6.6 -22.3 -7.0 -21.2 -8.55 -19.65 -9.75 Q-16.8 -11.35 -14.05 -12.25 -4.75 -13.0 -0.3 -5.45 -0.2 -4.75 0.35 -4.0 L0.85 -1.4 M-20.35 -6.45 Q-21.5 -3.5 -21.2 -0.1 -20.95 2.45 -18.85 3.85 -17.95 5.4 -16.15 6.0 -15.35 6.3 -14.6 6.7 L-12.95 7.15 -7.5 6.7 Q-5.15 6.2 -3.25 4.65 -1.35 3.2 -1.1 0.95 -0.55 -3.6 -3.5 -6.9 -7.05 -10.85 -12.7 -9.9 -16.65 -9.65 -19.75 -7.25 L-20.35 -6.45" fill="#000000" fill-rule="evenodd" stroke="none"/>
  </g>
</svg>
