<?xml version="1.0" encoding="UTF-8" standalone="no"?>
<svg xmlns:ffdec="https://www.free-decompiler.com/flash" xmlns:xlink="http://www.w3.org/1999/xlink" ffdec:objectType="frame" height="328.3px" width="79.0px" xmlns="http://www.w3.org/2000/svg">
  <g transform="matrix(1.0, 0.0, 0.0, 1.0, 4.75, 0.75)">
    <use ffdec:characterId="572" height="328.3" transform="matrix(1.0, 0.0, 0.0, 1.0, -4.75, -0.75)" width="70.0" xlink:href="#shape0"/>
  </g>
  <defs>
    <g id="shape0" transform="matrix(1.0, 0.0, 0.0, 1.0, 0.75, 0.75)">
      <path d="M21.0 71.25 Q21.55 45.6 23.2 15.35 L24.05 0.0 33.5 6.75 34.75 15.35 35.45 20.6 36.85 35.4 37.05 37.7 37.35 42.15 37.4 42.85 37.85 50.35 37.9 51.95 38.85 73.45 39.1 80.45 39.3 87.4 39.6 99.05 39.6 99.4 39.6 99.75 39.6 100.05 39.75 106.25 39.75 106.65 39.8 107.8 39.8 108.1 39.8 109.0 40.05 119.1 Q39.3 119.35 38.7 119.8 L36.0 121.65 35.45 121.85 Q32.3 123.0 29.3 124.3 L29.3 124.65 29.35 124.7 28.25 124.95 27.7 125.0 34.9 125.8 37.15 125.85 40.2 126.1 40.3 129.05 40.6 140.8 Q41.15 158.5 41.85 172.95 L41.5 172.75 Q39.4 174.45 36.5 175.25 L25.75 178.35 Q25.65 179.1 26.3 179.3 33.15 181.65 40.5 179.6 L40.8 179.3 42.05 177.45 Q42.8 192.8 43.8 204.1 L48.0 253.3 48.55 259.15 49.6 271.3 50.5 278.8 Q50.1 278.25 49.0 278.25 45.4 279.85 41.3 280.9 29.95 283.85 19.25 285.85 19.2 287.1 20.5 287.1 L26.5 287.6 30.65 288.1 Q41.65 292.0 51.3 283.95 55.7 308.9 68.5 326.8 L0.0 326.8 3.8 308.25 Q8.2 286.0 10.85 269.05 L11.95 268.85 11.95 268.9 12.65 268.9 13.3 268.6 15.65 267.95 Q18.05 267.45 20.1 266.2 L21.95 265.2 21.45 265.2 20.7 265.15 20.65 265.1 19.3 264.8 17.1 264.8 Q15.45 264.65 13.95 264.1 12.8 263.7 11.75 263.1 L13.4 250.25 16.4 221.35 16.9 221.3 24.7 219.55 Q32.8 217.75 40.0 213.6 L40.3 213.3 40.7 212.6 40.75 212.25 Q40.45 211.85 40.1 211.85 L25.7 210.45 Q22.0 210.05 19.1 208.0 L18.5 207.8 17.7 207.75 19.0 193.1 19.15 190.8 Q20.15 177.7 20.6 159.1 L20.75 108.75 20.75 108.35 20.75 107.6 Q20.6 94.1 20.85 78.9 L20.85 78.6 21.1 78.8 21.55 79.05 24.4 77.05 24.45 77.0 Q26.25 75.75 32.0 74.0 L29.75 73.75 Q25.2 73.15 21.0 71.25 M36.85 35.4 Q36.35 31.75 36.15 27.8 L35.9 27.8 Q35.7 27.85 34.6 29.45 33.45 31.0 25.25 34.35 25.15 35.1 25.75 35.15 L36.5 35.45 36.85 35.4" fill="url(#gradient0)" fill-rule="evenodd" stroke="none"/>
      <path d="M13.95 264.1 Q15.45 264.65 17.1 264.8 L20.7 265.15 20.75 265.55 20.65 265.8 20.1 266.2 Q18.05 267.45 15.65 267.95 L15.0 268.05 Q14.1 268.2 13.3 268.6 L11.95 268.85 Q11.8 267.85 12.0 266.7 L11.9 265.4 11.55 264.5 10.9 263.45 11.1 263.15 11.7 263.4 13.95 264.1 M40.05 119.1 L40.2 119.05 Q41.0 120.55 39.75 122.35 38.8 123.8 38.7 125.55 35.65 125.85 32.55 125.55 L30.25 125.25 30.2 125.2 30.2 125.15 33.1 123.45 40.05 119.65 40.05 119.1 M32.25 124.7 L32.4 124.75 32.4 124.6 32.25 124.7 M12.9 267.55 L12.85 267.65 12.95 267.65 12.9 267.55" fill="#007e91" fill-rule="evenodd" stroke="none"/>
      <path d="M21.0 71.25 Q25.2 73.15 29.75 73.75 L32.0 74.0 Q26.25 75.75 24.45 77.0 L24.4 77.05 21.55 79.05 21.1 78.8 20.85 78.6 21.0 71.25" fill="url(#gradient1)" fill-rule="evenodd" stroke="none"/>
      <path d="M17.7 207.75 L18.5 207.8 19.1 208.0 Q22.0 210.05 25.7 210.45 L40.1 211.85 Q40.45 211.85 40.75 212.25 L40.7 212.6 40.3 213.3 40.0 213.6 Q32.8 217.75 24.7 219.55 L16.9 221.3 16.4 221.35 17.7 207.75 M19.25 217.35 L19.25 217.75 19.4 217.7 19.25 217.35" fill="url(#gradient2)" fill-rule="evenodd" stroke="none"/>
      <path d="M36.85 35.4 L36.5 35.45 25.75 35.15 Q25.15 35.1 25.25 34.35 33.45 31.0 34.6 29.45 35.7 27.85 35.9 27.8 L36.15 27.8 Q36.35 31.75 36.85 35.4" fill="url(#gradient3)" fill-rule="evenodd" stroke="none"/>
      <path d="M42.05 177.45 L40.8 179.3 40.5 179.6 Q33.15 181.65 26.3 179.3 25.65 179.1 25.75 178.35 L36.5 175.25 Q39.4 174.45 41.5 172.75 L41.85 172.95 42.05 177.45" fill="url(#gradient4)" fill-rule="evenodd" stroke="none"/>
      <path d="M51.3 283.95 Q41.65 292.0 30.65 288.1 L26.5 287.6 20.5 287.1 Q19.2 287.1 19.25 285.85 29.95 283.85 41.3 280.9 45.4 279.85 49.0 278.25 50.1 278.25 50.5 278.8 L50.6 279.75 50.55 279.95 50.35 280.35 50.65 281.5 50.75 281.85 50.95 281.9 51.3 283.95" fill="url(#gradient5)" fill-rule="evenodd" stroke="none"/>
      <path d="M36.05 6.9 L36.1 7.1 36.25 7.4 36.3 7.55 Q34.95 9.55 31.85 8.35 26.75 6.5 24.05 1.85 23.9 1.4 24.05 0.9 L24.35 0.45 25.0 0.25 25.0 0.2 25.4 0.35 25.7 0.45 Q29.0 6.2 35.8 6.85 L36.05 6.9 M28.5 16.35 L28.55 23.35 28.55 30.25 28.55 31.5 29.25 31.55 Q32.65 29.85 35.3 27.45 35.85 27.4 36.1 27.8 L36.15 27.95 Q34.65 30.5 31.75 32.1 30.1 33.05 28.55 32.95 L28.55 33.05 26.75 32.75 Q26.75 33.95 27.45 34.65 L27.5 34.8 28.55 35.45 28.55 37.25 28.55 44.15 28.6 51.15 28.6 58.05 28.6 65.05 28.6 71.95 28.6 72.6 31.5 73.45 31.5 73.85 31.35 74.1 Q28.75 74.5 26.65 73.55 23.35 73.35 20.55 71.05 L20.45 70.75 20.45 70.45 20.45 70.3 20.6 70.0 20.9 69.7 21.15 69.6 21.45 69.55 21.45 69.5 23.95 70.7 24.15 70.5 24.0 62.1 23.9 49.65 23.95 42.35 24.05 35.75 Q24.1 31.6 24.5 27.4 L24.95 22.8 Q25.15 20.9 25.5 19.0 L26.05 16.0 28.5 16.35 M23.95 220.1 L25.25 219.35 25.25 219.2 26.75 218.0 26.35 224.45 25.95 231.85 25.4 239.25 24.9 246.6 24.55 251.4 24.2 256.1 23.9 260.8 23.5 265.5 23.15 270.25 22.8 274.95 22.5 279.65 22.2 283.15 23.95 282.95 25.3 282.85 Q36.9 280.65 47.95 276.65 L48.4 276.5 49.2 276.65 49.5 276.75 49.7 277.05 49.85 277.55 49.75 277.85 49.5 278.3 Q38.65 282.65 27.05 284.85 L23.4 285.75 21.95 285.9 21.5 289.3 19.9 298.85 18.9 303.45 Q17.8 308.0 15.95 312.2 L14.0 316.35 12.0 320.45 10.85 315.7 Q10.4 313.2 10.4 310.65 10.4 307.9 10.85 305.2 11.35 302.25 12.15 299.35 L13.6 293.95 15.0 288.45 16.1 282.9 17.1 277.3 18.15 269.95 18.9 264.75 Q15.2 264.6 12.3 262.45 L12.35 262.15 12.45 261.85 12.7 261.55 12.9 261.4 13.35 261.3 19.15 262.6 20.0 255.3 20.85 247.9 21.6 240.55 22.3 233.15 22.9 225.75 23.3 220.2 23.95 220.1 M24.25 77.9 Q26.3 76.25 28.65 75.4 L28.7 78.95 28.7 85.85 28.75 92.85 28.75 99.75 28.85 106.75 28.85 113.65 28.85 120.6 28.85 122.6 Q34.2 122.25 38.25 118.2 38.3 118.1 38.4 118.1 38.8 118.1 39.0 118.45 L39.05 118.6 Q36.2 122.95 30.75 124.15 L28.85 124.2 28.85 127.5 28.95 135.05 28.9 142.55 28.85 150.05 28.8 157.5 28.65 165.0 28.5 172.45 28.45 176.5 Q35.3 175.05 41.45 171.45 L41.95 171.7 42.05 171.8 42.1 172.4 42.0 172.8 Q37.35 175.45 32.3 177.45 L26.75 177.8 26.65 177.65 25.65 178.1 Q26.7 179.35 28.3 180.05 L28.1 187.35 27.8 194.85 27.5 202.25 27.2 209.65 27.2 209.85 30.15 209.65 32.1 209.45 Q37.25 209.2 41.55 211.05 L41.55 211.3 41.35 211.75 24.05 210.4 Q20.5 210.1 18.3 207.2 18.1 206.65 18.5 206.25 L18.95 206.05 Q21.15 208.35 23.95 209.25 L24.3 203.35 24.6 195.85 24.85 188.35 25.05 180.85 25.15 173.35 25.2 165.85 25.15 158.25 25.1 150.85 25.05 143.55 24.95 136.5 24.9 129.6 24.85 122.95 24.8 116.45 24.7 110.15 24.6 104.05 24.6 101.1 24.6 98.15 24.6 95.3 24.55 92.45 24.5 89.7 24.4 86.95 24.35 84.25 24.3 81.55 24.25 77.9" fill="#ffffff" fill-rule="evenodd" stroke="none"/>
      <path d="M21.0 71.25 L20.85 78.6 Q20.65 77.15 20.75 75.6 L20.65 75.3 Q19.35 73.35 20.45 71.65 L21.0 71.25 M17.7 207.75 L16.4 221.35 15.85 221.1 Q16.0 218.5 16.7 215.85 L16.75 215.5 Q16.45 212.85 17.1 210.6 16.8 210.1 16.85 208.5 16.85 207.85 17.5 207.75 L17.7 207.75 M11.75 263.1 Q12.8 263.7 13.95 264.1 L11.7 263.4 11.1 263.15 11.3 263.0 11.45 262.95 11.75 263.1 11.7 263.4 11.75 263.1 M17.1 264.8 L19.3 264.8 20.65 265.1 20.7 265.15 17.1 264.8 M13.3 268.6 L12.65 268.9 11.95 268.9 11.95 268.85 13.3 268.6 M40.05 119.65 L33.1 123.45 36.0 121.65 38.7 119.8 Q39.3 119.35 40.05 119.1 L40.05 119.65 M41.85 172.95 Q43.2 173.8 42.7 175.65 L42.75 176.0 42.05 177.45 41.85 172.95 M50.95 281.9 Q51.85 282.25 51.55 283.45 L51.35 283.85 51.3 283.95 50.95 281.9" fill="#00edf9" fill-rule="evenodd" stroke="none"/>
      <path d="M20.7 265.15 L21.45 265.2 21.95 265.2 20.1 266.2 20.65 265.8 20.75 265.55 20.7 265.15 M15.65 267.95 L13.3 268.6 Q14.1 268.2 15.0 268.05 L15.65 267.95 M11.95 268.85 L10.85 269.05 11.55 264.5 11.9 265.4 12.0 266.7 Q11.8 267.85 11.95 268.85 M29.35 124.7 L30.2 125.2 30.25 125.25 32.55 125.55 34.9 125.8 27.7 125.0 28.25 124.95 29.35 124.7 M50.6 279.75 L50.95 281.9 50.75 281.85 50.65 281.5 50.35 280.35 50.55 279.95 50.6 279.75 M19.4 217.7 L19.25 217.75 19.25 217.35 19.4 217.7 M12.95 267.65 L12.85 267.65 12.9 267.55 12.95 267.65" fill="url(#gradient6)" fill-rule="evenodd" stroke="none"/>
      <path d="M40.05 119.1 L39.8 109.0 39.8 108.1 39.8 107.8 39.75 106.65 39.75 106.25 39.6 100.05 39.6 99.75 39.6 99.4 39.6 99.05 39.3 87.4 39.1 80.45 38.85 73.45 37.9 51.95 37.85 50.35 37.4 42.85 37.35 42.15 37.05 37.7 36.85 35.4 35.45 20.6 34.75 15.35 33.5 6.75 24.05 0.0 23.2 15.35 Q21.55 45.6 21.0 71.25 L20.85 78.6 20.85 78.9 Q20.6 94.1 20.75 107.6 L20.75 108.35 20.75 108.75 20.6 159.1 Q20.15 177.7 19.15 190.8 L19.0 193.1 17.7 207.75 16.4 221.35 13.4 250.25 11.75 263.1 11.7 263.4 M10.85 269.05 Q8.2 286.0 3.8 308.25 L0.0 326.8 M40.2 125.6 L40.2 126.1 40.3 129.05 40.6 140.8 Q41.15 158.5 41.85 172.95 L42.05 177.45 Q42.8 192.8 43.8 204.1 L48.0 253.3 48.55 259.15 49.6 271.3 50.5 278.8 50.6 279.75 50.95 281.9 51.3 283.95 Q55.7 308.9 68.5 326.8 M40.05 119.1 L40.05 119.65" fill="none" stroke="#000000" stroke-linecap="round" stroke-linejoin="round" stroke-width="1.5"/>
      <path d="M13.95 264.1 Q15.45 264.65 17.1 264.8 L20.7 265.15 21.45 265.2 21.95 265.2 20.1 266.2 Q18.05 267.45 15.65 267.95 L13.3 268.6 11.95 268.85 10.85 269.05 M40.05 119.65 L33.1 123.45 29.35 124.7 28.25 124.95 27.7 125.0 34.9 125.8 40.2 125.6 M11.7 263.4 L13.95 264.1 M11.7 263.4 L11.1 263.15" fill="none" stroke="#000000" stroke-linecap="round" stroke-linejoin="round" stroke-width="1.5"/>
    </g>
    <linearGradient gradientTransform="matrix(0.0374, 0.0023, -0.0123, 0.199, 37.25, 162.4)" gradientUnits="userSpaceOnUse" id="gradient0" spreadMethod="pad" x1="-819.2" x2="819.2">
      <stop offset="0.0" stop-color="#ffffff"/>
      <stop offset="0.32941176470588235" stop-color="#d4ffff" stop-opacity="0.9019608"/>
      <stop offset="1.0" stop-color="#33ffff" stop-opacity="0.5019608"/>
    </linearGradient>
    <linearGradient gradientTransform="matrix(0.0068, 0.0, 0.0, 0.0048, 26.4, 75.15)" gradientUnits="userSpaceOnUse" id="gradient1" spreadMethod="pad" x1="-819.2" x2="819.2">
      <stop offset="0.0" stop-color="#028e8d" stop-opacity="0.5019608"/>
      <stop offset="1.0" stop-color="#9feae9"/>
    </linearGradient>
    <linearGradient gradientTransform="matrix(0.0149, 0.0, 0.0, 0.0083, 28.55, 214.55)" gradientUnits="userSpaceOnUse" id="gradient2" spreadMethod="pad" x1="-819.2" x2="819.2">
      <stop offset="0.0" stop-color="#028e8d" stop-opacity="0.5019608"/>
      <stop offset="1.0" stop-color="#9feae9"/>
    </linearGradient>
    <linearGradient gradientTransform="matrix(0.0071, 0.0, 0.0, 0.0047, 31.05, 31.6)" gradientUnits="userSpaceOnUse" id="gradient3" spreadMethod="pad" x1="-819.2" x2="819.2">
      <stop offset="0.0" stop-color="#9feae9"/>
      <stop offset="1.0" stop-color="#028e8d" stop-opacity="0.5019608"/>
    </linearGradient>
    <linearGradient gradientTransform="matrix(0.0099, 0.0, 0.0, 0.0048, 33.9, 176.65)" gradientUnits="userSpaceOnUse" id="gradient4" spreadMethod="pad" x1="-819.2" x2="819.2">
      <stop offset="0.0" stop-color="#9feae9"/>
      <stop offset="1.0" stop-color="#028e8d" stop-opacity="0.5019608"/>
    </linearGradient>
    <linearGradient gradientTransform="matrix(0.0196, 0.0, 0.0, 0.0068, 35.25, 283.8)" gradientUnits="userSpaceOnUse" id="gradient5" spreadMethod="pad" x1="-819.2" x2="819.2">
      <stop offset="0.0" stop-color="#9feae9"/>
      <stop offset="1.0" stop-color="#028e8d" stop-opacity="0.5019608"/>
    </linearGradient>
    <linearGradient gradientTransform="matrix(0.0374, 0.0023, -0.0123, 0.199, 37.25, 162.4)" gradientUnits="userSpaceOnUse" id="gradient6" spreadMethod="pad" x1="-819.2" x2="819.2">
      <stop offset="0.0" stop-color="#ffffff"/>
      <stop offset="0.32941176470588235" stop-color="#d4ffff" stop-opacity="0.9019608"/>
      <stop offset="1.0" stop-color="#33ffff" stop-opacity="0.5019608"/>
    </linearGradient>
  </defs>
</svg>
