<?xml version="1.0" encoding="UTF-8" standalone="no"?>
<svg xmlns:ffdec="https://www.free-decompiler.com/flash" xmlns:xlink="http://www.w3.org/1999/xlink" ffdec:objectType="frame" height="136.6px" width="136.6px" xmlns="http://www.w3.org/2000/svg">
  <g transform="matrix(1.0, 0.0, 0.0, 1.0, 51.35, 49.65)">
    <use ffdec:characterId="405" height="99.0" id="mcScale" transform="matrix(-0.7071, -0.7071, -0.7071, 0.7071, 85.2293, 16.946)" width="94.15" xlink:href="#sprite0"/>
    <use ffdec:characterId="406" height="36.3" transform="matrix(1.0, 0.0, 0.0, 1.0, -3.1, -3.15)" width="36.3" xlink:href="#shape3"/>
    <clipPath id="clipPath2">
      <path d="M 15.05 1.95 L 14.38 1.97 L 13.71 2.01 L 13.06 2.09 L 12.43 2.19 L 11.8 2.33 L 11.19 2.49 L 10.6 2.69 L 10.01 2.91 L 9.44 3.17 L 8.88 3.45 L 8.34 3.77 L 7.8 4.12 L 7.28 4.49 L 6.78 4.9 L 6.28 5.33 L 5.8 5.8 L 5.33 6.28 L 4.9 6.78 L 4.49 7.28 L 4.12 7.8 L 3.77 8.34 L 3.45 8.88 L 3.17 9.44 L 2.91 10.01 L 2.69 10.6 L 2.49 11.19 L 2.33 11.8 L 2.19 12.43 L 2.09 13.06 L 2.01 13.71 L 1.97 14.38 L 1.95 15.05 L 1.97 15.72 L 2.01 16.38 L 2.09 17.02 L 2.19 17.65 L 2.33 18.27 L 2.49 18.88 L 2.69 19.48 L 2.91 20.06 L 3.17 20.63 L 3.45 21.19 L 3.77 21.74 L 4.12 22.28 L 4.49 22.8 L 4.9 23.31 L 5.33 23.81 L 5.8 24.3 L 6.28 24.76 L 6.78 25.19 L 7.28 25.59 L 7.8 25.96 L 8.34 26.3 L 8.88 26.62 L 9.44 26.9 L 10.01 27.15 L 10.6 27.37 L 11.19 27.57 L 11.8 27.73 L 12.43 27.86 L 13.06 27.97 L 13.71 28.04 L 14.38 28.09 L 15.05 28.1 L 15.72 28.09 L 16.38 28.04 L 17.02 27.97 L 17.65 27.86 L 18.27 27.73 L 18.88 27.57 L 19.47 27.37 L 20.05 27.15 L 20.62 26.9 L 21.17 26.62 L 21.72 26.3 L 22.25 25.96 L 22.77 25.59 L 23.27 25.19 L 23.77 24.76 L 24.25 24.3 L 24.72 23.81 L 25.15 23.31 L 25.56 22.8 L 25.93 22.28 L 26.28 21.74 L 26.6 21.19 L 26.88 20.63 L 27.14 20.06 L 27.36 19.48 L 27.56 18.88 L 27.72 18.27 L 27.86 17.65 L 27.96 17.02 L 28.04 16.38 L 28.08 15.72 L 28.1 15.05 L 28.08 14.38 L 28.04 13.71 L 27.96 13.06 L 27.86 12.43 L 27.72 11.8 L 27.56 11.19 L 27.36 10.6 L 27.14 10.01 L 26.88 9.44 L 26.6 8.88 L 26.28 8.34 L 25.93 7.8 L 25.56 7.28 L 25.15 6.78 L 24.72 6.28 L 24.25 5.8 L 23.77 5.33 L 23.27 4.9 L 22.77 4.49 L 22.25 4.12 L 21.72 3.77 L 21.17 3.45 L 20.62 3.17 L 20.05 2.91 L 19.47 2.69 L 18.88 2.49 L 18.27 2.33 L 17.65 2.19 L 17.02 2.09 L 16.38 2.01 L 15.72 1.97 L 15.05 1.95 Z"/>
    </clipPath>
    <g clip-path="url(#clipPath2)">
      <use ffdec:characterId="408" height="20.7" transform="matrix(1.0, 0.0, 0.0, 1.0, 6.75, 6.15)" width="19.25" xlink:href="#shape4"/>
    </g>
    <use ffdec:characterId="387" height="26.1" transform="matrix(1.0, 0.0, 0.0, 1.0, 1.8, 1.9)" width="26.15" xlink:href="#shape5"/>
    <use ffdec:characterId="292" height="26.2" transform="matrix(1.0, 0.0, 0.0, 1.0, 1.8, 1.9)" width="26.25" xlink:href="#sprite1"/>
    <use ffdec:characterId="409" height="12.0" transform="matrix(2.5, 0.0, 0.0, 2.5, 0.6748, -2.0E-4)" width="11.95" xlink:href="#button0"/>
  </g>
  <defs>
    <g id="sprite0" transform="matrix(1.0, 0.0, 0.0, 1.0, 15.15, 13.6)">
      <use ffdec:characterId="400" height="62.1" transform="matrix(1.0, 0.0, 0.0, 1.0, -0.4, -1.0)" width="62.55" xlink:href="#shape0"/>
      <clipPath id="clipPath0">
        <path d="M 35.6 1 L 34.72 1.01 L 33.85 1.04 L 32.99 1.09 L 32.14 1.16 L 31.3 1.24 L 30.46 1.35 L 29.63 1.48 L 28.81 1.62 L 28 1.79 L 27.19 1.97 L 26.4 2.18 L 25.61 2.4 L 24.83 2.64 L 24.06 2.9 L 23.29 3.19 L 22.54 3.49 L 21.79 3.81 L 21.05 4.15 L 20.32 4.51 L 19.6 4.89 L 18.88 5.29 L 18.17 5.7 L 17.48 6.14 L 16.78 6.6 L 16.1 7.07 L 15.43 7.57 L 14.76 8.08 L 14.1 8.62 L 13.45 9.17 L 12.81 9.75 L 12.18 10.34 L 11.55 10.95 L 10.94 11.58 L 10.35 12.21 L 9.77 12.85 L 9.22 13.5 L 8.68 14.16 L 8.17 14.83 L 7.67 15.5 L 7.2 16.18 L 6.74 16.88 L 6.3 17.57 L 5.89 18.28 L 5.49 19 L 5.11 19.72 L 4.75 20.45 L 4.41 21.19 L 4.09 21.94 L 3.79 22.69 L 3.5 23.46 L 3.24 24.23 L 3 25.01 L 2.78 25.8 L 2.57 26.59 L 2.39 27.4 L 2.22 28.21 L 2.08 29.03 L 1.95 29.86 L 1.84 30.7 L 1.76 31.54 L 1.69 32.39 L 1.64 33.25 L 1.61 34.12 L 1.6 35 L 1.61 35.85 L 1.64 36.7 L 1.68 37.53 L 1.74 38.36 L 1.82 39.18 L 1.92 39.99 L 2.04 40.79 L 2.17 41.59 L 2.32 42.37 L 2.49 43.15 L 2.68 43.92 L 2.88 44.68 L 3.1 45.44 L 3.34 46.18 L 3.6 46.92 L 3.88 47.65 L 4.17 48.37 L 4.48 49.08 L 4.81 49.79 L 5.15 50.48 L 5.52 51.17 L 5.9 51.85 L 6.3 52.52 L 6.72 53.19 L 7.15 53.84 L 7.61 54.49 L 8.08 55.13 L 8.57 55.76 L 9.07 56.38 L 9.6 57 L 10.14 57.6 L 10.7 58.2 L 19.4 49.65 L 19.05 49.26 L 18.72 48.87 L 18.39 48.48 L 18.08 48.08 L 17.77 47.67 L 17.48 47.26 L 17.2 46.85 L 16.93 46.43 L 16.67 46 L 16.42 45.58 L 16.18 45.14 L 15.96 44.71 L 15.74 44.27 L 15.54 43.82 L 15.34 43.37 L 15.16 42.91 L 14.99 42.45 L 14.83 41.99 L 14.68 41.52 L 14.54 41.04 L 14.42 40.57 L 14.3 40.08 L 14.2 39.6 L 14.1 39.1 L 14.02 38.61 L 13.95 38.1 L 13.89 37.6 L 13.84 37.09 L 13.8 36.57 L 13.77 36.05 L 13.76 35.53 L 13.75 35 L 13.76 34.44 L 13.77 33.88 L 13.81 33.33 L 13.85 32.78 L 13.91 32.24 L 13.98 31.7 L 14.06 31.17 L 14.15 30.64 L 14.26 30.12 L 14.38 29.6 L 14.51 29.09 L 14.65 28.59 L 14.81 28.08 L 14.98 27.59 L 15.16 27.1 L 15.35 26.61 L 15.56 26.13 L 15.77 25.66 L 16.01 25.19 L 16.25 24.72 L 16.51 24.26 L 16.77 23.81 L 17.06 23.36 L 17.35 22.92 L 17.66 22.48 L 17.98 22.04 L 18.31 21.61 L 18.65 21.19 L 19.01 20.77 L 19.38 20.36 L 19.76 19.95 L 20.15 19.55 L 20.55 19.16 L 20.96 18.77 L 21.37 18.41 L 21.79 18.05 L 22.21 17.71 L 22.64 17.38 L 23.08 17.06 L 23.52 16.75 L 23.96 16.46 L 24.41 16.17 L 24.86 15.91 L 25.32 15.65 L 25.79 15.41 L 26.26 15.18 L 26.73 14.96 L 27.21 14.75 L 27.7 14.56 L 28.19 14.38 L 28.68 14.21 L 29.19 14.05 L 29.69 13.91 L 30.2 13.77 L 30.72 13.66 L 31.24 13.55 L 31.77 13.46 L 32.3 13.38 L 32.84 13.31 L 33.38 13.25 L 33.93 13.21 L 34.48 13.18 L 35.04 13.16 L 35.6 13.15 L 36.14 13.16 L 36.68 13.17 L 37.21 13.2 L 37.73 13.24 L 38.25 13.29 L 38.77 13.35 L 39.27 13.42 L 39.78 13.51 L 40.28 13.6 L 40.77 13.71 L 41.26 13.82 L 41.74 13.95 L 42.21 14.09 L 42.69 14.24 L 43.15 14.4 L 43.61 14.57 L 44.07 14.76 L 44.52 14.95 L 44.96 15.16 L 45.4 15.38 L 45.83 15.6 L 46.26 15.84 L 46.69 16.09 L 47.1 16.36 L 47.52 16.63 L 47.92 16.91 L 48.32 17.21 L 48.72 17.51 L 49.11 17.83 L 49.5 18.16 L 49.88 18.5 L 50.25 18.85 L 58.8 10.15 L 58.2 9.59 L 57.6 9.04 L 56.98 8.51 L 56.36 8.01 L 55.73 7.51 L 55.09 7.04 L 54.44 6.58 L 53.79 6.15 L 53.12 5.73 L 52.45 5.32 L 51.77 4.94 L 51.08 4.57 L 50.39 4.23 L 49.68 3.9 L 48.97 3.58 L 48.25 3.29 L 47.52 3.01 L 46.78 2.75 L 46.04 2.51 L 45.28 2.29 L 44.52 2.08 L 43.75 1.89 L 42.97 1.72 L 42.19 1.57 L 41.39 1.44 L 40.59 1.32 L 39.78 1.22 L 38.96 1.14 L 38.13 1.08 L 37.3 1.04 L 36.45 1.01 L 35.6 1 Z"/>
      </clipPath>
      <g clip-path="url(#clipPath0)">
        <use ffdec:characterId="401" height="34.55" transform="matrix(1.0, 0.0, 0.0, 1.0, 0.85, 0.25)" width="47.8" xlink:href="#shape1"/>
      </g>
      <clipPath id="clipPath1">
        <path d="M 23 47.45 L 7.45 62.9 L 16 71.55 L 31.55 56.05 L 23 47.45 Z"/>
      </clipPath>
      <g clip-path="url(#clipPath1)">
        <use ffdec:characterId="403" height="57.3" transform="matrix(1.0, 0.0, 0.0, 1.0, 1.45, 1.0)" width="58.6" xlink:href="#shape2"/>
      </g>
    </g>
    <g id="shape0" transform="matrix(1.0, 0.0, 0.0, 1.0, 0.4, 1.0)">
      <path d="M50.85 19.15 L60.05 18.45 59.6 10.65 Q49.3 1.0 35.6 1.0 21.5 1.0 11.55 10.95 1.6 20.9 1.6 35.0 1.6 42.35 4.25 48.5 L4.25 48.55 Q6.45 53.7 10.5 58.0 L10.7 58.2 10.75 58.15 11.7 50.25 19.3 49.6 19.4 49.65 19.35 49.6 Q16.65 46.65 15.25 43.15 13.75 39.4 13.75 35.0 13.75 25.95 20.15 19.55 26.55 13.15 35.6 13.15 44.25 13.15 50.2 18.8 L50.25 18.85 50.85 19.15 M61.55 10.1 L61.7 10.45 62.15 20.55 51.55 21.25 47.3 18.4 Q43.0 15.15 35.6 15.15 27.35 15.15 21.55 20.95 15.75 26.75 15.75 35.0 15.75 42.65 20.65 48.25 L21.85 49.7 22.15 49.9 22.15 51.1 13.2 52.1 11.85 61.1 10.75 60.75 9.75 60.0 Q-0.4 49.6 -0.4 35.0 L-0.3 32.65 Q0.45 19.25 10.15 9.55 20.7 -1.0 35.6 -1.0 48.95 -1.0 58.85 7.5 L61.05 9.55 61.1 9.6 61.55 10.1" fill="#003366" fill-opacity="0.2" fill-rule="evenodd" stroke="none"/>
      <path d="M50.85 19.15 L50.25 18.85 50.2 18.8 Q44.25 13.15 35.6 13.15 26.55 13.15 20.15 19.55 13.75 25.95 13.75 35.0 13.75 39.4 15.25 43.15 16.65 46.65 19.35 49.6 L19.3 49.6 11.7 50.25 10.75 58.15 10.7 58.2 10.5 58.0 Q6.45 53.7 4.25 48.55 L4.25 48.5 Q1.6 42.35 1.6 35.0 1.6 20.9 11.55 10.95 21.5 1.0 35.6 1.0 49.3 1.0 59.6 10.65 L60.05 18.45 50.85 19.15" fill="#ffffff" fill-rule="evenodd" stroke="none"/>
    </g>
    <g id="shape1" transform="matrix(1.0, 0.0, 0.0, 1.0, -0.85, -0.25)">
      <path d="M47.9 3.15 L43.25 14.45 M22.3 3.6 L26.95 14.85 M34.9 1.0 L34.9 13.15 M11.7 10.85 L20.3 19.45 M4.25 21.55 L15.55 26.2" fill="none" stroke="#3399ff" stroke-linecap="round" stroke-linejoin="round" stroke-opacity="0.2" stroke-width="1.5"/>
      <path d="M1.6 34.05 L13.8 34.05" fill="none" stroke="#3399ff" stroke-linecap="round" stroke-linejoin="round" stroke-opacity="0.2" stroke-width="1.5"/>
    </g>
    <g id="shape2" transform="matrix(1.0, 0.0, 0.0, 1.0, -1.45, -1.0)">
      <path d="M20.3 19.45 L20.15 19.55 Q17.15 22.55 15.55 26.2 L4.25 21.55 Q6.75 15.75 11.55 10.95 L11.7 10.85 20.3 19.45" fill="#ffcc00" fill-rule="evenodd" stroke="none"/>
      <path d="M34.9 13.15 Q30.6 13.3 26.95 14.85 L22.3 3.6 Q28.1 1.1 34.9 1.0 L34.9 13.15" fill="#ff6600" fill-rule="evenodd" stroke="none"/>
      <path d="M15.55 26.2 Q13.95 29.8 13.8 34.05 L13.65 35.4 1.45 34.95 1.85 30.65 Q2.4 25.8 4.25 21.55 L15.55 26.2" fill="#ffff00" fill-rule="evenodd" stroke="none"/>
      <path d="M26.95 14.85 Q23.3 16.45 20.3 19.45 L11.7 10.85 Q16.5 6.05 22.3 3.6 L26.95 14.85" fill="#ff9900" fill-rule="evenodd" stroke="none"/>
      <path d="M47.9 3.15 L43.25 14.45 Q39.7 13.15 35.6 13.15 L34.9 13.15 34.9 1.0 35.6 1.0 Q42.25 1.0 47.9 3.15" fill="#ff3300" fill-rule="evenodd" stroke="none"/>
      <path d="M47.9 3.15 Q54.5 6.0 56.95 8.25 L59.6 10.5 60.05 18.45 52.25 19.15 50.25 18.85 Q47.1 15.85 43.25 14.45 L47.9 3.15" fill="#cc0000" fill-rule="evenodd" stroke="none"/>
      <path d="M4.15 47.9 L2.55 43.6 1.5 35.1 13.7 35.6 14.55 38.75 Q15.4 41.5 16.65 44.15 L19.4 49.4 11.4 50.2 11.8 57.0 10.5 58.3 9.15 56.6 6.65 53.0 Q5.15 50.5 4.15 47.9" fill="#00ff33" fill-rule="evenodd" stroke="none"/>
    </g>
    <g id="shape3" transform="matrix(1.0, 0.0, 0.0, 1.0, 3.1, 3.15)">
      <path d="M27.8 27.8 Q22.5 33.15 15.05 33.15 7.5 33.15 2.15 27.8 -3.15 22.5 -3.1 15.0 -3.15 7.45 2.15 2.1 7.5 -3.2 15.05 -3.15 22.5 -3.2 27.8 2.1 33.15 7.45 33.2 15.0 33.15 22.5 27.8 27.8" fill="#000000" fill-opacity="0.03137255" fill-rule="evenodd" stroke="none"/>
      <path d="M27.25 27.25 Q22.2 32.35 15.05 32.4 7.85 32.35 2.75 27.25 -2.3 22.2 -2.3 15.05 -2.3 7.85 2.75 2.75 7.85 -2.3 15.05 -2.3 22.2 -2.3 27.25 2.75 32.35 7.85 32.4 15.05 32.35 22.2 27.25 27.25" fill="#000000" fill-opacity="0.0627451" fill-rule="evenodd" stroke="none"/>
      <path d="M15.05 31.1 Q8.4 31.05 3.7 26.35 -1.0 21.65 -1.0 15.05 -1.0 8.4 3.7 3.65 8.4 -1.05 15.05 -1.0 21.65 -1.05 26.35 3.65 31.05 8.4 31.1 15.05 31.05 21.65 26.35 26.35 21.65 31.05 15.05 31.1" fill="#000000" fill-opacity="0.15294118" fill-rule="evenodd" stroke="none"/>
      <path d="M30.0 15.0 Q30.0 21.2 25.55 25.6 21.2 30.0 15.0 30.0 8.75 30.0 4.35 25.6 -0.05 21.2 0.0 15.0 -0.05 8.75 4.35 4.35 8.75 -0.05 15.0 0.0 21.2 -0.05 25.55 4.35 30.0 8.75 30.0 15.0" fill="#000000" fill-rule="evenodd" stroke="none"/>
      <path d="M28.05 15.05 Q28.05 20.45 24.2 24.3 20.4 28.1 15.0 28.1 9.55 28.1 5.75 24.3 1.9 20.45 1.95 15.05 1.9 9.6 5.75 5.8 9.55 1.95 15.0 2.0 20.4 1.95 24.2 5.8 28.05 9.6 28.05 15.05" fill="url(#gradient0)" fill-rule="evenodd" stroke="none"/>
    </g>
    <linearGradient gradientTransform="matrix(0.011, 0.0115, -0.0115, 0.011, 15.0, 15.05)" gradientUnits="userSpaceOnUse" id="gradient0" spreadMethod="pad" x1="-819.2" x2="819.2">
      <stop offset="0.0" stop-color="#feb792"/>
      <stop offset="1.0" stop-color="#eb5301"/>
    </linearGradient>
    <g id="shape4" transform="matrix(1.0, 0.0, 0.0, 1.0, -6.75, -6.15)">
      <path d="M7.7 13.0 L14.5 8.5 24.95 25.7 24.75 26.7 7.7 13.0" fill="url(#gradient1)" fill-rule="evenodd" stroke="none"/>
      <path d="M10.9 14.45 Q9.2 14.45 7.95 13.2 6.75 12.0 6.75 10.3 6.75 8.6 7.95 7.35 9.2 6.15 10.9 6.15 12.6 6.15 13.8 7.35 15.05 8.6 15.05 10.3 15.05 12.0 13.8 13.2 12.6 14.45 10.9 14.45" fill="#ffffff" fill-rule="evenodd" stroke="none"/>
      <path d="M23.1 18.75 L23.4 13.7 26.0 23.45 21.1 26.85 11.55 24.1 17.55 23.45 9.25 18.1 17.9 21.2 15.9 15.8 21.35 19.65 19.15 12.05 23.1 18.75" fill="#ffffff" fill-rule="evenodd" stroke="none"/>
    </g>
    <linearGradient gradientTransform="matrix(0.0078, 0.0095, -0.0086, 0.007, 14.5, 15.75)" gradientUnits="userSpaceOnUse" id="gradient1" spreadMethod="pad" x1="-819.2" x2="819.2">
      <stop offset="0.0" stop-color="#ffffff"/>
      <stop offset="1.0" stop-color="#ffffff" stop-opacity="0.0"/>
    </linearGradient>
    <g id="shape5" transform="matrix(1.0, 0.0, 0.0, 1.0, -1.8, -1.9)">
      <path d="M24.85 6.5 Q21.25 3.4 16.4 3.4 11.0 3.4 7.15 7.2 3.35 11.05 3.35 16.5 3.35 21.35 6.4 24.9 L5.6 24.15 Q1.8 20.35 1.8 14.95 1.8 9.5 5.6 5.7 9.45 1.85 14.85 1.9 20.25 1.85 24.1 5.7 L24.85 6.5" fill="#ffffff" fill-opacity="0.5019608" fill-rule="evenodd" stroke="none"/>
      <path d="M26.4 13.4 Q26.35 8.55 23.3 4.95 L24.15 5.7 Q27.95 9.5 27.95 14.95 27.95 20.35 24.15 24.2 20.25 28.0 14.85 28.0 9.45 28.0 5.65 24.2 L4.9 23.4 Q8.45 26.45 13.35 26.45 18.75 26.45 22.6 22.65 26.4 18.8 26.4 13.4" fill="#003366" fill-opacity="0.2" fill-rule="evenodd" stroke="none"/>
    </g>
    <g id="sprite1" transform="matrix(1.0, 0.0, 0.0, 1.0, 0.0, 0.0)">
      <use ffdec:characterId="289" height="26.2" transform="matrix(1.0, 0.0, 0.0, 1.0, 0.0, 0.0)" width="26.25" xlink:href="#morphshape0"/>
    </g>
    <g id="morphshape0" transform="matrix(1.0, 0.0, 0.0, 1.0, 0.0, 0.0)">
      <path d="M0.0 13.05 Q0.0 17.1 2.2 20.3 L3.3 21.65 3.1 21.5 3.8 22.25 3.85 22.3 3.95 22.4 4.4 22.85 4.6 23.0 5.55 23.75 5.85 23.95 7.45 24.9 Q10.05 26.2 13.2 26.2 18.6 26.2 22.4 22.4 26.25 18.55 26.25 13.15 26.25 10.4 25.25 8.05 L22.7 4.3 23.05 4.6 22.45 3.95 22.4 3.9 22.35 3.8 21.75 3.3 21.5 3.05 19.4 1.6 Q16.55 -0.05 13.05 0.0 7.65 -0.05 3.8 3.8 0.0 7.6 0.0 13.05" fill="#ffffff" fill-opacity="0.03137255" fill-rule="evenodd" stroke="none"/>
      <path d="M0.0 13.05 Q0.0 7.6 3.8 3.8 7.65 -0.05 13.05 0.0 16.55 -0.05 19.4 1.6 L21.5 3.05 21.75 3.3 22.35 3.8 22.4 3.9 22.45 3.95 23.05 4.6 22.7 4.3 25.25 8.05 Q26.25 10.4 26.25 13.15 26.25 18.55 22.4 22.4 18.6 26.2 13.2 26.2 10.05 26.2 7.45 24.9 L5.85 23.95 5.55 23.75 4.6 23.0 4.4 22.85 3.95 22.4 3.85 22.3 3.8 22.25 3.1 21.5 3.3 21.65 2.2 20.3 Q0.0 17.1 0.0 13.05 Z" ffdec:has-small-stroke="true" ffdec:original-stroke-width="0.0" fill="none" stroke="#000000" stroke-linecap="round" stroke-linejoin="round" stroke-opacity="0.0" stroke-width="1.0"/>
    </g>
  </defs>
</svg>
