<?xml version="1.0" encoding="UTF-8" standalone="no"?>
<svg xmlns:ffdec="https://www.free-decompiler.com/flash" xmlns:xlink="http://www.w3.org/1999/xlink" ffdec:objectType="shape" height="75.3px" width="123.1px" xmlns="http://www.w3.org/2000/svg">
  <g transform="matrix(1.0, 0.0, 0.0, 1.0, 1.0, 171.0)">
    <path d="M120.25 -169.05 Q121.9 -167.35 122.1 -165.0 L122.1 -120.85 65.25 -120.85 65.25 -171.0 101.7 -171.0 106.6 -171.0 115.7 -171.0 Q118.35 -170.95 120.25 -169.05 M115.7 -103.0 L110.0 -103.0 110.0 -102.95 65.25 -102.95 65.25 -120.85 122.1 -120.85 122.1 -109.0 Q121.9 -106.65 120.25 -104.95 118.35 -103.05 115.7 -103.0 M5.4 -171.0 L65.25 -171.0 65.25 -120.85 -1.0 -120.85 -1.0 -165.0 Q-0.8 -167.35 0.9 -169.05 2.75 -170.95 5.4 -171.0 M0.9 -104.95 Q-0.8 -106.65 -1.0 -109.0 L-1.0 -120.85 65.25 -120.85 65.25 -102.95 16.35 -102.95 16.35 -103.0 5.4 -103.0 Q2.75 -103.05 0.9 -104.95" fill="#ffffff" fill-rule="evenodd" stroke="none"/>
    <path d="M118.6 -164.25 L119.0 -162.45 119.0 -111.7 Q119.0 -109.45 117.6 -107.8 L117.25 -107.45 Q115.5 -105.7 113.0 -105.7 L8.0 -105.7 Q5.5 -105.7 3.75 -107.45 2.15 -109.05 2.05 -111.25 L2.0 -111.25 2.0 -162.0 Q2.0 -163.2 2.45 -164.25 2.75 -165.15 3.45 -165.9 L3.75 -166.25 Q4.55 -167.05 5.55 -167.5 6.65 -168.0 8.0 -168.0 L113.0 -168.0 Q114.35 -168.0 115.45 -167.5 L117.25 -166.25 Q118.15 -165.35 118.6 -164.25 Z" fill="none" stroke="#c1d1e0" stroke-linecap="round" stroke-linejoin="round" stroke-width="2.0"/>
    <path d="M92.95 -97.4 L93.95 -98.15 Q97.15 -100.65 97.1 -104.7 L98.2 -106.65 99.0 -106.65 Q100.0 -103.05 98.55 -100.75 L97.9 -99.7 Q101.8 -101.45 103.4 -106.65 L105.65 -106.65 105.5 -104.65 Q102.0 -96.35 92.95 -97.4" fill="#c1d1e0" fill-rule="evenodd" stroke="none"/>
    <path d="M103.95 -109.0 L103.4 -106.65 Q101.8 -101.45 97.9 -99.7 L98.55 -100.75 Q100.0 -103.05 99.0 -106.65 L98.45 -108.3 103.95 -109.0" fill="#ffffff" fill-rule="evenodd" stroke="none"/>
    <path d="M92.95 -97.4 Q102.0 -96.35 105.5 -104.65 L107.55 -104.4 Q107.8 -101.6 103.45 -98.05 99.1 -94.5 89.95 -96.35 95.2 -102.15 94.25 -104.65 L97.1 -104.7 Q97.15 -100.65 93.95 -98.15 L92.95 -97.4" fill="#ffffff" fill-rule="evenodd" stroke="none"/>
  </g>
</svg>
