<?xml version="1.0" encoding="UTF-8" standalone="no"?>
<svg xmlns:ffdec="https://www.free-decompiler.com/flash" xmlns:xlink="http://www.w3.org/1999/xlink" ffdec:objectType="shape" height="19.3px" width="37.45px" xmlns="http://www.w3.org/2000/svg">
  <g transform="matrix(1.0, 0.0, 0.0, 1.0, 22.45, 11.05)">
    <path d="M14.3 -1.35 Q15.0 -0.3 15.0 0.95 15.0 4.15 12.2 5.55 L10.35 6.25 Q6.7 7.2 4.1 4.9 L3.2 3.55 Q0.15 2.6 1.1 -0.75 1.45 -1.95 2.45 -2.85 4.6 -4.7 7.4 -4.5 11.85 -4.75 14.3 -1.35" fill="#d79e4a" fill-rule="evenodd" stroke="none"/>
    <path d="M-20.6 -7.25 Q-18.55 -8.15 -16.7 -9.55 -14.4 -11.25 -11.45 -11.0 L-10.7 -11.0 Q-4.65 -10.7 -1.35 -6.0 0.6 -3.25 0.15 0.15 -0.4 4.4 -4.45 6.55 -7.05 7.9 -9.95 8.2 -15.3 8.7 -19.4 5.7 L-19.95 5.15 -21.45 2.65 Q-23.35 -1.8 -21.55 -6.25 -21.3 -6.95 -20.6 -7.25" fill="#d79e4a" fill-rule="evenodd" stroke="none"/>
  </g>
</svg>
