<?xml version="1.0" encoding="UTF-8" standalone="no"?>
<svg xmlns:ffdec="https://www.free-decompiler.com/flash" xmlns:xlink="http://www.w3.org/1999/xlink" ffdec:objectType="shape" height="15.8px" width="86.65px" xmlns="http://www.w3.org/2000/svg">
  <g transform="matrix(1.0, 0.0, 0.0, 1.0, 0.15, 0.0)">
    <path d="M83.3 15.8 L78.15 13.1 73.05 15.8 74.0 10.1 69.85 6.0 75.6 5.2 78.15 0.0 80.75 5.2 86.5 6.0 82.35 10.1 83.3 15.8 M78.15 3.1 L76.5 6.4 72.85 6.95 75.5 9.55 74.85 13.2 78.15 11.45 81.45 13.2 80.8 9.55 83.45 6.95 79.8 6.4 78.15 3.1 M69.0 6.0 L64.85 10.1 65.85 15.8 60.7 13.1 55.55 15.8 56.55 10.1 52.4 6.0 58.15 5.2 60.7 0.0 63.3 5.2 69.0 6.0 M63.45 9.55 L66.1 6.95 62.45 6.4 60.8 3.1 59.15 6.4 55.5 6.95 58.15 9.55 57.5 13.2 60.8 11.45 64.1 13.2 63.45 9.55 M43.2 0.0 L45.8 5.2 51.55 6.0 47.4 10.1 48.35 15.8 43.2 13.1 38.1 15.8 39.05 10.1 34.95 6.0 40.65 5.2 43.2 0.0 M43.25 3.1 L41.6 6.4 37.95 6.95 40.6 9.55 39.95 13.2 43.25 11.45 46.55 13.2 45.9 9.55 48.55 6.95 44.9 6.4 43.25 3.1 M28.35 5.2 L34.05 6.0 29.9 10.1 30.9 15.8 25.75 13.1 20.6 15.8 21.6 10.1 17.45 6.0 23.2 5.2 25.75 0.0 28.35 5.2 M10.8 9.55 L13.45 6.95 9.8 6.4 8.15 3.1 6.5 6.4 2.85 6.95 5.5 9.55 4.85 13.2 8.15 11.45 11.45 13.2 10.8 9.55 M25.75 3.1 L24.1 6.4 20.45 6.95 23.1 9.55 22.45 13.2 25.75 11.45 29.05 13.2 28.4 9.55 31.05 6.95 27.4 6.4 25.75 3.1 M12.3 10.1 L13.3 15.8 8.15 13.1 3.0 15.8 4.0 10.1 -0.15 6.0 5.6 5.2 8.15 0.0 10.75 5.2 16.45 6.0 12.3 10.1" fill="#c1d1e0" fill-rule="evenodd" stroke="none"/>
  </g>
</svg>
