<?xml version="1.0" encoding="UTF-8" standalone="no"?>
<svg xmlns:ffdec="https://www.free-decompiler.com/flash" xmlns:xlink="http://www.w3.org/1999/xlink" ffdec:objectType="shape" height="30.7px" width="290.95px" xmlns="http://www.w3.org/2000/svg">
  <g transform="matrix(1.0, 0.0, 0.0, 1.0, 145.45, 15.35)">
    <path d="M-41.95 -1.7 L-41.9 -1.7 Q-42.7 -1.0 -42.7 -0.05 -42.7 0.85 -41.9 1.55 L-41.95 1.55 Q-41.05 2.35 -39.8 2.35 L-30.15 2.35 -29.35 2.5 -29.35 -2.6 -30.15 -2.5 -39.8 -2.5 Q-41.05 -2.5 -41.95 -1.7 M38.25 4.0 L38.2 4.05 38.35 4.0 38.25 4.0 M28.75 -3.7 Q29.7 -3.7 29.85 -4.15 29.75 -4.5 29.25 -4.55 L29.1 -4.55 28.95 -4.6 24.25 -4.6 24.25 -3.7 28.75 -3.7 M-120.45 -14.2 L-120.4 -14.25 -119.55 -14.95 -118.45 -15.2 -109.85 -15.2 Q-108.85 -15.2 -108.1 -14.45 L-107.75 -14.0 -107.4 -14.45 Q-106.65 -15.2 -105.65 -15.2 L-97.0 -15.2 Q-96.05 -15.2 -95.35 -14.55 -94.65 -15.2 -93.7 -15.2 L-93.55 -15.2 Q-86.9 -15.2 -81.5 -12.8 L-79.05 -11.6 -79.05 -12.7 Q-79.05 -13.7 -78.3 -14.45 -77.55 -15.2 -76.55 -15.2 L-67.9 -15.2 Q-66.95 -15.2 -66.2 -14.5 -65.45 -15.2 -64.5 -15.2 L-55.9 -15.2 Q-54.9 -15.2 -54.15 -14.45 -53.4 -13.7 -53.4 -12.7 L-53.4 -8.6 -51.35 -10.8 -51.35 -10.85 Q-46.55 -15.2 -39.8 -15.2 L-30.15 -15.2 Q-29.2 -15.2 -28.45 -14.5 -27.75 -15.15 -26.85 -15.15 L-18.2 -15.2 Q-17.2 -15.2 -16.45 -14.45 -15.7 -13.7 -15.7 -12.7 L-15.7 2.35 -1.05 2.35 -0.5 2.4 -0.5 -12.7 Q-0.5 -13.7 0.25 -14.45 1.0 -15.2 2.0 -15.2 L10.6 -15.2 Q11.6 -15.2 12.35 -14.45 L12.4 -14.4 Q13.05 -15.15 14.15 -15.15 L30.5 -15.2 Q35.3 -15.2 38.75 -12.15 L38.95 -12.0 Q42.45 -8.7 42.45 -4.15 42.45 0.55 38.95 3.75 L38.8 3.85 Q35.45 6.9 30.5 6.9 L25.3 6.9 25.3 12.55 Q25.3 13.55 24.55 14.3 23.8 15.05 22.8 15.05 L14.15 15.05 Q13.15 15.05 12.4 14.3 L12.35 14.3 Q11.6 15.05 10.6 15.05 L2.0 15.05 Q1.15 15.05 0.5 14.5 -0.2 15.05 -1.05 15.05 L-26.85 15.05 Q-27.8 15.05 -28.5 14.4 -29.2 15.05 -30.15 15.05 L-39.8 15.05 Q-46.7 15.05 -51.35 10.75 L-51.5 10.55 -53.4 8.55 -53.4 12.55 Q-53.4 13.55 -54.15 14.3 -54.9 15.05 -55.9 15.05 L-64.5 15.05 Q-65.45 15.05 -66.2 14.35 -66.95 15.05 -67.9 15.05 L-76.55 15.05 Q-77.55 15.05 -78.3 14.3 -79.05 13.55 -79.05 12.55 -79.05 6.55 -81.7 3.8 L-81.75 3.75 -82.6 3.1 -82.6 12.55 Q-82.6 13.55 -83.35 14.3 -84.1 15.05 -85.1 15.05 L-93.7 15.05 Q-94.65 15.05 -95.35 14.4 -96.05 15.05 -97.0 15.05 L-105.65 15.05 Q-106.65 15.05 -107.4 14.3 L-107.75 13.9 -108.1 14.3 Q-108.85 15.05 -109.85 15.05 L-118.45 15.05 Q-119.45 15.05 -120.2 14.3 -120.95 13.55 -120.95 12.55 L-120.95 11.5 -122.9 14.1 -122.9 14.05 Q-123.4 14.7 -124.1 14.95 L-124.2 15.0 -125.55 15.0 -125.65 14.95 -126.9 14.05 -128.8 11.5 -128.8 12.55 Q-128.8 13.55 -129.55 14.3 -130.3 15.05 -131.3 15.05 L-139.9 15.05 Q-140.9 15.05 -141.65 14.3 -142.4 13.55 -142.4 12.55 L-142.4 -2.5 -142.95 -2.5 Q-143.95 -2.5 -144.7 -3.25 -145.45 -4.0 -145.45 -5.0 L-145.45 -12.7 Q-145.45 -13.7 -144.7 -14.45 -143.95 -15.2 -142.95 -15.2 L-131.35 -15.2 -130.25 -14.95 -130.2 -14.95 -129.3 -14.15 -129.35 -14.2 -124.9 -8.3 -120.45 -14.2" fill="#ffffff" fill-rule="evenodd" stroke="none"/>
    <path d="M95.8 -2.9 Q94.45 -2.9 93.5 -2.0 92.65 -1.25 92.65 -0.05 92.65 1.05 93.5 1.85 94.45 2.7 95.8 2.7 97.15 2.7 98.1 1.85 98.95 1.05 98.95 -0.05 98.95 -1.15 98.05 -2.05 97.05 -2.9 95.8 -2.9 M98.45 -2.5 L98.45 -2.45 98.5 -2.45 98.45 -2.5 M78.55 -2.5 L68.85 -2.5 Q67.75 -2.5 66.9 -1.85 L66.7 -1.65 Q66.0 -1.05 66.0 -0.05 66.0 0.9 66.75 1.55 L66.7 1.55 Q67.6 2.35 68.85 2.35 L78.55 2.35 79.0 2.4 Q78.8 1.25 78.85 0.0 L79.05 -2.55 78.55 -2.5 M123.55 -14.15 L123.5 -14.2 127.95 -8.3 132.4 -14.2 132.45 -14.25 133.3 -14.95 134.4 -15.2 143.0 -15.2 Q144.0 -15.2 144.75 -14.45 145.5 -13.7 145.5 -12.7 L145.5 12.55 Q145.5 13.55 144.75 14.3 144.0 15.05 143.0 15.05 L134.4 15.05 Q133.4 15.05 132.65 14.3 131.9 13.55 131.9 12.55 L131.9 11.5 129.95 14.1 129.95 14.05 Q129.45 14.7 128.75 14.95 L128.65 15.0 127.3 15.0 127.2 14.95 Q126.45 14.7 125.95 14.05 L124.05 11.5 124.05 12.55 Q124.05 13.55 123.3 14.3 122.55 15.05 121.55 15.05 L112.95 15.05 Q111.95 15.05 111.2 14.3 110.45 13.55 110.45 12.55 L110.45 7.95 107.9 10.85 Q102.95 15.3 95.85 15.35 88.7 15.3 83.8 10.85 82.15 9.35 81.05 7.65 L81.05 12.55 Q81.05 13.55 80.3 14.3 79.55 15.05 78.55 15.05 L68.85 15.05 Q61.95 15.05 57.3 10.75 L57.15 10.6 Q52.35 6.2 52.35 -0.05 52.35 -6.25 57.3 -10.8 L57.3 -10.85 Q62.1 -15.2 68.85 -15.2 L78.55 -15.2 Q79.55 -15.2 80.3 -14.45 81.05 -13.7 81.05 -12.7 L81.05 -7.6 Q82.2 -9.35 83.9 -10.85 88.9 -15.35 95.85 -15.35 102.8 -15.35 107.9 -10.85 L110.45 -7.9 110.45 -12.7 Q110.45 -13.7 111.2 -14.45 111.95 -15.2 112.95 -15.2 L121.5 -15.2 122.6 -14.95 122.65 -14.95 123.55 -14.15" fill="#ffffff" fill-rule="evenodd" stroke="none"/>
    <path d="M50.95 12.65 Q49.15 14.35 46.45 14.35 43.8 14.35 42.05 12.65 40.1 10.95 40.1 8.65 40.1 6.3 42.05 4.6 43.8 2.9 46.45 2.9 49.15 2.9 50.95 4.6 52.85 6.3 52.9 8.65 52.85 10.95 50.95 12.65" fill="#ffffff" fill-rule="evenodd" stroke="none"/>
  </g>
</svg>
