<?xml version="1.0" encoding="UTF-8" standalone="no"?>
<svg xmlns:ffdec="https://www.free-decompiler.com/flash" xmlns:xlink="http://www.w3.org/1999/xlink" ffdec:objectType="shape" height="25.25px" width="286.05px" xmlns="http://www.w3.org/2000/svg">
  <g transform="matrix(1.0, 0.0, 0.0, 1.0, 132.05, 12.55)">
    <path d="M39.85 -5.95 L39.65 -5.95 33.65 -5.95 33.65 -2.05 39.65 -2.05 Q42.25 -2.05 42.25 -4.0 42.25 -5.7 40.3 -5.9 L39.85 -5.95 M21.5 -12.55 L21.5 12.7 12.9 12.7 12.9 -12.55 21.5 -12.55 M41.4 -12.55 Q45.3 -12.55 48.1 -10.05 50.85 -7.5 50.85 -4.0 50.85 -0.4 48.1 2.05 45.4 4.55 41.4 4.55 L33.7 4.55 33.7 12.7 25.05 12.7 25.05 -12.5 41.4 -12.55 M76.05 -3.4 Q74.5 -2.0 74.5 0.1 74.5 2.15 76.05 3.55 77.65 5.0 79.85 5.0 L89.55 5.0 89.55 12.7 79.85 12.7 Q73.95 12.7 69.95 9.0 65.85 5.35 65.85 0.1 65.85 -5.05 69.95 -8.85 74.1 -12.55 79.85 -12.55 L89.55 -12.55 89.55 -4.85 79.85 -4.85 Q77.65 -4.85 76.05 -3.4 M110.5 -3.4 Q108.9 -4.85 106.7 -4.85 104.5 -4.85 102.9 -3.4 101.35 -2.0 101.35 0.1 101.35 2.15 102.9 3.55 104.5 5.0 106.7 5.0 108.95 5.0 110.55 3.55 112.1 2.15 112.1 0.1 112.1 -1.85 110.5 -3.4 M96.85 -8.85 Q101.0 -12.55 106.7 -12.55 112.45 -12.55 116.6 -8.85 120.7 -5.1 120.7 0.1 120.7 5.35 116.6 9.0 112.55 12.7 106.7 12.7 100.85 12.7 96.8 9.0 92.7 5.3 92.7 0.1 92.7 -5.1 96.85 -8.85 M132.5 -12.55 L138.95 -4.0 145.4 -12.55 154.0 -12.55 154.0 12.7 145.4 12.7 145.4 4.15 138.95 12.7 132.55 4.15 132.55 12.7 123.95 12.7 123.95 -12.55 132.5 -12.55 M54.25 11.55 Q52.95 10.4 52.95 8.85 52.95 7.25 54.25 6.1 55.45 4.95 57.25 4.95 59.1 4.95 60.3 6.1 61.6 7.25 61.6 8.85 61.6 10.4 60.3 11.55 59.1 12.7 57.25 12.7 55.45 12.7 54.25 11.55 M9.85 12.7 L-15.95 12.7 -15.95 -12.5 -7.3 -12.55 -7.3 5.0 9.85 5.0 9.85 12.7 M-132.05 -12.55 L-120.45 -12.55 -114.0 -4.0 -107.55 -12.55 -98.95 -12.55 -98.95 12.7 -107.55 12.7 -107.55 4.15 -114.0 12.7 -120.4 4.15 -120.4 12.7 -129.0 12.7 -129.0 -4.85 -132.05 -4.85 -132.05 -12.55 M-86.1 -12.55 L-86.1 12.7 -94.75 12.7 -94.75 -12.55 -86.1 -12.55 M-82.65 -12.55 Q-76.55 -12.55 -71.6 -10.4 -67.15 -8.5 -65.65 -5.95 L-65.65 -12.55 -57.0 -12.55 -57.0 12.7 -65.65 12.7 Q-65.65 5.45 -69.15 2.1 -71.5 -0.1 -74.2 -0.1 L-74.2 12.7 -82.8 12.7 -82.8 -12.55 -82.65 -12.55 M-45.0 -12.55 L-45.0 12.7 -53.6 12.7 -53.6 -12.55 -45.0 -12.55 M-32.7 -3.4 Q-34.3 -1.95 -34.3 0.1 -34.3 2.1 -32.7 3.55 -31.1 5.0 -28.9 5.0 L-19.25 5.0 -19.25 12.7 -28.9 12.7 Q-34.8 12.7 -38.8 9.0 -42.9 5.35 -42.9 0.1 -42.9 -5.1 -38.8 -8.85 -34.65 -12.55 -28.9 -12.55 L-19.25 -12.55 -19.25 -4.85 -28.9 -4.85 Q-31.1 -4.85 -32.7 -3.4" fill="#cc0000" fill-rule="evenodd" stroke="none"/>
    <path d="M39.65 -5.95 L39.85 -5.95" ffdec:has-small-stroke="true" ffdec:original-stroke-width="0.05" fill="none" stroke="#ffffff" stroke-linecap="round" stroke-linejoin="round" stroke-width="1.0"/>
  </g>
</svg>
