<?xml version="1.0" encoding="UTF-8" standalone="no"?>
<svg xmlns:ffdec="https://www.free-decompiler.com/flash" xmlns:xlink="http://www.w3.org/1999/xlink" ffdec:objectType="shape" height="45.0px" width="129.0px" xmlns="http://www.w3.org/2000/svg">
  <g transform="matrix(1.0, 0.0, 0.0, 1.0, -231.5, -177.5)">
    <path d="M350.5 177.5 Q354.65 177.5 357.55 180.4 360.5 183.35 360.5 187.5 L360.5 212.5 Q360.5 216.65 357.55 219.55 354.65 222.5 350.5 222.5 L290.0 222.5 290.0 177.5 350.5 177.5 M346.1 182.5 L340.95 182.5 Q344.85 182.6 347.7 185.4 350.6 188.35 350.6 192.5 L350.6 207.5 Q350.6 211.65 347.7 214.55 344.85 217.4 340.95 217.5 L346.1 217.5 Q350.25 217.5 353.2 214.55 356.1 211.65 356.1 207.5 L356.1 192.5 Q356.1 188.35 353.2 185.4 350.25 182.5 346.1 182.5" fill="#ffffff" fill-rule="evenodd" stroke="none"/>
    <path d="M346.1 182.5 Q350.25 182.5 353.2 185.4 356.1 188.35 356.1 192.5 L356.1 207.5 Q356.1 211.65 353.2 214.55 350.25 217.5 346.1 217.5 L340.95 217.5 Q344.85 217.4 347.7 214.55 350.6 211.65 350.6 207.5 L350.6 192.5 Q350.6 188.35 347.7 185.4 344.85 182.6 340.95 182.5 L346.1 182.5" fill="#66cc00" fill-rule="evenodd" stroke="none"/>
    <path d="M234.4 180.4 Q237.35 177.5 241.5 177.5 L310.0 177.5 310.0 222.5 241.5 222.5 Q237.35 222.5 234.4 219.55 231.5 216.65 231.5 212.5 L231.5 187.5 Q231.5 183.35 234.4 180.4 M239.9 185.4 Q237.0 188.35 237.0 192.5 L237.0 207.5 Q237.0 211.65 239.9 214.55 242.85 217.5 247.0 217.5 L252.15 217.5 Q248.25 217.4 245.4 214.55 242.5 211.65 242.5 207.5 L242.5 192.5 Q242.5 188.35 245.4 185.4 248.25 182.6 252.15 182.5 L247.0 182.5 Q242.85 182.5 239.9 185.4" fill="#ffffff" fill-rule="evenodd" stroke="none"/>
    <path d="M239.9 185.4 Q242.85 182.5 247.0 182.5 L252.15 182.5 Q248.25 182.6 245.4 185.4 242.5 188.35 242.5 192.5 L242.5 207.5 Q242.5 211.65 245.4 214.55 248.25 217.4 252.15 217.5 L247.0 217.5 Q242.85 217.5 239.9 214.55 237.0 211.65 237.0 207.5 L237.0 192.5 Q237.0 188.35 239.9 185.4" fill="#66cc00" fill-rule="evenodd" stroke="none"/>
  </g>
</svg>
