<?xml version="1.0" encoding="UTF-8" standalone="no"?>
<svg xmlns:ffdec="https://www.free-decompiler.com/flash" xmlns:xlink="http://www.w3.org/1999/xlink" ffdec:objectType="shape" height="14.6px" width="13.05px" xmlns="http://www.w3.org/2000/svg">
  <g transform="matrix(1.0, 0.0, 0.0, 1.0, 6.55, 7.3)">
    <path d="M-4.8 -7.3 Q-3.45 -6.3 -2.7 -4.7 L-2.65 -4.65 -2.5 -4.3 -2.4 -4.25 -1.7 -3.25 0.15 -1.05 0.3 -0.85 1.95 0.7 2.0 0.7 2.1 1.0 Q3.8 3.95 6.5 7.05 L-0.7 6.95 -1.25 7.0 Q-3.7 7.6 -6.05 6.9 L-6.25 6.75 -6.5 6.55 -6.4 5.6 -6.4 5.45 Q-5.95 3.7 -5.85 1.9 L-5.85 1.5 -5.85 1.4 -6.35 -6.85 -4.8 -7.3 M4.5 5.5 L4.65 5.5 4.45 5.25 Q2.05 1.8 -0.65 -1.35 L-1.3 -2.1 -2.2 -3.1 -3.5 -4.6 -5.1 -6.75 -5.05 -4.85 -4.75 0.9 -4.7 1.35 -4.7 2.0 -4.75 2.5 Q-4.85 4.2 -5.25 5.8 L4.5 5.5" fill="#000000" fill-rule="evenodd" stroke="none"/>
    <path d="M4.45 5.25 L4.65 5.5 4.5 5.5 4.45 5.25 M-4.75 2.5 L-4.7 2.0 -4.7 1.35 -1.3 -2.1 -0.65 -1.35 -4.35 2.35 -4.7 2.5 -4.75 2.5 M-5.05 -4.85 L-5.1 -6.75 -3.5 -4.6 -4.1 -4.5 Q-4.65 -4.5 -5.05 -4.85" fill="#ffffff" fill-rule="evenodd" stroke="none"/>
    <path d="M4.45 5.25 L4.5 5.5 -5.25 5.8 Q-4.85 4.2 -4.75 2.5 L-4.7 2.5 -4.35 2.35 -0.65 -1.35 Q2.05 1.8 4.45 5.25 M-4.7 1.35 L-4.75 0.9 -5.05 -4.85 Q-4.65 -4.5 -4.1 -4.5 L-3.5 -4.6 -2.2 -3.1 -1.3 -2.1 -4.7 1.35" fill="url(#gradient0)" fill-rule="evenodd" stroke="none"/>
  </g>
  <defs>
    <linearGradient gradientTransform="matrix(0.0258, 0.0136, -0.0071, 0.0135, 14.2, -6.25)" gradientUnits="userSpaceOnUse" id="gradient0" spreadMethod="pad" x1="-819.2" x2="819.2">
      <stop offset="0.0" stop-color="#f3fefe"/>
      <stop offset="1.0" stop-color="#7fe6e6"/>
    </linearGradient>
  </defs>
</svg>
