<?xml version="1.0" encoding="UTF-8" standalone="no"?>
<svg xmlns:ffdec="https://www.free-decompiler.com/flash" xmlns:xlink="http://www.w3.org/1999/xlink" ffdec:objectType="shape" height="10.95px" width="11.05px" xmlns="http://www.w3.org/2000/svg">
  <g transform="matrix(1.0, 0.0, 0.0, 1.0, 5.55, 5.45)">
    <path d="M2.0 -5.25 L2.2 -5.15 3.75 -0.25 Q4.8 2.65 5.5 5.5 L-1.05 5.5 Q-3.75 2.4 -5.45 -0.55 L-5.55 -0.85 -5.45 -0.8 -3.9 -1.85 -3.8 -1.95 Q-0.7 -3.4 1.65 -5.45 L1.75 -5.45 1.9 -5.3 2.0 -5.25 M2.5 -2.35 L2.3 -3.0 1.85 -4.45 -4.55 -0.4 -2.35 2.5 -1.35 3.9 -0.95 3.9 4.3 3.8 3.15 -0.2 2.5 -2.35" fill="#000000" fill-rule="evenodd" stroke="none"/>
    <path d="M-2.35 2.5 L-4.55 -0.4 1.85 -4.45 2.3 -3.0 2.5 -2.35 -2.35 2.5 M3.15 -0.2 L4.3 3.8 -0.95 3.9 3.15 -0.2" fill="url(#gradient0)" fill-rule="evenodd" stroke="none"/>
    <path d="M-2.35 2.5 L2.5 -2.35 3.15 -0.2 -0.95 3.9 -1.35 3.9 -2.35 2.5" fill="#ffffff" fill-rule="evenodd" stroke="none"/>
  </g>
  <defs>
    <linearGradient gradientTransform="matrix(0.0258, 0.0136, -0.0071, 0.0135, 6.65, -7.8)" gradientUnits="userSpaceOnUse" id="gradient0" spreadMethod="pad" x1="-819.2" x2="819.2">
      <stop offset="0.0" stop-color="#f3fefe"/>
      <stop offset="1.0" stop-color="#7fe6e6"/>
    </linearGradient>
  </defs>
</svg>
