<?xml version="1.0" encoding="UTF-8" standalone="no"?>
<svg xmlns:ffdec="https://www.free-decompiler.com/flash" xmlns:xlink="http://www.w3.org/1999/xlink" ffdec:objectType="shape" height="8.65px" width="9.85px" xmlns="http://www.w3.org/2000/svg">
  <g transform="matrix(1.0, 0.0, 0.0, 1.0, 4.95, 4.35)">
    <path d="M4.9 0.15 L3.75 0.75 Q0.8 2.45 -1.1 4.05 L-1.05 4.3 -1.25 4.2 -1.35 4.15 -1.5 4.0 -1.65 1.5 Q-2.7 -1.75 -4.95 -4.25 L-4.85 -4.35 -4.2 -4.3 Q-4.0 -3.4 -3.2 -2.9 0.2 -2.15 3.3 -0.65 L4.75 0.15 4.9 0.15 M-2.7 -2.2 L-3.0 -2.35 -2.8 -2.05 Q-2.0 -0.7 -1.5 0.95 L-0.85 3.15 Q1.3 1.8 3.55 0.5 L-2.7 -2.2" fill="#000000" fill-rule="evenodd" stroke="none"/>
    <path d="M-2.8 -2.05 L-3.0 -2.35 -2.7 -2.2 -2.8 -2.05" fill="#ffffff" fill-rule="evenodd" stroke="none"/>
    <path d="M-2.8 -2.05 L-2.7 -2.2 3.55 0.5 Q1.3 1.8 -0.85 3.15 L-1.5 0.95 Q-2.0 -0.7 -2.8 -2.05" fill="url(#gradient0)" fill-rule="evenodd" stroke="none"/>
  </g>
  <defs>
    <linearGradient gradientTransform="matrix(0.0258, 0.0136, -0.0071, 0.0135, 3.4, 1.65)" gradientUnits="userSpaceOnUse" id="gradient0" spreadMethod="pad" x1="-819.2" x2="819.2">
      <stop offset="0.0" stop-color="#f3fefe"/>
      <stop offset="1.0" stop-color="#7fe6e6"/>
    </linearGradient>
  </defs>
</svg>
