<?xml version="1.0" encoding="UTF-8" standalone="no"?>
<svg xmlns:ffdec="https://www.free-decompiler.com/flash" xmlns:xlink="http://www.w3.org/1999/xlink" ffdec:objectType="shape" height="12.9px" width="14.1px" xmlns="http://www.w3.org/2000/svg">
  <g transform="matrix(1.0, 0.0, 0.0, 1.0, 7.05, 6.45)">
    <path d="M-4.75 0.25 L-6.35 -1.5 Q-3.95 -2.0 -1.65 -2.85 L-4.75 0.25 M4.25 -4.2 L4.7 -3.25 -2.0 3.45 -2.65 2.7 4.25 -4.2" fill="#ffffff" fill-rule="evenodd" stroke="none"/>
    <path d="M-3.0 -2.95 L0.9 -4.45 3.6 -6.45 Q5.85 -3.95 6.9 -0.7 L7.05 1.8 6.95 1.8 Q4.6 3.85 1.5 5.3 L1.4 5.4 -0.15 6.45 -0.3 6.4 -1.95 4.85 -2.1 4.65 Q-3.0 3.3 -3.95 2.45 L-4.65 1.45 -4.75 1.4 -4.9 1.05 -4.95 1.0 Q-5.7 -0.6 -7.05 -1.6 L-3.0 -2.95 M-1.65 -2.85 Q-3.95 -2.0 -6.35 -1.5 L-4.75 0.25 -2.65 2.7 -2.0 3.45 0.1 6.0 Q3.35 3.7 6.7 1.55 L4.7 -3.25 4.25 -4.2 3.7 -5.3 3.45 -5.45 Q0.95 -3.9 -1.65 -2.85" fill="#000000" fill-rule="evenodd" stroke="none"/>
    <path d="M-4.75 0.25 L-1.65 -2.85 Q0.95 -3.9 3.45 -5.45 L3.7 -5.3 4.25 -4.2 -2.65 2.7 -4.75 0.25 M4.7 -3.25 L6.7 1.55 Q3.35 3.7 0.1 6.0 L-2.0 3.45 4.7 -3.25" fill="url(#gradient0)" fill-rule="evenodd" stroke="none"/>
  </g>
  <defs>
    <linearGradient gradientTransform="matrix(0.0258, 0.0136, -0.0071, 0.0135, 11.95, -0.55)" gradientUnits="userSpaceOnUse" id="gradient0" spreadMethod="pad" x1="-819.2" x2="819.2">
      <stop offset="0.0" stop-color="#f3fefe"/>
      <stop offset="1.0" stop-color="#7fe6e6"/>
    </linearGradient>
  </defs>
</svg>
