<?xml version="1.0" encoding="UTF-8" standalone="no"?>
<svg xmlns:ffdec="https://www.free-decompiler.com/flash" xmlns:xlink="http://www.w3.org/1999/xlink" ffdec:objectType="shape" height="10.75px" width="13.0px" xmlns="http://www.w3.org/2000/svg">
  <g transform="matrix(1.0, 0.0, 0.0, 1.0, 6.5, 5.4)">
    <path d="M-6.5 -5.4 Q-4.0 -3.85 -0.95 -2.95 2.55 -1.8 5.85 -0.2 L6.5 -0.05 3.7 2.05 -0.2 3.55 -5.8 5.35 -5.8 5.15 -5.9 5.0 -5.85 4.65 -6.35 -4.4 -6.5 -4.45 -6.5 -5.4 M1.55 -1.0 L0.7 -1.35 0.35 -1.5 -1.9 -2.45 -4.8 -3.75 -4.75 -1.25 -4.75 -0.85 -4.75 -0.75 -4.7 1.65 -4.65 2.3 -4.65 2.8 -4.6 4.2 -3.25 3.8 Q0.3 2.75 3.6 1.15 4.25 0.85 4.95 0.5 L4.5 0.3 1.55 -1.0" fill="#000000" fill-rule="evenodd" stroke="none"/>
    <path d="M0.7 -1.35 L-0.1 -0.45 -1.2 -0.4 -4.3 2.65 -4.65 2.8 -4.65 2.3 -4.7 1.65 -1.95 -1.05 Q-2.5 -1.75 -1.9 -2.45 L0.35 -1.5 0.7 -1.35 M-3.25 3.8 L1.55 -1.0 4.5 0.3 3.6 1.15 Q0.3 2.75 -3.25 3.8" fill="#ffffff" fill-rule="evenodd" stroke="none"/>
    <path d="M0.7 -1.35 L1.55 -1.0 -3.25 3.8 -4.6 4.2 -4.65 2.8 -4.3 2.65 -1.2 -0.4 -0.1 -0.45 0.7 -1.35 M4.5 0.3 L4.95 0.5 Q4.25 0.85 3.6 1.15 L4.5 0.3 M-1.9 -2.45 Q-2.5 -1.75 -1.95 -1.05 L-4.7 1.65 -4.75 -0.75 -4.75 -0.85 -4.75 -1.25 -4.8 -3.75 -1.9 -2.45" fill="url(#gradient0)" fill-rule="evenodd" stroke="none"/>
  </g>
  <defs>
    <linearGradient gradientTransform="matrix(0.0258, 0.0136, -0.0071, 0.0135, 14.75, 5.95)" gradientUnits="userSpaceOnUse" id="gradient0" spreadMethod="pad" x1="-819.2" x2="819.2">
      <stop offset="0.0" stop-color="#f3fefe"/>
      <stop offset="1.0" stop-color="#7fe6e6"/>
    </linearGradient>
  </defs>
</svg>
