<?xml version="1.0" encoding="UTF-8" standalone="no"?>
<svg xmlns:ffdec="https://www.free-decompiler.com/flash" xmlns:xlink="http://www.w3.org/1999/xlink" ffdec:objectType="shape" height="14.8px" width="14.8px" xmlns="http://www.w3.org/2000/svg">
  <g transform="matrix(1.0, 0.0, 0.0, 1.0, 7.4, 7.4)">
    <path d="M-6.25 -1.3 L-6.8 -3.15 -1.4 -6.5 -1.15 -6.4 -6.25 -1.3 M0.8 -5.55 L4.45 -4.0 -4.35 4.85 -5.2 2.05 -5.55 0.85 0.8 -5.55 M5.45 -3.6 L6.3 -3.25 -1.85 4.95 -2.15 5.65 -2.15 5.7 -3.8 5.7 5.45 -3.6 M4.35 1.5 L2.3 5.65 0.25 5.65 4.35 1.5" fill="url(#gradient0)" fill-rule="evenodd" stroke="none"/>
    <path d="M-0.6 -7.4 Q1.05 -5.95 3.35 -5.45 L3.45 -5.45 Q5.2 -4.35 7.4 -3.75 L2.75 6.15 2.95 7.35 -4.05 7.4 Q-4.75 4.55 -5.8 1.65 L-7.4 -3.5 Q-5.5 -5.1 -2.55 -6.8 L-1.4 -7.4 -0.6 -7.4 M-1.15 -6.4 L-1.4 -6.5 -6.8 -3.15 -6.25 -1.3 -5.55 0.85 -5.2 2.05 -4.35 4.85 -4.1 5.7 -3.8 5.7 -2.15 5.7 -1.15 5.65 0.25 5.65 2.3 5.65 4.35 1.5 6.65 -3.1 6.3 -3.25 5.45 -3.6 4.45 -4.0 0.8 -5.55 -1.15 -6.4" fill="#000000" fill-rule="evenodd" stroke="none"/>
    <path d="M-6.25 -1.3 L-1.15 -6.4 0.8 -5.55 -5.55 0.85 -6.25 -1.3 M4.45 -4.0 L5.45 -3.6 -3.8 5.7 -4.1 5.7 -4.35 4.85 4.45 -4.0 M6.3 -3.25 L6.65 -3.1 4.35 1.5 0.25 5.65 -1.15 5.65 -2.15 5.7 -2.15 5.65 -1.85 4.95 6.3 -3.25" fill="#ffffff" fill-rule="evenodd" stroke="none"/>
  </g>
  <defs>
    <linearGradient gradientTransform="matrix(0.0258, 0.0136, -0.0071, 0.0135, -2.9, -5.9)" gradientUnits="userSpaceOnUse" id="gradient0" spreadMethod="pad" x1="-819.2" x2="819.2">
      <stop offset="0.0" stop-color="#f3fefe"/>
      <stop offset="1.0" stop-color="#7fe6e6"/>
    </linearGradient>
  </defs>
</svg>
