<?xml version="1.0" encoding="UTF-8" standalone="no"?>
<svg xmlns:ffdec="https://www.free-decompiler.com/flash" xmlns:xlink="http://www.w3.org/1999/xlink" ffdec:objectType="shape" height="11.1px" width="15.1px" xmlns="http://www.w3.org/2000/svg">
  <g transform="matrix(1.0, 0.0, 0.0, 1.0, 7.55, 5.55)">
    <path d="M7.55 4.65 L7.0 5.05 6.65 5.2 -7.35 5.55 -7.55 4.35 -2.9 -5.55 -2.85 -5.55 -2.8 -5.55 -2.45 -5.3 -1.9 -5.15 -1.9 -5.05 -1.4 -5.0 -0.95 -4.75 Q2.3 -2.9 6.25 -1.35 L7.4 -0.95 7.55 4.65 M-2.05 -4.2 L-2.4 -4.35 -2.95 -3.3 -3.15 -2.95 -6.8 3.85 -0.95 3.8 0.05 3.8 1.45 3.8 6.2 3.85 6.2 -0.65 5.95 -0.75 4.05 -1.6 -2.05 -4.2" fill="#000000" fill-rule="evenodd" stroke="none"/>
    <path d="M-2.05 -4.2 L-2.95 -3.3 -2.4 -4.35 -2.05 -4.2 M-0.95 3.8 L-0.65 3.1 4.05 -1.6 5.95 -0.75 1.45 3.8 0.05 3.8 -0.95 3.8" fill="#ffffff" fill-rule="evenodd" stroke="none"/>
    <path d="M-2.95 -3.3 L-2.05 -4.2 4.05 -1.6 -0.65 3.1 -0.95 3.8 -6.8 3.85 -3.15 -2.95 -2.95 -3.3 M1.45 3.8 L5.95 -0.75 6.2 -0.65 6.2 3.85 1.45 3.8" fill="url(#gradient0)" fill-rule="evenodd" stroke="none"/>
  </g>
  <defs>
    <linearGradient gradientTransform="matrix(0.0258, 0.0136, -0.0071, 0.0135, -13.2, -7.7)" gradientUnits="userSpaceOnUse" id="gradient0" spreadMethod="pad" x1="-819.2" x2="819.2">
      <stop offset="0.0" stop-color="#f3fefe"/>
      <stop offset="1.0" stop-color="#7fe6e6"/>
    </linearGradient>
  </defs>
</svg>
