<?xml version="1.0" encoding="UTF-8" standalone="no"?>
<svg xmlns:ffdec="https://www.free-decompiler.com/flash" xmlns:xlink="http://www.w3.org/1999/xlink" ffdec:objectType="shape" height="19.75px" width="10.2px" xmlns="http://www.w3.org/2000/svg">
  <g transform="matrix(1.0, 0.0, 0.0, 1.0, 5.1, 9.9)">
    <path d="M4.25 -9.85 L4.85 -9.75 5.05 -9.65 Q4.35 -0.45 5.05 9.0 L5.1 9.85 3.95 9.45 Q0.0 7.9 -3.25 6.05 L-3.7 5.8 -4.2 5.75 -4.2 5.65 -4.75 5.5 -5.1 5.25 -2.2 -0.6 -2.1 -1.15 Q-0.75 -3.8 0.65 -7.0 L0.95 -8.0 1.35 -8.3 1.45 -8.25 Q1.8 -9.05 1.75 -9.75 L4.25 -9.85 M3.55 -5.95 L3.65 -6.75 3.95 -8.35 2.0 -8.2 1.4 -7.8 -0.5 -2.7 -1.5 -0.25 -2.5 1.95 -4.05 5.2 -3.25 5.5 2.8 8.15 3.9 8.6 3.9 8.1 3.6 -1.4 3.55 -3.35 3.5 -4.0 3.5 -5.35 3.55 -5.95" fill="#000000" fill-rule="evenodd" stroke="none"/>
    <path d="M-0.5 -2.7 L1.4 -7.8 2.0 -8.2 3.95 -8.35 3.65 -6.75 3.55 -5.95 3.5 -6.05 3.15 -6.2 2.8 -6.05 -0.5 -2.7 M3.5 -5.35 L3.5 -4.0 3.55 -3.35 3.2 -3.4 2.5 -3.1 -2.5 1.95 -1.5 -0.25 3.5 -5.35 M3.6 -1.4 L3.9 8.1 3.35 7.95 2.8 8.15 -3.25 5.5 3.6 -1.4" fill="url(#gradient0)" fill-rule="evenodd" stroke="none"/>
    <path d="M-0.5 -2.7 L2.8 -6.05 3.15 -6.2 3.5 -6.05 3.55 -5.95 3.5 -5.35 -1.5 -0.25 -0.5 -2.7 M3.55 -3.35 L3.6 -1.4 -3.25 5.5 -4.05 5.2 -2.5 1.95 2.5 -3.1 3.2 -3.4 3.55 -3.35 M3.9 8.1 L3.9 8.6 2.8 8.15 3.35 7.95 3.9 8.1" fill="#ffffff" fill-rule="evenodd" stroke="none"/>
  </g>
  <defs>
    <linearGradient gradientTransform="matrix(0.0258, 0.0136, -0.0071, 0.0135, -15.5, 3.1)" gradientUnits="userSpaceOnUse" id="gradient0" spreadMethod="pad" x1="-819.2" x2="819.2">
      <stop offset="0.0" stop-color="#f3fefe"/>
      <stop offset="1.0" stop-color="#7fe6e6"/>
    </linearGradient>
  </defs>
</svg>
