<?xml version="1.0" encoding="UTF-8" standalone="no"?>
<svg xmlns:ffdec="https://www.free-decompiler.com/flash" xmlns:xlink="http://www.w3.org/1999/xlink" ffdec:objectType="shape" height="13.25px" width="14.15px" xmlns="http://www.w3.org/2000/svg">
  <g transform="matrix(1.0, 0.0, 0.0, 1.0, 7.05, 6.65)">
    <path d="M0.6 -1.5 L-4.55 3.7 -6.3 2.9 -5.6 2.45 0.6 -1.5 M-0.9 5.25 L3.35 1.0 1.95 3.8 0.1 5.65 -0.9 5.25" fill="#ffffff" fill-rule="evenodd" stroke="none"/>
    <path d="M-0.75 -1.45 L5.35 -5.5 6.8 -6.6 7.1 -6.65 6.8 -5.65 4.05 0.2 3.95 0.75 1.05 6.6 1.0 6.6 Q-1.25 6.0 -3.0 4.9 L-3.1 4.9 Q-5.4 4.4 -7.05 2.95 L-6.5 2.2 -0.75 -1.45 M0.6 -1.5 L-5.6 2.45 -6.3 2.9 -4.55 3.7 -0.9 5.25 0.1 5.65 0.85 6.0 1.95 3.8 3.35 1.0 3.65 0.3 6.1 -5.35 0.6 -1.5" fill="#000000" fill-rule="evenodd" stroke="none"/>
    <path d="M-4.55 3.7 L0.6 -1.5 6.1 -5.35 3.65 0.3 3.35 1.0 -0.9 5.25 -4.55 3.7 M1.95 3.8 L0.85 6.0 0.1 5.65 1.95 3.8" fill="url(#gradient0)" fill-rule="evenodd" stroke="none"/>
  </g>
  <defs>
    <linearGradient gradientTransform="matrix(0.0258, 0.0136, -0.0071, 0.0135, -9.35, 4.45)" gradientUnits="userSpaceOnUse" id="gradient0" spreadMethod="pad" x1="-819.2" x2="819.2">
      <stop offset="0.0" stop-color="#f3fefe"/>
      <stop offset="1.0" stop-color="#7fe6e6"/>
    </linearGradient>
  </defs>
</svg>
