<?xml version="1.0" encoding="UTF-8" standalone="no"?>
<svg xmlns:ffdec="https://www.free-decompiler.com/flash" xmlns:xlink="http://www.w3.org/1999/xlink" ffdec:objectType="shape" height="11.45px" width="24.85px" xmlns="http://www.w3.org/2000/svg">
  <g transform="matrix(1.0, 0.0, 0.0, 1.0, 12.4, 5.75)">
    <path d="M11.4 -5.4 L12.45 -5.65 Q12.5 -4.95 12.15 -4.15 L12.05 -4.2 Q11.7 -3.85 11.35 -3.85 L9.9 -2.75 Q6.75 -0.6 3.8 1.3 L-1.95 4.95 -2.5 5.7 -3.45 5.7 -4.9 4.9 Q-8.0 3.4 -11.4 2.65 -12.2 2.15 -12.4 1.25 L-12.35 1.25 -6.85 -2.5 Q-6.2 -2.85 -5.8 -3.55 -4.75 -4.35 -4.3 -5.6 L0.8 -5.55 1.05 -5.55 Q6.35 -6.0 11.35 -5.4 L11.4 -5.4 M-9.7 2.15 L-3.0 5.1 -2.85 5.0 0.85 2.8 4.1 0.55 9.3 -2.95 11.25 -4.2 11.45 -4.35 10.2 -4.3 9.45 -4.3 9.4 -4.3 9.2 -4.3 7.8 -4.25 -3.5 -4.25 -4.0 -4.25 -4.15 -4.25 Q-6.25 -2.3 -8.75 -0.7 L-11.6 1.2 -11.7 1.25 -10.65 1.75 -9.7 2.15" fill="#000000" fill-rule="evenodd" stroke="none"/>
    <path d="M-3.5 -4.25 L-3.65 -3.9 -5.6 -1.9 0.25 -1.7 Q1.65 -1.65 1.5 -0.3 1.4 1.0 0.05 1.0 L-8.65 1.15 -9.7 2.15 -10.65 1.75 -10.1 1.2 -11.6 1.2 -8.75 -0.7 Q-6.25 -2.3 -4.15 -4.25 L-4.0 -4.25 -3.5 -4.25 M0.85 2.8 L7.8 -4.25 9.2 -4.3 9.4 -4.3 9.45 -4.3 10.2 -4.3 9.9 -3.6 9.3 -2.95 4.1 0.55 0.85 2.8" fill="#ffffff" fill-rule="evenodd" stroke="none"/>
    <path d="M-9.7 2.15 L-8.65 1.15 0.05 1.0 Q1.4 1.0 1.5 -0.3 1.65 -1.65 0.25 -1.7 L-5.6 -1.9 -3.65 -3.9 -3.5 -4.25 7.8 -4.25 0.85 2.8 -2.85 5.0 -3.0 5.1 -9.7 2.15 M-11.6 1.2 L-10.1 1.2 -10.65 1.75 -11.7 1.25 -11.6 1.2 M9.3 -2.95 L9.9 -3.6 10.2 -4.3 11.45 -4.35 11.25 -4.2 9.3 -2.95" fill="url(#gradient0)" fill-rule="evenodd" stroke="none"/>
  </g>
  <defs>
    <linearGradient gradientTransform="matrix(0.0258, 0.0136, -0.0071, 0.0135, -4.8, 7.2)" gradientUnits="userSpaceOnUse" id="gradient0" spreadMethod="pad" x1="-819.2" x2="819.2">
      <stop offset="0.0" stop-color="#f3fefe"/>
      <stop offset="1.0" stop-color="#7fe6e6"/>
    </linearGradient>
  </defs>
</svg>
