<?xml version="1.0" encoding="UTF-8" standalone="no"?>
<svg xmlns:ffdec="https://www.free-decompiler.com/flash" xmlns:xlink="http://www.w3.org/1999/xlink" ffdec:objectType="shape" height="7.4px" width="21.75px" xmlns="http://www.w3.org/2000/svg">
  <g transform="matrix(1.0, 0.0, 0.0, 1.0, 10.9, 3.7)">
    <path d="M-10.7 -2.35 Q-10.5 -3.15 -9.9 -3.65 L-7.7 -3.65 Q1.55 -3.25 10.85 -3.15 10.4 -1.9 9.35 -1.1 L8.3 -0.05 2.8 3.7 1.45 3.5 Q-1.85 1.9 -5.35 0.75 -8.4 -0.15 -10.9 -1.7 L-10.9 -2.35 -10.7 -2.35 M-3.05 0.75 L-1.55 1.4 -0.15 2.05 2.35 3.2 6.55 0.45 9.3 -1.8 9.35 -1.8 5.3 -1.85 3.55 -1.9 1.85 -1.95 -0.55 -2.0 -1.05 -2.0 -1.7 -2.0 -9.3 -2.25 -9.3 -1.9 -4.05 0.3 -3.05 0.75" fill="#000000" fill-rule="evenodd" stroke="none"/>
    <path d="M-1.55 1.4 L-3.05 0.75 -0.7 -1.65 Q-0.55 -1.8 -0.55 -2.0 L1.85 -1.95 1.6 -1.75 -1.55 1.4 M-4.05 0.3 L-9.3 -1.9 -9.3 -2.25 -1.7 -2.0 -4.05 0.3 M6.55 0.45 L3.7 0.35 Q4.15 -0.1 4.15 -0.7 L3.7 -1.75 3.55 -1.9 5.3 -1.85 9.35 -1.8 9.3 -1.8 6.55 0.45" fill="url(#gradient0)" fill-rule="evenodd" stroke="none"/>
    <path d="M-1.55 1.4 L1.6 -1.75 1.85 -1.95 3.55 -1.9 3.7 -1.75 4.15 -0.7 Q4.15 -0.1 3.7 0.35 L6.55 0.45 2.35 3.2 -0.15 2.05 -1.55 1.4 M-0.55 -2.0 Q-0.55 -1.8 -0.7 -1.65 L-3.05 0.75 -4.05 0.3 -1.7 -2.0 -1.05 -2.0 -0.55 -2.0" fill="#ffffff" fill-rule="evenodd" stroke="none"/>
  </g>
  <defs>
    <linearGradient gradientTransform="matrix(0.0258, 0.0136, -0.0071, 0.0135, 10.35, 9.65)" gradientUnits="userSpaceOnUse" id="gradient0" spreadMethod="pad" x1="-819.2" x2="819.2">
      <stop offset="0.0" stop-color="#f3fefe"/>
      <stop offset="1.0" stop-color="#7fe6e6"/>
    </linearGradient>
  </defs>
</svg>
