<?xml version="1.0" encoding="UTF-8" standalone="no"?>
<svg xmlns:ffdec="https://www.free-decompiler.com/flash" xmlns:xlink="http://www.w3.org/1999/xlink" ffdec:objectType="shape" height="81.0px" width="81.05px" xmlns="http://www.w3.org/2000/svg">
  <g transform="matrix(1.0, 0.0, 0.0, 1.0, 2.6, 2.5)">
    <path d="M71.7 -0.55 L72.0 0.15 71.7 0.85 71.0 1.15 Q70.6 1.15 70.3 0.85 70.0 0.55 70.0 0.15 70.0 -0.25 70.3 -0.55 70.6 -0.85 71.0 -0.85 L71.7 -0.55 M66.05 -0.4 L66.75 -0.1 67.05 0.6 66.75 1.3 66.05 1.6 Q65.65 1.6 65.35 1.3 65.05 1.0 65.05 0.6 65.05 0.2 65.35 -0.1 65.65 -0.4 66.05 -0.4 M61.8 2.05 L61.1 2.35 Q60.7 2.35 60.4 2.05 60.1 1.75 60.1 1.35 60.1 0.95 60.4 0.65 60.7 0.35 61.1 0.35 L61.8 0.65 62.1 1.35 61.8 2.05 M56.95 1.7 L57.25 2.4 56.95 3.1 Q56.65 3.4 56.25 3.4 L55.55 3.1 Q55.25 2.8 55.25 2.4 55.25 2.0 55.55 1.7 55.85 1.4 56.25 1.4 56.65 1.4 56.95 1.7 M50.75 4.55 Q50.45 4.25 50.45 3.85 50.45 3.45 50.75 3.15 51.05 2.85 51.45 2.85 51.85 2.85 52.15 3.15 L52.45 3.85 52.15 4.55 51.45 4.85 50.75 4.55 M42.85 7.0 L43.15 7.7 42.85 8.4 Q42.55 8.7 42.15 8.7 L41.45 8.4 Q41.15 8.1 41.15 7.7 41.15 7.3 41.45 7.0 41.75 6.7 42.15 6.7 42.55 6.7 42.85 7.0 M34.25 12.1 L34.55 12.8 34.25 13.5 33.55 13.8 Q33.15 13.8 32.85 13.5 32.55 13.2 32.55 12.8 32.55 12.4 32.85 12.1 33.15 11.8 33.55 11.8 33.95 11.8 34.25 12.1 M37.05 10.8 Q36.75 10.5 36.75 10.1 36.75 9.7 37.05 9.4 37.35 9.1 37.75 9.1 38.15 9.1 38.45 9.4 L38.75 10.1 38.45 10.8 37.75 11.1 Q37.35 11.1 37.05 10.8 M26.4 18.3 L26.7 19.0 26.4 19.7 26.35 19.75 25.7 20.0 Q25.3 20.0 25.0 19.7 L24.95 19.65 24.7 19.0 Q24.7 18.6 25.0 18.3 25.3 18.0 25.7 18.0 26.1 18.0 26.4 18.3 M28.55 15.75 Q28.55 15.35 28.85 15.05 29.15 14.75 29.55 14.75 29.95 14.75 30.25 15.05 L30.55 15.75 30.25 16.45 Q29.95 16.75 29.55 16.75 L28.85 16.45 Q28.55 16.15 28.55 15.75 M19.4 25.3 L19.7 26.0 19.4 26.7 18.7 27.0 18.0 26.7 Q17.7 26.4 17.7 26.0 17.7 25.6 18.0 25.3 18.3 25.0 18.7 25.0 19.1 25.0 19.4 25.3 M16.25 30.55 L15.55 30.85 14.85 30.55 Q14.55 30.25 14.55 29.85 14.55 29.45 14.85 29.15 15.15 28.85 15.55 28.85 15.95 28.85 16.25 29.15 L16.55 29.85 16.25 30.55 M13.6 33.85 L13.3 34.55 12.6 34.85 11.9 34.55 Q11.6 34.25 11.6 33.85 11.6 33.45 11.9 33.15 12.2 32.85 12.6 32.85 13.0 32.85 13.3 33.15 L13.6 33.85 M8.95 38.0 Q8.95 37.6 9.25 37.3 9.55 37.0 9.95 37.0 10.35 37.0 10.65 37.3 L10.95 38.0 10.65 38.7 9.95 39.0 Q9.55 39.0 9.25 38.7 8.95 38.4 8.95 38.0 M6.9 41.7 Q7.2 41.4 7.6 41.4 8.0 41.4 8.3 41.7 L8.6 42.4 8.3 43.1 7.6 43.4 6.9 43.1 Q6.6 42.8 6.6 42.4 6.6 42.0 6.9 41.7 M4.3 50.85 L4.5 51.0 4.8 51.7 4.75 52.0 4.5 52.4 3.8 52.7 Q3.4 52.7 3.1 52.4 2.8 52.1 2.8 51.7 2.8 51.3 3.1 51.0 3.4 50.7 3.8 50.7 L3.9 50.7 4.3 50.85 M3.4 56.5 L3.1 57.2 2.4 57.5 Q2.0 57.5 1.7 57.2 L1.4 56.5 Q1.4 56.1 1.7 55.8 2.0 55.5 2.4 55.5 2.8 55.5 3.1 55.8 L3.4 56.5 M0.6 60.7 Q0.9 60.4 1.3 60.4 1.7 60.4 2.0 60.7 L2.3 61.4 2.0 62.1 1.3 62.4 0.6 62.1 Q0.3 61.8 0.3 61.4 0.3 61.0 0.6 60.7 M1.55 66.45 L1.25 67.15 0.55 67.45 Q0.15 67.45 -0.15 67.15 L-0.45 66.45 -0.15 65.75 Q0.15 65.45 0.55 65.45 0.95 65.45 1.25 65.75 L1.55 66.45 M0.1 72.4 L-0.6 72.1 -0.9 71.4 -0.6 70.7 Q-0.3 70.4 0.1 70.4 0.5 70.4 0.8 70.7 L1.1 71.4 0.8 72.1 0.1 72.4" fill="#3399ff" fill-rule="evenodd" stroke="none"/>
    <path d="M77.0 -1.05 L77.45 0.0 77.0 1.05 Q76.55 1.5 75.95 1.5 75.35 1.5 74.9 1.05 74.45 0.6 74.45 0.0 74.45 -0.6 74.9 -1.05 75.35 -1.5 75.95 -1.5 76.55 -1.5 77.0 -1.05 M46.75 4.05 Q47.35 4.05 47.85 4.5 48.3 4.95 48.35 5.6 48.3 6.25 47.85 6.7 47.35 7.15 46.75 7.2 46.1 7.15 45.65 6.7 45.15 6.25 45.2 5.6 45.15 4.95 45.65 4.5 46.1 4.05 46.75 4.05 M22.15 20.85 Q22.75 20.85 23.2 21.3 23.65 21.75 23.65 22.35 L23.2 23.4 Q22.75 23.85 22.15 23.85 21.55 23.85 21.1 23.4 20.65 22.95 20.65 22.35 20.65 21.75 21.1 21.3 21.55 20.85 22.15 20.85 M4.0 46.95 Q4.0 46.3 4.45 45.8 4.95 45.35 5.6 45.35 6.2 45.35 6.65 45.8 7.15 46.3 7.15 46.95 L6.65 48.05 Q6.2 48.5 5.6 48.5 4.95 48.5 4.45 48.05 4.0 47.55 4.0 46.95 M0.95 77.05 Q0.5 77.5 -0.1 77.5 -0.7 77.5 -1.15 77.05 L-1.6 76.0 Q-1.6 75.4 -1.15 74.95 -0.7 74.5 -0.1 74.5 0.5 74.5 0.95 74.95 1.4 75.4 1.4 76.0 L0.95 77.05 Z" fill="none" stroke="#3399ff" stroke-linecap="round" stroke-linejoin="round" stroke-width="2.0"/>
    <path d="M22.15 20.85 Q22.75 20.85 23.2 21.3 23.65 21.75 23.65 22.35 L23.2 23.4 Q22.75 23.85 22.15 23.85 21.55 23.85 21.1 23.4 20.65 22.95 20.65 22.35 20.65 21.75 21.1 21.3 21.55 20.85 22.15 20.85" fill="#ffffff" fill-rule="evenodd" stroke="none"/>
    <path d="M47.85 4.45 Q48.3 4.95 48.3 5.55 48.3 6.2 47.85 6.65 47.35 7.15 46.75 7.15 46.1 7.15 45.65 6.65 45.15 6.2 45.15 5.55 45.15 4.95 45.65 4.45 46.1 4.0 46.75 4.0 47.35 4.0 47.85 4.45" fill="#ffffff" fill-rule="evenodd" stroke="none"/>
    <path d="M75.95 -1.5 Q76.55 -1.5 77.0 -1.05 L77.45 0.0 77.0 1.05 Q76.55 1.5 75.95 1.5 75.35 1.5 74.9 1.05 74.45 0.6 74.45 0.0 74.45 -0.6 74.9 -1.05 75.35 -1.5 75.95 -1.5" fill="#ffffff" fill-rule="evenodd" stroke="none"/>
    <path d="M1.4 76.0 L0.95 77.05 Q0.5 77.5 -0.1 77.5 -0.7 77.5 -1.15 77.05 L-1.6 76.0 Q-1.6 75.4 -1.15 74.95 -0.7 74.5 -0.1 74.5 0.5 74.5 0.95 74.95 1.4 75.4 1.4 76.0" fill="#ffffff" fill-rule="evenodd" stroke="none"/>
    <path d="M4.0 46.95 Q4.0 46.3 4.5 45.85 4.95 45.35 5.6 45.35 6.2 45.35 6.7 45.85 7.15 46.3 7.15 46.95 7.15 47.6 6.7 48.05 L5.6 48.5 Q4.95 48.5 4.5 48.05 4.0 47.6 4.0 46.95" fill="#ffffff" fill-rule="evenodd" stroke="none"/>
  </g>
</svg>
