<?xml version="1.0" encoding="UTF-8" standalone="no"?>
<svg xmlns:ffdec="https://www.free-decompiler.com/flash" xmlns:xlink="http://www.w3.org/1999/xlink" ffdec:objectType="shape" height="18.5px" width="19.15px" xmlns="http://www.w3.org/2000/svg">
  <g transform="matrix(1.0, 0.0, 0.0, 1.0, 11.25, 8.05)">
    <path d="M0.35 -8.05 L2.8 -5.15 2.7 -5.1 7.9 0.9 7.3 2.2 -1.15 10.45 -1.15 9.05 5.35 2.65 5.85 1.75 Q6.55 0.75 6.1 0.2 L4.15 -2.05 2.0 -4.45 2.0 -4.5 0.15 -6.5 -11.25 1.1 -11.25 -1.0 0.35 -8.05" fill="#000000" fill-rule="evenodd" stroke="none"/>
    <path d="M2.0 -4.5 L2.0 -4.45 4.15 -2.05 6.1 0.2 Q6.55 0.75 5.85 1.75 L5.35 2.65 -1.15 9.05 -7.35 9.05 -11.25 1.1 0.15 -6.5 2.0 -4.5" fill="url(#gradient0)" fill-rule="evenodd" stroke="none"/>
  </g>
  <defs>
    <linearGradient gradientTransform="matrix(0.0048, 0.0059, -0.0074, 0.006, -2.0, 1.7)" gradientUnits="userSpaceOnUse" id="gradient0" spreadMethod="pad" x1="-819.2" x2="819.2">
      <stop offset="0.0" stop-color="#737373"/>
      <stop offset="1.0" stop-color="#bfbfbf"/>
    </linearGradient>
  </defs>
</svg>
