<?xml version="1.0" encoding="UTF-8" standalone="no"?>
<svg xmlns:ffdec="https://www.free-decompiler.com/flash" xmlns:xlink="http://www.w3.org/1999/xlink" ffdec:objectType="shape" height="27.1px" width="26.2px" xmlns="http://www.w3.org/2000/svg">
  <g transform="matrix(1.0, 0.0, 0.0, 1.0, 14.1, 11.4)">
    <path d="M-12.2 -1.45 L-14.1 -1.7 1.65 -11.4 5.65 -6.65 5.6 -6.6 12.1 1.0 11.15 3.0 -1.75 15.7 -1.05 12.7 Q7.6 5.35 9.15 3.05 10.9 0.35 9.9 -0.55 L7.05 -3.55 4.85 -5.95 4.7 -6.15 4.8 -6.1 1.3 -9.95 -12.2 -1.45" fill="#000000" fill-rule="evenodd" stroke="none"/>
    <path d="M-12.2 -1.45 L1.3 -9.95 4.8 -6.1 4.7 -6.15 4.85 -5.95 7.05 -3.55 9.9 -0.55 Q10.9 0.35 9.15 3.05 7.6 5.35 -1.05 12.7 L-12.2 -1.45" fill="url(#gradient0)" fill-rule="evenodd" stroke="none"/>
  </g>
  <defs>
    <linearGradient gradientTransform="matrix(0.0062, 0.0078, -0.0108, 0.0086, -1.0, 1.3)" gradientUnits="userSpaceOnUse" id="gradient0" spreadMethod="pad" x1="-819.2" x2="819.2">
      <stop offset="0.0" stop-color="#a7a7a7"/>
      <stop offset="1.0" stop-color="#eaeaea"/>
    </linearGradient>
  </defs>
</svg>
