<?xml version="1.0" encoding="UTF-8" standalone="no"?>
<svg xmlns:ffdec="https://www.free-decompiler.com/flash" xmlns:xlink="http://www.w3.org/1999/xlink" ffdec:objectType="shape" height="20.0px" width="19.95px" xmlns="http://www.w3.org/2000/svg">
  <g transform="matrix(1.0, 0.0, 0.0, 1.0, 9.75, 10.0)">
    <path d="M10.2 0.0 Q10.2 4.1 7.25 7.05 4.3 10.0 0.25 10.0 -3.95 10.0 -6.85 7.05 -9.8 4.1 -9.75 0.0 -9.8 -4.15 -6.85 -7.1 -3.95 -10.0 0.25 -10.0 4.3 -10.0 7.25 -7.1 10.2 -4.15 10.2 0.0" fill="#000000" fill-opacity="0.03137255" fill-rule="evenodd" stroke="none"/>
    <path d="M9.75 0.05 Q9.75 3.95 6.95 6.75 4.15 9.55 0.25 9.55 -3.75 9.55 -6.55 6.75 -9.3 3.95 -9.3 0.05 -9.3 -3.95 -6.55 -6.75 -3.75 -9.5 0.25 -9.5 4.15 -9.5 6.95 -6.75 9.75 -3.95 9.75 0.05" fill="#000000" fill-opacity="0.0627451" fill-rule="evenodd" stroke="none"/>
    <path d="M9.05 0.05 Q9.05 3.65 6.45 6.25 3.85 8.85 0.25 8.85 -3.45 8.85 -6.0 6.25 -8.6 3.65 -8.6 0.05 -8.6 -3.65 -6.0 -6.25 -3.45 -8.85 0.25 -8.8 3.85 -8.85 6.45 -6.25 9.05 -3.65 9.05 0.05" fill="#000000" fill-opacity="0.15294118" fill-rule="evenodd" stroke="none"/>
    <path d="M4.35 -5.0 L3.3 -5.75 Q1.9 -6.55 0.15 -6.55 -2.6 -6.55 -4.5 -4.65 -6.4 -2.75 -6.4 0.0 -6.4 2.0 -5.3 3.6 L-4.75 4.3 -4.85 4.2 -4.5 4.6 -4.45 4.6 -4.4 4.65 -4.2 4.9 -4.1 4.95 -3.6 5.35 -2.65 5.9 Q-1.35 6.55 0.2 6.55 2.9 6.55 4.8 4.65 6.7 2.75 6.75 0.05 6.75 -1.35 6.25 -2.5 L4.95 -4.4 5.15 -4.25 4.85 -4.55 4.8 -4.6 4.8 -4.65 4.5 -4.9 4.35 -5.0 M5.85 -5.7 Q8.2 -3.35 8.25 0.0 8.2 3.35 5.85 5.7 3.45 8.1 0.15 8.1 -3.2 8.1 -5.6 5.7 -7.95 3.35 -7.95 0.0 -7.95 -3.35 -5.6 -5.7 -3.2 -8.1 0.15 -8.05 3.45 -8.1 5.85 -5.7" fill="#000000" fill-rule="evenodd" stroke="none"/>
    <path d="M4.8 -4.6 Q6.7 -2.7 6.7 0.05 6.7 2.75 4.8 4.65 2.9 6.55 0.2 6.55 -2.55 6.55 -4.45 4.65 -6.35 2.75 -6.35 0.05 -6.35 -2.7 -4.45 -4.6 -2.55 -6.5 0.2 -6.5 2.9 -6.5 4.8 -4.6" fill="url(#gradient0)" fill-rule="evenodd" stroke="none"/>
  </g>
  <defs>
    <linearGradient gradientTransform="matrix(0.0055, 0.0057, -0.0057, 0.0055, 0.2, 0.05)" gradientUnits="userSpaceOnUse" id="gradient0" spreadMethod="pad" x1="-819.2" x2="819.2">
      <stop offset="0.0" stop-color="#68b4fd"/>
      <stop offset="1.0" stop-color="#0157ad"/>
    </linearGradient>
  </defs>
</svg>
