<?xml version="1.0" encoding="UTF-8" standalone="no"?>
<svg xmlns:ffdec="https://www.free-decompiler.com/flash" xmlns:xlink="http://www.w3.org/1999/xlink" ffdec:objectType="shape" height="13.1px" width="13.1px" xmlns="http://www.w3.org/2000/svg">
  <g transform="matrix(1.0, 0.0, 0.0, 1.0, 6.4, 6.55)">
    <path d="M5.15 -4.25 Q3.35 -5.8 0.9 -5.8 -1.8 -5.8 -3.7 -3.9 -5.6 -1.95 -5.6 0.75 -5.6 3.2 -4.1 4.95 L-4.5 4.6 Q-6.4 2.7 -6.4 0.0 -6.4 -2.75 -4.5 -4.65 -2.55 -6.55 0.15 -6.55 2.85 -6.55 4.75 -4.65 L5.15 -4.25" fill="#ffffff" fill-opacity="0.5019608" fill-rule="evenodd" stroke="none"/>
    <path d="M4.8 -4.6 Q6.7 -2.7 6.7 0.0 6.7 2.7 4.8 4.65 2.85 6.55 0.15 6.55 -2.6 6.55 -4.45 4.65 L-4.85 4.25 Q-3.05 5.75 -0.6 5.75 2.1 5.75 4.0 3.85 5.9 1.95 5.9 -0.75 5.9 -3.2 4.35 -5.0 L4.8 -4.6" fill="#003366" fill-opacity="0.2" fill-rule="evenodd" stroke="none"/>
  </g>
</svg>
