<?xml version="1.0" encoding="UTF-8" standalone="no"?>
<svg xmlns:ffdec="https://www.free-decompiler.com/flash" xmlns:xlink="http://www.w3.org/1999/xlink" ffdec:objectType="shape" height="16.15px" width="16.2px" xmlns="http://www.w3.org/2000/svg">
  <g transform="matrix(1.0, 0.0, 0.0, 1.0, 7.95, 8.05)">
    <path d="M4.8 -4.6 Q6.7 -2.7 6.7 0.05 6.7 2.75 4.8 4.65 2.9 6.55 0.2 6.55 -2.55 6.55 -4.45 4.65 -6.35 2.75 -6.35 0.05 -6.35 -2.7 -4.45 -4.6 -2.55 -6.5 0.2 -6.5 2.9 -6.5 4.8 -4.6" fill="#ffffff" fill-opacity="0.5019608" fill-rule="evenodd" stroke="none"/>
    <path d="M5.85 -5.7 Q8.2 -3.35 8.25 0.0 8.2 3.35 5.85 5.7 3.45 8.1 0.15 8.1 -3.2 8.1 -5.6 5.7 -7.95 3.35 -7.95 0.0 -7.95 -3.35 -5.6 -5.7 -3.2 -8.1 0.15 -8.05 3.45 -8.1 5.85 -5.7 M4.8 -4.6 Q2.9 -6.5 0.2 -6.5 -2.55 -6.5 -4.45 -4.6 -6.35 -2.7 -6.35 0.05 -6.35 2.75 -4.45 4.65 -2.55 6.55 0.2 6.55 2.9 6.55 4.8 4.65 6.7 2.75 6.7 0.05 6.7 -2.7 4.8 -4.6" fill="#003366" fill-opacity="0.2" fill-rule="evenodd" stroke="none"/>
  </g>
</svg>
