<?xml version="1.0" encoding="UTF-8" standalone="no"?>
<svg xmlns:ffdec="https://www.free-decompiler.com/flash" xmlns:xlink="http://www.w3.org/1999/xlink" ffdec:objectType="shape" height="107.25px" width="48.75px" xmlns="http://www.w3.org/2000/svg">
  <g transform="matrix(1.0, 0.0, 0.0, 1.0, 24.35, 53.6)">
    <path d="M9.5 -7.25 Q8.8 -9.65 7.5 -11.8 L5.6 -14.5 5.5 -14.65 Q0.6 -20.5 -9.25 -25.0 -12.85 -26.65 -16.7 -27.7 L-17.45 -27.75 Q-20.25 -26.25 -20.95 -23.8 -21.3 -22.75 -21.95 -21.8 -21.0 -35.4 -14.1 -47.9 L-12.6 -48.5 -12.45 -48.5 -11.6 -48.7 -11.55 -48.9 -8.55 -49.65 -8.25 -49.9 -8.05 -50.15 -6.6 -50.55 Q-5.05 -51.1 -3.5 -50.55 L-2.9 -50.15 Q-1.45 -49.4 0.1 -48.8 3.0 -47.8 5.45 -46.05 L5.95 -45.15 7.95 -44.05 Q8.85 -42.6 10.25 -41.55 L11.45 -40.45 11.5 -40.1 11.55 -39.85 11.65 -39.5 Q13.3 -38.55 14.1 -36.7 14.45 -35.85 15.1 -35.15 L15.15 -34.85 15.2 -34.55 15.3 -34.25 15.55 -33.9 16.2 -32.9 16.85 -30.8 17.2 -29.45 17.2 -29.05 17.2 -28.75 17.4 -28.45 17.5 -28.3 17.6 -27.85 17.6 -27.25 17.6 -26.65 17.6 -26.35 17.8 -26.05 18.0 -25.7 18.1 -25.15 18.4 -23.3 18.45 -23.0 18.75 -22.7 18.8 -22.65 Q21.45 -9.9 21.95 2.75 22.55 16.3 22.0 29.75 21.6 40.8 18.15 51.5 L18.2 51.65 17.4 51.85 Q14.4 52.25 11.0 51.9 L10.1 52.05 7.15 51.5 Q7.8 50.95 7.8 50.05 L7.95 49.85 8.95 50.2 Q15.5 35.65 13.25 19.85 L12.7 19.4 12.65 18.6 12.65 18.1 13.0 14.0 12.3 13.4 Q12.65 10.6 12.45 7.85 L12.6 7.85 12.7 8.0 12.5 7.25 12.45 7.05 Q11.6 3.8 11.4 0.55 L11.2 -0.45 11.1 -1.2 11.05 -1.45 10.95 -1.75 10.85 -2.45 10.7 -3.6 10.55 -4.2 10.55 -4.25 10.15 -6.0 9.65 -6.9 9.55 -7.25 9.55 -7.15 9.5 -7.25 M-17.95 -24.45 L-18.8 -23.95 -19.25 -23.55 -18.75 -24.05 -18.4 -24.3 -17.95 -24.45" fill="#95632d" fill-rule="evenodd" stroke="none"/>
    <path d="M18.15 51.5 Q21.6 40.8 22.0 29.75 22.55 16.3 21.95 2.75 21.45 -9.9 18.8 -22.65 L18.75 -22.7 18.45 -23.0 18.4 -23.3 18.1 -25.15 18.0 -25.7 17.8 -26.05 17.6 -26.35 17.6 -26.65 17.6 -27.25 17.6 -27.85 17.5 -28.3 17.4 -28.45 17.2 -28.75 17.2 -29.05 17.2 -29.45 16.85 -30.8 16.2 -32.9 15.55 -33.9 15.3 -34.25 15.2 -34.55 15.15 -34.85 15.1 -35.15 Q14.45 -35.85 14.1 -36.7 13.3 -38.55 11.65 -39.5 L11.55 -39.85 11.5 -40.1 11.45 -40.45 10.25 -41.55 Q8.85 -42.6 7.95 -44.05 L5.95 -45.15 5.45 -46.05 Q3.0 -47.8 0.1 -48.8 -1.45 -49.4 -2.9 -50.15 L-3.5 -50.55 Q-5.05 -51.1 -6.6 -50.55 L-8.05 -50.15 -8.25 -49.9 -8.55 -49.65 -11.55 -48.9 -11.6 -48.7 -12.45 -48.5 -12.6 -48.5 -14.1 -47.9 Q-21.0 -35.4 -21.95 -21.8 -21.3 -22.75 -20.95 -23.8 -20.25 -26.25 -17.45 -27.75 L-16.7 -27.7 Q-12.85 -26.65 -9.25 -25.0 0.6 -20.5 5.5 -14.65 L5.6 -14.5 7.5 -11.8 Q8.8 -9.65 9.5 -7.25 L9.55 -7.1 9.55 -7.15 9.55 -7.25 9.65 -6.9 10.4 -4.7 10.55 -4.25 10.55 -4.2 10.7 -3.6 10.85 -2.45 10.95 -1.75 11.15 -0.85 11.2 -0.45 11.4 0.55 Q11.6 3.8 12.45 7.05 L12.35 6.95 12.4 7.65 12.45 7.85 Q12.65 10.6 12.3 13.4 L13.0 14.0 12.65 18.1 12.55 19.25 12.7 19.4 13.25 19.85 Q15.5 35.65 8.95 50.2 L7.95 49.85 5.15 49.0 7.25 48.0 7.35 47.05 8.15 46.7 8.65 44.3 Q12.25 26.0 9.6 7.3 L9.7 5.3 Q9.55 2.95 9.0 0.65 L8.55 -0.85 8.45 -1.25 8.3 -1.65 Q8.1 -2.15 8.2 -2.6 8.45 -4.4 7.4 -5.75 L7.2 -6.5 6.0 -9.95 5.95 -10.1 Q1.2 -20.0 -15.3 -24.35 L-15.95 -24.6 -16.45 -24.65 -16.7 -24.7 -17.0 -24.65 -17.95 -24.45 -18.4 -24.3 -18.75 -24.05 -19.25 -23.55 -19.35 -23.4 -19.85 -22.35 Q-22.0 -21.2 -21.55 -19.1 L-22.1 -18.75 -22.1 -18.1 Q-22.3 -2.15 -18.25 14.35 -16.6 21.3 -12.8 28.3 -11.1 31.6 -9.95 35.0 -8.85 38.3 -6.95 41.5 L-7.0 41.6 -6.85 42.1 -6.6 42.85 Q-4.3 46.5 1.0 49.2 3.9 50.65 7.15 51.5 L10.1 52.05 11.0 51.9 Q14.4 52.25 17.4 51.85 L18.2 51.65 18.35 51.6 18.15 51.5 M12.5 7.25 L12.7 8.0 12.6 7.85 12.4 7.65 12.45 7.3 12.5 7.25 M15.7 -38.2 L16.0 -37.85 17.05 -36.1 17.2 -35.75 17.2 -35.45 17.2 -35.15 Q19.35 -33.2 19.55 -30.3 L19.65 -29.1 Q20.85 -25.95 21.55 -22.65 L21.95 -21.7 22.1 -20.7 22.1 -20.55 22.15 -20.5 23.4 -10.7 24.0 -4.55 23.9 -4.5 Q24.5 2.95 24.4 10.35 24.15 26.25 22.15 42.0 L21.5 48.0 20.75 51.25 Q21.4 51.9 20.25 52.55 18.5 53.45 15.95 53.45 L15.2 53.65 Q9.25 53.85 3.55 51.75 -2.35 49.6 -6.05 46.2 -8.35 44.05 -9.15 41.75 -13.5 32.95 -17.2 23.9 -24.25 6.95 -24.35 -9.95 L-24.2 -17.05 -24.3 -17.05 -24.1 -19.2 -24.1 -19.7 -24.0 -19.75 -24.0 -20.35 -23.95 -20.5 -23.95 -20.65 -23.95 -20.75 Q-23.1 -30.25 -20.6 -39.55 -19.15 -44.95 -15.55 -49.6 L-15.25 -49.6 -15.2 -49.6 -13.45 -50.8 -12.3 -51.3 -11.55 -52.0 -10.1 -53.0 -8.55 -53.05 -8.3 -53.4 -7.9 -53.5 -7.2 -53.55 -7.1 -53.6 -2.55 -52.3 Q0.25 -51.7 3.0 -50.35 5.45 -49.15 7.45 -47.4 L7.7 -47.25 10.15 -44.6 13.4 -41.5 Q14.8 -40.05 15.7 -38.2" fill="#000000" fill-rule="evenodd" stroke="none"/>
    <path d="M9.5 -7.25 L9.55 -7.15 9.55 -7.1 9.5 -7.25 M9.65 -6.9 L10.15 -6.0 10.55 -4.25 10.4 -4.7 9.65 -6.9 M10.95 -1.75 L11.05 -1.45 11.1 -1.2 11.15 -0.85 10.95 -1.75 M12.65 18.1 L12.65 18.6 12.7 19.4 12.55 19.25 12.65 18.1 M7.95 49.85 L7.8 50.05 Q7.8 50.95 7.15 51.5 3.9 50.65 1.0 49.2 -4.3 46.5 -6.6 42.85 L-6.85 42.1 -7.0 41.6 -6.95 41.5 Q-8.85 38.3 -9.95 35.0 -11.1 31.6 -12.8 28.3 -16.6 21.3 -18.25 14.35 -22.3 -2.15 -22.1 -18.1 L-22.1 -18.75 -21.55 -19.1 Q-22.0 -21.2 -19.85 -22.35 L-19.35 -23.4 -19.25 -23.55 -18.8 -23.95 -17.95 -24.45 -17.0 -24.65 -16.7 -24.7 -16.45 -24.65 -15.95 -24.6 -15.3 -24.35 Q1.2 -20.0 5.95 -10.1 L6.0 -9.95 7.2 -6.5 7.4 -5.75 Q8.45 -4.4 8.2 -2.6 8.1 -2.15 8.3 -1.65 L8.45 -1.25 8.55 -0.85 9.0 0.65 Q9.55 2.95 9.7 5.3 L9.6 7.3 Q12.25 26.0 8.65 44.3 L8.15 46.7 7.35 47.05 7.25 48.0 5.15 49.0 7.95 49.85" fill="#d79e4a" fill-rule="evenodd" stroke="none"/>
  </g>
</svg>
