<?xml version="1.0" encoding="UTF-8" standalone="no"?>
<svg xmlns:ffdec="https://www.free-decompiler.com/flash" xmlns:xlink="http://www.w3.org/1999/xlink" ffdec:objectType="shape" height="37.95px" width="31.0px" xmlns="http://www.w3.org/2000/svg">
  <g transform="matrix(1.0, 0.0, 0.0, 1.0, 60.1, 11.55)">
    <path d="M-29.3 13.1 L-29.1 13.2 -29.2 13.35 -29.3 13.1" fill="#ff9900" fill-rule="evenodd" stroke="none"/>
    <path d="M-44.9 21.7 L-45.25 21.5 -45.65 21.5 -46.0 21.9 Q-50.3 19.15 -52.75 14.1 -55.5 8.45 -57.4 2.35 -59.55 -4.6 -58.7 -11.3 -58.9 -11.6 -59.3 -11.5 L-59.55 -11.45 Q-61.1 -3.85 -58.25 4.15 -56.3 9.75 -53.55 15.05 -51.1 19.75 -47.1 22.85 L-46.55 23.15 Q-46.95 24.7 -45.5 26.3 L-45.25 26.4 Q-44.7 26.35 -44.75 25.8 L-44.8 25.6 -45.0 25.3 -45.35 24.8 -45.4 23.9 -45.4 23.3 -44.8 22.0 -44.9 21.7" fill="#000000" fill-rule="evenodd" stroke="none"/>
  </g>
</svg>
