<?xml version="1.0" encoding="UTF-8" standalone="no"?>
<svg xmlns:ffdec="https://www.free-decompiler.com/flash" xmlns:xlink="http://www.w3.org/1999/xlink" ffdec:objectType="shape" height="63.45px" width="54.1px" xmlns="http://www.w3.org/2000/svg">
  <g transform="matrix(1.0, 0.0, 0.0, 1.0, 108.75, 32.0)">
    <path d="M-83.2 -25.65 Q-82.0 -24.3 -81.35 -22.55 -79.1 -17.0 -81.9 -11.75 -84.65 -6.65 -89.9 -6.15 -93.15 -5.85 -96.15 -8.2 -97.9 -10.55 -98.55 -13.4 -98.85 -14.75 -98.65 -16.2 -97.0 -23.55 -91.45 -20.3 -87.85 -18.25 -90.65 -15.5 L-90.55 -15.0 -90.05 -14.7 Q-87.45 -17.25 -89.5 -20.05 -90.8 -21.9 -92.95 -22.1 -98.25 -22.55 -99.6 -16.6 -100.75 -11.35 -96.2 -7.3 -93.4 -4.7 -90.2 -5.15 -87.95 -5.1 -85.9 -6.1 -81.1 -8.45 -79.6 -14.25 -78.1 -20.1 -81.45 -24.85 -83.3 -27.65 -85.8 -29.55 -97.7 -35.95 -106.2 -25.5 -107.75 -23.6 -108.3 -21.0 -110.25 -11.9 -103.9 -5.55 -100.85 -2.5 -97.35 -0.25 -88.5 5.45 -79.15 5.5 L-73.95 4.8 Q-73.15 4.65 -71.05 4.8 -69.5 3.9 -71.05 3.05 L-78.75 4.3 Q-82.25 4.25 -87.05 3.05 -91.9 1.85 -96.0 -0.7 -100.1 -3.2 -102.5 -5.35 -108.55 -10.8 -107.35 -19.25 -106.0 -28.4 -97.8 -30.55 -91.25 -32.25 -85.25 -27.55 L-83.2 -25.65" fill="#000000" fill-rule="evenodd" stroke="none"/>
    <path d="M-68.65 4.5 Q-67.9 6.05 -67.25 11.15 -66.6 16.25 -68.6 20.65 -70.5 24.8 -72.05 26.6 L-73.1 27.45 Q-70.45 28.0 -70.2 28.7 L-69.85 29.65 Q-71.4 30.7 -73.25 30.75 L-73.4 30.8 -73.4 30.9 -73.3 31.15 -73.25 31.2 Q-70.85 31.6 -68.8 30.25 -68.35 28.45 -69.7 27.75 L-71.1 27.0 -69.0 24.55 Q-67.2 22.45 -66.2 16.55 -65.15 10.7 -66.6 6.55 -68.05 2.4 -68.95 2.1 -69.4 2.95 -68.65 4.5 M-64.1 1.45 L-64.25 2.2 Q-63.8 3.65 -62.35 5.0 -58.55 9.45 -56.65 14.7 -54.1 21.8 -59.65 27.2 L-59.35 27.2 -59.35 27.25 -59.4 27.35 -59.3 27.6 -59.2 27.65 Q-57.6 28.15 -57.05 29.45 L-57.0 29.75 -57.05 29.85 -57.3 30.1 -57.35 30.15 -62.2 30.55 -62.3 30.7 -62.25 31.0 Q-58.5 32.25 -55.95 30.15 -55.85 28.4 -57.7 27.25 -57.85 27.15 -58.05 27.1 -55.7 25.15 -55.0 22.1 -54.05 18.1 -55.85 12.7 -57.5 7.55 -63.8 1.35 L-63.95 1.4 -64.1 1.45" fill="#000000" fill-rule="evenodd" stroke="none"/>
    <path d="M-74.1 20.7 L-74.35 20.35 -74.7 20.1 -75.15 20.25 Q-77.1 15.5 -76.3 9.95 -75.35 3.7 -73.45 -2.4 -71.25 -9.35 -66.75 -14.35 -66.75 -14.75 -67.15 -14.85 L-67.35 -14.95 Q-73.0 -9.6 -75.2 -1.4 -76.75 4.4 -77.45 10.25 -78.1 15.6 -76.6 20.35 L-76.3 20.9 Q-77.55 21.95 -77.2 24.15 L-77.1 24.35 Q-76.65 24.65 -76.3 24.15 L-76.25 23.95 -76.25 23.55 -76.25 23.0 -75.8 22.2 -75.45 21.7 -74.25 20.95 -74.1 20.7" fill="#000000" fill-rule="evenodd" stroke="none"/>
  </g>
</svg>
