<?xml version="1.0" encoding="UTF-8" standalone="no"?>
<svg xmlns:ffdec="https://www.free-decompiler.com/flash" xmlns:xlink="http://www.w3.org/1999/xlink" ffdec:objectType="shape" height="93.05px" width="220.0px" xmlns="http://www.w3.org/2000/svg">
  <g transform="matrix(1.0, 0.0, 0.0, 1.0, -164.0, -153.0)">
    <path d="M384.0 159.0 L384.0 240.0 Q383.8 242.35 382.15 244.05 380.25 245.95 377.6 246.0 L190.95 246.0 190.95 246.05 189.2 246.05 189.2 246.0 189.2 246.05 180.5 246.05 180.5 246.0 170.4 246.0 Q167.75 245.95 165.9 244.05 164.2 242.35 164.0 240.0 L164.0 159.0 Q164.2 156.65 165.9 154.95 167.75 153.05 170.4 153.0 L358.05 153.0 359.8 153.0 359.85 153.0 360.5 153.0 360.6 153.0 367.5 153.0 377.6 153.0 Q380.25 153.05 382.15 154.95 383.8 156.65 384.0 159.0" fill="#ffffff" fill-rule="evenodd" stroke="none"/>
    <path d="M375.05 155.85 L172.95 155.85 Q170.45 155.85 168.7 157.6 L168.4 157.95 Q166.95 159.6 166.95 161.85 L166.95 237.6 167.0 237.6 167.0 237.85 Q167.2 239.9 168.7 241.4 170.45 243.15 172.95 243.15 L375.05 243.15 Q377.55 243.15 379.3 241.4 380.8 239.9 381.0 237.85 L381.05 237.6 381.05 161.85 Q381.05 159.6 379.65 157.95 L379.3 157.6 Q377.55 155.85 375.05 155.85 M381.0 237.85 L381.05 237.6 M166.95 237.6 L167.0 237.85" fill="none" stroke="#c1d1e0" stroke-linecap="round" stroke-linejoin="round" stroke-width="2.0"/>
  </g>
</svg>
