<?xml version="1.0" encoding="UTF-8" standalone="no"?>
<svg xmlns:ffdec="https://www.free-decompiler.com/flash" xmlns:xlink="http://www.w3.org/1999/xlink" ffdec:objectType="shape" height="73.4px" width="72.55px" xmlns="http://www.w3.org/2000/svg">
  <g transform="matrix(1.0, 0.0, 0.0, 1.0, 121.25, 41.95)">
    <path d="M-96.2 -24.15 Q-94.55 -23.35 -93.25 -22.1 -89.1 -17.8 -90.35 -11.85 -91.6 -6.05 -96.95 -3.5 L-97.0 -3.5 Q-100.3 -1.9 -104.25 -2.85 -106.8 -4.35 -108.4 -6.7 -109.2 -7.9 -109.45 -9.3 -110.1 -16.7 -103.15 -15.95 -98.7 -15.5 -100.8 -11.8 L-100.5 -11.4 -99.9 -11.3 Q-98.0 -14.7 -101.0 -16.5 -103.0 -17.65 -105.35 -17.0 -111.05 -15.3 -110.55 -9.3 -110.1 -3.95 -104.0 -2.0 -100.2 -0.75 -96.95 -2.4 -94.6 -3.25 -92.75 -5.0 -88.45 -9.05 -88.75 -15.0 -89.05 -21.05 -94.1 -24.15 -96.95 -25.95 -100.2 -26.75 -114.8 -27.9 -120.4 -14.9 -121.45 -12.5 -121.2 -9.85 -120.3 -0.7 -111.55 2.65 -107.35 4.25 -102.95 4.95 -91.8 6.7 -81.85 3.0 -78.75 1.55 -76.65 0.3 L-73.6 -0.85 Q-72.2 -2.3 -74.15 -2.5 L-81.85 1.75 Q-85.6 3.1 -91.05 3.9 -96.45 4.7 -101.6 4.0 -106.75 3.3 -110.05 2.25 -118.15 -0.3 -119.6 -8.65 -121.15 -17.65 -113.2 -22.9 -106.8 -27.1 -99.0 -25.1 L-96.2 -24.15" fill="#000000" fill-rule="evenodd" stroke="none"/>
    <path d="M-69.25 0.15 Q-68.55 1.95 -68.0 7.9 -67.4 13.8 -69.15 18.9 -70.85 23.75 -72.2 25.8 L-73.15 26.8 Q-70.8 27.5 -70.6 28.25 L-70.25 29.35 Q-71.65 30.6 -73.3 30.65 L-73.4 30.7 -73.4 30.8 -73.35 31.1 -73.25 31.2 Q-71.15 31.6 -69.35 30.05 -68.95 27.95 -70.15 27.15 L-71.4 26.3 -69.5 23.45 Q-67.95 21.0 -67.05 14.15 -66.15 7.35 -67.4 2.5 -68.7 -2.3 -69.5 -2.65 -69.9 -1.65 -69.25 0.15 M-65.2 -3.4 L-65.3 -2.5 Q-64.9 -0.85 -63.65 0.75 -60.3 5.9 -58.65 11.95 -56.4 20.25 -61.3 26.55 L-61.0 26.55 -61.0 26.6 -61.05 26.7 -60.95 27.0 -60.9 27.05 Q-59.5 27.65 -58.95 29.15 L-58.9 29.5 -59.0 29.6 -59.2 29.9 -59.25 29.95 -63.55 30.4 -63.65 30.6 -63.55 30.95 Q-60.25 32.35 -58.0 29.95 -57.9 27.9 -59.55 26.6 L-59.85 26.4 Q-57.8 24.15 -57.15 20.55 -56.35 15.95 -57.9 9.65 -59.4 3.7 -64.9 -3.55 L-65.05 -3.45 -65.2 -3.4" fill="#000000" fill-rule="evenodd" stroke="none"/>
    <path d="M-80.35 11.85 L-80.6 11.5 -80.95 11.25 -81.4 11.4 Q-83.35 6.65 -82.55 1.1 -81.6 -5.15 -79.7 -11.25 -77.5 -18.2 -73.0 -23.2 -73.0 -23.6 -73.4 -23.7 L-73.6 -23.8 Q-79.25 -18.45 -81.45 -10.25 -83.0 -4.45 -83.7 1.4 -84.35 6.75 -82.85 11.5 L-82.55 12.05 Q-83.8 13.1 -83.45 15.3 L-83.35 15.5 Q-82.9 15.8 -82.55 15.3 L-82.5 15.1 -82.5 14.7 -82.5 14.15 -82.05 13.35 -81.7 12.85 -80.5 12.1 -80.35 11.85" fill="#000000" fill-rule="evenodd" stroke="none"/>
    <path d="M-62.3 -22.8 L-62.2 -22.65 Q-51.4 -13.45 -50.2 0.5 -49.85 4.35 -51.5 7.45 -52.35 7.8 -51.4 8.65 L-51.3 8.8 -51.05 10.15 Q-50.95 10.4 -51.0 10.7 L-51.45 11.55 -51.45 11.7 Q-51.3 12.5 -50.5 12.2 L-50.05 11.55 -49.85 11.35 Q-49.6 9.35 -50.7 7.7 -47.75 2.6 -49.15 -3.55 -51.9 -15.85 -61.75 -23.8 -62.55 -23.55 -62.3 -22.8" fill="#000000" fill-rule="evenodd" stroke="none"/>
    <path d="M-63.35 -41.5 L-63.45 -41.6 -63.55 -41.65 Q-67.3 -42.5 -70.55 -40.9 -72.1 -40.1 -73.25 -38.8 L-73.5 -38.7 -73.7 -38.55 -73.75 -38.5 -74.15 -39.05 -75.55 -40.5 -75.6 -40.5 -75.75 -40.55 -75.75 -40.6 Q-77.55 -41.05 -78.85 -39.95 L-79.0 -39.85 -79.1 -39.65 -79.1 -39.6 -79.2 -39.55 -79.2 -39.5 -79.25 -39.4 -79.25 -39.35 -79.3 -39.3 -79.35 -39.3 -79.35 -39.25 -79.4 -38.8 -79.5 -38.6 -79.5 -38.45 -79.55 -38.3 -79.55 -38.25 -79.55 -37.95 -79.65 -36.45 -79.6 -36.0 -79.55 -35.95 -79.35 -35.3 -79.2 -35.25 -79.2 -35.1 -79.1 -35.05 -78.9 -34.9 -78.75 -34.8 -75.3 -34.9 -74.8 -35.1 -74.65 -35.25 -74.6 -35.3 -74.55 -34.9 Q-74.45 -32.5 -72.7 -30.6 L-72.6 -30.35 Q-71.35 -28.9 -69.5 -28.3 L-69.25 -28.15 -65.7 -28.05 -65.0 -28.05 Q-62.4 -29.0 -60.6 -31.05 -59.75 -31.95 -59.55 -33.1 L-59.2 -33.05 -59.2 -33.3 -59.5 -33.45 -59.6 -34.8 -59.6 -34.9 -59.65 -34.95 -59.3 -34.9 -58.05 -34.85 -57.95 -34.9 -57.4 -35.1 -56.55 -35.8 -56.55 -35.85 -56.4 -36.0 -56.4 -36.05 -56.2 -36.55 -56.15 -36.85 -56.1 -37.15 -56.1 -37.6 -56.2 -37.75 -56.25 -37.9 -56.3 -38.0 -56.6 -38.45 -57.1 -38.8 -57.2 -38.95 -57.4 -39.0 -57.95 -39.15 -57.95 -39.2 -58.1 -39.2 Q-59.75 -39.0 -61.0 -37.75 -62.35 -39.9 -64.45 -41.2 L-63.45 -41.3 -63.35 -41.35 -63.35 -41.5 M-60.4 -36.7 L-60.65 -37.05 -60.7 -37.15 -60.65 -37.35 -60.5 -37.45 -60.4 -37.55 -59.05 -38.35 -59.0 -38.45 -58.95 -38.45 -58.6 -38.5 -57.7 -38.45 -57.65 -38.45 -56.85 -37.7 -56.85 -37.6 -56.65 -37.3 -56.6 -37.25 -56.6 -37.1 -56.65 -36.8 -56.65 -36.5 -56.75 -36.35 -57.5 -35.65 -57.5 -35.55 -58.15 -35.5 -58.25 -35.5 -59.75 -35.6 -60.05 -36.1 -60.4 -36.7 M-57.25 -38.65 L-57.25 -38.6 -57.25 -38.65 M-60.95 -36.5 L-60.9 -36.4 -60.1 -35.25 -60.1 -34.9 -60.1 -33.8 -60.05 -33.65 -61.35 -33.95 -64.3 -34.5 -64.7 -34.6 -66.95 -34.75 -67.05 -34.8 -67.65 -34.8 -67.7 -34.8 -68.4 -34.7 -68.5 -34.7 -68.6 -34.7 -68.95 -34.7 -68.95 -34.65 -69.8 -34.55 -69.9 -34.5 -70.9 -34.4 Q-72.7 -34.2 -73.55 -32.95 L-73.5 -32.9 -73.3 -32.85 -73.0 -32.8 -72.3 -33.3 Q-70.65 -34.1 -68.75 -34.05 L-68.7 -34.1 -67.7 -34.25 -67.4 -34.25 -66.9 -34.2 -65.85 -34.1 -64.8 -34.0 -64.2 -33.9 -60.1 -33.2 -60.1 -32.6 Q-60.5 -31.55 -61.35 -30.9 L-62.15 -30.15 -62.25 -30.1 -62.25 -30.05 -62.3 -30.05 -62.95 -29.6 -63.0 -29.6 -63.05 -29.55 -63.15 -29.4 -65.1 -28.6 -65.2 -28.55 -69.15 -28.7 -71.5 -29.8 Q-72.05 -30.1 -72.2 -30.7 L-72.35 -30.95 -72.35 -31.0 -73.45 -32.5 -73.5 -32.7 -74.1 -35.55 -74.1 -35.6 -74.1 -35.65 -74.1 -35.75 -74.1 -36.05 -73.7 -37.35 -73.65 -37.55 -73.5 -37.85 -72.7 -38.7 -72.65 -38.75 -70.5 -40.45 -70.4 -40.55 -69.85 -40.7 Q-67.8 -41.7 -65.5 -41.2 -63.6 -40.3 -62.35 -38.7 L-61.2 -36.95 -60.95 -36.5 M-74.8 -36.05 L-74.9 -35.85 -75.0 -35.7 -75.6 -35.55 -76.35 -35.2 -76.75 -35.1 -77.8 -35.2 -78.6 -35.45 -78.7 -35.5 -78.95 -35.8 -79.0 -35.85 -79.1 -35.95 -79.2 -36.35 -79.2 -36.45 -79.0 -38.2 -79.0 -38.25 -79.0 -38.3 -78.95 -38.45 -78.9 -38.6 -78.85 -38.65 -78.7 -38.8 -78.6 -38.9 -78.6 -39.05 -78.2 -39.6 -78.1 -39.75 -78.05 -39.8 -77.95 -39.85 -77.95 -39.9 -77.85 -39.95 -77.5 -40.0 -75.8 -40.0 -75.2 -39.45 Q-74.45 -38.95 -74.15 -38.1 L-74.1 -38.05 -74.05 -38.05 -74.05 -38.0 -74.1 -37.8 -74.2 -37.55 -74.45 -36.7 -74.7 -36.15 -74.8 -36.05 M-65.0 -33.45 L-65.15 -33.7 -65.2 -33.7 -65.25 -33.7 Q-65.5 -33.8 -65.55 -33.5 L-65.45 -33.25 -65.0 -33.3 -65.0 -33.45 M-66.85 -33.8 L-66.9 -33.6 Q-66.95 -33.3 -66.65 -33.15 L-66.35 -33.25 -66.3 -33.35 -66.25 -33.4 -66.3 -33.75 -66.4 -33.85 -66.5 -33.85 -66.7 -33.9 -66.85 -33.8" fill="#000000" fill-rule="evenodd" stroke="none"/>
    <path d="M-60.4 -36.7 L-60.1 -37.1 -59.25 -37.75 Q-58.4 -37.85 -57.9 -37.3 L-57.85 -37.2 -57.8 -37.0 -57.75 -36.95 -57.7 -36.9 -57.7 -36.75 -57.7 -36.7 -57.9 -36.25 -58.25 -36.0 -59.4 -35.85 -59.9 -36.05 -60.05 -36.1 -59.75 -35.6 -58.25 -35.5 -58.15 -35.5 -57.5 -35.55 -57.5 -35.65 -56.75 -36.35 -56.65 -36.5 -56.65 -36.8 -56.6 -37.1 -56.6 -37.25 -56.65 -37.3 -56.85 -37.6 -56.85 -37.7 -57.65 -38.45 -57.7 -38.45 -58.6 -38.5 -58.95 -38.45 -59.0 -38.45 -59.05 -38.35 -60.4 -37.55 -60.5 -37.45 -60.65 -37.35 -60.7 -37.15 -60.65 -37.05 -60.4 -36.7 M-60.9 -36.4 L-60.95 -36.5 -61.2 -36.95 -62.35 -38.7 Q-63.6 -40.3 -65.5 -41.2 -67.8 -41.7 -69.85 -40.7 L-70.4 -40.55 -70.5 -40.45 -72.65 -38.75 -72.7 -38.7 -73.5 -37.85 -73.65 -37.55 -73.7 -37.35 -74.1 -36.05 -74.1 -35.75 -74.1 -35.65 -74.1 -35.6 -74.1 -35.55 -73.5 -32.7 -73.45 -32.5 -73.4 -32.6 -73.3 -32.85 -73.5 -32.9 -73.55 -32.95 Q-72.7 -34.2 -70.9 -34.4 L-69.9 -34.5 -69.8 -34.55 -68.95 -34.65 -68.95 -34.7 -68.6 -34.7 -68.5 -34.7 -68.4 -34.7 -67.7 -34.8 -67.65 -34.8 -67.05 -34.8 -66.95 -34.75 -64.7 -34.6 -64.3 -34.5 -61.35 -33.95 -60.05 -33.65 -60.1 -33.8 -60.1 -34.9 -60.1 -35.25 -60.9 -36.4 M-74.15 -38.1 Q-74.45 -38.95 -75.2 -39.45 L-75.8 -40.0 -77.5 -40.0 -77.85 -39.95 -77.95 -39.9 -77.95 -39.85 -78.05 -39.8 -78.1 -39.75 -78.2 -39.6 -78.6 -39.05 -78.6 -38.9 -78.7 -38.8 -78.85 -38.65 -78.9 -38.6 -78.95 -38.45 -79.0 -38.3 -79.0 -38.25 -79.0 -38.2 -79.2 -36.45 -79.2 -36.35 -79.1 -35.95 -79.0 -35.85 -78.95 -35.8 -78.7 -35.5 -78.6 -35.45 -77.8 -35.2 -76.75 -35.1 -76.35 -35.2 -75.6 -35.55 -75.0 -35.7 -74.9 -35.85 -74.8 -36.05 Q-75.7 -35.85 -76.55 -36.4 L-76.75 -36.45 -76.95 -36.75 -77.15 -36.95 -77.3 -37.1 -77.35 -37.2 -77.35 -37.35 -77.3 -37.8 -77.2 -37.95 -77.15 -38.0 -76.9 -38.2 -76.8 -38.3 -76.75 -38.3 -76.35 -38.55 Q-75.45 -38.7 -74.8 -38.15 L-74.75 -38.1 -74.75 -38.05 -74.75 -38.0 -74.7 -38.0 -74.4 -37.8 -74.3 -37.75 -74.3 -37.7 -74.3 -37.6 -74.25 -37.6 -74.2 -37.55 -74.1 -37.8 -74.05 -38.0 -74.05 -38.05 -74.1 -38.05 -74.15 -38.1 M-77.75 -38.05 L-77.8 -38.0 -77.8 -37.9 -77.85 -37.8 -77.75 -38.05" fill="#95632d" fill-rule="evenodd" stroke="none"/>
    <path d="M-60.05 -36.1 L-59.9 -36.05 -59.4 -35.85 -58.25 -36.0 -57.9 -36.25 -57.7 -36.7 -57.7 -36.75 -57.7 -36.9 -57.75 -36.95 -57.8 -37.0 -57.85 -37.2 -57.9 -37.3 Q-58.4 -37.85 -59.25 -37.75 L-60.1 -37.1 -60.4 -36.7 -60.05 -36.1 M-60.9 -36.4 L-60.95 -36.5 -60.9 -36.4 M-73.45 -32.5 L-72.35 -31.0 -72.35 -30.95 -72.2 -30.7 Q-72.05 -30.1 -71.5 -29.8 L-69.15 -28.7 -65.2 -28.55 -65.1 -28.6 -63.15 -29.4 -63.05 -29.55 -63.0 -29.6 -62.95 -29.6 -62.3 -30.05 -62.25 -30.05 -62.25 -30.1 -62.15 -30.15 -61.35 -30.9 Q-60.5 -31.55 -60.1 -32.6 L-60.1 -33.2 -64.2 -33.9 -64.8 -34.0 -65.85 -34.1 -66.9 -34.2 -67.4 -34.25 -67.7 -34.25 -68.7 -34.1 -68.75 -34.05 Q-70.65 -34.1 -72.3 -33.3 L-73.0 -32.8 -73.3 -32.85 -73.4 -32.6 -73.45 -32.5 M-74.2 -37.55 L-74.25 -37.6 -74.3 -37.6 -74.3 -37.7 -74.3 -37.75 -74.4 -37.8 -74.7 -38.0 -74.75 -38.0 -74.75 -38.05 -74.75 -38.1 -74.8 -38.15 Q-75.45 -38.7 -76.35 -38.55 L-76.75 -38.3 -76.8 -38.3 -76.9 -38.2 -77.15 -38.0 -77.2 -37.95 -77.3 -37.8 -77.35 -37.35 -77.35 -37.2 -77.3 -37.1 -77.15 -36.95 -76.95 -36.75 -76.75 -36.45 -76.55 -36.4 Q-75.7 -35.85 -74.8 -36.05 L-74.7 -36.15 -74.45 -36.7 -74.2 -37.55 M-77.75 -38.05 L-77.85 -37.8 -77.8 -37.9 -77.8 -38.0 -77.75 -38.05 M-66.85 -33.8 L-66.7 -33.9 -66.5 -33.85 -66.4 -33.85 -66.3 -33.75 -66.25 -33.4 -66.3 -33.35 -66.35 -33.25 -66.65 -33.15 Q-66.95 -33.3 -66.9 -33.6 L-66.85 -33.8 M-65.0 -33.45 L-65.0 -33.3 -65.45 -33.25 -65.55 -33.5 Q-65.5 -33.8 -65.25 -33.7 L-65.2 -33.7 -65.15 -33.7 -65.0 -33.45" fill="#d79e4a" fill-rule="evenodd" stroke="none"/>
  </g>
</svg>
