<?xml version="1.0" encoding="UTF-8" standalone="no"?>
<svg xmlns:ffdec="https://www.free-decompiler.com/flash" xmlns:xlink="http://www.w3.org/1999/xlink" ffdec:objectType="shape" height="6.5px" width="13.65px" xmlns="http://www.w3.org/2000/svg">
  <g transform="matrix(1.0, 0.0, 0.0, 1.0, 6.85, 3.25)">
    <path d="M-4.7 -2.6 L-4.4 -2.65 -3.3 -2.5 -2.55 -1.95 -1.95 -1.25 Q-1.0 0.1 -1.6 1.45 -3.35 2.85 -4.6 1.75 -6.5 -0.65 -4.7 -2.6" fill="#ff0000" fill-rule="evenodd" stroke="none"/>
    <path d="M-4.4 -2.65 Q-4.3 -3.15 -2.9 -3.25 0.25 -1.85 -0.45 2.05 L-1.0 2.6 Q-5.95 4.3 -6.5 1.5 L-6.85 -0.35 Q-6.7 -2.85 -4.7 -2.6 -6.5 -0.65 -4.6 1.75 -3.35 2.85 -1.6 1.45 -1.0 0.1 -1.95 -1.25 L-2.55 -1.95 -3.3 -2.5 -4.4 -2.65" fill="#000000" fill-rule="evenodd" stroke="none"/>
    <path d="M-1.0 0.05 L6.2 0.1 Q6.65 0.1 6.8 -0.4 L6.75 -0.55 Q6.75 -1.05 6.2 -1.05 L6.2 -1.1 -1.05 -0.75 -1.35 -0.45 -1.3 -0.3 -1.0 0.05" fill="#000000" fill-rule="evenodd" stroke="none"/>
    <path d="M-4.45 0.55 Q-4.9 0.85 -5.25 0.4 -6.25 -0.9 -4.65 -1.35 -2.75 -0.55 -4.45 0.55" fill="#ffffff" fill-rule="evenodd" stroke="none"/>
  </g>
</svg>
