<?xml version="1.0" encoding="UTF-8" standalone="no"?>
<svg xmlns:ffdec="https://www.free-decompiler.com/flash" xmlns:xlink="http://www.w3.org/1999/xlink" ffdec:objectType="shape" height="27.7px" width="32.95px" xmlns="http://www.w3.org/2000/svg">
  <g transform="matrix(1.0, 0.0, 0.0, 1.0, 38.0, -3.2)">
    <path d="M-12.9 6.1 Q-5.5 10.1 -5.05 18.4 -4.65 25.55 -11.4 28.75 -18.05 31.95 -25.5 30.4 -30.65 29.4 -34.45 25.65 -37.65 22.45 -37.9 18.75 L-37.95 18.75 -37.95 18.15 -38.0 18.15 Q-37.9 15.2 -36.05 11.95 -33.1 6.9 -27.8 4.4 L-27.75 4.35 -27.6 4.3 -27.7 4.1 -25.4 3.2 -24.95 3.2 -25.05 3.3 Q-18.6 3.0 -12.9 6.1 M-8.0 24.35 Q-4.8 19.6 -7.5 13.8 -9.1 10.3 -12.55 7.75 -18.85 3.25 -26.25 4.8 L-26.25 5.9 Q-26.0 9.6 -27.6 12.85 -28.4 14.35 -29.7 15.35 -32.85 17.65 -36.4 18.45 -36.4 22.5 -33.7 25.0 -30.0 28.4 -23.9 29.3 -16.6 30.45 -10.5 26.7 -9.0 25.75 -8.0 24.35 M-27.35 5.6 L-27.45 5.5 -27.65 5.6 -27.85 5.7 Q-31.45 7.55 -33.55 10.05 L-33.5 10.1 -33.8 10.5 -33.85 10.45 Q-35.5 12.6 -36.1 15.3 L-36.45 17.65 -33.75 16.85 Q-32.0 16.15 -30.7 15.0 L-29.85 14.15 -29.95 14.1 -29.35 13.05 -29.3 13.1 -29.2 13.35 -29.1 13.2 -28.1 11.35 Q-27.6 10.1 -27.4 8.8 L-27.25 6.55 -27.35 5.6" fill="#000000" fill-rule="evenodd" stroke="none"/>
    <path d="M-8.0 24.35 Q-9.0 25.75 -10.5 26.7 -16.6 30.45 -23.9 29.3 -30.0 28.4 -33.7 25.0 -36.4 22.5 -36.4 18.45 -32.85 17.65 -29.7 15.35 -28.4 14.35 -27.6 12.85 -26.0 9.6 -26.25 5.9 L-26.25 4.8 Q-18.85 3.25 -12.55 7.75 -9.1 10.3 -7.5 13.8 -4.8 19.6 -8.0 24.35" fill="#ff9900" fill-rule="evenodd" stroke="none"/>
    <path d="M-7.5 13.8 Q-4.8 19.6 -8.0 24.35 -9.0 25.75 -10.5 26.7 -16.6 30.45 -23.9 29.3 -30.0 28.4 -33.7 25.0 -36.4 22.5 -36.4 18.45 -32.85 17.65 -29.7 15.35 -28.4 14.35 -27.6 12.85 -26.0 9.6 -26.25 5.9 L-26.25 4.8 Q-18.85 3.25 -12.55 7.75 -9.1 10.3 -7.5 13.8" fill="url(#gradient0)" fill-rule="evenodd" stroke="none"/>
  </g>
  <defs>
    <radialGradient cx="0" cy="0" gradientTransform="matrix(0.0385, 0.0, 0.0, 0.0276, -15.35, 8.15)" gradientUnits="userSpaceOnUse" id="gradient0" r="819.2" spreadMethod="pad">
      <stop offset="0.0" stop-color="#febf74"/>
      <stop offset="0.4980392156862745" stop-color="#ff9900"/>
      <stop offset="1.0" stop-color="#ff6600"/>
    </radialGradient>
  </defs>
</svg>
