<?xml version="1.0" encoding="UTF-8" standalone="no"?>
<svg xmlns:ffdec="https://www.free-decompiler.com/flash" xmlns:xlink="http://www.w3.org/1999/xlink" ffdec:objectType="shape" height="12.1px" width="9.1px" xmlns="http://www.w3.org/2000/svg">
  <g transform="matrix(1.0, 0.0, 0.0, 1.0, 36.4, -5.45)">
    <path d="M-36.05 15.3 L-36.2 14.9 Q-34.85 10.85 -31.4 7.85 -30.65 9.15 -30.6 10.2 -30.55 11.2 -31.4 12.75 -32.3 14.3 -36.05 15.3" fill="#999999" fill-rule="evenodd" stroke="none"/>
    <path d="M-31.4 7.85 L-31.2 7.85 -30.8 7.55 -30.3 7.2 -27.5 5.45 Q-27.0 7.95 -27.85 10.65 -28.75 13.3 -30.45 14.9 -32.2 16.5 -34.65 17.25 L-36.4 17.55 -36.25 16.25 -36.1 15.5 -36.05 15.3 Q-32.3 14.3 -31.4 12.75 -30.55 11.2 -30.6 10.2 -30.65 9.15 -31.4 7.85" fill="#cccccc" fill-rule="evenodd" stroke="none"/>
    <path d="M-30.5 10.9 Q-31.05 11.2 -31.45 10.7 -32.75 9.1 -30.75 8.55 -28.4 9.55 -30.5 10.9" fill="#ffffff" fill-rule="evenodd" stroke="none"/>
  </g>
</svg>
