<?xml version="1.0" encoding="UTF-8" standalone="no"?>
<svg xmlns:ffdec="https://www.free-decompiler.com/flash" xmlns:xlink="http://www.w3.org/1999/xlink" ffdec:objectType="shape" height="32.35px" width="48.25px" xmlns="http://www.w3.org/2000/svg">
  <g transform="matrix(1.0, 0.0, 0.0, 1.0, 24.1, 16.15)">
    <path d="M0.95 -13.45 L3.9 -11.4 Q8.05 -7.1 6.8 -1.15 5.55 4.65 0.2 7.2 L0.15 7.2 Q-3.15 8.8 -7.1 7.85 -9.65 6.35 -11.25 4.0 -12.05 2.8 -12.3 1.4 -12.95 -6.0 -6.0 -5.25 -1.55 -4.8 -3.65 -1.1 L-3.35 -0.7 -2.75 -0.6 Q-0.85 -4.0 -3.85 -5.8 -5.85 -6.95 -8.2 -6.3 -13.9 -4.6 -13.4 1.4 -12.95 6.75 -6.85 8.7 -3.05 9.95 0.2 8.3 2.55 7.45 4.4 5.7 8.7 1.65 8.4 -4.3 8.1 -10.35 3.05 -13.45 0.2 -15.25 -3.05 -16.05 -17.65 -17.2 -23.25 -4.2 -24.3 -1.8 -24.05 0.85 -23.15 10.0 -14.4 13.35 -10.2 14.95 -5.8 15.65 5.35 17.4 15.3 13.7 18.4 12.25 20.5 11.0 21.3 10.55 23.55 9.85 24.95 8.4 23.0 8.2 18.65 10.45 15.3 12.45 11.55 13.8 6.1 14.6 0.7 15.4 -4.45 14.7 -9.6 14.0 -12.9 12.95 -21.0 10.4 -22.45 2.05 -24.0 -6.95 -16.05 -12.2 -9.65 -16.4 -1.85 -14.4 -0.35 -14.0 0.95 -13.45" fill="#000000" fill-rule="evenodd" stroke="none"/>
  </g>
</svg>
