<?xml version="1.0" encoding="UTF-8" standalone="no"?>
<svg xmlns:ffdec="https://www.free-decompiler.com/flash" xmlns:xlink="http://www.w3.org/1999/xlink" ffdec:objectType="shape" height="35.0px" width="16.5px" xmlns="http://www.w3.org/2000/svg">
  <g transform="matrix(1.0, 0.0, 0.0, 1.0, 8.25, 17.5)">
    <path d="M-4.1 -13.8 Q-3.4 -12.0 -2.85 -6.05 -2.25 -0.15 -4.0 4.95 -5.7 9.8 -7.05 11.85 L-8.0 12.85 Q-5.65 13.55 -5.45 14.3 L-5.1 15.4 Q-6.5 16.65 -8.15 16.7 L-8.25 16.75 -8.25 16.85 -8.2 17.15 -8.1 17.25 Q-6.0 17.65 -4.2 16.1 -3.8 14.0 -5.0 13.2 L-6.25 12.35 -4.35 9.5 Q-2.8 7.05 -1.9 0.2 -1.0 -6.6 -2.25 -11.45 -3.55 -16.25 -4.35 -16.6 -4.75 -15.6 -4.1 -13.8 M-0.05 -17.35 L-0.15 -16.45 Q0.25 -14.8 1.5 -13.2 4.85 -8.05 6.5 -2.0 8.75 6.3 3.85 12.6 L4.15 12.6 4.15 12.65 4.1 12.75 4.2 13.05 4.25 13.1 Q5.65 13.7 6.2 15.2 L6.25 15.55 6.15 15.65 5.95 15.95 5.9 16.0 1.6 16.45 1.5 16.65 Q1.4 16.85 1.6 17.0 4.9 18.4 7.15 16.0 7.25 13.95 5.6 12.65 L5.3 12.45 Q7.35 10.2 8.0 6.6 8.8 2.0 7.25 -4.3 5.75 -10.25 0.25 -17.5 L0.1 -17.4 -0.05 -17.35" fill="#000000" fill-rule="evenodd" stroke="none"/>
  </g>
</svg>
