<?xml version="1.0" encoding="UTF-8" standalone="no"?>
<svg xmlns:ffdec="https://www.free-decompiler.com/flash" xmlns:xlink="http://www.w3.org/1999/xlink" ffdec:objectType="shape" height="39.4px" width="10.9px" xmlns="http://www.w3.org/2000/svg">
  <g transform="matrix(1.0, 0.0, 0.0, 1.0, 5.45, 19.7)">
    <path d="M-1.9 15.95 L-2.15 15.6 Q-2.35 15.4 -2.5 15.35 L-2.95 15.5 Q-4.9 10.75 -4.1 5.2 -3.15 -1.05 -1.25 -7.15 0.95 -14.1 5.45 -19.1 5.45 -19.5 5.05 -19.6 L4.85 -19.7 Q-0.8 -14.35 -3.0 -6.15 -4.55 -0.35 -5.25 5.5 -5.9 10.85 -4.4 15.6 L-4.1 16.15 Q-5.35 17.2 -5.0 19.4 L-4.9 19.6 Q-4.45 19.9 -4.1 19.4 L-4.05 19.2 -4.05 18.8 -4.05 18.25 -3.6 17.45 -3.25 16.95 Q-2.55 16.75 -2.05 16.2 L-1.9 15.95" fill="#000000" fill-rule="evenodd" stroke="none"/>
  </g>
</svg>
