<?xml version="1.0" encoding="UTF-8" standalone="no"?>
<svg xmlns:ffdec="https://www.free-decompiler.com/flash" xmlns:xlink="http://www.w3.org/1999/xlink" ffdec:objectType="shape" height="13.9px" width="23.55px" xmlns="http://www.w3.org/2000/svg">
  <g transform="matrix(1.0, 0.0, 0.0, 1.0, 11.75, 6.95)">
    <path d="M4.55 -6.5 L4.45 -6.6 4.35 -6.65 Q0.6 -7.5 -2.65 -5.9 -4.2 -5.1 -5.35 -3.8 L-5.6 -3.7 -5.8 -3.55 -5.85 -3.5 -6.25 -4.05 -7.65 -5.5 -7.7 -5.5 -7.85 -5.55 -7.85 -5.6 Q-9.65 -6.05 -10.95 -4.95 L-11.1 -4.85 -11.2 -4.65 -11.2 -4.6 -11.3 -4.55 -11.3 -4.5 -11.35 -4.4 -11.35 -4.35 -11.4 -4.3 -11.45 -4.3 -11.45 -4.25 -11.5 -3.8 -11.6 -3.6 -11.6 -3.45 -11.65 -3.3 -11.65 -3.25 -11.65 -2.95 -11.75 -1.45 -11.7 -1.0 -11.65 -0.95 -11.45 -0.3 -11.3 -0.25 -11.3 -0.1 -11.2 -0.05 -11.0 0.1 -10.85 0.2 -7.4 0.1 -6.9 -0.1 -6.75 -0.25 -6.7 -0.3 -6.65 0.1 Q-6.55 2.5 -4.8 4.4 L-4.7 4.65 Q-3.45 6.1 -1.6 6.7 L-1.35 6.85 2.2 6.95 2.9 6.95 Q5.5 6.0 7.3 3.95 8.15 3.05 8.35 1.9 L8.7 1.95 8.7 1.7 8.4 1.55 8.3 0.2 8.3 0.1 8.25 0.05 8.6 0.1 9.85 0.15 9.95 0.1 10.5 -0.1 11.35 -0.8 11.35 -0.85 11.5 -1.0 11.5 -1.05 11.7 -1.55 11.75 -1.85 11.8 -2.15 11.8 -2.6 11.7 -2.75 11.65 -2.9 11.6 -3.0 11.3 -3.45 10.8 -3.8 10.7 -3.95 10.5 -4.0 9.95 -4.15 9.95 -4.2 9.8 -4.2 Q8.15 -4.0 6.9 -2.75 5.55 -4.9 3.45 -6.2 L4.45 -6.3 4.55 -6.35 4.55 -6.5 M10.65 -3.65 L10.65 -3.6 10.65 -3.65 M7.5 -1.7 L7.25 -2.05 7.2 -2.15 7.25 -2.35 7.4 -2.45 7.5 -2.55 Q8.1 -3.1 8.85 -3.35 L8.9 -3.45 8.95 -3.45 9.3 -3.5 10.2 -3.45 10.25 -3.45 11.05 -2.7 11.05 -2.6 11.25 -2.3 11.3 -2.25 11.3 -2.1 11.25 -1.8 11.25 -1.5 11.15 -1.35 10.4 -0.65 10.4 -0.55 9.75 -0.5 9.65 -0.5 8.15 -0.6 7.85 -1.1 7.5 -1.7 M7.0 -1.4 L7.8 -0.25 7.8 0.1 7.8 1.2 7.85 1.35 6.55 1.05 3.6 0.5 3.2 0.4 0.95 0.25 0.85 0.2 0.25 0.2 0.2 0.2 -0.5 0.3 -0.6 0.3 -0.7 0.3 -1.05 0.3 -1.05 0.35 -1.9 0.45 -2.0 0.5 -3.0 0.6 Q-4.8 0.8 -5.65 2.05 L-5.6 2.1 -5.4 2.15 -5.1 2.2 -4.4 1.7 Q-2.75 0.9 -0.85 0.95 L-0.8 0.9 0.2 0.75 0.5 0.75 1.0 0.8 2.05 0.9 3.1 1.0 3.7 1.1 7.8 1.8 7.8 2.4 Q7.4 3.45 6.55 4.1 L5.75 4.85 5.65 4.9 5.65 4.95 5.6 4.95 4.95 5.4 4.9 5.4 4.85 5.45 4.75 5.6 2.8 6.4 2.7 6.45 -1.25 6.3 -3.6 5.2 Q-4.15 4.9 -4.3 4.3 L-4.45 4.05 -4.45 4.0 -5.55 2.5 -5.6 2.3 -6.2 -0.55 -6.2 -0.6 -6.2 -0.65 -6.2 -0.75 -6.2 -1.05 -5.8 -2.35 -5.75 -2.55 -5.6 -2.85 -4.8 -3.7 -4.75 -3.75 -2.6 -5.45 -2.5 -5.55 -1.95 -5.7 Q0.1 -6.7 2.4 -6.2 4.3 -5.3 5.55 -3.7 L6.7 -1.95 6.95 -1.5 7.0 -1.4 M-6.9 -1.05 L-7.0 -0.85 -7.1 -0.7 -7.7 -0.55 -8.45 -0.2 -8.85 -0.1 -9.9 -0.2 -10.7 -0.45 -10.8 -0.5 -11.05 -0.8 -11.1 -0.85 -11.2 -0.95 -11.3 -1.35 -11.3 -1.45 -11.1 -3.2 -11.1 -3.25 -11.1 -3.3 -11.05 -3.45 -11.0 -3.6 -10.95 -3.65 -10.8 -3.8 -10.7 -3.9 -10.7 -4.05 -10.3 -4.6 -10.2 -4.75 -10.15 -4.8 -10.05 -4.85 -10.05 -4.9 -9.95 -4.95 -9.6 -5.0 -7.9 -5.0 -7.3 -4.45 Q-6.55 -3.95 -6.25 -3.1 L-6.2 -3.05 -6.15 -3.05 -6.15 -3.0 -6.2 -2.8 -6.3 -2.55 -6.55 -1.7 -6.8 -1.15 -6.9 -1.05 M2.9 1.55 L2.75 1.3 2.7 1.3 2.65 1.3 Q2.4 1.2 2.35 1.5 L2.45 1.75 2.9 1.7 2.9 1.55 M1.05 1.2 L1.0 1.4 Q0.95 1.7 1.25 1.85 L1.55 1.75 1.6 1.65 1.65 1.6 1.6 1.25 1.5 1.15 1.4 1.15 1.2 1.1 Q1.15 1.1 1.05 1.2" fill="#000000" fill-rule="evenodd" stroke="none"/>
    <path d="M7.85 -1.1 L8.15 -0.6 9.65 -0.5 9.75 -0.5 10.4 -0.55 10.4 -0.65 11.15 -1.35 11.25 -1.5 11.25 -1.8 11.3 -2.1 11.3 -2.25 11.25 -2.3 11.05 -2.6 11.05 -2.7 10.25 -3.45 10.2 -3.45 9.3 -3.5 8.95 -3.45 8.9 -3.45 8.85 -3.35 Q8.1 -3.1 7.5 -2.55 L7.4 -2.45 7.25 -2.35 7.2 -2.15 7.25 -2.05 7.5 -1.7 7.8 -2.1 8.65 -2.75 Q9.5 -2.85 10.0 -2.3 L10.05 -2.2 10.1 -2.0 10.15 -1.95 10.2 -1.9 10.2 -1.75 10.2 -1.7 10.0 -1.25 9.65 -1.0 8.5 -0.85 8.0 -1.05 7.85 -1.1 M7.0 -1.4 L6.95 -1.5 6.7 -1.95 5.55 -3.7 Q4.3 -5.3 2.4 -6.2 0.1 -6.7 -1.95 -5.7 L-2.5 -5.55 -2.6 -5.45 -4.75 -3.75 -4.8 -3.7 -5.6 -2.85 -5.75 -2.55 -5.8 -2.35 -6.2 -1.05 -6.2 -0.75 -6.2 -0.65 -6.2 -0.6 -6.2 -0.55 -5.6 2.3 -5.55 2.5 -5.5 2.4 -5.4 2.15 -5.6 2.1 -5.65 2.05 Q-4.8 0.8 -3.0 0.6 L-2.0 0.5 -1.9 0.45 -1.05 0.35 -1.05 0.3 -0.7 0.3 -0.6 0.3 -0.5 0.3 0.2 0.2 0.25 0.2 0.85 0.2 0.95 0.25 3.2 0.4 3.6 0.5 6.55 1.05 7.85 1.35 7.8 1.2 7.8 0.1 7.8 -0.25 7.0 -1.4 M-6.25 -3.1 Q-6.55 -3.95 -7.3 -4.45 L-7.9 -5.0 -9.6 -5.0 -9.95 -4.95 -10.05 -4.9 -10.05 -4.85 -10.15 -4.8 -10.2 -4.75 -10.3 -4.6 -10.7 -4.05 -10.7 -3.9 -10.8 -3.8 -10.95 -3.65 -11.0 -3.6 -11.05 -3.45 -11.1 -3.3 -11.1 -3.25 -11.1 -3.2 -11.3 -1.45 -11.3 -1.35 -11.2 -0.95 -11.1 -0.85 -11.05 -0.8 -10.8 -0.5 -10.7 -0.45 -9.9 -0.2 -8.85 -0.1 -8.45 -0.2 -7.7 -0.55 -7.1 -0.7 -7.0 -0.85 -6.9 -1.05 Q-7.8 -0.85 -8.65 -1.4 L-8.85 -1.45 -9.05 -1.75 -9.25 -1.95 -9.4 -2.1 -9.45 -2.2 -9.45 -2.35 -9.4 -2.8 -9.3 -2.95 -9.25 -3.0 -9.0 -3.2 -8.9 -3.3 -8.85 -3.3 Q-8.6 -3.4 -8.45 -3.55 -7.55 -3.7 -6.9 -3.15 L-6.85 -3.1 -6.85 -3.05 -6.85 -3.0 -6.8 -3.0 -6.5 -2.8 -6.4 -2.75 -6.4 -2.7 -6.4 -2.6 -6.35 -2.6 -6.3 -2.55 -6.2 -2.8 -6.15 -3.0 -6.15 -3.05 -6.2 -3.05 -6.25 -3.1 M-9.85 -3.05 L-9.9 -3.0 -9.9 -2.9 -9.95 -2.8 -9.85 -3.05" fill="#95632d" fill-rule="evenodd" stroke="none"/>
    <path d="M7.85 -1.1 L8.0 -1.05 8.5 -0.85 9.65 -1.0 10.0 -1.25 10.2 -1.7 10.2 -1.75 10.2 -1.9 10.15 -1.95 10.1 -2.0 10.05 -2.2 10.0 -2.3 Q9.5 -2.85 8.65 -2.75 L7.8 -2.1 7.5 -1.7 7.85 -1.1 M6.95 -1.5 L7.0 -1.4 6.95 -1.5 M-5.4 2.15 L-5.5 2.4 -5.55 2.5 -4.45 4.0 -4.45 4.05 -4.3 4.3 Q-4.15 4.9 -3.6 5.2 L-1.25 6.3 2.7 6.45 2.8 6.4 4.75 5.6 4.85 5.45 4.9 5.4 4.95 5.4 5.6 4.95 5.65 4.95 5.65 4.9 5.75 4.85 6.55 4.1 Q7.4 3.45 7.8 2.4 L7.8 1.8 3.7 1.1 3.1 1.0 2.05 0.9 1.0 0.8 0.5 0.75 0.2 0.75 -0.8 0.9 -0.85 0.95 Q-2.75 0.9 -4.4 1.7 L-5.1 2.2 -5.4 2.15 M-6.3 -2.55 L-6.35 -2.6 -6.4 -2.6 -6.4 -2.7 -6.4 -2.75 -6.5 -2.8 -6.8 -3.0 -6.85 -3.0 -6.85 -3.05 -6.85 -3.1 -6.9 -3.15 Q-7.55 -3.7 -8.45 -3.55 -8.6 -3.4 -8.85 -3.3 L-8.9 -3.3 -9.0 -3.2 -9.25 -3.0 -9.3 -2.95 -9.4 -2.8 -9.45 -2.35 -9.45 -2.2 -9.4 -2.1 -9.25 -1.95 -9.05 -1.75 -8.85 -1.45 -8.65 -1.4 Q-7.8 -0.85 -6.9 -1.05 L-6.8 -1.15 -6.55 -1.7 -6.3 -2.55 M-9.85 -3.05 L-9.95 -2.8 -9.9 -2.9 -9.9 -3.0 -9.85 -3.05 M1.05 1.2 Q1.15 1.1 1.2 1.1 L1.4 1.15 1.5 1.15 1.6 1.25 1.65 1.6 1.6 1.65 1.55 1.75 1.25 1.85 Q0.95 1.7 1.0 1.4 L1.05 1.2 M2.9 1.55 L2.9 1.7 2.45 1.75 2.35 1.5 Q2.4 1.2 2.65 1.3 L2.7 1.3 2.75 1.3 2.9 1.55" fill="#d79e4a" fill-rule="evenodd" stroke="none"/>
  </g>
</svg>
