<?xml version="1.0" encoding="UTF-8" standalone="no"?>
<svg xmlns:ffdec="https://www.free-decompiler.com/flash" xmlns:xlink="http://www.w3.org/1999/xlink" ffdec:objectType="shape" height="8.75px" width="7.1px" xmlns="http://www.w3.org/2000/svg">
  <g transform="matrix(1.0, 0.0, 0.0, 1.0, 37.0, -6.65)">
    <path d="M-30.45 9.9 L-30.3 9.9 -30.3 10.0 -30.4 10.05 Q-30.6 11.55 -31.55 12.75 -32.55 13.9 -33.6 14.45 L-36.5 14.9 -35.6 12.6 Q-34.55 10.55 -33.0 8.9 L-31.35 7.15 -31.05 7.35 -30.45 9.9" fill="#ff0000" fill-rule="evenodd" stroke="none"/>
    <path d="M-30.45 9.9 L-31.05 7.35 M-31.35 7.15 L-33.0 8.9 Q-34.55 10.55 -35.6 12.6 L-36.5 14.9 -33.6 14.45" fill="none" stroke="#000000" stroke-linecap="round" stroke-linejoin="round" stroke-width="1.0"/>
    <path d="M-33.6 14.45 Q-32.55 13.9 -31.55 12.75 -30.6 11.55 -30.4 10.05" fill="none" stroke="#000000" stroke-linecap="round" stroke-linejoin="round" stroke-width="1.0"/>
    <path d="M-33.25 13.8 Q-33.7 14.05 -34.0 13.6 -34.95 12.4 -33.45 12.0 -31.65 12.75 -33.25 13.8" fill="#ffffff" fill-rule="evenodd" stroke="none"/>
  </g>
</svg>
