<?xml version="1.0" encoding="UTF-8" standalone="no"?>
<svg xmlns:ffdec="https://www.free-decompiler.com/flash" xmlns:xlink="http://www.w3.org/1999/xlink" ffdec:objectType="shape" height="55.3px" width="50.55px" xmlns="http://www.w3.org/2000/svg">
  <g transform="matrix(1.0, 0.0, 0.0, 1.0, 79.65, 41.95)">
    <path d="M-60.05 -36.1 L-59.75 -35.6 -58.2 -35.5 -58.1 -35.5 -57.5 -35.55 -57.45 -35.65 -56.7 -36.35 -56.65 -36.5 -56.65 -36.8 -56.6 -37.1 -56.6 -37.25 -56.65 -37.3 -56.8 -37.55 -56.85 -37.65 Q-57.1 -38.2 -57.65 -38.4 L-57.7 -38.45 -58.55 -38.5 -58.95 -38.45 -59.05 -38.35 -60.4 -37.55 -60.5 -37.45 -60.65 -37.35 -60.7 -37.15 -60.6 -37.05 -60.4 -36.65 -60.05 -36.1 M-58.1 -39.2 L-57.95 -39.2 -57.95 -39.15 -57.35 -39.0 -57.15 -38.95 -57.05 -38.8 -56.6 -38.45 -56.25 -38.0 -56.25 -37.9 -56.2 -37.75 -56.05 -37.6 -56.1 -37.15 -56.1 -36.85 -56.2 -36.55 -56.4 -36.05 -56.4 -36.0 -56.55 -35.85 -56.55 -35.8 -57.35 -35.1 -57.95 -34.9 -58.05 -34.85 -59.3 -34.9 -59.6 -34.95 -59.6 -34.9 -59.6 -34.75 -59.5 -33.45 -59.15 -33.3 -59.2 -33.05 -59.55 -33.1 Q-59.75 -31.95 -60.55 -31.0 -62.4 -29.0 -65.0 -28.05 L-65.7 -28.0 -69.2 -28.15 -69.45 -28.25 Q-71.35 -28.9 -72.55 -30.35 L-72.7 -30.6 Q-74.45 -32.5 -74.55 -34.9 L-74.55 -35.3 -74.65 -35.25 -74.8 -35.1 -75.3 -34.9 -78.75 -34.8 -78.85 -34.9 -79.1 -35.05 -79.15 -35.1 -79.2 -35.25 -79.3 -35.3 -79.55 -35.95 -79.6 -36.0 -79.65 -36.45 -79.55 -37.95 -79.55 -38.25 -79.55 -38.3 -79.5 -38.45 -79.45 -38.6 -79.4 -38.75 -79.35 -39.25 -79.3 -39.3 -79.25 -39.3 -79.25 -39.35 -79.2 -39.4 -79.2 -39.5 -79.15 -39.5 -79.1 -39.6 -79.0 -39.8 -79.0 -39.85 -78.85 -39.95 Q-77.55 -41.05 -75.75 -40.6 L-75.75 -40.55 -75.6 -40.5 -75.55 -40.45 -74.1 -39.0 -73.7 -38.5 -73.7 -38.55 -73.5 -38.7 -73.25 -38.8 Q-72.1 -40.1 -70.55 -40.85 -67.3 -42.5 -63.55 -41.65 L-63.4 -41.6 -63.35 -41.5 -63.35 -41.35 -63.45 -41.25 -64.45 -41.2 Q-62.35 -39.9 -61.0 -37.7 -59.75 -39.0 -58.1 -39.2 M-73.3 -32.85 L-73.45 -32.85 -73.5 -32.95 Q-72.7 -34.25 -70.9 -34.35 L-69.9 -34.5 -69.8 -34.55 -68.95 -34.65 -68.9 -34.7 -68.6 -34.7 -68.5 -34.7 -68.35 -34.7 -67.7 -34.8 -67.65 -34.8 -67.05 -34.8 -66.95 -34.75 -65.55 -34.65 -65.5 -34.65 -64.65 -34.6 -64.25 -34.5 -61.35 -33.95 -60.05 -33.65 -60.05 -33.75 -60.1 -34.9 -60.1 -35.25 -60.85 -36.4 -60.95 -36.5 -61.2 -36.95 -62.35 -38.7 Q-63.65 -40.3 -65.45 -41.2 -67.8 -41.7 -69.8 -40.7 L-70.35 -40.55 -70.45 -40.45 -72.65 -38.75 -72.7 -38.65 -73.5 -37.8 -73.65 -37.55 -73.7 -37.35 -74.05 -36.05 -74.1 -35.75 -74.1 -35.65 -74.1 -35.6 -74.1 -35.5 -73.5 -32.65 -73.4 -32.5 -72.35 -30.95 -72.2 -30.65 -71.45 -29.8 -69.15 -28.7 -65.15 -28.55 -65.1 -28.6 -63.1 -29.4 -63.0 -29.55 -63.0 -29.6 -62.95 -29.6 -62.3 -30.05 -62.25 -30.05 -62.2 -30.1 -62.1 -30.15 -61.3 -30.9 Q-60.5 -31.55 -60.1 -32.6 L-60.05 -33.15 -64.15 -33.9 -64.8 -34.0 -65.8 -34.1 -66.9 -34.2 -67.4 -34.2 -67.65 -34.25 -68.7 -34.1 -68.75 -34.05 Q-70.65 -34.1 -72.3 -33.25 L-73.0 -32.8 -73.3 -32.85 M-74.2 -37.55 L-74.05 -37.8 -74.05 -38.0 -74.05 -38.05 -74.1 -38.05 -74.15 -38.1 Q-74.5 -38.95 -75.2 -39.45 L-75.75 -40.0 -77.5 -40.0 -77.85 -39.9 -77.95 -39.9 -77.95 -39.85 -78.05 -39.8 -78.05 -39.75 -78.2 -39.6 -78.55 -39.0 -78.6 -38.9 -78.7 -38.75 -78.85 -38.6 -78.9 -38.4 -79.0 -38.25 -79.0 -38.2 -79.15 -36.4 -79.15 -36.35 -79.05 -35.95 -79.0 -35.85 -78.95 -35.8 -78.7 -35.5 -78.55 -35.45 -77.8 -35.15 -76.75 -35.1 -76.3 -35.2 -75.6 -35.5 -75.55 -35.55 -75.0 -35.7 -74.9 -35.85 -74.75 -36.05 -74.7 -36.1 -74.45 -36.65 -74.2 -37.55 M-66.4 -33.8 L-66.25 -33.75 -66.2 -33.4 -66.3 -33.35 -66.35 -33.25 -66.65 -33.15 Q-66.95 -33.3 -66.9 -33.6 L-66.8 -33.8 -66.65 -33.9 -66.5 -33.85 -66.4 -33.8 M-65.55 -33.5 Q-65.5 -33.8 -65.2 -33.7 L-65.15 -33.7 -65.0 -33.4 -65.0 -33.3 -65.45 -33.25 -65.55 -33.5" fill="#000000" fill-rule="evenodd" stroke="none"/>
    <path d="M-60.4 -36.65 L-60.6 -37.05 -60.7 -37.15 -60.65 -37.35 -60.5 -37.45 -60.4 -37.55 -59.05 -38.35 -58.95 -38.45 -58.55 -38.5 -57.7 -38.45 -57.65 -38.4 Q-57.1 -38.2 -56.85 -37.65 L-56.8 -37.55 -56.65 -37.3 -56.6 -37.25 -56.6 -37.1 -56.65 -36.8 -56.65 -36.5 -56.7 -36.35 -57.45 -35.65 -57.5 -35.55 -58.1 -35.5 -58.2 -35.5 -59.75 -35.6 -60.05 -36.1 -59.9 -36.05 -59.4 -35.85 -58.25 -35.95 -57.85 -36.25 -57.7 -36.7 -57.7 -36.75 -57.7 -36.9 -57.75 -37.0 -57.85 -37.15 -57.85 -37.25 Q-58.4 -37.85 -59.2 -37.7 L-60.05 -37.1 -60.4 -36.65 M-60.85 -36.4 L-60.1 -35.25 -60.1 -34.9 -60.05 -33.75 -60.05 -33.65 -61.35 -33.95 -64.25 -34.5 -64.65 -34.6 -65.5 -34.65 -65.55 -34.65 -66.95 -34.75 -67.05 -34.8 -67.65 -34.8 -67.7 -34.8 -68.35 -34.7 -68.5 -34.7 -68.6 -34.7 -68.9 -34.7 -68.95 -34.65 -69.8 -34.55 -69.9 -34.5 -70.9 -34.35 Q-72.7 -34.25 -73.5 -32.95 L-73.45 -32.85 -73.3 -32.85 -73.4 -32.55 -73.4 -32.5 -73.5 -32.65 -74.1 -35.5 -74.1 -35.6 -74.1 -35.65 -74.1 -35.75 -74.05 -36.05 -73.7 -37.35 -73.65 -37.55 -73.5 -37.8 -72.7 -38.65 -72.65 -38.75 -70.45 -40.45 -70.35 -40.55 -69.8 -40.7 Q-67.8 -41.7 -65.45 -41.2 -63.65 -40.3 -62.35 -38.7 L-61.2 -36.95 -60.95 -36.5 -60.85 -36.4 M-74.75 -36.05 L-74.9 -35.85 -75.0 -35.7 -75.55 -35.55 -75.6 -35.5 -76.3 -35.2 -76.75 -35.1 -77.8 -35.15 -78.55 -35.45 -78.7 -35.5 -78.95 -35.8 -79.0 -35.85 -79.05 -35.95 -79.15 -36.35 -79.15 -36.4 -79.0 -38.2 -79.0 -38.25 -78.9 -38.4 -78.85 -38.6 -78.7 -38.75 -78.6 -38.9 -78.55 -39.0 -78.2 -39.6 -78.05 -39.75 -78.05 -39.8 -77.95 -39.85 -77.95 -39.9 -77.85 -39.9 -77.5 -40.0 -75.75 -40.0 -75.2 -39.45 Q-74.5 -38.95 -74.15 -38.1 L-74.1 -38.05 -74.05 -38.05 -74.05 -38.0 -74.05 -37.8 -74.2 -37.55 -74.25 -37.55 -74.25 -37.6 -74.3 -37.7 -74.4 -37.75 -74.7 -38.0 -74.75 -38.05 -74.75 -38.1 -74.8 -38.15 Q-75.45 -38.7 -76.3 -38.55 L-76.75 -38.3 -76.8 -38.25 -76.9 -38.15 -77.1 -38.0 -77.15 -37.95 -77.25 -37.8 -77.35 -37.3 -77.35 -37.15 -77.25 -37.1 -77.15 -36.95 -76.95 -36.7 -76.7 -36.45 -76.55 -36.35 Q-75.7 -35.85 -74.75 -36.05 M-77.8 -37.9 L-77.75 -37.95 -77.75 -38.05 -77.85 -37.8 -77.8 -37.9" fill="#95632d" fill-rule="evenodd" stroke="none"/>
    <path d="M-60.05 -36.1 L-60.4 -36.65 -60.05 -37.1 -59.2 -37.7 Q-58.4 -37.85 -57.85 -37.25 L-57.85 -37.15 -57.75 -37.0 -57.7 -36.9 -57.7 -36.75 -57.7 -36.7 -57.85 -36.25 -58.25 -35.95 -59.4 -35.85 -59.9 -36.05 -60.05 -36.1 M-73.3 -32.85 L-73.0 -32.8 -72.3 -33.25 Q-70.65 -34.1 -68.75 -34.05 L-68.7 -34.1 -67.65 -34.25 -67.4 -34.2 -66.9 -34.2 -65.8 -34.1 -64.8 -34.0 -64.15 -33.9 -60.05 -33.15 -60.1 -32.6 Q-60.5 -31.55 -61.3 -30.9 L-62.1 -30.15 -62.2 -30.1 -62.25 -30.05 -62.3 -30.05 -62.95 -29.6 -63.0 -29.6 -63.0 -29.55 -63.1 -29.4 -65.1 -28.6 -65.15 -28.55 -69.15 -28.7 -71.45 -29.8 -72.2 -30.65 -72.35 -30.95 -73.4 -32.5 -73.4 -32.55 -73.3 -32.85 M-60.95 -36.5 L-60.85 -36.4 -60.95 -36.5 M-74.2 -37.55 L-74.45 -36.65 -74.7 -36.1 -74.75 -36.05 Q-75.7 -35.85 -76.55 -36.35 L-76.7 -36.45 -76.95 -36.7 -77.15 -36.95 -77.25 -37.1 -77.35 -37.15 -77.35 -37.3 -77.25 -37.8 -77.15 -37.95 -77.1 -38.0 -76.9 -38.15 -76.8 -38.25 -76.75 -38.3 -76.3 -38.55 Q-75.45 -38.7 -74.8 -38.15 L-74.75 -38.1 -74.75 -38.05 -74.7 -38.0 -74.4 -37.75 -74.3 -37.7 -74.25 -37.6 -74.25 -37.55 -74.2 -37.55 M-77.8 -37.9 L-77.85 -37.8 -77.75 -38.05 -77.75 -37.95 -77.8 -37.9 M-65.55 -33.5 L-65.45 -33.25 -65.0 -33.3 -65.0 -33.4 -65.15 -33.7 -65.2 -33.7 Q-65.5 -33.8 -65.55 -33.5 M-66.4 -33.8 L-66.5 -33.85 -66.65 -33.9 -66.8 -33.8 -66.9 -33.6 Q-66.95 -33.3 -66.65 -33.15 L-66.35 -33.25 -66.3 -33.35 -66.2 -33.4 -66.25 -33.75 -66.4 -33.8" fill="#d79e4a" fill-rule="evenodd" stroke="none"/>
    <path d="M-29.1 13.2 L-29.2 13.35 -29.3 13.1 -29.1 13.2" fill="#ff9900" fill-rule="evenodd" stroke="none"/>
  </g>
</svg>
