<?xml version="1.0" encoding="UTF-8" standalone="no"?>
<svg xmlns:ffdec="https://www.free-decompiler.com/flash" xmlns:xlink="http://www.w3.org/1999/xlink" ffdec:objectType="shape" height="58.3px" width="64.35px" xmlns="http://www.w3.org/2000/svg">
  <g transform="matrix(1.0, 0.0, 0.0, 1.0, 121.25, 26.85)">
    <path d="M-96.2 -24.15 Q-94.55 -23.35 -93.25 -22.1 -89.1 -17.8 -90.35 -11.85 -91.6 -6.05 -96.95 -3.5 L-97.0 -3.5 Q-100.3 -1.9 -104.25 -2.85 -106.8 -4.35 -108.4 -6.7 -109.2 -7.9 -109.45 -9.3 -110.1 -16.7 -103.15 -15.95 -98.7 -15.5 -100.8 -11.8 L-100.5 -11.4 -99.9 -11.3 Q-98.0 -14.7 -101.0 -16.5 -103.0 -17.65 -105.35 -17.0 -111.05 -15.3 -110.55 -9.3 -110.1 -3.95 -104.0 -2.0 -100.2 -0.75 -96.95 -2.4 -94.6 -3.25 -92.75 -5.0 -88.45 -9.05 -88.75 -15.0 -89.05 -21.05 -94.1 -24.15 -96.95 -25.95 -100.2 -26.75 -114.8 -27.9 -120.4 -14.9 -121.45 -12.5 -121.2 -9.85 -120.3 -0.7 -111.55 2.65 -107.35 4.25 -102.95 4.95 -91.8 6.7 -81.85 3.0 -78.75 1.55 -76.65 0.3 L-73.6 -0.85 Q-72.2 -2.3 -74.15 -2.5 L-81.85 1.75 Q-85.6 3.1 -91.05 3.9 -96.45 4.7 -101.6 4.0 -106.75 3.3 -110.05 2.25 -118.15 -0.3 -119.6 -8.65 -121.15 -17.65 -113.2 -22.9 -106.8 -27.1 -99.0 -25.1 L-96.2 -24.15" fill="#000000" fill-rule="evenodd" stroke="none"/>
    <path d="M-69.25 0.15 Q-68.55 1.95 -68.0 7.9 -67.4 13.8 -69.15 18.9 -70.85 23.75 -72.2 25.8 L-73.15 26.8 Q-70.8 27.5 -70.6 28.25 L-70.25 29.35 Q-71.65 30.6 -73.3 30.65 L-73.4 30.7 -73.4 30.8 -73.35 31.1 -73.25 31.2 Q-71.15 31.6 -69.35 30.05 -68.95 27.95 -70.15 27.15 L-71.4 26.3 -69.5 23.45 Q-67.95 21.0 -67.05 14.15 -66.15 7.35 -67.4 2.5 -68.7 -2.3 -69.5 -2.65 -69.9 -1.65 -69.25 0.15 M-65.2 -3.4 L-65.3 -2.5 Q-64.9 -0.85 -63.65 0.75 -60.3 5.9 -58.65 11.95 -56.4 20.25 -61.3 26.55 L-61.0 26.55 -61.0 26.6 -61.05 26.7 -60.95 27.0 -60.9 27.05 Q-59.5 27.65 -58.95 29.15 L-58.9 29.5 -59.0 29.6 -59.2 29.9 -59.25 29.95 -63.55 30.4 -63.65 30.6 -63.55 30.95 Q-60.25 32.35 -58.0 29.95 -57.9 27.9 -59.55 26.6 L-59.85 26.4 Q-57.8 24.15 -57.15 20.55 -56.35 15.95 -57.9 9.65 -59.4 3.7 -64.9 -3.55 L-65.05 -3.45 -65.2 -3.4" fill="#000000" fill-rule="evenodd" stroke="none"/>
  </g>
</svg>
