<?xml version="1.0" encoding="UTF-8" standalone="no"?>
<svg xmlns:ffdec="https://www.free-decompiler.com/flash" xmlns:xlink="http://www.w3.org/1999/xlink" ffdec:objectType="shape" height="27.85px" width="61.4px" xmlns="http://www.w3.org/2000/svg">
  <g transform="matrix(1.0, 0.0, 0.0, 1.0, 95.3, 44.2)">
    <path d="M-56.9 -38.0 L-56.45 -38.5 -56.45 -38.55 -56.2 -38.25 -54.7 -38.75 -51.85 -39.4 Q-39.9 -40.25 -35.15 -31.05 -32.15 -25.25 -36.4 -20.1 -38.6 -17.5 -42.3 -16.8 -51.4 -15.15 -58.8 -19.9 -61.5 -21.65 -63.6 -23.65 L-63.5 -23.75 -63.15 -23.9 -62.95 -23.85 Q-57.3 -19.05 -49.65 -17.45 -40.95 -15.65 -36.35 -21.6 -34.4 -24.15 -35.0 -27.2 -36.05 -32.35 -40.45 -36.15 -42.85 -38.25 -46.3 -38.7 -50.75 -39.25 -54.8 -37.75 L-56.05 -37.3 -56.85 -36.45 -57.0 -36.35 Q-57.7 -34.9 -59.1 -34.1 -59.55 -34.15 -59.55 -34.55 L-57.45 -37.0 -58.8 -36.9 -58.8 -37.0 -58.8 -37.2 -58.7 -37.3 -56.9 -38.0" fill="#000000" fill-rule="evenodd" stroke="none"/>
    <path d="M-94.45 -36.5 Q-94.65 -31.95 -92.9 -28.05 -90.35 -22.4 -84.1 -21.55 -79.65 -21.0 -75.9 -23.35 -73.8 -24.65 -71.7 -25.5 -71.65 -25.55 -71.55 -25.4 -77.3 -19.6 -85.35 -21.05 -91.0 -22.1 -93.45 -27.2 -95.65 -31.75 -95.2 -37.05 -94.65 -43.2 -88.45 -44.05 -79.9 -45.1 -75.05 -38.2 L-75.05 -38.1 -75.15 -38.0 -75.25 -37.9 -75.6 -37.9 -75.8 -37.95 -77.0 -39.4 -76.6 -38.0 Q-76.1 -36.3 -75.1 -34.95 -75.35 -34.5 -75.75 -34.75 -78.35 -37.15 -77.8 -40.2 -82.15 -44.15 -88.7 -43.05 -94.25 -42.1 -94.45 -36.5" fill="#000000" fill-rule="evenodd" stroke="none"/>
    <path d="M-66.05 -37.25 L-63.65 -37.95 Q-63.3 -37.95 -63.25 -37.65 L-63.2 -37.6 Q-63.7 -37.05 -64.6 -36.85 L-65.05 -36.75 -64.55 -36.5 -62.9 -35.6 -61.7 -34.65 Q-62.0 -33.95 -62.75 -34.5 -63.85 -35.35 -65.05 -36.0 L-65.95 -36.5 -70.95 -35.45 -71.05 -35.55 Q-71.05 -36.15 -70.3 -36.2 L-68.75 -36.5 -67.05 -37.0 Q-68.45 -37.65 -69.9 -38.1 -70.6 -38.3 -70.15 -38.8 L-70.1 -38.85 -70.0 -38.85 Q-67.95 -38.2 -66.05 -37.25" fill="#000000" fill-rule="evenodd" stroke="none"/>
  </g>
</svg>
