<?xml version="1.0" encoding="UTF-8" standalone="no"?>
<svg xmlns:ffdec="https://www.free-decompiler.com/flash" xmlns:xlink="http://www.w3.org/1999/xlink" ffdec:objectType="shape" height="27.7px" width="32.95px" xmlns="http://www.w3.org/2000/svg">
  <g transform="matrix(1.0, 0.0, 0.0, 1.0, 16.5, 13.85)">
    <path d="M-10.8 -0.4 L-12.35 0.45 Q-14.15 1.25 -16.15 1.05 L-16.5 1.1 Q-16.4 -1.85 -14.55 -5.1 -11.6 -10.15 -6.3 -12.65 L-6.25 -12.7 -5.95 -12.8 -5.7 -12.9 Q-5.35 -11.6 -5.4 -10.15 L-5.7 -7.85 -5.9 -7.05 -6.15 -7.1 -5.9 -8.25 Q-5.75 -9.35 -5.75 -10.5 L-5.85 -11.45 -5.95 -11.55 -6.15 -11.45 -6.35 -11.35 Q-9.8 -9.6 -11.8 -7.25 L-11.9 -7.25 -12.35 -6.6 Q-14.0 -4.45 -14.6 -1.75 L-14.95 0.8 -11.95 -0.1 -10.95 -0.6 -10.85 -0.45 -10.8 -0.4" fill="#000000" fill-rule="evenodd" stroke="none"/>
    <path d="M-10.8 -0.4 L-10.85 -0.45 -10.95 -0.6 -11.95 -0.1 -14.95 0.8 -14.6 -1.75 Q-14.0 -4.45 -12.35 -6.6 L-11.9 -7.25 -11.8 -7.25 Q-9.8 -9.6 -6.35 -11.35 L-6.15 -11.45 -5.95 -11.55 -5.85 -11.45 -5.75 -10.5 Q-5.75 -9.35 -5.9 -8.25 L-6.15 -7.1 -5.9 -7.05 Q-6.3 -5.7 -7.05 -4.5 -8.0 -2.9 -9.4 -1.55 L-10.8 -0.4 M-7.7 -3.7 L-7.6 -3.85 -7.8 -3.95 -7.7 -3.7" fill="#ff9900" fill-rule="evenodd" stroke="none"/>
    <path d="M-6.2 -12.95 L-3.9 -13.85 -3.45 -13.85 -3.55 -13.75 Q2.9 -14.05 8.6 -10.95 16.0 -6.95 16.45 1.35 16.85 8.5 10.1 11.7 3.45 14.9 -4.0 13.35 -9.15 12.35 -12.95 8.6 -16.15 5.4 -16.4 1.7 L-16.45 1.7 -16.45 0.8 -16.4 0.8 -15.1 0.65 -12.25 -0.2 Q-10.5 -0.9 -9.2 -2.05 -7.9 -3.2 -6.95 -4.8 -6.0 -6.35 -5.75 -7.85 -5.5 -9.35 -5.55 -10.6 -5.6 -11.95 -6.2 -12.95 M-14.2 5.1 L-12.2 7.95 -12.15 8.0 -5.3 11.7 -2.35 12.3 Q4.95 13.45 11.05 9.7 L13.55 7.35 Q16.75 2.6 14.05 -3.2 L13.45 -4.4 11.05 -7.5 9.55 -8.85 8.95 -9.3 Q2.65 -13.8 -4.75 -12.25 L-4.75 -11.15 Q-4.5 -7.45 -6.1 -4.2 -6.9 -2.7 -8.2 -1.7 -11.35 0.6 -14.9 1.4 -14.9 3.45 -14.2 5.1" fill="#000000" fill-rule="evenodd" stroke="none"/>
    <path d="M9.55 -8.85 L9.0 -9.25 Q2.7 -13.75 -4.7 -12.2 L-4.7 -11.1 Q-4.45 -7.4 -6.05 -4.15 -6.85 -2.65 -8.15 -1.65 -11.3 0.65 -14.85 1.45 -14.85 3.45 -14.2 5.1 -14.9 3.45 -14.9 1.4 -11.35 0.6 -8.2 -1.7 -6.9 -2.7 -6.1 -4.2 -4.5 -7.45 -4.75 -11.15 L-4.75 -12.25 Q2.65 -13.8 8.95 -9.3 L9.55 -8.85" fill="#ff9900" fill-rule="evenodd" stroke="none"/>
    <path d="M-14.2 5.1 Q-14.85 3.45 -14.85 1.45 -11.3 0.65 -8.15 -1.65 -6.85 -2.65 -6.05 -4.15 -4.45 -7.4 -4.7 -11.1 L-4.7 -12.2 Q2.7 -13.75 9.0 -9.25 L9.55 -8.85 11.05 -7.5 13.45 -4.4 14.05 -3.2 Q16.75 2.6 13.55 7.35 L11.05 9.7 Q4.95 13.45 -2.35 12.3 L-5.3 11.7 -12.15 8.0 -12.2 7.95 -14.2 5.1" fill="url(#gradient0)" fill-rule="evenodd" stroke="none"/>
  </g>
  <defs>
    <radialGradient cx="0" cy="0" gradientTransform="matrix(0.0385, 0.0, 0.0, 0.0276, 6.2, -8.85)" gradientUnits="userSpaceOnUse" id="gradient0" r="819.2" spreadMethod="pad">
      <stop offset="0.0" stop-color="#febf74"/>
      <stop offset="0.4980392156862745" stop-color="#ff9900"/>
      <stop offset="1.0" stop-color="#ff6600"/>
    </radialGradient>
  </defs>
</svg>
