<?xml version="1.0" encoding="UTF-8" standalone="no"?>
<svg xmlns:ffdec="https://www.free-decompiler.com/flash" xmlns:xlink="http://www.w3.org/1999/xlink" ffdec:objectType="shape" height="35.0px" width="16.5px" xmlns="http://www.w3.org/2000/svg">
  <g transform="matrix(1.0, 0.0, 0.0, 1.0, 8.25, 17.45)">
    <path d="M0.2 -16.45 Q-0.25 -14.8 -1.45 -13.2 -4.85 -8.05 -6.5 -1.95 -8.75 6.3 -3.85 12.6 L-4.15 12.6 -4.15 12.65 -4.1 12.75 -4.2 13.05 -4.25 13.15 Q-5.7 13.7 -6.15 15.2 L-6.2 15.55 -6.15 15.65 -5.95 15.95 -5.9 16.05 -1.6 16.45 -1.5 16.65 Q-1.45 16.85 -1.55 17.05 -4.9 18.45 -7.15 16.0 -7.25 13.95 -5.6 12.65 L-5.3 12.45 Q-7.4 10.2 -8.0 6.65 -8.8 2.0 -7.25 -4.3 -5.75 -10.25 -0.25 -17.45 L-0.05 -17.4 0.1 -17.35 0.2 -16.45 M4.1 -13.8 Q3.4 -12.0 2.85 -6.05 2.25 -0.15 4.0 4.95 5.7 9.8 7.05 11.9 L8.0 12.85 Q5.65 13.55 5.45 14.35 L5.15 15.4 Q6.5 16.65 8.15 16.7 L8.25 16.8 8.25 16.9 8.2 17.15 8.15 17.25 Q6.0 17.7 4.2 16.1 3.8 14.0 5.0 13.2 L6.25 12.35 4.4 9.55 Q2.8 7.05 1.9 0.25 1.0 -6.6 2.25 -11.45 3.55 -16.25 4.35 -16.6 4.75 -15.6 4.1 -13.8" fill="#000000" fill-rule="evenodd" stroke="none"/>
  </g>
</svg>
