<?xml version="1.0" encoding="UTF-8" standalone="no"?>
<svg xmlns:ffdec="https://www.free-decompiler.com/flash" xmlns:xlink="http://www.w3.org/1999/xlink" ffdec:objectType="shape" height="13.95px" width="23.55px" xmlns="http://www.w3.org/2000/svg">
  <g transform="matrix(1.0, 0.0, 0.0, 1.0, 11.75, 6.95)">
    <path d="M-4.85 -6.3 L-4.75 -6.35 -4.65 -6.45 -4.6 -6.45 Q-0.95 -7.6 2.35 -6.15 3.95 -5.55 5.2 -4.3 L5.45 -4.25 5.7 -4.1 5.75 -4.05 6.1 -4.6 7.4 -6.15 7.45 -6.2 7.6 -6.25 7.6 -6.3 Q9.35 -6.9 10.75 -5.85 L10.9 -5.8 10.9 -5.75 11.0 -5.55 11.05 -5.45 11.1 -5.45 11.1 -5.35 11.1 -5.3 11.2 -5.25 11.25 -5.25 11.25 -5.2 11.35 -4.75 11.45 -4.55 11.5 -4.4 11.55 -4.25 11.5 -4.2 11.6 -3.9 11.8 -2.45 11.75 -2.0 11.7 -1.9 11.5 -1.3 11.4 -1.2 11.4 -1.1 11.35 -1.05 11.1 -0.8 11.0 -0.7 7.55 -0.55 7.05 -0.75 6.85 -0.85 6.8 -0.95 6.8 -0.5 Q6.85 1.9 5.25 3.9 L5.2 4.15 Q4.1 5.7 2.25 6.4 L2.0 6.6 -1.5 6.95 -2.15 7.0 Q-4.8 6.25 -6.8 4.35 -7.75 3.45 -7.95 2.4 L-8.3 2.4 -8.4 2.15 -8.05 2.0 -8.05 0.7 -8.05 0.6 -8.05 0.55 -8.35 0.6 -9.6 0.75 -9.7 0.7 -10.25 0.5 -11.15 -0.1 -11.15 -0.15 -11.35 -0.3 -11.35 -0.35 -11.55 -0.8 -11.65 -1.1 -11.7 -1.4 -11.75 -1.85 -11.65 -2.0 -11.6 -2.15 -11.6 -2.3 -11.3 -2.75 -10.85 -3.15 -10.75 -3.3 -10.6 -3.35 -10.0 -3.55 -10.0 -3.6 -9.85 -3.6 Q-8.2 -3.55 -6.85 -2.35 -5.7 -4.6 -3.7 -6.0 L-4.7 -6.05 -4.8 -6.15 -4.85 -6.3 M-7.4 -1.3 L-7.2 -1.65 -7.15 -1.75 -7.25 -1.95 -7.35 -2.05 -7.45 -2.15 -8.85 -2.85 -8.95 -2.9 -9.35 -2.95 -10.2 -2.85 -10.25 -2.85 -11.0 -2.0 -11.0 -1.9 -11.2 -1.6 -11.2 -1.55 -11.2 -1.4 -11.15 -1.1 -11.1 -0.8 -11.0 -0.7 -10.2 0.0 -10.2 0.05 -9.6 0.1 -9.5 0.1 -7.95 -0.15 -7.7 -0.65 -7.4 -1.3 M-10.65 -3.0 L-10.65 -2.95 -10.65 -3.0 M5.85 1.95 L5.9 1.75 6.3 -1.1 6.3 -1.15 6.3 -1.2 6.3 -1.3 6.25 -1.6 5.75 -2.9 5.75 -2.95 5.7 -3.1 5.55 -3.4 4.65 -4.1 4.6 -4.2 Q3.55 -5.05 2.35 -5.7 L2.25 -5.85 1.7 -5.95 -2.65 -6.15 Q-4.45 -5.05 -5.65 -3.4 L-6.65 -1.6 -6.85 -1.15 -6.9 -1.0 -7.6 0.15 -7.55 0.55 -7.5 1.65 -7.5 1.75 -6.25 1.35 -3.35 0.65 -3.0 0.45 -0.75 0.15 -0.65 0.15 -0.05 0.1 0.0 0.1 0.65 0.1 0.8 0.15 0.9 0.15 1.2 0.1 1.25 0.1 2.1 0.2 2.2 0.25 3.25 0.25 Q5.0 0.3 5.95 1.5 L5.9 1.55 5.7 1.65 5.4 1.65 4.7 1.25 Q3.0 0.6 1.1 0.7 L1.05 0.65 0.0 0.65 -0.25 0.65 -0.75 0.7 -1.8 0.95 -2.85 1.1 -3.45 1.25 -7.5 2.25 -7.4 2.85 Q-6.95 3.8 -6.05 4.4 L-5.2 5.1 -5.1 5.15 -5.1 5.2 -5.05 5.2 -4.3 5.6 -4.25 5.65 -4.15 5.75 -2.15 6.45 -2.05 6.5 1.85 6.05 4.1 4.75 Q4.7 4.45 4.8 3.8 L4.9 3.55 5.85 1.95 M6.95 -1.65 L7.1 -1.55 7.2 -1.4 7.8 -1.25 8.6 -1.0 9.0 -0.85 10.05 -1.05 10.75 -1.35 10.9 -1.4 11.1 -1.7 11.2 -1.8 11.2 -1.95 11.3 -2.3 11.3 -2.4 11.0 -4.15 11.0 -4.2 11.0 -4.25 10.9 -4.35 10.85 -4.5 10.85 -4.55 10.65 -4.65 10.5 -4.8 10.5 -4.95 10.1 -5.45 9.95 -5.6 9.95 -5.65 9.85 -5.7 9.85 -5.75 9.7 -5.75 9.4 -5.8 7.7 -5.7 7.1 -5.1 Q6.45 -4.55 6.15 -3.7 L6.1 -3.6 6.1 -3.55 6.15 -3.35 6.25 -3.15 6.55 -2.3 6.85 -1.75 6.95 -1.65 M-2.6 1.65 L-2.45 1.4 -2.4 1.4 -2.35 1.3 Q-2.1 1.25 -2.05 1.5 L-2.15 1.75 Q-2.3 2.0 -2.55 1.75 L-2.6 1.65 M-0.8 1.1 L-0.7 1.3 Q-0.65 1.65 -0.95 1.75 L-1.25 1.7 -1.3 1.65 -1.35 1.55 -1.3 1.25 -1.2 1.15 -1.15 1.1 -0.95 1.05 -0.8 1.1" fill="#000000" fill-rule="evenodd" stroke="none"/>
    <path d="M-7.4 -1.3 L-7.75 -1.65 -8.65 -2.25 Q-9.45 -2.3 -10.0 -1.7 L-9.95 -1.6 -10.0 -1.4 -10.05 -1.35 -10.1 -1.3 -10.1 -1.15 -9.85 -0.7 -9.5 -0.4 Q-8.9 -0.1 -8.3 -0.4 L-7.85 -0.6 -7.7 -0.65 -7.95 -0.15 -9.5 0.1 -9.6 0.1 -10.2 0.05 -10.2 0.0 -11.0 -0.7 -11.1 -0.8 -11.15 -1.1 -11.2 -1.4 -11.2 -1.55 -11.2 -1.6 -11.0 -1.9 -11.0 -2.0 -10.25 -2.85 -10.2 -2.85 -9.35 -2.95 -8.95 -2.9 -8.85 -2.85 -7.45 -2.15 -7.35 -2.05 -7.25 -1.95 -7.15 -1.75 -7.2 -1.65 -7.4 -1.3 M-6.85 -1.15 L-6.65 -1.6 -5.65 -3.4 Q-4.45 -5.05 -2.65 -6.15 L1.7 -5.95 2.25 -5.85 2.35 -5.7 Q3.55 -5.05 4.6 -4.2 L4.65 -4.1 5.55 -3.4 5.7 -3.1 5.75 -2.95 5.75 -2.9 6.25 -1.6 6.3 -1.3 6.3 -1.2 6.3 -1.15 6.3 -1.1 5.9 1.75 5.85 1.95 5.8 1.9 5.7 1.65 5.9 1.55 5.95 1.5 Q5.0 0.3 3.25 0.25 L2.2 0.25 2.1 0.2 1.25 0.1 1.2 0.1 0.9 0.15 0.8 0.15 0.65 0.1 0.0 0.1 -0.05 0.1 -0.65 0.15 -0.75 0.15 -3.0 0.45 -3.35 0.65 -6.25 1.35 -7.5 1.75 -7.5 1.65 -7.55 0.55 -7.6 0.15 -6.9 -1.0 -6.8 -1.1 -6.85 -1.15 M6.15 -3.7 Q6.45 -4.55 7.1 -5.1 L7.7 -5.7 9.4 -5.8 9.7 -5.75 9.85 -5.75 9.85 -5.7 9.95 -5.65 9.95 -5.6 10.1 -5.45 10.5 -4.95 10.5 -4.8 10.65 -4.65 10.85 -4.55 10.85 -4.5 10.9 -4.35 11.0 -4.25 11.0 -4.2 11.0 -4.15 11.3 -2.4 11.3 -2.3 11.2 -1.95 11.2 -1.8 11.1 -1.7 10.9 -1.4 10.75 -1.35 10.05 -1.05 9.0 -0.85 8.6 -1.0 7.8 -1.25 7.2 -1.4 7.1 -1.55 6.95 -1.65 Q7.9 -1.55 8.7 -2.15 L8.85 -2.2 9.05 -2.55 9.25 -2.75 9.35 -2.95 9.45 -3.0 9.4 -3.15 9.3 -3.6 9.2 -3.75 9.1 -3.8 8.9 -4.0 Q8.85 -3.95 8.8 -4.05 L8.75 -4.05 8.3 -4.3 Q7.4 -4.35 6.8 -3.75 L6.75 -3.7 6.75 -3.65 6.75 -3.6 6.7 -3.6 6.45 -3.4 6.35 -3.35 6.35 -3.3 6.35 -3.2 6.3 -3.2 6.25 -3.15 6.15 -3.35 6.1 -3.55 6.1 -3.6 6.15 -3.7 M9.75 -3.9 L9.75 -3.85 9.85 -3.75 9.9 -3.65 9.75 -3.9" fill="#95632d" fill-rule="evenodd" stroke="none"/>
    <path d="M-7.7 -0.65 L-7.85 -0.6 -8.3 -0.4 Q-8.9 -0.1 -9.5 -0.4 L-9.85 -0.7 -10.1 -1.15 -10.1 -1.3 -10.05 -1.35 -10.0 -1.4 -9.95 -1.6 -10.0 -1.7 Q-9.45 -2.3 -8.65 -2.25 L-7.75 -1.65 -7.4 -1.3 -7.7 -0.65 M5.85 1.95 L4.9 3.55 4.8 3.8 Q4.7 4.45 4.1 4.75 L1.85 6.05 -2.05 6.5 -2.15 6.45 -4.15 5.75 -4.25 5.65 -4.3 5.6 -5.05 5.2 -5.1 5.2 -5.1 5.15 -5.2 5.1 -6.05 4.4 Q-6.95 3.8 -7.4 2.85 L-7.5 2.25 -3.45 1.25 -2.85 1.1 -1.8 0.95 -0.75 0.7 -0.25 0.65 0.0 0.65 1.05 0.65 1.1 0.7 Q3.0 0.6 4.7 1.25 L5.4 1.65 5.7 1.65 5.8 1.9 5.85 1.95 M-6.9 -1.0 L-6.85 -1.15 -6.8 -1.1 -6.9 -1.0 M6.25 -3.15 L6.3 -3.2 6.35 -3.2 6.35 -3.3 6.35 -3.35 6.45 -3.4 6.7 -3.6 6.75 -3.6 6.75 -3.65 6.75 -3.7 6.8 -3.75 Q7.4 -4.35 8.3 -4.3 L8.75 -4.05 8.8 -4.05 Q8.85 -3.95 8.9 -4.0 L9.1 -3.8 9.2 -3.75 9.3 -3.6 9.4 -3.15 9.45 -3.0 9.35 -2.95 9.25 -2.75 9.05 -2.55 8.85 -2.2 8.7 -2.15 Q7.9 -1.55 6.95 -1.65 L6.85 -1.75 6.55 -2.3 6.25 -3.15 M9.75 -3.9 L9.9 -3.65 9.85 -3.75 9.75 -3.85 9.75 -3.9 M-0.8 1.1 L-0.95 1.05 -1.15 1.1 -1.2 1.15 -1.3 1.25 -1.35 1.55 -1.3 1.65 -1.25 1.7 -0.95 1.75 Q-0.65 1.65 -0.7 1.3 L-0.8 1.1 M-2.6 1.65 L-2.55 1.75 Q-2.3 2.0 -2.15 1.75 L-2.05 1.5 Q-2.1 1.25 -2.35 1.3 L-2.4 1.4 -2.45 1.4 -2.6 1.65" fill="#d79e4a" fill-rule="evenodd" stroke="none"/>
  </g>
</svg>
