<?xml version="1.0" encoding="UTF-8" standalone="no"?>
<svg xmlns:ffdec="https://www.free-decompiler.com/flash" xmlns:xlink="http://www.w3.org/1999/xlink" ffdec:objectType="shape" height="27.7px" width="44.15px" xmlns="http://www.w3.org/2000/svg">
  <g transform="matrix(1.0, 0.0, 0.0, 1.0, 49.2, -3.2)">
    <path d="M-7.5 13.8 Q-9.1 10.3 -12.55 7.75 -18.85 3.25 -26.25 4.8 L-26.25 5.9 Q-26.0 9.6 -27.6 12.85 -28.4 14.35 -29.7 15.35 -32.85 17.65 -36.4 18.45 -36.4 22.5 -33.7 25.0 -30.0 28.4 -23.9 29.3 -16.6 30.45 -10.5 26.7 -9.0 25.75 -8.0 24.35 -4.8 19.6 -7.5 13.8 M-12.9 6.1 Q-5.5 10.1 -5.05 18.4 -4.65 25.55 -11.4 28.75 -18.05 31.95 -25.5 30.4 -30.65 29.4 -34.45 25.65 -37.65 22.45 -37.9 18.75 L-37.95 18.75 -37.95 17.85 -37.9 17.85 -36.6 17.7 -33.75 16.85 Q-32.0 16.15 -30.7 15.0 -29.4 13.85 -28.45 12.25 -27.5 10.7 -27.25 9.2 -27.0 7.7 -27.05 6.45 -27.1 5.1 -27.7 4.1 L-25.4 3.2 -24.95 3.2 -25.05 3.3 Q-18.6 3.0 -12.9 6.1" fill="#000000" fill-rule="evenodd" stroke="none"/>
    <path d="M-7.5 13.8 Q-4.8 19.6 -8.0 24.35 -9.0 25.75 -10.5 26.7 -16.6 30.45 -23.9 29.3 -30.0 28.4 -33.7 25.0 -36.4 22.5 -36.4 18.45 -32.85 17.65 -29.7 15.35 -28.4 14.35 -27.6 12.85 -26.0 9.6 -26.25 5.9 L-26.25 4.8 Q-18.85 3.25 -12.55 7.75 -9.1 10.3 -7.5 13.8" fill="#ff9900" fill-rule="evenodd" stroke="none"/>
    <path d="M-7.5 13.8 Q-4.8 19.6 -8.0 24.35 -9.0 25.75 -10.5 26.7 -16.6 30.45 -23.9 29.3 -30.0 28.4 -33.7 25.0 -36.4 22.5 -36.4 18.45 -32.85 17.65 -29.7 15.35 -28.4 14.35 -27.6 12.85 -26.0 9.6 -26.25 5.9 L-26.25 4.8 Q-18.85 3.25 -12.55 7.75 -9.1 10.3 -7.5 13.8" fill="url(#gradient0)" fill-rule="evenodd" stroke="none"/>
    <path d="M-47.05 21.5 L-46.75 21.45 -45.65 21.6 -44.9 22.15 -44.3 22.85 Q-43.35 24.2 -43.95 25.55 -45.7 26.95 -46.95 25.85 -48.85 23.45 -47.05 21.5" fill="#ff0000" fill-rule="evenodd" stroke="none"/>
    <path d="M-46.75 21.45 Q-46.65 20.95 -45.25 20.85 -42.1 22.25 -42.8 26.15 L-43.35 26.7 Q-48.3 28.4 -48.85 25.6 L-49.2 23.75 Q-49.05 21.25 -47.05 21.5 -48.85 23.45 -46.95 25.85 -45.7 26.95 -43.95 25.55 -43.35 24.2 -44.3 22.85 L-44.9 22.15 -45.65 21.6 -46.75 21.45" fill="#000000" fill-rule="evenodd" stroke="none"/>
    <path d="M-43.35 24.15 L-36.15 24.2 Q-35.7 24.2 -35.55 23.7 L-35.6 23.55 Q-35.6 23.05 -36.15 23.05 L-36.15 23.0 -43.4 23.35 Q-43.75 23.35 -43.7 23.65 L-43.65 23.8 -43.35 24.15" fill="#000000" fill-rule="evenodd" stroke="none"/>
    <path d="M-46.8 24.65 Q-47.25 24.95 -47.6 24.5 -48.6 23.2 -47.0 22.75 -45.1 23.55 -46.8 24.65" fill="#ffffff" fill-rule="evenodd" stroke="none"/>
  </g>
  <defs>
    <radialGradient cx="0" cy="0" gradientTransform="matrix(0.0385, 0.0, 0.0, 0.0276, -15.35, 8.15)" gradientUnits="userSpaceOnUse" id="gradient0" r="819.2" spreadMethod="pad">
      <stop offset="0.0" stop-color="#febf74"/>
      <stop offset="0.4980392156862745" stop-color="#ff9900"/>
      <stop offset="1.0" stop-color="#ff6600"/>
    </radialGradient>
  </defs>
</svg>
