<?xml version="1.0" encoding="UTF-8" standalone="no"?>
<svg xmlns:ffdec="https://www.free-decompiler.com/flash" xmlns:xlink="http://www.w3.org/1999/xlink" ffdec:objectType="shape" height="13.5px" width="103.6px" xmlns="http://www.w3.org/2000/svg">
  <g transform="matrix(1.0, 0.0, 0.0, 1.0, -1.6, -2.0)">
    <path d="M3.35 3.75 Q2.65 4.45 2.65 5.5 L2.65 9.95 2.6 9.95 2.6 10.35 2.65 10.35 2.65 11.1 2.6 11.1 2.6 12.0 Q2.6 13.05 3.35 13.8 4.05 14.5 5.1 14.5 L101.65 14.5 103.15 14.05 103.45 13.8 Q104.15 13.05 104.15 12.0 L104.15 6.35 104.2 6.35 104.2 5.5 Q104.2 4.45 103.45 3.7 102.75 3.0 101.7 3.0 L5.15 3.0 Q4.3 3.0 3.65 3.5 L3.4 3.7 3.35 3.75 M2.65 3.0 L3.65 2.3 Q4.35 2.0 5.15 2.0 L101.7 2.0 Q103.15 2.0 104.15 3.0 105.2 4.05 105.2 5.5 L105.2 9.95 105.15 9.95 105.15 10.35 105.2 10.35 105.2 11.1 105.15 11.1 105.15 12.0 Q105.15 13.45 104.2 14.5 L104.15 14.55 103.15 15.2 101.65 15.5 5.1 15.5 Q3.65 15.5 2.65 14.5 1.6 13.45 1.6 12.0 L1.6 6.35 1.65 6.35 1.65 5.5 Q1.65 4.05 2.65 3.0" fill="url(#gradient0)" fill-rule="evenodd" stroke="none"/>
  </g>
  <defs>
    <linearGradient gradientTransform="matrix(-0.0014, -0.0135, 0.0082, -9.0E-4, 53.4, 8.75)" gradientUnits="userSpaceOnUse" id="gradient0" spreadMethod="pad" x1="-819.2" x2="819.2">
      <stop offset="0.0" stop-color="#000000" stop-opacity="0.2509804"/>
      <stop offset="0.596078431372549" stop-color="#ffffff" stop-opacity="0.5019608"/>
    </linearGradient>
  </defs>
</svg>
