<?xml version="1.0" encoding="UTF-8" standalone="no"?>
<svg xmlns:ffdec="https://www.free-decompiler.com/flash" xmlns:xlink="http://www.w3.org/1999/xlink" ffdec:objectType="shape" height="13.45px" width="10.25px" xmlns="http://www.w3.org/2000/svg">
  <g transform="matrix(1.0, 0.0, 0.0, 1.0, 36.95, -4.7)">
    <path d="M-33.4 9.85 L-32.65 9.1 Q-30.7 7.15 -27.85 5.7 L-27.35 5.65 -27.25 6.55 -27.4 8.8 Q-27.6 10.1 -28.1 11.35 L-29.0 13.05 -29.7 12.95 -30.85 12.15 -33.3 10.35 -33.45 10.2 Q-33.25 9.9 -33.4 9.85 M-34.05 10.65 L-33.9 10.55 Q-32.4 12.5 -30.45 13.55 -29.75 13.85 -29.7 14.05 L-29.8 14.2 -29.85 14.2 -30.7 15.0 Q-32.0 16.15 -33.75 16.85 L-36.45 17.65 -36.15 15.55 -35.95 16.3 -34.15 10.75 -34.05 10.65" fill="#ffcc00" fill-rule="evenodd" stroke="none"/>
    <path d="M-29.0 13.05 L-29.0 13.1 -29.05 13.9 Q-29.25 14.45 -29.85 14.2 L-29.8 14.2 -29.7 14.05 Q-29.75 13.85 -30.45 13.55 -32.4 12.5 -33.9 10.55 L-33.95 10.5 -33.95 10.45 -34.15 10.75 -35.95 16.3 -36.15 15.55 -36.1 15.3 Q-35.95 14.5 -36.35 14.95 L-36.7 15.5 Q-36.3 11.75 -34.95 10.2 -33.6 8.65 -33.0 8.55 -32.4 8.45 -33.4 9.8 L-33.4 9.85 Q-33.25 9.9 -33.45 10.2 L-33.3 10.35 -30.85 12.15 -29.7 12.95 -29.0 13.05" fill="#000000" fill-rule="evenodd" stroke="none"/>
    <path d="M-29.0 13.1 L-28.0 11.15 Q-27.15 9.05 -27.2 6.5 L-27.3 5.2 Q-28.15 5.45 -29.7 6.5 L-29.8 6.6 Q-31.45 7.7 -33.0 9.35 L-33.4 9.8 M-33.95 10.5 L-34.05 10.65 M-36.15 15.55 L-36.45 17.65 Q-33.45 17.45 -31.15 15.5 L-29.85 14.2 M-29.8 14.2 L-29.7 14.05 M-36.1 15.3 L-36.15 15.55" fill="none" stroke="#000000" stroke-linecap="round" stroke-linejoin="round" stroke-width="1.0"/>
  </g>
</svg>
