<?xml version="1.0" encoding="UTF-8" standalone="no"?>
<svg xmlns:ffdec="https://www.free-decompiler.com/flash" xmlns:xlink="http://www.w3.org/1999/xlink" ffdec:objectType="shape" height="13.45px" width="10.25px" xmlns="http://www.w3.org/2000/svg">
  <g transform="matrix(1.0, 0.0, 0.0, 1.0, 36.95, -4.7)">
    <path d="M-32.3 8.75 Q-30.45 7.05 -27.85 5.7 L-27.35 5.65 -27.25 6.55 -27.4 8.8 Q-27.6 10.1 -28.1 11.35 L-28.35 11.9 -28.35 11.65 -28.45 11.5 -28.5 11.4 -28.55 11.25 -30.2 10.25 Q-31.45 9.7 -32.3 8.75 M-30.35 14.55 L-30.25 14.6 -30.7 15.0 Q-32.0 16.15 -33.75 16.85 L-36.45 17.65 -36.15 15.55 -35.95 16.3 -34.9 13.0 -33.35 14.0 -31.35 15.15 -31.3 15.15 -30.95 14.9 -30.7 14.85 -30.35 14.55" fill="#ffcc00" fill-rule="evenodd" stroke="none"/>
    <path d="M-28.35 11.9 L-28.8 12.7 -31.95 10.75 -33.1 9.55 -32.65 9.1 -32.3 8.75 Q-31.45 9.7 -30.2 10.25 L-28.55 11.25 -28.5 11.4 -28.45 11.5 -28.35 11.65 -28.35 11.9 M-33.05 9.3 L-33.15 9.5 -33.5 8.8 -33.0 8.55 Q-32.55 8.45 -33.05 9.3 M-36.1 15.3 Q-35.95 14.5 -36.35 14.95 L-36.7 15.5 Q-36.5 13.3 -35.9 11.9 L-35.75 11.5 Q-34.4 12.2 -33.25 13.05 L-31.3 14.1 -30.35 14.55 -30.7 14.85 -30.95 14.9 -31.3 15.15 -31.35 15.15 -33.35 14.0 -34.9 13.0 -35.95 16.3 -36.15 15.55 -36.1 15.3" fill="#000000" fill-rule="evenodd" stroke="none"/>
    <path d="M-28.8 12.7 L-28.35 11.95 -28.0 11.15 Q-27.15 9.05 -27.2 6.5 L-27.3 5.2 Q-28.15 5.45 -29.7 6.5 L-29.8 6.6 -32.35 8.7 -33.05 9.3 M-30.25 14.6 L-31.15 15.5 Q-33.45 17.45 -36.45 17.65 L-36.15 15.55 -36.1 15.3" fill="none" stroke="#000000" stroke-linecap="round" stroke-linejoin="round" stroke-width="1.0"/>
  </g>
</svg>
