<?xml version="1.0" encoding="UTF-8" standalone="no"?>
<svg xmlns:ffdec="https://www.free-decompiler.com/flash" xmlns:xlink="http://www.w3.org/1999/xlink" ffdec:objectType="shape" height="16.5px" width="13.8px" xmlns="http://www.w3.org/2000/svg">
  <g transform="matrix(1.0, 0.0, 0.0, 1.0, 6.9, 8.25)">
    <path d="M-0.5 -7.25 Q4.15 -7.95 5.2 -3.5 5.85 -0.7 5.5 2.2 5.45 2.75 5.8 3.5 7.8 7.7 3.0 7.75 0.7 7.75 -0.6 6.1 -1.4 5.05 -2.8 4.35 -5.65 2.9 -4.9 -1.45 -4.85 -1.75 -5.1 -2.15 -5.7 -3.0 -6.4 -3.3 -6.15 -5.25 -4.65 -6.6 -2.6 -8.55 -0.5 -7.25 L0.15 -6.8 -0.5 -7.25" fill="#ffffff" fill-rule="evenodd" stroke="none"/>
    <path d="M-0.5 -7.25 Q4.15 -7.95 5.2 -3.5 5.85 -0.7 5.5 2.2 5.45 2.75 5.8 3.5 7.8 7.7 3.0 7.75 0.7 7.75 -0.6 6.1 -1.4 5.05 -2.8 4.35 -5.65 2.9 -4.9 -1.45 -4.85 -1.75 -5.1 -2.15 -5.7 -3.0 -6.4 -3.3 -6.15 -5.25 -4.65 -6.6 -2.6 -8.55 -0.5 -7.25 L0.15 -6.8" fill="none" stroke="#000000" stroke-linecap="round" stroke-linejoin="round" stroke-width="1.0"/>
  </g>
</svg>
