<?xml version="1.0" encoding="UTF-8" standalone="no"?>
<svg xmlns:ffdec="https://www.free-decompiler.com/flash" xmlns:xlink="http://www.w3.org/1999/xlink" ffdec:objectType="shape" height="38.2px" width="55.65px" xmlns="http://www.w3.org/2000/svg">
  <g transform="matrix(1.0, 0.0, 0.0, 1.0, -45.9, -5.25)">
    <path d="M53.35 42.95 Q39.0 24.65 54.2 6.4" fill="none" stroke="#000000" stroke-linecap="round" stroke-linejoin="round" stroke-width="1.0"/>
    <path d="M81.3 15.6 Q83.3 14.4 85.65 15.1 91.35 16.75 90.85 22.75 90.4 28.1 84.3 30.05 80.5 31.3 77.25 29.65 74.9 28.75 73.1 27.05 68.75 23.0 69.05 17.05 69.3 11.0 74.4 7.9 77.25 6.1 80.55 5.35 95.1 4.15 100.75 17.15 101.75 19.55 101.5 22.2 100.6 31.35 91.85 34.75 87.65 36.3 83.3 37.0 72.1 38.75 62.15 35.05 L56.95 32.4 Q56.15 31.9 53.9 31.2 52.5 29.75 54.45 29.55 58.8 31.8 62.15 33.8 65.9 35.15 71.35 35.95 76.75 36.75 81.9 36.05 L90.35 34.35 Q98.45 31.75 99.9 23.45 101.45 14.4 93.5 9.2 87.1 4.95 79.3 6.95 77.75 7.35 76.5 7.9 74.85 8.7 73.6 10.0 69.4 14.25 70.7 20.25 71.9 26.0 77.25 28.55 L77.3 28.6 Q80.6 30.15 84.55 29.2 87.1 27.7 88.75 25.35 89.5 24.15 89.75 22.75 90.4 15.35 83.45 16.1 79.0 16.55 81.1 20.25 L80.85 20.7 80.2 20.75 Q78.25 17.35 81.3 15.6" fill="#000000" fill-rule="evenodd" stroke="none"/>
  </g>
</svg>
