<?xml version="1.0" encoding="UTF-8" standalone="no"?>
<svg xmlns:ffdec="https://www.free-decompiler.com/flash" xmlns:xlink="http://www.w3.org/1999/xlink" ffdec:objectType="shape" height="10.7px" width="8.7px" xmlns="http://www.w3.org/2000/svg">
  <g transform="matrix(1.0, 0.0, 0.0, 1.0, -87.45, -38.7)">
    <path d="M88.7 46.5 L88.6 47.0 88.7 46.5 M89.25 48.9 Q88.4 48.15 88.6 47.0 86.95 44.25 89.45 42.45 91.0 41.3 92.95 40.8 L93.65 40.25 Q94.75 39.0 95.65 39.25 L95.0 41.75 94.95 41.95 94.5 42.8 93.65 43.7 Q91.8 46.45 89.25 48.9" fill="#ffffff" fill-rule="evenodd" stroke="none"/>
    <path d="M88.6 47.0 L88.7 46.5 M89.25 48.9 Q88.4 48.15 88.6 47.0 86.95 44.25 89.45 42.45 91.0 41.3 92.95 40.8 L93.65 40.25 Q94.75 39.0 95.65 39.25" fill="none" stroke="#000000" stroke-linecap="round" stroke-linejoin="round" stroke-width="1.0"/>
  </g>
</svg>
