<?xml version="1.0" encoding="UTF-8" standalone="no"?>
<svg xmlns:ffdec="https://www.free-decompiler.com/flash" xmlns:xlink="http://www.w3.org/1999/xlink" ffdec:objectType="shape" height="13.45px" width="10.25px" xmlns="http://www.w3.org/2000/svg">
  <g transform="matrix(1.0, 0.0, 0.0, 1.0, 36.95, -4.7)">
    <path d="M-29.75 6.8 Q-28.85 6.2 -27.85 5.7 L-27.35 5.65 -27.25 6.55 -27.3 8.0 -28.25 7.5 -29.75 6.8 M-36.15 15.55 L-35.95 16.3 -35.65 15.3 -35.4 15.65 -34.05 17.0 -36.45 17.65 -36.15 15.55" fill="#ffcc00" fill-rule="evenodd" stroke="none"/>
    <path d="M-27.3 8.0 L-27.4 8.8 -27.45 9.3 -28.75 8.3 -30.25 7.1 -29.75 6.8 -28.25 7.5 -27.3 8.0 M-36.1 15.3 Q-35.95 14.5 -36.35 14.95 L-36.7 15.5 -36.55 14.2 -36.4 13.55 -36.2 13.7 -35.4 14.4 -33.65 16.3 -33.35 16.7 -33.75 16.85 -34.05 17.0 -35.4 15.65 -35.65 15.3 -35.95 16.3 -36.15 15.55 -36.1 15.3" fill="#000000" fill-rule="evenodd" stroke="none"/>
    <path d="M-27.45 9.3 L-27.25 8.0 -27.2 6.5 -27.3 5.2 Q-28.15 5.45 -29.7 6.5 L-29.8 6.6 -29.95 6.7 -30.25 7.1 M-36.1 15.3 L-36.15 15.55 -36.45 17.65 Q-35.1 17.55 -34.0 17.05 L-33.35 16.7" fill="none" stroke="#000000" stroke-linecap="round" stroke-linejoin="round" stroke-width="1.0"/>
  </g>
</svg>
