<?xml version="1.0" encoding="UTF-8" standalone="no"?>
<svg xmlns:ffdec="https://www.free-decompiler.com/flash" xmlns:xlink="http://www.w3.org/1999/xlink" ffdec:objectType="shape" height="62.5px" width="68.15px" xmlns="http://www.w3.org/2000/svg">
  <g transform="matrix(1.0, 0.0, 0.0, 1.0, 116.7, 33.35)">
    <path d="M-103.25 28.65 Q-109.2 29.0 -112.5 21.85 -114.8 16.9 -115.2 11.4 L-115.85 11.3 -116.2 11.1 M-111.9 7.45 Q-111.9 11.6 -115.2 11.4" fill="none" stroke="#000000" stroke-linecap="round" stroke-linejoin="round" stroke-width="1.0"/>
    <path d="M-51.4 -3.6 Q-52.15 -1.7 -53.35 -0.35 -57.3 4.3 -62.15 2.45 -66.9 0.65 -68.6 -5.65 L-68.6 -5.7 Q-69.7 -9.65 -68.55 -14.15 -67.1 -17.0 -65.0 -18.7 -63.95 -19.6 -62.8 -19.75 -56.5 -20.1 -57.75 -12.15 -58.45 -7.0 -61.35 -9.6 -61.5 -9.5 -61.75 -9.35 L-61.85 -8.65 Q-59.15 -6.2 -57.45 -9.6 -56.3 -11.85 -56.65 -14.55 -57.6 -21.25 -62.7 -21.05 -67.15 -20.8 -69.3 -13.9 -70.6 -9.55 -69.5 -5.7 -68.95 -2.95 -67.7 -0.7 -64.65 4.5 -59.6 4.5 -54.55 4.5 -51.55 -1.15 -49.8 -4.35 -48.9 -8.1 -46.8 -24.9 -57.2 -32.15 -59.1 -33.5 -61.35 -33.35 -69.1 -32.8 -72.6 -22.9 -74.25 -18.15 -75.2 -13.1 -77.55 -0.3 -75.2 11.45 L-73.4 17.6 Q-73.1 18.55 -72.7 21.2 -71.6 22.9 -71.25 20.65 L-74.15 11.5 Q-75.0 7.1 -75.25 0.8 -75.45 -5.55 -74.5 -11.5 -73.55 -17.4 -72.4 -21.15 -69.6 -30.35 -62.5 -31.55 -54.85 -32.8 -51.15 -23.35 -48.1 -15.7 -50.4 -6.75 L-51.4 -3.6" fill="#000000" fill-rule="evenodd" stroke="none"/>
  </g>
</svg>
