<?xml version="1.0" encoding="UTF-8" standalone="no"?>
<svg xmlns:ffdec="https://www.free-decompiler.com/flash" xmlns:xlink="http://www.w3.org/1999/xlink" ffdec:objectType="shape" height="18.45px" width="70.0px" xmlns="http://www.w3.org/2000/svg">
  <g transform="matrix(1.0, 0.0, 0.0, 1.0, 106.0, -18.2)">
    <path d="M-94.5 21.45 Q-93.95 19.0 -91.0 18.75 L-90.45 18.75" fill="none" stroke="#000000" stroke-linecap="round" stroke-linejoin="round" stroke-width="1.0"/>
    <path d="M-60.25 35.25 Q-58.15 35.1 -56.4 35.85 L-55.8 36.15 M-48.7 32.25 Q-44.75 31.95 -40.95 30.85 L-40.65 30.8 M-39.75 28.7 Q-41.5 31.85 -36.8 32.8 L-36.5 32.85" fill="none" stroke="#000000" stroke-linecap="round" stroke-linejoin="round" stroke-width="1.0"/>
    <path d="M-103.35 31.95 Q-100.95 28.4 -104.5 26.5" fill="none" stroke="#caeafe" stroke-linecap="round" stroke-linejoin="round" stroke-width="3.0"/>
    <path d="M-77.2 27.5 Q-74.6 29.65 -76.7 32.15 L-77.2 32.55 M-87.9 28.7 Q-84.7 28.45 -81.95 29.55 L-81.5 29.75 -84.9 32.6 -83.05 33.1 Q-79.75 33.5 -79.4 30.45 L-78.95 28.3 Q-77.9 24.75 -75.4 27.15 -74.35 28.1 -73.85 29.65 -71.95 35.3 -65.05 34.35 M-87.5 34.6 Q-88.6 32.65 -90.25 31.05 -93.55 27.95 -89.9 26.95 -88.7 26.65 -88.45 27.7 -87.6 31.4 -84.9 32.6" fill="none" stroke="#ffffff" stroke-linecap="round" stroke-linejoin="round" stroke-width="3.0"/>
    <path d="M-85.85 27.2 Q-87.85 28.05 -88.2 30.5 L-88.2 30.8" fill="none" stroke="#000000" stroke-linecap="round" stroke-linejoin="round" stroke-width="1.0"/>
    <path d="M-67.1 30.5 Q-73.15 30.8 -74.65 25.65 -75.7 22.0 -78.3 24.9 -82.3 29.4 -87.5 25.75 L-88.15 25.55 Q-94.2 26.1 -98.7 24.15" fill="none" stroke="#000000" stroke-linecap="round" stroke-linejoin="round" stroke-width="1.0"/>
  </g>
</svg>
