<?xml version="1.0" encoding="UTF-8" standalone="no"?>
<svg xmlns:ffdec="https://www.free-decompiler.com/flash" xmlns:xlink="http://www.w3.org/1999/xlink" ffdec:objectType="shape" height="14.0px" width="11.1px" xmlns="http://www.w3.org/2000/svg">
  <g transform="matrix(1.0, 0.0, 0.0, 1.0, 38.0, -4.15)">
    <path d="M-27.45 5.5 L-27.65 5.6 -27.85 5.7 Q-31.2 7.4 -33.2 9.7 L-33.35 9.75 -33.95 10.35 -34.0 10.7 Q-35.55 12.75 -36.1 15.3 L-36.45 17.85 -33.45 16.95 -31.05 15.45 -29.95 14.3 Q-29.4 13.8 -29.3 13.15 L-29.2 13.35 -29.1 13.2 -28.1 11.35 Q-27.6 10.1 -27.4 8.8 L-27.25 6.55 -27.35 5.6 -27.45 5.5 M-27.45 4.25 L-27.2 4.15 Q-26.85 5.45 -26.9 6.9 L-27.2 9.2 Q-27.6 11.0 -28.55 12.55 -29.5 14.15 -30.9 15.5 -32.15 16.7 -33.85 17.5 -35.65 18.3 -37.65 18.1 L-38.0 18.15 Q-37.9 15.2 -36.05 11.95 -33.1 6.9 -27.8 4.4 L-27.75 4.35 -27.45 4.25" fill="#000000" fill-rule="evenodd" stroke="none"/>
  </g>
</svg>
