<?xml version="1.0" encoding="UTF-8" standalone="no"?>
<svg xmlns:ffdec="https://www.free-decompiler.com/flash" xmlns:xlink="http://www.w3.org/1999/xlink" ffdec:objectType="shape" height="51.9px" width="35.35px" xmlns="http://www.w3.org/2000/svg">
  <g transform="matrix(1.0, 0.0, 0.0, 1.0, 87.7, 40.25)">
    <path d="M-85.35 -25.85 Q-83.4 -28.25 -80.5 -28.75 -73.65 -28.0 -74.55 -20.65 -74.8 -18.55 -76.35 -17.2 -79.45 -14.5 -83.5 -16.7 -89.85 -20.25 -85.35 -25.85 M-78.6 -33.9 Q-80.0 -33.05 -81.05 -34.4 -84.1 -38.35 -79.2 -39.75 -73.4 -37.25 -78.6 -33.9 M-67.9 5.95 Q-68.15 6.7 -68.7 7.25 -68.75 12.6 -74.75 10.65 -78.65 9.4 -78.3 5.15 -77.9 0.65 -73.05 0.65 -65.9 0.1 -67.9 5.95 M-57.75 0.2 Q-60.85 -3.8 -55.95 -5.2 -50.1 -2.65 -55.35 0.65 -56.75 1.55 -57.75 0.2" fill="#ffffff" fill-rule="evenodd" stroke="none"/>
    <path d="M-85.35 -25.85 Q-83.4 -28.25 -80.5 -28.75 -73.65 -28.0 -74.55 -20.65 -74.8 -18.55 -76.35 -17.2 -79.45 -14.5 -83.5 -16.7 -89.85 -20.25 -85.35 -25.85 M-53.6 -23.85 Q-52.5 -22.35 -54.35 -21.7 L-54.7 -21.65 M-78.6 -33.9 Q-80.0 -33.05 -81.05 -34.4 -84.1 -38.35 -79.2 -39.75 -73.4 -37.25 -78.6 -33.9 M-67.9 5.95 Q-68.15 6.7 -68.7 7.25 -68.75 12.6 -74.75 10.65 -78.65 9.4 -78.3 5.15 -77.9 0.65 -73.05 0.65 -65.9 0.1 -67.9 5.95 M-57.75 0.2 Q-60.85 -3.8 -55.95 -5.2 -50.1 -2.65 -55.35 0.65 -56.75 1.55 -57.75 0.2 Z" fill="none" stroke="#000000" stroke-linecap="round" stroke-linejoin="round" stroke-width="1.0"/>
  </g>
</svg>
