<?xml version="1.0" encoding="UTF-8" standalone="no"?>
<svg xmlns:ffdec="https://www.free-decompiler.com/flash" xmlns:xlink="http://www.w3.org/1999/xlink" ffdec:objectType="shape" height="12.0px" width="9.2px" xmlns="http://www.w3.org/2000/svg">
  <g transform="matrix(1.0, 0.0, 0.0, 1.0, 36.45, -5.65)">
    <path d="M-33.4 9.85 L-32.65 9.1 Q-30.7 7.15 -27.85 5.7 L-27.35 5.65 -27.25 6.55 -27.4 8.8 Q-27.6 10.1 -28.1 11.35 L-29.0 13.05 -29.7 12.95 -30.85 12.15 -33.3 10.35 -33.45 10.2 Q-33.25 9.9 -33.4 9.85 M-29.85 14.2 L-30.7 15.0 Q-32.0 16.15 -33.75 16.85 L-36.45 17.65 -36.1 15.3 Q-35.6 13.0 -34.15 10.75 L-33.9 10.55 Q-32.4 12.5 -30.45 13.55 -29.3 14.0 -29.85 14.2" fill="#ffcc00" fill-rule="evenodd" stroke="none"/>
    <path d="M-29.0 13.05 Q-28.85 13.35 -29.05 13.9 -29.25 14.45 -29.85 14.2 -29.3 14.0 -30.45 13.55 -32.4 12.5 -33.9 10.55 L-33.95 10.5 -33.95 10.45 -34.15 10.75 -34.2 10.75 Q-34.65 10.4 -34.5 9.85 -34.4 9.45 -34.0 9.4 -33.45 9.45 -33.4 9.85 -33.25 9.9 -33.45 10.2 L-33.3 10.35 -30.85 12.15 -29.7 12.95 -29.0 13.05" fill="#000000" fill-rule="evenodd" stroke="none"/>
  </g>
</svg>
