<?xml version="1.0" encoding="UTF-8" standalone="no"?>
<svg xmlns:ffdec="https://www.free-decompiler.com/flash" xmlns:xlink="http://www.w3.org/1999/xlink" ffdec:objectType="shape" height="29.95px" width="48.4px" xmlns="http://www.w3.org/2000/svg">
  <g transform="matrix(1.0, 0.0, 0.0, 1.0, 102.8, 16.0)">
    <path d="M-87.85 -12.05 Q-87.15 -15.15 -84.05 -15.5 -76.2 -12.9 -80.8 -6.1 -81.9 -4.45 -84.0 -5.1 -89.05 -6.55 -87.85 -12.05 M-98.4 -9.0 Q-99.7 -8.15 -100.75 -9.3 -104.45 -13.2 -99.25 -14.9 -93.1 -12.6 -98.4 -9.0 M-72.1 11.15 Q-73.15 14.35 -76.65 13.1 -83.05 10.8 -78.55 6.0 -77.85 5.25 -76.95 5.15 -70.35 5.85 -72.1 11.15 M-57.35 12.0 Q-58.75 12.85 -59.8 11.5 -62.85 7.5 -57.95 6.15 -52.15 8.65 -57.35 12.0" fill="#ffffff" fill-rule="evenodd" stroke="none"/>
    <path d="M-87.85 -12.05 Q-87.15 -15.15 -84.05 -15.5 -76.2 -12.9 -80.8 -6.1 -81.9 -4.45 -84.0 -5.1 -89.05 -6.55 -87.85 -12.05 M-98.4 -9.0 Q-99.7 -8.15 -100.75 -9.3 -104.45 -13.2 -99.25 -14.9 -93.1 -12.6 -98.4 -9.0 M-72.1 11.15 Q-73.15 14.35 -76.65 13.1 -83.05 10.8 -78.55 6.0 -77.85 5.25 -76.95 5.15 -70.35 5.85 -72.1 11.15 M-57.35 12.0 Q-58.75 12.85 -59.8 11.5 -62.85 7.5 -57.95 6.15 -52.15 8.65 -57.35 12.0 Z" fill="none" stroke="#000000" stroke-linecap="round" stroke-linejoin="round" stroke-width="1.0"/>
  </g>
</svg>
