<?xml version="1.0" encoding="UTF-8" standalone="no"?>
<svg xmlns:ffdec="https://www.free-decompiler.com/flash" xmlns:xlink="http://www.w3.org/1999/xlink" ffdec:objectType="shape" height="24.65px" width="59.75px" xmlns="http://www.w3.org/2000/svg">
  <g transform="matrix(1.0, 0.0, 0.0, 1.0, 113.4, -9.2)">
    <path d="M-56.65 33.0 Q-58.0 33.85 -59.05 32.55 -62.15 28.55 -57.25 27.15 -51.4 29.65 -56.65 33.0 M-67.6 26.5 Q-69.0 27.4 -70.05 26.05 -73.1 22.05 -68.2 20.7 -62.4 23.2 -67.6 26.5 M-107.05 17.6 Q-109.3 20.15 -111.6 17.65 -113.2 15.9 -112.8 13.4 -112.2 10.15 -108.95 9.7 -102.3 12.15 -107.05 17.6 M-85.5 28.4 Q-86.45 29.3 -87.7 28.6 -92.9 25.75 -88.35 21.95 -87.7 21.4 -86.95 21.35 -80.65 24.1 -85.5 28.4" fill="#ffffff" fill-rule="evenodd" stroke="none"/>
    <path d="M-56.65 33.0 Q-58.0 33.85 -59.05 32.55 -62.15 28.55 -57.25 27.15 -51.4 29.65 -56.65 33.0 M-67.6 26.5 Q-69.0 27.4 -70.05 26.05 -73.1 22.05 -68.2 20.7 -62.4 23.2 -67.6 26.5 M-107.05 17.6 Q-109.3 20.15 -111.6 17.65 -113.2 15.9 -112.8 13.4 -112.2 10.15 -108.95 9.7 -102.3 12.15 -107.05 17.6 M-85.5 28.4 Q-86.45 29.3 -87.7 28.6 -92.9 25.75 -88.35 21.95 -87.7 21.4 -86.95 21.35 -80.65 24.1 -85.5 28.4 Z" fill="none" stroke="#000000" stroke-linecap="round" stroke-linejoin="round" stroke-width="1.0"/>
  </g>
</svg>
