<?xml version="1.0" encoding="UTF-8" standalone="no"?>
<svg xmlns:ffdec="https://www.free-decompiler.com/flash" xmlns:xlink="http://www.w3.org/1999/xlink" ffdec:objectType="shape" height="66.2px" width="33.4px" xmlns="http://www.w3.org/2000/svg">
  <g transform="matrix(1.0, 0.0, 0.0, 1.0, 91.3, 25.05)">
    <path d="M-63.65 41.0 L-63.6 40.95 -63.65 41.15 -63.8 41.15 -63.65 41.0" fill="#ff9900" fill-rule="evenodd" stroke="none"/>
    <path d="M-60.55 -21.6 L-60.9 -21.75 -61.3 -21.95 -61.3 -22.35 Q-66.4 -22.75 -71.25 -20.75 -76.7 -18.45 -81.75 -15.3 -87.45 -11.8 -90.5 -6.9 -90.85 -6.8 -91.15 -7.05 L-91.3 -7.2 Q-88.3 -13.15 -81.4 -17.0 -76.6 -19.7 -71.4 -21.75 -66.7 -23.65 -61.7 -23.6 L-61.1 -23.45 Q-60.55 -24.8 -58.4 -25.05 L-58.2 -25.0 Q-57.7 -24.7 -58.1 -24.3 L-58.2 -24.2 -58.55 -24.1 -59.1 -23.95 -59.7 -23.4 -60.05 -23.0 Q-60.0 -22.35 -60.3 -21.8 L-60.55 -21.6" fill="#000000" fill-rule="evenodd" stroke="none"/>
  </g>
</svg>
