<?xml version="1.0" encoding="UTF-8" standalone="no"?>
<svg xmlns:ffdec="https://www.free-decompiler.com/flash" xmlns:xlink="http://www.w3.org/1999/xlink" ffdec:objectType="shape" height="65.5px" width="84.1px" xmlns="http://www.w3.org/2000/svg">
  <g transform="matrix(1.0, 0.0, 0.0, 1.0, 123.7, 27.95)">
    <path d="M-59.9 17.15 Q-61.75 16.9 -63.3 16.05 -68.6 13.4 -69.1 7.5 -69.7 1.8 -65.35 -2.25 -62.6 -4.75 -58.6 -5.1 -55.75 -4.45 -53.5 -2.75 -52.4 -1.9 -51.75 -0.65 -48.9 6.0 -55.75 7.4 -60.15 8.3 -59.25 4.3 L-59.6 3.95 -60.2 4.1 Q-61.05 7.85 -57.65 8.55 -55.4 9.05 -53.4 7.7 -48.5 4.4 -50.7 -1.0 -52.75 -5.85 -59.1 -5.8 -63.1 -5.75 -65.65 -3.2 -67.65 -1.75 -68.9 0.45 -71.8 5.5 -69.75 10.95 -67.7 16.4 -61.9 17.75 L-55.35 18.3 Q-41.15 14.9 -39.65 1.2 -39.4 -1.35 -40.4 -3.75 -44.05 -11.95 -53.3 -12.4 L-62.15 -11.9 Q-73.25 -10.15 -81.6 -3.65 L-85.75 0.45 -88.35 2.5 Q-89.25 4.2 -87.35 3.8 L-81.25 -2.5 Q-78.1 -4.9 -73.2 -7.3 -68.25 -9.65 -63.15 -10.55 L-54.65 -11.55 Q-46.15 -11.6 -42.3 -4.35 -38.2 3.5 -44.2 10.75 -49.0 16.6 -57.0 17.15 L-59.9 17.15" fill="#000000" fill-rule="evenodd" stroke="none"/>
    <path d="M-100.1 25.6 Q-104.65 30.8 -107.5 31.85 L-110.95 33.1 -110.15 34.55 Q-109.35 36.0 -110.85 37.55 -113.45 37.7 -115.35 36.05 L-115.35 35.95 -115.3 35.65 -115.2 35.55 -115.05 35.55 Q-113.45 36.55 -111.4 36.35 L-111.2 35.25 Q-110.95 34.45 -112.9 32.4 L-111.45 32.15 Q-109.0 31.35 -104.75 28.3 -100.3 25.05 -97.7 19.7 -95.2 14.3 -94.9 12.35 -94.6 10.45 -93.65 9.9 -93.05 10.65 -94.35 15.5 -95.65 20.4 -100.1 25.6" fill="#000000" fill-rule="evenodd" stroke="none"/>
    <path d="M-64.45 29.05 L-64.0 29.0 Q-61.75 28.85 -60.6 30.6 -61.15 34.05 -65.1 35.35 L-65.35 35.1 -65.4 34.85 Q-63.35 33.45 -61.7 31.45 L-61.75 31.3 -61.75 31.0 -61.7 30.85 -61.95 30.6 Q-63.4 29.75 -64.95 30.35 L-65.05 30.3 Q-65.3 30.3 -65.35 30.15 L-65.45 30.05 -65.4 30.05 -65.65 30.2 Q-65.0 21.7 -72.15 16.9 -77.4 13.3 -83.6 11.65 -85.75 11.25 -87.1 10.25 L-87.6 9.5 -87.5 9.35 -87.4 9.15 Q-77.9 10.9 -72.9 14.5 -67.55 18.35 -65.55 22.55 -63.95 25.8 -64.45 29.05" fill="#000000" fill-rule="evenodd" stroke="none"/>
    <path d="M-98.05 -5.5 L-98.2 -5.35 Q-110.5 0.95 -118.15 14.65 -120.3 18.45 -120.6 22.0 -120.2 22.65 -121.25 23.2 L-121.4 23.3 -122.25 24.6 -122.6 25.15 -122.65 26.15 -122.75 26.3 Q-123.2 27.05 -123.7 26.55 L-123.7 25.75 -123.7 25.5 Q-122.9 23.4 -121.3 22.05 -121.0 16.1 -116.9 10.25 -108.9 -1.35 -97.95 -6.6 -97.5 -6.15 -98.05 -5.5" fill="#000000" fill-rule="evenodd" stroke="none"/>
    <path d="M-87.85 -18.45 L-87.95 -19.0 -88.45 -21.0 Q-89.15 -22.95 -90.55 -24.4 -92.55 -25.65 -94.8 -25.4 L-95.35 -25.45 -95.5 -25.35 -98.1 -24.5 -98.2 -24.5 -99.25 -23.95 -99.45 -23.75 -99.6 -23.55 -100.3 -22.5 -100.45 -22.2 -100.5 -22.1 -100.55 -22.05 -100.55 -21.95 -100.95 -19.1 -100.9 -18.9 -100.45 -17.1 -100.45 -16.75 Q-100.5 -16.2 -100.05 -15.7 L-98.2 -13.95 Q-96.55 -12.75 -94.5 -12.4 L-94.45 -12.45 -92.3 -12.55 -92.15 -12.65 -92.1 -12.65 -91.35 -12.85 -91.3 -12.85 -91.25 -12.85 -91.1 -12.9 Q-90.55 -13.05 -90.1 -13.3 -89.15 -13.65 -88.4 -14.5 L-88.15 -15.0 -91.75 -17.1 -92.35 -17.4 -93.25 -17.85 -94.25 -18.3 -94.7 -18.5 -94.95 -18.6 -96.0 -18.8 -96.05 -18.8 Q-97.85 -19.5 -99.65 -19.25 L-100.45 -19.1 -100.7 -19.25 -100.85 -19.3 -100.85 -19.35 Q-99.7 -20.35 -97.95 -19.8 L-96.95 -19.65 -96.9 -19.65 -96.05 -19.4 -96.0 -19.45 -95.7 -19.35 -95.6 -19.3 -95.45 -19.25 -94.8 -19.15 -94.75 -19.1 -94.2 -18.9 -94.1 -18.85 -92.0 -17.9 -91.65 -17.7 -89.15 -16.2 -88.0 -15.5 -87.95 -15.55 -87.6 -16.65 -87.5 -17.0 -87.8 -18.3 -87.85 -18.45 M-88.45 -23.95 L-88.5 -23.8 -88.6 -23.75 -89.6 -24.1 Q-88.0 -22.1 -87.5 -19.6 -85.95 -20.4 -84.3 -20.05 L-84.15 -20.0 -84.15 -19.95 -83.7 -19.6 -83.5 -19.45 -83.45 -19.3 -83.1 -18.85 -82.95 -18.25 -83.0 -18.15 -83.0 -18.05 -82.9 -17.85 -83.1 -17.4 -83.2 -17.15 -83.4 -16.9 -83.75 -16.5 -83.8 -16.45 -83.95 -16.35 -83.95 -16.3 Q-84.45 -16.05 -85.0 -15.95 L-85.6 -15.95 -85.75 -15.9 -86.85 -16.4 -87.15 -16.55 -87.15 -16.5 -87.2 -16.35 Q-87.3 -15.7 -87.55 -15.1 L-87.25 -14.85 -87.4 -14.6 -87.7 -14.8 Q-88.3 -13.8 -89.4 -13.15 -91.75 -11.9 -94.55 -11.85 L-95.2 -12.05 -98.45 -13.4 -98.65 -13.6 Q-100.25 -14.8 -100.85 -16.65 L-100.9 -16.9 Q-101.9 -19.25 -101.2 -21.55 L-101.1 -21.95 -101.2 -21.95 -101.4 -21.85 -101.9 -21.8 Q-103.8 -21.8 -105.2 -22.85 L-105.25 -23.0 -105.4 -23.25 -105.45 -23.3 -105.45 -23.5 -105.55 -23.55 -105.55 -24.25 -105.6 -24.3 -105.5 -24.75 -104.9 -26.1 -104.8 -26.4 -104.75 -26.45 -104.65 -26.6 -104.55 -26.7 -104.45 -26.8 -104.25 -27.3 -104.15 -27.3 -104.1 -27.3 -104.1 -27.35 -104.05 -27.4 -104.0 -27.5 -103.95 -27.45 -103.85 -27.5 -103.7 -27.65 -103.7 -27.7 -103.55 -27.75 Q-101.95 -28.35 -100.4 -27.3 L-100.4 -27.25 -100.3 -27.15 -100.3 -27.1 -99.4 -25.25 -99.2 -24.65 -99.2 -24.7 -98.95 -24.8 -98.65 -24.75 Q-97.15 -25.6 -95.45 -25.8 -91.85 -26.25 -88.6 -24.2 L-88.45 -24.1 -88.45 -23.95 M-87.15 -17.8 L-87.1 -17.2 -85.6 -16.55 -85.55 -16.55 -84.95 -16.4 -84.85 -16.45 -83.9 -16.85 -83.8 -17.0 -83.7 -17.3 -83.55 -17.55 -83.5 -17.7 -83.55 -17.75 -83.6 -18.05 -83.65 -18.15 Q-83.7 -18.75 -84.15 -19.15 L-84.15 -19.2 -84.95 -19.55 -85.35 -19.6 -85.45 -19.55 -87.0 -19.25 -87.15 -19.2 -87.35 -19.15 -87.4 -18.95 -87.4 -18.9 -87.3 -18.4 -87.15 -17.8 M-99.95 -23.95 L-99.75 -24.15 -99.65 -24.3 -99.65 -24.35 -99.7 -24.35 -99.75 -24.4 Q-99.8 -25.35 -100.25 -26.05 L-100.6 -26.75 -102.25 -27.35 -102.6 -27.35 -102.7 -27.4 -102.75 -27.35 -102.85 -27.35 -102.85 -27.3 -103.0 -27.2 -103.6 -26.75 -103.65 -26.65 -103.8 -26.55 -104.0 -26.5 -104.15 -26.3 -104.25 -26.2 -104.25 -26.15 -105.0 -24.5 -105.0 -24.45 -105.05 -24.1 -105.05 -23.95 -105.05 -23.9 -104.9 -23.5 -104.8 -23.4 -104.2 -22.9 -103.2 -22.5 -102.75 -22.45 -102.0 -22.45 -101.95 -22.5 -101.35 -22.45 -101.2 -22.55 -101.0 -22.7 -100.95 -22.75 -100.5 -23.15 -99.95 -23.95 M-92.7 -16.9 L-92.75 -16.8 -93.2 -16.9 -93.25 -17.2 -92.8 -17.3 -92.75 -17.25 -92.7 -16.9 M-93.85 -17.35 L-94.0 -17.3 -94.05 -17.25 Q-94.2 -17.1 -94.35 -17.25 -94.6 -17.5 -94.45 -17.75 L-94.3 -17.9 -94.1 -17.95 -94.0 -17.85 -93.95 -17.75 -93.8 -17.65 Q-93.75 -17.5 -93.85 -17.35" fill="#000000" fill-rule="evenodd" stroke="none"/>
    <path d="M-100.9 -18.9 L-100.95 -19.1 -100.55 -21.95 -100.55 -22.05 -100.5 -22.1 -100.45 -22.2 -100.3 -22.5 -99.6 -23.55 -99.45 -23.75 -99.25 -23.95 -98.2 -24.5 -98.1 -24.5 -95.5 -25.35 -95.35 -25.45 -94.8 -25.4 Q-92.55 -25.65 -90.55 -24.4 -89.15 -22.95 -88.45 -21.0 L-87.95 -19.0 -87.85 -18.45 -87.8 -18.3 -87.5 -17.0 -87.6 -16.65 -87.95 -15.55 -88.0 -15.5 -89.15 -16.2 -91.65 -17.7 -92.0 -17.9 -94.1 -18.85 -94.2 -18.9 -94.75 -19.1 -94.8 -19.15 -95.45 -19.25 -95.6 -19.3 -95.7 -19.35 -96.0 -19.45 -96.05 -19.4 -96.9 -19.65 -96.95 -19.65 -97.95 -19.8 Q-99.7 -20.35 -100.85 -19.35 L-100.85 -19.3 -100.7 -19.25 -100.9 -18.95 -100.9 -18.9 M-87.3 -18.4 L-87.4 -18.9 -87.4 -18.95 -87.35 -19.15 -87.15 -19.2 -87.0 -19.25 -85.45 -19.55 -85.35 -19.6 -84.95 -19.55 -84.15 -19.2 -84.15 -19.15 Q-83.7 -18.75 -83.65 -18.15 L-83.6 -18.05 -83.55 -17.75 -83.5 -17.7 -83.55 -17.55 -83.7 -17.3 -83.8 -17.0 -83.9 -16.85 -84.85 -16.45 -84.95 -16.4 -85.55 -16.55 -85.6 -16.55 -87.1 -17.2 -87.15 -17.8 -87.0 -17.7 -86.65 -17.35 Q-86.15 -16.9 -85.5 -17.05 L-85.05 -17.15 -84.75 -17.55 -84.75 -17.6 -84.7 -17.75 -84.7 -17.85 -84.75 -18.0 -84.7 -18.1 Q-85.0 -18.9 -85.8 -19.0 L-86.8 -18.7 -87.3 -18.4 M-101.0 -22.7 L-101.2 -22.55 -101.35 -22.45 -101.95 -22.5 -102.0 -22.45 -102.75 -22.45 -103.2 -22.5 -104.2 -22.9 -104.8 -23.4 -104.9 -23.5 -105.05 -23.9 -105.05 -23.95 -105.05 -24.1 -105.0 -24.45 -105.0 -24.5 -104.25 -26.15 -104.25 -26.2 -104.15 -26.3 -104.0 -26.5 -103.8 -26.55 -103.65 -26.65 -103.6 -26.75 -103.0 -27.2 -102.85 -27.3 -102.85 -27.35 -102.75 -27.35 -102.7 -27.4 -102.6 -27.35 -102.25 -27.35 -100.6 -26.75 -100.25 -26.05 Q-99.8 -25.35 -99.75 -24.4 L-99.7 -24.35 -99.65 -24.35 -99.65 -24.3 -99.75 -24.15 -99.95 -23.95 -100.0 -23.95 -100.0 -24.0 -100.0 -24.1 -100.1 -24.2 -100.3 -24.5 -100.35 -24.55 -100.35 -24.6 -100.35 -24.7 Q-100.8 -25.45 -101.65 -25.6 L-102.1 -25.5 -102.2 -25.45 -102.3 -25.4 -102.55 -25.3 -102.65 -25.3 -102.8 -25.2 -103.0 -24.75 -103.05 -24.6 -103.0 -24.5 -102.95 -24.4 -102.85 -24.05 -102.7 -23.75 -102.55 -23.6 Q-101.95 -22.85 -101.0 -22.7 M-103.15 -25.6 L-103.35 -25.4 -103.25 -25.45 -103.2 -25.5 -103.15 -25.6" fill="#95632d" fill-rule="evenodd" stroke="none"/>
    <path d="M-87.85 -18.45 L-87.8 -18.3 -87.85 -18.45 M-100.7 -19.25 L-100.45 -19.1 -99.65 -19.25 Q-97.85 -19.5 -96.05 -18.8 L-96.0 -18.8 -94.95 -18.6 -94.7 -18.5 -94.25 -18.3 -93.25 -17.85 -92.35 -17.4 -91.75 -17.1 -88.15 -15.0 -88.4 -14.5 Q-89.15 -13.65 -90.1 -13.3 -90.55 -13.05 -91.1 -12.9 L-91.25 -12.85 -91.3 -12.85 -91.35 -12.85 -92.1 -12.65 -92.15 -12.65 -92.3 -12.55 -94.45 -12.45 -94.5 -12.4 Q-96.55 -12.75 -98.2 -13.95 L-100.05 -15.7 Q-100.5 -16.2 -100.45 -16.75 L-100.45 -17.1 -100.9 -18.9 -100.9 -18.95 -100.7 -19.25 M-87.15 -17.8 L-87.3 -18.4 -86.8 -18.7 -85.8 -19.0 Q-85.0 -18.9 -84.7 -18.1 L-84.75 -18.0 -84.7 -17.85 -84.7 -17.75 -84.75 -17.6 -84.75 -17.55 -85.05 -17.15 -85.5 -17.05 Q-86.15 -16.9 -86.65 -17.35 L-87.0 -17.7 -87.15 -17.8 M-99.95 -23.95 L-100.5 -23.15 -100.95 -22.75 -101.0 -22.7 Q-101.95 -22.85 -102.55 -23.6 L-102.7 -23.75 -102.85 -24.05 -102.95 -24.4 -103.0 -24.5 -103.05 -24.6 -103.0 -24.75 -102.8 -25.2 -102.65 -25.3 -102.55 -25.3 -102.3 -25.4 -102.2 -25.45 -102.1 -25.5 -101.65 -25.6 Q-100.8 -25.45 -100.35 -24.7 L-100.35 -24.6 -100.35 -24.55 -100.3 -24.5 -100.1 -24.2 -100.0 -24.1 -100.0 -24.0 -100.0 -23.95 -99.95 -23.95 M-103.15 -25.6 L-103.2 -25.5 -103.25 -25.45 -103.35 -25.4 -103.15 -25.6 M-93.85 -17.35 Q-93.75 -17.5 -93.8 -17.65 L-93.95 -17.75 -94.0 -17.85 -94.1 -17.95 -94.3 -17.9 -94.45 -17.75 Q-94.6 -17.5 -94.35 -17.25 -94.2 -17.1 -94.05 -17.25 L-94.0 -17.3 -93.85 -17.35 M-92.7 -16.9 L-92.75 -17.25 -92.8 -17.3 -93.25 -17.2 -93.2 -16.9 -92.75 -16.8 -92.7 -16.9" fill="#d79e4a" fill-rule="evenodd" stroke="none"/>
  </g>
</svg>
