<?xml version="1.0" encoding="UTF-8" standalone="no"?>
<svg xmlns:ffdec="https://www.free-decompiler.com/flash" xmlns:xlink="http://www.w3.org/1999/xlink" ffdec:objectType="shape" height="52.1px" width="55.05px" xmlns="http://www.w3.org/2000/svg">
  <g transform="matrix(1.0, 0.0, 0.0, 1.0, 97.6, 69.65)">
    <path d="M-63.95 -32.0 Q-65.25 -29.9 -68.15 -30.6 L-68.7 -30.8" fill="none" stroke="#000000" stroke-linecap="round" stroke-linejoin="round" stroke-width="1.0"/>
    <path d="M-50.6 -47.95 Q-47.45 -45.4 -45.55 -41.2 -38.9 -26.5 -49.85 -19.5 -55.65 -15.9 -60.95 -21.15" fill="none" stroke="#000000" stroke-linecap="round" stroke-linejoin="round" stroke-width="1.0"/>
    <path d="M-51.4 -47.65 L-52.0 -47.9 -52.35 -47.95 Q-53.55 -45.55 -50.5 -44.9" fill="none" stroke="#000000" stroke-linecap="round" stroke-linejoin="round" stroke-width="1.0"/>
    <path d="M-87.35 -66.35 Q-91.1 -63.75 -94.1 -59.4 -99.2 -52.1 -95.65 -41.5 -92.35 -31.65 -85.8 -26.65 -79.3 -21.85 -73.15 -23.95 M-87.35 -66.35 Q-85.3 -67.85 -83.05 -68.8" fill="none" stroke="#000000" stroke-linecap="round" stroke-linejoin="round" stroke-width="1.0"/>
    <path d="M-82.8 -69.15 Q-80.5 -64.3 -86.85 -66.1 L-87.35 -66.35" fill="none" stroke="#000000" stroke-linecap="round" stroke-linejoin="round" stroke-width="1.0"/>
  </g>
</svg>
