<?xml version="1.0" encoding="UTF-8" standalone="no"?>
<svg xmlns:ffdec="https://www.free-decompiler.com/flash" xmlns:xlink="http://www.w3.org/1999/xlink" ffdec:objectType="shape" height="72.15px" width="65.75px" xmlns="http://www.w3.org/2000/svg">
  <g transform="matrix(1.0, 0.0, 0.0, 1.0, 112.05, 31.7)">
    <path d="M-82.0 31.65 Q-81.0 30.15 -80.55 28.4 -79.2 22.7 -83.3 18.5 -87.3 14.45 -93.15 15.15 -96.8 15.6 -99.65 18.45 -101.05 21.05 -101.2 23.85 -101.3 25.2 -100.8 26.45 -97.6 32.85 -92.1 28.55 -88.55 25.85 -92.2 23.95 L-92.15 23.5 -91.7 23.1 Q-88.3 24.85 -90.0 27.9 -91.1 29.95 -93.4 30.55 -99.1 32.2 -101.75 27.05 -104.05 22.4 -99.9 17.6 -97.25 14.6 -93.7 14.25 -91.25 13.7 -88.85 14.15 -83.05 15.2 -80.3 20.2 -77.5 25.3 -80.25 30.55 -81.75 33.5 -84.1 35.85 -95.9 44.5 -107.25 36.85 -109.4 35.4 -110.45 33.1 -114.35 25.15 -108.6 17.8 -105.9 14.3 -102.5 11.4 -93.95 4.1 -83.65 1.9 L-77.8 1.35 -74.6 0.7 Q-72.75 1.1 -74.3 2.35 L-83.0 2.9 Q-86.85 3.75 -91.85 6.0 -96.9 8.2 -100.9 11.45 -104.9 14.75 -107.15 17.35 -112.75 23.7 -109.75 31.25 -106.45 39.45 -97.05 39.55 -89.55 39.6 -83.9 33.85 L-82.0 31.65" fill="#000000" fill-rule="evenodd" stroke="none"/>
    <path d="M-69.25 5.25 Q-68.55 6.75 -68.0 11.7 -67.4 16.7 -69.15 20.95 -70.85 25.0 -72.2 26.75 L-73.15 27.55 Q-70.8 28.1 -70.6 28.8 L-70.25 29.7 Q-71.65 30.75 -73.3 30.75 L-73.4 30.85 -73.4 30.9 -73.35 31.15 -73.25 31.25 Q-71.15 31.6 -69.35 30.25 -68.95 28.55 -70.15 27.85 L-71.4 27.15 -69.5 24.75 Q-67.95 22.7 -67.05 17.0 -66.15 11.25 -67.4 7.2 -68.7 3.15 -69.5 2.9 -69.9 3.75 -69.25 5.25 M-65.2 2.25 L-65.3 3.0 Q-64.9 4.4 -63.65 5.75 -60.3 10.05 -58.65 15.15 -56.4 22.05 -61.3 27.35 L-61.0 27.35 -61.0 27.4 -61.05 27.45 -60.95 27.7 -60.9 27.8 Q-59.5 28.25 -58.95 29.5 L-58.9 29.8 -59.0 29.9 -59.2 30.15 -59.25 30.2 -63.55 30.55 -63.65 30.75 -63.55 31.05 Q-60.25 32.2 -58.0 30.2 -57.9 28.5 -59.55 27.4 L-59.85 27.2 Q-57.8 25.3 -57.15 22.35 -56.35 18.45 -57.9 13.2 -59.4 8.2 -64.9 2.15 L-65.05 2.25 -65.2 2.25" fill="#000000" fill-rule="evenodd" stroke="none"/>
    <path d="M-61.4 27.0 Q-63.65 26.1 -65.7 24.7 -69.45 22.1 -72.45 17.9 -77.55 10.8 -74.0 0.5 -70.7 -9.05 -64.15 -13.85 L-63.65 -14.2" fill="none" stroke="#000000" stroke-linecap="round" stroke-linejoin="round" stroke-width="1.0"/>
    <path d="M-65.7 24.7 L-65.2 24.35 Q-58.85 22.65 -61.15 27.35" fill="none" stroke="#000000" stroke-linecap="round" stroke-linejoin="round" stroke-width="1.0"/>
    <path d="M-51.3 -24.0 L-51.45 -24.45 -52.15 -26.35 -52.15 -26.3 -52.1 -26.15 -52.1 -25.75 -52.25 -25.0 -52.8 -24.2 -52.85 -24.05 -53.05 -23.95 -53.9 -23.5 -54.1 -23.4 -56.25 -23.75 -56.3 -23.75 Q-56.9 -24.1 -57.3 -24.6 L-57.5 -24.9 -57.75 -25.25 -57.75 -25.65 -58.3 -25.25 -58.4 -25.2 -58.75 -25.2 -59.75 -25.3 -60.45 -25.5 -60.65 -25.65 -61.1 -26.7 -61.1 -26.8 -61.05 -27.15 Q-60.85 -27.8 -60.05 -28.05 L-59.85 -28.1 -59.8 -28.15 -59.8 -28.1 -59.7 -28.1 -59.7 -28.15 -59.5 -28.3 -58.3 -27.95 -57.65 -27.35 -57.55 -27.2 -57.5 -27.2 -57.45 -27.0 -57.3 -27.25 -57.05 -27.5 Q-55.6 -28.9 -53.6 -28.1 L-52.7 -27.35 Q-53.5 -28.6 -54.65 -29.55 -56.8 -30.55 -59.0 -30.0 L-59.55 -30.0 -59.7 -29.9 Q-61.0 -29.45 -62.2 -28.8 L-62.25 -28.7 -63.2 -28.05 -63.4 -27.85 -63.5 -27.65 -64.15 -26.45 -64.25 -26.15 -64.3 -26.05 -64.3 -26.0 -64.3 -25.95 -64.35 -23.05 -64.3 -22.85 -63.6 -21.1 -63.55 -20.8 Q-63.55 -20.2 -63.0 -19.8 L-61.0 -18.2 Q-59.15 -17.3 -57.15 -17.2 L-57.1 -17.2 -55.0 -17.55 -54.85 -17.7 -54.8 -17.7 -54.05 -18.0 -54.0 -18.0 -53.95 -18.05 -53.85 -18.1 Q-53.3 -18.3 -52.9 -18.65 -51.95 -19.1 -51.35 -20.0 L-51.2 -20.55 -55.0 -22.15 -55.6 -22.4 -56.55 -22.7 -57.6 -23.05 -58.1 -23.2 -58.35 -23.3 -59.35 -23.35 -59.4 -23.35 Q-61.3 -23.8 -63.1 -23.35 L-63.85 -23.05 -64.1 -23.15 -64.3 -23.2 -64.3 -23.3 Q-63.2 -24.4 -61.45 -24.1 L-60.45 -24.0 -60.35 -24.05 -59.5 -24.0 -59.5 -23.95 -59.45 -24.0 -59.15 -23.9 -59.05 -23.9 -58.9 -23.85 -58.25 -23.8 -58.2 -23.8 -57.65 -23.7 -57.6 -23.65 -57.5 -23.65 -57.5 -23.6 -56.2 -23.2 -56.15 -23.2 -55.35 -23.0 -55.0 -22.75 -52.25 -21.6 -51.1 -21.0 -51.05 -21.15 -50.85 -22.25 -50.75 -22.6 -51.25 -23.85 -51.3 -24.0 M-58.55 -27.55 L-59.55 -27.75 Q-60.5 -27.65 -60.65 -26.7 L-60.6 -26.3 -60.0 -25.7 Q-58.85 -25.25 -58.0 -26.05 L-57.95 -26.05 -57.9 -26.1 -57.9 -26.15 -57.85 -26.25 -57.75 -26.5 Q-57.7 -26.85 -58.0 -27.1 L-58.5 -27.5 -58.55 -27.55 M-57.1 -25.1 L-56.3 -24.35 -55.15 -23.9 -54.75 -23.9 -54.35 -23.95 Q-53.9 -23.95 -53.6 -24.25 -53.05 -24.4 -52.85 -24.95 -52.55 -25.7 -52.6 -26.4 L-52.65 -26.6 Q-53.2 -27.35 -54.05 -27.65 L-56.25 -27.6 Q-57.15 -27.1 -57.3 -26.05 -57.4 -25.55 -57.1 -25.1 M-52.55 -29.25 L-52.7 -29.2 -53.65 -29.3 Q-51.9 -27.6 -51.1 -25.2 -49.6 -26.2 -47.95 -26.0 L-47.8 -25.95 -47.8 -25.9 -47.25 -25.65 -47.1 -25.55 -47.05 -25.35 -46.65 -24.9 -46.4 -24.45 -46.4 -24.3 -46.4 -24.15 -46.3 -23.95 -46.45 -23.55 -46.55 -23.25 -46.65 -23.0 -47.0 -22.55 -47.0 -22.5 -47.15 -22.4 -47.2 -22.35 Q-47.65 -22.0 -48.15 -21.85 L-48.75 -21.75 -48.85 -21.75 -50.05 -22.05 -50.35 -22.2 -50.35 -22.15 -50.35 -22.0 -50.55 -20.7 -50.3 -20.5 -50.4 -20.25 -50.7 -20.35 Q-51.15 -19.3 -52.15 -18.55 -54.4 -17.05 -57.15 -16.65 L-57.8 -16.8 -61.2 -17.7 -61.4 -17.85 Q-63.1 -18.9 -63.95 -20.55 L-64.05 -20.85 Q-65.35 -23.05 -64.9 -25.45 L-64.8 -25.85 -64.9 -25.8 -65.1 -25.7 -65.65 -25.6 Q-67.5 -25.35 -69.0 -26.25 L-69.1 -26.4 -69.25 -26.6 -69.35 -26.65 -69.3 -26.8 -69.45 -26.9 -69.55 -27.55 -69.55 -27.65 -69.5 -28.05 -69.05 -29.5 -69.0 -29.8 -69.0 -29.85 -68.95 -30.0 -68.85 -30.1 -68.75 -30.25 -68.6 -30.7 -68.55 -30.75 -68.5 -30.75 -68.45 -30.8 -68.45 -30.85 -68.4 -30.95 -68.35 -30.95 -68.3 -31.0 -68.25 -31.05 -68.15 -31.2 -68.15 -31.25 -67.95 -31.3 -64.8 -31.25 -64.8 -31.2 -64.65 -31.1 -64.6 -31.05 -63.55 -29.35 -63.3 -28.75 -63.25 -28.8 -63.0 -28.9 -62.75 -28.95 Q-61.35 -29.95 -59.65 -30.35 -56.2 -31.25 -52.7 -29.6 L-52.7 -29.55 -52.6 -29.5 -52.55 -29.35 -52.55 -29.25 M-50.55 -23.4 L-50.35 -22.85 -48.85 -22.4 -48.8 -22.4 -48.2 -22.35 -48.1 -22.4 -47.2 -22.95 -47.1 -23.05 -47.05 -23.3 -46.95 -23.6 -46.9 -23.75 -46.95 -23.85 -47.05 -24.1 -47.1 -24.2 -47.7 -25.15 -48.55 -25.45 -48.95 -25.45 -49.05 -25.4 -50.55 -24.9 -50.7 -24.8 -50.8 -24.75 -50.9 -24.55 -50.85 -24.45 -50.75 -24.05 -50.55 -23.4 M-47.25 -25.25 L-47.25 -25.2 -47.25 -25.25 M-63.95 -27.95 L-63.75 -28.15 -63.75 -28.35 -63.7 -28.4 -63.75 -28.4 -63.8 -28.45 Q-63.95 -29.35 -64.55 -30.0 L-64.95 -30.65 -66.6 -31.05 -67.0 -31.05 -67.1 -31.05 -67.1 -31.0 -67.2 -30.95 -67.25 -30.95 -67.4 -30.85 -67.9 -30.35 -67.95 -30.25 -68.05 -30.1 -68.25 -30.0 -68.35 -29.8 -68.45 -29.7 -68.5 -29.6 -69.05 -27.95 -69.05 -27.85 -69.05 -27.45 -69.0 -27.35 -68.95 -27.25 -68.8 -26.95 -68.65 -26.85 -68.0 -26.4 -67.0 -26.1 -66.55 -26.15 -65.75 -26.25 -65.75 -26.3 -65.15 -26.35 -65.0 -26.45 -64.85 -26.6 -64.8 -26.65 -64.4 -27.15 -63.95 -27.95 M-56.4 -21.85 L-56.45 -22.1 Q-56.35 -22.35 -56.05 -22.25 L-56.05 -22.2 -55.9 -21.9 -55.95 -21.75 Q-56.25 -21.55 -56.4 -21.85 M-57.2 -22.6 L-57.1 -22.5 -57.1 -22.15 -57.2 -22.1 -57.25 -22.0 -57.6 -22.0 Q-57.85 -22.2 -57.75 -22.5 L-57.6 -22.7 -57.45 -22.7 -57.3 -22.65 -57.2 -22.6" fill="#000000" fill-rule="evenodd" stroke="none"/>
    <path d="M-64.3 -22.85 L-64.35 -23.05 -64.3 -25.95 -64.3 -26.0 -64.3 -26.05 -64.25 -26.15 -64.15 -26.45 -63.5 -27.65 -63.4 -27.85 -63.2 -28.05 -62.25 -28.7 -62.2 -28.8 Q-61.0 -29.45 -59.7 -29.9 L-59.55 -30.0 -59.0 -30.0 Q-56.8 -30.55 -54.65 -29.55 -53.5 -28.6 -52.7 -27.35 L-53.6 -28.1 Q-55.6 -28.9 -57.05 -27.5 L-57.3 -27.25 -57.45 -27.0 -57.5 -27.2 -57.55 -27.2 -57.65 -27.35 -58.3 -27.95 -59.5 -28.3 -59.7 -28.15 -59.7 -28.1 -59.8 -28.1 -59.8 -28.15 -59.85 -28.1 -60.05 -28.05 Q-60.85 -27.8 -61.05 -27.15 L-61.1 -26.8 -61.1 -26.7 -60.65 -25.65 -60.45 -25.5 -59.75 -25.3 -58.75 -25.2 -58.4 -25.2 -58.3 -25.25 -57.75 -25.65 -57.75 -25.25 -57.5 -24.9 -57.3 -24.6 Q-56.9 -24.1 -56.3 -23.75 L-56.25 -23.75 -54.1 -23.4 -53.9 -23.5 -53.05 -23.95 -52.85 -24.05 -52.8 -24.2 -52.25 -25.0 -52.1 -25.75 -52.1 -26.15 -52.15 -26.3 -52.15 -26.35 -51.45 -24.45 -51.3 -24.0 -51.25 -23.85 -50.75 -22.6 -50.85 -22.25 -51.05 -21.15 -51.1 -21.0 -52.25 -21.6 -55.0 -22.75 -55.35 -23.0 -56.15 -23.2 -56.2 -23.2 -57.5 -23.6 -57.5 -23.65 -57.6 -23.65 -57.65 -23.7 -58.2 -23.8 -58.25 -23.8 -58.9 -23.85 -59.05 -23.9 -59.15 -23.9 -59.45 -24.0 -59.5 -23.95 -59.5 -24.0 -60.35 -24.05 -60.45 -24.0 -61.45 -24.1 Q-63.2 -24.4 -64.3 -23.3 L-64.3 -23.2 -64.1 -23.15 -64.3 -22.9 -64.3 -22.85 M-50.75 -24.05 L-50.85 -24.45 -50.9 -24.55 -50.8 -24.75 -50.7 -24.8 -50.55 -24.9 -49.05 -25.4 -48.95 -25.45 -48.55 -25.45 -47.7 -25.15 -47.1 -24.2 -47.05 -24.1 -46.95 -23.85 -46.9 -23.75 -46.95 -23.6 -47.05 -23.3 -47.1 -23.05 -47.2 -22.95 -48.1 -22.4 -48.2 -22.35 -48.8 -22.4 -48.85 -22.4 -50.35 -22.85 -50.55 -23.4 -50.4 -23.3 -49.95 -23.05 -48.8 -22.9 -48.35 -23.1 -48.1 -23.5 -48.1 -23.65 -48.05 -23.7 -48.1 -23.75 -48.15 -23.95 -48.15 -24.05 Q-48.55 -24.7 -49.35 -24.8 L-50.3 -24.35 -50.75 -24.05 M-64.85 -26.6 L-65.0 -26.45 -65.15 -26.35 -65.75 -26.3 -65.75 -26.25 -66.55 -26.15 -67.0 -26.1 -68.0 -26.4 -68.65 -26.85 -68.8 -26.95 -68.95 -27.25 -69.0 -27.35 -69.05 -27.45 -69.05 -27.85 -69.05 -27.95 -68.5 -29.6 -68.45 -29.7 -68.35 -29.8 -68.25 -30.0 -68.05 -30.1 -67.95 -30.25 -67.9 -30.35 -67.4 -30.85 -67.25 -30.95 -67.2 -30.95 -67.1 -31.0 -67.1 -31.05 -67.0 -31.05 -66.6 -31.05 -64.95 -30.65 -64.55 -30.0 Q-63.95 -29.35 -63.8 -28.45 L-63.75 -28.4 -63.7 -28.4 -63.75 -28.35 -63.75 -28.15 -63.95 -27.95 -64.0 -27.95 -64.0 -28.0 -64.0 -28.1 -64.05 -28.1 -64.1 -28.2 -64.35 -28.45 -64.35 -28.5 -64.35 -28.6 -64.4 -28.65 Q-64.95 -29.35 -65.8 -29.35 L-66.25 -29.2 -66.35 -29.2 -66.45 -29.15 -66.7 -29.0 -66.75 -28.95 -66.9 -28.85 -67.1 -28.4 -67.1 -28.25 -67.05 -28.2 -66.95 -28.0 -66.85 -27.75 -66.65 -27.45 -66.5 -27.3 Q-65.8 -26.6 -64.85 -26.6 M-67.35 -29.15 L-67.45 -29.0 -67.4 -29.05 -67.35 -29.15" fill="#95632d" fill-rule="evenodd" stroke="none"/>
    <path d="M-51.3 -24.0 L-51.25 -23.85 -51.3 -24.0 M-64.1 -23.15 L-63.85 -23.05 -63.1 -23.35 Q-61.3 -23.8 -59.4 -23.35 L-59.35 -23.35 -58.35 -23.3 -58.1 -23.2 -57.6 -23.05 -56.55 -22.7 -55.6 -22.4 -55.0 -22.15 -51.2 -20.55 -51.35 -20.0 Q-51.95 -19.1 -52.9 -18.65 -53.3 -18.3 -53.85 -18.1 L-53.95 -18.05 -54.0 -18.0 -54.05 -18.0 -54.8 -17.7 -54.85 -17.7 -55.0 -17.55 -57.1 -17.2 -57.15 -17.2 Q-59.15 -17.3 -61.0 -18.2 L-63.0 -19.8 Q-63.55 -20.2 -63.55 -20.8 L-63.6 -21.1 -64.3 -22.85 -64.3 -22.9 -64.1 -23.15 M-50.55 -23.4 L-50.75 -24.05 -50.3 -24.35 -49.35 -24.8 Q-48.55 -24.7 -48.15 -24.05 L-48.15 -23.95 -48.1 -23.75 -48.05 -23.7 -48.1 -23.65 -48.1 -23.5 -48.35 -23.1 -48.8 -22.9 -49.95 -23.05 -50.4 -23.3 -50.55 -23.4 M-63.95 -27.95 L-64.4 -27.15 -64.8 -26.65 -64.85 -26.6 Q-65.8 -26.6 -66.5 -27.3 L-66.65 -27.45 -66.85 -27.75 -66.95 -28.0 -67.05 -28.2 -67.1 -28.25 -67.1 -28.4 -66.9 -28.85 -66.75 -28.95 -66.7 -29.0 -66.45 -29.15 -66.35 -29.2 -66.25 -29.2 -65.8 -29.35 Q-64.95 -29.35 -64.4 -28.65 L-64.35 -28.6 -64.35 -28.5 -64.35 -28.45 -64.1 -28.2 -64.05 -28.1 -64.0 -28.1 -64.0 -28.0 -64.0 -27.95 -63.95 -27.95 M-67.35 -29.15 L-67.4 -29.05 -67.45 -29.0 -67.35 -29.15 M-57.2 -22.6 L-57.3 -22.65 -57.45 -22.7 -57.6 -22.7 -57.75 -22.5 Q-57.85 -22.2 -57.6 -22.0 L-57.25 -22.0 -57.2 -22.1 -57.1 -22.15 -57.1 -22.5 -57.2 -22.6 M-56.4 -21.85 Q-56.25 -21.55 -55.95 -21.75 L-55.9 -21.9 -56.05 -22.2 -56.05 -22.25 Q-56.35 -22.35 -56.45 -22.1 L-56.4 -21.85" fill="#d79e4a" fill-rule="evenodd" stroke="none"/>
    <path d="M-57.1 -25.1 Q-57.4 -25.55 -57.3 -26.05 -57.15 -27.1 -56.25 -27.6 L-54.05 -27.65 Q-53.2 -27.35 -52.65 -26.6 L-52.6 -26.4 Q-52.55 -25.7 -52.85 -24.95 -53.05 -24.4 -53.6 -24.25 -53.9 -23.95 -54.35 -23.95 L-54.75 -23.9 -55.15 -23.9 -56.3 -24.35 -57.1 -25.1 M-58.55 -27.55 L-58.5 -27.5 -58.0 -27.1 Q-57.7 -26.85 -57.75 -26.5 L-57.85 -26.25 -57.9 -26.15 -57.9 -26.1 -57.95 -26.05 -58.0 -26.05 Q-58.85 -25.25 -60.0 -25.7 L-60.6 -26.3 -60.65 -26.7 Q-60.5 -27.65 -59.55 -27.75 L-58.55 -27.55" fill="#ffffff" fill-rule="evenodd" stroke="none"/>
  </g>
</svg>
