<?xml version="1.0" encoding="UTF-8" standalone="no"?>
<svg xmlns:ffdec="https://www.free-decompiler.com/flash" xmlns:xlink="http://www.w3.org/1999/xlink" ffdec:objectType="shape" height="26.1px" width="26.15px" xmlns="http://www.w3.org/2000/svg">
  <g transform="matrix(1.0, 0.0, 0.0, 1.0, -1.8, -1.9)">
    <path d="M24.85 6.5 Q21.25 3.4 16.4 3.4 11.0 3.4 7.15 7.2 3.35 11.05 3.35 16.5 3.35 21.35 6.4 24.9 L5.6 24.15 Q1.8 20.35 1.8 14.95 1.8 9.5 5.6 5.7 9.45 1.85 14.85 1.9 20.25 1.85 24.1 5.7 L24.85 6.5" fill="#ffffff" fill-opacity="0.5019608" fill-rule="evenodd" stroke="none"/>
    <path d="M26.4 13.4 Q26.35 8.55 23.3 4.95 L24.15 5.7 Q27.95 9.5 27.95 14.95 27.95 20.35 24.15 24.2 20.25 28.0 14.85 28.0 9.45 28.0 5.65 24.2 L4.9 23.4 Q8.45 26.45 13.35 26.45 18.75 26.45 22.6 22.65 26.4 18.8 26.4 13.4" fill="#003366" fill-opacity="0.2" fill-rule="evenodd" stroke="none"/>
  </g>
</svg>
