<?xml version="1.0" encoding="UTF-8" standalone="no"?>
<svg xmlns:ffdec="https://www.free-decompiler.com/flash" xmlns:xlink="http://www.w3.org/1999/xlink" ffdec:objectType="shape" height="57.2px" width="58.45px" xmlns="http://www.w3.org/2000/svg">
  <g transform="matrix(1.0, 0.0, 0.0, 1.0, -1.6, -1.0)">
    <path d="M37.2 1.05 Q42.95 1.25 47.9 3.15 54.5 6.0 56.95 8.25 L59.6 10.5 60.05 18.45 52.25 19.15 50.25 18.85 Q47.1 15.85 43.25 14.45 40.4 13.4 37.2 13.2 L37.2 1.05" fill="#6699ff" fill-rule="evenodd" stroke="none"/>
    <path d="M37.2 1.05 L37.2 13.2 35.6 13.15 34.9 13.15 Q30.6 13.3 26.95 14.85 23.4 16.4 20.45 19.25 L11.85 10.65 Q16.6 6.0 22.3 3.6 28.1 1.1 34.9 1.0 L35.6 1.0 37.2 1.05" fill="url(#gradient0)" fill-rule="evenodd" stroke="none"/>
    <path d="M20.45 19.25 L20.3 19.45 20.15 19.55 Q17.15 22.55 15.55 26.2 13.95 29.8 13.8 34.05 L13.75 35.0 13.8 36.0 1.6 36.0 1.6 35.0 1.6 34.05 Q1.75 27.3 4.25 21.55 6.75 15.75 11.55 10.95 L11.7 10.85 11.85 10.65 20.45 19.25" fill="url(#gradient1)" fill-rule="evenodd" stroke="none"/>
    <path d="M13.8 36.0 Q13.9 38.9 14.7 41.55 L14.7 41.5 Q16.65 46.65 19.35 49.6 L11.7 50.25 10.75 58.15 10.7 58.2 Q6.2 53.5 3.95 47.8 L3.35 46.35 3.4 46.35 Q1.75 41.5 1.6 36.0 L13.8 36.0" fill="url(#gradient2)" fill-rule="evenodd" stroke="none"/>
  </g>
  <defs>
    <linearGradient gradientTransform="matrix(0.0142, -0.0056, 0.0041, 0.0103, 24.4, 10.15)" gradientUnits="userSpaceOnUse" id="gradient0" spreadMethod="pad" x1="-819.2" x2="819.2">
      <stop offset="0.0" stop-color="#98ccfe"/>
      <stop offset="1.0" stop-color="#6699ff"/>
    </linearGradient>
    <linearGradient gradientTransform="matrix(0.0062, -0.0091, 0.0128, 0.0087, 9.85, 24.3)" gradientUnits="userSpaceOnUse" id="gradient1" spreadMethod="pad" x1="-819.2" x2="819.2">
      <stop offset="0.0" stop-color="#9fcefd"/>
      <stop offset="1.0" stop-color="#8ec2fe"/>
    </linearGradient>
    <linearGradient gradientTransform="matrix(5.0E-4, -0.0094, 0.0135, 7.0E-4, 10.35, 48.2)" gradientUnits="userSpaceOnUse" id="gradient2" spreadMethod="pad" x1="-819.2" x2="819.2">
      <stop offset="0.0" stop-color="#dfecff"/>
      <stop offset="1.0" stop-color="#9fcefd"/>
    </linearGradient>
  </defs>
</svg>
