<?xml version="1.0" encoding="UTF-8" standalone="no"?>
<svg xmlns:ffdec="https://www.free-decompiler.com/flash" xmlns:xlink="http://www.w3.org/1999/xlink" ffdec:objectType="shape" height="51.85px" width="56.75px" xmlns="http://www.w3.org/2000/svg">
  <g transform="matrix(1.0, 0.0, 0.0, 1.0, -3.15, -1.95)">
    <path d="M51.05 4.45 L51.15 4.45 51.45 4.6 51.85 4.8 52.0 6.55 53.35 5.6 54.95 6.6 55.15 6.75 53.05 8.15 56.65 9.95 58.3 9.35 58.8 9.8 59.55 10.85 58.95 11.05 59.8 11.5 59.7 11.8 59.7 13.15 59.9 13.5 59.85 13.7 58.05 12.8 58.75 14.75 57.0 15.3 55.8 11.65 52.2 9.9 52.45 13.9 55.35 16.4 54.15 17.8 52.65 16.45 52.8 18.85 50.85 18.95 50.7 16.6 49.35 18.1 48.0 16.9 50.5 14.0 50.25 10.05 46.95 12.25 46.25 15.8 45.75 15.45 45.65 15.5 44.55 14.8 44.8 13.65 43.65 14.4 42.85 14.2 42.6 14.0 42.25 14.0 42.1 13.95 41.75 13.4 43.7 12.05 41.75 11.65 42.1 9.9 45.85 10.65 49.15 8.4 45.6 6.65 41.95 7.9 41.35 6.15 43.3 5.5 41.15 4.45 42.0 2.75 44.15 3.75 43.55 1.95 44.8 2.3 45.65 2.6 46.45 4.9 50.05 6.65 49.85 3.95 51.0 4.4 51.05 4.45 M35.1 8.5 L35.9 9.9 34.15 10.95 35.8 11.4 35.4 12.9 32.25 12.05 29.25 13.75 29.55 13.9 29.15 14.05 Q27.8 14.35 26.0 15.3 24.3 16.1 22.5 17.35 L21.4 18.3 20.1 19.05 19.25 17.6 21.0 16.6 19.35 16.15 19.75 14.65 22.95 15.5 25.9 13.75 22.95 12.05 19.75 12.9 19.35 11.4 21.0 10.95 19.25 9.9 20.1 8.5 21.85 9.5 21.4 7.8 22.9 7.4 23.8 10.6 26.75 12.3 26.75 8.9 24.4 6.55 25.5 5.45 26.75 6.65 26.75 4.6 28.45 4.6 28.45 6.65 29.65 5.45 30.75 6.55 28.45 8.9 28.45 12.3 31.4 10.6 32.25 7.4 33.75 7.8 33.3 9.5 35.1 8.5 M7.95 14.95 L8.55 14.15 8.55 14.2 8.6 14.05 9.55 12.9 10.35 13.25 9.7 14.65 10.95 14.2 11.4 15.3 9.05 16.25 8.05 18.6 10.65 18.3 12.15 16.3 13.1 17.05 12.3 18.1 13.85 17.9 14.0 19.15 12.45 19.35 13.5 20.15 12.8 21.1 10.8 19.55 8.2 19.9 9.8 21.95 12.25 22.3 12.1 23.45 10.8 23.3 11.75 24.5 10.75 25.3 9.8 24.05 9.6 25.35 8.45 25.2 8.8 22.7 7.2 20.65 6.2 23.05 7.15 25.35 6.05 25.8 5.55 24.6 4.95 26.05 3.75 25.55 4.4 24.1 3.15 24.6 3.15 24.5 3.6 23.15 5.05 22.55 6.05 20.15 4.9 20.3 5.7 18.9 5.9 18.9 5.8 18.75 6.05 18.35 6.5 17.65 6.9 18.15 7.9 15.75 7.7 15.3 7.75 15.15 7.95 14.95 M12.8 30.25 L12.95 31.6 13.65 30.75 13.9 30.95 13.9 31.6 13.7 32.0 13.75 32.2 13.05 33.05 13.3 35.25 13.8 34.9 13.8 36.9 13.8 37.2 13.85 37.3 13.5 37.15 13.8 39.4 14.45 39.9 14.45 40.25 14.45 40.4 14.6 40.6 14.65 40.95 14.8 41.5 13.9 40.8 14.05 42.15 13.0 42.3 12.85 40.95 12.15 41.85 11.35 41.2 12.7 39.5 12.45 37.25 10.65 38.6 10.3 40.75 9.3 40.6 9.45 39.45 8.4 40.25 7.75 39.4 8.8 38.6 7.7 38.4 7.85 37.4 10.0 37.7 11.8 36.4 9.75 35.5 7.75 36.25 7.35 35.3 8.4 34.9 7.2 34.35 7.6 33.4 8.85 33.9 8.45 32.85 9.4 32.45 10.2 34.5 12.25 35.4 12.0 33.15 10.3 31.8 10.95 31.0 11.85 31.75 11.65 30.4 12.8 30.25 M4.45 45.1 L5.25 45.55 4.95 44.45 5.85 44.25 6.1 45.3 6.55 44.5 7.3 44.9 6.4 46.45 6.85 48.15 8.15 46.9 8.1 45.15 8.95 45.15 8.95 46.05 9.75 45.3 10.35 45.9 9.6 46.7 10.5 46.7 10.5 47.5 8.75 47.5 7.5 48.8 9.25 49.25 10.75 48.4 11.15 49.1 10.35 49.55 11.4 49.85 11.15 50.7 10.1 50.4 10.6 51.2 9.85 51.6 9.0 50.1 7.25 49.65 7.75 51.4 9.25 52.25 8.85 52.95 8.05 52.5 8.3 53.55 7.5 53.8 7.2 52.75 6.75 53.55 6.35 52.85 6.25 52.65 6.85 51.6 6.4 49.85 5.4 50.85 4.85 50.15 5.8 49.25 4.45 48.9 4.45 48.75 4.1 48.3 4.05 48.2 4.05 48.1 4.0 47.6 3.8 47.3 3.7 46.9 4.3 47.9 6.0 48.4 5.55 46.65 4.05 45.8 4.45 45.1" fill="#ffffff" fill-opacity="0.5019608" fill-rule="evenodd" stroke="none"/>
  </g>
</svg>
