<?xml version="1.0" encoding="UTF-8" standalone="no"?>
<svg xmlns:ffdec="https://www.free-decompiler.com/flash" xmlns:xlink="http://www.w3.org/1999/xlink" ffdec:objectType="shape" height="56.7px" width="56.55px" xmlns="http://www.w3.org/2000/svg">
  <g transform="matrix(1.0, 0.0, 0.0, 1.0, -3.25, -1.65)">
    <path d="M14.25 45.8 L13.45 50.15 11.65 50.35 10.65 58.35 9.55 57.15 9.55 57.1 9.0 55.75 8.85 55.6 8.45 55.65 Q7.0 54.4 6.5 53.0 L7.3 52.25 5.0 47.15 9.95 49.7 12.65 47.2 14.25 45.8" fill="url(#gradient0)" fill-rule="evenodd" stroke="none"/>
    <path d="M59.6 10.5 L59.8 13.35 59.7 13.35 53.3 13.4 51.3 19.1 50.4 18.9 48.4 17.25 47.05 13.4 40.8 13.4 37.2 13.35 44.95 7.55 42.95 1.65 Q49.1 2.75 55.25 7.05 L55.2 7.15 55.3 7.5 59.6 10.5" fill="url(#gradient1)" fill-rule="evenodd" stroke="none"/>
    <path d="M36.95 3.95 L31.6 10.35 31.5 10.75 32.95 13.25 28.6 14.25 Q28.45 14.8 28.15 14.65 L27.85 14.7 26.4 15.05 22.4 17.55 22.85 12.45 15.35 8.95 23.4 6.95 23.8 2.9 26.55 2.05 28.7 5.7 33.85 4.45 36.95 3.95" fill="url(#gradient2)" fill-rule="evenodd" stroke="none"/>
    <path d="M14.65 9.3 L12.9 15.6 12.95 15.9 18.3 19.75 15.15 19.85 11.85 19.8 11.6 19.9 9.7 26.4 8.75 24.05 7.35 19.9 5.2 19.85 Q6.7 16.35 9.8 12.9 L12.6 10.7 14.65 9.3" fill="url(#gradient3)" fill-rule="evenodd" stroke="none"/>
    <path d="M14.25 30.95 Q13.6 35.25 14.3 39.8 L11.65 44.9 11.1 41.55 Q10.7 39.4 10.65 38.0 L10.5 37.8 3.25 36.75 Q4.4 36.0 5.6 35.4 7.75 34.25 9.8 33.2 L8.9 26.3 13.95 31.1 14.25 30.95" fill="url(#gradient4)" fill-rule="evenodd" stroke="none"/>
  </g>
  <defs>
    <radialGradient cx="0" cy="0" gradientTransform="matrix(-0.0078, 0.0074, -0.0074, -0.0078, 9.9, 52.45)" gradientUnits="userSpaceOnUse" id="gradient0" r="819.2" spreadMethod="pad">
      <stop offset="0.0" stop-color="#ffffff"/>
      <stop offset="1.0" stop-color="#ffffff" stop-opacity="0.0"/>
    </radialGradient>
    <radialGradient cx="0" cy="0" gradientTransform="matrix(0.0182, 0.0, 0.0, 0.0182, 50.25, 10.25)" gradientUnits="userSpaceOnUse" id="gradient1" r="819.2" spreadMethod="pad">
      <stop offset="0.0" stop-color="#ffffff"/>
      <stop offset="1.0" stop-color="#ffffff" stop-opacity="0.0"/>
    </radialGradient>
    <radialGradient cx="0" cy="0" gradientTransform="matrix(-0.0016, 0.0159, -0.0159, -0.0016, 25.85, 10.05)" gradientUnits="userSpaceOnUse" id="gradient2" r="819.2" spreadMethod="pad">
      <stop offset="0.0" stop-color="#ffffff"/>
      <stop offset="1.0" stop-color="#ffffff" stop-opacity="0.0"/>
    </radialGradient>
    <radialGradient cx="0" cy="0" gradientTransform="matrix(0.004, 0.0118, -0.0118, 0.004, 8.75, 17.2)" gradientUnits="userSpaceOnUse" id="gradient3" r="819.2" spreadMethod="pad">
      <stop offset="0.0" stop-color="#ffffff"/>
      <stop offset="1.0" stop-color="#ffffff" stop-opacity="0.0"/>
    </radialGradient>
    <radialGradient cx="0" cy="0" gradientTransform="matrix(-0.012, 0.0061, -0.0061, -0.012, 12.9, 34.35)" gradientUnits="userSpaceOnUse" id="gradient4" r="819.2" spreadMethod="pad">
      <stop offset="0.0" stop-color="#ffffff"/>
      <stop offset="1.0" stop-color="#ffffff" stop-opacity="0.0"/>
    </radialGradient>
  </defs>
</svg>
