<?xml version="1.0" encoding="UTF-8" standalone="no"?>
<svg xmlns:ffdec="https://www.free-decompiler.com/flash" xmlns:xlink="http://www.w3.org/1999/xlink" ffdec:objectType="shape" height="30.0px" width="30.0px" xmlns="http://www.w3.org/2000/svg">
  <g transform="matrix(1.0, 0.0, 0.0, 1.0, 0.0, 0.0)">
    <path d="M24.2 24.3 Q20.4 28.1 15.0 28.1 9.55 28.1 5.75 24.3 1.9 20.45 1.95 15.05 1.9 9.6 5.75 5.8 9.55 1.95 15.0 2.0 20.4 1.95 24.2 5.8 28.05 9.6 28.05 15.05 28.05 20.45 24.2 24.3" fill="#ffffff" fill-opacity="0.5019608" fill-rule="evenodd" stroke="none"/>
    <path d="M30.0 15.0 Q30.0 21.2 25.55 25.6 21.2 30.0 15.0 30.0 8.75 30.0 4.35 25.6 -0.05 21.2 0.0 15.0 -0.05 8.75 4.35 4.35 8.75 -0.05 15.0 0.0 21.2 -0.05 25.55 4.35 30.0 8.75 30.0 15.0 M24.2 24.3 Q28.05 20.45 28.05 15.05 28.05 9.6 24.2 5.8 20.4 1.95 15.0 2.0 9.55 1.95 5.75 5.8 1.9 9.6 1.95 15.05 1.9 20.45 5.75 24.3 9.55 28.1 15.0 28.1 20.4 28.1 24.2 24.3" fill="#003366" fill-opacity="0.2" fill-rule="evenodd" stroke="none"/>
  </g>
</svg>
