<?xml version="1.0" encoding="UTF-8" standalone="no"?>
<svg xmlns:ffdec="https://www.free-decompiler.com/flash" xmlns:xlink="http://www.w3.org/1999/xlink" ffdec:objectType="shape" height="57.3px" width="58.6px" xmlns="http://www.w3.org/2000/svg">
  <g transform="matrix(1.0, 0.0, 0.0, 1.0, -1.45, -1.0)">
    <path d="M20.3 19.45 L20.15 19.55 Q17.15 22.55 15.55 26.2 L4.25 21.55 Q6.75 15.75 11.55 10.95 L11.7 10.85 20.3 19.45" fill="#ffcc00" fill-rule="evenodd" stroke="none"/>
    <path d="M34.9 13.15 Q30.6 13.3 26.95 14.85 L22.3 3.6 Q28.1 1.1 34.9 1.0 L34.9 13.15" fill="#ff6600" fill-rule="evenodd" stroke="none"/>
    <path d="M15.55 26.2 Q13.95 29.8 13.8 34.05 L13.65 35.4 1.45 34.95 1.85 30.65 Q2.4 25.8 4.25 21.55 L15.55 26.2" fill="#ffff00" fill-rule="evenodd" stroke="none"/>
    <path d="M26.95 14.85 Q23.3 16.45 20.3 19.45 L11.7 10.85 Q16.5 6.05 22.3 3.6 L26.95 14.85" fill="#ff9900" fill-rule="evenodd" stroke="none"/>
    <path d="M47.9 3.15 L43.25 14.45 Q39.7 13.15 35.6 13.15 L34.9 13.15 34.9 1.0 35.6 1.0 Q42.25 1.0 47.9 3.15" fill="#ff3300" fill-rule="evenodd" stroke="none"/>
    <path d="M47.9 3.15 Q54.5 6.0 56.95 8.25 L59.6 10.5 60.05 18.45 52.25 19.15 50.25 18.85 Q47.1 15.85 43.25 14.45 L47.9 3.15" fill="#cc0000" fill-rule="evenodd" stroke="none"/>
    <path d="M4.15 47.9 L2.55 43.6 1.5 35.1 13.7 35.6 14.55 38.75 Q15.4 41.5 16.65 44.15 L19.4 49.4 11.4 50.2 11.8 57.0 10.5 58.3 9.15 56.6 6.65 53.0 Q5.15 50.5 4.15 47.9" fill="#00ff33" fill-rule="evenodd" stroke="none"/>
  </g>
</svg>
