<?xml version="1.0" encoding="UTF-8" standalone="no"?>
<svg xmlns:ffdec="https://www.free-decompiler.com/flash" xmlns:xlink="http://www.w3.org/1999/xlink" ffdec:objectType="shape" height="36.3px" width="36.3px" xmlns="http://www.w3.org/2000/svg">
  <g transform="matrix(1.0, 0.0, 0.0, 1.0, 3.1, 3.15)">
    <path d="M27.8 27.8 Q22.5 33.15 15.05 33.15 7.5 33.15 2.15 27.8 -3.15 22.5 -3.1 15.0 -3.15 7.45 2.15 2.1 7.5 -3.2 15.05 -3.15 22.5 -3.2 27.8 2.1 33.15 7.45 33.2 15.0 33.15 22.5 27.8 27.8" fill="#000000" fill-opacity="0.03137255" fill-rule="evenodd" stroke="none"/>
    <path d="M27.25 27.25 Q22.2 32.35 15.05 32.4 7.85 32.35 2.75 27.25 -2.3 22.2 -2.3 15.05 -2.3 7.85 2.75 2.75 7.85 -2.3 15.05 -2.3 22.2 -2.3 27.25 2.75 32.35 7.85 32.4 15.05 32.35 22.2 27.25 27.25" fill="#000000" fill-opacity="0.0627451" fill-rule="evenodd" stroke="none"/>
    <path d="M15.05 31.1 Q8.4 31.05 3.7 26.35 -1.0 21.65 -1.0 15.05 -1.0 8.4 3.7 3.65 8.4 -1.05 15.05 -1.0 21.65 -1.05 26.35 3.65 31.05 8.4 31.1 15.05 31.05 21.65 26.35 26.35 21.65 31.05 15.05 31.1" fill="#000000" fill-opacity="0.15294118" fill-rule="evenodd" stroke="none"/>
    <path d="M30.0 15.0 Q30.0 21.2 25.55 25.6 21.2 30.0 15.0 30.0 8.75 30.0 4.35 25.6 -0.05 21.2 0.0 15.0 -0.05 8.75 4.35 4.35 8.75 -0.05 15.0 0.0 21.2 -0.05 25.55 4.35 30.0 8.75 30.0 15.0" fill="#000000" fill-rule="evenodd" stroke="none"/>
    <path d="M28.05 15.05 Q28.05 20.45 24.2 24.3 20.4 28.1 15.0 28.1 9.55 28.1 5.75 24.3 1.9 20.45 1.95 15.05 1.9 9.6 5.75 5.8 9.55 1.95 15.0 2.0 20.4 1.95 24.2 5.8 28.05 9.6 28.05 15.05" fill="url(#gradient0)" fill-rule="evenodd" stroke="none"/>
  </g>
  <defs>
    <linearGradient gradientTransform="matrix(0.011, 0.0115, -0.0115, 0.011, 15.0, 15.05)" gradientUnits="userSpaceOnUse" id="gradient0" spreadMethod="pad" x1="-819.2" x2="819.2">
      <stop offset="0.0" stop-color="#feb792"/>
      <stop offset="1.0" stop-color="#eb5301"/>
    </linearGradient>
  </defs>
</svg>
