<?xml version="1.0" encoding="UTF-8" standalone="no"?>
<svg xmlns:ffdec="https://www.free-decompiler.com/flash" xmlns:xlink="http://www.w3.org/1999/xlink" ffdec:objectType="shape" height="20.7px" width="19.25px" xmlns="http://www.w3.org/2000/svg">
  <g transform="matrix(1.0, 0.0, 0.0, 1.0, -6.75, -6.15)">
    <path d="M7.7 13.0 L14.5 8.5 24.95 25.7 24.75 26.7 7.7 13.0" fill="url(#gradient0)" fill-rule="evenodd" stroke="none"/>
    <path d="M10.9 14.45 Q9.2 14.45 7.95 13.2 6.75 12.0 6.75 10.3 6.75 8.6 7.95 7.35 9.2 6.15 10.9 6.15 12.6 6.15 13.8 7.35 15.05 8.6 15.05 10.3 15.05 12.0 13.8 13.2 12.6 14.45 10.9 14.45" fill="#ffffff" fill-rule="evenodd" stroke="none"/>
    <path d="M23.1 18.75 L23.4 13.7 26.0 23.45 21.1 26.85 11.55 24.1 17.55 23.45 9.25 18.1 17.9 21.2 15.9 15.8 21.35 19.65 19.15 12.05 23.1 18.75" fill="#ffffff" fill-rule="evenodd" stroke="none"/>
  </g>
  <defs>
    <linearGradient gradientTransform="matrix(0.0078, 0.0095, -0.0086, 0.007, 14.5, 15.75)" gradientUnits="userSpaceOnUse" id="gradient0" spreadMethod="pad" x1="-819.2" x2="819.2">
      <stop offset="0.0" stop-color="#ffffff"/>
      <stop offset="1.0" stop-color="#ffffff" stop-opacity="0.0"/>
    </linearGradient>
  </defs>
</svg>
