<?xml version="1.0" encoding="UTF-8" standalone="no"?>
<svg xmlns:ffdec="https://www.free-decompiler.com/flash" xmlns:xlink="http://www.w3.org/1999/xlink" ffdec:objectType="shape" height="39.9px" width="86.0px" xmlns="http://www.w3.org/2000/svg">
  <g transform="matrix(1.0, 0.0, 0.0, 1.0, 95.3, 20.05)">
    <path d="M-82.95 -19.9 L-81.3 -20.05 -23.3 -20.05 -21.6 -19.9 Q-18.55 -19.45 -16.25 -17.15 L-15.45 -16.25 Q-13.3 -13.6 -13.3 -10.05 L-13.3 1.4 Q-13.3 5.25 -13.95 8.6 L-90.65 8.6 Q-91.3 5.25 -91.3 1.4 L-91.3 -10.05 Q-91.3 -13.6 -89.2 -16.25 L-88.4 -17.15 Q-86.05 -19.45 -82.95 -19.9 M-23.55 -9.5 Q-23.95 -10.05 -24.75 -10.05 -25.5 -10.05 -25.9 -9.5 -26.3 -8.95 -26.3 -7.8 L-26.3 -1.9 Q-26.3 -0.75 -25.9 -0.2 -25.5 0.4 -24.75 0.4 -23.95 0.4 -23.55 -0.2 -23.2 -0.75 -23.2 -1.9 L-23.2 -7.8 Q-23.2 -8.95 -23.55 -9.5 M-36.95 -9.3 Q-37.55 -8.9 -37.55 -8.15 -37.55 -7.4 -37.0 -7.0 -36.4 -6.65 -35.25 -6.65 L-34.05 -6.65 -34.05 2.45 Q-34.05 3.6 -33.65 4.15 -33.25 4.75 -32.45 4.75 -31.6 4.75 -31.2 4.15 -30.8 3.6 -30.8 2.45 L-30.8 -6.65 -29.6 -6.65 Q-28.45 -6.65 -27.85 -7.0 -27.3 -7.4 -27.3 -8.15 -27.3 -8.9 -27.9 -9.3 L-29.6 -9.65 -35.25 -9.65 Q-36.4 -9.65 -36.95 -9.3 M-47.6 -4.2 L-47.6 -7.55 Q-47.6 -8.7 -48.0 -9.3 -48.4 -9.85 -49.2 -9.85 -50.05 -9.85 -50.45 -9.3 -50.85 -8.7 -50.85 -7.55 L-50.85 2.45 Q-50.85 3.6 -50.45 4.15 -50.05 4.75 -49.2 4.75 -48.4 4.75 -48.0 4.15 -47.6 3.6 -47.6 2.45 L-47.6 -1.2 -41.65 -1.2 -41.65 2.45 Q-41.65 3.6 -41.25 4.15 -40.85 4.75 -40.0 4.75 -39.2 4.75 -38.8 4.15 -38.4 3.6 -38.4 2.45 L-38.4 -7.55 Q-38.4 -8.7 -38.8 -9.3 -39.2 -9.85 -40.0 -9.85 -40.85 -9.85 -41.25 -9.3 -41.65 -8.7 -41.65 -7.55 L-41.65 -4.2 -47.6 -4.2 M-62.5 -2.65 Q-62.5 -4.65 -61.5 -5.8 -60.55 -7.0 -58.9 -7.0 -57.8 -7.0 -56.55 -6.3 -55.3 -5.6 -54.95 -5.6 -54.4 -5.6 -54.0 -6.05 -53.55 -6.5 -53.55 -7.15 -53.55 -8.3 -55.1 -9.2 -56.65 -10.1 -58.8 -10.1 -62.1 -10.1 -64.05 -8.05 -66.0 -6.0 -66.0 -2.55 -66.0 0.75 -64.1 2.85 -62.2 4.95 -59.2 4.95 -56.2 4.95 -54.35 3.1 -52.55 1.2 -52.55 -1.85 -52.55 -3.0 -53.05 -3.5 -53.6 -4.0 -54.8 -4.0 L-57.2 -4.0 -58.9 -3.65 Q-59.45 -3.25 -59.45 -2.5 -59.45 -1.7 -58.9 -1.35 L-57.2 -1.0 -56.05 -1.0 Q-56.1 0.3 -56.85 1.1 -57.65 1.85 -58.95 1.85 -60.55 1.85 -61.5 0.65 -62.5 -0.55 -62.5 -2.65 M-67.85 -7.55 Q-67.85 -8.7 -68.25 -9.3 -68.65 -9.85 -69.5 -9.85 -70.3 -9.85 -70.7 -9.3 -71.1 -8.7 -71.1 -7.55 L-71.1 2.45 Q-71.1 3.6 -70.7 4.15 -70.3 4.75 -69.5 4.75 -68.65 4.75 -68.25 4.15 -67.85 3.6 -67.85 2.45 L-67.85 -7.55 M-72.75 -8.15 Q-72.75 -8.9 -73.35 -9.3 L-75.05 -9.65 -78.7 -9.65 -80.45 -9.2 Q-80.95 -8.7 -80.95 -7.4 L-80.95 2.45 Q-80.95 3.6 -80.55 4.15 -80.15 4.75 -79.3 4.75 -78.5 4.75 -78.1 4.15 -77.7 3.6 -77.7 2.45 L-77.7 -1.1 -75.4 -1.1 Q-74.25 -1.1 -73.7 -1.5 -73.1 -1.85 -73.1 -2.6 -73.1 -3.35 -73.7 -3.75 L-75.4 -4.1 -77.7 -4.1 -77.7 -6.65 -75.05 -6.65 Q-73.9 -6.65 -73.3 -7.0 -72.75 -7.4 -72.75 -8.15 M-90.65 8.6 L-13.95 8.6 Q-14.7 10.45 -16.25 12.0 -19.15 14.95 -23.3 14.95 L-81.3 14.95 Q-85.45 14.95 -88.4 12.0 -89.95 10.45 -90.65 8.6 M-24.75 1.45 Q-25.45 1.45 -25.95 2.0 -26.5 2.5 -26.5 3.2 -26.5 3.95 -25.95 4.45 -25.45 4.95 -24.75 4.95 -24.05 4.95 -23.5 4.45 -23.0 3.95 -23.0 3.2 -23.0 2.5 -23.5 2.0 -24.0 1.45 -24.75 1.45" fill="#ffffff" fill-rule="evenodd" stroke="none"/>
    <path d="M-93.3 8.6 L-95.3 8.6 -95.3 -10.45 Q-95.3 -14.4 -92.4 -17.15 -89.45 -19.9 -85.3 -19.9 L-82.95 -19.9 Q-86.05 -19.45 -88.4 -17.15 L-89.2 -16.25 -90.4 -15.25 Q-93.05 -12.75 -93.25 -9.25 L-93.3 -8.6 -93.3 -8.3 -93.3 8.35 -93.3 8.6 -93.25 9.15 -93.3 9.15 -93.3 9.45 -93.25 9.45 Q-92.95 12.75 -90.4 15.15 -87.45 17.95 -83.3 17.95 L-21.3 17.95 Q-17.15 17.95 -14.25 15.15 -11.65 12.75 -11.35 9.45 L-11.3 9.45 -11.3 9.15 -11.3 8.6 -11.3 8.35 -11.3 -8.6 -11.3 -9.25 Q-11.55 -12.75 -14.25 -15.25 L-15.45 -16.25 -16.25 -17.15 Q-18.55 -19.45 -21.6 -19.9 L-19.3 -19.9 Q-15.15 -19.9 -12.25 -17.15 -9.3 -14.4 -9.3 -10.45 L-9.3 8.6 -11.3 8.6 -9.3 8.6 -9.3 10.4 Q-9.3 14.3 -12.25 17.05 -15.15 19.8 -19.3 19.85 L-85.3 19.85 Q-89.45 19.8 -92.4 17.05 -95.3 14.3 -95.3 10.4 L-95.3 8.6 -93.3 8.6" fill="#01317e" fill-opacity="0.08235294" fill-rule="evenodd" stroke="none"/>
    <path d="M-11.3 8.6 L-13.95 8.6 Q-13.3 5.25 -13.3 1.4 L-13.3 -10.05 Q-13.3 -13.6 -15.45 -16.25 L-14.25 -15.25 Q-11.55 -12.75 -11.3 -9.25 L-11.3 -8.6 -11.3 8.35 -11.3 8.6 -11.3 9.15 -11.3 9.45 -11.35 9.45 Q-11.65 12.75 -14.25 15.15 -17.15 17.95 -21.3 17.95 L-83.3 17.95 Q-87.45 17.95 -90.4 15.15 -92.95 12.75 -93.25 9.45 L-93.3 9.45 -93.3 9.15 -93.25 9.15 -93.3 8.6 -93.3 8.35 -93.3 -8.3 -93.3 -8.6 -93.25 -9.25 Q-93.05 -12.75 -90.4 -15.25 L-89.2 -16.25 Q-91.3 -13.6 -91.3 -10.05 L-91.3 1.4 Q-91.3 5.25 -90.65 8.6 L-93.3 8.6 -90.65 8.6 Q-89.95 10.45 -88.4 12.0 -85.45 14.95 -81.3 14.95 L-23.3 14.95 Q-19.15 14.95 -16.25 12.0 -14.7 10.45 -13.95 8.6 L-11.3 8.6" fill="#01317e" fill-opacity="0.18039216" fill-rule="evenodd" stroke="none"/>
    <path d="M-72.75 -8.15 Q-72.75 -7.4 -73.3 -7.0 -73.9 -6.65 -75.05 -6.65 L-77.7 -6.65 -77.7 -4.1 -75.4 -4.1 -73.7 -3.75 Q-73.1 -3.35 -73.1 -2.6 -73.1 -1.85 -73.7 -1.5 -74.25 -1.1 -75.4 -1.1 L-77.7 -1.1 -77.7 2.45 Q-77.7 3.6 -78.1 4.15 -78.5 4.75 -79.3 4.75 -80.15 4.75 -80.55 4.15 -80.95 3.6 -80.95 2.45 L-80.95 -7.4 Q-80.95 -8.7 -80.45 -9.2 L-78.7 -9.65 -75.05 -9.65 -73.35 -9.3 Q-72.75 -8.9 -72.75 -8.15 M-67.85 -7.55 L-67.85 2.45 Q-67.85 3.6 -68.25 4.15 -68.65 4.75 -69.5 4.75 -70.3 4.75 -70.7 4.15 -71.1 3.6 -71.1 2.45 L-71.1 -7.55 Q-71.1 -8.7 -70.7 -9.3 -70.3 -9.85 -69.5 -9.85 -68.65 -9.85 -68.25 -9.3 -67.85 -8.7 -67.85 -7.55 M-62.5 -2.65 Q-62.5 -0.55 -61.5 0.65 -60.55 1.85 -58.95 1.85 -57.65 1.85 -56.85 1.1 -56.1 0.3 -56.05 -1.0 L-57.2 -1.0 -58.9 -1.35 Q-59.45 -1.7 -59.45 -2.5 -59.45 -3.25 -58.9 -3.65 L-57.2 -4.0 -54.8 -4.0 Q-53.6 -4.0 -53.05 -3.5 -52.55 -3.0 -52.55 -1.85 -52.55 1.2 -54.35 3.1 -56.2 4.95 -59.2 4.95 -62.2 4.95 -64.1 2.85 -66.0 0.75 -66.0 -2.55 -66.0 -6.0 -64.05 -8.05 -62.1 -10.1 -58.8 -10.1 -56.65 -10.1 -55.1 -9.2 -53.55 -8.3 -53.55 -7.15 -53.55 -6.5 -54.0 -6.05 -54.4 -5.6 -54.95 -5.6 -55.3 -5.6 -56.55 -6.3 -57.8 -7.0 -58.9 -7.0 -60.55 -7.0 -61.5 -5.8 -62.5 -4.65 -62.5 -2.65 M-47.6 -4.2 L-41.65 -4.2 -41.65 -7.55 Q-41.65 -8.7 -41.25 -9.3 -40.85 -9.85 -40.0 -9.85 -39.2 -9.85 -38.8 -9.3 -38.4 -8.7 -38.4 -7.55 L-38.4 2.45 Q-38.4 3.6 -38.8 4.15 -39.2 4.75 -40.0 4.75 -40.85 4.75 -41.25 4.15 -41.65 3.6 -41.65 2.45 L-41.65 -1.2 -47.6 -1.2 -47.6 2.45 Q-47.6 3.6 -48.0 4.15 -48.4 4.75 -49.2 4.75 -50.05 4.75 -50.45 4.15 -50.85 3.6 -50.85 2.45 L-50.85 -7.55 Q-50.85 -8.7 -50.45 -9.3 -50.05 -9.85 -49.2 -9.85 -48.4 -9.85 -48.0 -9.3 -47.6 -8.7 -47.6 -7.55 L-47.6 -4.2 M-36.95 -9.3 Q-36.4 -9.65 -35.25 -9.65 L-29.6 -9.65 -27.9 -9.3 Q-27.3 -8.9 -27.3 -8.15 -27.3 -7.4 -27.85 -7.0 -28.45 -6.65 -29.6 -6.65 L-30.8 -6.65 -30.8 2.45 Q-30.8 3.6 -31.2 4.15 -31.6 4.75 -32.45 4.75 -33.25 4.75 -33.65 4.15 -34.05 3.6 -34.05 2.45 L-34.05 -6.65 -35.25 -6.65 Q-36.4 -6.65 -37.0 -7.0 -37.55 -7.4 -37.55 -8.15 -37.55 -8.9 -36.95 -9.3 M-23.55 -9.5 Q-23.2 -8.95 -23.2 -7.8 L-23.2 -1.9 Q-23.2 -0.75 -23.55 -0.2 -23.95 0.4 -24.75 0.4 -25.5 0.4 -25.9 -0.2 -26.3 -0.75 -26.3 -1.9 L-26.3 -7.8 Q-26.3 -8.95 -25.9 -9.5 -25.5 -10.05 -24.75 -10.05 -23.95 -10.05 -23.55 -9.5 M-24.75 1.45 Q-24.0 1.45 -23.5 2.0 -23.0 2.5 -23.0 3.2 -23.0 3.95 -23.5 4.45 -24.05 4.95 -24.75 4.95 -25.45 4.95 -25.95 4.45 -26.5 3.95 -26.5 3.2 -26.5 2.5 -25.95 2.0 -25.45 1.45 -24.75 1.45" fill="#ff6600" fill-rule="evenodd" stroke="none"/>
  </g>
</svg>
