<?xml version="1.0" encoding="UTF-8" standalone="no"?>
<svg xmlns:ffdec="https://www.free-decompiler.com/flash" xmlns:xlink="http://www.w3.org/1999/xlink" ffdec:objectType="shape" height="36.65px" width="103.0px" xmlns="http://www.w3.org/2000/svg">
  <g transform="matrix(1.0, 0.0, 0.0, 1.0, 47.6, 19.3)">
    <path d="M-45.6 5.15 L-45.6 -8.9 Q-45.6 -12.85 -42.7 -15.6 -39.75 -18.35 -35.6 -18.35 L43.4 -18.35 Q47.55 -18.35 50.45 -15.6 53.4 -12.85 53.4 -8.9 L53.4 5.15 51.4 5.15 51.4 4.9 51.4 -8.45 51.3 -8.45 Q50.85 -11.45 48.45 -13.7 45.55 -16.45 41.4 -16.45 L-33.6 -16.45 Q-37.75 -16.45 -40.7 -13.7 -43.05 -11.45 -43.5 -8.45 L-43.6 -8.45 -43.6 4.9 -43.6 5.15 -43.55 5.7 -43.6 5.7 -43.6 6.0 -43.55 6.0 Q-43.25 9.3 -40.7 11.7 -37.75 14.5 -33.6 14.5 L41.4 14.5 Q45.55 14.5 48.45 11.7 51.05 9.3 51.35 6.0 L51.4 6.0 51.4 5.7 51.4 5.15 53.4 5.15 53.4 6.95 Q53.4 10.85 50.45 13.6 47.55 16.35 43.4 16.4 L-35.6 16.4 Q-39.75 16.35 -42.7 13.6 -45.6 10.85 -45.6 6.95 L-45.6 5.15 -43.6 5.15 -45.6 5.15" fill="#01317e" fill-opacity="0.08235294" fill-rule="evenodd" stroke="none"/>
    <path d="M53.4 5.15 L53.4 -8.9 Q53.4 -12.85 50.45 -15.6 47.55 -18.35 43.4 -18.35 L-35.6 -18.35 Q-39.75 -18.35 -42.7 -15.6 -45.6 -12.85 -45.6 -8.9 L-45.6 5.15 -47.6 5.15 -47.6 -9.85 Q-47.6 -13.8 -44.7 -16.55 -41.75 -19.3 -37.6 -19.3 L45.4 -19.3 Q49.55 -19.3 52.45 -16.55 55.4 -13.8 55.4 -9.85 L55.4 5.15 53.4 5.15 55.4 5.15 55.4 7.9 Q55.4 11.8 52.45 14.55 49.55 17.3 45.4 17.35 L-37.6 17.35 Q-41.75 17.3 -44.7 14.55 -47.6 11.8 -47.6 7.9 L-47.6 5.15 -45.6 5.15 -45.6 6.95 Q-45.6 10.85 -42.7 13.6 -39.75 16.35 -35.6 16.4 L43.4 16.4 Q47.55 16.35 50.45 13.6 53.4 10.85 53.4 6.95 L53.4 5.15" fill="#01317e" fill-opacity="0.03137255" fill-rule="evenodd" stroke="none"/>
    <path d="M-43.6 5.15 L-43.6 4.9 -43.6 -8.45 -43.5 -8.45 Q-43.05 -11.45 -40.7 -13.7 -37.75 -16.45 -33.6 -16.45 L41.4 -16.45 Q45.55 -16.45 48.45 -13.7 50.85 -11.45 51.3 -8.45 L51.4 -8.45 51.4 4.9 51.4 5.15 51.4 5.7 51.4 6.0 51.35 6.0 Q51.05 9.3 48.45 11.7 45.55 14.5 41.4 14.5 L-33.6 14.5 Q-37.75 14.5 -40.7 11.7 -43.25 9.3 -43.55 6.0 L-43.6 6.0 -43.6 5.7 -43.55 5.7 -43.6 5.15 51.4 5.15 -43.6 5.15" fill="#01317e" fill-opacity="0.18039216" fill-rule="evenodd" stroke="none"/>
  </g>
</svg>
