<?xml version="1.0" encoding="UTF-8" standalone="no"?>
<svg xmlns:ffdec="https://www.free-decompiler.com/flash" xmlns:xlink="http://www.w3.org/1999/xlink" ffdec:objectType="shape" height="30.0px" width="91.0px" xmlns="http://www.w3.org/2000/svg">
  <g transform="matrix(1.0, 0.0, 0.0, 1.0, 41.6, 18.5)">
    <path d="M48.75 5.15 Q48.0 7.0 46.45 8.55 43.55 11.5 39.4 11.5 L-31.6 11.5 Q-35.75 11.5 -38.7 8.55 -40.25 7.0 -40.95 5.15 L48.75 5.15 -40.95 5.15 Q-41.6 1.8 -41.6 -2.05 L-41.6 -8.5 Q-41.6 -12.65 -38.7 -15.6 -35.75 -18.5 -31.6 -18.5 L39.4 -18.5 Q43.55 -18.5 46.45 -15.6 49.4 -12.65 49.4 -8.5 L49.4 -2.05 Q49.4 1.8 48.75 5.15" fill="#ffffff" fill-rule="evenodd" stroke="none"/>
  </g>
</svg>
