<?xml version="1.0" encoding="UTF-8" standalone="no"?>
<svg xmlns:ffdec="https://www.free-decompiler.com/flash" xmlns:xlink="http://www.w3.org/1999/xlink" ffdec:objectType="shape" height="41.65px" width="90.0px" xmlns="http://www.w3.org/2000/svg">
  <g transform="matrix(1.0, 0.0, 0.0, 1.0, 47.6, 19.3)">
    <path d="M40.4 10.15 L38.4 10.15 38.4 9.9 38.4 -7.05 38.4 -7.7 Q38.15 -11.2 35.45 -13.7 32.55 -16.45 28.4 -16.45 L-33.6 -16.45 Q-37.75 -16.45 -40.7 -13.7 -43.35 -11.2 -43.55 -7.7 L-43.6 -7.05 -43.6 -6.75 -43.6 9.9 -43.6 10.15 -45.6 10.15 -45.6 -8.9 Q-45.6 -12.85 -42.7 -15.6 -39.75 -18.35 -35.6 -18.35 L30.4 -18.35 Q34.55 -18.35 37.45 -15.6 40.4 -12.85 40.4 -8.9 L40.4 10.15 40.4 11.95 Q40.4 15.85 37.45 18.6 34.55 21.35 30.4 21.4 L-35.6 21.4 Q-39.75 21.35 -42.7 18.6 -45.6 15.85 -45.6 11.95 L-45.6 10.15 -43.6 10.15 -43.55 10.7 -43.6 10.7 -43.6 11.0 -43.55 11.0 Q-43.25 14.3 -40.7 16.7 -37.75 19.5 -33.6 19.5 L28.4 19.5 Q32.55 19.5 35.45 16.7 38.05 14.3 38.35 11.0 L38.4 11.0 38.4 10.7 38.4 10.15 40.4 10.15" fill="#01317e" fill-opacity="0.08235294" fill-rule="evenodd" stroke="none"/>
    <path d="M-45.6 10.15 L-47.6 10.15 -47.6 -9.85 Q-47.6 -13.8 -44.7 -16.55 -41.75 -19.3 -37.6 -19.3 L32.4 -19.3 Q36.55 -19.3 39.45 -16.55 42.4 -13.8 42.4 -9.85 L42.4 10.15 40.4 10.15 40.4 -8.9 Q40.4 -12.85 37.45 -15.6 34.55 -18.35 30.4 -18.35 L-35.6 -18.35 Q-39.75 -18.35 -42.7 -15.6 -45.6 -12.85 -45.6 -8.9 L-45.6 10.15 -45.6 11.95 Q-45.6 15.85 -42.7 18.6 -39.75 21.35 -35.6 21.4 L30.4 21.4 Q34.55 21.35 37.45 18.6 40.4 15.85 40.4 11.95 L40.4 10.15 42.4 10.15 42.4 12.9 Q42.4 16.8 39.45 19.55 36.55 22.3 32.4 22.35 L-37.6 22.35 Q-41.75 22.3 -44.7 19.55 -47.6 16.8 -47.6 12.9 L-47.6 10.15 -45.6 10.15" fill="#01317e" fill-opacity="0.03137255" fill-rule="evenodd" stroke="none"/>
    <path d="M38.4 10.15 L-43.6 10.15 -43.6 9.9 -43.6 -6.75 -43.6 -7.05 -43.55 -7.7 Q-43.35 -11.2 -40.7 -13.7 -37.75 -16.45 -33.6 -16.45 L28.4 -16.45 Q32.55 -16.45 35.45 -13.7 38.15 -11.2 38.4 -7.7 L38.4 -7.05 38.4 9.9 38.4 10.15 38.4 10.7 38.4 11.0 38.35 11.0 Q38.05 14.3 35.45 16.7 32.55 19.5 28.4 19.5 L-33.6 19.5 Q-37.75 19.5 -40.7 16.7 -43.25 14.3 -43.55 11.0 L-43.6 11.0 -43.6 10.7 -43.55 10.7 -43.6 10.15 38.4 10.15" fill="#01317e" fill-opacity="0.18039216" fill-rule="evenodd" stroke="none"/>
  </g>
</svg>
