<?xml version="1.0" encoding="UTF-8" standalone="no"?>
<svg xmlns:ffdec="https://www.free-decompiler.com/flash" xmlns:xlink="http://www.w3.org/1999/xlink" ffdec:objectType="shape" height="35.0px" width="78.0px" xmlns="http://www.w3.org/2000/svg">
  <g transform="matrix(1.0, 0.0, 0.0, 1.0, 41.6, 18.5)">
    <path d="M-31.6 16.5 Q-35.75 16.5 -38.7 13.55 -40.25 12.0 -40.95 10.15 L35.75 10.15 Q35.0 12.0 33.45 13.55 30.55 16.5 26.4 16.5 L-31.6 16.5 M26.4 -18.5 Q30.55 -18.5 33.45 -15.6 36.4 -12.65 36.4 -8.5 L36.4 2.95 Q36.4 6.8 35.75 10.15 L-40.95 10.15 Q-41.6 6.8 -41.6 2.95 L-41.6 -8.5 Q-41.6 -12.65 -38.7 -15.6 -35.75 -18.5 -31.6 -18.5 L26.4 -18.5" fill="#ffffff" fill-rule="evenodd" stroke="none"/>
  </g>
</svg>
