<?xml version="1.0" encoding="UTF-8" standalone="no"?>
<svg xmlns:ffdec="https://www.free-decompiler.com/flash" xmlns:xlink="http://www.w3.org/1999/xlink" ffdec:objectType="shape" height="131.0px" width="216.0px" xmlns="http://www.w3.org/2000/svg">
  <g transform="matrix(1.0, 0.0, 0.0, 1.0, 104.8, 121.1)">
    <path d="M93.25 4.9 L97.0 4.9 Q101.15 4.9 104.1 1.95 107.0 -0.95 107.0 -5.1 L107.0 -106.1 Q107.0 -110.25 104.1 -113.2 102.3 -114.95 100.1 -115.65 L97.0 -116.1 93.2 -116.1 96.1 -115.65 Q98.3 -114.95 100.1 -113.2 103.0 -110.25 103.0 -106.1 L103.0 -5.1 Q103.0 -0.95 100.1 1.95 97.25 4.8 93.25 4.9 L93.25 4.85 92.25 4.9 93.25 4.9 M102.95 -120.95 Q106.0 -120.45 108.25 -118.2 111.2 -115.25 111.2 -111.1 L111.2 -0.1 Q111.2 4.05 108.25 6.95 105.35 9.9 101.2 9.9 L-94.8 9.9 Q-98.95 9.9 -101.9 6.95 -104.8 4.05 -104.8 -0.1 L-104.8 -111.1 Q-104.8 -115.25 -101.9 -118.2 -100.1 -119.95 -97.85 -120.65 L-94.8 -121.1 101.2 -121.1 102.95 -120.95 M-100.8 -106.1 L-100.8 -5.1 Q-100.8 -0.95 -97.9 1.95 -94.95 4.9 -90.8 4.9 L-87.05 4.9 Q-91.05 4.8 -93.9 1.95 -96.8 -0.95 -96.8 -5.1 L-96.8 -106.1 Q-96.8 -110.25 -93.9 -113.2 -92.1 -114.95 -89.85 -115.65 L-87.0 -116.1 -90.8 -116.1 -93.85 -115.65 Q-96.1 -114.95 -97.9 -113.2 -100.8 -110.25 -100.8 -106.1" fill="#ffffff" fill-rule="evenodd" stroke="none"/>
    <path d="M93.25 4.9 Q97.25 4.8 100.1 1.95 103.0 -0.95 103.0 -5.1 L103.0 -106.1 Q103.0 -110.25 100.1 -113.2 98.3 -114.95 96.1 -115.65 L93.2 -116.1 97.0 -116.1 100.1 -115.65 Q102.3 -114.95 104.1 -113.2 107.0 -110.25 107.0 -106.1 L107.0 -5.1 Q107.0 -0.95 104.1 1.95 101.15 4.9 97.0 4.9 L93.25 4.9 M-100.8 -106.1 Q-100.8 -110.25 -97.9 -113.2 -96.1 -114.95 -93.85 -115.65 L-90.8 -116.1 -87.0 -116.1 -89.85 -115.65 Q-92.1 -114.95 -93.9 -113.2 -96.8 -110.25 -96.8 -106.1 L-96.8 -5.1 Q-96.8 -0.95 -93.9 1.95 -91.05 4.8 -87.05 4.9 L-90.8 4.9 Q-94.95 4.9 -97.9 1.95 -100.8 -0.95 -100.8 -5.1 L-100.8 -106.1" fill="#66cc00" fill-rule="evenodd" stroke="none"/>
  </g>
</svg>
