<?xml version="1.0" encoding="UTF-8" standalone="no"?>
<svg xmlns:ffdec="https://www.free-decompiler.com/flash" xmlns:xlink="http://www.w3.org/1999/xlink" ffdec:objectType="shape" height="36.65px" width="103.0px" xmlns="http://www.w3.org/2000/svg">
  <g transform="matrix(1.0, 0.0, 0.0, 1.0, 51.5, 18.35)">
    <path d="M-37.15 -17.4 L-35.5 -17.55 35.5 -17.55 37.2 -17.4 Q40.25 -16.95 42.55 -14.65 L43.35 -13.75 Q45.5 -11.1 45.5 -7.55 L45.5 -1.1 Q45.5 2.75 44.85 6.1 L-44.85 6.1 Q-45.5 2.75 -45.5 -1.1 L-45.5 -7.55 Q-45.5 -11.1 -43.4 -13.75 L-42.6 -14.65 Q-40.25 -16.95 -37.15 -17.4 M21.95 -1.85 L23.2 -5.55 24.35 -1.85 21.95 -1.85 M24.9 -6.7 L24.25 -7.65 23.25 -8.0 Q22.6 -8.0 22.2 -7.65 21.8 -7.3 21.5 -6.55 L18.9 0.5 18.85 0.8 18.8 1.15 Q18.8 1.65 19.1 1.95 L19.9 2.25 20.55 2.0 20.95 1.25 21.3 0.25 25.0 0.25 25.25 1.15 25.75 2.0 26.45 2.25 27.25 1.95 27.6 1.2 27.55 0.9 27.45 0.45 24.9 -6.7 M34.15 -8.0 L33.55 -7.75 32.95 -7.15 31.25 -4.7 29.55 -7.1 28.95 -7.75 28.4 -8.0 Q27.9 -8.0 27.6 -7.7 27.3 -7.4 27.3 -7.0 27.3 -6.55 27.8 -5.85 L30.1 -2.6 30.1 0.6 Q30.1 1.45 30.35 1.85 30.65 2.2 31.2 2.2 31.8 2.2 32.05 1.85 L32.35 0.6 32.35 -2.6 34.65 -5.85 34.7 -5.95 35.15 -7.0 34.85 -7.7 34.15 -8.0 M2.8 -1.85 L0.4 -1.85 1.65 -5.55 2.8 -1.85 M0.65 -7.65 L-0.05 -6.55 -2.65 0.5 -2.7 0.8 -2.75 1.15 -2.45 1.95 Q-2.15 2.25 -1.65 2.25 L-1.0 2.0 -0.6 1.25 -0.25 0.25 3.45 0.25 3.7 1.15 4.2 2.0 4.9 2.25 5.7 1.95 6.05 1.2 6.0 0.9 5.9 0.45 3.35 -6.7 2.7 -7.65 1.7 -8.0 Q1.05 -8.0 0.65 -7.65 M13.65 -7.0 L13.25 -7.75 12.45 -8.0 11.65 -7.75 11.2 -7.05 9.55 -0.7 8.35 -7.0 7.95 -7.75 7.25 -8.0 6.4 -7.7 Q6.1 -7.45 6.1 -6.95 L6.1 -6.65 6.1 -6.45 7.8 0.75 Q7.95 1.55 8.3 1.9 L9.35 2.2 Q9.95 2.2 10.4 1.85 L10.95 0.85 12.35 -4.75 13.85 0.95 Q14.0 1.6 14.4 1.9 L15.35 2.2 16.4 1.95 16.95 0.75 18.65 -6.25 18.75 -6.6 18.75 -6.95 18.45 -7.7 Q18.15 -8.0 17.65 -8.0 L16.9 -7.7 16.5 -6.85 15.3 -0.7 13.65 -7.0 M44.85 6.1 Q44.1 7.95 42.55 9.5 39.65 12.45 35.5 12.45 L-35.5 12.45 Q-39.65 12.45 -42.6 9.5 -44.15 7.95 -44.85 6.1 L44.85 6.1 M-10.15 -7.6 L-10.45 -6.35 -10.45 -1.7 -14.6 -7.25 -15.2 -7.8 -15.8 -7.95 Q-16.35 -7.95 -16.6 -7.6 L-16.85 -6.45 -16.85 0.6 -16.6 1.85 -15.75 2.2 Q-15.15 2.2 -14.9 1.85 -14.6 1.45 -14.6 0.6 L-14.6 -3.95 -10.5 1.45 -9.85 2.1 -9.2 2.3 Q-8.65 2.3 -8.4 1.95 -8.15 1.6 -8.15 0.85 L-8.15 -6.35 Q-8.15 -7.2 -8.45 -7.6 -8.7 -8.0 -9.3 -8.0 -9.85 -8.0 -10.15 -7.6 M-31.15 -5.45 Q-30.75 -5.15 -30.75 -4.6 -30.75 -4.0 -31.15 -3.65 -31.5 -3.35 -32.2 -3.35 L-33.25 -3.35 -33.25 -5.75 -32.2 -5.75 -31.15 -5.45 M-28.4 -4.75 Q-28.4 -6.2 -29.4 -7.0 -30.4 -7.85 -32.2 -7.85 L-33.95 -7.85 Q-34.8 -7.85 -35.15 -7.5 -35.5 -7.15 -35.5 -6.25 L-35.5 0.6 -35.25 1.85 Q-34.95 2.2 -34.4 2.2 -33.8 2.2 -33.55 1.85 -33.25 1.45 -33.25 0.6 L-33.25 -1.85 -30.6 1.5 -29.95 2.1 -29.4 2.3 Q-28.9 2.3 -28.6 2.0 -28.3 1.7 -28.3 1.25 L-28.45 0.65 -29.0 -0.05 -30.75 -2.05 Q-29.65 -2.25 -29.0 -2.95 -28.4 -3.7 -28.4 -4.75 M-24.9 -6.35 Q-24.9 -7.2 -25.2 -7.6 -25.45 -8.0 -26.05 -8.0 -26.6 -8.0 -26.9 -7.6 L-27.15 -6.35 -27.15 -2.15 Q-27.15 0.0 -26.05 1.2 -24.9 2.4 -22.9 2.4 -20.9 2.4 -19.75 1.2 -18.65 0.0 -18.65 -2.15 L-18.65 -6.35 Q-18.65 -7.2 -18.9 -7.6 -19.2 -8.0 -19.75 -8.0 -20.35 -8.0 -20.6 -7.6 L-20.9 -6.35 -20.9 -2.45 Q-20.9 -1.1 -21.4 -0.45 -21.9 0.25 -22.9 0.25 -23.9 0.25 -24.4 -0.45 -24.9 -1.1 -24.9 -2.45 L-24.9 -6.35" fill="#ffffff" fill-rule="evenodd" stroke="none"/>
    <path d="M37.2 -17.4 L35.5 -17.55 -35.5 -17.55 -37.15 -17.4 -39.5 -17.4 Q-43.65 -17.4 -46.6 -14.65 -49.5 -11.9 -49.5 -7.95 L-49.5 6.1 -49.5 7.9 Q-49.5 11.8 -46.6 14.55 -43.65 17.3 -39.5 17.35 L39.5 17.35 Q43.65 17.3 46.55 14.55 49.5 11.8 49.5 7.9 L49.5 6.1 51.5 6.1 51.5 8.85 Q51.5 12.75 48.55 15.5 45.65 18.25 41.5 18.3 L-41.5 18.3 Q-45.65 18.25 -48.6 15.5 -51.5 12.75 -51.5 8.85 L-51.5 6.1 -49.5 6.1 -51.5 6.1 -51.5 -8.9 Q-51.5 -12.85 -48.6 -15.6 -45.65 -18.35 -41.5 -18.35 L41.5 -18.35 Q45.65 -18.35 48.55 -15.6 51.5 -12.85 51.5 -8.9 L51.5 6.1 49.5 6.1 49.5 -7.95 Q49.5 -11.9 46.55 -14.65 43.65 -17.4 39.5 -17.4 L37.2 -17.4" fill="#01317e" fill-opacity="0.03137255" fill-rule="evenodd" stroke="none"/>
    <path d="M13.65 -7.0 L15.3 -0.7 16.5 -6.85 16.9 -7.7 17.65 -8.0 Q18.15 -8.0 18.45 -7.7 L18.75 -6.95 18.75 -6.6 18.65 -6.25 16.95 0.75 16.4 1.95 15.35 2.2 14.4 1.9 Q14.0 1.6 13.85 0.95 L12.35 -4.75 10.95 0.85 10.4 1.85 Q9.95 2.2 9.35 2.2 L8.3 1.9 Q7.95 1.55 7.8 0.75 L6.1 -6.45 6.1 -6.65 6.1 -6.95 Q6.1 -7.45 6.4 -7.7 L7.25 -8.0 7.95 -7.75 8.35 -7.0 9.55 -0.7 11.2 -7.05 11.65 -7.75 12.45 -8.0 13.25 -7.75 13.65 -7.0 M0.65 -7.65 Q1.05 -8.0 1.7 -8.0 L2.7 -7.65 3.35 -6.7 5.9 0.45 6.0 0.9 6.05 1.2 5.7 1.95 4.9 2.25 4.2 2.0 3.7 1.15 3.45 0.25 -0.25 0.25 -0.6 1.25 -1.0 2.0 -1.65 2.25 Q-2.15 2.25 -2.45 1.95 L-2.75 1.15 -2.7 0.8 -2.65 0.5 -0.05 -6.55 0.65 -7.65 M2.8 -1.85 L1.65 -5.55 0.4 -1.85 2.8 -1.85 M34.15 -8.0 L34.85 -7.7 35.15 -7.0 34.7 -5.95 34.65 -5.85 32.35 -2.6 32.35 0.6 32.05 1.85 Q31.8 2.2 31.2 2.2 30.65 2.2 30.35 1.85 30.1 1.45 30.1 0.6 L30.1 -2.6 27.8 -5.85 Q27.3 -6.55 27.3 -7.0 27.3 -7.4 27.6 -7.7 27.9 -8.0 28.4 -8.0 L28.95 -7.75 29.55 -7.1 31.25 -4.7 32.95 -7.15 33.55 -7.75 34.15 -8.0 M24.9 -6.7 L27.45 0.45 27.55 0.9 27.6 1.2 27.25 1.95 26.45 2.25 25.75 2.0 25.25 1.15 25.0 0.25 21.3 0.25 20.95 1.25 20.55 2.0 19.9 2.25 19.1 1.95 Q18.8 1.65 18.8 1.15 L18.85 0.8 18.9 0.5 21.5 -6.55 Q21.8 -7.3 22.2 -7.65 22.6 -8.0 23.25 -8.0 L24.25 -7.65 24.9 -6.7 M21.95 -1.85 L24.35 -1.85 23.2 -5.55 21.95 -1.85 M-24.9 -6.35 L-24.9 -2.45 Q-24.9 -1.1 -24.4 -0.45 -23.9 0.25 -22.9 0.25 -21.9 0.25 -21.4 -0.45 -20.9 -1.1 -20.9 -2.45 L-20.9 -6.35 -20.6 -7.6 Q-20.35 -8.0 -19.75 -8.0 -19.2 -8.0 -18.9 -7.6 -18.65 -7.2 -18.65 -6.35 L-18.65 -2.15 Q-18.65 0.0 -19.75 1.2 -20.9 2.4 -22.9 2.4 -24.9 2.4 -26.05 1.2 -27.15 0.0 -27.15 -2.15 L-27.15 -6.35 -26.9 -7.6 Q-26.6 -8.0 -26.05 -8.0 -25.45 -8.0 -25.2 -7.6 -24.9 -7.2 -24.9 -6.35 M-28.4 -4.75 Q-28.4 -3.7 -29.0 -2.95 -29.65 -2.25 -30.75 -2.05 L-29.0 -0.05 -28.45 0.65 -28.3 1.25 Q-28.3 1.7 -28.6 2.0 -28.9 2.3 -29.4 2.3 L-29.95 2.1 -30.6 1.5 -33.25 -1.85 -33.25 0.6 Q-33.25 1.45 -33.55 1.85 -33.8 2.2 -34.4 2.2 -34.95 2.2 -35.25 1.85 L-35.5 0.6 -35.5 -6.25 Q-35.5 -7.15 -35.15 -7.5 -34.8 -7.85 -33.95 -7.85 L-32.2 -7.85 Q-30.4 -7.85 -29.4 -7.0 -28.4 -6.2 -28.4 -4.75 M-31.15 -5.45 L-32.2 -5.75 -33.25 -5.75 -33.25 -3.35 -32.2 -3.35 Q-31.5 -3.35 -31.15 -3.65 -30.75 -4.0 -30.75 -4.6 -30.75 -5.15 -31.15 -5.45 M-10.15 -7.6 Q-9.85 -8.0 -9.3 -8.0 -8.7 -8.0 -8.45 -7.6 -8.15 -7.2 -8.15 -6.35 L-8.15 0.85 Q-8.15 1.6 -8.4 1.95 -8.65 2.3 -9.2 2.3 L-9.85 2.1 -10.5 1.45 -14.6 -3.95 -14.6 0.6 Q-14.6 1.45 -14.9 1.85 -15.15 2.2 -15.75 2.2 L-16.6 1.85 -16.85 0.6 -16.85 -6.45 -16.6 -7.6 Q-16.35 -7.95 -15.8 -7.95 L-15.2 -7.8 -14.6 -7.25 -10.45 -1.7 -10.45 -6.35 -10.15 -7.6" fill="#999999" fill-rule="evenodd" stroke="none"/>
    <path d="M-37.15 -17.4 Q-40.25 -16.95 -42.6 -14.65 L-43.4 -13.75 -44.6 -12.75 Q-46.95 -10.5 -47.4 -7.5 L-47.5 -7.5 -47.5 5.85 -47.5 6.1 -49.5 6.1 -49.5 -7.95 Q-49.5 -11.9 -46.6 -14.65 -43.65 -17.4 -39.5 -17.4 L-37.15 -17.4 M43.35 -13.75 L42.55 -14.65 Q40.25 -16.95 37.2 -17.4 L39.5 -17.4 Q43.65 -17.4 46.55 -14.65 49.5 -11.9 49.5 -7.95 L49.5 6.1 47.5 6.1 47.5 5.85 47.5 -7.5 47.4 -7.5 Q46.95 -10.5 44.55 -12.75 L43.35 -13.75 M-47.5 6.1 L-47.45 6.65 -47.5 6.65 -47.5 6.95 -47.45 6.95 Q-47.15 10.25 -44.6 12.65 -41.65 15.45 -37.5 15.45 L37.5 15.45 Q41.65 15.45 44.55 12.65 47.15 10.25 47.45 6.95 L47.5 6.95 47.5 6.65 47.5 6.1 49.5 6.1 49.5 7.9 Q49.5 11.8 46.55 14.55 43.65 17.3 39.5 17.35 L-39.5 17.35 Q-43.65 17.3 -46.6 14.55 -49.5 11.8 -49.5 7.9 L-49.5 6.1 -47.5 6.1" fill="#01317e" fill-opacity="0.08235294" fill-rule="evenodd" stroke="none"/>
    <path d="M-43.4 -13.75 Q-45.5 -11.1 -45.5 -7.55 L-45.5 -1.1 Q-45.5 2.75 -44.85 6.1 -44.15 7.95 -42.6 9.5 -39.65 12.45 -35.5 12.45 L35.5 12.45 Q39.65 12.45 42.55 9.5 44.1 7.95 44.85 6.1 45.5 2.75 45.5 -1.1 L45.5 -7.55 Q45.5 -11.1 43.35 -13.75 L44.55 -12.75 Q46.95 -10.5 47.4 -7.5 L47.5 -7.5 47.5 5.85 47.5 6.1 44.85 6.1 47.5 6.1 47.5 6.65 47.5 6.95 47.45 6.95 Q47.15 10.25 44.55 12.65 41.65 15.45 37.5 15.45 L-37.5 15.45 Q-41.65 15.45 -44.6 12.65 -47.15 10.25 -47.45 6.95 L-47.5 6.95 -47.5 6.65 -47.45 6.65 -47.5 6.1 -44.85 6.1 -47.5 6.1 -47.5 5.85 -47.5 -7.5 -47.4 -7.5 Q-46.95 -10.5 -44.6 -12.75 L-43.4 -13.75" fill="#01317e" fill-opacity="0.18039216" fill-rule="evenodd" stroke="none"/>
  </g>
</svg>
