<?xml version="1.0" encoding="UTF-8" standalone="no"?>
<svg xmlns:ffdec="https://www.free-decompiler.com/flash" xmlns:xlink="http://www.w3.org/1999/xlink" ffdec:objectType="shape" height="17.7px" width="30.0px" xmlns="http://www.w3.org/2000/svg">
  <g transform="matrix(1.0, 0.0, 0.0, 1.0, -368.35, 0.9)">
    <path d="M397.55 1.8 L397.65 2.05 397.7 2.1 397.75 2.2 397.8 2.35 397.85 2.4 397.85 2.45 397.95 2.45 397.95 2.55 398.05 3.15 398.15 3.35 398.2 3.55 398.2 3.75 398.2 4.2 398.35 6.1 398.3 6.65 398.25 6.75 397.95 7.55 397.75 7.6 397.75 7.8 397.65 7.85 397.35 8.05 397.2 8.2 392.85 8.05 392.2 7.8 392.0 7.6 391.9 7.55 391.9 8.05 Q391.75 11.15 389.5 13.55 L389.35 13.85 Q387.8 15.7 385.4 16.5 L385.1 16.65 380.65 16.8 379.75 16.8 Q376.45 15.55 374.1 13.0 373.0 11.8 372.8 10.35 L372.4 10.4 372.3 10.1 372.75 9.9 Q372.65 9.1 372.85 8.25 L372.9 8.05 372.9 8.0 372.45 8.05 370.9 8.15 370.75 8.05 370.0 7.8 369.0 6.9 368.95 6.85 368.8 6.65 368.75 6.6 368.5 5.95 368.4 5.6 368.4 5.2 368.35 4.65 368.5 4.4 368.6 4.25 368.6 4.1 369.05 3.55 369.65 3.1 369.75 2.9 370.0 2.8 370.75 2.6 370.8 2.6 370.95 2.6 Q373.05 2.85 374.65 4.45 376.35 1.7 379.0 0.05 L377.75 -0.05 377.6 -0.15 377.6 -0.35 377.7 -0.45 377.85 -0.5 377.9 -0.55 Q382.65 -1.6 386.8 0.45 388.75 1.45 390.2 3.1 L390.55 3.25 390.75 3.45 390.8 3.5 391.3 2.8 Q392.1 1.8 393.15 0.95 L393.2 0.95 393.4 0.9 393.4 0.8 Q395.7 0.25 397.35 1.6 L397.55 1.8 M369.9 3.35 L369.85 3.35 369.9 3.35" fill="#e7e7e7" fill-rule="evenodd" stroke="none"/>
  </g>
</svg>
