<?xml version="1.0" encoding="UTF-8" standalone="no"?>
<svg xmlns:ffdec="https://www.free-decompiler.com/flash" xmlns:xlink="http://www.w3.org/1999/xlink" ffdec:objectType="shape" height="277.2px" width="190.0px" xmlns="http://www.w3.org/2000/svg">
  <g transform="matrix(1.0, 0.0, 0.0, 1.0, -102.05, -96.0)">
    <path d="M109.3 159.65 Q105.8 157.05 102.05 154.75 128.3 125.4 102.05 96.0 L292.05 96.0 Q290.7 236.25 270.05 372.65 261.5 373.45 252.8 373.1 241.0 372.75 231.8 365.8 226.0 361.5 224.65 354.6 222.75 344.6 218.2 335.5 211.15 321.3 196.95 314.4 184.5 308.45 171.6 303.4 162.3 299.8 156.6 291.5 155.25 289.55 155.55 287.15 157.25 274.75 153.55 262.85 152.75 260.2 151.4 257.95 141.85 241.7 123.25 235.5 129.85 230.85 132.9 223.45 139.2 208.15 133.65 192.1 132.1 187.7 129.85 183.75 L124.3 174.7 120.4 169.45 Q115.3 164.1 109.3 159.65" fill="#ff0000" fill-opacity="0.2" fill-rule="evenodd" stroke="none"/>
  </g>
</svg>
