<?xml version="1.0" encoding="UTF-8" standalone="no"?>
<svg xmlns:ffdec="https://www.free-decompiler.com/flash" xmlns:xlink="http://www.w3.org/1999/xlink" ffdec:objectType="shape" height="157.0px" width="216.0px" xmlns="http://www.w3.org/2000/svg">
  <g transform="matrix(1.0, 0.0, 0.0, 1.0, 104.8, 58.1)">
    <path d="M102.95 -57.95 Q106.0 -57.45 108.25 -55.2 111.2 -52.25 111.2 -48.1 L111.2 88.9 Q111.2 93.05 108.25 95.95 105.35 98.9 101.2 98.9 L-94.8 98.9 Q-98.95 98.9 -101.9 95.95 -104.8 93.05 -104.8 88.9 L-104.8 -48.1 Q-104.8 -52.25 -101.9 -55.2 -100.1 -56.95 -97.85 -57.65 L-94.8 -58.1 101.2 -58.1 102.95 -57.95 M93.25 93.9 L97.0 93.9 Q101.15 93.9 104.1 90.95 107.0 88.05 107.0 83.9 L107.0 -43.1 Q107.0 -47.25 104.1 -50.2 102.3 -51.95 100.1 -52.65 L97.0 -53.1 93.2 -53.1 96.1 -52.65 Q98.3 -51.95 100.1 -50.2 103.0 -47.25 103.0 -43.1 L103.0 83.9 Q103.0 88.05 100.1 90.95 97.25 93.8 93.25 93.9 L93.25 93.85 92.25 93.9 93.25 93.9 M-97.9 -50.2 Q-100.8 -47.25 -100.8 -43.1 L-100.8 83.9 Q-100.8 88.05 -97.9 90.95 -94.95 93.9 -90.8 93.9 L-87.05 93.9 Q-91.05 93.8 -93.9 90.95 -96.8 88.05 -96.8 83.9 L-96.8 -43.1 Q-96.8 -47.25 -93.9 -50.2 -92.1 -51.95 -89.85 -52.65 L-87.0 -53.1 -90.8 -53.1 -93.85 -52.65 Q-96.1 -51.95 -97.9 -50.2" fill="#ffffff" fill-rule="evenodd" stroke="none"/>
    <path d="M93.25 93.9 Q97.25 93.8 100.1 90.95 103.0 88.05 103.0 83.9 L103.0 -43.1 Q103.0 -47.25 100.1 -50.2 98.3 -51.95 96.1 -52.65 L93.2 -53.1 97.0 -53.1 100.1 -52.65 Q102.3 -51.95 104.1 -50.2 107.0 -47.25 107.0 -43.1 L107.0 83.9 Q107.0 88.05 104.1 90.95 101.15 93.9 97.0 93.9 L93.25 93.9 M-97.9 -50.2 Q-96.1 -51.95 -93.85 -52.65 L-90.8 -53.1 -87.0 -53.1 -89.85 -52.65 Q-92.1 -51.95 -93.9 -50.2 -96.8 -47.25 -96.8 -43.1 L-96.8 83.9 Q-96.8 88.05 -93.9 90.95 -91.05 93.8 -87.05 93.9 L-90.8 93.9 Q-94.95 93.9 -97.9 90.95 -100.8 88.05 -100.8 83.9 L-100.8 -43.1 Q-100.8 -47.25 -97.9 -50.2" fill="#66cc00" fill-rule="evenodd" stroke="none"/>
  </g>
</svg>
