<?xml version="1.0" encoding="UTF-8" standalone="no"?>
<svg xmlns:ffdec="https://www.free-decompiler.com/flash" xmlns:xlink="http://www.w3.org/1999/xlink" ffdec:objectType="shape" height="31.0px" width="216.0px" xmlns="http://www.w3.org/2000/svg">
  <g transform="matrix(1.0, 0.0, 0.0, 1.0, 0.0, 0.0)">
    <path d="M14.25 25.3 L14.0 26.0 17.75 26.0 Q15.85 25.95 14.25 25.3 M14.95 5.45 L17.8 5.0 14.95 5.0 14.95 5.45 M197.05 26.0 L198.05 26.0 201.8 26.0 201.6 25.3 Q199.95 25.95 198.05 26.0 L198.05 25.95 197.05 26.0 M198.0 5.0 L200.9 5.45 201.5 5.7 201.8 5.0 198.0 5.0 M216.0 10.0 L216.0 21.0 Q216.0 25.15 213.05 28.05 210.15 31.0 206.0 31.0 L10.0 31.0 Q5.85 31.0 2.9 28.05 0.0 25.15 0.0 21.0 L0.0 10.0 Q0.0 5.85 2.9 2.9 4.7 1.15 6.95 0.45 8.35 0.0 10.0 0.0 L206.0 0.0 207.75 0.15 Q210.8 0.65 213.05 2.9 216.0 5.85 216.0 10.0" fill="#ffffff" fill-rule="evenodd" stroke="none"/>
    <path d="M198.0 3.0 L201.8 3.0 204.9 3.45 Q207.1 4.15 208.9 5.9 211.8 8.85 211.8 13.0 L211.8 18.0 Q211.8 22.15 208.9 25.05 205.95 28.0 201.8 28.0 L198.05 28.0 Q202.05 27.9 204.9 25.05 207.8 22.15 207.8 18.0 L207.8 13.0 Q207.8 8.85 204.9 5.9 203.1 4.15 200.9 3.45 L198.0 3.0" fill="#66cc00" fill-rule="evenodd" stroke="none"/>
    <path d="M17.8 3.0 L14.0 3.0 10.9 3.45 Q8.7 4.15 6.9 5.9 4.0 8.85 4.0 13.0 L4.0 18.0 Q4.0 22.15 6.9 25.05 9.85 28.0 14.0 28.0 L17.75 28.0 Q13.75 27.9 10.9 25.05 8.0 22.15 8.0 18.0 L8.0 13.0 Q8.0 8.85 10.9 5.9 12.7 4.15 14.9 3.45 L17.8 3.0" fill="#66cc00" fill-rule="evenodd" stroke="none"/>
  </g>
</svg>
