<?xml version="1.0" encoding="UTF-8" standalone="no"?>
<svg xmlns:ffdec="https://www.free-decompiler.com/flash" xmlns:xlink="http://www.w3.org/1999/xlink" ffdec:objectType="shape" height="95.0px" width="216.0px" xmlns="http://www.w3.org/2000/svg">
  <g transform="matrix(1.0, 0.0, 0.0, 1.0, 104.8, 41.1)">
    <path d="M93.25 48.9 L97.0 48.9 Q101.15 48.9 104.1 45.95 107.0 43.05 107.0 38.9 L107.0 -26.1 Q107.0 -30.25 104.1 -33.2 102.3 -34.95 100.1 -35.65 L98.1 -36.05 97.0 -36.1 93.2 -36.1 94.1 -36.05 96.1 -35.65 Q98.3 -34.95 100.1 -33.2 103.0 -30.25 103.0 -26.1 L103.0 38.9 Q103.0 43.05 100.1 45.95 97.25 48.8 93.25 48.9 L93.25 48.85 92.25 48.9 93.25 48.9 M102.25 -41.05 L102.95 -40.95 Q106.0 -40.45 108.25 -38.2 L109.95 -36.05 Q111.2 -33.85 111.2 -31.1 L111.2 43.9 Q111.2 48.05 108.25 50.95 105.35 53.9 101.2 53.9 L-94.8 53.9 Q-98.95 53.9 -101.9 50.95 -104.8 48.05 -104.8 43.9 L-104.8 -31.1 Q-104.8 -33.85 -103.55 -36.05 L-101.9 -38.2 Q-100.1 -39.95 -97.85 -40.65 L-95.85 -41.05 -94.8 -41.1 101.2 -41.1 102.25 -41.05 M-97.9 -33.2 Q-100.8 -30.25 -100.8 -26.1 L-100.8 38.9 Q-100.8 43.05 -97.9 45.95 -94.95 48.9 -90.8 48.9 L-87.05 48.9 Q-91.05 48.8 -93.9 45.95 -96.8 43.05 -96.8 38.9 L-96.8 -26.1 Q-96.8 -30.25 -93.9 -33.2 -92.1 -34.95 -89.85 -35.65 L-87.85 -36.05 -87.0 -36.1 -90.8 -36.1 -91.85 -36.05 -93.85 -35.65 Q-96.1 -34.95 -97.9 -33.2" fill="#ffffff" fill-rule="evenodd" stroke="none"/>
    <path d="M93.25 48.9 Q97.25 48.8 100.1 45.95 103.0 43.05 103.0 38.9 L103.0 -26.1 Q103.0 -30.25 100.1 -33.2 98.3 -34.95 96.1 -35.65 L94.1 -36.05 93.2 -36.1 97.0 -36.1 98.1 -36.05 100.1 -35.65 Q102.3 -34.95 104.1 -33.2 107.0 -30.25 107.0 -26.1 L107.0 38.9 Q107.0 43.05 104.1 45.95 101.15 48.9 97.0 48.9 L93.25 48.9 M-97.9 -33.2 Q-96.1 -34.95 -93.85 -35.65 L-91.85 -36.05 -90.8 -36.1 -87.0 -36.1 -87.85 -36.05 -89.85 -35.65 Q-92.1 -34.95 -93.9 -33.2 -96.8 -30.25 -96.8 -26.1 L-96.8 38.9 Q-96.8 43.05 -93.9 45.95 -91.05 48.8 -87.05 48.9 L-90.8 48.9 Q-94.95 48.9 -97.9 45.95 -100.8 43.05 -100.8 38.9 L-100.8 -26.1 Q-100.8 -30.25 -97.9 -33.2" fill="#66cc00" fill-rule="evenodd" stroke="none"/>
  </g>
</svg>
