<?xml version="1.0" encoding="UTF-8" standalone="no"?>
<svg xmlns:ffdec="https://www.free-decompiler.com/flash" xmlns:xlink="http://www.w3.org/1999/xlink" ffdec:objectType="shape" height="36.65px" width="77.0px" xmlns="http://www.w3.org/2000/svg">
  <g transform="matrix(1.0, 0.0, 0.0, 1.0, 47.6, 19.3)">
    <path d="M27.4 5.15 L25.4 5.15 25.4 4.9 25.4 -8.45 25.3 -8.45 Q24.85 -11.45 22.45 -13.7 19.55 -16.45 15.4 -16.45 L-33.6 -16.45 Q-37.75 -16.45 -40.7 -13.7 -43.05 -11.45 -43.5 -8.45 L-43.6 -8.45 -43.6 4.9 -43.6 5.15 -45.6 5.15 -45.6 -8.9 Q-45.6 -12.85 -42.7 -15.6 -39.75 -18.35 -35.6 -18.35 L17.4 -18.35 Q21.55 -18.35 24.45 -15.6 27.4 -12.85 27.4 -8.9 L27.4 5.15 27.4 6.95 Q27.4 10.85 24.45 13.6 21.55 16.35 17.4 16.4 L-35.6 16.4 Q-39.75 16.35 -42.7 13.6 -45.6 10.85 -45.6 6.95 L-45.6 5.15 -43.6 5.15 -43.55 5.7 -43.6 5.7 -43.6 6.0 -43.55 6.0 Q-43.25 9.3 -40.7 11.7 -37.75 14.5 -33.6 14.5 L15.4 14.5 Q19.55 14.5 22.45 11.7 25.05 9.3 25.35 6.0 L25.4 6.0 25.4 5.7 25.4 5.15 27.4 5.15" fill="#01317e" fill-opacity="0.08235294" fill-rule="evenodd" stroke="none"/>
    <path d="M-45.6 5.15 L-47.6 5.15 -47.6 -9.85 Q-47.6 -13.8 -44.7 -16.55 -41.75 -19.3 -37.6 -19.3 L19.4 -19.3 Q23.55 -19.3 26.45 -16.55 29.4 -13.8 29.4 -9.85 L29.4 5.15 27.4 5.15 27.4 -8.9 Q27.4 -12.85 24.45 -15.6 21.55 -18.35 17.4 -18.35 L-35.6 -18.35 Q-39.75 -18.35 -42.7 -15.6 -45.6 -12.85 -45.6 -8.9 L-45.6 5.15 -45.6 6.95 Q-45.6 10.85 -42.7 13.6 -39.75 16.35 -35.6 16.4 L17.4 16.4 Q21.55 16.35 24.45 13.6 27.4 10.85 27.4 6.95 L27.4 5.15 29.4 5.15 29.4 7.9 Q29.4 11.8 26.45 14.55 23.55 17.3 19.4 17.35 L-37.6 17.35 Q-41.75 17.3 -44.7 14.55 -47.6 11.8 -47.6 7.9 L-47.6 5.15 -45.6 5.15" fill="#01317e" fill-opacity="0.03137255" fill-rule="evenodd" stroke="none"/>
    <path d="M25.4 5.15 L-43.6 5.15 -43.6 4.9 -43.6 -8.45 -43.5 -8.45 Q-43.05 -11.45 -40.7 -13.7 -37.75 -16.45 -33.6 -16.45 L15.4 -16.45 Q19.55 -16.45 22.45 -13.7 24.85 -11.45 25.3 -8.45 L25.4 -8.45 25.4 4.9 25.4 5.15 25.4 5.7 25.4 6.0 25.35 6.0 Q25.05 9.3 22.45 11.7 19.55 14.5 15.4 14.5 L-33.6 14.5 Q-37.75 14.5 -40.7 11.7 -43.25 9.3 -43.55 6.0 L-43.6 6.0 -43.6 5.7 -43.55 5.7 -43.6 5.15 25.4 5.15" fill="#01317e" fill-opacity="0.18039216" fill-rule="evenodd" stroke="none"/>
  </g>
</svg>
