<?xml version="1.0" encoding="UTF-8" standalone="no"?>
<svg xmlns:ffdec="https://www.free-decompiler.com/flash" xmlns:xlink="http://www.w3.org/1999/xlink" ffdec:objectType="shape" height="30.0px" width="65.0px" xmlns="http://www.w3.org/2000/svg">
  <g transform="matrix(1.0, 0.0, 0.0, 1.0, 41.6, 18.5)">
    <path d="M-31.6 11.5 Q-35.75 11.5 -38.7 8.55 -40.25 7.0 -40.95 5.15 L22.75 5.15 Q22.0 7.0 20.45 8.55 17.55 11.5 13.4 11.5 L-31.6 11.5 M13.4 -18.5 Q17.55 -18.5 20.45 -15.6 23.4 -12.65 23.4 -8.5 L23.4 -2.05 Q23.4 1.8 22.75 5.15 L-40.95 5.15 Q-41.6 1.8 -41.6 -2.05 L-41.6 -8.5 Q-41.6 -12.65 -38.7 -15.6 -35.75 -18.5 -31.6 -18.5 L13.4 -18.5" fill="#ffffff" fill-rule="evenodd" stroke="none"/>
  </g>
</svg>
