<?xml version="1.0" encoding="UTF-8" standalone="no"?>
<svg xmlns:ffdec="https://www.free-decompiler.com/flash" xmlns:xlink="http://www.w3.org/1999/xlink" ffdec:objectType="shape" height="129.0px" width="216.0px" xmlns="http://www.w3.org/2000/svg">
  <g transform="matrix(1.0, 0.0, 0.0, 1.0, 104.8, 59.1)">
    <path d="M101.2 -59.1 L102.95 -58.95 Q106.0 -58.45 108.25 -56.2 111.2 -53.25 111.2 -49.1 L111.2 59.9 Q111.2 64.05 108.25 66.95 105.35 69.9 101.2 69.9 L-94.8 69.9 Q-98.95 69.9 -101.9 66.95 -104.8 64.05 -104.8 59.9 L-104.8 -49.1 Q-104.8 -53.25 -101.9 -56.2 -100.1 -57.95 -97.85 -58.65 L-94.8 -59.1 101.2 -59.1 M93.25 64.9 L97.0 64.9 Q101.15 64.9 104.1 61.95 107.0 59.05 107.0 54.9 L107.0 -44.1 Q107.0 -48.25 104.1 -51.2 102.3 -52.95 100.1 -53.65 L97.0 -54.1 93.2 -54.1 96.1 -53.65 Q98.3 -52.95 100.1 -51.2 103.0 -48.25 103.0 -44.1 L103.0 54.9 Q103.0 59.05 100.1 61.95 97.25 64.8 93.25 64.9 L93.25 64.85 92.25 64.9 93.25 64.9 M-93.85 -53.65 Q-96.1 -52.95 -97.9 -51.2 -100.8 -48.25 -100.8 -44.1 L-100.8 54.9 Q-100.8 59.05 -97.9 61.95 -94.95 64.9 -90.8 64.9 L-87.05 64.9 Q-91.05 64.8 -93.9 61.95 -96.8 59.05 -96.8 54.9 L-96.8 -44.1 Q-96.8 -48.25 -93.9 -51.2 -92.1 -52.95 -89.85 -53.65 L-87.0 -54.1 -90.8 -54.1 -93.85 -53.65" fill="#ffffff" fill-rule="evenodd" stroke="none"/>
    <path d="M93.25 64.9 Q97.25 64.8 100.1 61.95 103.0 59.05 103.0 54.9 L103.0 -44.1 Q103.0 -48.25 100.1 -51.2 98.3 -52.95 96.1 -53.65 L93.2 -54.1 97.0 -54.1 100.1 -53.65 Q102.3 -52.95 104.1 -51.2 107.0 -48.25 107.0 -44.1 L107.0 54.9 Q107.0 59.05 104.1 61.95 101.15 64.9 97.0 64.9 L93.25 64.9 M-93.85 -53.65 L-90.8 -54.1 -87.0 -54.1 -89.85 -53.65 Q-92.1 -52.95 -93.9 -51.2 -96.8 -48.25 -96.8 -44.1 L-96.8 54.9 Q-96.8 59.05 -93.9 61.95 -91.05 64.8 -87.05 64.9 L-90.8 64.9 Q-94.95 64.9 -97.9 61.95 -100.8 59.05 -100.8 54.9 L-100.8 -44.1 Q-100.8 -48.25 -97.9 -51.2 -96.1 -52.95 -93.85 -53.65" fill="#66cc00" fill-rule="evenodd" stroke="none"/>
  </g>
</svg>
