<?xml version="1.0" encoding="UTF-8" standalone="no"?>
<svg xmlns:ffdec="https://www.free-decompiler.com/flash" xmlns:xlink="http://www.w3.org/1999/xlink" ffdec:objectType="shape" height="39.25px" width="38.7px" xmlns="http://www.w3.org/2000/svg">
  <g transform="matrix(1.0, 0.0, 0.0, 1.0, 19.15, 20.15)">
    <path d="M13.75 -14.55 Q19.55 -8.75 19.55 -0.8 19.55 7.1 13.75 12.7 8.1 18.5 0.2 18.5 -7.75 18.5 -13.55 12.7 -19.15 7.1 -19.15 -0.8 -19.15 -8.75 -13.55 -14.55 -7.75 -20.2 0.2 -20.15 8.1 -20.2 13.75 -14.55" fill="#d5eaff" fill-opacity="0.0" fill-rule="evenodd" stroke="none"/>
    <path d="M1.75 -8.9 L1.65 -8.75 Q-0.15 -7.95 -0.6 -9.45 -0.05 -10.4 1.15 -10.5 2.35 -10.05 1.75 -8.9" fill="#ffffff" fill-rule="evenodd" stroke="none"/>
    <path d="M1.75 -8.9 L1.65 -8.75 Q-0.15 -7.95 -0.6 -9.45 -0.05 -10.4 1.15 -10.5 2.35 -10.05 1.75 -8.9 Z" fill="none" stroke="#000000" stroke-linecap="round" stroke-linejoin="round" stroke-width="1.0"/>
    <path d="M14.3 -12.9 L15.9 -12.65 16.3 -12.5 16.5 -12.25 16.75 -11.75 16.85 -11.3 16.85 -11.05 16.6 -10.6 16.3 -10.1 Q14.3 -8.95 12.9 -10.6 L12.7 -11.3 Q12.7 -12.0 13.3 -12.5 L13.6 -12.7 14.3 -12.9" fill="#ffffff" fill-rule="evenodd" stroke="none"/>
    <path d="M14.3 -12.9 L15.9 -12.65 16.3 -12.5 16.5 -12.25 16.75 -11.75 16.85 -11.3 16.85 -11.05 16.6 -10.6 16.3 -10.1 Q14.3 -8.95 12.9 -10.6 L12.7 -11.3 Q12.7 -12.0 13.3 -12.5 L13.6 -12.7 14.3 -12.9 Z" fill="none" stroke="#000000" stroke-linecap="round" stroke-linejoin="round" stroke-width="1.0"/>
    <path d="M11.15 2.85 Q11.55 3.15 11.6 3.55 L11.4 4.55 Q10.25 5.5 9.1 4.55 8.95 3.95 9.1 3.35 9.2 2.75 9.8 2.7 L10.75 2.75 11.15 2.85" fill="#ffffff" fill-rule="evenodd" stroke="none"/>
    <path d="M11.15 2.85 Q11.55 3.15 11.6 3.55 L11.4 4.55 Q10.25 5.5 9.1 4.55 8.95 3.95 9.1 3.35 9.2 2.75 9.8 2.7 L10.75 2.75 11.15 2.85 Z" fill="none" stroke="#000000" stroke-linecap="round" stroke-linejoin="round" stroke-width="1.0"/>
    <path d="M5.75 16.25 L5.85 14.8 5.95 14.55 6.15 14.3 6.4 14.05 6.9 13.85 7.35 13.75 Q11.8 14.75 9.8 18.2 L9.7 18.4 Q8.05 18.95 6.65 18.15 5.8 17.35 5.75 16.25" fill="#ffffff" fill-rule="evenodd" stroke="none"/>
    <path d="M5.75 16.25 L5.85 14.8 5.95 14.55 6.15 14.3 6.4 14.05 6.9 13.85 7.35 13.75 Q11.8 14.75 9.8 18.2 L9.7 18.4 Q8.05 18.95 6.65 18.15 5.8 17.35 5.75 16.25 Z" fill="none" stroke="#000000" stroke-linecap="round" stroke-linejoin="round" stroke-width="1.0"/>
    <path d="M-13.85 -14.1 L-13.45 -13.95 Q-12.5 -12.95 -12.5 -11.55 -12.45 -10.4 -13.45 -9.75 -16.5 -8.55 -18.45 -10.7 L-18.55 -10.95 -18.65 -12.15 -18.45 -12.85 -17.75 -13.6 -16.05 -14.35 -13.85 -14.1" fill="#ffffff" fill-rule="evenodd" stroke="none"/>
    <path d="M-13.85 -14.1 L-13.45 -13.95 Q-12.5 -12.95 -12.5 -11.55 -12.45 -10.4 -13.45 -9.75 -16.5 -8.55 -18.45 -10.7 L-18.55 -10.95 -18.65 -12.15 -18.45 -12.85 -17.75 -13.6 -16.05 -14.35 -13.85 -14.1 Z" fill="none" stroke="#000000" stroke-linecap="round" stroke-linejoin="round" stroke-width="1.0"/>
    <path d="M-6.5 5.85 L-6.3 6.05 -6.3 6.3 -6.5 7.0 -6.65 7.2 Q-8.85 8.15 -9.5 6.45 L-9.5 6.2 Q-9.45 5.45 -8.7 5.45 L-8.7 5.4 Q-7.35 5.0 -6.5 5.85" fill="#ffffff" fill-rule="evenodd" stroke="none"/>
    <path d="M-6.5 5.85 L-6.3 6.05 -6.3 6.3 -6.5 7.0 -6.65 7.2 Q-8.85 8.15 -9.5 6.45 L-9.5 6.2 Q-9.45 5.45 -8.7 5.45 L-8.7 5.4 Q-7.35 5.0 -6.5 5.85 Z" fill="none" stroke="#000000" stroke-linecap="round" stroke-linejoin="round" stroke-width="1.0"/>
  </g>
</svg>
