<?xml version="1.0" encoding="UTF-8" standalone="no"?>
<svg xmlns:ffdec="https://www.free-decompiler.com/flash" xmlns:xlink="http://www.w3.org/1999/xlink" ffdec:objectType="shape" height="49.25px" width="65.85px" xmlns="http://www.w3.org/2000/svg">
  <g transform="matrix(1.0, 0.0, 0.0, 1.0, 31.95, 27.15)">
    <path d="M15.0 -9.6 L14.25 -8.55 Q13.05 -8.5 12.1 -9.4 11.9 -9.45 11.85 -9.6 11.65 -10.1 11.7 -10.55 11.85 -11.25 12.5 -11.75 L12.65 -11.8 12.8 -11.9 13.15 -11.95 14.5 -11.8 14.85 -11.65 Q15.4 -10.8 15.0 -9.6" fill="#ffffff" fill-rule="evenodd" stroke="none"/>
    <path d="M15.0 -9.6 L14.25 -8.55 Q13.05 -8.5 12.1 -9.4 11.9 -9.45 11.85 -9.6 11.65 -10.1 11.7 -10.55 11.85 -11.25 12.5 -11.75 L12.65 -11.8 12.8 -11.9 13.15 -11.95 14.5 -11.8 14.85 -11.65 Q15.4 -10.8 15.0 -9.6 Z" fill="none" stroke="#000000" stroke-linecap="round" stroke-linejoin="round" stroke-width="1.0"/>
    <path d="M5.55 -23.2 L5.55 -23.1 Q6.6 -21.85 5.4 -19.8 L5.4 -19.6 5.2 -19.45 5.05 -19.25 Q4.65 -18.75 3.95 -18.4 L2.75 -18.35 2.45 -18.4 2.4 -18.55 Q0.55 -20.95 2.25 -23.3 L2.65 -23.85 Q2.75 -24.25 3.45 -24.4 5.25 -25.3 5.15 -23.85 L5.55 -23.2" fill="#ffffff" fill-rule="evenodd" stroke="none"/>
    <path d="M5.55 -23.2 L5.55 -23.1 Q6.6 -21.85 5.4 -19.8 L5.4 -19.6 5.2 -19.45 5.05 -19.25 Q4.65 -18.75 3.95 -18.4 L2.75 -18.35 2.45 -18.4 2.4 -18.55 Q0.55 -20.95 2.25 -23.3 L2.65 -23.85 Q2.75 -24.25 3.45 -24.4 5.25 -25.3 5.15 -23.85 L5.55 -23.2 Z" fill="none" stroke="#000000" stroke-linecap="round" stroke-linejoin="round" stroke-width="1.0"/>
    <path d="M30.1 -9.3 L31.0 -9.4 32.15 -9.55 Q32.9 -9.75 33.15 -8.65 33.7 -8.0 33.1 -7.35 32.7 -6.45 30.95 -6.1 29.75 -5.4 29.45 -6.5 L28.95 -7.25 Q28.35 -9.05 30.1 -9.3" fill="#ffffff" fill-rule="evenodd" stroke="none"/>
    <path d="M30.1 -9.3 L31.0 -9.4 32.15 -9.55 Q32.9 -9.75 33.15 -8.65 33.7 -8.0 33.1 -7.35 32.7 -6.45 30.95 -6.1 29.75 -5.4 29.45 -6.5 L28.95 -7.25 Q28.35 -9.05 30.1 -9.3 Z" fill="none" stroke="#000000" stroke-linecap="round" stroke-linejoin="round" stroke-width="1.0"/>
    <path d="M20.45 10.45 L19.8 9.25 20.05 8.25 22.15 7.9 Q23.15 7.85 23.6 9.35 L23.85 10.05 23.2 10.6 Q21.65 11.7 20.45 10.45" fill="#ffffff" fill-rule="evenodd" stroke="none"/>
    <path d="M20.45 10.45 L19.8 9.25 20.05 8.25 22.15 7.9 Q23.15 7.85 23.6 9.35 L23.85 10.05 23.2 10.6 Q21.65 11.7 20.45 10.45 Z" fill="none" stroke="#000000" stroke-linecap="round" stroke-linejoin="round" stroke-width="1.0"/>
    <path d="M9.5 12.1 Q10.65 12.4 10.45 13.5 9.7 14.6 8.7 14.3 L7.85 13.9 Q6.95 12.8 7.9 12.35 8.95 11.6 9.5 12.1" fill="#ffffff" fill-rule="evenodd" stroke="none"/>
    <path d="M9.5 12.1 Q10.65 12.4 10.45 13.5 9.7 14.6 8.7 14.3 L7.85 13.9 Q6.95 12.8 7.9 12.35 8.95 11.6 9.5 12.1 Z" fill="none" stroke="#000000" stroke-linecap="round" stroke-linejoin="round" stroke-width="1.0"/>
    <path d="M-22.7 -3.4 L-22.65 -4.5 -21.95 -5.35 Q-20.15 -5.95 -19.95 -4.65 L-19.65 -3.9 -19.85 -2.7 -20.95 -2.4 Q-22.45 -1.55 -22.7 -3.4" fill="#ffffff" fill-rule="evenodd" stroke="none"/>
    <path d="M-22.7 -3.4 L-22.65 -4.5 -21.95 -5.35 Q-20.15 -5.95 -19.95 -4.65 L-19.65 -3.9 -19.85 -2.7 -20.95 -2.4 Q-22.45 -1.55 -22.7 -3.4 Z" fill="none" stroke="#000000" stroke-linecap="round" stroke-linejoin="round" stroke-width="1.0"/>
    <path d="M-24.8 -24.7 L-25.35 -24.15 -26.5 -24.3 Q-27.65 -25.1 -26.5 -26.2 L-24.6 -26.1 -24.8 -24.7" fill="#ffffff" fill-rule="evenodd" stroke="none"/>
    <path d="M-24.8 -24.7 L-25.35 -24.15 -26.5 -24.3 Q-27.65 -25.1 -26.5 -26.2 L-24.6 -26.1 -24.8 -24.7 Z" fill="none" stroke="#000000" stroke-linecap="round" stroke-linejoin="round" stroke-width="1.0"/>
    <path d="M-6.05 17.65 L-3.4 17.8 Q-2.7 21.7 -4.65 21.6 L-7.7 21.1 -7.0 18.25 -6.05 17.65" fill="#ffffff" fill-rule="evenodd" stroke="none"/>
    <path d="M-6.05 17.65 L-3.4 17.8 Q-2.7 21.7 -4.65 21.6 L-7.7 21.1 -7.0 18.25 -6.05 17.65 Z" fill="none" stroke="#000000" stroke-linecap="round" stroke-linejoin="round" stroke-width="1.0"/>
    <path d="M-29.6 16.6 Q-28.4 16.1 -27.7 17.15 -27.2 18.25 -28.1 19.05 L-31.0 19.1 Q-31.9 18.35 -31.0 17.6 -30.3 16.15 -29.6 16.6" fill="#ffffff" fill-rule="evenodd" stroke="none"/>
    <path d="M-29.6 16.6 Q-28.4 16.1 -27.7 17.15 -27.2 18.25 -28.1 19.05 L-31.0 19.1 Q-31.9 18.35 -31.0 17.6 -30.3 16.15 -29.6 16.6 Z" fill="none" stroke="#000000" stroke-linecap="round" stroke-linejoin="round" stroke-width="1.0"/>
  </g>
</svg>
