<?xml version="1.0" encoding="UTF-8" standalone="no"?>
<svg xmlns:ffdec="https://www.free-decompiler.com/flash" xmlns:xlink="http://www.w3.org/1999/xlink" ffdec:objectType="shape" height="5.4px" width="5.4px" xmlns="http://www.w3.org/2000/svg">
  <g transform="matrix(1.0, 0.0, 0.0, 1.0, 0.5, 0.5)">
    <path d="M0.0 2.2 Q0.0 1.3 0.6 0.6 1.3 0.0 2.2 0.0 3.1 0.0 3.7 0.6 4.4 1.3 4.4 2.2 4.4 3.1 3.7 3.7 3.1 4.4 2.2 4.4 1.3 4.4 0.6 3.7 0.0 3.1 0.0 2.2 Z" fill="none" stroke="#000000" stroke-linecap="round" stroke-linejoin="round" stroke-width="1.0"/>
    <path d="M0.0 2.2 Q0.0 1.3 0.6 0.6 1.3 0.0 2.2 0.0 3.1 0.0 3.7 0.6 4.4 1.3 4.4 2.2 4.4 3.1 3.7 3.7 3.1 4.4 2.2 4.4 1.3 4.4 0.6 3.7 0.0 3.1 0.0 2.2" fill="url(#gradient0)" fill-rule="evenodd" stroke="none"/>
    <path d="M1.8 1.0 L2.3 1.2 2.5 1.7 2.3 2.2 Q2.1 2.4 1.8 2.4 L1.3 2.2 1.1 1.7 1.3 1.2 1.8 1.0" fill="#ffffff" fill-rule="evenodd" stroke="none"/>
  </g>
  <defs>
    <radialGradient cx="0" cy="0" gradientTransform="matrix(0.0045, 0.0, 0.0, 0.0045, 1.7, 1.8)" gradientUnits="userSpaceOnUse" id="gradient0" r="819.2" spreadMethod="pad">
      <stop offset="0.0" stop-color="#bacbcf"/>
      <stop offset="1.0" stop-color="#243131"/>
    </radialGradient>
  </defs>
</svg>
