<?xml version="1.0" encoding="UTF-8" standalone="no"?>
<svg xmlns:ffdec="https://www.free-decompiler.com/flash" xmlns:xlink="http://www.w3.org/1999/xlink" ffdec:objectType="shape" height="27.6px" width="29.55px" xmlns="http://www.w3.org/2000/svg">
  <g transform="matrix(1.0, 0.0, 0.0, 1.0, -3.95, 1.05)">
    <path d="M30.6 6.6 L30.65 6.6 30.55 6.9 30.5 7.15 30.45 7.1 30.5 6.7 30.55 6.7 30.6 6.6" fill="#ff0000" fill-rule="evenodd" stroke="none"/>
    <path d="M31.15 1.75 L31.5 2.6 31.05 3.15 31.3 3.7 30.85 4.05 30.95 4.1 30.75 4.8 30.85 4.8 31.0 4.9 31.0 4.95 31.1 5.25 30.8 6.35 30.75 6.35 30.05 7.5 29.9 7.8 29.5 8.05 29.05 8.2 28.9 8.5 28.75 8.65 28.65 8.65 28.85 8.85 28.9 9.0 Q28.65 14.25 25.3 18.45 20.9 24.0 14.0 24.55 11.85 24.7 9.95 23.65 L7.85 22.0 7.7 22.05 7.65 22.1 7.6 22.0 7.35 21.65 7.1 21.5 7.35 21.35 7.25 21.35 7.2 21.15 Q6.6 20.25 6.35 19.2 L6.75 19.65 7.05 19.35 7.0 19.2 6.65 19.45 Q5.15 15.7 6.9 11.5 L8.25 8.4 Q8.6 7.65 9.2 7.05 14.8 1.35 22.65 2.1 L24.8 2.25 24.85 2.3 25.05 2.3 25.2 2.1 25.4 2.1 25.7 2.2 26.95 1.75 27.15 1.65 27.45 2.0 27.5 2.1 27.45 2.2 27.75 1.9 27.9 1.7 28.15 1.6 28.75 1.05 29.5 0.95 29.65 1.15 30.25 1.3 30.05 2.2 30.55 2.3 31.15 1.75 Z" fill="none" stroke="#ffffff" stroke-linecap="round" stroke-linejoin="round" stroke-width="4.0"/>
  </g>
</svg>
