<?xml version="1.0" encoding="UTF-8" standalone="no"?>
<svg xmlns:ffdec="https://www.free-decompiler.com/flash" xmlns:xlink="http://www.w3.org/1999/xlink" ffdec:objectType="shape" height="28.45px" width="27.55px" xmlns="http://www.w3.org/2000/svg">
  <g transform="matrix(1.0, 0.0, 0.0, 1.0, -4.6, 1.5)">
    <path d="M26.35 2.95 L25.95 2.45 25.85 2.45 25.75 2.35 25.65 2.25 Q21.25 -0.1 16.0 0.7 12.35 1.0 9.55 3.65 7.95 5.15 7.0 7.1 L7.0 7.2 Q6.8 7.8 6.75 8.5 L6.65 9.9 6.7 13.4 Q7.1 21.35 14.65 24.85 L14.8 24.9 Q21.7 25.45 27.1 21.15 L27.15 21.15 Q28.85 19.75 29.45 17.75 31.35 10.6 28.05 4.75 L27.95 4.65 26.75 3.55 26.4 3.0 26.35 2.95 Z" fill="none" stroke="#ffffff" stroke-linecap="round" stroke-linejoin="round" stroke-width="4.0"/>
  </g>
</svg>
