<?xml version="1.0" encoding="UTF-8" standalone="no"?>
<svg xmlns:ffdec="https://www.free-decompiler.com/flash" xmlns:xlink="http://www.w3.org/1999/xlink" ffdec:objectType="shape" height="28.25px" width="37.0px" xmlns="http://www.w3.org/2000/svg">
  <g transform="matrix(1.0, 0.0, 0.0, 1.0, 0.15, 0.3)">
    <path d="M28.75 1.7 L27.5 2.0 27.5 4.2 28.95 5.05 28.75 5.25 27.5 5.8 Q23.35 13.8 14.75 16.5 8.4 18.45 1.85 18.95 L1.85 21.7 1.85 21.75 Q2.6 22.5 3.65 23.05 L4.2 23.95 Q11.3 26.75 18.9 25.6 23.6 25.1 27.6 22.65 33.25 19.1 33.8 12.45 35.25 10.5 34.7 8.0 34.25 5.8 33.1 3.8 L28.75 1.7 Z" fill="none" stroke="#ffffff" stroke-linecap="round" stroke-linejoin="round" stroke-width="4.0"/>
  </g>
</svg>
