<?xml version="1.0" encoding="UTF-8" standalone="no"?>
<svg xmlns:ffdec="https://www.free-decompiler.com/flash" xmlns:xlink="http://www.w3.org/1999/xlink" ffdec:objectType="shape" height="333.4px" width="34.75px" xmlns="http://www.w3.org/2000/svg">
  <g transform="matrix(1.0, 0.0, 0.0, 1.0, 17.35, 167.05)">
    <path d="M1.15 -138.3 Q1.15 -139.95 0.45 -141.95 -1.05 -146.45 -7.6 -146.3 L-14.65 -146.0 -16.6 -145.6 -16.6 -166.3 -12.3 -164.6 Q9.7 -147.55 4.85 -125.55 1.6 -108.5 0.55 -97.3 -0.3 -95.15 -0.75 -93.0 -4.35 -77.0 -2.25 -59.55 L-4.95 -54.2 -4.95 -48.8 -4.05 -47.0 -3.65 -46.95 Q-1.2 -45.3 1.0 -43.15 L0.95 -42.7 Q7.7 -31.35 8.7 -18.4 9.1 -13.45 8.4 -8.55 L7.65 -7.15 8.1 -3.55 9.4 -1.35 Q9.0 8.2 4.9 14.55 L1.5 17.8 1.2 18.45 -1.2 19.95 -2.4 21.15 -5.15 22.35 -4.8 22.4 -3.0 23.25 -1.85 23.4 2.1 25.05 2.4 25.7 2.65 25.7 2.7 26.45 3.05 26.9 4.95 53.3 11.3 60.05 10.75 60.9 9.4 61.35 Q8.8 62.6 7.65 63.25 3.95 65.5 0.9 69.0 1.05 70.05 2.25 70.65 7.0 72.95 10.75 76.15 L12.1 78.4 Q15.15 82.75 12.95 88.7 L12.95 91.8 14.75 94.05 Q15.05 98.9 13.8 102.55 11.8 108.35 12.95 115.55 L13.75 117.15 Q13.3 133.7 16.35 153.15 L12.1 155.4 9.85 159.0 9.85 159.45 Q9.9 163.4 11.3 166.3 5.9 166.75 -16.6 160.6 L-16.6 -136.25 Q-13.85 -138.45 -11.45 -141.05 L-9.4 -143.5 -8.45 -143.5 -6.5 -143.5 -6.25 -143.45 -3.65 -142.9 Q-2.55 -142.45 -1.8 -141.7 L-0.9 -140.2 -1.2 -136.25 -1.5 -135.95 -2.95 -134.95 -4.55 -134.45 -5.15 -134.45 Q-6.2 -134.75 -7.0 -135.4 L-7.25 -135.65 -7.85 -136.55 -7.85 -139.6 -6.95 -141.1 -5.15 -141.7 -7.55 -141.7 -7.6 -141.55 Q-9.5 -141.0 -10.7 -139.2 L-11.2 -138.35 -11.0 -137.15 Q-10.6 -134.85 -9.4 -132.95 L-7.85 -132.0 -4.25 -132.0 Q1.2 -133.55 1.15 -138.3" fill="#ffffff" fill-rule="evenodd" stroke="none"/>
    <path d="M1.15 -138.3 Q1.2 -133.55 -4.25 -132.0 L-7.85 -132.0 -9.4 -132.95 Q-10.6 -134.85 -11.0 -137.15 L-11.2 -138.35 -10.7 -139.2 Q-9.5 -141.0 -7.6 -141.55 L-7.55 -141.7 -5.15 -141.7 -6.95 -141.1 -7.85 -139.6 -7.85 -136.55 -7.25 -135.65 -7.0 -135.4 Q-6.2 -134.75 -5.15 -134.45 L-4.55 -134.45 -2.95 -134.95 -1.5 -135.95 -1.2 -136.25 -0.9 -140.2 -1.8 -141.7 Q-2.55 -142.45 -3.65 -142.9 L-6.25 -143.45 -6.5 -143.5 -8.45 -143.5 -9.4 -143.5 -11.45 -141.05 Q-13.85 -138.45 -16.6 -136.25 L-16.6 -145.6 -14.65 -146.0 -7.6 -146.3 Q-1.05 -146.45 0.45 -141.95 1.15 -139.95 1.15 -138.3" fill="#def2fe" fill-rule="evenodd" stroke="none"/>
    <path d="M1.55 -66.75 Q2.6 -60.3 2.05 -54.15 L1.0 -43.15 Q-1.2 -45.3 -3.65 -46.95 L-4.05 -47.0 -4.95 -48.8 -4.95 -54.2 -2.25 -59.55 Q-4.35 -77.0 -0.75 -93.0 -0.3 -95.15 0.55 -97.3 -0.2 -90.1 0.0 -85.35 0.45 -73.2 1.55 -66.75 M8.1 -3.55 L7.65 -7.15 8.4 -8.55 8.05 -6.45 Q10.85 -2.45 10.0 2.55 9.35 6.5 8.35 10.35 6.9 15.85 4.85 21.05 L4.1 22.75 3.25 24.55 2.9 25.2 3.05 26.9 2.7 26.45 2.65 25.7 2.4 25.7 2.1 25.05 -1.85 23.4 -3.0 23.25 -4.8 22.4 -5.15 22.35 -2.4 21.15 -1.2 19.95 1.2 18.45 1.5 17.8 4.9 14.55 Q9.0 8.2 9.4 -1.35 L8.1 -3.55 M11.65 60.4 Q12.7 74.3 16.65 87.2 15.3 91.35 15.95 95.5 14.0 105.6 13.75 117.15 L12.95 115.55 Q11.8 108.35 13.8 102.55 15.05 98.9 14.75 94.05 L12.95 91.8 12.95 88.7 Q15.15 82.75 12.1 78.4 L10.75 76.15 Q7.0 72.95 2.25 70.65 1.05 70.05 0.9 69.0 3.95 65.5 7.65 63.25 8.8 62.6 9.4 61.35 L10.75 60.9 11.3 60.05 11.65 60.4 M16.35 153.15 L16.5 154.3 16.6 154.35 16.2 155.25 Q14.25 159.95 12.9 164.9 13.45 166.1 11.3 166.3 9.9 163.4 9.85 159.45 L9.85 159.0 12.1 155.4 16.35 153.15" fill="#caeafe" fill-rule="evenodd" stroke="none"/>
    <path d="M-16.6 -166.3 L-12.3 -164.6 Q9.7 -147.55 4.85 -125.55 -0.45 -97.5 0.0 -85.35 0.45 -73.2 1.55 -66.75 2.6 -60.3 2.05 -54.15 L0.95 -42.7 Q7.7 -31.35 8.7 -18.4 9.2 -12.4 8.05 -6.45 10.85 -2.45 10.0 2.55 8.25 13.1 4.1 22.75 L2.9 25.2 4.95 53.3 11.65 60.4 Q12.7 74.3 16.65 87.2 15.3 91.35 15.95 95.5 11.15 120.55 16.5 154.3 L16.6 154.35 16.2 155.25 Q14.25 159.95 12.9 164.9" fill="none" stroke="#000000" stroke-linecap="round" stroke-linejoin="round" stroke-width="1.5"/>
  </g>
</svg>
