<?xml version="1.0" encoding="UTF-8" standalone="no"?>
<svg xmlns:ffdec="https://www.free-decompiler.com/flash" xmlns:xlink="http://www.w3.org/1999/xlink" ffdec:objectType="shape" height="36.0px" width="181.05px" xmlns="http://www.w3.org/2000/svg">
  <g transform="matrix(1.0, 0.0, 0.0, 1.0, 220.05, 71.7)">
    <path d="M-212.55 -71.7 L-55.15 -71.7 Q-52.05 -71.7 -49.85 -69.5 -47.65 -67.3 -47.65 -64.2 L-47.65 -43.2 Q-47.65 -40.1 -49.85 -37.9 -52.05 -35.7 -55.15 -35.7 L-212.55 -35.7 Q-215.65 -35.7 -217.85 -37.9 -220.05 -40.1 -220.05 -43.2 L-220.05 -64.2 Q-220.05 -67.3 -217.85 -69.5 -215.65 -71.7 -212.55 -71.7 M-212.55 -70.2 Q-215.05 -70.2 -216.8 -68.45 -218.55 -66.7 -218.55 -64.2 L-218.55 -43.2 Q-218.55 -40.7 -216.8 -38.95 -215.05 -37.2 -212.55 -37.2 L-55.15 -37.2 Q-52.65 -37.2 -50.9 -38.95 -49.15 -40.7 -49.15 -43.2 L-49.15 -64.2 Q-49.15 -66.7 -50.9 -68.45 -52.65 -70.2 -55.15 -70.2 L-212.55 -70.2" fill="#003366" fill-opacity="0.2" fill-rule="evenodd" stroke="none"/>
    <path d="M-212.55 -70.2 L-55.15 -70.2 Q-52.65 -70.2 -50.9 -68.45 -49.15 -66.7 -49.15 -64.2 L-49.15 -43.2 Q-49.15 -40.7 -50.9 -38.95 -52.65 -37.2 -55.15 -37.2 L-212.55 -37.2 Q-215.05 -37.2 -216.8 -38.95 -218.55 -40.7 -218.55 -43.2 L-218.55 -64.2 Q-218.55 -66.7 -216.8 -68.45 -215.05 -70.2 -212.55 -70.2" fill="#ffffff" fill-rule="evenodd" stroke="none"/>
    <path d="M-47.65 -58.7 L-39.15 -42.1 -39.0 -41.25 -39.4 -40.45 -40.15 -39.95 -41.05 -40.05 -47.55 -42.65 -47.65 -42.7 -47.65 -44.35 -47.55 -44.3 -40.5 -41.45 -47.65 -55.45 -47.65 -58.7" fill="#003366" fill-opacity="0.2" fill-rule="evenodd" stroke="none"/>
    <path d="M-49.15 -44.95 L-49.25 -45.0 -49.25 -58.6 -40.5 -41.45 -49.0 -44.9 -49.15 -44.95" fill="#ffffff" fill-rule="evenodd" stroke="none"/>
  </g>
</svg>
