<?xml version="1.0" encoding="UTF-8" standalone="no"?>
<svg xmlns:ffdec="https://www.free-decompiler.com/flash" xmlns:xlink="http://www.w3.org/1999/xlink" ffdec:objectType="shape" height="36.0px" width="181.05px" xmlns="http://www.w3.org/2000/svg">
  <g transform="matrix(1.0, 0.0, 0.0, 1.0, -38.95, 71.7)">
    <path d="M50.85 -68.45 Q52.6 -70.2 55.1 -70.2 L212.5 -70.2 Q215.0 -70.2 216.75 -68.45 218.5 -66.7 218.5 -64.2 L218.5 -43.2 Q218.5 -40.7 216.75 -38.95 215.0 -37.2 212.5 -37.2 L55.1 -37.2 Q52.6 -37.2 50.85 -38.95 49.1 -40.7 49.1 -43.2 L49.1 -64.2 Q49.1 -66.7 50.85 -68.45" fill="#ffffff" fill-rule="evenodd" stroke="none"/>
    <path d="M50.85 -68.45 Q49.1 -66.7 49.1 -64.2 L49.1 -43.2 Q49.1 -40.7 50.85 -38.95 52.6 -37.2 55.1 -37.2 L212.5 -37.2 Q215.0 -37.2 216.75 -38.95 218.5 -40.7 218.5 -43.2 L218.5 -64.2 Q218.5 -66.7 216.75 -68.45 215.0 -70.2 212.5 -70.2 L55.1 -70.2 Q52.6 -70.2 50.85 -68.45 M49.8 -69.5 Q52.0 -71.7 55.1 -71.7 L212.5 -71.7 Q215.6 -71.7 217.8 -69.5 220.0 -67.3 220.0 -64.2 L220.0 -43.2 Q220.0 -40.1 217.8 -37.9 215.6 -35.7 212.5 -35.7 L55.1 -35.7 Q52.0 -35.7 49.8 -37.9 47.6 -40.1 47.6 -43.2 L47.6 -64.2 Q47.6 -67.3 49.8 -69.5" fill="#003366" fill-opacity="0.2" fill-rule="evenodd" stroke="none"/>
    <path d="M47.6 -58.7 L47.6 -55.45 40.45 -41.45 47.6 -44.35 47.6 -42.7 41.05 -40.05 40.15 -39.95 Q39.65 -40.1 39.35 -40.45 39.05 -40.8 39.0 -41.25 38.9 -41.7 39.15 -42.1 L47.6 -58.7" fill="#003366" fill-opacity="0.2" fill-rule="evenodd" stroke="none"/>
    <path d="M49.15 -58.5 L49.15 -44.95 40.45 -41.45 49.15 -58.5" fill="#ffffff" fill-rule="evenodd" stroke="none"/>
  </g>
</svg>
