<?xml version="1.0" encoding="UTF-8" standalone="no"?>
<svg xmlns:ffdec="https://www.free-decompiler.com/flash" xmlns:xlink="http://www.w3.org/1999/xlink" ffdec:objectType="shape" height="36.0px" width="172.4px" xmlns="http://www.w3.org/2000/svg">
  <g transform="matrix(1.0, 0.0, 0.0, 1.0, 86.2, 18.0)">
    <path d="M82.95 -14.75 Q81.2 -16.5 78.7 -16.5 L-78.7 -16.5 Q-81.2 -16.5 -82.95 -14.75 -84.7 -13.0 -84.7 -10.5 L-84.7 10.5 Q-84.7 13.0 -82.95 14.75 -81.2 16.5 -78.7 16.5 L78.7 16.5 Q81.2 16.5 82.95 14.75 84.7 13.0 84.7 10.5 L84.7 -10.5 Q84.7 -13.0 82.95 -14.75 M84.0 -15.8 Q86.2 -13.6 86.2 -10.5 L86.2 10.5 Q86.2 13.6 84.0 15.8 81.8 18.0 78.7 18.0 L-78.7 18.0 Q-81.8 18.0 -84.0 15.8 -86.2 13.6 -86.2 10.5 L-86.2 -10.5 Q-86.2 -13.6 -84.0 -15.8 -81.8 -18.0 -78.7 -18.0 L78.7 -18.0 Q81.8 -18.0 84.0 -15.8" fill="#003366" fill-opacity="0.2" fill-rule="evenodd" stroke="none"/>
    <path d="M82.95 -14.75 Q84.7 -13.0 84.7 -10.5 L84.7 10.5 Q84.7 13.0 82.95 14.75 81.2 16.5 78.7 16.5 L-78.7 16.5 Q-81.2 16.5 -82.95 14.75 -84.7 13.0 -84.7 10.5 L-84.7 -10.5 Q-84.7 -13.0 -82.95 -14.75 -81.2 -16.5 -78.7 -16.5 L78.7 -16.5 Q81.2 -16.5 82.95 -14.75" fill="#ffffff" fill-rule="evenodd" stroke="none"/>
  </g>
</svg>
