<?xml version="1.0" encoding="UTF-8" standalone="no"?>
<svg xmlns:ffdec="https://www.free-decompiler.com/flash" xmlns:xlink="http://www.w3.org/1999/xlink" ffdec:objectType="shape" height="55.0px" width="182.4px" xmlns="http://www.w3.org/2000/svg">
  <g transform="matrix(1.0, 0.0, 0.0, 1.0, 91.2, 29.5)">
    <path d="M83.7 -28.0 Q86.2 -28.0 87.95 -26.25 89.7 -24.5 89.7 -22.0 L89.7 18.0 Q89.7 20.5 87.95 22.25 86.2 24.0 83.7 24.0 L-83.7 24.0 Q-86.2 24.0 -87.95 22.25 -89.7 20.5 -89.7 18.0 L-89.7 -22.0 Q-89.7 -24.5 -87.95 -26.25 -86.2 -28.0 -83.7 -28.0 L83.7 -28.0" fill="#ffffff" fill-rule="evenodd" stroke="none"/>
    <path d="M83.7 -28.0 L-83.7 -28.0 Q-86.2 -28.0 -87.95 -26.25 -89.7 -24.5 -89.7 -22.0 L-89.7 18.0 Q-89.7 20.5 -87.95 22.25 -86.2 24.0 -83.7 24.0 L83.7 24.0 Q86.2 24.0 87.95 22.25 89.7 20.5 89.7 18.0 L89.7 -22.0 Q89.7 -24.5 87.95 -26.25 86.2 -28.0 83.7 -28.0 M89.0 -27.3 Q91.2 -25.1 91.2 -22.0 L91.2 18.0 Q91.2 21.1 89.0 23.3 86.8 25.5 83.7 25.5 L-83.7 25.5 Q-86.8 25.5 -89.0 23.3 -91.2 21.1 -91.2 18.0 L-91.2 -22.0 Q-91.2 -25.1 -89.0 -27.3 -86.8 -29.5 -83.7 -29.5 L83.7 -29.5 Q86.8 -29.5 89.0 -27.3" fill="#003366" fill-opacity="0.2" fill-rule="evenodd" stroke="none"/>
  </g>
</svg>
