<?xml version="1.0" encoding="UTF-8" standalone="no"?>
<svg xmlns:ffdec="https://www.free-decompiler.com/flash" xmlns:xlink="http://www.w3.org/1999/xlink" ffdec:objectType="shape" height="2.0px" width="157.0px" xmlns="http://www.w3.org/2000/svg">
  <g transform="matrix(1.0, 0.0, 0.0, 1.0, 78.5, 1.0)">
    <path d="M18.2 -0.7 L18.5 0.0 18.2 0.7 17.5 1.0 Q17.1 1.0 16.8 0.7 16.5 0.4 16.5 0.0 16.5 -0.4 16.8 -0.7 17.1 -1.0 17.5 -1.0 L18.2 -0.7 M12.5 -1.0 L13.2 -0.7 13.5 0.0 13.2 0.7 12.5 1.0 Q12.1 1.0 11.8 0.7 11.5 0.4 11.5 0.0 11.5 -0.4 11.8 -0.7 12.1 -1.0 12.5 -1.0 M7.5 -1.0 Q7.9 -1.0 8.2 -0.7 L8.5 0.0 8.2 0.7 Q7.9 1.0 7.5 1.0 L6.8 0.7 Q6.5 0.4 6.5 0.0 6.5 -0.4 6.8 -0.7 L7.5 -1.0 M2.5 -1.0 Q2.9 -1.0 3.2 -0.7 L3.5 0.0 3.2 0.7 Q2.9 1.0 2.5 1.0 L1.8 0.7 Q1.5 0.4 1.5 0.0 1.5 -0.4 1.8 -0.7 L2.5 -1.0 M37.5 -1.0 Q37.9 -1.0 38.2 -0.7 L38.5 0.0 38.2 0.7 Q37.9 1.0 37.5 1.0 L36.8 0.7 36.5 0.0 36.8 -0.7 37.5 -1.0 M33.2 -0.7 L33.5 0.0 33.2 0.7 32.5 1.0 Q32.1 1.0 31.8 0.7 31.5 0.4 31.5 0.0 31.5 -0.4 31.8 -0.7 32.1 -1.0 32.5 -1.0 L33.2 -0.7 M27.5 -1.0 L28.2 -0.7 28.5 0.0 28.2 0.7 27.5 1.0 Q27.1 1.0 26.8 0.7 26.5 0.4 26.5 0.0 26.5 -0.4 26.8 -0.7 27.1 -1.0 27.5 -1.0 M22.5 -1.0 L23.2 -0.7 23.5 0.0 23.2 0.7 22.5 1.0 21.8 0.7 Q21.5 0.4 21.5 0.0 21.5 -0.4 21.8 -0.7 L22.5 -1.0 M58.2 -0.7 L58.5 0.0 58.2 0.7 57.5 1.0 Q57.1 1.0 56.8 0.7 56.5 0.4 56.5 0.0 56.5 -0.4 56.8 -0.7 57.1 -1.0 57.5 -1.0 L58.2 -0.7 M52.5 -1.0 L53.2 -0.7 53.5 0.0 53.2 0.7 52.5 1.0 51.8 0.7 Q51.5 0.4 51.5 0.0 51.5 -0.4 51.8 -0.7 L52.5 -1.0 M47.5 -1.0 L48.2 -0.7 48.5 0.0 48.2 0.7 47.5 1.0 46.8 0.7 Q46.5 0.4 46.5 0.0 46.5 -0.4 46.8 -0.7 L47.5 -1.0 M42.5 -1.0 L43.2 -0.7 43.5 0.0 43.2 0.7 42.5 1.0 Q42.1 1.0 41.8 0.7 41.5 0.4 41.5 0.0 41.5 -0.4 41.8 -0.7 42.1 -1.0 42.5 -1.0 M77.5 -1.0 L78.2 -0.7 78.5 0.0 78.2 0.7 77.5 1.0 76.8 0.7 Q76.5 0.4 76.5 0.0 76.5 -0.4 76.8 -0.7 L77.5 -1.0 M73.2 -0.7 L73.5 0.0 73.2 0.7 72.5 1.0 71.8 0.7 Q71.5 0.4 71.5 0.0 71.5 -0.4 71.8 -0.7 L72.5 -1.0 73.2 -0.7 M67.5 -1.0 L68.2 -0.7 68.5 0.0 68.2 0.7 67.5 1.0 Q67.1 1.0 66.8 0.7 L66.5 0.0 66.8 -0.7 Q67.1 -1.0 67.5 -1.0 M62.5 -1.0 L63.2 -0.7 63.5 0.0 63.2 0.7 62.5 1.0 Q62.1 1.0 61.8 0.7 61.5 0.4 61.5 0.0 61.5 -0.4 61.8 -0.7 62.1 -1.0 62.5 -1.0 M-61.8 -0.7 Q-61.5 -0.4 -61.5 0.0 -61.5 0.4 -61.8 0.7 -62.1 1.0 -62.5 1.0 L-63.2 0.7 -63.5 0.0 -63.2 -0.7 -62.5 -1.0 Q-62.1 -1.0 -61.8 -0.7 M-67.5 -1.0 Q-67.1 -1.0 -66.8 -0.7 L-66.5 0.0 -66.8 0.7 Q-67.1 1.0 -67.5 1.0 L-68.2 0.7 -68.5 0.0 -68.2 -0.7 -67.5 -1.0 M-72.5 -1.0 L-71.8 -0.7 Q-71.5 -0.4 -71.5 0.0 -71.5 0.4 -71.8 0.7 L-72.5 1.0 -73.2 0.7 -73.5 0.0 -73.2 -0.7 -72.5 -1.0 M-77.5 -1.0 L-76.8 -0.7 Q-76.5 -0.4 -76.5 0.0 -76.5 0.4 -76.8 0.7 L-77.5 1.0 -78.2 0.7 -78.5 0.0 -78.2 -0.7 -77.5 -1.0 M-42.5 -1.0 Q-42.1 -1.0 -41.8 -0.7 -41.5 -0.4 -41.5 0.0 -41.5 0.4 -41.8 0.7 -42.1 1.0 -42.5 1.0 L-43.2 0.7 -43.5 0.0 -43.2 -0.7 -42.5 -1.0 M-46.8 -0.7 Q-46.5 -0.4 -46.5 0.0 -46.5 0.4 -46.8 0.7 L-47.5 1.0 -48.2 0.7 -48.5 0.0 -48.2 -0.7 -47.5 -1.0 -46.8 -0.7 M-52.5 -1.0 L-51.8 -0.7 Q-51.5 -0.4 -51.5 0.0 -51.5 0.4 -51.8 0.7 L-52.5 1.0 -53.2 0.7 -53.5 0.0 -53.2 -0.7 -52.5 -1.0 M-57.5 -1.0 Q-57.1 -1.0 -56.8 -0.7 -56.5 -0.4 -56.5 0.0 -56.5 0.4 -56.8 0.7 -57.1 1.0 -57.5 1.0 L-58.2 0.7 -58.5 0.0 -58.2 -0.7 -57.5 -1.0 M-21.8 -0.7 Q-21.5 -0.4 -21.5 0.0 -21.5 0.4 -21.8 0.7 L-22.5 1.0 -23.2 0.7 -23.5 0.0 -23.2 -0.7 -22.5 -1.0 -21.8 -0.7 M-27.5 -1.0 Q-27.1 -1.0 -26.8 -0.7 -26.5 -0.4 -26.5 0.0 -26.5 0.4 -26.8 0.7 -27.1 1.0 -27.5 1.0 L-28.2 0.7 -28.5 0.0 -28.2 -0.7 -27.5 -1.0 M-32.5 -1.0 Q-32.1 -1.0 -31.8 -0.7 -31.5 -0.4 -31.5 0.0 -31.5 0.4 -31.8 0.7 -32.1 1.0 -32.5 1.0 L-33.2 0.7 -33.5 0.0 -33.2 -0.7 -32.5 -1.0 M-37.5 -1.0 L-36.8 -0.7 -36.5 0.0 -36.8 0.7 -37.5 1.0 Q-37.9 1.0 -38.2 0.7 L-38.5 0.0 -38.2 -0.7 Q-37.9 -1.0 -37.5 -1.0 M-2.5 -1.0 L-1.8 -0.7 Q-1.5 -0.4 -1.5 0.0 -1.5 0.4 -1.8 0.7 L-2.5 1.0 Q-2.9 1.0 -3.2 0.7 L-3.5 0.0 -3.2 -0.7 Q-2.9 -1.0 -2.5 -1.0 M-6.8 -0.7 Q-6.5 -0.4 -6.5 0.0 -6.5 0.4 -6.8 0.7 L-7.5 1.0 Q-7.9 1.0 -8.2 0.7 L-8.5 0.0 -8.2 -0.7 Q-7.9 -1.0 -7.5 -1.0 L-6.8 -0.7 M-12.5 -1.0 Q-12.1 -1.0 -11.8 -0.7 -11.5 -0.4 -11.5 0.0 -11.5 0.4 -11.8 0.7 -12.1 1.0 -12.5 1.0 L-13.2 0.7 -13.5 0.0 -13.2 -0.7 -12.5 -1.0 M-17.5 -1.0 Q-17.1 -1.0 -16.8 -0.7 -16.5 -0.4 -16.5 0.0 -16.5 0.4 -16.8 0.7 -17.1 1.0 -17.5 1.0 L-18.2 0.7 -18.5 0.0 -18.2 -0.7 -17.5 -1.0" fill="#003366" fill-opacity="0.2" fill-rule="evenodd" stroke="none"/>
  </g>
</svg>
