<?xml version="1.0" encoding="UTF-8" standalone="no"?>
<svg xmlns:ffdec="https://www.free-decompiler.com/flash" xmlns:xlink="http://www.w3.org/1999/xlink" ffdec:objectType="shape" height="26.9px" width="41.9px" xmlns="http://www.w3.org/2000/svg">
  <g transform="matrix(1.0, 0.0, 0.0, 1.0, 20.95, 13.45)">
    <path d="M19.95 -13.05 L20.55 -12.95 20.75 -12.85 Q20.05 -3.65 20.75 5.8 L20.95 12.25 20.4 12.65 20.05 12.8 Q2.9 13.35 -14.7 13.1 L-15.25 13.15 Q-17.7 13.75 -20.05 13.05 L-20.25 12.9 -20.5 12.7 -20.4 11.75 -20.4 11.6 -20.0 9.85 -20.05 9.6 -19.95 9.55 -19.85 8.05 -19.85 7.65 -19.85 7.55 -20.95 -10.85 Q-21.05 -12.55 -20.05 -13.4 L-17.85 -13.4 Q-6.05 -12.9 5.8 -12.85 L6.05 -12.85 Q11.35 -13.3 16.35 -12.7 L16.4 -12.7 19.95 -13.05" fill="#000000" fill-rule="evenodd" stroke="none"/>
  </g>
</svg>
