<?xml version="1.0" encoding="UTF-8" standalone="no"?>
<svg xmlns:ffdec="https://www.free-decompiler.com/flash" xmlns:xlink="http://www.w3.org/1999/xlink" ffdec:objectType="shape" height="220.3px" width="220.6px" xmlns="http://www.w3.org/2000/svg">
  <g transform="matrix(1.0, 0.0, 0.0, 1.0, 108.95, 112.25)">
    <path d="M109.55 0.0 Q109.6 -41.9 79.9 -71.65 50.15 -101.35 8.1 -101.3 -33.9 -101.35 -63.75 -71.65 -93.4 -41.9 -93.4 0.0 -93.4 42.0 -63.75 71.85 -33.9 101.45 8.1 101.4 50.15 101.45 79.9 71.85 109.6 42.0 109.55 0.0 M111.65 -2.15 Q111.7 43.55 79.4 75.9 47.1 108.15 1.4 108.05 -44.3 108.15 -76.65 75.9 -108.95 43.55 -108.95 -2.15 -108.95 -47.75 -76.65 -80.1 -44.3 -112.3 1.4 -112.25 47.1 -112.3 79.4 -80.1 111.7 -47.75 111.65 -2.15" fill="#00ff00" fill-rule="evenodd" stroke="none"/>
  </g>
</svg>
