<?xml version="1.0" encoding="UTF-8" standalone="no"?>
<svg xmlns:ffdec="https://www.free-decompiler.com/flash" xmlns:xlink="http://www.w3.org/1999/xlink" ffdec:objectType="shape" height="45.0px" width="129.0px" xmlns="http://www.w3.org/2000/svg">
  <g transform="matrix(1.0, 0.0, 0.0, 1.0, -235.5, -57.5)">
    <path d="M350.1 62.5 L344.95 62.5 Q348.85 62.6 351.7 65.4 354.6 68.35 354.6 72.5 L354.6 87.5 Q354.6 91.65 351.7 94.55 348.85 97.4 344.95 97.5 L350.1 97.5 Q354.25 97.5 357.2 94.55 360.1 91.65 360.1 87.5 L360.1 72.5 Q360.1 68.35 357.2 65.4 354.25 62.5 350.1 62.5 M354.5 57.5 Q358.65 57.5 361.55 60.4 364.5 63.35 364.5 67.5 L364.5 92.5 Q364.5 96.65 361.55 99.55 358.65 102.5 354.5 102.5 L245.5 102.5 Q241.35 102.5 238.4 99.55 235.5 96.65 235.5 92.5 L235.5 67.5 Q235.5 63.35 238.4 60.4 241.35 57.5 245.5 57.5 L354.5 57.5 M243.9 65.4 Q241.0 68.35 241.0 72.5 L241.0 87.5 Q241.0 91.65 243.9 94.55 246.85 97.5 251.0 97.5 L256.15 97.5 Q252.25 97.4 249.4 94.55 246.5 91.65 246.5 87.5 L246.5 72.5 Q246.5 68.35 249.4 65.4 252.25 62.6 256.15 62.5 L251.0 62.5 Q246.85 62.5 243.9 65.4" fill="#ffffff" fill-rule="evenodd" stroke="none"/>
    <path d="M350.1 62.5 Q354.25 62.5 357.2 65.4 360.1 68.35 360.1 72.5 L360.1 87.5 Q360.1 91.65 357.2 94.55 354.25 97.5 350.1 97.5 L344.95 97.5 Q348.85 97.4 351.7 94.55 354.6 91.65 354.6 87.5 L354.6 72.5 Q354.6 68.35 351.7 65.4 348.85 62.6 344.95 62.5 L350.1 62.5 M243.9 65.4 Q246.85 62.5 251.0 62.5 L256.15 62.5 Q252.25 62.6 249.4 65.4 246.5 68.35 246.5 72.5 L246.5 87.5 Q246.5 91.65 249.4 94.55 252.25 97.4 256.15 97.5 L251.0 97.5 Q246.85 97.5 243.9 94.55 241.0 91.65 241.0 87.5 L241.0 72.5 Q241.0 68.35 243.9 65.4" fill="#ff6600" fill-rule="evenodd" stroke="none"/>
  </g>
</svg>
