<?xml version="1.0" encoding="UTF-8" standalone="no"?>
<svg xmlns:ffdec="https://www.free-decompiler.com/flash" xmlns:xlink="http://www.w3.org/1999/xlink" ffdec:objectType="shape" height="36.65px" width="114.0px" xmlns="http://www.w3.org/2000/svg">
  <g transform="matrix(1.0, 0.0, 0.0, 1.0, 17.6, 19.3)">
    <path d="M-15.6 5.15 L-15.6 -8.9 Q-15.6 -12.85 -12.7 -15.6 -9.75 -18.35 -5.6 -18.35 L84.4 -18.35 Q88.55 -18.35 91.45 -15.6 94.4 -12.85 94.4 -8.9 L94.4 5.15 92.4 5.15 92.4 4.9 92.4 -8.45 92.3 -8.45 Q91.85 -11.45 89.45 -13.7 86.55 -16.45 82.4 -16.45 L-3.6 -16.45 Q-7.75 -16.45 -10.7 -13.7 -13.05 -11.45 -13.5 -8.45 L-13.6 -8.45 -13.6 4.9 -13.6 5.15 -13.55 5.7 -13.6 5.7 -13.6 6.0 -13.55 6.0 Q-13.25 9.3 -10.7 11.7 -7.75 14.5 -3.6 14.5 L82.4 14.5 Q86.55 14.5 89.45 11.7 92.05 9.3 92.35 6.0 L92.4 6.0 92.4 5.7 92.4 5.15 94.4 5.15 94.4 6.95 Q94.4 10.85 91.45 13.6 88.55 16.35 84.4 16.4 L-5.6 16.4 Q-9.75 16.35 -12.7 13.6 -15.6 10.85 -15.6 6.95 L-15.6 5.15 -13.6 5.15 -15.6 5.15" fill="#01317e" fill-opacity="0.08235294" fill-rule="evenodd" stroke="none"/>
    <path d="M-15.6 5.15 L-17.6 5.15 -17.6 -9.85 Q-17.6 -13.8 -14.7 -16.55 -11.75 -19.3 -7.6 -19.3 L86.4 -19.3 Q90.55 -19.3 93.45 -16.55 96.4 -13.8 96.4 -9.85 L96.4 5.15 94.4 5.15 94.4 -8.9 Q94.4 -12.85 91.45 -15.6 88.55 -18.35 84.4 -18.35 L-5.6 -18.35 Q-9.75 -18.35 -12.7 -15.6 -15.6 -12.85 -15.6 -8.9 L-15.6 5.15 -15.6 6.95 Q-15.6 10.85 -12.7 13.6 -9.75 16.35 -5.6 16.4 L84.4 16.4 Q88.55 16.35 91.45 13.6 94.4 10.85 94.4 6.95 L94.4 5.15 96.4 5.15 96.4 7.9 Q96.4 11.8 93.45 14.55 90.55 17.3 86.4 17.35 L-7.6 17.35 Q-11.75 17.3 -14.7 14.55 -17.6 11.8 -17.6 7.9 L-17.6 5.15 -15.6 5.15" fill="#01317e" fill-opacity="0.03137255" fill-rule="evenodd" stroke="none"/>
    <path d="M92.4 5.15 L-13.6 5.15 -13.6 4.9 -13.6 -8.45 -13.5 -8.45 Q-13.05 -11.45 -10.7 -13.7 -7.75 -16.45 -3.6 -16.45 L82.4 -16.45 Q86.55 -16.45 89.45 -13.7 91.85 -11.45 92.3 -8.45 L92.4 -8.45 92.4 4.9 92.4 5.15 92.4 5.7 92.4 6.0 92.35 6.0 Q92.05 9.3 89.45 11.7 86.55 14.5 82.4 14.5 L-3.6 14.5 Q-7.75 14.5 -10.7 11.7 -13.25 9.3 -13.55 6.0 L-13.6 6.0 -13.6 5.7 -13.55 5.7 -13.6 5.15 92.4 5.15" fill="#01317e" fill-opacity="0.18039216" fill-rule="evenodd" stroke="none"/>
  </g>
</svg>
