<?xml version="1.0" encoding="UTF-8" standalone="no"?>
<svg xmlns:ffdec="https://www.free-decompiler.com/flash" xmlns:xlink="http://www.w3.org/1999/xlink" ffdec:objectType="shape" height="30.0px" width="102.0px" xmlns="http://www.w3.org/2000/svg">
  <g transform="matrix(1.0, 0.0, 0.0, 1.0, 11.6, 18.5)">
    <path d="M89.75 5.15 Q89.0 7.0 87.45 8.55 84.55 11.5 80.4 11.5 L-1.6 11.5 Q-5.75 11.5 -8.7 8.55 -10.25 7.0 -10.95 5.15 L89.75 5.15 -10.95 5.15 Q-11.6 1.8 -11.6 -2.05 L-11.6 -8.5 Q-11.6 -12.65 -8.7 -15.6 -5.75 -18.5 -1.6 -18.5 L80.4 -18.5 Q84.55 -18.5 87.45 -15.6 90.4 -12.65 90.4 -8.5 L90.4 -2.05 Q90.4 1.8 89.75 5.15" fill="#ffffff" fill-rule="evenodd" stroke="none"/>
  </g>
</svg>
