<?xml version="1.0" encoding="UTF-8" standalone="no"?>
<svg xmlns:ffdec="https://www.free-decompiler.com/flash" xmlns:xlink="http://www.w3.org/1999/xlink" ffdec:objectType="shape" height="30.45px" width="306.95px" xmlns="http://www.w3.org/2000/svg">
  <g transform="matrix(1.0, 0.0, 0.0, 1.0, 4.0, 4.0)">
    <path d="M282.4 3.8 L282.4 18.65 Q282.4 20.4 281.8 21.25 281.25 22.1 280.0 22.1 278.8 22.1 278.15 21.25 277.55 20.4 277.55 18.65 L277.55 13.25 268.7 13.25 268.7 18.65 Q268.7 20.4 268.1 21.25 267.5 22.1 266.25 22.1 265.05 22.1 264.45 21.25 263.85 20.4 263.85 18.65 L263.85 3.8 Q263.85 2.05 264.45 1.2 265.05 0.35 266.25 0.35 267.5 0.35 268.1 1.2 268.7 2.05 268.7 3.8 L268.7 8.8 277.55 8.8 277.55 3.8 Q277.55 2.05 278.15 1.2 278.8 0.35 280.0 0.35 281.25 0.35 281.8 1.2 282.4 2.05 282.4 3.8 M298.1 4.6 L295.5 5.1 293.7 5.1 293.7 18.65 Q293.7 20.4 293.1 21.25 292.5 22.1 291.25 22.1 290.05 22.1 289.45 21.25 288.85 20.4 288.85 18.65 L288.85 5.1 287.1 5.1 284.5 4.6 Q283.65 4.0 283.65 2.9 283.65 1.75 284.55 1.2 285.35 0.6 287.1 0.6 L295.5 0.6 Q297.2 0.6 298.1 1.2 298.95 1.75 298.95 2.9 298.95 4.0 298.1 4.6 M257.75 6.7 L255.35 5.65 Q253.5 4.6 251.85 4.6 249.4 4.6 247.95 6.35 246.55 8.1 246.55 11.1 246.55 14.2 247.95 16.05 249.4 17.85 251.8 17.85 253.75 17.85 254.9 16.7 256.05 15.5 256.1 13.55 L254.4 13.55 Q252.65 13.55 251.85 13.0 251.0 12.5 251.0 11.35 251.0 10.15 251.85 9.65 252.7 9.05 254.4 9.05 L257.95 9.05 Q259.75 9.05 260.55 9.8 261.35 10.6 261.35 12.3 261.35 16.85 258.65 19.65 255.9 22.45 251.45 22.45 246.95 22.45 244.1 19.35 241.3 16.2 241.3 11.2 241.3 6.05 244.2 3.05 247.1 0.0 252.0 0.0 255.25 0.0 257.55 1.35 259.8 2.7 259.8 4.4 259.8 5.3 259.2 6.0 258.6 6.7 257.75 6.7 M238.45 3.8 L238.45 18.65 Q238.45 20.4 237.85 21.25 237.2 22.1 236.0 22.1 234.8 22.1 234.2 21.25 233.6 20.4 233.6 18.65 L233.6 3.8 Q233.6 2.05 234.2 1.2 234.8 0.35 236.0 0.35 237.2 0.35 237.85 1.2 238.45 2.05 238.45 3.8 M216.75 4.0 L213.05 18.9 Q212.55 20.8 211.85 21.45 211.15 22.1 209.7 22.1 208.4 22.1 207.65 21.45 206.85 20.8 206.5 19.4 L203.3 7.3 200.35 19.1 Q200.0 20.55 199.1 21.3 198.2 22.1 196.85 22.1 195.45 22.1 194.7 21.35 193.95 20.65 193.55 18.9 L190.05 3.55 189.95 3.2 189.95 2.5 Q189.95 1.5 190.65 0.9 191.3 0.35 192.4 0.35 193.35 0.35 193.95 0.85 194.6 1.45 194.75 2.45 L197.3 15.9 200.8 2.4 Q201.05 1.35 201.75 0.85 202.4 0.35 203.45 0.35 204.5 0.35 205.2 0.85 205.85 1.4 206.1 2.45 L209.55 15.9 212.1 2.75 Q212.35 1.5 212.95 0.9 213.5 0.35 214.55 0.35 215.6 0.35 216.25 1.0 216.95 1.6 216.95 2.6 L216.9 3.3 216.75 4.0 M219.7 1.35 Q220.45 0.6 222.3 0.6 L227.75 0.6 Q229.45 0.6 230.3 1.2 231.15 1.75 231.15 2.9 231.15 4.0 230.3 4.6 229.45 5.1 227.75 5.1 L223.8 5.1 223.8 8.9 227.2 8.9 Q228.9 8.9 229.8 9.45 230.6 10.0 230.6 11.15 230.6 12.3 229.8 12.85 228.9 13.4 227.2 13.4 L223.8 13.4 223.8 18.65 Q223.8 20.4 223.2 21.25 222.6 22.1 221.35 22.1 220.15 22.1 219.55 21.25 218.95 20.4 218.95 18.65 L218.95 4.0 Q218.95 2.1 219.7 1.35 M165.4 3.8 L165.4 19.2 Q165.4 20.75 164.85 21.5 164.3 22.2 163.2 22.2 162.4 22.2 161.75 21.8 161.1 21.4 160.4 20.45 L151.7 8.9 151.7 18.65 Q151.7 20.4 151.1 21.25 150.5 22.1 149.25 22.1 148.0 22.1 147.45 21.25 146.85 20.4 146.85 18.65 L146.85 3.6 Q146.85 2.0 147.4 1.2 147.95 0.4 149.1 0.4 149.8 0.4 150.4 0.75 L151.65 1.95 160.55 13.7 160.55 3.8 Q160.55 2.05 161.15 1.2 161.75 0.35 163.0 0.35 164.2 0.35 164.8 1.2 165.4 2.05 165.4 3.8 M178.45 0.05 Q183.15 0.05 186.0 3.1 188.9 6.25 188.9 11.25 188.9 16.25 186.05 19.35 183.15 22.45 178.45 22.45 173.75 22.45 170.9 19.35 168.05 16.25 168.05 11.25 168.05 6.2 170.95 3.1 173.8 0.05 178.45 0.05 M174.7 16.05 Q176.15 17.85 178.45 17.85 180.8 17.85 182.2 16.05 183.6 14.25 183.6 11.3 183.6 8.25 182.2 6.4 180.8 4.6 178.45 4.6 176.1 4.6 174.7 6.4 173.3 8.25 173.3 11.3 173.3 14.25 174.7 16.05 M142.45 4.7 Q141.9 5.25 140.85 5.25 L139.0 4.9 137.1 4.5 Q136.0 4.5 135.35 5.0 134.75 5.5 134.75 6.35 134.75 7.6 137.55 8.5 L138.55 8.85 Q141.6 9.85 143.0 11.4 144.4 12.95 144.4 15.25 144.4 18.45 142.15 20.45 139.85 22.4 136.2 22.4 133.35 22.4 131.35 21.4 129.3 20.35 129.3 19.0 129.3 18.0 129.95 17.4 130.65 16.85 131.7 16.85 L133.95 17.35 136.85 17.9 Q137.9 17.9 138.55 17.3 139.25 16.65 139.25 15.7 139.25 14.7 138.55 14.1 137.85 13.45 135.55 12.8 132.2 11.8 130.9 10.45 129.55 9.05 129.55 6.8 129.55 3.8 131.7 1.95 133.85 0.05 137.25 0.05 139.8 0.05 141.4 0.95 143.0 1.85 143.0 3.2 143.0 4.15 142.45 4.7 M118.75 4.75 L113.75 11.85 113.75 18.65 Q113.75 20.4 113.15 21.25 112.55 22.1 111.35 22.1 110.1 22.1 109.5 21.25 108.9 20.4 108.9 18.65 L108.9 11.85 104.0 4.95 104.0 4.9 Q102.95 3.4 102.95 2.45 102.95 1.6 103.6 1.0 104.3 0.35 105.25 0.35 105.85 0.35 106.45 0.8 L107.75 2.2 111.35 7.35 115.0 2.15 116.3 0.8 Q117.0 0.35 117.6 0.35 118.4 0.35 119.05 1.0 119.7 1.65 119.7 2.4 119.7 3.35 118.75 4.75 M99.05 0.6 Q100.75 0.6 101.65 1.2 102.45 1.75 102.45 2.9 102.45 4.0 101.65 4.6 100.75 5.1 99.05 5.1 L95.1 5.1 95.1 8.9 98.5 8.9 Q100.25 8.9 101.1 9.45 101.95 10.0 101.95 11.15 101.95 12.3 101.1 12.85 100.25 13.4 98.5 13.4 L95.1 13.4 95.1 17.35 99.2 17.35 Q100.95 17.35 101.8 17.9 102.6 18.45 102.6 19.6 102.6 20.7 101.8 21.25 100.95 21.8 99.2 21.8 L93.55 21.8 Q91.7 21.8 91.0 21.15 90.3 20.55 90.3 18.8 L90.3 4.0 Q90.3 2.1 91.0 1.35 91.75 0.6 93.6 0.6 L99.05 0.6 M68.2 3.8 L68.2 19.2 Q68.2 20.75 67.7 21.5 67.15 22.2 66.0 22.2 65.25 22.2 64.6 21.8 L63.2 20.45 54.5 8.9 54.5 18.65 Q54.5 20.4 53.9 21.25 53.3 22.1 52.05 22.1 50.85 22.1 50.25 21.25 49.65 20.4 49.65 18.65 L49.65 3.6 Q49.65 2.0 50.25 1.2 50.75 0.4 51.9 0.4 52.65 0.4 53.25 0.75 L54.5 1.95 63.35 13.7 63.35 3.8 Q63.35 2.05 63.95 1.2 64.6 0.35 65.8 0.35 67.05 0.35 67.6 1.2 68.2 2.05 68.2 3.8 M72.55 1.2 Q73.1 0.35 74.35 0.35 75.6 0.35 76.2 1.2 76.8 2.05 76.8 3.8 L76.8 9.05 82.9 2.1 84.3 0.75 Q84.85 0.4 85.45 0.4 86.3 0.4 86.95 1.05 87.6 1.7 87.6 2.6 L87.3 3.8 86.35 5.0 81.15 10.45 87.6 17.5 Q88.25 18.15 88.5 18.75 L88.85 19.85 Q88.85 20.75 88.15 21.4 87.5 22.1 86.6 22.1 L85.5 21.8 84.0 20.4 76.8 12.4 76.8 18.65 Q76.8 20.4 76.2 21.25 75.6 22.1 74.35 22.1 73.1 22.1 72.55 21.25 71.95 20.4 71.95 18.65 L71.95 3.8 Q71.95 2.05 72.55 1.2 M36.5 0.05 Q41.15 0.05 44.05 3.1 46.95 6.25 46.95 11.25 46.95 16.25 44.05 19.35 41.2 22.45 36.5 22.45 31.8 22.45 28.95 19.35 26.1 16.25 26.1 11.25 26.1 6.2 28.95 3.1 31.8 0.05 36.5 0.05 M18.95 0.35 Q20.45 0.35 21.25 1.15 22.05 1.95 22.35 3.85 L24.7 18.45 24.8 19.05 24.8 19.6 Q24.8 20.75 24.15 21.45 23.45 22.1 22.35 22.1 21.35 22.1 20.75 21.4 20.15 20.7 20.0 19.3 L18.45 6.65 15.85 17.35 14.5 21.25 Q14.25 21.75 13.75 21.9 L12.5 22.1 Q11.3 22.1 10.65 21.55 10.0 21.0 9.65 19.7 L6.55 6.65 4.9 19.0 Q4.65 20.65 4.0 21.4 3.45 22.1 2.35 22.1 1.3 22.1 0.65 21.45 0.0 20.75 0.0 19.6 L0.05 18.95 0.15 18.15 2.75 3.65 Q3.05 1.85 3.85 1.15 4.6 0.35 6.0 0.35 7.4 0.35 8.2 1.05 9.05 1.8 9.4 3.2 L12.6 15.9 15.65 3.2 Q15.95 1.8 16.8 1.05 17.65 0.35 18.95 0.35 M32.75 16.05 Q34.15 17.85 36.5 17.85 38.8 17.85 40.25 16.05 41.65 14.25 41.65 11.3 41.65 8.25 40.25 6.4 38.85 4.6 36.5 4.6 34.15 4.6 32.75 6.4 31.35 8.25 31.35 11.3 31.35 14.25 32.75 16.05 Z" fill="none" stroke="#ffffff" stroke-linecap="round" stroke-linejoin="round" stroke-width="8.0"/>
    <path d="M282.4 3.8 L282.4 18.65 Q282.4 20.4 281.8 21.25 281.25 22.1 280.0 22.1 278.8 22.1 278.15 21.25 277.55 20.4 277.55 18.65 L277.55 13.25 268.7 13.25 268.7 18.65 Q268.7 20.4 268.1 21.25 267.5 22.1 266.25 22.1 265.05 22.1 264.45 21.25 263.85 20.4 263.85 18.65 L263.85 3.8 Q263.85 2.05 264.45 1.2 265.05 0.35 266.25 0.35 267.5 0.35 268.1 1.2 268.7 2.05 268.7 3.8 L268.7 8.8 277.55 8.8 277.55 3.8 Q277.55 2.05 278.15 1.2 278.8 0.35 280.0 0.35 281.25 0.35 281.8 1.2 282.4 2.05 282.4 3.8 M298.1 4.6 L295.5 5.1 293.7 5.1 293.7 18.65 Q293.7 20.4 293.1 21.25 292.5 22.1 291.25 22.1 290.05 22.1 289.45 21.25 288.85 20.4 288.85 18.65 L288.85 5.1 287.1 5.1 284.5 4.6 Q283.65 4.0 283.65 2.9 283.65 1.75 284.55 1.2 285.35 0.6 287.1 0.6 L295.5 0.6 Q297.2 0.6 298.1 1.2 298.95 1.75 298.95 2.9 298.95 4.0 298.1 4.6 M257.75 6.7 L255.35 5.65 Q253.5 4.6 251.85 4.6 249.4 4.6 247.95 6.35 246.55 8.1 246.55 11.1 246.55 14.2 247.95 16.05 249.4 17.85 251.8 17.85 253.75 17.85 254.9 16.7 256.05 15.5 256.1 13.55 L254.4 13.55 Q252.65 13.55 251.85 13.0 251.0 12.5 251.0 11.35 251.0 10.15 251.85 9.65 252.7 9.05 254.4 9.05 L257.95 9.05 Q259.75 9.05 260.55 9.8 261.35 10.6 261.35 12.3 261.35 16.85 258.65 19.65 255.9 22.45 251.45 22.45 246.95 22.45 244.1 19.35 241.3 16.2 241.3 11.2 241.3 6.05 244.2 3.05 247.1 0.0 252.0 0.0 255.25 0.0 257.55 1.35 259.8 2.7 259.8 4.4 259.8 5.3 259.2 6.0 258.6 6.7 257.75 6.7 M238.45 3.8 L238.45 18.65 Q238.45 20.4 237.85 21.25 237.2 22.1 236.0 22.1 234.8 22.1 234.2 21.25 233.6 20.4 233.6 18.65 L233.6 3.8 Q233.6 2.05 234.2 1.2 234.8 0.35 236.0 0.35 237.2 0.35 237.85 1.2 238.45 2.05 238.45 3.8 M216.75 4.0 L213.05 18.9 Q212.55 20.8 211.85 21.45 211.15 22.1 209.7 22.1 208.4 22.1 207.65 21.45 206.85 20.8 206.5 19.4 L203.3 7.3 200.35 19.1 Q200.0 20.55 199.1 21.3 198.2 22.1 196.85 22.1 195.45 22.1 194.7 21.35 193.95 20.65 193.55 18.9 L190.05 3.55 189.95 3.2 189.95 2.5 Q189.95 1.5 190.65 0.9 191.3 0.35 192.4 0.35 193.35 0.35 193.95 0.85 194.6 1.45 194.75 2.45 L197.3 15.9 200.8 2.4 Q201.05 1.35 201.75 0.85 202.4 0.35 203.45 0.35 204.5 0.35 205.2 0.85 205.85 1.4 206.1 2.45 L209.55 15.9 212.1 2.75 Q212.35 1.5 212.95 0.9 213.5 0.35 214.55 0.35 215.6 0.35 216.25 1.0 216.95 1.6 216.95 2.6 L216.9 3.3 216.75 4.0 M219.7 1.35 Q220.45 0.6 222.3 0.6 L227.75 0.6 Q229.45 0.6 230.3 1.2 231.15 1.75 231.15 2.9 231.15 4.0 230.3 4.6 229.45 5.1 227.75 5.1 L223.8 5.1 223.8 8.9 227.2 8.9 Q228.9 8.9 229.8 9.45 230.6 10.0 230.6 11.15 230.6 12.3 229.8 12.85 228.9 13.4 227.2 13.4 L223.8 13.4 223.8 18.65 Q223.8 20.4 223.2 21.25 222.6 22.1 221.35 22.1 220.15 22.1 219.55 21.25 218.95 20.4 218.95 18.65 L218.95 4.0 Q218.95 2.1 219.7 1.35 M165.4 3.8 L165.4 19.2 Q165.4 20.75 164.85 21.5 164.3 22.2 163.2 22.2 162.4 22.2 161.75 21.8 161.1 21.4 160.4 20.45 L151.7 8.9 151.7 18.65 Q151.7 20.4 151.1 21.25 150.5 22.1 149.25 22.1 148.0 22.1 147.45 21.25 146.85 20.4 146.85 18.65 L146.85 3.6 Q146.85 2.0 147.4 1.2 147.95 0.4 149.1 0.4 149.8 0.4 150.4 0.75 L151.65 1.95 160.55 13.7 160.55 3.8 Q160.55 2.05 161.15 1.2 161.75 0.35 163.0 0.35 164.2 0.35 164.8 1.2 165.4 2.05 165.4 3.8 M178.45 0.05 Q183.15 0.05 186.0 3.1 188.9 6.25 188.9 11.25 188.9 16.25 186.05 19.35 183.15 22.45 178.45 22.45 173.75 22.45 170.9 19.35 168.05 16.25 168.05 11.25 168.05 6.2 170.95 3.1 173.8 0.05 178.45 0.05 M174.7 16.05 Q176.15 17.85 178.45 17.85 180.8 17.85 182.2 16.05 183.6 14.25 183.6 11.3 183.6 8.25 182.2 6.4 180.8 4.6 178.45 4.6 176.1 4.6 174.7 6.4 173.3 8.25 173.3 11.3 173.3 14.25 174.7 16.05 M142.45 4.7 Q141.9 5.25 140.85 5.25 L139.0 4.9 137.1 4.5 Q136.0 4.5 135.35 5.0 134.75 5.5 134.75 6.35 134.75 7.6 137.55 8.5 L138.55 8.85 Q141.6 9.85 143.0 11.4 144.4 12.95 144.4 15.25 144.4 18.45 142.15 20.45 139.85 22.4 136.2 22.4 133.35 22.4 131.35 21.4 129.3 20.35 129.3 19.0 129.3 18.0 129.95 17.4 130.65 16.85 131.7 16.85 L133.95 17.35 136.85 17.9 Q137.9 17.9 138.55 17.3 139.25 16.65 139.25 15.7 139.25 14.7 138.55 14.1 137.85 13.45 135.55 12.8 132.2 11.8 130.9 10.45 129.55 9.05 129.55 6.8 129.55 3.8 131.7 1.95 133.85 0.05 137.25 0.05 139.8 0.05 141.4 0.95 143.0 1.85 143.0 3.2 143.0 4.15 142.45 4.7 M118.75 4.75 L113.75 11.85 113.75 18.65 Q113.75 20.4 113.15 21.25 112.55 22.1 111.35 22.1 110.1 22.1 109.5 21.25 108.9 20.4 108.9 18.65 L108.9 11.85 104.0 4.95 104.0 4.9 Q102.95 3.4 102.95 2.45 102.95 1.6 103.6 1.0 104.3 0.35 105.25 0.35 105.85 0.35 106.45 0.8 L107.75 2.2 111.35 7.35 115.0 2.15 116.3 0.8 Q117.0 0.35 117.6 0.35 118.4 0.35 119.05 1.0 119.7 1.65 119.7 2.4 119.7 3.35 118.75 4.75 M99.05 0.6 Q100.75 0.6 101.65 1.2 102.45 1.75 102.45 2.9 102.45 4.0 101.65 4.6 100.75 5.1 99.05 5.1 L95.1 5.1 95.1 8.9 98.5 8.9 Q100.25 8.9 101.1 9.45 101.95 10.0 101.95 11.15 101.95 12.3 101.1 12.85 100.25 13.4 98.5 13.4 L95.1 13.4 95.1 17.35 99.2 17.35 Q100.95 17.35 101.8 17.9 102.6 18.45 102.6 19.6 102.6 20.7 101.8 21.25 100.95 21.8 99.2 21.8 L93.55 21.8 Q91.7 21.8 91.0 21.15 90.3 20.55 90.3 18.8 L90.3 4.0 Q90.3 2.1 91.0 1.35 91.75 0.6 93.6 0.6 L99.05 0.6 M68.2 3.8 L68.2 19.2 Q68.2 20.75 67.7 21.5 67.15 22.2 66.0 22.2 65.25 22.2 64.6 21.8 L63.2 20.45 54.5 8.9 54.5 18.65 Q54.5 20.4 53.9 21.25 53.3 22.1 52.05 22.1 50.85 22.1 50.25 21.25 49.65 20.4 49.65 18.65 L49.65 3.6 Q49.65 2.0 50.25 1.2 50.75 0.4 51.9 0.4 52.65 0.4 53.25 0.75 L54.5 1.95 63.35 13.7 63.35 3.8 Q63.35 2.05 63.95 1.2 64.6 0.35 65.8 0.35 67.05 0.35 67.6 1.2 68.2 2.05 68.2 3.8 M72.55 1.2 Q73.1 0.35 74.35 0.35 75.6 0.35 76.2 1.2 76.8 2.05 76.8 3.8 L76.8 9.05 82.9 2.1 84.3 0.75 Q84.85 0.4 85.45 0.4 86.3 0.4 86.95 1.05 87.6 1.7 87.6 2.6 L87.3 3.8 86.35 5.0 81.15 10.45 87.6 17.5 Q88.25 18.15 88.5 18.75 L88.85 19.85 Q88.85 20.75 88.15 21.4 87.5 22.1 86.6 22.1 L85.5 21.8 84.0 20.4 76.8 12.4 76.8 18.65 Q76.8 20.4 76.2 21.25 75.6 22.1 74.35 22.1 73.1 22.1 72.55 21.25 71.95 20.4 71.95 18.65 L71.95 3.8 Q71.95 2.05 72.55 1.2 M36.5 0.05 Q41.15 0.05 44.05 3.1 46.95 6.25 46.95 11.25 46.95 16.25 44.05 19.35 41.2 22.45 36.5 22.45 31.8 22.45 28.95 19.35 26.1 16.25 26.1 11.25 26.1 6.2 28.95 3.1 31.8 0.05 36.5 0.05 M18.95 0.35 Q20.45 0.35 21.25 1.15 22.05 1.95 22.35 3.85 L24.7 18.45 24.8 19.05 24.8 19.6 Q24.8 20.75 24.15 21.45 23.45 22.1 22.35 22.1 21.35 22.1 20.75 21.4 20.15 20.7 20.0 19.3 L18.45 6.65 15.85 17.35 14.5 21.25 Q14.25 21.75 13.75 21.9 L12.5 22.1 Q11.3 22.1 10.65 21.55 10.0 21.0 9.65 19.7 L6.55 6.65 4.9 19.0 Q4.65 20.65 4.0 21.4 3.45 22.1 2.35 22.1 1.3 22.1 0.65 21.45 0.0 20.75 0.0 19.6 L0.05 18.95 0.15 18.15 2.75 3.65 Q3.05 1.85 3.85 1.15 4.6 0.35 6.0 0.35 7.4 0.35 8.2 1.05 9.05 1.8 9.4 3.2 L12.6 15.9 15.65 3.2 Q15.95 1.8 16.8 1.05 17.65 0.35 18.95 0.35 M32.75 16.05 Q34.15 17.85 36.5 17.85 38.8 17.85 40.25 16.05 41.65 14.25 41.65 11.3 41.65 8.25 40.25 6.4 38.85 4.6 36.5 4.6 34.15 4.6 32.75 6.4 31.35 8.25 31.35 11.3 31.35 14.25 32.75 16.05" fill="#ff6600" fill-rule="evenodd" stroke="none"/>
  </g>
</svg>
