<?xml version="1.0" encoding="UTF-8" standalone="no"?>
<svg xmlns:ffdec="https://www.free-decompiler.com/flash" xmlns:xlink="http://www.w3.org/1999/xlink" ffdec:objectType="shape" height="52.4px" width="297.1px" xmlns="http://www.w3.org/2000/svg">
  <g transform="matrix(1.0, 0.0, 0.0, 1.0, 149.1, 27.2)">
    <path d="M146.15 16.1 L140.7 16.1 140.7 16.25 142.2 17.05 Q144.8 18.55 144.8 21.0 144.8 22.7 143.55 23.9 142.25 25.2 140.5 25.2 L132.2 25.2 132.2 20.75 139.2 20.75 139.2 20.65 137.6 19.8 Q135.05 18.4 135.05 15.95 135.05 14.1 136.3 12.95 137.5 11.7 139.35 11.7 L146.15 11.7 146.15 16.1 M-27.3 11.7 L-27.3 25.2 -31.7 25.2 -31.7 20.75 -34.55 25.2 -37.4 20.75 -37.4 25.2 -41.85 25.2 -41.85 11.7 -37.5 11.7 -34.55 16.1 -31.6 11.7 -27.3 11.7 M-61.6 16.1 L-67.3 16.1 Q-68.3 16.1 -69.0 16.8 -69.7 17.45 -69.7 18.45 -69.7 19.4 -69.0 20.05 -68.35 20.75 -67.3 20.75 L-66.05 20.75 -66.05 17.75 -61.6 17.75 -61.6 25.2 -67.3 25.2 Q-70.2 25.2 -72.15 23.2 -74.15 21.2 -74.1 18.45 -74.15 15.6 -72.15 13.65 -70.2 11.65 -67.3 11.7 L-61.6 11.7 -61.6 16.1 M-52.8 20.4 L-50.6 20.4 -51.7 16.8 -52.8 20.4 M-48.95 11.7 L-44.45 25.2 -49.05 25.2 -49.6 23.6 -53.85 23.6 -54.4 25.2 -59.0 25.2 -54.5 11.7 -48.95 11.7 M-24.65 11.7 L-12.15 11.7 -12.15 16.1 -20.25 16.1 -20.25 16.75 -14.1 16.75 -14.1 20.15 -20.25 20.15 -20.25 20.75 -12.15 20.75 -12.15 25.2 -24.65 25.2 -24.65 11.7 M-99.1 16.1 L-107.15 16.1 -107.15 16.75 -101.05 16.75 -101.05 20.15 -107.15 20.15 -107.15 20.75 -99.1 20.75 -99.1 25.2 -111.6 25.2 -111.6 11.7 -99.1 11.7 -99.1 16.1 M-92.05 16.75 L-85.95 16.75 -85.95 20.15 -92.05 20.15 -92.05 20.75 -84.0 20.75 -84.0 25.2 -96.5 25.2 -96.5 11.7 -84.0 11.7 -84.0 16.1 -92.05 16.1 -92.05 16.75 M-114.6 16.35 Q-114.6 17.65 -115.3 18.85 -116.1 19.95 -117.2 20.45 L-116.45 20.75 -114.2 20.75 -114.2 25.2 -116.95 25.2 Q-118.7 25.2 -119.95 23.9 L-122.65 20.9 -122.65 25.2 -127.1 25.2 -127.1 11.7 -119.2 11.7 Q-117.3 11.65 -115.95 13.1 -114.6 14.4 -114.6 16.35 M-120.05 15.55 L-122.65 15.55 -122.65 17.15 -120.05 17.15 Q-119.05 17.1 -119.05 16.35 -119.05 15.55 -120.05 15.55 M-143.65 16.1 L-143.65 11.7 -129.7 11.7 -129.7 16.1 -137.8 16.1 -137.8 16.75 -131.65 16.75 -131.65 20.15 -137.8 20.15 -137.8 25.2 -142.2 25.2 -142.2 16.1 -143.65 16.1 M124.7 11.7 L126.4 17.15 128.15 11.7 132.8 11.7 128.2 25.2 123.95 25.2 122.5 20.5 121.05 25.2 116.7 25.2 112.2 11.7 116.8 11.7 118.55 17.15 120.35 11.7 124.7 11.7 M104.8 16.1 Q103.8 16.1 103.15 16.8 102.45 17.45 102.45 18.45 102.45 19.4 103.15 20.05 103.8 20.75 104.8 20.75 105.75 20.75 106.4 20.05 107.1 19.4 107.1 18.45 107.1 17.5 106.4 16.8 105.65 16.1 104.8 16.1 M104.8 11.7 Q107.6 11.65 109.6 13.65 111.55 15.7 111.55 18.45 111.55 21.2 109.6 23.2 107.6 25.2 104.8 25.2 101.95 25.2 100.0 23.2 98.0 21.2 98.05 18.45 98.0 15.6 100.0 13.65 101.95 11.65 104.8 11.7 M80.7 16.1 L75.2 16.1 75.2 16.25 76.7 17.05 Q79.3 18.55 79.35 21.0 79.3 22.7 78.05 23.9 76.75 25.2 75.05 25.2 L66.75 25.2 66.75 20.75 73.7 20.75 73.7 20.65 72.1 19.8 Q69.6 18.4 69.6 15.95 69.6 14.1 70.85 12.95 72.05 11.7 73.85 11.7 L80.7 11.7 80.7 16.1 M95.8 11.7 L95.8 25.2 91.35 25.2 91.35 20.15 87.75 20.15 87.75 25.2 83.3 25.2 83.3 11.7 87.75 11.7 87.75 16.75 91.35 16.75 91.35 11.7 95.8 11.7 M44.4 11.7 L51.6 11.7 Q54.35 11.65 56.35 13.65 58.3 15.7 58.35 18.45 58.3 21.2 56.35 23.2 54.35 25.2 51.6 25.2 L45.85 25.2 45.85 16.1 44.4 16.1 44.4 11.7 M51.6 16.1 L50.25 16.1 50.25 20.75 51.6 20.75 Q52.55 20.75 53.3 20.05 53.9 19.4 53.9 18.45 53.9 17.5 53.3 16.8 52.55 16.1 51.6 16.1 M19.0 20.4 L21.25 20.4 20.1 16.9 19.0 20.4 M35.45 12.9 Q37.65 13.8 38.0 15.15 L38.0 11.7 42.4 11.7 42.4 25.2 38.0 25.2 Q38.0 21.3 36.4 19.65 35.35 18.55 34.35 18.55 L34.35 25.2 29.95 25.2 29.95 16.1 28.55 16.1 28.55 11.7 30.25 11.7 Q33.1 11.7 35.45 12.9 M22.8 25.2 L22.25 23.6 17.95 23.6 17.4 25.2 12.8 25.2 15.9 16.1 11.4 16.1 11.4 11.7 22.9 11.7 27.35 25.2 22.8 25.2 M1.55 21.0 Q1.55 22.7 0.35 23.9 -0.9 25.2 -2.65 25.2 L-9.55 25.2 -9.55 20.75 -3.95 20.75 -3.95 20.65 -5.55 19.8 Q-8.1 18.4 -8.1 15.95 -8.1 14.1 -6.8 12.95 -5.65 11.7 -3.9 11.7 L2.95 11.7 2.95 16.1 -2.5 16.1 -2.5 16.25 -0.95 17.05 Q1.55 18.55 1.55 21.0" fill="#000000" fill-rule="evenodd" stroke="none"/>
    <path d="M1.45 -27.05 L10.25 -27.05 Q11.25 -27.05 12.05 -26.25 L12.1 -26.25 Q12.75 -27.0 13.9 -27.0 L30.6 -27.05 Q35.5 -27.05 39.0 -23.95 L39.2 -23.8 Q42.8 -20.45 42.8 -15.75 42.8 -10.95 39.2 -7.65 L39.05 -7.55 Q35.65 -4.45 30.6 -4.45 L25.3 -4.45 25.3 1.3 Q25.3 2.3 24.5 3.1 23.75 3.85 22.7 3.85 L13.9 3.85 Q12.85 3.85 12.1 3.1 L12.1 3.05 12.05 3.1 Q11.25 3.85 10.25 3.85 L1.45 3.85 Q0.6 3.85 -0.1 3.3 -0.75 3.85 -1.6 3.85 L-27.95 3.85 Q-28.95 3.85 -29.7 3.2 -30.4 3.85 -31.35 3.85 L-41.2 3.85 Q-48.25 3.85 -53.0 -0.55 L-53.15 -0.75 -55.05 -2.8 -55.05 1.3 Q-55.05 2.3 -55.85 3.1 -56.6 3.85 -57.65 3.85 L-66.4 3.85 Q-67.4 3.85 -68.15 3.15 -68.9 3.85 -69.9 3.85 L-78.75 3.85 Q-79.75 3.85 -80.5 3.1 -81.3 2.3 -81.25 1.3 -81.3 -4.8 -84.05 -7.65 L-84.9 -8.35 -84.9 1.3 Q-84.9 2.3 -85.7 3.1 -86.45 3.85 -87.5 3.85 L-96.25 3.85 Q-97.2 3.85 -97.95 3.2 -98.65 3.85 -99.6 3.85 L-108.45 3.85 Q-109.45 3.85 -110.2 3.1 L-110.6 2.65 -110.95 3.1 Q-111.75 3.85 -112.75 3.85 L-121.5 3.85 Q-122.55 3.85 -123.3 3.1 -124.1 2.3 -124.1 1.3 L-124.1 0.25 -126.05 2.85 -127.35 3.75 -127.45 3.8 -128.8 3.8 -128.9 3.75 Q-129.7 3.5 -130.15 2.85 L-132.1 0.25 -132.1 1.3 Q-132.1 2.3 -132.85 3.1 -133.6 3.85 -134.65 3.85 L-143.4 3.85 Q-144.45 3.85 -145.2 3.1 -146.0 2.3 -145.95 1.3 L-145.95 -14.05 -146.55 -14.05 Q-147.6 -14.05 -148.35 -14.85 -149.1 -15.6 -149.1 -16.6 L-149.1 -24.5 Q-149.1 -25.5 -148.35 -26.25 -147.6 -27.05 -146.55 -27.05 L-134.7 -27.05 -133.55 -26.8 -133.5 -26.75 Q-132.95 -26.5 -132.6 -25.95 L-132.65 -26.0 -128.1 -20.0 -123.55 -26.0 -123.5 -26.05 -122.6 -26.75 -121.5 -27.05 -112.75 -27.05 Q-111.75 -27.05 -110.95 -26.25 L-110.6 -25.85 -110.2 -26.25 Q-109.45 -27.05 -108.45 -27.05 L-99.6 -27.05 Q-98.65 -27.05 -97.95 -26.35 -97.2 -27.05 -96.25 -27.05 L-96.05 -27.05 Q-89.3 -27.05 -83.8 -24.6 L-81.25 -23.4 -81.25 -24.5 Q-81.3 -25.5 -80.5 -26.25 -79.75 -27.05 -78.75 -27.05 L-69.9 -27.05 Q-68.9 -27.05 -68.15 -26.3 -67.4 -27.05 -66.4 -27.05 L-57.65 -27.05 Q-56.6 -27.05 -55.85 -26.25 -55.05 -25.5 -55.05 -24.5 L-55.05 -20.3 -53.0 -22.6 Q-48.1 -27.05 -41.2 -27.05 L-31.35 -27.05 Q-30.4 -27.05 -29.65 -26.35 -28.9 -27.0 -27.95 -27.0 L-19.15 -27.05 Q-18.15 -27.05 -17.35 -26.25 -16.6 -25.5 -16.6 -24.5 L-16.6 -9.15 -1.6 -9.15 -1.05 -9.1 -1.05 -24.5 Q-1.1 -25.5 -0.3 -26.25 0.45 -27.05 1.45 -27.05 M10.2 -24.45 L1.4 -24.45 1.4 1.35 10.2 1.35 10.2 -24.45 M37.35 -21.9 Q34.5 -24.45 30.55 -24.45 L13.85 -24.4 13.85 1.35 22.65 1.35 22.65 -6.95 30.55 -6.95 Q34.6 -6.95 37.35 -9.55 40.15 -12.05 40.2 -15.7 40.15 -19.3 37.35 -21.9 M24.2 -16.2 L24.2 -15.3 28.8 -15.3 Q29.75 -15.3 29.9 -15.75 29.8 -16.1 29.3 -16.15 L29.15 -16.2 29.0 -16.2 24.2 -16.2 M22.6 -17.65 L28.95 -17.65 29.4 -17.65 Q31.4 -17.4 31.4 -15.7 31.4 -13.7 28.75 -13.7 L22.6 -13.7 22.6 -17.65 M69.75 -27.05 L79.65 -27.05 Q80.7 -27.05 81.45 -26.25 82.25 -25.5 82.25 -24.5 L82.25 -19.25 Q83.35 -21.05 85.1 -22.65 90.2 -27.25 97.3 -27.2 104.4 -27.25 109.6 -22.65 L112.25 -19.6 112.25 -24.5 Q112.2 -25.5 113.0 -26.25 113.75 -27.05 114.8 -27.05 L123.55 -27.05 124.65 -26.8 124.7 -26.75 125.6 -25.95 125.55 -26.0 130.05 -20.0 134.65 -26.0 134.7 -26.05 135.55 -26.75 136.7 -27.05 145.5 -27.05 Q146.5 -27.05 147.25 -26.25 148.0 -25.5 148.0 -24.5 L148.0 1.3 Q148.0 2.3 147.25 3.1 146.5 3.85 145.5 3.85 L136.7 3.85 Q135.65 3.85 134.9 3.1 134.15 2.3 134.15 1.3 L134.15 0.25 132.2 2.85 Q131.65 3.5 130.9 3.75 L130.8 3.8 129.4 3.8 129.3 3.75 Q128.5 3.5 128.05 2.85 L126.1 0.25 126.1 1.3 Q126.1 2.3 125.35 3.1 124.6 3.85 123.6 3.85 L114.8 3.85 Q113.75 3.85 113.0 3.1 112.2 2.3 112.25 1.3 L112.25 -3.4 Q111.15 -1.85 109.6 -0.45 104.55 4.1 97.3 4.15 90.0 4.1 85.0 -0.45 83.35 -2.0 82.25 -3.7 L82.25 1.3 Q82.25 2.3 81.45 3.1 80.7 3.85 79.65 3.85 L69.75 3.85 Q62.7 3.85 57.95 -0.55 L57.8 -0.7 Q52.9 -5.2 52.9 -11.6 52.9 -17.95 57.95 -22.6 62.85 -27.05 69.75 -27.05 M38.45 -7.35 L38.6 -7.4 38.5 -7.4 38.45 -7.35 M49.8 -5.35 Q48.6 -6.55 46.75 -6.55 44.9 -6.55 43.65 -5.35 42.3 -4.2 42.35 -2.6 42.3 -1.0 43.65 0.2 44.9 1.35 46.75 1.35 48.6 1.35 49.8 0.2 51.15 -1.0 51.15 -2.6 51.15 -4.2 49.8 -5.35 M46.9 -8.55 Q49.65 -8.55 51.45 -6.8 53.4 -5.1 53.45 -2.7 53.4 -0.35 51.45 1.4 49.65 3.1 46.9 3.15 44.15 3.1 42.35 1.4 40.35 -0.35 40.35 -2.7 40.35 -5.1 42.35 -6.8 44.15 -8.55 46.9 -8.55 M55.5 -11.55 Q55.5 -6.2 59.7 -2.45 63.75 1.35 69.8 1.35 L79.7 1.35 79.7 -6.5 69.8 -6.5 Q67.55 -6.5 65.9 -7.95 64.3 -9.45 64.35 -11.55 64.3 -13.7 65.9 -15.1 67.55 -16.6 69.8 -16.55 L79.7 -16.55 79.7 -24.45 69.8 -24.45 Q63.9 -24.45 59.7 -20.65 55.5 -16.8 55.5 -11.55 M99.5 -13.6 L99.5 -13.65 Q98.55 -14.5 97.25 -14.5 95.9 -14.5 94.95 -13.6 94.05 -12.8 94.05 -11.6 94.05 -10.45 94.95 -9.65 95.9 -8.8 97.25 -8.75 98.6 -8.8 99.6 -9.65 100.45 -10.45 100.5 -11.6 100.45 -12.75 99.5 -13.6 M99.95 -14.05 L100.05 -14.0 99.95 -14.05 M80.15 -14.1 L79.65 -14.05 69.75 -14.05 Q68.6 -14.1 67.75 -13.4 L67.55 -13.2 Q66.8 -12.6 66.85 -11.6 66.8 -10.6 67.55 -9.95 68.5 -9.15 69.75 -9.15 L79.65 -9.15 80.1 -9.1 Q79.9 -10.3 79.95 -11.55 79.9 -12.9 80.15 -14.1 M101.1 -15.1 Q102.75 -13.55 102.75 -11.55 102.75 -9.45 101.15 -7.95 99.5 -6.5 97.2 -6.5 94.95 -6.5 93.35 -7.95 91.75 -9.45 91.8 -11.55 91.75 -13.7 93.35 -15.1 94.95 -16.6 97.2 -16.55 99.45 -16.6 101.1 -15.1 M87.1 -2.45 Q91.2 1.35 97.2 1.35 103.2 1.35 107.35 -2.45 111.5 -6.2 111.55 -11.55 111.5 -16.85 107.35 -20.65 103.1 -24.45 97.2 -24.45 91.35 -24.45 87.15 -20.65 82.9 -16.85 82.95 -11.55 82.9 -6.25 87.1 -2.45 M130.1 -15.7 L123.6 -24.45 114.85 -24.45 114.85 1.35 123.65 1.35 123.65 -7.35 130.1 1.35 136.75 -7.35 136.75 1.35 145.55 1.35 145.55 -24.45 136.75 -24.45 130.1 -15.7 M-146.6 -24.45 L-146.6 -16.55 -143.45 -16.55 -143.45 1.35 -134.7 1.35 -134.7 -7.35 -128.15 1.35 -121.55 -7.35 -121.55 1.35 -112.8 1.35 -112.8 -24.45 -121.55 -24.45 -128.15 -15.7 -134.75 -24.45 -146.6 -24.45 M-96.1 -24.45 L-96.3 -24.45 -96.3 1.35 -87.55 1.35 -87.55 -11.75 Q-84.8 -11.75 -82.35 -9.5 -78.8 -6.1 -78.8 1.35 L-69.95 1.35 -69.95 -24.45 -78.8 -24.45 -78.8 -17.65 Q-80.35 -20.3 -84.85 -22.25 -89.9 -24.45 -96.1 -24.45 M-99.65 -24.45 L-108.5 -24.45 -108.5 1.35 -99.65 1.35 -99.65 -24.45 M-43.4 -13.25 Q-44.15 -12.6 -44.15 -11.6 -44.15 -10.65 -43.4 -9.95 -42.5 -9.15 -41.2 -9.15 L-31.35 -9.15 -30.55 -9.0 -30.55 -14.2 -31.35 -14.05 -41.2 -14.05 Q-42.5 -14.1 -43.4 -13.25 M-45.15 -15.1 Q-43.5 -16.6 -41.25 -16.55 L-31.4 -16.55 -31.4 -24.45 -41.25 -24.45 Q-47.15 -24.45 -51.35 -20.65 -55.55 -16.85 -55.55 -11.55 -55.55 -6.2 -51.35 -2.45 -47.3 1.35 -41.25 1.35 L-31.4 1.35 -31.4 -6.5 -41.25 -6.5 Q-43.5 -6.5 -45.15 -7.95 -46.8 -9.5 -46.75 -11.55 -46.8 -13.65 -45.15 -15.1 M-57.7 -24.45 L-66.45 -24.45 -66.45 1.35 -57.7 1.35 -57.7 -24.45 M-19.2 -6.5 L-19.2 -24.45 -28.0 -24.4 -28.0 1.35 -1.65 1.35 -1.65 -6.5 -19.2 -6.5" fill="#ffffff" fill-rule="evenodd" stroke="none"/>
    <path d="M130.1 -15.7 L136.75 -24.45 145.55 -24.45 145.55 1.35 136.75 1.35 136.75 -7.35 130.1 1.35 123.65 -7.35 123.65 1.35 114.85 1.35 114.85 -24.45 123.6 -24.45 130.1 -15.7" fill="url(#gradient0)" fill-rule="evenodd" stroke="none"/>
    <path d="M-146.6 -24.45 L-134.75 -24.45 -128.15 -15.7 -121.55 -24.45 -112.8 -24.45 -112.8 1.35 -121.55 1.35 -121.55 -7.35 -128.15 1.35 -134.7 -7.35 -134.7 1.35 -143.45 1.35 -143.45 -16.55 -146.6 -16.55 -146.6 -24.45" fill="url(#gradient1)" fill-rule="evenodd" stroke="none"/>
    <path d="M-99.65 -24.45 L-99.65 1.35 -108.5 1.35 -108.5 -24.45 -99.65 -24.45" fill="url(#gradient2)" fill-rule="evenodd" stroke="none"/>
    <path d="M-19.2 -6.5 L-1.65 -6.5 -1.65 1.35 -28.0 1.35 -28.0 -24.4 -19.2 -24.45 -19.2 -6.5" fill="url(#gradient3)" fill-rule="evenodd" stroke="none"/>
    <path d="M-45.15 -15.1 Q-46.8 -13.65 -46.75 -11.55 -46.8 -9.5 -45.15 -7.95 -43.5 -6.5 -41.25 -6.5 L-31.4 -6.5 -31.4 1.35 -41.25 1.35 Q-47.3 1.35 -51.35 -2.45 -55.55 -6.2 -55.55 -11.55 -55.55 -16.85 -51.35 -20.65 -47.15 -24.45 -41.25 -24.45 L-31.4 -24.45 -31.4 -16.55 -41.25 -16.55 Q-43.5 -16.6 -45.15 -15.1" fill="url(#gradient4)" fill-rule="evenodd" stroke="none"/>
    <path d="M-57.7 -24.45 L-57.7 1.35 -66.45 1.35 -66.45 -24.45 -57.7 -24.45" fill="url(#gradient5)" fill-rule="evenodd" stroke="none"/>
    <path d="M-96.1 -24.45 Q-89.9 -24.45 -84.85 -22.25 -80.35 -20.3 -78.8 -17.65 L-78.8 -24.45 -69.95 -24.45 -69.95 1.35 -78.8 1.35 Q-78.8 -6.1 -82.35 -9.5 -84.8 -11.75 -87.55 -11.75 L-87.55 1.35 -96.3 1.35 -96.3 -24.45 -96.1 -24.45" fill="url(#gradient6)" fill-rule="evenodd" stroke="none"/>
    <path d="M37.35 -21.9 Q40.15 -19.3 40.2 -15.7 40.15 -12.05 37.35 -9.55 34.6 -6.95 30.55 -6.95 L22.65 -6.95 22.65 1.35 13.85 1.35 13.85 -24.4 30.55 -24.45 Q34.5 -24.45 37.35 -21.9 M22.6 -17.65 L22.6 -13.7 28.75 -13.7 Q31.4 -13.7 31.4 -15.7 31.4 -17.4 29.4 -17.65 L28.95 -17.65 22.6 -17.65" fill="url(#gradient7)" fill-rule="evenodd" stroke="none"/>
    <path d="M49.8 -5.35 Q51.15 -4.2 51.15 -2.6 51.15 -1.0 49.8 0.2 48.6 1.35 46.75 1.35 44.9 1.35 43.65 0.2 42.3 -1.0 42.35 -2.6 42.3 -4.2 43.65 -5.35 44.9 -6.55 46.75 -6.55 48.6 -6.55 49.8 -5.35" fill="url(#gradient8)" fill-rule="evenodd" stroke="none"/>
    <path d="M55.5 -11.55 Q55.5 -16.8 59.7 -20.65 63.9 -24.45 69.8 -24.45 L79.7 -24.45 79.7 -16.55 69.8 -16.55 Q67.55 -16.6 65.9 -15.1 64.3 -13.7 64.35 -11.55 64.3 -9.45 65.9 -7.95 67.55 -6.5 69.8 -6.5 L79.7 -6.5 79.7 1.35 69.8 1.35 Q63.75 1.35 59.7 -2.45 55.5 -6.2 55.5 -11.55" fill="url(#gradient9)" fill-rule="evenodd" stroke="none"/>
    <path d="M10.2 -24.45 L10.2 1.35 1.4 1.35 1.4 -24.45 10.2 -24.45" fill="url(#gradient10)" fill-rule="evenodd" stroke="none"/>
    <path d="M87.1 -2.45 Q82.9 -6.25 82.95 -11.55 82.9 -16.85 87.15 -20.65 91.35 -24.45 97.2 -24.45 103.1 -24.45 107.35 -20.65 111.5 -16.85 111.55 -11.55 111.5 -6.2 107.35 -2.45 103.2 1.35 97.2 1.35 91.2 1.35 87.1 -2.45 M101.1 -15.1 Q99.45 -16.6 97.2 -16.55 94.95 -16.6 93.35 -15.1 91.75 -13.7 91.8 -11.55 91.75 -9.45 93.35 -7.95 94.95 -6.5 97.2 -6.5 99.5 -6.5 101.15 -7.95 102.75 -9.45 102.75 -11.55 102.75 -13.55 101.1 -15.1" fill="url(#gradient11)" fill-rule="evenodd" stroke="none"/>
  </g>
  <defs>
    <linearGradient gradientTransform="matrix(0.0, 0.0158, -0.0157, 0.0, 130.1, -11.55)" gradientUnits="userSpaceOnUse" id="gradient0" spreadMethod="pad" x1="-819.2" x2="819.2">
      <stop offset="0.0" stop-color="#ff8a00"/>
      <stop offset="1.0" stop-color="#e60012"/>
    </linearGradient>
    <linearGradient gradientTransform="matrix(0.0, 0.0158, -0.0157, 0.0, -129.7, -11.55)" gradientUnits="userSpaceOnUse" id="gradient1" spreadMethod="pad" x1="-819.2" x2="819.2">
      <stop offset="0.0" stop-color="#ff8a00"/>
      <stop offset="1.0" stop-color="#e60012"/>
    </linearGradient>
    <linearGradient gradientTransform="matrix(0.0, 0.0158, -0.0157, 0.0, -104.15, -11.55)" gradientUnits="userSpaceOnUse" id="gradient2" spreadMethod="pad" x1="-819.2" x2="819.2">
      <stop offset="0.0" stop-color="#ff8a00"/>
      <stop offset="1.0" stop-color="#e60012"/>
    </linearGradient>
    <linearGradient gradientTransform="matrix(0.0, 0.0158, -0.0157, 0.0, -14.85, -11.55)" gradientUnits="userSpaceOnUse" id="gradient3" spreadMethod="pad" x1="-819.2" x2="819.2">
      <stop offset="0.0" stop-color="#ff8a00"/>
      <stop offset="1.0" stop-color="#e60012"/>
    </linearGradient>
    <linearGradient gradientTransform="matrix(0.0, 0.0156, -0.0157, 0.0, -43.5, -11.55)" gradientUnits="userSpaceOnUse" id="gradient4" spreadMethod="pad" x1="-819.2" x2="819.2">
      <stop offset="0.0" stop-color="#ff8a00"/>
      <stop offset="1.0" stop-color="#e60012"/>
    </linearGradient>
    <linearGradient gradientTransform="matrix(0.0, 0.0158, -0.0157, 0.0, -62.1, -11.55)" gradientUnits="userSpaceOnUse" id="gradient5" spreadMethod="pad" x1="-819.2" x2="819.2">
      <stop offset="0.0" stop-color="#ff8a00"/>
      <stop offset="1.0" stop-color="#e60012"/>
    </linearGradient>
    <linearGradient gradientTransform="matrix(0.0, 0.0158, -0.0157, 0.0, -83.2, -11.55)" gradientUnits="userSpaceOnUse" id="gradient6" spreadMethod="pad" x1="-819.2" x2="819.2">
      <stop offset="0.0" stop-color="#ff8a00"/>
      <stop offset="1.0" stop-color="#e60012"/>
    </linearGradient>
    <linearGradient gradientTransform="matrix(0.0, 0.0155, -0.0157, 0.0, 26.95, -11.55)" gradientUnits="userSpaceOnUse" id="gradient7" spreadMethod="pad" x1="-819.2" x2="819.2">
      <stop offset="0.0" stop-color="#ff8a00"/>
      <stop offset="1.0" stop-color="#e60012"/>
    </linearGradient>
    <linearGradient gradientTransform="matrix(0.0, 0.0154, -0.0048, 0.0, 45.95, -10.8)" gradientUnits="userSpaceOnUse" id="gradient8" spreadMethod="pad" x1="-819.2" x2="819.2">
      <stop offset="0.0" stop-color="#ff8a00"/>
      <stop offset="1.0" stop-color="#e60012"/>
    </linearGradient>
    <linearGradient gradientTransform="matrix(0.0, 0.0158, -0.0157, 0.0, 67.6, -11.55)" gradientUnits="userSpaceOnUse" id="gradient9" spreadMethod="pad" x1="-819.2" x2="819.2">
      <stop offset="0.0" stop-color="#ff8a00"/>
      <stop offset="1.0" stop-color="#e60012"/>
    </linearGradient>
    <linearGradient gradientTransform="matrix(0.0, 0.0158, -0.0157, 0.0, 5.8, -11.55)" gradientUnits="userSpaceOnUse" id="gradient10" spreadMethod="pad" x1="-819.2" x2="819.2">
      <stop offset="0.0" stop-color="#ff8a00"/>
      <stop offset="1.0" stop-color="#e60012"/>
    </linearGradient>
    <linearGradient gradientTransform="matrix(0.0, 0.0158, -0.0157, 0.0, 97.25, -11.55)" gradientUnits="userSpaceOnUse" id="gradient11" spreadMethod="pad" x1="-819.2" x2="819.2">
      <stop offset="0.0" stop-color="#ff8a00"/>
      <stop offset="1.0" stop-color="#e60012"/>
    </linearGradient>
  </defs>
</svg>
