<?xml version="1.0" encoding="UTF-8" standalone="no"?>
<svg xmlns:ffdec="https://www.free-decompiler.com/flash" xmlns:xlink="http://www.w3.org/1999/xlink" ffdec:objectType="shape" height="58.5px" width="611.45px" xmlns="http://www.w3.org/2000/svg">
  <g transform="matrix(1.0, 0.0, 0.0, 1.0, 8.85, -360.45)">
    <path d="M395.5 388.9 L399.95 391.1 Q411.9 397.6 426.05 396.45 L427.7 393.8 Q428.75 385.65 426.95 378.0 441.05 381.3 454.25 383.8 472.6 391.7 493.85 393.8 L537.4 395.7 Q555.65 395.8 569.7 390.05 L571.85 390.05 Q574.4 388.2 577.15 387.25 L577.75 386.85 Q581.4 385.3 585.05 383.4 L592.9 380.5 601.85 376.3 601.85 416.0 532.85 417.2 510.2 418.1 490.25 418.55 Q489.2 416.25 487.4 414.25 488.35 415.4 488.4 418.0 L488.4 418.6 483.5 418.65 478.05 418.75 Q446.0 419.15 413.95 418.65 L410.4 418.6 265.65 415.8 265.5 415.8 259.0 415.75 251.9 415.7 236.95 415.65 235.05 415.65 227.8 415.6 223.95 415.6 223.5 415.6 212.0 415.55 200.15 415.5 138.6 415.1 Q98.35 414.85 58.15 414.0 L30.85 413.35 29.05 413.25 15.2 412.4 8.85 412.05 -8.1 411.0 -8.1 376.0 -3.0 377.15 Q5.35 380.6 14.7 382.05 L48.05 387.95 Q65.15 391.25 83.15 390.95 100.95 390.65 118.7 390.7 136.25 390.7 153.75 389.85 171.85 388.6 188.0 384.7 L206.95 380.1 Q213.45 377.1 219.85 373.45 241.45 366.85 251.2 361.2 L251.9 365.5 252.05 366.15 Q251.55 371.0 252.25 376.3 252.45 378.05 253.6 380.1 255.4 380.9 256.7 382.45 L257.25 383.3 Q265.65 387.35 276.65 387.5 289.15 387.7 301.3 385.6 L313.4 385.55 Q331.15 385.3 348.85 385.35 L380.3 386.75 395.5 388.9" fill="#ffffff" fill-rule="evenodd" stroke="none"/>
    <path d="M490.25 418.55 L488.4 418.6 488.4 418.0 Q488.35 415.4 487.4 414.25 489.2 416.25 490.25 418.55" fill="#caeafe" fill-rule="evenodd" stroke="none"/>
    <path d="M454.25 383.8 L477.25 387.6 Q544.0 397.1 585.05 383.4 581.4 385.3 577.75 386.85 L577.15 387.25 Q574.4 388.2 571.85 390.05 L569.7 390.05 Q555.65 395.8 537.4 395.7 L493.85 393.8 Q472.6 391.7 454.25 383.8" fill="#e6efff" fill-rule="evenodd" stroke="none"/>
    <path d="M395.5 388.9 L401.35 389.8 412.65 389.45 413.7 389.15 413.95 389.1 Q423.6 386.65 425.4 377.65 L426.8 378.0 426.95 378.0 Q428.75 385.65 427.7 393.8 L426.05 396.45 Q411.9 397.6 399.95 391.1 L395.5 388.9 M-3.0 377.15 Q52.8 389.65 109.4 388.65 170.95 386.85 204.65 377.8 L219.85 373.45 Q213.45 377.1 206.95 380.1 L188.0 384.7 Q171.85 388.6 153.75 389.85 136.25 390.7 118.7 390.7 100.95 390.65 83.15 390.95 65.15 391.25 48.05 387.95 L14.7 382.05 Q5.35 380.6 -3.0 377.15 M252.05 366.15 Q253.1 370.45 255.7 374.3 L256.75 375.75 259.0 378.2 Q265.45 384.3 274.85 384.7 L301.3 385.6 Q289.15 387.7 276.65 387.5 265.65 387.35 257.25 383.3 L256.7 382.45 Q255.4 380.9 253.6 380.1 252.45 378.05 252.25 376.3 251.55 371.0 252.05 366.15" fill="#d5eaff" fill-rule="evenodd" stroke="none"/>
    <path d="M-8.1 376.0 Q50.2 389.7 109.4 388.65 170.95 386.85 204.65 377.8 238.3 368.7 251.2 361.2 L251.9 365.5 Q252.9 370.15 255.7 374.3 L256.75 375.75 259.0 378.2 Q265.45 384.3 274.85 384.7 294.1 385.85 313.4 385.55 331.15 385.3 348.85 385.35 L380.3 386.75 401.35 389.8 412.65 389.45 413.7 389.15 413.95 389.1 Q423.6 386.65 425.4 377.65 L426.8 378.0 Q546.2 405.85 601.85 376.3" fill="none" stroke="#000000" stroke-linecap="round" stroke-linejoin="round" stroke-width="1.5"/>
  </g>
</svg>
