<?xml version="1.0" encoding="UTF-8" standalone="no"?>
<svg xmlns:ffdec="https://www.free-decompiler.com/flash" xmlns:xlink="http://www.w3.org/1999/xlink" ffdec:objectType="shape" height="46.15px" width="116.75px" xmlns="http://www.w3.org/2000/svg">
  <g transform="matrix(1.0, 0.0, 0.0, 1.0, -239.05, -372.85)">
    <path d="M250.9 380.1 L250.75 380.15 248.4 379.5 250.9 380.1" fill="#000000" fill-rule="evenodd" stroke="none"/>
    <path d="M315.55 381.4 Q321.95 382.3 328.1 384.5 331.85 385.8 334.8 388.45 L338.7 392.2 339.0 391.95 339.6 391.35 340.65 390.25 342.35 389.6 Q347.5 387.5 353.55 386.8 L352.8 388.75 352.55 389.5 Q350.65 394.65 347.5 398.4 L347.2 399.5 352.55 399.5 Q350.65 404.65 347.5 408.4 L347.2 409.5 352.55 409.5 Q351.55 412.2 350.2 414.5 L352.55 414.5 350.5 419.0 254.55 419.0 Q253.55 416.85 253.1 414.5 L254.8 414.5 Q253.6 412.15 253.1 409.5 L258.3 409.5 Q254.2 405.2 253.1 399.5 L258.3 399.5 Q254.2 395.2 253.1 389.5 252.45 386.0 252.9 381.9 L242.05 383.0 Q244.5 382.55 244.55 381.65 253.5 381.5 253.5 381.85 L253.65 385.0 Q253.75 383.4 254.25 381.8 L254.45 381.2 269.65 383.1 Q275.7 383.25 280.85 381.5 290.2 384.35 300.55 383.85 L305.3 383.35 311.25 382.7 Q313.5 382.35 315.55 381.4 M254.0 381.1 L244.5 381.5 244.5 381.4 244.25 380.95 Q243.25 379.75 239.05 377.95 250.7 380.35 239.1 377.15 L244.1 378.45 244.05 378.5 245.3 378.75 247.8 379.35 Q249.1 379.75 250.35 380.3 L250.65 380.45 254.0 381.1" fill="#ffffff" fill-rule="evenodd" stroke="none"/>
    <path d="M244.1 378.45 L245.3 378.75 244.05 378.5 244.1 378.45" fill="#caeafe" fill-rule="evenodd" stroke="none"/>
    <path d="M353.55 386.8 Q347.5 387.5 342.35 389.6 L340.65 390.25 339.6 391.35 339.0 391.95 338.7 392.2 334.8 388.45 Q331.85 385.8 328.1 384.5 321.95 382.3 315.55 381.4 L317.45 380.35 318.4 379.8 Q325.5 378.2 332.9 378.3 L335.1 379.2 Q344.05 383.4 353.05 385.25 L353.55 385.0 353.6 385.35 353.55 386.8 M280.85 381.5 Q275.7 383.25 269.65 383.1 L254.45 381.2 254.5 381.1 254.0 381.1 250.65 380.45 250.35 380.3 Q249.1 379.75 247.8 379.35 L248.4 379.5 250.75 380.15 250.9 380.1 252.1 380.35 251.65 380.0 251.85 380.0 258.7 379.05 261.55 378.6 269.05 377.0 Q270.9 377.45 272.45 378.2 276.55 380.2 280.85 381.5" fill="#d5eaff" fill-rule="evenodd" stroke="none"/>
    <path d="M332.9 378.3 Q325.5 378.2 318.4 379.8 L317.45 380.35 Q314.6 382.2 311.25 382.7 L305.3 383.35 300.55 383.85 Q285.45 384.55 272.45 378.2 270.9 377.45 269.05 377.0 267.25 377.9 251.65 380.0 L251.55 379.35 Q257.3 378.3 263.85 375.95 L264.8 375.6 268.25 372.95 268.3 372.85 Q269.35 373.05 269.8 373.95 L269.9 374.0 Q283.7 382.95 301.35 381.3 L310.4 380.15 Q314.3 379.55 317.9 377.75 323.75 374.8 330.2 375.1 L331.65 375.2 336.4 376.0 Q337.75 376.8 338.5 377.9 347.35 382.15 355.8 385.75 L353.6 385.35 353.55 385.0 353.05 385.25 Q344.05 383.4 335.1 379.2 L332.9 378.3" fill="#000000" fill-rule="evenodd" stroke="none"/>
  </g>
</svg>
