<?xml version="1.0" encoding="UTF-8" standalone="no"?>
<svg xmlns:ffdec="https://www.free-decompiler.com/flash" xmlns:xlink="http://www.w3.org/1999/xlink" ffdec:objectType="shape" height="66.75px" width="618.95px" xmlns="http://www.w3.org/2000/svg">
  <g transform="matrix(1.0, 0.0, 0.0, 1.0, 8.0, 52.45)">
    <path d="M537.6 10.5 Q533.5 10.35 529.05 10.45 L526.4 10.5 516.15 9.8 515.75 9.75 508.2 8.85 507.2 8.75 491.1 7.35 475.65 6.8 463.3 6.0 Q453.5 5.3 443.6 5.55 L430.1 6.4 429.15 6.4 428.95 6.55 419.55 7.7 Q400.1 10.8 380.3 9.0 L360.85 7.9 339.8 6.55 325.7 5.45 321.9 5.35 321.05 5.35 314.85 5.2 313.8 5.2 305.65 5.1 Q292.2 5.95 280.8 8.3 L255.15 9.65 248.95 9.85 230.15 10.25 223.55 10.25 208.5 9.05 Q190.45 6.9 171.15 7.75 L162.6 8.15 136.8 9.5 Q124.0 10.2 109.6 9.9 L103.25 9.7 101.75 9.65 77.4 8.4 70.55 7.95 Q53.85 6.8 39.75 7.9 25.65 8.95 10.65 12.35 L-3.45 11.95 -8.0 11.35 -8.0 -52.45 Q301.45 -52.45 610.95 -52.05 L610.95 1.0 Q603.75 1.4 596.9 2.75 568.4 8.3 537.6 10.5" fill="#ffffff" fill-rule="evenodd" stroke="none"/>
    <path d="M610.95 1.0 L610.95 4.9 604.55 5.2 Q597.9 4.3 592.15 6.3 L590.95 6.45 590.65 6.5 589.5 6.75 565.8 9.1 544.7 10.35 542.3 10.2 542.4 10.4 538.4 10.55 538.25 10.55 537.6 10.5 Q568.4 8.3 596.9 2.75 603.75 1.4 610.95 1.0" fill="#caeafe" fill-rule="evenodd" stroke="none"/>
    <path d="M610.95 4.95 L610.95 6.0 601.45 6.2 593.55 7.05 Q576.5 10.7 559.25 12.25 L548.95 11.8 541.05 11.8 522.35 11.45 496.25 9.85 458.9 7.3 Q440.8 6.75 423.0 9.1 L414.05 10.1 392.7 11.0 370.2 10.55 339.8 8.55 317.65 7.15 Q305.45 6.55 293.4 8.6 282.6 10.5 271.6 10.8 L255.65 11.35 241.45 11.65 222.6 11.4 216.05 10.8 194.3 9.6 171.6 10.85 164.15 11.15 Q151.8 11.7 139.5 11.55 L116.35 11.2 94.7 11.05 Q83.95 11.05 72.1 10.55 62.0 10.2 51.8 10.0 37.1 9.75 22.9 12.75 10.25 15.2 -2.45 13.8 L-8.0 13.15 -8.0 11.35 -3.45 11.95 10.65 12.35 Q25.65 8.95 39.75 7.9 53.85 6.8 70.55 7.95 L101.75 9.65 103.25 9.7 104.5 9.75 109.6 9.9 Q124.0 10.2 136.8 9.5 L171.15 7.75 Q190.45 6.9 208.5 9.05 L223.55 10.25 230.6 10.3 251.3 9.8 255.65 9.7 280.35 8.4 280.8 8.3 Q292.2 5.95 305.65 5.1 L313.8 5.2 314.85 5.2 321.05 5.35 321.9 5.35 325.7 5.45 339.8 6.55 360.85 7.9 380.3 9.0 Q400.1 10.8 419.55 7.7 L428.95 6.55 430.1 6.4 443.6 5.55 Q453.5 5.3 463.3 6.0 L491.1 7.35 507.2 8.75 508.2 8.85 511.15 9.25 516.15 9.8 526.4 10.5 Q532.05 10.7 537.75 10.55 L538.25 10.55 538.4 10.55 542.4 10.4 544.7 10.35 565.8 9.1 589.5 6.75 607.75 5.1 610.95 4.95" fill="#000000" fill-rule="evenodd" stroke="none"/>
  </g>
</svg>
