<?xml version="1.0" encoding="UTF-8" standalone="no"?>
<svg xmlns:ffdec="https://www.free-decompiler.com/flash" xmlns:xlink="http://www.w3.org/1999/xlink" ffdec:objectType="shape" height="28.95px" width="186.85px" xmlns="http://www.w3.org/2000/svg">
  <g transform="matrix(1.0, 0.0, 0.0, 1.0, 111.2, 15.5)">
    <path d="M62.45 -14.5 Q65.7 -14.05 68.15 -12.7 73.75 -9.6 74.65 -1.65 L74.65 1.2 74.4 1.2 Q72.65 10.75 63.75 12.45 L-99.35 12.45 Q-106.8 11.0 -109.2 4.1 L-109.95 1.2 -110.2 1.2 -110.2 -1.65 Q-109.7 -6.45 -107.45 -9.45 -105.95 -11.5 -103.7 -12.7 -101.3 -14.05 -98.05 -14.5 L62.45 -14.5" fill="#ffffff" fill-rule="evenodd" stroke="none"/>
    <path d="M62.45 -14.5 L-98.05 -14.5 Q-101.3 -14.05 -103.7 -12.7 -105.95 -11.5 -107.45 -9.45 -109.7 -6.45 -110.2 -1.65 L-110.2 1.2 -109.95 1.2 -109.2 4.1 Q-106.8 11.0 -99.35 12.45 L63.75 12.45 Q72.65 10.75 74.4 1.2 L74.65 1.2 74.65 -1.65 Q73.75 -9.6 68.15 -12.7 65.7 -14.05 62.45 -14.5 Z" fill="none" stroke="#003366" stroke-linecap="round" stroke-linejoin="round" stroke-opacity="0.2" stroke-width="2.0"/>
  </g>
</svg>
