<?xml version="1.0" encoding="UTF-8" standalone="no"?>
<svg xmlns:ffdec="https://www.free-decompiler.com/flash" xmlns:xlink="http://www.w3.org/1999/xlink" ffdec:objectType="shape" height="84.5px" width="290.6px" xmlns="http://www.w3.org/2000/svg">
  <g transform="matrix(1.0, 0.0, 0.0, 1.0, -152.9, -156.45)">
    <path d="M162.9 156.45 L168.05 156.45 Q164.15 156.55 161.3 159.35 158.4 162.3 158.4 166.45 L158.4 230.95 Q158.4 235.1 161.3 238.0 164.15 240.85 168.05 240.95 L162.9 240.95 Q158.75 240.95 155.8 238.0 152.9 235.1 152.9 230.95 L152.9 166.45 Q152.9 162.3 155.8 159.35 158.75 156.45 162.9 156.45 M440.6 159.35 Q443.5 162.3 443.5 166.45 L443.5 230.95 Q443.5 235.1 440.6 238.0 437.65 240.95 433.5 240.95 L428.35 240.95 Q432.25 240.85 435.1 238.0 438.0 235.1 438.0 230.95 L438.0 166.45 Q438.0 162.3 435.1 159.35 432.25 156.55 428.35 156.45 L433.5 156.45 Q437.65 156.45 440.6 159.35" fill="#66cc00" fill-rule="evenodd" stroke="none"/>
  </g>
</svg>
