<?xml version="1.0" encoding="UTF-8" standalone="no"?>
<svg xmlns:ffdec="https://www.free-decompiler.com/flash" xmlns:xlink="http://www.w3.org/1999/xlink" ffdec:objectType="shape" height="55.0px" width="112.95px" xmlns="http://www.w3.org/2000/svg">
  <g transform="matrix(1.0, 0.0, 0.0, 1.0, -92.0, -20.0)">
    <path d="M203.2 21.75 Q204.95 23.5 204.95 26.0 L204.95 69.0 Q204.95 71.5 203.2 73.25 201.45 75.0 198.95 75.0 L98.0 75.0 Q95.5 75.0 93.75 73.25 92.0 71.5 92.0 69.0 L92.0 26.0 Q92.0 23.5 93.75 21.75 95.5 20.0 98.0 20.0 L198.95 20.0 Q201.45 20.0 203.2 21.75 M193.1 28.35 Q196.0 31.3 196.0 35.45 L196.0 59.95 Q196.0 64.1 193.1 67.0 190.25 69.85 186.35 69.95 L191.5 69.95 Q195.65 69.95 198.6 67.0 201.5 64.1 201.5 59.95 L201.5 35.45 Q201.5 31.3 198.6 28.35 195.65 25.45 191.5 25.45 L186.35 25.45 Q190.25 25.55 193.1 28.35 M112.05 25.45 L106.9 25.45 Q102.75 25.45 99.8 28.35 96.9 31.3 96.9 35.45 L96.9 59.95 Q96.9 64.1 99.8 67.0 102.75 69.95 106.9 69.95 L112.05 69.95 Q108.15 69.85 105.3 67.0 102.4 64.1 102.4 59.95 L102.4 35.45 Q102.4 31.3 105.3 28.35 108.15 25.55 112.05 25.45" fill="#ffffff" fill-rule="evenodd" stroke="none"/>
    <path d="M112.05 25.45 Q108.15 25.55 105.3 28.35 102.4 31.3 102.4 35.45 L102.4 59.95 Q102.4 64.1 105.3 67.0 108.15 69.85 112.05 69.95 L106.9 69.95 Q102.75 69.95 99.8 67.0 96.9 64.1 96.9 59.95 L96.9 35.45 Q96.9 31.3 99.8 28.35 102.75 25.45 106.9 25.45 L112.05 25.45 M193.1 28.35 Q190.25 25.55 186.35 25.45 L191.5 25.45 Q195.65 25.45 198.6 28.35 201.5 31.3 201.5 35.45 L201.5 59.95 Q201.5 64.1 198.6 67.0 195.65 69.95 191.5 69.95 L186.35 69.95 Q190.25 69.85 193.1 67.0 196.0 64.1 196.0 59.95 L196.0 35.45 Q196.0 31.3 193.1 28.35" fill="#66cc00" fill-rule="evenodd" stroke="none"/>
  </g>
</svg>
