<?xml version="1.0" encoding="UTF-8" standalone="no"?>
<svg xmlns:ffdec="https://www.free-decompiler.com/flash" xmlns:xlink="http://www.w3.org/1999/xlink" ffdec:objectType="shape" height="67.0px" width="85.0px" xmlns="http://www.w3.org/2000/svg">
  <g transform="matrix(1.0, 0.0, 0.0, 1.0, 0.0, 0.0)">
    <path d="M83.0 56.0 Q83.0 59.7 80.35 62.35 77.7 65.0 74.0 65.0 L11.0 65.0 Q7.25 65.0 4.6 62.35 2.0 59.75 2.0 56.0 L2.0 11.0 Q2.0 7.3 4.6 4.65 L4.65 4.6 Q7.3 2.0 11.0 2.0 L74.0 2.0 Q77.75 2.0 80.35 4.6 83.0 7.25 83.0 11.0 L83.0 56.0 M64.5 2.5 L64.5 64.5 64.5 2.5" fill="#ffffff" fill-rule="evenodd" stroke="none"/>
    <path d="M83.0 56.0 L83.0 11.0 Q83.0 7.25 80.35 4.6 77.75 2.0 74.0 2.0 L11.0 2.0 Q7.3 2.0 4.65 4.6 L4.6 4.65 Q2.0 7.3 2.0 11.0 L2.0 56.0 Q2.0 59.75 4.6 62.35 7.25 65.0 11.0 65.0 L74.0 65.0 Q77.7 65.0 80.35 62.35 83.0 59.7 83.0 56.0 M81.75 3.2 Q85.0 6.45 85.0 11.0 L85.0 56.0 Q85.0 60.55 81.8 63.75 L81.75 63.8 Q78.55 67.0 74.0 67.0 L11.0 67.0 Q6.45 67.0 3.2 63.75 0.0 60.55 0.0 56.0 L0.0 11.0 Q0.0 6.45 3.2 3.2 6.45 0.0 11.0 0.0 L74.0 0.0 Q78.55 0.0 81.75 3.2" fill="#003366" fill-rule="evenodd" stroke="none"/>
  </g>
</svg>
