<?xml version="1.0" encoding="UTF-8" standalone="no"?>
<svg xmlns:ffdec="https://www.free-decompiler.com/flash" xmlns:xlink="http://www.w3.org/1999/xlink" ffdec:objectType="shape" height="7.2px" width="7.2px" xmlns="http://www.w3.org/2000/svg">
  <g transform="matrix(1.0, 0.0, 0.0, 1.0, 3.6, 3.6)">
    <path d="M2.25 -2.85 Q3.0 -1.9 3.0 -0.6 3.0 0.9 1.95 1.95 0.9 3.0 -0.6 3.0 -1.9 3.0 -2.85 2.25 -3.6 1.3 -3.6 0.0 -3.6 -1.5 -2.55 -2.55 -1.5 -3.6 0.0 -3.6 1.3 -3.6 2.25 -2.85" fill="#ffffff" fill-rule="evenodd" stroke="none"/>
    <path d="M-2.85 2.25 Q-1.9 3.0 -0.6 3.0 0.9 3.0 1.95 1.95 3.0 0.9 3.0 -0.6 3.0 -1.9 2.25 -2.85 L2.55 -2.55 Q3.6 -1.5 3.6 0.0 3.6 1.5 2.55 2.55 1.5 3.6 0.0 3.6 -1.5 3.6 -2.55 2.55 L-2.85 2.25" fill="#9eddfe" fill-rule="evenodd" stroke="none"/>
  </g>
</svg>
