<?xml version="1.0" encoding="UTF-8" standalone="no"?>
<svg xmlns:ffdec="https://www.free-decompiler.com/flash" xmlns:xlink="http://www.w3.org/1999/xlink" ffdec:objectType="frame" height="39.8px" width="41.1px" xmlns="http://www.w3.org/2000/svg">
  <g transform="matrix(1.0, 0.0, 0.0, 1.0, 21.65, 17.35)">
    <use ffdec:characterId="282" height="18.5" transform="matrix(0.9981, -0.0262, 0.0262, 0.9981, -5.1892, -12.2395)" width="19.15" xlink:href="#shape0"/>
    <use ffdec:characterId="283" height="27.1" transform="matrix(0.9982, -0.0264, 0.0264, 0.9982, -14.9249, -10.5067)" width="26.2" xlink:href="#shape1"/>
  </g>
  <defs>
    <g id="shape0" transform="matrix(1.0, 0.0, 0.0, 1.0, 11.25, 8.05)">
      <path d="M0.35 -8.05 L2.8 -5.15 2.7 -5.1 7.9 0.9 7.3 2.2 -1.15 10.45 -1.15 9.05 5.35 2.65 5.85 1.75 Q6.55 0.75 6.1 0.2 L4.15 -2.05 2.0 -4.45 2.0 -4.5 0.15 -6.5 -11.25 1.1 -11.25 -1.0 0.35 -8.05" fill="#000000" fill-rule="evenodd" stroke="none"/>
      <path d="M2.0 -4.5 L2.0 -4.45 4.15 -2.05 6.1 0.2 Q6.55 0.75 5.85 1.75 L5.35 2.65 -1.15 9.05 -7.35 9.05 -11.25 1.1 0.15 -6.5 2.0 -4.5" fill="url(#gradient0)" fill-rule="evenodd" stroke="none"/>
    </g>
    <linearGradient gradientTransform="matrix(0.0048, 0.0059, -0.0074, 0.006, -2.0, 1.7)" gradientUnits="userSpaceOnUse" id="gradient0" spreadMethod="pad" x1="-819.2" x2="819.2">
      <stop offset="0.0" stop-color="#737373"/>
      <stop offset="1.0" stop-color="#bfbfbf"/>
    </linearGradient>
    <g id="shape1" transform="matrix(1.0, 0.0, 0.0, 1.0, 14.1, 11.4)">
      <path d="M-12.2 -1.45 L-14.1 -1.7 1.65 -11.4 5.65 -6.65 5.6 -6.6 12.1 1.0 11.15 3.0 -1.75 15.7 -1.05 12.7 Q7.6 5.35 9.15 3.05 10.9 0.35 9.9 -0.55 L7.05 -3.55 4.85 -5.95 4.7 -6.15 4.8 -6.1 1.3 -9.95 -12.2 -1.45" fill="#000000" fill-rule="evenodd" stroke="none"/>
      <path d="M-12.2 -1.45 L1.3 -9.95 4.8 -6.1 4.7 -6.15 4.85 -5.95 7.05 -3.55 9.9 -0.55 Q10.9 0.35 9.15 3.05 7.6 5.35 -1.05 12.7 L-12.2 -1.45" fill="url(#gradient1)" fill-rule="evenodd" stroke="none"/>
    </g>
    <linearGradient gradientTransform="matrix(0.0062, 0.0078, -0.0108, 0.0086, -1.0, 1.3)" gradientUnits="userSpaceOnUse" id="gradient1" spreadMethod="pad" x1="-819.2" x2="819.2">
      <stop offset="0.0" stop-color="#a7a7a7"/>
      <stop offset="1.0" stop-color="#eaeaea"/>
    </linearGradient>
  </defs>
</svg>
