<?xml version="1.0" encoding="UTF-8" standalone="no"?>
<svg xmlns:ffdec="https://www.free-decompiler.com/flash" xmlns:xlink="http://www.w3.org/1999/xlink" ffdec:objectType="frame" height="193.0px" width="265.6px" xmlns="http://www.w3.org/2000/svg">
  <g transform="matrix(1.0, 0.0, 0.0, 1.0, 127.6, 94.1)">
    <use ffdec:characterId="453" height="157.0" transform="matrix(1.0, 0.0, 0.0, 1.0, -104.8, -58.1)" width="216.0" xlink:href="#shape0"/>
    <use ffdec:characterId="454" height="19.95" transform="matrix(1.0, 0.0, 0.0, 1.0, -74.5, -35.2)" width="167.15" xlink:href="#text0"/>
    <use ffdec:characterId="455" height="23.6" id="txtName" transform="matrix(1.0, 0.0, 0.0, 1.0, -127.6, -9.3)" width="265.6" xlink:href="#text1"/>
    <use ffdec:characterId="456" height="41.65" transform="matrix(1.0, 0.0, 0.0, 1.0, -94.0, 52.7)" width="90.0" xlink:href="#button0"/>
    <use ffdec:characterId="457" height="36.65" transform="matrix(1.0, 0.0, 0.0, 1.0, -2.4, 55.8)" width="103.0" xlink:href="#button1"/>
    <use ffdec:characterId="458" height="12.7" transform="matrix(1.0, 0.0, 0.0, 1.0, -38.25, 28.7)" width="91.6" xlink:href="#text4"/>
    <use ffdec:characterId="463" height="31.0" id="mcNoSnow" transform="matrix(1.0, 0.0, 0.0, 1.0, -104.8, -94.1)" width="216.0" xlink:href="#sprite0"/>
  </g>
  <defs>
    <g id="shape0" transform="matrix(1.0, 0.0, 0.0, 1.0, 104.8, 58.1)">
      <path d="M102.95 -57.95 Q106.0 -57.45 108.25 -55.2 111.2 -52.25 111.2 -48.1 L111.2 88.9 Q111.2 93.05 108.25 95.95 105.35 98.9 101.2 98.9 L-94.8 98.9 Q-98.95 98.9 -101.9 95.95 -104.8 93.05 -104.8 88.9 L-104.8 -48.1 Q-104.8 -52.25 -101.9 -55.2 -100.1 -56.95 -97.85 -57.65 L-94.8 -58.1 101.2 -58.1 102.95 -57.95 M93.25 93.9 L97.0 93.9 Q101.15 93.9 104.1 90.95 107.0 88.05 107.0 83.9 L107.0 -43.1 Q107.0 -47.25 104.1 -50.2 102.3 -51.95 100.1 -52.65 L97.0 -53.1 93.2 -53.1 96.1 -52.65 Q98.3 -51.95 100.1 -50.2 103.0 -47.25 103.0 -43.1 L103.0 83.9 Q103.0 88.05 100.1 90.95 97.25 93.8 93.25 93.9 L93.25 93.85 92.25 93.9 93.25 93.9 M-97.9 -50.2 Q-100.8 -47.25 -100.8 -43.1 L-100.8 83.9 Q-100.8 88.05 -97.9 90.95 -94.95 93.9 -90.8 93.9 L-87.05 93.9 Q-91.05 93.8 -93.9 90.95 -96.8 88.05 -96.8 83.9 L-96.8 -43.1 Q-96.8 -47.25 -93.9 -50.2 -92.1 -51.95 -89.85 -52.65 L-87.0 -53.1 -90.8 -53.1 -93.85 -52.65 Q-96.1 -51.95 -97.9 -50.2" fill="#ffffff" fill-rule="evenodd" stroke="none"/>
      <path d="M93.25 93.9 Q97.25 93.8 100.1 90.95 103.0 88.05 103.0 83.9 L103.0 -43.1 Q103.0 -47.25 100.1 -50.2 98.3 -51.95 96.1 -52.65 L93.2 -53.1 97.0 -53.1 100.1 -52.65 Q102.3 -51.95 104.1 -50.2 107.0 -47.25 107.0 -43.1 L107.0 83.9 Q107.0 88.05 104.1 90.95 101.15 93.9 97.0 93.9 L93.25 93.9 M-97.9 -50.2 Q-96.1 -51.95 -93.85 -52.65 L-90.8 -53.1 -87.0 -53.1 -89.85 -52.65 Q-92.1 -51.95 -93.9 -50.2 -96.8 -47.25 -96.8 -43.1 L-96.8 83.9 Q-96.8 88.05 -93.9 90.95 -91.05 93.8 -87.05 93.9 L-90.8 93.9 Q-94.95 93.9 -97.9 90.95 -100.8 88.05 -100.8 83.9 L-100.8 -43.1 Q-100.8 -47.25 -97.9 -50.2" fill="#66cc00" fill-rule="evenodd" stroke="none"/>
    </g>
    <g id="text0" transform="matrix(1.0, 0.0, 0.0, 1.0, -48.4, -5.7)">
      <g transform="matrix(1.0, 0.0, 0.0, 1.0, 48.75, 0.0)">
        <use fill="#66cc00" height="19.95" transform="matrix(0.4297, 0.0, 0.0, 0.4297, 0.0, 22.0)" width="167.15" xlink:href="#font_VAGRounded_BT_T0"/>
        <use fill="#66cc00" height="19.95" transform="matrix(0.4297, 0.0, 0.0, 0.4297, 10.4, 22.0)" width="167.15" xlink:href="#font_VAGRounded_BT_H0"/>
        <use fill="#66cc00" height="19.95" transform="matrix(0.4297, 0.0, 0.0, 0.4297, 26.85, 22.0)" width="167.15" xlink:href="#font_VAGRounded_BT_E0"/>
        <use fill="#66cc00" height="19.95" transform="matrix(0.4297, 0.0, 0.0, 0.4297, 45.1, 22.0)" width="167.15" xlink:href="#font_VAGRounded_BT_W0"/>
        <use fill="#66cc00" height="19.95" transform="matrix(0.4297, 0.0, 0.0, 0.4297, 65.2, 22.0)" width="167.15" xlink:href="#font_VAGRounded_BT_I0"/>
        <use fill="#66cc00" height="19.95" transform="matrix(0.4297, 0.0, 0.0, 0.4297, 71.7, 22.0)" width="167.15" xlink:href="#font_VAGRounded_BT_N0"/>
        <use fill="#66cc00" height="19.95" transform="matrix(0.4297, 0.0, 0.0, 0.4297, 88.15, 22.0)" width="167.15" xlink:href="#font_VAGRounded_BT_N0"/>
        <use fill="#66cc00" height="19.95" transform="matrix(0.4297, 0.0, 0.0, 0.4297, 104.6, 22.0)" width="167.15" xlink:href="#font_VAGRounded_BT_E0"/>
        <use fill="#66cc00" height="19.95" transform="matrix(0.4297, 0.0, 0.0, 0.4297, 115.7, 22.0)" width="167.15" xlink:href="#font_VAGRounded_BT_R0"/>
        <use fill="#66cc00" height="19.95" transform="matrix(0.4297, 0.0, 0.0, 0.4297, 136.0, 22.0)" width="167.15" xlink:href="#font_VAGRounded_BT_I0"/>
        <use fill="#66cc00" height="19.95" transform="matrix(0.4297, 0.0, 0.0, 0.4297, 142.5, 22.0)" width="167.15" xlink:href="#font_VAGRounded_BT_S0"/>
      </g>
    </g>
    <g id="font_VAGRounded_BT_T0">
      <path d="M7.95 -28.65 L7.95 -5.4 Q7.95 -2.45 8.95 -1.0 10.0 0.45 12.1 0.45 14.2 0.45 15.2 -1.0 16.25 -2.45 16.25 -5.4 L16.25 -28.65 19.3 -28.65 Q22.3 -28.65 23.75 -29.6 25.2 -30.55 25.2 -32.5 25.2 -34.45 23.75 -35.4 22.25 -36.4 19.3 -36.4 L4.9 -36.4 Q1.9 -36.4 0.45 -35.4 -1.0 -34.45 -1.0 -32.5 -1.0 -30.55 0.45 -29.6 1.9 -28.65 4.9 -28.65 L7.95 -28.65" fill-rule="evenodd" stroke="none"/>
    </g>
    <g id="font_VAGRounded_BT_H0">
      <path d="M11.55 -14.7 L26.8 -14.7 26.8 -5.4 Q26.8 -2.45 27.8 -1.0 28.85 0.45 30.95 0.45 33.05 0.45 34.05 -1.0 35.1 -2.45 35.1 -5.4 L35.1 -30.95 Q35.1 -33.95 34.05 -35.4 33.05 -36.85 30.95 -36.85 28.85 -36.85 27.8 -35.4 26.8 -33.95 26.8 -30.95 L26.8 -22.35 11.55 -22.35 11.55 -30.95 Q11.55 -33.95 10.5 -35.4 9.5 -36.85 7.4 -36.85 5.3 -36.85 4.25 -35.4 3.25 -33.95 3.25 -30.95 L3.25 -5.4 Q3.25 -2.45 4.25 -1.0 5.3 0.45 7.4 0.45 9.5 0.45 10.5 -1.0 11.55 -2.45 11.55 -5.4 L11.55 -14.7" fill-rule="evenodd" stroke="none"/>
    </g>
    <g id="font_VAGRounded_BT_E0">
      <path d="M18.3 -36.4 L8.95 -36.4 Q5.8 -36.4 4.5 -35.15 3.25 -33.9 3.25 -30.55 L3.25 -5.2 Q3.25 -2.2 4.45 -1.1 5.65 0.0 8.85 0.0 L18.55 0.0 Q21.55 0.0 23.0 -0.95 24.45 -1.9 24.45 -3.85 24.45 -5.75 23.0 -6.7 21.55 -7.65 18.55 -7.65 L11.55 -7.65 11.55 -14.5 17.35 -14.5 Q20.35 -14.5 21.8 -15.4 23.25 -16.35 23.25 -18.3 23.25 -20.25 21.8 -21.2 20.35 -22.15 17.35 -22.15 L11.55 -22.15 11.55 -28.65 18.3 -28.65 Q21.25 -28.65 22.75 -29.6 24.2 -30.55 24.2 -32.5 24.2 -34.45 22.7 -35.4 21.25 -36.4 18.3 -36.4" fill-rule="evenodd" stroke="none"/>
    </g>
    <g id="font_VAGRounded_BT_W0">
      <path d="M18.2 -4.65 L23.3 -24.95 28.75 -4.2 Q29.35 -1.8 30.7 -0.65 32.0 0.45 34.25 0.45 36.75 0.45 37.95 -0.6 39.2 -1.7 40.0 -5.0 L46.35 -30.55 46.6 -31.8 46.65 -33.0 Q46.65 -34.7 45.5 -35.75 44.35 -36.85 42.55 -36.85 40.75 -36.85 39.8 -35.9 38.8 -34.9 38.35 -32.7 L34.0 -10.15 28.05 -33.25 Q27.6 -35.05 26.5 -35.95 25.35 -36.85 23.55 -36.85 21.75 -36.85 20.6 -36.0 19.4 -35.1 18.95 -33.35 L12.9 -10.15 8.55 -33.25 Q8.25 -35.0 7.2 -35.95 6.15 -36.9 4.55 -36.9 2.7 -36.9 1.55 -35.9 0.35 -34.85 0.35 -33.15 L0.4 -32.0 0.45 -31.35 6.5 -5.0 Q7.2 -2.05 8.5 -0.8 9.8 0.45 12.2 0.45 14.5 0.45 16.05 -0.85 17.55 -2.15 18.2 -4.65" fill-rule="evenodd" stroke="none"/>
    </g>
    <g id="font_VAGRounded_BT_I0">
      <path d="M11.75 -5.4 L11.75 -30.95 Q11.75 -33.95 10.7 -35.4 9.7 -36.85 7.6 -36.85 5.5 -36.85 4.45 -35.4 3.45 -33.95 3.45 -30.95 L3.45 -5.4 Q3.45 -2.45 4.45 -1.0 5.5 0.45 7.6 0.45 9.7 0.45 10.7 -1.0 11.75 -2.45 11.75 -5.4" fill-rule="evenodd" stroke="none"/>
    </g>
    <g id="font_VAGRounded_BT_N0">
      <path d="M11.55 -5.4 L11.55 -22.15 26.55 -2.35 Q27.75 -0.75 28.85 -0.05 30.0 0.7 31.3 0.7 33.25 0.7 34.15 -0.55 35.1 -1.85 35.1 -4.5 L35.1 -30.95 Q35.1 -33.95 34.05 -35.4 33.05 -36.85 30.95 -36.85 28.85 -36.85 27.8 -35.4 26.8 -33.95 26.8 -30.95 L26.8 -13.9 11.5 -34.15 9.35 -36.2 Q8.35 -36.8 7.1 -36.8 5.15 -36.8 4.2 -35.45 3.25 -34.05 3.25 -31.25 L3.25 -5.4 Q3.25 -2.45 4.25 -1.0 5.3 0.45 7.4 0.45 9.5 0.45 10.5 -1.0 11.55 -2.45 11.55 -5.4" fill-rule="evenodd" stroke="none"/>
    </g>
    <g id="font_VAGRounded_BT_R0">
      <path d="M11.55 -19.9 L11.55 -28.75 15.45 -28.75 Q17.95 -28.75 19.3 -27.6 20.65 -26.5 20.65 -24.4 20.65 -22.25 19.25 -21.1 17.9 -19.9 15.35 -19.9 L11.55 -19.9 M11.55 -14.35 L21.2 -2.25 Q22.55 -0.6 23.55 0.05 24.55 0.75 25.65 0.75 27.35 0.75 28.5 -0.4 29.6 -1.5 29.6 -3.15 29.6 -4.15 29.0 -5.35 L27.15 -7.9 20.6 -15.2 Q24.65 -15.9 27.0 -18.5 29.3 -21.1 29.3 -25.0 29.3 -30.25 25.6 -33.3 21.9 -36.4 15.4 -36.4 L8.95 -36.4 Q5.8 -36.4 4.5 -35.15 3.25 -33.9 3.25 -30.55 L3.25 -5.4 Q3.25 -2.45 4.25 -1.0 5.3 0.45 7.4 0.45 9.5 0.45 10.5 -1.0 11.55 -2.45 11.55 -5.4 L11.55 -14.35" fill-rule="evenodd" stroke="none"/>
    </g>
    <g id="font_VAGRounded_BT_S0">
      <path d="M27.2 -11.25 L27.2 -11.25 Q27.2 -15.25 24.8 -17.9 22.4 -20.55 17.15 -22.3 L15.4 -22.85 Q10.55 -24.4 10.55 -26.6 10.55 -28.0 11.65 -28.85 12.75 -29.75 14.6 -29.75 L17.95 -29.1 21.1 -28.45 Q22.85 -28.45 23.85 -29.4 24.85 -30.35 24.85 -32.0 24.85 -34.3 22.05 -35.8 19.25 -37.35 14.9 -37.35 9.05 -37.35 5.4 -34.15 1.7 -30.9 1.7 -25.85 1.7 -21.9 4.0 -19.55 6.25 -17.2 12.0 -15.5 15.95 -14.3 17.15 -13.25 18.35 -12.2 18.35 -10.5 18.35 -8.9 17.15 -7.8 16.0 -6.75 14.25 -6.75 12.2 -6.75 9.25 -7.65 L5.4 -8.6 Q3.5 -8.6 2.4 -7.55 1.3 -6.55 1.3 -4.85 1.3 -2.5 4.75 -0.75 8.2 1.0 13.05 1.0 19.4 1.0 23.3 -2.4 27.2 -5.8 27.2 -11.25" fill-rule="evenodd" stroke="none"/>
    </g>
    <g id="text1" transform="matrix(1.0, 0.0, 0.0, 1.0, -102.25, 2.0)">
      <g transform="matrix(1.0, 0.0, 0.0, 1.0, 102.25, -2.0)">
        <use fill="#000000" height="23.6" transform="matrix(0.3125, 0.0, 0.0, 0.3125, 107.0, 10.85)" width="265.6" xlink:href="#font_VAGRounded_BT_n0"/>
        <use fill="#000000" height="23.6" transform="matrix(0.3125, 0.0, 0.0, 0.3125, 116.4, 10.85)" width="265.6" xlink:href="#font_VAGRounded_BT_o0"/>
      </g>
      <g transform="matrix(1.0, 0.0, 0.0, 1.0, 102.25, -2.0)">
        <use fill="#000000" height="23.6" transform="matrix(0.3125, 0.0, 0.0, 0.3125, 130.9, 10.85)" width="265.6" xlink:href="#font_VAGRounded_BT_o0"/>
        <use fill="#000000" height="23.6" transform="matrix(0.3125, 0.0, 0.0, 0.3125, 140.2, 10.85)" width="265.6" xlink:href="#font_VAGRounded_BT_n0"/>
        <use fill="#000000" height="23.6" transform="matrix(0.3125, 0.0, 0.0, 0.3125, 149.6, 10.85)" width="265.6" xlink:href="#font_VAGRounded_BT_e0"/>
      </g>
    </g>
    <g id="font_VAGRounded_BT_n0">
      <path d="M2.8 -5.5 L2.8 -5.5 Q2.8 -2.55 3.8 -1.1 4.75 0.35 6.8 0.35 8.85 0.35 9.85 -1.1 10.85 -2.55 10.85 -5.5 L10.85 -14.75 Q10.85 -17.9 11.9 -19.4 12.95 -20.9 15.15 -20.9 17.5 -20.9 18.5 -19.45 19.5 -18.0 19.5 -14.65 L19.5 -5.5 Q19.5 -2.55 20.5 -1.1 21.5 0.35 23.55 0.35 25.6 0.35 26.6 -1.1 27.6 -2.55 27.6 -5.5 L27.6 -17.1 Q27.6 -22.3 25.1 -25.0 22.55 -27.75 17.8 -27.75 L13.65 -27.1 Q11.95 -26.45 10.65 -25.0 L9.0 -26.95 Q8.05 -27.6 6.8 -27.6 4.75 -27.6 3.8 -26.15 2.8 -24.7 2.8 -21.75 L2.8 -5.5" fill-rule="evenodd" stroke="none"/>
    </g>
    <g id="font_VAGRounded_BT_o0">
      <path d="M1.2 -13.6 L1.2 -13.6 Q1.2 -7.3 5.05 -3.25 8.9 0.85 14.85 0.85 20.85 0.85 24.65 -3.2 28.5 -7.3 28.5 -13.6 28.5 -19.95 24.65 -24.0 20.85 -28.05 14.85 -28.05 8.9 -28.05 5.05 -23.95 1.2 -19.9 1.2 -13.6 M9.55 -13.7 L9.55 -13.7 Q9.55 -16.7 11.05 -18.6 12.5 -20.45 14.85 -20.45 17.15 -20.45 18.7 -18.55 20.2 -16.7 20.2 -13.7 20.2 -10.65 18.7 -8.75 17.25 -6.85 14.85 -6.85 12.5 -6.85 11.0 -8.7 9.55 -10.6 9.55 -13.7" fill-rule="evenodd" stroke="none"/>
    </g>
    <g id="font_VAGRounded_BT_e0">
      <path d="M9.5 -11.35 L23.9 -11.35 Q26.25 -11.35 27.1 -12.1 27.9 -12.8 27.9 -14.65 27.9 -20.25 24.15 -24.1 20.35 -28.0 14.75 -28.0 8.95 -28.0 5.1 -23.85 1.2 -19.75 1.2 -13.55 1.2 -7.4 5.2 -3.35 9.2 0.75 15.15 0.75 20.05 0.75 23.7 -1.35 27.3 -3.45 27.3 -6.05 27.3 -7.4 26.4 -8.3 25.5 -9.15 24.1 -9.15 23.45 -9.15 20.65 -7.85 17.85 -6.55 15.6 -6.55 12.95 -6.55 11.35 -7.8 9.75 -9.1 9.5 -11.35 M9.4 -16.65 L9.4 -16.65 Q9.8 -18.85 11.3 -20.15 12.75 -21.45 14.8 -21.45 16.9 -21.45 18.4 -20.05 19.9 -18.7 20.05 -16.65 L9.4 -16.65" fill-rule="evenodd" stroke="none"/>
    </g>
    <g id="button0" transform="matrix(1.0, 0.0, 0.0, 1.0, 47.6, 19.3)">
      <use ffdec:characterId="429" height="41.65" transform="matrix(1.0, 0.0, 0.0, 1.0, -47.6, -19.3)" width="90.0" xlink:href="#shape1"/>
      <use ffdec:characterId="430" height="35.0" transform="matrix(1.0, 0.0, 0.0, 1.0, -41.6, -18.5)" width="78.0" xlink:href="#shape2"/>
      <use ffdec:characterId="431" height="18.2" transform="matrix(1.0, 0.0, 0.0, 1.0, -31.25, -8.55)" width="70.15" xlink:href="#text2"/>
    </g>
    <g id="shape1" transform="matrix(1.0, 0.0, 0.0, 1.0, 47.6, 19.3)">
      <path d="M40.4 10.15 L38.4 10.15 38.4 9.9 38.4 -7.05 38.4 -7.7 Q38.15 -11.2 35.45 -13.7 32.55 -16.45 28.4 -16.45 L-33.6 -16.45 Q-37.75 -16.45 -40.7 -13.7 -43.35 -11.2 -43.55 -7.7 L-43.6 -7.05 -43.6 -6.75 -43.6 9.9 -43.6 10.15 -45.6 10.15 -45.6 -8.9 Q-45.6 -12.85 -42.7 -15.6 -39.75 -18.35 -35.6 -18.35 L30.4 -18.35 Q34.55 -18.35 37.45 -15.6 40.4 -12.85 40.4 -8.9 L40.4 10.15 40.4 11.95 Q40.4 15.85 37.45 18.6 34.55 21.35 30.4 21.4 L-35.6 21.4 Q-39.75 21.35 -42.7 18.6 -45.6 15.85 -45.6 11.95 L-45.6 10.15 -43.6 10.15 -43.55 10.7 -43.6 10.7 -43.6 11.0 -43.55 11.0 Q-43.25 14.3 -40.7 16.7 -37.75 19.5 -33.6 19.5 L28.4 19.5 Q32.55 19.5 35.45 16.7 38.05 14.3 38.35 11.0 L38.4 11.0 38.4 10.7 38.4 10.15 40.4 10.15" fill="#01317e" fill-opacity="0.08235294" fill-rule="evenodd" stroke="none"/>
      <path d="M-45.6 10.15 L-47.6 10.15 -47.6 -9.85 Q-47.6 -13.8 -44.7 -16.55 -41.75 -19.3 -37.6 -19.3 L32.4 -19.3 Q36.55 -19.3 39.45 -16.55 42.4 -13.8 42.4 -9.85 L42.4 10.15 40.4 10.15 40.4 -8.9 Q40.4 -12.85 37.45 -15.6 34.55 -18.35 30.4 -18.35 L-35.6 -18.35 Q-39.75 -18.35 -42.7 -15.6 -45.6 -12.85 -45.6 -8.9 L-45.6 10.15 -45.6 11.95 Q-45.6 15.85 -42.7 18.6 -39.75 21.35 -35.6 21.4 L30.4 21.4 Q34.55 21.35 37.45 18.6 40.4 15.85 40.4 11.95 L40.4 10.15 42.4 10.15 42.4 12.9 Q42.4 16.8 39.45 19.55 36.55 22.3 32.4 22.35 L-37.6 22.35 Q-41.75 22.3 -44.7 19.55 -47.6 16.8 -47.6 12.9 L-47.6 10.15 -45.6 10.15" fill="#01317e" fill-opacity="0.03137255" fill-rule="evenodd" stroke="none"/>
      <path d="M38.4 10.15 L-43.6 10.15 -43.6 9.9 -43.6 -6.75 -43.6 -7.05 -43.55 -7.7 Q-43.35 -11.2 -40.7 -13.7 -37.75 -16.45 -33.6 -16.45 L28.4 -16.45 Q32.55 -16.45 35.45 -13.7 38.15 -11.2 38.4 -7.7 L38.4 -7.05 38.4 9.9 38.4 10.15 38.4 10.7 38.4 11.0 38.35 11.0 Q38.05 14.3 35.45 16.7 32.55 19.5 28.4 19.5 L-33.6 19.5 Q-37.75 19.5 -40.7 16.7 -43.25 14.3 -43.55 11.0 L-43.6 11.0 -43.6 10.7 -43.55 10.7 -43.6 10.15 38.4 10.15" fill="#01317e" fill-opacity="0.18039216" fill-rule="evenodd" stroke="none"/>
    </g>
    <g id="shape2" transform="matrix(1.0, 0.0, 0.0, 1.0, 41.6, 18.5)">
      <path d="M-31.6 16.5 Q-35.75 16.5 -38.7 13.55 -40.25 12.0 -40.95 10.15 L35.75 10.15 Q35.0 12.0 33.45 13.55 30.55 16.5 26.4 16.5 L-31.6 16.5 M26.4 -18.5 Q30.55 -18.5 33.45 -15.6 36.4 -12.65 36.4 -8.5 L36.4 2.95 Q36.4 6.8 35.75 10.15 L-40.95 10.15 Q-41.6 6.8 -41.6 2.95 L-41.6 -8.5 Q-41.6 -12.65 -38.7 -15.6 -35.75 -18.5 -31.6 -18.5 L26.4 -18.5" fill="#ffffff" fill-rule="evenodd" stroke="none"/>
    </g>
    <g id="text2" transform="matrix(1.0, 0.0, 0.0, 1.0, -1.25, -5.15)">
      <g transform="matrix(1.0, 0.0, 0.0, 1.0, 0.0, 0.0)">
        <use fill="#ff6600" height="18.2" transform="matrix(0.3906, 0.0, 0.0, 0.3906, 0.0, 20.0)" width="70.15" xlink:href="#font_VAGRounded_BT_F0"/>
        <use fill="#ff6600" height="18.2" transform="matrix(0.3906, 0.0, 0.0, 0.3906, 9.75, 20.0)" width="70.15" xlink:href="#font_VAGRounded_BT_I0"/>
        <use fill="#ff6600" height="18.2" transform="matrix(0.3906, 0.0, 0.0, 0.3906, 15.65, 20.0)" width="70.15" xlink:href="#font_VAGRounded_BT_G0"/>
        <use fill="#ff6600" height="18.2" transform="matrix(0.3906, 0.0, 0.0, 0.3906, 30.1, 20.0)" width="70.15" xlink:href="#font_VAGRounded_BT_H0"/>
        <use fill="#ff6600" height="18.2" transform="matrix(0.3906, 0.0, 0.0, 0.3906, 45.05, 20.0)" width="70.15" xlink:href="#font_VAGRounded_BT_T0"/>
        <use fill="#ff6600" height="18.2" transform="matrix(0.3906, 0.0, 0.0, 0.3906, 54.5, 20.0)" width="70.15" xlink:href="#font_VAGRounded_BT__1"/>
      </g>
    </g>
    <g id="font_VAGRounded_BT_F0">
      <path d="M18.3 -36.4 L8.95 -36.4 Q5.8 -36.4 4.5 -35.15 3.25 -33.9 3.25 -30.55 L3.25 -5.4 Q3.25 -2.45 4.25 -1.0 5.3 0.45 7.4 0.45 9.5 0.45 10.5 -1.0 11.55 -2.45 11.55 -5.4 L11.55 -14.5 17.35 -14.5 Q20.35 -14.5 21.8 -15.4 23.25 -16.35 23.25 -18.3 23.25 -20.25 21.8 -21.2 20.35 -22.15 17.35 -22.15 L11.55 -22.15 11.55 -28.65 18.3 -28.65 Q21.25 -28.65 22.75 -29.6 24.2 -30.55 24.2 -32.5 24.2 -34.45 22.7 -35.4 21.25 -36.4 18.3 -36.4" fill-rule="evenodd" stroke="none"/>
    </g>
    <g id="font_VAGRounded_BT_G0">
      <path d="M26.9 -14.15 L26.9 -14.15 Q26.8 -10.8 24.8 -8.8 22.8 -6.85 19.5 -6.85 15.35 -6.85 12.9 -9.95 10.4 -13.1 10.4 -18.35 10.4 -23.55 12.9 -26.55 15.35 -29.55 19.55 -29.55 22.4 -29.55 25.6 -27.75 28.8 -26.0 29.7 -26.0 31.15 -26.0 32.2 -27.15 33.25 -28.35 33.25 -29.9 33.25 -32.85 29.35 -35.15 25.4 -37.45 19.85 -37.45 11.4 -37.45 6.45 -32.25 1.45 -27.05 1.45 -18.2 1.45 -9.65 6.3 -4.3 11.2 1.1 18.85 1.1 26.5 1.1 31.2 -3.75 35.85 -8.6 35.85 -16.35 35.85 -19.3 34.5 -20.6 33.15 -21.9 30.05 -21.9 L23.95 -21.9 Q21.0 -21.9 19.55 -20.95 18.15 -20.0 18.15 -18.0 18.15 -16.05 19.55 -15.1 20.95 -14.15 23.95 -14.15 L26.9 -14.15" fill-rule="evenodd" stroke="none"/>
    </g>
    <g id="font_VAGRounded_BT__1">
      <path d="M3.15 -3.4 L3.15 -3.4 Q3.15 -1.55 4.45 -0.2 5.75 1.1 7.6 1.1 9.4 1.1 10.75 -0.25 12.05 -1.55 12.05 -3.4 12.05 -5.25 10.75 -6.55 9.45 -7.85 7.6 -7.85 5.75 -7.85 4.45 -6.55 3.15 -5.3 3.15 -3.4 M11.6 -16.55 L11.6 -31.6 Q11.6 -34.55 10.6 -35.95 9.6 -37.4 7.6 -37.4 5.6 -37.4 4.6 -35.95 3.6 -34.5 3.6 -31.6 L3.6 -16.55 Q3.6 -13.55 4.6 -12.1 5.6 -10.65 7.6 -10.65 9.6 -10.65 10.6 -12.1 11.6 -13.55 11.6 -16.55" fill-rule="evenodd" stroke="none"/>
    </g>
    <g id="button1" transform="matrix(1.0, 0.0, 0.0, 1.0, 47.6, 19.3)">
      <use ffdec:characterId="424" height="36.65" transform="matrix(1.0, 0.0, 0.0, 1.0, -47.6, -19.3)" width="103.0" xlink:href="#shape3"/>
      <use ffdec:characterId="425" height="30.0" transform="matrix(1.0, 0.0, 0.0, 1.0, -41.6, -18.5)" width="91.0" xlink:href="#shape4"/>
      <use ffdec:characterId="426" height="12.55" transform="matrix(1.0, 0.0, 0.0, 1.0, -31.6, -8.95)" width="78.0" xlink:href="#text3"/>
    </g>
    <g id="shape3" transform="matrix(1.0, 0.0, 0.0, 1.0, 47.6, 19.3)">
      <path d="M-45.6 5.15 L-45.6 -8.9 Q-45.6 -12.85 -42.7 -15.6 -39.75 -18.35 -35.6 -18.35 L43.4 -18.35 Q47.55 -18.35 50.45 -15.6 53.4 -12.85 53.4 -8.9 L53.4 5.15 51.4 5.15 51.4 4.9 51.4 -8.45 51.3 -8.45 Q50.85 -11.45 48.45 -13.7 45.55 -16.45 41.4 -16.45 L-33.6 -16.45 Q-37.75 -16.45 -40.7 -13.7 -43.05 -11.45 -43.5 -8.45 L-43.6 -8.45 -43.6 4.9 -43.6 5.15 -43.55 5.7 -43.6 5.7 -43.6 6.0 -43.55 6.0 Q-43.25 9.3 -40.7 11.7 -37.75 14.5 -33.6 14.5 L41.4 14.5 Q45.55 14.5 48.45 11.7 51.05 9.3 51.35 6.0 L51.4 6.0 51.4 5.7 51.4 5.15 53.4 5.15 53.4 6.95 Q53.4 10.85 50.45 13.6 47.55 16.35 43.4 16.4 L-35.6 16.4 Q-39.75 16.35 -42.7 13.6 -45.6 10.85 -45.6 6.95 L-45.6 5.15 -43.6 5.15 -45.6 5.15" fill="#01317e" fill-opacity="0.08235294" fill-rule="evenodd" stroke="none"/>
      <path d="M53.4 5.15 L53.4 -8.9 Q53.4 -12.85 50.45 -15.6 47.55 -18.35 43.4 -18.35 L-35.6 -18.35 Q-39.75 -18.35 -42.7 -15.6 -45.6 -12.85 -45.6 -8.9 L-45.6 5.15 -47.6 5.15 -47.6 -9.85 Q-47.6 -13.8 -44.7 -16.55 -41.75 -19.3 -37.6 -19.3 L45.4 -19.3 Q49.55 -19.3 52.45 -16.55 55.4 -13.8 55.4 -9.85 L55.4 5.15 53.4 5.15 55.4 5.15 55.4 7.9 Q55.4 11.8 52.45 14.55 49.55 17.3 45.4 17.35 L-37.6 17.35 Q-41.75 17.3 -44.7 14.55 -47.6 11.8 -47.6 7.9 L-47.6 5.15 -45.6 5.15 -45.6 6.95 Q-45.6 10.85 -42.7 13.6 -39.75 16.35 -35.6 16.4 L43.4 16.4 Q47.55 16.35 50.45 13.6 53.4 10.85 53.4 6.95 L53.4 5.15" fill="#01317e" fill-opacity="0.03137255" fill-rule="evenodd" stroke="none"/>
      <path d="M-43.6 5.15 L-43.6 4.9 -43.6 -8.45 -43.5 -8.45 Q-43.05 -11.45 -40.7 -13.7 -37.75 -16.45 -33.6 -16.45 L41.4 -16.45 Q45.55 -16.45 48.45 -13.7 50.85 -11.45 51.3 -8.45 L51.4 -8.45 51.4 4.9 51.4 5.15 51.4 5.7 51.4 6.0 51.35 6.0 Q51.05 9.3 48.45 11.7 45.55 14.5 41.4 14.5 L-33.6 14.5 Q-37.75 14.5 -40.7 11.7 -43.25 9.3 -43.55 6.0 L-43.6 6.0 -43.6 5.7 -43.55 5.7 -43.6 5.15 51.4 5.15 -43.6 5.15" fill="#01317e" fill-opacity="0.18039216" fill-rule="evenodd" stroke="none"/>
    </g>
    <g id="shape4" transform="matrix(1.0, 0.0, 0.0, 1.0, 41.6, 18.5)">
      <path d="M48.75 5.15 Q48.0 7.0 46.45 8.55 43.55 11.5 39.4 11.5 L-31.6 11.5 Q-35.75 11.5 -38.7 8.55 -40.25 7.0 -40.95 5.15 L48.75 5.15 -40.95 5.15 Q-41.6 1.8 -41.6 -2.05 L-41.6 -8.5 Q-41.6 -12.65 -38.7 -15.6 -35.75 -18.5 -31.6 -18.5 L39.4 -18.5 Q43.55 -18.5 46.45 -15.6 49.4 -12.65 49.4 -8.5 L49.4 -2.05 Q49.4 1.8 48.75 5.15" fill="#ffffff" fill-rule="evenodd" stroke="none"/>
    </g>
    <g id="text3" transform="matrix(1.0, 0.0, 0.0, 1.0, -0.9, -3.75)">
      <g transform="matrix(1.0, 0.0, 0.0, 1.0, 0.0, 0.0)">
        <use fill="#999999" height="12.55" transform="matrix(0.2734, 0.0, 0.0, 0.2734, 0.0, 14.0)" width="78.0" xlink:href="#font_VAGRounded_BT_R0"/>
        <use fill="#999999" height="12.55" transform="matrix(0.2734, 0.0, 0.0, 0.2734, 8.35, 14.0)" width="78.0" xlink:href="#font_VAGRounded_BT_U0"/>
        <use fill="#999999" height="12.55" transform="matrix(0.2734, 0.0, 0.0, 0.2734, 18.65, 14.0)" width="78.0" xlink:href="#font_VAGRounded_BT_N0"/>
        <use fill="#999999" height="12.55" transform="matrix(0.2734, 0.0, 0.0, 0.2734, 33.65, 14.0)" width="78.0" xlink:href="#font_VAGRounded_BT_A0"/>
        <use fill="#999999" height="12.55" transform="matrix(0.2734, 0.0, 0.0, 0.2734, 42.4, 14.0)" width="78.0" xlink:href="#font_VAGRounded_BT_W0"/>
        <use fill="#999999" height="12.55" transform="matrix(0.2734, 0.0, 0.0, 0.2734, 55.2, 14.0)" width="78.0" xlink:href="#font_VAGRounded_BT_A0"/>
        <use fill="#999999" height="12.55" transform="matrix(0.2734, 0.0, 0.0, 0.2734, 63.95, 14.0)" width="78.0" xlink:href="#font_VAGRounded_BT_Y0"/>
      </g>
    </g>
    <g id="font_VAGRounded_BT_U0">
      <path d="M3.25 -15.6 L3.25 -15.6 Q3.25 -7.7 7.35 -3.3 11.5 1.1 18.85 1.1 26.2 1.1 30.35 -3.3 34.45 -7.7 34.45 -15.6 L34.45 -30.95 Q34.45 -33.95 33.45 -35.4 32.4 -36.85 30.3 -36.85 28.25 -36.85 27.2 -35.4 26.2 -33.95 26.2 -30.95 L26.2 -16.55 Q26.2 -11.7 24.35 -9.25 22.5 -6.85 18.85 -6.85 15.2 -6.85 13.4 -9.25 11.55 -11.7 11.55 -16.55 L11.55 -30.95 Q11.55 -33.95 10.5 -35.4 9.5 -36.85 7.4 -36.85 5.3 -36.85 4.25 -35.4 3.25 -33.95 3.25 -30.95 L3.25 -15.6" fill-rule="evenodd" stroke="none"/>
    </g>
    <g id="font_VAGRounded_BT_A0">
      <path d="M11.55 -14.5 L16.05 -28.0 20.25 -14.5 11.55 -14.5 M9.2 -6.85 L22.65 -6.85 23.65 -3.45 Q24.3 -1.4 25.35 -0.4 26.4 0.6 28.0 0.6 29.8 0.6 30.95 -0.5 32.1 -1.6 32.1 -3.3 L32.0 -4.45 31.55 -5.95 22.35 -32.1 Q21.5 -34.45 19.95 -35.65 18.35 -36.9 16.25 -36.9 14.0 -36.9 12.45 -35.6 10.9 -34.3 9.9 -31.55 L0.4 -5.8 0.1 -4.7 0.0 -3.4 Q0.0 -1.7 1.15 -0.55 2.25 0.6 3.95 0.6 5.3 0.6 6.35 -0.35 7.35 -1.35 7.95 -3.15 L9.2 -6.85" fill-rule="evenodd" stroke="none"/>
    </g>
    <g id="font_VAGRounded_BT_Y0">
      <path d="M19.8 -33.8 L13.5 -24.8 7.3 -33.7 5.1 -36.1 Q4.05 -36.85 3.05 -36.85 1.35 -36.85 0.2 -35.8 -0.95 -34.7 -0.95 -33.2 -0.95 -31.6 0.85 -29.1 L0.9 -29.0 9.3 -17.15 9.3 -5.4 Q9.3 -2.45 10.3 -1.0 11.35 0.45 13.45 0.45 15.5 0.45 16.55 -1.0 17.55 -2.45 17.55 -5.4 L17.55 -17.15 25.95 -29.1 26.15 -29.35 Q27.85 -31.75 27.85 -33.3 27.85 -34.65 26.75 -35.8 25.6 -36.9 24.25 -36.9 23.15 -36.9 22.0 -36.1 20.85 -35.3 19.8 -33.8" fill-rule="evenodd" stroke="none"/>
    </g>
    <g id="text4" transform="matrix(1.0, 0.0, 0.0, 1.0, -84.65, -3.6)">
      <g transform="matrix(1.0, 0.0, 0.0, 1.0, 83.65, 0.0)">
        <use fill="#ff6600" height="12.7" transform="matrix(0.2734, 0.0, 0.0, 0.2734, 0.0, 14.0)" width="91.6" xlink:href="#font_VAGRounded_BT_P0"/>
        <use fill="#ff6600" height="12.7" transform="matrix(0.2734, 0.0, 0.0, 0.2734, 8.5, 14.0)" width="91.6" xlink:href="#font_VAGRounded_BT_L0"/>
        <use fill="#ff6600" height="12.7" transform="matrix(0.2734, 0.0, 0.0, 0.2734, 14.95, 14.0)" width="91.6" xlink:href="#font_VAGRounded_BT_A0"/>
        <use fill="#ff6600" height="12.7" transform="matrix(0.2734, 0.0, 0.0, 0.2734, 23.7, 14.0)" width="91.6" xlink:href="#font_VAGRounded_BT_Y0"/>
        <use fill="#ff6600" height="12.7" transform="matrix(0.2734, 0.0, 0.0, 0.2734, 35.5, 14.0)" width="91.6" xlink:href="#font_VAGRounded_BT_A0"/>
        <use fill="#ff6600" height="12.7" transform="matrix(0.2734, 0.0, 0.0, 0.2734, 44.25, 14.0)" width="91.6" xlink:href="#font_VAGRounded_BT_G0"/>
        <use fill="#ff6600" height="12.7" transform="matrix(0.2734, 0.0, 0.0, 0.2734, 54.35, 14.0)" width="91.6" xlink:href="#font_VAGRounded_BT_A0"/>
        <use fill="#ff6600" height="12.7" transform="matrix(0.2734, 0.0, 0.0, 0.2734, 63.1, 14.0)" width="91.6" xlink:href="#font_VAGRounded_BT_I0"/>
        <use fill="#ff6600" height="12.7" transform="matrix(0.2734, 0.0, 0.0, 0.2734, 67.25, 14.0)" width="91.6" xlink:href="#font_VAGRounded_BT_N0"/>
        <use fill="#ff6600" height="12.7" transform="matrix(0.2734, 0.0, 0.0, 0.2734, 77.7, 14.0)" width="91.6" xlink:href="#font_VAGRounded_BT__2"/>
      </g>
    </g>
    <g id="font_VAGRounded_BT_P0">
      <path d="M11.55 -19.2 L11.55 -28.75 15.1 -28.75 Q18.0 -28.75 19.4 -27.6 20.8 -26.45 20.8 -24.0 20.8 -21.6 19.35 -20.4 17.95 -19.2 15.1 -19.2 L11.55 -19.2 M11.55 -5.4 L11.55 -11.65 17.1 -11.65 Q23.05 -11.65 26.4 -14.95 29.75 -18.2 29.75 -24.0 29.75 -29.7 26.2 -33.05 22.6 -36.4 16.45 -36.4 L8.95 -36.4 Q5.8 -36.4 4.5 -35.15 3.25 -33.9 3.25 -30.55 L3.25 -5.4 Q3.25 -2.45 4.25 -1.0 5.3 0.45 7.4 0.45 9.5 0.45 10.5 -1.0 11.55 -2.45 11.55 -5.4" fill-rule="evenodd" stroke="none"/>
    </g>
    <g id="font_VAGRounded_BT_L0">
      <path d="M3.25 -30.95 L3.25 -5.2 Q3.25 -2.2 4.45 -1.1 5.65 0.0 8.85 0.0 L18.55 0.0 Q21.55 0.0 23.0 -0.95 24.45 -1.9 24.45 -3.85 24.45 -5.75 23.0 -6.7 21.55 -7.65 18.55 -7.65 L11.55 -7.65 11.55 -30.95 Q11.55 -33.95 10.5 -35.4 9.5 -36.85 7.4 -36.85 5.3 -36.85 4.25 -35.4 3.25 -33.95 3.25 -30.95" fill-rule="evenodd" stroke="none"/>
    </g>
    <g id="font_VAGRounded_BT__2">
      <path d="M7.35 -3.4 L7.35 -3.4 Q7.35 -1.55 8.65 -0.25 10.0 1.1 11.85 1.1 13.65 1.1 15.0 -0.25 16.3 -1.55 16.3 -3.4 16.3 -5.25 15.0 -6.55 13.7 -7.85 11.85 -7.85 9.95 -7.85 8.65 -6.55 7.35 -5.3 7.35 -3.4 M7.9 -14.6 L7.9 -14.6 Q7.9 -12.35 8.9 -11.1 9.95 -9.9 11.8 -9.9 13.65 -9.9 14.7 -11.25 15.8 -12.6 15.8 -14.95 L15.8 -15.1 Q19.9 -15.85 22.3 -18.75 24.75 -21.65 24.75 -25.85 24.75 -30.7 21.25 -33.95 17.75 -37.25 12.45 -37.25 7.5 -37.25 3.9 -34.4 0.25 -31.6 0.25 -28.1 0.25 -26.45 1.2 -25.4 2.15 -24.35 3.6 -24.35 5.2 -24.35 7.25 -26.65 L7.75 -27.15 Q9.0 -28.5 10.05 -29.05 L12.45 -29.6 Q13.95 -29.6 15.0 -28.6 16.05 -27.6 16.05 -26.2 16.05 -24.7 15.35 -23.7 14.6 -22.65 13.15 -22.1 L11.35 -21.55 9.65 -21.1 Q8.65 -20.65 8.3 -19.95 7.9 -19.25 7.9 -17.8 L7.9 -14.6" fill-rule="evenodd" stroke="none"/>
    </g>
    <g id="sprite0" transform="matrix(1.0, 0.0, 0.0, 1.0, 0.0, 0.0)">
      <use ffdec:characterId="459" height="31.0" transform="matrix(1.0, 0.0, 0.0, 1.0, 0.0, 0.0)" width="216.0" xlink:href="#shape5"/>
      <use ffdec:characterId="460" height="12.7" transform="matrix(1.0, 0.0, 0.0, 1.0, 25.55, 10.6)" width="172.3" xlink:href="#text5"/>
    </g>
    <g id="shape5" transform="matrix(1.0, 0.0, 0.0, 1.0, 0.0, 0.0)">
      <path d="M14.25 25.3 L14.0 26.0 17.75 26.0 Q15.85 25.95 14.25 25.3 M14.95 5.45 L17.8 5.0 14.95 5.0 14.95 5.45 M197.05 26.0 L198.05 26.0 201.8 26.0 201.6 25.3 Q199.95 25.95 198.05 26.0 L198.05 25.95 197.05 26.0 M198.0 5.0 L200.9 5.45 201.5 5.7 201.8 5.0 198.0 5.0 M216.0 10.0 L216.0 21.0 Q216.0 25.15 213.05 28.05 210.15 31.0 206.0 31.0 L10.0 31.0 Q5.85 31.0 2.9 28.05 0.0 25.15 0.0 21.0 L0.0 10.0 Q0.0 5.85 2.9 2.9 4.7 1.15 6.95 0.45 8.35 0.0 10.0 0.0 L206.0 0.0 207.75 0.15 Q210.8 0.65 213.05 2.9 216.0 5.85 216.0 10.0" fill="#ffffff" fill-rule="evenodd" stroke="none"/>
      <path d="M198.0 3.0 L201.8 3.0 204.9 3.45 Q207.1 4.15 208.9 5.9 211.8 8.85 211.8 13.0 L211.8 18.0 Q211.8 22.15 208.9 25.05 205.95 28.0 201.8 28.0 L198.05 28.0 Q202.05 27.9 204.9 25.05 207.8 22.15 207.8 18.0 L207.8 13.0 Q207.8 8.85 204.9 5.9 203.1 4.15 200.9 3.45 L198.0 3.0" fill="#66cc00" fill-rule="evenodd" stroke="none"/>
      <path d="M17.8 3.0 L14.0 3.0 10.9 3.45 Q8.7 4.15 6.9 5.9 4.0 8.85 4.0 13.0 L4.0 18.0 Q4.0 22.15 6.9 25.05 9.85 28.0 14.0 28.0 L17.75 28.0 Q13.75 27.9 10.9 25.05 8.0 22.15 8.0 18.0 L8.0 13.0 Q8.0 8.85 10.9 5.9 12.7 4.15 14.9 3.45 L17.8 3.0" fill="#66cc00" fill-rule="evenodd" stroke="none"/>
    </g>
    <g id="text5" transform="matrix(1.0, 0.0, 0.0, 1.0, -65.4, -3.6)">
      <g transform="matrix(1.0, 0.0, 0.0, 1.0, 43.9, 0.0)">
        <use fill="#ff6600" height="12.7" transform="matrix(0.2734, 0.0, 0.0, 0.2734, 22.0, 14.0)" width="172.3" xlink:href="#font_VAGRounded_BT_Y0"/>
        <use fill="#ff6600" height="12.7" transform="matrix(0.2734, 0.0, 0.0, 0.2734, 29.25, 14.0)" width="172.3" xlink:href="#font_VAGRounded_BT_O0"/>
        <use fill="#ff6600" height="12.7" transform="matrix(0.2734, 0.0, 0.0, 0.2734, 39.8, 14.0)" width="172.3" xlink:href="#font_VAGRounded_BT_U0"/>
        <use fill="#ff6600" height="12.7" transform="matrix(0.2734, 0.0, 0.0, 0.2734, 54.65, 14.0)" width="172.3" xlink:href="#font_VAGRounded_BT_R0"/>
        <use fill="#ff6600" height="12.7" transform="matrix(0.2734, 0.0, 0.0, 0.2734, 63.0, 14.0)" width="172.3" xlink:href="#font_VAGRounded_BT_A0"/>
        <use fill="#ff6600" height="12.7" transform="matrix(0.2734, 0.0, 0.0, 0.2734, 71.75, 14.0)" width="172.3" xlink:href="#font_VAGRounded_BT_N0"/>
        <use fill="#ff6600" height="12.7" transform="matrix(0.2734, 0.0, 0.0, 0.2734, 86.75, 14.0)" width="172.3" xlink:href="#font_VAGRounded_BT_O0"/>
        <use fill="#ff6600" height="12.7" transform="matrix(0.2734, 0.0, 0.0, 0.2734, 97.3, 14.0)" width="172.3" xlink:href="#font_VAGRounded_BT_U0"/>
        <use fill="#ff6600" height="12.7" transform="matrix(0.2734, 0.0, 0.0, 0.2734, 107.6, 14.0)" width="172.3" xlink:href="#font_VAGRounded_BT_T0"/>
        <use fill="#ff6600" height="12.7" transform="matrix(0.2734, 0.0, 0.0, 0.2734, 118.75, 14.0)" width="172.3" xlink:href="#font_VAGRounded_BT_O0"/>
        <use fill="#ff6600" height="12.7" transform="matrix(0.2734, 0.0, 0.0, 0.2734, 129.3, 14.0)" width="172.3" xlink:href="#font_VAGRounded_BT_F0"/>
        <use fill="#ff6600" height="12.7" transform="matrix(0.2734, 0.0, 0.0, 0.2734, 140.7, 14.0)" width="172.3" xlink:href="#font_VAGRounded_BT_S0"/>
        <use fill="#ff6600" height="12.7" transform="matrix(0.2734, 0.0, 0.0, 0.2734, 148.4, 14.0)" width="172.3" xlink:href="#font_VAGRounded_BT_N0"/>
        <use fill="#ff6600" height="12.7" transform="matrix(0.2734, 0.0, 0.0, 0.2734, 158.85, 14.0)" width="172.3" xlink:href="#font_VAGRounded_BT_O0"/>
        <use fill="#ff6600" height="12.7" transform="matrix(0.2734, 0.0, 0.0, 0.2734, 169.4, 14.0)" width="172.3" xlink:href="#font_VAGRounded_BT_W0"/>
        <use fill="#ff6600" height="12.7" transform="matrix(0.2734, 0.0, 0.0, 0.2734, 182.2, 14.0)" width="172.3" xlink:href="#font_VAGRounded_BT__1"/>
      </g>
    </g>
    <g id="font_VAGRounded_BT_O0">
      <path d="M1.45 -18.15 L1.45 -18.15 Q1.45 -9.5 6.35 -4.2 11.25 1.1 19.3 1.1 27.35 1.1 32.3 -4.2 37.25 -9.5 37.25 -18.15 37.25 -26.75 32.3 -32.1 27.35 -37.4 19.3 -37.4 11.3 -37.4 6.4 -32.1 1.45 -26.8 1.45 -18.15 M10.45 -18.05 L10.45 -18.05 Q10.45 -23.35 12.85 -26.45 15.25 -29.55 19.3 -29.55 23.35 -29.55 25.75 -26.45 28.15 -23.35 28.15 -18.05 28.15 -12.95 25.75 -9.9 23.3 -6.85 19.3 -6.85 15.3 -6.85 12.9 -9.9 10.45 -12.95 10.45 -18.05" fill-rule="evenodd" stroke="none"/>
    </g>
  </defs>
</svg>
