<?xml version="1.0" encoding="UTF-8" standalone="no"?>
<svg xmlns:ffdec="https://www.free-decompiler.com/flash" xmlns:xlink="http://www.w3.org/1999/xlink" ffdec:objectType="frame" height="193.0px" width="265.6px" xmlns="http://www.w3.org/2000/svg">
  <g transform="matrix(1.0, 0.0, 0.0, 1.0, 127.6, 94.1)">
    <use ffdec:characterId="464" height="95.0" transform="matrix(1.0, 0.0, 0.0, 1.0, -104.8, -41.1)" width="216.0" xlink:href="#shape0"/>
    <use ffdec:characterId="457" height="36.65" transform="matrix(1.0, 0.0, 0.0, 1.0, -49.4, 10.8)" width="103.0" xlink:href="#button0"/>
    <use ffdec:characterId="465" height="12.7" transform="matrix(1.0, 0.0, 0.0, 1.0, -75.5, -16.3)" width="165.25" xlink:href="#text1"/>
  </g>
  <defs>
    <g id="shape0" transform="matrix(1.0, 0.0, 0.0, 1.0, 104.8, 41.1)">
      <path d="M93.25 48.9 L97.0 48.9 Q101.15 48.9 104.1 45.95 107.0 43.05 107.0 38.9 L107.0 -26.1 Q107.0 -30.25 104.1 -33.2 102.3 -34.95 100.1 -35.65 L98.1 -36.05 97.0 -36.1 93.2 -36.1 94.1 -36.05 96.1 -35.65 Q98.3 -34.95 100.1 -33.2 103.0 -30.25 103.0 -26.1 L103.0 38.9 Q103.0 43.05 100.1 45.95 97.25 48.8 93.25 48.9 L93.25 48.85 92.25 48.9 93.25 48.9 M102.25 -41.05 L102.95 -40.95 Q106.0 -40.45 108.25 -38.2 L109.95 -36.05 Q111.2 -33.85 111.2 -31.1 L111.2 43.9 Q111.2 48.05 108.25 50.95 105.35 53.9 101.2 53.9 L-94.8 53.9 Q-98.95 53.9 -101.9 50.95 -104.8 48.05 -104.8 43.9 L-104.8 -31.1 Q-104.8 -33.85 -103.55 -36.05 L-101.9 -38.2 Q-100.1 -39.95 -97.85 -40.65 L-95.85 -41.05 -94.8 -41.1 101.2 -41.1 102.25 -41.05 M-97.9 -33.2 Q-100.8 -30.25 -100.8 -26.1 L-100.8 38.9 Q-100.8 43.05 -97.9 45.95 -94.95 48.9 -90.8 48.9 L-87.05 48.9 Q-91.05 48.8 -93.9 45.95 -96.8 43.05 -96.8 38.9 L-96.8 -26.1 Q-96.8 -30.25 -93.9 -33.2 -92.1 -34.95 -89.85 -35.65 L-87.85 -36.05 -87.0 -36.1 -90.8 -36.1 -91.85 -36.05 -93.85 -35.65 Q-96.1 -34.95 -97.9 -33.2" fill="#ffffff" fill-rule="evenodd" stroke="none"/>
      <path d="M93.25 48.9 Q97.25 48.8 100.1 45.95 103.0 43.05 103.0 38.9 L103.0 -26.1 Q103.0 -30.25 100.1 -33.2 98.3 -34.95 96.1 -35.65 L94.1 -36.05 93.2 -36.1 97.0 -36.1 98.1 -36.05 100.1 -35.65 Q102.3 -34.95 104.1 -33.2 107.0 -30.25 107.0 -26.1 L107.0 38.9 Q107.0 43.05 104.1 45.95 101.15 48.9 97.0 48.9 L93.25 48.9 M-97.9 -33.2 Q-96.1 -34.95 -93.85 -35.65 L-91.85 -36.05 -90.8 -36.1 -87.0 -36.1 -87.85 -36.05 -89.85 -35.65 Q-92.1 -34.95 -93.9 -33.2 -96.8 -30.25 -96.8 -26.1 L-96.8 38.9 Q-96.8 43.05 -93.9 45.95 -91.05 48.8 -87.05 48.9 L-90.8 48.9 Q-94.95 48.9 -97.9 45.95 -100.8 43.05 -100.8 38.9 L-100.8 -26.1 Q-100.8 -30.25 -97.9 -33.2" fill="#66cc00" fill-rule="evenodd" stroke="none"/>
    </g>
    <g id="button0" transform="matrix(1.0, 0.0, 0.0, 1.0, 47.6, 19.3)">
      <use ffdec:characterId="424" height="36.65" transform="matrix(1.0, 0.0, 0.0, 1.0, -47.6, -19.3)" width="103.0" xlink:href="#shape1"/>
      <use ffdec:characterId="425" height="30.0" transform="matrix(1.0, 0.0, 0.0, 1.0, -41.6, -18.5)" width="91.0" xlink:href="#shape2"/>
      <use ffdec:characterId="426" height="12.55" transform="matrix(1.0, 0.0, 0.0, 1.0, -31.6, -8.95)" width="78.0" xlink:href="#text0"/>
    </g>
    <g id="shape1" transform="matrix(1.0, 0.0, 0.0, 1.0, 47.6, 19.3)">
      <path d="M-45.6 5.15 L-45.6 -8.9 Q-45.6 -12.85 -42.7 -15.6 -39.75 -18.35 -35.6 -18.35 L43.4 -18.35 Q47.55 -18.35 50.45 -15.6 53.4 -12.85 53.4 -8.9 L53.4 5.15 51.4 5.15 51.4 4.9 51.4 -8.45 51.3 -8.45 Q50.85 -11.45 48.45 -13.7 45.55 -16.45 41.4 -16.45 L-33.6 -16.45 Q-37.75 -16.45 -40.7 -13.7 -43.05 -11.45 -43.5 -8.45 L-43.6 -8.45 -43.6 4.9 -43.6 5.15 -43.55 5.7 -43.6 5.7 -43.6 6.0 -43.55 6.0 Q-43.25 9.3 -40.7 11.7 -37.75 14.5 -33.6 14.5 L41.4 14.5 Q45.55 14.5 48.45 11.7 51.05 9.3 51.35 6.0 L51.4 6.0 51.4 5.7 51.4 5.15 53.4 5.15 53.4 6.95 Q53.4 10.85 50.45 13.6 47.55 16.35 43.4 16.4 L-35.6 16.4 Q-39.75 16.35 -42.7 13.6 -45.6 10.85 -45.6 6.95 L-45.6 5.15 -43.6 5.15 -45.6 5.15" fill="#01317e" fill-opacity="0.08235294" fill-rule="evenodd" stroke="none"/>
      <path d="M53.4 5.15 L53.4 -8.9 Q53.4 -12.85 50.45 -15.6 47.55 -18.35 43.4 -18.35 L-35.6 -18.35 Q-39.75 -18.35 -42.7 -15.6 -45.6 -12.85 -45.6 -8.9 L-45.6 5.15 -47.6 5.15 -47.6 -9.85 Q-47.6 -13.8 -44.7 -16.55 -41.75 -19.3 -37.6 -19.3 L45.4 -19.3 Q49.55 -19.3 52.45 -16.55 55.4 -13.8 55.4 -9.85 L55.4 5.15 53.4 5.15 55.4 5.15 55.4 7.9 Q55.4 11.8 52.45 14.55 49.55 17.3 45.4 17.35 L-37.6 17.35 Q-41.75 17.3 -44.7 14.55 -47.6 11.8 -47.6 7.9 L-47.6 5.15 -45.6 5.15 -45.6 6.95 Q-45.6 10.85 -42.7 13.6 -39.75 16.35 -35.6 16.4 L43.4 16.4 Q47.55 16.35 50.45 13.6 53.4 10.85 53.4 6.95 L53.4 5.15" fill="#01317e" fill-opacity="0.03137255" fill-rule="evenodd" stroke="none"/>
      <path d="M-43.6 5.15 L-43.6 4.9 -43.6 -8.45 -43.5 -8.45 Q-43.05 -11.45 -40.7 -13.7 -37.75 -16.45 -33.6 -16.45 L41.4 -16.45 Q45.55 -16.45 48.45 -13.7 50.85 -11.45 51.3 -8.45 L51.4 -8.45 51.4 4.9 51.4 5.15 51.4 5.7 51.4 6.0 51.35 6.0 Q51.05 9.3 48.45 11.7 45.55 14.5 41.4 14.5 L-33.6 14.5 Q-37.75 14.5 -40.7 11.7 -43.25 9.3 -43.55 6.0 L-43.6 6.0 -43.6 5.7 -43.55 5.7 -43.6 5.15 51.4 5.15 -43.6 5.15" fill="#01317e" fill-opacity="0.18039216" fill-rule="evenodd" stroke="none"/>
    </g>
    <g id="shape2" transform="matrix(1.0, 0.0, 0.0, 1.0, 41.6, 18.5)">
      <path d="M48.75 5.15 Q48.0 7.0 46.45 8.55 43.55 11.5 39.4 11.5 L-31.6 11.5 Q-35.75 11.5 -38.7 8.55 -40.25 7.0 -40.95 5.15 L48.75 5.15 -40.95 5.15 Q-41.6 1.8 -41.6 -2.05 L-41.6 -8.5 Q-41.6 -12.65 -38.7 -15.6 -35.75 -18.5 -31.6 -18.5 L39.4 -18.5 Q43.55 -18.5 46.45 -15.6 49.4 -12.65 49.4 -8.5 L49.4 -2.05 Q49.4 1.8 48.75 5.15" fill="#ffffff" fill-rule="evenodd" stroke="none"/>
    </g>
    <g id="text0" transform="matrix(1.0, 0.0, 0.0, 1.0, -0.9, -3.75)">
      <g transform="matrix(1.0, 0.0, 0.0, 1.0, 0.0, 0.0)">
        <use fill="#999999" height="12.55" transform="matrix(0.2734, 0.0, 0.0, 0.2734, 0.0, 14.0)" width="78.0" xlink:href="#font_VAGRounded_BT_R0"/>
        <use fill="#999999" height="12.55" transform="matrix(0.2734, 0.0, 0.0, 0.2734, 8.35, 14.0)" width="78.0" xlink:href="#font_VAGRounded_BT_U0"/>
        <use fill="#999999" height="12.55" transform="matrix(0.2734, 0.0, 0.0, 0.2734, 18.65, 14.0)" width="78.0" xlink:href="#font_VAGRounded_BT_N0"/>
        <use fill="#999999" height="12.55" transform="matrix(0.2734, 0.0, 0.0, 0.2734, 33.65, 14.0)" width="78.0" xlink:href="#font_VAGRounded_BT_A0"/>
        <use fill="#999999" height="12.55" transform="matrix(0.2734, 0.0, 0.0, 0.2734, 42.4, 14.0)" width="78.0" xlink:href="#font_VAGRounded_BT_W0"/>
        <use fill="#999999" height="12.55" transform="matrix(0.2734, 0.0, 0.0, 0.2734, 55.2, 14.0)" width="78.0" xlink:href="#font_VAGRounded_BT_A0"/>
        <use fill="#999999" height="12.55" transform="matrix(0.2734, 0.0, 0.0, 0.2734, 63.95, 14.0)" width="78.0" xlink:href="#font_VAGRounded_BT_Y0"/>
      </g>
    </g>
    <g id="font_VAGRounded_BT_R0">
      <path d="M11.55 -19.9 L11.55 -28.75 15.45 -28.75 Q17.95 -28.75 19.3 -27.6 20.65 -26.5 20.65 -24.4 20.65 -22.25 19.25 -21.1 17.9 -19.9 15.35 -19.9 L11.55 -19.9 M11.55 -14.35 L21.2 -2.25 Q22.55 -0.6 23.55 0.05 24.55 0.75 25.65 0.75 27.35 0.75 28.5 -0.4 29.6 -1.5 29.6 -3.15 29.6 -4.15 29.0 -5.35 L27.15 -7.9 20.6 -15.2 Q24.65 -15.9 27.0 -18.5 29.3 -21.1 29.3 -25.0 29.3 -30.25 25.6 -33.3 21.9 -36.4 15.4 -36.4 L8.95 -36.4 Q5.8 -36.4 4.5 -35.15 3.25 -33.9 3.25 -30.55 L3.25 -5.4 Q3.25 -2.45 4.25 -1.0 5.3 0.45 7.4 0.45 9.5 0.45 10.5 -1.0 11.55 -2.45 11.55 -5.4 L11.55 -14.35" fill-rule="evenodd" stroke="none"/>
    </g>
    <g id="font_VAGRounded_BT_U0">
      <path d="M3.25 -15.6 L3.25 -15.6 Q3.25 -7.7 7.35 -3.3 11.5 1.1 18.85 1.1 26.2 1.1 30.35 -3.3 34.45 -7.7 34.45 -15.6 L34.45 -30.95 Q34.45 -33.95 33.45 -35.4 32.4 -36.85 30.3 -36.85 28.25 -36.85 27.2 -35.4 26.2 -33.95 26.2 -30.95 L26.2 -16.55 Q26.2 -11.7 24.35 -9.25 22.5 -6.85 18.85 -6.85 15.2 -6.85 13.4 -9.25 11.55 -11.7 11.55 -16.55 L11.55 -30.95 Q11.55 -33.95 10.5 -35.4 9.5 -36.85 7.4 -36.85 5.3 -36.85 4.25 -35.4 3.25 -33.95 3.25 -30.95 L3.25 -15.6" fill-rule="evenodd" stroke="none"/>
    </g>
    <g id="font_VAGRounded_BT_N0">
      <path d="M11.55 -5.4 L11.55 -22.15 26.55 -2.35 Q27.75 -0.75 28.85 -0.05 30.0 0.7 31.3 0.7 33.25 0.7 34.15 -0.55 35.1 -1.85 35.1 -4.5 L35.1 -30.95 Q35.1 -33.95 34.05 -35.4 33.05 -36.85 30.95 -36.85 28.85 -36.85 27.8 -35.4 26.8 -33.95 26.8 -30.95 L26.8 -13.9 11.5 -34.15 9.35 -36.2 Q8.35 -36.8 7.1 -36.8 5.15 -36.8 4.2 -35.45 3.25 -34.05 3.25 -31.25 L3.25 -5.4 Q3.25 -2.45 4.25 -1.0 5.3 0.45 7.4 0.45 9.5 0.45 10.5 -1.0 11.55 -2.45 11.55 -5.4" fill-rule="evenodd" stroke="none"/>
    </g>
    <g id="font_VAGRounded_BT_A0">
      <path d="M11.55 -14.5 L16.05 -28.0 20.25 -14.5 11.55 -14.5 M9.2 -6.85 L22.65 -6.85 23.65 -3.45 Q24.3 -1.4 25.35 -0.4 26.4 0.6 28.0 0.6 29.8 0.6 30.95 -0.5 32.1 -1.6 32.1 -3.3 L32.0 -4.45 31.55 -5.95 22.35 -32.1 Q21.5 -34.45 19.95 -35.65 18.35 -36.9 16.25 -36.9 14.0 -36.9 12.45 -35.6 10.9 -34.3 9.9 -31.55 L0.4 -5.8 0.1 -4.7 0.0 -3.4 Q0.0 -1.7 1.15 -0.55 2.25 0.6 3.95 0.6 5.3 0.6 6.35 -0.35 7.35 -1.35 7.95 -3.15 L9.2 -6.85" fill-rule="evenodd" stroke="none"/>
    </g>
    <g id="font_VAGRounded_BT_W0">
      <path d="M18.2 -4.65 L23.3 -24.95 28.75 -4.2 Q29.35 -1.8 30.7 -0.65 32.0 0.45 34.25 0.45 36.75 0.45 37.95 -0.6 39.2 -1.7 40.0 -5.0 L46.35 -30.55 46.6 -31.8 46.65 -33.0 Q46.65 -34.7 45.5 -35.75 44.35 -36.85 42.55 -36.85 40.75 -36.85 39.8 -35.9 38.8 -34.9 38.35 -32.7 L34.0 -10.15 28.05 -33.25 Q27.6 -35.05 26.5 -35.95 25.35 -36.85 23.55 -36.85 21.75 -36.85 20.6 -36.0 19.4 -35.1 18.95 -33.35 L12.9 -10.15 8.55 -33.25 Q8.25 -35.0 7.2 -35.95 6.15 -36.9 4.55 -36.9 2.7 -36.9 1.55 -35.9 0.35 -34.85 0.35 -33.15 L0.4 -32.0 0.45 -31.35 6.5 -5.0 Q7.2 -2.05 8.5 -0.8 9.8 0.45 12.2 0.45 14.5 0.45 16.05 -0.85 17.55 -2.15 18.2 -4.65" fill-rule="evenodd" stroke="none"/>
    </g>
    <g id="font_VAGRounded_BT_Y0">
      <path d="M19.8 -33.8 L13.5 -24.8 7.3 -33.7 5.1 -36.1 Q4.05 -36.85 3.05 -36.85 1.35 -36.85 0.2 -35.8 -0.95 -34.7 -0.95 -33.2 -0.95 -31.6 0.85 -29.1 L0.9 -29.0 9.3 -17.15 9.3 -5.4 Q9.3 -2.45 10.3 -1.0 11.35 0.45 13.45 0.45 15.5 0.45 16.55 -1.0 17.55 -2.45 17.55 -5.4 L17.55 -17.15 25.95 -29.1 26.15 -29.35 Q27.85 -31.75 27.85 -33.3 27.85 -34.65 26.75 -35.8 25.6 -36.9 24.25 -36.9 23.15 -36.9 22.0 -36.1 20.85 -35.3 19.8 -33.8" fill-rule="evenodd" stroke="none"/>
    </g>
    <g id="text1" transform="matrix(1.0, 0.0, 0.0, 1.0, -47.4, -3.6)">
      <g transform="matrix(1.0, 0.0, 0.0, 1.0, 47.25, 0.0)">
        <use fill="#ff6600" height="12.7" transform="matrix(0.2734, 0.0, 0.0, 0.2734, 0.0, 14.0)" width="165.25" xlink:href="#font_VAGRounded_BT_W0"/>
        <use fill="#ff6600" height="12.7" transform="matrix(0.2734, 0.0, 0.0, 0.2734, 12.8, 14.0)" width="165.25" xlink:href="#font_VAGRounded_BT_A0"/>
        <use fill="#ff6600" height="12.7" transform="matrix(0.2734, 0.0, 0.0, 0.2734, 21.55, 14.0)" width="165.25" xlink:href="#font_VAGRounded_BT_I0"/>
        <use fill="#ff6600" height="12.7" transform="matrix(0.2734, 0.0, 0.0, 0.2734, 25.7, 14.0)" width="165.25" xlink:href="#font_VAGRounded_BT_T0"/>
        <use fill="#ff6600" height="12.7" transform="matrix(0.2734, 0.0, 0.0, 0.2734, 32.3, 14.0)" width="165.25" xlink:href="#font_VAGRounded_BT_I0"/>
        <use fill="#ff6600" height="12.7" transform="matrix(0.2734, 0.0, 0.0, 0.2734, 36.45, 14.0)" width="165.25" xlink:href="#font_VAGRounded_BT_N0"/>
        <use fill="#ff6600" height="12.7" transform="matrix(0.2734, 0.0, 0.0, 0.2734, 46.9, 14.0)" width="165.25" xlink:href="#font_VAGRounded_BT_G0"/>
        <use fill="#ff6600" height="12.7" transform="matrix(0.2734, 0.0, 0.0, 0.2734, 61.55, 14.0)" width="165.25" xlink:href="#font_VAGRounded_BT_F0"/>
        <use fill="#ff6600" height="12.7" transform="matrix(0.2734, 0.0, 0.0, 0.2734, 68.4, 14.0)" width="165.25" xlink:href="#font_VAGRounded_BT_O0"/>
        <use fill="#ff6600" height="12.7" transform="matrix(0.2734, 0.0, 0.0, 0.2734, 78.95, 14.0)" width="165.25" xlink:href="#font_VAGRounded_BT_R0"/>
        <use fill="#ff6600" height="12.7" transform="matrix(0.2734, 0.0, 0.0, 0.2734, 91.85, 14.0)" width="165.25" xlink:href="#font_VAGRounded_BT_M0"/>
        <use fill="#ff6600" height="12.7" transform="matrix(0.2734, 0.0, 0.0, 0.2734, 103.95, 14.0)" width="165.25" xlink:href="#font_VAGRounded_BT_O0"/>
        <use fill="#ff6600" height="12.7" transform="matrix(0.2734, 0.0, 0.0, 0.2734, 114.5, 14.0)" width="165.25" xlink:href="#font_VAGRounded_BT_N0"/>
        <use fill="#ff6600" height="12.7" transform="matrix(0.2734, 0.0, 0.0, 0.2734, 124.95, 14.0)" width="165.25" xlink:href="#font_VAGRounded_BT_K0"/>
        <use fill="#ff6600" height="12.7" transform="matrix(0.2734, 0.0, 0.0, 0.2734, 133.6, 14.0)" width="165.25" xlink:href="#font_VAGRounded_BT_E0"/>
        <use fill="#ff6600" height="12.7" transform="matrix(0.2734, 0.0, 0.0, 0.2734, 140.65, 14.0)" width="165.25" xlink:href="#font_VAGRounded_BT_Y0"/>
        <use fill="#ff6600" height="12.7" transform="matrix(0.2734, 0.0, 0.0, 0.2734, 147.9, 14.0)" width="165.25" xlink:href="#font_VAGRounded_BT_.0"/>
        <use fill="#ff6600" height="12.7" transform="matrix(0.2734, 0.0, 0.0, 0.2734, 151.15, 14.0)" width="165.25" xlink:href="#font_VAGRounded_BT_.0"/>
        <use fill="#ff6600" height="12.7" transform="matrix(0.2734, 0.0, 0.0, 0.2734, 154.4, 14.0)" width="165.25" xlink:href="#font_VAGRounded_BT_.0"/>
      </g>
    </g>
    <g id="font_VAGRounded_BT_I0">
      <path d="M11.75 -5.4 L11.75 -30.95 Q11.75 -33.95 10.7 -35.4 9.7 -36.85 7.6 -36.85 5.5 -36.85 4.45 -35.4 3.45 -33.95 3.45 -30.95 L3.45 -5.4 Q3.45 -2.45 4.45 -1.0 5.5 0.45 7.6 0.45 9.7 0.45 10.7 -1.0 11.75 -2.45 11.75 -5.4" fill-rule="evenodd" stroke="none"/>
    </g>
    <g id="font_VAGRounded_BT_T0">
      <path d="M7.95 -28.65 L7.95 -5.4 Q7.95 -2.45 8.95 -1.0 10.0 0.45 12.1 0.45 14.2 0.45 15.2 -1.0 16.25 -2.45 16.25 -5.4 L16.25 -28.65 19.3 -28.65 Q22.3 -28.65 23.75 -29.6 25.2 -30.55 25.2 -32.5 25.2 -34.45 23.75 -35.4 22.25 -36.4 19.3 -36.4 L4.9 -36.4 Q1.9 -36.4 0.45 -35.4 -1.0 -34.45 -1.0 -32.5 -1.0 -30.55 0.45 -29.6 1.9 -28.65 4.9 -28.65 L7.95 -28.65" fill-rule="evenodd" stroke="none"/>
    </g>
    <g id="font_VAGRounded_BT_G0">
      <path d="M26.9 -14.15 L26.9 -14.15 Q26.8 -10.8 24.8 -8.8 22.8 -6.85 19.5 -6.85 15.35 -6.85 12.9 -9.95 10.4 -13.1 10.4 -18.35 10.4 -23.55 12.9 -26.55 15.35 -29.55 19.55 -29.55 22.4 -29.55 25.6 -27.75 28.8 -26.0 29.7 -26.0 31.15 -26.0 32.2 -27.15 33.25 -28.35 33.25 -29.9 33.25 -32.85 29.35 -35.15 25.4 -37.45 19.85 -37.45 11.4 -37.45 6.45 -32.25 1.45 -27.05 1.45 -18.2 1.45 -9.65 6.3 -4.3 11.2 1.1 18.85 1.1 26.5 1.1 31.2 -3.75 35.85 -8.6 35.85 -16.35 35.85 -19.3 34.5 -20.6 33.15 -21.9 30.05 -21.9 L23.95 -21.9 Q21.0 -21.9 19.55 -20.95 18.15 -20.0 18.15 -18.0 18.15 -16.05 19.55 -15.1 20.95 -14.15 23.95 -14.15 L26.9 -14.15" fill-rule="evenodd" stroke="none"/>
    </g>
    <g id="font_VAGRounded_BT_F0">
      <path d="M18.3 -36.4 L8.95 -36.4 Q5.8 -36.4 4.5 -35.15 3.25 -33.9 3.25 -30.55 L3.25 -5.4 Q3.25 -2.45 4.25 -1.0 5.3 0.45 7.4 0.45 9.5 0.45 10.5 -1.0 11.55 -2.45 11.55 -5.4 L11.55 -14.5 17.35 -14.5 Q20.35 -14.5 21.8 -15.4 23.25 -16.35 23.25 -18.3 23.25 -20.25 21.8 -21.2 20.35 -22.15 17.35 -22.15 L11.55 -22.15 11.55 -28.65 18.3 -28.65 Q21.25 -28.65 22.75 -29.6 24.2 -30.55 24.2 -32.5 24.2 -34.45 22.7 -35.4 21.25 -36.4 18.3 -36.4" fill-rule="evenodd" stroke="none"/>
    </g>
    <g id="font_VAGRounded_BT_O0">
      <path d="M1.45 -18.15 L1.45 -18.15 Q1.45 -9.5 6.35 -4.2 11.25 1.1 19.3 1.1 27.35 1.1 32.3 -4.2 37.25 -9.5 37.25 -18.15 37.25 -26.75 32.3 -32.1 27.35 -37.4 19.3 -37.4 11.3 -37.4 6.4 -32.1 1.45 -26.8 1.45 -18.15 M10.45 -18.05 L10.45 -18.05 Q10.45 -23.35 12.85 -26.45 15.25 -29.55 19.3 -29.55 23.35 -29.55 25.75 -26.45 28.15 -23.35 28.15 -18.05 28.15 -12.95 25.75 -9.9 23.3 -6.85 19.3 -6.85 15.3 -6.85 12.9 -9.9 10.45 -12.95 10.45 -18.05" fill-rule="evenodd" stroke="none"/>
    </g>
    <g id="font_VAGRounded_BT_M0">
      <path d="M1.1 -6.35 L1.1 -6.35 0.85 -4.95 0.8 -3.85 Q0.8 -1.85 1.9 -0.65 3.0 0.5 4.85 0.5 6.7 0.5 7.75 -0.75 8.8 -2.05 9.2 -4.85 L12.05 -26.1 17.4 -3.65 Q18.0 -1.4 19.1 -0.45 20.2 0.5 22.3 0.5 L24.45 0.2 Q25.25 -0.15 25.75 -0.95 26.55 -2.25 28.05 -7.65 L32.5 -26.1 35.15 -4.35 Q35.45 -1.9 36.45 -0.7 37.5 0.5 39.25 0.5 41.15 0.5 42.3 -0.65 43.45 -1.85 43.45 -3.85 L43.4 -4.75 43.25 -5.8 39.2 -30.85 Q38.65 -34.1 37.3 -35.45 35.9 -36.85 33.35 -36.85 31.1 -36.85 29.65 -35.65 28.25 -34.4 27.65 -32.0 L22.5 -10.2 16.95 -31.95 Q16.35 -34.4 14.9 -35.65 13.5 -36.85 11.15 -36.85 8.7 -36.85 7.4 -35.55 6.1 -34.25 5.55 -31.15 L1.1 -6.35" fill-rule="evenodd" stroke="none"/>
    </g>
    <g id="font_VAGRounded_BT_K0">
      <path d="M22.1 -33.9 L11.55 -21.95 11.55 -30.95 Q11.55 -33.95 10.5 -35.4 9.5 -36.85 7.4 -36.85 5.3 -36.85 4.25 -35.4 3.25 -33.95 3.25 -30.95 L3.25 -5.4 Q3.25 -2.45 4.25 -1.0 5.3 0.45 7.4 0.45 9.5 0.45 10.5 -1.0 11.55 -2.45 11.55 -5.4 L11.55 -16.15 23.95 -2.45 26.55 -0.05 Q27.45 0.45 28.45 0.45 29.9 0.45 31.1 -0.7 32.25 -1.85 32.25 -3.35 32.25 -4.2 31.75 -5.25 L30.15 -7.45 19.05 -19.55 28.0 -28.85 Q29.1 -29.95 29.6 -30.95 30.1 -32.0 30.1 -32.95 30.1 -34.5 29.0 -35.6 27.9 -36.75 26.4 -36.75 25.45 -36.75 24.5 -36.1 23.5 -35.5 22.1 -33.9" fill-rule="evenodd" stroke="none"/>
    </g>
    <g id="font_VAGRounded_BT_E0">
      <path d="M18.3 -36.4 L8.95 -36.4 Q5.8 -36.4 4.5 -35.15 3.25 -33.9 3.25 -30.55 L3.25 -5.2 Q3.25 -2.2 4.45 -1.1 5.65 0.0 8.85 0.0 L18.55 0.0 Q21.55 0.0 23.0 -0.95 24.45 -1.9 24.45 -3.85 24.45 -5.75 23.0 -6.7 21.55 -7.65 18.55 -7.65 L11.55 -7.65 11.55 -14.5 17.35 -14.5 Q20.35 -14.5 21.8 -15.4 23.25 -16.35 23.25 -18.3 23.25 -20.25 21.8 -21.2 20.35 -22.15 17.35 -22.15 L11.55 -22.15 11.55 -28.65 18.3 -28.65 Q21.25 -28.65 22.75 -29.6 24.2 -30.55 24.2 -32.5 24.2 -34.45 22.7 -35.4 21.25 -36.4 18.3 -36.4" fill-rule="evenodd" stroke="none"/>
    </g>
    <g id="font_VAGRounded_BT_.0">
      <path d="M1.3 -4.3 L1.3 -4.3 Q1.3 -2.35 2.65 -1.0 4.0 0.35 5.95 0.35 7.9 0.35 9.25 -1.0 10.55 -2.35 10.55 -4.3 10.55 -6.2 9.2 -7.55 7.85 -8.95 5.95 -8.95 4.05 -8.95 2.65 -7.55 1.3 -6.2 1.3 -4.3" fill-rule="evenodd" stroke="none"/>
    </g>
  </defs>
</svg>
