<?xml version="1.0" encoding="UTF-8" standalone="no"?>
<svg xmlns:ffdec="https://www.free-decompiler.com/flash" xmlns:xlink="http://www.w3.org/1999/xlink" ffdec:objectType="morphshape" height="6.25px" width="25.6px" xmlns="http://www.w3.org/2000/svg">
  <g transform="matrix(1.0, 0.0, 0.0, 1.0, 7.65, 2.25)">
    <path d="M-4.55 1.55 L-4.55 2.55 -3.9 2.9 Q2.4 0.95 8.0 3.7 14.8 5.1 17.95 -0.55 L17.95 -2.05 15.6 -1.95 Q14.45 0.35 11.75 0.95 L9.8 0.75 Q1.75 -4.15 -4.55 1.55" fill="#000000" fill-rule="evenodd" stroke="none">
      <animate attributeName="fill" dur="2s" repeatCount="indefinite" values="#000000;#000001"/>
      <animate attributeName="fill-opacity" dur="2s" repeatCount="indefinite" values="1.0;1.0"/>
      <animate attributeName="d" dur="2s" repeatCount="indefinite" values="M-4.55 1.55 L-4.55 2.55 -3.9 2.9 Q2.4 0.95 8.0 3.7 14.8 5.1 17.95 -0.55 L17.95 -2.05 15.6 -1.95 Q14.45 0.35 11.75 0.95 L9.8 0.75 Q1.75 -4.15 -4.55 1.55;M-7.65 1.25 L-7.5 0.6 -6.9 -0.25 Q-6.5 -0.65 -6.15 -1.0 -1.9 -0.55 0.6 -2.25 L3.85 -1.55 7.1 -1.0 Q7.35 -0.55 7.6 -0.15 L7.6 0.5 Q0.1 3.55 -7.65 1.25"/>
    </path>
    <path d="M-4.55 1.55 Q1.75 -4.15 9.8 0.75 L11.75 0.95 Q14.45 0.35 15.6 -1.95 L17.95 -2.05 17.95 -0.55 Q14.8 5.1 8.0 3.7 2.4 0.95 -3.9 2.9 L-4.55 2.55 -4.55 1.55 Z" fill="none" stroke="#000000" stroke-linecap="round" stroke-linejoin="round" stroke-opacity="0.0" stroke-width="0.0">
      <animate attributeName="stroke" dur="2s" repeatCount="indefinite" values="#000000;#000001"/>
      <animate attributeName="stroke-width" dur="2s" repeatCount="indefinite" values="0.0;0.0"/>
      <animate attributeName="fill-opacity" dur="2s" repeatCount="indefinite" values="0.0;0.0"/>
      <animate attributeName="d" dur="2s" repeatCount="indefinite" values="M-4.55 1.55 Q1.75 -4.15 9.8 0.75 L11.75 0.95 Q14.45 0.35 15.6 -1.95 L17.95 -2.05 17.95 -0.55 Q14.8 5.1 8.0 3.7 2.4 0.95 -3.9 2.9 L-4.55 2.55 -4.55 1.55 Z;M-7.65 1.25 Q0.1 3.55 7.6 0.5 L7.6 -0.15 Q7.35 -0.55 7.1 -1.0 L3.85 -1.55 0.6 -2.25 Q-1.9 -0.55 -6.15 -1.0 -6.5 -0.65 -6.9 -0.25 L-7.5 0.6 -7.65 1.25 Z"/>
    </path>
  </g>
</svg>
