<?xml version="1.0" encoding="UTF-8" standalone="no"?>
<svg xmlns:ffdec="https://www.free-decompiler.com/flash" xmlns:xlink="http://www.w3.org/1999/xlink" ffdec:objectType="morphshape" height="332.95px" width="612.15px" xmlns="http://www.w3.org/2000/svg">
  <g transform="matrix(1.0, 0.0, 0.0, 1.0, 0.0, -101.15)">
    <path d="M0.0 300.95 L0.0 434.1 612.15 434.1 612.15 156.55 597.0 159.5 595.05 155.8 Q591.0 147.8 588.45 133.15 L586.75 122.35 Q585.45 112.55 584.65 102.05 L583.9 101.15 582.9 101.25 581.8 109.15 581.45 111.4 581.1 114.5 581.05 114.9 581.0 115.55 580.8 118.0 Q579.4 133.85 574.15 148.65 570.65 158.5 565.55 167.45 550.55 171.85 535.9 177.4 L534.75 169.7 Q533.45 159.9 532.65 149.45 L531.9 148.55 530.9 148.65 529.8 156.5 529.45 158.8 529.1 161.85 529.05 162.3 529.0 162.95 528.8 165.35 Q528.1 173.35 526.4 181.1 505.0 189.8 484.3 201.0 L482.15 202.15 Q480.0 197.1 478.4 190.3 477.35 185.95 476.55 181.4 475.05 173.35 474.2 164.7 L473.35 164.0 472.2 164.05 471.0 170.55 470.55 172.4 470.15 174.95 470.15 175.25 470.1 175.8 469.85 177.85 Q468.25 190.9 462.4 203.1 458.7 210.75 453.4 217.7 L451.6 218.65 436.95 226.55 414.8 238.55 412.05 231.55 Q406.8 216.75 405.4 200.9 L405.2 198.45 405.15 197.8 405.15 197.4 404.8 194.3 404.4 192.05 403.3 184.2 402.3 184.05 401.55 184.95 Q400.75 195.45 399.45 205.25 L397.8 216.05 Q395.2 230.7 391.15 238.75 387.1 246.75 383.2 252.55 382.1 254.15 382.1 256.15 378.95 257.85 375.85 259.5 357.75 269.3 339.25 277.5 L339.2 275.95 339.2 274.05 Q343.1 272.2 346.45 268.2 347.45 267.0 348.1 267.5 348.85 265.85 349.25 265.9 L349.55 265.7 349.75 265.2 350.05 264.7 Q345.6 253.85 342.85 241.65 339.35 226.65 338.45 210.6 L338.3 208.1 338.3 207.45 338.25 207.05 338.05 203.9 337.8 201.6 Q337.35 197.7 337.05 193.65 L336.4 193.55 335.9 194.45 Q335.4 205.05 334.55 215.0 L333.45 225.95 Q331.75 240.8 329.1 248.95 326.4 257.05 323.85 262.95 322.85 265.05 323.2 267.85 L325.8 272.45 Q326.85 274.25 328.25 274.9 331.55 276.1 335.05 275.3 L334.5 279.6 Q314.8 288.05 294.7 294.8 L292.5 290.55 Q286.35 278.4 282.45 256.2 281.05 248.15 279.9 239.8 277.9 225.0 276.75 209.1 L275.6 207.75 274.1 207.95 272.4 219.8 271.85 223.3 271.3 227.9 271.3 228.55 271.2 229.55 270.9 233.2 Q268.8 257.25 260.85 279.7 256.0 293.35 249.0 305.9 L247.8 308.05 Q227.75 312.75 207.5 315.95 L205.25 311.65 Q201.4 304.05 199.0 290.25 L197.4 280.05 Q196.15 270.85 195.45 260.95 L194.75 260.1 193.8 260.2 192.75 267.65 192.4 269.8 192.05 272.65 192.05 273.05 192.0 273.65 191.8 275.95 Q190.5 290.9 185.55 304.9 182.8 312.55 179.0 319.7 L146.5 322.15 139.65 322.35 139.5 321.45 137.8 310.65 Q136.5 300.85 135.7 290.35 L134.95 289.5 133.95 289.6 132.85 297.45 132.5 299.75 132.15 302.8 132.1 303.25 132.05 303.9 131.85 306.3 Q131.1 314.55 129.4 322.45 L91.65 320.85 90.15 314.95 Q98.5 316.0 106.5 314.5 109.8 313.65 112.3 311.4 L118.65 305.6 Q119.35 302.15 117.05 299.45 110.9 292.05 104.5 281.9 101.3 276.8 98.65 269.55 96.05 262.35 94.05 253.1 92.6 246.35 91.4 239.35 L90.05 230.6 Q88.9 222.3 88.1 213.6 L86.9 212.45 85.35 212.65 83.6 222.6 83.0 225.5 82.45 229.4 82.4 229.9 82.35 230.6 82.35 230.75 82.05 233.85 Q79.95 252.85 72.45 270.7 L71.55 272.8 Q64.8 288.05 54.2 301.6 L54.9 302.3 55.45 302.9 56.15 303.2 Q57.1 303.1 58.9 305.15 60.4 304.55 62.85 306.05 70.8 311.1 80.3 313.35 L80.3 315.8 80.05 318.1 79.65 319.6 Q64.85 317.9 50.15 315.15 50.25 313.45 49.35 312.15 46.5 307.9 43.55 302.05 40.55 296.2 38.7 285.45 38.0 281.6 37.45 277.55 L36.65 270.7 35.95 262.7 35.4 262.05 34.65 262.15 33.85 267.9 33.6 269.55 33.5 270.7 33.3 271.8 33.3 272.15 33.25 272.6 33.1 274.4 Q32.1 286.0 28.25 296.8 26.0 303.15 22.85 309.0 11.1 305.65 0.0 300.95" fill="#ffcd91" fill-rule="evenodd" stroke="none">
      <animate attributeName="fill" dur="2s" repeatCount="indefinite" values="#ffcd91;#97d6ff"/>
      <animate attributeName="fill-opacity" dur="2s" repeatCount="indefinite" values="1.0;1.0"/>
      <animate attributeName="d" dur="2s" repeatCount="indefinite" values="M0.0 300.95 L0.0 434.1 612.15 434.1 612.15 156.55 597.0 159.5 595.05 155.8 Q591.0 147.8 588.45 133.15 L586.75 122.35 Q585.45 112.55 584.65 102.05 L583.9 101.15 582.9 101.25 581.8 109.15 581.45 111.4 581.1 114.5 581.05 114.9 581.0 115.55 580.8 118.0 Q579.4 133.85 574.15 148.65 570.65 158.5 565.55 167.45 550.55 171.85 535.9 177.4 L534.75 169.7 Q533.45 159.9 532.65 149.45 L531.9 148.55 530.9 148.65 529.8 156.5 529.45 158.8 529.1 161.85 529.05 162.3 529.0 162.95 528.8 165.35 Q528.1 173.35 526.4 181.1 505.0 189.8 484.3 201.0 L482.15 202.15 Q480.0 197.1 478.4 190.3 477.35 185.95 476.55 181.4 475.05 173.35 474.2 164.7 L473.35 164.0 472.2 164.05 471.0 170.55 470.55 172.4 470.15 174.95 470.15 175.25 470.1 175.8 469.85 177.85 Q468.25 190.9 462.4 203.1 458.7 210.75 453.4 217.7 L451.6 218.65 436.95 226.55 414.8 238.55 412.05 231.55 Q406.8 216.75 405.4 200.9 L405.2 198.45 405.15 197.8 405.15 197.4 404.8 194.3 404.4 192.05 403.3 184.2 402.3 184.05 401.55 184.95 Q400.75 195.45 399.45 205.25 L397.8 216.05 Q395.2 230.7 391.15 238.75 387.1 246.75 383.2 252.55 382.1 254.15 382.1 256.15 378.95 257.85 375.85 259.5 357.75 269.3 339.25 277.5 L339.2 275.95 339.2 274.05 Q343.1 272.2 346.45 268.2 347.45 267.0 348.1 267.5 348.85 265.85 349.25 265.9 L349.55 265.7 349.75 265.2 350.05 264.7 Q345.6 253.85 342.85 241.65 339.35 226.65 338.45 210.6 L338.3 208.1 338.3 207.45 338.25 207.05 338.05 203.9 337.8 201.6 Q337.35 197.7 337.05 193.65 L336.4 193.55 335.9 194.45 Q335.4 205.05 334.55 215.0 L333.45 225.95 Q331.75 240.8 329.1 248.95 326.4 257.05 323.85 262.95 322.85 265.05 323.2 267.85 L325.8 272.45 Q326.85 274.25 328.25 274.9 331.55 276.1 335.05 275.3 L334.5 279.6 Q314.8 288.05 294.7 294.8 L292.5 290.55 Q286.35 278.4 282.45 256.2 281.05 248.15 279.9 239.8 277.9 225.0 276.75 209.1 L275.6 207.75 274.1 207.95 272.4 219.8 271.85 223.3 271.3 227.9 271.3 228.55 271.2 229.55 270.9 233.2 Q268.8 257.25 260.85 279.7 256.0 293.35 249.0 305.9 L247.8 308.05 Q227.75 312.75 207.5 315.95 L205.25 311.65 Q201.4 304.05 199.0 290.25 L197.4 280.05 Q196.15 270.85 195.45 260.95 L194.75 260.1 193.8 260.2 192.75 267.65 192.4 269.8 192.05 272.65 192.05 273.05 192.0 273.65 191.8 275.95 Q190.5 290.9 185.55 304.9 182.8 312.55 179.0 319.7 L146.5 322.15 139.65 322.35 139.5 321.45 137.8 310.65 Q136.5 300.85 135.7 290.35 L134.95 289.5 133.95 289.6 132.85 297.45 132.5 299.75 132.15 302.8 132.1 303.25 132.05 303.9 131.85 306.3 Q131.1 314.55 129.4 322.45 L91.65 320.85 90.15 314.95 Q98.5 316.0 106.5 314.5 109.8 313.65 112.3 311.4 L118.65 305.6 Q119.35 302.15 117.05 299.45 110.9 292.05 104.5 281.9 101.3 276.8 98.65 269.55 96.05 262.35 94.05 253.1 92.6 246.35 91.4 239.35 L90.05 230.6 Q88.9 222.3 88.1 213.6 L86.9 212.45 85.35 212.65 83.6 222.6 83.0 225.5 82.45 229.4 82.4 229.9 82.35 230.6 82.35 230.75 82.05 233.85 Q79.95 252.85 72.45 270.7 L71.55 272.8 Q64.8 288.05 54.2 301.6 L54.9 302.3 55.45 302.9 56.15 303.2 Q57.1 303.1 58.9 305.15 60.4 304.55 62.85 306.05 70.8 311.1 80.3 313.35 L80.3 315.8 80.05 318.1 79.65 319.6 Q64.85 317.9 50.15 315.15 50.25 313.45 49.35 312.15 46.5 307.9 43.55 302.05 40.55 296.2 38.7 285.45 38.0 281.6 37.45 277.55 L36.65 270.7 35.95 262.7 35.4 262.05 34.65 262.15 33.85 267.9 33.6 269.55 33.5 270.7 33.3 271.8 33.3 272.15 33.25 272.6 33.1 274.4 Q32.1 286.0 28.25 296.8 26.0 303.15 22.85 309.0 11.1 305.65 0.0 300.95;M0.0 299.7 L0.0 412.1 612.15 412.1 612.15 177.75 597.0 180.25 595.05 177.15 Q591.0 170.4 588.45 158.0 L586.75 148.9 Q585.45 140.6 584.65 131.75 L583.9 131.0 582.9 131.1 581.8 137.75 581.45 139.65 581.1 142.25 581.05 142.6 581.0 143.15 580.8 145.2 Q579.4 158.6 574.15 171.1 570.65 179.4 565.55 186.95 550.55 190.65 535.9 195.35 L534.75 188.9 Q533.45 180.6 532.65 171.75 L531.9 171.0 530.9 171.1 529.8 177.75 529.45 179.65 529.1 182.25 529.05 182.6 529.0 183.15 528.8 185.2 Q528.1 191.95 526.4 198.5 505.0 205.85 484.3 215.3 L482.15 216.3 Q480.0 212.0 478.4 206.3 477.35 202.6 476.55 198.75 475.05 191.95 474.2 184.65 L473.35 184.05 472.2 184.1 471.0 189.6 470.55 191.15 470.15 193.3 470.15 193.6 470.1 194.05 469.85 195.75 Q468.25 206.75 462.4 217.1 458.7 223.5 453.4 229.4 L451.6 230.2 436.95 236.9 414.8 247.0 412.05 241.1 Q406.8 228.6 405.4 215.2 L405.2 213.15 405.15 212.6 405.15 212.25 404.8 209.65 404.4 207.75 403.3 201.1 402.3 201.0 401.55 201.75 Q400.75 210.6 399.45 218.9 L397.8 228.0 Q395.2 240.4 391.15 247.15 387.1 253.9 383.2 258.8 382.1 260.2 382.1 261.85 378.95 263.3 375.85 264.7 357.75 272.95 339.25 279.9 L339.2 278.6 339.2 276.95 Q343.1 275.45 346.45 272.05 347.45 271.0 348.1 271.45 348.85 270.05 349.25 270.1 L349.55 269.9 349.75 269.5 350.05 269.05 Q345.6 259.9 342.85 249.65 339.35 236.95 338.45 223.4 L338.3 221.3 338.3 220.75 338.25 220.4 338.05 217.75 337.8 215.8 Q337.4 212.45 337.05 209.1 L336.4 209.0 335.9 209.75 Q335.4 218.75 334.55 227.1 L333.45 236.35 Q331.75 248.9 329.1 255.8 326.4 262.6 323.85 267.6 322.85 269.4 323.2 271.75 L325.8 275.65 Q326.85 277.15 328.25 277.7 331.65 277.85 335.05 278.0 L334.5 281.65 Q314.8 288.8 294.7 294.5 L292.5 290.9 Q286.35 280.65 282.45 261.9 281.05 255.1 279.9 248.1 277.9 235.55 276.75 222.15 L275.6 221.0 274.1 221.15 272.4 231.2 271.85 234.1 271.3 238.05 271.3 238.55 271.2 239.4 270.9 242.5 Q268.8 262.8 260.85 281.75 256.0 293.3 249.0 303.85 L247.8 305.65 Q227.75 309.65 207.5 312.35 L205.25 308.7 Q201.4 302.3 199.0 290.65 L197.4 282.05 Q196.15 274.25 195.45 265.9 L194.75 265.2 193.8 265.3 192.75 271.55 192.4 273.35 192.05 275.8 192.05 276.15 192.0 276.65 191.8 278.6 Q190.5 291.2 185.55 303.0 182.8 309.5 179.0 315.5 L146.5 317.55 139.65 317.75 139.5 317.0 137.8 307.9 Q136.5 299.6 135.7 290.75 L134.95 290.0 133.95 290.1 132.85 296.75 132.5 298.65 132.15 301.25 132.1 301.6 132.05 302.15 131.85 304.2 Q131.1 311.15 129.4 317.85 L91.65 316.5 90.15 311.5 Q98.5 312.4 106.5 311.1 109.8 310.4 112.3 308.5 L118.65 303.65 Q119.35 300.7 117.05 298.4 110.9 292.2 104.5 283.6 101.3 279.3 98.65 273.15 96.05 267.1 94.05 259.3 92.6 253.6 91.4 247.7 L90.05 240.3 Q88.9 233.3 88.1 225.95 L86.9 225.0 85.35 225.1 83.6 233.55 83.0 236.0 82.45 239.3 82.4 239.7 82.35 240.3 82.35 240.4 82.05 243.05 Q79.95 259.1 72.45 274.15 L71.55 275.95 Q64.8 288.8 54.2 300.25 L54.9 300.85 55.45 301.35 56.15 301.6 Q57.1 301.5 58.9 303.25 60.4 302.7 62.85 304.0 70.8 308.25 80.3 310.15 L80.3 312.2 80.05 314.15 79.65 315.45 Q64.85 314.0 50.15 311.65 50.25 310.25 49.35 309.15 46.5 305.55 43.55 300.6 40.55 295.65 38.7 286.6 38.0 283.35 37.45 279.95 L36.65 274.15 35.95 267.4 35.4 266.85 34.65 266.95 33.85 271.8 33.6 273.2 33.5 274.15 33.3 275.1 33.3 275.35 33.25 275.75 33.1 277.25 Q32.1 287.05 28.25 296.2 26.0 301.55 22.85 306.45 11.1 303.65 0.0 299.7"/>
    </path>
    <path d="M0.0 300.95 Q11.1 305.65 22.85 309.0 26.0 303.15 28.25 296.8 32.1 286.0 33.1 274.4 L33.25 272.6 33.3 272.15 33.3 271.8 33.5 270.7 33.6 269.55 33.85 267.9 34.65 262.15 35.4 262.05 35.95 262.7 36.65 270.7 37.45 277.55 Q38.0 281.6 38.7 285.45 40.55 296.2 43.55 302.05 46.5 307.9 49.35 312.15 50.25 313.45 50.15 315.15 64.85 317.9 79.65 319.6 L80.05 318.1 80.3 315.8 80.3 313.35 Q70.8 311.1 62.85 306.05 60.4 304.55 58.9 305.15 57.1 303.1 56.15 303.2 L55.45 302.9 54.9 302.3 54.2 301.6 Q64.8 288.05 71.55 272.8 L72.45 270.7 Q79.95 252.85 82.05 233.85 L82.35 230.75 82.35 230.6 82.4 229.9 82.45 229.4 83.0 225.5 83.6 222.6 85.35 212.65 86.9 212.45 88.1 213.6 Q88.9 222.3 90.05 230.6 L91.4 239.35 Q92.6 246.35 94.05 253.1 96.05 262.35 98.65 269.55 101.3 276.8 104.5 281.9 110.9 292.05 117.05 299.45 119.35 302.15 118.65 305.6 L112.3 311.4 Q109.8 313.65 106.5 314.5 98.5 316.0 90.15 314.95 L91.65 320.85 129.4 322.45 Q131.1 314.55 131.85 306.3 L132.05 303.9 132.1 303.25 132.15 302.8 132.5 299.75 132.85 297.45 133.95 289.6 134.95 289.5 135.7 290.35 Q136.5 300.85 137.8 310.65 L139.5 321.45 139.65 322.35 146.5 322.15 179.0 319.7 Q182.8 312.55 185.55 304.9 190.5 290.9 191.8 275.95 L192.0 273.65 192.05 273.05 192.05 272.65 192.4 269.8 192.75 267.65 193.8 260.2 194.75 260.1 195.45 260.95 Q196.15 270.85 197.4 280.05 L199.0 290.25 Q201.4 304.05 205.25 311.65 L207.5 315.95 Q227.75 312.75 247.8 308.05 L249.0 305.9 Q256.0 293.35 260.85 279.7 268.8 257.25 270.9 233.2 L271.2 229.55 271.3 228.55 271.3 227.9 271.85 223.3 272.4 219.8 274.1 207.95 275.6 207.75 276.75 209.1 Q277.9 225.0 279.9 239.8 281.05 248.15 282.45 256.2 286.35 278.4 292.5 290.55 L294.7 294.8 Q314.8 288.05 334.5 279.6 L335.05 275.3 Q331.55 276.1 328.25 274.9 326.85 274.25 325.8 272.45 L323.2 267.85 Q322.85 265.05 323.85 262.95 326.4 257.05 329.1 248.95 331.75 240.8 333.45 225.95 L334.55 215.0 Q335.4 205.05 335.9 194.45 L336.4 193.55 337.05 193.65 Q337.35 197.7 337.8 201.6 L338.05 203.9 338.25 207.05 338.3 207.45 338.3 208.1 338.45 210.6 Q339.35 226.65 342.85 241.65 345.6 253.85 350.05 264.7 L349.75 265.2 349.55 265.7 349.25 265.9 Q348.85 265.85 348.1 267.5 347.45 267.0 346.45 268.2 343.1 272.2 339.2 274.05 L339.2 275.95 339.25 277.5 Q357.75 269.3 375.85 259.5 378.95 257.85 382.1 256.15 382.1 254.15 383.2 252.55 387.1 246.75 391.15 238.75 395.2 230.7 397.8 216.05 L399.45 205.25 Q400.75 195.45 401.55 184.95 L402.3 184.05 403.3 184.2 404.4 192.05 404.8 194.3 405.15 197.4 405.15 197.8 405.2 198.45 405.4 200.9 Q406.8 216.75 412.05 231.55 L414.8 238.55 436.95 226.55 451.6 218.65 453.4 217.7 Q458.7 210.75 462.4 203.1 468.25 190.9 469.85 177.85 L470.1 175.8 470.15 175.25 470.15 174.95 470.55 172.4 471.0 170.55 472.2 164.05 473.35 164.0 474.2 164.7 Q475.05 173.35 476.55 181.4 477.35 185.95 478.4 190.3 480.0 197.1 482.15 202.15 L484.3 201.0 Q505.0 189.8 526.4 181.1 528.1 173.35 528.8 165.35 L529.0 162.95 529.05 162.3 529.1 161.85 529.45 158.8 529.8 156.5 530.9 148.65 531.9 148.55 532.65 149.45 Q533.45 159.9 534.75 169.7 L535.9 177.4 Q550.55 171.85 565.55 167.45 570.65 158.5 574.15 148.65 579.4 133.85 580.8 118.0 L581.0 115.55 581.05 114.9 581.1 114.5 581.45 111.4 581.8 109.15 582.9 101.25 583.9 101.15 584.65 102.05 Q585.45 112.55 586.75 122.35 L588.45 133.15 Q591.0 147.8 595.05 155.8 L597.0 159.5 612.15 156.55 612.15 434.1 0.0 434.1 0.0 300.95 Z" fill="none" stroke="#000000" stroke-linecap="round" stroke-linejoin="round" stroke-opacity="0.0" stroke-width="0.0">
      <animate attributeName="stroke" dur="2s" repeatCount="indefinite" values="#000000;#000001"/>
      <animate attributeName="stroke-width" dur="2s" repeatCount="indefinite" values="0.0;0.0"/>
      <animate attributeName="fill-opacity" dur="2s" repeatCount="indefinite" values="0.0;0.0"/>
      <animate attributeName="d" dur="2s" repeatCount="indefinite" values="M0.0 300.95 Q11.1 305.65 22.85 309.0 26.0 303.15 28.25 296.8 32.1 286.0 33.1 274.4 L33.25 272.6 33.3 272.15 33.3 271.8 33.5 270.7 33.6 269.55 33.85 267.9 34.65 262.15 35.4 262.05 35.95 262.7 36.65 270.7 37.45 277.55 Q38.0 281.6 38.7 285.45 40.55 296.2 43.55 302.05 46.5 307.9 49.35 312.15 50.25 313.45 50.15 315.15 64.85 317.9 79.65 319.6 L80.05 318.1 80.3 315.8 80.3 313.35 Q70.8 311.1 62.85 306.05 60.4 304.55 58.9 305.15 57.1 303.1 56.15 303.2 L55.45 302.9 54.9 302.3 54.2 301.6 Q64.8 288.05 71.55 272.8 L72.45 270.7 Q79.95 252.85 82.05 233.85 L82.35 230.75 82.35 230.6 82.4 229.9 82.45 229.4 83.0 225.5 83.6 222.6 85.35 212.65 86.9 212.45 88.1 213.6 Q88.9 222.3 90.05 230.6 L91.4 239.35 Q92.6 246.35 94.05 253.1 96.05 262.35 98.65 269.55 101.3 276.8 104.5 281.9 110.9 292.05 117.05 299.45 119.35 302.15 118.65 305.6 L112.3 311.4 Q109.8 313.65 106.5 314.5 98.5 316.0 90.15 314.95 L91.65 320.85 129.4 322.45 Q131.1 314.55 131.85 306.3 L132.05 303.9 132.1 303.25 132.15 302.8 132.5 299.75 132.85 297.45 133.95 289.6 134.95 289.5 135.7 290.35 Q136.5 300.85 137.8 310.65 L139.5 321.45 139.65 322.35 146.5 322.15 179.0 319.7 Q182.8 312.55 185.55 304.9 190.5 290.9 191.8 275.95 L192.0 273.65 192.05 273.05 192.05 272.65 192.4 269.8 192.75 267.65 193.8 260.2 194.75 260.1 195.45 260.95 Q196.15 270.85 197.4 280.05 L199.0 290.25 Q201.4 304.05 205.25 311.65 L207.5 315.95 Q227.75 312.75 247.8 308.05 L249.0 305.9 Q256.0 293.35 260.85 279.7 268.8 257.25 270.9 233.2 L271.2 229.55 271.3 228.55 271.3 227.9 271.85 223.3 272.4 219.8 274.1 207.95 275.6 207.75 276.75 209.1 Q277.9 225.0 279.9 239.8 281.05 248.15 282.45 256.2 286.35 278.4 292.5 290.55 L294.7 294.8 Q314.8 288.05 334.5 279.6 L335.05 275.3 Q331.55 276.1 328.25 274.9 326.85 274.25 325.8 272.45 L323.2 267.85 Q322.85 265.05 323.85 262.95 326.4 257.05 329.1 248.95 331.75 240.8 333.45 225.95 L334.55 215.0 Q335.4 205.05 335.9 194.45 L336.4 193.55 337.05 193.65 Q337.35 197.7 337.8 201.6 L338.05 203.9 338.25 207.05 338.3 207.45 338.3 208.1 338.45 210.6 Q339.35 226.65 342.85 241.65 345.6 253.85 350.05 264.7 L349.75 265.2 349.55 265.7 349.25 265.9 Q348.85 265.85 348.1 267.5 347.45 267.0 346.45 268.2 343.1 272.2 339.2 274.05 L339.2 275.95 339.25 277.5 Q357.75 269.3 375.85 259.5 378.95 257.85 382.1 256.15 382.1 254.15 383.2 252.55 387.1 246.75 391.15 238.75 395.2 230.7 397.8 216.05 L399.45 205.25 Q400.75 195.45 401.55 184.95 L402.3 184.05 403.3 184.2 404.4 192.05 404.8 194.3 405.15 197.4 405.15 197.8 405.2 198.45 405.4 200.9 Q406.8 216.75 412.05 231.55 L414.8 238.55 436.95 226.55 451.6 218.65 453.4 217.7 Q458.7 210.75 462.4 203.1 468.25 190.9 469.85 177.85 L470.1 175.8 470.15 175.25 470.15 174.95 470.55 172.4 471.0 170.55 472.2 164.05 473.35 164.0 474.2 164.7 Q475.05 173.35 476.55 181.4 477.35 185.95 478.4 190.3 480.0 197.1 482.15 202.15 L484.3 201.0 Q505.0 189.8 526.4 181.1 528.1 173.35 528.8 165.35 L529.0 162.95 529.05 162.3 529.1 161.85 529.45 158.8 529.8 156.5 530.9 148.65 531.9 148.55 532.65 149.45 Q533.45 159.9 534.75 169.7 L535.9 177.4 Q550.55 171.85 565.55 167.45 570.65 158.5 574.15 148.65 579.4 133.85 580.8 118.0 L581.0 115.55 581.05 114.9 581.1 114.5 581.45 111.4 581.8 109.15 582.9 101.25 583.9 101.15 584.65 102.05 Q585.45 112.55 586.75 122.35 L588.45 133.15 Q591.0 147.8 595.05 155.8 L597.0 159.5 612.15 156.55 612.15 434.1 0.0 434.1 0.0 300.95 Z;M0.0 299.7 Q11.1 303.65 22.85 306.45 26.0 301.55 28.25 296.2 32.1 287.05 33.1 277.25 L33.25 275.75 33.3 275.35 33.3 275.1 33.5 274.15 33.6 273.2 33.85 271.8 34.65 266.95 35.4 266.85 35.95 267.4 36.65 274.15 37.45 279.95 Q38.0 283.35 38.7 286.6 40.55 295.65 43.55 300.6 46.5 305.55 49.35 309.15 50.25 310.25 50.15 311.65 64.85 314.0 79.65 315.45 L80.05 314.15 80.3 312.2 80.3 310.15 Q70.8 308.25 62.85 304.0 60.4 302.7 58.9 303.25 57.1 301.5 56.15 301.6 L55.45 301.35 54.9 300.85 54.2 300.25 Q64.8 288.8 71.55 275.95 L72.45 274.15 Q79.95 259.1 82.05 243.05 L82.35 240.4 82.35 240.3 82.4 239.7 82.45 239.3 83.0 236.0 83.6 233.55 85.35 225.1 86.9 225.0 88.1 225.95 Q88.9 233.3 90.05 240.3 L91.4 247.7 Q92.6 253.6 94.05 259.3 96.05 267.1 98.65 273.15 101.3 279.3 104.5 283.6 110.9 292.2 117.05 298.4 119.35 300.7 118.65 303.65 L112.3 308.5 Q109.8 310.4 106.5 311.1 98.5 312.4 90.15 311.5 L91.65 316.5 129.4 317.85 Q131.1 311.15 131.85 304.2 L132.05 302.15 132.1 301.6 132.15 301.25 132.5 298.65 132.85 296.75 133.95 290.1 134.95 290.0 135.7 290.75 Q136.5 299.6 137.8 307.9 L139.5 317.0 139.65 317.75 146.5 317.55 179.0 315.5 Q182.8 309.5 185.55 303.0 190.5 291.2 191.8 278.6 L192.0 276.65 192.05 276.15 192.05 275.8 192.4 273.35 192.75 271.55 193.8 265.3 194.75 265.2 195.45 265.9 Q196.15 274.25 197.4 282.05 L199.0 290.65 Q201.4 302.3 205.25 308.7 L207.5 312.35 Q227.75 309.65 247.8 305.65 L249.0 303.85 Q256.0 293.3 260.85 281.75 268.8 262.8 270.9 242.5 L271.2 239.4 271.3 238.55 271.3 238.05 271.85 234.1 272.4 231.2 274.1 221.15 275.6 221.0 276.75 222.15 Q277.9 235.55 279.9 248.1 281.05 255.1 282.45 261.9 286.35 280.65 292.5 290.9 L294.7 294.5 Q314.8 288.8 334.5 281.65 L335.05 278.0 Q331.65 277.85 328.25 277.7 326.85 277.15 325.8 275.65 L323.2 271.75 Q322.85 269.4 323.85 267.6 326.4 262.6 329.1 255.8 331.75 248.9 333.45 236.35 L334.55 227.1 Q335.4 218.75 335.9 209.75 L336.4 209.0 337.05 209.1 Q337.4 212.45 337.8 215.8 L338.05 217.75 338.25 220.4 338.3 220.75 338.3 221.3 338.45 223.4 Q339.35 236.95 342.85 249.65 345.6 259.9 350.05 269.05 L349.75 269.5 349.55 269.9 349.25 270.1 Q348.85 270.05 348.1 271.45 347.45 271.0 346.45 272.05 343.1 275.45 339.2 276.95 L339.2 278.6 339.25 279.9 Q357.75 272.95 375.85 264.7 378.95 263.3 382.1 261.85 382.1 260.2 383.2 258.8 387.1 253.9 391.15 247.15 395.2 240.4 397.8 228.0 L399.45 218.9 Q400.75 210.6 401.55 201.75 L402.3 201.0 403.3 201.1 404.4 207.75 404.8 209.65 405.15 212.25 405.15 212.6 405.2 213.15 405.4 215.2 Q406.8 228.6 412.05 241.1 L414.8 247.0 436.95 236.9 451.6 230.2 453.4 229.4 Q458.7 223.5 462.4 217.1 468.25 206.75 469.85 195.75 L470.1 194.05 470.15 193.6 470.15 193.3 470.55 191.15 471.0 189.6 472.2 184.1 473.35 184.05 474.2 184.65 Q475.05 191.95 476.55 198.75 477.35 202.6 478.4 206.3 480.0 212.0 482.15 216.3 L484.3 215.3 Q505.0 205.85 526.4 198.5 528.1 191.95 528.8 185.2 L529.0 183.15 529.05 182.6 529.1 182.25 529.45 179.65 529.8 177.75 530.9 171.1 531.9 171.0 532.65 171.75 Q533.45 180.6 534.75 188.9 L535.9 195.35 Q550.55 190.65 565.55 186.95 570.65 179.4 574.15 171.1 579.4 158.6 580.8 145.2 L581.0 143.15 581.05 142.6 581.1 142.25 581.45 139.65 581.8 137.75 582.9 131.1 583.9 131.0 584.65 131.75 Q585.45 140.6 586.75 148.9 L588.45 158.0 Q591.0 170.4 595.05 177.15 L597.0 180.25 612.15 177.75 612.15 412.1 0.0 412.1 0.0 299.7 Z"/>
    </path>
  </g>
</svg>
