<?xml version="1.0" encoding="UTF-8" standalone="no"?>
<svg xmlns:ffdec="https://www.free-decompiler.com/flash" xmlns:xlink="http://www.w3.org/1999/xlink" ffdec:objectType="morphshape" height="26.2px" width="26.25px" xmlns="http://www.w3.org/2000/svg">
  <g transform="matrix(1.0, 0.0, 0.0, 1.0, 0.0, 0.0)">
    <path d="M0.0 13.05 Q0.0 17.1 2.2 20.3 L3.3 21.65 3.1 21.5 3.8 22.25 3.85 22.3 3.95 22.4 4.4 22.85 4.6 23.0 5.55 23.75 5.85 23.95 7.45 24.9 Q10.05 26.2 13.2 26.2 18.6 26.2 22.4 22.4 26.25 18.55 26.25 13.15 26.25 10.4 25.25 8.05 L22.7 4.3 23.05 4.6 22.45 3.95 22.4 3.9 22.35 3.8 21.75 3.3 21.5 3.05 19.4 1.6 Q16.55 -0.05 13.05 0.0 7.65 -0.05 3.8 3.8 0.0 7.6 0.0 13.05" fill="#ffffff" fill-opacity="0.5019608" fill-rule="evenodd" stroke="none">
      <animate attributeName="fill" dur="2s" repeatCount="indefinite" values="#ffffff;#ffffff"/>
      <animate attributeName="fill-opacity" dur="2s" repeatCount="indefinite" values="0.5019608;0.03137255"/>
      <animate attributeName="d" dur="2s" repeatCount="indefinite" values="M0.0 13.05 Q0.0 17.1 2.2 20.3 L3.3 21.65 3.1 21.5 3.8 22.25 3.85 22.3 3.95 22.4 4.4 22.85 4.6 23.0 5.55 23.75 5.85 23.95 7.45 24.9 Q10.05 26.2 13.2 26.2 18.6 26.2 22.4 22.4 26.25 18.55 26.25 13.15 26.25 10.4 25.25 8.05 L22.7 4.3 23.05 4.6 22.45 3.95 22.4 3.9 22.35 3.8 21.75 3.3 21.5 3.05 19.4 1.6 Q16.55 -0.05 13.05 0.0 7.65 -0.05 3.8 3.8 0.0 7.6 0.0 13.05;M0.0 13.05 Q0.0 17.1 2.2 20.3 L3.3 21.65 3.1 21.5 3.8 22.25 3.85 22.3 3.95 22.4 4.4 22.85 4.6 23.0 5.55 23.75 5.85 23.95 7.45 24.9 Q10.05 26.2 13.2 26.2 18.6 26.2 22.4 22.4 26.25 18.55 26.25 13.15 26.25 10.4 25.25 8.05 L22.7 4.3 23.05 4.6 22.45 3.95 22.4 3.9 22.35 3.8 21.75 3.3 21.5 3.05 19.4 1.6 Q16.55 -0.05 13.05 0.0 7.65 -0.05 3.8 3.8 0.0 7.6 0.0 13.05"/>
    </path>
    <path d="M0.0 13.05 Q0.0 7.6 3.8 3.8 7.65 -0.05 13.05 0.0 16.55 -0.05 19.4 1.6 L21.5 3.05 21.75 3.3 22.35 3.8 22.4 3.9 22.45 3.95 23.05 4.6 22.7 4.3 25.25 8.05 Q26.25 10.4 26.25 13.15 26.25 18.55 22.4 22.4 18.6 26.2 13.2 26.2 10.05 26.2 7.45 24.9 L5.85 23.95 5.55 23.75 4.6 23.0 4.4 22.85 3.95 22.4 3.85 22.3 3.8 22.25 3.1 21.5 3.3 21.65 2.2 20.3 Q0.0 17.1 0.0 13.05 Z" fill="none" stroke="#000000" stroke-linecap="round" stroke-linejoin="round" stroke-opacity="0.0" stroke-width="0.0">
      <animate attributeName="stroke" dur="2s" repeatCount="indefinite" values="#000000;#000001"/>
      <animate attributeName="stroke-width" dur="2s" repeatCount="indefinite" values="0.0;0.0"/>
      <animate attributeName="fill-opacity" dur="2s" repeatCount="indefinite" values="0.0;0.0"/>
      <animate attributeName="d" dur="2s" repeatCount="indefinite" values="M0.0 13.05 Q0.0 7.6 3.8 3.8 7.65 -0.05 13.05 0.0 16.55 -0.05 19.4 1.6 L21.5 3.05 21.75 3.3 22.35 3.8 22.4 3.9 22.45 3.95 23.05 4.6 22.7 4.3 25.25 8.05 Q26.25 10.4 26.25 13.15 26.25 18.55 22.4 22.4 18.6 26.2 13.2 26.2 10.05 26.2 7.45 24.9 L5.85 23.95 5.55 23.75 4.6 23.0 4.4 22.85 3.95 22.4 3.85 22.3 3.8 22.25 3.1 21.5 3.3 21.65 2.2 20.3 Q0.0 17.1 0.0 13.05 Z;M0.0 13.05 Q0.0 7.6 3.8 3.8 7.65 -0.05 13.05 0.0 16.55 -0.05 19.4 1.6 L21.5 3.05 21.75 3.3 22.35 3.8 22.4 3.9 22.45 3.95 23.05 4.6 22.7 4.3 25.25 8.05 Q26.25 10.4 26.25 13.15 26.25 18.55 22.4 22.4 18.6 26.2 13.2 26.2 10.05 26.2 7.45 24.9 L5.85 23.95 5.55 23.75 4.6 23.0 4.4 22.85 3.95 22.4 3.85 22.3 3.8 22.25 3.1 21.5 3.3 21.65 2.2 20.3 Q0.0 17.1 0.0 13.05 Z"/>
    </path>
  </g>
</svg>
