<?xml version="1.0" encoding="UTF-8" standalone="no"?>
<svg xmlns:ffdec="https://www.free-decompiler.com/flash" xmlns:xlink="http://www.w3.org/1999/xlink" ffdec:objectType="morphshape" height="32.3px" width="60.9px" xmlns="http://www.w3.org/2000/svg">
  <g transform="matrix(1.0, 0.0, 0.0, 1.0, -53.3, -5.25)">
    <path d="M54.05 31.2 L54.05 31.2 57.25 32.1 57.95 32.4 62.4 34.25 64.5 35.05 Q70.7 36.9 77.25 37.4 L83.2 37.55 Q87.2 37.25 91.15 37.0 L91.45 37.0 Q96.85 36.25 102.0 34.75 L105.05 33.6 107.3 32.4 Q109.7 31.0 111.25 29.1 113.65 26.2 114.15 22.2 114.5 19.55 113.2 17.15 110.2 11.65 105.15 8.75 L105.05 8.65 Q103.9 7.95 102.6 7.4 101.05 6.8 99.55 6.25 97.8 5.85 96.1 5.5 L96.05 5.5 Q94.2 5.35 92.35 5.25 91.45 5.3 90.55 5.35 L88.85 5.85 Q87.85 6.3 86.9 6.75 L86.9 6.8 86.1 7.3 85.3 7.9 Q82.45 10.1 81.5 13.8 81.15 15.3 81.1 17.05 L81.1 18.5 Q81.25 22.4 83.1 25.4 L84.25 27.05 Q85.2 27.95 86.1 28.8 L86.9 29.3 86.9 29.3 87.6 29.65 Q89.45 30.65 91.45 30.6 L92.35 30.5 94.1 30.05 96.1 29.25 Q97.95 28.35 99.15 27.05 L100.1 25.8 Q100.85 24.45 101.0 22.75 101.0 22.05 101.0 21.4 100.9 19.15 99.7 17.65 L98.7 17.65 99.25 18.5 99.5 19.15 99.65 19.65 Q99.95 20.95 99.75 22.75 99.5 24.15 98.65 25.35 L97.15 27.05 96.05 28.0 96.05 28.0 Q95.2 28.6 94.35 29.2 L92.35 29.55 Q90.85 29.4 89.4 29.3 L87.65 28.6 87.6 28.55 86.95 28.2 86.95 28.15 86.8 28.05 86.1 27.55 Q84.25 25.95 83.25 23.55 82.65 22.05 82.35 20.25 81.95 18.15 82.15 16.25 L82.15 16.15 Q82.5 12.7 84.65 10.0 85.3 9.1 86.1 8.5 L86.95 7.95 86.95 7.9 87.8 7.5 Q88.6 7.2 89.4 6.95 90.9 6.65 92.35 6.4 94.25 6.2 96.05 6.45 L96.1 6.45 Q97.25 6.65 98.35 6.85 99.95 7.4 101.5 7.95 L102.6 8.5 104.0 9.2 104.1 9.2 105.05 9.7 Q112.3 13.9 112.4 20.35 112.45 21.85 112.1 23.45 110.8 29.45 105.05 32.5 L104.05 32.95 Q102.25 33.75 100.05 34.35 95.95 35.35 89.65 36.05 L89.45 36.05 86.0 36.3 81.5 36.35 77.25 36.1 76.1 35.95 73.1 35.6 71.15 35.3 64.5 33.8 62.35 32.8 Q58.55 31.15 54.8 29.55 L54.25 29.6 Q52.5 29.9 54.05 31.2" fill="#000000" fill-rule="evenodd" stroke="none">
      <animate attributeName="fill" dur="2s" repeatCount="indefinite" values="#000000;#000001"/>
      <animate attributeName="fill-opacity" dur="2s" repeatCount="indefinite" values="1.0;1.0"/>
      <animate attributeName="d" dur="2s" repeatCount="indefinite" values="M54.05 31.2 L54.05 31.2 57.25 32.1 57.95 32.4 62.4 34.25 64.5 35.05 Q70.7 36.9 77.25 37.4 L83.2 37.55 Q87.2 37.25 91.15 37.0 L91.45 37.0 Q96.85 36.25 102.0 34.75 L105.05 33.6 107.3 32.4 Q109.7 31.0 111.25 29.1 113.65 26.2 114.15 22.2 114.5 19.55 113.2 17.15 110.2 11.65 105.15 8.75 L105.05 8.65 Q103.9 7.95 102.6 7.4 101.05 6.8 99.55 6.25 97.8 5.85 96.1 5.5 L96.05 5.5 Q94.2 5.35 92.35 5.25 91.45 5.3 90.55 5.35 L88.85 5.85 Q87.85 6.3 86.9 6.75 L86.9 6.8 86.1 7.3 85.3 7.9 Q82.45 10.1 81.5 13.8 81.15 15.3 81.1 17.05 L81.1 18.5 Q81.25 22.4 83.1 25.4 L84.25 27.05 Q85.2 27.95 86.1 28.8 L86.9 29.3 86.9 29.3 87.6 29.65 Q89.45 30.65 91.45 30.6 L92.35 30.5 94.1 30.05 96.1 29.25 Q97.95 28.35 99.15 27.05 L100.1 25.8 Q100.85 24.45 101.0 22.75 101.0 22.05 101.0 21.4 100.9 19.15 99.7 17.65 L98.7 17.65 99.25 18.5 99.5 19.15 99.65 19.65 Q99.95 20.95 99.75 22.75 99.5 24.15 98.65 25.35 L97.15 27.05 96.05 28.0 96.05 28.0 Q95.2 28.6 94.35 29.2 L92.35 29.55 Q90.85 29.4 89.4 29.3 L87.65 28.6 87.6 28.55 86.95 28.2 86.95 28.15 86.8 28.05 86.1 27.55 Q84.25 25.95 83.25 23.55 82.65 22.05 82.35 20.25 81.95 18.15 82.15 16.25 L82.15 16.15 Q82.5 12.7 84.65 10.0 85.3 9.1 86.1 8.5 L86.95 7.95 86.95 7.9 87.8 7.5 Q88.6 7.2 89.4 6.95 90.9 6.65 92.35 6.4 94.25 6.2 96.05 6.45 L96.1 6.45 Q97.25 6.65 98.35 6.85 99.95 7.4 101.5 7.95 L102.6 8.5 104.0 9.2 104.1 9.2 105.05 9.7 Q112.3 13.9 112.4 20.35 112.45 21.85 112.1 23.45 110.8 29.45 105.05 32.5 L104.05 32.95 Q102.25 33.75 100.05 34.35 95.95 35.35 89.65 36.05 L89.45 36.05 86.0 36.3 81.5 36.35 77.25 36.1 76.1 35.95 73.1 35.6 71.15 35.3 64.5 33.8 62.35 32.8 Q58.55 31.15 54.8 29.55 L54.25 29.6 Q52.5 29.9 54.05 31.2;M53.9 31.2 L54.1 31.3 56.95 32.4 57.65 32.8 62.15 35.05 64.25 35.75 Q70.5 37.7 77.25 37.55 L83.3 37.0 Q87.5 36.35 91.55 34.85 L91.85 34.75 Q97.6 32.55 99.95 27.8 L101.0 24.9 101.5 22.2 Q101.75 19.55 100.75 17.15 99.05 13.3 96.6 10.7 94.7 8.65 92.25 7.35 87.35 4.8 80.55 5.35 L80.55 5.35 Q79.1 5.8 77.65 6.25 75.95 6.9 74.4 7.9 72.85 8.85 71.7 10.1 L71.7 10.1 Q70.3 11.65 69.65 13.6 69.35 14.45 69.2 15.4 L69.05 17.05 Q69.0 18.15 69.1 19.15 L69.1 19.15 69.2 19.95 69.35 20.75 Q70.15 24.3 73.1 27.05 74.45 28.05 75.8 29.0 L77.25 29.65 Q80.5 31.3 84.3 30.05 L86.25 29.25 Q87.75 28.5 88.75 27.5 L89.3 26.9 89.3 26.9 89.7 26.35 Q90.7 24.8 90.85 22.75 L90.9 21.85 90.7 20.0 89.9 18.05 Q88.95 16.5 87.05 15.6 L85.65 15.1 Q84.1 15.05 82.55 15.05 81.9 15.25 81.3 15.6 79.1 16.85 79.45 18.95 L79.75 19.85 80.2 20.75 80.85 20.7 81.1 20.25 Q79.9 18.1 80.9 17.05 81.6 16.3 83.55 16.1 L86.1 16.15 87.45 16.6 87.45 16.6 Q88.45 17.1 89.0 18.05 L89.65 19.8 Q89.9 21.05 89.75 22.75 L89.1 24.7 89.1 24.7 88.85 25.2 88.85 25.2 88.75 25.35 88.35 25.85 Q86.8 27.85 84.55 29.2 82.85 29.4 81.2 29.55 79.15 29.45 77.3 28.6 L77.25 28.55 Q73.95 26.95 72.25 24.15 71.6 23.15 71.2 22.0 L70.9 21.1 70.9 21.0 70.7 20.25 Q70.5 19.3 70.45 18.4 70.3 16.85 70.6 15.45 70.95 13.65 72.0 12.0 L72.0 12.0 Q72.65 10.95 73.6 10.0 74.85 8.7 76.5 7.9 L77.85 7.35 79.3 6.95 79.4 6.95 80.3 6.75 Q87.5 5.2 93.5 9.2 94.85 10.3 96.2 11.35 100.7 15.75 100.05 22.25 L99.9 23.45 Q99.5 25.85 98.5 27.75 96.1 32.5 90.35 34.35 L90.25 34.35 86.65 35.25 81.9 36.05 77.45 36.35 76.3 36.35 73.35 36.2 71.35 35.95 64.6 34.55 62.15 33.8 Q59.0 31.9 54.95 29.85 L54.45 29.55 Q52.5 29.75 53.9 31.2"/>
    </path>
    <path d="M54.05 31.2 Q52.5 29.9 54.25 29.6 L54.8 29.55 Q58.55 31.15 62.35 32.8 L64.5 33.8 71.15 35.3 73.1 35.6 76.1 35.95 77.25 36.1 81.5 36.35 86.0 36.3 89.45 36.05 89.65 36.05 Q95.95 35.35 100.05 34.35 102.25 33.75 104.05 32.95 L105.05 32.5 Q110.8 29.45 112.1 23.45 112.45 21.85 112.4 20.35 112.3 13.9 105.05 9.7 L104.1 9.2 104.0 9.2 102.6 8.5 101.5 7.95 Q99.95 7.4 98.35 6.85 97.25 6.65 96.1 6.45 L96.05 6.45 Q94.25 6.2 92.35 6.4 90.9 6.65 89.4 6.95 88.6 7.2 87.8 7.5 L86.95 7.9 86.95 7.95 86.1 8.5 Q85.3 9.1 84.65 10.0 82.5 12.7 82.15 16.15 L82.15 16.25 Q81.95 18.15 82.35 20.25 82.65 22.05 83.25 23.55 84.25 25.95 86.1 27.55 L86.8 28.05 86.95 28.15 86.95 28.2 87.6 28.55 87.65 28.6 89.4 29.3 Q90.85 29.4 92.35 29.55 L94.35 29.2 Q95.2 28.6 96.05 28.0 L96.05 28.0 97.15 27.05 98.65 25.35 Q99.5 24.15 99.75 22.75 99.95 20.95 99.65 19.65 L99.5 19.15 99.25 18.5 98.7 17.65 99.7 17.65 Q100.9 19.15 101.0 21.4 101.0 22.05 101.0 22.75 100.85 24.45 100.1 25.8 L99.15 27.05 Q97.95 28.35 96.1 29.25 L94.1 30.05 92.35 30.5 91.45 30.6 Q89.45 30.65 87.6 29.65 L86.9 29.3 86.9 29.3 86.1 28.8 Q85.2 27.95 84.25 27.05 L83.1 25.4 Q81.25 22.4 81.1 18.5 L81.1 17.05 Q81.15 15.3 81.5 13.8 82.45 10.1 85.3 7.9 L86.1 7.3 86.9 6.8 86.9 6.75 Q87.85 6.3 88.85 5.85 L90.55 5.35 Q91.45 5.3 92.35 5.25 94.2 5.35 96.05 5.5 L96.1 5.5 Q97.8 5.85 99.55 6.25 101.05 6.8 102.6 7.4 103.9 7.95 105.05 8.65 L105.15 8.75 Q110.2 11.65 113.2 17.15 114.5 19.55 114.15 22.2 113.65 26.2 111.25 29.1 109.7 31.0 107.3 32.4 L105.05 33.6 102.0 34.75 Q96.85 36.25 91.45 37.0 L91.15 37.0 Q87.2 37.25 83.2 37.55 L77.25 37.4 Q70.7 36.9 64.5 35.05 L62.4 34.25 57.95 32.4 57.25 32.1 54.05 31.2 54.05 31.2 Z" fill="none" stroke="#000000" stroke-linecap="round" stroke-linejoin="round" stroke-opacity="0.0" stroke-width="0.0">
      <animate attributeName="stroke" dur="2s" repeatCount="indefinite" values="#000000;#000001"/>
      <animate attributeName="stroke-width" dur="2s" repeatCount="indefinite" values="0.0;0.0"/>
      <animate attributeName="fill-opacity" dur="2s" repeatCount="indefinite" values="0.0;0.0"/>
      <animate attributeName="d" dur="2s" repeatCount="indefinite" values="M54.05 31.2 Q52.5 29.9 54.25 29.6 L54.8 29.55 Q58.55 31.15 62.35 32.8 L64.5 33.8 71.15 35.3 73.1 35.6 76.1 35.95 77.25 36.1 81.5 36.35 86.0 36.3 89.45 36.05 89.65 36.05 Q95.95 35.35 100.05 34.35 102.25 33.75 104.05 32.95 L105.05 32.5 Q110.8 29.45 112.1 23.45 112.45 21.85 112.4 20.35 112.3 13.9 105.05 9.7 L104.1 9.2 104.0 9.2 102.6 8.5 101.5 7.95 Q99.95 7.4 98.35 6.85 97.25 6.65 96.1 6.45 L96.05 6.45 Q94.25 6.2 92.35 6.4 90.9 6.65 89.4 6.95 88.6 7.2 87.8 7.5 L86.95 7.9 86.95 7.95 86.1 8.5 Q85.3 9.1 84.65 10.0 82.5 12.7 82.15 16.15 L82.15 16.25 Q81.95 18.15 82.35 20.25 82.65 22.05 83.25 23.55 84.25 25.95 86.1 27.55 L86.8 28.05 86.95 28.15 86.95 28.2 87.6 28.55 87.65 28.6 89.4 29.3 Q90.85 29.4 92.35 29.55 L94.35 29.2 Q95.2 28.6 96.05 28.0 L96.05 28.0 97.15 27.05 98.65 25.35 Q99.5 24.15 99.75 22.75 99.95 20.95 99.65 19.65 L99.5 19.15 99.25 18.5 98.7 17.65 99.7 17.65 Q100.9 19.15 101.0 21.4 101.0 22.05 101.0 22.75 100.85 24.45 100.1 25.8 L99.15 27.05 Q97.95 28.35 96.1 29.25 L94.1 30.05 92.35 30.5 91.45 30.6 Q89.45 30.65 87.6 29.65 L86.9 29.3 86.9 29.3 86.1 28.8 Q85.2 27.95 84.25 27.05 L83.1 25.4 Q81.25 22.4 81.1 18.5 L81.1 17.05 Q81.15 15.3 81.5 13.8 82.45 10.1 85.3 7.9 L86.1 7.3 86.9 6.8 86.9 6.75 Q87.85 6.3 88.85 5.85 L90.55 5.35 Q91.45 5.3 92.35 5.25 94.2 5.35 96.05 5.5 L96.1 5.5 Q97.8 5.85 99.55 6.25 101.05 6.8 102.6 7.4 103.9 7.95 105.05 8.65 L105.15 8.75 Q110.2 11.65 113.2 17.15 114.5 19.55 114.15 22.2 113.65 26.2 111.25 29.1 109.7 31.0 107.3 32.4 L105.05 33.6 102.0 34.75 Q96.85 36.25 91.45 37.0 L91.15 37.0 Q87.2 37.25 83.2 37.55 L77.25 37.4 Q70.7 36.9 64.5 35.05 L62.4 34.25 57.95 32.4 57.25 32.1 54.05 31.2 54.05 31.2 Z;M53.9 31.2 Q52.5 29.75 54.45 29.55 L54.95 29.85 Q59.0 31.9 62.15 33.8 L64.6 34.55 71.35 35.95 73.35 36.2 76.3 36.35 77.45 36.35 81.9 36.05 86.65 35.25 90.25 34.35 90.35 34.35 Q96.1 32.5 98.5 27.75 99.5 25.85 99.9 23.45 L100.05 22.25 Q100.7 15.75 96.2 11.35 94.85 10.3 93.5 9.2 87.5 5.2 80.3 6.75 L79.4 6.95 79.3 6.95 77.85 7.35 76.5 7.9 Q74.85 8.7 73.6 10.0 72.65 10.95 72.0 12.0 L72.0 12.0 Q70.95 13.65 70.6 15.45 70.3 16.85 70.45 18.4 70.5 19.3 70.7 20.25 L70.9 21.0 70.9 21.1 71.2 22.0 Q71.6 23.15 72.25 24.15 73.95 26.95 77.25 28.55 L77.3 28.6 Q79.15 29.45 81.2 29.55 82.85 29.4 84.55 29.2 86.8 27.85 88.35 25.85 L88.75 25.35 88.85 25.2 88.85 25.2 89.1 24.7 89.1 24.7 89.75 22.75 Q89.9 21.05 89.65 19.8 L89.0 18.05 Q88.45 17.1 87.45 16.6 L87.45 16.6 86.1 16.15 83.55 16.1 Q81.6 16.3 80.9 17.05 79.9 18.1 81.1 20.25 L80.85 20.7 80.2 20.75 79.75 19.85 79.45 18.95 Q79.1 16.85 81.3 15.6 81.9 15.25 82.55 15.05 84.1 15.05 85.65 15.1 L87.05 15.6 Q88.95 16.5 89.9 18.05 L90.7 20.0 90.9 21.85 90.85 22.75 Q90.7 24.8 89.7 26.35 L89.3 26.9 89.3 26.9 88.75 27.5 Q87.75 28.5 86.25 29.25 L84.3 30.05 Q80.5 31.3 77.25 29.65 L75.8 29.0 Q74.45 28.05 73.1 27.05 70.15 24.3 69.35 20.75 L69.2 19.95 69.1 19.15 69.1 19.15 Q69.0 18.15 69.05 17.05 L69.2 15.4 Q69.35 14.45 69.65 13.6 70.3 11.65 71.7 10.1 L71.7 10.1 Q72.85 8.85 74.4 7.9 75.95 6.9 77.65 6.25 79.1 5.8 80.55 5.35 L80.55 5.35 Q87.35 4.8 92.25 7.35 94.7 8.65 96.6 10.7 99.05 13.3 100.75 17.15 101.75 19.55 101.5 22.2 L101.0 24.9 99.95 27.8 Q97.6 32.55 91.85 34.75 L91.55 34.85 Q87.5 36.35 83.3 37.0 L77.25 37.55 Q70.5 37.7 64.25 35.75 L62.15 35.05 57.65 32.8 56.95 32.4 54.1 31.3 53.9 31.2 Z"/>
    </path>
  </g>
</svg>
