<?xml version="1.0" encoding="UTF-8" standalone="no"?>
<svg xmlns:ffdec="https://www.free-decompiler.com/flash" xmlns:xlink="http://www.w3.org/1999/xlink" ffdec:objectType="morphshape" height="32.3px" width="52.1px" xmlns="http://www.w3.org/2000/svg">
  <g transform="matrix(1.0, 0.0, 0.0, 1.0, -1.2, -5.25)">
    <path d="M1.25 22.2 Q2.25 31.35 11.7 34.75 16.2 36.3 20.95 37.0 33.0 38.75 43.75 35.05 L49.35 32.4 Q50.2 31.9 52.7 31.2 54.15 29.75 52.05 29.55 47.35 31.8 43.75 33.8 39.7 35.15 33.85 35.95 27.95 36.75 22.45 36.05 16.9 35.35 13.35 34.35 4.55 31.75 3.0 23.45 1.3 14.4 9.9 9.2 16.8 4.95 25.25 6.95 L28.25 7.9 Q30.05 8.7 31.4 10.0 35.9 14.25 34.55 20.25 33.2 26.0 27.45 28.55 L27.4 28.6 Q23.8 30.15 19.55 29.2 16.8 27.7 15.05 25.35 14.2 24.15 14.0 22.75 13.25 15.35 20.75 16.1 25.55 16.55 23.3 20.25 L23.6 20.7 24.25 20.75 Q26.35 17.35 23.1 15.6 20.9 14.4 18.4 15.1 12.25 16.75 12.75 22.75 13.25 28.1 19.85 30.05 23.9 31.3 27.45 29.65 30.0 28.75 31.95 27.05 36.65 23.0 36.35 17.05 36.0 11.0 30.55 7.9 27.45 6.1 23.9 5.35 8.15 4.15 2.1 17.15 0.95 19.55 1.25 22.2" fill="#000000" fill-rule="evenodd" stroke="none">
      <animate attributeName="fill" dur="2s" repeatCount="indefinite" values="#000000;#000001"/>
      <animate attributeName="fill-opacity" dur="2s" repeatCount="indefinite" values="1.0;1.0"/>
      <animate attributeName="d" dur="2s" repeatCount="indefinite" values="M1.25 22.2 Q2.25 31.35 11.7 34.75 16.2 36.3 20.95 37.0 33.0 38.75 43.75 35.05 L49.35 32.4 Q50.2 31.9 52.7 31.2 54.15 29.75 52.05 29.55 47.35 31.8 43.75 33.8 39.7 35.15 33.85 35.95 27.95 36.75 22.45 36.05 16.9 35.35 13.35 34.35 4.55 31.75 3.0 23.45 1.3 14.4 9.9 9.2 16.8 4.95 25.25 6.95 L28.25 7.9 Q30.05 8.7 31.4 10.0 35.9 14.25 34.55 20.25 33.2 26.0 27.45 28.55 L27.4 28.6 Q23.8 30.15 19.55 29.2 16.8 27.7 15.05 25.35 14.2 24.15 14.0 22.75 13.25 15.35 20.75 16.1 25.55 16.55 23.3 20.25 L23.6 20.7 24.25 20.75 Q26.35 17.35 23.1 15.6 20.9 14.4 18.4 15.1 12.25 16.75 12.75 22.75 13.25 28.1 19.85 30.05 23.9 31.3 27.45 29.65 30.0 28.75 31.95 27.05 36.65 23.0 36.35 17.05 36.0 11.0 30.55 7.9 27.45 6.1 23.9 5.35 8.15 4.15 2.1 17.15 0.95 19.55 1.25 22.2;M1.25 22.2 Q2.25 31.35 11.7 34.75 16.2 36.3 20.95 37.0 33.0 38.75 43.75 35.05 L49.35 32.4 Q50.2 31.9 52.7 31.2 54.15 29.75 52.05 29.55 47.35 31.8 43.75 33.8 39.7 35.15 33.85 35.95 27.95 36.75 22.45 36.05 16.9 35.35 13.35 34.35 4.55 31.75 3.0 23.45 1.3 14.4 9.9 9.2 16.8 4.95 25.25 6.95 L28.25 7.9 Q30.05 8.7 31.4 10.0 35.9 14.25 34.55 20.25 33.2 26.0 27.45 28.55 L27.4 28.6 Q23.8 30.15 19.55 29.2 16.8 27.7 15.05 25.35 14.2 24.15 14.0 22.75 13.25 15.35 20.75 16.1 25.55 16.55 23.3 20.25 L23.6 20.7 24.25 20.75 Q26.35 17.35 23.1 15.6 20.9 14.4 18.4 15.1 12.25 16.75 12.75 22.75 13.25 28.1 19.85 30.05 23.9 31.3 27.45 29.65 30.0 28.75 31.95 27.05 36.65 23.0 36.35 17.05 36.0 11.0 30.55 7.9 27.45 6.1 23.9 5.35 8.15 4.15 2.1 17.15 0.95 19.55 1.25 22.2"/>
    </path>
    <path d="M1.25 22.2 Q0.95 19.55 2.1 17.15 8.15 4.15 23.9 5.35 27.45 6.1 30.55 7.9 36.0 11.0 36.35 17.05 36.65 23.0 31.95 27.05 30.0 28.75 27.45 29.65 23.9 31.3 19.85 30.05 13.25 28.1 12.75 22.75 12.25 16.75 18.4 15.1 20.9 14.4 23.1 15.6 26.35 17.35 24.25 20.75 L23.6 20.7 23.3 20.25 Q25.55 16.55 20.75 16.1 13.25 15.35 14.0 22.75 14.2 24.15 15.05 25.35 16.8 27.7 19.55 29.2 23.8 30.15 27.4 28.6 L27.45 28.55 Q33.2 26.0 34.55 20.25 35.9 14.25 31.4 10.0 30.05 8.7 28.25 7.9 L25.25 6.95 Q16.8 4.95 9.9 9.2 1.3 14.4 3.0 23.45 4.55 31.75 13.35 34.35 16.9 35.35 22.45 36.05 27.95 36.75 33.85 35.95 39.7 35.15 43.75 33.8 47.35 31.8 52.05 29.55 54.15 29.75 52.7 31.2 50.2 31.9 49.35 32.4 L43.75 35.05 Q33.0 38.75 20.95 37.0 16.2 36.3 11.7 34.75 2.25 31.35 1.25 22.2 Z" fill="none" stroke="#000000" stroke-linecap="round" stroke-linejoin="round" stroke-opacity="0.0" stroke-width="0.0">
      <animate attributeName="stroke" dur="2s" repeatCount="indefinite" values="#000000;#000001"/>
      <animate attributeName="stroke-width" dur="2s" repeatCount="indefinite" values="0.0;0.0"/>
      <animate attributeName="fill-opacity" dur="2s" repeatCount="indefinite" values="0.0;0.0"/>
      <animate attributeName="d" dur="2s" repeatCount="indefinite" values="M1.25 22.2 Q0.95 19.55 2.1 17.15 8.15 4.15 23.9 5.35 27.45 6.1 30.55 7.9 36.0 11.0 36.35 17.05 36.65 23.0 31.95 27.05 30.0 28.75 27.45 29.65 23.9 31.3 19.85 30.05 13.25 28.1 12.75 22.75 12.25 16.75 18.4 15.1 20.9 14.4 23.1 15.6 26.35 17.35 24.25 20.75 L23.6 20.7 23.3 20.25 Q25.55 16.55 20.75 16.1 13.25 15.35 14.0 22.75 14.2 24.15 15.05 25.35 16.8 27.7 19.55 29.2 23.8 30.15 27.4 28.6 L27.45 28.55 Q33.2 26.0 34.55 20.25 35.9 14.25 31.4 10.0 30.05 8.7 28.25 7.9 L25.25 6.95 Q16.8 4.95 9.9 9.2 1.3 14.4 3.0 23.45 4.55 31.75 13.35 34.35 16.9 35.35 22.45 36.05 27.95 36.75 33.85 35.95 39.7 35.15 43.75 33.8 47.35 31.8 52.05 29.55 54.15 29.75 52.7 31.2 50.2 31.9 49.35 32.4 L43.75 35.05 Q33.0 38.75 20.95 37.0 16.2 36.3 11.7 34.75 2.25 31.35 1.25 22.2 Z;M1.25 22.2 Q0.95 19.55 2.1 17.15 8.15 4.15 23.9 5.35 27.45 6.1 30.55 7.9 36.0 11.0 36.35 17.05 36.65 23.0 31.95 27.05 30.0 28.75 27.45 29.65 23.9 31.3 19.85 30.05 13.25 28.1 12.75 22.75 12.25 16.75 18.4 15.1 20.9 14.4 23.1 15.6 26.35 17.35 24.25 20.75 L23.6 20.7 23.3 20.25 Q25.55 16.55 20.75 16.1 13.25 15.35 14.0 22.75 14.2 24.15 15.05 25.35 16.8 27.7 19.55 29.2 23.8 30.15 27.4 28.6 L27.45 28.55 Q33.2 26.0 34.55 20.25 35.9 14.25 31.4 10.0 30.05 8.7 28.25 7.9 L25.25 6.95 Q16.8 4.95 9.9 9.2 1.3 14.4 3.0 23.45 4.55 31.75 13.35 34.35 16.9 35.35 22.45 36.05 27.95 36.75 33.85 35.95 39.7 35.15 43.75 33.8 47.35 31.8 52.05 29.55 54.15 29.75 52.7 31.2 50.2 31.9 49.35 32.4 L43.75 35.05 Q33.0 38.75 20.95 37.0 16.2 36.3 11.7 34.75 2.25 31.35 1.25 22.2 Z"/>
    </path>
  </g>
</svg>
