<?xml version="1.0" encoding="UTF-8" standalone="no"?>
<svg xmlns:ffdec="https://www.free-decompiler.com/flash" xmlns:xlink="http://www.w3.org/1999/xlink" ffdec:objectType="morphshape" height="38.65px" width="38.7px" xmlns="http://www.w3.org/2000/svg">
  <g transform="matrix(1.0, 0.0, 0.0, 1.0, 19.15, 20.15)">
    <path d="M-5.1 -1.1 Q-5.1 0.95 -3.65 2.4 -2.15 3.9 -0.1 3.9 1.95 3.9 3.4 2.4 4.9 0.95 4.9 -1.1 4.9 -3.15 3.4 -4.65 1.95 -6.1 -0.1 -6.1 -2.15 -6.1 -3.65 -4.65 -5.1 -3.15 -5.1 -1.1" fill="#d5eaff" fill-rule="evenodd" stroke="none">
      <animate attributeName="fill" dur="2s" repeatCount="indefinite" values="#d5eaff;#d5eaff"/>
      <animate attributeName="fill-opacity" dur="2s" repeatCount="indefinite" values="1.0;0.0"/>
      <animate attributeName="d" dur="2s" repeatCount="indefinite" values="M-5.1 -1.1 Q-5.1 0.95 -3.65 2.4 -2.15 3.9 -0.1 3.9 1.95 3.9 3.4 2.4 4.9 0.95 4.9 -1.1 4.9 -3.15 3.4 -4.65 1.95 -6.1 -0.1 -6.1 -2.15 -6.1 -3.65 -4.65 -5.1 -3.15 -5.1 -1.1;M-19.15 -0.8 Q-19.15 7.1 -13.55 12.7 -7.75 18.5 0.2 18.5 8.1 18.5 13.75 12.7 19.55 7.1 19.55 -0.8 19.55 -8.75 13.75 -14.55 8.1 -20.2 0.2 -20.15 -7.75 -20.2 -13.55 -14.55 -19.15 -8.75 -19.15 -0.8"/>
    </path>
    <path d="M-5.1 -1.1 Q-5.1 -3.15 -3.65 -4.65 -2.15 -6.1 -0.1 -6.1 1.95 -6.1 3.4 -4.65 4.9 -3.15 4.9 -1.1 4.9 0.95 3.4 2.4 1.95 3.9 -0.1 3.9 -2.15 3.9 -3.65 2.4 -5.1 0.95 -5.1 -1.1 Z" fill="none" stroke="#000000" stroke-linecap="round" stroke-linejoin="round" stroke-opacity="0.0" stroke-width="0.0">
      <animate attributeName="stroke" dur="2s" repeatCount="indefinite" values="#000000;#000001"/>
      <animate attributeName="stroke-width" dur="2s" repeatCount="indefinite" values="0.0;0.0"/>
      <animate attributeName="fill-opacity" dur="2s" repeatCount="indefinite" values="0.0;0.0"/>
      <animate attributeName="d" dur="2s" repeatCount="indefinite" values="M-5.1 -1.1 Q-5.1 -3.15 -3.65 -4.65 -2.15 -6.1 -0.1 -6.1 1.95 -6.1 3.4 -4.65 4.9 -3.15 4.9 -1.1 4.9 0.95 3.4 2.4 1.95 3.9 -0.1 3.9 -2.15 3.9 -3.65 2.4 -5.1 0.95 -5.1 -1.1 Z;M-19.15 -0.8 Q-19.15 -8.75 -13.55 -14.55 -7.75 -20.2 0.2 -20.15 8.1 -20.2 13.75 -14.55 19.55 -8.75 19.55 -0.8 19.55 7.1 13.75 12.7 8.1 18.5 0.2 18.5 -7.75 18.5 -13.55 12.7 -19.15 7.1 -19.15 -0.8 Z"/>
    </path>
  </g>
</svg>
