<?xml version="1.0" encoding="UTF-8" standalone="no"?>
<svg xmlns:ffdec="https://www.free-decompiler.com/flash" xmlns:xlink="http://www.w3.org/1999/xlink" ffdec:objectType="morphshape" height="17.3px" width="19.05px" xmlns="http://www.w3.org/2000/svg">
  <g transform="matrix(1.0, 0.0, 0.0, 1.0, 1.7, 13.2)">
    <path d="M-1.2 0.25 Q-1.2 1.05 -0.8 1.65 2.0 4.95 6.0 2.65 L6.6 1.65 7.1 0.75 7.1 0.25 6.9 -0.65 6.4 -1.65 6.0 -2.15 5.2 -2.45 0.0 -2.15 Q-1.2 -1.15 -1.2 0.25" fill="#ffffff" fill-rule="evenodd" stroke="none">
      <animate attributeName="fill" dur="2s" repeatCount="indefinite" values="#ffffff;#ffffff"/>
      <animate attributeName="fill-opacity" dur="2s" repeatCount="indefinite" values="1.0;1.0"/>
      <animate attributeName="d" dur="2s" repeatCount="indefinite" values="M-1.2 0.25 Q-1.2 1.05 -0.8 1.65 2.0 4.95 6.0 2.65 L6.6 1.65 7.1 0.75 7.1 0.25 6.9 -0.65 6.4 -1.65 6.0 -2.15 5.2 -2.45 0.0 -2.15 Q-1.2 -1.15 -1.2 0.25;M12.7 -11.3 Q12.8 -10.95 12.9 -10.6 14.3 -8.95 16.3 -10.1 L16.6 -10.6 16.85 -11.05 16.85 -11.3 16.75 -11.75 16.5 -12.25 16.3 -12.5 15.9 -12.65 13.3 -12.5 Q12.7 -12.0 12.7 -11.3"/>
    </path>
    <path d="M-1.2 0.25 Q-1.2 -1.15 0.0 -2.15 L5.2 -2.45 6.0 -2.15 6.4 -1.65 6.9 -0.65 7.1 0.25 7.1 0.75 6.6 1.65 6.0 2.65 Q2.0 4.95 -0.8 1.65 -1.2 1.05 -1.2 0.25 -1.2 -1.15 0.0 -2.15 L5.2 -2.45 6.0 -2.15 6.4 -1.65 6.9 -0.65 7.1 0.25 7.1 0.75 6.6 1.65 6.0 2.65 Q2.0 4.95 -0.8 1.65 -1.2 1.05 -1.2 0.25 Z" fill="none" stroke="#000000" stroke-linecap="round" stroke-linejoin="round" stroke-width="1.0">
      <animate attributeName="stroke" dur="2s" repeatCount="indefinite" values="#000000;#000001"/>
      <animate attributeName="stroke-width" dur="2s" repeatCount="indefinite" values="1.0;1.0"/>
      <animate attributeName="fill-opacity" dur="2s" repeatCount="indefinite" values="1.0;1.0"/>
      <animate attributeName="d" dur="2s" repeatCount="indefinite" values="M-1.2 0.25 Q-1.2 -1.15 0.0 -2.15 L5.2 -2.45 6.0 -2.15 6.4 -1.65 6.9 -0.65 7.1 0.25 7.1 0.75 6.6 1.65 6.0 2.65 Q2.0 4.95 -0.8 1.65 -1.2 1.05 -1.2 0.25 -1.2 -1.15 0.0 -2.15 L5.2 -2.45 6.0 -2.15 6.4 -1.65 6.9 -0.65 7.1 0.25 7.1 0.75 6.6 1.65 6.0 2.65 Q2.0 4.95 -0.8 1.65 -1.2 1.05 -1.2 0.25 Z;M12.7 -11.3 Q12.7 -12.0 13.3 -12.5 L15.9 -12.65 16.3 -12.5 16.5 -12.25 16.75 -11.75 16.85 -11.3 16.85 -11.05 16.6 -10.6 16.3 -10.1 Q14.3 -8.95 12.9 -10.6 12.8 -10.95 12.7 -11.3 12.7 -12.0 13.3 -12.5 L15.9 -12.65 16.3 -12.5 16.5 -12.25 16.75 -11.75 16.85 -11.3 16.85 -11.05 16.6 -10.6 16.3 -10.1 Q14.3 -8.95 12.9 -10.6 12.8 -10.95 12.7 -11.3 Z"/>
    </path>
  </g>
</svg>
