<?xml version="1.0" encoding="UTF-8" standalone="no"?>
<svg xmlns:ffdec="https://www.free-decompiler.com/flash" xmlns:xlink="http://www.w3.org/1999/xlink" ffdec:objectType="morphshape" height="8.05px" width="12.85px" xmlns="http://www.w3.org/2000/svg">
  <g transform="matrix(1.0, 0.0, 0.0, 1.0, 0.75, 2.55)">
    <path d="M-0.1 -0.75 Q-0.4 0.45 -0.1 1.65 2.2 3.55 4.5 1.65 5.0 0.75 4.9 -0.35 4.8 -1.15 4.0 -1.75 L1.3 -2.05 Q0.1 -1.95 -0.1 -0.75" fill="#ffffff" fill-rule="evenodd" stroke="none">
      <animate attributeName="fill" dur="2s" repeatCount="indefinite" values="#ffffff;#ffffff"/>
      <animate attributeName="fill-opacity" dur="2s" repeatCount="indefinite" values="1.0;1.0"/>
      <animate attributeName="d" dur="2s" repeatCount="indefinite" values="M-0.1 -0.75 Q-0.4 0.45 -0.1 1.65 2.2 3.55 4.5 1.65 5.0 0.75 4.9 -0.35 4.8 -1.15 4.0 -1.75 L1.3 -2.05 Q0.1 -1.95 -0.1 -0.75;M9.1 3.35 Q8.95 3.95 9.1 4.55 10.25 5.5 11.4 4.55 11.5 4.05 11.6 3.55 11.55 3.15 11.15 2.85 L9.8 2.7 Q9.2 2.75 9.1 3.35"/>
    </path>
    <path d="M-0.1 -0.75 Q0.1 -1.95 1.3 -2.05 L4.0 -1.75 Q4.8 -1.15 4.9 -0.35 5.0 0.75 4.5 1.65 2.2 3.55 -0.1 1.65 -0.4 0.45 -0.1 -0.75 0.1 -1.95 1.3 -2.05 L4.0 -1.75 Q4.8 -1.15 4.9 -0.35 5.0 0.75 4.5 1.65 2.2 3.55 -0.1 1.65 -0.4 0.45 -0.1 -0.75 Z" fill="none" stroke="#000000" stroke-linecap="round" stroke-linejoin="round" stroke-width="1.0">
      <animate attributeName="stroke" dur="2s" repeatCount="indefinite" values="#000000;#000001"/>
      <animate attributeName="stroke-width" dur="2s" repeatCount="indefinite" values="1.0;1.0"/>
      <animate attributeName="fill-opacity" dur="2s" repeatCount="indefinite" values="1.0;1.0"/>
      <animate attributeName="d" dur="2s" repeatCount="indefinite" values="M-0.1 -0.75 Q0.1 -1.95 1.3 -2.05 L4.0 -1.75 Q4.8 -1.15 4.9 -0.35 5.0 0.75 4.5 1.65 2.2 3.55 -0.1 1.65 -0.4 0.45 -0.1 -0.75 0.1 -1.95 1.3 -2.05 L4.0 -1.75 Q4.8 -1.15 4.9 -0.35 5.0 0.75 4.5 1.65 2.2 3.55 -0.1 1.65 -0.4 0.45 -0.1 -0.75 Z;M9.1 3.35 Q9.2 2.75 9.8 2.7 L11.15 2.85 Q11.55 3.15 11.6 3.55 11.5 4.05 11.4 4.55 10.25 5.5 9.1 4.55 8.95 3.95 9.1 3.35 9.2 2.75 9.8 2.7 L11.15 2.85 Q11.55 3.15 11.6 3.55 11.5 4.05 11.4 4.55 10.25 5.5 9.1 4.55 8.95 3.95 9.1 3.35 Z"/>
    </path>
  </g>
</svg>
