<?xml version="1.0" encoding="UTF-8" standalone="no"?>
<svg xmlns:ffdec="https://www.free-decompiler.com/flash" xmlns:xlink="http://www.w3.org/1999/xlink" ffdec:objectType="morphshape" height="22.9px" width="14.85px" xmlns="http://www.w3.org/2000/svg">
  <g transform="matrix(1.0, 0.0, 0.0, 1.0, 3.95, 3.8)">
    <path d="M-3.4 1.7 Q-3.3 3.9 -1.6 5.5 1.2 7.1 4.5 6.0 L4.7 5.6 Q8.7 -1.3 -0.2 -3.3 L-2.1 -2.7 -3.2 -1.2 Q-3.5 0.2 -3.4 1.7" fill="#ffffff" fill-rule="evenodd" stroke="none">
      <animate attributeName="fill" dur="2s" repeatCount="indefinite" values="#ffffff;#ffffff"/>
      <animate attributeName="fill-opacity" dur="2s" repeatCount="indefinite" values="1.0;1.0"/>
      <animate attributeName="d" dur="2s" repeatCount="indefinite" values="M-3.4 1.7 Q-3.3 3.9 -1.6 5.5 1.2 7.1 4.5 6.0 L4.7 5.6 Q8.7 -1.3 -0.2 -3.3 L-2.1 -2.7 -3.2 -1.2 Q-3.5 0.2 -3.4 1.7;M5.75 16.25 Q5.8 17.35 6.65 18.15 8.05 18.95 9.7 18.4 L9.8 18.2 Q11.8 14.75 7.35 13.75 L6.4 14.05 5.85 14.8 Q5.8 15.55 5.75 16.25"/>
    </path>
    <path d="M-3.4 1.7 Q-3.5 0.2 -3.2 -1.2 L-2.1 -2.7 -0.2 -3.3 Q8.7 -1.3 4.7 5.6 L4.5 6.0 Q1.2 7.1 -1.6 5.5 -3.3 3.9 -3.4 1.7 -3.5 0.2 -3.2 -1.2 L-2.1 -2.7 -0.2 -3.3 Q8.7 -1.3 4.7 5.6 L4.5 6.0 Q1.2 7.1 -1.6 5.5 -3.3 3.9 -3.4 1.7 Z" fill="none" stroke="#000000" stroke-linecap="round" stroke-linejoin="round" stroke-width="1.0">
      <animate attributeName="stroke" dur="2s" repeatCount="indefinite" values="#000000;#000001"/>
      <animate attributeName="stroke-width" dur="2s" repeatCount="indefinite" values="1.0;1.0"/>
      <animate attributeName="fill-opacity" dur="2s" repeatCount="indefinite" values="1.0;1.0"/>
      <animate attributeName="d" dur="2s" repeatCount="indefinite" values="M-3.4 1.7 Q-3.5 0.2 -3.2 -1.2 L-2.1 -2.7 -0.2 -3.3 Q8.7 -1.3 4.7 5.6 L4.5 6.0 Q1.2 7.1 -1.6 5.5 -3.3 3.9 -3.4 1.7 -3.5 0.2 -3.2 -1.2 L-2.1 -2.7 -0.2 -3.3 Q8.7 -1.3 4.7 5.6 L4.5 6.0 Q1.2 7.1 -1.6 5.5 -3.3 3.9 -3.4 1.7 Z;M5.75 16.25 Q5.8 15.55 5.85 14.8 L6.4 14.05 7.35 13.75 Q11.8 14.75 9.8 18.2 L9.7 18.4 Q8.05 18.95 6.65 18.15 5.8 17.35 5.75 16.25 5.8 15.55 5.85 14.8 L6.4 14.05 7.35 13.75 Q11.8 14.75 9.8 18.2 L9.7 18.4 Q8.05 18.95 6.65 18.15 5.8 17.35 5.75 16.25 Z"/>
    </path>
  </g>
</svg>
