<?xml version="1.0" encoding="UTF-8" standalone="no"?>
<svg xmlns:ffdec="https://www.free-decompiler.com/flash" xmlns:xlink="http://www.w3.org/1999/xlink" ffdec:objectType="morphshape" height="19.45px" width="25.0px" xmlns="http://www.w3.org/2000/svg">
  <g transform="matrix(1.0, 0.0, 0.0, 1.0, 19.15, 14.85)">
    <path d="M-6.95 -1.55 L-6.75 0.85 -6.55 1.35 Q-2.65 5.65 3.45 3.25 5.45 1.95 5.35 -0.35 5.35 -3.15 2.65 -5.45 L-1.75 -5.95 Q-3.45 -5.65 -6.55 -2.95 -6.95 -2.25 -6.95 -1.55" fill="#ffffff" fill-rule="evenodd" stroke="none">
      <animate attributeName="fill" dur="2s" repeatCount="indefinite" values="#ffffff;#ffffff"/>
      <animate attributeName="fill-opacity" dur="2s" repeatCount="indefinite" values="1.0;1.0"/>
      <animate attributeName="d" dur="2s" repeatCount="indefinite" values="M-6.95 -1.55 L-6.75 0.85 -6.55 1.35 Q-2.65 5.65 3.45 3.25 5.45 1.95 5.35 -0.35 5.35 -3.15 2.65 -5.45 L-1.75 -5.95 Q-3.45 -5.65 -6.55 -2.95 -6.95 -2.25 -6.95 -1.55;M-18.65 -12.15 L-18.55 -10.95 -18.45 -10.7 Q-16.5 -8.55 -13.45 -9.75 -12.45 -10.4 -12.5 -11.55 -12.5 -12.95 -13.85 -14.1 L-16.05 -14.35 Q-16.9 -14.2 -18.45 -12.85 -18.55 -12.5 -18.65 -12.15"/>
    </path>
    <path d="M-6.95 -1.55 Q-6.95 -2.25 -6.55 -2.95 -3.45 -5.65 -1.75 -5.95 L2.65 -5.45 Q5.35 -3.15 5.35 -0.35 5.45 1.95 3.45 3.25 -2.65 5.65 -6.55 1.35 L-6.75 0.85 -6.95 -1.55 Q-6.95 -2.25 -6.55 -2.95 -3.45 -5.65 -1.75 -5.95 L2.65 -5.45 Q5.35 -3.15 5.35 -0.35 5.45 1.95 3.45 3.25 -2.65 5.65 -6.55 1.35 L-6.75 0.85 -6.95 -1.55 Z" fill="none" stroke="#000000" stroke-linecap="round" stroke-linejoin="round" stroke-width="1.0">
      <animate attributeName="stroke" dur="2s" repeatCount="indefinite" values="#000000;#000001"/>
      <animate attributeName="stroke-width" dur="2s" repeatCount="indefinite" values="1.0;1.0"/>
      <animate attributeName="fill-opacity" dur="2s" repeatCount="indefinite" values="1.0;1.0"/>
      <animate attributeName="d" dur="2s" repeatCount="indefinite" values="M-6.95 -1.55 Q-6.95 -2.25 -6.55 -2.95 -3.45 -5.65 -1.75 -5.95 L2.65 -5.45 Q5.35 -3.15 5.35 -0.35 5.45 1.95 3.45 3.25 -2.65 5.65 -6.55 1.35 L-6.75 0.85 -6.95 -1.55 Q-6.95 -2.25 -6.55 -2.95 -3.45 -5.65 -1.75 -5.95 L2.65 -5.45 Q5.35 -3.15 5.35 -0.35 5.45 1.95 3.45 3.25 -2.65 5.65 -6.55 1.35 L-6.75 0.85 -6.95 -1.55 Z;M-18.65 -12.15 Q-18.55 -12.5 -18.45 -12.85 -16.9 -14.2 -16.05 -14.35 L-13.85 -14.1 Q-12.5 -12.95 -12.5 -11.55 -12.45 -10.4 -13.45 -9.75 -16.5 -8.55 -18.45 -10.7 L-18.55 -10.95 -18.65 -12.15 Q-18.55 -12.5 -18.45 -12.85 -16.9 -14.2 -16.05 -14.35 L-13.85 -14.1 Q-12.5 -12.95 -12.5 -11.55 -12.45 -10.4 -13.45 -9.75 -16.5 -8.55 -18.45 -10.7 L-18.55 -10.95 -18.65 -12.15 Z"/>
    </path>
  </g>
</svg>
