<?xml version="1.0" encoding="UTF-8" standalone="no"?>
<svg xmlns:ffdec="https://www.free-decompiler.com/flash" xmlns:xlink="http://www.w3.org/1999/xlink" ffdec:objectType="morphshape" height="10.35px" width="13.6px" xmlns="http://www.w3.org/2000/svg">
  <g transform="matrix(1.0, 0.0, 0.0, 1.0, 10.0, 2.4)">
    <path d="M-3.1 -0.1 L-3.1 0.4 Q-1.8 3.8 2.9 1.5 3.3 0.8 2.9 -0.8 1.2 -2.5 -1.5 -1.6 -3.0 -1.6 -3.1 -0.1" fill="#ffffff" fill-rule="evenodd" stroke="none">
      <animate attributeName="fill" dur="2s" repeatCount="indefinite" values="#ffffff;#ffffff"/>
      <animate attributeName="fill-opacity" dur="2s" repeatCount="indefinite" values="1.0;1.0"/>
      <animate attributeName="d" dur="2s" repeatCount="indefinite" values="M-3.1 -0.1 L-3.1 0.4 Q-1.8 3.8 2.9 1.5 3.3 0.8 2.9 -0.8 1.2 -2.5 -1.5 -1.6 -3.0 -1.6 -3.1 -0.1;M-9.5 6.2 L-9.5 6.45 Q-8.85 8.15 -6.5 7.0 -6.3 6.65 -6.5 5.85 -7.35 5.0 -8.7 5.45 -9.45 5.45 -9.5 6.2"/>
    </path>
    <path d="M-3.1 -0.1 Q-3.0 -1.6 -1.5 -1.6 1.2 -2.5 2.9 -0.8 3.3 0.8 2.9 1.5 -1.8 3.8 -3.1 0.4 L-3.1 -0.1 Q-3.0 -1.6 -1.5 -1.6 1.2 -2.5 2.9 -0.8 3.3 0.8 2.9 1.5 -1.8 3.8 -3.1 0.4 L-3.1 -0.1 Z" fill="none" stroke="#000000" stroke-linecap="round" stroke-linejoin="round" stroke-width="1.0">
      <animate attributeName="stroke" dur="2s" repeatCount="indefinite" values="#000000;#000001"/>
      <animate attributeName="stroke-width" dur="2s" repeatCount="indefinite" values="1.0;1.0"/>
      <animate attributeName="fill-opacity" dur="2s" repeatCount="indefinite" values="1.0;1.0"/>
      <animate attributeName="d" dur="2s" repeatCount="indefinite" values="M-3.1 -0.1 Q-3.0 -1.6 -1.5 -1.6 1.2 -2.5 2.9 -0.8 3.3 0.8 2.9 1.5 -1.8 3.8 -3.1 0.4 L-3.1 -0.1 Q-3.0 -1.6 -1.5 -1.6 1.2 -2.5 2.9 -0.8 3.3 0.8 2.9 1.5 -1.8 3.8 -3.1 0.4 L-3.1 -0.1 Z;M-9.5 6.2 Q-9.45 5.45 -8.7 5.45 -7.35 5.0 -6.5 5.85 -6.3 6.65 -6.5 7.0 -8.85 8.15 -9.5 6.45 L-9.5 6.2 Q-9.45 5.45 -8.7 5.45 -7.35 5.0 -6.5 5.85 -6.3 6.65 -6.5 7.0 -8.85 8.15 -9.5 6.45 L-9.5 6.2 Z"/>
    </path>
  </g>
</svg>
