<?xml version="1.0" encoding="UTF-8" standalone="no"?>
<svg xmlns:ffdec="https://www.free-decompiler.com/flash" xmlns:xlink="http://www.w3.org/1999/xlink" ffdec:objectType="morphshape" height="14.25px" width="17.25px" xmlns="http://www.w3.org/2000/svg">
  <g transform="matrix(1.0, 0.0, 0.0, 1.0, 1.65, 12.45)">
    <path d="M-1.15 -4.4 Q-1.2 -3.05 -0.7 -1.7 -0.3 -1.35 0.05 -1.05 2.75 1.45 6.15 1.3 7.75 0.1 8.45 -1.7 9.55 -5.1 7.0 -8.0 L3.0 -8.5 1.1 -7.85 Q-0.7 -6.5 -1.15 -4.4" fill="#ffffff" fill-rule="evenodd" stroke="none">
      <animate attributeName="fill" dur="2s" repeatCount="indefinite" values="#ffffff;#ffffff"/>
      <animate attributeName="fill-opacity" dur="2s" repeatCount="indefinite" values="1.0;1.0"/>
      <animate attributeName="d" dur="2s" repeatCount="indefinite" values="M-1.15 -4.4 Q-1.2 -3.05 -0.7 -1.7 -0.3 -1.35 0.05 -1.05 2.75 1.45 6.15 1.3 7.75 0.1 8.45 -1.7 9.55 -5.1 7.0 -8.0 L3.0 -8.5 1.1 -7.85 Q-0.7 -6.5 -1.15 -4.4;M11.7 -10.55 Q11.65 -10.1 11.85 -9.6 11.9 -9.45 12.1 -9.4 13.05 -8.5 14.25 -8.55 14.65 -9.1 15.0 -9.6 15.4 -10.8 14.5 -11.8 L13.15 -11.95 12.5 -11.75 Q11.85 -11.25 11.7 -10.55"/>
    </path>
    <path d="M-1.15 -4.4 Q-0.7 -6.5 1.1 -7.85 L3.0 -8.5 7.0 -8.0 Q9.55 -5.1 8.45 -1.7 7.75 0.1 6.15 1.3 2.75 1.45 0.05 -1.05 -0.3 -1.35 -0.7 -1.7 -1.2 -3.05 -1.15 -4.4 -0.7 -6.5 1.1 -7.85 L3.0 -8.5 7.0 -8.0 Q9.55 -5.1 8.45 -1.7 7.75 0.1 6.15 1.3 2.75 1.45 0.05 -1.05 -0.3 -1.35 -0.7 -1.7 -1.2 -3.05 -1.15 -4.4 Z" fill="none" stroke="#000000" stroke-linecap="round" stroke-linejoin="round" stroke-width="1.0">
      <animate attributeName="stroke" dur="2s" repeatCount="indefinite" values="#000000;#000001"/>
      <animate attributeName="stroke-width" dur="2s" repeatCount="indefinite" values="1.0;1.0"/>
      <animate attributeName="fill-opacity" dur="2s" repeatCount="indefinite" values="1.0;1.0"/>
      <animate attributeName="d" dur="2s" repeatCount="indefinite" values="M-1.15 -4.4 Q-0.7 -6.5 1.1 -7.85 L3.0 -8.5 7.0 -8.0 Q9.55 -5.1 8.45 -1.7 7.75 0.1 6.15 1.3 2.75 1.45 0.05 -1.05 -0.3 -1.35 -0.7 -1.7 -1.2 -3.05 -1.15 -4.4 -0.7 -6.5 1.1 -7.85 L3.0 -8.5 7.0 -8.0 Q9.55 -5.1 8.45 -1.7 7.75 0.1 6.15 1.3 2.75 1.45 0.05 -1.05 -0.3 -1.35 -0.7 -1.7 -1.2 -3.05 -1.15 -4.4 Z;M11.7 -10.55 Q11.85 -11.25 12.5 -11.75 L13.15 -11.95 14.5 -11.8 Q15.4 -10.8 15.0 -9.6 14.65 -9.1 14.25 -8.55 13.05 -8.5 12.1 -9.4 11.9 -9.45 11.85 -9.6 11.65 -10.1 11.7 -10.55 11.85 -11.25 12.5 -11.75 L13.15 -11.95 14.5 -11.8 Q15.4 -10.8 15.0 -9.6 14.65 -9.1 14.25 -8.55 13.05 -8.5 12.1 -9.4 11.9 -9.45 11.85 -9.6 11.65 -10.1 11.7 -10.55 Z"/>
    </path>
  </g>
</svg>
