<?xml version="1.0" encoding="UTF-8" standalone="no"?>
<svg xmlns:ffdec="https://www.free-decompiler.com/flash" xmlns:xlink="http://www.w3.org/1999/xlink" ffdec:objectType="morphshape" height="32.9px" width="14.85px" xmlns="http://www.w3.org/2000/svg">
  <g transform="matrix(1.0, 0.0, 0.0, 1.0, 8.3, 25.1)">
    <path d="M-5.5 -7.1 Q-10.3 -0.35 -5.1 6.5 L-4.85 6.9 -3.95 7.05 -0.55 6.9 Q1.5 6.0 2.65 4.45 L3.0 3.9 3.55 3.5 3.55 2.85 Q7.05 -3.0 4.1 -6.9 L2.9 -8.75 Q3.1 -12.95 -4.3 -8.75 L-5.5 -7.1" fill="#ffffff" fill-rule="evenodd" stroke="none">
      <animate attributeName="fill" dur="2s" repeatCount="indefinite" values="#ffffff;#ffffff"/>
      <animate attributeName="fill-opacity" dur="2s" repeatCount="indefinite" values="1.0;1.0"/>
      <animate attributeName="d" dur="2s" repeatCount="indefinite" values="M-5.5 -7.1 Q-10.3 -0.35 -5.1 6.5 L-4.85 6.9 -3.95 7.05 -0.55 6.9 Q1.5 6.0 2.65 4.45 L3.0 3.9 3.55 3.5 3.55 2.85 Q7.05 -3.0 4.1 -6.9 L2.9 -8.75 Q3.1 -12.95 -4.3 -8.75 L-5.5 -7.1;M2.25 -23.3 Q0.55 -20.95 2.4 -18.55 L2.45 -18.4 2.75 -18.35 3.95 -18.4 Q4.65 -18.75 5.05 -19.25 L5.2 -19.45 5.4 -19.6 5.4 -19.8 Q6.6 -21.85 5.55 -23.2 L5.15 -23.85 Q5.25 -25.3 2.65 -23.85 L2.25 -23.3"/>
    </path>
    <path d="M-5.5 -7.1 L-4.3 -8.75 Q3.1 -12.95 2.9 -8.75 L4.1 -6.9 Q7.05 -3.0 3.55 2.85 L3.55 3.5 3.0 3.9 2.65 4.45 Q1.5 6.0 -0.55 6.9 L-3.95 7.05 -4.85 6.9 -5.1 6.5 Q-10.3 -0.35 -5.5 -7.1 L-4.3 -8.75 Q3.1 -12.95 2.9 -8.75 L4.1 -6.9 Q7.05 -3.0 3.55 2.85 L3.55 3.5 3.0 3.9 2.65 4.45 Q1.5 6.0 -0.55 6.9 L-3.95 7.05 -4.85 6.9 -5.1 6.5 Q-10.3 -0.35 -5.5 -7.1 Z" fill="none" stroke="#000000" stroke-linecap="round" stroke-linejoin="round" stroke-width="1.0">
      <animate attributeName="stroke" dur="2s" repeatCount="indefinite" values="#000000;#000001"/>
      <animate attributeName="stroke-width" dur="2s" repeatCount="indefinite" values="1.0;1.0"/>
      <animate attributeName="fill-opacity" dur="2s" repeatCount="indefinite" values="1.0;1.0"/>
      <animate attributeName="d" dur="2s" repeatCount="indefinite" values="M-5.5 -7.1 L-4.3 -8.75 Q3.1 -12.95 2.9 -8.75 L4.1 -6.9 Q7.05 -3.0 3.55 2.85 L3.55 3.5 3.0 3.9 2.65 4.45 Q1.5 6.0 -0.55 6.9 L-3.95 7.05 -4.85 6.9 -5.1 6.5 Q-10.3 -0.35 -5.5 -7.1 L-4.3 -8.75 Q3.1 -12.95 2.9 -8.75 L4.1 -6.9 Q7.05 -3.0 3.55 2.85 L3.55 3.5 3.0 3.9 2.65 4.45 Q1.5 6.0 -0.55 6.9 L-3.95 7.05 -4.85 6.9 -5.1 6.5 Q-10.3 -0.35 -5.5 -7.1 Z;M2.25 -23.3 L2.65 -23.85 Q5.25 -25.3 5.15 -23.85 L5.55 -23.2 Q6.6 -21.85 5.4 -19.8 L5.4 -19.6 5.2 -19.45 5.05 -19.25 Q4.65 -18.75 3.95 -18.4 L2.75 -18.35 2.45 -18.4 2.4 -18.55 Q0.55 -20.95 2.25 -23.3 L2.65 -23.85 Q5.25 -25.3 5.15 -23.85 L5.55 -23.2 Q6.6 -21.85 5.4 -19.8 L5.4 -19.6 5.2 -19.45 5.05 -19.25 Q4.65 -18.75 3.95 -18.4 L2.75 -18.35 2.45 -18.4 2.4 -18.55 Q0.55 -20.95 2.25 -23.3 Z"/>
    </path>
  </g>
</svg>
