<?xml version="1.0" encoding="UTF-8" standalone="no"?>
<svg xmlns:ffdec="https://www.free-decompiler.com/flash" xmlns:xlink="http://www.w3.org/1999/xlink" ffdec:objectType="morphshape" height="16.1px" width="37.7px" xmlns="http://www.w3.org/2000/svg">
  <g transform="matrix(1.0, 0.0, 0.0, 1.0, 3.8, 10.1)">
    <path d="M-2.8 1.3 L-1.5 3.55 Q-0.6 6.75 2.9 4.7 8.0 3.7 9.05 1.1 10.85 -0.85 9.2 -2.75 8.5 -5.9 6.4 -5.35 L0.4 -4.6 Q-4.6 -3.75 -2.8 1.3" fill="#ffffff" fill-rule="evenodd" stroke="none">
      <animate attributeName="fill" dur="2s" repeatCount="indefinite" values="#ffffff;#ffffff"/>
      <animate attributeName="fill-opacity" dur="2s" repeatCount="indefinite" values="1.0;1.0"/>
      <animate attributeName="d" dur="2s" repeatCount="indefinite" values="M-2.8 1.3 L-1.5 3.55 Q-0.6 6.75 2.9 4.7 8.0 3.7 9.05 1.1 10.85 -0.85 9.2 -2.75 8.5 -5.9 6.4 -5.35 L0.4 -4.6 Q-4.6 -3.75 -2.8 1.3;M28.95 -7.25 L29.45 -6.5 Q29.75 -5.4 30.95 -6.1 32.7 -6.45 33.1 -7.35 33.7 -8.0 33.15 -8.65 32.9 -9.75 32.15 -9.55 L30.1 -9.3 Q28.35 -9.05 28.95 -7.25"/>
    </path>
    <path d="M-2.8 1.3 Q-4.6 -3.75 0.4 -4.6 L6.4 -5.35 Q8.5 -5.9 9.2 -2.75 10.85 -0.85 9.05 1.1 8.0 3.7 2.9 4.7 -0.6 6.75 -1.5 3.55 L-2.8 1.3 Q-4.6 -3.75 0.4 -4.6 L6.4 -5.35 Q8.5 -5.9 9.2 -2.75 10.85 -0.85 9.05 1.1 8.0 3.7 2.9 4.7 -0.6 6.75 -1.5 3.55 L-2.8 1.3 Z" fill="none" stroke="#000000" stroke-linecap="round" stroke-linejoin="round" stroke-width="1.0">
      <animate attributeName="stroke" dur="2s" repeatCount="indefinite" values="#000000;#000001"/>
      <animate attributeName="stroke-width" dur="2s" repeatCount="indefinite" values="1.0;1.0"/>
      <animate attributeName="fill-opacity" dur="2s" repeatCount="indefinite" values="1.0;1.0"/>
      <animate attributeName="d" dur="2s" repeatCount="indefinite" values="M-2.8 1.3 Q-4.6 -3.75 0.4 -4.6 L6.4 -5.35 Q8.5 -5.9 9.2 -2.75 10.85 -0.85 9.05 1.1 8.0 3.7 2.9 4.7 -0.6 6.75 -1.5 3.55 L-2.8 1.3 Q-4.6 -3.75 0.4 -4.6 L6.4 -5.35 Q8.5 -5.9 9.2 -2.75 10.85 -0.85 9.05 1.1 8.0 3.7 2.9 4.7 -0.6 6.75 -1.5 3.55 L-2.8 1.3 Z;M28.95 -7.25 Q28.35 -9.05 30.1 -9.3 L32.15 -9.55 Q32.9 -9.75 33.15 -8.65 33.7 -8.0 33.1 -7.35 32.7 -6.45 30.95 -6.1 29.75 -5.4 29.45 -6.5 L28.95 -7.25 Q28.35 -9.05 30.1 -9.3 L32.15 -9.55 Q32.9 -9.75 33.15 -8.65 33.7 -8.0 33.1 -7.35 32.7 -6.45 30.95 -6.1 29.75 -5.4 29.45 -6.5 L28.95 -7.25 Z"/>
    </path>
  </g>
</svg>
