<?xml version="1.0" encoding="UTF-8" standalone="no"?>
<svg xmlns:ffdec="https://www.free-decompiler.com/flash" xmlns:xlink="http://www.w3.org/1999/xlink" ffdec:objectType="morphshape" height="14.95px" width="25.7px" xmlns="http://www.w3.org/2000/svg">
  <g transform="matrix(1.0, 0.0, 0.0, 1.0, 1.6, 3.35)">
    <path d="M-1.1 1.05 L0.75 4.55 Q4.15 8.2 8.75 4.95 9.6 4.15 9.8 1.3 8.5 -2.9 5.7 -2.85 2.85 -2.85 -0.45 -1.85 L-1.1 1.05" fill="#ffffff" fill-rule="evenodd" stroke="none">
      <animate attributeName="fill" dur="2s" repeatCount="indefinite" values="#ffffff;#ffffff"/>
      <animate attributeName="fill-opacity" dur="2s" repeatCount="indefinite" values="1.0;1.0"/>
      <animate attributeName="d" dur="2s" repeatCount="indefinite" values="M-1.1 1.05 L0.75 4.55 Q4.15 8.2 8.75 4.95 9.6 4.15 9.8 1.3 8.5 -2.9 5.7 -2.85 2.85 -2.85 -0.45 -1.85 L-1.1 1.05;M19.8 9.25 L20.45 10.45 Q21.65 11.7 23.2 10.6 23.5 10.3 23.6 9.35 23.15 7.85 22.15 7.9 21.1 8.1 20.05 8.25 L19.8 9.25"/>
    </path>
    <path d="M-1.1 1.05 L-0.45 -1.85 Q2.85 -2.85 5.7 -2.85 8.5 -2.9 9.8 1.3 9.6 4.15 8.75 4.95 4.15 8.2 0.75 4.55 L-1.1 1.05 -0.45 -1.85 Q2.85 -2.85 5.7 -2.85 8.5 -2.9 9.8 1.3 9.6 4.15 8.75 4.95 4.15 8.2 0.75 4.55 L-1.1 1.05 Z" fill="none" stroke="#000000" stroke-linecap="round" stroke-linejoin="round" stroke-width="1.0">
      <animate attributeName="stroke" dur="2s" repeatCount="indefinite" values="#000000;#000001"/>
      <animate attributeName="stroke-width" dur="2s" repeatCount="indefinite" values="1.0;1.0"/>
      <animate attributeName="fill-opacity" dur="2s" repeatCount="indefinite" values="1.0;1.0"/>
      <animate attributeName="d" dur="2s" repeatCount="indefinite" values="M-1.1 1.05 L-0.45 -1.85 Q2.85 -2.85 5.7 -2.85 8.5 -2.9 9.8 1.3 9.6 4.15 8.75 4.95 4.15 8.2 0.75 4.55 L-1.1 1.05 -0.45 -1.85 Q2.85 -2.85 5.7 -2.85 8.5 -2.9 9.8 1.3 9.6 4.15 8.75 4.95 4.15 8.2 0.75 4.55 L-1.1 1.05 Z;M19.8 9.25 L20.05 8.25 Q21.1 8.1 22.15 7.9 23.15 7.85 23.6 9.35 23.5 10.3 23.2 10.6 21.65 11.7 20.45 10.45 L19.8 9.25 20.05 8.25 Q21.1 8.1 22.15 7.9 23.15 7.85 23.6 9.35 23.5 10.3 23.2 10.6 21.65 11.7 20.45 10.45 L19.8 9.25 Z"/>
    </path>
  </g>
</svg>
