<?xml version="1.0" encoding="UTF-8" standalone="no"?>
<svg xmlns:ffdec="https://www.free-decompiler.com/flash" xmlns:xlink="http://www.w3.org/1999/xlink" ffdec:objectType="morphshape" height="14.75px" width="12.45px" xmlns="http://www.w3.org/2000/svg">
  <g transform="matrix(1.0, 0.0, 0.0, 1.0, 1.45, -0.1)">
    <path d="M0.3 6.4 L2.7 7.5 Q5.7 8.4 7.75 5.25 8.45 2.0 5.05 1.2 3.6 -0.3 0.45 1.9 -2.25 3.25 0.3 6.4" fill="#ffffff" fill-rule="evenodd" stroke="none">
      <animate attributeName="fill" dur="2s" repeatCount="indefinite" values="#ffffff;#ffffff"/>
      <animate attributeName="fill-opacity" dur="2s" repeatCount="indefinite" values="1.0;1.0"/>
      <animate attributeName="d" dur="2s" repeatCount="indefinite" values="M0.3 6.4 L2.7 7.5 Q5.7 8.4 7.75 5.25 8.45 2.0 5.05 1.2 3.6 -0.3 0.45 1.9 -2.25 3.25 0.3 6.4;M7.85 13.9 L8.7 14.3 Q9.7 14.6 10.45 13.5 10.65 12.4 9.5 12.1 8.95 11.6 7.9 12.35 6.95 12.8 7.85 13.9"/>
    </path>
    <path d="M0.3 6.4 Q-2.25 3.25 0.45 1.9 3.6 -0.3 5.05 1.2 8.45 2.0 7.75 5.25 5.7 8.4 2.7 7.5 L0.3 6.4 Q-2.25 3.25 0.45 1.9 3.6 -0.3 5.05 1.2 8.45 2.0 7.75 5.25 5.7 8.4 2.7 7.5 L0.3 6.4 Z" fill="none" stroke="#000000" stroke-linecap="round" stroke-linejoin="round" stroke-width="1.0">
      <animate attributeName="stroke" dur="2s" repeatCount="indefinite" values="#000000;#000001"/>
      <animate attributeName="stroke-width" dur="2s" repeatCount="indefinite" values="1.0;1.0"/>
      <animate attributeName="fill-opacity" dur="2s" repeatCount="indefinite" values="1.0;1.0"/>
      <animate attributeName="d" dur="2s" repeatCount="indefinite" values="M0.3 6.4 Q-2.25 3.25 0.45 1.9 3.6 -0.3 5.05 1.2 8.45 2.0 7.75 5.25 5.7 8.4 2.7 7.5 L0.3 6.4 Q-2.25 3.25 0.45 1.9 3.6 -0.3 5.05 1.2 8.45 2.0 7.75 5.25 5.7 8.4 2.7 7.5 L0.3 6.4 Z;M7.85 13.9 Q6.95 12.8 7.9 12.35 8.95 11.6 9.5 12.1 10.65 12.4 10.45 13.5 9.7 14.6 8.7 14.3 L7.85 13.9 Q6.95 12.8 7.9 12.35 8.95 11.6 9.5 12.1 10.65 12.4 10.45 13.5 9.7 14.6 8.7 14.3 L7.85 13.9 Z"/>
    </path>
  </g>
</svg>
