<?xml version="1.0" encoding="UTF-8" standalone="no"?>
<svg xmlns:ffdec="https://www.free-decompiler.com/flash" xmlns:xlink="http://www.w3.org/1999/xlink" ffdec:objectType="morphshape" height="11.1px" width="21.9px" xmlns="http://www.w3.org/2000/svg">
  <g transform="matrix(1.0, 0.0, 0.0, 1.0, 23.2, 5.75)">
    <path d="M-10.7 1.2 Q-9.95 6.55 -5.65 4.1 L-2.5 3.15 -1.8 -0.2 -2.75 -2.45 Q-3.3 -6.15 -10.45 -2.05 L-10.7 1.2" fill="#ffffff" fill-rule="evenodd" stroke="none">
      <animate attributeName="fill" dur="2s" repeatCount="indefinite" values="#ffffff;#ffffff"/>
      <animate attributeName="fill-opacity" dur="2s" repeatCount="indefinite" values="1.0;1.0"/>
      <animate attributeName="d" dur="2s" repeatCount="indefinite" values="M-10.7 1.2 Q-9.95 6.55 -5.65 4.1 L-2.5 3.15 -1.8 -0.2 -2.75 -2.45 Q-3.3 -6.15 -10.45 -2.05 L-10.7 1.2;M-22.7 -3.4 Q-22.45 -1.55 -20.95 -2.4 L-19.85 -2.7 -19.65 -3.9 -19.95 -4.65 Q-20.15 -5.95 -22.65 -4.5 L-22.7 -3.4"/>
    </path>
    <path d="M-10.7 1.2 L-10.45 -2.05 Q-3.3 -6.15 -2.75 -2.45 L-1.8 -0.2 -2.5 3.15 -5.65 4.1 Q-9.95 6.55 -10.7 1.2 L-10.45 -2.05 Q-3.3 -6.15 -2.75 -2.45 L-1.8 -0.2 -2.5 3.15 -5.65 4.1 Q-9.95 6.55 -10.7 1.2 Z" fill="none" stroke="#000000" stroke-linecap="round" stroke-linejoin="round" stroke-width="1.0">
      <animate attributeName="stroke" dur="2s" repeatCount="indefinite" values="#000000;#000001"/>
      <animate attributeName="stroke-width" dur="2s" repeatCount="indefinite" values="1.0;1.0"/>
      <animate attributeName="fill-opacity" dur="2s" repeatCount="indefinite" values="1.0;1.0"/>
      <animate attributeName="d" dur="2s" repeatCount="indefinite" values="M-10.7 1.2 L-10.45 -2.05 Q-3.3 -6.15 -2.75 -2.45 L-1.8 -0.2 -2.5 3.15 -5.65 4.1 Q-9.95 6.55 -10.7 1.2 L-10.45 -2.05 Q-3.3 -6.15 -2.75 -2.45 L-1.8 -0.2 -2.5 3.15 -5.65 4.1 Q-9.95 6.55 -10.7 1.2 Z;M-22.7 -3.4 L-22.65 -4.5 Q-20.15 -5.95 -19.95 -4.65 L-19.65 -3.9 -19.85 -2.7 -20.95 -2.4 Q-22.45 -1.55 -22.7 -3.4 L-22.65 -4.5 Q-20.15 -5.95 -19.95 -4.65 L-19.65 -3.9 -19.85 -2.7 -20.95 -2.4 Q-22.45 -1.55 -22.7 -3.4 Z"/>
    </path>
  </g>
</svg>
