<?xml version="1.0" encoding="UTF-8" standalone="no"?>
<svg xmlns:ffdec="https://www.free-decompiler.com/flash" xmlns:xlink="http://www.w3.org/1999/xlink" ffdec:objectType="morphshape" height="22.4px" width="34.55px" xmlns="http://www.w3.org/2000/svg">
  <g transform="matrix(1.0, 0.0, 0.0, 1.0, 31.95, 2.05)">
    <path d="M-7.95 1.8 Q-10.45 3.95 -7.95 6.1 -3.75 10.65 0.45 5.9 3.1 3.75 1.55 0.45 -0.3 -2.5 -3.9 -1.15 -5.9 -2.45 -7.95 1.8" fill="#ffffff" fill-rule="evenodd" stroke="none">
      <animate attributeName="fill" dur="2s" repeatCount="indefinite" values="#ffffff;#ffffff"/>
      <animate attributeName="fill-opacity" dur="2s" repeatCount="indefinite" values="1.0;1.0"/>
      <animate attributeName="d" dur="2s" repeatCount="indefinite" values="M-7.95 1.8 Q-10.45 3.95 -7.95 6.1 -3.75 10.65 0.45 5.9 3.1 3.75 1.55 0.45 -0.3 -2.5 -3.9 -1.15 -5.9 -2.45 -7.95 1.8;M-31.0 17.6 Q-31.9 18.35 -31.0 19.1 -29.55 19.05 -28.1 19.05 -27.2 18.25 -27.7 17.15 -28.4 16.1 -29.6 16.6 -30.3 16.15 -31.0 17.6"/>
    </path>
    <path d="M-7.95 1.8 Q-5.9 -2.45 -3.9 -1.15 -0.3 -2.5 1.55 0.45 3.1 3.75 0.45 5.9 -3.75 10.65 -7.95 6.1 -10.45 3.95 -7.95 1.8 -5.9 -2.45 -3.9 -1.15 -0.3 -2.5 1.55 0.45 3.1 3.75 0.45 5.9 -3.75 10.65 -7.95 6.1 -10.45 3.95 -7.95 1.8 Z" fill="none" stroke="#000000" stroke-linecap="round" stroke-linejoin="round" stroke-width="1.0">
      <animate attributeName="stroke" dur="2s" repeatCount="indefinite" values="#000000;#000001"/>
      <animate attributeName="stroke-width" dur="2s" repeatCount="indefinite" values="1.0;1.0"/>
      <animate attributeName="fill-opacity" dur="2s" repeatCount="indefinite" values="1.0;1.0"/>
      <animate attributeName="d" dur="2s" repeatCount="indefinite" values="M-7.95 1.8 Q-5.9 -2.45 -3.9 -1.15 -0.3 -2.5 1.55 0.45 3.1 3.75 0.45 5.9 -3.75 10.65 -7.95 6.1 -10.45 3.95 -7.95 1.8 -5.9 -2.45 -3.9 -1.15 -0.3 -2.5 1.55 0.45 3.1 3.75 0.45 5.9 -3.75 10.65 -7.95 6.1 -10.45 3.95 -7.95 1.8 Z;M-31.0 17.6 Q-30.3 16.15 -29.6 16.6 -28.4 16.1 -27.7 17.15 -27.2 18.25 -28.1 19.05 -29.55 19.05 -31.0 19.1 -31.9 18.35 -31.0 17.6 -30.3 16.15 -29.6 16.6 -28.4 16.1 -27.7 17.15 -27.2 18.25 -28.1 19.05 -29.55 19.05 -31.0 19.1 -31.9 18.35 -31.0 17.6 Z"/>
    </path>
  </g>
</svg>
