<?xml version="1.0" encoding="UTF-8" standalone="no"?>
<svg xmlns:ffdec="https://www.free-decompiler.com/flash" xmlns:xlink="http://www.w3.org/1999/xlink" ffdec:objectType="morphshape" height="199.2px" width="213.3px" xmlns="http://www.w3.org/2000/svg">
  <g transform="matrix(1.0, 0.0, 0.0, 1.0, 95.7, 102.0)">
    <path d="M-5.25 0.4 Q-5.25 2.8 -3.6 4.45 -1.9 6.15 0.5 6.15 2.9 6.15 4.55 4.45 6.25 2.8 6.25 0.4 6.25 -2.0 4.55 -3.7 2.9 -5.35 0.5 -5.35 -1.9 -5.35 -3.6 -3.7 -5.25 -2.0 -5.25 0.4 M-90.7 -0.05 Q-90.7 37.55 -64.15 64.15 -37.55 90.65 0.05 90.55 37.6 90.65 64.15 64.15 90.7 37.55 90.65 -0.05 90.7 -37.55 64.15 -64.1 37.6 -90.6 0.05 -90.55 -37.55 -90.6 -64.15 -64.1 -90.7 -37.55 -90.7 -0.05" fill="#00ff00" fill-rule="evenodd" stroke="none">
      <animate attributeName="fill" dur="2s" repeatCount="indefinite" values="#00ff00;#00ff01"/>
      <animate attributeName="fill-opacity" dur="2s" repeatCount="indefinite" values="1.0;1.0"/>
      <animate attributeName="d" dur="2s" repeatCount="indefinite" values="M-5.25 0.4 Q-5.25 2.8 -3.6 4.45 -1.9 6.15 0.5 6.15 2.9 6.15 4.55 4.45 6.25 2.8 6.25 0.4 6.25 -2.0 4.55 -3.7 2.9 -5.35 0.5 -5.35 -1.9 -5.35 -3.6 -3.7 -5.25 -2.0 -5.25 0.4 M-90.7 -0.05 Q-90.7 37.55 -64.15 64.15 -37.55 90.65 0.05 90.55 37.6 90.65 64.15 64.15 90.7 37.55 90.65 -0.05 90.7 -37.55 64.15 -64.1 37.6 -90.6 0.05 -90.55 -37.55 -90.6 -64.15 -64.1 -90.7 -37.55 -90.7 -0.05;M-67.8 -0.5 Q-67.8 37.5 -40.95 64.45 -14.0 91.25 24.0 91.2 62.0 91.25 88.9 64.45 115.75 37.5 115.7 -0.5 115.75 -38.4 88.9 -65.3 62.0 -92.15 24.0 -92.1 -14.0 -92.15 -40.95 -65.3 -67.8 -38.4 -67.8 -0.5 M-95.7 3.0 Q-95.15 52.45 -59.25 74.9 -23.4 97.3 17.95 97.2 59.25 97.3 88.45 68.15 117.65 38.9 117.6 -2.45 117.65 -43.65 88.45 -72.9 59.25 -102.05 17.95 -102.0 -23.4 -102.05 -59.85 -74.25 -96.3 -46.45 -95.7 3.0"/>
    </path>
    <path d="M-90.7 -0.05 Q-90.7 -37.55 -64.15 -64.1 -37.55 -90.6 0.05 -90.55 37.6 -90.6 64.15 -64.1 90.7 -37.55 90.65 -0.05 90.7 37.55 64.15 64.15 37.6 90.65 0.05 90.55 -37.55 90.65 -64.15 64.15 -90.7 37.55 -90.7 -0.05 M-5.25 0.4 Q-5.25 -2.0 -3.6 -3.7 -1.9 -5.35 0.5 -5.35 2.9 -5.35 4.55 -3.7 6.25 -2.0 6.25 0.4 6.25 2.8 4.55 4.45 2.9 6.15 0.5 6.15 -1.9 6.15 -3.6 4.45 -5.25 2.8 -5.25 0.4 Z" fill="none" stroke="#000000" stroke-linecap="round" stroke-linejoin="round" stroke-opacity="0.0" stroke-width="0.0">
      <animate attributeName="stroke" dur="2s" repeatCount="indefinite" values="#000000;#000001"/>
      <animate attributeName="stroke-width" dur="2s" repeatCount="indefinite" values="0.0;0.0"/>
      <animate attributeName="fill-opacity" dur="2s" repeatCount="indefinite" values="0.0;0.0"/>
      <animate attributeName="d" dur="2s" repeatCount="indefinite" values="M-90.7 -0.05 Q-90.7 -37.55 -64.15 -64.1 -37.55 -90.6 0.05 -90.55 37.6 -90.6 64.15 -64.1 90.7 -37.55 90.65 -0.05 90.7 37.55 64.15 64.15 37.6 90.65 0.05 90.55 -37.55 90.65 -64.15 64.15 -90.7 37.55 -90.7 -0.05 M-5.25 0.4 Q-5.25 -2.0 -3.6 -3.7 -1.9 -5.35 0.5 -5.35 2.9 -5.35 4.55 -3.7 6.25 -2.0 6.25 0.4 6.25 2.8 4.55 4.45 2.9 6.15 0.5 6.15 -1.9 6.15 -3.6 4.45 -5.25 2.8 -5.25 0.4 Z;M-95.7 3.0 Q-96.3 -46.45 -59.85 -74.25 -23.4 -102.05 17.95 -102.0 59.25 -102.05 88.45 -72.9 117.65 -43.65 117.6 -2.45 117.65 38.9 88.45 68.15 59.25 97.3 17.95 97.2 -23.4 97.3 -59.25 74.9 -95.15 52.45 -95.7 3.0 M-67.8 -0.5 Q-67.8 -38.4 -40.95 -65.3 -14.0 -92.15 24.0 -92.1 62.0 -92.15 88.9 -65.3 115.75 -38.4 115.7 -0.5 115.75 37.5 88.9 64.45 62.0 91.25 24.0 91.2 -14.0 91.25 -40.95 64.45 -67.8 37.5 -67.8 -0.5 Z"/>
    </path>
  </g>
</svg>
