<?xml version="1.0" encoding="UTF-8" standalone="no"?>
<svg xmlns:ffdec="https://www.free-decompiler.com/flash" xmlns:xlink="http://www.w3.org/1999/xlink" ffdec:objectType="morphshape" height="220.3px" width="226.55px" xmlns="http://www.w3.org/2000/svg">
  <g transform="matrix(1.0, 0.0, 0.0, 1.0, 108.95, 112.25)">
    <path d="M-67.8 -0.5 Q-67.8 37.5 -40.95 64.45 -14.0 91.25 24.0 91.2 62.0 91.25 88.9 64.45 115.75 37.5 115.7 -0.5 115.75 -38.4 88.9 -65.3 62.0 -92.15 24.0 -92.1 -14.0 -92.15 -40.95 -65.3 -67.8 -38.4 -67.8 -0.5 M-95.7 3.0 Q-95.15 52.45 -59.25 74.9 -23.4 97.3 17.95 97.2 59.25 97.3 88.45 68.15 117.65 38.9 117.6 -2.45 117.65 -43.65 88.45 -72.9 59.25 -102.05 17.95 -102.0 -23.4 -102.05 -59.85 -74.25 -96.3 -46.45 -95.7 3.0" fill="#00ff00" fill-rule="evenodd" stroke="none">
      <animate attributeName="fill" dur="2s" repeatCount="indefinite" values="#00ff00;#00ff01"/>
      <animate attributeName="fill-opacity" dur="2s" repeatCount="indefinite" values="1.0;1.0"/>
      <animate attributeName="d" dur="2s" repeatCount="indefinite" values="M-67.8 -0.5 Q-67.8 37.5 -40.95 64.45 -14.0 91.25 24.0 91.2 62.0 91.25 88.9 64.45 115.75 37.5 115.7 -0.5 115.75 -38.4 88.9 -65.3 62.0 -92.15 24.0 -92.1 -14.0 -92.15 -40.95 -65.3 -67.8 -38.4 -67.8 -0.5 M-95.7 3.0 Q-95.15 52.45 -59.25 74.9 -23.4 97.3 17.95 97.2 59.25 97.3 88.45 68.15 117.65 38.9 117.6 -2.45 117.65 -43.65 88.45 -72.9 59.25 -102.05 17.95 -102.0 -23.4 -102.05 -59.85 -74.25 -96.3 -46.45 -95.7 3.0;M-93.4 0.0 Q-93.4 42.0 -63.75 71.85 -33.9 101.45 8.1 101.4 50.15 101.45 79.9 71.85 109.6 42.0 109.55 0.0 109.6 -41.9 79.9 -71.65 50.15 -101.35 8.1 -101.3 -33.9 -101.35 -63.75 -71.65 -93.4 -41.9 -93.4 0.0 M-108.95 -2.15 Q-108.95 43.55 -76.65 75.9 -44.3 108.15 1.4 108.05 47.1 108.15 79.4 75.9 111.7 43.55 111.65 -2.15 111.7 -47.75 79.4 -80.1 47.1 -112.3 1.4 -112.25 -44.3 -112.3 -76.65 -80.1 -108.95 -47.75 -108.95 -2.15"/>
    </path>
    <path d="M-95.7 3.0 Q-96.3 -46.45 -59.85 -74.25 -23.4 -102.05 17.95 -102.0 59.25 -102.05 88.45 -72.9 117.65 -43.65 117.6 -2.45 117.65 38.9 88.45 68.15 59.25 97.3 17.95 97.2 -23.4 97.3 -59.25 74.9 -95.15 52.45 -95.7 3.0 M-67.8 -0.5 Q-67.8 -38.4 -40.95 -65.3 -14.0 -92.15 24.0 -92.1 62.0 -92.15 88.9 -65.3 115.75 -38.4 115.7 -0.5 115.75 37.5 88.9 64.45 62.0 91.25 24.0 91.2 -14.0 91.25 -40.95 64.45 -67.8 37.5 -67.8 -0.5 Z" fill="none" stroke="#000000" stroke-linecap="round" stroke-linejoin="round" stroke-opacity="0.0" stroke-width="0.0">
      <animate attributeName="stroke" dur="2s" repeatCount="indefinite" values="#000000;#000001"/>
      <animate attributeName="stroke-width" dur="2s" repeatCount="indefinite" values="0.0;0.0"/>
      <animate attributeName="fill-opacity" dur="2s" repeatCount="indefinite" values="0.0;0.0"/>
      <animate attributeName="d" dur="2s" repeatCount="indefinite" values="M-95.7 3.0 Q-96.3 -46.45 -59.85 -74.25 -23.4 -102.05 17.95 -102.0 59.25 -102.05 88.45 -72.9 117.65 -43.65 117.6 -2.45 117.65 38.9 88.45 68.15 59.25 97.3 17.95 97.2 -23.4 97.3 -59.25 74.9 -95.15 52.45 -95.7 3.0 M-67.8 -0.5 Q-67.8 -38.4 -40.95 -65.3 -14.0 -92.15 24.0 -92.1 62.0 -92.15 88.9 -65.3 115.75 -38.4 115.7 -0.5 115.75 37.5 88.9 64.45 62.0 91.25 24.0 91.2 -14.0 91.25 -40.95 64.45 -67.8 37.5 -67.8 -0.5 Z;M-108.95 -2.15 Q-108.95 -47.75 -76.65 -80.1 -44.3 -112.3 1.4 -112.25 47.1 -112.3 79.4 -80.1 111.7 -47.75 111.65 -2.15 111.7 43.55 79.4 75.9 47.1 108.15 1.4 108.05 -44.3 108.15 -76.65 75.9 -108.95 43.55 -108.95 -2.15 M-93.4 0.0 Q-93.4 -41.9 -63.75 -71.65 -33.9 -101.35 8.1 -101.3 50.15 -101.35 79.9 -71.65 109.6 -41.9 109.55 0.0 109.6 42.0 79.9 71.85 50.15 101.45 8.1 101.4 -33.9 101.45 -63.75 71.85 -93.4 42.0 -93.4 0.0 Z"/>
    </path>
  </g>
</svg>
