<?xml version="1.0" encoding="UTF-8" standalone="no"?>
<svg xmlns:ffdec="https://www.free-decompiler.com/flash" xmlns:xlink="http://www.w3.org/1999/xlink" ffdec:objectType="morphshape" height="20.9px" width="176.75px" xmlns="http://www.w3.org/2000/svg">
  <g transform="matrix(1.0, 0.0, 0.0, 1.0, 105.95, 11.4)">
    <path d="M-105.95 -2.25 L-105.95 0.7 -105.85 0.7 Q-104.55 8.05 -97.7 9.35 L-59.9 9.35 -59.9 9.4 57.15 9.4 55.95 9.5 60.45 9.5 Q69.1 7.65 70.7 0.7 L70.8 0.7 70.8 -1.6 70.65 -2.55 Q69.3 -10.25 61.3 -11.4 L-96.7 -11.4 Q-99.2 -11.05 -101.05 -10.0 -105.1 -7.8 -105.95 -2.25" fill="#66cc00" fill-rule="evenodd" stroke="none">
      <animate attributeName="fill" dur="2s" repeatCount="indefinite" values="#66cc00;#cc0001"/>
      <animate attributeName="fill-opacity" dur="2s" repeatCount="indefinite" values="1.0;1.0"/>
      <animate attributeName="d" dur="2s" repeatCount="indefinite" values="M-105.95 -2.25 L-105.95 0.7 -105.85 0.7 Q-104.55 8.05 -97.7 9.35 L-59.9 9.35 -59.9 9.4 57.15 9.4 55.95 9.5 60.45 9.5 Q69.1 7.65 70.7 0.7 L70.8 0.7 70.8 -1.6 70.65 -2.55 Q69.3 -10.25 61.3 -11.4 L-96.7 -11.4 Q-99.2 -11.05 -101.05 -10.0 -105.1 -7.8 -105.95 -2.25;M-105.95 -2.25 L-105.95 0.7 -105.85 0.7 Q-104.55 8.05 -97.7 9.35 L-59.9 9.35 -59.9 9.4 57.15 9.4 55.95 9.5 60.45 9.5 Q69.1 7.65 70.7 0.7 L70.8 0.7 70.8 -1.6 70.65 -2.55 Q69.3 -10.25 61.3 -11.4 L-96.7 -11.4 Q-99.2 -11.05 -101.05 -10.0 -105.1 -7.8 -105.95 -2.25"/>
    </path>
    <path d="M-105.95 -2.25 Q-105.1 -7.8 -101.05 -10.0 -99.2 -11.05 -96.7 -11.4 L61.3 -11.4 Q69.3 -10.25 70.65 -2.55 L70.8 -1.6 70.8 0.7 70.7 0.7 Q69.1 7.65 60.45 9.5 L55.95 9.5 57.15 9.4 -59.9 9.4 -59.9 9.35 -97.7 9.35 Q-104.55 8.05 -105.85 0.7 L-105.95 0.7 -105.95 -2.25 Z" fill="none" stroke="#000000" stroke-linecap="round" stroke-linejoin="round" stroke-opacity="0.0" stroke-width="0.0">
      <animate attributeName="stroke" dur="2s" repeatCount="indefinite" values="#000000;#000001"/>
      <animate attributeName="stroke-width" dur="2s" repeatCount="indefinite" values="0.0;0.0"/>
      <animate attributeName="fill-opacity" dur="2s" repeatCount="indefinite" values="0.0;0.0"/>
      <animate attributeName="d" dur="2s" repeatCount="indefinite" values="M-105.95 -2.25 Q-105.1 -7.8 -101.05 -10.0 -99.2 -11.05 -96.7 -11.4 L61.3 -11.4 Q69.3 -10.25 70.65 -2.55 L70.8 -1.6 70.8 0.7 70.7 0.7 Q69.1 7.65 60.45 9.5 L55.95 9.5 57.15 9.4 -59.9 9.4 -59.9 9.35 -97.7 9.35 Q-104.55 8.05 -105.85 0.7 L-105.95 0.7 -105.95 -2.25 Z;M-105.95 -2.25 Q-105.1 -7.8 -101.05 -10.0 -99.2 -11.05 -96.7 -11.4 L61.3 -11.4 Q69.3 -10.25 70.65 -2.55 L70.8 -1.6 70.8 0.7 70.7 0.7 Q69.1 7.65 60.45 9.5 L55.95 9.5 57.15 9.4 -59.9 9.4 -59.9 9.35 -97.7 9.35 Q-104.55 8.05 -105.85 0.7 L-105.95 0.7 -105.95 -2.25 Z"/>
    </path>
  </g>
</svg>
