<?xml version="1.0" encoding="UTF-8" standalone="no"?>
<svg xmlns:ffdec="https://www.free-decompiler.com/flash" xmlns:xlink="http://www.w3.org/1999/xlink" ffdec:objectType="morphshape" height="7.3px" width="23.85px" xmlns="http://www.w3.org/2000/svg">
  <g transform="matrix(1.0, 0.0, 0.0, 1.0, 16.2, 5.05)">
    <path d="M-7.65 1.25 L-7.65 1.15 -7.5 0.6 -6.9 -0.25 -6.15 -1.0 Q-2.65 -0.65 -0.35 -1.7 L0.6 -2.25 1.5 -2.05 3.85 -1.55 Q5.5 -1.25 7.1 -1.0 L7.6 -0.15 7.6 0.5 7.5 0.55 Q6.85 0.8 6.2 1.05 3.0 2.15 -0.3 2.25 L-0.7 2.25 -1.7 2.25 Q-4.65 2.15 -7.65 1.25" fill="#000000" fill-rule="evenodd" stroke="none">
      <animate attributeName="fill" dur="2s" repeatCount="indefinite" values="#000000;#000001"/>
      <animate attributeName="fill-opacity" dur="2s" repeatCount="indefinite" values="1.0;1.0"/>
      <animate attributeName="d" dur="2s" repeatCount="indefinite" values="M-7.65 1.25 L-7.65 1.15 -7.5 0.6 -6.9 -0.25 -6.15 -1.0 Q-2.65 -0.65 -0.35 -1.7 L0.6 -2.25 1.5 -2.05 3.85 -1.55 Q5.5 -1.25 7.1 -1.0 L7.6 -0.15 7.6 0.5 7.5 0.55 Q6.85 0.8 6.2 1.05 3.0 2.15 -0.3 2.25 L-0.7 2.25 -1.7 2.25 Q-4.65 2.15 -7.65 1.25;M-16.2 -2.3 L-16.2 -2.3 -16.15 -1.8 -16.0 -1.3 -15.85 -0.85 Q-15.15 0.55 -13.1 0.75 L-12.4 0.75 -11.85 0.65 -10.45 -0.1 Q-9.6 -0.8 -9.55 -1.95 L-9.6 -2.5 -9.65 -3.0 -9.65 -3.1 Q-9.75 -3.6 -10.15 -3.95 -11.6 -5.2 -13.65 -5.05 L-13.8 -5.05 -14.35 -4.95 Q-16.3 -4.3 -16.2 -2.3"/>
    </path>
    <path d="M-7.65 1.25 Q-4.65 2.15 -1.7 2.25 L-0.7 2.25 -0.3 2.25 Q3.0 2.15 6.2 1.05 6.85 0.8 7.5 0.55 L7.6 0.5 7.6 -0.15 7.1 -1.0 Q5.5 -1.25 3.85 -1.55 L1.5 -2.05 0.6 -2.25 -0.35 -1.7 Q-2.65 -0.65 -6.15 -1.0 L-6.9 -0.25 -7.5 0.6 -7.65 1.15 -7.65 1.25 Z" fill="none" stroke="#000000" stroke-linecap="round" stroke-linejoin="round" stroke-opacity="0.0" stroke-width="0.0">
      <animate attributeName="stroke" dur="2s" repeatCount="indefinite" values="#000000;#000001"/>
      <animate attributeName="stroke-width" dur="2s" repeatCount="indefinite" values="0.0;0.0"/>
      <animate attributeName="fill-opacity" dur="2s" repeatCount="indefinite" values="0.0;0.0"/>
      <animate attributeName="d" dur="2s" repeatCount="indefinite" values="M-7.65 1.25 Q-4.65 2.15 -1.7 2.25 L-0.7 2.25 -0.3 2.25 Q3.0 2.15 6.2 1.05 6.85 0.8 7.5 0.55 L7.6 0.5 7.6 -0.15 7.1 -1.0 Q5.5 -1.25 3.85 -1.55 L1.5 -2.05 0.6 -2.25 -0.35 -1.7 Q-2.65 -0.65 -6.15 -1.0 L-6.9 -0.25 -7.5 0.6 -7.65 1.15 -7.65 1.25 Z;M-16.2 -2.3 Q-16.3 -4.3 -14.35 -4.95 L-13.8 -5.05 -13.65 -5.05 Q-11.6 -5.2 -10.15 -3.95 -9.75 -3.6 -9.65 -3.1 L-9.65 -3.0 -9.6 -2.5 -9.55 -1.95 Q-9.6 -0.8 -10.45 -0.1 L-11.85 0.65 -12.4 0.75 -13.1 0.75 Q-15.15 0.55 -15.85 -0.85 L-16.0 -1.3 -16.15 -1.8 -16.2 -2.3 -16.2 -2.3 Z"/>
    </path>
  </g>
</svg>
