<?xml version="1.0" encoding="UTF-8" standalone="no"?>
<svg xmlns:ffdec="https://www.free-decompiler.com/flash" xmlns:xlink="http://www.w3.org/1999/xlink" ffdec:objectType="morphshape" height="9.0px" width="34.15px" xmlns="http://www.w3.org/2000/svg">
  <g transform="matrix(1.0, 0.0, 0.0, 1.0, 16.2, 5.05)">
    <path d="M-16.2 -2.3 L-16.15 -1.85 -16.1 -1.55 Q-15.6 0.5 -13.1 0.75 L-12.45 0.8 -11.85 0.65 Q-9.5 -0.15 -9.55 -2.3 L-9.6 -2.85 -9.65 -3.1 -10.05 -3.85 -10.15 -3.95 Q-10.75 -4.45 -11.45 -4.75 L-12.25 -4.95 Q-12.95 -5.0 -13.65 -5.05 L-13.8 -5.05 -14.35 -4.95 Q-16.3 -4.3 -16.2 -2.3" fill="#000000" fill-rule="evenodd" stroke="none">
      <animate attributeName="fill" dur="2s" repeatCount="indefinite" values="#000000;#000001"/>
      <animate attributeName="fill-opacity" dur="2s" repeatCount="indefinite" values="1.0;1.0"/>
      <animate attributeName="d" dur="2s" repeatCount="indefinite" values="M-16.2 -2.3 L-16.15 -1.85 -16.1 -1.55 Q-15.6 0.5 -13.1 0.75 L-12.45 0.8 -11.85 0.65 Q-9.5 -0.15 -9.55 -2.3 L-9.6 -2.85 -9.65 -3.1 -10.05 -3.85 -10.15 -3.95 Q-10.75 -4.45 -11.45 -4.75 L-12.25 -4.95 Q-12.95 -5.0 -13.65 -5.05 L-13.8 -5.05 -14.35 -4.95 Q-16.3 -4.3 -16.2 -2.3;M-4.55 1.55 L-4.55 2.55 -3.9 2.9 Q1.6 1.2 6.6 3.1 L8.0 3.7 9.6 3.9 Q15.2 4.4 17.95 -0.55 L17.95 -2.05 17.3 -2.05 15.6 -1.95 15.45 -1.65 Q14.3 0.4 11.75 0.95 L9.8 0.75 Q8.05 -0.3 6.4 -0.85 L5.8 -1.05 4.2 -1.4 Q-0.55 -2.1 -4.55 1.55"/>
    </path>
    <path d="M-16.2 -2.3 Q-16.3 -4.3 -14.35 -4.95 L-13.8 -5.05 -13.65 -5.05 Q-12.95 -5.0 -12.25 -4.95 L-11.45 -4.75 Q-10.75 -4.45 -10.15 -3.95 L-10.05 -3.85 -9.65 -3.1 -9.6 -2.85 -9.55 -2.3 Q-9.5 -0.15 -11.85 0.65 L-12.45 0.8 -13.1 0.75 Q-15.6 0.5 -16.1 -1.55 L-16.15 -1.85 -16.2 -2.3 Z" fill="none" stroke="#000000" stroke-linecap="round" stroke-linejoin="round" stroke-opacity="0.0" stroke-width="0.0">
      <animate attributeName="stroke" dur="2s" repeatCount="indefinite" values="#000000;#000001"/>
      <animate attributeName="stroke-width" dur="2s" repeatCount="indefinite" values="0.0;0.0"/>
      <animate attributeName="fill-opacity" dur="2s" repeatCount="indefinite" values="0.0;0.0"/>
      <animate attributeName="d" dur="2s" repeatCount="indefinite" values="M-16.2 -2.3 Q-16.3 -4.3 -14.35 -4.95 L-13.8 -5.05 -13.65 -5.05 Q-12.95 -5.0 -12.25 -4.95 L-11.45 -4.75 Q-10.75 -4.45 -10.15 -3.95 L-10.05 -3.85 -9.65 -3.1 -9.6 -2.85 -9.55 -2.3 Q-9.5 -0.15 -11.85 0.65 L-12.45 0.8 -13.1 0.75 Q-15.6 0.5 -16.1 -1.55 L-16.15 -1.85 -16.2 -2.3 Z;M-4.55 1.55 Q-0.55 -2.1 4.2 -1.4 L5.8 -1.05 6.4 -0.85 Q8.05 -0.3 9.8 0.75 L11.75 0.95 Q14.3 0.4 15.45 -1.65 L15.6 -1.95 17.3 -2.05 17.95 -2.05 17.95 -0.55 Q15.2 4.4 9.6 3.9 L8.0 3.7 6.6 3.1 Q1.6 1.2 -3.9 2.9 L-4.55 2.55 -4.55 1.55 Z"/>
    </path>
  </g>
</svg>
